<?xml version='1.0' encoding='utf-8'?>
<svg xmlns:xlink="http://www.w3.org/1999/xlink" class="pygal-chart" id="chart-80669d81-09a6-412f-a532-d1e74ae8015a" viewBox="0 0 800 600" xmlns="http://www.w3.org/2000/svg"><!--Generated with pygal 2.3.0 (etree) ©Kozea 2012-2016 on 2016-12-08--><!--http://pygal.org--><!--http://github.com/Kozea/pygal--><defs><style type="text/css">#chart-80669d81-09a6-412f-a532-d1e74ae8015a{-webkit-user-select:none;-webkit-font-smoothing:antialiased;font-family:Consolas,"Liberation Mono",Menlo,Courier,monospace}#chart-80669d81-09a6-412f-a532-d1e74ae8015a .title{font-family:Consolas,"Liberation Mono",Menlo,Courier,monospace;font-size:16px}#chart-80669d81-09a6-412f-a532-d1e74ae8015a .legends .legend text{font-family:Consolas,"Liberation Mono",Menlo,Courier,monospace;font-size:14px}#chart-80669d81-09a6-412f-a532-d1e74ae8015a .axis text{font-family:Consolas,"Liberation Mono",Menlo,Courier,monospace;font-size:10px}#chart-80669d81-09a6-412f-a532-d1e74ae8015a .axis text.major{font-family:Consolas,"Liberation Mono",Menlo,Courier,monospace;font-size:10px}#chart-80669d81-09a6-412f-a532-d1e74ae8015a .text-overlay text.value{font-family:Consolas,"Liberation Mono",Menlo,Courier,monospace;font-size:16px}#chart-80669d81-09a6-412f-a532-d1e74ae8015a .text-overlay text.label{font-family:Consolas,"Liberation Mono",Menlo,Courier,monospace;font-size:10px}#chart-80669d81-09a6-412f-a532-d1e74ae8015a .tooltip{font-family:Consolas,"Liberation Mono",Menlo,Courier,monospace;font-size:14px}#chart-80669d81-09a6-412f-a532-d1e74ae8015a text.no_data{font-family:Consolas,"Liberation Mono",Menlo,Courier,monospace;font-size:64px}
#chart-80669d81-09a6-412f-a532-d1e74ae8015a{background-color:rgba(249,249,249,1)}#chart-80669d81-09a6-412f-a532-d1e74ae8015a path,#chart-80669d81-09a6-412f-a532-d1e74ae8015a line,#chart-80669d81-09a6-412f-a532-d1e74ae8015a rect,#chart-80669d81-09a6-412f-a532-d1e74ae8015a circle{-webkit-transition:150ms;-moz-transition:150ms;transition:150ms}#chart-80669d81-09a6-412f-a532-d1e74ae8015a .graph &gt; .background{fill:rgba(249,249,249,1)}#chart-80669d81-09a6-412f-a532-d1e74ae8015a .plot &gt; .background{fill:rgba(255,255,255,1)}#chart-80669d81-09a6-412f-a532-d1e74ae8015a .graph{fill:rgba(0,0,0,.87)}#chart-80669d81-09a6-412f-a532-d1e74ae8015a text.no_data{fill:rgba(0,0,0,1)}#chart-80669d81-09a6-412f-a532-d1e74ae8015a .title{fill:rgba(0,0,0,1)}#chart-80669d81-09a6-412f-a532-d1e74ae8015a .legends .legend text{fill:rgba(0,0,0,.87)}#chart-80669d81-09a6-412f-a532-d1e74ae8015a .legends .legend:hover text{fill:rgba(0,0,0,1)}#chart-80669d81-09a6-412f-a532-d1e74ae8015a .axis .line{stroke:rgba(0,0,0,1)}#chart-80669d81-09a6-412f-a532-d1e74ae8015a .axis .guide.line{stroke:rgba(0,0,0,.54)}#chart-80669d81-09a6-412f-a532-d1e74ae8015a .axis .major.line{stroke:rgba(0,0,0,.87)}#chart-80669d81-09a6-412f-a532-d1e74ae8015a .axis text.major{fill:rgba(0,0,0,1)}#chart-80669d81-09a6-412f-a532-d1e74ae8015a .axis.y .guides:hover .guide.line,#chart-80669d81-09a6-412f-a532-d1e74ae8015a .line-graph .axis.x .guides:hover .guide.line,#chart-80669d81-09a6-412f-a532-d1e74ae8015a .stackedline-graph .axis.x .guides:hover .guide.line,#chart-80669d81-09a6-412f-a532-d1e74ae8015a .xy-graph .axis.x .guides:hover .guide.line{stroke:rgba(0,0,0,1)}#chart-80669d81-09a6-412f-a532-d1e74ae8015a .axis .guides:hover text{fill:rgba(0,0,0,1)}#chart-80669d81-09a6-412f-a532-d1e74ae8015a .reactive{fill-opacity:.7;stroke-opacity:.8}#chart-80669d81-09a6-412f-a532-d1e74ae8015a .ci{stroke:rgba(0,0,0,.87)}#chart-80669d81-09a6-412f-a532-d1e74ae8015a .reactive.active,#chart-80669d81-09a6-412f-a532-d1e74ae8015a .active .reactive{fill-opacity:.8;stroke-opacity:.9;stroke-width:4}#chart-80669d81-09a6-412f-a532-d1e74ae8015a .ci .reactive.active{stroke-width:1.5}#chart-80669d81-09a6-412f-a532-d1e74ae8015a .series text{fill:rgba(0,0,0,1)}#chart-80669d81-09a6-412f-a532-d1e74ae8015a .tooltip rect{fill:rgba(255,255,255,1);stroke:rgba(0,0,0,1);-webkit-transition:opacity 150ms;-moz-transition:opacity 150ms;transition:opacity 150ms}#chart-80669d81-09a6-412f-a532-d1e74ae8015a .tooltip .label{fill:rgba(0,0,0,.87)}#chart-80669d81-09a6-412f-a532-d1e74ae8015a .tooltip .label{fill:rgba(0,0,0,.87)}#chart-80669d81-09a6-412f-a532-d1e74ae8015a .tooltip .legend{font-size:.8em;fill:rgba(0,0,0,.54)}#chart-80669d81-09a6-412f-a532-d1e74ae8015a .tooltip .x_label{font-size:.6em;fill:rgba(0,0,0,1)}#chart-80669d81-09a6-412f-a532-d1e74ae8015a .tooltip .xlink{font-size:.5em;text-decoration:underline}#chart-80669d81-09a6-412f-a532-d1e74ae8015a .tooltip .value{font-size:1.5em}#chart-80669d81-09a6-412f-a532-d1e74ae8015a .bound{font-size:.5em}#chart-80669d81-09a6-412f-a532-d1e74ae8015a .max-value{font-size:.75em;fill:rgba(0,0,0,.54)}#chart-80669d81-09a6-412f-a532-d1e74ae8015a .map-element{fill:rgba(255,255,255,1);stroke:rgba(0,0,0,.54) !important}#chart-80669d81-09a6-412f-a532-d1e74ae8015a .map-element .reactive{fill-opacity:inherit;stroke-opacity:inherit}#chart-80669d81-09a6-412f-a532-d1e74ae8015a .color-0,#chart-80669d81-09a6-412f-a532-d1e74ae8015a .color-0 a:visited{stroke:#e86fa0;fill:#e86fa0}#chart-80669d81-09a6-412f-a532-d1e74ae8015a .text-overlay .color-0 text{fill:black}
#chart-80669d81-09a6-412f-a532-d1e74ae8015a text.no_data{text-anchor:middle}#chart-80669d81-09a6-412f-a532-d1e74ae8015a .guide.line{fill:none}#chart-80669d81-09a6-412f-a532-d1e74ae8015a .centered{text-anchor:middle}#chart-80669d81-09a6-412f-a532-d1e74ae8015a .title{text-anchor:middle}#chart-80669d81-09a6-412f-a532-d1e74ae8015a .legends .legend text{fill-opacity:1}#chart-80669d81-09a6-412f-a532-d1e74ae8015a .axis.x text{text-anchor:middle}#chart-80669d81-09a6-412f-a532-d1e74ae8015a .axis.x:not(.web) text[transform]{text-anchor:start}#chart-80669d81-09a6-412f-a532-d1e74ae8015a .axis.x:not(.web) text[transform].backwards{text-anchor:end}#chart-80669d81-09a6-412f-a532-d1e74ae8015a .axis.y text{text-anchor:end}#chart-80669d81-09a6-412f-a532-d1e74ae8015a .axis.y text[transform].backwards{text-anchor:start}#chart-80669d81-09a6-412f-a532-d1e74ae8015a .axis.y2 text{text-anchor:start}#chart-80669d81-09a6-412f-a532-d1e74ae8015a .axis.y2 text[transform].backwards{text-anchor:end}#chart-80669d81-09a6-412f-a532-d1e74ae8015a .axis .guide.line{stroke-dasharray:4,4}#chart-80669d81-09a6-412f-a532-d1e74ae8015a .axis .major.guide.line{stroke-dasharray:6,6}#chart-80669d81-09a6-412f-a532-d1e74ae8015a .horizontal .axis.y .guide.line,#chart-80669d81-09a6-412f-a532-d1e74ae8015a .horizontal .axis.y2 .guide.line,#chart-80669d81-09a6-412f-a532-d1e74ae8015a .vertical .axis.x .guide.line{opacity:0}#chart-80669d81-09a6-412f-a532-d1e74ae8015a .horizontal .axis.always_show .guide.line,#chart-80669d81-09a6-412f-a532-d1e74ae8015a .vertical .axis.always_show .guide.line{opacity:1 !important}#chart-80669d81-09a6-412f-a532-d1e74ae8015a .axis.y .guides:hover .guide.line,#chart-80669d81-09a6-412f-a532-d1e74ae8015a .axis.y2 .guides:hover .guide.line,#chart-80669d81-09a6-412f-a532-d1e74ae8015a .axis.x .guides:hover .guide.line{opacity:1}#chart-80669d81-09a6-412f-a532-d1e74ae8015a .axis .guides:hover text{opacity:1}#chart-80669d81-09a6-412f-a532-d1e74ae8015a .nofill{fill:none}#chart-80669d81-09a6-412f-a532-d1e74ae8015a .subtle-fill{fill-opacity:.2}#chart-80669d81-09a6-412f-a532-d1e74ae8015a .dot{stroke-width:1px;fill-opacity:1}#chart-80669d81-09a6-412f-a532-d1e74ae8015a .dot.active{stroke-width:5px}#chart-80669d81-09a6-412f-a532-d1e74ae8015a .dot.negative{fill:transparent}#chart-80669d81-09a6-412f-a532-d1e74ae8015a text,#chart-80669d81-09a6-412f-a532-d1e74ae8015a tspan{stroke:none !important}#chart-80669d81-09a6-412f-a532-d1e74ae8015a .series text.active{opacity:1}#chart-80669d81-09a6-412f-a532-d1e74ae8015a .tooltip rect{fill-opacity:.95;stroke-width:.5}#chart-80669d81-09a6-412f-a532-d1e74ae8015a .tooltip text{fill-opacity:1}#chart-80669d81-09a6-412f-a532-d1e74ae8015a .showable{visibility:hidden}#chart-80669d81-09a6-412f-a532-d1e74ae8015a .showable.shown{visibility:visible}#chart-80669d81-09a6-412f-a532-d1e74ae8015a .gauge-background{fill:rgba(229,229,229,1);stroke:none}#chart-80669d81-09a6-412f-a532-d1e74ae8015a .bg-lines{stroke:rgba(249,249,249,1);stroke-width:2px}</style><script type="text/javascript">window.pygal = window.pygal || {};window.pygal.config = window.pygal.config || {};window.pygal.config['80669d81-09a6-412f-a532-d1e74ae8015a'] = {"no_data_text": "No data", "no_prefix": false, "xrange": null, "print_values_position": "center", "truncate_label": null, "x_labels": ["2549", "2550", "2551", "2552", "2553", "2554", "2555", "2556", "2557", "2558"], "title": null, "force_uri_protocol": "https", "defs": [], "formatter": null, "classes": ["pygal-chart"], "y_labels": null, "rounded_bars": null, "explicit_size": false, "x_labels_major_every": null, "legend_at_bottom_columns": null, "stroke_style": null, "half_pie": false, "spacing": 10, "tooltip_fancy_mode": true, "inverse_y_axis": false, "width": 800, "inner_radius": 0, "interpolation_parameters": {}, "tooltip_border_radius": 0, "style": {"no_data_font_family": "Consolas, \"Liberation Mono\", Menlo, Courier, monospace", "tooltip_font_size": 14, "tooltip_font_family": "Consolas, \"Liberation Mono\", Menlo, Courier, monospace", "stroke_opacity_hover": ".9", "legend_font_family": "Consolas, \"Liberation Mono\", Menlo, Courier, monospace", "font_family": "Consolas, \"Liberation Mono\", Menlo, Courier, monospace", "title_font_family": "Consolas, \"Liberation Mono\", Menlo, Courier, monospace", "background": "rgba(249, 249, 249, 1)", "stroke_opacity": ".8", "foreground": "rgba(0, 0, 0, .87)", "value_background": "rgba(229, 229, 229, 1)", "guide_stroke_dasharray": "4,4", "foreground_subtle": "rgba(0, 0, 0, .54)", "opacity_hover": ".8", "value_font_family": "Consolas, \"Liberation Mono\", Menlo, Courier, monospace", "value_label_font_size": 10, "plot_background": "rgba(255, 255, 255, 1)", "ci_colors": [], "label_font_size": 10, "major_label_font_size": 10, "title_font_size": 16, "no_data_font_size": 64, "value_font_size": 16, "value_colors": [], "label_font_family": "Consolas, \"Liberation Mono\", Menlo, Courier, monospace", "major_guide_stroke_dasharray": "6,6", "transition": "150ms", "foreground_strong": "rgba(0, 0, 0, 1)", "colors": ["#e86fa0", "#e88f6f", "#e8df6f", "#a0e86f", "#6fe88f", "#6fe8df", "#6fa0e8", "#8f6fe8", "#df6fe8", "#e86fa0"], "opacity": ".7", "legend_font_size": 14, "value_label_font_family": "Consolas, \"Liberation Mono\", Menlo, Courier, monospace", "major_label_font_family": "Consolas, \"Liberation Mono\", Menlo, Courier, monospace"}, "x_labels_major_count": null, "interpolation_precision": 250, "missing_value_fill_truncation": "x", "stack_from_top": false, "truncate_legend": null, "show_minor_x_labels": true, "print_zeroes": true, "css": ["file://style.css", "file://graph.css"], "y_label_rotation": 0, "legend_at_bottom": false, "print_values": false, "margin_top": null, "max_scale": 16, "allow_interruptions": false, "show_x_labels": true, "strict": false, "show_x_guides": false, "stroke": true, "margin_left": null, "dynamic_print_values": false, "print_labels": false, "show_y_labels": true, "x_labels_major": null, "range": null, "x_label_rotation": 0, "margin": 20, "zero": 0, "include_x_axis": false, "height": 600, "show_minor_y_labels": true, "show_dots": true, "interpolate": "cubic", "show_y_guides": true, "y_labels_major": null, "box_mode": "extremes", "margin_bottom": null, "order_min": null, "legend_box_size": 12, "fill": true, "show_only_major_dots": false, "js": ["//kozea.github.io/pygal.js/2.0.x/pygal-tooltips.min.js"], "x_title": null, "y_labels_major_every": null, "y_labels_major_count": null, "disable_xml_declaration": false, "y_title": null, "logarithmic": false, "pretty_print": false, "min_scale": 4, "dots_size": 2.5, "margin_right": null, "legends": [null], "secondary_range": null, "show_legend": false}</script><script type="text/javascript" xlink:href="https://kozea.github.io/pygal.js/2.0.x/pygal-tooltips.min.js" /></defs><title>Pygal</title><g class="graph stackedline-graph vertical"><rect class="background" height="600" width="800" x="0" y="0" /><g class="plot" transform="translate(60, 20)"><rect class="background" height="540" width="720.0" x="0" y="0" /><g class="axis y"><path class="line" d="M0.000000 540.000000 h720.000000" /><g class="guides"><path class="guide line" d="M0.000000 461.872451 h720.000000" /><text class="" x="-5" y="465.3724511024718">1700M</text><title>1700M</title></g><g class="guides"><path class="guide line" d="M0.000000 374.563655 h720.000000" /><text class="" x="-5" y="378.06365474077273">1800M</text><title>1800M</title></g><g class="guides"><path class="guide line" d="M0.000000 287.254858 h720.000000" /><text class="" x="-5" y="290.75485837907365">1900M</text><title>1900M</title></g><g class="guides"><path class="major guide line" d="M0.000000 199.946062 h720.000000" /><text class="major" x="-5" y="203.44606201737452">2000M</text><title>2000M</title></g><g class="guides"><path class="guide line" d="M0.000000 112.637266 h720.000000" /><text class="" x="-5" y="116.13726565567538">2100M</text><title>2100M</title></g><g class="guides"><path class="guide line" d="M0.000000 25.328469 h720.000000" /><text class="" x="-5" y="28.828469293976354">2200M</text><title>2200M</title></g></g><g class="axis x"><g class="guides"><path class="line" d="M13.846154 0.000000 v540.000000" /><text class="" x="13.846153846153847" y="555.0">2549</text></g><g class="guides"><path class="guide line" d="M90.769231 0.000000 v540.000000" /><text class="" x="90.76923076923076" y="555.0">2550</text></g><g class="guides"><path class="guide line" d="M167.692308 0.000000 v540.000000" /><text class="" x="167.69230769230765" y="555.0">2551</text></g><g class="guides"><path class="guide line" d="M244.615385 0.000000 v540.000000" /><text class="" x="244.6153846153846" y="555.0">2552</text></g><g class="guides"><path class="guide line" d="M321.538462 0.000000 v540.000000" /><text class="" x="321.5384615384615" y="555.0">2553</text></g><g class="guides"><path class="guide line" d="M398.461538 0.000000 v540.000000" /><text class="" x="398.46153846153845" y="555.0">2554</text></g><g class="guides"><path class="guide line" d="M475.384615 0.000000 v540.000000" /><text class="" x="475.38461538461536" y="555.0">2555</text></g><g class="guides"><path class="guide line" d="M552.307692 0.000000 v540.000000" /><text class="" x="552.3076923076923" y="555.0">2556</text></g><g class="guides"><path class="guide line" d="M629.230769 0.000000 v540.000000" /><text class="" x="629.2307692307692" y="555.0">2557</text></g><g class="guides"><path class="guide line" d="M706.153846 0.000000 v540.000000" /><text class="" x="706.1538461538461" y="555.0">2558</text></g></g><g class="series serie-0 color-0"><path class="line reactive" d="M13.846154 540.000000 L13.846154 529.615385 14.153846 529.301102 14.461538 528.986822 14.769231 528.672547 15.076923 528.358279 15.384615 528.044021 15.692308 527.729775 16.000000 527.415544 16.307692 527.101331 16.615385 526.787137 16.923077 526.472965 17.230769 526.158818 17.538462 525.844699 17.846154 525.530608 18.153846 525.216550 18.461538 524.902527 18.769231 524.588540 19.076923 524.274593 19.384615 523.960688 19.692308 523.646828 20.000000 523.333014 20.307692 523.019249 20.615385 522.705537 20.923077 522.391879 21.230769 522.078277 21.538462 521.764735 21.846154 521.451254 22.153846 521.137838 22.461538 520.824488 22.769231 520.511207 23.076923 520.197998 23.384615 519.884863 23.692308 519.571804 24.000000 519.258825 24.307692 518.945926 24.615385 518.633112 24.923077 518.320384 25.230769 518.007745 25.538462 517.695197 25.846154 517.382743 26.153846 517.070385 26.461538 516.758126 26.769231 516.445968 27.076923 516.133914 27.384615 515.821966 27.692308 515.510127 28.000000 515.198398 28.307692 514.886783 28.615385 514.575284 28.923077 514.263904 29.230769 513.952644 29.538462 513.641508 29.846154 513.330497 30.153846 513.019615 30.461538 512.708864 30.769231 512.398246 31.076923 512.087764 31.384615 511.777420 31.692308 511.467217 32.000000 511.157156 32.307692 510.847242 32.615385 510.537475 32.923077 510.227859 33.230769 509.918396 33.538462 509.609088 33.846154 509.299939 34.153846 508.990950 34.461538 508.682123 34.769231 508.373462 35.076923 508.064969 35.384615 507.756646 35.692308 507.448496 36.000000 507.140521 36.307692 506.832724 36.615385 506.525107 36.923077 506.217672 37.230769 505.910423 37.538462 505.603361 37.846154 505.296489 38.153846 504.989809 38.461538 504.683325 38.769231 504.377038 39.076923 504.070951 39.384615 503.765066 39.692308 503.459386 40.000000 503.153914 40.307692 502.848651 40.615385 502.543600 40.923077 502.238764 41.230769 501.934146 41.538462 501.629746 41.846154 501.325569 42.153846 501.021617 42.461538 500.717892 42.769231 500.414396 43.076923 500.111132 43.384615 499.808102 43.692308 499.505310 44.000000 499.202756 44.307692 498.900445 44.615385 498.598378 44.923077 498.296558 45.230769 497.994987 45.538462 497.693667 45.846154 497.392602 46.153846 497.091794 46.461538 496.791244 46.769231 496.490957 47.076923 496.190933 47.384615 495.891176 47.692308 495.591687 48.000000 495.292471 48.307692 494.993528 48.615385 494.694861 48.923077 494.396474 49.230769 494.098368 49.538462 493.800545 49.846154 493.503009 50.153846 493.205761 50.461538 492.908805 50.769231 492.612143 51.076923 492.315776 51.384615 492.019708 51.692308 491.723942 52.000000 491.428478 52.307692 491.133321 52.615385 490.838472 52.923077 490.543935 53.230769 490.249710 53.538462 489.955802 53.846154 489.662211 54.153846 489.368942 54.461538 489.075996 54.769231 488.783376 55.076923 488.491083 55.384615 488.199122 55.692308 487.907494 56.000000 487.616201 56.307692 487.325247 56.615385 487.034633 56.923077 486.744362 57.230769 486.454436 57.538462 486.164858 57.846154 485.875631 58.153846 485.586757 58.461538 485.298238 58.769231 485.010077 59.076923 484.722276 59.384615 484.434839 59.692308 484.147766 60.000000 483.861061 60.307692 483.574726 60.615385 483.288764 60.923077 483.003177 61.230769 482.717967 61.538462 482.433137 61.846154 482.148690 62.153846 481.864628 62.461538 481.580954 62.769231 481.297669 63.076923 481.014777 63.384615 480.732280 63.692308 480.450179 64.000000 480.168479 64.307692 479.887181 64.615385 479.606288 64.923077 479.325801 65.230769 479.045725 65.538462 478.766060 65.846154 478.486811 66.153846 478.207978 66.461538 477.929565 66.769231 477.651573 67.076923 477.374007 67.384615 477.096867 67.692308 476.820156 68.000000 476.543878 68.307692 476.268033 68.615385 475.992626 68.923077 475.717658 69.230769 475.443131 69.538462 475.169049 69.846154 474.895413 70.153846 474.622227 70.461538 474.349492 70.769231 474.077211 71.076923 473.805387 71.384615 473.534022 71.692308 473.263118 72.000000 472.992678 72.307692 472.722705 72.615385 472.453201 72.923077 472.184167 73.230769 471.915608 73.538462 471.647525 73.846154 471.379921 74.153846 471.112798 74.461538 470.846158 74.769231 470.580005 75.076923 470.314340 75.384615 470.049167 75.692308 469.784487 76.000000 469.520303 76.307692 469.256618 76.615385 468.993433 76.923077 468.730752 77.230769 468.468577 77.538462 468.206910 77.846154 467.945754 78.153846 467.685112 78.461538 467.424985 78.769231 467.165376 79.076923 466.906288 79.384615 466.647723 79.692308 466.389684 80.000000 466.132173 80.307692 465.875193 80.615385 465.618745 80.923077 465.362834 81.230769 465.107460 81.538462 464.852626 81.846154 464.598336 82.153846 464.344591 82.461538 464.091393 82.769231 463.838746 83.076923 463.586652 83.384615 463.335113 83.692308 463.084132 84.000000 462.833711 84.307692 462.583853 84.615385 462.334559 84.923077 462.085834 85.230769 461.837678 85.538462 461.590095 85.846154 461.343087 86.153846 461.096656 86.461538 460.850806 86.769231 460.605537 87.076923 460.360854 87.384615 460.116758 87.692308 459.873252 88.000000 459.630338 88.307692 459.388018 88.615385 459.146296 88.923077 458.905174 89.230769 458.664654 89.538462 458.424738 89.846154 458.185430 90.153846 457.946731 90.461538 457.708644 90.769231 457.471171 91.076923 457.234316 91.384615 456.998083 91.692308 456.762478 92.000000 456.527507 92.307692 456.293174 92.615385 456.059484 92.923077 455.826445 93.230769 455.594060 93.538462 455.362336 93.846154 455.131277 94.153846 454.900889 94.461538 454.671178 94.769231 454.442149 95.076923 454.213807 95.384615 453.986158 95.692308 453.759207 96.000000 453.532960 96.307692 453.307422 96.615385 453.082598 96.923077 452.858494 97.230769 452.635115 97.538462 452.412467 97.846154 452.190556 98.153846 451.969385 98.461538 451.748962 98.769231 451.529291 99.076923 451.310378 99.384615 451.092228 99.692308 450.874847 100.000000 450.658239 100.307692 450.442411 100.615385 450.227368 100.923077 450.013116 101.230769 449.799658 101.538462 449.587002 101.846154 449.375153 102.153846 449.164116 102.461538 448.953895 102.769231 448.744498 103.076923 448.535929 103.384615 448.328193 103.692308 448.121297 104.000000 447.915245 104.307692 447.710043 104.615385 447.505696 104.923077 447.302210 105.230769 447.099589 105.538462 446.897841 105.846154 446.696969 106.153846 446.496980 106.461538 446.297878 106.769231 446.099670 107.076923 445.902360 107.384615 445.705955 107.692308 445.510458 108.000000 445.315877 108.307692 445.122216 108.615385 444.929480 108.923077 444.737676 109.230769 444.546808 109.538462 444.356883 109.846154 444.167904 110.153846 443.979878 110.461538 443.792811 110.769231 443.606707 111.076923 443.421572 111.384615 443.237412 111.692308 443.054231 112.000000 442.872036 112.307692 442.690831 112.615385 442.510623 112.923077 442.331416 113.230769 442.153216 113.538462 441.976028 113.846154 441.799858 114.153846 441.624711 114.461538 441.450593 114.769231 441.277509 115.076923 441.105464 115.384615 440.934465 115.692308 440.764515 116.000000 440.595621 116.307692 440.427789 116.615385 440.261022 116.923077 440.095328 117.230769 439.930711 117.538462 439.767177 117.846154 439.604731 118.153846 439.443379 118.461538 439.283126 118.769231 439.123977 119.076923 438.965938 119.384615 438.809014 119.692308 438.653211 120.000000 438.498534 120.307692 438.344988 120.615385 438.192580 120.923077 438.041314 121.230769 437.891195 121.538462 437.742230 121.846154 437.594424 122.153846 437.447781 122.461538 437.302308 122.769231 437.158010 123.076923 437.014892 123.384615 436.872960 123.692308 436.732218 124.000000 436.592674 124.307692 436.454331 124.615385 436.317195 124.923077 436.181273 125.230769 436.046568 125.538462 435.913088 125.846154 435.780836 126.153846 435.649818 126.461538 435.520041 126.769231 435.391509 127.076923 435.264227 127.384615 435.138202 127.692308 435.013438 128.000000 434.889941 128.307692 434.767716 128.615385 434.646769 128.923077 434.527105 129.230769 434.408730 129.538462 434.291649 129.846154 434.175868 130.153846 434.061391 130.461538 433.948224 130.769231 433.836373 131.076923 433.725844 131.384615 433.616640 131.692308 433.508769 132.000000 433.402235 132.307692 433.297044 132.615385 433.193201 132.923077 433.090712 133.230769 432.989581 133.538462 432.889815 133.846154 432.791419 134.153846 432.694398 134.461538 432.598758 134.769231 432.504504 135.076923 432.411642 135.384615 432.320176 135.692308 432.230113 136.000000 432.141457 136.307692 432.054215 136.615385 431.968391 136.923077 431.883992 137.230769 431.801021 137.538462 431.719486 137.846154 431.639391 138.153846 431.560741 138.461538 431.483543 138.769231 431.407801 139.076923 431.333521 139.384615 431.260709 139.692308 431.189369 140.000000 431.119507 140.307692 431.051129 140.615385 430.984240 140.923077 430.918846 141.230769 430.854951 141.538462 430.792562 141.846154 430.731683 142.153846 430.672320 142.461538 430.614479 142.769231 430.558165 143.076923 430.503383 143.384615 430.450139 143.692308 430.398438 144.000000 430.348285 144.307692 430.299687 144.615385 430.252648 144.923077 430.207174 145.230769 430.163270 145.538462 430.120942 145.846154 430.080195 146.153846 430.041034 146.461538 430.003466 146.769231 429.967495 147.076923 429.933126 147.384615 429.900366 147.692308 429.869219 148.000000 429.839691 148.307692 429.811788 148.615385 429.785515 148.923077 429.760877 149.230769 429.737879 149.538462 429.716528 149.846154 429.696828 150.153846 429.678785 150.461538 429.662404 150.769231 429.647691 151.076923 429.634652 151.384615 429.623291 151.692308 429.613614 152.000000 429.605626 152.307692 429.599333 152.615385 429.594741 152.923077 429.591854 153.230769 429.590678 153.538462 429.591219 153.846154 429.593481 154.153846 429.597471 154.461538 429.603194 154.769231 429.610655 155.076923 429.619860 155.384615 429.630813 155.692308 429.643521 156.000000 429.657989 156.307692 429.674222 156.615385 429.692226 156.923077 429.712006 157.230769 429.733567 157.538462 429.756915 157.846154 429.782056 158.153846 429.808994 158.461538 429.837736 158.769231 429.868286 159.076923 429.900650 159.384615 429.934834 159.692308 429.970842 160.000000 430.008681 160.307692 430.048355 160.615385 430.089870 160.923077 430.133232 161.230769 430.178446 161.538462 430.225517 161.846154 430.274451 162.153846 430.325253 162.461538 430.377929 162.769231 430.432484 163.076923 430.488923 163.384615 430.547252 163.692308 430.607476 164.000000 430.669601 164.307692 430.733632 164.615385 430.799575 164.923077 430.867434 165.230769 430.937216 165.538462 431.008925 165.846154 431.082568 166.153846 431.158149 166.461538 431.235675 166.769231 431.315149 167.076923 431.396579 167.384615 431.479969 167.692308 431.565324 168.000000 431.652644 168.307692 431.741904 168.615385 431.833070 168.923077 431.926111 169.230769 432.020994 169.538462 432.117688 169.846154 432.216160 170.153846 432.316379 170.461538 432.418312 170.769231 432.521926 171.076923 432.627191 171.384615 432.734074 171.692308 432.842542 172.000000 432.952563 172.307692 433.064106 172.615385 433.177139 172.923077 433.291628 173.230769 433.407543 173.538462 433.524851 173.846154 433.643519 174.153846 433.763516 174.461538 433.884810 174.769231 434.007369 175.076923 434.131159 175.384615 434.256150 175.692308 434.382309 176.000000 434.509604 176.307692 434.638003 176.615385 434.767474 176.923077 434.897984 177.230769 435.029502 177.538462 435.161995 177.846154 435.295432 178.153846 435.429780 178.461538 435.565007 178.769231 435.701081 179.076923 435.837969 179.384615 435.975641 179.692308 436.114062 180.000000 436.253203 180.307692 436.393030 180.615385 436.533511 180.923077 436.674614 181.230769 436.816307 181.538462 436.958558 181.846154 437.101335 182.153846 437.244605 182.461538 437.388337 182.769231 437.532498 183.076923 437.677057 183.384615 437.821981 183.692308 437.967238 184.000000 438.112795 184.307692 438.258622 184.615385 438.404685 184.923077 438.550953 185.230769 438.697394 185.538462 438.843974 185.846154 438.990663 186.153846 439.137428 186.461538 439.284237 186.769231 439.431058 187.076923 439.577859 187.384615 439.724607 187.692308 439.871271 188.000000 440.017818 188.307692 440.164216 188.615385 440.310434 188.923077 440.456439 189.230769 440.602198 189.538462 440.747681 189.846154 440.892854 190.153846 441.037685 190.461538 441.182143 190.769231 441.326196 191.076923 441.469810 191.384615 441.612955 191.692308 441.755598 192.000000 441.897706 192.307692 442.039249 192.615385 442.180193 192.923077 442.320506 193.230769 442.460157 193.538462 442.599113 193.846154 442.737342 194.153846 442.874812 194.461538 443.011492 194.769231 443.147347 195.076923 443.282348 195.384615 443.416461 195.692308 443.549655 196.000000 443.681897 196.307692 443.813155 196.615385 443.943397 196.923077 444.072591 197.230769 444.200705 197.538462 444.327707 197.846154 444.453565 198.153846 444.578245 198.461538 444.701718 198.769231 444.823949 199.076923 444.944908 199.384615 445.064561 199.692308 445.182878 200.000000 445.299825 200.307692 445.415371 200.615385 445.529484 200.923077 445.642131 201.230769 445.753280 201.538462 445.862900 201.846154 445.970957 202.153846 446.077421 202.461538 446.182258 202.769231 446.285437 203.076923 446.386926 203.384615 446.486692 203.692308 446.584703 204.000000 446.680928 204.307692 446.775334 204.615385 446.867889 204.923077 446.958560 205.230769 447.047317 205.538462 447.134126 205.846154 447.218956 206.153846 447.301774 206.461538 447.382548 206.769231 447.461247 207.076923 447.537837 207.384615 447.612288 207.692308 447.684566 208.000000 447.754640 208.307692 447.822478 208.615385 447.888047 208.923077 447.951316 209.230769 448.012252 209.538462 448.070822 209.846154 448.126996 210.153846 448.180741 210.461538 448.232024 210.769231 448.280815 211.076923 448.327079 211.384615 448.370786 211.692308 448.411904 212.000000 448.450399 212.307692 448.486241 212.615385 448.519396 212.923077 448.549833 213.230769 448.577520 213.538462 448.602425 213.846154 448.624515 214.153846 448.643758 214.461538 448.660123 214.769231 448.673577 215.076923 448.684087 215.384615 448.691623 215.692308 448.696151 216.000000 448.697640 216.307692 448.696057 216.615385 448.691371 216.923077 448.683549 217.230769 448.672560 217.538462 448.658370 217.846154 448.640948 218.153846 448.620262 218.461538 448.596280 218.769231 448.568969 219.076923 448.538298 219.384615 448.504234 219.692308 448.466745 220.000000 448.425799 220.307692 448.381364 220.615385 448.333409 220.923077 448.281899 221.230769 448.226805 221.538462 448.168093 221.846154 448.105731 222.153846 448.039688 222.461538 447.969931 222.769231 447.896427 223.076923 447.819146 223.384615 447.738055 223.692308 447.653121 224.000000 447.564312 224.307692 447.471598 224.615385 447.374944 224.923077 447.274320 225.230769 447.169692 225.538462 447.061030 225.846154 446.948301 226.153846 446.831472 226.461538 446.710512 226.769231 446.585388 227.076923 446.456069 227.384615 446.322522 227.692308 446.184715 228.000000 446.042616 228.307692 445.896193 228.615385 445.745414 228.923077 445.590246 229.230769 445.430658 229.538462 445.266618 229.846154 445.098092 230.153846 444.925050 230.461538 444.747459 230.769231 444.565287 231.076923 444.378502 231.384615 444.187071 231.692308 443.990963 232.000000 443.790146 232.307692 443.584587 232.615385 443.374254 232.923077 443.159115 233.230769 442.939138 233.538462 442.714291 233.846154 442.484542 234.153846 442.249859 234.461538 442.010209 234.769231 441.765560 235.076923 441.515881 235.384615 441.261139 235.692308 441.001302 236.000000 440.736338 236.307692 440.466215 236.615385 440.190900 236.923077 439.910362 237.230769 439.624569 237.538462 439.333488 237.846154 439.037087 238.153846 438.735334 238.461538 438.428197 238.769231 438.115644 239.076923 437.797643 239.384615 437.474161 239.692308 437.145167 240.000000 436.810628 240.307692 436.470513 240.615385 436.124789 240.923077 435.773424 241.230769 435.416385 241.538462 435.053642 241.846154 434.685161 242.153846 434.310911 242.461538 433.930859 242.769231 433.544974 243.076923 433.153223 243.384615 432.755574 243.692308 432.351995 244.000000 431.942453 244.307692 431.526918 244.615385 431.105356 244.923077 430.677750 245.230769 430.244137 245.538462 429.804570 245.846154 429.359101 246.153846 428.907782 246.461538 428.450666 246.769231 427.987804 247.076923 427.519248 247.384615 427.045051 247.692308 426.565265 248.000000 426.079942 248.307692 425.589134 248.615385 425.092894 248.923077 424.591273 249.230769 424.084323 249.538462 423.572097 249.846154 423.054647 250.153846 422.532026 250.461538 422.004284 250.769231 421.471475 251.076923 420.933650 251.384615 420.390862 251.692308 419.843163 252.000000 419.290604 252.307692 418.733239 252.615385 418.171119 252.923077 417.604296 253.230769 417.032823 253.538462 416.456752 253.846154 415.876134 254.153846 415.291023 254.461538 414.701470 254.769231 414.107527 255.076923 413.509246 255.384615 412.906680 255.692308 412.299881 256.000000 411.688900 256.307692 411.073791 256.615385 410.454605 256.923077 409.831394 257.230769 409.204211 257.538462 408.573107 257.846154 407.938135 258.153846 407.299348 258.461538 406.656796 258.769231 406.010532 259.076923 405.360609 259.384615 404.707078 259.692308 404.049993 260.000000 403.389404 260.307692 402.725363 260.615385 402.057925 260.923077 401.387139 261.230769 400.713059 261.538462 400.035736 261.846154 399.355223 262.153846 398.671572 262.461538 397.984836 262.769231 397.295065 263.076923 396.602312 263.384615 395.906631 263.692308 395.208071 264.000000 394.506687 264.307692 393.802529 264.615385 393.095651 264.923077 392.386104 265.230769 391.673940 265.538462 390.959212 265.846154 390.241971 266.153846 389.522271 266.461538 388.800162 266.769231 388.075698 267.076923 387.348929 267.384615 386.619909 267.692308 385.888690 268.000000 385.155324 268.307692 384.419862 268.615385 383.682358 268.923077 382.942862 269.230769 382.201428 269.538462 381.458108 269.846154 380.712953 270.153846 379.966016 270.461538 379.217349 270.769231 378.467003 271.076923 377.715033 271.384615 376.961488 271.692308 376.206422 272.000000 375.449887 272.307692 374.691935 272.615385 373.932617 272.923077 373.171987 273.230769 372.410096 273.538462 371.646996 273.846154 370.882740 274.153846 370.117380 274.461538 369.350968 274.769231 368.583556 275.076923 367.815196 275.384615 367.045940 275.692308 366.275840 276.000000 365.504950 276.307692 364.733320 276.615385 363.961003 276.923077 363.188051 277.230769 362.414517 277.538462 361.640451 277.846154 360.865908 278.153846 360.090938 278.461538 359.315593 278.769231 358.539927 279.076923 357.763991 279.384615 356.987837 279.692308 356.211518 280.000000 355.435085 280.307692 354.658591 280.615385 353.882088 280.923077 353.105628 281.230769 352.329263 281.538462 351.553045 281.846154 350.777027 282.153846 350.001261 282.461538 349.225798 282.769231 348.450691 283.076923 347.675993 283.384615 346.901754 283.692308 346.128028 284.000000 345.354867 284.307692 344.582322 284.615385 343.810446 284.923077 343.039291 285.230769 342.268909 285.538462 341.499352 285.846154 340.730673 286.153846 339.962923 286.461538 339.196155 286.769231 338.430421 287.076923 337.665773 287.384615 336.902263 287.692308 336.139944 288.000000 335.378867 288.307692 334.619084 288.615385 333.860649 288.923077 333.103612 289.230769 332.348026 289.538462 331.593944 289.846154 330.841417 290.153846 330.090497 290.461538 329.341238 290.769231 328.593690 291.076923 327.847906 291.384615 327.103938 291.692308 326.361838 292.000000 325.621659 292.307692 324.883452 292.615385 324.147270 292.923077 323.413165 293.230769 322.681189 293.538462 321.951395 293.846154 321.223833 294.153846 320.498557 294.461538 319.775619 294.769231 319.055070 295.076923 318.336963 295.384615 317.621351 295.692308 316.908284 296.000000 316.197816 296.307692 315.489999 296.615385 314.784884 296.923077 314.082524 297.230769 313.382971 297.538462 312.686277 297.846154 311.992494 298.153846 311.301675 298.461538 310.613871 298.769231 309.929135 299.076923 309.247519 299.384615 308.569075 299.692308 307.893855 300.000000 307.221912 300.307692 306.553297 300.615385 305.888062 300.923077 305.226260 301.230769 304.567944 301.538462 303.913164 301.846154 303.261973 302.153846 302.614424 302.461538 301.970569 302.769231 301.330459 303.076923 300.694147 303.384615 300.061684 303.692308 299.433124 304.000000 298.808519 304.307692 298.187919 304.615385 297.571379 304.923077 296.958948 305.230769 296.350681 305.538462 295.746629 305.846154 295.146844 306.153846 294.551378 306.461538 293.960284 306.769231 293.373613 307.076923 292.791419 307.384615 292.213752 307.692308 291.640665 308.000000 291.072210 308.307692 290.508440 308.615385 289.949406 308.923077 289.395161 309.230769 288.845756 309.538462 288.301245 309.846154 287.761679 310.153846 287.227110 310.461538 286.697590 310.769231 286.173172 311.076923 285.653908 311.384615 285.139850 311.692308 284.631049 312.000000 284.127559 312.307692 283.629431 312.615385 283.136717 312.923077 282.649471 313.230769 282.167742 313.538462 281.691585 313.846154 281.221051 314.153846 280.756192 314.461538 280.297061 314.769231 279.843709 315.076923 279.396188 315.384615 278.954552 315.692308 278.518851 316.000000 278.089138 316.307692 277.665466 316.615385 277.247886 316.923077 276.836451 317.230769 276.431212 317.538462 276.032223 317.846154 275.639534 318.153846 275.253198 318.461538 274.873268 318.769231 274.499795 319.076923 274.132832 319.384615 273.772431 319.692308 273.418643 320.000000 273.071522 320.307692 272.731119 320.615385 272.397486 320.923077 272.070675 321.230769 271.750739 321.538462 271.437731 321.846154 271.131683 322.153846 270.832563 322.461538 270.540319 322.769231 270.254899 323.076923 269.976252 323.384615 269.704325 323.692308 269.439068 324.000000 269.180429 324.307692 268.928356 324.615385 268.682797 324.923077 268.443701 325.230769 268.211017 325.538462 267.984693 325.846154 267.764676 326.153846 267.550917 326.461538 267.343362 326.769231 267.141961 327.076923 266.946661 327.384615 266.757412 327.692308 266.574161 328.000000 266.396857 328.307692 266.225449 328.615385 266.059884 328.923077 265.900112 329.230769 265.746080 329.538462 265.597737 329.846154 265.455031 330.153846 265.317912 330.461538 265.186326 330.769231 265.060223 331.076923 264.939552 331.384615 264.824259 331.692308 264.714295 332.000000 264.609606 332.307692 264.510142 332.615385 264.415852 332.923077 264.326682 333.230769 264.242583 333.538462 264.163501 333.846154 264.089387 334.153846 264.020187 334.461538 263.955851 334.769231 263.896326 335.076923 263.841562 335.384615 263.791506 335.692308 263.746108 336.000000 263.705315 336.307692 263.669075 336.615385 263.637338 336.923077 263.610052 337.230769 263.587164 337.538462 263.568625 337.846154 263.554380 338.153846 263.544381 338.461538 263.538573 338.769231 263.536907 339.076923 263.539330 339.384615 263.545792 339.692308 263.556239 340.000000 263.570621 340.307692 263.588886 340.615385 263.610983 340.923077 263.636859 341.230769 263.666464 341.538462 263.699745 341.846154 263.736651 342.153846 263.777131 342.461538 263.821133 342.769231 263.868605 343.076923 263.919496 343.384615 263.973753 343.692308 264.031327 344.000000 264.092164 344.307692 264.156213 344.615385 264.223423 344.923077 264.293742 345.230769 264.367119 345.538462 264.443501 345.846154 264.522838 346.153846 264.605077 346.461538 264.690168 346.769231 264.778058 347.076923 264.868696 347.384615 264.962030 347.692308 265.058009 348.000000 265.156581 348.307692 265.257695 348.615385 265.361298 348.923077 265.467340 349.230769 265.575768 349.538462 265.686532 349.846154 265.799579 350.153846 265.914857 350.461538 266.032317 350.769231 266.151905 351.076923 266.273570 351.384615 266.397260 351.692308 266.522925 352.000000 266.650512 352.307692 266.779969 352.615385 266.911246 352.923077 267.044290 353.230769 267.179050 353.538462 267.315474 353.846154 267.453512 354.153846 267.593110 354.461538 267.734218 354.769231 267.876783 355.076923 268.020755 355.384615 268.166082 355.692308 268.312712 356.000000 268.460594 356.307692 268.609675 356.615385 268.759905 356.923077 268.911231 357.230769 269.063603 357.538462 269.216968 357.846154 269.371275 358.153846 269.526473 358.461538 269.682509 358.769231 269.839333 359.076923 269.996892 359.384615 270.155135 359.692308 270.314010 360.000000 270.473466 360.307692 270.633451 360.615385 270.793914 360.923077 270.954803 361.230769 271.116066 361.538462 271.277652 361.846154 271.439509 362.153846 271.601585 362.461538 271.763830 362.769231 271.926191 363.076923 272.088617 363.384615 272.251056 363.692308 272.413456 364.000000 272.575767 364.307692 272.737936 364.615385 272.899911 364.923077 273.061642 365.230769 273.223077 365.538462 273.384163 365.846154 273.544850 366.153846 273.705085 366.461538 273.864818 366.769231 274.023997 367.076923 274.182569 367.384615 274.340484 367.692308 274.497690 368.000000 274.654134 368.307692 274.809767 368.615385 274.964535 368.923077 275.118388 369.230769 275.271274 369.538462 275.423141 369.846154 275.573937 370.153846 275.723612 370.461538 275.872112 370.769231 276.019388 371.076923 276.165387 371.384615 276.310058 371.692308 276.453348 372.000000 276.595207 372.307692 276.735583 372.615385 276.874424 372.923077 277.011679 373.230769 277.147296 373.538462 277.281223 373.846154 277.413409 374.153846 277.543802 374.461538 277.672351 374.769231 277.799004 375.076923 277.923709 375.384615 278.046416 375.692308 278.167071 376.000000 278.285624 376.307692 278.402023 376.615385 278.516217 376.923077 278.628154 377.230769 278.737781 377.538462 278.845049 377.846154 278.949904 378.153846 279.052296 378.461538 279.152173 378.769231 279.249483 379.076923 279.344174 379.384615 279.436196 379.692308 279.525496 380.000000 279.612023 380.307692 279.695726 380.615385 279.776552 380.923077 279.854450 381.230769 279.929368 381.538462 280.001256 381.846154 280.070061 382.153846 280.135731 382.461538 280.198216 382.769231 280.257463 383.076923 280.313420 383.384615 280.366038 383.692308 280.415262 384.000000 280.461043 384.307692 280.503329 384.615385 280.542067 384.923077 280.577207 385.230769 280.608696 385.538462 280.636483 385.846154 280.660517 386.153846 280.680746 386.461538 280.697118 386.769231 280.709582 387.076923 280.718086 387.384615 280.722578 387.692308 280.723008 388.000000 280.719322 388.307692 280.711471 388.615385 280.699401 388.923077 280.683062 389.230769 280.662402 389.538462 280.637369 389.846154 280.607912 390.153846 280.573979 390.461538 280.535519 390.769231 280.492479 391.076923 280.444809 391.384615 280.392457 391.692308 280.335371 392.000000 280.273499 392.307692 280.206790 392.615385 280.135193 392.923077 280.058655 393.230769 279.977125 393.538462 279.890552 393.846154 279.798884 394.153846 279.702069 394.461538 279.600056 394.769231 279.492794 395.076923 279.380229 395.384615 279.262312 395.692308 279.138990 396.000000 279.010212 396.307692 278.875925 396.615385 278.736080 396.923077 278.590623 397.230769 278.439504 397.538462 278.282671 397.846154 278.120071 398.153846 277.951655 398.461538 277.777369 398.769231 277.597178 399.076923 277.411107 399.384615 277.219195 399.692308 277.021484 400.000000 276.818014 400.307692 276.608825 400.615385 276.393958 400.923077 276.173452 401.230769 275.947348 401.538462 275.715687 401.846154 275.478508 402.153846 275.235853 402.461538 274.987761 402.769231 274.734273 403.076923 274.475429 403.384615 274.211270 403.692308 273.941836 404.000000 273.667167 404.307692 273.387303 404.615385 273.102285 404.923077 272.812154 405.230769 272.516949 405.538462 272.216711 405.846154 271.911480 406.153846 271.601297 406.461538 271.286202 406.769231 270.966235 407.076923 270.641437 407.384615 270.311848 407.692308 269.977508 408.000000 269.638458 408.307692 269.294738 408.615385 268.946388 408.923077 268.593450 409.230769 268.235962 409.538462 267.873965 409.846154 267.507500 410.153846 267.136608 410.461538 266.761327 410.769231 266.381700 411.076923 265.997766 411.384615 265.609565 411.692308 265.217138 412.000000 264.820525 412.307692 264.419766 412.615385 264.014903 412.923077 263.605974 413.230769 263.193021 413.538462 262.776084 413.846154 262.355204 414.153846 261.930419 414.461538 261.501772 414.769231 261.069302 415.076923 260.633049 415.384615 260.193055 415.692308 259.749359 416.000000 259.302001 416.307692 258.851022 416.615385 258.396463 416.923077 257.938363 417.230769 257.476763 417.538462 257.011704 417.846154 256.543225 418.153846 256.071368 418.461538 255.596171 418.769231 255.117677 419.076923 254.635924 419.384615 254.150954 419.692308 253.662807 420.000000 253.171522 420.307692 252.677142 420.615385 252.179705 420.923077 251.679252 421.230769 251.175823 421.538462 250.669460 421.846154 250.160201 422.153846 249.648088 422.461538 249.133161 422.769231 248.615460 423.076923 248.095025 423.384615 247.571898 423.692308 247.046117 424.000000 246.517725 424.307692 245.986760 424.615385 245.453263 424.923077 244.917275 425.230769 244.378836 425.538462 243.837986 425.846154 243.294766 426.153846 242.749216 426.461538 242.201376 426.769231 241.651286 427.076923 241.098988 427.384615 240.544521 427.692308 239.987926 428.000000 239.429243 428.307692 238.868512 428.615385 238.305774 428.923077 237.741069 429.230769 237.174437 429.538462 236.605919 429.846154 236.035555 430.153846 235.463386 430.461538 234.889451 430.769231 234.313792 431.076923 233.736448 431.384615 233.157459 431.692308 232.576867 432.000000 231.994712 432.307692 231.411033 432.615385 230.825872 432.923077 230.239268 433.230769 229.651262 433.538462 229.061894 433.846154 228.471204 434.153846 227.879234 434.461538 227.286023 434.769231 226.691611 435.076923 226.096039 435.384615 225.499348 435.692308 224.901577 436.000000 224.302768 436.307692 223.702959 436.615385 223.102192 436.923077 222.500508 437.230769 221.897945 437.538462 221.294545 437.846154 220.690349 438.153846 220.085395 438.461538 219.479726 438.769231 218.873380 439.076923 218.266399 439.384615 217.658822 439.692308 217.050691 440.000000 216.442045 440.307692 215.832925 440.615385 215.223371 440.923077 214.613423 441.230769 214.003123 441.538462 213.392509 441.846154 212.781623 442.153846 212.170505 442.461538 211.559195 442.769231 210.947733 443.076923 210.336161 443.384615 209.724517 443.692308 209.112844 444.000000 208.501180 444.307692 207.889566 444.615385 207.278043 444.923077 206.666651 445.230769 206.055430 445.538462 205.444421 445.846154 204.833664 446.153846 204.223199 446.461538 203.613066 446.769231 203.003307 447.076923 202.393961 447.384615 201.785069 447.692308 201.176671 448.000000 200.568807 448.307692 199.961518 448.615385 199.354844 448.923077 198.748825 449.230769 198.143502 449.538462 197.538915 449.846154 196.935105 450.153846 196.332111 450.461538 195.729975 450.769231 195.128736 451.076923 194.528435 451.384615 193.929112 451.692308 193.330807 452.000000 192.733562 452.307692 192.137415 452.615385 191.542408 452.923077 190.948581 453.230769 190.355974 453.538462 189.764628 453.846154 189.174583 454.153846 188.585878 454.461538 187.998556 454.769231 187.412655 455.076923 186.828217 455.384615 186.245281 455.692308 185.663889 456.000000 185.084079 456.307692 184.505894 456.615385 183.929372 456.923077 183.354555 457.230769 182.781482 457.538462 182.210194 457.846154 181.640732 458.153846 181.073135 458.461538 180.507445 458.769231 179.943701 459.076923 179.381944 459.384615 178.822213 459.692308 178.264551 460.000000 177.708996 460.307692 177.155589 460.615385 176.604370 460.923077 176.055381 461.230769 175.508660 461.538462 174.964249 461.846154 174.422188 462.153846 173.882517 462.461538 173.345277 462.769231 172.810508 463.076923 172.278249 463.384615 171.748543 463.692308 171.221428 464.000000 170.696945 464.307692 170.175135 464.615385 169.656038 464.923077 169.139695 465.230769 168.626145 465.538462 168.115429 465.846154 167.607587 466.153846 167.102660 466.461538 166.600688 466.769231 166.101711 467.076923 165.605770 467.384615 165.112905 467.692308 164.623156 468.000000 164.136564 468.307692 163.653169 468.615385 163.173012 468.923077 162.696132 469.230769 162.222570 469.538462 161.752367 469.846154 161.285563 470.153846 160.822198 470.461538 160.362312 470.769231 159.905946 471.076923 159.453140 471.384615 159.003935 471.692308 158.558370 472.000000 158.116487 472.307692 157.678325 472.615385 157.243926 472.923077 156.813328 473.230769 156.386573 473.538462 155.963701 473.846154 155.544752 474.153846 155.129767 474.461538 154.718785 474.769231 154.311848 475.076923 153.908996 475.384615 153.510268 475.692308 153.115696 476.000000 152.725266 476.307692 152.338956 476.615385 151.956744 476.923077 151.578606 477.230769 151.204521 477.538462 150.834465 477.846154 150.468416 478.153846 150.106351 478.461538 149.748249 478.769231 149.394085 479.076923 149.043838 479.384615 148.697484 479.692308 148.355002 480.000000 148.016369 480.307692 147.681561 480.615385 147.350557 480.923077 147.023333 481.230769 146.699868 481.538462 146.380138 481.846154 146.064121 482.153846 145.751794 482.461538 145.443135 482.769231 145.138121 483.076923 144.836729 483.384615 144.538937 483.692308 144.244722 484.000000 143.954061 484.307692 143.666933 484.615385 143.383313 484.923077 143.103181 485.230769 142.826512 485.538462 142.553285 485.846154 142.283476 486.153846 142.017064 486.461538 141.754025 486.769231 141.494337 487.076923 141.237978 487.384615 140.984923 487.692308 140.735152 488.000000 140.488642 488.307692 140.245369 488.615385 140.005311 488.923077 139.768446 489.230769 139.534751 489.538462 139.304203 489.846154 139.076780 490.153846 138.852459 490.461538 138.631217 490.769231 138.413032 491.076923 138.197881 491.384615 137.985742 491.692308 137.776592 492.000000 137.570408 492.307692 137.367168 492.615385 137.166848 492.923077 136.969428 493.230769 136.774883 493.538462 136.583191 493.846154 136.394330 494.153846 136.208277 494.461538 136.025009 494.769231 135.844504 495.076923 135.666738 495.384615 135.491691 495.692308 135.319338 496.000000 135.149657 496.307692 134.982626 496.615385 134.818222 496.923077 134.656423 497.230769 134.497205 497.538462 134.340546 497.846154 134.186423 498.153846 134.034815 498.461538 133.885698 498.769231 133.739049 499.076923 133.594846 499.384615 133.453067 499.692308 133.313688 500.000000 133.176688 500.307692 133.042043 500.615385 132.909731 500.923077 132.779729 501.230769 132.652015 501.538462 132.526566 501.846154 132.403359 502.153846 132.282372 502.461538 132.163582 502.769231 132.046966 503.076923 131.932503 503.384615 131.820169 503.692308 131.709941 504.000000 131.601797 504.307692 131.495715 504.615385 131.391672 504.923077 131.289645 505.230769 131.189611 505.538462 131.091548 505.846154 130.995433 506.153846 130.901245 506.461538 130.808959 506.769231 130.718553 507.076923 130.630006 507.384615 130.543293 507.692308 130.458393 508.000000 130.375283 508.307692 130.293941 508.615385 130.214343 508.923077 130.136467 509.230769 130.060290 509.538462 129.985791 509.846154 129.912945 510.153846 129.841731 510.461538 129.772126 510.769231 129.704108 511.076923 129.637653 511.384615 129.572739 511.692308 129.509344 512.000000 129.447444 512.307692 129.387018 512.615385 129.328042 512.923077 129.270494 513.230769 129.214352 513.538462 129.159592 513.846154 129.106192 514.153846 129.054130 514.461538 129.003383 514.769231 128.953928 515.076923 128.905742 515.384615 128.858804 515.692308 128.813089 516.000000 128.768577 516.307692 128.725244 516.615385 128.683067 516.923077 128.642024 517.230769 128.602092 517.538462 128.563249 517.846154 128.525472 518.153846 128.488738 518.461538 128.453025 518.769231 128.418310 519.076923 128.384571 519.384615 128.351785 519.692308 128.319928 520.000000 128.288980 520.307692 128.258916 520.615385 128.229715 520.923077 128.201354 521.230769 128.173810 521.538462 128.147060 521.846154 128.121082 522.153846 128.095854 522.461538 128.071352 522.769231 128.047554 523.076923 128.024438 523.384615 128.001980 523.692308 127.980159 524.000000 127.958951 524.307692 127.938334 524.615385 127.918285 524.923077 127.898782 525.230769 127.879802 525.538462 127.861322 525.846154 127.843321 526.153846 127.825774 526.461538 127.808660 526.769231 127.791956 527.076923 127.775639 527.384615 127.759687 527.692308 127.744077 528.000000 127.728787 528.307692 127.713793 528.615385 127.699074 528.923077 127.684606 529.230769 127.670367 529.538462 127.656334 529.846154 127.642485 530.153846 127.628798 530.461538 127.615248 530.769231 127.601815 531.076923 127.588474 531.384615 127.575205 531.692308 127.561983 532.000000 127.548787 532.307692 127.535593 532.615385 127.522380 532.923077 127.509124 533.230769 127.495802 533.538462 127.482393 533.846154 127.468874 534.153846 127.455222 534.461538 127.441414 534.769231 127.427428 535.076923 127.413240 535.384615 127.398830 535.692308 127.384173 536.000000 127.369248 536.307692 127.354031 536.615385 127.338500 536.923077 127.322633 537.230769 127.306406 537.538462 127.289797 537.846154 127.272784 538.153846 127.255344 538.461538 127.237454 538.769231 127.219092 539.076923 127.200235 539.384615 127.180860 539.692308 127.160945 540.000000 127.140468 540.307692 127.119404 540.615385 127.097733 540.923077 127.075431 541.230769 127.052476 541.538462 127.028844 541.846154 127.004514 542.153846 126.979463 542.461538 126.953668 542.769231 126.927107 543.076923 126.899756 543.384615 126.871594 543.692308 126.842598 544.000000 126.812744 544.307692 126.782011 544.615385 126.750376 544.923077 126.717816 545.230769 126.684309 545.538462 126.649831 545.846154 126.614361 546.153846 126.577876 546.461538 126.540353 546.769231 126.501769 547.076923 126.462102 547.384615 126.421329 547.692308 126.379428 548.000000 126.336376 548.307692 126.292150 548.615385 126.246727 548.923077 126.200086 549.230769 126.152204 549.538462 126.103057 549.846154 126.052624 550.153846 126.000881 550.461538 125.947806 550.769231 125.893376 551.076923 125.837569 551.384615 125.780363 551.692308 125.721733 552.000000 125.661659 552.307692 125.600117 552.615385 125.537089 552.923077 125.472577 553.230769 125.406585 553.538462 125.339119 553.846154 125.270185 554.153846 125.199789 554.461538 125.127936 554.769231 125.054631 555.076923 124.979880 555.384615 124.903688 555.692308 124.826062 556.000000 124.747006 556.307692 124.666527 556.615385 124.584629 556.923077 124.501319 557.230769 124.416601 557.538462 124.330482 557.846154 124.242967 558.153846 124.154061 558.461538 124.063771 558.769231 123.972101 559.076923 123.879057 559.384615 123.784645 559.692308 123.688870 560.000000 123.591738 560.307692 123.493254 560.615385 123.393424 560.923077 123.292253 561.230769 123.189748 561.538462 123.085913 561.846154 122.980754 562.153846 122.874277 562.461538 122.766487 562.769231 122.657390 563.076923 122.546991 563.384615 122.435296 563.692308 122.322310 564.000000 122.208039 564.307692 122.092489 564.615385 121.975664 564.923077 121.857571 565.230769 121.738216 565.538462 121.617603 565.846154 121.495738 566.153846 121.372627 566.461538 121.248275 566.769231 121.122689 567.076923 120.995872 567.384615 120.867832 567.692308 120.738573 568.000000 120.608101 568.307692 120.476422 568.615385 120.343541 568.923077 120.209463 569.230769 120.074195 569.538462 119.937742 569.846154 119.800109 570.153846 119.661302 570.461538 119.521326 570.769231 119.380187 571.076923 119.237891 571.384615 119.094443 571.692308 118.949849 572.000000 118.804114 572.307692 118.657243 572.615385 118.509243 572.923077 118.360119 573.230769 118.209876 573.538462 118.058520 573.846154 117.906057 574.153846 117.752491 574.461538 117.597830 574.769231 117.442077 575.076923 117.285239 575.384615 117.127321 575.692308 116.968329 576.000000 116.808268 576.307692 116.647144 576.615385 116.484963 576.923077 116.321730 577.230769 116.157450 577.538462 115.992129 577.846154 115.825773 578.153846 115.658387 578.461538 115.489976 578.769231 115.320547 579.076923 115.150105 579.384615 114.978655 579.692308 114.806203 580.000000 114.632755 580.307692 114.458315 580.615385 114.282890 580.923077 114.106485 581.230769 113.929106 581.538462 113.750758 581.846154 113.571447 582.153846 113.391178 582.461538 113.209957 582.769231 113.027789 583.076923 112.844680 583.384615 112.660636 583.692308 112.475662 584.000000 112.289763 584.307692 112.102946 584.615385 111.915215 584.923077 111.726577 585.230769 111.537036 585.538462 111.346598 585.846154 111.155270 586.153846 110.963056 586.461538 110.769962 586.769231 110.575993 587.076923 110.381155 587.384615 110.185455 587.692308 109.988896 588.000000 109.791485 588.307692 109.593227 588.615385 109.394128 588.923077 109.194194 589.230769 108.993429 589.538462 108.791840 589.846154 108.589432 590.153846 108.386210 590.461538 108.182181 590.769231 107.977349 591.076923 107.771721 591.384615 107.565301 591.692308 107.358095 592.000000 107.150110 592.307692 106.941350 592.615385 106.731820 592.923077 106.521528 593.230769 106.310477 593.538462 106.098674 593.846154 105.886124 594.153846 105.672833 594.461538 105.458806 594.769231 105.244048 595.076923 105.028566 595.384615 104.812365 595.692308 104.595451 596.000000 104.377828 596.307692 104.159503 596.615385 103.940481 596.923077 103.720768 597.230769 103.500369 597.538462 103.279290 597.846154 103.057536 598.153846 102.835112 598.461538 102.612026 598.769231 102.388281 599.076923 102.163883 599.384615 101.938839 599.692308 101.713153 600.000000 101.486831 600.307692 101.259879 600.615385 101.032302 600.923077 100.804106 601.230769 100.575297 601.538462 100.345879 601.846154 100.115858 602.153846 99.885241 602.461538 99.654032 602.769231 99.422237 603.076923 99.189862 603.384615 98.956911 603.692308 98.723392 604.000000 98.489309 604.307692 98.254667 604.615385 98.019473 604.923077 97.783732 605.230769 97.547450 605.538462 97.310631 605.846154 97.073282 606.153846 96.835408 606.461538 96.597014 606.769231 96.358107 607.076923 96.118692 607.384615 95.878774 607.692308 95.638358 608.000000 95.397452 608.307692 95.156059 608.615385 94.914185 608.923077 94.671837 609.230769 94.429019 609.538462 94.185737 609.846154 93.941997 610.153846 93.697804 610.461538 93.453164 610.769231 93.208082 611.076923 92.962565 611.384615 92.716616 611.692308 92.470243 612.000000 92.223450 612.307692 91.976243 612.615385 91.728628 612.923077 91.480610 613.230769 91.232194 613.538462 90.983387 613.846154 90.734194 614.153846 90.484620 614.461538 90.234671 614.769231 89.984353 615.076923 89.733670 615.384615 89.482629 615.692308 89.231236 616.000000 88.979494 616.307692 88.727411 616.615385 88.474992 616.923077 88.222242 617.230769 87.969167 617.538462 87.715772 617.846154 87.462064 618.153846 87.208047 618.461538 86.953726 618.769231 86.699109 619.076923 86.444199 619.384615 86.189004 619.692308 85.933527 620.000000 85.677775 620.307692 85.421754 620.615385 85.165468 620.923077 84.908924 621.230769 84.652127 621.538462 84.395083 621.846154 84.137796 622.153846 83.880273 622.461538 83.622520 622.769231 83.364541 623.076923 83.106342 623.384615 82.847929 623.692308 82.589308 624.000000 82.330483 624.307692 82.071461 624.615385 81.812247 624.923077 81.552847 625.230769 81.293265 625.538462 81.033509 625.846154 80.773582 626.153846 80.513491 626.461538 80.253242 626.769231 79.992839 627.076923 79.732289 627.384615 79.471597 627.692308 79.210768 628.000000 78.949809 628.307692 78.688724 628.615385 78.427519 628.923077 78.166200 629.230769 77.904772 629.538462 77.643240 629.846154 77.381605 630.153846 77.119868 630.461538 76.858029 630.769231 76.596088 631.076923 76.334046 631.384615 76.071904 631.692308 75.809661 632.000000 75.547318 632.307692 75.284876 632.615385 75.022335 632.923077 74.759695 633.230769 74.496956 633.538462 74.234120 633.846154 73.971187 634.153846 73.708156 634.461538 73.445029 634.769231 73.181806 635.076923 72.918487 635.384615 72.655073 635.692308 72.391563 636.000000 72.127960 636.307692 71.864262 636.615385 71.600470 636.923077 71.336585 637.230769 71.072607 637.538462 70.808537 637.846154 70.544374 638.153846 70.280120 638.461538 70.015775 638.769231 69.751339 639.076923 69.486812 639.384615 69.222196 639.692308 68.957490 640.000000 68.692695 640.307692 68.427811 640.615385 68.162838 640.923077 67.897778 641.230769 67.632630 641.538462 67.367395 641.846154 67.102074 642.153846 66.836666 642.461538 66.571172 642.769231 66.305593 643.076923 66.039929 643.384615 65.774180 643.692308 65.508347 644.000000 65.242430 644.307692 64.976430 644.615385 64.710347 644.923077 64.444181 645.230769 64.177933 645.538462 63.911603 645.846154 63.645192 646.153846 63.378701 646.461538 63.112128 646.769231 62.845476 647.076923 62.578744 647.384615 62.311932 647.692308 62.045042 648.000000 61.778073 648.307692 61.511027 648.615385 61.243902 648.923077 60.976701 649.230769 60.709423 649.538462 60.442068 649.846154 60.174637 650.153846 59.907131 650.461538 59.639550 650.769231 59.371894 651.076923 59.104164 651.384615 58.836359 651.692308 58.568482 652.000000 58.300531 652.307692 58.032508 652.615385 57.764412 652.923077 57.496244 653.230769 57.228006 653.538462 56.959696 653.846154 56.691315 654.153846 56.422865 654.461538 56.154344 654.769231 55.885754 655.076923 55.617096 655.384615 55.348368 655.692308 55.079573 656.000000 54.810710 656.307692 54.541780 656.615385 54.272783 656.923077 54.003719 657.230769 53.734589 657.538462 53.465394 657.846154 53.196133 658.153846 52.926808 658.461538 52.657418 658.769231 52.387964 659.076923 52.118447 659.384615 51.848866 659.692308 51.579223 660.000000 51.309518 660.307692 51.039750 660.615385 50.769921 660.923077 50.500031 661.230769 50.230080 661.538462 49.960069 661.846154 49.689998 662.153846 49.419868 662.461538 49.149678 662.769231 48.879430 663.076923 48.609124 663.384615 48.338760 663.692308 48.068339 664.000000 47.797860 664.307692 47.527325 664.615385 47.256734 664.923077 46.986088 665.230769 46.715385 665.538462 46.444628 665.846154 46.173817 666.153846 45.902951 666.461538 45.632032 666.769231 45.361060 667.076923 45.090034 667.384615 44.818956 667.692308 44.547827 668.000000 44.276645 668.307692 44.005413 668.615385 43.734129 668.923077 43.462796 669.230769 43.191412 669.538462 42.919979 669.846154 42.648497 670.153846 42.376966 670.461538 42.105386 670.769231 41.833759 671.076923 41.562084 671.384615 41.290363 671.692308 41.018594 672.000000 40.746780 672.307692 40.474919 672.615385 40.203013 672.923077 39.931062 673.230769 39.659067 673.538462 39.387027 673.846154 39.114944 674.153846 38.842817 674.461538 38.570648 674.769231 38.298435 675.076923 38.026181 675.384615 37.753885 675.692308 37.481548 676.000000 37.209170 676.307692 36.936751 676.615385 36.664293 676.923077 36.391794 677.230769 36.119257 677.538462 35.846681 677.846154 35.574066 678.153846 35.301413 678.461538 35.028723 678.769231 34.755996 679.076923 34.483232 679.384615 34.210431 679.692308 33.937595 680.000000 33.664723 680.307692 33.391816 680.615385 33.118875 680.923077 32.845899 681.230769 32.572889 681.538462 32.299846 681.846154 32.026770 682.153846 31.753661 682.461538 31.480520 682.769231 31.207347 683.076923 30.934143 683.384615 30.660908 683.692308 30.387642 684.000000 30.114347 684.307692 29.841021 684.615385 29.567666 684.923077 29.294283 685.230769 29.020870 685.538462 28.747430 685.846154 28.473962 686.153846 28.200467 686.461538 27.926945 686.769231 27.653397 687.076923 27.379822 687.384615 27.106222 687.692308 26.832597 688.000000 26.558947 688.307692 26.285273 688.615385 26.011574 688.923077 25.737853 689.230769 25.464108 689.538462 25.190340 689.846154 24.916550 690.153846 24.642738 690.461538 24.368905 690.769231 24.095051 691.076923 23.821176 691.384615 23.547281 691.692308 23.273366 692.000000 22.999431 692.307692 22.725478 692.615385 22.451506 692.923077 22.177516 693.230769 21.903508 693.538462 21.629483 693.846154 21.355441 694.153846 21.081382 694.461538 20.807307 694.769231 20.533217 695.076923 20.259111 695.384615 19.984990 695.692308 19.710855 696.000000 19.436706 696.307692 19.162544 696.615385 18.888368 696.923077 18.614179 697.230769 18.339978 697.538462 18.065765 697.846154 17.791540 698.153846 17.517305 698.461538 17.243058 698.769231 16.968801 699.076923 16.694535 699.384615 16.420258 699.692308 16.145973 700.000000 15.871679 700.307692 15.597377 700.615385 15.323067 700.923077 15.048749 701.230769 14.774425 701.538462 14.500094 701.846154 14.225757 702.153846 13.951413 702.461538 13.677065 702.769231 13.402712 703.076923 13.128354 703.384615 12.853992 703.692308 12.579626 704.000000 12.305257 704.307692 12.030885 704.615385 11.756510 704.923077 11.482134 705.230769 11.207756 705.538462 10.933376 705.846154 10.658996 706.153846 10.384615 706.153846 540.000000" /></g></g><g class="titles" /><g class="plot overlay" transform="translate(60, 20)"><g class="series serie-0 color-0"><g class="dots"><circle class="dot reactive tooltip-trigger" cx="13.846153846153847" cy="529.6153846153846" r="2.5" /><desc class="value">1,622,409,956(kWh)</desc><desc class="x top">13.846153846153847</desc><desc class="y top">529.6153846153846</desc><desc class="x_label">2549</desc></g><g class="dots"><circle class="dot reactive tooltip-trigger" cx="90.76923076923076" cy="457.4711710234804" r="2.5" /><desc class="value">1,705,041,050(kWh)</desc><desc class="x top">90.76923076923076</desc><desc class="y top">457.4711710234804</desc><desc class="x_label">2550</desc></g><g class="dots"><circle class="dot reactive tooltip-trigger" cx="167.69230769230765" cy="431.5653240492596" r="2.5" /><desc class="value">1,734,712,570(kWh)</desc><desc class="x top">167.69230769230765</desc><desc class="y top">431.5653240492596</desc><desc class="x_label">2551</desc></g><g class="dots"><circle class="dot reactive tooltip-trigger" cx="244.6153846153846" cy="431.10535599047523" r="2.5" /><desc class="value">1,735,239,399(kWh)</desc><desc class="x top">244.6153846153846</desc><desc class="y top">431.10535599047523</desc><desc class="x_label">2552</desc></g><g class="dots"><circle class="dot reactive tooltip-trigger" cx="321.5384615384615" cy="271.4377305383593" r="2.5" /><desc class="value">1,918,116,305(kWh)</desc><desc class="x top">321.5384615384615</desc><desc class="y top">271.4377305383593</desc><desc class="x_label">2553</desc></g><g class="dots"><circle class="dot reactive tooltip-trigger" cx="398.46153846153845" cy="277.77736892096016" r="2.5" /><desc class="value">1,910,855,137(kWh)</desc><desc class="x left top">398.46153846153845</desc><desc class="y left top">277.77736892096016</desc><desc class="x_label">2554</desc></g><g class="dots"><circle class="dot reactive tooltip-trigger" cx="475.38461538461536" cy="153.51026838391823" r="2.5" /><desc class="value">2,053,185,699(kWh)</desc><desc class="x left">475.38461538461536</desc><desc class="y left">153.51026838391823</desc><desc class="x_label">2555</desc></g><g class="dots"><circle class="dot reactive tooltip-trigger" cx="552.3076923076923" cy="125.60011702602009" r="2.5" /><desc class="value">2,085,152,869(kWh)</desc><desc class="x left">552.3076923076923</desc><desc class="y left">125.60011702602009</desc><desc class="x_label">2556</desc></g><g class="dots"><circle class="dot reactive tooltip-trigger" cx="629.2307692307692" cy="77.90477177273146" r="2.5" /><desc class="value">2,139,781,208(kWh)</desc><desc class="x left">629.2307692307692</desc><desc class="y left">77.90477177273146</desc><desc class="x_label">2557</desc></g><g class="dots"><circle class="dot reactive tooltip-trigger" cx="706.1538461538461" cy="10.384615384615245" r="2.5" /><desc class="value">2,217,116,092(kWh)</desc><desc class="x left">706.1538461538461</desc><desc class="y left">10.384615384615245</desc><desc class="x_label">2558</desc></g></g></g><g class="plot text-overlay" transform="translate(60, 20)"><g class="series serie-0 color-0" /></g><g class="plot tooltip-overlay" transform="translate(60, 20)"><g class="tooltip" style="opacity: 0" transform="translate(0 0)"><rect class="tooltip-box" height="0" rx="0" ry="0" width="0" /><g class="text" /></g></g></g></svg>