<?xml version='1.0' encoding='utf-8'?>
<svg xmlns:xlink="http://www.w3.org/1999/xlink" class="pygal-chart" id="chart-d7e34c96-db1b-45e9-a957-1c790b592495" viewBox="0 0 800 600" xmlns="http://www.w3.org/2000/svg"><!--Generated with pygal 2.3.0 (etree) ©Kozea 2012-2016 on 2016-12-08--><!--http://pygal.org--><!--http://github.com/Kozea/pygal--><defs><style type="text/css">#chart-d7e34c96-db1b-45e9-a957-1c790b592495{-webkit-user-select:none;-webkit-font-smoothing:antialiased;font-family:Consolas,"Liberation Mono",Menlo,Courier,monospace}#chart-d7e34c96-db1b-45e9-a957-1c790b592495 .title{font-family:Consolas,"Liberation Mono",Menlo,Courier,monospace;font-size:16px}#chart-d7e34c96-db1b-45e9-a957-1c790b592495 .legends .legend text{font-family:Consolas,"Liberation Mono",Menlo,Courier,monospace;font-size:14px}#chart-d7e34c96-db1b-45e9-a957-1c790b592495 .axis text{font-family:Consolas,"Liberation Mono",Menlo,Courier,monospace;font-size:10px}#chart-d7e34c96-db1b-45e9-a957-1c790b592495 .axis text.major{font-family:Consolas,"Liberation Mono",Menlo,Courier,monospace;font-size:10px}#chart-d7e34c96-db1b-45e9-a957-1c790b592495 .text-overlay text.value{font-family:Consolas,"Liberation Mono",Menlo,Courier,monospace;font-size:16px}#chart-d7e34c96-db1b-45e9-a957-1c790b592495 .text-overlay text.label{font-family:Consolas,"Liberation Mono",Menlo,Courier,monospace;font-size:10px}#chart-d7e34c96-db1b-45e9-a957-1c790b592495 .tooltip{font-family:Consolas,"Liberation Mono",Menlo,Courier,monospace;font-size:14px}#chart-d7e34c96-db1b-45e9-a957-1c790b592495 text.no_data{font-family:Consolas,"Liberation Mono",Menlo,Courier,monospace;font-size:64px}
#chart-d7e34c96-db1b-45e9-a957-1c790b592495{background-color:rgba(249,249,249,1)}#chart-d7e34c96-db1b-45e9-a957-1c790b592495 path,#chart-d7e34c96-db1b-45e9-a957-1c790b592495 line,#chart-d7e34c96-db1b-45e9-a957-1c790b592495 rect,#chart-d7e34c96-db1b-45e9-a957-1c790b592495 circle{-webkit-transition:150ms;-moz-transition:150ms;transition:150ms}#chart-d7e34c96-db1b-45e9-a957-1c790b592495 .graph &gt; .background{fill:rgba(249,249,249,1)}#chart-d7e34c96-db1b-45e9-a957-1c790b592495 .plot &gt; .background{fill:rgba(255,255,255,1)}#chart-d7e34c96-db1b-45e9-a957-1c790b592495 .graph{fill:rgba(0,0,0,.87)}#chart-d7e34c96-db1b-45e9-a957-1c790b592495 text.no_data{fill:rgba(0,0,0,1)}#chart-d7e34c96-db1b-45e9-a957-1c790b592495 .title{fill:rgba(0,0,0,1)}#chart-d7e34c96-db1b-45e9-a957-1c790b592495 .legends .legend text{fill:rgba(0,0,0,.87)}#chart-d7e34c96-db1b-45e9-a957-1c790b592495 .legends .legend:hover text{fill:rgba(0,0,0,1)}#chart-d7e34c96-db1b-45e9-a957-1c790b592495 .axis .line{stroke:rgba(0,0,0,1)}#chart-d7e34c96-db1b-45e9-a957-1c790b592495 .axis .guide.line{stroke:rgba(0,0,0,.54)}#chart-d7e34c96-db1b-45e9-a957-1c790b592495 .axis .major.line{stroke:rgba(0,0,0,.87)}#chart-d7e34c96-db1b-45e9-a957-1c790b592495 .axis text.major{fill:rgba(0,0,0,1)}#chart-d7e34c96-db1b-45e9-a957-1c790b592495 .axis.y .guides:hover .guide.line,#chart-d7e34c96-db1b-45e9-a957-1c790b592495 .line-graph .axis.x .guides:hover .guide.line,#chart-d7e34c96-db1b-45e9-a957-1c790b592495 .stackedline-graph .axis.x .guides:hover .guide.line,#chart-d7e34c96-db1b-45e9-a957-1c790b592495 .xy-graph .axis.x .guides:hover .guide.line{stroke:rgba(0,0,0,1)}#chart-d7e34c96-db1b-45e9-a957-1c790b592495 .axis .guides:hover text{fill:rgba(0,0,0,1)}#chart-d7e34c96-db1b-45e9-a957-1c790b592495 .reactive{fill-opacity:.7;stroke-opacity:.8}#chart-d7e34c96-db1b-45e9-a957-1c790b592495 .ci{stroke:rgba(0,0,0,.87)}#chart-d7e34c96-db1b-45e9-a957-1c790b592495 .reactive.active,#chart-d7e34c96-db1b-45e9-a957-1c790b592495 .active .reactive{fill-opacity:.8;stroke-opacity:.9;stroke-width:4}#chart-d7e34c96-db1b-45e9-a957-1c790b592495 .ci .reactive.active{stroke-width:1.5}#chart-d7e34c96-db1b-45e9-a957-1c790b592495 .series text{fill:rgba(0,0,0,1)}#chart-d7e34c96-db1b-45e9-a957-1c790b592495 .tooltip rect{fill:rgba(255,255,255,1);stroke:rgba(0,0,0,1);-webkit-transition:opacity 150ms;-moz-transition:opacity 150ms;transition:opacity 150ms}#chart-d7e34c96-db1b-45e9-a957-1c790b592495 .tooltip .label{fill:rgba(0,0,0,.87)}#chart-d7e34c96-db1b-45e9-a957-1c790b592495 .tooltip .label{fill:rgba(0,0,0,.87)}#chart-d7e34c96-db1b-45e9-a957-1c790b592495 .tooltip .legend{font-size:.8em;fill:rgba(0,0,0,.54)}#chart-d7e34c96-db1b-45e9-a957-1c790b592495 .tooltip .x_label{font-size:.6em;fill:rgba(0,0,0,1)}#chart-d7e34c96-db1b-45e9-a957-1c790b592495 .tooltip .xlink{font-size:.5em;text-decoration:underline}#chart-d7e34c96-db1b-45e9-a957-1c790b592495 .tooltip .value{font-size:1.5em}#chart-d7e34c96-db1b-45e9-a957-1c790b592495 .bound{font-size:.5em}#chart-d7e34c96-db1b-45e9-a957-1c790b592495 .max-value{font-size:.75em;fill:rgba(0,0,0,.54)}#chart-d7e34c96-db1b-45e9-a957-1c790b592495 .map-element{fill:rgba(255,255,255,1);stroke:rgba(0,0,0,.54) !important}#chart-d7e34c96-db1b-45e9-a957-1c790b592495 .map-element .reactive{fill-opacity:inherit;stroke-opacity:inherit}#chart-d7e34c96-db1b-45e9-a957-1c790b592495 .color-0,#chart-d7e34c96-db1b-45e9-a957-1c790b592495 .color-0 a:visited{stroke:#e86fa0;fill:#e86fa0}#chart-d7e34c96-db1b-45e9-a957-1c790b592495 .text-overlay .color-0 text{fill:black}
#chart-d7e34c96-db1b-45e9-a957-1c790b592495 text.no_data{text-anchor:middle}#chart-d7e34c96-db1b-45e9-a957-1c790b592495 .guide.line{fill:none}#chart-d7e34c96-db1b-45e9-a957-1c790b592495 .centered{text-anchor:middle}#chart-d7e34c96-db1b-45e9-a957-1c790b592495 .title{text-anchor:middle}#chart-d7e34c96-db1b-45e9-a957-1c790b592495 .legends .legend text{fill-opacity:1}#chart-d7e34c96-db1b-45e9-a957-1c790b592495 .axis.x text{text-anchor:middle}#chart-d7e34c96-db1b-45e9-a957-1c790b592495 .axis.x:not(.web) text[transform]{text-anchor:start}#chart-d7e34c96-db1b-45e9-a957-1c790b592495 .axis.x:not(.web) text[transform].backwards{text-anchor:end}#chart-d7e34c96-db1b-45e9-a957-1c790b592495 .axis.y text{text-anchor:end}#chart-d7e34c96-db1b-45e9-a957-1c790b592495 .axis.y text[transform].backwards{text-anchor:start}#chart-d7e34c96-db1b-45e9-a957-1c790b592495 .axis.y2 text{text-anchor:start}#chart-d7e34c96-db1b-45e9-a957-1c790b592495 .axis.y2 text[transform].backwards{text-anchor:end}#chart-d7e34c96-db1b-45e9-a957-1c790b592495 .axis .guide.line{stroke-dasharray:4,4}#chart-d7e34c96-db1b-45e9-a957-1c790b592495 .axis .major.guide.line{stroke-dasharray:6,6}#chart-d7e34c96-db1b-45e9-a957-1c790b592495 .horizontal .axis.y .guide.line,#chart-d7e34c96-db1b-45e9-a957-1c790b592495 .horizontal .axis.y2 .guide.line,#chart-d7e34c96-db1b-45e9-a957-1c790b592495 .vertical .axis.x .guide.line{opacity:0}#chart-d7e34c96-db1b-45e9-a957-1c790b592495 .horizontal .axis.always_show .guide.line,#chart-d7e34c96-db1b-45e9-a957-1c790b592495 .vertical .axis.always_show .guide.line{opacity:1 !important}#chart-d7e34c96-db1b-45e9-a957-1c790b592495 .axis.y .guides:hover .guide.line,#chart-d7e34c96-db1b-45e9-a957-1c790b592495 .axis.y2 .guides:hover .guide.line,#chart-d7e34c96-db1b-45e9-a957-1c790b592495 .axis.x .guides:hover .guide.line{opacity:1}#chart-d7e34c96-db1b-45e9-a957-1c790b592495 .axis .guides:hover text{opacity:1}#chart-d7e34c96-db1b-45e9-a957-1c790b592495 .nofill{fill:none}#chart-d7e34c96-db1b-45e9-a957-1c790b592495 .subtle-fill{fill-opacity:.2}#chart-d7e34c96-db1b-45e9-a957-1c790b592495 .dot{stroke-width:1px;fill-opacity:1}#chart-d7e34c96-db1b-45e9-a957-1c790b592495 .dot.active{stroke-width:5px}#chart-d7e34c96-db1b-45e9-a957-1c790b592495 .dot.negative{fill:transparent}#chart-d7e34c96-db1b-45e9-a957-1c790b592495 text,#chart-d7e34c96-db1b-45e9-a957-1c790b592495 tspan{stroke:none !important}#chart-d7e34c96-db1b-45e9-a957-1c790b592495 .series text.active{opacity:1}#chart-d7e34c96-db1b-45e9-a957-1c790b592495 .tooltip rect{fill-opacity:.95;stroke-width:.5}#chart-d7e34c96-db1b-45e9-a957-1c790b592495 .tooltip text{fill-opacity:1}#chart-d7e34c96-db1b-45e9-a957-1c790b592495 .showable{visibility:hidden}#chart-d7e34c96-db1b-45e9-a957-1c790b592495 .showable.shown{visibility:visible}#chart-d7e34c96-db1b-45e9-a957-1c790b592495 .gauge-background{fill:rgba(229,229,229,1);stroke:none}#chart-d7e34c96-db1b-45e9-a957-1c790b592495 .bg-lines{stroke:rgba(249,249,249,1);stroke-width:2px}</style><script type="text/javascript">window.pygal = window.pygal || {};window.pygal.config = window.pygal.config || {};window.pygal.config['d7e34c96-db1b-45e9-a957-1c790b592495'] = {"no_data_text": "No data", "no_prefix": false, "xrange": null, "print_values_position": "center", "truncate_label": null, "x_labels": ["2549", "2550", "2551", "2552", "2553", "2554", "2555", "2556", "2557", "2558"], "title": null, "force_uri_protocol": "https", "defs": [], "formatter": null, "classes": ["pygal-chart"], "y_labels": null, "rounded_bars": null, "explicit_size": false, "x_labels_major_every": null, "legend_at_bottom_columns": null, "stroke_style": null, "half_pie": false, "spacing": 10, "tooltip_fancy_mode": true, "inverse_y_axis": false, "width": 800, "inner_radius": 0, "interpolation_parameters": {}, "tooltip_border_radius": 0, "style": {"no_data_font_family": "Consolas, \"Liberation Mono\", Menlo, Courier, monospace", "tooltip_font_size": 14, "tooltip_font_family": "Consolas, \"Liberation Mono\", Menlo, Courier, monospace", "stroke_opacity_hover": ".9", "legend_font_family": "Consolas, \"Liberation Mono\", Menlo, Courier, monospace", "font_family": "Consolas, \"Liberation Mono\", Menlo, Courier, monospace", "title_font_family": "Consolas, \"Liberation Mono\", Menlo, Courier, monospace", "background": "rgba(249, 249, 249, 1)", "stroke_opacity": ".8", "foreground": "rgba(0, 0, 0, .87)", "value_background": "rgba(229, 229, 229, 1)", "guide_stroke_dasharray": "4,4", "foreground_subtle": "rgba(0, 0, 0, .54)", "opacity_hover": ".8", "value_font_family": "Consolas, \"Liberation Mono\", Menlo, Courier, monospace", "value_label_font_size": 10, "plot_background": "rgba(255, 255, 255, 1)", "ci_colors": [], "label_font_size": 10, "major_label_font_size": 10, "title_font_size": 16, "no_data_font_size": 64, "value_font_size": 16, "value_colors": [], "label_font_family": "Consolas, \"Liberation Mono\", Menlo, Courier, monospace", "major_guide_stroke_dasharray": "6,6", "transition": "150ms", "foreground_strong": "rgba(0, 0, 0, 1)", "colors": ["#e86fa0", "#e88f6f", "#e8df6f", "#a0e86f", "#6fe88f", "#6fe8df", "#6fa0e8", "#8f6fe8", "#df6fe8", "#e86fa0"], "opacity": ".7", "legend_font_size": 14, "value_label_font_family": "Consolas, \"Liberation Mono\", Menlo, Courier, monospace", "major_label_font_family": "Consolas, \"Liberation Mono\", Menlo, Courier, monospace"}, "x_labels_major_count": null, "interpolation_precision": 250, "missing_value_fill_truncation": "x", "stack_from_top": false, "truncate_legend": null, "show_minor_x_labels": true, "print_zeroes": true, "css": ["file://style.css", "file://graph.css"], "y_label_rotation": 0, "legend_at_bottom": false, "print_values": false, "margin_top": null, "max_scale": 16, "allow_interruptions": false, "show_x_labels": true, "strict": false, "show_x_guides": false, "stroke": true, "margin_left": null, "dynamic_print_values": false, "print_labels": false, "show_y_labels": true, "x_labels_major": null, "range": null, "x_label_rotation": 0, "margin": 20, "zero": 0, "include_x_axis": false, "height": 600, "show_minor_y_labels": true, "show_dots": true, "interpolate": "cubic", "show_y_guides": true, "y_labels_major": null, "box_mode": "extremes", "margin_bottom": null, "order_min": null, "legend_box_size": 12, "fill": true, "show_only_major_dots": false, "js": ["//kozea.github.io/pygal.js/2.0.x/pygal-tooltips.min.js"], "x_title": null, "y_labels_major_every": null, "y_labels_major_count": null, "disable_xml_declaration": false, "y_title": null, "logarithmic": false, "pretty_print": false, "min_scale": 4, "dots_size": 2.5, "margin_right": null, "legends": [null], "secondary_range": null, "show_legend": false}</script><script type="text/javascript" xlink:href="https://kozea.github.io/pygal.js/2.0.x/pygal-tooltips.min.js" /></defs><title>Pygal</title><g class="graph stackedline-graph vertical"><rect class="background" height="600" width="800" x="0" y="0" /><g class="plot" transform="translate(54, 20)"><rect class="background" height="540" width="726.0" x="0" y="0" /><g class="axis y"><path class="line" d="M0.000000 540.000000 h726.000000" /><g class="guides"><path class="guide line" d="M0.000000 496.845185 h726.000000" /><text class="" x="-5" y="500.3451853295555">420M</text><title>420M</title></g><g class="guides"><path class="guide line" d="M0.000000 457.371683 h726.000000" /><text class="" x="-5" y="460.8716826625156">440M</text><title>440M</title></g><g class="guides"><path class="guide line" d="M0.000000 417.898180 h726.000000" /><text class="" x="-5" y="421.39817999547563">460M</text><title>460M</title></g><g class="guides"><path class="guide line" d="M0.000000 378.424677 h726.000000" /><text class="" x="-5" y="381.9246773284357">480M</text><title>480M</title></g><g class="guides"><path class="major guide line" d="M0.000000 338.951175 h726.000000" /><text class="major" x="-5" y="342.4511746613957">500M</text><title>500M</title></g><g class="guides"><path class="guide line" d="M0.000000 299.477672 h726.000000" /><text class="" x="-5" y="302.97767199435583">520M</text><title>520M</title></g><g class="guides"><path class="guide line" d="M0.000000 260.004169 h726.000000" /><text class="" x="-5" y="263.50416932731594">540M</text><title>540M</title></g><g class="guides"><path class="guide line" d="M0.000000 220.530667 h726.000000" /><text class="" x="-5" y="224.03066666027598">560M</text><title>560M</title></g><g class="guides"><path class="guide line" d="M0.000000 181.057164 h726.000000" /><text class="" x="-5" y="184.5571639932361">580M</text><title>580M</title></g><g class="guides"><path class="major guide line" d="M0.000000 141.583661 h726.000000" /><text class="major" x="-5" y="145.08366132619614">600M</text><title>600M</title></g><g class="guides"><path class="guide line" d="M0.000000 102.110159 h726.000000" /><text class="" x="-5" y="105.61015865915624">620M</text><title>620M</title></g><g class="guides"><path class="guide line" d="M0.000000 62.636656 h726.000000" /><text class="" x="-5" y="66.13665599211629">640M</text><title>640M</title></g><g class="guides"><path class="guide line" d="M0.000000 23.163153 h726.000000" /><text class="" x="-5" y="26.663153325076337">660M</text><title>660M</title></g></g><g class="axis x"><g class="guides"><path class="line" d="M13.961538 0.000000 v540.000000" /><text class="" x="13.96153846153846" y="555.0">2549</text></g><g class="guides"><path class="guide line" d="M91.525641 0.000000 v540.000000" /><text class="" x="91.52564102564101" y="555.0">2550</text></g><g class="guides"><path class="guide line" d="M169.089744 0.000000 v540.000000" /><text class="" x="169.08974358974356" y="555.0">2551</text></g><g class="guides"><path class="guide line" d="M246.653846 0.000000 v540.000000" /><text class="" x="246.65384615384613" y="555.0">2552</text></g><g class="guides"><path class="guide line" d="M324.217949 0.000000 v540.000000" /><text class="" x="324.21794871794873" y="555.0">2553</text></g><g class="guides"><path class="guide line" d="M401.782051 0.000000 v540.000000" /><text class="" x="401.78205128205127" y="555.0">2554</text></g><g class="guides"><path class="guide line" d="M479.346154 0.000000 v540.000000" /><text class="" x="479.3461538461538" y="555.0">2555</text></g><g class="guides"><path class="guide line" d="M556.910256 0.000000 v540.000000" /><text class="" x="556.9102564102565" y="555.0">2556</text></g><g class="guides"><path class="guide line" d="M634.474359 0.000000 v540.000000" /><text class="" x="634.474358974359" y="555.0">2557</text></g><g class="guides"><path class="guide line" d="M712.038462 0.000000 v540.000000" /><text class="" x="712.0384615384615" y="555.0">2558</text></g></g><g class="series serie-0 color-0"><path class="line reactive" d="M13.961538 540.000000 L13.961538 529.615385 14.271795 529.345784 14.582051 529.076193 14.892308 528.806619 15.202564 528.537072 15.512821 528.267559 15.823077 527.998091 16.133333 527.728675 16.443590 527.459320 16.753846 527.190036 17.064103 526.920830 17.374359 526.651713 17.684615 526.382691 17.994872 526.113775 18.305128 525.844973 18.615385 525.576294 18.925641 525.307746 19.235897 525.039339 19.546154 524.771080 19.856410 524.502980 20.166667 524.235046 20.476923 523.967288 20.787179 523.699714 21.097436 523.432332 21.407692 523.165153 21.717949 522.898184 22.028205 522.631434 22.338462 522.364912 22.648718 522.098627 22.958974 521.832587 23.269231 521.566802 23.579487 521.301280 23.889744 521.036030 24.200000 520.771060 24.510256 520.506380 24.820513 520.241998 25.130769 519.977923 25.441026 519.714164 25.751282 519.450729 26.061538 519.187628 26.371795 518.924868 26.682051 518.662460 26.992308 518.400411 27.302564 518.138730 27.612821 517.877426 27.923077 517.616508 28.233333 517.355985 28.543590 517.095866 28.853846 516.836158 29.164103 516.576872 29.474359 516.318015 29.784615 516.059596 30.094872 515.801625 30.405128 515.544110 30.715385 515.287060 31.025641 515.030484 31.335897 514.774389 31.646154 514.518786 31.956410 514.263683 32.266667 514.009089 32.576923 513.755011 32.887179 513.501461 33.197436 513.248445 33.507692 512.995972 33.817949 512.744053 34.128205 512.492694 34.438462 512.241906 34.748718 511.991696 35.058974 511.742075 35.369231 511.493049 35.679487 511.244629 35.989744 510.996822 36.300000 510.749638 36.610256 510.503086 36.920513 510.257174 37.230769 510.011910 37.541026 509.767305 37.851282 509.523366 38.161538 509.280102 38.471795 509.037523 38.782051 508.795636 39.092308 508.554451 39.402564 508.313976 39.712821 508.074221 40.023077 507.835193 40.333333 507.596902 40.643590 507.359356 40.953846 507.122565 41.264103 506.886537 41.574359 506.651280 41.884615 506.416804 42.194872 506.183117 42.505128 505.950229 42.815385 505.718147 43.125641 505.486881 43.435897 505.256439 43.746154 505.026830 44.056410 504.798064 44.366667 504.570148 44.676923 504.343091 44.987179 504.116903 45.297436 503.891591 45.607692 503.667166 45.917949 503.443635 46.228205 503.221007 46.538462 502.999292 46.848718 502.778497 47.158974 502.558632 47.469231 502.339705 47.779487 502.121726 48.089744 501.904702 48.400000 501.688643 48.710256 501.473558 49.020513 501.259454 49.330769 501.046342 49.641026 500.834230 49.951282 500.623126 50.261538 500.413040 50.571795 500.203979 50.882051 499.995954 51.192308 499.788972 51.502564 499.583042 51.812821 499.378174 52.123077 499.174376 52.433333 498.971656 52.743590 498.770024 53.053846 498.569488 53.364103 498.370057 53.674359 498.171740 53.984615 497.974546 54.294872 497.778483 54.605128 497.583559 54.915385 497.389785 55.225641 497.197169 55.535897 497.005719 55.846154 496.815444 56.156410 496.626353 56.466667 496.438455 56.776923 496.251758 57.087179 496.066271 57.397436 495.882004 57.707692 495.698964 58.017949 495.517161 58.328205 495.336604 58.638462 495.157300 58.948718 494.979259 59.258974 494.802490 59.569231 494.627002 59.879487 494.452802 60.189744 494.279901 60.500000 494.108306 60.810256 493.938027 61.120513 493.769072 61.430769 493.601450 61.741026 493.435170 62.051282 493.270241 62.361538 493.106671 62.671795 492.944469 62.982051 492.783644 63.292308 492.624205 63.602564 492.466160 63.912821 492.309518 64.223077 492.154288 64.533333 492.000479 64.843590 491.848100 65.153846 491.697159 65.464103 491.547664 65.774359 491.399626 66.084615 491.253052 66.394872 491.107952 66.705128 490.964334 67.015385 490.822207 67.325641 490.681579 67.635897 490.542460 67.946154 490.404858 68.256410 490.268782 68.566667 490.134241 68.876923 490.001243 69.187179 489.869798 69.497436 489.739914 69.807692 489.611599 70.117949 489.484864 70.428205 489.359715 70.738462 489.236163 71.048718 489.114216 71.358974 488.993882 71.669231 488.875171 71.979487 488.758091 72.289744 488.642651 72.600000 488.528860 72.910256 488.416726 73.220513 488.306259 73.530769 488.197466 73.841026 488.090358 74.151282 487.984942 74.461538 487.881228 74.771795 487.779223 75.082051 487.678938 75.392308 487.580381 75.702564 487.483559 76.012821 487.388484 76.323077 487.295162 76.633333 487.203603 76.943590 487.113815 77.253846 487.025808 77.564103 486.939590 77.874359 486.855170 78.184615 486.772556 78.494872 486.691758 78.805128 486.612784 79.115385 486.535643 79.425641 486.460343 79.735897 486.386894 80.046154 486.315305 80.356410 486.245583 80.666667 486.177738 80.976923 486.111779 81.287179 486.047714 81.597436 485.985552 81.907692 485.925302 82.217949 485.866973 82.528205 485.810573 82.838462 485.756111 83.148718 485.703596 83.458974 485.653037 83.769231 485.604443 84.079487 485.557822 84.389744 485.513182 84.700000 485.470534 85.010256 485.429885 85.320513 485.391244 85.630769 485.354621 85.941026 485.320024 86.251282 485.287461 86.561538 485.256941 86.871795 485.228474 87.182051 485.202068 87.492308 485.177731 87.802564 485.155473 88.112821 485.135302 88.423077 485.117228 88.733333 485.101258 89.043590 485.087401 89.353846 485.075667 89.664103 485.066065 89.974359 485.058602 90.284615 485.053287 90.594872 485.050130 90.905128 485.049140 91.215385 485.050324 91.525641 485.053692 91.835897 485.059247 92.146154 485.066969 92.456410 485.076833 92.766667 485.088814 93.076923 485.102886 93.387179 485.119025 93.697436 485.137204 94.007692 485.157398 94.317949 485.179583 94.628205 485.203733 94.938462 485.229823 95.248718 485.257827 95.558974 485.287720 95.869231 485.319477 96.179487 485.353073 96.489744 485.388481 96.800000 485.425678 97.110256 485.464638 97.420513 485.505335 97.730769 485.547744 98.041026 485.591841 98.351282 485.637598 98.661538 485.684992 98.971795 485.733998 99.282051 485.784589 99.592308 485.836740 99.902564 485.890427 100.212821 485.945623 100.523077 486.002304 100.833333 486.060445 101.143590 486.120019 101.453846 486.181003 101.764103 486.243370 102.074359 486.307095 102.384615 486.372153 102.694872 486.438519 103.005128 486.506167 103.315385 486.575072 103.625641 486.645209 103.935897 486.716553 104.246154 486.789078 104.556410 486.862759 104.866667 486.937570 105.176923 487.013487 105.487179 487.090485 105.797436 487.168537 106.107692 487.247618 106.417949 487.327704 106.728205 487.408769 107.038462 487.490788 107.348718 487.573735 107.658974 487.657585 107.969231 487.742313 108.279487 487.827894 108.589744 487.914302 108.900000 488.001512 109.210256 488.089499 109.520513 488.178238 109.830769 488.267702 110.141026 488.357868 110.451282 488.448709 110.761538 488.540200 111.071795 488.632317 111.382051 488.725033 111.692308 488.818324 112.002564 488.912164 112.312821 489.006529 112.623077 489.101391 112.933333 489.196727 113.243590 489.292512 113.553846 489.388719 113.864103 489.485323 114.174359 489.582300 114.484615 489.679624 114.794872 489.777270 115.105128 489.875212 115.415385 489.973425 115.725641 490.071884 116.035897 490.170564 116.346154 490.269439 116.656410 490.368484 116.966667 490.467673 117.276923 490.566982 117.587179 490.666386 117.897436 490.765858 118.207692 490.865373 118.517949 490.964908 118.828205 491.064435 119.138462 491.163930 119.448718 491.263367 119.758974 491.362722 120.069231 491.461968 120.379487 491.561081 120.689744 491.660036 121.000000 491.758806 121.310256 491.857368 121.620513 491.955695 121.930769 492.053762 122.241026 492.151544 122.551282 492.249016 122.861538 492.346152 123.171795 492.442927 123.482051 492.539316 123.792308 492.635294 124.102564 492.730835 124.412821 492.825914 124.723077 492.920505 125.033333 493.014584 125.343590 493.108125 125.653846 493.201103 125.964103 493.293493 126.274359 493.385269 126.584615 493.476406 126.894872 493.566878 127.205128 493.656662 127.515385 493.745730 127.825641 493.834058 128.135897 493.921621 128.446154 494.008393 128.756410 494.094349 129.066667 494.179464 129.376923 494.263712 129.687179 494.347069 129.997436 494.429508 130.307692 494.511006 130.617949 494.591535 130.928205 494.671072 131.238462 494.749590 131.548718 494.827065 131.858974 494.903471 132.169231 494.978783 132.479487 495.052976 132.789744 495.126024 133.100000 495.197902 133.410256 495.268585 133.720513 495.338048 134.030769 495.406265 134.341026 495.473211 134.651282 495.538860 134.961538 495.603188 135.271795 495.666170 135.582051 495.727779 135.892308 495.787990 136.202564 495.846779 136.512821 495.904120 136.823077 495.959988 137.133333 496.014357 137.443590 496.067202 137.753846 496.118498 138.064103 496.168220 138.374359 496.216342 138.684615 496.262839 138.994872 496.307686 139.305128 496.350857 139.615385 496.392328 139.925641 496.432072 140.235897 496.470065 140.546154 496.506282 140.856410 496.540697 141.166667 496.573284 141.476923 496.604019 141.787179 496.632876 142.097436 496.659830 142.407692 496.684856 142.717949 496.707928 143.028205 496.729021 143.338462 496.748110 143.648718 496.765170 143.958974 496.780175 144.269231 496.793100 144.579487 496.803919 144.889744 496.812608 145.200000 496.819141 145.510256 496.823493 145.820513 496.825639 146.130769 496.825553 146.441026 496.823210 146.751282 496.818584 147.061538 496.811651 147.371795 496.802386 147.682051 496.790762 147.992308 496.776754 148.302564 496.760338 148.612821 496.741489 148.923077 496.720179 149.233333 496.696386 149.543590 496.670082 149.853846 496.641244 150.164103 496.609845 150.474359 496.575860 150.784615 496.539265 151.094872 496.500033 151.405128 496.458140 151.715385 496.413560 152.025641 496.366268 152.335897 496.316239 152.646154 496.263447 152.956410 496.207868 153.266667 496.149475 153.576923 496.088243 153.887179 496.024148 154.197436 495.957164 154.507692 495.887265 154.817949 495.814427 155.128205 495.738625 155.438462 495.659832 155.748718 495.578023 156.058974 495.493174 156.369231 495.405259 156.679487 495.314252 156.989744 495.220129 157.300000 495.122865 157.610256 495.022433 157.920513 494.918809 158.230769 494.811967 158.541026 494.701882 158.851282 494.588529 159.161538 494.471882 159.471795 494.351916 159.782051 494.228607 160.092308 494.101928 160.402564 493.971854 160.712821 493.838361 161.023077 493.701422 161.333333 493.561013 161.643590 493.417108 161.953846 493.269682 162.264103 493.118710 162.574359 492.964166 162.884615 492.806025 163.194872 492.644262 163.505128 492.478852 163.815385 492.309769 164.125641 492.136988 164.435897 491.960483 164.746154 491.780230 165.056410 491.596203 165.366667 491.408377 165.676923 491.216727 165.987179 491.021227 166.297436 490.821851 166.607692 490.618576 166.917949 490.411375 167.228205 490.200223 167.538462 489.985095 167.848718 489.765966 168.158974 489.542810 168.469231 489.315602 168.779487 489.084317 169.089744 488.848929 169.400000 488.609423 169.710256 488.365817 170.020513 488.118142 170.330769 487.866425 170.641026 487.610696 170.951282 487.350983 171.261538 487.087316 171.571795 486.819722 171.882051 486.548232 172.192308 486.272873 172.502564 485.993675 172.812821 485.710667 173.123077 485.423877 173.433333 485.133334 173.743590 484.839067 174.053846 484.541105 174.364103 484.239477 174.674359 483.934211 174.984615 483.625337 175.294872 483.312883 175.605128 482.996878 175.915385 482.677351 176.225641 482.354330 176.535897 482.027846 176.846154 481.697926 177.156410 481.364599 177.466667 481.027894 177.776923 480.687841 178.087179 480.344467 178.397436 479.997802 178.707692 479.647875 179.017949 479.294714 179.328205 478.938348 179.638462 478.578806 179.948718 478.216117 180.258974 477.850310 180.569231 477.481414 180.879487 477.109457 181.189744 476.734469 181.500000 476.356477 181.810256 475.975512 182.120513 475.591601 182.430769 475.204774 182.741026 474.815060 183.051282 474.422487 183.361538 474.027084 183.671795 473.628880 183.982051 473.227905 184.292308 472.824186 184.602564 472.417752 184.912821 472.008633 185.223077 471.596858 185.533333 471.182454 185.843590 470.765452 186.153846 470.345879 186.464103 469.923765 186.774359 469.499139 187.084615 469.072029 187.394872 468.642464 187.705128 468.210473 188.015385 467.776085 188.325641 467.339329 188.635897 466.900233 188.946154 466.458827 189.256410 466.015139 189.566667 465.569199 189.876923 465.121034 190.187179 464.670674 190.497436 464.218148 190.807692 463.763484 191.117949 463.306712 191.428205 462.847859 191.738462 462.386956 192.048718 461.924031 192.358974 461.459112 192.669231 460.992229 192.979487 460.523411 193.289744 460.052686 193.600000 459.580083 193.910256 459.105630 194.220513 458.629358 194.530769 458.151294 194.841026 457.671468 195.151282 457.189908 195.461538 456.706643 195.771795 456.221703 196.082051 455.735115 196.392308 455.246909 196.702564 454.757113 197.012821 454.265757 197.323077 453.772869 197.633333 453.278479 197.943590 452.782614 198.253846 452.285304 198.564103 451.786577 198.874359 451.286463 199.184615 450.784991 199.494872 450.282188 199.805128 449.778085 200.115385 449.272709 200.425641 448.766091 200.735897 448.258257 201.046154 447.749238 201.356410 447.239063 201.666667 446.727759 201.976923 446.215357 202.287179 445.701884 202.597436 445.187369 202.907692 444.671843 203.217949 444.155332 203.528205 443.637867 203.838462 443.119476 204.148718 442.600187 204.458974 442.080030 204.769231 441.559034 205.079487 441.037227 205.389744 440.514639 205.700000 439.991297 206.010256 439.467231 206.320513 438.942470 206.630769 438.417043 206.941026 437.890978 207.251282 437.364305 207.561538 436.837051 207.871795 436.309247 208.182051 435.780920 208.492308 435.252100 208.802564 434.722816 209.112821 434.193096 209.423077 433.662969 209.733333 433.132464 210.043590 432.601611 210.353846 432.070437 210.664103 431.538971 210.974359 431.007243 211.284615 430.475281 211.594872 429.943114 211.905128 429.410772 212.215385 428.878282 212.525641 428.345674 212.835897 427.812976 213.146154 427.280217 213.456410 426.747427 213.766667 426.214634 214.076923 425.681867 214.387179 425.149154 214.697436 424.616525 215.007692 424.084009 215.317949 423.551634 215.628205 423.019429 215.938462 422.487422 216.248718 421.955644 216.558974 421.424122 216.869231 420.892886 217.179487 420.361964 217.489744 419.831385 217.800000 419.301179 218.110256 418.771373 218.420513 418.241997 218.730769 417.713079 219.041026 417.184649 219.351282 416.656735 219.661538 416.129366 219.971795 415.602571 220.282051 415.076379 220.592308 414.550819 220.902564 414.025919 221.212821 413.501708 221.523077 412.978216 221.833333 412.455470 222.143590 411.933501 222.453846 411.412336 222.764103 410.892004 223.074359 410.372535 223.384615 409.853958 223.694872 409.336300 224.005128 408.819591 224.315385 408.303860 224.625641 407.789136 224.935897 407.275447 225.246154 406.762822 225.556410 406.251291 225.866667 405.740882 226.176923 405.231623 226.487179 404.723544 226.797436 404.216674 227.107692 403.711041 227.417949 403.206674 227.728205 402.703602 228.038462 402.201854 228.348718 401.701459 228.658974 401.202446 228.969231 400.704843 229.279487 400.208679 229.589744 399.713984 229.900000 399.220785 230.210256 398.729112 230.520513 398.238994 230.830769 397.750460 231.141026 397.263538 231.451282 396.778257 231.761538 396.294646 232.071795 395.812734 232.382051 395.332549 232.692308 394.854122 233.002564 394.377479 233.312821 393.902651 233.623077 393.429666 233.933333 392.958554 234.243590 392.489341 234.553846 392.022059 234.864103 391.556735 235.174359 391.093398 235.484615 390.632078 235.794872 390.172803 236.105128 389.715601 236.415385 389.260503 236.725641 388.807535 237.035897 388.356729 237.346154 387.908111 237.656410 387.461712 237.966667 387.017559 238.276923 386.575683 238.587179 386.136111 238.897436 385.698872 239.207692 385.263996 239.517949 384.831511 239.828205 384.401446 240.138462 383.973830 240.448718 383.548691 240.758974 383.126060 241.069231 382.705963 241.379487 382.288431 241.689744 381.873492 242.000000 381.461175 242.310256 381.051508 242.620513 380.644522 242.930769 380.240243 243.241026 379.838702 243.551282 379.439928 243.861538 379.043948 244.171795 378.650792 244.482051 378.260489 244.792308 377.873067 245.102564 377.488556 245.412821 377.106984 245.723077 376.728380 246.033333 376.352773 246.343590 375.980191 246.653846 375.610665 246.964103 375.244214 247.274359 374.880834 247.584615 374.520511 247.894872 374.163232 248.205128 373.808983 248.515385 373.457751 248.825641 373.109523 249.135897 372.764285 249.446154 372.422025 249.756410 372.082729 250.066667 371.746384 250.376923 371.412976 250.687179 371.082493 250.997436 370.754921 251.307692 370.430246 251.617949 370.108456 251.928205 369.789537 252.238462 369.473476 252.548718 369.160260 252.858974 368.849876 253.169231 368.542309 253.479487 368.237547 253.789744 367.935577 254.100000 367.636386 254.410256 367.339959 254.720513 367.046285 255.030769 366.755349 255.341026 366.467138 255.651282 366.181639 255.961538 365.898839 256.271795 365.618725 256.582051 365.341283 256.892308 365.066500 257.202564 364.794363 257.512821 364.524858 257.823077 364.257972 258.133333 363.993692 258.443590 363.732005 258.753846 363.472898 259.064103 363.216356 259.374359 362.962368 259.684615 362.710919 259.994872 362.461996 260.305128 362.215587 260.615385 361.971677 260.925641 361.730254 261.235897 361.491305 261.546154 361.254815 261.856410 361.020772 262.166667 360.789163 262.476923 360.559973 262.787179 360.333191 263.097436 360.108803 263.407692 359.886795 263.717949 359.667154 264.028205 359.449867 264.338462 359.234921 264.648718 359.022302 264.958974 358.811998 265.269231 358.603994 265.579487 358.398278 265.889744 358.194836 266.200000 357.993655 266.510256 357.794722 266.820513 357.598024 267.130769 357.403547 267.441026 357.211278 267.751282 357.021203 268.061538 356.833310 268.371795 356.647586 268.682051 356.464016 268.992308 356.282588 269.302564 356.103289 269.612821 355.926104 269.923077 355.751022 270.233333 355.578028 270.543590 355.407110 270.853846 355.238254 271.164103 355.071446 271.474359 354.906674 271.784615 354.743925 272.094872 354.583184 272.405128 354.424440 272.715385 354.267678 273.025641 354.112885 273.335897 353.960048 273.646154 353.809154 273.956410 353.660189 274.266667 353.513141 274.576923 353.367995 274.887179 353.224740 275.197436 353.083360 275.507692 352.943844 275.817949 352.806178 276.128205 352.670348 276.438462 352.536342 276.748718 352.404146 277.058974 352.273746 277.369231 352.145130 277.679487 352.018285 277.989744 351.893196 278.300000 351.769852 278.610256 351.648237 278.920513 351.528340 279.230769 351.410147 279.541026 351.293645 279.851282 351.178820 280.161538 351.065660 280.471795 350.954150 280.782051 350.844278 281.092308 350.736031 281.402564 350.629394 281.712821 350.524356 282.023077 350.420902 282.333333 350.319019 282.643590 350.218694 282.953846 350.119915 283.264103 350.022666 283.574359 349.926936 283.884615 349.832712 284.194872 349.739978 284.505128 349.648724 284.815385 349.558934 285.125641 349.470597 285.435897 349.383698 285.746154 349.298225 286.056410 349.214164 286.366667 349.131501 286.676923 349.050225 286.987179 348.970321 287.297436 348.891776 287.607692 348.814576 287.917949 348.738710 288.228205 348.664162 288.538462 348.590921 288.848718 348.518973 289.158974 348.448304 289.469231 348.378901 289.779487 348.310751 290.089744 348.243841 290.400000 348.178158 290.710256 348.113688 291.020513 348.050417 291.330769 347.988334 291.641026 347.927423 291.951282 347.867673 292.261538 347.809070 292.571795 347.751601 292.882051 347.695251 293.192308 347.640009 293.502564 347.585861 293.812821 347.532793 294.123077 347.480793 294.433333 347.429847 294.743590 347.379941 295.053846 347.331063 295.364103 347.283199 295.674359 347.236336 295.984615 347.190461 296.294872 347.145561 296.605128 347.101621 296.915385 347.058630 297.225641 347.016573 297.535897 346.975437 297.846154 346.935210 298.156410 346.895878 298.466667 346.857427 298.776923 346.819844 299.087179 346.783117 299.397436 346.747231 299.707692 346.712174 300.017949 346.677932 300.328205 346.644492 300.638462 346.611841 300.948718 346.579966 301.258974 346.548853 301.569231 346.518488 301.879487 346.488860 302.189744 346.459953 302.500000 346.431756 302.810256 346.404255 303.120513 346.377437 303.430769 346.351288 303.741026 346.325795 304.051282 346.300944 304.361538 346.276724 304.671795 346.253120 304.982051 346.230118 305.292308 346.207707 305.602564 346.185872 305.912821 346.164601 306.223077 346.143879 306.533333 346.123694 306.843590 346.104033 307.153846 346.084882 307.464103 346.066227 307.774359 346.048057 308.084615 346.030357 308.394872 346.013114 308.705128 345.996315 309.015385 345.979946 309.325641 345.963995 309.635897 345.948448 309.946154 345.933292 310.256410 345.918513 310.566667 345.904099 310.876923 345.890036 311.187179 345.876310 311.497436 345.862909 311.807692 345.849820 312.117949 345.837028 312.428205 345.824521 312.738462 345.812285 313.048718 345.800308 313.358974 345.788575 313.669231 345.777075 313.979487 345.765792 314.289744 345.754715 314.600000 345.743829 314.910256 345.733123 315.220513 345.722581 315.530769 345.712192 315.841026 345.701941 316.151282 345.691816 316.461538 345.681803 316.771795 345.671890 317.082051 345.662062 317.392308 345.652306 317.702564 345.642610 318.012821 345.632960 318.323077 345.623342 318.633333 345.613744 318.943590 345.604152 319.253846 345.594553 319.564103 345.584933 319.874359 345.575280 320.184615 345.565580 320.494872 345.555820 320.805128 345.545987 321.115385 345.536067 321.425641 345.526046 321.735897 345.515913 322.046154 345.505653 322.356410 345.495254 322.666667 345.484701 322.976923 345.473982 323.287179 345.463084 323.597436 345.451993 323.907692 345.440696 324.217949 345.429179 324.528205 345.417430 324.838462 345.405439 325.148718 345.393194 325.458974 345.380686 325.769231 345.367904 326.079487 345.354838 326.389744 345.341478 326.700000 345.327812 327.010256 345.313832 327.320513 345.299527 327.630769 345.284886 327.941026 345.269899 328.251282 345.254555 328.561538 345.238846 328.871795 345.222759 329.182051 345.206285 329.492308 345.189414 329.802564 345.172136 330.112821 345.154439 330.423077 345.136314 330.733333 345.117750 331.043590 345.098737 331.353846 345.079265 331.664103 345.059323 331.974359 345.038902 332.284615 345.017991 332.594872 344.996579 332.905128 344.974656 333.215385 344.952212 333.525641 344.929237 333.835897 344.905720 334.146154 344.881652 334.456410 344.857021 334.766667 344.831817 335.076923 344.806031 335.387179 344.779651 335.697436 344.752668 336.007692 344.725071 336.317949 344.696850 336.628205 344.667995 336.938462 344.638495 337.248718 344.608340 337.558974 344.577520 337.869231 344.546024 338.179487 344.513842 338.489744 344.480964 338.800000 344.447380 339.110256 344.413079 339.420513 344.378051 339.730769 344.342285 340.041026 344.305772 340.351282 344.268500 340.661538 344.230460 340.971795 344.191642 341.282051 344.152035 341.592308 344.111628 341.902564 344.070412 342.212821 344.028377 342.523077 343.985511 342.833333 343.941804 343.143590 343.897247 343.453846 343.851829 343.764103 343.805540 344.074359 343.758369 344.384615 343.710306 344.694872 343.661341 345.005128 343.611463 345.315385 343.560662 345.625641 343.508928 345.935897 343.456251 346.246154 343.402620 346.556410 343.348025 346.866667 343.292456 347.176923 343.235902 347.487179 343.178353 347.797436 343.119799 348.107692 343.060229 348.417949 342.999633 348.728205 342.938001 349.038462 342.875323 349.348718 342.811588 349.658974 342.746786 349.969231 342.680906 350.279487 342.613939 350.589744 342.545874 350.900000 342.476700 351.210256 342.406408 351.520513 342.334987 351.830769 342.262427 352.141026 342.188717 352.451282 342.113848 352.761538 342.037808 353.071795 341.960588 353.382051 341.882177 353.692308 341.802566 354.002564 341.721743 354.312821 341.639698 354.623077 341.556422 354.933333 341.471903 355.243590 341.386132 355.553846 341.299097 355.864103 341.210790 356.174359 341.121200 356.484615 341.030315 356.794872 340.938127 357.105128 340.844624 357.415385 340.749797 357.725641 340.653634 358.035897 340.556127 358.346154 340.457264 358.656410 340.357035 358.966667 340.255430 359.276923 340.152438 359.587179 340.048050 359.897436 339.942254 360.207692 339.835042 360.517949 339.726401 360.828205 339.616323 361.138462 339.504796 361.448718 339.391811 361.758974 339.277357 362.069231 339.161424 362.379487 339.044001 362.689744 338.925079 363.000000 338.804646 363.310256 338.682693 363.620513 338.559210 363.930769 338.434185 364.241026 338.307609 364.551282 338.179472 364.861538 338.049762 365.171795 337.918471 365.482051 337.785587 365.792308 337.651100 366.102564 337.515000 366.412821 337.377277 366.723077 337.237920 367.033333 337.096918 367.343590 336.954263 367.653846 336.809943 367.964103 336.663948 368.274359 336.516268 368.584615 336.366892 368.894872 336.215811 369.205128 336.063013 369.515385 335.908489 369.825641 335.752228 370.135897 335.594221 370.446154 335.434455 370.756410 335.272923 371.066667 335.109612 371.376923 334.944513 371.687179 334.777615 371.997436 334.608909 372.307692 334.438383 372.617949 334.266028 372.928205 334.091834 373.238462 333.915789 373.548718 333.737884 373.858974 333.558108 374.169231 333.376451 374.479487 333.192903 374.789744 333.007454 375.100000 332.820092 375.410256 332.630808 375.720513 332.439592 376.030769 332.246433 376.341026 332.051321 376.651282 331.854246 376.961538 331.655197 377.271795 331.454164 377.582051 331.251137 377.892308 331.046105 378.202564 330.839058 378.512821 330.629986 378.823077 330.418878 379.133333 330.205725 379.443590 329.990516 379.753846 329.773240 380.064103 329.553887 380.374359 329.332448 380.684615 329.108911 380.994872 328.883266 381.305128 328.655504 381.615385 328.425613 381.925641 328.193584 382.235897 327.959406 382.546154 327.723069 382.856410 327.484562 383.166667 327.243876 383.476923 327.001000 383.787179 326.755923 384.097436 326.508636 384.407692 326.259128 384.717949 326.007388 385.028205 325.753407 385.338462 325.497174 385.648718 325.238679 385.958974 324.977912 386.269231 324.714861 386.579487 324.449518 386.889744 324.181872 387.200000 323.911911 387.510256 323.639627 387.820513 323.365008 388.130769 323.088045 388.441026 322.808727 388.751282 322.527044 389.061538 322.242985 389.371795 321.956541 389.682051 321.667700 389.992308 321.376454 390.302564 321.082790 390.612821 320.786699 390.923077 320.488171 391.233333 320.187196 391.543590 319.883763 391.853846 319.577861 392.164103 319.269481 392.474359 318.958612 392.784615 318.645244 393.094872 318.329367 393.405128 318.010970 393.715385 317.690042 394.025641 317.366575 394.335897 317.040557 394.646154 316.711978 394.956410 316.380828 395.266667 316.047096 395.576923 315.710773 395.887179 315.371847 396.197436 315.030309 396.507692 314.686148 396.817949 314.339354 397.128205 313.989917 397.438462 313.637826 397.748718 313.283071 398.058974 312.925642 398.369231 312.565528 398.679487 312.202720 398.989744 311.837206 399.300000 311.468977 399.610256 311.098022 399.920513 310.724332 400.230769 310.347894 400.541026 309.968700 400.851282 309.586739 401.161538 309.202001 401.471795 308.814476 401.782051 308.424152 402.092308 308.031026 402.402564 307.635119 402.712821 307.236457 403.023077 306.835067 403.333333 306.430975 403.643590 306.024208 403.953846 305.614793 404.264103 305.202756 404.574359 304.788124 404.884615 304.370923 405.194872 303.951181 405.505128 303.528924 405.815385 303.104178 406.125641 302.676970 406.435897 302.247327 406.746154 301.815276 407.056410 301.380842 407.366667 300.944054 407.676923 300.504936 407.987179 300.063517 408.297436 299.619822 408.607692 299.173879 408.917949 298.725714 409.228205 298.275353 409.538462 297.822823 409.848718 297.368151 410.158974 296.911363 410.469231 296.452487 410.779487 295.991548 411.089744 295.528574 411.400000 295.063591 411.710256 294.596626 412.020513 294.127704 412.330769 293.656854 412.641026 293.184102 412.951282 292.709473 413.261538 292.232996 413.571795 291.754696 413.882051 291.274600 414.192308 290.792735 414.502564 290.309127 414.812821 289.823804 415.123077 289.336791 415.433333 288.848115 415.743590 288.357804 416.053846 287.865883 416.364103 287.372380 416.674359 286.877320 416.984615 286.380731 417.294872 285.882639 417.605128 285.383071 417.915385 284.882054 418.225641 284.379613 418.535897 283.875777 418.846154 283.370571 419.156410 282.864022 419.466667 282.356156 419.776923 281.847001 420.087179 281.336583 420.397436 280.824928 420.707692 280.312064 421.017949 279.798016 421.328205 279.282813 421.638462 278.766479 421.948718 278.249042 422.258974 277.730528 422.569231 277.210965 422.879487 276.690378 423.189744 276.168795 423.500000 275.646242 423.810256 275.122745 424.120513 274.598332 424.430769 274.073029 424.741026 273.546862 425.051282 273.019858 425.361538 272.492045 425.671795 271.963447 425.982051 271.434093 426.292308 270.904009 426.602564 270.373221 426.912821 269.841756 427.223077 269.309641 427.533333 268.776902 427.843590 268.243566 428.153846 267.709660 428.464103 267.175210 428.774359 266.640243 429.084615 266.104786 429.394872 265.568864 429.705128 265.032506 430.015385 264.495737 430.325641 263.958584 430.635897 263.421074 430.946154 262.883233 431.256410 262.345088 431.566667 261.806666 431.876923 261.267993 432.187179 260.729096 432.497436 260.190002 432.807692 259.650737 433.117949 259.111328 433.428205 258.571801 433.738462 258.032183 434.048718 257.492502 434.358974 256.952782 434.669231 256.413052 434.979487 255.873337 435.289744 255.333665 435.600000 254.794062 435.910256 254.254554 436.220513 253.715169 436.530769 253.175933 436.841026 252.636872 437.151282 252.098013 437.461538 251.559383 437.771795 251.021009 438.082051 250.482917 438.392308 249.945133 438.702564 249.407685 439.012821 248.870599 439.323077 248.333902 439.633333 247.797620 439.943590 247.261779 440.253846 246.726408 440.564103 246.191532 440.874359 245.657177 441.184615 245.123371 441.494872 244.590141 441.805128 244.057512 442.115385 243.525511 442.425641 242.994166 442.735897 242.463502 443.046154 241.933547 443.356410 241.404326 443.666667 240.875868 443.976923 240.348197 444.287179 239.821342 444.597436 239.295328 444.907692 238.770182 445.217949 238.245931 445.528205 237.722602 445.838462 237.200221 446.148718 236.678814 446.458974 236.158409 446.769231 235.639032 447.079487 235.120710 447.389744 234.603468 447.700000 234.087335 448.010256 233.572337 448.320513 233.058500 448.630769 232.545850 448.941026 232.034416 449.251282 231.524222 449.561538 231.015296 449.871795 230.507665 450.182051 230.001354 450.492308 229.496392 450.802564 228.992804 451.112821 228.490616 451.423077 227.989857 451.733333 227.490552 452.043590 226.992727 452.353846 226.496411 452.664103 226.001628 452.974359 225.508407 453.284615 225.016772 453.594872 224.526752 453.905128 224.038373 454.215385 223.551661 454.525641 223.066644 454.835897 222.583346 455.146154 222.101797 455.456410 221.622021 455.766667 221.144046 456.076923 220.667898 456.387179 220.193604 456.697436 219.721190 457.007692 219.250684 457.317949 218.782112 457.628205 218.315500 457.938462 217.850875 458.248718 217.388264 458.558974 216.927693 458.869231 216.469189 459.179487 216.012779 459.489744 215.558489 459.800000 215.106347 460.110256 214.656377 460.420513 214.208608 460.730769 213.763066 461.041026 213.319777 461.351282 212.878769 461.661538 212.440067 461.971795 212.003699 462.282051 211.569691 462.592308 211.138069 462.902564 210.708861 463.212821 210.282093 463.523077 209.857791 463.833333 209.435983 464.143590 209.016695 464.453846 208.599953 464.764103 208.185784 465.074359 207.774215 465.384615 207.365273 465.694872 206.958984 466.005128 206.555375 466.315385 206.154471 466.625641 205.756301 466.935897 205.360891 467.246154 204.968267 467.556410 204.578456 467.866667 204.191484 468.176923 203.807379 468.487179 203.426167 468.797436 203.047874 469.107692 202.672527 469.417949 202.300153 469.728205 201.930779 470.038462 201.564431 470.348718 201.201135 470.658974 200.840919 470.969231 200.483808 471.279487 200.129831 471.589744 199.779012 471.900000 199.431380 472.210256 199.086960 472.520513 198.745779 472.830769 198.407864 473.141026 198.073242 473.451282 197.741939 473.761538 197.413981 474.071795 197.089396 474.382051 196.768210 474.692308 196.450450 475.002564 196.136142 475.312821 195.825313 475.623077 195.517989 475.933333 195.214198 476.243590 194.913966 476.553846 194.617319 476.864103 194.324284 477.174359 194.034888 477.484615 193.749158 477.794872 193.467120 478.105128 193.188800 478.415385 192.914226 478.725641 192.643424 479.035897 192.376420 479.346154 192.113242 479.656410 191.853907 479.966667 191.598395 480.276923 191.346679 480.587179 191.098731 480.897436 190.854523 481.207692 190.614026 481.517949 190.377213 481.828205 190.144054 482.138462 189.914524 482.448718 189.688592 482.758974 189.466232 483.069231 189.247415 483.379487 189.032113 483.689744 188.820297 484.000000 188.611941 484.310256 188.407015 484.620513 188.205492 484.930769 188.007344 485.241026 187.812542 485.551282 187.621059 485.861538 187.432866 486.171795 187.247936 486.482051 187.066239 486.792308 186.887749 487.102564 186.712437 487.412821 186.540275 487.723077 186.371235 488.033333 186.205289 488.343590 186.042409 488.653846 185.882566 488.964103 185.725733 489.274359 185.571881 489.584615 185.420983 489.894872 185.273011 490.205128 185.127935 490.515385 184.985729 490.825641 184.846364 491.135897 184.709813 491.446154 184.576046 491.756410 184.445036 492.066667 184.316755 492.376923 184.191175 492.687179 184.068267 492.997436 183.948005 493.307692 183.830358 493.617949 183.715301 493.928205 183.602803 494.238462 183.492838 494.548718 183.385377 494.858974 183.280393 495.169231 183.177856 495.479487 183.077740 495.789744 182.980015 496.100000 182.884655 496.410256 182.791630 496.720513 182.700913 497.030769 182.612475 497.341026 182.526289 497.651282 182.442327 497.961538 182.360560 498.271795 182.280960 498.582051 182.203500 498.892308 182.128150 499.202564 182.054884 499.512821 181.983673 499.823077 181.914489 500.133333 181.847303 500.443590 181.782089 500.753846 181.718817 501.064103 181.657460 501.374359 181.597989 501.684615 181.540377 501.994872 181.484596 502.305128 181.430616 502.615385 181.378411 502.925641 181.327952 503.235897 181.279212 503.546154 181.232161 503.856410 181.186772 504.166667 181.143017 504.476923 181.100868 504.787179 181.060297 505.097436 181.021275 505.407692 180.983775 505.717949 180.947768 506.028205 180.913227 506.338462 180.880123 506.648718 180.848428 506.958974 180.818115 507.269231 180.789154 507.579487 180.761519 507.889744 180.735181 508.200000 180.710111 508.510256 180.686283 508.820513 180.663667 509.130769 180.642235 509.441026 180.621961 509.751282 180.602814 510.061538 180.584769 510.371795 180.567795 510.682051 180.551866 510.992308 180.536953 511.302564 180.523028 511.612821 180.510063 511.923077 180.498030 512.233333 180.486901 512.543590 180.476648 512.853846 180.467243 513.164103 180.458657 513.474359 180.450863 513.784615 180.443832 514.094872 180.437537 514.405128 180.431949 514.715385 180.427040 515.025641 180.422783 515.335897 180.419148 515.646154 180.416109 515.956410 180.413637 516.266667 180.411703 516.576923 180.410281 516.887179 180.409341 517.197436 180.408856 517.507692 180.408797 517.817949 180.409137 518.128205 180.409847 518.438462 180.410900 518.748718 180.412267 519.058974 180.413920 519.369231 180.415831 519.679487 180.417972 519.989744 180.420316 520.300000 180.422833 520.610256 180.425496 520.920513 180.428276 521.230769 180.431147 521.541026 180.434079 521.851282 180.437044 522.161538 180.440015 522.471795 180.442963 522.782051 180.445861 523.092308 180.448680 523.402564 180.451392 523.712821 180.453968 524.023077 180.456382 524.333333 180.458605 524.643590 180.460609 524.953846 180.462365 525.264103 180.463846 525.574359 180.465024 525.884615 180.465870 526.194872 180.466356 526.505128 180.466455 526.815385 180.466138 527.125641 180.465378 527.435897 180.464145 527.746154 180.462413 528.056410 180.460153 528.366667 180.457336 528.676923 180.453935 528.987179 180.449922 529.297436 180.445269 529.607692 180.439947 529.917949 180.433929 530.228205 180.427187 530.538462 180.419691 530.848718 180.411415 531.158974 180.402330 531.469231 180.392409 531.779487 180.381622 532.089744 180.369942 532.400000 180.357341 532.710256 180.343791 533.020513 180.329264 533.330769 180.313732 533.641026 180.297166 533.951282 180.279538 534.261538 180.260821 534.571795 180.240987 534.882051 180.220006 535.192308 180.197852 535.502564 180.174496 535.812821 180.149911 536.123077 180.124067 536.433333 180.096937 536.743590 180.068492 537.053846 180.038706 537.364103 180.007549 537.674359 179.974994 537.984615 179.941013 538.294872 179.905576 538.605128 179.868658 538.915385 179.830228 539.225641 179.790260 539.535897 179.748725 539.846154 179.705595 540.156410 179.660842 540.466667 179.614437 540.776923 179.566354 541.087179 179.516563 541.397436 179.465038 541.707692 179.411748 542.017949 179.356668 542.328205 179.299767 542.638462 179.241019 542.948718 179.180396 543.258974 179.117868 543.569231 179.053409 543.879487 178.986990 544.189744 178.918583 544.500000 178.848159 544.810256 178.775692 545.120513 178.701152 545.430769 178.624512 545.741026 178.545744 546.051282 178.464819 546.361538 178.381710 546.671795 178.296388 546.982051 178.208825 547.292308 178.118993 547.602564 178.026865 547.912821 177.932412 548.223077 177.835605 548.533333 177.736418 548.843590 177.634822 549.153846 177.530788 549.464103 177.424289 549.774359 177.315296 550.084615 177.203782 550.394872 177.089719 550.705128 176.973078 551.015385 176.853831 551.325641 176.731951 551.635897 176.607408 551.946154 176.480176 552.256410 176.350226 552.566667 176.217529 552.876923 176.082059 553.187179 175.943786 553.497436 175.802683 553.807692 175.658722 554.117949 175.511874 554.428205 175.362111 554.738462 175.209406 555.048718 175.053730 555.358974 174.895056 555.669231 174.733355 555.979487 174.568598 556.289744 174.400759 556.600000 174.229809 556.910256 174.055719 557.220513 173.878470 557.530769 173.698072 557.841026 173.514544 558.151282 173.327904 558.461538 173.138170 558.771795 172.945360 559.082051 172.749494 559.392308 172.550588 559.702564 172.348663 560.012821 172.143736 560.323077 171.935825 560.633333 171.724949 560.943590 171.511127 561.253846 171.294376 561.564103 171.074715 561.874359 170.852162 562.184615 170.626736 562.494872 170.398455 562.805128 170.167338 563.115385 169.933403 563.425641 169.696667 563.735897 169.457151 564.046154 169.214871 564.356410 168.969847 564.666667 168.722096 564.976923 168.471638 565.287179 168.218490 565.597436 167.962671 565.907692 167.704199 566.217949 167.443092 566.528205 167.179370 566.838462 166.913050 567.148718 166.644150 567.458974 166.372690 567.769231 166.098687 568.079487 165.822160 568.389744 165.543127 568.700000 165.261607 569.010256 164.977618 569.320513 164.691178 569.630769 164.402305 569.941026 164.111019 570.251282 163.817337 570.561538 163.521278 570.871795 163.222860 571.182051 162.922102 571.492308 162.619021 571.802564 162.313637 572.112821 162.005968 572.423077 161.696031 572.733333 161.383846 573.043590 161.069431 573.353846 160.752804 573.664103 160.433983 573.974359 160.112988 574.284615 159.789835 574.594872 159.464545 574.905128 159.137134 575.215385 158.807622 575.525641 158.476026 575.835897 158.142366 576.146154 157.806659 576.456410 157.468924 576.766667 157.129179 577.076923 156.787443 577.387179 156.443734 577.697436 156.098070 578.007692 155.750470 578.317949 155.400953 578.628205 155.049535 578.938462 154.696237 579.248718 154.341076 579.558974 153.984070 579.869231 153.625238 580.179487 153.264599 580.489744 152.902170 580.800000 152.537971 581.110256 152.172019 581.420513 151.804333 581.730769 151.434931 582.041026 151.063832 582.351282 150.691053 582.661538 150.316614 582.971795 149.940533 583.282051 149.562828 583.592308 149.183517 583.902564 148.802619 584.212821 148.420152 584.523077 148.036135 584.833333 147.650586 585.143590 147.263523 585.453846 146.874965 585.764103 146.484930 586.074359 146.093436 586.384615 145.700502 586.694872 145.306147 587.005128 144.910388 587.315385 144.513244 587.625641 144.114733 587.935897 143.714874 588.246154 143.313684 588.556410 142.911184 588.866667 142.507390 589.176923 142.102321 589.487179 141.695996 589.797436 141.288433 590.107692 140.879650 590.417949 140.469665 590.728205 140.058498 591.038462 139.646166 591.348718 139.232688 591.658974 138.818082 591.969231 138.402366 592.279487 137.985560 592.589744 137.567681 592.900000 137.148747 593.210256 136.728777 593.520513 136.307790 593.830769 135.885804 594.141026 135.462836 594.451282 135.038906 594.761538 134.614032 595.071795 134.188233 595.382051 133.761526 595.692308 133.333930 596.002564 132.905463 596.312821 132.476144 596.623077 132.045991 596.933333 131.615023 597.243590 131.183257 597.553846 130.750713 597.864103 130.317408 598.174359 129.883361 598.484615 129.448591 598.794872 129.013115 599.105128 128.576953 599.415385 128.140122 599.725641 127.702641 600.035897 127.264528 600.346154 126.825801 600.656410 126.386480 600.966667 125.946582 601.276923 125.506125 601.587179 125.065129 601.897436 124.623611 602.207692 124.181590 602.517949 123.739084 602.828205 123.296112 603.138462 122.852691 603.448718 122.408841 603.758974 121.964580 604.069231 121.519926 604.379487 121.074897 604.689744 120.629512 605.000000 120.183789 605.310256 119.737747 605.620513 119.291403 605.930769 118.844777 606.241026 118.397887 606.551282 117.950750 606.861538 117.503386 607.171795 117.055813 607.482051 116.608049 607.792308 116.160113 608.102564 115.712022 608.412821 115.263796 608.723077 114.815452 609.033333 114.367010 609.343590 113.918487 609.653846 113.469901 609.964103 113.021272 610.274359 112.572617 610.584615 112.123955 610.894872 111.675305 611.205128 111.226684 611.515385 110.778111 611.825641 110.329604 612.135897 109.881182 612.446154 109.432863 612.756410 108.984666 613.066667 108.536609 613.376923 108.088710 613.687179 107.640987 613.997436 107.193460 614.307692 106.746146 614.617949 106.299063 614.928205 105.852231 615.238462 105.405667 615.548718 104.959390 615.858974 104.513418 616.169231 104.067770 616.479487 103.622464 616.789744 103.177518 617.100000 102.732951 617.410256 102.288781 617.720513 101.845026 618.030769 101.401706 618.341026 100.958837 618.651282 100.516439 618.961538 100.074530 619.271795 99.633129 619.582051 99.192253 619.892308 98.751921 620.202564 98.312151 620.512821 97.872963 620.823077 97.434373 621.133333 96.996402 621.443590 96.559066 621.753846 96.122384 622.064103 95.686375 622.374359 95.251057 622.684615 94.816449 622.994872 94.382568 623.305128 93.949434 623.615385 93.517064 623.925641 93.085477 624.235897 92.654691 624.546154 92.224725 624.856410 91.795597 625.166667 91.367325 625.476923 90.939928 625.787179 90.513425 626.097436 90.087833 626.407692 89.663170 626.717949 89.239456 627.028205 88.816709 627.338462 88.394947 627.648718 87.974188 627.958974 87.554451 628.269231 87.135754 628.579487 86.718115 628.889744 86.301553 629.200000 85.886087 629.510256 85.471734 629.820513 85.058514 630.130769 84.646443 630.441026 84.235542 630.751282 83.825827 631.061538 83.417318 631.371795 83.010033 631.682051 82.603990 631.992308 82.199208 632.302564 81.795704 632.612821 81.393498 632.923077 80.992608 633.233333 80.593052 633.543590 80.194848 633.853846 79.798016 634.164103 79.402572 634.474359 79.008536 634.784615 78.615922 635.094872 78.224728 635.405128 77.834949 635.715385 77.446578 636.025641 77.059611 636.335897 76.674041 636.646154 76.289863 636.956410 75.907071 637.266667 75.525660 637.576923 75.145623 637.887179 74.766955 638.197436 74.389650 638.507692 74.013702 638.817949 73.639107 639.128205 73.265857 639.438462 72.893948 639.748718 72.523374 640.058974 72.154129 640.369231 71.786207 640.679487 71.419602 640.989744 71.054310 641.300000 70.690323 641.610256 70.327637 641.920513 69.966246 642.230769 69.606144 642.541026 69.247325 642.851282 68.889784 643.161538 68.533515 643.471795 68.178512 643.782051 67.824770 644.092308 67.472283 644.402564 67.121045 644.712821 66.771050 645.023077 66.422293 645.333333 66.074768 645.643590 65.728469 645.953846 65.383391 646.264103 65.039528 646.574359 64.696874 646.884615 64.355423 647.194872 64.015171 647.505128 63.676110 647.815385 63.338236 648.125641 63.001543 648.435897 62.666024 648.746154 62.331675 649.056410 61.998489 649.366667 61.666462 649.676923 61.335586 649.987179 61.005857 650.297436 60.677269 650.607692 60.349816 650.917949 60.023492 651.228205 59.698292 651.538462 59.374210 651.848718 59.051240 652.158974 58.729376 652.469231 58.408614 652.779487 58.088947 653.089744 57.770369 653.400000 57.452874 653.710256 57.136458 654.020513 56.821114 654.330769 56.506837 654.641026 56.193621 654.951282 55.881460 655.261538 55.570348 655.571795 55.260280 655.882051 54.951250 656.192308 54.643253 656.502564 54.336283 656.812821 54.030333 657.123077 53.725399 657.433333 53.421474 657.743590 53.118553 658.053846 52.816630 658.364103 52.515700 658.674359 52.215757 658.984615 51.916794 659.294872 51.618807 659.605128 51.321790 659.915385 51.025736 660.225641 50.730641 660.535897 50.436499 660.846154 50.143303 661.156410 49.851048 661.466667 49.559729 661.776923 49.269340 662.087179 48.979874 662.397436 48.691327 662.707692 48.403692 663.017949 48.116965 663.328205 47.831138 663.638462 47.546208 663.948718 47.262166 664.258974 46.979009 664.569231 46.696731 664.879487 46.415325 665.189744 46.134786 665.500000 45.855108 665.810256 45.576286 666.120513 45.298314 666.430769 45.021186 666.741026 44.744897 667.051282 44.469440 667.361538 44.194810 667.671795 43.921002 667.982051 43.648009 668.292308 43.375826 668.602564 43.104448 668.912821 42.833868 669.223077 42.564081 669.533333 42.295081 669.843590 42.026862 670.153846 41.759419 670.464103 41.492746 670.774359 41.226838 671.084615 40.961688 671.394872 40.697291 671.705128 40.433641 672.015385 40.170733 672.325641 39.908560 672.635897 39.647118 672.946154 39.386400 673.256410 39.126401 673.566667 38.867114 673.876923 38.608535 674.187179 38.350658 674.497436 38.093476 674.807692 37.836985 675.117949 37.581178 675.428205 37.326049 675.738462 37.071594 676.048718 36.817806 676.358974 36.564680 676.669231 36.312210 676.979487 36.060390 677.289744 35.809215 677.600000 35.558678 677.910256 35.308774 678.220513 35.059498 678.530769 34.810844 678.841026 34.562806 679.151282 34.315378 679.461538 34.068554 679.771795 33.822330 680.082051 33.576698 680.392308 33.331655 680.702564 33.087193 681.012821 32.843307 681.323077 32.599991 681.633333 32.357240 681.943590 32.115048 682.253846 31.873410 682.564103 31.632319 682.874359 31.391770 683.184615 31.151757 683.494872 30.912274 683.805128 30.673316 684.115385 30.434878 684.425641 30.196952 684.735897 29.959534 685.046154 29.722619 685.356410 29.486199 685.666667 29.250270 685.976923 29.014826 686.287179 28.779861 686.597436 28.545369 686.907692 28.311345 687.217949 28.077783 687.528205 27.844678 687.838462 27.612023 688.148718 27.379812 688.458974 27.148041 688.769231 26.916704 689.079487 26.685794 689.389744 26.455307 689.700000 26.225236 690.010256 25.995575 690.320513 25.766320 690.630769 25.537463 690.941026 25.309001 691.251282 25.080926 691.561538 24.853233 691.871795 24.625917 692.182051 24.398972 692.492308 24.172391 692.802564 23.946170 693.112821 23.720303 693.423077 23.494783 693.733333 23.269606 694.043590 23.044765 694.353846 22.820255 694.664103 22.596070 694.974359 22.372205 695.284615 22.148653 695.594872 21.925410 695.905128 21.702468 696.215385 21.479824 696.525641 21.257470 696.835897 21.035401 697.146154 20.813612 697.456410 20.592097 697.766667 20.370849 698.076923 20.149864 698.387179 19.929136 698.697436 19.708659 699.007692 19.488427 699.317949 19.268434 699.628205 19.048676 699.938462 18.829145 700.248718 18.609837 700.558974 18.390746 700.869231 18.171866 701.179487 17.953191 701.489744 17.734716 701.800000 17.516435 702.110256 17.298341 702.420513 17.080431 702.730769 16.862697 703.041026 16.645135 703.351282 16.427737 703.661538 16.210500 703.971795 15.993416 704.282051 15.776481 704.592308 15.559689 704.902564 15.343033 705.212821 15.126508 705.523077 14.910109 705.833333 14.693830 706.143590 14.477665 706.453846 14.261608 706.764103 14.045654 707.074359 13.829797 707.384615 13.614031 707.694872 13.398351 708.005128 13.182750 708.315385 12.967224 708.625641 12.751766 708.935897 12.536371 709.246154 12.321033 709.556410 12.105746 709.866667 11.890505 710.176923 11.675304 710.487179 11.460137 710.797436 11.244998 711.107692 11.029882 711.417949 10.814784 711.728205 10.599697 712.038462 10.384615 712.038462 540.000000" /></g></g><g class="titles" /><g class="plot overlay" transform="translate(54, 20)"><g class="series serie-0 color-0"><g class="dots"><circle class="dot reactive tooltip-trigger" cx="13.96153846153846" cy="529.6153846153845" r="2.5" /><desc class="value">403,396,356(kWh)</desc><desc class="x top">13.96153846153846</desc><desc class="y top">529.6153846153845</desc><desc class="x_label">2549</desc></g><g class="dots"><circle class="dot reactive tooltip-trigger" cx="91.52564102564101" cy="485.0536921916595" r="2.5" /><desc class="value">425,974,384(kWh)</desc><desc class="x top">91.52564102564101</desc><desc class="y top">485.0536921916595</desc><desc class="x_label">2550</desc></g><g class="dots"><circle class="dot reactive tooltip-trigger" cx="169.08974358974356" cy="488.8489293421609" r="2.5" /><desc class="value">424,051,455(kWh)</desc><desc class="x top">169.08974358974356</desc><desc class="y top">488.8489293421609</desc><desc class="x_label">2551</desc></g><g class="dots"><circle class="dot reactive tooltip-trigger" cx="246.65384615384613" cy="375.610664612531" r="2.5" /><desc class="value">481,425,773(kWh)</desc><desc class="x top">246.65384615384613</desc><desc class="y top">375.610664612531</desc><desc class="x_label">2552</desc></g><g class="dots"><circle class="dot reactive tooltip-trigger" cx="324.21794871794873" cy="345.4291790787842" r="2.5" /><desc class="value">496,717,796(kWh)</desc><desc class="x top">324.21794871794873</desc><desc class="y top">345.4291790787842</desc><desc class="x_label">2553</desc></g><g class="dots"><circle class="dot reactive tooltip-trigger" cx="401.78205128205127" cy="308.42415190102764" r="2.5" /><desc class="value">515,467,096(kWh)</desc><desc class="x left top">401.78205128205127</desc><desc class="y left top">308.42415190102764</desc><desc class="x_label">2554</desc></g><g class="dots"><circle class="dot reactive tooltip-trigger" cx="479.3461538461538" cy="192.11324209234357" r="2.5" /><desc class="value">574,398,228(kWh)</desc><desc class="x left">479.3461538461538</desc><desc class="y left">192.11324209234357</desc><desc class="x_label">2555</desc></g><g class="dots"><circle class="dot reactive tooltip-trigger" cx="556.9102564102565" cy="174.05571922005623" r="2.5" /><desc class="value">583,547,415(kWh)</desc><desc class="x left">556.9102564102565</desc><desc class="y left">174.05571922005623</desc><desc class="x_label">2556</desc></g><g class="dots"><circle class="dot reactive tooltip-trigger" cx="634.474358974359" cy="79.00853595898764" r="2.5" /><desc class="value">631,704,876(kWh)</desc><desc class="x left">634.474358974359</desc><desc class="y left">79.00853595898764</desc><desc class="x_label">2557</desc></g><g class="dots"><circle class="dot reactive tooltip-trigger" cx="712.0384615384615" cy="10.384615384615245" r="2.5" /><desc class="value">666,474,489(kWh)</desc><desc class="x left">712.0384615384615</desc><desc class="y left">10.384615384615245</desc><desc class="x_label">2558</desc></g></g></g><g class="plot text-overlay" transform="translate(54, 20)"><g class="series serie-0 color-0" /></g><g class="plot tooltip-overlay" transform="translate(54, 20)"><g class="tooltip" style="opacity: 0" transform="translate(0 0)"><rect class="tooltip-box" height="0" rx="0" ry="0" width="0" /><g class="text" /></g></g></g></svg>