<?xml version='1.0' encoding='utf-8'?>
<svg xmlns:xlink="http://www.w3.org/1999/xlink" class="pygal-chart" id="chart-c167aa1b-5a06-4bfe-b497-0e28a158f009" viewBox="0 0 800 600" xmlns="http://www.w3.org/2000/svg"><!--Generated with pygal 2.3.0 (etree) ©Kozea 2012-2016 on 2016-12-08--><!--http://pygal.org--><!--http://github.com/Kozea/pygal--><defs><style type="text/css">#chart-c167aa1b-5a06-4bfe-b497-0e28a158f009{-webkit-user-select:none;-webkit-font-smoothing:antialiased;font-family:Consolas,"Liberation Mono",Menlo,Courier,monospace}#chart-c167aa1b-5a06-4bfe-b497-0e28a158f009 .title{font-family:Consolas,"Liberation Mono",Menlo,Courier,monospace;font-size:16px}#chart-c167aa1b-5a06-4bfe-b497-0e28a158f009 .legends .legend text{font-family:Consolas,"Liberation Mono",Menlo,Courier,monospace;font-size:14px}#chart-c167aa1b-5a06-4bfe-b497-0e28a158f009 .axis text{font-family:Consolas,"Liberation Mono",Menlo,Courier,monospace;font-size:10px}#chart-c167aa1b-5a06-4bfe-b497-0e28a158f009 .axis text.major{font-family:Consolas,"Liberation Mono",Menlo,Courier,monospace;font-size:10px}#chart-c167aa1b-5a06-4bfe-b497-0e28a158f009 .text-overlay text.value{font-family:Consolas,"Liberation Mono",Menlo,Courier,monospace;font-size:16px}#chart-c167aa1b-5a06-4bfe-b497-0e28a158f009 .text-overlay text.label{font-family:Consolas,"Liberation Mono",Menlo,Courier,monospace;font-size:10px}#chart-c167aa1b-5a06-4bfe-b497-0e28a158f009 .tooltip{font-family:Consolas,"Liberation Mono",Menlo,Courier,monospace;font-size:14px}#chart-c167aa1b-5a06-4bfe-b497-0e28a158f009 text.no_data{font-family:Consolas,"Liberation Mono",Menlo,Courier,monospace;font-size:64px}
#chart-c167aa1b-5a06-4bfe-b497-0e28a158f009{background-color:rgba(249,249,249,1)}#chart-c167aa1b-5a06-4bfe-b497-0e28a158f009 path,#chart-c167aa1b-5a06-4bfe-b497-0e28a158f009 line,#chart-c167aa1b-5a06-4bfe-b497-0e28a158f009 rect,#chart-c167aa1b-5a06-4bfe-b497-0e28a158f009 circle{-webkit-transition:150ms;-moz-transition:150ms;transition:150ms}#chart-c167aa1b-5a06-4bfe-b497-0e28a158f009 .graph &gt; .background{fill:rgba(249,249,249,1)}#chart-c167aa1b-5a06-4bfe-b497-0e28a158f009 .plot &gt; .background{fill:rgba(255,255,255,1)}#chart-c167aa1b-5a06-4bfe-b497-0e28a158f009 .graph{fill:rgba(0,0,0,.87)}#chart-c167aa1b-5a06-4bfe-b497-0e28a158f009 text.no_data{fill:rgba(0,0,0,1)}#chart-c167aa1b-5a06-4bfe-b497-0e28a158f009 .title{fill:rgba(0,0,0,1)}#chart-c167aa1b-5a06-4bfe-b497-0e28a158f009 .legends .legend text{fill:rgba(0,0,0,.87)}#chart-c167aa1b-5a06-4bfe-b497-0e28a158f009 .legends .legend:hover text{fill:rgba(0,0,0,1)}#chart-c167aa1b-5a06-4bfe-b497-0e28a158f009 .axis .line{stroke:rgba(0,0,0,1)}#chart-c167aa1b-5a06-4bfe-b497-0e28a158f009 .axis .guide.line{stroke:rgba(0,0,0,.54)}#chart-c167aa1b-5a06-4bfe-b497-0e28a158f009 .axis .major.line{stroke:rgba(0,0,0,.87)}#chart-c167aa1b-5a06-4bfe-b497-0e28a158f009 .axis text.major{fill:rgba(0,0,0,1)}#chart-c167aa1b-5a06-4bfe-b497-0e28a158f009 .axis.y .guides:hover .guide.line,#chart-c167aa1b-5a06-4bfe-b497-0e28a158f009 .line-graph .axis.x .guides:hover .guide.line,#chart-c167aa1b-5a06-4bfe-b497-0e28a158f009 .stackedline-graph .axis.x .guides:hover .guide.line,#chart-c167aa1b-5a06-4bfe-b497-0e28a158f009 .xy-graph .axis.x .guides:hover .guide.line{stroke:rgba(0,0,0,1)}#chart-c167aa1b-5a06-4bfe-b497-0e28a158f009 .axis .guides:hover text{fill:rgba(0,0,0,1)}#chart-c167aa1b-5a06-4bfe-b497-0e28a158f009 .reactive{fill-opacity:.7;stroke-opacity:.8}#chart-c167aa1b-5a06-4bfe-b497-0e28a158f009 .ci{stroke:rgba(0,0,0,.87)}#chart-c167aa1b-5a06-4bfe-b497-0e28a158f009 .reactive.active,#chart-c167aa1b-5a06-4bfe-b497-0e28a158f009 .active .reactive{fill-opacity:.8;stroke-opacity:.9;stroke-width:4}#chart-c167aa1b-5a06-4bfe-b497-0e28a158f009 .ci .reactive.active{stroke-width:1.5}#chart-c167aa1b-5a06-4bfe-b497-0e28a158f009 .series text{fill:rgba(0,0,0,1)}#chart-c167aa1b-5a06-4bfe-b497-0e28a158f009 .tooltip rect{fill:rgba(255,255,255,1);stroke:rgba(0,0,0,1);-webkit-transition:opacity 150ms;-moz-transition:opacity 150ms;transition:opacity 150ms}#chart-c167aa1b-5a06-4bfe-b497-0e28a158f009 .tooltip .label{fill:rgba(0,0,0,.87)}#chart-c167aa1b-5a06-4bfe-b497-0e28a158f009 .tooltip .label{fill:rgba(0,0,0,.87)}#chart-c167aa1b-5a06-4bfe-b497-0e28a158f009 .tooltip .legend{font-size:.8em;fill:rgba(0,0,0,.54)}#chart-c167aa1b-5a06-4bfe-b497-0e28a158f009 .tooltip .x_label{font-size:.6em;fill:rgba(0,0,0,1)}#chart-c167aa1b-5a06-4bfe-b497-0e28a158f009 .tooltip .xlink{font-size:.5em;text-decoration:underline}#chart-c167aa1b-5a06-4bfe-b497-0e28a158f009 .tooltip .value{font-size:1.5em}#chart-c167aa1b-5a06-4bfe-b497-0e28a158f009 .bound{font-size:.5em}#chart-c167aa1b-5a06-4bfe-b497-0e28a158f009 .max-value{font-size:.75em;fill:rgba(0,0,0,.54)}#chart-c167aa1b-5a06-4bfe-b497-0e28a158f009 .map-element{fill:rgba(255,255,255,1);stroke:rgba(0,0,0,.54) !important}#chart-c167aa1b-5a06-4bfe-b497-0e28a158f009 .map-element .reactive{fill-opacity:inherit;stroke-opacity:inherit}#chart-c167aa1b-5a06-4bfe-b497-0e28a158f009 .color-0,#chart-c167aa1b-5a06-4bfe-b497-0e28a158f009 .color-0 a:visited{stroke:#e86fa0;fill:#e86fa0}#chart-c167aa1b-5a06-4bfe-b497-0e28a158f009 .text-overlay .color-0 text{fill:black}
#chart-c167aa1b-5a06-4bfe-b497-0e28a158f009 text.no_data{text-anchor:middle}#chart-c167aa1b-5a06-4bfe-b497-0e28a158f009 .guide.line{fill:none}#chart-c167aa1b-5a06-4bfe-b497-0e28a158f009 .centered{text-anchor:middle}#chart-c167aa1b-5a06-4bfe-b497-0e28a158f009 .title{text-anchor:middle}#chart-c167aa1b-5a06-4bfe-b497-0e28a158f009 .legends .legend text{fill-opacity:1}#chart-c167aa1b-5a06-4bfe-b497-0e28a158f009 .axis.x text{text-anchor:middle}#chart-c167aa1b-5a06-4bfe-b497-0e28a158f009 .axis.x:not(.web) text[transform]{text-anchor:start}#chart-c167aa1b-5a06-4bfe-b497-0e28a158f009 .axis.x:not(.web) text[transform].backwards{text-anchor:end}#chart-c167aa1b-5a06-4bfe-b497-0e28a158f009 .axis.y text{text-anchor:end}#chart-c167aa1b-5a06-4bfe-b497-0e28a158f009 .axis.y text[transform].backwards{text-anchor:start}#chart-c167aa1b-5a06-4bfe-b497-0e28a158f009 .axis.y2 text{text-anchor:start}#chart-c167aa1b-5a06-4bfe-b497-0e28a158f009 .axis.y2 text[transform].backwards{text-anchor:end}#chart-c167aa1b-5a06-4bfe-b497-0e28a158f009 .axis .guide.line{stroke-dasharray:4,4}#chart-c167aa1b-5a06-4bfe-b497-0e28a158f009 .axis .major.guide.line{stroke-dasharray:6,6}#chart-c167aa1b-5a06-4bfe-b497-0e28a158f009 .horizontal .axis.y .guide.line,#chart-c167aa1b-5a06-4bfe-b497-0e28a158f009 .horizontal .axis.y2 .guide.line,#chart-c167aa1b-5a06-4bfe-b497-0e28a158f009 .vertical .axis.x .guide.line{opacity:0}#chart-c167aa1b-5a06-4bfe-b497-0e28a158f009 .horizontal .axis.always_show .guide.line,#chart-c167aa1b-5a06-4bfe-b497-0e28a158f009 .vertical .axis.always_show .guide.line{opacity:1 !important}#chart-c167aa1b-5a06-4bfe-b497-0e28a158f009 .axis.y .guides:hover .guide.line,#chart-c167aa1b-5a06-4bfe-b497-0e28a158f009 .axis.y2 .guides:hover .guide.line,#chart-c167aa1b-5a06-4bfe-b497-0e28a158f009 .axis.x .guides:hover .guide.line{opacity:1}#chart-c167aa1b-5a06-4bfe-b497-0e28a158f009 .axis .guides:hover text{opacity:1}#chart-c167aa1b-5a06-4bfe-b497-0e28a158f009 .nofill{fill:none}#chart-c167aa1b-5a06-4bfe-b497-0e28a158f009 .subtle-fill{fill-opacity:.2}#chart-c167aa1b-5a06-4bfe-b497-0e28a158f009 .dot{stroke-width:1px;fill-opacity:1}#chart-c167aa1b-5a06-4bfe-b497-0e28a158f009 .dot.active{stroke-width:5px}#chart-c167aa1b-5a06-4bfe-b497-0e28a158f009 .dot.negative{fill:transparent}#chart-c167aa1b-5a06-4bfe-b497-0e28a158f009 text,#chart-c167aa1b-5a06-4bfe-b497-0e28a158f009 tspan{stroke:none !important}#chart-c167aa1b-5a06-4bfe-b497-0e28a158f009 .series text.active{opacity:1}#chart-c167aa1b-5a06-4bfe-b497-0e28a158f009 .tooltip rect{fill-opacity:.95;stroke-width:.5}#chart-c167aa1b-5a06-4bfe-b497-0e28a158f009 .tooltip text{fill-opacity:1}#chart-c167aa1b-5a06-4bfe-b497-0e28a158f009 .showable{visibility:hidden}#chart-c167aa1b-5a06-4bfe-b497-0e28a158f009 .showable.shown{visibility:visible}#chart-c167aa1b-5a06-4bfe-b497-0e28a158f009 .gauge-background{fill:rgba(229,229,229,1);stroke:none}#chart-c167aa1b-5a06-4bfe-b497-0e28a158f009 .bg-lines{stroke:rgba(249,249,249,1);stroke-width:2px}</style><script type="text/javascript">window.pygal = window.pygal || {};window.pygal.config = window.pygal.config || {};window.pygal.config['c167aa1b-5a06-4bfe-b497-0e28a158f009'] = {"no_data_text": "No data", "no_prefix": false, "xrange": null, "print_values_position": "center", "truncate_label": null, "x_labels": ["2549", "2550", "2551", "2552", "2553", "2554", "2555", "2556", "2557", "2558"], "title": null, "force_uri_protocol": "https", "defs": [], "formatter": null, "classes": ["pygal-chart"], "y_labels": null, "rounded_bars": null, "explicit_size": false, "x_labels_major_every": null, "legend_at_bottom_columns": null, "stroke_style": null, "half_pie": false, "spacing": 10, "tooltip_fancy_mode": true, "inverse_y_axis": false, "width": 800, "inner_radius": 0, "interpolation_parameters": {}, "tooltip_border_radius": 0, "style": {"no_data_font_family": "Consolas, \"Liberation Mono\", Menlo, Courier, monospace", "tooltip_font_size": 14, "tooltip_font_family": "Consolas, \"Liberation Mono\", Menlo, Courier, monospace", "stroke_opacity_hover": ".9", "legend_font_family": "Consolas, \"Liberation Mono\", Menlo, Courier, monospace", "font_family": "Consolas, \"Liberation Mono\", Menlo, Courier, monospace", "title_font_family": "Consolas, \"Liberation Mono\", Menlo, Courier, monospace", "background": "rgba(249, 249, 249, 1)", "stroke_opacity": ".8", "foreground": "rgba(0, 0, 0, .87)", "value_background": "rgba(229, 229, 229, 1)", "guide_stroke_dasharray": "4,4", "foreground_subtle": "rgba(0, 0, 0, .54)", "opacity_hover": ".8", "value_font_family": "Consolas, \"Liberation Mono\", Menlo, Courier, monospace", "value_label_font_size": 10, "plot_background": "rgba(255, 255, 255, 1)", "ci_colors": [], "label_font_size": 10, "major_label_font_size": 10, "title_font_size": 16, "no_data_font_size": 64, "value_font_size": 16, "value_colors": [], "label_font_family": "Consolas, \"Liberation Mono\", Menlo, Courier, monospace", "major_guide_stroke_dasharray": "6,6", "transition": "150ms", "foreground_strong": "rgba(0, 0, 0, 1)", "colors": ["#e86fa0", "#e88f6f", "#e8df6f", "#a0e86f", "#6fe88f", "#6fe8df", "#6fa0e8", "#8f6fe8", "#df6fe8", "#e86fa0"], "opacity": ".7", "legend_font_size": 14, "value_label_font_family": "Consolas, \"Liberation Mono\", Menlo, Courier, monospace", "major_label_font_family": "Consolas, \"Liberation Mono\", Menlo, Courier, monospace"}, "x_labels_major_count": null, "interpolation_precision": 250, "missing_value_fill_truncation": "x", "stack_from_top": false, "truncate_legend": null, "show_minor_x_labels": true, "print_zeroes": true, "css": ["file://style.css", "file://graph.css"], "y_label_rotation": 0, "legend_at_bottom": false, "print_values": false, "margin_top": null, "max_scale": 16, "allow_interruptions": false, "show_x_labels": true, "strict": false, "show_x_guides": false, "stroke": true, "margin_left": null, "dynamic_print_values": false, "print_labels": false, "show_y_labels": true, "x_labels_major": null, "range": null, "x_label_rotation": 0, "margin": 20, "zero": 0, "include_x_axis": false, "height": 600, "show_minor_y_labels": true, "show_dots": true, "interpolate": "cubic", "show_y_guides": true, "y_labels_major": null, "box_mode": "extremes", "margin_bottom": null, "order_min": null, "legend_box_size": 12, "fill": true, "show_only_major_dots": false, "js": ["//kozea.github.io/pygal.js/2.0.x/pygal-tooltips.min.js"], "x_title": null, "y_labels_major_every": null, "y_labels_major_count": null, "disable_xml_declaration": false, "y_title": null, "logarithmic": false, "pretty_print": false, "min_scale": 4, "dots_size": 2.5, "margin_right": null, "legends": [null], "secondary_range": null, "show_legend": false}</script><script type="text/javascript" xlink:href="https://kozea.github.io/pygal.js/2.0.x/pygal-tooltips.min.js" /></defs><title>Pygal</title><g class="graph stackedline-graph vertical"><rect class="background" height="600" width="800" x="0" y="0" /><g class="plot" transform="translate(54, 20)"><rect class="background" height="540" width="726.0" x="0" y="0" /><g class="axis y"><path class="line" d="M0.000000 540.000000 h726.000000" /><g class="guides"><path class="guide line" d="M0.000000 525.945463 h726.000000" /><text class="" x="-5" y="529.4454628803902">560M</text><title>560M</title></g><g class="guides"><path class="guide line" d="M0.000000 473.773373 h726.000000" /><text class="" x="-5" y="477.2733732690866">600M</text><title>600M</title></g><g class="guides"><path class="guide line" d="M0.000000 421.601284 h726.000000" /><text class="" x="-5" y="425.10128365778303">640M</text><title>640M</title></g><g class="guides"><path class="guide line" d="M0.000000 369.429194 h726.000000" /><text class="" x="-5" y="372.92919404647944">680M</text><title>680M</title></g><g class="guides"><path class="guide line" d="M0.000000 317.257104 h726.000000" /><text class="" x="-5" y="320.75710443517585">720M</text><title>720M</title></g><g class="guides"><path class="guide line" d="M0.000000 265.085015 h726.000000" /><text class="" x="-5" y="268.58501482387226">760M</text><title>760M</title></g><g class="guides"><path class="guide line" d="M0.000000 212.912925 h726.000000" /><text class="" x="-5" y="216.4129252125686">800M</text><title>800M</title></g><g class="guides"><path class="guide line" d="M0.000000 160.740836 h726.000000" /><text class="" x="-5" y="164.24083560126502">840M</text><title>840M</title></g><g class="guides"><path class="guide line" d="M0.000000 108.568746 h726.000000" /><text class="" x="-5" y="112.06874598996143">880M</text><title>880M</title></g><g class="guides"><path class="guide line" d="M0.000000 56.396656 h726.000000" /><text class="" x="-5" y="59.89665637865784">920M</text><title>920M</title></g></g><g class="axis x"><g class="guides"><path class="line" d="M13.961538 0.000000 v540.000000" /><text class="" x="13.96153846153846" y="555.0">2549</text></g><g class="guides"><path class="guide line" d="M91.525641 0.000000 v540.000000" /><text class="" x="91.52564102564101" y="555.0">2550</text></g><g class="guides"><path class="guide line" d="M169.089744 0.000000 v540.000000" /><text class="" x="169.08974358974356" y="555.0">2551</text></g><g class="guides"><path class="guide line" d="M246.653846 0.000000 v540.000000" /><text class="" x="246.65384615384613" y="555.0">2552</text></g><g class="guides"><path class="guide line" d="M324.217949 0.000000 v540.000000" /><text class="" x="324.21794871794873" y="555.0">2553</text></g><g class="guides"><path class="guide line" d="M401.782051 0.000000 v540.000000" /><text class="" x="401.78205128205127" y="555.0">2554</text></g><g class="guides"><path class="guide line" d="M479.346154 0.000000 v540.000000" /><text class="" x="479.3461538461538" y="555.0">2555</text></g><g class="guides"><path class="guide line" d="M556.910256 0.000000 v540.000000" /><text class="" x="556.9102564102565" y="555.0">2556</text></g><g class="guides"><path class="guide line" d="M634.474359 0.000000 v540.000000" /><text class="" x="634.474358974359" y="555.0">2557</text></g><g class="guides"><path class="guide line" d="M712.038462 0.000000 v540.000000" /><text class="" x="712.0384615384615" y="555.0">2558</text></g></g><g class="series serie-0 color-0"><path class="line reactive" d="M13.961538 540.000000 L13.961538 529.615385 14.271795 529.110051 14.582051 528.604726 14.892308 528.099419 15.202564 527.594140 15.512821 527.088897 15.823077 526.583700 16.133333 526.078557 16.443590 525.573478 16.753846 525.068473 17.064103 524.563549 17.374359 524.058716 17.684615 523.553984 17.994872 523.049361 18.305128 522.544857 18.615385 522.040481 18.925641 521.536241 19.235897 521.032147 19.546154 520.528208 19.856410 520.024434 20.166667 519.520832 20.476923 519.017413 20.787179 518.514185 21.097436 518.011159 21.407692 517.508341 21.717949 517.005743 22.028205 516.503373 22.338462 516.001239 22.648718 515.499352 22.958974 514.997721 23.269231 514.496353 23.579487 513.995260 23.889744 513.494449 24.200000 512.993930 24.510256 512.493711 24.820513 511.993803 25.130769 511.494214 25.441026 510.994953 25.751282 510.496030 26.061538 509.997453 26.371795 509.499232 26.682051 509.001376 26.992308 508.503893 27.302564 508.006793 27.612821 507.510086 27.923077 507.013780 28.233333 506.517884 28.543590 506.022408 28.853846 505.527360 29.164103 505.032750 29.474359 504.538587 29.784615 504.044879 30.094872 503.551637 30.405128 503.058869 30.715385 502.566585 31.025641 502.074792 31.335897 501.583502 31.646154 501.092722 31.956410 500.602461 32.266667 500.112730 32.576923 499.623537 32.887179 499.134890 33.197436 498.646801 33.507692 498.159276 33.817949 497.672326 34.128205 497.185960 34.438462 496.700186 34.748718 496.215014 35.058974 495.730453 35.369231 495.246512 35.679487 494.763201 35.989744 494.280528 36.300000 493.798502 36.610256 493.317133 36.920513 492.836429 37.230769 492.356401 37.541026 491.877056 37.851282 491.398404 38.161538 490.920455 38.471795 490.443216 38.782051 489.966699 39.092308 489.490910 39.402564 489.015861 39.712821 488.541559 40.023077 488.068014 40.333333 487.595235 40.643590 487.123231 40.953846 486.652011 41.264103 486.181585 41.574359 485.711961 41.884615 485.243149 42.194872 484.775157 42.505128 484.307995 42.815385 483.841673 43.125641 483.376198 43.435897 482.911581 43.746154 482.447829 44.056410 481.984954 44.366667 481.522962 44.676923 481.061865 44.987179 480.601670 45.297436 480.142387 45.607692 479.684026 45.917949 479.226594 46.228205 478.770101 46.538462 478.314557 46.848718 477.859971 47.158974 477.406351 47.469231 476.953707 47.779487 476.502048 48.089744 476.051382 48.400000 475.601720 48.710256 475.153070 49.020513 474.705441 49.330769 474.258843 49.641026 473.813284 49.951282 473.368774 50.261538 472.925322 50.571795 472.482937 50.882051 472.041628 51.192308 471.601404 51.502564 471.162274 51.812821 470.724248 52.123077 470.287334 52.433333 469.851542 52.743590 469.416880 53.053846 468.983359 53.364103 468.550986 53.674359 468.119772 53.984615 467.689725 54.294872 467.260854 54.605128 466.833169 54.915385 466.406678 55.225641 465.981391 55.535897 465.557317 55.846154 465.134465 56.156410 464.712843 56.466667 464.292463 56.776923 463.873331 57.087179 463.455458 57.397436 463.038852 57.707692 462.623523 58.017949 462.209480 58.328205 461.796731 58.638462 461.385287 58.948718 460.975156 59.258974 460.566347 59.569231 460.158870 59.879487 459.752733 60.189744 459.347945 60.500000 458.944517 60.810256 458.542456 61.120513 458.141772 61.430769 457.742474 61.741026 457.344572 62.051282 456.948074 62.361538 456.552989 62.671795 456.159327 62.982051 455.767096 63.292308 455.376307 63.602564 454.986967 63.912821 454.599086 64.223077 454.212674 64.533333 453.827739 64.843590 453.444290 65.153846 453.062337 65.464103 452.681888 65.774359 452.302953 66.084615 451.925541 66.394872 451.549661 66.705128 451.175322 67.015385 450.802534 67.325641 450.431304 67.635897 450.061644 67.946154 449.693560 68.256410 449.327064 68.566667 448.962163 68.876923 448.598868 69.187179 448.237186 69.497436 447.877127 69.807692 447.518701 70.117949 447.161917 70.428205 446.806783 70.738462 446.453308 71.048718 446.101502 71.358974 445.751375 71.669231 445.402934 71.979487 445.056189 72.289744 444.711150 72.600000 444.367825 72.910256 444.026223 73.220513 443.686355 73.530769 443.348227 73.841026 443.011851 74.151282 442.677235 74.461538 442.344388 74.771795 442.013319 75.082051 441.684037 75.392308 441.356552 75.702564 441.030872 76.012821 440.707007 76.323077 440.384966 76.633333 440.064758 76.943590 439.746392 77.253846 439.429877 77.564103 439.115222 77.874359 438.802437 78.184615 438.491530 78.494872 438.182511 78.805128 437.875389 79.115385 437.570172 79.425641 437.266871 79.735897 436.965494 80.046154 436.666050 80.356410 436.368548 80.666667 436.072998 80.976923 435.779408 81.287179 435.487788 81.597436 435.198147 81.907692 434.910494 82.217949 434.624838 82.528205 434.341188 82.838462 434.059553 83.148718 433.779943 83.458974 433.502366 83.769231 433.226832 84.079487 432.953350 84.389744 432.681929 84.700000 432.412578 85.010256 432.145306 85.320513 431.880122 85.630769 431.617035 85.941026 431.356055 86.251282 431.097191 86.561538 430.840452 86.871795 430.585846 87.182051 430.333383 87.492308 430.083072 87.802564 429.834923 88.112821 429.588944 88.423077 429.345144 88.733333 429.103533 89.043590 428.864120 89.353846 428.626913 89.664103 428.391923 89.974359 428.159157 90.284615 427.928626 90.594872 427.700337 90.905128 427.474302 91.215385 427.250528 91.525641 427.029024 91.835897 426.809796 92.146154 426.592833 92.456410 426.378120 92.766667 426.165641 93.076923 425.955382 93.387179 425.747328 93.697436 425.541463 94.007692 425.337773 94.317949 425.136243 94.628205 424.936857 94.938462 424.739601 95.248718 424.544459 95.558974 424.351417 95.869231 424.160460 96.179487 423.971572 96.489744 423.784738 96.800000 423.599944 97.110256 423.417175 97.420513 423.236415 97.730769 423.057649 98.041026 422.880863 98.351282 422.706041 98.661538 422.533168 98.971795 422.362230 99.282051 422.193212 99.592308 422.026097 99.902564 421.860872 100.212821 421.697521 100.523077 421.536029 100.833333 421.376382 101.143590 421.218564 101.453846 421.062560 101.764103 420.908355 102.074359 420.755935 102.384615 420.605284 102.694872 420.456386 103.005128 420.309228 103.315385 420.163794 103.625641 420.020069 103.935897 419.878039 104.246154 419.737687 104.556410 419.598999 104.866667 419.461961 105.176923 419.326556 105.487179 419.192770 105.797436 419.060589 106.107692 418.929996 106.417949 418.800977 106.728205 418.673517 107.038462 418.547601 107.348718 418.423214 107.658974 418.300341 107.969231 418.178966 108.279487 418.059076 108.589744 417.940654 108.900000 417.823686 109.210256 417.708157 109.520513 417.594052 109.830769 417.481355 110.141026 417.370052 110.451282 417.260128 110.761538 417.151567 111.071795 417.044355 111.382051 416.938477 111.692308 416.833918 112.002564 416.730662 112.312821 416.628694 112.623077 416.528001 112.933333 416.428565 113.243590 416.330374 113.553846 416.233411 113.864103 416.137661 114.174359 416.043110 114.484615 415.949742 114.794872 415.857543 115.105128 415.766497 115.415385 415.676590 115.725641 415.587806 116.035897 415.500131 116.346154 415.413549 116.656410 415.328045 116.966667 415.243604 117.276923 415.160212 117.587179 415.077853 117.897436 414.996513 118.207692 414.916176 118.517949 414.836827 118.828205 414.758451 119.138462 414.681033 119.448718 414.604559 119.758974 414.529013 120.069231 414.454380 120.379487 414.380645 120.689744 414.307793 121.000000 414.235810 121.310256 414.164679 121.620513 414.094387 121.930769 414.024917 122.241026 413.956256 122.551282 413.888388 122.861538 413.821297 123.171795 413.754970 123.482051 413.689390 123.792308 413.624544 124.102564 413.560416 124.412821 413.496990 124.723077 413.434252 125.033333 413.372187 125.343590 413.310781 125.653846 413.250016 125.964103 413.189880 126.274359 413.130357 126.584615 413.071431 126.894872 413.013088 127.205128 412.955313 127.515385 412.898091 127.825641 412.841406 128.135897 412.785244 128.446154 412.729590 128.756410 412.674428 129.066667 412.619744 129.376923 412.565523 129.687179 412.511749 129.997436 412.458408 130.307692 412.405485 130.617949 412.352964 130.928205 412.300830 131.238462 412.249069 131.548718 412.197666 131.858974 412.146605 132.169231 412.095872 132.479487 412.045451 132.789744 411.995327 133.100000 411.945486 133.410256 411.895913 133.720513 411.846592 134.030769 411.797508 134.341026 411.748646 134.651282 411.699992 134.961538 411.651530 135.271795 411.603245 135.582051 411.555123 135.892308 411.507148 136.202564 411.459305 136.512821 411.411580 136.823077 411.363956 137.133333 411.316420 137.443590 411.268956 137.753846 411.221550 138.064103 411.174185 138.374359 411.126847 138.684615 411.079522 138.994872 411.032194 139.305128 410.984847 139.615385 410.937468 139.925641 410.890041 140.235897 410.842551 140.546154 410.794983 140.856410 410.747321 141.166667 410.699552 141.476923 410.651660 141.787179 410.603630 142.097436 410.555446 142.407692 410.507095 142.717949 410.458560 143.028205 410.409827 143.338462 410.360881 143.648718 410.311707 143.958974 410.262290 144.269231 410.212614 144.579487 410.162666 144.889744 410.112429 145.200000 410.061889 145.510256 410.011030 145.820513 409.959838 146.130769 409.908298 146.441026 409.856395 146.751282 409.804113 147.061538 409.751438 147.371795 409.698354 147.682051 409.644847 147.992308 409.590902 148.302564 409.536503 148.612821 409.481636 148.923077 409.426285 149.233333 409.370436 149.543590 409.314073 149.853846 409.257182 150.164103 409.199747 150.474359 409.141753 150.784615 409.083186 151.094872 409.024031 151.405128 408.964272 151.715385 408.903894 152.025641 408.842883 152.335897 408.781222 152.646154 408.718899 152.956410 408.655896 153.266667 408.592200 153.576923 408.527795 153.887179 408.462666 154.197436 408.396799 154.507692 408.330178 154.817949 408.262787 155.128205 408.194614 155.438462 408.125641 155.748718 408.055854 156.058974 407.985239 156.369231 407.913779 156.679487 407.841461 156.989744 407.768269 157.300000 407.694188 157.610256 407.619203 157.920513 407.543299 158.230769 407.466460 158.541026 407.388673 158.851282 407.309922 159.161538 407.230192 159.471795 407.149468 159.782051 407.067734 160.092308 406.984977 160.402564 406.901180 160.712821 406.816329 161.023077 406.730410 161.333333 406.643405 161.643590 406.555302 161.953846 406.466085 162.264103 406.375738 162.574359 406.284247 162.884615 406.191597 163.194872 406.097772 163.505128 406.002758 163.815385 405.906540 164.125641 405.809103 164.435897 405.710431 164.746154 405.610510 165.056410 405.509324 165.366667 405.406859 165.676923 405.303100 165.987179 405.198031 166.297436 405.091638 166.607692 404.983905 166.917949 404.874818 167.228205 404.764361 167.538462 404.652520 167.848718 404.539279 168.158974 404.424624 168.469231 404.308539 168.779487 404.191009 169.089744 404.072020 169.400000 403.951560 169.710256 403.829631 170.020513 403.706240 170.330769 403.581394 170.641026 403.455099 170.951282 403.327361 171.261538 403.198186 171.571795 403.067581 171.882051 402.935552 172.192308 402.802105 172.502564 402.667247 172.812821 402.530985 173.123077 402.393324 173.433333 402.254270 173.743590 402.113831 174.053846 401.972012 174.364103 401.828820 174.674359 401.684262 174.984615 401.538343 175.294872 401.391069 175.605128 401.242448 175.915385 401.092486 176.225641 400.941188 176.535897 400.788562 176.846154 400.634613 177.156410 400.479349 177.466667 400.322774 177.776923 400.164896 178.087179 400.005721 178.397436 399.845255 178.707692 399.683505 179.017949 399.520477 179.328205 399.356178 179.638462 399.190613 179.948718 399.023788 180.258974 398.855712 180.569231 398.686389 180.879487 398.515826 181.189744 398.344029 181.500000 398.171005 181.810256 397.996761 182.120513 397.821301 182.430769 397.644633 182.741026 397.466764 183.051282 397.287699 183.361538 397.107444 183.671795 396.926007 183.982051 396.743393 184.292308 396.559609 184.602564 396.374662 184.912821 396.188556 185.223077 396.001300 185.533333 395.812899 185.843590 395.623359 186.153846 395.432687 186.464103 395.240889 186.774359 395.047972 187.084615 394.853941 187.394872 394.658804 187.705128 394.462567 188.015385 394.265235 188.325641 394.066816 188.635897 393.867315 188.946154 393.666739 189.256410 393.465095 189.566667 393.262388 189.876923 393.058625 190.187179 392.853812 190.497436 392.647956 190.807692 392.441063 191.117949 392.233140 191.428205 392.024192 191.738462 391.814226 192.048718 391.603248 192.358974 391.391265 192.669231 391.178284 192.979487 390.964309 193.289744 390.749348 193.600000 390.533408 193.910256 390.316494 194.220513 390.098612 194.530769 389.879770 194.841026 389.659973 195.151282 389.439228 195.461538 389.217541 195.771795 388.994918 196.082051 388.771367 196.392308 388.546892 196.702564 388.321501 197.012821 388.095200 197.323077 387.867995 197.633333 387.639893 197.943590 387.410899 198.253846 387.181021 198.564103 386.950264 198.874359 386.718635 199.184615 386.486140 199.494872 386.252786 199.805128 386.018579 200.115385 385.783525 200.425641 385.547631 200.735897 385.310902 201.046154 385.073346 201.356410 384.834969 201.666667 384.595776 201.976923 384.355775 202.287179 384.114972 202.597436 383.873373 202.907692 383.630983 203.217949 383.387811 203.528205 383.143862 203.838462 382.899142 204.148718 382.653657 204.458974 382.407415 204.769231 382.160422 205.079487 381.912682 205.389744 381.664205 205.700000 381.414994 206.010256 381.165057 206.320513 380.914401 206.630769 380.663030 206.941026 380.410953 207.251282 380.158175 207.561538 379.904702 207.871795 379.650541 208.182051 379.395699 208.492308 379.140180 208.802564 378.883993 209.112821 378.627143 209.423077 378.369636 209.733333 378.111479 210.043590 377.852679 210.353846 377.593241 210.664103 377.333172 210.974359 377.072478 211.284615 376.811166 211.594872 376.549242 211.905128 376.286712 212.215385 376.023582 212.525641 375.759860 212.835897 375.495551 213.146154 375.230662 213.456410 374.965198 213.766667 374.699167 214.076923 374.432575 214.387179 374.165427 214.697436 373.897731 215.007692 373.629493 215.317949 373.360719 215.628205 373.091415 215.938462 372.821588 216.248718 372.551243 216.558974 372.280389 216.869231 372.009030 217.179487 371.737173 217.489744 371.464825 217.800000 371.191991 218.110256 370.918679 218.420513 370.644894 218.730769 370.370643 219.041026 370.095932 219.351282 369.820767 219.661538 369.545156 219.971795 369.269103 220.282051 368.992616 220.592308 368.715701 220.902564 368.438364 221.212821 368.160612 221.523077 367.882450 221.833333 367.603886 222.143590 367.324926 222.453846 367.045575 222.764103 366.765841 223.074359 366.485729 223.384615 366.205246 223.694872 365.924398 224.005128 365.643193 224.315385 365.361635 224.625641 365.079731 224.935897 364.797488 225.246154 364.514912 225.556410 364.232010 225.866667 363.948787 226.176923 363.665250 226.487179 363.381405 226.797436 363.097260 227.107692 362.812819 227.417949 362.528089 227.728205 362.243078 228.038462 361.957790 228.348718 361.672233 228.658974 361.386413 228.969231 361.100336 229.279487 360.814008 229.589744 360.527436 229.900000 360.240627 230.210256 359.953585 230.520513 359.666319 230.830769 359.378834 231.141026 359.091136 231.451282 358.803232 231.761538 358.515128 232.071795 358.226831 232.382051 357.938347 232.692308 357.649682 233.002564 357.360842 233.312821 357.071835 233.623077 356.782665 233.933333 356.493340 234.243590 356.203867 234.553846 355.914250 234.864103 355.624497 235.174359 355.334614 235.484615 355.044608 235.794872 354.754484 236.105128 354.464249 236.415385 354.173909 236.725641 353.883471 237.035897 353.592941 237.346154 353.302325 237.656410 353.011630 237.966667 352.720863 238.276923 352.430028 238.587179 352.139133 238.897436 351.848185 239.207692 351.557188 239.517949 351.266151 239.828205 350.975078 240.138462 350.683977 240.448718 350.392854 240.758974 350.101715 241.069231 349.810567 241.379487 349.519415 241.689744 349.228266 242.000000 348.937127 242.310256 348.646004 242.620513 348.354903 242.930769 348.063830 243.241026 347.772793 243.551282 347.481796 243.861538 347.190847 244.171795 346.899952 244.482051 346.609117 244.792308 346.318349 245.102564 346.027654 245.412821 345.737038 245.723077 345.446507 246.033333 345.156069 246.343590 344.865729 246.653846 344.575493 246.964103 344.285369 247.274359 343.995363 247.584615 343.705482 247.894872 343.415734 248.205128 343.126126 248.515385 342.836666 248.825641 342.547360 249.135897 342.258216 249.446154 341.969241 249.756410 341.680443 250.066667 341.391829 250.376923 341.103405 250.687179 340.815180 250.997436 340.527160 251.307692 340.239353 251.617949 339.951767 251.928205 339.664407 252.238462 339.377283 252.548718 339.090400 252.858974 338.803766 253.169231 338.517389 253.479487 338.231276 253.789744 337.945433 254.100000 337.659869 254.410256 337.374591 254.720513 337.089605 255.030769 336.804920 255.341026 336.520542 255.651282 336.236478 255.961538 335.952737 256.271795 335.669325 256.582051 335.386249 256.892308 335.103517 257.202564 334.821137 257.512821 334.539114 257.823077 334.257457 258.133333 333.976173 258.443590 333.695269 258.753846 333.414753 259.064103 333.134631 259.374359 332.854911 259.684615 332.575601 259.994872 332.296707 260.305128 332.018237 260.615385 331.740198 260.925641 331.462597 261.235897 331.185442 261.546154 330.908740 261.856410 330.632498 262.166667 330.356724 262.476923 330.081424 262.787179 329.806606 263.097436 329.532278 263.407692 329.258446 263.717949 328.985118 264.028205 328.712301 264.338462 328.440002 264.648718 328.168229 264.958974 327.896989 265.269231 327.626289 265.579487 327.356137 265.889744 327.086540 266.200000 326.817504 266.510256 326.549038 266.820513 326.281148 267.130769 326.013843 267.441026 325.747128 267.751282 325.481012 268.061538 325.215502 268.371795 324.950604 268.682051 324.686327 268.992308 324.422677 269.302564 324.159662 269.612821 323.897289 269.923077 323.635566 270.233333 323.374499 270.543590 323.114096 270.853846 322.854364 271.164103 322.595310 271.474359 322.336942 271.784615 322.079268 272.094872 321.822293 272.405128 321.566026 272.715385 321.310474 273.025641 321.055644 273.335897 320.801543 273.646154 320.548179 273.956410 320.295559 274.266667 320.043690 274.576923 319.792580 274.887179 319.542235 275.197436 319.292663 275.507692 319.043872 275.817949 318.795868 276.128205 318.548659 276.438462 318.302252 276.748718 318.056655 277.058974 317.811874 277.369231 317.567917 277.679487 317.324791 277.989744 317.082504 278.300000 316.841063 278.610256 316.600475 278.920513 316.360747 279.230769 316.121886 279.541026 315.883900 279.851282 315.646797 280.161538 315.410583 280.471795 315.175266 280.782051 314.940852 281.092308 314.707350 281.402564 314.474767 281.712821 314.243109 282.023077 314.012384 282.333333 313.782600 282.643590 313.553763 282.953846 313.325881 283.264103 313.098962 283.574359 312.873011 283.884615 312.648038 284.194872 312.424048 284.505128 312.201050 284.815385 311.979050 285.125641 311.758057 285.435897 311.538076 285.746154 311.319115 286.056410 311.101183 286.366667 310.884285 286.676923 310.668429 286.987179 310.453623 287.297436 310.239874 287.607692 310.027188 287.917949 309.815574 288.228205 309.605039 288.538462 309.395589 288.848718 309.187232 289.158974 308.979976 289.469231 308.773828 289.779487 308.568794 290.089744 308.364883 290.400000 308.162101 290.710256 307.960456 291.020513 307.759955 291.330769 307.560606 291.641026 307.362415 291.951282 307.165390 292.261538 306.969538 292.571795 306.774866 292.882051 306.581382 293.192308 306.389093 293.502564 306.198007 293.812821 306.008129 294.123077 305.819469 294.433333 305.632033 294.743590 305.445828 295.053846 305.260862 295.364103 305.077141 295.674359 304.894674 295.984615 304.713467 296.294872 304.533528 296.605128 304.354864 296.915385 304.177483 297.225641 304.001391 297.535897 303.826595 297.846154 303.653104 298.156410 303.480924 298.466667 303.310063 298.776923 303.140528 299.087179 302.972326 299.397436 302.805464 299.707692 302.639950 300.017949 302.475791 300.328205 302.312995 300.638462 302.151568 300.948718 301.991518 301.258974 301.832852 301.569231 301.675578 301.879487 301.519702 302.189744 301.365232 302.500000 301.212175 302.810256 301.060539 303.120513 300.910331 303.430769 300.761557 303.741026 300.614227 304.051282 300.468345 304.361538 300.323921 304.671795 300.180960 304.982051 300.039471 305.292308 299.899461 305.602564 299.760937 305.912821 299.623906 306.223077 299.488376 306.533333 299.354353 306.843590 299.221846 307.153846 299.090861 307.464103 298.961405 307.774359 298.833486 308.084615 298.707112 308.394872 298.582289 308.705128 298.459025 309.015385 298.337327 309.325641 298.217202 309.635897 298.098657 309.946154 297.981701 310.256410 297.866340 310.566667 297.752580 310.876923 297.640431 311.187179 297.529899 311.497436 297.420990 311.807692 297.313714 312.117949 297.208076 312.428205 297.104084 312.738462 297.001745 313.048718 296.901067 313.358974 296.802057 313.669231 296.704722 313.979487 296.609069 314.289744 296.515107 314.600000 296.422841 314.910256 296.332279 315.220513 296.243429 315.530769 296.156297 315.841026 296.070892 316.151282 295.987220 316.461538 295.905288 316.771795 295.825105 317.082051 295.746677 317.392308 295.670011 317.702564 295.595114 318.012821 295.521995 318.323077 295.450660 318.633333 295.381117 318.943590 295.313372 319.253846 295.247434 319.564103 295.183309 319.874359 295.121004 320.184615 295.060528 320.494872 295.001886 320.805128 294.945087 321.115385 294.890138 321.425641 294.837046 321.735897 294.785818 322.046154 294.736462 322.356410 294.688985 322.666667 294.643393 322.976923 294.599695 323.287179 294.557898 323.597436 294.518009 323.907692 294.480035 324.217949 294.443983 324.528205 294.409856 324.838462 294.377631 325.148718 294.347282 325.458974 294.318781 325.769231 294.292102 326.079487 294.267218 326.389744 294.244102 326.700000 294.222726 327.010256 294.203063 327.320513 294.185087 327.630769 294.168771 327.941026 294.154087 328.251282 294.141008 328.561538 294.129508 328.871795 294.119559 329.182051 294.111134 329.492308 294.104207 329.802564 294.098749 330.112821 294.094735 330.423077 294.092138 330.733333 294.090929 331.043590 294.091083 331.353846 294.092571 331.664103 294.095368 331.974359 294.099446 332.284615 294.104778 332.594872 294.111337 332.905128 294.119095 333.215385 294.128027 333.525641 294.138105 333.835897 294.149301 334.146154 294.161589 334.456410 294.174942 334.766667 294.189333 335.076923 294.204735 335.387179 294.221120 335.697436 294.238462 336.007692 294.256733 336.317949 294.275907 336.628205 294.295957 336.938462 294.316856 337.248718 294.338575 337.558974 294.361090 337.869231 294.384371 338.179487 294.408394 338.489744 294.433129 338.800000 294.458551 339.110256 294.484633 339.420513 294.511346 339.730769 294.538665 340.041026 294.566562 340.351282 294.595011 340.661538 294.623983 340.971795 294.653453 341.282051 294.683393 341.592308 294.713776 341.902564 294.744575 342.212821 294.775763 342.523077 294.807313 342.833333 294.839198 343.143590 294.871392 343.453846 294.903865 343.764103 294.936593 344.074359 294.969548 344.384615 295.002702 344.694872 295.036030 345.005128 295.069503 345.315385 295.103095 345.625641 295.136778 345.935897 295.170526 346.246154 295.204312 346.556410 295.238109 346.866667 295.271889 347.176923 295.305625 347.487179 295.339291 347.797436 295.372860 348.107692 295.406304 348.417949 295.439597 348.728205 295.472710 349.038462 295.505619 349.348718 295.538294 349.658974 295.570710 349.969231 295.602839 350.279487 295.634655 350.589744 295.666129 350.900000 295.697236 351.210256 295.727948 351.520513 295.758238 351.830769 295.788080 352.141026 295.817445 352.451282 295.846307 352.761538 295.874640 353.071795 295.902415 353.382051 295.929606 353.692308 295.956186 354.002564 295.982128 354.312821 296.007405 354.623077 296.031990 354.933333 296.055856 355.243590 296.078975 355.553846 296.101321 355.864103 296.122867 356.174359 296.143585 356.484615 296.163449 356.794872 296.182432 357.105128 296.200506 357.415385 296.217645 357.725641 296.233821 358.035897 296.249008 358.346154 296.263178 358.656410 296.276305 358.966667 296.288361 359.276923 296.299319 359.587179 296.309153 359.897436 296.317835 360.207692 296.325339 360.517949 296.331636 360.828205 296.336701 361.138462 296.340506 361.448718 296.343024 361.758974 296.344229 362.069231 296.344092 362.379487 296.342588 362.689744 296.339688 363.000000 296.335367 363.310256 296.329596 363.620513 296.322349 363.930769 296.313600 364.241026 296.303320 364.551282 296.291483 364.861538 296.278062 365.171795 296.263030 365.482051 296.246359 365.792308 296.228023 366.102564 296.207995 366.412821 296.186248 366.723077 296.162754 367.033333 296.137487 367.343590 296.110419 367.653846 296.081524 367.964103 296.050774 368.274359 296.018143 368.584615 295.983604 368.894872 295.947129 369.205128 295.908691 369.515385 295.868263 369.825641 295.825819 370.135897 295.781332 370.446154 295.734773 370.756410 295.686117 371.066667 295.635336 371.376923 295.582403 371.687179 295.527291 371.997436 295.469974 372.307692 295.410423 372.617949 295.348613 372.928205 295.284515 373.238462 295.218104 373.548718 295.149352 373.858974 295.078231 374.169231 295.004715 374.479487 294.928778 374.789744 294.850391 375.100000 294.769528 375.410256 294.686162 375.720513 294.600265 376.030769 294.511812 376.341026 294.420773 376.651282 294.327124 376.961538 294.230836 377.271795 294.131883 377.582051 294.030238 377.892308 293.925873 378.202564 293.818761 378.512821 293.708876 378.823077 293.596191 379.133333 293.480678 379.443590 293.362310 379.753846 293.241061 380.064103 293.116903 380.374359 292.989809 380.684615 292.859752 380.994872 292.726706 381.305128 292.590643 381.615385 292.451536 381.925641 292.309359 382.235897 292.164083 382.546154 292.015683 382.856410 291.864130 383.166667 291.709399 383.476923 291.551462 383.787179 291.390291 384.097436 291.225861 384.407692 291.058143 384.717949 290.887112 385.028205 290.712739 385.338462 290.534998 385.648718 290.353862 385.958974 290.169303 386.269231 289.981296 386.579487 289.789812 386.889744 289.594824 387.200000 289.396307 387.510256 289.194231 387.820513 288.988572 388.130769 288.779301 388.441026 288.566391 388.751282 288.349816 389.061538 288.129549 389.371795 287.905562 389.682051 287.677828 389.992308 287.446321 390.302564 287.211013 390.612821 286.971877 390.923077 286.728887 391.233333 286.482014 391.543590 286.231233 391.853846 285.976517 392.164103 285.717837 392.474359 285.455167 392.784615 285.188481 393.094872 284.917750 393.405128 284.642949 393.715385 284.364050 394.025641 284.081025 394.335897 283.793849 394.646154 283.502493 394.956410 283.206932 395.266667 282.907137 395.576923 282.603082 395.887179 282.294740 396.197436 281.982083 396.507692 281.665085 396.817949 281.343719 397.128205 281.017958 397.438462 280.687774 397.748718 280.353141 398.058974 280.014031 398.369231 279.670418 398.679487 279.322275 398.989744 278.969574 399.300000 278.612288 399.610256 278.250391 399.920513 277.883855 400.230769 277.512654 400.541026 277.136760 400.851282 276.756146 401.161538 276.370785 401.471795 275.980651 401.782051 275.585716 402.092308 275.185964 402.402564 274.781422 402.712821 274.372127 403.023077 273.958118 403.333333 273.539433 403.643590 273.116108 403.953846 272.688182 404.264103 272.255693 404.574359 271.818678 404.884615 271.377175 405.194872 270.931222 405.505128 270.480857 405.815385 270.026117 406.125641 269.567040 406.435897 269.103664 406.746154 268.636027 407.056410 268.164166 407.366667 267.688120 407.676923 267.207925 407.987179 266.723621 408.297436 266.235244 408.607692 265.742832 408.917949 265.246423 409.228205 264.746055 409.538462 264.241766 409.848718 263.733593 410.158974 263.221575 410.469231 262.705748 410.779487 262.186151 411.089744 261.662822 411.400000 261.135797 411.710256 260.605116 412.020513 260.070816 412.330769 259.532934 412.641026 258.991508 412.951282 258.446577 413.261538 257.898177 413.571795 257.346347 413.882051 256.791124 414.192308 256.232547 414.502564 255.670652 414.812821 255.105478 415.123077 254.537063 415.433333 253.965444 415.743590 253.390659 416.053846 252.812745 416.364103 252.231741 416.674359 251.647685 416.984615 251.060613 417.294872 250.470565 417.605128 249.877577 417.915385 249.281687 418.225641 248.682934 418.535897 248.081354 418.846154 247.476986 419.156410 246.869868 419.466667 246.260037 419.776923 245.647531 420.087179 245.032387 420.397436 244.414644 420.707692 243.794340 421.017949 243.171511 421.328205 242.546197 421.638462 241.918434 421.948718 241.288260 422.258974 240.655713 422.569231 240.020832 422.879487 239.383653 423.189744 238.744214 423.500000 238.102554 423.810256 237.458710 424.120513 236.812720 424.430769 236.164621 424.741026 235.514451 425.051282 234.862248 425.361538 234.208051 425.671795 233.551896 425.982051 232.893821 426.292308 232.233864 426.602564 231.572063 426.912821 230.908456 427.223077 230.243081 427.533333 229.575974 427.843590 228.907175 428.153846 228.236720 428.464103 227.564648 428.774359 226.890996 429.084615 226.215803 429.394872 225.539105 429.705128 224.860940 430.015385 224.181347 430.325641 223.500364 430.635897 222.818027 430.946154 222.134374 431.256410 221.449445 431.566667 220.763275 431.876923 220.075903 432.187179 219.387368 432.497436 218.697705 432.807692 218.006954 433.117949 217.315152 433.428205 216.622337 433.738462 215.928546 434.048718 215.233818 434.358974 214.538190 434.669231 213.841700 434.979487 213.144385 435.289744 212.446284 435.600000 211.747434 435.910256 211.047873 436.220513 210.347639 436.530769 209.646769 436.841026 208.945302 437.151282 208.243275 437.461538 207.540725 437.771795 206.837691 438.082051 206.134211 438.392308 205.430321 438.702564 204.726060 439.012821 204.021467 439.323077 203.316577 439.633333 202.611430 439.943590 201.906062 440.253846 201.200513 440.564103 200.494819 440.874359 199.789018 441.184615 199.083148 441.494872 198.377247 441.805128 197.671353 442.115385 196.965503 442.425641 196.259735 442.735897 195.554087 443.046154 194.848596 443.356410 194.143301 443.666667 193.438240 443.976923 192.733449 444.287179 192.028967 444.597436 191.324831 444.907692 190.621080 445.217949 189.917751 445.528205 189.214881 445.838462 188.512509 446.148718 187.810673 446.458974 187.109409 446.769231 186.408757 447.079487 185.708753 447.389744 185.009435 447.700000 184.310842 448.010256 183.613011 448.320513 182.915979 448.630769 182.219785 448.941026 181.524466 449.251282 180.830060 449.561538 180.136605 449.871795 179.444139 450.182051 178.752698 450.492308 178.062322 450.802564 177.373048 451.112821 176.684914 451.423077 175.997957 451.733333 175.312215 452.043590 174.627726 452.353846 173.944527 452.664103 173.262657 452.974359 172.582154 453.284615 171.903054 453.594872 171.225397 453.905128 170.549219 454.215385 169.874558 454.525641 169.201452 454.835897 168.529939 455.146154 167.860057 455.456410 167.191843 455.766667 166.525335 456.076923 165.860572 456.387179 165.197590 456.697436 164.536427 457.007692 163.877122 457.317949 163.219712 457.628205 162.564234 457.938462 161.910727 458.248718 161.259229 458.558974 160.609776 458.869231 159.962407 459.179487 159.317160 459.489744 158.674073 459.800000 158.033182 460.110256 157.394527 460.420513 156.758144 460.730769 156.124072 461.041026 155.492348 461.351282 154.863010 461.661538 154.236095 461.971795 153.611643 462.282051 152.989689 462.592308 152.370273 462.902564 151.753431 463.212821 151.139202 463.523077 150.527624 463.833333 149.918734 464.143590 149.312569 464.453846 148.709169 464.764103 148.108569 465.074359 147.510809 465.384615 146.915926 465.694872 146.323958 466.005128 145.734942 466.315385 145.148917 466.625641 144.565920 466.935897 143.985988 467.246154 143.409161 467.556410 142.835474 467.866667 142.264967 468.176923 141.697677 468.487179 141.133641 468.797436 140.572898 469.107692 140.015485 469.417949 139.461440 469.728205 138.910801 470.038462 138.363605 470.348718 137.819891 470.658974 137.279695 470.969231 136.743057 471.279487 136.210013 471.589744 135.680602 471.900000 135.154860 472.210256 134.632827 472.520513 134.114539 472.830769 133.600035 473.141026 133.089352 473.451282 132.582528 473.761538 132.079601 474.071795 131.580608 474.382051 131.085587 474.692308 130.594577 475.002564 130.107615 475.312821 129.624738 475.623077 129.145984 475.933333 128.671392 476.243590 128.200998 476.553846 127.734841 476.864103 127.272959 477.174359 126.815389 477.484615 126.362169 477.794872 125.913336 478.105128 125.468929 478.415385 125.028986 478.725641 124.593543 479.035897 124.162640 479.346154 123.736312 479.656410 123.314589 479.966667 122.897454 480.276923 122.484880 480.587179 122.076842 480.897436 121.673313 481.207692 121.274267 481.517949 120.879677 481.828205 120.489518 482.138462 120.103762 482.448718 119.722384 482.758974 119.345358 483.069231 118.972656 483.379487 118.604254 483.689744 118.240123 484.000000 117.880239 484.310256 117.524574 484.620513 117.173103 484.930769 116.825800 485.241026 116.482637 485.551282 116.143588 485.861538 115.808628 486.171795 115.477730 486.482051 115.150868 486.792308 114.828014 487.102564 114.509144 487.412821 114.194231 487.723077 113.883248 488.033333 113.576169 488.343590 113.272968 488.653846 112.973619 488.964103 112.678095 489.274359 112.386370 489.584615 112.098417 489.894872 111.814211 490.205128 111.533724 490.515385 111.256932 490.825641 110.983806 491.135897 110.714322 491.446154 110.448453 491.756410 110.186172 492.066667 109.927453 492.376923 109.672270 492.687179 109.420597 492.997436 109.172407 493.307692 108.927673 493.617949 108.686371 493.928205 108.448473 494.238462 108.213953 494.548718 107.982784 494.858974 107.754941 495.169231 107.530398 495.479487 107.309127 495.789744 107.091102 496.100000 106.876298 496.410256 106.664687 496.720513 106.456245 497.030769 106.250943 497.341026 106.048757 497.651282 105.849659 497.961538 105.653623 498.271795 105.460624 498.582051 105.270634 498.892308 105.083628 499.202564 104.899579 499.512821 104.718461 499.823077 104.540247 500.133333 104.364912 500.443590 104.192429 500.753846 104.022771 501.064103 103.855912 501.374359 103.691827 501.684615 103.530488 501.994872 103.371870 502.305128 103.215946 502.615385 103.062689 502.925641 102.912074 503.235897 102.764075 503.546154 102.618664 503.856410 102.475816 504.166667 102.335504 504.476923 102.197702 504.787179 102.062383 505.097436 101.929522 505.407692 101.799092 505.717949 101.671067 506.028205 101.545421 506.338462 101.422126 506.648718 101.301157 506.958974 101.182488 507.269231 101.066092 507.579487 100.951943 507.889744 100.840015 508.200000 100.730281 508.510256 100.622715 508.820513 100.517290 509.130769 100.413981 509.441026 100.312761 509.751282 100.213604 510.061538 100.116484 510.371795 100.021373 510.682051 99.928247 510.992308 99.837078 511.302564 99.747840 511.612821 99.660507 511.923077 99.575053 512.233333 99.491451 512.543590 99.409675 512.853846 99.329699 513.164103 99.251497 513.474359 99.175042 513.784615 99.100307 514.094872 99.027267 514.405128 98.955895 514.715385 98.886165 515.025641 98.818051 515.335897 98.751526 515.646154 98.686564 515.956410 98.623138 516.266667 98.561223 516.576923 98.500793 516.887179 98.441819 517.197436 98.384278 517.507692 98.328141 517.817949 98.273384 518.128205 98.219979 518.438462 98.167900 518.748718 98.117121 519.058974 98.067616 519.369231 98.019358 519.679487 97.972321 519.989744 97.926479 520.300000 97.881805 520.610256 97.838274 520.920513 97.795858 521.230769 97.754532 521.541026 97.714269 521.851282 97.675043 522.161538 97.636827 522.471795 97.599596 522.782051 97.563322 523.092308 97.527981 523.402564 97.493545 523.712821 97.459987 524.023077 97.427283 524.333333 97.395405 524.643590 97.364327 524.953846 97.334023 525.264103 97.304467 525.574359 97.275632 525.884615 97.247491 526.194872 97.220020 526.505128 97.193191 526.815385 97.166977 527.125641 97.141354 527.435897 97.116294 527.746154 97.091770 528.056410 97.067758 528.366667 97.044230 528.676923 97.021161 528.987179 96.998523 529.297436 96.976291 529.607692 96.954438 529.917949 96.932938 530.228205 96.911765 530.538462 96.890892 530.848718 96.870294 531.158974 96.849943 531.469231 96.829813 531.779487 96.809879 532.089744 96.790113 532.400000 96.770490 532.710256 96.750983 533.020513 96.731566 533.330769 96.712213 533.641026 96.692897 533.951282 96.673592 534.261538 96.654271 534.571795 96.634910 534.882051 96.615480 535.192308 96.595956 535.502564 96.576311 535.812821 96.556520 536.123077 96.536555 536.433333 96.516391 536.743590 96.496002 537.053846 96.475360 537.364103 96.454440 537.674359 96.433215 537.984615 96.411659 538.294872 96.389746 538.605128 96.367450 538.915385 96.344744 539.225641 96.321601 539.535897 96.297996 539.846154 96.273902 540.156410 96.249293 540.466667 96.224143 540.776923 96.198425 541.087179 96.172113 541.397436 96.145180 541.707692 96.117601 542.017949 96.089349 542.328205 96.060398 542.638462 96.030722 542.948718 96.000293 543.258974 95.969087 543.569231 95.937075 543.879487 95.904234 544.189744 95.870535 544.500000 95.835952 544.810256 95.800460 545.120513 95.764033 545.430769 95.726642 545.741026 95.688264 546.051282 95.648870 546.361538 95.608435 546.671795 95.566933 546.982051 95.524337 547.292308 95.480620 547.602564 95.435758 547.912821 95.389722 548.223077 95.342488 548.533333 95.294028 548.843590 95.244317 549.153846 95.193328 549.464103 95.141034 549.774359 95.087410 550.084615 95.032429 550.394872 94.976065 550.705128 94.918291 551.015385 94.859082 551.325641 94.798411 551.635897 94.736251 551.946154 94.672576 552.256410 94.607361 552.566667 94.540578 552.876923 94.472202 553.187179 94.402206 553.497436 94.330563 553.807692 94.257248 554.117949 94.182235 554.428205 94.105496 554.738462 94.027005 555.048718 93.946737 555.358974 93.864665 555.669231 93.780763 555.979487 93.695004 556.289744 93.607362 556.600000 93.517811 556.910256 93.426324 557.220513 93.332882 557.530769 93.237490 557.841026 93.140160 558.151282 93.040904 558.461538 92.939734 558.771795 92.836663 559.082051 92.731703 559.392308 92.624864 559.702564 92.516160 560.012821 92.405602 560.323077 92.293203 560.633333 92.178974 560.943590 92.062928 561.253846 91.945076 561.564103 91.825431 561.874359 91.704005 562.184615 91.580809 562.494872 91.455856 562.805128 91.329157 563.115385 91.200725 563.425641 91.070572 563.735897 90.938710 564.046154 90.805151 564.356410 90.669906 564.666667 90.532989 564.976923 90.394410 565.287179 90.254182 565.597436 90.112317 565.907692 89.968827 566.217949 89.823724 566.528205 89.677021 566.838462 89.528728 567.148718 89.378859 567.458974 89.227424 567.769231 89.074437 568.079487 88.919909 568.389744 88.763853 568.700000 88.606279 569.010256 88.447201 569.320513 88.286630 569.630769 88.124579 569.941026 87.961059 570.251282 87.796083 570.561538 87.629662 570.871795 87.461808 571.182051 87.292534 571.492308 87.121852 571.802564 86.949773 572.112821 86.776310 572.423077 86.601475 572.733333 86.425279 573.043590 86.247735 573.353846 86.068855 573.664103 85.888650 573.974359 85.707133 574.284615 85.524317 574.594872 85.340212 574.905128 85.154831 575.215385 84.968185 575.525641 84.780288 575.835897 84.591151 576.146154 84.400786 576.456410 84.209205 576.766667 84.016420 577.076923 83.822443 577.387179 83.627287 577.697436 83.430962 578.007692 83.233482 578.317949 83.034858 578.628205 82.835102 578.938462 82.634227 579.248718 82.432244 579.558974 82.229165 579.869231 82.025003 580.179487 81.819769 580.489744 81.613476 580.800000 81.406135 581.110256 81.197759 581.420513 80.988359 581.730769 80.777948 582.041026 80.566538 582.351282 80.354140 582.661538 80.140767 582.971795 79.926431 583.282051 79.711143 583.592308 79.494916 583.902564 79.277762 584.212821 79.059693 584.523077 78.840720 584.833333 78.620857 585.143590 78.400115 585.453846 78.178505 585.764103 77.956041 586.074359 77.732733 586.384615 77.508595 586.694872 77.283637 587.005128 77.057873 587.315385 76.831314 587.625641 76.603972 587.935897 76.375860 588.246154 76.146988 588.556410 75.917370 588.866667 75.687018 589.176923 75.455942 589.487179 75.224156 589.797436 74.991671 590.107692 74.758500 590.417949 74.524655 590.728205 74.290146 591.038462 74.054988 591.348718 73.819191 591.658974 73.582767 591.969231 73.345729 592.279487 73.108089 592.589744 72.869858 592.900000 72.631049 593.210256 72.391674 593.520513 72.151745 593.830769 71.911274 594.141026 71.670272 594.451282 71.428752 594.761538 71.186726 595.071795 70.944206 595.382051 70.701204 595.692308 70.457732 596.002564 70.213803 596.312821 69.969427 596.623077 69.724617 596.933333 69.479385 597.243590 69.233744 597.553846 68.987704 597.864103 68.741279 598.174359 68.494481 598.484615 68.247320 598.794872 67.999810 599.105128 67.751962 599.415385 67.503788 599.725641 67.255301 600.035897 67.006512 600.346154 66.757434 600.656410 66.508079 600.966667 66.258457 601.276923 66.008583 601.587179 65.758467 601.897436 65.508121 602.207692 65.257558 602.517949 65.006790 602.828205 64.755829 603.138462 64.504686 603.448718 64.253375 603.758974 64.001906 604.069231 63.750291 604.379487 63.498544 604.689744 63.246676 605.000000 62.994698 605.310256 62.742624 605.620513 62.490464 605.930769 62.238232 606.241026 61.985938 606.551282 61.733596 606.861538 61.481217 607.171795 61.228813 607.482051 60.976396 607.792308 60.723978 608.102564 60.471572 608.412821 60.219189 608.723077 59.966841 609.033333 59.714540 609.343590 59.462299 609.653846 59.210129 609.964103 58.958043 610.274359 58.706052 610.584615 58.454169 610.894872 58.202405 611.205128 57.950773 611.515385 57.699284 611.825641 57.447951 612.135897 57.196786 612.446154 56.945800 612.756410 56.695006 613.066667 56.444416 613.376923 56.194042 613.687179 55.943895 613.997436 55.693988 614.307692 55.444333 614.617949 55.194942 614.928205 54.945827 615.238462 54.697000 615.548718 54.448473 615.858974 54.200258 616.169231 53.952367 616.479487 53.704812 616.789744 53.457605 617.100000 53.210758 617.410256 52.964284 617.720513 52.718193 618.030769 52.472499 618.341026 52.227213 618.651282 51.982348 618.961538 51.737915 619.271795 51.493926 619.582051 51.250394 619.892308 51.007330 620.202564 50.764746 620.512821 50.522655 620.823077 50.281069 621.133333 50.039999 621.443590 49.799458 621.753846 49.559457 622.064103 49.320009 622.374359 49.081125 622.684615 48.842819 622.994872 48.605101 623.305128 48.367984 623.615385 48.131479 623.925641 47.895600 624.235897 47.660357 624.546154 47.425763 624.856410 47.191831 625.166667 46.958571 625.476923 46.725996 625.787179 46.494118 626.097436 46.262949 626.407692 46.032501 626.717949 45.802787 627.028205 45.573817 627.338462 45.345605 627.648718 45.118162 627.958974 44.891500 628.269231 44.665632 628.579487 44.440568 628.889744 44.216323 629.200000 43.992906 629.510256 43.770331 629.820513 43.548609 630.130769 43.327753 630.441026 43.107774 630.751282 42.888685 631.061538 42.670497 631.371795 42.453223 631.682051 42.236875 631.992308 42.021464 632.302564 41.807003 632.612821 41.593503 632.923077 41.380977 633.233333 41.169438 633.543590 40.958895 633.853846 40.749363 634.164103 40.540853 634.474359 40.333376 634.784615 40.126943 635.094872 39.921551 635.405128 39.717197 635.715385 39.513876 636.025641 39.311585 636.335897 39.110319 636.646154 38.910073 636.956410 38.710844 637.266667 38.512627 637.576923 38.315419 637.887179 38.119215 638.197436 37.924011 638.507692 37.729802 638.817949 37.536585 639.128205 37.344356 639.438462 37.153109 639.748718 36.962842 640.058974 36.773549 640.369231 36.585227 640.679487 36.397871 640.989744 36.211478 641.300000 36.026043 641.610256 35.841561 641.920513 35.658029 642.230769 35.475443 642.541026 35.293798 642.851282 35.113091 643.161538 34.933316 643.471795 34.754470 643.782051 34.576549 644.092308 34.399548 644.402564 34.223463 644.712821 34.048290 645.023077 33.874025 645.333333 33.700664 645.643590 33.528203 645.953846 33.356636 646.264103 33.185961 646.574359 33.016173 646.884615 32.847267 647.194872 32.679240 647.505128 32.512088 647.815385 32.345806 648.125641 32.180389 648.435897 32.015835 648.746154 31.852138 649.056410 31.689295 649.366667 31.527301 649.676923 31.366152 649.987179 31.205844 650.297436 31.046373 650.607692 30.887734 650.917949 30.729924 651.228205 30.572938 651.538462 30.416772 651.848718 30.261421 652.158974 30.106883 652.469231 29.953152 652.779487 29.800224 653.089744 29.648095 653.400000 29.496761 653.710256 29.346218 654.020513 29.196461 654.330769 29.047487 654.641026 28.899291 654.951282 28.751868 655.261538 28.605216 655.571795 28.459329 655.882051 28.314204 656.192308 28.169836 656.502564 28.026221 656.812821 27.883355 657.123077 27.741234 657.433333 27.599853 657.743590 27.459208 658.053846 27.319296 658.364103 27.180111 658.674359 27.041651 658.984615 26.903910 659.294872 26.766884 659.605128 26.630570 659.915385 26.494962 660.225641 26.360058 660.535897 26.225852 660.846154 26.092341 661.156410 25.959520 661.466667 25.827385 661.776923 25.695932 662.087179 25.565157 662.397436 25.435055 662.707692 25.305623 663.017949 25.176856 663.328205 25.048750 663.638462 24.921301 663.948718 24.794504 664.258974 24.668356 664.569231 24.542852 664.879487 24.417989 665.189744 24.293761 665.500000 24.170165 665.810256 24.047197 666.120513 23.924852 666.430769 23.803126 666.741026 23.682015 667.051282 23.561515 667.361538 23.441622 667.671795 23.322331 667.982051 23.203638 668.292308 23.085540 668.602564 22.968031 668.912821 22.851108 669.223077 22.734767 669.533333 22.619003 669.843590 22.503812 670.153846 22.389190 670.464103 22.275133 670.774359 22.161636 671.084615 22.048696 671.394872 21.936309 671.705128 21.824469 672.015385 21.713173 672.325641 21.602417 672.635897 21.492196 672.946154 21.382507 673.256410 21.273345 673.566667 21.164706 673.876923 21.056585 674.187179 20.948979 674.497436 20.841884 674.807692 20.735295 675.117949 20.629208 675.428205 20.523618 675.738462 20.418523 676.048718 20.313917 676.358974 20.209796 676.669231 20.106156 676.979487 20.002994 677.289744 19.900304 677.600000 19.798082 677.910256 19.696325 678.220513 19.595028 678.530769 19.494188 678.841026 19.393799 679.151282 19.293858 679.461538 19.194360 679.771795 19.095301 680.082051 18.996678 680.392308 18.898485 680.702564 18.800720 681.012821 18.703376 681.323077 18.606452 681.633333 18.509941 681.943590 18.413840 682.253846 18.318146 682.564103 18.222852 682.874359 18.127957 683.184615 18.033454 683.494872 17.939341 683.805128 17.845612 684.115385 17.752265 684.425641 17.659294 684.735897 17.566695 685.046154 17.474464 685.356410 17.382597 685.666667 17.291090 685.976923 17.199939 686.287179 17.109139 686.597436 17.018687 686.907692 16.928577 687.217949 16.838806 687.528205 16.749370 687.838462 16.660265 688.148718 16.571486 688.458974 16.483029 688.769231 16.394890 689.079487 16.307064 689.389744 16.219549 689.700000 16.132339 690.010256 16.045430 690.320513 15.958818 690.630769 15.872498 690.941026 15.786468 691.251282 15.700722 691.561538 15.615256 691.871795 15.530067 692.182051 15.445149 692.492308 15.360500 692.802564 15.276113 693.112821 15.191986 693.423077 15.108115 693.733333 15.024494 694.043590 14.941120 694.353846 14.857989 694.664103 14.775097 694.974359 14.692438 695.284615 14.610010 695.594872 14.527808 695.905128 14.445827 696.215385 14.364064 696.525641 14.282514 696.835897 14.201174 697.146154 14.120038 697.456410 14.039104 697.766667 13.958366 698.076923 13.877820 698.387179 13.797463 698.697436 13.717289 699.007692 13.637296 699.317949 13.557478 699.628205 13.477832 699.938462 13.398353 700.248718 13.319038 700.558974 13.239881 700.869231 13.160879 701.179487 13.082028 701.489744 13.003324 701.800000 12.924761 702.110256 12.846337 702.420513 12.768046 702.730769 12.689885 703.041026 12.611850 703.351282 12.533936 703.661538 12.456139 703.971795 12.378455 704.282051 12.300880 704.592308 12.223409 704.902564 12.146039 705.212821 12.068765 705.523077 11.991583 705.833333 11.914489 706.143590 11.837479 706.453846 11.760548 706.764103 11.683692 707.074359 11.606908 707.384615 11.530190 707.694872 11.453535 708.005128 11.376939 708.315385 11.300397 708.625641 11.223906 708.935897 11.147460 709.246154 11.071057 709.556410 10.994691 709.866667 10.918358 710.176923 10.842055 710.487179 10.765776 710.797436 10.689519 711.107692 10.613279 711.417949 10.537050 711.728205 10.460831 712.038462 10.384615 712.038462 540.000000" /></g></g><g class="titles" /><g class="plot overlay" transform="translate(54, 20)"><g class="series serie-0 color-0"><g class="dots"><circle class="dot reactive tooltip-trigger" cx="13.96153846153846" cy="529.6153846153845" r="2.5" /><desc class="value">557,186,295(kWh)</desc><desc class="x top">13.96153846153846</desc><desc class="y top">529.6153846153845</desc><desc class="x_label">2549</desc></g><g class="dots"><circle class="dot reactive tooltip-trigger" cx="91.52564102564101" cy="427.0290239564241" r="2.5" /><desc class="value">635,838,587(kWh)</desc><desc class="x top">91.52564102564101</desc><desc class="y top">427.0290239564241</desc><desc class="x_label">2550</desc></g><g class="dots"><circle class="dot reactive tooltip-trigger" cx="169.08974358974356" cy="404.0720197897439" r="2.5" /><desc class="value">653,439,572(kWh)</desc><desc class="x top">169.08974358974356</desc><desc class="y top">404.0720197897439</desc><desc class="x_label">2551</desc></g><g class="dots"><circle class="dot reactive tooltip-trigger" cx="246.65384615384613" cy="344.57549312651383" r="2.5" /><desc class="value">699,055,170(kWh)</desc><desc class="x top">246.65384615384613</desc><desc class="y top">344.57549312651383</desc><desc class="x_label">2552</desc></g><g class="dots"><circle class="dot reactive tooltip-trigger" cx="324.21794871794873" cy="294.44398306583014" r="2.5" /><desc class="value">737,490,671(kWh)</desc><desc class="x top">324.21794871794873</desc><desc class="y top">294.44398306583014</desc><desc class="x_label">2553</desc></g><g class="dots"><circle class="dot reactive tooltip-trigger" cx="401.78205128205127" cy="275.5857160816819" r="2.5" /><desc class="value">751,949,181(kWh)</desc><desc class="x left top">401.78205128205127</desc><desc class="y left top">275.5857160816819</desc><desc class="x_label">2554</desc></g><g class="dots"><circle class="dot reactive tooltip-trigger" cx="479.3461538461538" cy="123.73631240012537" r="2.5" /><desc class="value">868,371,126(kWh)</desc><desc class="x left">479.3461538461538</desc><desc class="y left">123.73631240012537</desc><desc class="x_label">2555</desc></g><g class="dots"><circle class="dot reactive tooltip-trigger" cx="556.9102564102565" cy="93.4263239183856" r="2.5" /><desc class="value">891,609,596(kWh)</desc><desc class="x left">556.9102564102565</desc><desc class="y left">93.4263239183856</desc><desc class="x_label">2556</desc></g><g class="dots"><circle class="dot reactive tooltip-trigger" cx="634.474358974359" cy="40.33337605660665" r="2.5" /><desc class="value">932,315,612(kWh)</desc><desc class="x left">634.474358974359</desc><desc class="y left">40.33337605660665</desc><desc class="x_label">2557</desc></g><g class="dots"><circle class="dot reactive tooltip-trigger" cx="712.0384615384615" cy="10.384615384615358" r="2.5" /><desc class="value">955,277,131(kWh)</desc><desc class="x left">712.0384615384615</desc><desc class="y left">10.384615384615358</desc><desc class="x_label">2558</desc></g></g></g><g class="plot text-overlay" transform="translate(54, 20)"><g class="series serie-0 color-0" /></g><g class="plot tooltip-overlay" transform="translate(54, 20)"><g class="tooltip" style="opacity: 0" transform="translate(0 0)"><rect class="tooltip-box" height="0" rx="0" ry="0" width="0" /><g class="text" /></g></g></g></svg>