<?xml version='1.0' encoding='utf-8'?>
<svg xmlns:xlink="http://www.w3.org/1999/xlink" class="pygal-chart" id="chart-8ae742a7-9274-48b7-92ff-dac6d36930dd" viewBox="0 0 800 600" xmlns="http://www.w3.org/2000/svg"><!--Generated with pygal 2.3.0 (etree) ©Kozea 2012-2016 on 2016-12-08--><!--http://pygal.org--><!--http://github.com/Kozea/pygal--><defs><style type="text/css">#chart-8ae742a7-9274-48b7-92ff-dac6d36930dd{-webkit-user-select:none;-webkit-font-smoothing:antialiased;font-family:Consolas,"Liberation Mono",Menlo,Courier,monospace}#chart-8ae742a7-9274-48b7-92ff-dac6d36930dd .title{font-family:Consolas,"Liberation Mono",Menlo,Courier,monospace;font-size:16px}#chart-8ae742a7-9274-48b7-92ff-dac6d36930dd .legends .legend text{font-family:Consolas,"Liberation Mono",Menlo,Courier,monospace;font-size:14px}#chart-8ae742a7-9274-48b7-92ff-dac6d36930dd .axis text{font-family:Consolas,"Liberation Mono",Menlo,Courier,monospace;font-size:10px}#chart-8ae742a7-9274-48b7-92ff-dac6d36930dd .axis text.major{font-family:Consolas,"Liberation Mono",Menlo,Courier,monospace;font-size:10px}#chart-8ae742a7-9274-48b7-92ff-dac6d36930dd .text-overlay text.value{font-family:Consolas,"Liberation Mono",Menlo,Courier,monospace;font-size:16px}#chart-8ae742a7-9274-48b7-92ff-dac6d36930dd .text-overlay text.label{font-family:Consolas,"Liberation Mono",Menlo,Courier,monospace;font-size:10px}#chart-8ae742a7-9274-48b7-92ff-dac6d36930dd .tooltip{font-family:Consolas,"Liberation Mono",Menlo,Courier,monospace;font-size:14px}#chart-8ae742a7-9274-48b7-92ff-dac6d36930dd text.no_data{font-family:Consolas,"Liberation Mono",Menlo,Courier,monospace;font-size:64px}
#chart-8ae742a7-9274-48b7-92ff-dac6d36930dd{background-color:rgba(249,249,249,1)}#chart-8ae742a7-9274-48b7-92ff-dac6d36930dd path,#chart-8ae742a7-9274-48b7-92ff-dac6d36930dd line,#chart-8ae742a7-9274-48b7-92ff-dac6d36930dd rect,#chart-8ae742a7-9274-48b7-92ff-dac6d36930dd circle{-webkit-transition:150ms;-moz-transition:150ms;transition:150ms}#chart-8ae742a7-9274-48b7-92ff-dac6d36930dd .graph &gt; .background{fill:rgba(249,249,249,1)}#chart-8ae742a7-9274-48b7-92ff-dac6d36930dd .plot &gt; .background{fill:rgba(255,255,255,1)}#chart-8ae742a7-9274-48b7-92ff-dac6d36930dd .graph{fill:rgba(0,0,0,.87)}#chart-8ae742a7-9274-48b7-92ff-dac6d36930dd text.no_data{fill:rgba(0,0,0,1)}#chart-8ae742a7-9274-48b7-92ff-dac6d36930dd .title{fill:rgba(0,0,0,1)}#chart-8ae742a7-9274-48b7-92ff-dac6d36930dd .legends .legend text{fill:rgba(0,0,0,.87)}#chart-8ae742a7-9274-48b7-92ff-dac6d36930dd .legends .legend:hover text{fill:rgba(0,0,0,1)}#chart-8ae742a7-9274-48b7-92ff-dac6d36930dd .axis .line{stroke:rgba(0,0,0,1)}#chart-8ae742a7-9274-48b7-92ff-dac6d36930dd .axis .guide.line{stroke:rgba(0,0,0,.54)}#chart-8ae742a7-9274-48b7-92ff-dac6d36930dd .axis .major.line{stroke:rgba(0,0,0,.87)}#chart-8ae742a7-9274-48b7-92ff-dac6d36930dd .axis text.major{fill:rgba(0,0,0,1)}#chart-8ae742a7-9274-48b7-92ff-dac6d36930dd .axis.y .guides:hover .guide.line,#chart-8ae742a7-9274-48b7-92ff-dac6d36930dd .line-graph .axis.x .guides:hover .guide.line,#chart-8ae742a7-9274-48b7-92ff-dac6d36930dd .stackedline-graph .axis.x .guides:hover .guide.line,#chart-8ae742a7-9274-48b7-92ff-dac6d36930dd .xy-graph .axis.x .guides:hover .guide.line{stroke:rgba(0,0,0,1)}#chart-8ae742a7-9274-48b7-92ff-dac6d36930dd .axis .guides:hover text{fill:rgba(0,0,0,1)}#chart-8ae742a7-9274-48b7-92ff-dac6d36930dd .reactive{fill-opacity:.7;stroke-opacity:.8}#chart-8ae742a7-9274-48b7-92ff-dac6d36930dd .ci{stroke:rgba(0,0,0,.87)}#chart-8ae742a7-9274-48b7-92ff-dac6d36930dd .reactive.active,#chart-8ae742a7-9274-48b7-92ff-dac6d36930dd .active .reactive{fill-opacity:.8;stroke-opacity:.9;stroke-width:4}#chart-8ae742a7-9274-48b7-92ff-dac6d36930dd .ci .reactive.active{stroke-width:1.5}#chart-8ae742a7-9274-48b7-92ff-dac6d36930dd .series text{fill:rgba(0,0,0,1)}#chart-8ae742a7-9274-48b7-92ff-dac6d36930dd .tooltip rect{fill:rgba(255,255,255,1);stroke:rgba(0,0,0,1);-webkit-transition:opacity 150ms;-moz-transition:opacity 150ms;transition:opacity 150ms}#chart-8ae742a7-9274-48b7-92ff-dac6d36930dd .tooltip .label{fill:rgba(0,0,0,.87)}#chart-8ae742a7-9274-48b7-92ff-dac6d36930dd .tooltip .label{fill:rgba(0,0,0,.87)}#chart-8ae742a7-9274-48b7-92ff-dac6d36930dd .tooltip .legend{font-size:.8em;fill:rgba(0,0,0,.54)}#chart-8ae742a7-9274-48b7-92ff-dac6d36930dd .tooltip .x_label{font-size:.6em;fill:rgba(0,0,0,1)}#chart-8ae742a7-9274-48b7-92ff-dac6d36930dd .tooltip .xlink{font-size:.5em;text-decoration:underline}#chart-8ae742a7-9274-48b7-92ff-dac6d36930dd .tooltip .value{font-size:1.5em}#chart-8ae742a7-9274-48b7-92ff-dac6d36930dd .bound{font-size:.5em}#chart-8ae742a7-9274-48b7-92ff-dac6d36930dd .max-value{font-size:.75em;fill:rgba(0,0,0,.54)}#chart-8ae742a7-9274-48b7-92ff-dac6d36930dd .map-element{fill:rgba(255,255,255,1);stroke:rgba(0,0,0,.54) !important}#chart-8ae742a7-9274-48b7-92ff-dac6d36930dd .map-element .reactive{fill-opacity:inherit;stroke-opacity:inherit}#chart-8ae742a7-9274-48b7-92ff-dac6d36930dd .color-0,#chart-8ae742a7-9274-48b7-92ff-dac6d36930dd .color-0 a:visited{stroke:#e86fa0;fill:#e86fa0}#chart-8ae742a7-9274-48b7-92ff-dac6d36930dd .text-overlay .color-0 text{fill:black}
#chart-8ae742a7-9274-48b7-92ff-dac6d36930dd text.no_data{text-anchor:middle}#chart-8ae742a7-9274-48b7-92ff-dac6d36930dd .guide.line{fill:none}#chart-8ae742a7-9274-48b7-92ff-dac6d36930dd .centered{text-anchor:middle}#chart-8ae742a7-9274-48b7-92ff-dac6d36930dd .title{text-anchor:middle}#chart-8ae742a7-9274-48b7-92ff-dac6d36930dd .legends .legend text{fill-opacity:1}#chart-8ae742a7-9274-48b7-92ff-dac6d36930dd .axis.x text{text-anchor:middle}#chart-8ae742a7-9274-48b7-92ff-dac6d36930dd .axis.x:not(.web) text[transform]{text-anchor:start}#chart-8ae742a7-9274-48b7-92ff-dac6d36930dd .axis.x:not(.web) text[transform].backwards{text-anchor:end}#chart-8ae742a7-9274-48b7-92ff-dac6d36930dd .axis.y text{text-anchor:end}#chart-8ae742a7-9274-48b7-92ff-dac6d36930dd .axis.y text[transform].backwards{text-anchor:start}#chart-8ae742a7-9274-48b7-92ff-dac6d36930dd .axis.y2 text{text-anchor:start}#chart-8ae742a7-9274-48b7-92ff-dac6d36930dd .axis.y2 text[transform].backwards{text-anchor:end}#chart-8ae742a7-9274-48b7-92ff-dac6d36930dd .axis .guide.line{stroke-dasharray:4,4}#chart-8ae742a7-9274-48b7-92ff-dac6d36930dd .axis .major.guide.line{stroke-dasharray:6,6}#chart-8ae742a7-9274-48b7-92ff-dac6d36930dd .horizontal .axis.y .guide.line,#chart-8ae742a7-9274-48b7-92ff-dac6d36930dd .horizontal .axis.y2 .guide.line,#chart-8ae742a7-9274-48b7-92ff-dac6d36930dd .vertical .axis.x .guide.line{opacity:0}#chart-8ae742a7-9274-48b7-92ff-dac6d36930dd .horizontal .axis.always_show .guide.line,#chart-8ae742a7-9274-48b7-92ff-dac6d36930dd .vertical .axis.always_show .guide.line{opacity:1 !important}#chart-8ae742a7-9274-48b7-92ff-dac6d36930dd .axis.y .guides:hover .guide.line,#chart-8ae742a7-9274-48b7-92ff-dac6d36930dd .axis.y2 .guides:hover .guide.line,#chart-8ae742a7-9274-48b7-92ff-dac6d36930dd .axis.x .guides:hover .guide.line{opacity:1}#chart-8ae742a7-9274-48b7-92ff-dac6d36930dd .axis .guides:hover text{opacity:1}#chart-8ae742a7-9274-48b7-92ff-dac6d36930dd .nofill{fill:none}#chart-8ae742a7-9274-48b7-92ff-dac6d36930dd .subtle-fill{fill-opacity:.2}#chart-8ae742a7-9274-48b7-92ff-dac6d36930dd .dot{stroke-width:1px;fill-opacity:1}#chart-8ae742a7-9274-48b7-92ff-dac6d36930dd .dot.active{stroke-width:5px}#chart-8ae742a7-9274-48b7-92ff-dac6d36930dd .dot.negative{fill:transparent}#chart-8ae742a7-9274-48b7-92ff-dac6d36930dd text,#chart-8ae742a7-9274-48b7-92ff-dac6d36930dd tspan{stroke:none !important}#chart-8ae742a7-9274-48b7-92ff-dac6d36930dd .series text.active{opacity:1}#chart-8ae742a7-9274-48b7-92ff-dac6d36930dd .tooltip rect{fill-opacity:.95;stroke-width:.5}#chart-8ae742a7-9274-48b7-92ff-dac6d36930dd .tooltip text{fill-opacity:1}#chart-8ae742a7-9274-48b7-92ff-dac6d36930dd .showable{visibility:hidden}#chart-8ae742a7-9274-48b7-92ff-dac6d36930dd .showable.shown{visibility:visible}#chart-8ae742a7-9274-48b7-92ff-dac6d36930dd .gauge-background{fill:rgba(229,229,229,1);stroke:none}#chart-8ae742a7-9274-48b7-92ff-dac6d36930dd .bg-lines{stroke:rgba(249,249,249,1);stroke-width:2px}</style><script type="text/javascript">window.pygal = window.pygal || {};window.pygal.config = window.pygal.config || {};window.pygal.config['8ae742a7-9274-48b7-92ff-dac6d36930dd'] = {"no_data_text": "No data", "no_prefix": false, "xrange": null, "print_values_position": "center", "truncate_label": null, "x_labels": ["2549", "2550", "2551", "2552", "2553", "2554", "2555", "2556", "2557", "2558"], "title": null, "force_uri_protocol": "https", "defs": [], "formatter": null, "classes": ["pygal-chart"], "y_labels": null, "rounded_bars": null, "explicit_size": false, "x_labels_major_every": null, "legend_at_bottom_columns": null, "stroke_style": null, "half_pie": false, "spacing": 10, "tooltip_fancy_mode": true, "inverse_y_axis": false, "width": 800, "inner_radius": 0, "interpolation_parameters": {}, "tooltip_border_radius": 0, "style": {"no_data_font_family": "Consolas, \"Liberation Mono\", Menlo, Courier, monospace", "tooltip_font_size": 14, "tooltip_font_family": "Consolas, \"Liberation Mono\", Menlo, Courier, monospace", "stroke_opacity_hover": ".9", "legend_font_family": "Consolas, \"Liberation Mono\", Menlo, Courier, monospace", "font_family": "Consolas, \"Liberation Mono\", Menlo, Courier, monospace", "title_font_family": "Consolas, \"Liberation Mono\", Menlo, Courier, monospace", "background": "rgba(249, 249, 249, 1)", "stroke_opacity": ".8", "foreground": "rgba(0, 0, 0, .87)", "value_background": "rgba(229, 229, 229, 1)", "guide_stroke_dasharray": "4,4", "foreground_subtle": "rgba(0, 0, 0, .54)", "opacity_hover": ".8", "value_font_family": "Consolas, \"Liberation Mono\", Menlo, Courier, monospace", "value_label_font_size": 10, "plot_background": "rgba(255, 255, 255, 1)", "ci_colors": [], "label_font_size": 10, "major_label_font_size": 10, "title_font_size": 16, "no_data_font_size": 64, "value_font_size": 16, "value_colors": [], "label_font_family": "Consolas, \"Liberation Mono\", Menlo, Courier, monospace", "major_guide_stroke_dasharray": "6,6", "transition": "150ms", "foreground_strong": "rgba(0, 0, 0, 1)", "colors": ["#e86fa0", "#e88f6f", "#e8df6f", "#a0e86f", "#6fe88f", "#6fe8df", "#6fa0e8", "#8f6fe8", "#df6fe8", "#e86fa0"], "opacity": ".7", "legend_font_size": 14, "value_label_font_family": "Consolas, \"Liberation Mono\", Menlo, Courier, monospace", "major_label_font_family": "Consolas, \"Liberation Mono\", Menlo, Courier, monospace"}, "x_labels_major_count": null, "interpolation_precision": 250, "missing_value_fill_truncation": "x", "stack_from_top": false, "truncate_legend": null, "show_minor_x_labels": true, "print_zeroes": true, "css": ["file://style.css", "file://graph.css"], "y_label_rotation": 0, "legend_at_bottom": false, "print_values": false, "margin_top": null, "max_scale": 16, "allow_interruptions": false, "show_x_labels": true, "strict": false, "show_x_guides": false, "stroke": true, "margin_left": null, "dynamic_print_values": false, "print_labels": false, "show_y_labels": true, "x_labels_major": null, "range": null, "x_label_rotation": 0, "margin": 20, "zero": 0, "include_x_axis": false, "height": 600, "show_minor_y_labels": true, "show_dots": true, "interpolate": "cubic", "show_y_guides": true, "y_labels_major": null, "box_mode": "extremes", "margin_bottom": null, "order_min": null, "legend_box_size": 12, "fill": true, "show_only_major_dots": false, "js": ["//kozea.github.io/pygal.js/2.0.x/pygal-tooltips.min.js"], "x_title": null, "y_labels_major_every": null, "y_labels_major_count": null, "disable_xml_declaration": false, "y_title": null, "logarithmic": false, "pretty_print": false, "min_scale": 4, "dots_size": 2.5, "margin_right": null, "legends": [null], "secondary_range": null, "show_legend": false}</script><script type="text/javascript" xlink:href="https://kozea.github.io/pygal.js/2.0.x/pygal-tooltips.min.js" /></defs><title>Pygal</title><g class="graph stackedline-graph vertical"><rect class="background" height="600" width="800" x="0" y="0" /><g class="plot" transform="translate(60, 20)"><rect class="background" height="540" width="720.0" x="0" y="0" /><g class="axis y"><path class="line" d="M0.000000 540.000000 h720.000000" /><g class="guides"><path class="guide line" d="M0.000000 497.183726 h720.000000" /><text class="" x="-5" y="500.6837263073593">900M</text><title>900M</title></g><g class="guides"><path class="major guide line" d="M0.000000 425.905455 h720.000000" /><text class="major" x="-5" y="429.40545509260215">1000M</text><title>1000M</title></g><g class="guides"><path class="guide line" d="M0.000000 354.627184 h720.000000" /><text class="" x="-5" y="358.127183877845">1100M</text><title>1100M</title></g><g class="guides"><path class="guide line" d="M0.000000 283.348913 h720.000000" /><text class="" x="-5" y="286.84891266308784">1200M</text><title>1200M</title></g><g class="guides"><path class="guide line" d="M0.000000 212.070641 h720.000000" /><text class="" x="-5" y="215.57064144833072">1300M</text><title>1300M</title></g><g class="guides"><path class="guide line" d="M0.000000 140.792370 h720.000000" /><text class="" x="-5" y="144.2923702335736">1400M</text><title>1400M</title></g><g class="guides"><path class="major guide line" d="M0.000000 69.514099 h720.000000" /><text class="major" x="-5" y="73.01409901881641">1500M</text><title>1500M</title></g></g><g class="axis x"><g class="guides"><path class="line" d="M13.846154 0.000000 v540.000000" /><text class="" x="13.846153846153847" y="555.0">2549</text></g><g class="guides"><path class="guide line" d="M90.769231 0.000000 v540.000000" /><text class="" x="90.76923076923076" y="555.0">2550</text></g><g class="guides"><path class="guide line" d="M167.692308 0.000000 v540.000000" /><text class="" x="167.69230769230765" y="555.0">2551</text></g><g class="guides"><path class="guide line" d="M244.615385 0.000000 v540.000000" /><text class="" x="244.6153846153846" y="555.0">2552</text></g><g class="guides"><path class="guide line" d="M321.538462 0.000000 v540.000000" /><text class="" x="321.5384615384615" y="555.0">2553</text></g><g class="guides"><path class="guide line" d="M398.461538 0.000000 v540.000000" /><text class="" x="398.46153846153845" y="555.0">2554</text></g><g class="guides"><path class="guide line" d="M475.384615 0.000000 v540.000000" /><text class="" x="475.38461538461536" y="555.0">2555</text></g><g class="guides"><path class="guide line" d="M552.307692 0.000000 v540.000000" /><text class="" x="552.3076923076923" y="555.0">2556</text></g><g class="guides"><path class="guide line" d="M629.230769 0.000000 v540.000000" /><text class="" x="629.2307692307692" y="555.0">2557</text></g><g class="guides"><path class="guide line" d="M706.153846 0.000000 v540.000000" /><text class="" x="706.1538461538461" y="555.0">2558</text></g></g><g class="series serie-0 color-0"><path class="line reactive" d="M13.846154 540.000000 L13.846154 529.615385 14.153846 529.083904 14.461538 528.552434 14.769231 528.020987 15.076923 527.489574 15.384615 526.958207 15.692308 526.426896 16.000000 525.895654 16.307692 525.364491 16.615385 524.833420 16.923077 524.302450 17.230769 523.771595 17.538462 523.240864 17.846154 522.710270 18.153846 522.179823 18.461538 521.649536 18.769231 521.119419 19.076923 520.589484 19.384615 520.059743 19.692308 519.530206 20.000000 519.000885 20.307692 518.471791 20.615385 517.942936 20.923077 517.414332 21.230769 516.885988 21.538462 516.357918 21.846154 515.830132 22.153846 515.302641 22.461538 514.775458 22.769231 514.248592 23.076923 513.722057 23.384615 513.195862 23.692308 512.670020 24.000000 512.144542 24.307692 511.619439 24.615385 511.094722 24.923077 510.570403 25.230769 510.046494 25.538462 509.523005 25.846154 508.999949 26.153846 508.477335 26.461538 507.955177 26.769231 507.433484 27.076923 506.912269 27.384615 506.391543 27.692308 505.871317 28.000000 505.351603 28.307692 504.832411 28.615385 504.313754 28.923077 503.795643 29.230769 503.278089 29.538462 502.761103 29.846154 502.244697 30.153846 501.728882 30.461538 501.213670 30.769231 500.699071 31.076923 500.185098 31.384615 499.671762 31.692308 499.159073 32.000000 498.647044 32.307692 498.135686 32.615385 497.625010 32.923077 497.115027 33.230769 496.605750 33.538462 496.097188 33.846154 495.589354 34.153846 495.082259 34.461538 494.575915 34.769231 494.070332 35.076923 493.565522 35.384615 493.061496 35.692308 492.558267 36.000000 492.055844 36.307692 491.554241 36.615385 491.053467 36.923077 490.553534 37.230769 490.054454 37.538462 489.556238 37.846154 489.058898 38.153846 488.562444 38.461538 488.066888 38.769231 487.572242 39.076923 487.078517 39.384615 486.585724 39.692308 486.093874 40.000000 485.602980 40.307692 485.113052 40.615385 484.624101 40.923077 484.136140 41.230769 483.649179 41.538462 483.163230 41.846154 482.678304 42.153846 482.194413 42.461538 481.711568 42.769231 481.229780 43.076923 480.749060 43.384615 480.269421 43.692308 479.790873 44.000000 479.313428 44.307692 478.837097 44.615385 478.361891 44.923077 477.887823 45.230769 477.414902 45.538462 476.943142 45.846154 476.472552 46.153846 476.003144 46.461538 475.534931 46.769231 475.067922 47.076923 474.602130 47.384615 474.137565 47.692308 473.674240 48.000000 473.212166 48.307692 472.751353 48.615385 472.291814 48.923077 471.833559 49.230769 471.376601 49.538462 470.920949 49.846154 470.466617 50.153846 470.013615 50.461538 469.561954 50.769231 469.111646 51.076923 468.662702 51.384615 468.215134 51.692308 467.768953 52.000000 467.324171 52.307692 466.880798 52.615385 466.438846 52.923077 465.998327 53.230769 465.559251 53.538462 465.121631 53.846154 464.685477 54.153846 464.250801 54.461538 463.817615 54.769231 463.385929 55.076923 462.955755 55.384615 462.527105 55.692308 462.099989 56.000000 461.674420 56.307692 461.250408 56.615385 460.827965 56.923077 460.407103 57.230769 459.987831 57.538462 459.570163 57.846154 459.154110 58.153846 458.739682 58.461538 458.326891 58.769231 457.915748 59.076923 457.506266 59.384615 457.098455 59.692308 456.692326 60.000000 456.287891 60.307692 455.885161 60.615385 455.484149 60.923077 455.084864 61.230769 454.687319 61.538462 454.291524 61.846154 453.897492 62.153846 453.505233 62.461538 453.114759 62.769231 452.726081 63.076923 452.339211 63.384615 451.954160 63.692308 451.570939 64.000000 451.189561 64.307692 450.810035 64.615385 450.432373 64.923077 450.056588 65.230769 449.682690 65.538462 449.310690 65.846154 448.940600 66.153846 448.572432 66.461538 448.206196 66.769231 447.841905 67.076923 447.479568 67.384615 447.119199 67.692308 446.760808 68.000000 446.404406 68.307692 446.050005 68.615385 445.697617 68.923077 445.347252 69.230769 444.998922 69.538462 444.652639 69.846154 444.308413 70.153846 443.966256 70.461538 443.626180 70.769231 443.288196 71.076923 442.952315 71.384615 442.618549 71.692308 442.286908 72.000000 441.957405 72.307692 441.630051 72.615385 441.304856 72.923077 440.981833 73.230769 440.660993 73.538462 440.342347 73.846154 440.025907 74.153846 439.711683 74.461538 439.399688 74.769231 439.089933 75.076923 438.782428 75.384615 438.477186 75.692308 438.174218 76.000000 437.873534 76.307692 437.575148 76.615385 437.279069 76.923077 436.985309 77.230769 436.693880 77.538462 436.404793 77.846154 436.118059 78.153846 435.833690 78.461538 435.551697 78.769231 435.272092 79.076923 434.994885 79.384615 434.720088 79.692308 434.447713 80.000000 434.177771 80.307692 433.910274 80.615385 433.645232 80.923077 433.382656 81.230769 433.122560 81.538462 432.864953 81.846154 432.609847 82.153846 432.357254 82.461538 432.107184 82.769231 431.859650 83.076923 431.614663 83.384615 431.372233 83.692308 431.132373 84.000000 430.895093 84.307692 430.660406 84.615385 430.428322 84.923077 430.198853 85.230769 429.972010 85.538462 429.747804 85.846154 429.526248 86.153846 429.307352 86.461538 429.091127 86.769231 428.877586 87.076923 428.666739 87.384615 428.458597 87.692308 428.253173 88.000000 428.050477 88.307692 427.850522 88.615385 427.653317 88.923077 427.458875 89.230769 427.267207 89.538462 427.078325 89.846154 426.892239 90.153846 426.708961 90.461538 426.528503 90.769231 426.350875 91.076923 426.176085 91.384615 426.004121 91.692308 425.834966 92.000000 425.668603 92.307692 425.505016 92.615385 425.344189 92.923077 425.186105 93.230769 425.030747 93.538462 424.878098 93.846154 424.728143 94.153846 424.580865 94.461538 424.436246 94.769231 424.294272 95.076923 424.154924 95.384615 424.018187 95.692308 423.884043 96.000000 423.752477 96.307692 423.623472 96.615385 423.497011 96.923077 423.373078 97.230769 423.251655 97.538462 423.132728 97.846154 423.016278 98.153846 422.902290 98.461538 422.790747 98.769231 422.681632 99.076923 422.574929 99.384615 422.470621 99.692308 422.368692 100.000000 422.269125 100.307692 422.171903 100.615385 422.077011 100.923077 421.984431 101.230769 421.894147 101.538462 421.806142 101.846154 421.720401 102.153846 421.636905 102.461538 421.555640 102.769231 421.476587 103.076923 421.399731 103.384615 421.325055 103.692308 421.252543 104.000000 421.182177 104.307692 421.113942 104.615385 421.047821 104.923077 420.983797 105.230769 420.921854 105.538462 420.861975 105.846154 420.804144 106.153846 420.748343 106.461538 420.694558 106.769231 420.642770 107.076923 420.592963 107.384615 420.545122 107.692308 420.499229 108.000000 420.455267 108.307692 420.413221 108.615385 420.373073 108.923077 420.334808 109.230769 420.298408 109.538462 420.263857 109.846154 420.231139 110.153846 420.200236 110.461538 420.171133 110.769231 420.143812 111.076923 420.118258 111.384615 420.094453 111.692308 420.072382 112.000000 420.052027 112.307692 420.033372 112.615385 420.016400 112.923077 420.001096 113.230769 419.987441 113.538462 419.975421 113.846154 419.965018 114.153846 419.956215 114.461538 419.948997 114.769231 419.943346 115.076923 419.939246 115.384615 419.936681 115.692308 419.935634 116.000000 419.936087 116.307692 419.938026 116.615385 419.941433 116.923077 419.946292 117.230769 419.952586 117.538462 419.960299 117.846154 419.969413 118.153846 419.979913 118.461538 419.991782 118.769231 420.005003 119.076923 420.019561 119.384615 420.035437 119.692308 420.052616 120.000000 420.071082 120.307692 420.090817 120.615385 420.111805 120.923077 420.134029 121.230769 420.157474 121.538462 420.182122 121.846154 420.207957 122.153846 420.234962 122.461538 420.263121 122.769231 420.292417 123.076923 420.322833 123.384615 420.354354 123.692308 420.386962 124.000000 420.420642 124.307692 420.455375 124.615385 420.491147 124.923077 420.527940 125.230769 420.565737 125.538462 420.604523 125.846154 420.644281 126.153846 420.684993 126.461538 420.726644 126.769231 420.769218 127.076923 420.812696 127.384615 420.857064 127.692308 420.902303 128.000000 420.948399 128.307692 420.995334 128.615385 421.043091 128.923077 421.091655 129.230769 421.141008 129.538462 421.191134 129.846154 421.242017 130.153846 421.293640 130.461538 421.345986 130.769231 421.399038 131.076923 421.452781 131.384615 421.507198 131.692308 421.562272 132.000000 421.617986 132.307692 421.674325 132.615385 421.731271 132.923077 421.788807 133.230769 421.846919 133.538462 421.905588 133.846154 421.964798 134.153846 422.024533 134.461538 422.084776 134.769231 422.145511 135.076923 422.206721 135.384615 422.268389 135.692308 422.330499 136.000000 422.393035 136.307692 422.455979 136.615385 422.519316 136.923077 422.583029 137.230769 422.647101 137.538462 422.711515 137.846154 422.776255 138.153846 422.841305 138.461538 422.906648 138.769231 422.972267 139.076923 423.038146 139.384615 423.104269 139.692308 423.170618 140.000000 423.237178 140.307692 423.303931 140.615385 423.370861 140.923077 423.437951 141.230769 423.505186 141.538462 423.572548 141.846154 423.640021 142.153846 423.707588 142.461538 423.775233 142.769231 423.842940 143.076923 423.910691 143.384615 423.978470 143.692308 424.046260 144.000000 424.114046 144.307692 424.181810 144.615385 424.249536 144.923077 424.317207 145.230769 424.384807 145.538462 424.452320 145.846154 424.519728 146.153846 424.587015 146.461538 424.654164 146.769231 424.721160 147.076923 424.787985 147.384615 424.854624 147.692308 424.921058 148.000000 424.987272 148.307692 425.053250 148.615385 425.118974 148.923077 425.184428 149.230769 425.249596 149.538462 425.314461 149.846154 425.379007 150.153846 425.443216 150.461538 425.507073 150.769231 425.570561 151.076923 425.633663 151.384615 425.696362 151.692308 425.758643 152.000000 425.820488 152.307692 425.881882 152.615385 425.942807 152.923077 426.003247 153.230769 426.063185 153.538462 426.122605 153.846154 426.181491 154.153846 426.239825 154.461538 426.297591 154.769231 426.354773 155.076923 426.411354 155.384615 426.467318 155.692308 426.522648 156.000000 426.577327 156.307692 426.631339 156.615385 426.684667 156.923077 426.737295 157.230769 426.789206 157.538462 426.840384 157.846154 426.890811 158.153846 426.940473 158.461538 426.989351 158.769231 427.037430 159.076923 427.084693 159.384615 427.131123 159.692308 427.176704 160.000000 427.221419 160.307692 427.265252 160.615385 427.308185 160.923077 427.350204 161.230769 427.391290 161.538462 427.431428 161.846154 427.470601 162.153846 427.508792 162.461538 427.545985 162.769231 427.582163 163.076923 427.617310 163.384615 427.651409 163.692308 427.684444 164.000000 427.716397 164.307692 427.747253 164.615385 427.776995 164.923077 427.805607 165.230769 427.833071 165.538462 427.859371 165.846154 427.884491 166.153846 427.908415 166.461538 427.931125 166.769231 427.952605 167.076923 427.972838 167.384615 427.991808 167.692308 428.009499 168.000000 428.025896 168.307692 428.040998 168.615385 428.054803 168.923077 428.067312 169.230769 428.078525 169.538462 428.088442 169.846154 428.097064 170.153846 428.104389 170.461538 428.110418 170.769231 428.115152 171.076923 428.118590 171.384615 428.120732 171.692308 428.121579 172.000000 428.121130 172.307692 428.119386 172.615385 428.116345 172.923077 428.112010 173.230769 428.106379 173.538462 428.099452 173.846154 428.091230 174.153846 428.081713 174.461538 428.070901 174.769231 428.058793 175.076923 428.045390 175.384615 428.030692 175.692308 428.014699 176.000000 427.997411 176.307692 427.978827 176.615385 427.958949 176.923077 427.937776 177.230769 427.915308 177.538462 427.891545 177.846154 427.866487 178.153846 427.840134 178.461538 427.812487 178.769231 427.783545 179.076923 427.753308 179.384615 427.721777 179.692308 427.688951 180.000000 427.654831 180.307692 427.619416 180.615385 427.582706 180.923077 427.544702 181.230769 427.505404 181.538462 427.464812 181.846154 427.422925 182.153846 427.379744 182.461538 427.335269 182.769231 427.289500 183.076923 427.242436 183.384615 427.194079 183.692308 427.144427 184.000000 427.093482 184.307692 427.041242 184.615385 426.987709 184.923077 426.932882 185.230769 426.876761 185.538462 426.819346 185.846154 426.760637 186.153846 426.700635 186.461538 426.639339 186.769231 426.576750 187.076923 426.512867 187.384615 426.447690 187.692308 426.381220 188.000000 426.313457 188.307692 426.244400 188.615385 426.174049 188.923077 426.102406 189.230769 426.029469 189.538462 425.955239 189.846154 425.879716 190.153846 425.802899 190.461538 425.724790 190.769231 425.645387 191.076923 425.564692 191.384615 425.482703 191.692308 425.399422 192.000000 425.314847 192.307692 425.228980 192.615385 425.141820 192.923077 425.053367 193.230769 424.963622 193.538462 424.872583 193.846154 424.780253 194.153846 424.686629 194.461538 424.591713 194.769231 424.495505 195.076923 424.398003 195.384615 424.299210 195.692308 424.199124 196.000000 424.097746 196.307692 423.995075 196.615385 423.891113 196.923077 423.785858 197.230769 423.679311 197.538462 423.571471 197.846154 423.462340 198.153846 423.351916 198.461538 423.240201 198.769231 423.127193 199.076923 423.012894 199.384615 422.897303 199.692308 422.780420 200.000000 422.662245 200.307692 422.542778 200.615385 422.422020 200.923077 422.299970 201.230769 422.176628 201.538462 422.051995 201.846154 421.926070 202.153846 421.798854 202.461538 421.670346 202.769231 421.540547 203.076923 421.409456 203.384615 421.277074 203.692308 421.143401 204.000000 421.008436 204.307692 420.872180 204.615385 420.734633 204.923077 420.595795 205.230769 420.455666 205.538462 420.314246 205.846154 420.171535 206.153846 420.027533 206.461538 419.882240 206.769231 419.735656 207.076923 419.587781 207.384615 419.438615 207.692308 419.288159 208.000000 419.136412 208.307692 418.983374 208.615385 418.829046 208.923077 418.673427 209.230769 418.516518 209.538462 418.358318 209.846154 418.198827 210.153846 418.038046 210.461538 417.875975 210.769231 417.712613 211.076923 417.547962 211.384615 417.382019 211.692308 417.214787 212.000000 417.046265 212.307692 416.876452 212.615385 416.705349 212.923077 416.532957 213.230769 416.359274 213.538462 416.184301 213.846154 416.008039 214.153846 415.830486 214.461538 415.651644 214.769231 415.471512 215.076923 415.290090 215.384615 415.107378 215.692308 414.923377 216.000000 414.738086 216.307692 414.551506 216.615385 414.363636 216.923077 414.174476 217.230769 413.984028 217.538462 413.792289 217.846154 413.599262 218.153846 413.404945 218.461538 413.209338 218.769231 413.012443 219.076923 412.814258 219.384615 412.614784 219.692308 412.414021 220.000000 412.211969 220.307692 412.008628 220.615385 411.803998 220.923077 411.598079 221.230769 411.390871 221.538462 411.182374 221.846154 410.972588 222.153846 410.761514 222.461538 410.549151 222.769231 410.335499 223.076923 410.120558 223.384615 409.904329 223.692308 409.686811 224.000000 409.468005 224.307692 409.247910 224.615385 409.026527 224.923077 408.803856 225.230769 408.579896 225.538462 408.354647 225.846154 408.128111 226.153846 407.900286 226.461538 407.671173 226.769231 407.440772 227.076923 407.209083 227.384615 406.976106 227.692308 406.741840 228.000000 406.506287 228.307692 406.269446 228.615385 406.031316 228.923077 405.791899 229.230769 405.551195 229.538462 405.309202 229.846154 405.065922 230.153846 404.821354 230.461538 404.575498 230.769231 404.328355 231.076923 404.079924 231.384615 403.830206 231.692308 403.579200 232.000000 403.326906 232.307692 403.073326 232.615385 402.818458 232.923077 402.562302 233.230769 402.304860 233.538462 402.046130 233.846154 401.786113 234.153846 401.524809 234.461538 401.262217 234.769231 400.998339 235.076923 400.733174 235.384615 400.466721 235.692308 400.198982 236.000000 399.929956 236.307692 399.659643 236.615385 399.388043 236.923077 399.115156 237.230769 398.840983 237.538462 398.565523 237.846154 398.288776 238.153846 398.010743 238.461538 397.731423 238.769231 397.450817 239.076923 397.168924 239.384615 396.885745 239.692308 396.601279 240.000000 396.315527 240.307692 396.028489 240.615385 395.740165 240.923077 395.450554 241.230769 395.159657 241.538462 394.867474 241.846154 394.574005 242.153846 394.279249 242.461538 393.983208 242.769231 393.685881 243.076923 393.387268 243.384615 393.087369 243.692308 392.786184 244.000000 392.483713 244.307692 392.179957 244.615385 391.874915 244.923077 391.568590 245.230769 391.260995 245.538462 390.952148 245.846154 390.642064 246.153846 390.330760 246.461538 390.018251 246.769231 389.704556 247.076923 389.389689 247.384615 389.073667 247.692308 388.756507 248.000000 388.438225 248.307692 388.118837 248.615385 387.798359 248.923077 387.476809 249.230769 387.154202 249.538462 386.830554 249.846154 386.505883 250.153846 386.180204 250.461538 385.853534 250.769231 385.525888 251.076923 385.197285 251.384615 384.867739 251.692308 384.537267 252.000000 384.205886 252.307692 383.873611 252.615385 383.540460 252.923077 383.206449 253.230769 382.871593 253.538462 382.535910 253.846154 382.199415 254.153846 381.862126 254.461538 381.524058 254.769231 381.185227 255.076923 380.845651 255.384615 380.505345 255.692308 380.164326 256.000000 379.822610 256.307692 379.480213 256.615385 379.137153 256.923077 378.793444 257.230769 378.449105 257.538462 378.104150 257.846154 377.758596 258.153846 377.412460 258.461538 377.065759 258.769231 376.718507 259.076923 376.370722 259.384615 376.022421 259.692308 375.673618 260.000000 375.324332 260.307692 374.974578 260.615385 374.624372 260.923077 374.273731 261.230769 373.922671 261.538462 373.571209 261.846154 373.219361 262.153846 372.867143 262.461538 372.514572 262.769231 372.161664 263.076923 371.808435 263.384615 371.454902 263.692308 371.101081 264.000000 370.746988 264.307692 370.392641 264.615385 370.038054 264.923077 369.683245 265.230769 369.328229 265.538462 368.973024 265.846154 368.617646 266.153846 368.262110 266.461538 367.906434 266.769231 367.550633 267.076923 367.194724 267.384615 366.838724 267.692308 366.482648 268.000000 366.126514 268.307692 365.770337 268.615385 365.414133 268.923077 365.057920 269.230769 364.701713 269.538462 364.345530 269.846154 363.989385 270.153846 363.633296 270.461538 363.277279 270.769231 362.921350 271.076923 362.565526 271.384615 362.209822 271.692308 361.854256 272.000000 361.498844 272.307692 361.143602 272.615385 360.788546 272.923077 360.433693 273.230769 360.079059 273.538462 359.724661 273.846154 359.370515 274.153846 359.016636 274.461538 358.663042 274.769231 358.309750 275.076923 357.956774 275.384615 357.604132 275.692308 357.251840 276.000000 356.899914 276.307692 356.548372 276.615385 356.197228 276.923077 355.846499 277.230769 355.496202 277.538462 355.146354 277.846154 354.796970 278.153846 354.448066 278.461538 354.099660 278.769231 353.751768 279.076923 353.404405 279.384615 353.057589 279.692308 352.711335 280.000000 352.365660 280.307692 352.020581 280.615385 351.676113 280.923077 351.332273 281.230769 350.989078 281.538462 350.646544 281.846154 350.304686 282.153846 349.963522 282.461538 349.623068 282.769231 349.283340 283.076923 348.944355 283.384615 348.606128 283.692308 348.268677 284.000000 347.932017 284.307692 347.596165 284.615385 347.261138 284.923077 346.926951 285.230769 346.593622 285.538462 346.261166 285.846154 345.929599 286.153846 345.598939 286.461538 345.269201 286.769231 344.940402 287.076923 344.612558 287.384615 344.285685 287.692308 343.959801 288.000000 343.634920 288.307692 343.311061 288.615385 342.988238 288.923077 342.666469 289.230769 342.345769 289.538462 342.026155 289.846154 341.707644 290.153846 341.390251 290.461538 341.073994 290.769231 340.758888 291.076923 340.444950 291.384615 340.132196 291.692308 339.820642 292.000000 339.510305 292.307692 339.201202 292.615385 338.893348 292.923077 338.586760 293.230769 338.281455 293.538462 337.977448 293.846154 337.674756 294.153846 337.373396 294.461538 337.073383 294.769231 336.774734 295.076923 336.477466 295.384615 336.181595 295.692308 335.887136 296.000000 335.594108 296.307692 335.302525 296.615385 335.012404 296.923077 334.723762 297.230769 334.436615 297.538462 334.150979 297.846154 333.866871 298.153846 333.584307 298.461538 333.303303 298.769231 333.023876 299.076923 332.746042 299.384615 332.469818 299.692308 332.195219 300.000000 331.922262 300.307692 331.650964 300.615385 331.381341 300.923077 331.113409 301.230769 330.847185 301.538462 330.582684 301.846154 330.319924 302.153846 330.058921 302.461538 329.799690 302.769231 329.542249 303.076923 329.286614 303.384615 329.032800 303.692308 328.780825 304.000000 328.530705 304.307692 328.282456 304.615385 328.036095 304.923077 327.791637 305.230769 327.549100 305.538462 327.308499 305.846154 327.069851 306.153846 326.833172 306.461538 326.598479 306.769231 326.365788 307.076923 326.135116 307.384615 325.906478 307.692308 325.679891 308.000000 325.455372 308.307692 325.232936 308.615385 325.012600 308.923077 324.794381 309.230769 324.578295 309.538462 324.364358 309.846154 324.152587 310.153846 323.942997 310.461538 323.735606 310.769231 323.530430 311.076923 323.327484 311.384615 323.126786 311.692308 322.928351 312.000000 322.732197 312.307692 322.538339 312.615385 322.346793 312.923077 322.157577 313.230769 321.970707 313.538462 321.786198 313.846154 321.604067 314.153846 321.424331 314.461538 321.247006 314.769231 321.072108 315.076923 320.899654 315.384615 320.729659 315.692308 320.562141 316.000000 320.397116 316.307692 320.234600 316.615385 320.074609 316.923077 319.917160 317.230769 319.762269 317.538462 319.609953 317.846154 319.460227 318.153846 319.313109 318.461538 319.168614 318.769231 319.026759 319.076923 318.887560 319.384615 318.751034 319.692308 318.617197 320.000000 318.486065 320.307692 318.357655 320.615385 318.231983 320.923077 318.109066 321.230769 317.988919 321.538462 317.871559 321.846154 317.756996 322.153846 317.645212 322.461538 317.536184 322.769231 317.429888 323.076923 317.326299 323.384615 317.225393 323.692308 317.127147 324.000000 317.031537 324.307692 316.938538 324.615385 316.848127 324.923077 316.760279 325.230769 316.674971 325.538462 316.592179 325.846154 316.511878 326.153846 316.434045 326.461538 316.358655 326.769231 316.285685 327.076923 316.215111 327.384615 316.146908 327.692308 316.081053 328.000000 316.017522 328.307692 315.956291 328.615385 315.897335 328.923077 315.840631 329.230769 315.786155 329.538462 315.733882 329.846154 315.683790 330.153846 315.635853 330.461538 315.590047 330.769231 315.546350 331.076923 315.504737 331.384615 315.465183 331.692308 315.427665 332.000000 315.392159 332.307692 315.358641 332.615385 315.327087 332.923077 315.297472 333.230769 315.269774 333.538462 315.243968 333.846154 315.220029 334.153846 315.197934 334.461538 315.177660 334.769231 315.159181 335.076923 315.142474 335.384615 315.127515 335.692308 315.114280 336.000000 315.102746 336.307692 315.092887 336.615385 315.084680 336.923077 315.078101 337.230769 315.073127 337.538462 315.069732 337.846154 315.067893 338.153846 315.067587 338.461538 315.068789 338.769231 315.071474 339.076923 315.075620 339.384615 315.081202 339.692308 315.088197 340.000000 315.096579 340.307692 315.106325 340.615385 315.117412 340.923077 315.129815 341.230769 315.143510 341.538462 315.158473 341.846154 315.174681 342.153846 315.192109 342.461538 315.210733 342.769231 315.230529 343.076923 315.251473 343.384615 315.273542 343.692308 315.296711 344.000000 315.320957 344.307692 315.346255 344.615385 315.372581 344.923077 315.399911 345.230769 315.428222 345.538462 315.457489 345.846154 315.487688 346.153846 315.518796 346.461538 315.550789 346.769231 315.583641 347.076923 315.617331 347.384615 315.651832 347.692308 315.687122 348.000000 315.723177 348.307692 315.759972 348.615385 315.797483 348.923077 315.835687 349.230769 315.874560 349.538462 315.914077 349.846154 315.954214 350.153846 315.994948 350.461538 316.036255 350.769231 316.078110 351.076923 316.120490 351.384615 316.163370 351.692308 316.206727 352.000000 316.250537 352.307692 316.294775 352.615385 316.339418 352.923077 316.384441 353.230769 316.429821 353.538462 316.475534 353.846154 316.521555 354.153846 316.567862 354.461538 316.614428 354.769231 316.661232 355.076923 316.708248 355.384615 316.755453 355.692308 316.802823 356.000000 316.850334 356.307692 316.897961 356.615385 316.945681 356.923077 316.993470 357.230769 317.041304 357.538462 317.089158 357.846154 317.137010 358.153846 317.184834 358.461538 317.232607 358.769231 317.280305 359.076923 317.327904 359.384615 317.375380 359.692308 317.422708 360.000000 317.469866 360.307692 317.516828 360.615385 317.563572 360.923077 317.610072 361.230769 317.656305 361.538462 317.702247 361.846154 317.747875 362.153846 317.793163 362.461538 317.838088 362.769231 317.882627 363.076923 317.926754 363.384615 317.970446 363.692308 318.013680 364.000000 318.056430 364.307692 318.098674 364.615385 318.140386 364.923077 318.181544 365.230769 318.222123 365.538462 318.262099 365.846154 318.301448 366.153846 318.340146 366.461538 318.378170 366.769231 318.415494 367.076923 318.452096 367.384615 318.487951 367.692308 318.523035 368.000000 318.557325 368.307692 318.590795 368.615385 318.623423 368.923077 318.655184 369.230769 318.686055 369.538462 318.716010 369.846154 318.745027 370.153846 318.773082 370.461538 318.800149 370.769231 318.826206 371.076923 318.851228 371.384615 318.875192 371.692308 318.898073 372.000000 318.919847 372.307692 318.940491 372.615385 318.959980 372.923077 318.978290 373.230769 318.995398 373.538462 319.011279 373.846154 319.025910 374.153846 319.039266 374.461538 319.051324 374.769231 319.062059 375.076923 319.071448 375.384615 319.079466 375.692308 319.086090 376.000000 319.091295 376.307692 319.095057 376.615385 319.097354 376.923077 319.098159 377.230769 319.097451 377.538462 319.095204 377.846154 319.091394 378.153846 319.085998 378.461538 319.078992 378.769231 319.070351 379.076923 319.060052 379.384615 319.048071 379.692308 319.034383 380.000000 319.018965 380.307692 319.001793 380.615385 318.982842 380.923077 318.962089 381.230769 318.939510 381.538462 318.915080 381.846154 318.888777 382.153846 318.860575 382.461538 318.830450 382.769231 318.798380 383.076923 318.764339 383.384615 318.728304 383.692308 318.690251 384.000000 318.650156 384.307692 318.607995 384.615385 318.563743 384.923077 318.517377 385.230769 318.468874 385.538462 318.418208 385.846154 318.365356 386.153846 318.310293 386.461538 318.252997 386.769231 318.193443 387.076923 318.131606 387.384615 318.067464 387.692308 318.000992 388.000000 317.932165 388.307692 317.860961 388.615385 317.787354 388.923077 317.711322 389.230769 317.632839 389.538462 317.551883 389.846154 317.468428 390.153846 317.382452 390.461538 317.293930 390.769231 317.202837 391.076923 317.109151 391.384615 317.012847 391.692308 316.913901 392.000000 316.812290 392.307692 316.707988 392.615385 316.600973 392.923077 316.491219 393.230769 316.378704 393.538462 316.263403 393.846154 316.145292 394.153846 316.024348 394.461538 315.900546 394.769231 315.773861 395.076923 315.644272 395.384615 315.511752 395.692308 315.376279 396.000000 315.237828 396.307692 315.096375 396.615385 314.951896 396.923077 314.804368 397.230769 314.653766 397.538462 314.500067 397.846154 314.343246 398.153846 314.183279 398.461538 314.020142 398.769231 313.853820 399.076923 313.684325 399.384615 313.511680 399.692308 313.335905 400.000000 313.157022 400.307692 312.975052 400.615385 312.790017 400.923077 312.601938 401.230769 312.410836 401.538462 312.216734 401.846154 312.019652 402.153846 311.819611 402.461538 311.616634 402.769231 311.410740 403.076923 311.201953 403.384615 310.990293 403.692308 310.775782 404.000000 310.558440 404.307692 310.338290 404.615385 310.115353 404.923077 309.889650 405.230769 309.661202 405.538462 309.430032 405.846154 309.196160 406.153846 308.959607 406.461538 308.720396 406.769231 308.478547 407.076923 308.234082 407.384615 307.987022 407.692308 307.737389 408.000000 307.485204 408.307692 307.230488 408.615385 306.973264 408.923077 306.713551 409.230769 306.451372 409.538462 306.186748 409.846154 305.919701 410.153846 305.650251 410.461538 305.378421 410.769231 305.104231 411.076923 304.827703 411.384615 304.548858 411.692308 304.267718 412.000000 303.984305 412.307692 303.698638 412.615385 303.410741 412.923077 303.120634 413.230769 302.828338 413.538462 302.533876 413.846154 302.237268 414.153846 301.938536 414.461538 301.637701 414.769231 301.334785 415.076923 301.029809 415.384615 300.722794 415.692308 300.413762 416.000000 300.102735 416.307692 299.789732 416.615385 299.474777 416.923077 299.157890 417.230769 298.839093 417.538462 298.518407 417.846154 298.195854 418.153846 297.871454 418.461538 297.545230 418.769231 297.217202 419.076923 296.887392 419.384615 296.555822 419.692308 296.222513 420.000000 295.887486 420.307692 295.550763 420.615385 295.212365 420.923077 294.872313 421.230769 294.530629 421.538462 294.187334 421.846154 293.842449 422.153846 293.495997 422.461538 293.147998 422.769231 292.798474 423.076923 292.447445 423.384615 292.094935 423.692308 291.740963 424.000000 291.385552 424.307692 291.028722 424.615385 290.670495 424.923077 290.310893 425.230769 289.949937 425.538462 289.587648 425.846154 289.224048 426.153846 288.859157 426.461538 288.492998 426.769231 288.125592 427.076923 287.756960 427.384615 287.387124 427.692308 287.016104 428.000000 286.643923 428.307692 286.270602 428.615385 285.896162 428.923077 285.520624 429.230769 285.144011 429.538462 284.766342 429.846154 284.387641 430.153846 284.007927 430.461538 283.627223 430.769231 283.245550 431.076923 282.862929 431.384615 282.479382 431.692308 282.094929 432.000000 281.709594 432.307692 281.323396 432.615385 280.936357 432.923077 280.548498 433.230769 280.159842 433.538462 279.770409 433.846154 279.380221 434.153846 278.989299 434.461538 278.597665 434.769231 278.205339 435.076923 277.812344 435.384615 277.418701 435.692308 277.024430 436.000000 276.629554 436.307692 276.234094 436.615385 275.838072 436.923077 275.441508 437.230769 275.044423 437.538462 274.646841 437.846154 274.248781 438.153846 273.850265 438.461538 273.451316 438.769231 273.051953 439.076923 272.652198 439.384615 272.252073 439.692308 271.851599 440.000000 271.450798 440.307692 271.049691 440.615385 270.648299 440.923077 270.246644 441.230769 269.844747 441.538462 269.442629 441.846154 269.040313 442.153846 268.637818 442.461538 268.235168 442.769231 267.832382 443.076923 267.429483 443.384615 267.026491 443.692308 266.623429 444.000000 266.220317 444.307692 265.817178 444.615385 265.414032 444.923077 265.010900 445.230769 264.607805 445.538462 264.204767 445.846154 263.801808 446.153846 263.398950 446.461538 262.996213 446.769231 262.593620 447.076923 262.191190 447.384615 261.788947 447.692308 261.386911 448.000000 260.985104 448.307692 260.583547 448.615385 260.182261 448.923077 259.781268 449.230769 259.380589 449.538462 258.980246 449.846154 258.580260 450.153846 258.180653 450.461538 257.781445 450.769231 257.382658 451.076923 256.984314 451.384615 256.586433 451.692308 256.189039 452.000000 255.792150 452.307692 255.395790 452.615385 254.999980 452.923077 254.604740 453.230769 254.210093 453.538462 253.816059 453.846154 253.422661 454.153846 253.029919 454.461538 252.637854 454.769231 252.246489 455.076923 251.855845 455.384615 251.465942 455.692308 251.076803 456.000000 250.688449 456.307692 250.300901 456.615385 249.914180 456.923077 249.528309 457.230769 249.143308 457.538462 248.759198 457.846154 248.376002 458.153846 247.993740 458.461538 247.612434 458.769231 247.232106 459.076923 246.852776 459.384615 246.474466 459.692308 246.097197 460.000000 245.720992 460.307692 245.345871 460.615385 244.971855 460.923077 244.598966 461.230769 244.227226 461.538462 243.856656 461.846154 243.487276 462.153846 243.119110 462.461538 242.752177 462.769231 242.386500 463.076923 242.022099 463.384615 241.658996 463.692308 241.297213 464.000000 240.936771 464.307692 240.577692 464.615385 240.219996 464.923077 239.863705 465.230769 239.508840 465.538462 239.155423 465.846154 238.803476 466.153846 238.453019 466.461538 238.104075 466.769231 237.756663 467.076923 237.410807 467.384615 237.066526 467.692308 236.723844 468.000000 236.382780 468.307692 236.043356 468.615385 235.705595 468.923077 235.369516 469.230769 235.035142 469.538462 234.702494 469.846154 234.371593 470.153846 234.042461 470.461538 233.715119 470.769231 233.389589 471.076923 233.065891 471.384615 232.744048 471.692308 232.424080 472.000000 232.106010 472.307692 231.789857 472.615385 231.475645 472.923077 231.163394 473.230769 230.853125 473.538462 230.544860 473.846154 230.238621 474.153846 229.934428 474.461538 229.632304 474.769231 229.332269 475.076923 229.034345 475.384615 228.738553 475.692308 228.444910 476.000000 228.153405 476.307692 227.864027 476.615385 227.576760 476.923077 227.291590 477.230769 227.008504 477.538462 226.727487 477.846154 226.448525 478.153846 226.171605 478.461538 225.896712 478.769231 225.623832 479.076923 225.352951 479.384615 225.084055 479.692308 224.817130 480.000000 224.552161 480.307692 224.289136 480.615385 224.028039 480.923077 223.768857 481.230769 223.511576 481.538462 223.256181 481.846154 223.002659 482.153846 222.750995 482.461538 222.501176 482.769231 222.253187 483.076923 222.007014 483.384615 221.762643 483.692308 221.520061 484.000000 221.279253 484.307692 221.040204 484.615385 220.802902 484.923077 220.567332 485.230769 220.333479 485.538462 220.101330 485.846154 219.870871 486.153846 219.642088 486.461538 219.414966 486.769231 219.189492 487.076923 218.965652 487.384615 218.743430 487.692308 218.522815 488.000000 218.303790 488.307692 218.086343 488.615385 217.870459 488.923077 217.656124 489.230769 217.443324 489.538462 217.232045 489.846154 217.022274 490.153846 216.813995 490.461538 216.607195 490.769231 216.401859 491.076923 216.197975 491.384615 215.995527 491.692308 215.794502 492.000000 215.594885 492.307692 215.396663 492.615385 215.199821 492.923077 215.004346 493.230769 214.810222 493.538462 214.617438 493.846154 214.425977 494.153846 214.235826 494.461538 214.046972 494.769231 213.859399 495.076923 213.673095 495.384615 213.488044 495.692308 213.304233 496.000000 213.121648 496.307692 212.940275 496.615385 212.760099 496.923077 212.581107 497.230769 212.403285 497.538462 212.226618 497.846154 212.051092 498.153846 211.876694 498.461538 211.703409 498.769231 211.531223 499.076923 211.360122 499.384615 211.190093 499.692308 211.021121 500.000000 210.853191 500.307692 210.686291 500.615385 210.520405 500.923077 210.355520 501.230769 210.191622 501.538462 210.028697 501.846154 209.866730 502.153846 209.705708 502.461538 209.545617 502.769231 209.386442 503.076923 209.228169 503.384615 209.070785 503.692308 208.914275 504.000000 208.758625 504.307692 208.603821 504.615385 208.449850 504.923077 208.296696 505.230769 208.144347 505.538462 207.992787 505.846154 207.842003 506.153846 207.691981 506.461538 207.542707 506.769231 207.394167 507.076923 207.246346 507.384615 207.099230 507.692308 206.952807 508.000000 206.807060 508.307692 206.661977 508.615385 206.517544 508.923077 206.373745 509.230769 206.230568 509.538462 206.087998 509.846154 205.946021 510.153846 205.804623 510.461538 205.663790 510.769231 205.523509 511.076923 205.383763 511.384615 205.244541 511.692308 205.105827 512.000000 204.967609 512.307692 204.829870 512.615385 204.692598 512.923077 204.555779 513.230769 204.419398 513.538462 204.283442 513.846154 204.147896 514.153846 204.012746 514.461538 203.877978 514.769231 203.743579 515.076923 203.609533 515.384615 203.475828 515.692308 203.342448 516.000000 203.209381 516.307692 203.076611 516.615385 202.944125 516.923077 202.811909 517.230769 202.679948 517.538462 202.548229 517.846154 202.416738 518.153846 202.285460 518.461538 202.154382 518.769231 202.023489 519.076923 201.892767 519.384615 201.762202 519.692308 201.631781 520.000000 201.501488 520.307692 201.371311 520.615385 201.241235 520.923077 201.111246 521.230769 200.981329 521.538462 200.851472 521.846154 200.721659 522.153846 200.591877 522.461538 200.462112 522.769231 200.332349 523.076923 200.202574 523.384615 200.072775 523.692308 199.942935 524.000000 199.813042 524.307692 199.683081 524.615385 199.553039 524.923077 199.422901 525.230769 199.292652 525.538462 199.162280 525.846154 199.031770 526.153846 198.901108 526.461538 198.770279 526.769231 198.639271 527.076923 198.508068 527.384615 198.376657 527.692308 198.245023 528.000000 198.113153 528.307692 197.981033 528.615385 197.848648 528.923077 197.715984 529.230769 197.583028 529.538462 197.449765 529.846154 197.316182 530.153846 197.182263 530.461538 197.047996 530.769231 196.913365 531.076923 196.778358 531.384615 196.642959 531.692308 196.507156 532.000000 196.370933 532.307692 196.234277 532.615385 196.097173 532.923077 195.959609 533.230769 195.821569 533.538462 195.683039 533.846154 195.544006 534.153846 195.404455 534.461538 195.264372 534.769231 195.123744 535.076923 194.982556 535.384615 194.840794 535.692308 194.698444 536.000000 194.555492 536.307692 194.411924 536.615385 194.267726 536.923077 194.122884 537.230769 193.977384 537.538462 193.831212 537.846154 193.684353 538.153846 193.536793 538.461538 193.388520 538.769231 193.239517 539.076923 193.089773 539.384615 192.939271 539.692308 192.787999 540.000000 192.635942 540.307692 192.483087 540.615385 192.329418 540.923077 192.174923 541.230769 192.019586 541.538462 191.863395 541.846154 191.706334 542.153846 191.548390 542.461538 191.389549 542.769231 191.229797 543.076923 191.069119 543.384615 190.907502 543.692308 190.744932 544.000000 190.581394 544.307692 190.416874 544.615385 190.251359 544.923077 190.084834 545.230769 189.917286 545.538462 189.748699 545.846154 189.579061 546.153846 189.408357 546.461538 189.236572 546.769231 189.063694 547.076923 188.889707 547.384615 188.714599 547.692308 188.538354 548.000000 188.360959 548.307692 188.182399 548.615385 188.002661 548.923077 187.821731 549.230769 187.639594 549.538462 187.456236 549.846154 187.271644 550.153846 187.085803 550.461538 186.898700 550.769231 186.710319 551.076923 186.520648 551.384615 186.329671 551.692308 186.137376 552.000000 185.943747 552.307692 185.748772 552.615385 185.552438 552.923077 185.354749 553.230769 185.155708 553.538462 184.955321 553.846154 184.753593 554.153846 184.550528 554.461538 184.346133 554.769231 184.140412 555.076923 183.933369 555.384615 183.725011 555.692308 183.515342 556.000000 183.304366 556.307692 183.092090 556.615385 182.878518 556.923077 182.663655 557.230769 182.447506 557.538462 182.230076 557.846154 182.011370 558.153846 181.791393 558.461538 181.570151 558.769231 181.347648 559.076923 181.123889 559.384615 180.898879 559.692308 180.672623 560.000000 180.445127 560.307692 180.216395 560.615385 179.986433 560.923077 179.755245 561.230769 179.522836 561.538462 179.289211 561.846154 179.054376 562.153846 178.818335 562.461538 178.581094 562.769231 178.342657 563.076923 178.103030 563.384615 177.862217 563.692308 177.620224 564.000000 177.377055 564.307692 177.132716 564.615385 176.887212 564.923077 176.640547 565.230769 176.392726 565.538462 176.143756 565.846154 175.893639 566.153846 175.642383 566.461538 175.389991 566.769231 175.136469 567.076923 174.881822 567.384615 174.626055 567.692308 174.369172 568.000000 174.111179 568.307692 173.852081 568.615385 173.591883 568.923077 173.330589 569.230769 173.068206 569.538462 172.804737 569.846154 172.540188 570.153846 172.274564 570.461538 172.007870 570.769231 171.740112 571.076923 171.471293 571.384615 171.201419 571.692308 170.930495 572.000000 170.658526 572.307692 170.385517 572.615385 170.111474 572.923077 169.836400 573.230769 169.560302 573.538462 169.283183 573.846154 169.005050 574.153846 168.725907 574.461538 168.445760 574.769231 168.164612 575.076923 167.882470 575.384615 167.599338 575.692308 167.315221 576.000000 167.030125 576.307692 166.744054 576.615385 166.457013 576.923077 166.169008 577.230769 165.880043 577.538462 165.590124 577.846154 165.299254 578.153846 165.007441 578.461538 164.714688 578.769231 164.421000 579.076923 164.126383 579.384615 163.830841 579.692308 163.534380 580.000000 163.237004 580.307692 162.938719 580.615385 162.639530 580.923077 162.339441 581.230769 162.038458 581.538462 161.736585 581.846154 161.433828 582.153846 161.130192 582.461538 160.825682 582.769231 160.520302 583.076923 160.214058 583.384615 159.906955 583.692308 159.598998 584.000000 159.290191 584.307692 158.980541 584.615385 158.670051 584.923077 158.358727 585.230769 158.046574 585.538462 157.733597 585.846154 157.419801 586.153846 157.105190 586.461538 156.789771 586.769231 156.473548 587.076923 156.156525 587.384615 155.838709 587.692308 155.520104 588.000000 155.200715 588.307692 154.880547 588.615385 154.559605 588.923077 154.237894 589.230769 153.915420 589.538462 153.592186 589.846154 153.268199 590.153846 152.943463 590.461538 152.617983 590.769231 152.291765 591.076923 151.964812 591.384615 151.637131 591.692308 151.308727 592.000000 150.979603 592.307692 150.649766 592.615385 150.319221 592.923077 149.987971 593.230769 149.656024 593.538462 149.323382 593.846154 148.990052 594.153846 148.656039 594.461538 148.321347 594.769231 147.985981 595.076923 147.649947 595.384615 147.313250 595.692308 146.975894 596.000000 146.637885 596.307692 146.299227 596.615385 145.959926 596.923077 145.619986 597.230769 145.279414 597.538462 144.938212 597.846154 144.596388 598.153846 144.253945 598.461538 143.910890 598.769231 143.567225 599.076923 143.222958 599.384615 142.878092 599.692308 142.532634 600.000000 142.186587 600.307692 141.839957 600.615385 141.492749 600.923077 141.144967 601.230769 140.796618 601.538462 140.447705 601.846154 140.098235 602.153846 139.748212 602.461538 139.397640 602.769231 139.046526 603.076923 138.694873 603.384615 138.342688 603.692308 137.989974 604.000000 137.636738 604.307692 137.282984 604.615385 136.928717 604.923077 136.573942 605.230769 136.218665 605.538462 135.862889 605.846154 135.506621 606.153846 135.149865 606.461538 134.792626 606.769231 134.434910 607.076923 134.076721 607.384615 133.718064 607.692308 133.358944 608.000000 132.999367 608.307692 132.639337 608.615385 132.278860 608.923077 131.917940 609.230769 131.556582 609.538462 131.194792 609.846154 130.832575 610.153846 130.469935 610.461538 130.106877 610.769231 129.743407 611.076923 129.379529 611.384615 129.015249 611.692308 128.650572 612.000000 128.285502 612.307692 127.920045 612.615385 127.554205 612.923077 127.187988 613.230769 126.821399 613.538462 126.454443 613.846154 126.087124 614.153846 125.719448 614.461538 125.351420 614.769231 124.983044 615.076923 124.614327 615.384615 124.245272 615.692308 123.875885 616.000000 123.506171 616.307692 123.136134 616.615385 122.765781 616.923077 122.395116 617.230769 122.024143 617.538462 121.652868 617.846154 121.281297 618.153846 120.909433 618.461538 120.537283 618.769231 120.164850 619.076923 119.792141 619.384615 119.419160 619.692308 119.045911 620.000000 118.672401 620.307692 118.298634 620.615385 117.924615 620.923077 117.550350 621.230769 117.175842 621.538462 116.801098 621.846154 116.426122 622.153846 116.050919 622.461538 115.675495 622.769231 115.299854 623.076923 114.924001 623.384615 114.547941 623.692308 114.171680 624.000000 113.795222 624.307692 113.418573 624.615385 113.041737 624.923077 112.664719 625.230769 112.287525 625.538462 111.910159 625.846154 111.532627 626.153846 111.154934 626.461538 110.777084 626.769231 110.399082 627.076923 110.020934 627.384615 109.642645 627.692308 109.264219 628.000000 108.885662 628.307692 108.506978 628.615385 108.128173 628.923077 107.749252 629.230769 107.370220 629.538462 106.991080 629.846154 106.611835 630.153846 106.232484 630.461538 105.853029 630.769231 105.473468 631.076923 105.093804 631.384615 104.714036 631.692308 104.334164 632.000000 103.954190 632.307692 103.574113 632.615385 103.193934 632.923077 102.813654 633.230769 102.433272 633.538462 102.052790 633.846154 101.672207 634.153846 101.291525 634.461538 100.910743 634.769231 100.529861 635.076923 100.148882 635.384615 99.767804 635.692308 99.386628 636.000000 99.005355 636.307692 98.623985 636.615385 98.242519 636.923077 97.860956 637.230769 97.479298 637.538462 97.097545 637.846154 96.715697 638.153846 96.333754 638.461538 95.951718 638.769231 95.569588 639.076923 95.187365 639.384615 94.805049 639.692308 94.422641 640.000000 94.040141 640.307692 93.657550 640.615385 93.274868 640.923077 92.892095 641.230769 92.509232 641.538462 92.126280 641.846154 91.743238 642.153846 91.360108 642.461538 90.976888 642.769231 90.593581 643.076923 90.210187 643.384615 89.826705 643.692308 89.443137 644.000000 89.059482 644.307692 88.675741 644.615385 88.291915 644.923077 87.908004 645.230769 87.524008 645.538462 87.139928 645.846154 86.755765 646.153846 86.371518 646.461538 85.987188 646.769231 85.602776 647.076923 85.218282 647.384615 84.833706 647.692308 84.449049 648.000000 84.064311 648.307692 83.679492 648.615385 83.294594 648.923077 82.909617 649.230769 82.524560 649.538462 82.139425 649.846154 81.754211 650.153846 81.368920 650.461538 80.983551 650.769231 80.598105 651.076923 80.212583 651.384615 79.826985 651.692308 79.441311 652.000000 79.055562 652.307692 78.669738 652.615385 78.283839 652.923077 77.897867 653.230769 77.511821 653.538462 77.125702 653.846154 76.739510 654.153846 76.353246 654.461538 75.966911 654.769231 75.580503 655.076923 75.194025 655.384615 74.807476 655.692308 74.420858 656.000000 74.034169 656.307692 73.647411 656.615385 73.260584 656.923077 72.873689 657.230769 72.486726 657.538462 72.099695 657.846154 71.712597 658.153846 71.325432 658.461538 70.938201 658.769231 70.550904 659.076923 70.163542 659.384615 69.776115 659.692308 69.388623 660.000000 69.001066 660.307692 68.613446 660.615385 68.225763 660.923077 67.838017 661.230769 67.450208 661.538462 67.062337 661.846154 66.674405 662.153846 66.286411 662.461538 65.898357 662.769231 65.510242 663.076923 65.122067 663.384615 64.733833 663.692308 64.345540 664.000000 63.957188 664.307692 63.568777 664.615385 63.180309 664.923077 62.791784 665.230769 62.403202 665.538462 62.014563 665.846154 61.625868 666.153846 61.237117 666.461538 60.848311 666.769231 60.459450 667.076923 60.070535 667.384615 59.681566 667.692308 59.292543 668.000000 58.903467 668.307692 58.514338 668.615385 58.125157 668.923077 57.735925 669.230769 57.346640 669.538462 56.957305 669.846154 56.567919 670.153846 56.178483 670.461538 55.788998 670.769231 55.399463 671.076923 55.009879 671.384615 54.620246 671.692308 54.230566 672.000000 53.840838 672.307692 53.451063 672.615385 53.061241 672.923077 52.671373 673.230769 52.281458 673.538462 51.891499 673.846154 51.501494 674.153846 51.111445 674.461538 50.721351 674.769231 50.331214 675.076923 49.941033 675.384615 49.550809 675.692308 49.160543 676.000000 48.770235 676.307692 48.379885 676.615385 47.989494 676.923077 47.599062 677.230769 47.208590 677.538462 46.818077 677.846154 46.427526 678.153846 46.036935 678.461538 45.646305 678.769231 45.255637 679.076923 44.864931 679.384615 44.474188 679.692308 44.083408 680.000000 43.692592 680.307692 43.301739 680.615385 42.910850 680.923077 42.519927 681.230769 42.128968 681.538462 41.737975 681.846154 41.346948 682.153846 40.955887 682.461538 40.564793 682.769231 40.173667 683.076923 39.782508 683.384615 39.391317 683.692308 39.000095 684.000000 38.608842 684.307692 38.217558 684.615385 37.826244 684.923077 37.434900 685.230769 37.043527 685.538462 36.652125 685.846154 36.260695 686.153846 35.869236 686.461538 35.477750 686.769231 35.086237 687.076923 34.694696 687.384615 34.303130 687.692308 33.911537 688.000000 33.519919 688.307692 33.128276 688.615385 32.736609 688.923077 32.344917 689.230769 31.953201 689.538462 31.561462 689.846154 31.169700 690.153846 30.777915 690.461538 30.386109 690.769231 29.994280 691.076923 29.602431 691.384615 29.210560 691.692308 28.818669 692.000000 28.426759 692.307692 28.034828 692.615385 27.642879 692.923077 27.250911 693.230769 26.858924 693.538462 26.466920 693.846154 26.074898 694.153846 25.682859 694.461538 25.290804 694.769231 24.898732 695.076923 24.506645 695.384615 24.114542 695.692308 23.722425 696.000000 23.330293 696.307692 22.938147 696.615385 22.545988 696.923077 22.153815 697.230769 21.761630 697.538462 21.369432 697.846154 20.977222 698.153846 20.585001 698.461538 20.192769 698.769231 19.800526 699.076923 19.408273 699.384615 19.016010 699.692308 18.623738 700.000000 18.231457 700.307692 17.839167 700.615385 17.446870 700.923077 17.054564 701.230769 16.662252 701.538462 16.269933 701.846154 15.877607 702.153846 15.485275 702.461538 15.092938 702.769231 14.700596 703.076923 14.308249 703.384615 13.915898 703.692308 13.523542 704.000000 13.131184 704.307692 12.738823 704.615385 12.346459 704.923077 11.954093 705.230769 11.561725 705.538462 11.169356 705.846154 10.776986 706.153846 10.384615 706.153846 540.000000" /></g></g><g class="titles" /><g class="plot overlay" transform="translate(60, 20)"><g class="series serie-0 color-0"><g class="dots"><circle class="dot reactive tooltip-trigger" cx="13.846153846153847" cy="529.6153846153846" r="2.5" /><desc class="value">854,499,937(kWh)</desc><desc class="x top">13.846153846153847</desc><desc class="y top">529.6153846153846</desc><desc class="x_label">2549</desc></g><g class="dots"><circle class="dot reactive tooltip-trigger" cx="90.76923076923076" cy="426.3508751477713" r="2.5" /><desc class="value">999,375,097(kWh)</desc><desc class="x top">90.76923076923076</desc><desc class="y top">426.3508751477713</desc><desc class="x_label">2550</desc></g><g class="dots"><circle class="dot reactive tooltip-trigger" cx="167.69230769230765" cy="428.0094991354573" r="2.5" /><desc class="value">997,048,127(kWh)</desc><desc class="x top">167.69230769230765</desc><desc class="y top">428.0094991354573</desc><desc class="x_label">2551</desc></g><g class="dots"><circle class="dot reactive tooltip-trigger" cx="244.6153846153846" cy="391.8749146799094" r="2.5" /><desc class="value">1,047,743,218(kWh)</desc><desc class="x top">244.6153846153846</desc><desc class="y top">391.8749146799094</desc><desc class="x_label">2552</desc></g><g class="dots"><circle class="dot reactive tooltip-trigger" cx="321.5384615384615" cy="317.87155897303" r="2.5" /><desc class="value">1,151,566,381(kWh)</desc><desc class="x top">321.5384615384615</desc><desc class="y top">317.87155897303</desc><desc class="x_label">2553</desc></g><g class="dots"><circle class="dot reactive tooltip-trigger" cx="398.46153846153845" cy="314.02014236699927" r="2.5" /><desc class="value">1,156,969,734(kWh)</desc><desc class="x left top">398.46153846153845</desc><desc class="y left top">314.02014236699927</desc><desc class="x_label">2554</desc></g><g class="dots"><circle class="dot reactive tooltip-trigger" cx="475.38461538461536" cy="228.73855339391434" r="2.5" /><desc class="value">1,276,615,718(kWh)</desc><desc class="x left">475.38461538461536</desc><desc class="y left">228.73855339391434</desc><desc class="x_label">2555</desc></g><g class="dots"><circle class="dot reactive tooltip-trigger" cx="552.3076923076923" cy="185.74877193811187" r="2.5" /><desc class="value">1,336,928,322(kWh)</desc><desc class="x left">552.3076923076923</desc><desc class="y left">185.74877193811187</desc><desc class="x_label">2556</desc></g><g class="dots"><circle class="dot reactive tooltip-trigger" cx="629.2307692307692" cy="107.3702198025727" r="2.5" /><desc class="value">1,446,889,676(kWh)</desc><desc class="x left">629.2307692307692</desc><desc class="y left">107.3702198025727</desc><desc class="x_label">2557</desc></g><g class="dots"><circle class="dot reactive tooltip-trigger" cx="706.1538461538461" cy="10.384615384615472" r="2.5" /><desc class="value">1,582,955,833(kWh)</desc><desc class="x left">706.1538461538461</desc><desc class="y left">10.384615384615472</desc><desc class="x_label">2558</desc></g></g></g><g class="plot text-overlay" transform="translate(60, 20)"><g class="series serie-0 color-0" /></g><g class="plot tooltip-overlay" transform="translate(60, 20)"><g class="tooltip" style="opacity: 0" transform="translate(0 0)"><rect class="tooltip-box" height="0" rx="0" ry="0" width="0" /><g class="text" /></g></g></g></svg>