<?xml version='1.0' encoding='utf-8'?>
<svg xmlns:xlink="http://www.w3.org/1999/xlink" class="pygal-chart" id="chart-32d7a008-c695-44ee-825f-5327dfc0c7d2" viewBox="0 0 800 600" xmlns="http://www.w3.org/2000/svg"><!--Generated with pygal 2.3.0 (etree) ©Kozea 2012-2016 on 2016-12-08--><!--http://pygal.org--><!--http://github.com/Kozea/pygal--><defs><style type="text/css">#chart-32d7a008-c695-44ee-825f-5327dfc0c7d2{-webkit-user-select:none;-webkit-font-smoothing:antialiased;font-family:Consolas,"Liberation Mono",Menlo,Courier,monospace}#chart-32d7a008-c695-44ee-825f-5327dfc0c7d2 .title{font-family:Consolas,"Liberation Mono",Menlo,Courier,monospace;font-size:16px}#chart-32d7a008-c695-44ee-825f-5327dfc0c7d2 .legends .legend text{font-family:Consolas,"Liberation Mono",Menlo,Courier,monospace;font-size:14px}#chart-32d7a008-c695-44ee-825f-5327dfc0c7d2 .axis text{font-family:Consolas,"Liberation Mono",Menlo,Courier,monospace;font-size:10px}#chart-32d7a008-c695-44ee-825f-5327dfc0c7d2 .axis text.major{font-family:Consolas,"Liberation Mono",Menlo,Courier,monospace;font-size:10px}#chart-32d7a008-c695-44ee-825f-5327dfc0c7d2 .text-overlay text.value{font-family:Consolas,"Liberation Mono",Menlo,Courier,monospace;font-size:16px}#chart-32d7a008-c695-44ee-825f-5327dfc0c7d2 .text-overlay text.label{font-family:Consolas,"Liberation Mono",Menlo,Courier,monospace;font-size:10px}#chart-32d7a008-c695-44ee-825f-5327dfc0c7d2 .tooltip{font-family:Consolas,"Liberation Mono",Menlo,Courier,monospace;font-size:14px}#chart-32d7a008-c695-44ee-825f-5327dfc0c7d2 text.no_data{font-family:Consolas,"Liberation Mono",Menlo,Courier,monospace;font-size:64px}
#chart-32d7a008-c695-44ee-825f-5327dfc0c7d2{background-color:rgba(249,249,249,1)}#chart-32d7a008-c695-44ee-825f-5327dfc0c7d2 path,#chart-32d7a008-c695-44ee-825f-5327dfc0c7d2 line,#chart-32d7a008-c695-44ee-825f-5327dfc0c7d2 rect,#chart-32d7a008-c695-44ee-825f-5327dfc0c7d2 circle{-webkit-transition:150ms;-moz-transition:150ms;transition:150ms}#chart-32d7a008-c695-44ee-825f-5327dfc0c7d2 .graph &gt; .background{fill:rgba(249,249,249,1)}#chart-32d7a008-c695-44ee-825f-5327dfc0c7d2 .plot &gt; .background{fill:rgba(255,255,255,1)}#chart-32d7a008-c695-44ee-825f-5327dfc0c7d2 .graph{fill:rgba(0,0,0,.87)}#chart-32d7a008-c695-44ee-825f-5327dfc0c7d2 text.no_data{fill:rgba(0,0,0,1)}#chart-32d7a008-c695-44ee-825f-5327dfc0c7d2 .title{fill:rgba(0,0,0,1)}#chart-32d7a008-c695-44ee-825f-5327dfc0c7d2 .legends .legend text{fill:rgba(0,0,0,.87)}#chart-32d7a008-c695-44ee-825f-5327dfc0c7d2 .legends .legend:hover text{fill:rgba(0,0,0,1)}#chart-32d7a008-c695-44ee-825f-5327dfc0c7d2 .axis .line{stroke:rgba(0,0,0,1)}#chart-32d7a008-c695-44ee-825f-5327dfc0c7d2 .axis .guide.line{stroke:rgba(0,0,0,.54)}#chart-32d7a008-c695-44ee-825f-5327dfc0c7d2 .axis .major.line{stroke:rgba(0,0,0,.87)}#chart-32d7a008-c695-44ee-825f-5327dfc0c7d2 .axis text.major{fill:rgba(0,0,0,1)}#chart-32d7a008-c695-44ee-825f-5327dfc0c7d2 .axis.y .guides:hover .guide.line,#chart-32d7a008-c695-44ee-825f-5327dfc0c7d2 .line-graph .axis.x .guides:hover .guide.line,#chart-32d7a008-c695-44ee-825f-5327dfc0c7d2 .stackedline-graph .axis.x .guides:hover .guide.line,#chart-32d7a008-c695-44ee-825f-5327dfc0c7d2 .xy-graph .axis.x .guides:hover .guide.line{stroke:rgba(0,0,0,1)}#chart-32d7a008-c695-44ee-825f-5327dfc0c7d2 .axis .guides:hover text{fill:rgba(0,0,0,1)}#chart-32d7a008-c695-44ee-825f-5327dfc0c7d2 .reactive{fill-opacity:.7;stroke-opacity:.8}#chart-32d7a008-c695-44ee-825f-5327dfc0c7d2 .ci{stroke:rgba(0,0,0,.87)}#chart-32d7a008-c695-44ee-825f-5327dfc0c7d2 .reactive.active,#chart-32d7a008-c695-44ee-825f-5327dfc0c7d2 .active .reactive{fill-opacity:.8;stroke-opacity:.9;stroke-width:4}#chart-32d7a008-c695-44ee-825f-5327dfc0c7d2 .ci .reactive.active{stroke-width:1.5}#chart-32d7a008-c695-44ee-825f-5327dfc0c7d2 .series text{fill:rgba(0,0,0,1)}#chart-32d7a008-c695-44ee-825f-5327dfc0c7d2 .tooltip rect{fill:rgba(255,255,255,1);stroke:rgba(0,0,0,1);-webkit-transition:opacity 150ms;-moz-transition:opacity 150ms;transition:opacity 150ms}#chart-32d7a008-c695-44ee-825f-5327dfc0c7d2 .tooltip .label{fill:rgba(0,0,0,.87)}#chart-32d7a008-c695-44ee-825f-5327dfc0c7d2 .tooltip .label{fill:rgba(0,0,0,.87)}#chart-32d7a008-c695-44ee-825f-5327dfc0c7d2 .tooltip .legend{font-size:.8em;fill:rgba(0,0,0,.54)}#chart-32d7a008-c695-44ee-825f-5327dfc0c7d2 .tooltip .x_label{font-size:.6em;fill:rgba(0,0,0,1)}#chart-32d7a008-c695-44ee-825f-5327dfc0c7d2 .tooltip .xlink{font-size:.5em;text-decoration:underline}#chart-32d7a008-c695-44ee-825f-5327dfc0c7d2 .tooltip .value{font-size:1.5em}#chart-32d7a008-c695-44ee-825f-5327dfc0c7d2 .bound{font-size:.5em}#chart-32d7a008-c695-44ee-825f-5327dfc0c7d2 .max-value{font-size:.75em;fill:rgba(0,0,0,.54)}#chart-32d7a008-c695-44ee-825f-5327dfc0c7d2 .map-element{fill:rgba(255,255,255,1);stroke:rgba(0,0,0,.54) !important}#chart-32d7a008-c695-44ee-825f-5327dfc0c7d2 .map-element .reactive{fill-opacity:inherit;stroke-opacity:inherit}#chart-32d7a008-c695-44ee-825f-5327dfc0c7d2 .color-0,#chart-32d7a008-c695-44ee-825f-5327dfc0c7d2 .color-0 a:visited{stroke:#e86fa0;fill:#e86fa0}#chart-32d7a008-c695-44ee-825f-5327dfc0c7d2 .text-overlay .color-0 text{fill:black}
#chart-32d7a008-c695-44ee-825f-5327dfc0c7d2 text.no_data{text-anchor:middle}#chart-32d7a008-c695-44ee-825f-5327dfc0c7d2 .guide.line{fill:none}#chart-32d7a008-c695-44ee-825f-5327dfc0c7d2 .centered{text-anchor:middle}#chart-32d7a008-c695-44ee-825f-5327dfc0c7d2 .title{text-anchor:middle}#chart-32d7a008-c695-44ee-825f-5327dfc0c7d2 .legends .legend text{fill-opacity:1}#chart-32d7a008-c695-44ee-825f-5327dfc0c7d2 .axis.x text{text-anchor:middle}#chart-32d7a008-c695-44ee-825f-5327dfc0c7d2 .axis.x:not(.web) text[transform]{text-anchor:start}#chart-32d7a008-c695-44ee-825f-5327dfc0c7d2 .axis.x:not(.web) text[transform].backwards{text-anchor:end}#chart-32d7a008-c695-44ee-825f-5327dfc0c7d2 .axis.y text{text-anchor:end}#chart-32d7a008-c695-44ee-825f-5327dfc0c7d2 .axis.y text[transform].backwards{text-anchor:start}#chart-32d7a008-c695-44ee-825f-5327dfc0c7d2 .axis.y2 text{text-anchor:start}#chart-32d7a008-c695-44ee-825f-5327dfc0c7d2 .axis.y2 text[transform].backwards{text-anchor:end}#chart-32d7a008-c695-44ee-825f-5327dfc0c7d2 .axis .guide.line{stroke-dasharray:4,4}#chart-32d7a008-c695-44ee-825f-5327dfc0c7d2 .axis .major.guide.line{stroke-dasharray:6,6}#chart-32d7a008-c695-44ee-825f-5327dfc0c7d2 .horizontal .axis.y .guide.line,#chart-32d7a008-c695-44ee-825f-5327dfc0c7d2 .horizontal .axis.y2 .guide.line,#chart-32d7a008-c695-44ee-825f-5327dfc0c7d2 .vertical .axis.x .guide.line{opacity:0}#chart-32d7a008-c695-44ee-825f-5327dfc0c7d2 .horizontal .axis.always_show .guide.line,#chart-32d7a008-c695-44ee-825f-5327dfc0c7d2 .vertical .axis.always_show .guide.line{opacity:1 !important}#chart-32d7a008-c695-44ee-825f-5327dfc0c7d2 .axis.y .guides:hover .guide.line,#chart-32d7a008-c695-44ee-825f-5327dfc0c7d2 .axis.y2 .guides:hover .guide.line,#chart-32d7a008-c695-44ee-825f-5327dfc0c7d2 .axis.x .guides:hover .guide.line{opacity:1}#chart-32d7a008-c695-44ee-825f-5327dfc0c7d2 .axis .guides:hover text{opacity:1}#chart-32d7a008-c695-44ee-825f-5327dfc0c7d2 .nofill{fill:none}#chart-32d7a008-c695-44ee-825f-5327dfc0c7d2 .subtle-fill{fill-opacity:.2}#chart-32d7a008-c695-44ee-825f-5327dfc0c7d2 .dot{stroke-width:1px;fill-opacity:1}#chart-32d7a008-c695-44ee-825f-5327dfc0c7d2 .dot.active{stroke-width:5px}#chart-32d7a008-c695-44ee-825f-5327dfc0c7d2 .dot.negative{fill:transparent}#chart-32d7a008-c695-44ee-825f-5327dfc0c7d2 text,#chart-32d7a008-c695-44ee-825f-5327dfc0c7d2 tspan{stroke:none !important}#chart-32d7a008-c695-44ee-825f-5327dfc0c7d2 .series text.active{opacity:1}#chart-32d7a008-c695-44ee-825f-5327dfc0c7d2 .tooltip rect{fill-opacity:.95;stroke-width:.5}#chart-32d7a008-c695-44ee-825f-5327dfc0c7d2 .tooltip text{fill-opacity:1}#chart-32d7a008-c695-44ee-825f-5327dfc0c7d2 .showable{visibility:hidden}#chart-32d7a008-c695-44ee-825f-5327dfc0c7d2 .showable.shown{visibility:visible}#chart-32d7a008-c695-44ee-825f-5327dfc0c7d2 .gauge-background{fill:rgba(229,229,229,1);stroke:none}#chart-32d7a008-c695-44ee-825f-5327dfc0c7d2 .bg-lines{stroke:rgba(249,249,249,1);stroke-width:2px}</style><script type="text/javascript">window.pygal = window.pygal || {};window.pygal.config = window.pygal.config || {};window.pygal.config['32d7a008-c695-44ee-825f-5327dfc0c7d2'] = {"no_data_text": "No data", "no_prefix": false, "xrange": null, "print_values_position": "center", "truncate_label": null, "x_labels": ["2549", "2550", "2551", "2552", "2553", "2554", "2555", "2556", "2557", "2558"], "title": null, "force_uri_protocol": "https", "defs": [], "formatter": null, "classes": ["pygal-chart"], "y_labels": null, "rounded_bars": null, "explicit_size": false, "x_labels_major_every": null, "legend_at_bottom_columns": null, "stroke_style": null, "half_pie": false, "spacing": 10, "tooltip_fancy_mode": true, "inverse_y_axis": false, "width": 800, "inner_radius": 0, "interpolation_parameters": {}, "tooltip_border_radius": 0, "style": {"no_data_font_family": "Consolas, \"Liberation Mono\", Menlo, Courier, monospace", "tooltip_font_size": 14, "tooltip_font_family": "Consolas, \"Liberation Mono\", Menlo, Courier, monospace", "stroke_opacity_hover": ".9", "legend_font_family": "Consolas, \"Liberation Mono\", Menlo, Courier, monospace", "font_family": "Consolas, \"Liberation Mono\", Menlo, Courier, monospace", "title_font_family": "Consolas, \"Liberation Mono\", Menlo, Courier, monospace", "background": "rgba(249, 249, 249, 1)", "stroke_opacity": ".8", "foreground": "rgba(0, 0, 0, .87)", "value_background": "rgba(229, 229, 229, 1)", "guide_stroke_dasharray": "4,4", "foreground_subtle": "rgba(0, 0, 0, .54)", "opacity_hover": ".8", "value_font_family": "Consolas, \"Liberation Mono\", Menlo, Courier, monospace", "value_label_font_size": 10, "plot_background": "rgba(255, 255, 255, 1)", "ci_colors": [], "label_font_size": 10, "major_label_font_size": 10, "title_font_size": 16, "no_data_font_size": 64, "value_font_size": 16, "value_colors": [], "label_font_family": "Consolas, \"Liberation Mono\", Menlo, Courier, monospace", "major_guide_stroke_dasharray": "6,6", "transition": "150ms", "foreground_strong": "rgba(0, 0, 0, 1)", "colors": ["#e86fa0", "#e88f6f", "#e8df6f", "#a0e86f", "#6fe88f", "#6fe8df", "#6fa0e8", "#8f6fe8", "#df6fe8", "#e86fa0"], "opacity": ".7", "legend_font_size": 14, "value_label_font_family": "Consolas, \"Liberation Mono\", Menlo, Courier, monospace", "major_label_font_family": "Consolas, \"Liberation Mono\", Menlo, Courier, monospace"}, "x_labels_major_count": null, "interpolation_precision": 250, "missing_value_fill_truncation": "x", "stack_from_top": false, "truncate_legend": null, "show_minor_x_labels": true, "print_zeroes": true, "css": ["file://style.css", "file://graph.css"], "y_label_rotation": 0, "legend_at_bottom": false, "print_values": false, "margin_top": null, "max_scale": 16, "allow_interruptions": false, "show_x_labels": true, "strict": false, "show_x_guides": false, "stroke": true, "margin_left": null, "dynamic_print_values": false, "print_labels": false, "show_y_labels": true, "x_labels_major": null, "range": null, "x_label_rotation": 0, "margin": 20, "zero": 0, "include_x_axis": false, "height": 600, "show_minor_y_labels": true, "show_dots": true, "interpolate": "cubic", "show_y_guides": true, "y_labels_major": null, "box_mode": "extremes", "margin_bottom": null, "order_min": null, "legend_box_size": 12, "fill": true, "show_only_major_dots": false, "js": ["//kozea.github.io/pygal.js/2.0.x/pygal-tooltips.min.js"], "x_title": null, "y_labels_major_every": null, "y_labels_major_count": null, "disable_xml_declaration": false, "y_title": null, "logarithmic": false, "pretty_print": false, "min_scale": 4, "dots_size": 2.5, "margin_right": null, "legends": [null], "secondary_range": null, "show_legend": false}</script><script type="text/javascript" xlink:href="https://kozea.github.io/pygal.js/2.0.x/pygal-tooltips.min.js" /></defs><title>Pygal</title><g class="graph stackedline-graph vertical"><rect class="background" height="600" width="800" x="0" y="0" /><g class="plot" transform="translate(60, 20)"><rect class="background" height="540" width="720.0" x="0" y="0" /><g class="axis y"><path class="line" d="M0.000000 540.000000 h720.000000" /><g class="guides"><path class="guide line" d="M0.000000 509.992458 h720.000000" /><text class="" x="-5" y="513.4924580352076">1300M</text><title>1300M</title></g><g class="guides"><path class="guide line" d="M0.000000 452.170411 h720.000000" /><text class="" x="-5" y="455.6704105820056">1400M</text><title>1400M</title></g><g class="guides"><path class="major guide line" d="M0.000000 394.348363 h720.000000" /><text class="major" x="-5" y="397.8483631288035">1500M</text><title>1500M</title></g><g class="guides"><path class="guide line" d="M0.000000 336.526316 h720.000000" /><text class="" x="-5" y="340.02631567560144">1600M</text><title>1600M</title></g><g class="guides"><path class="guide line" d="M0.000000 278.704268 h720.000000" /><text class="" x="-5" y="282.2042682223994">1700M</text><title>1700M</title></g><g class="guides"><path class="guide line" d="M0.000000 220.882221 h720.000000" /><text class="" x="-5" y="224.38222076919726">1800M</text><title>1800M</title></g><g class="guides"><path class="guide line" d="M0.000000 163.060173 h720.000000" /><text class="" x="-5" y="166.5601733159952">1900M</text><title>1900M</title></g><g class="guides"><path class="major guide line" d="M0.000000 105.238126 h720.000000" /><text class="major" x="-5" y="108.73812586279314">2000M</text><title>2000M</title></g><g class="guides"><path class="guide line" d="M0.000000 47.416078 h720.000000" /><text class="" x="-5" y="50.91607840959102">2100M</text><title>2100M</title></g></g><g class="axis x"><g class="guides"><path class="line" d="M13.846154 0.000000 v540.000000" /><text class="" x="13.846153846153847" y="555.0">2549</text></g><g class="guides"><path class="guide line" d="M90.769231 0.000000 v540.000000" /><text class="" x="90.76923076923076" y="555.0">2550</text></g><g class="guides"><path class="guide line" d="M167.692308 0.000000 v540.000000" /><text class="" x="167.69230769230765" y="555.0">2551</text></g><g class="guides"><path class="guide line" d="M244.615385 0.000000 v540.000000" /><text class="" x="244.6153846153846" y="555.0">2552</text></g><g class="guides"><path class="guide line" d="M321.538462 0.000000 v540.000000" /><text class="" x="321.5384615384615" y="555.0">2553</text></g><g class="guides"><path class="guide line" d="M398.461538 0.000000 v540.000000" /><text class="" x="398.46153846153845" y="555.0">2554</text></g><g class="guides"><path class="guide line" d="M475.384615 0.000000 v540.000000" /><text class="" x="475.38461538461536" y="555.0">2555</text></g><g class="guides"><path class="guide line" d="M552.307692 0.000000 v540.000000" /><text class="" x="552.3076923076923" y="555.0">2556</text></g><g class="guides"><path class="guide line" d="M629.230769 0.000000 v540.000000" /><text class="" x="629.2307692307692" y="555.0">2557</text></g><g class="guides"><path class="guide line" d="M706.153846 0.000000 v540.000000" /><text class="" x="706.1538461538461" y="555.0">2558</text></g></g><g class="series serie-0 color-0"><path class="line reactive" d="M13.846154 540.000000 L13.846154 529.615385 14.153846 529.373410 14.461538 529.131436 14.769231 528.889464 15.076923 528.647496 15.384615 528.405533 15.692308 528.163575 16.000000 527.921624 16.307692 527.679680 16.615385 527.437746 16.923077 527.195822 17.230769 526.953910 17.538462 526.712009 17.846154 526.470123 18.153846 526.228251 18.461538 525.986394 18.769231 525.744555 19.076923 525.502734 19.384615 525.260932 19.692308 525.019151 20.000000 524.777390 20.307692 524.535653 20.615385 524.293939 20.923077 524.052250 21.230769 523.810587 21.538462 523.568952 21.846154 523.327344 22.153846 523.085766 22.461538 522.844219 22.769231 522.602703 23.076923 522.361219 23.384615 522.119770 23.692308 521.878356 24.000000 521.636978 24.307692 521.395637 24.615385 521.154335 24.923077 520.913072 25.230769 520.671850 25.538462 520.430670 25.846154 520.189533 26.153846 519.948440 26.461538 519.707392 26.769231 519.466390 27.076923 519.225436 27.384615 518.984531 27.692308 518.743675 28.000000 518.502870 28.307692 518.262118 28.615385 518.021418 28.923077 517.780772 29.230769 517.540182 29.538462 517.299649 29.846154 517.059173 30.153846 516.818756 30.461538 516.578399 30.769231 516.338102 31.076923 516.097868 31.384615 515.857698 31.692308 515.617592 32.000000 515.377551 32.307692 515.137577 32.615385 514.897671 32.923077 514.657834 33.230769 514.418067 33.538462 514.178371 33.846154 513.938747 34.153846 513.699197 34.461538 513.459722 34.769231 513.220322 35.076923 512.980999 35.384615 512.741755 35.692308 512.502589 36.000000 512.263503 36.307692 512.024499 36.615385 511.785578 36.923077 511.546740 37.230769 511.307987 37.538462 511.069320 37.846154 510.830740 38.153846 510.592248 38.461538 510.353845 38.769231 510.115533 39.076923 509.877313 39.384615 509.639185 39.692308 509.401151 40.000000 509.163211 40.307692 508.925368 40.615385 508.687623 40.923077 508.449975 41.230769 508.212427 41.538462 507.974980 41.846154 507.737634 42.153846 507.500391 42.461538 507.263253 42.769231 507.026219 43.076923 506.789292 43.384615 506.552472 43.692308 506.315760 44.000000 506.079159 44.307692 505.842668 44.615385 505.606289 44.923077 505.370023 45.230769 505.133871 45.538462 504.897834 45.846154 504.661914 46.153846 504.426112 46.461538 504.190428 46.769231 503.954864 47.076923 503.719421 47.384615 503.484100 47.692308 503.248902 48.000000 503.013829 48.307692 502.778881 48.615385 502.544060 48.923077 502.309366 49.230769 502.074801 49.538462 501.840367 49.846154 501.606063 50.153846 501.371892 50.461538 501.137854 50.769231 500.903951 51.076923 500.670183 51.384615 500.436552 51.692308 500.203059 52.000000 499.969705 52.307692 499.736491 52.615385 499.503419 52.923077 499.270489 53.230769 499.037703 53.538462 498.805061 53.846154 498.572565 54.153846 498.340216 54.461538 498.108015 54.769231 497.875964 55.076923 497.644062 55.384615 497.412312 55.692308 497.180715 56.000000 496.949272 56.307692 496.717983 56.615385 496.486851 56.923077 496.255875 57.230769 496.025058 57.538462 495.794400 57.846154 495.563903 58.153846 495.333568 58.461538 495.103395 58.769231 494.873386 59.076923 494.643542 59.384615 494.413864 59.692308 494.184354 60.000000 493.955012 60.307692 493.725840 60.615385 493.496838 60.923077 493.268009 61.230769 493.039352 61.538462 492.810869 61.846154 492.582561 62.153846 492.354430 62.461538 492.126477 62.769231 491.898702 63.076923 491.671106 63.384615 491.443692 63.692308 491.216459 64.000000 490.989410 64.307692 490.762545 64.615385 490.535865 64.923077 490.309372 65.230769 490.083067 65.538462 489.856950 65.846154 489.631023 66.153846 489.405288 66.461538 489.179744 66.769231 488.954394 67.076923 488.729238 67.384615 488.504278 67.692308 488.279515 68.000000 488.054949 68.307692 487.830582 68.615385 487.606416 68.923077 487.382450 69.230769 487.158687 69.538462 486.935128 69.846154 486.711773 70.153846 486.488623 70.461538 486.265681 70.769231 486.042947 71.076923 485.820422 71.384615 485.598107 71.692308 485.376003 72.000000 485.154112 72.307692 484.932435 72.615385 484.710973 72.923077 484.489726 73.230769 484.268696 73.538462 484.047885 73.846154 483.827293 74.153846 483.606921 74.461538 483.386771 74.769231 483.166844 75.076923 482.947140 75.384615 482.727662 75.692308 482.508409 76.000000 482.289384 76.307692 482.070587 76.615385 481.852020 76.923077 481.633683 77.230769 481.415578 77.538462 481.197706 77.846154 480.980068 78.153846 480.762665 78.461538 480.545498 78.769231 480.328569 79.076923 480.111878 79.384615 479.895427 79.692308 479.679216 80.000000 479.463248 80.307692 479.247523 80.615385 479.032041 80.923077 478.816805 81.230769 478.601816 81.538462 478.387074 81.846154 478.172581 82.153846 477.958338 82.461538 477.744345 82.769231 477.530605 83.076923 477.317118 83.384615 477.103885 83.692308 476.890908 84.000000 476.678187 84.307692 476.465724 84.615385 476.253520 84.923077 476.041576 85.230769 475.829894 85.538462 475.618473 85.846154 475.407316 86.153846 475.196423 86.461538 474.985796 86.769231 474.775436 87.076923 474.565344 87.384615 474.355521 87.692308 474.145968 88.000000 473.936686 88.307692 473.727677 88.615385 473.518941 88.923077 473.310480 89.230769 473.102295 89.538462 472.894387 89.846154 472.686756 90.153846 472.479406 90.461538 472.272335 90.769231 472.065546 91.076923 471.859039 91.384615 471.652814 91.692308 471.446868 92.000000 471.241201 92.307692 471.035812 92.615385 470.830699 92.923077 470.625860 93.230769 470.421295 93.538462 470.217003 93.846154 470.012981 94.153846 469.809228 94.461538 469.605744 94.769231 469.402527 95.076923 469.199576 95.384615 468.996889 95.692308 468.794465 96.000000 468.592303 96.307692 468.390402 96.615385 468.188759 96.923077 467.987375 97.230769 467.786247 97.538462 467.585374 97.846154 467.384756 98.153846 467.184390 98.461538 466.984275 98.769231 466.784410 99.076923 466.584794 99.384615 466.385426 99.692308 466.186304 100.000000 465.987426 100.307692 465.788792 100.615385 465.590401 100.923077 465.392250 101.230769 465.194339 101.538462 464.996666 101.846154 464.799231 102.153846 464.602031 102.461538 464.405065 102.769231 464.208333 103.076923 464.011833 103.384615 463.815563 103.692308 463.619522 104.000000 463.423709 104.307692 463.228123 104.615385 463.032762 104.923077 462.837625 105.230769 462.642711 105.538462 462.448018 105.846154 462.253546 106.153846 462.059292 106.461538 461.865255 106.769231 461.671435 107.076923 461.477830 107.384615 461.284438 107.692308 461.091259 108.000000 460.898291 108.307692 460.705532 108.615385 460.512982 108.923077 460.320639 109.230769 460.128501 109.538462 459.936568 109.846154 459.744839 110.153846 459.553311 110.461538 459.361984 110.769231 459.170856 111.076923 458.979926 111.384615 458.789192 111.692308 458.598654 112.000000 458.408310 112.307692 458.218159 112.615385 458.028199 112.923077 457.838430 113.230769 457.648849 113.538462 457.459456 113.846154 457.270249 114.153846 457.081227 114.461538 456.892389 114.769231 456.703733 115.076923 456.515258 115.384615 456.326963 115.692308 456.138846 116.000000 455.950907 116.307692 455.763143 116.615385 455.575554 116.923077 455.388138 117.230769 455.200893 117.538462 455.013820 117.846154 454.826916 118.153846 454.640180 118.461538 454.453610 118.769231 454.267206 119.076923 454.080966 119.384615 453.894889 119.692308 453.708974 120.000000 453.523219 120.307692 453.337622 120.615385 453.152183 120.923077 452.966901 121.230769 452.781773 121.538462 452.596799 121.846154 452.411978 122.153846 452.227307 122.461538 452.042787 122.769231 451.858415 123.076923 451.674190 123.384615 451.490111 123.692308 451.306176 124.000000 451.122385 124.307692 450.938736 124.615385 450.755227 124.923077 450.571858 125.230769 450.388627 125.538462 450.205533 125.846154 450.022574 126.153846 449.839749 126.461538 449.657057 126.769231 449.474497 127.076923 449.292067 127.384615 449.109766 127.692308 448.927593 128.000000 448.745545 128.307692 448.563623 128.615385 448.381825 128.923077 448.200149 129.230769 448.018595 129.538462 447.837160 129.846154 447.655843 130.153846 447.474644 130.461538 447.293561 130.769231 447.112592 131.076923 446.931737 131.384615 446.750994 131.692308 446.570361 132.000000 446.389838 132.307692 446.209423 132.615385 446.029115 132.923077 445.848913 133.230769 445.668814 133.538462 445.488819 133.846154 445.308925 134.153846 445.129131 134.461538 444.949436 134.769231 444.769839 135.076923 444.590339 135.384615 444.410934 135.692308 444.231622 136.000000 444.052403 136.307692 443.873275 136.615385 443.694237 136.923077 443.515287 137.230769 443.336425 137.538462 443.157649 137.846154 442.978957 138.153846 442.800349 138.461538 442.621823 138.769231 442.443377 139.076923 442.265012 139.384615 442.086724 139.692308 441.908513 140.000000 441.730378 140.307692 441.552317 140.615385 441.374328 140.923077 441.196412 141.230769 441.018566 141.538462 440.840789 141.846154 440.663080 142.153846 440.485437 142.461538 440.307859 142.769231 440.130345 143.076923 439.952894 143.384615 439.775504 143.692308 439.598173 144.000000 439.420902 144.307692 439.243688 144.615385 439.066530 144.923077 438.889426 145.230769 438.712376 145.538462 438.535378 145.846154 438.358431 146.153846 438.181533 146.461538 438.004684 146.769231 437.827881 147.076923 437.651125 147.384615 437.474412 147.692308 437.297742 148.000000 437.121115 148.307692 436.944527 148.615385 436.767979 148.923077 436.591468 149.230769 436.414994 149.538462 436.238555 149.846154 436.062150 150.153846 435.885778 150.461538 435.709437 150.769231 435.533126 151.076923 435.356843 151.384615 435.180588 151.692308 435.004359 152.000000 434.828155 152.307692 434.651974 152.615385 434.475815 152.923077 434.299678 153.230769 434.123559 153.538462 433.947459 153.846154 433.771376 154.153846 433.595309 154.461538 433.419256 154.769231 433.243216 155.076923 433.067188 155.384615 432.891170 155.692308 432.715162 156.000000 432.539161 156.307692 432.363167 156.615385 432.187178 156.923077 432.011193 157.230769 431.835210 157.538462 431.659229 157.846154 431.483248 158.153846 431.307266 158.461538 431.131281 158.769231 430.955292 159.076923 430.779299 159.384615 430.603298 159.692308 430.427290 160.000000 430.251273 160.307692 430.075245 160.615385 429.899206 160.923077 429.723153 161.230769 429.547087 161.538462 429.371004 161.846154 429.194905 162.153846 429.018788 162.461538 428.842651 162.769231 428.666493 163.076923 428.490313 163.384615 428.314110 163.692308 428.137882 164.000000 427.961628 164.307692 427.785347 164.615385 427.609037 164.923077 427.432698 165.230769 427.256327 165.538462 427.079923 165.846154 426.903486 166.153846 426.727013 166.461538 426.550504 166.769231 426.373958 167.076923 426.197372 167.384615 426.020746 167.692308 425.844078 168.000000 425.667366 168.307692 425.490603 168.615385 425.313781 168.923077 425.136891 169.230769 424.959925 169.538462 424.782875 169.846154 424.605733 170.153846 424.428490 170.461538 424.251138 170.769231 424.073670 171.076923 423.896076 171.384615 423.718349 171.692308 423.540480 172.000000 423.362461 172.307692 423.184284 172.615385 423.005940 172.923077 422.827422 173.230769 422.648722 173.538462 422.469830 173.846154 422.290738 174.153846 422.111440 174.461538 421.931925 174.769231 421.752187 175.076923 421.572216 175.384615 421.392005 175.692308 421.211545 176.000000 421.030829 176.307692 420.849847 176.615385 420.668592 176.923077 420.487055 177.230769 420.305229 177.538462 420.123104 177.846154 419.940674 178.153846 419.757928 178.461538 419.574860 178.769231 419.391462 179.076923 419.207723 179.384615 419.023638 179.692308 418.839197 180.000000 418.654392 180.307692 418.469215 180.615385 418.283657 180.923077 418.097711 181.230769 417.911369 181.538462 417.724621 181.846154 417.537460 182.153846 417.349878 182.461538 417.161866 182.769231 416.973416 183.076923 416.784519 183.384615 416.595169 183.692308 416.405356 184.000000 416.215072 184.307692 416.024309 184.615385 415.833059 184.923077 415.641313 185.230769 415.449063 185.538462 415.256302 185.846154 415.063020 186.153846 414.869210 186.461538 414.674863 186.769231 414.479971 187.076923 414.284526 187.384615 414.088520 187.692308 413.891944 188.000000 413.694791 188.307692 413.497051 188.615385 413.298717 188.923077 413.099781 189.230769 412.900234 189.538462 412.700068 189.846154 412.499274 190.153846 412.297846 190.461538 412.095774 190.769231 411.893049 191.076923 411.689665 191.384615 411.485613 191.692308 411.280884 192.000000 411.075470 192.307692 410.869363 192.615385 410.662555 192.923077 410.455037 193.230769 410.246802 193.538462 410.037841 193.846154 409.828146 194.153846 409.617708 194.461538 409.406520 194.769231 409.194573 195.076923 408.981859 195.384615 408.768369 195.692308 408.554096 196.000000 408.339031 196.307692 408.123167 196.615385 407.906494 196.923077 407.689004 197.230769 407.470690 197.538462 407.251544 197.846154 407.031556 198.153846 406.810718 198.461538 406.589023 198.769231 406.366463 199.076923 406.143028 199.384615 405.918711 199.692308 405.693503 200.000000 405.467397 200.307692 405.240384 200.615385 405.012456 200.923077 404.783604 201.230769 404.553820 201.538462 404.323097 201.846154 404.091426 202.153846 403.858798 202.461538 403.625206 202.769231 403.390641 203.076923 403.155095 203.384615 402.918560 203.692308 402.681027 204.000000 402.442489 204.307692 402.202936 204.615385 401.962362 204.923077 401.720757 205.230769 401.478114 205.538462 401.234423 205.846154 400.989678 206.153846 400.743869 206.461538 400.496989 206.769231 400.249029 207.076923 399.999982 207.384615 399.749837 207.692308 399.498589 208.000000 399.246228 208.307692 398.992746 208.615385 398.738135 208.923077 398.482386 209.230769 398.225492 209.538462 397.967444 209.846154 397.708234 210.153846 397.447854 210.461538 397.186295 210.769231 396.923550 211.076923 396.659610 211.384615 396.394466 211.692308 396.128111 212.000000 395.860537 212.307692 395.591734 212.615385 395.321696 212.923077 395.050413 213.230769 394.777877 213.538462 394.504081 213.846154 394.229016 214.153846 393.952674 214.461538 393.675046 214.769231 393.396124 215.076923 393.115901 215.384615 392.834367 215.692308 392.551515 216.000000 392.267337 216.307692 391.981823 216.615385 391.694967 216.923077 391.406759 217.230769 391.117191 217.538462 390.826256 217.846154 390.533945 218.153846 390.240250 218.461538 389.945162 218.769231 389.648674 219.076923 389.350777 219.384615 389.051463 219.692308 388.750723 220.000000 388.448550 220.307692 388.144934 220.615385 387.839869 220.923077 387.533346 221.230769 387.225356 221.538462 386.915891 221.846154 386.604944 222.153846 386.292505 222.461538 385.978567 222.769231 385.663121 223.076923 385.346160 223.384615 385.027674 223.692308 384.707656 224.000000 384.386097 224.307692 384.062990 224.615385 383.738326 224.923077 383.412096 225.230769 383.084293 225.538462 382.754908 225.846154 382.423934 226.153846 382.091361 226.461538 381.757182 226.769231 381.421388 227.076923 381.083971 227.384615 380.744923 227.692308 380.404236 228.000000 380.061902 228.307692 379.717912 228.615385 379.372257 228.923077 379.024931 229.230769 378.675924 229.538462 378.325229 229.846154 377.972836 230.153846 377.618739 230.461538 377.262928 230.769231 376.905395 231.076923 376.546133 231.384615 376.185133 231.692308 375.822386 232.000000 375.457885 232.307692 375.091621 232.615385 374.723586 232.923077 374.353772 233.230769 373.982171 233.538462 373.608774 233.846154 373.233573 234.153846 372.856560 234.461538 372.477727 234.769231 372.097065 235.076923 371.714567 235.384615 371.330223 235.692308 370.944026 236.000000 370.555968 236.307692 370.166040 236.615385 369.774234 236.923077 369.380542 237.230769 368.984956 237.538462 368.587467 237.846154 368.188067 238.153846 367.786748 238.461538 367.383502 238.769231 366.978320 239.076923 366.571194 239.384615 366.162117 239.692308 365.751079 240.000000 365.338073 240.307692 364.923090 240.615385 364.506123 240.923077 364.087162 241.230769 363.666200 241.538462 363.243228 241.846154 362.818239 242.153846 362.391223 242.461538 361.962173 242.769231 361.531081 243.076923 361.097938 243.384615 360.662736 243.692308 360.225467 244.000000 359.786122 244.307692 359.344694 244.615385 358.901174 244.923077 358.455560 245.230769 358.007872 245.538462 357.558139 245.846154 357.106388 246.153846 356.652645 246.461538 356.196937 246.769231 355.739292 247.076923 355.279738 247.384615 354.818300 247.692308 354.355007 248.000000 353.889885 248.307692 353.422961 248.615385 352.954263 248.923077 352.483819 249.230769 352.011654 249.538462 351.537796 249.846154 351.062272 250.153846 350.585110 250.461538 350.106337 250.769231 349.625979 251.076923 349.144064 251.384615 348.660620 251.692308 348.175672 252.000000 347.689249 252.307692 347.201377 252.615385 346.712084 252.923077 346.221396 253.230769 345.729342 253.538462 345.235948 253.846154 344.741240 254.153846 344.245248 254.461538 343.747997 254.769231 343.249514 255.076923 342.749827 255.384615 342.248963 255.692308 341.746950 256.000000 341.243814 256.307692 340.739582 256.615385 340.234281 256.923077 339.727940 257.230769 339.220584 257.538462 338.712241 257.846154 338.202938 258.153846 337.692703 258.461538 337.181562 258.769231 336.669543 259.076923 336.156673 259.384615 335.642978 259.692308 335.128487 260.000000 334.613225 260.307692 334.097222 260.615385 333.580502 260.923077 333.063094 261.230769 332.545026 261.538462 332.026323 261.846154 331.507013 262.153846 330.987123 262.461538 330.466681 262.769231 329.945713 263.076923 329.424247 263.384615 328.902310 263.692308 328.379929 264.000000 327.857131 264.307692 327.333943 264.615385 326.810393 264.923077 326.286507 265.230769 325.762314 265.538462 325.237839 265.846154 324.713110 266.153846 324.188154 266.461538 323.662998 266.769231 323.137670 267.076923 322.612197 267.384615 322.086606 267.692308 321.560923 268.000000 321.035176 268.307692 320.509393 268.615385 319.983600 268.923077 319.457825 269.230769 318.932094 269.538462 318.406435 269.846154 317.880875 270.153846 317.355442 270.461538 316.830161 270.769231 316.305061 271.076923 315.780169 271.384615 315.255511 271.692308 314.731115 272.000000 314.207008 272.307692 313.683218 272.615385 313.159770 272.923077 312.636693 273.230769 312.114014 273.538462 311.591759 273.846154 311.069957 274.153846 310.548633 274.461538 310.027816 274.769231 309.507532 275.076923 308.987809 275.384615 308.468673 275.692308 307.950152 276.000000 307.432273 276.307692 306.915063 276.615385 306.398549 276.923077 305.882759 277.230769 305.367719 277.538462 304.853457 277.846154 304.340000 278.153846 303.827375 278.461538 303.315609 278.769231 302.804729 279.076923 302.294763 279.384615 301.785737 279.692308 301.277680 280.000000 300.770617 280.307692 300.264576 280.615385 299.759584 280.923077 299.255668 281.230769 298.752856 281.538462 298.251175 281.846154 297.750652 282.153846 297.251313 282.461538 296.753187 282.769231 296.256299 283.076923 295.760679 283.384615 295.266351 283.692308 294.773345 284.000000 294.281686 284.307692 293.791402 284.615385 293.302520 284.923077 292.815068 285.230769 292.329072 285.538462 291.844559 285.846154 291.361558 286.153846 290.880094 286.461538 290.400195 286.769231 289.921889 287.076923 289.445201 287.384615 288.970161 287.692308 288.496793 288.000000 288.025127 288.307692 287.555188 288.615385 287.087005 288.923077 286.620604 289.230769 286.156012 289.538462 285.693257 289.846154 285.232365 290.153846 284.773364 290.461538 284.316281 290.769231 283.861143 291.076923 283.407978 291.384615 282.956812 291.692308 282.507672 292.000000 282.060586 292.307692 281.615581 292.615385 281.172684 292.923077 280.731923 293.230769 280.293323 293.538462 279.856913 293.846154 279.422720 294.153846 278.990770 294.461538 278.561091 294.769231 278.133710 295.076923 277.708655 295.384615 277.285952 295.692308 276.865628 296.000000 276.447711 296.307692 276.032227 296.615385 275.619205 296.923077 275.208671 297.230769 274.800652 297.538462 274.395175 297.846154 273.992268 298.153846 273.591958 298.461538 273.194271 298.769231 272.799236 299.076923 272.406878 299.384615 272.017226 299.692308 271.630306 300.000000 271.246146 300.307692 270.864773 300.615385 270.486213 300.923077 270.110495 301.230769 269.737644 301.538462 269.367689 301.846154 269.000657 302.153846 268.636574 302.461538 268.275468 302.769231 267.917366 303.076923 267.562294 303.384615 267.210282 303.692308 266.861354 304.000000 266.515539 304.307692 266.172864 304.615385 265.833355 304.923077 265.497041 305.230769 265.163947 305.538462 264.834102 305.846154 264.507532 306.153846 264.184265 306.461538 263.864327 306.769231 263.547747 307.076923 263.234550 307.384615 262.924765 307.692308 262.618418 308.000000 262.315536 308.307692 262.016147 308.615385 261.720277 308.923077 261.427955 309.230769 261.139207 309.538462 260.854059 309.846154 260.572541 310.153846 260.294677 310.461538 260.020496 310.769231 259.750026 311.076923 259.483292 311.384615 259.220322 311.692308 258.961143 312.000000 258.705783 312.307692 258.454268 312.615385 258.206626 312.923077 257.962884 313.230769 257.723069 313.538462 257.487208 313.846154 257.255328 314.153846 257.027457 314.461538 256.803621 314.769231 256.583848 315.076923 256.368165 315.384615 256.156599 315.692308 255.949177 316.000000 255.745927 316.307692 255.546875 316.615385 255.352048 316.923077 255.161475 317.230769 254.975181 317.538462 254.793194 317.846154 254.615542 318.153846 254.442251 318.461538 254.273348 318.769231 254.108862 319.076923 253.948817 319.384615 253.793243 319.692308 253.642167 320.000000 253.495614 320.307692 253.353613 320.615385 253.216190 320.923077 253.083373 321.230769 252.955189 321.538462 252.831665 321.846154 252.712816 322.153846 252.598614 322.461538 252.489017 322.769231 252.383983 323.076923 252.283471 323.384615 252.187441 323.692308 252.095851 324.000000 252.008660 324.307692 251.925827 324.615385 251.847310 324.923077 251.773069 325.230769 251.703061 325.538462 251.637247 325.846154 251.575585 326.153846 251.518034 326.461538 251.464552 326.769231 251.415098 327.076923 251.369632 327.384615 251.328112 327.692308 251.290496 328.000000 251.256744 328.307692 251.226815 328.615385 251.200667 328.923077 251.178259 329.230769 251.159550 329.538462 251.144498 329.846154 251.133064 330.153846 251.125204 330.461538 251.120879 330.769231 251.120048 331.076923 251.122668 331.384615 251.128698 331.692308 251.138099 332.000000 251.150827 332.307692 251.166843 332.615385 251.186105 332.923077 251.208572 333.230769 251.234202 333.538462 251.262955 333.846154 251.294789 334.153846 251.329664 334.461538 251.367537 334.769231 251.408368 335.076923 251.452116 335.384615 251.498739 335.692308 251.548197 336.000000 251.600447 336.307692 251.655450 336.615385 251.713163 336.923077 251.773546 337.230769 251.836557 337.538462 251.902156 337.846154 251.970300 338.153846 252.040950 338.461538 252.114063 338.769231 252.189598 339.076923 252.267515 339.384615 252.347772 339.692308 252.430328 340.000000 252.515142 340.307692 252.602173 340.615385 252.691379 340.923077 252.782719 341.230769 252.876152 341.538462 252.971638 341.846154 253.069134 342.153846 253.168600 342.461538 253.269994 342.769231 253.373275 343.076923 253.478403 343.384615 253.585335 343.692308 253.694031 344.000000 253.804449 344.307692 253.916549 344.615385 254.030289 344.923077 254.145629 345.230769 254.262526 345.538462 254.380939 345.846154 254.500828 346.153846 254.622152 346.461538 254.744868 346.769231 254.868937 347.076923 254.994316 347.384615 255.120965 347.692308 255.248842 348.000000 255.377907 348.307692 255.508117 348.615385 255.639433 348.923077 255.771812 349.230769 255.905214 349.538462 256.039597 349.846154 256.174921 350.153846 256.311143 350.461538 256.448224 350.769231 256.586121 351.076923 256.724793 351.384615 256.864200 351.692308 257.004300 352.000000 257.145052 352.307692 257.286415 352.615385 257.428347 352.923077 257.570808 353.230769 257.713756 353.538462 257.857151 353.846154 258.000950 354.153846 258.145113 354.461538 258.289598 354.769231 258.434365 355.076923 258.579372 355.384615 258.724578 355.692308 258.869942 356.000000 259.015423 356.307692 259.160979 356.615385 259.306570 356.923077 259.452154 357.230769 259.597690 357.538462 259.743136 357.846154 259.888452 358.153846 260.033597 358.461538 260.178529 358.769231 260.323207 359.076923 260.467590 359.384615 260.611637 359.692308 260.755307 360.000000 260.898558 360.307692 261.041349 360.615385 261.183639 360.923077 261.325387 361.230769 261.466552 361.538462 261.607092 361.846154 261.746967 362.153846 261.886135 362.461538 262.024555 362.769231 262.162185 363.076923 262.298986 363.384615 262.434915 363.692308 262.569931 364.000000 262.703993 364.307692 262.837061 364.615385 262.969092 364.923077 263.100046 365.230769 263.229881 365.538462 263.358556 365.846154 263.486031 366.153846 263.612263 366.461538 263.737212 366.769231 263.860837 367.076923 263.983096 367.384615 264.103948 367.692308 264.223353 368.000000 264.341268 368.307692 264.457653 368.615385 264.572466 368.923077 264.685667 369.230769 264.797214 369.538462 264.907066 369.846154 265.015182 370.153846 265.121520 370.461538 265.226040 370.769231 265.328700 371.076923 265.429459 371.384615 265.528276 371.692308 265.625110 372.000000 265.719920 372.307692 265.812663 372.615385 265.903301 372.923077 265.991790 373.230769 266.078090 373.538462 266.162159 373.846154 266.243958 374.153846 266.323443 374.461538 266.400575 374.769231 266.475312 375.076923 266.547612 375.384615 266.617436 375.692308 266.684741 376.000000 266.749486 376.307692 266.811630 376.615385 266.871132 376.923077 266.927951 377.230769 266.982045 377.538462 267.033374 377.846154 267.081896 378.153846 267.127571 378.461538 267.170356 378.769231 267.210211 379.076923 267.247094 379.384615 267.280965 379.692308 267.311782 380.000000 267.339504 380.307692 267.364090 380.615385 267.385498 380.923077 267.403688 381.230769 267.418619 381.538462 267.430248 381.846154 267.438536 382.153846 267.443440 382.461538 267.444920 382.769231 267.442934 383.076923 267.437442 383.384615 267.428401 383.692308 267.415772 384.000000 267.399512 384.307692 267.379581 384.615385 267.355937 384.923077 267.328540 385.230769 267.297347 385.538462 267.262319 385.846154 267.223413 386.153846 267.180589 386.461538 267.133804 386.769231 267.083020 387.076923 267.028193 387.384615 266.969283 387.692308 266.906248 388.000000 266.839048 388.307692 266.767642 388.615385 266.691987 388.923077 266.612043 389.230769 266.527769 389.538462 266.439124 389.846154 266.346066 390.153846 266.248555 390.461538 266.146548 390.769231 266.040005 391.076923 265.928885 391.384615 265.813147 391.692308 265.692749 392.000000 265.567650 392.307692 265.437809 392.615385 265.303185 392.923077 265.163737 393.230769 265.019423 393.538462 264.870202 393.846154 264.716033 394.153846 264.556876 394.461538 264.392688 394.769231 264.223429 395.076923 264.049057 395.384615 263.869532 395.692308 263.684811 396.000000 263.494855 396.307692 263.299621 396.615385 263.099069 396.923077 262.893157 397.230769 262.681845 397.538462 262.465090 397.846154 262.242852 398.153846 262.015090 398.461538 261.781763 398.769231 261.542842 399.076923 261.298353 399.384615 261.048336 399.692308 260.792829 400.000000 260.531872 400.307692 260.265503 400.615385 259.993761 400.923077 259.716686 401.230769 259.434316 401.538462 259.146691 401.846154 258.853850 402.153846 258.555830 402.461538 258.252673 402.769231 257.944416 403.076923 257.631098 403.384615 257.312759 403.692308 256.989438 404.000000 256.661174 404.307692 256.328005 404.615385 255.989970 404.923077 255.647109 405.230769 255.299462 405.538462 254.947065 405.846154 254.589960 406.153846 254.228184 406.461538 253.861777 406.769231 253.490778 407.076923 253.115225 407.384615 252.735159 407.692308 252.350617 408.000000 251.961639 408.307692 251.568264 408.615385 251.170531 408.923077 250.768478 409.230769 250.362146 409.538462 249.951573 409.846154 249.536797 410.153846 249.117859 410.461538 248.694796 410.769231 248.267649 411.076923 247.836455 411.384615 247.401255 411.692308 246.962087 412.000000 246.518989 412.307692 246.072002 412.615385 245.621164 412.923077 245.166514 413.230769 244.708092 413.538462 244.245935 413.846154 243.780084 414.153846 243.310577 414.461538 242.837453 414.769231 242.360751 415.076923 241.880510 415.384615 241.396770 415.692308 240.909569 416.000000 240.418947 416.307692 239.924942 416.615385 239.427593 416.923077 238.926939 417.230769 238.423020 417.538462 237.915874 417.846154 237.405541 418.153846 236.892059 418.461538 236.375468 418.769231 235.855806 419.076923 235.333112 419.384615 234.807426 419.692308 234.278787 420.000000 233.747233 420.307692 233.212803 420.615385 232.675538 420.923077 232.135474 421.230769 231.592653 421.538462 231.047112 421.846154 230.498891 422.153846 229.948028 422.461538 229.394563 422.769231 228.838535 423.076923 228.279982 423.384615 227.718944 423.692308 227.155460 424.000000 226.589569 424.307692 226.021309 424.615385 225.450721 424.923077 224.877842 425.230769 224.302712 425.538462 223.725370 425.846154 223.145854 426.153846 222.564205 426.461538 221.980460 426.769231 221.394660 427.076923 220.806842 427.384615 220.217046 427.692308 219.625312 428.000000 219.031677 428.307692 218.436181 428.615385 217.838864 428.923077 217.239763 429.230769 216.638918 429.538462 216.036369 429.846154 215.432154 430.153846 214.826311 430.461538 214.218881 430.769231 213.609902 431.076923 212.999413 431.384615 212.387454 431.692308 211.774062 432.000000 211.159278 432.307692 210.543140 432.615385 209.925688 432.923077 209.306959 433.230769 208.686994 433.538462 208.065832 433.846154 207.443510 434.153846 206.820069 434.461538 206.195547 434.769231 205.569984 435.076923 204.943418 435.384615 204.315889 435.692308 203.687435 436.000000 203.058095 436.307692 202.427909 436.615385 201.796915 436.923077 201.165153 437.230769 200.532661 437.538462 199.899479 437.846154 199.265646 438.153846 198.631200 438.461538 197.996180 438.769231 197.360627 439.076923 196.724578 439.384615 196.088072 439.692308 195.451149 440.000000 194.813848 440.307692 194.176208 440.615385 193.538267 440.923077 192.900065 441.230769 192.261641 441.538462 191.623034 441.846154 190.984282 442.153846 190.345425 442.461538 189.706502 442.769231 189.067552 443.076923 188.428614 443.384615 187.789726 443.692308 187.150929 444.000000 186.512260 444.307692 185.873759 444.615385 185.235466 444.923077 184.597418 445.230769 183.959655 445.538462 183.322216 445.846154 182.685141 446.153846 182.048467 446.461538 181.412234 446.769231 180.776482 447.076923 180.141248 447.384615 179.506573 447.692308 178.872494 448.000000 178.239052 448.307692 177.606285 448.615385 176.974232 448.923077 176.342933 449.230769 175.712425 449.538462 175.082749 449.846154 174.453943 450.153846 173.826046 450.461538 173.199098 450.769231 172.573137 451.076923 171.948202 451.384615 171.324333 451.692308 170.701568 452.000000 170.079946 452.307692 169.459507 452.615385 168.840289 452.923077 168.222331 453.230769 167.605673 453.538462 166.990353 453.846154 166.376411 454.153846 165.763886 454.461538 165.152816 454.769231 164.543240 455.076923 163.935198 455.384615 163.328728 455.692308 162.723870 456.000000 162.120663 456.307692 161.519145 456.615385 160.919356 456.923077 160.321335 457.230769 159.725120 457.538462 159.130751 457.846154 158.538267 458.153846 157.947706 458.461538 157.359108 458.769231 156.772512 459.076923 156.187957 459.384615 155.605481 459.692308 155.025124 460.000000 154.446925 460.307692 153.870923 460.615385 153.297157 460.923077 152.725666 461.230769 152.156488 461.538462 151.589664 461.846154 151.025231 462.153846 150.463229 462.461538 149.903698 462.769231 149.346675 463.076923 148.792200 463.384615 148.240313 463.692308 147.691051 464.000000 147.144454 464.307692 146.600562 464.615385 146.059412 464.923077 145.521045 465.230769 144.985499 465.538462 144.452813 465.846154 143.923026 466.153846 143.396177 466.461538 142.872306 466.769231 142.351450 467.076923 141.833650 467.384615 141.318945 467.692308 140.807372 468.000000 140.298972 468.307692 139.793783 468.615385 139.291844 468.923077 138.793195 469.230769 138.297874 469.538462 137.805920 469.846154 137.317373 470.153846 136.832271 470.461538 136.350654 470.769231 135.872560 471.076923 135.398029 471.384615 134.927099 471.692308 134.459809 472.000000 133.996199 472.307692 133.536308 472.615385 133.080174 472.923077 132.627837 473.230769 132.179335 473.538462 131.734708 473.846154 131.293994 474.153846 130.857233 474.461538 130.424464 474.769231 129.995726 475.076923 129.571057 475.384615 129.150497 475.692308 128.734074 476.000000 128.321777 476.307692 127.913584 476.615385 127.509474 476.923077 127.109423 477.230769 126.713410 477.538462 126.321414 477.846154 125.933413 478.153846 125.549383 478.461538 125.169305 478.769231 124.793155 479.076923 124.420912 479.384615 124.052553 479.692308 123.688058 480.000000 123.327404 480.307692 122.970569 480.615385 122.617532 480.923077 122.268270 481.230769 121.922761 481.538462 121.580984 481.846154 121.242917 482.153846 120.908537 482.461538 120.577823 482.769231 120.250754 483.076923 119.927306 483.384615 119.607459 483.692308 119.291190 484.000000 118.978477 484.307692 118.669299 484.615385 118.363633 484.923077 118.061458 485.230769 117.762752 485.538462 117.467493 485.846154 117.175658 486.153846 116.887227 486.461538 116.602177 486.769231 116.320486 487.076923 116.042133 487.384615 115.767095 487.692308 115.495351 488.000000 115.226878 488.307692 114.961655 488.615385 114.699660 488.923077 114.440871 489.230769 114.185266 489.538462 113.932823 489.846154 113.683521 490.153846 113.437337 490.461538 113.194249 490.769231 112.954236 491.076923 112.717275 491.384615 112.483346 491.692308 112.252425 492.000000 112.024491 492.307692 111.799522 492.615385 111.577496 492.923077 111.358392 493.230769 111.142187 493.538462 110.928859 493.846154 110.718387 494.153846 110.510749 494.461538 110.305922 494.769231 110.103885 495.076923 109.904616 495.384615 109.708093 495.692308 109.514295 496.000000 109.323198 496.307692 109.134782 496.615385 108.949024 496.923077 108.765903 497.230769 108.585397 497.538462 108.407483 497.846154 108.232140 498.153846 108.059346 498.461538 107.889079 498.769231 107.721317 499.076923 107.556038 499.384615 107.393221 499.692308 107.232843 500.000000 107.074883 500.307692 106.919318 500.615385 106.766127 500.923077 106.615288 501.230769 106.466779 501.538462 106.320577 501.846154 106.176662 502.153846 106.035011 502.461538 105.895603 502.769231 105.758414 503.076923 105.623425 503.384615 105.490612 503.692308 105.359953 504.000000 105.231428 504.307692 105.105013 504.615385 104.980687 504.923077 104.858429 505.230769 104.738216 505.538462 104.620026 505.846154 104.503837 506.153846 104.389628 506.461538 104.277376 506.769231 104.167060 507.076923 104.058658 507.384615 103.952148 507.692308 103.847508 508.000000 103.744716 508.307692 103.643750 508.615385 103.544588 508.923077 103.447209 509.230769 103.351590 509.538462 103.257710 509.846154 103.165547 510.153846 103.075078 510.461538 102.986282 510.769231 102.899138 511.076923 102.813622 511.384615 102.729713 511.692308 102.647390 512.000000 102.566630 512.307692 102.487412 512.615385 102.409713 512.923077 102.333512 513.230769 102.258786 513.538462 102.185515 513.846154 102.113675 514.153846 102.043245 514.461538 101.974204 514.769231 101.906529 515.076923 101.840198 515.384615 101.775190 515.692308 101.711482 516.000000 101.649053 516.307692 101.587881 516.615385 101.527944 516.923077 101.469219 517.230769 101.411686 517.538462 101.355321 517.846154 101.300104 518.153846 101.246013 518.461538 101.193024 518.769231 101.141118 519.076923 101.090271 519.384615 101.040461 519.692308 100.991668 520.000000 100.943868 520.307692 100.897041 520.615385 100.851164 520.923077 100.806215 521.230769 100.762172 521.538462 100.719013 521.846154 100.676718 522.153846 100.635263 522.461538 100.594626 522.769231 100.554786 523.076923 100.515722 523.384615 100.477410 523.692308 100.439830 524.000000 100.402958 524.307692 100.366774 524.615385 100.331256 524.923077 100.296381 525.230769 100.262127 525.538462 100.228474 525.846154 100.195398 526.153846 100.162878 526.461538 100.130892 526.769231 100.099418 527.076923 100.068435 527.384615 100.037919 527.692308 100.007851 528.000000 99.978206 528.307692 99.948964 528.615385 99.920103 528.923077 99.891601 529.230769 99.863436 529.538462 99.835585 529.846154 99.808028 530.153846 99.780742 530.461538 99.753705 530.769231 99.726896 531.076923 99.700292 531.384615 99.673872 531.692308 99.647613 532.000000 99.621495 532.307692 99.595494 532.615385 99.569589 532.923077 99.543758 533.230769 99.517979 533.538462 99.492231 533.846154 99.466491 534.153846 99.440738 534.461538 99.414949 534.769231 99.389103 535.076923 99.363177 535.384615 99.337151 535.692308 99.311001 536.000000 99.284707 536.307692 99.258245 536.615385 99.231595 536.923077 99.204735 537.230769 99.177641 537.538462 99.150294 537.846154 99.122670 538.153846 99.094748 538.461538 99.066505 538.769231 99.037921 539.076923 99.008973 539.384615 98.979638 539.692308 98.949897 540.000000 98.919725 540.307692 98.889102 540.615385 98.858005 540.923077 98.826414 541.230769 98.794305 541.538462 98.761656 541.846154 98.728447 542.153846 98.694655 542.461538 98.660258 542.769231 98.625234 543.076923 98.589561 543.384615 98.553218 543.692308 98.516183 544.000000 98.478433 544.307692 98.439947 544.615385 98.400703 544.923077 98.360678 545.230769 98.319852 545.538462 98.278202 545.846154 98.235706 546.153846 98.192342 546.461538 98.148089 546.769231 98.102924 547.076923 98.056826 547.384615 98.009773 547.692308 97.961743 548.000000 97.912713 548.307692 97.862663 548.615385 97.811569 548.923077 97.759411 549.230769 97.706166 549.538462 97.651813 549.846154 97.596329 550.153846 97.539693 550.461538 97.481882 550.769231 97.422875 551.076923 97.362651 551.384615 97.301186 551.692308 97.238459 552.000000 97.174449 552.307692 97.109132 552.615385 97.042493 552.923077 96.974533 553.230769 96.905258 553.538462 96.834673 553.846154 96.762787 554.153846 96.689604 554.461538 96.615132 554.769231 96.539376 555.076923 96.462343 555.384615 96.384039 555.692308 96.304470 556.000000 96.223643 556.307692 96.141564 556.615385 96.058239 556.923077 95.973675 557.230769 95.887878 557.538462 95.800853 557.846154 95.712609 558.153846 95.623150 558.461538 95.532483 558.769231 95.440614 559.076923 95.347550 559.384615 95.253297 559.692308 95.157861 560.000000 95.061249 560.307692 94.963466 560.615385 94.864520 560.923077 94.764416 561.230769 94.663160 561.538462 94.560760 561.846154 94.457221 562.153846 94.352550 562.461538 94.246752 562.769231 94.139835 563.076923 94.031804 563.384615 93.922666 563.692308 93.812427 564.000000 93.701094 564.307692 93.588672 564.615385 93.475168 564.923077 93.360589 565.230769 93.244939 565.538462 93.128227 565.846154 93.010458 566.153846 92.891639 566.461538 92.771775 566.769231 92.650873 567.076923 92.528940 567.384615 92.405981 567.692308 92.282003 568.000000 92.157012 568.307692 92.031015 568.615385 91.904018 568.923077 91.776027 569.230769 91.647048 569.538462 91.517088 569.846154 91.386153 570.153846 91.254250 570.461538 91.121384 570.769231 90.987561 571.076923 90.852790 571.384615 90.717074 571.692308 90.580421 572.000000 90.442838 572.307692 90.304330 572.615385 90.164903 572.923077 90.024565 573.230769 89.883320 573.538462 89.741177 573.846154 89.598140 574.153846 89.454216 574.461538 89.309412 574.769231 89.163734 575.076923 89.017187 575.384615 88.869779 575.692308 88.721516 576.000000 88.572404 576.307692 88.422448 576.615385 88.271657 576.923077 88.120035 577.230769 87.967589 577.538462 87.814326 577.846154 87.660252 578.153846 87.505372 578.461538 87.349694 578.769231 87.193223 579.076923 87.035967 579.384615 86.877930 579.692308 86.719120 580.000000 86.559543 580.307692 86.399205 580.615385 86.238113 580.923077 86.076272 581.230769 85.913689 581.538462 85.750370 581.846154 85.586322 582.153846 85.421551 582.461538 85.256063 582.769231 85.089864 583.076923 84.922961 583.384615 84.755360 583.692308 84.587068 584.000000 84.418090 584.307692 84.248433 584.615385 84.078104 584.923077 83.907108 585.230769 83.735452 585.538462 83.563142 585.846154 83.390184 586.153846 83.216585 586.461538 83.042352 586.769231 82.867489 587.076923 82.692004 587.384615 82.515903 587.692308 82.339192 588.000000 82.161878 588.307692 81.983967 588.615385 81.805464 588.923077 81.626378 589.230769 81.446712 589.538462 81.266475 589.846154 81.085672 590.153846 80.904310 590.461538 80.722394 590.769231 80.539932 591.076923 80.356929 591.384615 80.173392 591.692308 79.989327 592.000000 79.804741 592.307692 79.619639 592.615385 79.434028 592.923077 79.247914 593.230769 79.061304 593.538462 78.874204 593.846154 78.686619 594.153846 78.498558 594.461538 78.310025 594.769231 78.121027 595.076923 77.931570 595.384615 77.741661 595.692308 77.551306 596.000000 77.360511 596.307692 77.169283 596.615385 76.977627 596.923077 76.785551 597.230769 76.593060 597.538462 76.400161 597.846154 76.206859 598.153846 76.013162 598.461538 75.819076 598.769231 75.624606 599.076923 75.429760 599.384615 75.234543 599.692308 75.038962 600.000000 74.843023 600.307692 74.646732 600.615385 74.450096 600.923077 74.253122 601.230769 74.055814 601.538462 73.858180 601.846154 73.660225 602.153846 73.461957 602.461538 73.263381 602.769231 73.064505 603.076923 72.865333 603.384615 72.665872 603.692308 72.466129 604.000000 72.266110 604.307692 72.065821 604.615385 71.865269 604.923077 71.664460 605.230769 71.463399 605.538462 71.262094 605.846154 71.060551 606.153846 70.858776 606.461538 70.656775 606.769231 70.454555 607.076923 70.252121 607.384615 70.049481 607.692308 69.846641 608.000000 69.643606 608.307692 69.440383 608.615385 69.236978 608.923077 69.033399 609.230769 68.829650 609.538462 68.625738 609.846154 68.421670 610.153846 68.217452 610.461538 68.013090 610.769231 67.808591 611.076923 67.603960 611.384615 67.399204 611.692308 67.194330 612.000000 66.989343 612.307692 66.784251 612.615385 66.579058 612.923077 66.373772 613.230769 66.168399 613.538462 65.962945 613.846154 65.757416 614.153846 65.551819 614.461538 65.346160 614.769231 65.140446 615.076923 64.934682 615.384615 64.728875 615.692308 64.523031 616.000000 64.317157 616.307692 64.111258 616.615385 63.905342 616.923077 63.699413 617.230769 63.493480 617.538462 63.287548 617.846154 63.081623 618.153846 62.875711 618.461538 62.669819 618.769231 62.463954 619.076923 62.258121 619.384615 62.052326 619.692308 61.846577 620.000000 61.640879 620.307692 61.435239 620.615385 61.229663 620.923077 61.024156 621.230769 60.818727 621.538462 60.613380 621.846154 60.408123 622.153846 60.202961 622.461538 59.997900 622.769231 59.792948 623.076923 59.588110 623.384615 59.383392 623.692308 59.178802 624.000000 58.974344 624.307692 58.770026 624.615385 58.565854 624.923077 58.361834 625.230769 58.157973 625.538462 57.954276 625.846154 57.750750 626.153846 57.547402 626.461538 57.344237 626.769231 57.141261 627.076923 56.938483 627.384615 56.735906 627.692308 56.533538 628.000000 56.331386 628.307692 56.129454 628.615385 55.927751 628.923077 55.726281 629.230769 55.525052 629.538462 55.324067 629.846154 55.123329 630.153846 54.922835 630.461538 54.722585 630.769231 54.522577 631.076923 54.322811 631.384615 54.123285 631.692308 53.923999 632.000000 53.724952 632.307692 53.526142 632.615385 53.327569 632.923077 53.129232 633.230769 52.931130 633.538462 52.733261 633.846154 52.535625 634.153846 52.338221 634.461538 52.141047 634.769231 51.944104 635.076923 51.747389 635.384615 51.550902 635.692308 51.354641 636.000000 51.158607 636.307692 50.962797 636.615385 50.767211 636.923077 50.571849 637.230769 50.376708 637.538462 50.181787 637.846154 49.987087 638.153846 49.792606 638.461538 49.598343 638.769231 49.404297 639.076923 49.210466 639.384615 49.016851 639.692308 48.823449 640.000000 48.630261 640.307692 48.437285 640.615385 48.244520 640.923077 48.051964 641.230769 47.859618 641.538462 47.667480 641.846154 47.475549 642.153846 47.283824 642.461538 47.092305 642.769231 46.900989 643.076923 46.709877 643.384615 46.518966 643.692308 46.328257 644.000000 46.137749 644.307692 45.947439 644.615385 45.757327 644.923077 45.567413 645.230769 45.377695 645.538462 45.188173 645.846154 44.998844 646.153846 44.809709 646.461538 44.620766 646.769231 44.432015 647.076923 44.243454 647.384615 44.055082 647.692308 43.866898 648.000000 43.678902 648.307692 43.491092 648.615385 43.303468 648.923077 43.116028 649.230769 42.928772 649.538462 42.741698 649.846154 42.554805 650.153846 42.368093 650.461538 42.181561 650.769231 41.995207 651.076923 41.809030 651.384615 41.623030 651.692308 41.437205 652.000000 41.251555 652.307692 41.066079 652.615385 40.880775 652.923077 40.695643 653.230769 40.510681 653.538462 40.325890 653.846154 40.141266 654.153846 39.956810 654.461538 39.772521 654.769231 39.588398 655.076923 39.404439 655.384615 39.220645 655.692308 39.037012 656.000000 38.853542 656.307692 38.670232 656.615385 38.487082 656.923077 38.304091 657.230769 38.121257 657.538462 37.938581 657.846154 37.756060 658.153846 37.573694 658.461538 37.391482 658.769231 37.209423 659.076923 37.027515 659.384615 36.845759 659.692308 36.664152 660.000000 36.482695 660.307692 36.301385 660.615385 36.120222 660.923077 35.939205 661.230769 35.758333 661.538462 35.577605 661.846154 35.397020 662.153846 35.216577 662.461538 35.036276 662.769231 34.856114 663.076923 34.676091 663.384615 34.496206 663.692308 34.316459 664.000000 34.136847 664.307692 33.957370 664.615385 33.778028 664.923077 33.598819 665.230769 33.419742 665.538462 33.240796 665.846154 33.061980 666.153846 32.883294 666.461538 32.704735 666.769231 32.526304 667.076923 32.348000 667.384615 32.169820 667.692308 31.991765 668.000000 31.813832 668.307692 31.636023 668.615385 31.458334 668.923077 31.280766 669.230769 31.103317 669.538462 30.925987 669.846154 30.748773 670.153846 30.571677 670.461538 30.394695 670.769231 30.217828 671.076923 30.041075 671.384615 29.864433 671.692308 29.687904 672.000000 29.511484 672.307692 29.335175 672.615385 29.158973 672.923077 28.982879 673.230769 28.806892 673.538462 28.631010 673.846154 28.455233 674.153846 28.279559 674.461538 28.103988 674.769231 27.928518 675.076923 27.753149 675.384615 27.577880 675.692308 27.402709 676.000000 27.227636 676.307692 27.052660 676.615385 26.877779 676.923077 26.702993 677.230769 26.528300 677.538462 26.353700 677.846154 26.179192 678.153846 26.004775 678.461538 25.830447 678.769231 25.656209 679.076923 25.482058 679.384615 25.307993 679.692308 25.134015 680.000000 24.960121 680.307692 24.786311 680.615385 24.612584 680.923077 24.438939 681.230769 24.265375 681.538462 24.091890 681.846154 23.918485 682.153846 23.745157 682.461538 23.571907 682.769231 23.398732 683.076923 23.225632 683.384615 23.052606 683.692308 22.879653 684.000000 22.706773 684.307692 22.533963 684.615385 22.361223 684.923077 22.188552 685.230769 22.015949 685.538462 21.843414 685.846154 21.670944 686.153846 21.498539 686.461538 21.326199 686.769231 21.153922 687.076923 20.981706 687.384615 20.809552 687.692308 20.637459 688.000000 20.465424 688.307692 20.293447 688.615385 20.121528 688.923077 19.949665 689.230769 19.777857 689.538462 19.606103 689.846154 19.434403 690.153846 19.262755 690.461538 19.091158 690.769231 18.919611 691.076923 18.748114 691.384615 18.576665 691.692308 18.405264 692.000000 18.233908 692.307692 18.062598 692.615385 17.891333 692.923077 17.720111 693.230769 17.548931 693.538462 17.377793 693.846154 17.206695 694.153846 17.035637 694.461538 16.864617 694.769231 16.693634 695.076923 16.522688 695.384615 16.351778 695.692308 16.180902 696.000000 16.010059 696.307692 15.839250 696.615385 15.668471 696.923077 15.497723 697.230769 15.327005 697.538462 15.156316 697.846154 14.985654 698.153846 14.815018 698.461538 14.644409 698.769231 14.473824 699.076923 14.303262 699.384615 14.132724 699.692308 13.962207 700.000000 13.791710 700.307692 13.621234 700.615385 13.450776 700.923077 13.280336 701.230769 13.109913 701.538462 12.939505 701.846154 12.769113 702.153846 12.598734 702.461538 12.428368 702.769231 12.258013 703.076923 12.087670 703.384615 11.917336 703.692308 11.747012 704.000000 11.576695 704.307692 11.406385 704.615385 11.236081 704.923077 11.065782 705.230769 10.895487 705.538462 10.725195 705.846154 10.554905 706.153846 10.384615 706.153846 540.000000" /></g></g><g class="titles" /><g class="plot overlay" transform="translate(60, 20)"><g class="series serie-0 color-0"><g class="dots"><circle class="dot reactive tooltip-trigger" cx="13.846153846153847" cy="529.6153846153846" r="2.5" /><desc class="value">1,266,063,245(kWh)</desc><desc class="x top">13.846153846153847</desc><desc class="y top">529.6153846153846</desc><desc class="x_label">2549</desc></g><g class="dots"><circle class="dot reactive tooltip-trigger" cx="90.76923076923076" cy="472.065546014978" r="2.5" /><desc class="value">1,365,592,475(kWh)</desc><desc class="x top">90.76923076923076</desc><desc class="y top">472.065546014978</desc><desc class="x_label">2550</desc></g><g class="dots"><circle class="dot reactive tooltip-trigger" cx="167.69230769230765" cy="425.84407805598016" r="2.5" /><desc class="value">1,445,529,921(kWh)</desc><desc class="x top">167.69230769230765</desc><desc class="y top">425.84407805598016</desc><desc class="x_label">2551</desc></g><g class="dots"><circle class="dot reactive tooltip-trigger" cx="244.6153846153846" cy="358.90117389886433" r="2.5" /><desc class="value">1,561,303,933(kWh)</desc><desc class="x top">244.6153846153846</desc><desc class="y top">358.90117389886433</desc><desc class="x_label">2552</desc></g><g class="dots"><circle class="dot reactive tooltip-trigger" cx="321.5384615384615" cy="252.83166472451876" r="2.5" /><desc class="value">1,744,745,222(kWh)</desc><desc class="x ">321.5384615384615</desc><desc class="y ">252.83166472451876</desc><desc class="x_label">2553</desc></g><g class="dots"><circle class="dot reactive tooltip-trigger" cx="398.46153846153845" cy="261.7817625143347" r="2.5" /><desc class="value">1,729,266,528(kWh)</desc><desc class="x left">398.46153846153845</desc><desc class="y left">261.7817625143347</desc><desc class="x_label">2554</desc></g><g class="dots"><circle class="dot reactive tooltip-trigger" cx="475.38461538461536" cy="129.15049661309655" r="2.5" /><desc class="value">1,958,644,891(kWh)</desc><desc class="x left">475.38461538461536</desc><desc class="y left">129.15049661309655</desc><desc class="x_label">2555</desc></g><g class="dots"><circle class="dot reactive tooltip-trigger" cx="552.3076923076923" cy="97.10913237071827" r="2.5" /><desc class="value">2,014,058,640(kWh)</desc><desc class="x left">552.3076923076923</desc><desc class="y left">97.10913237071827</desc><desc class="x_label">2556</desc></g><g class="dots"><circle class="dot reactive tooltip-trigger" cx="629.2307692307692" cy="55.52505159595569" r="2.5" /><desc class="value">2,085,975,984(kWh)</desc><desc class="x left">629.2307692307692</desc><desc class="y left">55.52505159595569</desc><desc class="x_label">2557</desc></g><g class="dots"><circle class="dot reactive tooltip-trigger" cx="706.1538461538461" cy="10.384615384615358" r="2.5" /><desc class="value">2,164,043,846(kWh)</desc><desc class="x left">706.1538461538461</desc><desc class="y left">10.384615384615358</desc><desc class="x_label">2558</desc></g></g></g><g class="plot text-overlay" transform="translate(60, 20)"><g class="series serie-0 color-0" /></g><g class="plot tooltip-overlay" transform="translate(60, 20)"><g class="tooltip" style="opacity: 0" transform="translate(0 0)"><rect class="tooltip-box" height="0" rx="0" ry="0" width="0" /><g class="text" /></g></g></g></svg>