<?xml version='1.0' encoding='utf-8'?>
<svg xmlns:xlink="http://www.w3.org/1999/xlink" class="pygal-chart" id="chart-64dbccfa-644a-4c86-821d-4e8e64433156" viewBox="0 0 800 600" xmlns="http://www.w3.org/2000/svg"><!--Generated with pygal 2.3.0 (etree) ©Kozea 2012-2016 on 2016-12-08--><!--http://pygal.org--><!--http://github.com/Kozea/pygal--><defs><style type="text/css">#chart-64dbccfa-644a-4c86-821d-4e8e64433156{-webkit-user-select:none;-webkit-font-smoothing:antialiased;font-family:Consolas,"Liberation Mono",Menlo,Courier,monospace}#chart-64dbccfa-644a-4c86-821d-4e8e64433156 .title{font-family:Consolas,"Liberation Mono",Menlo,Courier,monospace;font-size:16px}#chart-64dbccfa-644a-4c86-821d-4e8e64433156 .legends .legend text{font-family:Consolas,"Liberation Mono",Menlo,Courier,monospace;font-size:14px}#chart-64dbccfa-644a-4c86-821d-4e8e64433156 .axis text{font-family:Consolas,"Liberation Mono",Menlo,Courier,monospace;font-size:10px}#chart-64dbccfa-644a-4c86-821d-4e8e64433156 .axis text.major{font-family:Consolas,"Liberation Mono",Menlo,Courier,monospace;font-size:10px}#chart-64dbccfa-644a-4c86-821d-4e8e64433156 .text-overlay text.value{font-family:Consolas,"Liberation Mono",Menlo,Courier,monospace;font-size:16px}#chart-64dbccfa-644a-4c86-821d-4e8e64433156 .text-overlay text.label{font-family:Consolas,"Liberation Mono",Menlo,Courier,monospace;font-size:10px}#chart-64dbccfa-644a-4c86-821d-4e8e64433156 .tooltip{font-family:Consolas,"Liberation Mono",Menlo,Courier,monospace;font-size:14px}#chart-64dbccfa-644a-4c86-821d-4e8e64433156 text.no_data{font-family:Consolas,"Liberation Mono",Menlo,Courier,monospace;font-size:64px}
#chart-64dbccfa-644a-4c86-821d-4e8e64433156{background-color:rgba(249,249,249,1)}#chart-64dbccfa-644a-4c86-821d-4e8e64433156 path,#chart-64dbccfa-644a-4c86-821d-4e8e64433156 line,#chart-64dbccfa-644a-4c86-821d-4e8e64433156 rect,#chart-64dbccfa-644a-4c86-821d-4e8e64433156 circle{-webkit-transition:150ms;-moz-transition:150ms;transition:150ms}#chart-64dbccfa-644a-4c86-821d-4e8e64433156 .graph &gt; .background{fill:rgba(249,249,249,1)}#chart-64dbccfa-644a-4c86-821d-4e8e64433156 .plot &gt; .background{fill:rgba(255,255,255,1)}#chart-64dbccfa-644a-4c86-821d-4e8e64433156 .graph{fill:rgba(0,0,0,.87)}#chart-64dbccfa-644a-4c86-821d-4e8e64433156 text.no_data{fill:rgba(0,0,0,1)}#chart-64dbccfa-644a-4c86-821d-4e8e64433156 .title{fill:rgba(0,0,0,1)}#chart-64dbccfa-644a-4c86-821d-4e8e64433156 .legends .legend text{fill:rgba(0,0,0,.87)}#chart-64dbccfa-644a-4c86-821d-4e8e64433156 .legends .legend:hover text{fill:rgba(0,0,0,1)}#chart-64dbccfa-644a-4c86-821d-4e8e64433156 .axis .line{stroke:rgba(0,0,0,1)}#chart-64dbccfa-644a-4c86-821d-4e8e64433156 .axis .guide.line{stroke:rgba(0,0,0,.54)}#chart-64dbccfa-644a-4c86-821d-4e8e64433156 .axis .major.line{stroke:rgba(0,0,0,.87)}#chart-64dbccfa-644a-4c86-821d-4e8e64433156 .axis text.major{fill:rgba(0,0,0,1)}#chart-64dbccfa-644a-4c86-821d-4e8e64433156 .axis.y .guides:hover .guide.line,#chart-64dbccfa-644a-4c86-821d-4e8e64433156 .line-graph .axis.x .guides:hover .guide.line,#chart-64dbccfa-644a-4c86-821d-4e8e64433156 .stackedline-graph .axis.x .guides:hover .guide.line,#chart-64dbccfa-644a-4c86-821d-4e8e64433156 .xy-graph .axis.x .guides:hover .guide.line{stroke:rgba(0,0,0,1)}#chart-64dbccfa-644a-4c86-821d-4e8e64433156 .axis .guides:hover text{fill:rgba(0,0,0,1)}#chart-64dbccfa-644a-4c86-821d-4e8e64433156 .reactive{fill-opacity:.7;stroke-opacity:.8}#chart-64dbccfa-644a-4c86-821d-4e8e64433156 .ci{stroke:rgba(0,0,0,.87)}#chart-64dbccfa-644a-4c86-821d-4e8e64433156 .reactive.active,#chart-64dbccfa-644a-4c86-821d-4e8e64433156 .active .reactive{fill-opacity:.8;stroke-opacity:.9;stroke-width:4}#chart-64dbccfa-644a-4c86-821d-4e8e64433156 .ci .reactive.active{stroke-width:1.5}#chart-64dbccfa-644a-4c86-821d-4e8e64433156 .series text{fill:rgba(0,0,0,1)}#chart-64dbccfa-644a-4c86-821d-4e8e64433156 .tooltip rect{fill:rgba(255,255,255,1);stroke:rgba(0,0,0,1);-webkit-transition:opacity 150ms;-moz-transition:opacity 150ms;transition:opacity 150ms}#chart-64dbccfa-644a-4c86-821d-4e8e64433156 .tooltip .label{fill:rgba(0,0,0,.87)}#chart-64dbccfa-644a-4c86-821d-4e8e64433156 .tooltip .label{fill:rgba(0,0,0,.87)}#chart-64dbccfa-644a-4c86-821d-4e8e64433156 .tooltip .legend{font-size:.8em;fill:rgba(0,0,0,.54)}#chart-64dbccfa-644a-4c86-821d-4e8e64433156 .tooltip .x_label{font-size:.6em;fill:rgba(0,0,0,1)}#chart-64dbccfa-644a-4c86-821d-4e8e64433156 .tooltip .xlink{font-size:.5em;text-decoration:underline}#chart-64dbccfa-644a-4c86-821d-4e8e64433156 .tooltip .value{font-size:1.5em}#chart-64dbccfa-644a-4c86-821d-4e8e64433156 .bound{font-size:.5em}#chart-64dbccfa-644a-4c86-821d-4e8e64433156 .max-value{font-size:.75em;fill:rgba(0,0,0,.54)}#chart-64dbccfa-644a-4c86-821d-4e8e64433156 .map-element{fill:rgba(255,255,255,1);stroke:rgba(0,0,0,.54) !important}#chart-64dbccfa-644a-4c86-821d-4e8e64433156 .map-element .reactive{fill-opacity:inherit;stroke-opacity:inherit}#chart-64dbccfa-644a-4c86-821d-4e8e64433156 .color-0,#chart-64dbccfa-644a-4c86-821d-4e8e64433156 .color-0 a:visited{stroke:#e86fa0;fill:#e86fa0}#chart-64dbccfa-644a-4c86-821d-4e8e64433156 .text-overlay .color-0 text{fill:black}
#chart-64dbccfa-644a-4c86-821d-4e8e64433156 text.no_data{text-anchor:middle}#chart-64dbccfa-644a-4c86-821d-4e8e64433156 .guide.line{fill:none}#chart-64dbccfa-644a-4c86-821d-4e8e64433156 .centered{text-anchor:middle}#chart-64dbccfa-644a-4c86-821d-4e8e64433156 .title{text-anchor:middle}#chart-64dbccfa-644a-4c86-821d-4e8e64433156 .legends .legend text{fill-opacity:1}#chart-64dbccfa-644a-4c86-821d-4e8e64433156 .axis.x text{text-anchor:middle}#chart-64dbccfa-644a-4c86-821d-4e8e64433156 .axis.x:not(.web) text[transform]{text-anchor:start}#chart-64dbccfa-644a-4c86-821d-4e8e64433156 .axis.x:not(.web) text[transform].backwards{text-anchor:end}#chart-64dbccfa-644a-4c86-821d-4e8e64433156 .axis.y text{text-anchor:end}#chart-64dbccfa-644a-4c86-821d-4e8e64433156 .axis.y text[transform].backwards{text-anchor:start}#chart-64dbccfa-644a-4c86-821d-4e8e64433156 .axis.y2 text{text-anchor:start}#chart-64dbccfa-644a-4c86-821d-4e8e64433156 .axis.y2 text[transform].backwards{text-anchor:end}#chart-64dbccfa-644a-4c86-821d-4e8e64433156 .axis .guide.line{stroke-dasharray:4,4}#chart-64dbccfa-644a-4c86-821d-4e8e64433156 .axis .major.guide.line{stroke-dasharray:6,6}#chart-64dbccfa-644a-4c86-821d-4e8e64433156 .horizontal .axis.y .guide.line,#chart-64dbccfa-644a-4c86-821d-4e8e64433156 .horizontal .axis.y2 .guide.line,#chart-64dbccfa-644a-4c86-821d-4e8e64433156 .vertical .axis.x .guide.line{opacity:0}#chart-64dbccfa-644a-4c86-821d-4e8e64433156 .horizontal .axis.always_show .guide.line,#chart-64dbccfa-644a-4c86-821d-4e8e64433156 .vertical .axis.always_show .guide.line{opacity:1 !important}#chart-64dbccfa-644a-4c86-821d-4e8e64433156 .axis.y .guides:hover .guide.line,#chart-64dbccfa-644a-4c86-821d-4e8e64433156 .axis.y2 .guides:hover .guide.line,#chart-64dbccfa-644a-4c86-821d-4e8e64433156 .axis.x .guides:hover .guide.line{opacity:1}#chart-64dbccfa-644a-4c86-821d-4e8e64433156 .axis .guides:hover text{opacity:1}#chart-64dbccfa-644a-4c86-821d-4e8e64433156 .nofill{fill:none}#chart-64dbccfa-644a-4c86-821d-4e8e64433156 .subtle-fill{fill-opacity:.2}#chart-64dbccfa-644a-4c86-821d-4e8e64433156 .dot{stroke-width:1px;fill-opacity:1}#chart-64dbccfa-644a-4c86-821d-4e8e64433156 .dot.active{stroke-width:5px}#chart-64dbccfa-644a-4c86-821d-4e8e64433156 .dot.negative{fill:transparent}#chart-64dbccfa-644a-4c86-821d-4e8e64433156 text,#chart-64dbccfa-644a-4c86-821d-4e8e64433156 tspan{stroke:none !important}#chart-64dbccfa-644a-4c86-821d-4e8e64433156 .series text.active{opacity:1}#chart-64dbccfa-644a-4c86-821d-4e8e64433156 .tooltip rect{fill-opacity:.95;stroke-width:.5}#chart-64dbccfa-644a-4c86-821d-4e8e64433156 .tooltip text{fill-opacity:1}#chart-64dbccfa-644a-4c86-821d-4e8e64433156 .showable{visibility:hidden}#chart-64dbccfa-644a-4c86-821d-4e8e64433156 .showable.shown{visibility:visible}#chart-64dbccfa-644a-4c86-821d-4e8e64433156 .gauge-background{fill:rgba(229,229,229,1);stroke:none}#chart-64dbccfa-644a-4c86-821d-4e8e64433156 .bg-lines{stroke:rgba(249,249,249,1);stroke-width:2px}</style><script type="text/javascript">window.pygal = window.pygal || {};window.pygal.config = window.pygal.config || {};window.pygal.config['64dbccfa-644a-4c86-821d-4e8e64433156'] = {"no_data_text": "No data", "no_prefix": false, "xrange": null, "print_values_position": "center", "truncate_label": null, "x_labels": ["2549", "2550", "2551", "2552", "2553", "2554", "2555", "2556", "2557", "2558"], "title": null, "force_uri_protocol": "https", "defs": [], "formatter": null, "classes": ["pygal-chart"], "y_labels": null, "rounded_bars": null, "explicit_size": false, "x_labels_major_every": null, "legend_at_bottom_columns": null, "stroke_style": null, "half_pie": false, "spacing": 10, "tooltip_fancy_mode": true, "inverse_y_axis": false, "width": 800, "inner_radius": 0, "interpolation_parameters": {}, "tooltip_border_radius": 0, "style": {"no_data_font_family": "Consolas, \"Liberation Mono\", Menlo, Courier, monospace", "tooltip_font_size": 14, "tooltip_font_family": "Consolas, \"Liberation Mono\", Menlo, Courier, monospace", "stroke_opacity_hover": ".9", "legend_font_family": "Consolas, \"Liberation Mono\", Menlo, Courier, monospace", "font_family": "Consolas, \"Liberation Mono\", Menlo, Courier, monospace", "title_font_family": "Consolas, \"Liberation Mono\", Menlo, Courier, monospace", "background": "rgba(249, 249, 249, 1)", "stroke_opacity": ".8", "foreground": "rgba(0, 0, 0, .87)", "value_background": "rgba(229, 229, 229, 1)", "guide_stroke_dasharray": "4,4", "foreground_subtle": "rgba(0, 0, 0, .54)", "opacity_hover": ".8", "value_font_family": "Consolas, \"Liberation Mono\", Menlo, Courier, monospace", "value_label_font_size": 10, "plot_background": "rgba(255, 255, 255, 1)", "ci_colors": [], "label_font_size": 10, "major_label_font_size": 10, "title_font_size": 16, "no_data_font_size": 64, "value_font_size": 16, "value_colors": [], "label_font_family": "Consolas, \"Liberation Mono\", Menlo, Courier, monospace", "major_guide_stroke_dasharray": "6,6", "transition": "150ms", "foreground_strong": "rgba(0, 0, 0, 1)", "colors": ["#e86fa0", "#e88f6f", "#e8df6f", "#a0e86f", "#6fe88f", "#6fe8df", "#6fa0e8", "#8f6fe8", "#df6fe8", "#e86fa0"], "opacity": ".7", "legend_font_size": 14, "value_label_font_family": "Consolas, \"Liberation Mono\", Menlo, Courier, monospace", "major_label_font_family": "Consolas, \"Liberation Mono\", Menlo, Courier, monospace"}, "x_labels_major_count": null, "interpolation_precision": 250, "missing_value_fill_truncation": "x", "stack_from_top": false, "truncate_legend": null, "show_minor_x_labels": true, "print_zeroes": true, "css": ["file://style.css", "file://graph.css"], "y_label_rotation": 0, "legend_at_bottom": false, "print_values": false, "margin_top": null, "max_scale": 16, "allow_interruptions": false, "show_x_labels": true, "strict": false, "show_x_guides": false, "stroke": true, "margin_left": null, "dynamic_print_values": false, "print_labels": false, "show_y_labels": true, "x_labels_major": null, "range": null, "x_label_rotation": 0, "margin": 20, "zero": 0, "include_x_axis": false, "height": 600, "show_minor_y_labels": true, "show_dots": true, "interpolate": "cubic", "show_y_guides": true, "y_labels_major": null, "box_mode": "extremes", "margin_bottom": null, "order_min": null, "legend_box_size": 12, "fill": true, "show_only_major_dots": false, "js": ["//kozea.github.io/pygal.js/2.0.x/pygal-tooltips.min.js"], "x_title": null, "y_labels_major_every": null, "y_labels_major_count": null, "disable_xml_declaration": false, "y_title": null, "logarithmic": false, "pretty_print": false, "min_scale": 4, "dots_size": 2.5, "margin_right": null, "legends": [null], "secondary_range": null, "show_legend": false}</script><script type="text/javascript" xlink:href="https://kozea.github.io/pygal.js/2.0.x/pygal-tooltips.min.js" /></defs><title>Pygal</title><g class="graph stackedline-graph vertical"><rect class="background" height="600" width="800" x="0" y="0" /><g class="plot" transform="translate(60, 20)"><rect class="background" height="540" width="720.0" x="0" y="0" /><g class="axis y"><path class="line" d="M0.000000 540.000000 h720.000000" /><g class="guides"><path class="guide line" d="M0.000000 526.825671 h720.000000" /><text class="" x="-5" y="530.3256713480232">2800M</text><title>2800M</title></g><g class="guides"><path class="major guide line" d="M0.000000 466.977873 h720.000000" /><text class="major" x="-5" y="470.4778727052626">3000M</text><title>3000M</title></g><g class="guides"><path class="guide line" d="M0.000000 407.130074 h720.000000" /><text class="" x="-5" y="410.63007406250193">3200M</text><title>3200M</title></g><g class="guides"><path class="guide line" d="M0.000000 347.282275 h720.000000" /><text class="" x="-5" y="350.78227541974127">3400M</text><title>3400M</title></g><g class="guides"><path class="guide line" d="M0.000000 287.434477 h720.000000" /><text class="" x="-5" y="290.93447677698066">3600M</text><title>3600M</title></g><g class="guides"><path class="guide line" d="M0.000000 227.586678 h720.000000" /><text class="" x="-5" y="231.08667813422005">3800M</text><title>3800M</title></g><g class="guides"><path class="major guide line" d="M0.000000 167.738879 h720.000000" /><text class="major" x="-5" y="171.23887949145944">4000M</text><title>4000M</title></g><g class="guides"><path class="guide line" d="M0.000000 107.891081 h720.000000" /><text class="" x="-5" y="111.39108084869878">4200M</text><title>4200M</title></g><g class="guides"><path class="guide line" d="M0.000000 48.043282 h720.000000" /><text class="" x="-5" y="51.54328220593817">4400M</text><title>4400M</title></g></g><g class="axis x"><g class="guides"><path class="line" d="M13.846154 0.000000 v540.000000" /><text class="" x="13.846153846153847" y="555.0">2549</text></g><g class="guides"><path class="guide line" d="M90.769231 0.000000 v540.000000" /><text class="" x="90.76923076923076" y="555.0">2550</text></g><g class="guides"><path class="guide line" d="M167.692308 0.000000 v540.000000" /><text class="" x="167.69230769230765" y="555.0">2551</text></g><g class="guides"><path class="guide line" d="M244.615385 0.000000 v540.000000" /><text class="" x="244.6153846153846" y="555.0">2552</text></g><g class="guides"><path class="guide line" d="M321.538462 0.000000 v540.000000" /><text class="" x="321.5384615384615" y="555.0">2553</text></g><g class="guides"><path class="guide line" d="M398.461538 0.000000 v540.000000" /><text class="" x="398.46153846153845" y="555.0">2554</text></g><g class="guides"><path class="guide line" d="M475.384615 0.000000 v540.000000" /><text class="" x="475.38461538461536" y="555.0">2555</text></g><g class="guides"><path class="guide line" d="M552.307692 0.000000 v540.000000" /><text class="" x="552.3076923076923" y="555.0">2556</text></g><g class="guides"><path class="guide line" d="M629.230769 0.000000 v540.000000" /><text class="" x="629.2307692307692" y="555.0">2557</text></g><g class="guides"><path class="guide line" d="M706.153846 0.000000 v540.000000" /><text class="" x="706.1538461538461" y="555.0">2558</text></g></g><g class="series serie-0 color-0"><path class="line reactive" d="M13.846154 540.000000 L13.846154 529.615385 14.153846 529.246980 14.461538 528.878576 14.769231 528.510175 15.076923 528.141778 15.384615 527.773385 15.692308 527.404998 16.000000 527.036619 16.307692 526.668248 16.615385 526.299887 16.923077 525.931537 17.230769 525.563198 17.538462 525.194874 17.846154 524.826563 18.153846 524.458269 18.461538 524.089991 18.769231 523.721732 19.076923 523.353491 19.384615 522.985272 19.692308 522.617074 20.000000 522.248900 20.307692 521.880749 20.615385 521.512624 20.923077 521.144526 21.230769 520.776455 21.538462 520.408413 21.846154 520.040402 22.153846 519.672422 22.461538 519.304475 22.769231 518.936562 23.076923 518.568684 23.384615 518.200842 23.692308 517.833038 24.000000 517.465273 24.307692 517.097547 24.615385 516.729863 24.923077 516.362221 25.230769 515.994623 25.538462 515.627069 25.846154 515.259562 26.153846 514.892102 26.461538 514.524690 26.769231 514.157328 27.076923 513.790016 27.384615 513.422757 27.692308 513.055551 28.000000 512.688399 28.307692 512.321304 28.615385 511.954265 28.923077 511.587284 29.230769 511.220363 29.538462 510.853502 29.846154 510.486703 30.153846 510.119966 30.461538 509.753294 30.769231 509.386688 31.076923 509.020148 31.384615 508.653676 31.692308 508.287273 32.000000 507.920940 32.307692 507.554678 32.615385 507.188489 32.923077 506.822374 33.230769 506.456334 33.538462 506.090371 33.846154 505.724485 34.153846 505.358677 34.461538 504.992950 34.769231 504.627303 35.076923 504.261739 35.384615 503.896259 35.692308 503.530863 36.000000 503.165554 36.307692 502.800331 36.615385 502.435197 36.923077 502.070152 37.230769 501.705199 37.538462 501.340337 37.846154 500.975569 38.153846 500.610895 38.461538 500.246316 38.769231 499.881835 39.076923 499.517451 39.384615 499.153167 39.692308 498.788984 40.000000 498.424902 40.307692 498.060923 40.615385 497.697048 40.923077 497.333279 41.230769 496.969616 41.538462 496.606061 41.846154 496.242615 42.153846 495.879279 42.461538 495.516054 42.769231 495.152942 43.076923 494.789944 43.384615 494.427061 43.692308 494.064294 44.000000 493.701645 44.307692 493.339114 44.615385 492.976703 44.923077 492.614413 45.230769 492.252246 45.538462 491.890202 45.846154 491.528283 46.153846 491.166490 46.461538 490.804824 46.769231 490.443286 47.076923 490.081878 47.384615 489.720600 47.692308 489.359455 48.000000 488.998443 48.307692 488.637565 48.615385 488.276822 48.923077 487.916217 49.230769 487.555750 49.538462 487.195422 49.846154 486.835234 50.153846 486.475188 50.461538 486.115285 50.769231 485.755526 51.076923 485.395913 51.384615 485.036445 51.692308 484.677126 52.000000 484.317956 52.307692 483.958935 52.615385 483.600066 52.923077 483.241350 53.230769 482.882787 53.538462 482.524380 53.846154 482.166128 54.153846 481.808034 54.461538 481.450099 54.769231 481.092324 55.076923 480.734709 55.384615 480.377257 55.692308 480.019968 56.000000 479.662844 56.307692 479.305886 56.615385 478.949095 56.923077 478.592472 57.230769 478.236019 57.538462 477.879737 57.846154 477.523626 58.153846 477.167689 58.461538 476.811926 58.769231 476.456339 59.076923 476.100928 59.384615 475.745695 59.692308 475.390642 60.000000 475.035769 60.307692 474.681078 60.615385 474.326569 60.923077 473.972245 61.230769 473.618106 61.538462 473.264153 61.846154 472.910388 62.153846 472.556812 62.461538 472.203426 62.769231 471.850231 63.076923 471.497229 63.384615 471.144421 63.692308 470.791807 64.000000 470.439390 64.307692 470.087170 64.615385 469.735149 64.923077 469.383327 65.230769 469.031707 65.538462 468.680289 65.846154 468.329074 66.153846 467.978064 66.461538 467.627259 66.769231 467.276662 67.076923 466.926273 67.384615 466.576093 67.692308 466.226125 68.000000 465.876368 68.307692 465.526824 68.615385 465.177495 68.923077 464.828381 69.230769 464.479483 69.538462 464.130804 69.846154 463.782344 70.153846 463.434105 70.461538 463.086086 70.769231 462.738291 71.076923 462.390720 71.384615 462.043374 71.692308 461.696254 72.000000 461.349363 72.307692 461.002699 72.615385 460.656266 72.923077 460.310065 73.230769 459.964096 73.538462 459.618360 73.846154 459.272859 74.153846 458.927595 74.461538 458.582568 74.769231 458.237779 75.076923 457.893230 75.384615 457.548923 75.692308 457.204857 76.000000 456.861035 76.307692 456.517457 76.615385 456.174125 76.923077 455.831040 77.230769 455.488204 77.538462 455.145616 77.846154 454.803280 78.153846 454.461195 78.461538 454.119364 78.769231 453.777786 79.076923 453.436465 79.384615 453.095400 79.692308 452.754593 80.000000 452.414045 80.307692 452.073757 80.615385 451.733731 80.923077 451.393967 81.230769 451.054468 81.538462 450.715234 81.846154 450.376266 82.153846 450.037566 82.461538 449.699135 82.769231 449.360973 83.076923 449.023083 83.384615 448.685466 83.692308 448.348122 84.000000 448.011052 84.307692 447.674259 84.615385 447.337744 84.923077 447.001507 85.230769 446.665549 85.538462 446.329873 85.846154 445.994478 86.153846 445.659367 86.461538 445.324541 86.769231 444.990000 87.076923 444.655746 87.384615 444.321781 87.692308 443.988104 88.000000 443.654719 88.307692 443.321625 88.615385 442.988824 88.923077 442.656318 89.230769 442.324107 89.538462 441.992193 89.846154 441.660576 90.153846 441.329259 90.461538 440.998242 90.769231 440.667527 91.076923 440.337116 91.384615 440.007023 91.692308 439.677261 92.000000 439.347845 92.307692 439.018789 92.615385 438.690109 92.923077 438.361817 93.230769 438.033930 93.538462 437.706460 93.846154 437.379423 94.153846 437.052833 94.461538 436.726704 94.769231 436.401051 95.076923 436.075888 95.384615 435.751230 95.692308 435.427091 96.000000 435.103485 96.307692 434.780427 96.615385 434.457931 96.923077 434.136013 97.230769 433.814685 97.538462 433.493963 97.846154 433.173860 98.153846 432.854393 98.461538 432.535574 98.769231 432.217418 99.076923 431.899940 99.384615 431.583154 99.692308 431.267075 100.000000 430.951716 100.307692 430.637093 100.615385 430.323219 100.923077 430.010110 101.230769 429.697779 101.538462 429.386242 101.846154 429.075512 102.153846 428.765603 102.461538 428.456531 102.769231 428.148310 103.076923 427.840954 103.384615 427.534477 103.692308 427.228895 104.000000 426.924220 104.307692 426.620469 104.615385 426.317655 104.923077 426.015792 105.230769 425.714896 105.538462 425.414980 105.846154 425.116059 106.153846 424.818147 106.461538 424.521259 106.769231 424.225409 107.076923 423.930612 107.384615 423.636882 107.692308 423.344233 108.000000 423.052680 108.307692 422.762238 108.615385 422.472920 108.923077 422.184741 109.230769 421.897716 109.538462 421.611858 109.846154 421.327184 110.153846 421.043706 110.461538 420.761439 110.769231 420.480398 111.076923 420.200596 111.384615 419.922050 111.692308 419.644772 112.000000 419.368778 112.307692 419.094081 112.615385 418.820697 112.923077 418.548639 113.230769 418.277922 113.538462 418.008560 113.846154 417.740569 114.153846 417.473962 114.461538 417.208753 114.769231 416.944957 115.076923 416.682590 115.384615 416.421664 115.692308 416.162194 116.000000 415.904195 116.307692 415.647681 116.615385 415.392668 116.923077 415.139168 117.230769 414.887196 117.538462 414.636768 117.846154 414.387896 118.153846 414.140597 118.461538 413.894884 118.769231 413.650771 119.076923 413.408273 119.384615 413.167405 119.692308 412.928181 120.000000 412.690614 120.307692 412.454721 120.615385 412.220515 120.923077 411.988010 121.230769 411.757221 121.538462 411.528162 121.846154 411.300849 122.153846 411.075294 122.461538 410.851513 122.769231 410.629520 123.076923 410.409330 123.384615 410.190957 123.692308 409.974414 124.000000 409.759718 124.307692 409.546882 124.615385 409.335920 124.923077 409.126847 125.230769 408.919678 125.538462 408.714427 125.846154 408.511108 126.153846 408.309735 126.461538 408.110324 126.769231 407.912888 127.076923 407.717442 127.384615 407.524000 127.692308 407.332578 128.000000 407.143188 128.307692 406.955846 128.615385 406.770566 128.923077 406.587363 129.230769 406.406250 129.538462 406.227243 129.846154 406.050356 130.153846 405.875602 130.461538 405.702997 130.769231 405.532556 131.076923 405.364291 131.384615 405.198219 131.692308 405.034352 132.000000 404.872707 132.307692 404.713296 132.615385 404.556135 132.923077 404.401238 133.230769 404.248619 133.538462 404.098293 133.846154 403.950275 134.153846 403.804577 134.461538 403.661216 134.769231 403.520206 135.076923 403.381560 135.384615 403.245293 135.692308 403.111421 136.000000 402.979956 136.307692 402.850914 136.615385 402.724309 136.923077 402.600155 137.230769 402.478467 137.538462 402.359260 137.846154 402.242547 138.153846 402.128343 138.461538 402.016663 138.769231 401.907520 139.076923 401.800930 139.384615 401.696907 139.692308 401.595465 140.000000 401.496618 140.307692 401.400382 140.615385 401.306770 140.923077 401.215797 141.230769 401.127477 141.538462 401.041825 141.846154 400.958855 142.153846 400.878581 142.461538 400.801019 142.769231 400.726182 143.076923 400.654085 143.384615 400.584741 143.692308 400.518167 144.000000 400.454376 144.307692 400.393382 144.615385 400.335200 144.923077 400.279845 145.230769 400.227330 145.538462 400.177670 145.846154 400.130880 146.153846 400.086974 146.461538 400.045967 146.769231 400.007872 147.076923 399.972705 147.384615 399.940479 147.692308 399.911210 148.000000 399.884911 148.307692 399.861597 148.615385 399.841282 148.923077 399.823981 149.230769 399.809709 149.538462 399.798479 149.846154 399.790306 150.153846 399.785204 150.461538 399.783189 150.769231 399.784274 151.076923 399.788473 151.384615 399.795802 151.692308 399.806275 152.000000 399.819905 152.307692 399.836708 152.615385 399.856697 152.923077 399.879888 153.230769 399.906295 153.538462 399.935932 153.846154 399.968813 154.153846 400.004953 154.461538 400.044367 154.769231 400.087069 155.076923 400.133072 155.384615 400.182393 155.692308 400.235044 156.000000 400.291041 156.307692 400.350398 156.615385 400.413129 156.923077 400.479249 157.230769 400.548772 157.538462 400.621712 157.846154 400.698085 158.153846 400.777904 158.461538 400.861184 158.769231 400.947939 159.076923 401.038184 159.384615 401.131933 159.692308 401.229200 160.000000 401.330001 160.307692 401.434349 160.615385 401.542258 160.923077 401.653744 161.230769 401.768820 161.538462 401.887502 161.846154 402.009803 162.153846 402.135738 162.461538 402.265321 162.769231 402.398567 163.076923 402.535490 163.384615 402.676105 163.692308 402.820426 164.000000 402.968467 164.307692 403.120243 164.615385 403.275768 164.923077 403.435057 165.230769 403.598124 165.538462 403.764983 165.846154 403.935650 166.153846 404.110138 166.461538 404.288461 166.769231 404.470635 167.076923 404.656674 167.384615 404.846591 167.692308 405.040402 168.000000 405.238111 168.307692 405.439679 168.615385 405.645061 168.923077 405.854208 169.230769 406.067073 169.538462 406.283608 169.846154 406.503766 170.153846 406.727499 170.461538 406.954760 170.769231 407.185501 171.076923 407.419674 171.384615 407.657233 171.692308 407.898129 172.000000 408.142315 172.307692 408.389744 172.615385 408.640368 172.923077 408.894139 173.230769 409.151010 173.538462 409.410934 173.846154 409.673863 174.153846 409.939749 174.461538 410.208544 174.769231 410.480202 175.076923 410.754675 175.384615 411.031915 175.692308 411.311875 176.000000 411.594508 176.307692 411.879764 176.615385 412.167598 176.923077 412.457962 177.230769 412.750808 177.538462 413.046088 177.846154 413.343755 178.153846 413.643762 178.461538 413.946061 178.769231 414.250605 179.076923 414.557345 179.384615 414.866235 179.692308 415.177227 180.000000 415.490273 180.307692 415.805326 180.615385 416.122338 180.923077 416.441263 181.230769 416.762051 181.538462 417.084656 181.846154 417.409031 182.153846 417.735127 182.461538 418.062897 182.769231 418.392294 183.076923 418.723270 183.384615 419.055778 183.692308 419.389770 184.000000 419.725198 184.307692 420.062015 184.615385 420.400174 184.923077 420.739627 185.230769 421.080326 185.538462 421.422224 185.846154 421.765274 186.153846 422.109427 186.461538 422.454637 186.769231 422.800856 187.076923 423.148036 187.384615 423.496129 187.692308 423.845089 188.000000 424.194868 188.307692 424.545418 188.615385 424.896691 188.923077 425.248641 189.230769 425.601219 189.538462 425.954379 189.846154 426.308071 190.153846 426.662250 190.461538 427.016868 190.769231 427.371876 191.076923 427.727228 191.384615 428.082876 191.692308 428.438772 192.000000 428.794869 192.307692 429.151120 192.615385 429.507476 192.923077 429.863891 193.230769 430.220316 193.538462 430.576705 193.846154 430.933009 194.153846 431.289181 194.461538 431.645175 194.769231 432.000941 195.076923 432.356433 195.384615 432.711603 195.692308 433.066404 196.000000 433.420788 196.307692 433.774707 196.615385 434.128114 196.923077 434.480962 197.230769 434.833202 197.538462 435.184788 197.846154 435.535672 198.153846 435.885807 198.461538 436.235144 198.769231 436.583636 199.076923 436.931237 199.384615 437.277897 199.692308 437.623570 200.000000 437.968209 200.307692 438.311765 200.615385 438.654191 200.923077 438.995440 201.230769 439.335464 201.538462 439.674216 201.846154 440.011648 202.153846 440.347712 202.461538 440.682361 202.769231 441.015548 203.076923 441.347225 203.384615 441.677344 203.692308 442.005858 204.000000 442.332719 204.307692 442.657881 204.615385 442.981294 204.923077 443.302912 205.230769 443.622688 205.538462 443.940574 205.846154 444.256521 206.153846 444.570483 206.461538 444.882413 206.769231 445.192262 207.076923 445.499983 207.384615 445.805529 207.692308 446.108852 208.000000 446.409905 208.307692 446.708639 208.615385 447.005008 208.923077 447.298964 209.230769 447.590459 209.538462 447.879447 209.846154 448.165878 210.153846 448.449707 210.461538 448.730885 210.769231 449.009364 211.076923 449.285098 211.384615 449.558039 211.692308 449.828139 212.000000 450.095351 212.307692 450.359626 212.615385 450.620919 212.923077 450.879181 213.230769 451.134364 213.538462 451.386421 213.846154 451.635305 214.153846 451.880968 214.461538 452.123362 214.769231 452.362441 215.076923 452.598155 215.384615 452.830459 215.692308 453.059304 216.000000 453.284643 216.307692 453.506429 216.615385 453.724613 216.923077 453.939148 217.230769 454.149988 217.538462 454.357083 217.846154 454.560387 218.153846 454.759853 218.461538 454.955432 218.769231 455.147077 219.076923 455.334741 219.384615 455.518376 219.692308 455.697934 220.000000 455.873369 220.307692 456.044632 220.615385 456.211676 220.923077 456.374454 221.230769 456.532917 221.538462 456.687019 221.846154 456.836712 222.153846 456.981948 222.461538 457.122680 222.769231 457.258860 223.076923 457.390441 223.384615 457.517375 223.692308 457.639615 224.000000 457.757113 224.307692 457.869822 224.615385 457.977694 224.923077 458.080682 225.230769 458.178737 225.538462 458.271814 225.846154 458.359863 226.153846 458.442838 226.461538 458.520691 226.769231 458.593374 227.076923 458.660841 227.384615 458.723042 227.692308 458.779932 228.000000 458.831462 228.307692 458.877585 228.615385 458.918253 228.923077 458.953419 229.230769 458.983035 229.538462 459.007054 229.846154 459.025428 230.153846 459.038110 230.461538 459.045052 230.769231 459.046207 231.076923 459.041526 231.384615 459.030964 231.692308 459.014471 232.000000 458.992001 232.307692 458.963506 232.615385 458.928939 232.923077 458.888251 233.230769 458.841396 233.538462 458.788326 233.846154 458.728993 234.153846 458.663350 234.461538 458.591349 234.769231 458.512943 235.076923 458.428084 235.384615 458.336725 235.692308 458.238819 236.000000 458.134317 236.307692 458.023172 236.615385 457.905337 236.923077 457.780764 237.230769 457.649406 237.538462 457.511214 237.846154 457.366142 238.153846 457.214143 238.461538 457.055167 238.769231 456.889169 239.076923 456.716100 239.384615 456.535913 239.692308 456.348561 240.000000 456.153995 240.307692 455.952169 240.615385 455.743034 240.923077 455.526544 241.230769 455.302650 241.538462 455.071306 241.846154 454.832463 242.153846 454.586075 242.461538 454.332093 242.769231 454.070471 243.076923 453.801160 243.384615 453.524113 243.692308 453.239283 244.000000 452.946621 244.307692 452.646082 244.615385 452.337616 244.923077 452.021194 245.230769 451.696856 245.538462 451.364661 245.846154 451.024666 246.153846 450.676929 246.461538 450.321508 246.769231 449.958460 247.076923 449.587844 247.384615 449.209718 247.692308 448.824139 248.000000 448.431166 248.307692 448.030855 248.615385 447.623266 248.923077 447.208456 249.230769 446.786482 249.538462 446.357403 249.846154 445.921277 250.153846 445.478162 250.461538 445.028115 250.769231 444.571194 251.076923 444.107457 251.384615 443.636962 251.692308 443.159767 252.000000 442.675930 252.307692 442.185509 252.615385 441.688561 252.923077 441.185145 253.230769 440.675318 253.538462 440.159139 253.846154 439.636664 254.153846 439.107953 254.461538 438.573062 254.769231 438.032050 255.076923 437.484975 255.384615 436.931895 255.692308 436.372867 256.000000 435.807949 256.307692 435.237199 256.615385 434.660676 256.923077 434.078436 257.230769 433.490539 257.538462 432.897041 257.846154 432.298001 258.153846 431.693476 258.461538 431.083525 258.769231 430.468205 259.076923 429.847574 259.384615 429.221690 259.692308 428.590612 260.000000 427.954396 260.307692 427.313100 260.615385 426.666784 260.923077 426.015504 261.230769 425.359318 261.538462 424.698285 261.846154 424.032461 262.153846 423.361906 262.461538 422.686677 262.769231 422.006831 263.076923 421.322428 263.384615 420.633523 263.692308 419.940177 264.000000 419.242445 264.307692 418.540387 264.615385 417.834060 264.923077 417.123522 265.230769 416.408831 265.538462 415.690045 265.846154 414.967221 266.153846 414.240418 266.461538 413.509693 266.769231 412.775105 267.076923 412.036710 267.384615 411.294568 267.692308 410.548736 268.000000 409.799272 268.307692 409.046233 268.615385 408.289679 268.923077 407.529665 269.230769 406.766251 269.538462 405.999495 269.846154 405.229453 270.153846 404.456185 270.461538 403.679747 270.769231 402.900199 271.076923 402.117597 271.384615 401.331999 271.692308 400.543465 272.000000 399.752050 272.307692 398.957814 272.615385 398.160814 272.923077 397.361108 273.230769 396.558754 273.538462 395.753809 273.846154 394.946333 274.153846 394.136382 274.461538 393.324014 274.769231 392.509288 275.076923 391.692261 275.384615 390.872991 275.692308 390.051536 276.000000 389.227954 276.307692 388.402303 276.615385 387.574640 276.923077 386.745024 277.230769 385.913513 277.538462 385.080163 277.846154 384.245034 278.153846 383.408183 278.461538 382.569668 278.769231 381.729547 279.076923 380.887877 279.384615 380.044717 279.692308 379.200125 280.000000 378.354158 280.307692 377.506875 280.615385 376.658332 280.923077 375.808589 281.230769 374.957702 281.538462 374.105730 281.846154 373.252731 282.153846 372.398763 282.461538 371.543883 282.769231 370.688150 283.076923 369.831620 283.384615 368.974353 283.692308 368.116406 284.000000 367.257837 284.307692 366.398703 284.615385 365.539064 284.923077 364.678976 285.230769 363.818497 285.538462 362.957685 285.846154 362.096599 286.153846 361.235296 286.461538 360.373834 286.769231 359.512271 287.076923 358.650664 287.384615 357.789073 287.692308 356.927553 288.000000 356.066165 288.307692 355.204964 288.615385 354.344010 288.923077 353.483359 289.230769 352.623071 289.538462 351.763203 289.846154 350.903812 290.153846 350.044957 290.461538 349.186695 290.769231 348.329085 291.076923 347.472184 291.384615 346.616050 291.692308 345.760741 292.000000 344.906315 292.307692 344.052830 292.615385 343.200344 292.923077 342.348914 293.230769 341.498599 293.538462 340.649456 293.846154 339.801544 294.153846 338.954919 294.461538 338.109641 294.769231 337.265766 295.076923 336.423353 295.384615 335.582460 295.692308 334.743144 296.000000 333.905464 296.307692 333.069477 296.615385 332.235242 296.923077 331.402815 297.230769 330.572255 297.538462 329.743621 297.846154 328.916969 298.153846 328.092358 298.461538 327.269845 298.769231 326.449488 299.076923 325.631346 299.384615 324.815476 299.692308 324.001937 300.000000 323.190785 300.307692 322.382079 300.615385 321.575876 300.923077 320.772236 301.230769 319.971214 301.538462 319.172871 301.846154 318.377262 302.153846 317.584447 302.461538 316.794482 302.769231 316.007427 303.076923 315.223338 303.384615 314.442274 303.692308 313.664293 304.000000 312.889452 304.307692 312.117809 304.615385 311.349423 304.923077 310.584350 305.230769 309.822650 305.538462 309.064380 305.846154 308.309597 306.153846 307.558360 306.461538 306.810727 306.769231 306.066755 307.076923 305.326503 307.384615 304.590027 307.692308 303.857387 308.000000 303.128639 308.307692 302.403843 308.615385 301.683055 308.923077 300.966334 309.230769 300.253737 309.538462 299.545323 309.846154 298.841149 310.153846 298.141274 310.461538 297.445754 310.769231 296.754648 311.076923 296.068014 311.384615 295.385910 311.692308 294.708393 312.000000 294.035522 312.307692 293.367355 312.615385 292.703948 312.923077 292.045361 313.230769 291.391650 313.538462 290.742875 313.846154 290.099092 314.153846 289.460360 314.461538 288.826737 314.769231 288.198280 315.076923 287.575047 315.384615 286.957097 315.692308 286.344487 316.000000 285.737275 316.307692 285.135518 316.615385 284.539276 316.923077 283.948605 317.230769 283.363563 317.538462 282.784209 317.846154 282.210601 318.153846 281.642795 318.461538 281.080851 318.769231 280.524825 319.076923 279.974777 319.384615 279.430763 319.692308 278.892842 320.000000 278.361071 320.307692 277.835509 320.615385 277.316212 320.923077 276.803241 321.230769 276.296651 321.538462 275.796501 321.846154 275.302831 322.153846 274.815614 322.461538 274.334804 322.769231 273.860355 323.076923 273.392222 323.384615 272.930360 323.692308 272.474722 324.000000 272.025263 324.307692 271.581939 324.615385 271.144702 324.923077 270.713509 325.230769 270.288313 325.538462 269.869068 325.846154 269.455731 326.153846 269.048253 326.461538 268.646592 326.769231 268.250700 327.076923 267.860532 327.384615 267.476044 327.692308 267.097189 328.000000 266.723921 328.307692 266.356196 328.615385 265.993968 328.923077 265.637192 329.230769 265.285821 329.538462 264.939810 329.846154 264.599115 330.153846 264.263689 330.461538 263.933487 330.769231 263.608463 331.076923 263.288572 331.384615 262.973768 331.692308 262.664007 332.000000 262.359242 332.307692 262.059427 332.615385 261.764518 332.923077 261.474470 333.230769 261.189235 333.538462 260.908770 333.846154 260.633027 334.153846 260.361963 334.461538 260.095531 334.769231 259.833687 335.076923 259.576383 335.384615 259.323576 335.692308 259.075219 336.000000 258.831267 336.307692 258.591674 336.615385 258.356396 336.923077 258.125386 337.230769 257.898598 337.538462 257.675989 337.846154 257.457511 338.153846 257.243120 338.461538 257.032769 338.769231 256.826415 339.076923 256.624010 339.384615 256.425509 339.692308 256.230868 340.000000 256.040040 340.307692 255.852980 340.615385 255.669643 340.923077 255.489983 341.230769 255.313954 341.538462 255.141511 341.846154 254.972608 342.153846 254.807201 342.461538 254.645243 342.769231 254.486689 343.076923 254.331494 343.384615 254.179612 343.692308 254.030997 344.000000 253.885604 344.307692 253.743388 344.615385 253.604303 344.923077 253.468303 345.230769 253.335344 345.538462 253.205379 345.846154 253.078363 346.153846 252.954250 346.461538 252.832996 346.769231 252.714554 347.076923 252.598879 347.384615 252.485926 347.692308 252.375649 348.000000 252.268002 348.307692 252.162941 348.615385 252.060419 348.923077 251.960391 349.230769 251.862811 349.538462 251.767635 349.846154 251.674816 350.153846 251.584310 350.461538 251.496070 350.769231 251.410051 351.076923 251.326208 351.384615 251.244495 351.692308 251.164866 352.000000 251.087276 352.307692 251.011681 352.615385 250.938033 352.923077 250.866288 353.230769 250.796400 353.538462 250.728323 353.846154 250.662013 354.153846 250.597423 354.461538 250.534509 354.769231 250.473224 355.076923 250.413523 355.384615 250.355361 355.692308 250.298692 356.000000 250.243470 356.307692 250.189651 356.615385 250.137188 356.923077 250.086037 357.230769 250.036151 357.538462 249.987486 357.846154 249.939995 358.153846 249.893633 358.461538 249.848355 358.769231 249.804115 359.076923 249.760867 359.384615 249.718567 359.692308 249.677169 360.000000 249.636626 360.307692 249.596895 360.615385 249.557928 360.923077 249.519682 361.230769 249.482109 361.538462 249.445165 361.846154 249.408804 362.153846 249.372981 362.461538 249.337651 362.769231 249.302767 363.076923 249.268284 363.384615 249.234157 363.692308 249.200340 364.000000 249.166788 364.307692 249.133455 364.615385 249.100295 364.923077 249.067264 365.230769 249.034316 365.538462 249.001405 365.846154 248.968485 366.153846 248.935512 366.461538 248.902440 366.769231 248.869223 367.076923 248.835815 367.384615 248.802172 367.692308 248.768248 368.000000 248.733997 368.307692 248.699373 368.615385 248.664332 368.923077 248.628828 369.230769 248.592815 369.538462 248.556248 369.846154 248.519080 370.153846 248.481268 370.461538 248.442765 370.769231 248.403526 371.076923 248.363505 371.384615 248.322657 371.692308 248.280936 372.000000 248.238297 372.307692 248.194694 372.615385 248.150082 372.923077 248.104416 373.230769 248.057649 373.538462 248.009736 373.846154 247.960632 374.153846 247.910292 374.461538 247.858669 374.769231 247.805719 375.076923 247.751395 375.384615 247.695653 375.692308 247.638447 376.000000 247.579731 376.307692 247.519460 376.615385 247.457588 376.923077 247.394070 377.230769 247.328860 377.538462 247.261913 377.846154 247.193184 378.153846 247.122626 378.461538 247.050195 378.769231 246.975844 379.076923 246.899529 379.384615 246.821204 379.692308 246.740823 380.000000 246.658341 380.307692 246.573713 380.615385 246.486892 380.923077 246.397834 381.230769 246.306492 381.538462 246.212822 381.846154 246.116778 382.153846 246.018314 382.461538 245.917385 382.769231 245.813946 383.076923 245.707950 383.384615 245.599353 383.692308 245.488108 384.000000 245.374171 384.307692 245.257496 384.615385 245.138038 384.923077 245.015750 385.230769 244.890588 385.538462 244.762505 385.846154 244.631457 386.153846 244.497398 386.461538 244.360283 386.769231 244.220065 387.076923 244.076700 387.384615 243.930142 387.692308 243.780345 388.000000 243.627264 388.307692 243.470853 388.615385 243.311068 388.923077 243.147862 389.230769 242.981190 389.538462 242.811006 389.846154 242.637265 390.153846 242.459922 390.461538 242.278931 390.769231 242.094246 391.076923 241.905822 391.384615 241.713614 391.692308 241.517575 392.000000 241.317661 392.307692 241.113826 392.615385 240.906025 392.923077 240.694212 393.230769 240.478341 393.538462 240.258367 393.846154 240.034244 394.153846 239.805928 394.461538 239.573372 394.769231 239.336531 395.076923 239.095359 395.384615 238.849812 395.692308 238.599843 396.000000 238.345407 396.307692 238.086459 396.615385 237.822952 396.923077 237.554842 397.230769 237.282084 397.538462 237.004630 397.846154 236.722437 398.153846 236.435458 398.461538 236.143649 398.769231 235.846976 399.076923 235.545464 399.384615 235.239148 399.692308 234.928065 400.000000 234.612252 400.307692 234.291744 400.615385 233.966579 400.923077 233.636793 401.230769 233.302422 401.538462 232.963503 401.846154 232.620073 402.153846 232.272167 402.461538 231.919823 402.769231 231.563076 403.076923 231.201964 403.384615 230.836523 403.692308 230.466788 404.000000 230.092798 404.307692 229.714588 404.615385 229.332194 404.923077 228.945654 405.230769 228.555003 405.538462 228.160278 405.846154 227.761517 406.153846 227.358754 406.461538 226.952027 406.769231 226.541371 407.076923 226.126825 407.384615 225.708423 407.692308 225.286203 408.000000 224.860201 408.307692 224.430454 408.615385 223.996997 408.923077 223.559868 409.230769 223.119103 409.538462 222.674738 409.846154 222.226810 410.153846 221.775356 410.461538 221.320411 410.769231 220.862013 411.076923 220.400198 411.384615 219.935002 411.692308 219.466461 412.000000 218.994613 412.307692 218.519494 412.615385 218.041140 412.923077 217.559587 413.230769 217.074873 413.538462 216.587034 413.846154 216.096105 414.153846 215.602125 414.461538 215.105128 414.769231 214.605152 415.076923 214.102233 415.384615 213.596408 415.692308 213.087713 416.000000 212.576184 416.307692 212.061858 416.615385 211.544772 416.923077 211.024962 417.230769 210.502464 417.538462 209.977316 417.846154 209.449552 418.153846 208.919211 418.461538 208.386328 418.769231 207.850940 419.076923 207.313083 419.384615 206.772794 419.692308 206.230109 420.000000 205.685066 420.307692 205.137699 420.615385 204.588046 420.923077 204.036144 421.230769 203.482028 421.538462 202.925735 421.846154 202.367302 422.153846 201.806766 422.461538 201.244162 422.769231 200.679527 423.076923 200.112898 423.384615 199.544310 423.692308 198.973802 424.000000 198.401408 424.307692 197.827166 424.615385 197.251112 424.923077 196.673283 425.230769 196.093715 425.538462 195.512444 425.846154 194.929507 426.153846 194.344940 426.461538 193.758781 426.769231 193.171064 427.076923 192.581828 427.384615 191.991108 427.692308 191.398941 428.000000 190.805363 428.307692 190.210411 428.615385 189.614122 428.923077 189.016531 429.230769 188.417675 429.538462 187.817592 429.846154 187.216316 430.153846 186.613885 430.461538 186.010335 430.769231 185.405703 431.076923 184.800026 431.384615 184.193338 431.692308 183.585678 432.000000 182.977082 432.307692 182.367585 432.615385 181.757226 432.923077 181.146039 433.230769 180.534062 433.538462 179.921330 433.846154 179.307882 434.153846 178.693752 434.461538 178.078978 434.769231 177.463595 435.076923 176.847641 435.384615 176.231152 435.692308 175.614165 436.000000 174.996715 436.307692 174.378839 436.615385 173.760575 436.923077 173.141957 437.230769 172.523024 437.538462 171.903811 437.846154 171.284354 438.153846 170.664691 438.461538 170.044858 438.769231 169.424890 439.076923 168.804826 439.384615 168.184701 439.692308 167.564551 440.000000 166.944413 440.307692 166.324324 440.615385 165.704320 440.923077 165.084438 441.230769 164.464714 441.538462 163.845184 441.846154 163.225885 442.153846 162.606854 442.461538 161.988127 442.769231 161.369740 443.076923 160.751731 443.384615 160.134134 443.692308 159.516988 444.000000 158.900328 444.307692 158.284191 444.615385 157.668613 444.923077 157.053631 445.230769 156.439282 445.538462 155.825601 445.846154 155.212626 446.153846 154.600392 446.461538 153.988937 446.769231 153.378296 447.076923 152.768507 447.384615 152.159605 447.692308 151.551627 448.000000 150.944611 448.307692 150.338591 448.615385 149.733605 448.923077 149.129689 449.230769 148.526879 449.538462 147.925213 449.846154 147.324726 450.153846 146.725456 450.461538 146.127438 450.769231 145.530708 451.076923 144.935305 451.384615 144.341263 451.692308 143.748620 452.000000 143.157412 452.307692 142.567675 452.615385 141.979446 452.923077 141.392761 453.230769 140.807657 453.538462 140.224171 453.846154 139.642338 454.153846 139.062196 454.461538 138.483781 454.769231 137.907129 455.076923 137.332276 455.384615 136.759260 455.692308 136.188116 456.000000 135.618882 456.307692 135.051594 456.615385 134.486287 456.923077 133.922999 457.230769 133.361767 457.538462 132.802626 457.846154 132.245613 458.153846 131.690764 458.461538 131.138117 458.769231 130.587707 459.076923 130.039572 459.384615 129.493746 459.692308 128.950268 460.000000 128.409173 460.307692 127.870499 460.615385 127.334280 460.923077 126.800555 461.230769 126.269359 461.538462 125.740728 461.846154 125.214701 462.153846 124.691312 462.461538 124.170598 462.769231 123.652596 463.076923 123.137343 463.384615 122.624874 463.692308 122.115226 464.000000 121.608436 464.307692 121.104541 464.615385 120.603576 464.923077 120.105578 465.230769 119.610584 465.538462 119.118630 465.846154 118.629753 466.153846 118.143989 466.461538 117.661374 466.769231 117.181946 467.076923 116.705740 467.384615 116.232793 467.692308 115.763141 468.000000 115.296822 468.307692 114.833871 468.615385 114.374325 468.923077 113.918221 469.230769 113.465594 469.538462 113.016482 469.846154 112.570921 470.153846 112.128947 470.461538 111.690597 470.769231 111.255907 471.076923 110.824914 471.384615 110.397655 471.692308 109.974165 472.000000 109.554481 472.307692 109.138640 472.615385 108.726679 472.923077 108.318633 473.230769 107.914539 473.538462 107.514435 473.846154 107.118355 474.153846 106.726337 474.461538 106.338417 474.769231 105.954631 475.076923 105.575017 475.384615 105.199610 475.692308 104.828438 476.000000 104.461486 476.307692 104.098732 476.615385 103.740154 476.923077 103.385728 477.230769 103.035430 477.538462 102.689239 477.846154 102.347131 478.153846 102.009083 478.461538 101.675072 478.769231 101.345075 479.076923 101.019069 479.384615 100.697032 479.692308 100.378939 480.000000 100.064769 480.307692 99.754498 480.615385 99.448102 480.923077 99.145560 481.230769 98.846848 481.538462 98.551944 481.846154 98.260823 482.153846 97.973463 482.461538 97.689842 482.769231 97.409936 483.076923 97.133722 483.384615 96.861177 483.692308 96.592278 484.000000 96.327002 484.307692 96.065327 484.615385 95.807229 484.923077 95.552685 485.230769 95.301672 485.538462 95.054167 485.846154 94.810148 486.153846 94.569590 486.461538 94.332472 486.769231 94.098770 487.076923 93.868462 487.384615 93.641523 487.692308 93.417932 488.000000 93.197665 488.307692 92.980699 488.615385 92.767012 488.923077 92.556579 489.230769 92.349379 489.538462 92.145388 489.846154 91.944584 490.153846 91.746942 490.461538 91.552441 490.769231 91.361057 491.076923 91.172768 491.384615 90.987550 491.692308 90.805380 492.000000 90.626235 492.307692 90.450092 492.615385 90.276929 492.923077 90.106722 493.230769 89.939449 493.538462 89.775085 493.846154 89.613609 494.153846 89.454998 494.461538 89.299227 494.769231 89.146275 495.076923 88.996119 495.384615 88.848734 495.692308 88.704099 496.000000 88.562190 496.307692 88.422985 496.615385 88.286460 496.923077 88.152592 497.230769 88.021359 497.538462 87.892737 497.846154 87.766703 498.153846 87.643235 498.461538 87.522309 498.769231 87.403902 499.076923 87.287992 499.384615 87.174555 499.692308 87.063569 500.000000 86.955010 500.307692 86.848855 500.615385 86.745082 500.923077 86.643667 501.230769 86.544588 501.538462 86.447821 501.846154 86.353343 502.153846 86.261132 502.461538 86.171164 502.769231 86.083417 503.076923 85.997867 503.384615 85.914491 503.692308 85.833267 504.000000 85.754172 504.307692 85.677182 504.615385 85.602274 504.923077 85.529426 505.230769 85.458614 505.538462 85.389816 505.846154 85.323008 506.153846 85.258167 506.461538 85.195272 506.769231 85.134297 507.076923 85.075221 507.384615 85.018021 507.692308 84.962673 508.000000 84.909154 508.307692 84.857443 508.615385 84.807514 508.923077 84.759346 509.230769 84.712916 509.538462 84.668200 509.846154 84.625176 510.153846 84.583820 510.461538 84.544110 510.769231 84.506022 511.076923 84.469534 511.384615 84.434622 511.692308 84.401264 512.000000 84.369436 512.307692 84.339116 512.615385 84.310281 512.923077 84.282907 513.230769 84.256972 513.538462 84.232452 513.846154 84.209325 514.153846 84.187567 514.461538 84.167156 514.769231 84.148069 515.076923 84.130282 515.384615 84.113773 515.692308 84.098518 516.000000 84.084495 516.307692 84.071681 516.615385 84.060052 516.923077 84.049586 517.230769 84.040260 517.538462 84.032050 517.846154 84.024934 518.153846 84.018888 518.461538 84.013890 518.769231 84.009917 519.076923 84.006945 519.384615 84.004952 519.692308 84.003915 520.000000 84.003810 520.307692 84.004615 520.615385 84.006307 520.923077 84.008862 521.230769 84.012259 521.538462 84.016472 521.846154 84.021481 522.153846 84.027261 522.461538 84.033790 522.769231 84.041044 523.076923 84.049001 523.384615 84.057638 523.692308 84.066932 524.000000 84.076859 524.307692 84.087398 524.615385 84.098523 524.923077 84.110214 525.230769 84.122446 525.538462 84.135197 525.846154 84.148444 526.153846 84.162164 526.461538 84.176333 526.769231 84.190929 527.076923 84.205929 527.384615 84.221309 527.692308 84.237048 528.000000 84.253121 528.307692 84.269506 528.615385 84.286180 528.923077 84.303119 529.230769 84.320301 529.538462 84.337703 529.846154 84.355302 530.153846 84.373075 530.461538 84.390999 530.769231 84.409050 531.076923 84.427206 531.384615 84.445444 531.692308 84.463741 532.000000 84.482073 532.307692 84.500419 532.615385 84.518754 532.923077 84.537056 533.230769 84.555302 533.538462 84.573469 533.846154 84.591534 534.153846 84.609473 534.461538 84.627265 534.769231 84.644885 535.076923 84.662311 535.384615 84.679520 535.692308 84.696489 536.000000 84.713195 536.307692 84.729615 536.615385 84.745725 536.923077 84.761504 537.230769 84.776927 537.538462 84.791972 537.846154 84.806616 538.153846 84.820837 538.461538 84.834610 538.769231 84.847913 539.076923 84.860723 539.384615 84.873016 539.692308 84.884771 540.000000 84.895964 540.307692 84.906572 540.615385 84.916571 540.923077 84.925940 541.230769 84.934654 541.538462 84.942692 541.846154 84.950029 542.153846 84.956644 542.461538 84.962512 542.769231 84.967611 543.076923 84.971919 543.384615 84.975411 543.692308 84.978065 544.000000 84.979859 544.307692 84.980768 544.615385 84.980770 544.923077 84.979843 545.230769 84.977962 545.538462 84.975106 545.846154 84.971250 546.153846 84.966372 546.461538 84.960450 546.769231 84.953459 547.076923 84.945378 547.384615 84.936182 547.692308 84.925850 548.000000 84.914358 548.307692 84.901683 548.615385 84.887801 548.923077 84.872691 549.230769 84.856329 549.538462 84.838692 549.846154 84.819757 550.153846 84.799501 550.461538 84.777902 550.769231 84.754935 551.076923 84.730579 551.384615 84.704809 551.692308 84.677604 552.000000 84.648939 552.307692 84.618793 552.615385 84.587147 552.923077 84.554004 553.230769 84.519370 553.538462 84.483253 553.846154 84.445660 554.153846 84.406599 554.461538 84.366076 554.769231 84.324100 555.076923 84.280677 555.384615 84.235814 555.692308 84.189519 556.000000 84.141800 556.307692 84.092662 556.615385 84.042115 556.923077 83.990164 557.230769 83.936818 557.538462 83.882083 557.846154 83.825967 558.153846 83.768476 558.461538 83.709620 558.769231 83.649403 559.076923 83.587835 559.384615 83.524922 559.692308 83.460671 560.000000 83.395090 560.307692 83.328186 560.615385 83.259966 560.923077 83.190437 561.230769 83.119608 561.538462 83.047484 561.846154 82.974074 562.153846 82.899384 562.461538 82.823422 562.769231 82.746195 563.076923 82.667711 563.384615 82.587976 563.692308 82.506999 564.000000 82.424785 564.307692 82.341343 564.615385 82.256680 564.923077 82.170803 565.230769 82.083719 565.538462 81.995436 565.846154 81.905961 566.153846 81.815301 566.461538 81.723463 566.769231 81.630455 567.076923 81.536284 567.384615 81.440957 567.692308 81.344482 568.000000 81.246865 568.307692 81.148115 568.615385 81.048238 568.923077 80.947241 569.230769 80.845133 569.538462 80.741919 569.846154 80.637608 570.153846 80.532207 570.461538 80.425722 570.769231 80.318162 571.076923 80.209534 571.384615 80.099844 571.692308 79.989100 572.000000 79.877310 572.307692 79.764480 572.615385 79.650618 572.923077 79.535732 573.230769 79.419827 573.538462 79.302913 573.846154 79.184995 574.153846 79.066082 574.461538 78.946180 574.769231 78.825297 575.076923 78.703440 575.384615 78.580617 575.692308 78.456834 576.000000 78.332099 576.307692 78.206419 576.615385 78.079802 576.923077 77.952254 577.230769 77.823783 577.538462 77.694397 577.846154 77.564102 578.153846 77.432906 578.461538 77.300816 578.769231 77.167840 579.076923 77.033984 579.384615 76.899256 579.692308 76.763663 580.000000 76.627212 580.307692 76.489911 580.615385 76.351768 580.923077 76.212788 581.230769 76.072980 581.538462 75.932351 581.846154 75.790908 582.153846 75.648659 582.461538 75.505610 582.769231 75.361769 583.076923 75.217143 583.384615 75.071740 583.692308 74.925566 584.000000 74.778629 584.307692 74.630937 584.615385 74.482496 584.923077 74.333314 585.230769 74.183398 585.538462 74.032756 585.846154 73.881394 586.153846 73.729320 586.461538 73.576541 586.769231 73.423065 587.076923 73.268899 587.384615 73.114049 587.692308 72.958524 588.000000 72.802330 588.307692 72.645475 588.615385 72.487967 588.923077 72.329811 589.230769 72.171017 589.538462 72.011590 589.846154 71.851538 590.153846 71.690869 590.461538 71.529590 590.769231 71.367708 591.076923 71.205230 591.384615 71.042164 591.692308 70.878516 592.000000 70.714295 592.307692 70.549507 592.615385 70.384159 592.923077 70.218260 593.230769 70.051816 593.538462 69.884834 593.846154 69.717322 594.153846 69.549287 594.461538 69.380736 594.769231 69.211677 595.076923 69.042117 595.384615 68.872063 595.692308 68.701522 596.000000 68.530502 596.307692 68.359010 596.615385 68.187053 596.923077 68.014639 597.230769 67.841774 597.538462 67.668467 597.846154 67.494724 598.153846 67.320552 598.461538 67.145959 598.769231 66.970953 599.076923 66.795540 599.384615 66.619727 599.692308 66.443522 600.000000 66.266933 600.307692 66.089966 600.615385 65.912629 600.923077 65.734929 601.230769 65.556873 601.538462 65.378469 601.846154 65.199724 602.153846 65.020645 602.461538 64.841239 602.769231 64.661514 603.076923 64.481477 603.384615 64.301136 603.692308 64.120496 604.000000 63.939567 604.307692 63.758354 604.615385 63.576866 604.923077 63.395110 605.230769 63.213092 605.538462 63.030821 605.846154 62.848303 606.153846 62.665545 606.461538 62.482556 606.769231 62.299342 607.076923 62.115910 607.384615 61.932268 607.692308 61.748424 608.000000 61.564383 608.307692 61.380154 608.615385 61.195744 608.923077 61.011161 609.230769 60.826410 609.538462 60.641501 609.846154 60.456439 610.153846 60.271233 610.461538 60.085889 610.769231 59.900415 611.076923 59.714818 611.384615 59.529105 611.692308 59.343284 612.000000 59.157362 612.307692 58.971346 612.615385 58.785244 612.923077 58.599062 613.230769 58.412808 613.538462 58.226489 613.846154 58.040113 614.153846 57.853687 614.461538 57.667218 614.769231 57.480713 615.076923 57.294180 615.384615 57.107626 615.692308 56.921058 616.000000 56.734483 616.307692 56.547909 616.615385 56.361343 616.923077 56.174793 617.230769 55.988265 617.538462 55.801766 617.846154 55.615305 618.153846 55.428888 618.461538 55.242523 618.769231 55.056217 619.076923 54.869977 619.384615 54.683810 619.692308 54.497724 620.000000 54.311726 620.307692 54.125824 620.615385 53.940024 620.923077 53.754333 621.230769 53.568760 621.538462 53.383311 621.846154 53.197994 622.153846 53.012816 622.461538 52.827784 622.769231 52.642905 623.076923 52.458188 623.384615 52.273638 623.692308 52.089263 624.000000 51.905071 624.307692 51.721069 624.615385 51.537264 624.923077 51.353664 625.230769 51.170275 625.538462 50.987104 625.846154 50.804161 626.153846 50.621450 626.461538 50.438981 626.769231 50.256759 627.076923 50.074793 627.384615 49.893089 627.692308 49.711655 628.000000 49.530498 628.307692 49.349626 628.615385 49.169045 628.923077 48.988763 629.230769 48.808787 629.538462 48.629124 629.846154 48.449772 630.153846 48.270732 630.461538 48.092001 630.769231 47.913579 631.076923 47.735464 631.384615 47.557655 631.692308 47.380151 632.000000 47.202950 632.307692 47.026051 632.615385 46.849454 632.923077 46.673156 633.230769 46.497156 633.538462 46.321454 633.846154 46.146047 634.153846 45.970935 634.461538 45.796117 634.769231 45.621591 635.076923 45.447355 635.384615 45.273410 635.692308 45.099752 636.000000 44.926382 636.307692 44.753298 636.615385 44.580498 636.923077 44.407982 637.230769 44.235748 637.538462 44.063795 637.846154 43.892121 638.153846 43.720726 638.461538 43.549608 638.769231 43.378766 639.076923 43.208198 639.384615 43.037904 639.692308 42.867882 640.000000 42.698130 640.307692 42.528649 640.615385 42.359435 640.923077 42.190489 641.230769 42.021809 641.538462 41.853393 641.846154 41.685240 642.153846 41.517350 642.461538 41.349720 642.769231 41.182350 643.076923 41.015238 643.384615 40.848383 643.692308 40.681785 644.000000 40.515440 644.307692 40.349349 644.615385 40.183510 644.923077 40.017922 645.230769 39.852583 645.538462 39.687492 645.846154 39.522649 646.153846 39.358051 646.461538 39.193698 646.769231 39.029588 647.076923 38.865720 647.384615 38.702093 647.692308 38.538706 648.000000 38.375556 648.307692 38.212644 648.615385 38.049967 648.923077 37.887525 649.230769 37.725316 649.538462 37.563339 649.846154 37.401593 650.153846 37.240076 650.461538 37.078787 650.769231 36.917726 651.076923 36.756890 651.384615 36.596278 651.692308 36.435890 652.000000 36.275724 652.307692 36.115778 652.615385 35.956052 652.923077 35.796544 653.230769 35.637253 653.538462 35.478178 653.846154 35.319317 654.153846 35.160669 654.461538 35.002233 654.769231 34.844008 655.076923 34.685992 655.384615 34.528184 655.692308 34.370583 656.000000 34.213188 656.307692 34.055998 656.615385 33.899010 656.923077 33.742224 657.230769 33.585639 657.538462 33.429253 657.846154 33.273066 658.153846 33.117075 658.461538 32.961280 658.769231 32.805679 659.076923 32.650272 659.384615 32.495056 659.692308 32.340030 660.000000 32.185195 660.307692 32.030547 660.615385 31.876086 660.923077 31.721810 661.230769 31.567719 661.538462 31.413811 661.846154 31.260085 662.153846 31.106540 662.461538 30.953173 662.769231 30.799985 663.076923 30.646974 663.384615 30.494138 663.692308 30.341476 664.000000 30.188988 664.307692 30.036671 664.615385 29.884525 664.923077 29.732548 665.230769 29.580739 665.538462 29.429097 665.846154 29.277620 666.153846 29.126308 666.461538 28.975159 666.769231 28.824171 667.076923 28.673344 667.384615 28.522676 667.692308 28.372166 668.000000 28.221813 668.307692 28.071616 668.615385 27.921572 668.923077 27.771682 669.230769 27.621943 669.538462 27.472355 669.846154 27.322916 670.153846 27.173625 670.461538 27.024481 670.769231 26.875482 671.076923 26.726627 671.384615 26.577915 671.692308 26.429345 672.000000 26.280916 672.307692 26.132625 672.615385 25.984473 672.923077 25.836457 673.230769 25.688577 673.538462 25.540830 673.846154 25.393217 674.153846 25.245736 674.461538 25.098384 674.769231 24.951162 675.076923 24.804068 675.384615 24.657101 675.692308 24.510259 676.000000 24.363541 676.307692 24.216946 676.615385 24.070472 676.923077 23.924119 677.230769 23.777885 677.538462 23.631769 677.846154 23.485769 678.153846 23.339885 678.461538 23.194115 678.769231 23.048458 679.076923 22.902913 679.384615 22.757477 679.692308 22.612151 680.000000 22.466933 680.307692 22.321821 680.615385 22.176815 680.923077 22.031913 681.230769 21.887113 681.538462 21.742415 681.846154 21.597818 682.153846 21.453319 682.461538 21.308918 682.769231 21.164614 683.076923 21.020405 683.384615 20.876291 683.692308 20.732269 684.000000 20.588338 684.307692 20.444498 684.615385 20.300747 684.923077 20.157083 685.230769 20.013506 685.538462 19.870015 685.846154 19.726607 686.153846 19.583282 686.461538 19.440039 686.769231 19.296876 687.076923 19.153792 687.384615 19.010785 687.692308 18.867855 688.000000 18.725001 688.307692 18.582220 688.615385 18.439512 688.923077 18.296876 689.230769 18.154310 689.538462 18.011812 689.846154 17.869383 690.153846 17.727020 690.461538 17.584722 690.769231 17.442488 691.076923 17.300317 691.384615 17.158207 691.692308 17.016157 692.000000 16.874166 692.307692 16.732233 692.615385 16.590357 692.923077 16.448535 693.230769 16.306768 693.538462 16.165053 693.846154 16.023390 694.153846 15.881777 694.461538 15.740212 694.769231 15.598695 695.076923 15.457225 695.384615 15.315800 695.692308 15.174419 696.000000 15.033080 696.307692 14.891783 696.615385 14.750526 696.923077 14.609307 697.230769 14.468127 697.538462 14.326983 697.846154 14.185873 698.153846 14.044798 698.461538 13.903755 698.769231 13.762744 699.076923 13.621763 699.384615 13.480810 699.692308 13.339885 700.000000 13.198987 700.307692 13.058113 700.615385 12.917264 700.923077 12.776437 701.230769 12.635631 701.538462 12.494845 701.846154 12.354079 702.153846 12.213329 702.461538 12.072596 702.769231 11.931878 703.076923 11.791174 703.384615 11.650483 703.692308 11.509802 704.000000 11.369132 704.307692 11.228470 704.615385 11.087816 704.923077 10.947169 705.230769 10.806526 705.538462 10.665887 705.846154 10.525251 706.153846 10.384615 706.153846 540.000000" /></g></g><g class="titles" /><g class="plot overlay" transform="translate(60, 20)"><g class="series serie-0 color-0"><g class="dots"><circle class="dot reactive tooltip-trigger" cx="13.846153846153847" cy="529.6153846153845" r="2.5" /><desc class="value">2,790,677,307(kWh)</desc><desc class="x top">13.846153846153847</desc><desc class="y top">529.6153846153845</desc><desc class="x_label">2549</desc></g><g class="dots"><circle class="dot reactive tooltip-trigger" cx="90.76923076923076" cy="440.6675266105234" r="2.5" /><desc class="value">3,087,924,190(kWh)</desc><desc class="x top">90.76923076923076</desc><desc class="y top">440.6675266105234</desc><desc class="x_label">2550</desc></g><g class="dots"><circle class="dot reactive tooltip-trigger" cx="167.69230769230765" cy="405.0404019920599" r="2.5" /><desc class="value">3,206,983,288(kWh)</desc><desc class="x top">167.69230769230765</desc><desc class="y top">405.0404019920599</desc><desc class="x_label">2551</desc></g><g class="dots"><circle class="dot reactive tooltip-trigger" cx="244.6153846153846" cy="452.337615734881" r="2.5" /><desc class="value">3,048,924,964(kWh)</desc><desc class="x top">244.6153846153846</desc><desc class="y top">452.337615734881</desc><desc class="x_label">2552</desc></g><g class="dots"><circle class="dot reactive tooltip-trigger" cx="321.5384615384615" cy="275.7965007844188" r="2.5" /><desc class="value">3,638,891,910(kWh)</desc><desc class="x top">321.5384615384615</desc><desc class="y top">275.7965007844188</desc><desc class="x_label">2553</desc></g><g class="dots"><circle class="dot reactive tooltip-trigger" cx="398.46153846153845" cy="236.14364875614945" r="2.5" /><desc class="value">3,771,404,226(kWh)</desc><desc class="x left">398.46153846153845</desc><desc class="y left">236.14364875614945</desc><desc class="x_label">2554</desc></g><g class="dots"><circle class="dot reactive tooltip-trigger" cx="475.38461538461536" cy="105.19961013672145" r="2.5" /><desc class="value">4,208,994,385(kWh)</desc><desc class="x left">475.38461538461536</desc><desc class="y left">105.19961013672145</desc><desc class="x_label">2555</desc></g><g class="dots"><circle class="dot reactive tooltip-trigger" cx="552.3076923076923" cy="84.61879334428596" r="2.5" /><desc class="value">4,277,771,574(kWh)</desc><desc class="x left">552.3076923076923</desc><desc class="y left">84.61879334428596</desc><desc class="x_label">2556</desc></g><g class="dots"><circle class="dot reactive tooltip-trigger" cx="629.2307692307692" cy="48.808787318924885" r="2.5" /><desc class="value">4,397,441,827(kWh)</desc><desc class="x left">629.2307692307692</desc><desc class="y left">48.808787318924885</desc><desc class="x_label">2557</desc></g><g class="dots"><circle class="dot reactive tooltip-trigger" cx="706.1538461538461" cy="10.384615384615245" r="2.5" /><desc class="value">4,525,848,127(kWh)</desc><desc class="x left">706.1538461538461</desc><desc class="y left">10.384615384615245</desc><desc class="x_label">2558</desc></g></g></g><g class="plot text-overlay" transform="translate(60, 20)"><g class="series serie-0 color-0" /></g><g class="plot tooltip-overlay" transform="translate(60, 20)"><g class="tooltip" style="opacity: 0" transform="translate(0 0)"><rect class="tooltip-box" height="0" rx="0" ry="0" width="0" /><g class="text" /></g></g></g></svg>