<?xml version='1.0' encoding='utf-8'?>
<svg xmlns:xlink="http://www.w3.org/1999/xlink" class="pygal-chart" id="chart-5e4f0817-2498-4e11-a944-0db06469464a" viewBox="0 0 800 600" xmlns="http://www.w3.org/2000/svg"><!--Generated with pygal 2.3.0 (etree) ©Kozea 2012-2016 on 2016-12-08--><!--http://pygal.org--><!--http://github.com/Kozea/pygal--><defs><style type="text/css">#chart-5e4f0817-2498-4e11-a944-0db06469464a{-webkit-user-select:none;-webkit-font-smoothing:antialiased;font-family:Consolas,"Liberation Mono",Menlo,Courier,monospace}#chart-5e4f0817-2498-4e11-a944-0db06469464a .title{font-family:Consolas,"Liberation Mono",Menlo,Courier,monospace;font-size:16px}#chart-5e4f0817-2498-4e11-a944-0db06469464a .legends .legend text{font-family:Consolas,"Liberation Mono",Menlo,Courier,monospace;font-size:14px}#chart-5e4f0817-2498-4e11-a944-0db06469464a .axis text{font-family:Consolas,"Liberation Mono",Menlo,Courier,monospace;font-size:10px}#chart-5e4f0817-2498-4e11-a944-0db06469464a .axis text.major{font-family:Consolas,"Liberation Mono",Menlo,Courier,monospace;font-size:10px}#chart-5e4f0817-2498-4e11-a944-0db06469464a .text-overlay text.value{font-family:Consolas,"Liberation Mono",Menlo,Courier,monospace;font-size:16px}#chart-5e4f0817-2498-4e11-a944-0db06469464a .text-overlay text.label{font-family:Consolas,"Liberation Mono",Menlo,Courier,monospace;font-size:10px}#chart-5e4f0817-2498-4e11-a944-0db06469464a .tooltip{font-family:Consolas,"Liberation Mono",Menlo,Courier,monospace;font-size:14px}#chart-5e4f0817-2498-4e11-a944-0db06469464a text.no_data{font-family:Consolas,"Liberation Mono",Menlo,Courier,monospace;font-size:64px}
#chart-5e4f0817-2498-4e11-a944-0db06469464a{background-color:rgba(249,249,249,1)}#chart-5e4f0817-2498-4e11-a944-0db06469464a path,#chart-5e4f0817-2498-4e11-a944-0db06469464a line,#chart-5e4f0817-2498-4e11-a944-0db06469464a rect,#chart-5e4f0817-2498-4e11-a944-0db06469464a circle{-webkit-transition:150ms;-moz-transition:150ms;transition:150ms}#chart-5e4f0817-2498-4e11-a944-0db06469464a .graph &gt; .background{fill:rgba(249,249,249,1)}#chart-5e4f0817-2498-4e11-a944-0db06469464a .plot &gt; .background{fill:rgba(255,255,255,1)}#chart-5e4f0817-2498-4e11-a944-0db06469464a .graph{fill:rgba(0,0,0,.87)}#chart-5e4f0817-2498-4e11-a944-0db06469464a text.no_data{fill:rgba(0,0,0,1)}#chart-5e4f0817-2498-4e11-a944-0db06469464a .title{fill:rgba(0,0,0,1)}#chart-5e4f0817-2498-4e11-a944-0db06469464a .legends .legend text{fill:rgba(0,0,0,.87)}#chart-5e4f0817-2498-4e11-a944-0db06469464a .legends .legend:hover text{fill:rgba(0,0,0,1)}#chart-5e4f0817-2498-4e11-a944-0db06469464a .axis .line{stroke:rgba(0,0,0,1)}#chart-5e4f0817-2498-4e11-a944-0db06469464a .axis .guide.line{stroke:rgba(0,0,0,.54)}#chart-5e4f0817-2498-4e11-a944-0db06469464a .axis .major.line{stroke:rgba(0,0,0,.87)}#chart-5e4f0817-2498-4e11-a944-0db06469464a .axis text.major{fill:rgba(0,0,0,1)}#chart-5e4f0817-2498-4e11-a944-0db06469464a .axis.y .guides:hover .guide.line,#chart-5e4f0817-2498-4e11-a944-0db06469464a .line-graph .axis.x .guides:hover .guide.line,#chart-5e4f0817-2498-4e11-a944-0db06469464a .stackedline-graph .axis.x .guides:hover .guide.line,#chart-5e4f0817-2498-4e11-a944-0db06469464a .xy-graph .axis.x .guides:hover .guide.line{stroke:rgba(0,0,0,1)}#chart-5e4f0817-2498-4e11-a944-0db06469464a .axis .guides:hover text{fill:rgba(0,0,0,1)}#chart-5e4f0817-2498-4e11-a944-0db06469464a .reactive{fill-opacity:.7;stroke-opacity:.8}#chart-5e4f0817-2498-4e11-a944-0db06469464a .ci{stroke:rgba(0,0,0,.87)}#chart-5e4f0817-2498-4e11-a944-0db06469464a .reactive.active,#chart-5e4f0817-2498-4e11-a944-0db06469464a .active .reactive{fill-opacity:.8;stroke-opacity:.9;stroke-width:4}#chart-5e4f0817-2498-4e11-a944-0db06469464a .ci .reactive.active{stroke-width:1.5}#chart-5e4f0817-2498-4e11-a944-0db06469464a .series text{fill:rgba(0,0,0,1)}#chart-5e4f0817-2498-4e11-a944-0db06469464a .tooltip rect{fill:rgba(255,255,255,1);stroke:rgba(0,0,0,1);-webkit-transition:opacity 150ms;-moz-transition:opacity 150ms;transition:opacity 150ms}#chart-5e4f0817-2498-4e11-a944-0db06469464a .tooltip .label{fill:rgba(0,0,0,.87)}#chart-5e4f0817-2498-4e11-a944-0db06469464a .tooltip .label{fill:rgba(0,0,0,.87)}#chart-5e4f0817-2498-4e11-a944-0db06469464a .tooltip .legend{font-size:.8em;fill:rgba(0,0,0,.54)}#chart-5e4f0817-2498-4e11-a944-0db06469464a .tooltip .x_label{font-size:.6em;fill:rgba(0,0,0,1)}#chart-5e4f0817-2498-4e11-a944-0db06469464a .tooltip .xlink{font-size:.5em;text-decoration:underline}#chart-5e4f0817-2498-4e11-a944-0db06469464a .tooltip .value{font-size:1.5em}#chart-5e4f0817-2498-4e11-a944-0db06469464a .bound{font-size:.5em}#chart-5e4f0817-2498-4e11-a944-0db06469464a .max-value{font-size:.75em;fill:rgba(0,0,0,.54)}#chart-5e4f0817-2498-4e11-a944-0db06469464a .map-element{fill:rgba(255,255,255,1);stroke:rgba(0,0,0,.54) !important}#chart-5e4f0817-2498-4e11-a944-0db06469464a .map-element .reactive{fill-opacity:inherit;stroke-opacity:inherit}#chart-5e4f0817-2498-4e11-a944-0db06469464a .color-0,#chart-5e4f0817-2498-4e11-a944-0db06469464a .color-0 a:visited{stroke:#e86fa0;fill:#e86fa0}#chart-5e4f0817-2498-4e11-a944-0db06469464a .text-overlay .color-0 text{fill:black}
#chart-5e4f0817-2498-4e11-a944-0db06469464a text.no_data{text-anchor:middle}#chart-5e4f0817-2498-4e11-a944-0db06469464a .guide.line{fill:none}#chart-5e4f0817-2498-4e11-a944-0db06469464a .centered{text-anchor:middle}#chart-5e4f0817-2498-4e11-a944-0db06469464a .title{text-anchor:middle}#chart-5e4f0817-2498-4e11-a944-0db06469464a .legends .legend text{fill-opacity:1}#chart-5e4f0817-2498-4e11-a944-0db06469464a .axis.x text{text-anchor:middle}#chart-5e4f0817-2498-4e11-a944-0db06469464a .axis.x:not(.web) text[transform]{text-anchor:start}#chart-5e4f0817-2498-4e11-a944-0db06469464a .axis.x:not(.web) text[transform].backwards{text-anchor:end}#chart-5e4f0817-2498-4e11-a944-0db06469464a .axis.y text{text-anchor:end}#chart-5e4f0817-2498-4e11-a944-0db06469464a .axis.y text[transform].backwards{text-anchor:start}#chart-5e4f0817-2498-4e11-a944-0db06469464a .axis.y2 text{text-anchor:start}#chart-5e4f0817-2498-4e11-a944-0db06469464a .axis.y2 text[transform].backwards{text-anchor:end}#chart-5e4f0817-2498-4e11-a944-0db06469464a .axis .guide.line{stroke-dasharray:4,4}#chart-5e4f0817-2498-4e11-a944-0db06469464a .axis .major.guide.line{stroke-dasharray:6,6}#chart-5e4f0817-2498-4e11-a944-0db06469464a .horizontal .axis.y .guide.line,#chart-5e4f0817-2498-4e11-a944-0db06469464a .horizontal .axis.y2 .guide.line,#chart-5e4f0817-2498-4e11-a944-0db06469464a .vertical .axis.x .guide.line{opacity:0}#chart-5e4f0817-2498-4e11-a944-0db06469464a .horizontal .axis.always_show .guide.line,#chart-5e4f0817-2498-4e11-a944-0db06469464a .vertical .axis.always_show .guide.line{opacity:1 !important}#chart-5e4f0817-2498-4e11-a944-0db06469464a .axis.y .guides:hover .guide.line,#chart-5e4f0817-2498-4e11-a944-0db06469464a .axis.y2 .guides:hover .guide.line,#chart-5e4f0817-2498-4e11-a944-0db06469464a .axis.x .guides:hover .guide.line{opacity:1}#chart-5e4f0817-2498-4e11-a944-0db06469464a .axis .guides:hover text{opacity:1}#chart-5e4f0817-2498-4e11-a944-0db06469464a .nofill{fill:none}#chart-5e4f0817-2498-4e11-a944-0db06469464a .subtle-fill{fill-opacity:.2}#chart-5e4f0817-2498-4e11-a944-0db06469464a .dot{stroke-width:1px;fill-opacity:1}#chart-5e4f0817-2498-4e11-a944-0db06469464a .dot.active{stroke-width:5px}#chart-5e4f0817-2498-4e11-a944-0db06469464a .dot.negative{fill:transparent}#chart-5e4f0817-2498-4e11-a944-0db06469464a text,#chart-5e4f0817-2498-4e11-a944-0db06469464a tspan{stroke:none !important}#chart-5e4f0817-2498-4e11-a944-0db06469464a .series text.active{opacity:1}#chart-5e4f0817-2498-4e11-a944-0db06469464a .tooltip rect{fill-opacity:.95;stroke-width:.5}#chart-5e4f0817-2498-4e11-a944-0db06469464a .tooltip text{fill-opacity:1}#chart-5e4f0817-2498-4e11-a944-0db06469464a .showable{visibility:hidden}#chart-5e4f0817-2498-4e11-a944-0db06469464a .showable.shown{visibility:visible}#chart-5e4f0817-2498-4e11-a944-0db06469464a .gauge-background{fill:rgba(229,229,229,1);stroke:none}#chart-5e4f0817-2498-4e11-a944-0db06469464a .bg-lines{stroke:rgba(249,249,249,1);stroke-width:2px}</style><script type="text/javascript">window.pygal = window.pygal || {};window.pygal.config = window.pygal.config || {};window.pygal.config['5e4f0817-2498-4e11-a944-0db06469464a'] = {"no_data_text": "No data", "no_prefix": false, "xrange": null, "print_values_position": "center", "truncate_label": null, "x_labels": ["2549", "2550", "2551", "2552", "2553", "2554", "2555", "2556", "2557", "2558"], "title": null, "force_uri_protocol": "https", "defs": [], "formatter": null, "classes": ["pygal-chart"], "y_labels": null, "rounded_bars": null, "explicit_size": false, "x_labels_major_every": null, "legend_at_bottom_columns": null, "stroke_style": null, "half_pie": false, "spacing": 10, "tooltip_fancy_mode": true, "inverse_y_axis": false, "width": 800, "inner_radius": 0, "interpolation_parameters": {}, "tooltip_border_radius": 0, "style": {"no_data_font_family": "Consolas, \"Liberation Mono\", Menlo, Courier, monospace", "tooltip_font_size": 14, "tooltip_font_family": "Consolas, \"Liberation Mono\", Menlo, Courier, monospace", "stroke_opacity_hover": ".9", "legend_font_family": "Consolas, \"Liberation Mono\", Menlo, Courier, monospace", "font_family": "Consolas, \"Liberation Mono\", Menlo, Courier, monospace", "title_font_family": "Consolas, \"Liberation Mono\", Menlo, Courier, monospace", "background": "rgba(249, 249, 249, 1)", "stroke_opacity": ".8", "foreground": "rgba(0, 0, 0, .87)", "value_background": "rgba(229, 229, 229, 1)", "guide_stroke_dasharray": "4,4", "foreground_subtle": "rgba(0, 0, 0, .54)", "opacity_hover": ".8", "value_font_family": "Consolas, \"Liberation Mono\", Menlo, Courier, monospace", "value_label_font_size": 10, "plot_background": "rgba(255, 255, 255, 1)", "ci_colors": [], "label_font_size": 10, "major_label_font_size": 10, "title_font_size": 16, "no_data_font_size": 64, "value_font_size": 16, "value_colors": [], "label_font_family": "Consolas, \"Liberation Mono\", Menlo, Courier, monospace", "major_guide_stroke_dasharray": "6,6", "transition": "150ms", "foreground_strong": "rgba(0, 0, 0, 1)", "colors": ["#e86fa0", "#e88f6f", "#e8df6f", "#a0e86f", "#6fe88f", "#6fe8df", "#6fa0e8", "#8f6fe8", "#df6fe8", "#e86fa0"], "opacity": ".7", "legend_font_size": 14, "value_label_font_family": "Consolas, \"Liberation Mono\", Menlo, Courier, monospace", "major_label_font_family": "Consolas, \"Liberation Mono\", Menlo, Courier, monospace"}, "x_labels_major_count": null, "interpolation_precision": 250, "missing_value_fill_truncation": "x", "stack_from_top": false, "truncate_legend": null, "show_minor_x_labels": true, "print_zeroes": true, "css": ["file://style.css", "file://graph.css"], "y_label_rotation": 0, "legend_at_bottom": false, "print_values": false, "margin_top": null, "max_scale": 16, "allow_interruptions": false, "show_x_labels": true, "strict": false, "show_x_guides": false, "stroke": true, "margin_left": null, "dynamic_print_values": false, "print_labels": false, "show_y_labels": true, "x_labels_major": null, "range": null, "x_label_rotation": 0, "margin": 20, "zero": 0, "include_x_axis": false, "height": 600, "show_minor_y_labels": true, "show_dots": true, "interpolate": "cubic", "show_y_guides": true, "y_labels_major": null, "box_mode": "extremes", "margin_bottom": null, "order_min": null, "legend_box_size": 12, "fill": true, "show_only_major_dots": false, "js": ["//kozea.github.io/pygal.js/2.0.x/pygal-tooltips.min.js"], "x_title": null, "y_labels_major_every": null, "y_labels_major_count": null, "disable_xml_declaration": false, "y_title": null, "logarithmic": false, "pretty_print": false, "min_scale": 4, "dots_size": 2.5, "margin_right": null, "legends": [null], "secondary_range": null, "show_legend": false}</script><script type="text/javascript" xlink:href="https://kozea.github.io/pygal.js/2.0.x/pygal-tooltips.min.js" /></defs><title>Pygal</title><g class="graph stackedline-graph vertical"><rect class="background" height="600" width="800" x="0" y="0" /><g class="plot" transform="translate(66, 20)"><rect class="background" height="540" width="714.0" x="0" y="0" /><g class="axis y"><path class="line" d="M0.000000 540.000000 h714.000000" /><g class="guides"><path class="guide line" d="M0.000000 486.638505 h714.000000" /><text class="" x="-5" y="490.1385045235883">7600M</text><title>7600M</title></g><g class="guides"><path class="guide line" d="M0.000000 430.421797 h714.000000" /><text class="" x="-5" y="433.9217970181418">8000M</text><title>8000M</title></g><g class="guides"><path class="guide line" d="M0.000000 374.205090 h714.000000" /><text class="" x="-5" y="377.7050895126953">8400M</text><title>8400M</title></g><g class="guides"><path class="guide line" d="M0.000000 317.988382 h714.000000" /><text class="" x="-5" y="321.4883820072487">8800M</text><title>8800M</title></g><g class="guides"><path class="guide line" d="M0.000000 261.771675 h714.000000" /><text class="" x="-5" y="265.2716745018022">9200M</text><title>9200M</title></g><g class="guides"><path class="guide line" d="M0.000000 205.554967 h714.000000" /><text class="" x="-5" y="209.0549669963557">9600M</text><title>9600M</title></g><g class="guides"><path class="guide line" d="M0.000000 149.338259 h714.000000" /><text class="" x="-5" y="152.83825949090914">10000M</text><title>10000M</title></g><g class="guides"><path class="guide line" d="M0.000000 93.121552 h714.000000" /><text class="" x="-5" y="96.62155198546265">10400M</text><title>10400M</title></g><g class="guides"><path class="guide line" d="M0.000000 36.904844 h714.000000" /><text class="" x="-5" y="40.404844480016095">10800M</text><title>10800M</title></g></g><g class="axis x"><g class="guides"><path class="line" d="M13.730769 0.000000 v540.000000" /><text class="" x="13.730769230769232" y="555.0">2549</text></g><g class="guides"><path class="guide line" d="M90.012821 0.000000 v540.000000" /><text class="" x="90.0128205128205" y="555.0">2550</text></g><g class="guides"><path class="guide line" d="M166.294872 0.000000 v540.000000" /><text class="" x="166.29487179487177" y="555.0">2551</text></g><g class="guides"><path class="guide line" d="M242.576923 0.000000 v540.000000" /><text class="" x="242.57692307692307" y="555.0">2552</text></g><g class="guides"><path class="guide line" d="M318.858974 0.000000 v540.000000" /><text class="" x="318.85897435897436" y="555.0">2553</text></g><g class="guides"><path class="guide line" d="M395.141026 0.000000 v540.000000" /><text class="" x="395.1410256410257" y="555.0">2554</text></g><g class="guides"><path class="guide line" d="M471.423077 0.000000 v540.000000" /><text class="" x="471.4230769230769" y="555.0">2555</text></g><g class="guides"><path class="guide line" d="M547.705128 0.000000 v540.000000" /><text class="" x="547.7051282051282" y="555.0">2556</text></g><g class="guides"><path class="guide line" d="M623.987179 0.000000 v540.000000" /><text class="" x="623.9871794871794" y="555.0">2557</text></g><g class="guides"><path class="guide line" d="M700.269231 0.000000 v540.000000" /><text class="" x="700.2692307692307" y="555.0">2558</text></g></g><g class="series serie-0 color-0"><path class="line reactive" d="M13.730769 540.000000 L13.730769 529.615385 14.035897 529.184805 14.341026 528.754228 14.646154 528.323653 14.951282 527.893083 15.256410 527.462520 15.561538 527.031964 15.866667 526.601418 16.171795 526.170883 16.476923 525.740361 16.782051 525.309853 17.087179 524.879360 17.392308 524.448885 17.697436 524.018429 18.002564 523.587994 18.307692 523.157580 18.612821 522.727190 18.917949 522.296826 19.223077 521.866488 19.528205 521.436179 19.833333 521.005899 20.138462 520.575651 20.443590 520.145437 20.748718 519.715257 21.053846 519.285113 21.358974 518.855007 21.664103 518.424941 21.969231 517.994916 22.274359 517.564933 22.579487 517.134995 22.884615 516.705102 23.189744 516.275257 23.494872 515.845460 23.800000 515.415714 24.105128 514.986021 24.410256 514.556381 24.715385 514.126796 25.020513 513.697268 25.325641 513.267798 25.630769 512.838388 25.935897 512.409040 26.241026 511.979755 26.546154 511.550535 26.851282 511.121381 27.156410 510.692294 27.461538 510.263278 27.766667 509.834332 28.071795 509.405459 28.376923 508.976660 28.682051 508.547937 28.987179 508.119291 29.292308 507.690724 29.597436 507.262238 29.902564 506.833833 30.207692 506.405512 30.512821 505.977277 30.817949 505.549128 31.123077 505.121068 31.428205 504.693098 31.733333 504.265219 32.038462 503.837433 32.343590 503.409742 32.648718 502.982148 32.953846 502.554651 33.258974 502.127253 33.564103 501.699957 33.869231 501.272763 34.174359 500.845673 34.479487 500.418689 34.784615 499.991813 35.089744 499.565045 35.394872 499.138388 35.700000 498.711843 36.005128 498.285411 36.310256 497.859095 36.615385 497.432896 36.920513 497.006814 37.225641 496.580853 37.530769 496.155014 37.835897 495.729297 38.141026 495.303705 38.446154 494.878240 38.751282 494.452902 39.056410 494.027693 39.361538 493.602616 39.666667 493.177671 39.971795 492.752861 40.276923 492.328186 40.582051 491.903648 40.887179 491.479250 41.192308 491.054991 41.497436 490.630875 41.802564 490.206903 42.107692 489.783075 42.412821 489.359395 42.717949 488.935863 43.023077 488.512480 43.328205 488.089249 43.633333 487.666172 43.938462 487.243249 44.243590 486.820482 44.548718 486.397873 44.853846 485.975424 45.158974 485.553135 45.464103 485.131009 45.769231 484.709047 46.074359 484.287251 46.379487 483.865622 46.684615 483.444163 46.989744 483.022873 47.294872 482.601756 47.600000 482.180812 47.905128 481.760043 48.210256 481.339451 48.515385 480.919038 48.820513 480.498804 49.125641 480.078752 49.430769 479.658883 49.735897 479.239199 50.041026 478.819701 50.346154 478.400390 50.651282 477.981269 50.956410 477.562339 51.261538 477.143602 51.566667 476.725059 51.871795 476.306711 52.176923 475.888561 52.482051 475.470609 52.787179 475.052858 53.092308 474.635310 53.397436 474.217964 53.702564 473.800824 54.007692 473.383891 54.312821 472.967166 54.617949 472.550650 54.923077 472.134347 55.228205 471.718256 55.533333 471.302380 55.838462 470.886720 56.143590 470.471278 56.448718 470.056056 56.753846 469.641054 57.058974 469.226275 57.364103 468.811720 57.669231 468.397391 57.974359 467.983289 58.279487 467.569416 58.584615 467.155773 58.889744 466.742362 59.194872 466.329185 59.500000 465.916243 59.805128 465.503538 60.110256 465.091071 60.415385 464.678844 60.720513 464.266859 61.025641 463.855116 61.330769 463.443618 61.635897 463.032367 61.941026 462.621363 62.246154 462.210609 62.551282 461.800105 62.856410 461.389854 63.161538 460.979857 63.466667 460.570116 63.771795 460.160632 64.076923 459.751407 64.382051 459.342442 64.687179 458.933740 64.992308 458.525300 65.297436 458.117126 65.602564 457.709219 65.907692 457.301580 66.212821 456.894211 66.517949 456.487114 66.823077 456.080289 67.128205 455.673739 67.433333 455.267466 67.738462 454.861470 68.043590 454.455753 68.348718 454.050317 68.653846 453.645164 68.958974 453.240295 69.264103 452.835712 69.569231 452.431416 69.874359 452.027408 70.179487 451.623691 70.484615 451.220266 70.789744 450.817135 71.094872 450.414299 71.400000 450.011759 71.705128 449.609518 72.010256 449.207577 72.315385 448.805937 72.620513 448.404600 72.925641 448.003568 73.230769 447.602842 73.535897 447.202423 73.841026 446.802315 74.146154 446.402517 74.451282 446.003031 74.756410 445.603860 75.061538 445.205004 75.366667 444.806465 75.671795 444.408245 75.976923 444.010346 76.282051 443.612769 76.587179 443.215515 76.892308 442.818586 77.197436 442.421984 77.502564 442.025710 77.807692 441.629766 78.112821 441.234154 78.417949 440.838875 78.723077 440.443930 79.028205 440.049321 79.333333 439.655050 79.638462 439.261119 79.943590 438.867528 80.248718 438.474280 80.553846 438.081376 80.858974 437.688817 81.164103 437.296606 81.469231 436.904744 81.774359 436.513231 82.079487 436.122071 82.384615 435.731265 82.689744 435.340813 82.994872 434.950719 83.300000 434.560982 83.605128 434.171605 83.910256 433.782590 84.215385 433.393938 84.520513 433.005650 84.825641 432.617729 85.130769 432.230175 85.435897 431.842991 85.741026 431.456177 86.046154 431.069736 86.351282 430.683669 86.656410 430.297978 86.961538 429.912664 87.266667 429.527728 87.571795 429.143173 87.876923 428.759000 88.182051 428.375211 88.487179 427.991806 88.792308 427.608788 89.097436 427.226159 89.402564 426.843919 89.707692 426.462071 90.012821 426.080616 90.317949 425.699558 90.623077 425.318912 90.928205 424.938696 91.233333 424.558927 91.538462 424.179624 91.843590 423.800804 92.148718 423.422484 92.453846 423.044681 92.758974 422.667415 93.064103 422.290702 93.369231 421.914560 93.674359 421.539007 93.979487 421.164060 94.284615 420.789737 94.589744 420.416055 94.894872 420.043033 95.200000 419.670687 95.505128 419.299036 95.810256 418.928097 96.115385 418.557888 96.420513 418.188427 96.725641 417.819730 97.030769 417.451816 97.335897 417.084703 97.641026 416.718407 97.946154 416.352947 98.251282 415.988341 98.556410 415.624605 98.861538 415.261758 99.166667 414.899817 99.471795 414.538800 99.776923 414.178724 100.082051 413.819608 100.387179 413.461468 100.692308 413.104323 100.997436 412.748189 101.302564 412.393086 101.607692 412.039030 101.912821 411.686039 102.217949 411.334130 102.523077 410.983322 102.828205 410.633632 103.133333 410.285077 103.438462 409.937675 103.743590 409.591444 104.048718 409.246402 104.353846 408.902566 104.658974 408.559954 104.964103 408.218583 105.269231 407.878471 105.574359 407.539636 105.879487 407.202095 106.184615 406.865866 106.489744 406.530967 106.794872 406.197415 107.100000 405.865228 107.405128 405.534424 107.710256 405.205019 108.015385 404.877033 108.320513 404.550482 108.625641 404.225384 108.930769 403.901757 109.235897 403.579619 109.541026 403.258986 109.846154 402.939877 110.151282 402.622310 110.456410 402.306301 110.761538 401.991869 111.066667 401.679032 111.371795 401.367806 111.676923 401.058210 111.982051 400.750261 112.287179 400.443977 112.592308 400.139375 112.897436 399.836474 113.202564 399.535290 113.507692 399.235842 113.812821 398.938146 114.117949 398.642222 114.423077 398.348086 114.728205 398.055755 115.033333 397.765249 115.338462 397.476583 115.643590 397.189777 115.948718 396.904847 116.253846 396.621811 116.558974 396.340687 116.864103 396.061493 117.169231 395.784246 117.474359 395.508963 117.779487 395.235663 118.084615 394.964363 118.389744 394.695081 118.694872 394.427834 119.000000 394.162640 119.305128 393.899516 119.610256 393.638481 119.915385 393.379552 120.220513 393.122746 120.525641 392.868082 120.830769 392.615576 121.135897 392.365247 121.441026 392.117112 121.746154 391.871188 122.051282 391.627494 122.356410 391.386048 122.661538 391.146865 122.966667 390.909965 123.271795 390.675366 123.576923 390.443083 123.882051 390.213136 124.187179 389.985542 124.492308 389.760319 124.797436 389.537483 125.102564 389.317054 125.407692 389.099048 125.712821 388.883483 126.017949 388.670377 126.323077 388.459747 126.628205 388.251611 126.933333 388.045987 127.238462 387.842892 127.543590 387.642345 127.848718 387.444362 128.153846 387.248961 128.458974 387.056160 128.764103 386.865976 129.069231 386.678428 129.374359 386.493533 129.679487 386.311308 129.984615 386.131771 130.289744 385.954940 130.594872 385.780832 130.900000 385.609466 131.205128 385.440858 131.510256 385.275026 131.815385 385.111988 132.120513 384.951762 132.425641 384.794366 132.730769 384.639816 133.035897 384.488130 133.341026 384.339327 133.646154 384.193424 133.951282 384.050438 134.256410 383.910387 134.561538 383.773289 134.866667 383.639162 135.171795 383.508022 135.476923 383.379888 135.782051 383.254778 136.087179 383.132708 136.392308 383.013697 136.697436 382.897762 137.002564 382.784921 137.307692 382.675192 137.612821 382.568592 137.917949 382.465139 138.223077 382.364850 138.528205 382.267743 138.833333 382.173836 139.138462 382.083147 139.443590 381.995692 139.748718 381.911490 140.053846 381.830559 140.358974 381.752915 140.664103 381.678577 140.969231 381.607562 141.274359 381.539888 141.579487 381.475573 141.884615 381.414634 142.189744 381.357089 142.494872 381.302955 142.800000 381.252250 143.105128 381.204992 143.410256 381.161198 143.715385 381.120887 144.020513 381.084075 144.325641 381.050780 144.630769 381.021021 144.935897 380.994814 145.241026 380.972177 145.546154 380.953128 145.851282 380.937685 146.156410 380.925864 146.461538 380.917685 146.766667 380.913164 147.071795 380.912319 147.376923 380.915168 147.682051 380.921729 147.987179 380.932018 148.292308 380.946054 148.597436 380.963854 148.902564 380.985437 149.207692 381.010818 149.512821 381.040018 149.817949 381.073052 150.123077 381.109938 150.428205 381.150695 150.733333 381.195339 151.038462 381.243889 151.343590 381.296362 151.648718 381.352776 151.953846 381.413148 152.258974 381.477497 152.564103 381.545839 152.869231 381.618192 153.174359 381.694574 153.479487 381.775003 153.784615 381.859496 154.089744 381.948071 154.394872 382.040745 154.700000 382.137537 155.005128 382.238463 155.310256 382.343542 155.615385 382.452791 155.920513 382.566227 156.225641 382.683870 156.530769 382.805735 156.835897 382.931840 157.141026 383.062204 157.446154 383.196844 157.751282 383.335778 158.056410 383.479023 158.361538 383.626597 158.666667 383.778517 158.971795 383.934801 159.276923 384.095467 159.582051 384.260533 159.887179 384.430016 160.192308 384.603933 160.497436 384.782303 160.802564 384.965143 161.107692 385.152471 161.412821 385.344303 161.717949 385.540659 162.023077 385.741556 162.328205 385.947010 162.633333 386.157041 162.938462 386.371665 163.243590 386.590900 163.548718 386.814764 163.853846 387.043274 164.158974 387.276449 164.464103 387.514305 164.769231 387.756861 165.074359 388.004133 165.379487 388.256141 165.684615 388.512900 165.989744 388.774430 166.294872 389.040747 166.600000 389.311858 166.905128 389.587723 167.210256 389.868290 167.515385 390.153508 167.820513 390.443326 168.125641 390.737693 168.430769 391.036556 168.735897 391.339866 169.041026 391.647569 169.346154 391.959616 169.651282 392.275953 169.956410 392.596532 170.261538 392.921299 170.566667 393.250203 170.871795 393.583194 171.176923 393.920219 171.482051 394.261227 171.787179 394.606168 172.092308 394.954989 172.397436 395.307640 172.702564 395.664068 173.007692 396.024223 173.312821 396.388053 173.617949 396.755507 173.923077 397.126533 174.228205 397.501080 174.533333 397.879097 174.838462 398.260532 175.143590 398.645334 175.448718 399.033452 175.753846 399.424834 176.058974 399.819429 176.364103 400.217185 176.669231 400.618051 176.974359 401.021976 177.279487 401.428909 177.584615 401.838797 177.889744 402.251591 178.194872 402.667237 178.500000 403.085685 178.805128 403.506884 179.110256 403.930782 179.415385 404.357328 179.720513 404.786470 180.025641 405.218157 180.330769 405.652338 180.635897 406.088962 180.941026 406.527976 181.246154 406.969330 181.551282 407.412972 181.856410 407.858851 182.161538 408.306915 182.466667 408.757114 182.771795 409.209395 183.076923 409.663708 183.382051 410.120001 183.687179 410.578222 183.992308 411.038321 184.297436 411.500246 184.602564 411.963945 184.907692 412.429367 185.212821 412.896461 185.517949 413.365176 185.823077 413.835460 186.128205 414.307261 186.433333 414.780529 186.738462 415.255212 187.043590 415.731258 187.348718 416.208617 187.653846 416.687236 187.958974 417.167065 188.264103 417.648052 188.569231 418.130146 188.874359 418.613296 189.179487 419.097449 189.484615 419.582555 189.789744 420.068563 190.094872 420.555420 190.400000 421.043076 190.705128 421.531479 191.010256 422.020578 191.315385 422.510321 191.620513 423.000658 191.925641 423.491536 192.230769 423.982905 192.535897 424.474712 192.841026 424.966908 193.146154 425.459439 193.451282 425.952256 193.756410 426.445306 194.061538 426.938538 194.366667 427.431901 194.671795 427.925343 194.976923 428.418814 195.282051 428.912261 195.587179 429.405633 195.892308 429.898880 196.197436 430.391949 196.502564 430.884789 196.807692 431.377349 197.112821 431.869578 197.417949 432.361423 197.723077 432.852835 198.028205 433.343761 198.333333 433.834149 198.638462 434.323950 198.943590 434.813111 199.248718 435.301580 199.553846 435.789308 199.858974 436.276241 200.164103 436.762330 200.469231 437.247521 200.774359 437.731765 201.079487 438.215010 201.384615 438.697204 201.689744 439.178295 201.994872 439.658234 202.300000 440.136968 202.605128 440.614445 202.910256 441.090615 203.215385 441.565427 203.520513 442.038828 203.825641 442.510767 204.130769 442.981194 204.435897 443.450056 204.741026 443.917302 205.046154 444.382882 205.351282 444.846742 205.656410 445.308834 205.961538 445.769104 206.266667 446.227501 206.571795 446.683975 206.876923 447.138473 207.182051 447.590945 207.487179 448.041338 207.792308 448.489603 208.097436 448.935686 208.402564 449.379538 208.707692 449.821106 209.012821 450.260339 209.317949 450.697186 209.623077 451.131595 209.928205 451.563516 210.233333 451.992896 210.538462 452.419684 210.843590 452.843830 211.148718 453.265281 211.453846 453.683986 211.758974 454.099894 212.064103 454.512954 212.369231 454.923114 212.674359 455.330322 212.979487 455.734528 213.284615 456.135680 213.589744 456.533726 213.894872 456.928616 214.200000 457.320298 214.505128 457.708720 214.810256 458.093832 215.115385 458.475581 215.420513 458.853917 215.725641 459.228787 216.030769 459.600142 216.335897 459.967929 216.641026 460.332097 216.946154 460.692594 217.251282 461.049370 217.556410 461.402372 217.861538 461.751550 218.166667 462.096853 218.471795 462.438228 218.776923 462.775624 219.082051 463.108990 219.387179 463.438276 219.692308 463.763428 219.997436 464.084396 220.302564 464.401129 220.607692 464.713575 220.912821 465.021683 221.217949 465.325402 221.523077 465.624679 221.828205 465.919465 222.133333 466.209706 222.438462 466.495353 222.743590 466.776353 223.048718 467.052656 223.353846 467.324209 223.658974 467.590962 223.964103 467.852863 224.269231 468.109861 224.574359 468.361904 224.879487 468.608942 225.184615 468.850922 225.489744 469.087793 225.794872 469.319504 226.100000 469.546004 226.405128 469.767241 226.710256 469.983164 227.015385 470.193722 227.320513 470.398863 227.625641 470.598535 227.930769 470.792688 228.235897 470.981269 228.541026 471.164229 228.846154 471.341515 229.151282 471.513075 229.456410 471.678859 229.761538 471.838816 230.066667 471.992893 230.371795 472.141039 230.676923 472.283204 230.982051 472.419336 231.287179 472.549382 231.592308 472.673293 231.897436 472.791016 232.202564 472.902501 232.507692 473.007695 232.812821 473.106548 233.117949 473.199008 233.423077 473.285024 233.728205 473.364544 234.033333 473.437518 234.338462 473.503893 234.643590 473.563618 234.948718 473.616642 235.253846 473.662914 235.558974 473.702382 235.864103 473.734995 236.169231 473.760701 236.474359 473.779449 236.779487 473.791188 237.084615 473.795867 237.389744 473.793433 237.694872 473.783836 238.000000 473.767025 238.305128 473.742947 238.610256 473.711552 238.915385 473.672788 239.220513 473.626603 239.525641 473.572947 239.830769 473.511769 240.135897 473.443015 240.441026 473.366637 240.746154 473.282581 241.051282 473.190796 241.356410 473.091232 241.661538 472.983837 241.966667 472.868559 242.271795 472.745348 242.576923 472.614151 242.882051 472.474935 243.187179 472.327734 243.492308 472.172601 243.797436 472.009588 244.102564 471.838748 244.407692 471.660131 244.712821 471.473791 245.017949 471.279780 245.323077 471.078149 245.628205 470.868952 245.933333 470.652240 246.238462 470.428065 246.543590 470.196480 246.848718 469.957537 247.153846 469.711288 247.458974 469.457785 247.764103 469.197080 248.069231 468.929226 248.374359 468.654274 248.679487 468.372278 248.984615 468.083288 249.289744 467.787358 249.594872 467.484540 249.900000 467.174885 250.205128 466.858446 250.510256 466.535275 250.815385 466.205424 251.120513 465.868946 251.425641 465.525892 251.730769 465.176315 252.035897 464.820267 252.341026 464.457800 252.646154 464.088967 252.951282 463.713819 253.256410 463.332409 253.561538 462.944789 253.866667 462.551010 254.171795 462.151127 254.476923 461.745189 254.782051 461.333250 255.087179 460.915363 255.392308 460.491578 255.697436 460.061948 256.002564 459.626526 256.307692 459.185363 256.612821 458.738512 256.917949 458.286026 257.223077 457.827955 257.528205 457.364352 257.833333 456.895271 258.138462 456.420761 258.443590 455.940877 258.748718 455.455670 259.053846 454.965192 259.358974 454.469496 259.664103 453.968633 259.969231 453.462656 260.274359 452.951617 260.579487 452.435568 260.884615 451.914562 261.189744 451.388650 261.494872 450.857885 261.800000 450.322319 262.105128 449.782005 262.410256 449.236993 262.715385 448.687337 263.020513 448.133089 263.325641 447.574300 263.630769 447.011024 263.935897 446.443312 264.241026 445.871216 264.546154 445.294789 264.851282 444.714083 265.156410 444.129150 265.461538 443.540042 265.766667 442.946811 266.071795 442.349510 266.376923 441.748191 266.682051 441.142905 266.987179 440.533706 267.292308 439.920645 267.597436 439.303775 267.902564 438.683147 268.207692 438.058814 268.512821 437.430828 268.817949 436.799242 269.123077 436.164107 269.428205 435.525475 269.733333 434.883399 270.038462 434.237932 270.343590 433.589124 270.648718 432.937029 270.953846 432.281698 271.258974 431.623184 271.564103 430.961539 271.869231 430.296816 272.174359 429.629065 272.479487 428.958340 272.784615 428.284693 273.089744 427.608175 273.394872 426.928840 273.700000 426.246738 274.005128 425.561924 274.310256 424.874447 274.615385 424.184362 274.920513 423.491719 275.225641 422.796572 275.530769 422.098972 275.835897 421.398972 276.141026 420.696623 276.446154 419.991978 276.751282 419.285090 277.056410 418.576009 277.361538 417.864790 277.666667 417.151482 277.971795 416.436140 278.276923 415.718815 278.582051 414.999558 278.887179 414.278424 279.192308 413.555463 279.497436 412.830727 279.802564 412.104270 280.107692 411.376142 280.412821 410.646398 280.717949 409.915087 281.023077 409.182264 281.328205 408.447979 281.633333 407.712285 281.938462 406.975235 282.243590 406.236880 282.548718 405.497272 282.853846 404.756465 283.158974 404.014509 283.464103 403.271458 283.769231 402.527363 284.074359 401.782277 284.379487 401.036251 284.684615 400.289339 284.989744 399.541591 285.294872 398.793061 285.600000 398.043801 285.905128 397.293862 286.210256 396.543297 286.515385 395.792158 286.820513 395.040497 287.125641 394.288367 287.430769 393.535819 287.735897 392.782906 288.041026 392.029681 288.346154 391.276194 288.651282 390.522499 288.956410 389.768647 289.261538 389.014691 289.566667 388.260683 289.871795 387.506675 290.176923 386.752720 290.482051 385.998869 290.787179 385.245174 291.092308 384.491689 291.397436 383.738465 291.702564 382.985553 292.007692 382.233008 292.312821 381.480879 292.617949 380.729221 292.923077 379.978085 293.228205 379.227523 293.533333 378.477587 293.838462 377.728330 294.143590 376.979803 294.448718 376.232059 294.753846 375.485151 295.058974 374.739130 295.364103 373.994048 295.669231 373.249958 295.974359 372.506912 296.279487 371.764962 296.584615 371.024160 296.889744 370.284558 297.194872 369.546209 297.500000 368.809165 297.805128 368.073478 298.110256 367.339200 298.415385 366.606384 298.720513 365.875081 299.025641 365.145343 299.330769 364.417224 299.635897 363.690774 299.941026 362.966047 300.246154 362.243095 300.551282 361.521969 300.856410 360.802722 301.161538 360.085406 301.466667 359.370073 301.771795 358.656775 302.076923 357.945566 302.382051 357.236496 302.687179 356.529617 302.992308 355.824983 303.297436 355.122646 303.602564 354.422657 303.907692 353.725068 304.212821 353.029933 304.517949 352.337302 304.823077 351.647229 305.128205 350.959766 305.433333 350.274964 305.738462 349.592875 306.043590 348.913553 306.348718 348.237049 306.653846 347.563416 306.958974 346.892705 307.264103 346.224968 307.569231 345.560259 307.874359 344.898629 308.179487 344.240130 308.484615 343.584815 308.789744 342.932735 309.094872 342.283943 309.400000 341.638491 309.705128 340.996432 310.010256 340.357817 310.315385 339.722699 310.620513 339.091129 310.925641 338.463160 311.230769 337.838845 311.535897 337.218235 311.841026 336.601383 312.146154 335.988340 312.451282 335.379159 312.756410 334.773892 313.061538 334.172592 313.366667 333.575310 313.671795 332.982099 313.976923 332.393011 314.282051 331.808098 314.587179 331.227412 314.892308 330.651005 315.197436 330.078930 315.502564 329.511239 315.807692 328.947984 316.112821 328.389217 316.417949 327.834990 316.723077 327.285356 317.028205 326.740367 317.333333 326.200074 317.638462 325.664531 317.943590 325.133789 318.248718 324.607901 318.553846 324.086918 318.858974 323.570893 319.164103 323.059864 319.469231 322.553815 319.774359 322.052715 320.079487 321.556533 320.384615 321.065240 320.689744 320.578804 320.994872 320.097195 321.300000 319.620383 321.605128 319.148336 321.910256 318.681026 322.215385 318.218420 322.520513 317.760489 322.825641 317.307203 323.130769 316.858530 323.435897 316.414440 323.741026 315.974902 324.046154 315.539887 324.351282 315.109364 324.656410 314.683301 324.961538 314.261670 325.266667 313.844438 325.571795 313.431576 325.876923 313.023054 326.182051 312.618840 326.487179 312.218904 326.792308 311.823216 327.097436 311.431745 327.402564 311.044461 327.707692 310.661333 328.012821 310.282331 328.317949 309.907424 328.623077 309.536582 328.928205 309.169774 329.233333 308.806970 329.538462 308.448139 329.843590 308.093251 330.148718 307.742275 330.453846 307.395181 330.758974 307.051939 331.064103 306.712517 331.369231 306.376885 331.674359 306.045013 331.979487 305.716871 332.284615 305.392427 332.589744 305.071652 332.894872 304.754515 333.200000 304.440985 333.505128 304.131032 333.810256 303.824625 334.115385 303.521734 334.420513 303.222328 334.725641 302.926377 335.030769 302.633851 335.335897 302.344719 335.641026 302.058950 335.946154 301.776514 336.251282 301.497380 336.556410 301.221518 336.861538 300.948898 337.166667 300.679488 337.471795 300.413259 337.776923 300.150180 338.082051 299.890221 338.387179 299.633350 338.692308 299.379538 338.997436 299.128754 339.302564 298.880968 339.607692 298.636148 339.912821 298.394265 340.217949 298.155288 340.523077 297.919186 340.828205 297.685929 341.133333 297.455487 341.438462 297.227829 341.743590 297.002925 342.048718 296.780743 342.353846 296.561255 342.658974 296.344428 342.964103 296.130232 343.269231 295.918638 343.574359 295.709615 343.879487 295.503131 344.184615 295.299157 344.489744 295.097662 344.794872 294.898616 345.100000 294.701988 345.405128 294.507748 345.710256 294.315864 346.015385 294.126307 346.320513 293.939047 346.625641 293.754052 346.930769 293.571292 347.235897 293.390737 347.541026 293.212356 347.846154 293.036119 348.151282 292.861995 348.456410 292.689953 348.761538 292.519964 349.066667 292.351997 349.371795 292.186020 349.676923 292.022005 349.982051 291.859919 350.287179 291.699734 350.592308 291.541417 350.897436 291.384940 351.202564 291.230270 351.507692 291.077379 351.812821 290.926234 352.117949 290.776807 352.423077 290.629065 352.728205 290.482980 353.033333 290.338520 353.338462 290.195654 353.643590 290.054353 353.948718 289.914586 354.253846 289.776321 354.558974 289.639530 354.864103 289.504181 355.169231 289.370244 355.474359 289.237689 355.779487 289.106484 356.084615 288.976599 356.389744 288.848005 356.694872 288.720669 357.000000 288.594563 357.305128 288.469655 357.610256 288.345915 357.915385 288.223312 358.220513 288.101816 358.525641 287.981397 358.830769 287.862024 359.135897 287.743665 359.441026 287.626292 359.746154 287.509874 360.051282 287.394379 360.356410 287.279778 360.661538 287.166039 360.966667 287.053133 361.271795 286.941030 361.576923 286.829697 361.882051 286.719106 362.187179 286.609225 362.492308 286.500024 362.797436 286.391472 363.102564 286.283540 363.407692 286.176196 363.712821 286.069410 364.017949 285.963152 364.323077 285.857391 364.628205 285.752096 364.933333 285.647237 365.238462 285.542784 365.543590 285.438706 365.848718 285.334972 366.153846 285.231553 366.458974 285.128417 366.764103 285.025534 367.069231 284.922874 367.374359 284.820406 367.679487 284.718100 367.984615 284.615924 368.289744 284.513850 368.594872 284.411845 368.900000 284.309880 369.205128 284.207924 369.510256 284.105947 369.815385 284.003918 370.120513 283.901807 370.425641 283.799583 370.730769 283.697216 371.035897 283.594674 371.341026 283.491929 371.646154 283.388948 371.951282 283.285703 372.256410 283.182161 372.561538 283.078294 372.866667 282.974069 373.171795 282.869458 373.476923 282.764428 373.782051 282.658950 374.087179 282.552994 374.392308 282.446528 374.697436 282.339523 375.002564 282.231947 375.307692 282.123771 375.612821 282.014963 375.917949 281.905494 376.223077 281.795332 376.528205 281.684448 376.833333 281.572811 377.138462 281.460389 377.443590 281.347154 377.748718 281.233074 378.053846 281.118119 378.358974 281.002259 378.664103 280.885462 378.969231 280.767698 379.274359 280.648938 379.579487 280.529149 379.884615 280.408303 380.189744 280.286368 380.494872 280.163314 380.800000 280.039110 381.105128 279.913726 381.410256 279.787132 381.715385 279.659297 382.020513 279.530190 382.325641 279.399781 382.630769 279.268039 382.935897 279.134934 383.241026 279.000436 383.546154 278.864514 383.851282 278.727137 384.156410 278.588275 384.461538 278.447898 384.766667 278.305975 385.071795 278.162475 385.376923 278.017368 385.682051 277.870624 385.987179 277.722212 386.292308 277.572101 386.597436 277.420261 386.902564 277.266662 387.207692 277.111273 387.512821 276.954063 387.817949 276.795003 388.123077 276.634061 388.428205 276.471207 388.733333 276.306411 389.038462 276.139641 389.343590 275.970869 389.648718 275.800062 389.953846 275.627191 390.258974 275.452225 390.564103 275.275134 390.869231 275.095887 391.174359 274.914454 391.479487 274.730803 391.784615 274.544906 392.089744 274.356730 392.394872 274.166246 392.700000 273.973424 393.005128 273.778232 393.310256 273.580640 393.615385 273.380618 393.920513 273.178135 394.225641 272.973160 394.530769 272.765664 394.835897 272.555616 395.141026 272.342985 395.446154 272.127748 395.751282 271.909915 396.056410 271.689501 396.361538 271.466522 396.666667 271.240996 396.971795 271.012937 397.276923 270.782364 397.582051 270.549291 397.887179 270.313735 398.192308 270.075713 398.497436 269.835241 398.802564 269.592335 399.107692 269.347011 399.412821 269.099287 399.717949 268.849177 400.023077 268.596698 400.328205 268.341868 400.633333 268.084701 400.938462 267.825215 401.243590 267.563425 401.548718 267.299348 401.853846 267.033001 402.158974 266.764399 402.464103 266.493559 402.769231 266.220497 403.074359 265.945230 403.379487 265.667773 403.684615 265.388144 403.989744 265.106358 404.294872 264.822431 404.600000 264.536381 404.905128 264.248223 405.210256 263.957974 405.515385 263.665650 405.820513 263.371267 406.125641 263.074842 406.430769 262.776390 406.735897 262.475929 407.041026 262.173475 407.346154 261.869043 407.651282 261.562650 407.956410 261.254313 408.261538 260.944048 408.566667 260.631870 408.871795 260.317798 409.176923 260.001845 409.482051 259.684030 409.787179 259.364369 410.092308 259.042876 410.397436 258.719570 410.702564 258.394466 411.007692 258.067581 411.312821 257.738931 411.617949 257.408531 411.923077 257.076400 412.228205 256.742552 412.533333 256.407004 412.838462 256.069773 413.143590 255.730874 413.448718 255.390325 413.753846 255.048141 414.058974 254.704338 414.364103 254.358934 414.669231 254.011944 414.974359 253.663384 415.279487 253.313272 415.584615 252.961622 415.889744 252.608452 416.194872 252.253779 416.500000 251.897617 416.805128 251.539984 417.110256 251.180895 417.415385 250.820368 417.720513 250.458418 418.025641 250.095062 418.330769 249.730316 418.635897 249.364196 418.941026 248.996719 419.246154 248.627900 419.551282 248.257758 419.856410 247.886306 420.161538 247.513563 420.466667 247.139544 420.771795 246.764265 421.076923 246.387743 421.382051 246.009995 421.687179 245.631035 421.992308 245.250882 422.297436 244.869551 422.602564 244.487058 422.907692 244.103419 423.212821 243.718652 423.517949 243.332772 423.823077 242.945796 424.128205 242.557740 424.433333 242.168620 424.738462 241.778452 425.043590 241.387253 425.348718 240.995040 425.653846 240.601828 425.958974 240.207634 426.264103 239.812474 426.569231 239.416364 426.874359 239.019322 427.179487 238.621362 427.484615 238.222501 427.789744 237.822757 428.094872 237.422144 428.400000 237.020679 428.705128 236.618380 429.010256 236.215261 429.315385 235.811339 429.620513 235.406631 429.925641 235.001153 430.230769 234.594920 430.535897 234.187951 430.841026 233.780260 431.146154 233.371864 431.451282 232.962780 431.756410 232.553023 432.061538 232.142610 432.366667 231.731558 432.671795 231.319882 432.976923 230.907600 433.282051 230.494726 433.587179 230.081278 433.892308 229.667273 434.197436 229.252725 434.502564 228.837652 434.807692 228.422069 435.112821 228.005994 435.417949 227.589442 435.723077 227.172430 436.028205 226.754974 436.333333 226.337090 436.638462 225.918796 436.943590 225.500106 437.248718 225.081037 437.553846 224.661606 437.858974 224.241829 438.164103 223.821722 438.469231 223.401302 438.774359 222.980585 439.079487 222.559586 439.384615 222.138324 439.689744 221.716813 439.994872 221.295070 440.300000 220.873111 440.605128 220.450954 440.910256 220.028613 441.215385 219.606106 441.520513 219.183448 441.825641 218.760657 442.130769 218.337747 442.435897 217.914737 442.741026 217.491641 443.046154 217.068476 443.351282 216.645259 443.656410 216.222006 443.961538 215.798733 444.266667 215.375456 444.571795 214.952192 444.876923 214.528957 445.182051 214.105768 445.487179 213.682640 445.792308 213.259591 446.097436 212.836635 446.402564 212.413791 446.707692 211.991073 447.012821 211.568498 447.317949 211.146083 447.623077 210.723844 447.928205 210.301797 448.233333 209.879959 448.538462 209.458346 448.843590 209.036973 449.148718 208.615858 449.453846 208.195017 449.758974 207.774466 450.064103 207.354221 450.369231 206.934299 450.674359 206.514716 450.979487 206.095488 451.284615 205.676631 451.589744 205.258163 451.894872 204.840099 452.200000 204.422455 452.505128 204.005249 452.810256 203.588495 453.115385 203.172211 453.420513 202.756413 453.725641 202.341117 454.030769 201.926339 454.335897 201.512096 454.641026 201.098404 454.946154 200.685279 455.251282 200.272738 455.556410 199.860797 455.861538 199.449472 456.166667 199.038780 456.471795 198.628737 456.776923 198.219359 457.082051 197.810662 457.387179 197.402663 457.692308 196.995379 457.997436 196.588825 458.302564 196.183017 458.607692 195.777973 458.912821 195.373708 459.217949 194.970239 459.523077 194.567581 459.828205 194.165752 460.133333 193.764768 460.438462 193.364645 460.743590 192.965399 461.048718 192.567046 461.353846 192.169603 461.658974 191.773087 461.964103 191.377513 462.269231 190.982897 462.574359 190.589257 462.879487 190.196609 463.184615 189.804968 463.489744 189.414351 463.794872 189.024774 464.100000 188.636254 464.405128 188.248807 464.710256 187.862449 465.015385 187.477197 465.320513 187.093067 465.625641 186.710075 465.930769 186.328238 466.235897 185.947571 466.541026 185.568092 466.846154 185.189816 467.151282 184.812760 467.456410 184.436940 467.761538 184.062372 468.066667 183.689073 468.371795 183.317059 468.676923 182.946347 468.982051 182.576952 469.287179 182.208890 469.592308 181.842180 469.897436 181.476835 470.202564 181.112874 470.507692 180.750312 470.812821 180.389165 471.117949 180.029451 471.423077 179.671184 471.728205 179.314378 472.033333 178.959030 472.338462 178.605135 472.643590 178.252687 472.948718 177.901679 473.253846 177.552106 473.558974 177.203962 473.864103 176.857240 474.169231 176.511935 474.474359 176.168041 474.779487 175.825552 475.084615 175.484462 475.389744 175.144764 475.694872 174.806454 476.000000 174.469525 476.305128 174.133970 476.610256 173.799785 476.915385 173.466964 477.220513 173.135499 477.525641 172.805386 477.830769 172.476618 478.135897 172.149189 478.441026 171.823094 478.746154 171.498326 479.051282 171.174879 479.356410 170.852749 479.661538 170.531927 479.966667 170.212410 480.271795 169.894190 480.576923 169.577261 480.882051 169.261619 481.187179 168.947256 481.492308 168.634167 481.797436 168.322346 482.102564 168.011787 482.407692 167.702484 482.712821 167.394431 483.017949 167.087622 483.323077 166.782051 483.628205 166.477712 483.933333 166.174600 484.238462 165.872707 484.543590 165.572029 484.848718 165.272560 485.153846 164.974292 485.458974 164.677221 485.764103 164.381341 486.069231 164.086645 486.374359 163.793127 486.679487 163.500782 486.984615 163.209604 487.289744 162.919586 487.594872 162.630723 487.900000 162.343009 488.205128 162.056438 488.510256 161.771003 488.815385 161.486700 489.120513 161.203521 489.425641 160.921461 489.730769 160.640515 490.035897 160.360675 490.341026 160.081937 490.646154 159.804293 490.951282 159.527739 491.256410 159.252268 491.561538 158.977875 491.866667 158.704552 492.171795 158.432295 492.476923 158.161098 492.782051 157.890954 493.087179 157.621857 493.392308 157.353802 493.697436 157.086783 494.002564 156.820793 494.307692 156.555827 494.612821 156.291878 494.917949 156.028942 495.223077 155.767011 495.528205 155.506080 495.833333 155.246143 496.138462 154.987194 496.443590 154.729227 496.748718 154.472236 497.053846 154.216214 497.358974 153.961158 497.664103 153.707059 497.969231 153.453912 498.274359 153.201712 498.579487 152.950452 498.884615 152.700126 499.189744 152.450729 499.494872 152.202254 499.800000 151.954696 500.105128 151.708048 500.410256 151.462304 500.715385 151.217460 501.020513 150.973507 501.325641 150.730442 501.630769 150.488257 501.935897 150.246947 502.241026 150.006506 502.546154 149.766928 502.851282 149.528207 503.156410 149.290336 503.461538 149.053311 503.766667 148.817125 504.071795 148.581771 504.376923 148.347245 504.682051 148.113540 504.987179 147.880650 505.292308 147.648570 505.597436 147.417293 505.902564 147.186813 506.207692 146.957124 506.512821 146.728221 506.817949 146.500097 507.123077 146.272747 507.428205 146.046165 507.733333 145.820344 508.038462 145.595279 508.343590 145.370963 508.648718 145.147391 508.953846 144.924557 509.258974 144.702455 509.564103 144.481079 509.869231 144.260422 510.174359 144.040480 510.479487 143.821245 510.784615 143.602713 511.089744 143.384876 511.394872 143.167730 511.700000 142.951268 512.005128 142.735484 512.310256 142.520373 512.615385 142.305927 512.920513 142.092142 513.225641 141.879012 513.530769 141.666530 513.835897 141.454690 514.141026 141.243487 514.446154 141.032915 514.751282 140.822967 515.056410 140.613637 515.361538 140.404921 515.666667 140.196811 515.971795 139.989302 516.276923 139.782388 516.582051 139.576063 516.887179 139.370320 517.192308 139.165155 517.497436 138.960560 517.802564 138.756531 518.107692 138.553061 518.412821 138.350144 518.717949 138.147774 519.023077 137.945945 519.328205 137.744652 519.633333 137.543887 519.938462 137.343647 520.243590 137.143923 520.548718 136.944711 520.853846 136.746005 521.158974 136.547798 521.464103 136.350085 521.769231 136.152859 522.074359 135.956115 522.379487 135.759846 522.684615 135.564048 522.989744 135.368713 523.294872 135.173836 523.600000 134.979411 523.905128 134.785432 524.210256 134.591893 524.515385 134.398788 524.820513 134.206110 525.125641 134.013855 525.430769 133.822017 525.735897 133.630588 526.041026 133.439563 526.346154 133.248937 526.651282 133.058704 526.956410 132.868856 527.261538 132.679389 527.566667 132.490296 527.871795 132.301572 528.176923 132.113211 528.482051 131.925206 528.787179 131.737551 529.092308 131.550242 529.397436 131.363271 529.702564 131.176632 530.007692 130.990321 530.312821 130.804330 530.617949 130.618655 530.923077 130.433288 531.228205 130.248224 531.533333 130.063458 531.838462 129.878982 532.143590 129.694791 532.448718 129.510880 532.753846 129.327242 533.058974 129.143871 533.364103 128.960761 533.669231 128.777907 533.974359 128.595302 534.279487 128.412940 534.584615 128.230816 534.889744 128.048923 535.194872 127.867256 535.500000 127.685809 535.805128 127.504575 536.110256 127.323549 536.415385 127.142724 536.720513 126.962096 537.025641 126.781657 537.330769 126.601402 537.635897 126.421325 537.941026 126.241420 538.246154 126.061681 538.551282 125.882101 538.856410 125.702676 539.161538 125.523399 539.466667 125.344265 539.771795 125.165266 540.076923 124.986398 540.382051 124.807654 540.687179 124.629028 540.992308 124.450515 541.297436 124.272108 541.602564 124.093801 541.907692 123.915589 542.212821 123.737466 542.517949 123.559425 542.823077 123.381461 543.128205 123.203568 543.433333 123.025739 543.738462 122.847969 544.043590 122.670252 544.348718 122.492582 544.653846 122.314952 544.958974 122.137358 545.264103 121.959792 545.569231 121.782250 545.874359 121.604725 546.179487 121.427211 546.484615 121.249702 546.789744 121.072192 547.094872 120.894675 547.400000 120.717146 547.705128 120.539598 548.010256 120.362026 548.315385 120.184429 548.620513 120.006804 548.925641 119.829152 549.230769 119.651470 549.535897 119.473757 549.841026 119.296013 550.146154 119.118236 550.451282 118.940424 550.756410 118.762578 551.061538 118.584694 551.366667 118.406774 551.671795 118.228814 551.976923 118.050814 552.282051 117.872773 552.587179 117.694690 552.892308 117.516563 553.197436 117.338391 553.502564 117.160173 553.807692 116.981908 554.112821 116.803595 554.417949 116.625232 554.723077 116.446818 555.028205 116.268353 555.333333 116.089834 555.638462 115.911261 555.943590 115.732633 556.248718 115.553948 556.553846 115.375205 556.858974 115.196403 557.164103 115.017540 557.469231 114.838617 557.774359 114.659630 558.079487 114.480580 558.384615 114.301465 558.689744 114.122284 558.994872 113.943035 559.300000 113.763718 559.605128 113.584331 559.910256 113.404873 560.215385 113.225343 560.520513 113.045740 560.825641 112.866062 561.130769 112.686309 561.435897 112.506478 561.741026 112.326570 562.046154 112.146582 562.351282 111.966514 562.656410 111.786365 562.961538 111.606132 563.266667 111.425816 563.571795 111.245414 563.876923 111.064926 564.182051 110.884351 564.487179 110.703686 564.792308 110.522932 565.097436 110.342087 565.402564 110.161149 565.707692 109.980118 566.012821 109.798992 566.317949 109.617771 566.623077 109.436452 566.928205 109.255035 567.233333 109.073519 567.538462 108.891902 567.843590 108.710183 568.148718 108.528361 568.453846 108.346435 568.758974 108.164404 569.064103 107.982266 569.369231 107.800020 569.674359 107.617666 569.979487 107.435201 570.284615 107.252625 570.589744 107.069937 570.894872 106.887135 571.200000 106.704218 571.505128 106.521185 571.810256 106.338034 572.115385 106.154766 572.420513 105.971377 572.725641 105.787868 573.030769 105.604237 573.335897 105.420483 573.641026 105.236604 573.946154 105.052600 574.251282 104.868469 574.556410 104.684210 574.861538 104.499822 575.166667 104.315304 575.471795 104.130654 575.776923 103.945872 576.082051 103.760955 576.387179 103.575904 576.692308 103.390716 576.997436 103.205391 577.302564 103.019928 577.607692 102.834324 577.912821 102.648580 578.217949 102.462693 578.523077 102.276663 578.828205 102.090489 579.133333 101.904168 579.438462 101.717701 579.743590 101.531086 580.048718 101.344321 580.353846 101.157406 580.658974 100.970339 580.964103 100.783120 581.269231 100.595746 581.574359 100.408217 581.879487 100.220531 582.184615 100.032688 582.489744 99.844687 582.794872 99.656525 583.100000 99.468202 583.405128 99.279716 583.710256 99.091068 584.015385 98.902254 584.320513 98.713274 584.625641 98.524128 584.930769 98.334813 585.235897 98.145328 585.541026 97.955673 585.846154 97.765846 586.151282 97.575846 586.456410 97.385671 586.761538 97.195322 587.066667 97.004795 587.371795 96.814091 587.676923 96.623208 587.982051 96.432145 588.287179 96.240900 588.592308 96.049473 588.897436 95.857862 589.202564 95.666066 589.507692 95.474084 589.812821 95.281914 590.117949 95.089556 590.423077 94.897009 590.728205 94.704270 591.033333 94.511340 591.338462 94.318216 591.643590 94.124898 591.948718 93.931384 592.253846 93.737674 592.558974 93.543765 592.864103 93.349658 593.169231 93.155349 593.474359 92.960840 593.779487 92.766127 594.084615 92.571211 594.389744 92.376090 594.694872 92.180762 595.000000 91.985227 595.305128 91.789483 595.610256 91.593529 595.915385 91.397364 596.220513 91.200987 596.525641 91.004396 596.830769 90.807591 597.135897 90.610570 597.441026 90.413332 597.746154 90.215876 598.051282 90.018201 598.356410 89.820305 598.661538 89.622187 598.966667 89.423846 599.271795 89.225282 599.576923 89.026491 599.882051 88.827475 600.187179 88.628230 600.492308 88.428757 600.797436 88.229054 601.102564 88.029120 601.407692 87.828953 601.712821 87.628552 602.017949 87.427917 602.323077 87.227046 602.628205 87.025937 602.933333 86.824590 603.238462 86.623004 603.543590 86.421177 603.848718 86.219107 604.153846 86.016795 604.458974 85.814239 604.764103 85.611437 605.069231 85.408388 605.374359 85.205091 605.679487 85.001546 605.984615 84.797750 606.289744 84.593703 606.594872 84.389403 606.900000 84.184849 607.205128 83.980040 607.510256 83.774975 607.815385 83.569653 608.120513 83.364072 608.425641 83.158232 608.730769 82.952130 609.035897 82.745767 609.341026 82.539140 609.646154 82.332248 609.951282 82.125091 610.256410 81.917667 610.561538 81.709975 610.866667 81.502014 611.171795 81.293782 611.476923 81.085279 611.782051 80.876503 612.087179 80.667453 612.392308 80.458127 612.697436 80.248526 613.002564 80.038646 613.307692 79.828489 613.612821 79.618051 613.917949 79.407332 614.223077 79.196330 614.528205 78.985045 614.833333 78.773476 615.138462 78.561621 615.443590 78.349478 615.748718 78.137047 616.053846 77.924327 616.358974 77.711317 616.664103 77.498014 616.969231 77.284418 617.274359 77.070529 617.579487 76.856344 617.884615 76.641862 618.189744 76.427083 618.494872 76.212004 618.800000 75.996626 619.105128 75.780946 619.410256 75.564964 619.715385 75.348678 620.020513 75.132087 620.325641 74.915190 620.630769 74.697986 620.935897 74.480474 621.241026 74.262651 621.546154 74.044519 621.851282 73.826074 622.156410 73.607315 622.461538 73.388243 622.766667 73.168855 623.071795 72.949150 623.376923 72.729127 623.682051 72.508785 623.987179 72.288123 624.292308 72.067140 624.597436 71.845836 624.902564 71.624214 625.207692 71.402274 625.512821 71.180018 625.817949 70.957446 626.123077 70.734561 626.428205 70.511363 626.733333 70.287854 627.038462 70.064036 627.343590 69.839908 627.648718 69.615473 627.953846 69.390732 628.258974 69.165687 628.564103 68.940337 628.869231 68.714686 629.174359 68.488734 629.479487 68.262482 629.784615 68.035932 630.089744 67.809084 630.394872 67.581941 630.700000 67.354503 631.005128 67.126773 631.310256 66.898750 631.615385 66.670437 631.920513 66.441834 632.225641 66.212943 632.530769 65.983766 632.835897 65.754303 633.141026 65.524555 633.446154 65.294525 633.751282 65.064213 634.056410 64.833621 634.361538 64.602750 634.666667 64.371601 634.971795 64.140176 635.276923 63.908475 635.582051 63.676500 635.887179 63.444253 636.192308 63.211735 636.497436 62.978946 636.802564 62.745889 637.107692 62.512564 637.412821 62.278973 637.717949 62.045117 638.023077 61.810997 638.328205 61.576616 638.633333 61.341973 638.938462 61.107070 639.243590 60.871909 639.548718 60.636490 639.853846 60.400816 640.158974 60.164887 640.464103 59.928705 640.769231 59.692270 641.074359 59.455585 641.379487 59.218651 641.684615 58.981468 641.989744 58.744038 642.294872 58.506363 642.600000 58.268443 642.905128 58.030280 643.210256 57.791876 643.515385 57.553231 643.820513 57.314347 644.125641 57.075225 644.430769 56.835866 644.735897 56.596272 645.041026 56.356444 645.346154 56.116383 645.651282 55.876091 645.956410 55.635569 646.261538 55.394817 646.566667 55.153838 646.871795 54.912633 647.176923 54.671202 647.482051 54.429548 647.787179 54.187672 648.092308 53.945574 648.397436 53.703256 648.702564 53.460720 649.007692 53.217966 649.312821 52.974996 649.617949 52.731812 649.923077 52.488414 650.228205 52.244804 650.533333 52.000983 650.838462 51.756952 651.143590 51.512713 651.448718 51.268267 651.753846 51.023616 652.058974 50.778759 652.364103 50.533700 652.669231 50.288439 652.974359 50.042977 653.279487 49.797315 653.584615 49.551456 653.889744 49.305400 654.194872 49.059148 654.500000 48.812703 654.805128 48.566064 655.110256 48.319234 655.415385 48.072213 655.720513 47.825004 656.025641 47.577606 656.330769 47.330023 656.635897 47.082254 656.941026 46.834301 657.246154 46.586165 657.551282 46.337848 657.856410 46.089351 658.161538 45.840676 658.466667 45.591823 658.771795 45.342794 659.076923 45.093589 659.382051 44.844212 659.687179 44.594662 659.992308 44.344940 660.297436 44.095050 660.602564 43.844990 660.907692 43.594764 661.212821 43.344371 661.517949 43.093814 661.823077 42.843094 662.128205 42.592212 662.433333 42.341169 662.738462 42.089966 663.043590 41.838605 663.348718 41.587088 663.653846 41.335414 663.958974 41.083587 664.264103 40.831606 664.569231 40.579474 664.874359 40.327191 665.179487 40.074759 665.484615 39.822179 665.789744 39.569453 666.094872 39.316581 666.400000 39.063565 666.705128 38.810407 667.010256 38.557107 667.315385 38.303667 667.620513 38.050088 667.925641 37.796371 668.230769 37.542518 668.535897 37.288530 668.841026 37.034408 669.146154 36.780154 669.451282 36.525769 669.756410 36.271253 670.061538 36.016609 670.366667 35.761838 670.671795 35.506941 670.976923 35.251919 671.282051 34.996774 671.587179 34.741506 671.892308 34.486118 672.197436 34.230610 672.502564 33.974983 672.807692 33.719240 673.112821 33.463381 673.417949 33.207407 673.723077 32.951321 674.028205 32.695122 674.333333 32.438813 674.638462 32.182394 674.943590 31.925868 675.248718 31.669234 675.553846 31.412496 675.858974 31.155653 676.164103 30.898707 676.469231 30.641660 676.774359 30.384512 677.079487 30.127265 677.384615 29.869921 677.689744 29.612480 677.994872 29.354944 678.300000 29.097314 678.605128 28.839592 678.910256 28.581778 679.215385 28.323874 679.520513 28.065882 679.825641 27.807802 680.130769 27.549635 680.435897 27.291384 680.741026 27.033050 681.046154 26.774633 681.351282 26.516135 681.656410 26.257557 681.961538 25.998901 682.266667 25.740168 682.571795 25.481359 682.876923 25.222475 683.182051 24.963518 683.487179 24.704489 683.792308 24.445389 684.097436 24.186220 684.402564 23.926982 684.707692 23.667678 685.012821 23.408308 685.317949 23.148874 685.623077 22.889377 685.928205 22.629818 686.233333 22.370199 686.538462 22.110520 686.843590 21.850784 687.148718 21.590991 687.453846 21.331143 687.758974 21.071241 688.064103 20.811286 688.369231 20.551279 688.674359 20.291223 688.979487 20.031117 689.284615 19.770964 689.589744 19.510765 689.894872 19.250521 690.200000 18.990233 690.505128 18.729902 690.810256 18.469530 691.115385 18.209119 691.420513 17.948669 691.725641 17.688182 692.030769 17.427658 692.335897 17.167100 692.641026 16.906509 692.946154 16.645885 693.251282 16.385230 693.556410 16.124546 693.861538 15.863834 694.166667 15.603094 694.471795 15.342329 694.776923 15.081540 695.082051 14.820727 695.387179 14.559892 695.692308 14.299037 695.997436 14.038163 696.302564 13.777270 696.607692 13.516361 696.912821 13.255437 697.217949 12.994498 697.523077 12.733546 697.828205 12.472583 698.133333 12.211610 698.438462 11.950627 698.743590 11.689637 699.048718 11.428640 699.353846 11.167639 699.658974 10.906633 699.964103 10.645625 700.269231 10.384615 700.269231 540.000000" /></g></g><g class="titles" /><g class="plot overlay" transform="translate(66, 20)"><g class="series serie-0 color-0"><g class="dots"><circle class="dot reactive tooltip-trigger" cx="13.730769230769232" cy="529.6153846153846" r="2.5" /><desc class="value">7,294,205,641(kWh)</desc><desc class="x top">13.730769230769232</desc><desc class="y top">529.6153846153846</desc><desc class="x_label">2549</desc></g><g class="dots"><circle class="dot reactive tooltip-trigger" cx="90.0128205128205" cy="426.08061567427046" r="2.5" /><desc class="value">8,030,888,905(kWh)</desc><desc class="x top">90.0128205128205</desc><desc class="y top">426.08061567427046</desc><desc class="x_label">2550</desc></g><g class="dots"><circle class="dot reactive tooltip-trigger" cx="166.29487179487177" cy="389.04074706722395" r="2.5" /><desc class="value">8,294,439,513(kWh)</desc><desc class="x top">166.29487179487177</desc><desc class="y top">389.04074706722395</desc><desc class="x_label">2551</desc></g><g class="dots"><circle class="dot reactive tooltip-trigger" cx="242.57692307692307" cy="472.6141510321836" r="2.5" /><desc class="value">7,699,787,797(kWh)</desc><desc class="x top">242.57692307692307</desc><desc class="y top">472.6141510321836</desc><desc class="x_label">2552</desc></g><g class="dots"><circle class="dot reactive tooltip-trigger" cx="318.85897435897436" cy="323.57089276151214" r="2.5" /><desc class="value">8,760,278,636(kWh)</desc><desc class="x top">318.85897435897436</desc><desc class="y top">323.57089276151214</desc><desc class="x_label">2553</desc></g><g class="dots"><circle class="dot reactive tooltip-trigger" cx="395.1410256410257" cy="272.3429850379844" r="2.5" /><desc class="value">9,124,781,717(kWh)</desc><desc class="x left top">395.1410256410257</desc><desc class="y left top">272.3429850379844</desc><desc class="x_label">2554</desc></g><g class="dots"><circle class="dot reactive tooltip-trigger" cx="471.4230769230769" cy="179.67118383055276" r="2.5" /><desc class="value">9,784,171,463(kWh)</desc><desc class="x left">471.4230769230769</desc><desc class="y left">179.67118383055276</desc><desc class="x_label">2555</desc></g><g class="dots"><circle class="dot reactive tooltip-trigger" cx="547.7051282051282" cy="120.53959815950174" r="2.5" /><desc class="value">10,204,911,761(kWh)</desc><desc class="x left">547.7051282051282</desc><desc class="y left">120.53959815950174</desc><desc class="x_label">2556</desc></g><g class="dots"><circle class="dot reactive tooltip-trigger" cx="623.9871794871794" cy="72.28812322600339" r="2.5" /><desc class="value">10,548,236,563(kWh)</desc><desc class="x left">623.9871794871794</desc><desc class="y left">72.28812322600339</desc><desc class="x_label">2557</desc></g><g class="dots"><circle class="dot reactive tooltip-trigger" cx="700.2692307692307" cy="10.384615384615358" r="2.5" /><desc class="value">10,988,699,981(kWh)</desc><desc class="x left">700.2692307692307</desc><desc class="y left">10.384615384615358</desc><desc class="x_label">2558</desc></g></g></g><g class="plot text-overlay" transform="translate(66, 20)"><g class="series serie-0 color-0" /></g><g class="plot tooltip-overlay" transform="translate(66, 20)"><g class="tooltip" style="opacity: 0" transform="translate(0 0)"><rect class="tooltip-box" height="0" rx="0" ry="0" width="0" /><g class="text" /></g></g></g></svg>