<?xml version='1.0' encoding='utf-8'?>
<svg xmlns:xlink="http://www.w3.org/1999/xlink" class="pygal-chart" id="chart-1a69137f-d6ed-40ec-8686-9441921370b4" viewBox="0 0 800 600" xmlns="http://www.w3.org/2000/svg"><!--Generated with pygal 2.3.0 (etree) ©Kozea 2012-2016 on 2016-12-08--><!--http://pygal.org--><!--http://github.com/Kozea/pygal--><defs><style type="text/css">#chart-1a69137f-d6ed-40ec-8686-9441921370b4{-webkit-user-select:none;-webkit-font-smoothing:antialiased;font-family:Consolas,"Liberation Mono",Menlo,Courier,monospace}#chart-1a69137f-d6ed-40ec-8686-9441921370b4 .title{font-family:Consolas,"Liberation Mono",Menlo,Courier,monospace;font-size:16px}#chart-1a69137f-d6ed-40ec-8686-9441921370b4 .legends .legend text{font-family:Consolas,"Liberation Mono",Menlo,Courier,monospace;font-size:14px}#chart-1a69137f-d6ed-40ec-8686-9441921370b4 .axis text{font-family:Consolas,"Liberation Mono",Menlo,Courier,monospace;font-size:10px}#chart-1a69137f-d6ed-40ec-8686-9441921370b4 .axis text.major{font-family:Consolas,"Liberation Mono",Menlo,Courier,monospace;font-size:10px}#chart-1a69137f-d6ed-40ec-8686-9441921370b4 .text-overlay text.value{font-family:Consolas,"Liberation Mono",Menlo,Courier,monospace;font-size:16px}#chart-1a69137f-d6ed-40ec-8686-9441921370b4 .text-overlay text.label{font-family:Consolas,"Liberation Mono",Menlo,Courier,monospace;font-size:10px}#chart-1a69137f-d6ed-40ec-8686-9441921370b4 .tooltip{font-family:Consolas,"Liberation Mono",Menlo,Courier,monospace;font-size:14px}#chart-1a69137f-d6ed-40ec-8686-9441921370b4 text.no_data{font-family:Consolas,"Liberation Mono",Menlo,Courier,monospace;font-size:64px}
#chart-1a69137f-d6ed-40ec-8686-9441921370b4{background-color:rgba(249,249,249,1)}#chart-1a69137f-d6ed-40ec-8686-9441921370b4 path,#chart-1a69137f-d6ed-40ec-8686-9441921370b4 line,#chart-1a69137f-d6ed-40ec-8686-9441921370b4 rect,#chart-1a69137f-d6ed-40ec-8686-9441921370b4 circle{-webkit-transition:150ms;-moz-transition:150ms;transition:150ms}#chart-1a69137f-d6ed-40ec-8686-9441921370b4 .graph &gt; .background{fill:rgba(249,249,249,1)}#chart-1a69137f-d6ed-40ec-8686-9441921370b4 .plot &gt; .background{fill:rgba(255,255,255,1)}#chart-1a69137f-d6ed-40ec-8686-9441921370b4 .graph{fill:rgba(0,0,0,.87)}#chart-1a69137f-d6ed-40ec-8686-9441921370b4 text.no_data{fill:rgba(0,0,0,1)}#chart-1a69137f-d6ed-40ec-8686-9441921370b4 .title{fill:rgba(0,0,0,1)}#chart-1a69137f-d6ed-40ec-8686-9441921370b4 .legends .legend text{fill:rgba(0,0,0,.87)}#chart-1a69137f-d6ed-40ec-8686-9441921370b4 .legends .legend:hover text{fill:rgba(0,0,0,1)}#chart-1a69137f-d6ed-40ec-8686-9441921370b4 .axis .line{stroke:rgba(0,0,0,1)}#chart-1a69137f-d6ed-40ec-8686-9441921370b4 .axis .guide.line{stroke:rgba(0,0,0,.54)}#chart-1a69137f-d6ed-40ec-8686-9441921370b4 .axis .major.line{stroke:rgba(0,0,0,.87)}#chart-1a69137f-d6ed-40ec-8686-9441921370b4 .axis text.major{fill:rgba(0,0,0,1)}#chart-1a69137f-d6ed-40ec-8686-9441921370b4 .axis.y .guides:hover .guide.line,#chart-1a69137f-d6ed-40ec-8686-9441921370b4 .line-graph .axis.x .guides:hover .guide.line,#chart-1a69137f-d6ed-40ec-8686-9441921370b4 .stackedline-graph .axis.x .guides:hover .guide.line,#chart-1a69137f-d6ed-40ec-8686-9441921370b4 .xy-graph .axis.x .guides:hover .guide.line{stroke:rgba(0,0,0,1)}#chart-1a69137f-d6ed-40ec-8686-9441921370b4 .axis .guides:hover text{fill:rgba(0,0,0,1)}#chart-1a69137f-d6ed-40ec-8686-9441921370b4 .reactive{fill-opacity:.7;stroke-opacity:.8}#chart-1a69137f-d6ed-40ec-8686-9441921370b4 .ci{stroke:rgba(0,0,0,.87)}#chart-1a69137f-d6ed-40ec-8686-9441921370b4 .reactive.active,#chart-1a69137f-d6ed-40ec-8686-9441921370b4 .active .reactive{fill-opacity:.8;stroke-opacity:.9;stroke-width:4}#chart-1a69137f-d6ed-40ec-8686-9441921370b4 .ci .reactive.active{stroke-width:1.5}#chart-1a69137f-d6ed-40ec-8686-9441921370b4 .series text{fill:rgba(0,0,0,1)}#chart-1a69137f-d6ed-40ec-8686-9441921370b4 .tooltip rect{fill:rgba(255,255,255,1);stroke:rgba(0,0,0,1);-webkit-transition:opacity 150ms;-moz-transition:opacity 150ms;transition:opacity 150ms}#chart-1a69137f-d6ed-40ec-8686-9441921370b4 .tooltip .label{fill:rgba(0,0,0,.87)}#chart-1a69137f-d6ed-40ec-8686-9441921370b4 .tooltip .label{fill:rgba(0,0,0,.87)}#chart-1a69137f-d6ed-40ec-8686-9441921370b4 .tooltip .legend{font-size:.8em;fill:rgba(0,0,0,.54)}#chart-1a69137f-d6ed-40ec-8686-9441921370b4 .tooltip .x_label{font-size:.6em;fill:rgba(0,0,0,1)}#chart-1a69137f-d6ed-40ec-8686-9441921370b4 .tooltip .xlink{font-size:.5em;text-decoration:underline}#chart-1a69137f-d6ed-40ec-8686-9441921370b4 .tooltip .value{font-size:1.5em}#chart-1a69137f-d6ed-40ec-8686-9441921370b4 .bound{font-size:.5em}#chart-1a69137f-d6ed-40ec-8686-9441921370b4 .max-value{font-size:.75em;fill:rgba(0,0,0,.54)}#chart-1a69137f-d6ed-40ec-8686-9441921370b4 .map-element{fill:rgba(255,255,255,1);stroke:rgba(0,0,0,.54) !important}#chart-1a69137f-d6ed-40ec-8686-9441921370b4 .map-element .reactive{fill-opacity:inherit;stroke-opacity:inherit}#chart-1a69137f-d6ed-40ec-8686-9441921370b4 .color-0,#chart-1a69137f-d6ed-40ec-8686-9441921370b4 .color-0 a:visited{stroke:#e86fa0;fill:#e86fa0}#chart-1a69137f-d6ed-40ec-8686-9441921370b4 .text-overlay .color-0 text{fill:black}
#chart-1a69137f-d6ed-40ec-8686-9441921370b4 text.no_data{text-anchor:middle}#chart-1a69137f-d6ed-40ec-8686-9441921370b4 .guide.line{fill:none}#chart-1a69137f-d6ed-40ec-8686-9441921370b4 .centered{text-anchor:middle}#chart-1a69137f-d6ed-40ec-8686-9441921370b4 .title{text-anchor:middle}#chart-1a69137f-d6ed-40ec-8686-9441921370b4 .legends .legend text{fill-opacity:1}#chart-1a69137f-d6ed-40ec-8686-9441921370b4 .axis.x text{text-anchor:middle}#chart-1a69137f-d6ed-40ec-8686-9441921370b4 .axis.x:not(.web) text[transform]{text-anchor:start}#chart-1a69137f-d6ed-40ec-8686-9441921370b4 .axis.x:not(.web) text[transform].backwards{text-anchor:end}#chart-1a69137f-d6ed-40ec-8686-9441921370b4 .axis.y text{text-anchor:end}#chart-1a69137f-d6ed-40ec-8686-9441921370b4 .axis.y text[transform].backwards{text-anchor:start}#chart-1a69137f-d6ed-40ec-8686-9441921370b4 .axis.y2 text{text-anchor:start}#chart-1a69137f-d6ed-40ec-8686-9441921370b4 .axis.y2 text[transform].backwards{text-anchor:end}#chart-1a69137f-d6ed-40ec-8686-9441921370b4 .axis .guide.line{stroke-dasharray:4,4}#chart-1a69137f-d6ed-40ec-8686-9441921370b4 .axis .major.guide.line{stroke-dasharray:6,6}#chart-1a69137f-d6ed-40ec-8686-9441921370b4 .horizontal .axis.y .guide.line,#chart-1a69137f-d6ed-40ec-8686-9441921370b4 .horizontal .axis.y2 .guide.line,#chart-1a69137f-d6ed-40ec-8686-9441921370b4 .vertical .axis.x .guide.line{opacity:0}#chart-1a69137f-d6ed-40ec-8686-9441921370b4 .horizontal .axis.always_show .guide.line,#chart-1a69137f-d6ed-40ec-8686-9441921370b4 .vertical .axis.always_show .guide.line{opacity:1 !important}#chart-1a69137f-d6ed-40ec-8686-9441921370b4 .axis.y .guides:hover .guide.line,#chart-1a69137f-d6ed-40ec-8686-9441921370b4 .axis.y2 .guides:hover .guide.line,#chart-1a69137f-d6ed-40ec-8686-9441921370b4 .axis.x .guides:hover .guide.line{opacity:1}#chart-1a69137f-d6ed-40ec-8686-9441921370b4 .axis .guides:hover text{opacity:1}#chart-1a69137f-d6ed-40ec-8686-9441921370b4 .nofill{fill:none}#chart-1a69137f-d6ed-40ec-8686-9441921370b4 .subtle-fill{fill-opacity:.2}#chart-1a69137f-d6ed-40ec-8686-9441921370b4 .dot{stroke-width:1px;fill-opacity:1}#chart-1a69137f-d6ed-40ec-8686-9441921370b4 .dot.active{stroke-width:5px}#chart-1a69137f-d6ed-40ec-8686-9441921370b4 .dot.negative{fill:transparent}#chart-1a69137f-d6ed-40ec-8686-9441921370b4 text,#chart-1a69137f-d6ed-40ec-8686-9441921370b4 tspan{stroke:none !important}#chart-1a69137f-d6ed-40ec-8686-9441921370b4 .series text.active{opacity:1}#chart-1a69137f-d6ed-40ec-8686-9441921370b4 .tooltip rect{fill-opacity:.95;stroke-width:.5}#chart-1a69137f-d6ed-40ec-8686-9441921370b4 .tooltip text{fill-opacity:1}#chart-1a69137f-d6ed-40ec-8686-9441921370b4 .showable{visibility:hidden}#chart-1a69137f-d6ed-40ec-8686-9441921370b4 .showable.shown{visibility:visible}#chart-1a69137f-d6ed-40ec-8686-9441921370b4 .gauge-background{fill:rgba(229,229,229,1);stroke:none}#chart-1a69137f-d6ed-40ec-8686-9441921370b4 .bg-lines{stroke:rgba(249,249,249,1);stroke-width:2px}</style><script type="text/javascript">window.pygal = window.pygal || {};window.pygal.config = window.pygal.config || {};window.pygal.config['1a69137f-d6ed-40ec-8686-9441921370b4'] = {"no_data_text": "No data", "no_prefix": false, "xrange": null, "print_values_position": "center", "truncate_label": null, "x_labels": ["2549", "2550", "2551", "2552", "2553", "2554", "2555", "2556", "2557", "2558"], "title": null, "force_uri_protocol": "https", "defs": [], "formatter": null, "classes": ["pygal-chart"], "y_labels": null, "rounded_bars": null, "explicit_size": false, "x_labels_major_every": null, "legend_at_bottom_columns": null, "stroke_style": null, "half_pie": false, "spacing": 10, "tooltip_fancy_mode": true, "inverse_y_axis": false, "width": 800, "inner_radius": 0, "interpolation_parameters": {}, "tooltip_border_radius": 0, "style": {"no_data_font_family": "Consolas, \"Liberation Mono\", Menlo, Courier, monospace", "tooltip_font_size": 14, "tooltip_font_family": "Consolas, \"Liberation Mono\", Menlo, Courier, monospace", "stroke_opacity_hover": ".9", "legend_font_family": "Consolas, \"Liberation Mono\", Menlo, Courier, monospace", "font_family": "Consolas, \"Liberation Mono\", Menlo, Courier, monospace", "title_font_family": "Consolas, \"Liberation Mono\", Menlo, Courier, monospace", "background": "rgba(249, 249, 249, 1)", "stroke_opacity": ".8", "foreground": "rgba(0, 0, 0, .87)", "value_background": "rgba(229, 229, 229, 1)", "guide_stroke_dasharray": "4,4", "foreground_subtle": "rgba(0, 0, 0, .54)", "opacity_hover": ".8", "value_font_family": "Consolas, \"Liberation Mono\", Menlo, Courier, monospace", "value_label_font_size": 10, "plot_background": "rgba(255, 255, 255, 1)", "ci_colors": [], "label_font_size": 10, "major_label_font_size": 10, "title_font_size": 16, "no_data_font_size": 64, "value_font_size": 16, "value_colors": [], "label_font_family": "Consolas, \"Liberation Mono\", Menlo, Courier, monospace", "major_guide_stroke_dasharray": "6,6", "transition": "150ms", "foreground_strong": "rgba(0, 0, 0, 1)", "colors": ["#e86fa0", "#e88f6f", "#e8df6f", "#a0e86f", "#6fe88f", "#6fe8df", "#6fa0e8", "#8f6fe8", "#df6fe8", "#e86fa0"], "opacity": ".7", "legend_font_size": 14, "value_label_font_family": "Consolas, \"Liberation Mono\", Menlo, Courier, monospace", "major_label_font_family": "Consolas, \"Liberation Mono\", Menlo, Courier, monospace"}, "x_labels_major_count": null, "interpolation_precision": 250, "missing_value_fill_truncation": "x", "stack_from_top": false, "truncate_legend": null, "show_minor_x_labels": true, "print_zeroes": true, "css": ["file://style.css", "file://graph.css"], "y_label_rotation": 0, "legend_at_bottom": false, "print_values": false, "margin_top": null, "max_scale": 16, "allow_interruptions": false, "show_x_labels": true, "strict": false, "show_x_guides": false, "stroke": true, "margin_left": null, "dynamic_print_values": false, "print_labels": false, "show_y_labels": true, "x_labels_major": null, "range": null, "x_label_rotation": 0, "margin": 20, "zero": 0, "include_x_axis": false, "height": 600, "show_minor_y_labels": true, "show_dots": true, "interpolate": "cubic", "show_y_guides": true, "y_labels_major": null, "box_mode": "extremes", "margin_bottom": null, "order_min": null, "legend_box_size": 12, "fill": true, "show_only_major_dots": false, "js": ["//kozea.github.io/pygal.js/2.0.x/pygal-tooltips.min.js"], "x_title": null, "y_labels_major_every": null, "y_labels_major_count": null, "disable_xml_declaration": false, "y_title": null, "logarithmic": false, "pretty_print": false, "min_scale": 4, "dots_size": 2.5, "margin_right": null, "legends": [null], "secondary_range": null, "show_legend": false}</script><script type="text/javascript" xlink:href="https://kozea.github.io/pygal.js/2.0.x/pygal-tooltips.min.js" /></defs><title>Pygal</title><g class="graph stackedline-graph vertical"><rect class="background" height="600" width="800" x="0" y="0" /><g class="plot" transform="translate(54, 20)"><rect class="background" height="540" width="726.0" x="0" y="0" /><g class="axis y"><path class="line" d="M0.000000 540.000000 h726.000000" /><g class="guides"><path class="guide line" d="M0.000000 506.727079 h726.000000" /><text class="" x="-5" y="510.2270786092382">280M</text><title>280M</title></g><g class="guides"><path class="major guide line" d="M0.000000 447.809912 h726.000000" /><text class="major" x="-5" y="451.30991160429915">300M</text><title>300M</title></g><g class="guides"><path class="guide line" d="M0.000000 388.892745 h726.000000" /><text class="" x="-5" y="392.3927445993601">320M</text><title>320M</title></g><g class="guides"><path class="guide line" d="M0.000000 329.975578 h726.000000" /><text class="" x="-5" y="333.4755775944211">340M</text><title>340M</title></g><g class="guides"><path class="guide line" d="M0.000000 271.058411 h726.000000" /><text class="" x="-5" y="274.55841058948204">360M</text><title>360M</title></g><g class="guides"><path class="guide line" d="M0.000000 212.141244 h726.000000" /><text class="" x="-5" y="215.64124358454296">380M</text><title>380M</title></g><g class="guides"><path class="major guide line" d="M0.000000 153.224077 h726.000000" /><text class="major" x="-5" y="156.7240765796039">400M</text><title>400M</title></g><g class="guides"><path class="guide line" d="M0.000000 94.306910 h726.000000" /><text class="" x="-5" y="97.80690957466487">420M</text><title>420M</title></g><g class="guides"><path class="guide line" d="M0.000000 35.389743 h726.000000" /><text class="" x="-5" y="38.8897425697258">440M</text><title>440M</title></g></g><g class="axis x"><g class="guides"><path class="line" d="M13.961538 0.000000 v540.000000" /><text class="" x="13.96153846153846" y="555.0">2549</text></g><g class="guides"><path class="guide line" d="M91.525641 0.000000 v540.000000" /><text class="" x="91.52564102564101" y="555.0">2550</text></g><g class="guides"><path class="guide line" d="M169.089744 0.000000 v540.000000" /><text class="" x="169.08974358974356" y="555.0">2551</text></g><g class="guides"><path class="guide line" d="M246.653846 0.000000 v540.000000" /><text class="" x="246.65384615384613" y="555.0">2552</text></g><g class="guides"><path class="guide line" d="M324.217949 0.000000 v540.000000" /><text class="" x="324.21794871794873" y="555.0">2553</text></g><g class="guides"><path class="guide line" d="M401.782051 0.000000 v540.000000" /><text class="" x="401.78205128205127" y="555.0">2554</text></g><g class="guides"><path class="guide line" d="M479.346154 0.000000 v540.000000" /><text class="" x="479.3461538461538" y="555.0">2555</text></g><g class="guides"><path class="guide line" d="M556.910256 0.000000 v540.000000" /><text class="" x="556.9102564102565" y="555.0">2556</text></g><g class="guides"><path class="guide line" d="M634.474359 0.000000 v540.000000" /><text class="" x="634.474358974359" y="555.0">2557</text></g><g class="guides"><path class="guide line" d="M712.038462 0.000000 v540.000000" /><text class="" x="712.0384615384615" y="555.0">2558</text></g></g><g class="series serie-0 color-0"><path class="line reactive" d="M13.961538 540.000000 L13.961538 529.615385 14.271795 529.038141 14.582051 528.460907 14.892308 527.883690 15.202564 527.306500 15.512821 526.729347 15.823077 526.152238 16.133333 525.575183 16.443590 524.998191 16.753846 524.421270 17.064103 523.844430 17.374359 523.267680 17.684615 522.691029 17.994872 522.114486 18.305128 521.538059 18.615385 520.961758 18.925641 520.385591 19.235897 519.809568 19.546154 519.233697 19.856410 518.657988 20.166667 518.082450 20.476923 517.507091 20.787179 516.931920 21.097436 516.356947 21.407692 515.782180 21.717949 515.207629 22.028205 514.633302 22.338462 514.059208 22.648718 513.485356 22.958974 512.911756 23.269231 512.338416 23.579487 511.765345 23.889744 511.192553 24.200000 510.620047 24.510256 510.047838 24.820513 509.475934 25.130769 508.904344 25.441026 508.333077 25.751282 507.762141 26.061538 507.191547 26.371795 506.621303 26.682051 506.051418 26.992308 505.481901 27.302564 504.912760 27.612821 504.344006 27.923077 503.775646 28.233333 503.207690 28.543590 502.640147 28.853846 502.073026 29.164103 501.506335 29.474359 500.940085 29.784615 500.374282 30.094872 499.808938 30.405128 499.244060 30.715385 498.679658 31.025641 498.115740 31.335897 497.552316 31.646154 496.989394 31.956410 496.426984 32.266667 495.865094 32.576923 495.303734 32.887179 494.742912 33.197436 494.182637 33.507692 493.622919 33.817949 493.063766 34.128205 492.505188 34.438462 491.947193 34.748718 491.389790 35.058974 490.832988 35.369231 490.276796 35.679487 489.721224 35.989744 489.166280 36.300000 488.611973 36.610256 488.058312 36.920513 487.505306 37.230769 486.952964 37.541026 486.401295 37.851282 485.850308 38.161538 485.300012 38.471795 484.750416 38.782051 484.201529 39.092308 483.653360 39.402564 483.105918 39.712821 482.559211 40.023077 482.013249 40.333333 481.468042 40.643590 480.923596 40.953846 480.379923 41.264103 479.837030 41.574359 479.294927 41.884615 478.753623 42.194872 478.213126 42.505128 477.673446 42.815385 477.134591 43.125641 476.596571 43.435897 476.059394 43.746154 475.523070 44.056410 474.987608 44.366667 474.453015 44.676923 473.919303 44.987179 473.386478 45.297436 472.854551 45.607692 472.323530 45.917949 471.793425 46.228205 471.264244 46.538462 470.735996 46.848718 470.208690 47.158974 469.682336 47.469231 469.156941 47.779487 468.632516 48.089744 468.109069 48.400000 467.586609 48.710256 467.065145 49.020513 466.544686 49.330769 466.025242 49.641026 465.506820 49.951282 464.989430 50.261538 464.473081 50.571795 463.957782 50.882051 463.443542 51.192308 462.930369 51.502564 462.418274 51.812821 461.907264 52.123077 461.397349 52.433333 460.888538 52.743590 460.380839 53.053846 459.874263 53.364103 459.368816 53.674359 458.864510 53.984615 458.361352 54.294872 457.859352 54.605128 457.358518 54.915385 456.858860 55.225641 456.360386 55.535897 455.863106 55.846154 455.367028 56.156410 454.872162 56.466667 454.378516 56.776923 453.886100 57.087179 453.394922 57.397436 452.904991 57.707692 452.416316 58.017949 451.928907 58.328205 451.442772 58.638462 450.957920 58.948718 450.474360 59.258974 449.992102 59.569231 449.511154 59.879487 449.031524 60.189744 448.553223 60.500000 448.076259 60.810256 447.600641 61.120513 447.126378 61.430769 446.653479 61.741026 446.181953 62.051282 445.711809 62.361538 445.243055 62.671795 444.775702 62.982051 444.309758 63.292308 443.845231 63.602564 443.382131 63.912821 442.920467 64.223077 442.460247 64.533333 442.001482 64.843590 441.544179 65.153846 441.088347 65.464103 440.633996 65.774359 440.181135 66.084615 439.729773 66.394872 439.279918 66.705128 438.831579 67.015385 438.384766 67.325641 437.939488 67.635897 437.495753 67.946154 437.053570 68.256410 436.612949 68.566667 436.173898 68.876923 435.736427 69.187179 435.300544 69.497436 434.866258 69.807692 434.433578 70.117949 434.002514 70.428205 433.573074 70.738462 433.145267 71.048718 432.719102 71.358974 432.294588 71.669231 431.871735 71.979487 431.450550 72.289744 431.031044 72.600000 430.613224 72.910256 430.197101 73.220513 429.782682 73.530769 429.369978 73.841026 428.958996 74.151282 428.549747 74.461538 428.142238 74.771795 427.736479 75.082051 427.332479 75.392308 426.930247 75.702564 426.529791 76.012821 426.131121 76.323077 425.734246 76.633333 425.339174 76.943590 424.945916 77.253846 424.554478 77.564103 424.164872 77.874359 423.777105 78.184615 423.391186 78.494872 423.007126 78.805128 422.624931 79.115385 422.244612 79.425641 421.866178 79.735897 421.489637 80.046154 421.114998 80.356410 420.742271 80.666667 420.371464 80.976923 420.002586 81.287179 419.635647 81.597436 419.270654 81.907692 418.907619 82.217949 418.546548 82.528205 418.187451 82.838462 417.830338 83.148718 417.475217 83.458974 417.122097 83.769231 416.770987 84.079487 416.421896 84.389744 416.074833 84.700000 415.729807 85.010256 415.386827 85.320513 415.045902 85.630769 414.707040 85.941026 414.370252 86.251282 414.035546 86.561538 413.702930 86.871795 413.372415 87.182051 413.044008 87.492308 412.717718 87.802564 412.393556 88.112821 412.071529 88.423077 411.751647 88.733333 411.433919 89.043590 411.118353 89.353846 410.804959 89.664103 410.493745 89.974359 410.184721 90.284615 409.877895 90.594872 409.573277 90.905128 409.270876 91.215385 408.970699 91.525641 408.672758 91.835897 408.377055 92.146154 408.083578 92.456410 407.792311 92.766667 407.503235 93.076923 407.216333 93.387179 406.931589 93.697436 406.648984 94.007692 406.368503 94.317949 406.090126 94.628205 405.813838 94.938462 405.539622 95.248718 405.267458 95.558974 404.997332 95.869231 404.729224 96.179487 404.463119 96.489744 404.198999 96.800000 403.936846 97.110256 403.676644 97.420513 403.418374 97.730769 403.162021 98.041026 402.907566 98.351282 402.654992 98.661538 402.404283 98.971795 402.155421 99.282051 401.908388 99.592308 401.663168 99.902564 401.419743 100.212821 401.178096 100.523077 400.938210 100.833333 400.700067 101.143590 400.463651 101.453846 400.228943 101.764103 399.995928 102.074359 399.764587 102.384615 399.534903 102.694872 399.306859 103.005128 399.080438 103.315385 398.855623 103.625641 398.632396 103.935897 398.410740 104.246154 398.190639 104.556410 397.972073 104.866667 397.755028 105.176923 397.539484 105.487179 397.325426 105.797436 397.112835 106.107692 396.901694 106.417949 396.691987 106.728205 396.483696 107.038462 396.276803 107.348718 396.071292 107.658974 395.867146 107.969231 395.664346 108.279487 395.462876 108.589744 395.262719 108.900000 395.063857 109.210256 394.866274 109.520513 394.669951 109.830769 394.474871 110.141026 394.281018 110.451282 394.088375 110.761538 393.896923 111.071795 393.706646 111.382051 393.517526 111.692308 393.329546 112.002564 393.142690 112.312821 392.956939 112.623077 392.772277 112.933333 392.588686 113.243590 392.406149 113.553846 392.224648 113.864103 392.044168 114.174359 391.864689 114.484615 391.686196 114.794872 391.508670 115.105128 391.332095 115.415385 391.156454 115.725641 390.981728 116.035897 390.807901 116.346154 390.634956 116.656410 390.462876 116.966667 390.291642 117.276923 390.121239 117.587179 389.951648 117.897436 389.782853 118.207692 389.614836 118.517949 389.447580 118.828205 389.281067 119.138462 389.115281 119.448718 388.950205 119.758974 388.785820 120.069231 388.622110 120.379487 388.459058 120.689744 388.296646 121.000000 388.134857 121.310256 387.973674 121.620513 387.813080 121.930769 387.653057 122.241026 387.493588 122.551282 387.334656 122.861538 387.176244 123.171795 387.018334 123.482051 386.860909 123.792308 386.703952 124.102564 386.547446 124.412821 386.391374 124.723077 386.235717 125.033333 386.080460 125.343590 385.925584 125.653846 385.771073 125.964103 385.616909 126.274359 385.463076 126.584615 385.309555 126.894872 385.156329 127.205128 385.003382 127.515385 384.850696 127.825641 384.698254 128.135897 384.546039 128.446154 384.394033 128.756410 384.242219 129.066667 384.090580 129.376923 383.939098 129.687179 383.787758 129.997436 383.636540 130.307692 383.485428 130.617949 383.334405 130.928205 383.183454 131.238462 383.032556 131.548718 382.881696 131.858974 382.730856 132.169231 382.580018 132.479487 382.429165 132.789744 382.278281 133.100000 382.127347 133.410256 381.976347 133.720513 381.825263 134.030769 381.674078 134.341026 381.522775 134.651282 381.371337 134.961538 381.219747 135.271795 381.067986 135.582051 380.916038 135.892308 380.763886 136.202564 380.611513 136.512821 380.458901 136.823077 380.306032 137.133333 380.152891 137.443590 379.999459 137.753846 379.845719 138.064103 379.691654 138.374359 379.537247 138.684615 379.382481 138.994872 379.227338 139.305128 379.071801 139.615385 378.915852 139.925641 378.759476 140.235897 378.602654 140.546154 378.445369 140.856410 378.287603 141.166667 378.129341 141.476923 377.970564 141.787179 377.811255 142.097436 377.651397 142.407692 377.490973 142.717949 377.329965 143.028205 377.168356 143.338462 377.006130 143.648718 376.843268 143.958974 376.679754 144.269231 376.515570 144.579487 376.350699 144.889744 376.185124 145.200000 376.018827 145.510256 375.851792 145.820513 375.684001 146.130769 375.515437 146.441026 375.346082 146.751282 375.175920 147.061538 375.004933 147.371795 374.833104 147.682051 374.660415 147.992308 374.486850 148.302564 374.312391 148.612821 374.137021 148.923077 373.960723 149.233333 373.783479 149.543590 373.605273 149.853846 373.426087 150.164103 373.245903 150.474359 373.064705 150.784615 372.882475 151.094872 372.699196 151.405128 372.514851 151.715385 372.329423 152.025641 372.142894 152.335897 371.955247 152.646154 371.766465 152.956410 371.576531 153.266667 371.385427 153.576923 371.193136 153.887179 370.999641 154.197436 370.804925 154.507692 370.608971 154.817949 370.411760 155.128205 370.213277 155.438462 370.013503 155.748718 369.812422 156.058974 369.610016 156.369231 369.406268 156.679487 369.201161 156.989744 368.994677 157.300000 368.786800 157.610256 368.577512 157.920513 368.366795 158.230769 368.154633 158.541026 367.941009 158.851282 367.725905 159.161538 367.509304 159.471795 367.291188 159.782051 367.071541 160.092308 366.850344 160.402564 366.627582 160.712821 366.403237 161.023077 366.177291 161.333333 365.949727 161.643590 365.720529 161.953846 365.489678 162.264103 365.257157 162.574359 365.022950 162.884615 364.787039 163.194872 364.549407 163.505128 364.310036 163.815385 364.068909 164.125641 363.826010 164.435897 363.581321 164.746154 363.334824 165.056410 363.086502 165.366667 362.836339 165.676923 362.584317 165.987179 362.330418 166.297436 362.074626 166.607692 361.816923 166.917949 361.557292 167.228205 361.295715 167.538462 361.032177 167.848718 360.766658 168.158974 360.499142 168.469231 360.229613 168.779487 359.958051 169.089744 359.684441 169.400000 359.408772 169.710256 359.131056 170.020513 358.851314 170.330769 358.569567 170.641026 358.285833 170.951282 358.000134 171.261538 357.712488 171.571795 357.422917 171.882051 357.131439 172.192308 356.838076 172.502564 356.542847 172.812821 356.245771 173.123077 355.946870 173.433333 355.646162 173.743590 355.343669 174.053846 355.039409 174.364103 354.733404 174.674359 354.425672 174.984615 354.116235 175.294872 353.805111 175.605128 353.492322 175.915385 353.177886 176.225641 352.861824 176.535897 352.544156 176.846154 352.224902 177.156410 351.904082 177.466667 351.581716 177.776923 351.257824 178.087179 350.932425 178.397436 350.605541 178.707692 350.277190 179.017949 349.947394 179.328205 349.616171 179.638462 349.283542 179.948718 348.949527 180.258974 348.614146 180.569231 348.277418 180.879487 347.939365 181.189744 347.600005 181.500000 347.259359 181.810256 346.917447 182.120513 346.574289 182.430769 346.229905 182.741026 345.884314 183.051282 345.537537 183.361538 345.189594 183.671795 344.840505 183.982051 344.490290 184.292308 344.138968 184.602564 343.786560 184.912821 343.433086 185.223077 343.078566 185.533333 342.723019 185.843590 342.366466 186.153846 342.008927 186.464103 341.650422 186.774359 341.290970 187.084615 340.930592 187.394872 340.569308 187.705128 340.207138 188.015385 339.844101 188.325641 339.480218 188.635897 339.115509 188.946154 338.749993 189.256410 338.383691 189.566667 338.016623 189.876923 337.648808 190.187179 337.280267 190.497436 336.911020 190.807692 336.541086 191.117949 336.170486 191.428205 335.799240 191.738462 335.427367 192.048718 335.054888 192.358974 334.681822 192.669231 334.308190 192.979487 333.934012 193.289744 333.559308 193.600000 333.184097 193.910256 332.808399 194.220513 332.432235 194.530769 332.055625 194.841026 331.678588 195.151282 331.301145 195.461538 330.923315 195.771795 330.545119 196.082051 330.166577 196.392308 329.787708 196.702564 329.408533 197.012821 329.029071 197.323077 328.649343 197.633333 328.269368 197.943590 327.889166 198.253846 327.508759 198.564103 327.128164 198.874359 326.747404 199.184615 326.366496 199.494872 325.985463 199.805128 325.604322 200.115385 325.223095 200.425641 324.841802 200.735897 324.460462 201.046154 324.079096 201.356410 323.697723 201.666667 323.316363 201.976923 322.935037 202.287179 322.553764 202.597436 322.172565 202.907692 321.791459 203.217949 321.410467 203.528205 321.029608 203.838462 320.648902 204.148718 320.268370 204.458974 319.888031 204.769231 319.507906 205.079487 319.128014 205.389744 318.748375 205.700000 318.369010 206.010256 317.989938 206.320513 317.611179 206.630769 317.232754 206.941026 316.854682 207.251282 316.476983 207.561538 316.099678 207.871795 315.722786 208.182051 315.346328 208.492308 314.970322 208.802564 314.594790 209.112821 314.219752 209.423077 313.845226 209.733333 313.471234 210.043590 313.097795 210.353846 312.724930 210.664103 312.352658 210.974359 311.980999 211.284615 311.609973 211.594872 311.239600 211.905128 310.869901 212.215385 310.500895 212.525641 310.132602 212.835897 309.765043 213.146154 309.398237 213.456410 309.032204 213.766667 308.666964 214.076923 308.302537 214.387179 307.938944 214.697436 307.576203 215.007692 307.214336 215.317949 306.853362 215.628205 306.493302 215.938462 306.134174 216.248718 305.776000 216.558974 305.418798 216.869231 305.062590 217.179487 304.707395 217.489744 304.353234 217.800000 304.000125 218.110256 303.648090 218.420513 303.297147 218.730769 302.947318 219.041026 302.598622 219.351282 302.251079 219.661538 301.904709 219.971795 301.559532 220.282051 301.215568 220.592308 300.872837 220.902564 300.531360 221.212821 300.191155 221.523077 299.852244 221.833333 299.514645 222.143590 299.178380 222.453846 298.843467 222.764103 298.509928 223.074359 298.177782 223.384615 297.847049 223.694872 297.517748 224.005128 297.189901 224.315385 296.863527 224.625641 296.538646 224.935897 296.215278 225.246154 295.893442 225.556410 295.573160 225.866667 295.254451 226.176923 294.937335 226.487179 294.621831 226.797436 294.307961 227.107692 293.995744 227.417949 293.685199 227.728205 293.376348 228.038462 293.069209 228.348718 292.763803 228.658974 292.460151 228.969231 292.158271 229.279487 291.858184 229.589744 291.559910 229.900000 291.263469 230.210256 290.968881 230.520513 290.676166 230.830769 290.385343 231.141026 290.096434 231.451282 289.809457 231.761538 289.524433 232.071795 289.241383 232.382051 288.960324 232.692308 288.681279 233.002564 288.404267 233.312821 288.129307 233.623077 287.856421 233.933333 287.585627 234.243590 287.316946 234.553846 287.050398 234.864103 286.786002 235.174359 286.523780 235.484615 286.263750 235.794872 286.005933 236.105128 285.750348 236.415385 285.497017 236.725641 285.245958 237.035897 284.997192 237.346154 284.750739 237.656410 284.506619 237.966667 284.264851 238.276923 284.025456 238.587179 283.788454 238.897436 283.553864 239.207692 283.321708 239.517949 283.092004 239.828205 282.864772 240.138462 282.640034 240.448718 282.417808 240.758974 282.198114 241.069231 281.980974 241.379487 281.766406 241.689744 281.554431 242.000000 281.345068 242.310256 281.138338 242.620513 280.934261 242.930769 280.732857 243.241026 280.534145 243.551282 280.338146 243.861538 280.144879 244.171795 279.954365 244.482051 279.766624 244.792308 279.581675 245.102564 279.399539 245.412821 279.220235 245.723077 279.043784 246.033333 278.870206 246.343590 278.699520 246.653846 278.531747 246.964103 278.366900 247.274359 278.204966 247.584615 278.045926 247.894872 277.889760 248.205128 277.736450 248.515385 277.585976 248.825641 277.438318 249.135897 277.293458 249.446154 277.151376 249.756410 277.012052 250.066667 276.875468 250.376923 276.741603 250.687179 276.610439 250.997436 276.481957 251.307692 276.356136 251.617949 276.232958 251.928205 276.112404 252.238462 275.994453 252.548718 275.879088 252.858974 275.766287 253.169231 275.656033 253.479487 275.548305 253.789744 275.443085 254.100000 275.340352 254.410256 275.240089 254.720513 275.142274 255.030769 275.046890 255.341026 274.953917 255.651282 274.863335 255.961538 274.775125 256.271795 274.689268 256.582051 274.605744 256.892308 274.524534 257.202564 274.445619 257.512821 274.368980 257.823077 274.294596 258.133333 274.222450 258.443590 274.152521 258.753846 274.084790 259.064103 274.019237 259.374359 273.955845 259.684615 273.894592 259.994872 273.835460 260.305128 273.778430 260.615385 273.723482 260.925641 273.670597 261.235897 273.619755 261.546154 273.570938 261.856410 273.524125 262.166667 273.479298 262.476923 273.436437 262.787179 273.395523 263.097436 273.356536 263.407692 273.319458 263.717949 273.284268 264.028205 273.250948 264.338462 273.219479 264.648718 273.189840 264.958974 273.162013 265.269231 273.135978 265.579487 273.111716 265.889744 273.089208 266.200000 273.068434 266.510256 273.049375 266.820513 273.032011 267.130769 273.016324 267.441026 273.002294 267.751282 272.989901 268.061538 272.979127 268.371795 272.969951 268.682051 272.962355 268.992308 272.956320 269.302564 272.951826 269.612821 272.948853 269.923077 272.947383 270.233333 272.947395 270.543590 272.948872 270.853846 272.951792 271.164103 272.956138 271.474359 272.961889 271.784615 272.969027 272.094872 272.977532 272.405128 272.987385 272.715385 272.998566 273.025641 273.011056 273.335897 273.024836 273.646154 273.039886 273.956410 273.056187 274.266667 273.073720 274.576923 273.092466 274.887179 273.112404 275.197436 273.133516 275.507692 273.155783 275.817949 273.179185 276.128205 273.203703 276.438462 273.229317 276.748718 273.256008 277.058974 273.283758 277.369231 273.312545 277.679487 273.342352 277.989744 273.373159 278.300000 273.404946 278.610256 273.437694 278.920513 273.471384 279.230769 273.505997 279.541026 273.541512 279.851282 273.577912 280.161538 273.615176 280.471795 273.653286 280.782051 273.692221 281.092308 273.731963 281.402564 273.772492 281.712821 273.813789 282.023077 273.855835 282.333333 273.898609 282.643590 273.942094 282.953846 273.986269 283.264103 274.031116 283.574359 274.076615 283.884615 274.122746 284.194872 274.169490 284.505128 274.216828 284.815385 274.264741 285.125641 274.313210 285.435897 274.362214 285.746154 274.411735 286.056410 274.461753 286.366667 274.512249 286.676923 274.563204 286.987179 274.614598 287.297436 274.666412 287.607692 274.718627 287.917949 274.771223 288.228205 274.824182 288.538462 274.877483 288.848718 274.931107 289.158974 274.985035 289.469231 275.039248 289.779487 275.093727 290.089744 275.148451 290.400000 275.203402 290.710256 275.258561 291.020513 275.313908 291.330769 275.369423 291.641026 275.425088 291.951282 275.480883 292.261538 275.536789 292.571795 275.592786 292.882051 275.648855 293.192308 275.704977 293.502564 275.761133 293.812821 275.817302 294.123077 275.873467 294.433333 275.929607 294.743590 275.985703 295.053846 276.041736 295.364103 276.097686 295.674359 276.153534 295.984615 276.209262 296.294872 276.264849 296.605128 276.320276 296.915385 276.375524 297.225641 276.430573 297.535897 276.485405 297.846154 276.539999 298.156410 276.594337 298.466667 276.648400 298.776923 276.702167 299.087179 276.755619 299.397436 276.808738 299.707692 276.861504 300.017949 276.913898 300.328205 276.965899 300.638462 277.017490 300.948718 277.068650 301.258974 277.119361 301.569231 277.169602 301.879487 277.219355 302.189744 277.268600 302.500000 277.317319 302.810256 277.365490 303.120513 277.413097 303.430769 277.460118 303.741026 277.506535 304.051282 277.552328 304.361538 277.597478 304.671795 277.641966 304.982051 277.685772 305.292308 277.728877 305.602564 277.771262 305.912821 277.812907 306.223077 277.853793 306.533333 277.893901 306.843590 277.933212 307.153846 277.971705 307.464103 278.009362 307.774359 278.046164 308.084615 278.082090 308.394872 278.117122 308.705128 278.151241 309.015385 278.184427 309.325641 278.216660 309.635897 278.247922 309.946154 278.278193 310.256410 278.307454 310.566667 278.335686 310.876923 278.362868 311.187179 278.388982 311.497436 278.414009 311.807692 278.437929 312.117949 278.460722 312.428205 278.482370 312.738462 278.502853 313.048718 278.522152 313.358974 278.540248 313.669231 278.557121 313.979487 278.572751 314.289744 278.587120 314.600000 278.600209 314.910256 278.611997 315.220513 278.622465 315.530769 278.631595 315.841026 278.639367 316.151282 278.645761 316.461538 278.650759 316.771795 278.654340 317.082051 278.656486 317.392308 278.657177 317.702564 278.656395 318.012821 278.654118 318.323077 278.650329 318.633333 278.645008 318.943590 278.638136 319.253846 278.629692 319.564103 278.619659 319.874359 278.608017 320.184615 278.594745 320.494872 278.579826 320.805128 278.563239 321.115385 278.544966 321.425641 278.524986 321.735897 278.503281 322.046154 278.479832 322.356410 278.454619 322.666667 278.427622 322.976923 278.398822 323.287179 278.368201 323.597436 278.335738 323.907692 278.301415 324.217949 278.265211 324.528205 278.227113 324.838462 278.187119 325.148718 278.145234 325.458974 278.101461 325.769231 278.055805 326.079487 278.008270 326.389744 277.958860 326.700000 277.907579 327.010256 277.854431 327.320513 277.799419 327.630769 277.742549 327.941026 277.683823 328.251282 277.623246 328.561538 277.560822 328.871795 277.496556 329.182051 277.430450 329.492308 277.362509 329.802564 277.292737 330.112821 277.221138 330.423077 277.147717 330.733333 277.072476 331.043590 276.995421 331.353846 276.916554 331.664103 276.835881 331.974359 276.753405 332.284615 276.669130 332.594872 276.583060 332.905128 276.495200 333.215385 276.405553 333.525641 276.314122 333.835897 276.220914 334.146154 276.125930 334.456410 276.029176 334.766667 275.930655 335.076923 275.830372 335.387179 275.728330 335.697436 275.624533 336.007692 275.518986 336.317949 275.411692 336.628205 275.302655 336.938462 275.191880 337.248718 275.079371 337.558974 274.965131 337.869231 274.849164 338.179487 274.731475 338.489744 274.612068 338.800000 274.490946 339.110256 274.368113 339.420513 274.243575 339.730769 274.117334 340.041026 273.989394 340.351282 273.859760 340.661538 273.728436 340.971795 273.595426 341.282051 273.460733 341.592308 273.324362 341.902564 273.186317 342.212821 273.046602 342.523077 272.905220 342.833333 272.762176 343.143590 272.617474 343.453846 272.471118 343.764103 272.323112 344.074359 272.173460 344.384615 272.022165 344.694872 271.869233 345.005128 271.714666 345.315385 271.558469 345.625641 271.400647 345.935897 271.241202 346.246154 271.080139 346.556410 270.917463 346.866667 270.753176 347.176923 270.587284 347.487179 270.419789 347.797436 270.250697 348.107692 270.080011 348.417949 269.907735 348.728205 269.733873 349.038462 269.558429 349.348718 269.381408 349.658974 269.202813 349.969231 269.022648 350.279487 268.840917 350.589744 268.657624 350.900000 268.472774 351.210256 268.286370 351.520513 268.098417 351.830769 267.908918 352.141026 267.717877 352.451282 267.525299 352.761538 267.331187 353.071795 267.135545 353.382051 266.938378 353.692308 266.739689 354.002564 266.539483 354.312821 266.337764 354.623077 266.134534 354.933333 265.929800 355.243590 265.723564 355.553846 265.515830 355.864103 265.306603 356.174359 265.095887 356.484615 264.883686 356.794872 264.670003 357.105128 264.454842 357.415385 264.238209 357.725641 264.020106 358.035897 263.800538 358.346154 263.579508 358.656410 263.357021 358.966667 263.133082 359.276923 262.907692 359.587179 262.680858 359.897436 262.452583 360.207692 262.222870 360.517949 261.991724 360.828205 261.759150 361.138462 261.525150 361.448718 261.289729 361.758974 261.052891 362.069231 260.814640 362.379487 260.574980 362.689744 260.333915 363.000000 260.091449 363.310256 259.847586 363.620513 259.602330 363.930769 259.355685 364.241026 259.107655 364.551282 258.858245 364.861538 258.607457 365.171795 258.355297 365.482051 258.101768 365.792308 257.846874 366.102564 257.590619 366.412821 257.333007 366.723077 257.074043 367.033333 256.813730 367.343590 256.552072 367.653846 256.289074 367.964103 256.024739 368.274359 255.759071 368.584615 255.492075 368.894872 255.223754 369.205128 254.954112 369.515385 254.683154 369.825641 254.410883 370.135897 254.137304 370.446154 253.862420 370.756410 253.586236 371.066667 253.308755 371.376923 253.029982 371.687179 252.749920 371.997436 252.468574 372.307692 252.185947 372.617949 251.902044 372.928205 251.616869 373.238462 251.330425 373.548718 251.042717 373.858974 250.753749 374.169231 250.463524 374.479487 250.172047 374.789744 249.879322 375.100000 249.585352 375.410256 249.290143 375.720513 248.993697 376.030769 248.696019 376.341026 248.397112 376.651282 248.096982 376.961538 247.795631 377.271795 247.493065 377.582051 247.189286 377.892308 246.884299 378.202564 246.578108 378.512821 246.270717 378.823077 245.962130 379.133333 245.652351 379.443590 245.341384 379.753846 245.029233 380.064103 244.715902 380.374359 244.401395 380.684615 244.085717 380.994872 243.768870 381.305128 243.450859 381.615385 243.131689 381.925641 242.811363 382.235897 242.489885 382.546154 242.167259 382.856410 241.843489 383.166667 241.518580 383.476923 241.192535 383.787179 240.865358 384.097436 240.537054 384.407692 240.207625 384.717949 239.877078 385.028205 239.545414 385.338462 239.212639 385.648718 238.878756 385.958974 238.543770 386.269231 238.207684 386.579487 237.870502 386.889744 237.532229 387.200000 237.192869 387.510256 236.852425 387.820513 236.510901 388.130769 236.168302 388.441026 235.824632 388.751282 235.479894 389.061538 235.134093 389.371795 234.787232 389.682051 234.439316 389.992308 234.090349 390.302564 233.740334 390.612821 233.389276 390.923077 233.037178 391.233333 232.684046 391.543590 232.329882 391.853846 231.974691 392.164103 231.618477 392.474359 231.261243 392.784615 230.902994 393.094872 230.543735 393.405128 230.183468 393.715385 229.822197 394.025641 229.459928 394.335897 229.096664 394.646154 228.732408 394.956410 228.367166 395.266667 228.000941 395.576923 227.633736 395.887179 227.265557 396.197436 226.896406 396.507692 226.526289 396.817949 226.155208 397.128205 225.783169 397.438462 225.410175 397.748718 225.036230 398.058974 224.661338 398.369231 224.285503 398.679487 223.908729 398.989744 223.531021 399.300000 223.152382 399.610256 222.772816 399.920513 222.392327 400.230769 222.010919 400.541026 221.628597 400.851282 221.245364 401.161538 220.861225 401.471795 220.476183 401.782051 220.090242 402.092308 219.703408 402.402564 219.315694 402.712821 218.927114 403.023077 218.537684 403.333333 218.147416 403.643590 217.756326 403.953846 217.364428 404.264103 216.971737 404.574359 216.578267 404.884615 216.184032 405.194872 215.789047 405.505128 215.393327 405.815385 214.996885 406.125641 214.599737 406.435897 214.201897 406.746154 213.803379 407.056410 213.404197 407.366667 213.004367 407.676923 212.603903 407.987179 212.202818 408.297436 211.801128 408.607692 211.398847 408.917949 210.995990 409.228205 210.592570 409.538462 210.188603 409.848718 209.784103 410.158974 209.379084 410.469231 208.973560 410.779487 208.567547 411.089744 208.161059 411.400000 207.754110 411.710256 207.346714 412.020513 206.938886 412.330769 206.530641 412.641026 206.121993 412.951282 205.712956 413.261538 205.303546 413.571795 204.893775 413.882051 204.483659 414.192308 204.073213 414.502564 203.662450 414.812821 203.251386 415.123077 202.840034 415.433333 202.428409 415.743590 202.016525 416.053846 201.604398 416.364103 201.192041 416.674359 200.779469 416.984615 200.366697 417.294872 199.953738 417.605128 199.540608 417.915385 199.127320 418.225641 198.713890 418.535897 198.300331 418.846154 197.886658 419.156410 197.472886 419.466667 197.059029 419.776923 196.645102 420.087179 196.231119 420.397436 195.817093 420.707692 195.403041 421.017949 194.988976 421.328205 194.574913 421.638462 194.160867 421.948718 193.746851 422.258974 193.332880 422.569231 192.918968 422.879487 192.505131 423.189744 192.091383 423.500000 191.677737 423.810256 191.264209 424.120513 190.850813 424.430769 190.437563 424.741026 190.024474 425.051282 189.611560 425.361538 189.198836 425.671795 188.786316 425.982051 188.374015 426.292308 187.961947 426.602564 187.550127 426.912821 187.138569 427.223077 186.727287 427.533333 186.316296 427.843590 185.905611 428.153846 185.495246 428.464103 185.085214 428.774359 184.675532 429.084615 184.266213 429.394872 183.857272 429.705128 183.448723 430.015385 183.040580 430.325641 182.632859 430.635897 182.225573 430.946154 181.818737 431.256410 181.412365 431.566667 181.006473 431.876923 180.601074 432.187179 180.196183 432.497436 179.791814 432.807692 179.387982 433.117949 178.984701 433.428205 178.581985 433.738462 178.179850 434.048718 177.778310 434.358974 177.377378 434.669231 176.977070 434.979487 176.577400 435.289744 176.178382 435.600000 175.780032 435.910256 175.382362 436.220513 174.985389 436.530769 174.589126 436.841026 174.193587 437.151282 173.798788 437.461538 173.404742 437.771795 173.011464 438.082051 172.618969 438.392308 172.227271 438.702564 171.836384 439.012821 171.446324 439.323077 171.057103 439.633333 170.668738 439.943590 170.281242 440.253846 169.894630 440.564103 169.508915 440.874359 169.124114 441.184615 168.740240 441.494872 168.357307 441.805128 167.975330 442.115385 167.594324 442.425641 167.214303 442.735897 166.835281 443.046154 166.457273 443.356410 166.080294 443.666667 165.704357 443.976923 165.329477 444.287179 164.955670 444.597436 164.582948 444.907692 164.211327 445.217949 163.840821 445.528205 163.471445 445.838462 163.103213 446.148718 162.736139 446.458974 162.370238 446.769231 162.005525 447.079487 161.642013 447.389744 161.279718 447.700000 160.918653 448.010256 160.558834 448.320513 160.200275 448.630769 159.842989 448.941026 159.486992 449.251282 159.132298 449.561538 158.778922 449.871795 158.426878 450.182051 158.076180 450.492308 157.726843 450.802564 157.378881 451.112821 157.032309 451.423077 156.687142 451.733333 156.343393 452.043590 156.001077 452.353846 155.660209 452.664103 155.320803 452.974359 154.982874 453.284615 154.646436 453.594872 154.311503 453.905128 153.978090 454.215385 153.646211 454.525641 153.315882 454.835897 152.987115 455.146154 152.659927 455.456410 152.334330 455.766667 152.010340 456.076923 151.687972 456.387179 151.367239 456.697436 151.048156 457.007692 150.730738 457.317949 150.414998 457.628205 150.100952 457.938462 149.788614 458.248718 149.477998 458.558974 149.169120 458.869231 148.861992 459.179487 148.556630 459.489744 148.253048 459.800000 147.951261 460.110256 147.651283 460.420513 147.353129 460.730769 147.056812 461.041026 146.762348 461.351282 146.469751 461.661538 146.179036 461.971795 145.890216 462.282051 145.603307 462.592308 145.318322 462.902564 145.035277 463.212821 144.754185 463.523077 144.475061 463.833333 144.197920 464.143590 143.922776 464.453846 143.649644 464.764103 143.378537 465.074359 143.109471 465.384615 142.842460 465.694872 142.577519 466.005128 142.314661 466.315385 142.053901 466.625641 141.795254 466.935897 141.538734 467.246154 141.284356 467.556410 141.032134 467.866667 140.782083 468.176923 140.534216 468.487179 140.288550 468.797436 140.045097 469.107692 139.803872 469.417949 139.564890 469.728205 139.328166 470.038462 139.093713 470.348718 138.861547 470.658974 138.631681 470.969231 138.404130 471.279487 138.178909 471.589744 137.956033 471.900000 137.735514 472.210256 137.517369 472.520513 137.301611 472.830769 137.088255 473.141026 136.877315 473.451282 136.668806 473.761538 136.462743 474.071795 136.259139 474.382051 136.058009 474.692308 135.859368 475.002564 135.663230 475.312821 135.469610 475.623077 135.278521 475.933333 135.089979 476.243590 134.903998 476.553846 134.720593 476.864103 134.539777 477.174359 134.361566 477.484615 134.185973 477.794872 134.013014 478.105128 133.842702 478.415385 133.675053 478.725641 133.510080 479.035897 133.347798 479.346154 133.188222 479.656410 133.031359 479.966667 132.877191 480.276923 132.725695 480.587179 132.576844 480.897436 132.430615 481.207692 132.286983 481.517949 132.145923 481.828205 132.007411 482.138462 131.871422 482.448718 131.737931 482.758974 131.606914 483.069231 131.478347 483.379487 131.352203 483.689744 131.228460 484.000000 131.107093 484.310256 130.988076 484.620513 130.871385 484.930769 130.756996 485.241026 130.644883 485.551282 130.535023 485.861538 130.427391 486.171795 130.321962 486.482051 130.218711 486.792308 130.117614 487.102564 130.018646 487.412821 129.921783 487.723077 129.826999 488.033333 129.734272 488.343590 129.643574 488.653846 129.554884 488.964103 129.468174 489.274359 129.383422 489.584615 129.300601 489.894872 129.219689 490.205128 129.140659 490.515385 129.063488 490.825641 128.988151 491.135897 128.914623 491.446154 128.842880 491.756410 128.772896 492.066667 128.704648 492.376923 128.638111 492.687179 128.573260 492.997436 128.510070 493.307692 128.448517 493.617949 128.388577 493.928205 128.330224 494.238462 128.273434 494.548718 128.218183 494.858974 128.164446 495.169231 128.112198 495.479487 128.061414 495.789744 128.012071 496.100000 127.964142 496.410256 127.917605 496.720513 127.872434 497.030769 127.828604 497.341026 127.786091 497.651282 127.744870 497.961538 127.704918 498.271795 127.666208 498.582051 127.628716 498.892308 127.592419 499.202564 127.557291 499.512821 127.523307 499.823077 127.490443 500.133333 127.458675 500.443590 127.427977 500.753846 127.398326 501.064103 127.369696 501.374359 127.342063 501.684615 127.315402 501.994872 127.289689 502.305128 127.264899 502.615385 127.241008 502.925641 127.217990 503.235897 127.195821 503.546154 127.174478 503.856410 127.153934 504.166667 127.134165 504.476923 127.115148 504.787179 127.096856 505.097436 127.079266 505.407692 127.062353 505.717949 127.046092 506.028205 127.030459 506.338462 127.015429 506.648718 127.000977 506.958974 126.987079 507.269231 126.973711 507.579487 126.960847 507.889744 126.948463 508.200000 126.936534 508.510256 126.925037 508.820513 126.913945 509.130769 126.903235 509.441026 126.892881 509.751282 126.882861 510.061538 126.873147 510.371795 126.863717 510.682051 126.854545 510.992308 126.845607 511.302564 126.836879 511.612821 126.828335 511.923077 126.819951 512.233333 126.811702 512.543590 126.803564 512.853846 126.795512 513.164103 126.787522 513.474359 126.779569 513.784615 126.771628 514.094872 126.763674 514.405128 126.755684 514.715385 126.747632 515.025641 126.739494 515.335897 126.731246 515.646154 126.722861 515.956410 126.714317 516.266667 126.705588 516.576923 126.696650 516.887179 126.687479 517.197436 126.678048 517.507692 126.668335 517.817949 126.658314 518.128205 126.647960 518.438462 126.637250 518.748718 126.626158 519.058974 126.614660 519.369231 126.602731 519.679487 126.590347 519.989744 126.577483 520.300000 126.564114 520.610256 126.550216 520.920513 126.535764 521.230769 126.520734 521.541026 126.505100 521.851282 126.488839 522.161538 126.471926 522.471795 126.454335 522.782051 126.436043 523.092308 126.417025 523.402564 126.397256 523.712821 126.376712 524.023077 126.355368 524.333333 126.333199 524.643590 126.310181 524.953846 126.286289 525.264103 126.261498 525.574359 126.235785 525.884615 126.209124 526.194872 126.181490 526.505128 126.152860 526.815385 126.123208 527.125641 126.092509 527.435897 126.060741 527.746154 126.027876 528.056410 125.993892 528.366667 125.958763 528.676923 125.922465 528.987179 125.884973 529.297436 125.846262 529.607692 125.806309 529.917949 125.765088 530.228205 125.722574 530.538462 125.678744 530.848718 125.633572 531.158974 125.587033 531.469231 125.539104 531.779487 125.489760 532.089744 125.438976 532.400000 125.386727 532.710256 125.332989 533.020513 125.277737 533.330769 125.220946 533.641026 125.162593 533.951282 125.102651 534.261538 125.041098 534.571795 124.977907 534.882051 124.913055 535.192308 124.846517 535.502564 124.778268 535.812821 124.708284 536.123077 124.636539 536.433333 124.563011 536.743590 124.487672 537.053846 124.410500 537.364103 124.331470 537.674359 124.250556 537.984615 124.167735 538.294872 124.082981 538.605128 123.996271 538.915385 123.907579 539.225641 123.816881 539.535897 123.724152 539.846154 123.629367 540.156410 123.532503 540.466667 123.433534 540.776923 123.332436 541.087179 123.229184 541.397436 123.123754 541.707692 123.016120 542.017949 122.906259 542.328205 122.794145 542.638462 122.679755 542.948718 122.563063 543.258974 122.444045 543.569231 122.322676 543.879487 122.198931 544.189744 122.072787 544.500000 121.944218 544.810256 121.813200 545.120513 121.679708 545.430769 121.543718 545.741026 121.405204 546.051282 121.264143 546.361538 121.120509 546.671795 120.974279 546.982051 120.825427 547.292308 120.673929 547.602564 120.519760 547.912821 120.362896 548.223077 120.203311 548.533333 120.040983 548.843590 119.875884 549.153846 119.707993 549.464103 119.537282 549.774359 119.363729 550.084615 119.187308 550.394872 119.007994 550.705128 118.825764 551.015385 118.640592 551.325641 118.452454 551.635897 118.261325 551.946154 118.067181 552.256410 117.869996 552.566667 117.669748 552.876923 117.466410 553.187179 117.259958 553.497436 117.050367 553.807692 116.837614 554.117949 116.621673 554.428205 116.402519 554.738462 116.180129 555.048718 115.954477 555.358974 115.725539 555.669231 115.493291 555.979487 115.257706 556.289744 115.018762 556.600000 114.776434 556.910256 114.530696 557.220513 114.281533 557.530769 114.028964 557.841026 113.773017 558.151282 113.513721 558.461538 113.251103 558.771795 112.985192 559.082051 112.716016 559.392308 112.443602 559.702564 112.167979 560.012821 111.889174 560.323077 111.607217 560.633333 111.322134 560.943590 111.033955 561.253846 110.742706 561.564103 110.448417 561.874359 110.151115 562.184615 109.850828 562.494872 109.547585 562.805128 109.241413 563.115385 108.932340 563.425641 108.620396 563.735897 108.305607 564.046154 107.988001 564.356410 107.667607 564.666667 107.344454 564.976923 107.018568 565.287179 106.689978 565.597436 106.358712 565.907692 106.024799 566.217949 105.688266 566.528205 105.349141 566.838462 105.007452 567.148718 104.663228 567.458974 104.316496 567.769231 103.967285 568.079487 103.615623 568.389744 103.261537 568.700000 102.905056 569.010256 102.546208 569.320513 102.185021 569.630769 101.821523 569.941026 101.455742 570.251282 101.087707 570.561538 100.717444 570.871795 100.344983 571.182051 99.970351 571.492308 99.593577 571.802564 99.214688 572.112821 98.833712 572.423077 98.450679 572.733333 98.065615 573.043590 97.678549 573.353846 97.289509 573.664103 96.898522 573.974359 96.505618 574.284615 96.110824 574.594872 95.714168 574.905128 95.315678 575.215385 94.915383 575.525641 94.513310 575.835897 94.109487 576.146154 93.703943 576.456410 93.296706 576.766667 92.887803 577.076923 92.477263 577.387179 92.065113 577.697436 91.651383 578.007692 91.236099 578.317949 90.819291 578.628205 90.400986 578.938462 89.981211 579.248718 89.559997 579.558974 89.137369 579.869231 88.713357 580.179487 88.287988 580.489744 87.861290 580.800000 87.433293 581.110256 87.004023 581.420513 86.573508 581.730769 86.141778 582.041026 85.708859 582.351282 85.274781 582.661538 84.839570 582.971795 84.403255 583.282051 83.965865 583.592308 83.527427 583.902564 83.087969 584.212821 82.647520 584.523077 82.206107 584.833333 81.763758 585.143590 81.320502 585.453846 80.876367 585.764103 80.431380 586.074359 79.985571 586.384615 79.538966 586.694872 79.091594 587.005128 78.643483 587.315385 78.194661 587.625641 77.745157 587.935897 77.294997 588.246154 76.844211 588.556410 76.392827 588.866667 75.940871 589.176923 75.488374 589.487179 75.035362 589.797436 74.581863 590.107692 74.127907 590.417949 73.673520 590.728205 73.218731 591.038462 72.763568 591.348718 72.308059 591.658974 71.852232 591.969231 71.396115 592.279487 70.939736 592.589744 70.483124 592.900000 70.026306 593.210256 69.569311 593.520513 69.112166 593.830769 68.654900 594.141026 68.197540 594.451282 67.740115 594.761538 67.282653 595.071795 66.825182 595.382051 66.367730 595.692308 65.910325 596.002564 65.452994 596.312821 64.995768 596.623077 64.538672 596.933333 64.081735 597.243590 63.624986 597.553846 63.168453 597.864103 62.712163 598.174359 62.256144 598.484615 61.800426 598.794872 61.345035 599.105128 60.889999 599.415385 60.435348 599.725641 59.981109 600.035897 59.527309 600.346154 59.073978 600.656410 58.621143 600.966667 58.168832 601.276923 57.717073 601.587179 57.265895 601.897436 56.815326 602.207692 56.365392 602.517949 55.916124 602.828205 55.467548 603.138462 55.019693 603.448718 54.572586 603.758974 54.126257 604.069231 53.680732 604.379487 53.236041 604.689744 52.792210 605.000000 52.349269 605.310256 51.907245 605.620513 51.466166 605.930769 51.026061 606.241026 50.586957 606.551282 50.148883 606.861538 49.711866 607.171795 49.275935 607.482051 48.841118 607.792308 48.407442 608.102564 47.974936 608.412821 47.543629 608.723077 47.113547 609.033333 46.684719 609.343590 46.257174 609.653846 45.830939 609.964103 45.406042 610.274359 44.982512 610.584615 44.560376 610.894872 44.139662 611.205128 43.720399 611.515385 43.302615 611.825641 42.886338 612.135897 42.471595 612.446154 42.058415 612.756410 41.646826 613.066667 41.236856 613.376923 40.828534 613.687179 40.421886 613.997436 40.016942 614.307692 39.613729 614.617949 39.212275 614.928205 38.812609 615.238462 38.414759 615.548718 38.018752 615.858974 37.624616 616.169231 37.232381 616.479487 36.842073 616.789744 36.453721 617.100000 36.067353 617.410256 35.682997 617.720513 35.300681 618.030769 34.920434 618.341026 34.542282 618.651282 34.166255 618.961538 33.792380 619.271795 33.420686 619.582051 33.051200 619.892308 32.683951 620.202564 32.318967 620.512821 31.956275 620.823077 31.595904 621.133333 31.237882 621.443590 30.882237 621.753846 30.528997 622.064103 30.178190 622.374359 29.829844 622.684615 29.483988 622.994872 29.140649 623.305128 28.799855 623.615385 28.461634 623.925641 28.126016 624.235897 27.793026 624.546154 27.462695 624.856410 27.135049 625.166667 26.810117 625.476923 26.487927 625.787179 26.168507 626.097436 25.851884 626.407692 25.538088 626.717949 25.227147 627.028205 24.919087 627.338462 24.613938 627.648718 24.311727 627.958974 24.012482 628.269231 23.716232 628.579487 23.423005 628.889744 23.132828 629.200000 22.845730 629.510256 22.561739 629.820513 22.280883 630.130769 22.003190 630.441026 21.728688 630.751282 21.457404 631.061538 21.189368 631.371795 20.924608 631.682051 20.663150 631.992308 20.405024 632.302564 20.150258 632.612821 19.898879 632.923077 19.650915 633.233333 19.406396 633.543590 19.165348 633.853846 18.927799 634.164103 18.693779 634.474359 18.463315 634.784615 18.236427 635.094872 18.013110 635.405128 17.793347 635.715385 17.577126 636.025641 17.364431 636.335897 17.155249 636.646154 16.949565 636.956410 16.747364 637.266667 16.548633 637.576923 16.353357 637.887179 16.161521 638.197436 15.973112 638.507692 15.788115 638.817949 15.606515 639.128205 15.428299 639.438462 15.253452 639.748718 15.081959 640.058974 14.913807 640.369231 14.748980 640.679487 14.587466 640.989744 14.429248 641.300000 14.274314 641.610256 14.122648 641.920513 13.974237 642.230769 13.829065 642.541026 13.687119 642.851282 13.548385 643.161538 13.412847 643.471795 13.280492 643.782051 13.151306 644.092308 13.025273 644.402564 12.902380 644.712821 12.782612 645.023077 12.665955 645.333333 12.552394 645.643590 12.441916 645.953846 12.334506 646.264103 12.230150 646.574359 12.128832 646.884615 12.030540 647.194872 11.935258 647.505128 11.842973 647.815385 11.753669 648.125641 11.667333 648.435897 11.583950 648.746154 11.503506 649.056410 11.425987 649.366667 11.351378 649.676923 11.279664 649.987179 11.210833 650.297436 11.144868 650.607692 11.081757 650.917949 11.021484 651.228205 10.964035 651.538462 10.909396 651.848718 10.857553 652.158974 10.808491 652.469231 10.762195 652.779487 10.718653 653.089744 10.677848 653.400000 10.639767 653.710256 10.604396 654.020513 10.571720 654.330769 10.541725 654.641026 10.514397 654.951282 10.489720 655.261538 10.467682 655.571795 10.448267 655.882051 10.431461 656.192308 10.417250 656.502564 10.405619 656.812821 10.396555 657.123077 10.390042 657.433333 10.386067 657.743590 10.384615 658.053846 10.385672 658.364103 10.389224 658.674359 10.395255 658.984615 10.403753 659.294872 10.414702 659.605128 10.428088 659.915385 10.443896 660.225641 10.462114 660.535897 10.482725 660.846154 10.505716 661.156410 10.531073 661.466667 10.558781 661.776923 10.588825 662.087179 10.621192 662.397436 10.655867 662.707692 10.692836 663.017949 10.732085 663.328205 10.773598 663.638462 10.817362 663.948718 10.863363 664.258974 10.911586 664.569231 10.962016 664.879487 11.014640 665.189744 11.069443 665.500000 11.126411 665.810256 11.185529 666.120513 11.246784 666.430769 11.310160 666.741026 11.375643 667.051282 11.443220 667.361538 11.512875 667.671795 11.584595 667.982051 11.658364 668.292308 11.734170 668.602564 11.811997 668.912821 11.891831 669.223077 11.973657 669.533333 12.057462 669.843590 12.143231 670.153846 12.230950 670.464103 12.320604 670.774359 12.412179 671.084615 12.505661 671.394872 12.601036 671.705128 12.698288 672.015385 12.797404 672.325641 12.898369 672.635897 13.001170 672.946154 13.105791 673.256410 13.212218 673.566667 13.320438 673.876923 13.430435 674.187179 13.542195 674.497436 13.655705 674.807692 13.770949 675.117949 13.887913 675.428205 14.006584 675.738462 14.126946 676.048718 14.248985 676.358974 14.372688 676.669231 14.498039 676.979487 14.625024 677.289744 14.753630 677.600000 14.883841 677.910256 15.015643 678.220513 15.149022 678.530769 15.283964 678.841026 15.420455 679.151282 15.558479 679.461538 15.698023 679.771795 15.839072 680.082051 15.981612 680.392308 16.125629 680.702564 16.271108 681.012821 16.418035 681.323077 16.566395 681.633333 16.716175 681.943590 16.867360 682.253846 17.019935 682.564103 17.173887 682.874359 17.329200 683.184615 17.485862 683.494872 17.643856 683.805128 17.803169 684.115385 17.963787 684.425641 18.125696 684.735897 18.288880 685.046154 18.453325 685.356410 18.619018 685.666667 18.785944 685.976923 18.954089 686.287179 19.123437 686.597436 19.293976 686.907692 19.465690 687.217949 19.638565 687.528205 19.812588 687.838462 19.987742 688.148718 20.164015 688.458974 20.341392 688.769231 20.519859 689.079487 20.699400 689.389744 20.880003 689.700000 21.061652 690.010256 21.244333 690.320513 21.428032 690.630769 21.612735 690.941026 21.798427 691.251282 21.985093 691.561538 22.172720 691.871795 22.361294 692.182051 22.550799 692.492308 22.741222 692.802564 22.932548 693.112821 23.124763 693.423077 23.317852 693.733333 23.511801 694.043590 23.706597 694.353846 23.902223 694.664103 24.098667 694.974359 24.295914 695.284615 24.493949 695.594872 24.692759 695.905128 24.892328 696.215385 25.092642 696.525641 25.293688 696.835897 25.495451 697.146154 25.697916 697.456410 25.901069 697.766667 26.104896 698.076923 26.309383 698.387179 26.514514 698.697436 26.720277 699.007692 26.926656 699.317949 27.133637 699.628205 27.341205 699.938462 27.549347 700.248718 27.758049 700.558974 27.967295 700.869231 28.177071 701.179487 28.387364 701.489744 28.598158 701.800000 28.809440 702.110256 29.021195 702.420513 29.233409 702.730769 29.446067 703.041026 29.659155 703.351282 29.872659 703.661538 30.086564 703.971795 30.300857 704.282051 30.515522 704.592308 30.730545 704.902564 30.945913 705.212821 31.161610 705.523077 31.377623 705.833333 31.593937 706.143590 31.810537 706.453846 32.027410 706.764103 32.244541 707.074359 32.461916 707.384615 32.679520 707.694872 32.897339 708.005128 33.115358 708.315385 33.333565 708.625641 33.551943 708.935897 33.770479 709.246154 33.989158 709.556410 34.207966 709.866667 34.426889 710.176923 34.645912 710.487179 34.865022 710.797436 35.084203 711.107692 35.303441 711.417949 35.522723 711.728205 35.742033 712.038462 35.961357 712.038462 540.000000" /></g></g><g class="titles" /><g class="plot overlay" transform="translate(54, 20)"><g class="series serie-0 color-0"><g class="dots"><circle class="dot reactive tooltip-trigger" cx="13.96153846153846" cy="529.6153846153845" r="2.5" /><desc class="value">272,230,344(kWh)</desc><desc class="x top">13.96153846153846</desc><desc class="y top">529.6153846153845</desc><desc class="x_label">2549</desc></g><g class="dots"><circle class="dot reactive tooltip-trigger" cx="91.52564102564101" cy="408.6727576258269" r="2.5" /><desc class="value">313,285,484(kWh)</desc><desc class="x top">91.52564102564101</desc><desc class="y top">408.6727576258269</desc><desc class="x_label">2550</desc></g><g class="dots"><circle class="dot reactive tooltip-trigger" cx="169.08974358974356" cy="359.68444122232756" r="2.5" /><desc class="value">329,915,040(kWh)</desc><desc class="x top">169.08974358974356</desc><desc class="y top">359.68444122232756</desc><desc class="x_label">2551</desc></g><g class="dots"><circle class="dot reactive tooltip-trigger" cx="246.65384615384613" cy="278.53174685479013" r="2.5" /><desc class="value">357,463,104(kWh)</desc><desc class="x top">246.65384615384613</desc><desc class="y top">278.53174685479013</desc><desc class="x_label">2552</desc></g><g class="dots"><circle class="dot reactive tooltip-trigger" cx="324.21794871794873" cy="278.2652114829765" r="2.5" /><desc class="value">357,553,582(kWh)</desc><desc class="x top">324.21794871794873</desc><desc class="y top">278.2652114829765</desc><desc class="x_label">2553</desc></g><g class="dots"><circle class="dot reactive tooltip-trigger" cx="401.78205128205127" cy="220.09024170594876" r="2.5" /><desc class="value">377,301,636(kWh)</desc><desc class="x left">401.78205128205127</desc><desc class="y left">220.09024170594876</desc><desc class="x_label">2554</desc></g><g class="dots"><circle class="dot reactive tooltip-trigger" cx="479.3461538461538" cy="133.18822164713487" r="2.5" /><desc class="value">406,801,364(kWh)</desc><desc class="x left">479.3461538461538</desc><desc class="y left">133.18822164713487</desc><desc class="x_label">2555</desc></g><g class="dots"><circle class="dot reactive tooltip-trigger" cx="556.9102564102565" cy="114.53069554058789" r="2.5" /><desc class="value">413,134,841(kWh)</desc><desc class="x left">556.9102564102565</desc><desc class="y left">114.53069554058789</desc><desc class="x_label">2556</desc></g><g class="dots"><circle class="dot reactive tooltip-trigger" cx="634.474358974359" cy="18.46331477240119" r="2.5" /><desc class="value">445,745,839(kWh)</desc><desc class="x left">634.474358974359</desc><desc class="y left">18.46331477240119</desc><desc class="x_label">2557</desc></g><g class="dots"><circle class="dot reactive tooltip-trigger" cx="712.0384615384615" cy="35.9613569240077" r="2.5" /><desc class="value">439,805,960(kWh)</desc><desc class="x left">712.0384615384615</desc><desc class="y left">35.9613569240077</desc><desc class="x_label">2558</desc></g></g></g><g class="plot text-overlay" transform="translate(54, 20)"><g class="series serie-0 color-0" /></g><g class="plot tooltip-overlay" transform="translate(54, 20)"><g class="tooltip" style="opacity: 0" transform="translate(0 0)"><rect class="tooltip-box" height="0" rx="0" ry="0" width="0" /><g class="text" /></g></g></g></svg>