<?xml version='1.0' encoding='utf-8'?>
<svg xmlns:xlink="http://www.w3.org/1999/xlink" class="pygal-chart" id="chart-b5c3b567-6af2-4859-ac66-8287ef27c27b" viewBox="0 0 800 600" xmlns="http://www.w3.org/2000/svg"><!--Generated with pygal 2.3.0 (etree) ©Kozea 2012-2016 on 2016-12-08--><!--http://pygal.org--><!--http://github.com/Kozea/pygal--><defs><style type="text/css">#chart-b5c3b567-6af2-4859-ac66-8287ef27c27b{-webkit-user-select:none;-webkit-font-smoothing:antialiased;font-family:Consolas,"Liberation Mono",Menlo,Courier,monospace}#chart-b5c3b567-6af2-4859-ac66-8287ef27c27b .title{font-family:Consolas,"Liberation Mono",Menlo,Courier,monospace;font-size:16px}#chart-b5c3b567-6af2-4859-ac66-8287ef27c27b .legends .legend text{font-family:Consolas,"Liberation Mono",Menlo,Courier,monospace;font-size:14px}#chart-b5c3b567-6af2-4859-ac66-8287ef27c27b .axis text{font-family:Consolas,"Liberation Mono",Menlo,Courier,monospace;font-size:10px}#chart-b5c3b567-6af2-4859-ac66-8287ef27c27b .axis text.major{font-family:Consolas,"Liberation Mono",Menlo,Courier,monospace;font-size:10px}#chart-b5c3b567-6af2-4859-ac66-8287ef27c27b .text-overlay text.value{font-family:Consolas,"Liberation Mono",Menlo,Courier,monospace;font-size:16px}#chart-b5c3b567-6af2-4859-ac66-8287ef27c27b .text-overlay text.label{font-family:Consolas,"Liberation Mono",Menlo,Courier,monospace;font-size:10px}#chart-b5c3b567-6af2-4859-ac66-8287ef27c27b .tooltip{font-family:Consolas,"Liberation Mono",Menlo,Courier,monospace;font-size:14px}#chart-b5c3b567-6af2-4859-ac66-8287ef27c27b text.no_data{font-family:Consolas,"Liberation Mono",Menlo,Courier,monospace;font-size:64px}
#chart-b5c3b567-6af2-4859-ac66-8287ef27c27b{background-color:rgba(249,249,249,1)}#chart-b5c3b567-6af2-4859-ac66-8287ef27c27b path,#chart-b5c3b567-6af2-4859-ac66-8287ef27c27b line,#chart-b5c3b567-6af2-4859-ac66-8287ef27c27b rect,#chart-b5c3b567-6af2-4859-ac66-8287ef27c27b circle{-webkit-transition:150ms;-moz-transition:150ms;transition:150ms}#chart-b5c3b567-6af2-4859-ac66-8287ef27c27b .graph &gt; .background{fill:rgba(249,249,249,1)}#chart-b5c3b567-6af2-4859-ac66-8287ef27c27b .plot &gt; .background{fill:rgba(255,255,255,1)}#chart-b5c3b567-6af2-4859-ac66-8287ef27c27b .graph{fill:rgba(0,0,0,.87)}#chart-b5c3b567-6af2-4859-ac66-8287ef27c27b text.no_data{fill:rgba(0,0,0,1)}#chart-b5c3b567-6af2-4859-ac66-8287ef27c27b .title{fill:rgba(0,0,0,1)}#chart-b5c3b567-6af2-4859-ac66-8287ef27c27b .legends .legend text{fill:rgba(0,0,0,.87)}#chart-b5c3b567-6af2-4859-ac66-8287ef27c27b .legends .legend:hover text{fill:rgba(0,0,0,1)}#chart-b5c3b567-6af2-4859-ac66-8287ef27c27b .axis .line{stroke:rgba(0,0,0,1)}#chart-b5c3b567-6af2-4859-ac66-8287ef27c27b .axis .guide.line{stroke:rgba(0,0,0,.54)}#chart-b5c3b567-6af2-4859-ac66-8287ef27c27b .axis .major.line{stroke:rgba(0,0,0,.87)}#chart-b5c3b567-6af2-4859-ac66-8287ef27c27b .axis text.major{fill:rgba(0,0,0,1)}#chart-b5c3b567-6af2-4859-ac66-8287ef27c27b .axis.y .guides:hover .guide.line,#chart-b5c3b567-6af2-4859-ac66-8287ef27c27b .line-graph .axis.x .guides:hover .guide.line,#chart-b5c3b567-6af2-4859-ac66-8287ef27c27b .stackedline-graph .axis.x .guides:hover .guide.line,#chart-b5c3b567-6af2-4859-ac66-8287ef27c27b .xy-graph .axis.x .guides:hover .guide.line{stroke:rgba(0,0,0,1)}#chart-b5c3b567-6af2-4859-ac66-8287ef27c27b .axis .guides:hover text{fill:rgba(0,0,0,1)}#chart-b5c3b567-6af2-4859-ac66-8287ef27c27b .reactive{fill-opacity:.7;stroke-opacity:.8}#chart-b5c3b567-6af2-4859-ac66-8287ef27c27b .ci{stroke:rgba(0,0,0,.87)}#chart-b5c3b567-6af2-4859-ac66-8287ef27c27b .reactive.active,#chart-b5c3b567-6af2-4859-ac66-8287ef27c27b .active .reactive{fill-opacity:.8;stroke-opacity:.9;stroke-width:4}#chart-b5c3b567-6af2-4859-ac66-8287ef27c27b .ci .reactive.active{stroke-width:1.5}#chart-b5c3b567-6af2-4859-ac66-8287ef27c27b .series text{fill:rgba(0,0,0,1)}#chart-b5c3b567-6af2-4859-ac66-8287ef27c27b .tooltip rect{fill:rgba(255,255,255,1);stroke:rgba(0,0,0,1);-webkit-transition:opacity 150ms;-moz-transition:opacity 150ms;transition:opacity 150ms}#chart-b5c3b567-6af2-4859-ac66-8287ef27c27b .tooltip .label{fill:rgba(0,0,0,.87)}#chart-b5c3b567-6af2-4859-ac66-8287ef27c27b .tooltip .label{fill:rgba(0,0,0,.87)}#chart-b5c3b567-6af2-4859-ac66-8287ef27c27b .tooltip .legend{font-size:.8em;fill:rgba(0,0,0,.54)}#chart-b5c3b567-6af2-4859-ac66-8287ef27c27b .tooltip .x_label{font-size:.6em;fill:rgba(0,0,0,1)}#chart-b5c3b567-6af2-4859-ac66-8287ef27c27b .tooltip .xlink{font-size:.5em;text-decoration:underline}#chart-b5c3b567-6af2-4859-ac66-8287ef27c27b .tooltip .value{font-size:1.5em}#chart-b5c3b567-6af2-4859-ac66-8287ef27c27b .bound{font-size:.5em}#chart-b5c3b567-6af2-4859-ac66-8287ef27c27b .max-value{font-size:.75em;fill:rgba(0,0,0,.54)}#chart-b5c3b567-6af2-4859-ac66-8287ef27c27b .map-element{fill:rgba(255,255,255,1);stroke:rgba(0,0,0,.54) !important}#chart-b5c3b567-6af2-4859-ac66-8287ef27c27b .map-element .reactive{fill-opacity:inherit;stroke-opacity:inherit}#chart-b5c3b567-6af2-4859-ac66-8287ef27c27b .color-0,#chart-b5c3b567-6af2-4859-ac66-8287ef27c27b .color-0 a:visited{stroke:#e86fa0;fill:#e86fa0}#chart-b5c3b567-6af2-4859-ac66-8287ef27c27b .text-overlay .color-0 text{fill:black}
#chart-b5c3b567-6af2-4859-ac66-8287ef27c27b text.no_data{text-anchor:middle}#chart-b5c3b567-6af2-4859-ac66-8287ef27c27b .guide.line{fill:none}#chart-b5c3b567-6af2-4859-ac66-8287ef27c27b .centered{text-anchor:middle}#chart-b5c3b567-6af2-4859-ac66-8287ef27c27b .title{text-anchor:middle}#chart-b5c3b567-6af2-4859-ac66-8287ef27c27b .legends .legend text{fill-opacity:1}#chart-b5c3b567-6af2-4859-ac66-8287ef27c27b .axis.x text{text-anchor:middle}#chart-b5c3b567-6af2-4859-ac66-8287ef27c27b .axis.x:not(.web) text[transform]{text-anchor:start}#chart-b5c3b567-6af2-4859-ac66-8287ef27c27b .axis.x:not(.web) text[transform].backwards{text-anchor:end}#chart-b5c3b567-6af2-4859-ac66-8287ef27c27b .axis.y text{text-anchor:end}#chart-b5c3b567-6af2-4859-ac66-8287ef27c27b .axis.y text[transform].backwards{text-anchor:start}#chart-b5c3b567-6af2-4859-ac66-8287ef27c27b .axis.y2 text{text-anchor:start}#chart-b5c3b567-6af2-4859-ac66-8287ef27c27b .axis.y2 text[transform].backwards{text-anchor:end}#chart-b5c3b567-6af2-4859-ac66-8287ef27c27b .axis .guide.line{stroke-dasharray:4,4}#chart-b5c3b567-6af2-4859-ac66-8287ef27c27b .axis .major.guide.line{stroke-dasharray:6,6}#chart-b5c3b567-6af2-4859-ac66-8287ef27c27b .horizontal .axis.y .guide.line,#chart-b5c3b567-6af2-4859-ac66-8287ef27c27b .horizontal .axis.y2 .guide.line,#chart-b5c3b567-6af2-4859-ac66-8287ef27c27b .vertical .axis.x .guide.line{opacity:0}#chart-b5c3b567-6af2-4859-ac66-8287ef27c27b .horizontal .axis.always_show .guide.line,#chart-b5c3b567-6af2-4859-ac66-8287ef27c27b .vertical .axis.always_show .guide.line{opacity:1 !important}#chart-b5c3b567-6af2-4859-ac66-8287ef27c27b .axis.y .guides:hover .guide.line,#chart-b5c3b567-6af2-4859-ac66-8287ef27c27b .axis.y2 .guides:hover .guide.line,#chart-b5c3b567-6af2-4859-ac66-8287ef27c27b .axis.x .guides:hover .guide.line{opacity:1}#chart-b5c3b567-6af2-4859-ac66-8287ef27c27b .axis .guides:hover text{opacity:1}#chart-b5c3b567-6af2-4859-ac66-8287ef27c27b .nofill{fill:none}#chart-b5c3b567-6af2-4859-ac66-8287ef27c27b .subtle-fill{fill-opacity:.2}#chart-b5c3b567-6af2-4859-ac66-8287ef27c27b .dot{stroke-width:1px;fill-opacity:1}#chart-b5c3b567-6af2-4859-ac66-8287ef27c27b .dot.active{stroke-width:5px}#chart-b5c3b567-6af2-4859-ac66-8287ef27c27b .dot.negative{fill:transparent}#chart-b5c3b567-6af2-4859-ac66-8287ef27c27b text,#chart-b5c3b567-6af2-4859-ac66-8287ef27c27b tspan{stroke:none !important}#chart-b5c3b567-6af2-4859-ac66-8287ef27c27b .series text.active{opacity:1}#chart-b5c3b567-6af2-4859-ac66-8287ef27c27b .tooltip rect{fill-opacity:.95;stroke-width:.5}#chart-b5c3b567-6af2-4859-ac66-8287ef27c27b .tooltip text{fill-opacity:1}#chart-b5c3b567-6af2-4859-ac66-8287ef27c27b .showable{visibility:hidden}#chart-b5c3b567-6af2-4859-ac66-8287ef27c27b .showable.shown{visibility:visible}#chart-b5c3b567-6af2-4859-ac66-8287ef27c27b .gauge-background{fill:rgba(229,229,229,1);stroke:none}#chart-b5c3b567-6af2-4859-ac66-8287ef27c27b .bg-lines{stroke:rgba(249,249,249,1);stroke-width:2px}</style><script type="text/javascript">window.pygal = window.pygal || {};window.pygal.config = window.pygal.config || {};window.pygal.config['b5c3b567-6af2-4859-ac66-8287ef27c27b'] = {"no_data_text": "No data", "no_prefix": false, "xrange": null, "print_values_position": "center", "truncate_label": null, "x_labels": ["2549", "2550", "2551", "2552", "2553", "2554", "2555", "2556", "2557", "2558"], "title": null, "force_uri_protocol": "https", "defs": [], "formatter": null, "classes": ["pygal-chart"], "y_labels": null, "rounded_bars": null, "explicit_size": false, "x_labels_major_every": null, "legend_at_bottom_columns": null, "stroke_style": null, "half_pie": false, "spacing": 10, "tooltip_fancy_mode": true, "inverse_y_axis": false, "width": 800, "inner_radius": 0, "interpolation_parameters": {}, "tooltip_border_radius": 0, "style": {"no_data_font_family": "Consolas, \"Liberation Mono\", Menlo, Courier, monospace", "tooltip_font_size": 14, "tooltip_font_family": "Consolas, \"Liberation Mono\", Menlo, Courier, monospace", "stroke_opacity_hover": ".9", "legend_font_family": "Consolas, \"Liberation Mono\", Menlo, Courier, monospace", "font_family": "Consolas, \"Liberation Mono\", Menlo, Courier, monospace", "title_font_family": "Consolas, \"Liberation Mono\", Menlo, Courier, monospace", "background": "rgba(249, 249, 249, 1)", "stroke_opacity": ".8", "foreground": "rgba(0, 0, 0, .87)", "value_background": "rgba(229, 229, 229, 1)", "guide_stroke_dasharray": "4,4", "foreground_subtle": "rgba(0, 0, 0, .54)", "opacity_hover": ".8", "value_font_family": "Consolas, \"Liberation Mono\", Menlo, Courier, monospace", "value_label_font_size": 10, "plot_background": "rgba(255, 255, 255, 1)", "ci_colors": [], "label_font_size": 10, "major_label_font_size": 10, "title_font_size": 16, "no_data_font_size": 64, "value_font_size": 16, "value_colors": [], "label_font_family": "Consolas, \"Liberation Mono\", Menlo, Courier, monospace", "major_guide_stroke_dasharray": "6,6", "transition": "150ms", "foreground_strong": "rgba(0, 0, 0, 1)", "colors": ["#e86fa0", "#e88f6f", "#e8df6f", "#a0e86f", "#6fe88f", "#6fe8df", "#6fa0e8", "#8f6fe8", "#df6fe8", "#e86fa0"], "opacity": ".7", "legend_font_size": 14, "value_label_font_family": "Consolas, \"Liberation Mono\", Menlo, Courier, monospace", "major_label_font_family": "Consolas, \"Liberation Mono\", Menlo, Courier, monospace"}, "x_labels_major_count": null, "interpolation_precision": 250, "missing_value_fill_truncation": "x", "stack_from_top": false, "truncate_legend": null, "show_minor_x_labels": true, "print_zeroes": true, "css": ["file://style.css", "file://graph.css"], "y_label_rotation": 0, "legend_at_bottom": false, "print_values": false, "margin_top": null, "max_scale": 16, "allow_interruptions": false, "show_x_labels": true, "strict": false, "show_x_guides": false, "stroke": true, "margin_left": null, "dynamic_print_values": false, "print_labels": false, "show_y_labels": true, "x_labels_major": null, "range": null, "x_label_rotation": 0, "margin": 20, "zero": 0, "include_x_axis": false, "height": 600, "show_minor_y_labels": true, "show_dots": true, "interpolate": "cubic", "show_y_guides": true, "y_labels_major": null, "box_mode": "extremes", "margin_bottom": null, "order_min": null, "legend_box_size": 12, "fill": true, "show_only_major_dots": false, "js": ["//kozea.github.io/pygal.js/2.0.x/pygal-tooltips.min.js"], "x_title": null, "y_labels_major_every": null, "y_labels_major_count": null, "disable_xml_declaration": false, "y_title": null, "logarithmic": false, "pretty_print": false, "min_scale": 4, "dots_size": 2.5, "margin_right": null, "legends": [null], "secondary_range": null, "show_legend": false}</script><script type="text/javascript" xlink:href="https://kozea.github.io/pygal.js/2.0.x/pygal-tooltips.min.js" /></defs><title>Pygal</title><g class="graph stackedline-graph vertical"><rect class="background" height="600" width="800" x="0" y="0" /><g class="plot" transform="translate(54, 20)"><rect class="background" height="540" width="726.0" x="0" y="0" /><g class="axis y"><path class="line" d="M0.000000 540.000000 h726.000000" /><g class="guides"><path class="guide line" d="M0.000000 521.914967 h726.000000" /><text class="" x="-5" y="525.414967137927">540M</text><title>540M</title></g><g class="guides"><path class="guide line" d="M0.000000 482.741256 h726.000000" /><text class="" x="-5" y="486.2412562712574">560M</text><title>560M</title></g><g class="guides"><path class="guide line" d="M0.000000 443.567545 h726.000000" /><text class="" x="-5" y="447.06754540458775">580M</text><title>580M</title></g><g class="guides"><path class="major guide line" d="M0.000000 404.393835 h726.000000" /><text class="major" x="-5" y="407.89383453791817">600M</text><title>600M</title></g><g class="guides"><path class="guide line" d="M0.000000 365.220124 h726.000000" /><text class="" x="-5" y="368.72012367124853">620M</text><title>620M</title></g><g class="guides"><path class="guide line" d="M0.000000 326.046413 h726.000000" /><text class="" x="-5" y="329.54641280457895">640M</text><title>640M</title></g><g class="guides"><path class="guide line" d="M0.000000 286.872702 h726.000000" /><text class="" x="-5" y="290.3727019379093">660M</text><title>660M</title></g><g class="guides"><path class="guide line" d="M0.000000 247.698991 h726.000000" /><text class="" x="-5" y="251.19899107123967">680M</text><title>680M</title></g><g class="guides"><path class="major guide line" d="M0.000000 208.525280 h726.000000" /><text class="major" x="-5" y="212.02528020457004">700M</text><title>700M</title></g><g class="guides"><path class="guide line" d="M0.000000 169.351569 h726.000000" /><text class="" x="-5" y="172.85156933790046">720M</text><title>720M</title></g><g class="guides"><path class="guide line" d="M0.000000 130.177858 h726.000000" /><text class="" x="-5" y="133.67785847123082">740M</text><title>740M</title></g><g class="guides"><path class="guide line" d="M0.000000 91.004148 h726.000000" /><text class="" x="-5" y="94.50414760456118">760M</text><title>760M</title></g><g class="guides"><path class="guide line" d="M0.000000 51.830437 h726.000000" /><text class="" x="-5" y="55.3304367378916">780M</text><title>780M</title></g><g class="guides"><path class="major guide line" d="M0.000000 12.656726 h726.000000" /><text class="major" x="-5" y="16.156725871221965">800M</text><title>800M</title></g></g><g class="axis x"><g class="guides"><path class="line" d="M13.961538 0.000000 v540.000000" /><text class="" x="13.96153846153846" y="555.0">2549</text></g><g class="guides"><path class="guide line" d="M91.525641 0.000000 v540.000000" /><text class="" x="91.52564102564101" y="555.0">2550</text></g><g class="guides"><path class="guide line" d="M169.089744 0.000000 v540.000000" /><text class="" x="169.08974358974356" y="555.0">2551</text></g><g class="guides"><path class="guide line" d="M246.653846 0.000000 v540.000000" /><text class="" x="246.65384615384613" y="555.0">2552</text></g><g class="guides"><path class="guide line" d="M324.217949 0.000000 v540.000000" /><text class="" x="324.21794871794873" y="555.0">2553</text></g><g class="guides"><path class="guide line" d="M401.782051 0.000000 v540.000000" /><text class="" x="401.78205128205127" y="555.0">2554</text></g><g class="guides"><path class="guide line" d="M479.346154 0.000000 v540.000000" /><text class="" x="479.3461538461538" y="555.0">2555</text></g><g class="guides"><path class="guide line" d="M556.910256 0.000000 v540.000000" /><text class="" x="556.9102564102565" y="555.0">2556</text></g><g class="guides"><path class="guide line" d="M634.474359 0.000000 v540.000000" /><text class="" x="634.474358974359" y="555.0">2557</text></g><g class="guides"><path class="guide line" d="M712.038462 0.000000 v540.000000" /><text class="" x="712.0384615384615" y="555.0">2558</text></g></g><g class="series serie-0 color-0"><path class="line reactive" d="M13.961538 540.000000 L13.961538 529.615385 14.271795 529.296433 14.582051 528.977485 14.892308 528.658544 15.202564 528.339613 15.512821 528.020696 15.823077 527.701796 16.133333 527.382917 16.443590 527.064063 16.753846 526.745236 17.064103 526.426440 17.374359 526.107679 17.684615 525.788957 17.994872 525.470275 18.305128 525.151639 18.615385 524.833051 18.925641 524.514515 19.235897 524.196035 19.546154 523.877614 19.856410 523.559255 20.166667 523.240962 20.476923 522.922738 20.787179 522.604587 21.097436 522.286512 21.407692 521.968517 21.717949 521.650605 22.028205 521.332779 22.338462 521.015044 22.648718 520.697402 22.958974 520.379858 23.269231 520.062414 23.579487 519.745073 23.889744 519.427841 24.200000 519.110719 24.510256 518.793711 24.820513 518.476821 25.130769 518.160053 25.441026 517.843409 25.751282 517.526894 26.061538 517.210510 26.371795 516.894262 26.682051 516.578152 26.992308 516.262184 27.302564 515.946361 27.612821 515.630688 27.923077 515.315167 28.233333 514.999802 28.543590 514.684597 28.853846 514.369554 29.164103 514.054678 29.474359 513.739971 29.784615 513.425438 30.094872 513.111081 30.405128 512.796905 30.715385 512.482912 31.025641 512.169107 31.335897 511.855492 31.646154 511.542071 31.956410 511.228848 32.266667 510.915825 32.576923 510.603007 32.887179 510.290397 33.197436 509.977999 33.507692 509.665815 33.817949 509.353850 34.128205 509.042106 34.438462 508.730588 34.748718 508.419298 35.058974 508.108241 35.369231 507.797419 35.679487 507.486836 35.989744 507.176496 36.300000 506.866402 36.610256 506.556557 36.920513 506.246965 37.230769 505.937630 37.541026 505.628555 37.851282 505.319743 38.161538 505.011198 38.471795 504.702923 38.782051 504.394922 39.092308 504.087198 39.402564 503.779755 39.712821 503.472596 40.023077 503.165725 40.333333 502.859145 40.643590 502.552859 40.953846 502.246871 41.264103 501.941185 41.574359 501.635804 41.884615 501.330731 42.194872 501.025970 42.505128 500.721525 42.815385 500.417398 43.125641 500.113594 43.435897 499.810115 43.746154 499.506965 44.056410 499.204149 44.366667 498.901668 44.676923 498.599527 44.987179 498.297729 45.297436 497.996277 45.607692 497.695176 45.917949 497.394428 46.228205 497.094037 46.538462 496.794006 46.848718 496.494339 47.158974 496.195040 47.469231 495.896111 47.779487 495.597557 48.089744 495.299380 48.400000 495.001584 48.710256 494.704174 49.020513 494.407151 49.330769 494.110520 49.641026 493.814284 49.951282 493.518446 50.261538 493.223010 50.571795 492.927980 50.882051 492.633359 51.192308 492.339150 51.502564 492.045357 51.812821 491.751983 52.123077 491.459032 52.433333 491.166508 52.743590 490.874413 53.053846 490.582751 53.364103 490.291526 53.674359 490.000741 53.984615 489.710399 54.294872 489.420505 54.605128 489.131061 54.915385 488.842071 55.225641 488.553538 55.535897 488.265467 55.846154 487.977859 56.156410 487.690720 56.466667 487.404052 56.776923 487.117858 57.087179 486.832143 57.397436 486.546909 57.707692 486.262161 58.017949 485.977901 58.328205 485.694133 58.638462 485.410861 58.948718 485.128088 59.258974 484.845817 59.569231 484.564053 59.879487 484.282797 60.189744 484.002055 60.500000 483.721829 60.810256 483.442123 61.120513 483.162940 61.430769 482.884283 61.741026 482.606157 62.051282 482.328565 62.361538 482.051510 62.671795 481.774995 62.982051 481.499024 63.292308 481.223601 63.602564 480.948729 63.912821 480.674412 64.223077 480.400652 64.533333 480.127454 64.843590 479.854820 65.153846 479.582755 65.464103 479.311262 65.774359 479.040343 66.084615 478.770004 66.394872 478.500247 66.705128 478.231075 67.015385 477.962493 67.325641 477.694503 67.635897 477.427109 67.946154 477.160315 68.256410 476.894124 68.566667 476.628539 68.876923 476.363564 69.187179 476.099202 69.497436 475.835457 69.807692 475.572333 70.117949 475.309832 70.428205 475.047959 70.738462 474.786716 71.048718 474.526107 71.358974 474.266136 71.669231 474.006806 71.979487 473.748121 72.289744 473.490084 72.600000 473.232698 72.910256 472.975967 73.220513 472.719894 73.530769 472.464484 73.841026 472.209739 74.151282 471.955662 74.461538 471.702258 74.771795 471.449530 75.082051 471.197480 75.392308 470.946114 75.702564 470.695434 76.012821 470.445443 76.323077 470.196145 76.633333 469.947544 76.943590 469.699643 77.253846 469.452445 77.564103 469.205955 77.874359 468.960174 78.184615 468.715108 78.494872 468.470759 78.805128 468.227131 79.115385 467.984226 79.425641 467.742050 79.735897 467.500605 80.046154 467.259895 80.356410 467.019922 80.666667 466.780691 80.976923 466.542206 81.287179 466.304469 81.597436 466.067483 81.907692 465.831254 82.217949 465.595783 82.528205 465.361074 82.838462 465.127132 83.148718 464.893958 83.458974 464.661558 83.769231 464.429934 84.079487 464.199089 84.389744 463.969028 84.700000 463.739753 85.010256 463.511268 85.320513 463.283577 85.630769 463.056683 85.941026 462.830590 86.251282 462.605300 86.561538 462.380818 86.871795 462.157147 87.182051 461.934290 87.492308 461.712251 87.802564 461.491033 88.112821 461.270640 88.423077 461.051075 88.733333 460.832342 89.043590 460.614444 89.353846 460.397385 89.664103 460.181168 89.974359 459.965796 90.284615 459.751273 90.594872 459.537603 90.905128 459.324789 91.215385 459.112834 91.525641 458.901742 91.835897 458.691515 92.146154 458.482152 92.456410 458.273648 92.766667 458.066001 93.076923 457.859208 93.387179 457.653265 93.697436 457.448170 94.007692 457.243918 94.317949 457.040508 94.628205 456.837935 94.938462 456.636196 95.248718 456.435289 95.558974 456.235210 95.869231 456.035956 96.179487 455.837524 96.489744 455.639910 96.800000 455.443112 97.110256 455.247126 97.420513 455.051949 97.730769 454.857578 98.041026 454.664010 98.351282 454.471241 98.661538 454.279268 98.971795 454.088088 99.282051 453.897699 99.592308 453.708096 99.902564 453.519276 100.212821 453.331237 100.523077 453.143975 100.833333 452.957488 101.143590 452.771771 101.453846 452.586821 101.764103 452.402636 102.074359 452.219213 102.384615 452.036547 102.694872 451.854637 103.005128 451.673478 103.315385 451.493068 103.625641 451.313403 103.935897 451.134480 104.246154 450.956296 104.556410 450.778848 104.866667 450.602132 105.176923 450.426146 105.487179 450.250887 105.797436 450.076350 106.107692 449.902533 106.417949 449.729433 106.728205 449.557047 107.038462 449.385370 107.348718 449.214401 107.658974 449.044136 107.969231 448.874572 108.279487 448.705705 108.589744 448.537533 108.900000 448.370052 109.210256 448.203259 109.520513 448.037150 109.830769 447.871724 110.141026 447.706976 110.451282 447.542903 110.761538 447.379502 111.071795 447.216771 111.382051 447.054705 111.692308 446.893301 112.002564 446.732557 112.312821 446.572470 112.623077 446.413035 112.933333 446.254250 113.243590 446.096112 113.553846 445.938617 113.864103 445.781763 114.174359 445.625545 114.484615 445.469962 114.794872 445.315009 115.105128 445.160684 115.415385 445.006983 115.725641 444.853903 116.035897 444.701442 116.346154 444.549595 116.656410 444.398359 116.966667 444.247733 117.276923 444.097711 117.587179 443.948292 117.897436 443.799471 118.207692 443.651246 118.517949 443.503614 118.828205 443.356571 119.138462 443.210114 119.448718 443.064240 119.758974 442.918946 120.069231 442.774229 120.379487 442.630085 120.689744 442.486511 121.000000 442.343504 121.310256 442.201062 121.620513 442.059179 121.930769 441.917855 122.241026 441.777084 122.551282 441.636865 122.861538 441.497194 123.171795 441.358067 123.482051 441.219483 123.792308 441.081436 124.102564 440.943925 124.412821 440.806945 124.723077 440.670495 125.033333 440.534570 125.343590 440.399168 125.653846 440.264285 125.964103 440.129918 126.274359 439.996064 126.584615 439.862720 126.894872 439.729882 127.205128 439.597548 127.515385 439.465714 127.825641 439.334377 128.135897 439.203534 128.446154 439.073181 128.756410 438.943316 129.066667 438.813935 129.376923 438.685035 129.687179 438.556613 129.997436 438.428666 130.307692 438.301191 130.617949 438.174183 130.928205 438.047641 131.238462 437.921561 131.548718 437.795940 131.858974 437.670774 132.169231 437.546061 132.479487 437.421797 132.789744 437.297979 133.100000 437.174604 133.410256 437.051668 133.720513 436.929170 134.030769 436.807104 134.341026 436.685469 134.651282 436.564260 134.961538 436.443476 135.271795 436.323112 135.582051 436.203165 135.892308 436.083633 136.202564 435.964511 136.512821 435.845798 136.823077 435.727489 137.133333 435.609581 137.443590 435.492072 137.753846 435.374958 138.064103 435.258236 138.374359 435.141903 138.684615 435.025956 138.994872 434.910390 139.305128 434.795204 139.615385 434.680394 139.925641 434.565957 140.235897 434.451889 140.546154 434.338188 140.856410 434.224850 141.166667 434.111873 141.476923 433.999252 141.787179 433.886985 142.097436 433.775068 142.407692 433.663499 142.717949 433.552274 143.028205 433.441390 143.338462 433.330844 143.648718 433.220633 143.958974 433.110752 144.269231 433.001201 144.579487 432.891974 144.889744 432.783069 145.200000 432.674483 145.510256 432.566212 145.820513 432.458254 146.130769 432.350605 146.441026 432.243262 146.751282 432.136221 147.061538 432.029480 147.371795 431.923036 147.682051 431.816885 147.992308 431.711024 148.302564 431.605450 148.612821 431.500159 148.923077 431.395149 149.233333 431.290416 149.543590 431.185958 149.853846 431.081770 150.164103 430.977850 150.474359 430.874195 150.784615 430.770801 151.094872 430.667666 151.405128 430.564785 151.715385 430.462156 152.025641 430.359776 152.335897 430.257642 152.646154 430.155749 152.956410 430.054096 153.266667 429.952679 153.576923 429.851494 153.887179 429.750539 154.197436 429.649811 154.507692 429.549305 154.817949 429.449020 155.128205 429.348951 155.438462 429.249096 155.748718 429.149452 156.058974 429.050014 156.369231 428.950781 156.679487 428.851749 156.989744 428.752914 157.300000 428.654274 157.610256 428.555826 157.920513 428.457565 158.230769 428.359490 158.541026 428.261596 158.851282 428.163881 159.161538 428.066341 159.471795 427.968974 159.782051 427.871776 160.092308 427.774743 160.402564 427.677873 160.712821 427.581163 161.023077 427.484609 161.333333 427.388209 161.643590 427.291958 161.953846 427.195854 162.264103 427.099893 162.574359 427.004073 162.884615 426.908390 163.194872 426.812842 163.505128 426.717424 163.815385 426.622134 164.125641 426.526968 164.435897 426.431923 164.746154 426.336997 165.056410 426.242186 165.366667 426.147486 165.676923 426.052895 165.987179 425.958409 166.297436 425.864026 166.607692 425.769741 166.917949 425.675553 167.228205 425.581457 167.538462 425.487450 167.848718 425.393530 168.158974 425.299693 168.469231 425.205936 168.779487 425.112255 169.089744 425.018648 169.400000 424.925111 169.710256 424.831638 170.020513 424.738221 170.330769 424.644853 170.641026 424.551529 170.951282 424.458241 171.261538 424.364983 171.571795 424.271746 171.882051 424.178526 172.192308 424.085314 172.502564 423.992104 172.812821 423.898889 173.123077 423.805663 173.433333 423.712418 173.743590 423.619147 174.053846 423.525844 174.364103 423.432502 174.674359 423.339115 174.984615 423.245674 175.294872 423.152174 175.605128 423.058607 175.915385 422.964967 176.225641 422.871246 176.535897 422.777439 176.846154 422.683538 177.156410 422.589536 177.466667 422.495427 177.776923 422.401203 178.087179 422.306858 178.397436 422.212385 178.707692 422.117777 179.017949 422.023027 179.328205 421.928129 179.638462 421.833075 179.948718 421.737859 180.258974 421.642474 180.569231 421.546913 180.879487 421.451169 181.189744 421.355236 181.500000 421.259106 181.810256 421.162772 182.120513 421.066229 182.430769 420.969468 182.741026 420.872484 183.051282 420.775269 183.361538 420.677817 183.671795 420.580120 183.982051 420.482171 184.292308 420.383965 184.602564 420.285494 184.912821 420.186751 185.223077 420.087729 185.533333 419.988423 185.843590 419.888823 186.153846 419.788925 186.464103 419.688721 186.774359 419.588204 187.084615 419.487367 187.394872 419.386204 187.705128 419.284707 188.015385 419.182870 188.325641 419.080687 188.635897 418.978149 188.946154 418.875251 189.256410 418.771985 189.566667 418.668345 189.876923 418.564323 190.187179 418.459914 190.497436 418.355109 190.807692 418.249903 191.117949 418.144288 191.428205 418.038258 191.738462 417.931805 192.048718 417.824924 192.358974 417.717606 192.669231 417.609846 192.979487 417.501636 193.289744 417.392969 193.600000 417.283839 193.910256 417.174239 194.220513 417.064162 194.530769 416.953601 194.841026 416.842550 195.151282 416.731001 195.461538 416.618947 195.771795 416.506382 196.082051 416.393299 196.392308 416.279692 196.702564 416.165552 197.012821 416.050874 197.323077 415.935650 197.633333 415.819875 197.943590 415.703540 198.253846 415.586639 198.564103 415.469165 198.874359 415.351112 199.184615 415.232472 199.494872 415.113238 199.805128 414.993405 200.115385 414.872965 200.425641 414.751910 200.735897 414.630235 201.046154 414.507933 201.356410 414.384996 201.666667 414.261418 201.976923 414.137192 202.287179 414.012310 202.597436 413.886767 202.907692 413.760556 203.217949 413.633669 203.528205 413.506100 203.838462 413.377841 204.148718 413.248887 204.458974 413.119230 204.769231 412.988863 205.079487 412.857780 205.389744 412.725973 205.700000 412.593436 206.010256 412.460163 206.320513 412.326145 206.630769 412.191377 206.941026 412.055851 207.251282 411.919560 207.561538 411.782499 207.871795 411.644659 208.182051 411.506034 208.492308 411.366618 208.802564 411.226403 209.112821 411.085383 209.423077 410.943550 209.733333 410.800898 210.043590 410.657420 210.353846 410.513110 210.664103 410.367960 210.974359 410.221963 211.284615 410.075113 211.594872 409.927403 211.905128 409.778825 212.215385 409.629374 212.525641 409.479042 212.835897 409.327823 213.146154 409.175709 213.456410 409.022694 213.766667 408.868771 214.076923 408.713933 214.387179 408.558173 214.697436 408.401484 215.007692 408.243861 215.317949 408.085294 215.628205 407.925779 215.938462 407.765308 216.248718 407.603874 216.558974 407.441470 216.869231 407.278090 217.179487 407.113726 217.489744 406.948372 217.800000 406.782022 218.110256 406.614667 218.420513 406.446301 218.730769 406.276918 219.041026 406.106511 219.351282 405.935073 219.661538 405.762596 219.971795 405.589074 220.282051 405.414501 220.592308 405.238869 220.902564 405.062172 221.212821 404.884402 221.523077 404.705553 221.833333 404.525618 222.143590 404.344590 222.453846 404.162463 222.764103 403.979229 223.074359 403.794882 223.384615 403.609415 223.694872 403.422820 224.005128 403.235092 224.315385 403.046223 224.625641 402.856207 224.935897 402.665036 225.246154 402.472704 225.556410 402.279203 225.866667 402.084528 226.176923 401.888671 226.487179 401.691626 226.797436 401.493385 227.107692 401.293941 227.417949 401.093289 227.728205 400.891420 228.038462 400.688329 228.348718 400.484008 228.658974 400.278451 228.969231 400.071650 229.279487 399.863599 229.589744 399.654291 229.900000 399.443719 230.210256 399.231876 230.520513 399.018756 230.830769 398.804352 231.141026 398.588656 231.451282 398.371662 231.761538 398.153363 232.071795 397.933753 232.382051 397.712823 232.692308 397.490569 233.002564 397.266982 233.312821 397.042056 233.623077 396.815783 233.933333 396.588159 234.243590 396.359174 234.553846 396.128823 234.864103 395.897098 235.174359 395.663994 235.484615 395.429502 235.794872 395.193617 236.105128 394.956330 236.415385 394.717636 236.725641 394.477528 237.035897 394.235999 237.346154 393.993041 237.656410 393.748649 237.966667 393.502814 238.276923 393.255531 238.587179 393.006793 238.897436 392.756592 239.207692 392.504922 239.517949 392.251777 239.828205 391.997148 240.138462 391.741030 240.448718 391.483415 240.758974 391.224297 241.069231 390.963668 241.379487 390.701523 241.689744 390.437854 242.000000 390.172654 242.310256 389.905916 242.620513 389.637634 242.930769 389.367801 243.241026 389.096409 243.551282 388.823453 243.861538 388.548925 244.171795 388.272818 244.482051 387.995126 244.792308 387.715842 245.102564 387.434958 245.412821 387.152469 245.723077 386.868366 246.033333 386.582644 246.343590 386.295296 246.653846 386.006314 246.964103 385.715694 247.274359 385.423443 247.584615 385.129570 247.894872 384.834083 248.205128 384.536991 248.515385 384.238303 248.825641 383.938028 249.135897 383.636175 249.446154 383.332752 249.756410 383.027769 250.066667 382.721234 250.376923 382.413156 250.687179 382.103544 250.997436 381.792406 251.307692 381.479753 251.617949 381.165592 251.928205 380.849932 252.238462 380.532782 252.548718 380.214152 252.858974 379.894049 253.169231 379.572483 253.479487 379.249462 253.789744 378.924996 254.100000 378.599093 254.410256 378.271762 254.720513 377.943012 255.030769 377.612852 255.341026 377.281291 255.651282 376.948337 255.961538 376.613999 256.271795 376.278287 256.582051 375.941208 256.892308 375.602772 257.202564 375.262988 257.512821 374.921865 257.823077 374.579411 258.133333 374.235635 258.443590 373.890546 258.753846 373.544153 259.064103 373.196465 259.374359 372.847490 259.684615 372.497238 259.994872 372.145717 260.305128 371.792936 260.615385 371.438905 260.925641 371.083631 261.235897 370.727124 261.546154 370.369392 261.856410 370.010445 262.166667 369.650291 262.476923 369.288939 262.787179 368.926397 263.097436 368.562676 263.407692 368.197783 263.717949 367.831728 264.028205 367.464519 264.338462 367.096165 264.648718 366.726675 264.958974 366.356058 265.269231 365.984322 265.579487 365.611477 265.889744 365.237531 266.200000 364.862494 266.510256 364.486374 266.820513 364.109179 267.130769 363.730919 267.441026 363.351603 267.751282 362.971239 268.061538 362.589837 268.371795 362.207404 268.682051 361.823951 268.992308 361.439485 269.302564 361.054016 269.612821 360.667552 269.923077 360.280103 270.233333 359.891677 270.543590 359.502283 270.853846 359.111930 271.164103 358.720627 271.474359 358.328382 271.784615 357.935204 272.094872 357.541103 272.405128 357.146087 272.715385 356.750165 273.025641 356.353346 273.335897 355.955638 273.646154 355.557051 273.956410 355.157593 274.266667 354.757273 274.576923 354.356100 274.887179 353.954084 275.197436 353.551231 275.507692 353.147553 275.817949 352.743057 276.128205 352.337752 276.438462 351.931647 276.748718 351.524751 277.058974 351.117073 277.369231 350.708621 277.679487 350.299405 277.989744 349.889433 278.300000 349.478714 278.610256 349.067258 278.920513 348.655072 279.230769 348.242166 279.541026 347.828548 279.851282 347.414228 280.161538 346.999214 280.471795 346.583515 280.782051 346.167140 281.092308 345.750098 281.402564 345.332397 281.712821 344.914047 282.023077 344.495056 282.333333 344.075434 282.643590 343.655188 282.953846 343.234328 283.264103 342.812863 283.574359 342.390801 283.884615 341.968152 284.194872 341.544924 284.505128 341.121126 284.815385 340.696766 285.125641 340.271855 285.435897 339.846400 285.746154 339.420411 286.056410 338.993896 286.366667 338.566864 286.676923 338.139324 286.987179 337.711284 287.297436 337.282755 287.607692 336.853744 287.917949 336.424260 288.228205 335.994313 288.538462 335.563910 288.848718 335.133062 289.158974 334.701776 289.469231 334.270062 289.779487 333.837928 290.089744 333.405383 290.400000 332.972437 290.710256 332.539098 291.020513 332.105374 291.330769 331.671275 291.641026 331.236809 291.951282 330.801986 292.261538 330.366814 292.571795 329.931302 292.882051 329.495459 293.192308 329.059294 293.502564 328.622815 293.812821 328.186032 294.123077 327.748953 294.433333 327.311586 294.743590 326.873942 295.053846 326.436029 295.364103 325.997855 295.674359 325.559430 295.984615 325.120762 296.294872 324.681861 296.605128 324.242734 296.915385 323.803391 297.225641 323.363841 297.535897 322.924093 297.846154 322.484154 298.156410 322.044036 298.466667 321.603745 298.776923 321.163291 299.087179 320.722683 299.397436 320.281929 299.707692 319.841039 300.017949 319.400021 300.328205 318.958885 300.638462 318.517638 300.948718 318.076291 301.258974 317.634851 301.569231 317.193327 301.879487 316.751729 302.189744 316.310065 302.500000 315.868344 302.810256 315.426576 303.120513 314.984767 303.430769 314.542929 303.741026 314.101069 304.051282 313.659196 304.361538 313.217319 304.671795 312.775448 304.982051 312.333590 305.292308 311.891755 305.602564 311.449951 305.912821 311.008188 306.223077 310.566474 306.533333 310.124818 306.843590 309.683229 307.153846 309.241716 307.464103 308.800287 307.774359 308.358952 308.084615 307.917719 308.394872 307.476597 308.705128 307.035595 309.015385 306.594722 309.325641 306.153987 309.635897 305.713398 309.946154 305.272964 310.256410 304.832695 310.566667 304.392599 310.876923 303.952685 311.187179 303.512961 311.497436 303.073437 311.807692 302.634121 312.117949 302.195023 312.428205 301.756151 312.738462 301.317513 313.048718 300.879120 313.358974 300.440979 313.669231 300.003100 313.979487 299.565491 314.289744 299.128161 314.600000 298.691119 314.910256 298.254374 315.220513 297.817935 315.530769 297.381810 315.841026 296.946009 316.151282 296.510540 316.461538 296.075412 316.771795 295.640635 317.082051 295.206215 317.392308 294.772164 317.702564 294.338489 318.012821 293.905199 318.323077 293.472304 318.633333 293.039811 318.943590 292.607731 319.253846 292.176071 319.564103 291.744841 319.874359 291.314049 320.184615 290.883704 320.494872 290.453815 320.805128 290.024392 321.115385 289.595442 321.425641 289.166975 321.735897 288.738999 322.046154 288.311523 322.356410 287.884557 322.666667 287.458109 322.976923 287.032187 323.287179 286.606802 323.597436 286.181960 323.907692 285.757672 324.217949 285.333947 324.528205 284.910791 324.838462 284.488205 325.148718 284.066189 325.458974 283.644742 325.769231 283.223863 326.079487 282.803552 326.389744 282.383808 326.700000 281.964630 327.010256 281.546018 327.320513 281.127971 327.630769 280.710488 327.941026 280.293568 328.251282 279.877212 328.561538 279.461417 328.871795 279.046185 329.182051 278.631512 329.492308 278.217400 329.802564 277.803848 330.112821 277.390854 330.423077 276.978418 330.733333 276.566540 331.043590 276.155218 331.353846 275.744453 331.664103 275.334242 331.974359 274.924587 332.284615 274.515485 332.594872 274.106936 332.905128 273.698941 333.215385 273.291497 333.525641 272.884604 333.835897 272.478262 334.146154 272.072470 334.456410 271.667226 334.766667 271.262532 335.076923 270.858385 335.387179 270.454785 335.697436 270.051732 336.007692 269.649224 336.317949 269.247262 336.628205 268.845844 336.938462 268.444970 337.248718 268.044638 337.558974 267.644849 337.869231 267.245602 338.179487 266.846895 338.489744 266.448729 338.800000 266.051102 339.110256 265.654015 339.420513 265.257465 339.730769 264.861453 340.041026 264.465978 340.351282 264.071039 340.661538 263.676636 340.971795 263.282767 341.282051 262.889433 341.592308 262.496632 341.902564 262.104363 342.212821 261.712627 342.523077 261.321422 342.833333 260.930748 343.143590 260.540604 343.453846 260.150989 343.764103 259.761903 344.074359 259.373345 344.384615 258.985314 344.694872 258.597809 345.005128 258.210831 345.315385 257.824377 345.625641 257.438448 345.935897 257.053044 346.246154 256.668162 346.556410 256.283802 346.866667 255.899965 347.176923 255.516649 347.487179 255.133853 347.797436 254.751576 348.107692 254.369819 348.417949 253.988580 348.728205 253.607859 349.038462 253.227655 349.348718 252.847967 349.658974 252.468795 349.969231 252.090138 350.279487 251.711995 350.589744 251.334366 350.900000 250.957249 351.210256 250.580645 351.520513 250.204552 351.830769 249.828970 352.141026 249.453899 352.451282 249.079336 352.761538 248.705283 353.071795 248.331737 353.382051 247.958700 353.692308 247.586168 354.002564 247.214143 354.312821 246.842623 354.623077 246.471608 354.933333 246.101097 355.243590 245.731089 355.553846 245.361584 355.864103 244.992581 356.174359 244.624079 356.484615 244.256077 356.794872 243.888576 357.105128 243.521574 357.415385 243.155070 357.725641 242.789064 358.035897 242.423555 358.346154 242.058543 358.656410 241.694026 358.966667 241.330005 359.276923 240.966478 359.587179 240.603444 359.897436 240.240904 360.207692 239.878856 360.517949 239.517300 360.828205 239.156235 361.138462 238.795660 361.448718 238.435575 361.758974 238.075978 362.069231 237.716870 362.379487 237.358250 362.689744 237.000116 363.000000 236.642469 363.310256 236.285307 363.620513 235.928630 363.930769 235.572437 364.241026 235.216727 364.551282 234.861500 364.861538 234.506756 365.171795 234.152493 365.482051 233.798710 365.792308 233.445408 366.102564 233.092585 366.412821 232.740240 366.723077 232.388374 367.033333 232.036985 367.343590 231.686072 367.653846 231.335636 367.964103 230.985674 368.274359 230.636188 368.584615 230.287175 368.894872 229.938635 369.205128 229.590568 369.515385 229.242973 369.825641 228.895848 370.135897 228.549195 370.446154 228.203011 370.756410 227.857296 371.066667 227.512049 371.376923 227.167271 371.687179 226.822959 371.997436 226.479114 372.307692 226.135734 372.617949 225.792819 372.928205 225.450369 373.238462 225.108382 373.548718 224.766858 373.858974 224.425797 374.169231 224.085196 374.479487 223.745057 374.789744 223.405378 375.100000 223.066159 375.410256 222.727398 375.720513 222.389096 376.030769 222.051251 376.341026 221.713862 376.651282 221.376930 376.961538 221.040453 377.271795 220.704431 377.582051 220.368863 377.892308 220.033748 378.202564 219.699086 378.512821 219.364876 378.823077 219.031117 379.133333 218.697809 379.443590 218.364951 379.753846 218.032542 380.064103 217.700581 380.374359 217.369069 380.684615 217.038003 380.994872 216.707385 381.305128 216.377211 381.615385 216.047484 381.925641 215.718200 382.235897 215.389360 382.546154 215.060964 382.856410 214.733009 383.166667 214.405497 383.476923 214.078425 383.787179 213.751794 384.097436 213.425603 384.407692 213.099850 384.717949 212.774536 385.028205 212.449659 385.338462 212.125219 385.648718 211.801216 385.958974 211.477648 386.269231 211.154515 386.579487 210.831816 386.889744 210.509550 387.200000 210.187718 387.510256 209.866317 387.820513 209.545348 388.130769 209.224810 388.441026 208.904702 388.751282 208.585023 389.061538 208.265773 389.371795 207.946951 389.682051 207.628556 389.992308 207.310588 390.302564 206.993046 390.612821 206.675929 390.923077 206.359237 391.233333 206.042968 391.543590 205.727123 391.853846 205.411701 392.164103 205.096700 392.474359 204.782121 392.784615 204.467962 393.094872 204.154222 393.405128 203.840902 393.715385 203.528001 394.025641 203.215517 394.335897 202.903450 394.646154 202.591799 394.956410 202.280565 395.266667 201.969745 395.576923 201.659340 395.887179 201.349348 396.197436 201.039769 396.507692 200.730603 396.817949 200.421848 397.128205 200.113504 397.438462 199.805570 397.748718 199.498046 398.058974 199.190930 398.369231 198.884223 398.679487 198.577923 398.989744 198.272030 399.300000 197.966544 399.610256 197.661462 399.920513 197.356786 400.230769 197.052513 400.541026 196.748644 400.851282 196.445177 401.161538 196.142113 401.471795 195.839450 401.782051 195.537187 402.092308 195.235325 402.402564 194.933861 402.712821 194.632796 403.023077 194.332128 403.333333 194.031857 403.643590 193.731981 403.953846 193.432500 404.264103 193.133413 404.574359 192.834718 404.884615 192.536416 405.194872 192.238505 405.505128 191.940985 405.815385 191.643854 406.125641 191.347112 406.435897 191.050757 406.746154 190.754789 407.056410 190.459208 407.366667 190.164011 407.676923 189.869199 407.987179 189.574770 408.297436 189.280724 408.607692 188.987060 408.917949 188.693776 409.228205 188.400872 409.538462 188.108348 409.848718 187.816201 410.158974 187.524432 410.469231 187.233039 410.779487 186.942022 411.089744 186.651380 411.400000 186.361111 411.710256 186.071216 412.020513 185.781692 412.330769 185.492540 412.641026 185.203758 412.951282 184.915345 413.261538 184.627302 413.571795 184.339626 413.882051 184.052317 414.192308 183.765373 414.502564 183.478795 414.812821 183.192582 415.123077 182.906731 415.433333 182.621244 415.743590 182.336117 416.053846 182.051352 416.364103 181.766947 416.674359 181.482900 416.984615 181.199212 417.294872 180.915881 417.605128 180.632907 417.915385 180.350288 418.225641 180.068024 418.535897 179.786113 418.846154 179.504556 419.156410 179.223351 419.466667 178.942497 419.776923 178.661993 420.087179 178.381839 420.397436 178.102033 420.707692 177.822575 421.017949 177.543464 421.328205 177.264699 421.638462 176.986279 421.948718 176.708203 422.258974 176.430471 422.569231 176.153081 422.879487 175.876033 423.189744 175.599325 423.500000 175.322958 423.810256 175.046929 424.120513 174.771239 424.430769 174.495886 424.741026 174.220869 425.051282 173.946188 425.361538 173.671842 425.671795 173.397829 425.982051 173.124150 426.292308 172.850802 426.602564 172.577786 426.912821 172.305099 427.223077 172.032743 427.533333 171.760715 427.843590 171.489014 428.153846 171.217641 428.464103 170.946593 428.774359 170.675871 429.084615 170.405473 429.394872 170.135398 429.705128 169.865646 430.015385 169.596215 430.325641 169.327105 430.635897 169.058315 430.946154 168.789844 431.256410 168.521691 431.566667 168.253855 431.876923 167.986336 432.187179 167.719132 432.497436 167.452243 432.807692 167.185668 433.117949 166.919406 433.428205 166.653455 433.738462 166.387816 434.048718 166.122487 434.358974 165.857468 434.669231 165.592757 434.979487 165.328354 435.289744 165.064258 435.600000 164.800467 435.910256 164.536982 436.220513 164.273801 436.530769 164.010923 436.841026 163.748348 437.151282 163.486074 437.461538 163.224101 437.771795 162.962428 438.082051 162.701054 438.392308 162.439978 438.702564 162.179199 439.012821 161.918717 439.323077 161.658530 439.633333 161.398638 439.943590 161.139039 440.253846 160.879734 440.564103 160.620720 440.874359 160.361998 441.184615 160.103566 441.494872 159.845423 441.805128 159.587569 442.115385 159.330003 442.425641 159.072723 442.735897 158.815729 443.046154 158.559021 443.356410 158.302596 443.666667 158.046455 443.976923 157.790596 444.287179 157.535019 444.597436 157.279723 444.907692 157.024706 445.217949 156.769969 445.528205 156.515509 445.838462 156.261327 446.148718 156.007421 446.458974 155.753791 446.769231 155.500435 447.079487 155.247353 447.389744 154.994544 447.700000 154.742007 448.010256 154.489741 448.320513 154.237745 448.630769 153.986019 448.941026 153.734561 449.251282 153.483371 449.561538 153.232447 449.871795 152.981790 450.182051 152.731397 450.492308 152.481269 450.802564 152.231404 451.112821 151.981802 451.423077 151.732461 451.733333 151.483380 452.043590 151.234560 452.353846 150.985998 452.664103 150.737695 452.974359 150.489649 453.284615 150.241859 453.594872 149.994324 453.905128 149.747045 454.215385 149.500018 454.525641 149.253245 454.835897 149.006724 455.146154 148.760454 455.456410 148.514434 455.766667 148.268663 456.076923 148.023141 456.387179 147.777867 456.697436 147.532840 457.007692 147.288058 457.317949 147.043521 457.628205 146.799229 457.938462 146.555179 458.248718 146.311373 458.558974 146.067807 458.869231 145.824483 459.179487 145.581398 459.489744 145.338552 459.800000 145.095944 460.110256 144.853573 460.420513 144.611439 460.730769 144.369540 461.041026 144.127876 461.351282 143.886445 461.661538 143.645248 461.971795 143.404282 462.282051 143.163547 462.592308 142.923043 462.902564 142.682768 463.212821 142.442721 463.523077 142.202902 463.833333 141.963310 464.143590 141.723943 464.453846 141.484802 464.764103 141.245885 465.074359 141.007191 465.384615 140.768719 465.694872 140.530469 466.005128 140.292440 466.315385 140.054630 466.625641 139.817039 466.935897 139.579667 467.246154 139.342511 467.556410 139.105572 467.866667 138.868848 468.176923 138.632339 468.487179 138.396043 468.797436 138.159961 469.107692 137.924090 469.417949 137.688430 469.728205 137.452981 470.038462 137.217740 470.348718 136.982709 470.658974 136.747885 470.969231 136.513267 471.279487 136.278856 471.589744 136.044649 471.900000 135.810647 472.210256 135.576848 472.520513 135.343251 472.830769 135.109855 473.141026 134.876661 473.451282 134.643666 473.761538 134.410870 474.071795 134.178272 474.382051 133.945871 474.692308 133.713666 475.002564 133.481657 475.312821 133.249843 475.623077 133.018222 475.933333 132.786794 476.243590 132.555557 476.553846 132.324512 476.864103 132.093657 477.174359 131.862992 477.484615 131.632514 477.794872 131.402225 478.105128 131.172122 478.415385 130.942205 478.725641 130.712473 479.035897 130.482925 479.346154 130.253560 479.656410 130.024377 479.966667 129.795378 480.276923 129.566561 480.587179 129.337926 480.897436 129.109475 481.207692 128.881208 481.517949 128.653123 481.828205 128.425223 482.138462 128.197506 482.448718 127.969973 482.758974 127.742624 483.069231 127.515460 483.379487 127.288480 483.689744 127.061685 484.000000 126.835075 484.310256 126.608650 484.620513 126.382410 484.930769 126.156356 485.241026 125.930487 485.551282 125.704804 485.861538 125.479307 486.171795 125.253997 486.482051 125.028872 486.792308 124.803935 487.102564 124.579184 487.412821 124.354620 487.723077 124.130243 488.033333 123.906053 488.343590 123.682051 488.653846 123.458236 488.964103 123.234610 489.274359 123.011171 489.584615 122.787920 489.894872 122.564858 490.205128 122.341985 490.515385 122.119300 490.825641 121.896804 491.135897 121.674498 491.446154 121.452380 491.756410 121.230452 492.066667 121.008714 492.376923 120.787165 492.687179 120.565807 492.997436 120.344639 493.307692 120.123661 493.617949 119.902874 493.928205 119.682277 494.238462 119.461872 494.548718 119.241658 494.858974 119.021635 495.169231 118.801803 495.479487 118.582163 495.789744 118.362715 496.100000 118.143459 496.410256 117.924395 496.720513 117.705524 497.030769 117.486845 497.341026 117.268359 497.651282 117.050066 497.961538 116.831966 498.271795 116.614060 498.582051 116.396346 498.892308 116.178827 499.202564 115.961502 499.512821 115.744370 499.823077 115.527433 500.133333 115.310690 500.443590 115.094142 500.753846 114.877788 501.064103 114.661630 501.374359 114.445667 501.684615 114.229899 501.994872 114.014326 502.305128 113.798949 502.615385 113.583768 502.925641 113.368784 503.235897 113.153995 503.546154 112.939403 503.856410 112.725007 504.166667 112.510808 504.476923 112.296807 504.787179 112.083002 505.097436 111.869395 505.407692 111.655985 505.717949 111.442773 506.028205 111.229759 506.338462 111.016943 506.648718 110.804325 506.958974 110.591906 507.269231 110.379685 507.579487 110.167663 507.889744 109.955840 508.200000 109.744216 508.510256 109.532792 508.820513 109.321567 509.130769 109.110541 509.441026 108.899716 509.751282 108.689091 510.061538 108.478666 510.371795 108.268441 510.682051 108.058418 510.992308 107.848595 511.302564 107.638973 511.612821 107.429552 511.923077 107.220332 512.233333 107.011314 512.543590 106.802498 512.853846 106.593884 513.164103 106.385471 513.474359 106.177262 513.784615 105.969254 514.094872 105.761449 514.405128 105.553847 514.715385 105.346448 515.025641 105.139252 515.335897 104.932260 515.646154 104.725471 515.956410 104.518886 516.266667 104.312505 516.576923 104.106328 516.887179 103.900355 517.197436 103.694586 517.507692 103.489023 517.817949 103.283664 518.128205 103.078510 518.438462 102.873561 518.748718 102.668818 519.058974 102.464280 519.369231 102.259948 519.679487 102.055822 519.989744 101.851903 520.300000 101.648189 520.610256 101.444682 520.920513 101.241381 521.230769 101.038288 521.541026 100.835401 521.851282 100.632722 522.161538 100.430250 522.471795 100.227986 522.782051 100.025929 523.092308 99.824080 523.402564 99.622440 523.712821 99.421008 524.023077 99.219784 524.333333 99.018769 524.643590 98.817963 524.953846 98.617365 525.264103 98.416978 525.574359 98.216799 525.884615 98.016830 526.194872 97.817071 526.505128 97.617522 526.815385 97.418183 527.125641 97.219054 527.435897 97.020136 527.746154 96.821428 528.056410 96.622931 528.366667 96.424646 528.676923 96.226571 528.987179 96.028708 529.297436 95.831057 529.607692 95.633617 529.917949 95.436390 530.228205 95.239374 530.538462 95.042571 530.848718 94.845980 531.158974 94.649602 531.469231 94.453437 531.779487 94.257485 532.089744 94.061747 532.400000 93.866221 532.710256 93.670910 533.020513 93.475812 533.330769 93.280928 533.641026 93.086258 533.951282 92.891802 534.261538 92.697562 534.571795 92.503535 534.882051 92.309724 535.192308 92.116128 535.502564 91.922747 535.812821 91.729581 536.123077 91.536631 536.433333 91.343897 536.743590 91.151379 537.053846 90.959077 537.364103 90.766991 537.674359 90.575122 537.984615 90.383470 538.294872 90.192034 538.605128 90.000816 538.915385 89.809815 539.225641 89.619031 539.535897 89.428465 539.846154 89.238117 540.156410 89.047987 540.466667 88.858075 540.776923 88.668381 541.087179 88.478906 541.397436 88.289650 541.707692 88.100612 542.017949 87.911794 542.328205 87.723195 542.638462 87.534815 542.948718 87.346655 543.258974 87.158715 543.569231 86.970995 543.879487 86.783495 544.189744 86.596215 544.500000 86.409156 544.810256 86.222318 545.120513 86.035700 545.430769 85.849304 545.741026 85.663129 546.051282 85.477176 546.361538 85.291444 546.671795 85.105934 546.982051 84.920646 547.292308 84.735580 547.602564 84.550736 547.912821 84.366116 548.223077 84.181717 548.533333 83.997542 548.843590 83.813590 549.153846 83.629861 549.464103 83.446356 549.774359 83.263075 550.084615 83.080017 550.394872 82.897183 550.705128 82.714574 551.015385 82.532188 551.325641 82.350028 551.635897 82.168092 551.946154 81.986381 552.256410 81.804896 552.566667 81.623635 552.876923 81.442600 553.187179 81.261791 553.497436 81.081208 553.807692 80.900850 554.117949 80.720719 554.428205 80.540815 554.738462 80.361136 555.048718 80.181685 555.358974 80.002461 555.669231 79.823463 555.979487 79.644694 556.289744 79.466151 556.600000 79.287836 556.910256 79.109750 557.220513 78.931891 557.530769 78.754259 557.841026 78.576855 558.151282 78.399678 558.461538 78.222728 558.771795 78.046004 559.082051 77.869505 559.392308 77.693232 559.702564 77.517184 560.012821 77.341361 560.323077 77.165762 560.633333 76.990387 560.943590 76.815235 561.253846 76.640307 561.564103 76.465601 561.874359 76.291118 562.184615 76.116857 562.494872 75.942817 562.805128 75.768999 563.115385 75.595402 563.425641 75.422025 563.735897 75.248868 564.046154 75.075932 564.356410 74.903214 564.666667 74.730716 564.976923 74.558436 565.287179 74.386375 565.597436 74.214531 565.907692 74.042905 566.217949 73.871496 566.528205 73.700304 566.838462 73.529329 567.148718 73.358569 567.458974 73.188025 567.769231 73.017697 568.079487 72.847583 568.389744 72.677684 568.700000 72.507999 569.010256 72.338527 569.320513 72.169269 569.630769 72.000224 569.941026 71.831392 570.251282 71.662772 570.561538 71.494364 570.871795 71.326168 571.182051 71.158182 571.492308 70.990408 571.802564 70.822844 572.112821 70.655489 572.423077 70.488345 572.733333 70.321410 573.043590 70.154683 573.353846 69.988165 573.664103 69.821856 573.974359 69.655754 574.284615 69.489859 574.594872 69.324172 574.905128 69.158691 575.215385 68.993416 575.525641 68.828347 575.835897 68.663484 576.146154 68.498826 576.456410 68.334373 576.766667 68.170124 577.076923 68.006079 577.387179 67.842237 577.697436 67.678599 578.007692 67.515164 578.317949 67.351931 578.628205 67.188901 578.938462 67.026072 579.248718 66.863445 579.558974 66.701018 579.869231 66.538793 580.179487 66.376767 580.489744 66.214941 580.800000 66.053315 581.110256 65.891888 581.420513 65.730660 581.730769 65.569630 582.041026 65.408798 582.351282 65.248164 582.661538 65.087727 582.971795 64.927487 583.282051 64.767443 583.592308 64.607596 583.902564 64.447944 584.212821 64.288487 584.523077 64.129226 584.833333 63.970159 585.143590 63.811287 585.453846 63.652608 585.764103 63.494123 586.074359 63.335831 586.384615 63.177731 586.694872 63.019824 587.005128 62.862109 587.315385 62.704586 587.625641 62.547254 587.935897 62.390113 588.246154 62.233162 588.556410 62.076401 588.866667 61.919830 589.176923 61.763449 589.487179 61.607256 589.797436 61.451252 590.107692 61.295436 590.417949 61.139808 590.728205 60.984368 591.038462 60.829115 591.348718 60.674048 591.658974 60.519168 591.969231 60.364474 592.279487 60.209965 592.589744 60.055642 592.900000 59.901503 593.210256 59.747549 593.520513 59.593779 593.830769 59.440193 594.141026 59.286790 594.451282 59.133570 594.761538 58.980532 595.071795 58.827677 595.382051 58.675004 595.692308 58.522512 596.002564 58.370201 596.312821 58.218071 596.623077 58.066122 596.933333 57.914352 597.243590 57.762762 597.553846 57.611351 597.864103 57.460119 598.174359 57.309066 598.484615 57.158190 598.794872 57.007492 599.105128 56.856972 599.415385 56.706628 599.725641 56.556462 600.035897 56.406471 600.346154 56.256656 600.656410 56.107017 600.966667 55.957552 601.276923 55.808263 601.587179 55.659148 601.897436 55.510206 602.207692 55.361439 602.517949 55.212844 602.828205 55.064422 603.138462 54.916173 603.448718 54.768096 603.758974 54.620191 604.069231 54.472456 604.379487 54.324893 604.689744 54.177501 605.000000 54.030278 605.310256 53.883226 605.620513 53.736343 605.930769 53.589629 606.241026 53.443083 606.551282 53.296706 606.861538 53.150497 607.171795 53.004456 607.482051 52.858581 607.792308 52.712874 608.102564 52.567333 608.412821 52.421958 608.723077 52.276749 609.033333 52.131705 609.343590 51.986826 609.653846 51.842111 609.964103 51.697561 610.274359 51.553174 610.584615 51.408951 610.894872 51.264892 611.205128 51.120994 611.515385 50.977259 611.825641 50.833686 612.135897 50.690275 612.446154 50.547025 612.756410 50.403935 613.066667 50.261006 613.376923 50.118237 613.687179 49.975628 613.997436 49.833178 614.307692 49.690887 614.617949 49.548754 614.928205 49.406780 615.238462 49.264964 615.548718 49.123304 615.858974 48.981802 616.169231 48.840457 616.479487 48.699268 616.789744 48.558235 617.100000 48.417357 617.410256 48.276635 617.720513 48.136067 618.030769 47.995654 618.341026 47.855395 618.651282 47.715290 618.961538 47.575337 619.271795 47.435538 619.582051 47.295892 619.892308 47.156397 620.202564 47.017054 620.512821 46.877863 620.823077 46.738823 621.133333 46.599933 621.443590 46.461194 621.753846 46.322604 622.064103 46.184164 622.374359 46.045874 622.684615 45.907732 622.994872 45.769738 623.305128 45.631893 623.615385 45.494195 623.925641 45.356645 624.235897 45.219241 624.546154 45.081984 624.856410 44.944873 625.166667 44.807908 625.476923 44.671088 625.787179 44.534414 626.097436 44.397884 626.407692 44.261498 626.717949 44.125256 627.028205 43.989158 627.338462 43.853202 627.648718 43.717390 627.958974 43.581720 628.269231 43.446192 628.579487 43.310806 628.889744 43.175561 629.200000 43.040457 629.510256 42.905493 629.820513 42.770670 630.130769 42.635986 630.441026 42.501442 630.751282 42.367036 631.061538 42.232770 631.371795 42.098641 631.682051 41.964651 631.992308 41.830798 632.302564 41.697082 632.612821 41.563503 632.923077 41.430060 633.233333 41.296754 633.543590 41.163583 633.853846 41.030547 634.164103 40.897646 634.474359 40.764880 634.784615 40.632248 635.094872 40.499749 635.405128 40.367384 635.715385 40.235151 636.025641 40.103050 636.335897 39.971080 636.646154 39.839241 636.956410 39.707533 637.266667 39.575955 637.576923 39.444506 637.887179 39.313185 638.197436 39.181993 638.507692 39.050929 638.817949 38.919991 639.128205 38.789181 639.438462 38.658496 639.748718 38.527937 640.058974 38.397503 640.369231 38.267194 640.679487 38.137008 640.989744 38.006946 641.300000 37.877007 641.610256 37.747190 641.920513 37.617495 642.230769 37.487921 642.541026 37.358468 642.851282 37.229135 643.161538 37.099922 643.471795 36.970827 643.782051 36.841852 644.092308 36.712994 644.402564 36.584254 644.712821 36.455631 645.023077 36.327124 645.333333 36.198734 645.643590 36.070458 645.953846 35.942298 646.264103 35.814251 646.574359 35.686319 646.884615 35.558499 647.194872 35.430793 647.505128 35.303198 647.815385 35.175715 648.125641 35.048343 648.435897 34.921082 648.746154 34.793931 649.056410 34.666889 649.366667 34.539956 649.676923 34.413131 649.987179 34.286414 650.297436 34.159805 650.607692 34.033302 650.917949 33.906906 651.228205 33.780615 651.538462 33.654430 651.848718 33.528349 652.158974 33.402372 652.469231 33.276499 652.779487 33.150728 653.089744 33.025061 653.400000 32.899495 653.710256 32.774030 654.020513 32.648667 654.330769 32.523403 654.641026 32.398240 654.951282 32.273176 655.261538 32.148210 655.571795 32.023343 655.882051 31.898574 656.192308 31.773901 656.502564 31.649325 656.812821 31.524845 657.123077 31.400461 657.433333 31.276172 657.743590 31.151977 658.053846 31.027876 658.364103 30.903868 658.674359 30.779953 658.984615 30.656130 659.294872 30.532400 659.605128 30.408760 659.915385 30.285211 660.225641 30.161752 660.535897 30.038383 660.846154 29.915103 661.156410 29.791911 661.466667 29.668808 661.776923 29.545791 662.087179 29.422862 662.397436 29.300019 662.707692 29.177262 663.017949 29.054591 663.328205 28.932004 663.638462 28.809501 663.948718 28.687082 664.258974 28.564746 664.569231 28.442493 664.879487 28.320322 665.189744 28.198232 665.500000 28.076224 665.810256 27.954296 666.120513 27.832448 666.430769 27.710679 666.741026 27.588989 667.051282 27.467378 667.361538 27.345844 667.671795 27.224388 667.982051 27.103008 668.292308 26.981705 668.602564 26.860477 668.912821 26.739324 669.223077 26.618246 669.533333 26.497242 669.843590 26.376311 670.153846 26.255454 670.464103 26.134669 670.774359 26.013955 671.084615 25.893313 671.394872 25.772742 671.705128 25.652241 672.015385 25.531810 672.325641 25.411449 672.635897 25.291155 672.946154 25.170930 673.256410 25.050773 673.566667 24.930683 673.876923 24.810659 674.187179 24.690701 674.497436 24.570809 674.807692 24.450981 675.117949 24.331218 675.428205 24.211519 675.738462 24.091883 676.048718 23.972310 676.358974 23.852799 676.669231 23.733350 676.979487 23.613962 677.289744 23.494634 677.600000 23.375367 677.910256 23.256159 678.220513 23.137011 678.530769 23.017921 678.841026 22.898888 679.151282 22.779913 679.461538 22.660995 679.771795 22.542134 680.082051 22.423328 680.392308 22.304577 680.702564 22.185881 681.012821 22.067240 681.323077 21.948652 681.633333 21.830117 681.943590 21.711635 682.253846 21.593204 682.564103 21.474826 682.874359 21.356498 683.184615 21.238220 683.494872 21.119993 683.805128 21.001815 684.115385 20.883686 684.425641 20.765605 684.735897 20.647572 685.046154 20.529586 685.356410 20.411646 685.666667 20.293753 685.976923 20.175905 686.287179 20.058103 686.597436 19.940345 686.907692 19.822631 687.217949 19.704961 687.528205 19.587333 687.838462 19.469748 688.148718 19.352204 688.458974 19.234702 688.769231 19.117241 689.079487 18.999820 689.389744 18.882439 689.700000 18.765097 690.010256 18.647793 690.320513 18.530528 690.630769 18.413300 690.941026 18.296109 691.251282 18.178955 691.561538 18.061836 691.871795 17.944753 692.182051 17.827705 692.492308 17.710691 692.802564 17.593712 693.112821 17.476765 693.423077 17.359851 693.733333 17.242969 694.043590 17.126119 694.353846 17.009300 694.664103 16.892512 694.974359 16.775753 695.284615 16.659024 695.594872 16.542324 695.905128 16.425653 696.215385 16.309009 696.525641 16.192393 696.835897 16.075804 697.146154 15.959241 697.456410 15.842703 697.766667 15.726191 698.076923 15.609704 698.387179 15.493241 698.697436 15.376801 699.007692 15.260384 699.317949 15.143990 699.628205 15.027618 699.938462 14.911268 700.248718 14.794938 700.558974 14.678629 700.869231 14.562339 701.179487 14.446069 701.489744 14.329818 701.800000 14.213585 702.110256 14.097369 702.420513 13.981171 702.730769 13.864990 703.041026 13.748824 703.351282 13.632674 703.661538 13.516539 703.971795 13.400419 704.282051 13.284313 704.592308 13.168219 704.902564 13.052139 705.212821 12.936071 705.523077 12.820015 705.833333 12.703971 706.143590 12.587937 706.453846 12.471913 706.764103 12.355899 707.074359 12.239894 707.384615 12.123897 707.694872 12.007909 708.005128 11.891928 708.315385 11.775954 708.625641 11.659986 708.935897 11.544025 709.246154 11.428069 709.556410 11.312117 709.866667 11.196170 710.176923 11.080227 710.487179 10.964287 710.797436 10.848349 711.107692 10.732414 711.417949 10.616480 711.728205 10.500547 712.038462 10.384615 712.038462 540.000000" /></g></g><g class="titles" /><g class="plot overlay" transform="translate(54, 20)"><g class="series serie-0 color-0"><g class="dots"><circle class="dot reactive tooltip-trigger" cx="13.96153846153846" cy="529.6153846153846" r="2.5" /><desc class="value">536,068,579(kWh)</desc><desc class="x top">13.96153846153846</desc><desc class="y top">529.6153846153846</desc><desc class="x_label">2549</desc></g><g class="dots"><circle class="dot reactive tooltip-trigger" cx="91.52564102564101" cy="458.9017419599478" r="2.5" /><desc class="value">572,171,180(kWh)</desc><desc class="x top">91.52564102564101</desc><desc class="y top">458.9017419599478</desc><desc class="x_label">2550</desc></g><g class="dots"><circle class="dot reactive tooltip-trigger" cx="169.08974358974356" cy="425.0186483664895" r="2.5" /><desc class="value">589,470,074(kWh)</desc><desc class="x top">169.08974358974356</desc><desc class="y top">425.0186483664895</desc><desc class="x_label">2551</desc></g><g class="dots"><circle class="dot reactive tooltip-trigger" cx="246.65384615384613" cy="386.00631360173514" r="2.5" /><desc class="value">609,387,684(kWh)</desc><desc class="x top">246.65384615384613</desc><desc class="y top">386.00631360173514</desc><desc class="x_label">2552</desc></g><g class="dots"><circle class="dot reactive tooltip-trigger" cx="324.21794871794873" cy="285.3339468229533" r="2.5" /><desc class="value">660,785,606(kWh)</desc><desc class="x top">324.21794871794873</desc><desc class="y top">285.3339468229533</desc><desc class="x_label">2553</desc></g><g class="dots"><circle class="dot reactive tooltip-trigger" cx="401.78205128205127" cy="195.53718739958714" r="2.5" /><desc class="value">706,631,025(kWh)</desc><desc class="x left">401.78205128205127</desc><desc class="y left">195.53718739958714</desc><desc class="x_label">2554</desc></g><g class="dots"><circle class="dot reactive tooltip-trigger" cx="479.3461538461538" cy="130.25355970879514" r="2.5" /><desc class="value">739,961,351(kWh)</desc><desc class="x left">479.3461538461538</desc><desc class="y left">130.25355970879514</desc><desc class="x_label">2555</desc></g><g class="dots"><circle class="dot reactive tooltip-trigger" cx="556.9102564102565" cy="79.10974955063597" r="2.5" /><desc class="value">766,072,643(kWh)</desc><desc class="x left">556.9102564102565</desc><desc class="y left">79.10974955063597</desc><desc class="x_label">2556</desc></g><g class="dots"><circle class="dot reactive tooltip-trigger" cx="634.474358974359" cy="40.7648799758544" r="2.5" /><desc class="value">785,649,481(kWh)</desc><desc class="x left">634.474358974359</desc><desc class="y left">40.7648799758544</desc><desc class="x_label">2557</desc></g><g class="dots"><circle class="dot reactive tooltip-trigger" cx="712.0384615384615" cy="10.384615384615358" r="2.5" /><desc class="value">801,160,018(kWh)</desc><desc class="x left">712.0384615384615</desc><desc class="y left">10.384615384615358</desc><desc class="x_label">2558</desc></g></g></g><g class="plot text-overlay" transform="translate(54, 20)"><g class="series serie-0 color-0" /></g><g class="plot tooltip-overlay" transform="translate(54, 20)"><g class="tooltip" style="opacity: 0" transform="translate(0 0)"><rect class="tooltip-box" height="0" rx="0" ry="0" width="0" /><g class="text" /></g></g></g></svg>