<?xml version='1.0' encoding='utf-8'?>
<svg xmlns:xlink="http://www.w3.org/1999/xlink" class="pygal-chart" id="chart-0997f676-3abd-4fcb-a4fb-1bfc7bf61445" viewBox="0 0 800 600" xmlns="http://www.w3.org/2000/svg"><!--Generated with pygal 2.3.0 (etree) ©Kozea 2012-2016 on 2016-12-08--><!--http://pygal.org--><!--http://github.com/Kozea/pygal--><defs><style type="text/css">#chart-0997f676-3abd-4fcb-a4fb-1bfc7bf61445{-webkit-user-select:none;-webkit-font-smoothing:antialiased;font-family:Consolas,"Liberation Mono",Menlo,Courier,monospace}#chart-0997f676-3abd-4fcb-a4fb-1bfc7bf61445 .title{font-family:Consolas,"Liberation Mono",Menlo,Courier,monospace;font-size:16px}#chart-0997f676-3abd-4fcb-a4fb-1bfc7bf61445 .legends .legend text{font-family:Consolas,"Liberation Mono",Menlo,Courier,monospace;font-size:14px}#chart-0997f676-3abd-4fcb-a4fb-1bfc7bf61445 .axis text{font-family:Consolas,"Liberation Mono",Menlo,Courier,monospace;font-size:10px}#chart-0997f676-3abd-4fcb-a4fb-1bfc7bf61445 .axis text.major{font-family:Consolas,"Liberation Mono",Menlo,Courier,monospace;font-size:10px}#chart-0997f676-3abd-4fcb-a4fb-1bfc7bf61445 .text-overlay text.value{font-family:Consolas,"Liberation Mono",Menlo,Courier,monospace;font-size:16px}#chart-0997f676-3abd-4fcb-a4fb-1bfc7bf61445 .text-overlay text.label{font-family:Consolas,"Liberation Mono",Menlo,Courier,monospace;font-size:10px}#chart-0997f676-3abd-4fcb-a4fb-1bfc7bf61445 .tooltip{font-family:Consolas,"Liberation Mono",Menlo,Courier,monospace;font-size:14px}#chart-0997f676-3abd-4fcb-a4fb-1bfc7bf61445 text.no_data{font-family:Consolas,"Liberation Mono",Menlo,Courier,monospace;font-size:64px}
#chart-0997f676-3abd-4fcb-a4fb-1bfc7bf61445{background-color:rgba(249,249,249,1)}#chart-0997f676-3abd-4fcb-a4fb-1bfc7bf61445 path,#chart-0997f676-3abd-4fcb-a4fb-1bfc7bf61445 line,#chart-0997f676-3abd-4fcb-a4fb-1bfc7bf61445 rect,#chart-0997f676-3abd-4fcb-a4fb-1bfc7bf61445 circle{-webkit-transition:150ms;-moz-transition:150ms;transition:150ms}#chart-0997f676-3abd-4fcb-a4fb-1bfc7bf61445 .graph &gt; .background{fill:rgba(249,249,249,1)}#chart-0997f676-3abd-4fcb-a4fb-1bfc7bf61445 .plot &gt; .background{fill:rgba(255,255,255,1)}#chart-0997f676-3abd-4fcb-a4fb-1bfc7bf61445 .graph{fill:rgba(0,0,0,.87)}#chart-0997f676-3abd-4fcb-a4fb-1bfc7bf61445 text.no_data{fill:rgba(0,0,0,1)}#chart-0997f676-3abd-4fcb-a4fb-1bfc7bf61445 .title{fill:rgba(0,0,0,1)}#chart-0997f676-3abd-4fcb-a4fb-1bfc7bf61445 .legends .legend text{fill:rgba(0,0,0,.87)}#chart-0997f676-3abd-4fcb-a4fb-1bfc7bf61445 .legends .legend:hover text{fill:rgba(0,0,0,1)}#chart-0997f676-3abd-4fcb-a4fb-1bfc7bf61445 .axis .line{stroke:rgba(0,0,0,1)}#chart-0997f676-3abd-4fcb-a4fb-1bfc7bf61445 .axis .guide.line{stroke:rgba(0,0,0,.54)}#chart-0997f676-3abd-4fcb-a4fb-1bfc7bf61445 .axis .major.line{stroke:rgba(0,0,0,.87)}#chart-0997f676-3abd-4fcb-a4fb-1bfc7bf61445 .axis text.major{fill:rgba(0,0,0,1)}#chart-0997f676-3abd-4fcb-a4fb-1bfc7bf61445 .axis.y .guides:hover .guide.line,#chart-0997f676-3abd-4fcb-a4fb-1bfc7bf61445 .line-graph .axis.x .guides:hover .guide.line,#chart-0997f676-3abd-4fcb-a4fb-1bfc7bf61445 .stackedline-graph .axis.x .guides:hover .guide.line,#chart-0997f676-3abd-4fcb-a4fb-1bfc7bf61445 .xy-graph .axis.x .guides:hover .guide.line{stroke:rgba(0,0,0,1)}#chart-0997f676-3abd-4fcb-a4fb-1bfc7bf61445 .axis .guides:hover text{fill:rgba(0,0,0,1)}#chart-0997f676-3abd-4fcb-a4fb-1bfc7bf61445 .reactive{fill-opacity:.7;stroke-opacity:.8}#chart-0997f676-3abd-4fcb-a4fb-1bfc7bf61445 .ci{stroke:rgba(0,0,0,.87)}#chart-0997f676-3abd-4fcb-a4fb-1bfc7bf61445 .reactive.active,#chart-0997f676-3abd-4fcb-a4fb-1bfc7bf61445 .active .reactive{fill-opacity:.8;stroke-opacity:.9;stroke-width:4}#chart-0997f676-3abd-4fcb-a4fb-1bfc7bf61445 .ci .reactive.active{stroke-width:1.5}#chart-0997f676-3abd-4fcb-a4fb-1bfc7bf61445 .series text{fill:rgba(0,0,0,1)}#chart-0997f676-3abd-4fcb-a4fb-1bfc7bf61445 .tooltip rect{fill:rgba(255,255,255,1);stroke:rgba(0,0,0,1);-webkit-transition:opacity 150ms;-moz-transition:opacity 150ms;transition:opacity 150ms}#chart-0997f676-3abd-4fcb-a4fb-1bfc7bf61445 .tooltip .label{fill:rgba(0,0,0,.87)}#chart-0997f676-3abd-4fcb-a4fb-1bfc7bf61445 .tooltip .label{fill:rgba(0,0,0,.87)}#chart-0997f676-3abd-4fcb-a4fb-1bfc7bf61445 .tooltip .legend{font-size:.8em;fill:rgba(0,0,0,.54)}#chart-0997f676-3abd-4fcb-a4fb-1bfc7bf61445 .tooltip .x_label{font-size:.6em;fill:rgba(0,0,0,1)}#chart-0997f676-3abd-4fcb-a4fb-1bfc7bf61445 .tooltip .xlink{font-size:.5em;text-decoration:underline}#chart-0997f676-3abd-4fcb-a4fb-1bfc7bf61445 .tooltip .value{font-size:1.5em}#chart-0997f676-3abd-4fcb-a4fb-1bfc7bf61445 .bound{font-size:.5em}#chart-0997f676-3abd-4fcb-a4fb-1bfc7bf61445 .max-value{font-size:.75em;fill:rgba(0,0,0,.54)}#chart-0997f676-3abd-4fcb-a4fb-1bfc7bf61445 .map-element{fill:rgba(255,255,255,1);stroke:rgba(0,0,0,.54) !important}#chart-0997f676-3abd-4fcb-a4fb-1bfc7bf61445 .map-element .reactive{fill-opacity:inherit;stroke-opacity:inherit}#chart-0997f676-3abd-4fcb-a4fb-1bfc7bf61445 .color-0,#chart-0997f676-3abd-4fcb-a4fb-1bfc7bf61445 .color-0 a:visited{stroke:#e86fa0;fill:#e86fa0}#chart-0997f676-3abd-4fcb-a4fb-1bfc7bf61445 .text-overlay .color-0 text{fill:black}
#chart-0997f676-3abd-4fcb-a4fb-1bfc7bf61445 text.no_data{text-anchor:middle}#chart-0997f676-3abd-4fcb-a4fb-1bfc7bf61445 .guide.line{fill:none}#chart-0997f676-3abd-4fcb-a4fb-1bfc7bf61445 .centered{text-anchor:middle}#chart-0997f676-3abd-4fcb-a4fb-1bfc7bf61445 .title{text-anchor:middle}#chart-0997f676-3abd-4fcb-a4fb-1bfc7bf61445 .legends .legend text{fill-opacity:1}#chart-0997f676-3abd-4fcb-a4fb-1bfc7bf61445 .axis.x text{text-anchor:middle}#chart-0997f676-3abd-4fcb-a4fb-1bfc7bf61445 .axis.x:not(.web) text[transform]{text-anchor:start}#chart-0997f676-3abd-4fcb-a4fb-1bfc7bf61445 .axis.x:not(.web) text[transform].backwards{text-anchor:end}#chart-0997f676-3abd-4fcb-a4fb-1bfc7bf61445 .axis.y text{text-anchor:end}#chart-0997f676-3abd-4fcb-a4fb-1bfc7bf61445 .axis.y text[transform].backwards{text-anchor:start}#chart-0997f676-3abd-4fcb-a4fb-1bfc7bf61445 .axis.y2 text{text-anchor:start}#chart-0997f676-3abd-4fcb-a4fb-1bfc7bf61445 .axis.y2 text[transform].backwards{text-anchor:end}#chart-0997f676-3abd-4fcb-a4fb-1bfc7bf61445 .axis .guide.line{stroke-dasharray:4,4}#chart-0997f676-3abd-4fcb-a4fb-1bfc7bf61445 .axis .major.guide.line{stroke-dasharray:6,6}#chart-0997f676-3abd-4fcb-a4fb-1bfc7bf61445 .horizontal .axis.y .guide.line,#chart-0997f676-3abd-4fcb-a4fb-1bfc7bf61445 .horizontal .axis.y2 .guide.line,#chart-0997f676-3abd-4fcb-a4fb-1bfc7bf61445 .vertical .axis.x .guide.line{opacity:0}#chart-0997f676-3abd-4fcb-a4fb-1bfc7bf61445 .horizontal .axis.always_show .guide.line,#chart-0997f676-3abd-4fcb-a4fb-1bfc7bf61445 .vertical .axis.always_show .guide.line{opacity:1 !important}#chart-0997f676-3abd-4fcb-a4fb-1bfc7bf61445 .axis.y .guides:hover .guide.line,#chart-0997f676-3abd-4fcb-a4fb-1bfc7bf61445 .axis.y2 .guides:hover .guide.line,#chart-0997f676-3abd-4fcb-a4fb-1bfc7bf61445 .axis.x .guides:hover .guide.line{opacity:1}#chart-0997f676-3abd-4fcb-a4fb-1bfc7bf61445 .axis .guides:hover text{opacity:1}#chart-0997f676-3abd-4fcb-a4fb-1bfc7bf61445 .nofill{fill:none}#chart-0997f676-3abd-4fcb-a4fb-1bfc7bf61445 .subtle-fill{fill-opacity:.2}#chart-0997f676-3abd-4fcb-a4fb-1bfc7bf61445 .dot{stroke-width:1px;fill-opacity:1}#chart-0997f676-3abd-4fcb-a4fb-1bfc7bf61445 .dot.active{stroke-width:5px}#chart-0997f676-3abd-4fcb-a4fb-1bfc7bf61445 .dot.negative{fill:transparent}#chart-0997f676-3abd-4fcb-a4fb-1bfc7bf61445 text,#chart-0997f676-3abd-4fcb-a4fb-1bfc7bf61445 tspan{stroke:none !important}#chart-0997f676-3abd-4fcb-a4fb-1bfc7bf61445 .series text.active{opacity:1}#chart-0997f676-3abd-4fcb-a4fb-1bfc7bf61445 .tooltip rect{fill-opacity:.95;stroke-width:.5}#chart-0997f676-3abd-4fcb-a4fb-1bfc7bf61445 .tooltip text{fill-opacity:1}#chart-0997f676-3abd-4fcb-a4fb-1bfc7bf61445 .showable{visibility:hidden}#chart-0997f676-3abd-4fcb-a4fb-1bfc7bf61445 .showable.shown{visibility:visible}#chart-0997f676-3abd-4fcb-a4fb-1bfc7bf61445 .gauge-background{fill:rgba(229,229,229,1);stroke:none}#chart-0997f676-3abd-4fcb-a4fb-1bfc7bf61445 .bg-lines{stroke:rgba(249,249,249,1);stroke-width:2px}</style><script type="text/javascript">window.pygal = window.pygal || {};window.pygal.config = window.pygal.config || {};window.pygal.config['0997f676-3abd-4fcb-a4fb-1bfc7bf61445'] = {"no_data_text": "No data", "no_prefix": false, "xrange": null, "print_values_position": "center", "truncate_label": null, "x_labels": ["2549", "2550", "2551", "2552", "2553", "2554", "2555", "2556", "2557", "2558"], "title": null, "force_uri_protocol": "https", "defs": [], "formatter": null, "classes": ["pygal-chart"], "y_labels": null, "rounded_bars": null, "explicit_size": false, "x_labels_major_every": null, "legend_at_bottom_columns": null, "stroke_style": null, "half_pie": false, "spacing": 10, "tooltip_fancy_mode": true, "inverse_y_axis": false, "width": 800, "inner_radius": 0, "interpolation_parameters": {}, "tooltip_border_radius": 0, "style": {"no_data_font_family": "Consolas, \"Liberation Mono\", Menlo, Courier, monospace", "tooltip_font_size": 14, "tooltip_font_family": "Consolas, \"Liberation Mono\", Menlo, Courier, monospace", "stroke_opacity_hover": ".9", "legend_font_family": "Consolas, \"Liberation Mono\", Menlo, Courier, monospace", "font_family": "Consolas, \"Liberation Mono\", Menlo, Courier, monospace", "title_font_family": "Consolas, \"Liberation Mono\", Menlo, Courier, monospace", "background": "rgba(249, 249, 249, 1)", "stroke_opacity": ".8", "foreground": "rgba(0, 0, 0, .87)", "value_background": "rgba(229, 229, 229, 1)", "guide_stroke_dasharray": "4,4", "foreground_subtle": "rgba(0, 0, 0, .54)", "opacity_hover": ".8", "value_font_family": "Consolas, \"Liberation Mono\", Menlo, Courier, monospace", "value_label_font_size": 10, "plot_background": "rgba(255, 255, 255, 1)", "ci_colors": [], "label_font_size": 10, "major_label_font_size": 10, "title_font_size": 16, "no_data_font_size": 64, "value_font_size": 16, "value_colors": [], "label_font_family": "Consolas, \"Liberation Mono\", Menlo, Courier, monospace", "major_guide_stroke_dasharray": "6,6", "transition": "150ms", "foreground_strong": "rgba(0, 0, 0, 1)", "colors": ["#e86fa0", "#e88f6f", "#e8df6f", "#a0e86f", "#6fe88f", "#6fe8df", "#6fa0e8", "#8f6fe8", "#df6fe8", "#e86fa0"], "opacity": ".7", "legend_font_size": 14, "value_label_font_family": "Consolas, \"Liberation Mono\", Menlo, Courier, monospace", "major_label_font_family": "Consolas, \"Liberation Mono\", Menlo, Courier, monospace"}, "x_labels_major_count": null, "interpolation_precision": 250, "missing_value_fill_truncation": "x", "stack_from_top": false, "truncate_legend": null, "show_minor_x_labels": true, "print_zeroes": true, "css": ["file://style.css", "file://graph.css"], "y_label_rotation": 0, "legend_at_bottom": false, "print_values": false, "margin_top": null, "max_scale": 16, "allow_interruptions": false, "show_x_labels": true, "strict": false, "show_x_guides": false, "stroke": true, "margin_left": null, "dynamic_print_values": false, "print_labels": false, "show_y_labels": true, "x_labels_major": null, "range": null, "x_label_rotation": 0, "margin": 20, "zero": 0, "include_x_axis": false, "height": 600, "show_minor_y_labels": true, "show_dots": true, "interpolate": "cubic", "show_y_guides": true, "y_labels_major": null, "box_mode": "extremes", "margin_bottom": null, "order_min": null, "legend_box_size": 12, "fill": true, "show_only_major_dots": false, "js": ["//kozea.github.io/pygal.js/2.0.x/pygal-tooltips.min.js"], "x_title": null, "y_labels_major_every": null, "y_labels_major_count": null, "disable_xml_declaration": false, "y_title": null, "logarithmic": false, "pretty_print": false, "min_scale": 4, "dots_size": 2.5, "margin_right": null, "legends": [null], "secondary_range": null, "show_legend": false}</script><script type="text/javascript" xlink:href="https://kozea.github.io/pygal.js/2.0.x/pygal-tooltips.min.js" /></defs><title>Pygal</title><g class="graph stackedline-graph vertical"><rect class="background" height="600" width="800" x="0" y="0" /><g class="plot" transform="translate(54, 20)"><rect class="background" height="540" width="726.0" x="0" y="0" /><g class="axis y"><path class="line" d="M0.000000 540.000000 h726.000000" /><g class="guides"><path class="major guide line" d="M0.000000 522.875368 h726.000000" /><text class="major" x="-5" y="526.3753683650439">300M</text><title>300M</title></g><g class="guides"><path class="guide line" d="M0.000000 479.506586 h726.000000" /><text class="" x="-5" y="483.0065856392857">320M</text><title>320M</title></g><g class="guides"><path class="guide line" d="M0.000000 436.137803 h726.000000" /><text class="" x="-5" y="439.6378029135275">340M</text><title>340M</title></g><g class="guides"><path class="guide line" d="M0.000000 392.769020 h726.000000" /><text class="" x="-5" y="396.26902018776934">360M</text><title>360M</title></g><g class="guides"><path class="guide line" d="M0.000000 349.400237 h726.000000" /><text class="" x="-5" y="352.90023746201115">380M</text><title>380M</title></g><g class="guides"><path class="major guide line" d="M0.000000 306.031455 h726.000000" /><text class="major" x="-5" y="309.53145473625295">400M</text><title>400M</title></g><g class="guides"><path class="guide line" d="M0.000000 262.662672 h726.000000" /><text class="" x="-5" y="266.1626720104948">420M</text><title>420M</title></g><g class="guides"><path class="guide line" d="M0.000000 219.293889 h726.000000" /><text class="" x="-5" y="222.79388928473662">440M</text><title>440M</title></g><g class="guides"><path class="guide line" d="M0.000000 175.925107 h726.000000" /><text class="" x="-5" y="179.42510655897848">460M</text><title>460M</title></g><g class="guides"><path class="guide line" d="M0.000000 132.556324 h726.000000" /><text class="" x="-5" y="136.0563238332203">480M</text><title>480M</title></g><g class="guides"><path class="major guide line" d="M0.000000 89.187541 h726.000000" /><text class="major" x="-5" y="92.68754110746215">500M</text><title>500M</title></g><g class="guides"><path class="guide line" d="M0.000000 45.818758 h726.000000" /><text class="" x="-5" y="49.31875838170396">520M</text><title>520M</title></g></g><g class="axis x"><g class="guides"><path class="line" d="M13.961538 0.000000 v540.000000" /><text class="" x="13.96153846153846" y="555.0">2549</text></g><g class="guides"><path class="guide line" d="M91.525641 0.000000 v540.000000" /><text class="" x="91.52564102564101" y="555.0">2550</text></g><g class="guides"><path class="guide line" d="M169.089744 0.000000 v540.000000" /><text class="" x="169.08974358974356" y="555.0">2551</text></g><g class="guides"><path class="guide line" d="M246.653846 0.000000 v540.000000" /><text class="" x="246.65384615384613" y="555.0">2552</text></g><g class="guides"><path class="guide line" d="M324.217949 0.000000 v540.000000" /><text class="" x="324.21794871794873" y="555.0">2553</text></g><g class="guides"><path class="guide line" d="M401.782051 0.000000 v540.000000" /><text class="" x="401.78205128205127" y="555.0">2554</text></g><g class="guides"><path class="guide line" d="M479.346154 0.000000 v540.000000" /><text class="" x="479.3461538461538" y="555.0">2555</text></g><g class="guides"><path class="guide line" d="M556.910256 0.000000 v540.000000" /><text class="" x="556.9102564102565" y="555.0">2556</text></g><g class="guides"><path class="guide line" d="M634.474359 0.000000 v540.000000" /><text class="" x="634.474358974359" y="555.0">2557</text></g><g class="guides"><path class="guide line" d="M712.038462 0.000000 v540.000000" /><text class="" x="712.0384615384615" y="555.0">2558</text></g></g><g class="series serie-0 color-0"><path class="line reactive" d="M13.961538 540.000000 L13.961538 529.615385 14.271795 529.426999 14.582051 529.238613 14.892308 529.050228 15.202564 528.861845 15.512821 528.673464 15.823077 528.485085 16.133333 528.296708 16.443590 528.108335 16.753846 527.919965 17.064103 527.731600 17.374359 527.543239 17.684615 527.354884 17.994872 527.166533 18.305128 526.978189 18.615385 526.789851 18.925641 526.601520 19.235897 526.413197 19.546154 526.224881 19.856410 526.036573 20.166667 525.848275 20.476923 525.659985 20.787179 525.471705 21.097436 525.283435 21.407692 525.095176 21.717949 524.906927 22.028205 524.718690 22.338462 524.530465 22.648718 524.342253 22.958974 524.154053 23.269231 523.965867 23.579487 523.777694 23.889744 523.589536 24.200000 523.401392 24.510256 523.213264 24.820513 523.025151 25.130769 522.837054 25.441026 522.648973 25.751282 522.460910 26.061538 522.272864 26.371795 522.084836 26.682051 521.896826 26.992308 521.708835 27.302564 521.520864 27.612821 521.332912 27.923077 521.144980 28.233333 520.957069 28.543590 520.769179 28.853846 520.581311 29.164103 520.393464 29.474359 520.205641 29.784615 520.017840 30.094872 519.830062 30.405128 519.642308 30.715385 519.454579 31.025641 519.266875 31.335897 519.079195 31.646154 518.891542 31.956410 518.703914 32.266667 518.516314 32.576923 518.328740 32.887179 518.141194 33.197436 517.953675 33.507692 517.766186 33.817949 517.578725 34.128205 517.391293 34.438462 517.203892 34.748718 517.016520 35.058974 516.829180 35.369231 516.641870 35.679487 516.454593 35.989744 516.267347 36.300000 516.080134 36.610256 515.892954 36.920513 515.705807 37.230769 515.518695 37.541026 515.331617 37.851282 515.144574 38.161538 514.957566 38.471795 514.770594 38.782051 514.583658 39.092308 514.396759 39.402564 514.209897 39.712821 514.023072 40.023077 513.836286 40.333333 513.649538 40.643590 513.462830 40.953846 513.276161 41.264103 513.089531 41.574359 512.902942 41.884615 512.716394 42.194872 512.529888 42.505128 512.343423 42.815385 512.157000 43.125641 511.970620 43.435897 511.784283 43.746154 511.597989 44.056410 511.411740 44.366667 511.225535 44.676923 511.039376 44.987179 510.853261 45.297436 510.667193 45.607692 510.481171 45.917949 510.295195 46.228205 510.109267 46.538462 509.923387 46.848718 509.737555 47.158974 509.551771 47.469231 509.366037 47.779487 509.180352 48.089744 508.994717 48.400000 508.809133 48.710256 508.623599 49.020513 508.438117 49.330769 508.252687 49.641026 508.067309 49.951282 507.881984 50.261538 507.696713 50.571795 507.511494 50.882051 507.326331 51.192308 507.141221 51.502564 506.956167 51.812821 506.771168 52.123077 506.586225 52.433333 506.401339 52.743590 506.216510 53.053846 506.031738 53.364103 505.847023 53.674359 505.662367 53.984615 505.477770 54.294872 505.293232 54.605128 505.108754 54.915385 504.924336 55.225641 504.739978 55.535897 504.555681 55.846154 504.371446 56.156410 504.187273 56.466667 504.003162 56.776923 503.819115 57.087179 503.635130 57.397436 503.451209 57.707692 503.267353 58.017949 503.083561 58.328205 502.899834 58.638462 502.716173 58.948718 502.532578 59.258974 502.349050 59.569231 502.165589 59.879487 501.982195 60.189744 501.798869 60.500000 501.615611 60.810256 501.432422 61.120513 501.249303 61.430769 501.066253 61.741026 500.883274 62.051282 500.700365 62.361538 500.517527 62.671795 500.334761 62.982051 500.152067 63.292308 499.969445 63.602564 499.786897 63.912821 499.604422 64.223077 499.422020 64.533333 499.239693 64.843590 499.057441 65.153846 498.875264 65.464103 498.693163 65.774359 498.511138 66.084615 498.329190 66.394872 498.147319 66.705128 497.965525 67.015385 497.783809 67.325641 497.602172 67.635897 497.420614 67.946154 497.239135 68.256410 497.057736 68.566667 496.876417 68.876923 496.695180 69.187179 496.514023 69.497436 496.332948 69.807692 496.151955 70.117949 495.971045 70.428205 495.790218 70.738462 495.609474 71.048718 495.428814 71.358974 495.248239 71.669231 495.067749 71.979487 494.887344 72.289744 494.707024 72.600000 494.526792 72.910256 494.346645 73.220513 494.166586 73.530769 493.986615 73.841026 493.806732 74.151282 493.626937 74.461538 493.447232 74.771795 493.267616 75.082051 493.088089 75.392308 492.908654 75.702564 492.729309 76.012821 492.550055 76.323077 492.370893 76.633333 492.191824 76.943590 492.012847 77.253846 491.833963 77.564103 491.655173 77.874359 491.476477 78.184615 491.297876 78.494872 491.119370 78.805128 490.940959 79.115385 490.762643 79.425641 490.584425 79.735897 490.406303 80.046154 490.228278 80.356410 490.050352 80.666667 489.872523 80.976923 489.694793 81.287179 489.517162 81.597436 489.339631 81.907692 489.162200 82.217949 488.984869 82.528205 488.807639 82.838462 488.630511 83.148718 488.453484 83.458974 488.276560 83.769231 488.099739 84.079487 487.923021 84.389744 487.746407 84.700000 487.569897 85.010256 487.393491 85.320513 487.217191 85.630769 487.040996 85.941026 486.864907 86.251282 486.688925 86.561538 486.513049 86.871795 486.337281 87.182051 486.161621 87.492308 485.986069 87.802564 485.810626 88.112821 485.635292 88.423077 485.460067 88.733333 485.284953 89.043590 485.109950 89.353846 484.935057 89.664103 484.760276 89.974359 484.585607 90.284615 484.411051 90.594872 484.236607 90.905128 484.062277 91.215385 483.888060 91.525641 483.713958 91.835897 483.539971 92.146154 483.366100 92.456410 483.192346 92.766667 483.018711 93.076923 482.845197 93.387179 482.671804 93.697436 482.498535 94.007692 482.325390 94.317949 482.152370 94.628205 481.979479 94.938462 481.806716 95.248718 481.634083 95.558974 481.461581 95.869231 481.289213 96.179487 481.116978 96.489744 480.944880 96.800000 480.772918 97.110256 480.601096 97.420513 480.429413 97.730769 480.257871 98.041026 480.086472 98.351282 479.915217 98.661538 479.744108 98.971795 479.573145 99.282051 479.402331 99.592308 479.231667 99.902564 479.061153 100.212821 478.890793 100.523077 478.720586 100.833333 478.550534 101.143590 478.380639 101.453846 478.210902 101.764103 478.041325 102.074359 477.871908 102.384615 477.702654 102.694872 477.533564 103.005128 477.364638 103.315385 477.195879 103.625641 477.027288 103.935897 476.858867 104.246154 476.690616 104.556410 476.522537 104.866667 476.354631 105.176923 476.186901 105.487179 476.019346 105.797436 475.851970 106.107692 475.684772 106.417949 475.517755 106.728205 475.350920 107.038462 475.184268 107.348718 475.017801 107.658974 474.851520 107.969231 474.685426 108.279487 474.519521 108.589744 474.353807 108.900000 474.188284 109.210256 474.022954 109.520513 473.857819 109.830769 473.692879 110.141026 473.528137 110.451282 473.363594 110.761538 473.199250 111.071795 473.035108 111.382051 472.871169 111.692308 472.707434 112.002564 472.543905 112.312821 472.380583 112.623077 472.217469 112.933333 472.054565 113.243590 471.891873 113.553846 471.729393 113.864103 471.567127 114.174359 471.405076 114.484615 471.243243 114.794872 471.081627 115.105128 470.920232 115.415385 470.759057 115.725641 470.598105 116.035897 470.437377 116.346154 470.276874 116.656410 470.116597 116.966667 469.956549 117.276923 469.796730 117.587179 469.637142 117.897436 469.477786 118.207692 469.318663 118.517949 469.159776 118.828205 469.001125 119.138462 468.842712 119.448718 468.684539 119.758974 468.526606 120.069231 468.368915 120.379487 468.211467 120.689744 468.054264 121.000000 467.897308 121.310256 467.740599 121.620513 467.584139 121.930769 467.427929 122.241026 467.271972 122.551282 467.116267 122.861538 466.960817 123.171795 466.805624 123.482051 466.650687 123.792308 466.496010 124.102564 466.341592 124.412821 466.187437 124.723077 466.033544 125.033333 465.879916 125.343590 465.726553 125.653846 465.573458 125.964103 465.420631 126.274359 465.268075 126.584615 465.115789 126.894872 464.963777 127.205128 464.812039 127.515385 464.660576 127.825641 464.509391 128.135897 464.358483 128.446154 464.207856 128.756410 464.057510 129.066667 463.907446 129.376923 463.757667 129.687179 463.608172 129.997436 463.458965 130.307692 463.310046 130.617949 463.161416 130.928205 463.013078 131.238462 462.865031 131.548718 462.717279 131.858974 462.569822 132.169231 462.422661 132.479487 462.275798 132.789744 462.129235 133.100000 461.982973 133.410256 461.837012 133.720513 461.691356 134.030769 461.546004 134.341026 461.400958 134.651282 461.256221 134.961538 461.111792 135.271795 460.967675 135.582051 460.823869 135.892308 460.680376 136.202564 460.537199 136.512821 460.394337 136.823077 460.251793 137.133333 460.109568 137.443590 459.967664 137.753846 459.826081 138.064103 459.684821 138.374359 459.543886 138.684615 459.403277 138.994872 459.262995 139.305128 459.123042 139.615385 458.983419 139.925641 458.844128 140.235897 458.705170 140.546154 458.566546 140.856410 458.428258 141.166667 458.290307 141.476923 458.152694 141.787179 458.015422 142.097436 457.878491 142.407692 457.741902 142.717949 457.605658 143.028205 457.469759 143.338462 457.334207 143.648718 457.199004 143.958974 457.064150 144.269231 456.929648 144.579487 456.795498 144.889744 456.661702 145.200000 456.528261 145.510256 456.395177 145.820513 456.262452 146.130769 456.130085 146.441026 455.998080 146.751282 455.866437 147.061538 455.735158 147.371795 455.604244 147.682051 455.473696 147.992308 455.343517 148.302564 455.213706 148.612821 455.084267 148.923077 454.955199 149.233333 454.826506 149.543590 454.698187 149.853846 454.570244 150.164103 454.442679 150.474359 454.315493 150.784615 454.188688 151.094872 454.062265 151.405128 453.936225 151.715385 453.810570 152.025641 453.685300 152.335897 453.560419 152.646154 453.435926 152.956410 453.311824 153.266667 453.188113 153.576923 453.064795 153.887179 452.941872 154.197436 452.819345 154.507692 452.697215 154.817949 452.575484 155.128205 452.454153 155.438462 452.333224 155.748718 452.212697 156.058974 452.092575 156.369231 451.972858 156.679487 451.853549 156.989744 451.734648 157.300000 451.616157 157.610256 451.498077 157.920513 451.380410 158.230769 451.263157 158.541026 451.146320 158.851282 451.029899 159.161538 450.913897 159.471795 450.798314 159.782051 450.683153 160.092308 450.568414 160.402564 450.454099 160.712821 450.340209 161.023077 450.226746 161.333333 450.113711 161.643590 450.001105 161.953846 449.888930 162.264103 449.777188 162.574359 449.665879 162.884615 449.555006 163.194872 449.444569 163.505128 449.334569 163.815385 449.225009 164.125641 449.115890 164.435897 449.007213 164.746154 448.898979 165.056410 448.791190 165.366667 448.683848 165.676923 448.576953 165.987179 448.470507 166.297436 448.364512 166.607692 448.258968 166.917949 448.153878 167.228205 448.049243 167.538462 447.945063 167.848718 447.841341 168.158974 447.738078 168.469231 447.635275 168.779487 447.532934 169.089744 447.431056 169.400000 447.329640 169.710256 447.228676 170.020513 447.128153 170.330769 447.028059 170.641026 446.928380 170.951282 446.829107 171.261538 446.730225 171.571795 446.631725 171.882051 446.533592 172.192308 446.435816 172.502564 446.338385 172.812821 446.241285 173.123077 446.144506 173.433333 446.048036 173.743590 445.951862 174.053846 445.855972 174.364103 445.760355 174.674359 445.664998 174.984615 445.569890 175.294872 445.475017 175.605128 445.380370 175.915385 445.285934 176.225641 445.191699 176.535897 445.097652 176.846154 445.003782 177.156410 444.910076 177.466667 444.816522 177.776923 444.723108 178.087179 444.629823 178.397436 444.536654 178.707692 444.443590 179.017949 444.350618 179.328205 444.257726 179.638462 444.164902 179.948718 444.072134 180.258974 443.979411 180.569231 443.886721 180.879487 443.794050 181.189744 443.701388 181.500000 443.608722 181.810256 443.516040 182.120513 443.423330 182.430769 443.330581 182.741026 443.237780 183.051282 443.144915 183.361538 443.051974 183.671795 442.958946 183.982051 442.865818 184.292308 442.772578 184.602564 442.679214 184.912821 442.585714 185.223077 442.492067 185.533333 442.398260 185.843590 442.304281 186.153846 442.210118 186.464103 442.115759 186.774359 442.021192 187.084615 441.926406 187.394872 441.831388 187.705128 441.736126 188.015385 441.640608 188.325641 441.544822 188.635897 441.448757 188.946154 441.352399 189.256410 441.255738 189.566667 441.158760 189.876923 441.061455 190.187179 440.963810 190.497436 440.865813 190.807692 440.767452 191.117949 440.668716 191.428205 440.569591 191.738462 440.470066 192.048718 440.370130 192.358974 440.269770 192.669231 440.168973 192.979487 440.067729 193.289744 439.966025 193.600000 439.863848 193.910256 439.761188 194.220513 439.658032 194.530769 439.554368 194.841026 439.450184 195.151282 439.345468 195.461538 439.240208 195.771795 439.134392 196.082051 439.028008 196.392308 438.921044 196.702564 438.813488 197.012821 438.705328 197.323077 438.596552 197.633333 438.487148 197.943590 438.377104 198.253846 438.266408 198.564103 438.155048 198.874359 438.043012 199.184615 437.930288 199.494872 437.816864 199.805128 437.702727 200.115385 437.587867 200.425641 437.472271 200.735897 437.355926 201.046154 437.238822 201.356410 437.120945 201.666667 437.002284 201.976923 436.882828 202.287179 436.762563 202.597436 436.641478 202.907692 436.519561 203.217949 436.396799 203.528205 436.273182 203.838462 436.148697 204.148718 436.023331 204.458974 435.897073 204.769231 435.769911 205.079487 435.641833 205.389744 435.512827 205.700000 435.382881 206.010256 435.251983 206.320513 435.120120 206.630769 434.987281 206.941026 434.853454 207.251282 434.718627 207.561538 434.582788 207.871795 434.445924 208.182051 434.308024 208.492308 434.169077 208.802564 434.029068 209.112821 433.887988 209.423077 433.745824 209.733333 433.602563 210.043590 433.458194 210.353846 433.312705 210.664103 433.166083 210.974359 433.018317 211.284615 432.869395 211.594872 432.719305 211.905128 432.568035 212.215385 432.415572 212.525641 432.261905 212.835897 432.107022 213.146154 431.950910 213.456410 431.793558 213.766667 431.634954 214.076923 431.475086 214.387179 431.313941 214.697436 431.151508 215.007692 430.987775 215.317949 430.822729 215.628205 430.656359 215.938462 430.488653 216.248718 430.319598 216.558974 430.149183 216.869231 429.977396 217.179487 429.804224 217.489744 429.629656 217.800000 429.453679 218.110256 429.276283 218.420513 429.097454 218.730769 428.917180 219.041026 428.735450 219.351282 428.552252 219.661538 428.367573 219.971795 428.181402 220.282051 427.993727 220.592308 427.804535 220.902564 427.613815 221.212821 427.421554 221.523077 427.227741 221.833333 427.032363 222.143590 426.835409 222.453846 426.636867 222.764103 426.436724 223.074359 426.234969 223.384615 426.031589 223.694872 425.826573 224.005128 425.619908 224.315385 425.411583 224.625641 425.201585 224.935897 424.989903 225.246154 424.776525 225.556410 424.561438 225.866667 424.344630 226.176923 424.126090 226.487179 423.905806 226.797436 423.683764 227.107692 423.459955 227.417949 423.234365 227.728205 423.006982 228.038462 422.777795 228.348718 422.546791 228.658974 422.313959 228.969231 422.079286 229.279487 421.842761 229.589744 421.604371 229.900000 421.364104 230.210256 421.121949 230.520513 420.877894 230.830769 420.631926 231.141026 420.384033 231.451282 420.134203 231.761538 419.882425 232.071795 419.628687 232.382051 419.372976 232.692308 419.115280 233.002564 418.855588 233.312821 418.593887 233.623077 418.330165 233.933333 418.064411 234.243590 417.796612 234.553846 417.526756 234.864103 417.254832 235.174359 416.980827 235.484615 416.704730 235.794872 416.426527 236.105128 416.146208 236.415385 415.863761 236.725641 415.579173 237.035897 415.292432 237.346154 415.003526 237.656410 414.712444 237.966667 414.419173 238.276923 414.123701 238.587179 413.826017 238.897436 413.526108 239.207692 413.223962 239.517949 412.919568 239.828205 412.612912 240.138462 412.303984 240.448718 411.992771 240.758974 411.679262 241.069231 411.363444 241.379487 411.045305 241.689744 410.724833 242.000000 410.402016 242.310256 410.076843 242.620513 409.749301 242.930769 409.419378 243.241026 409.087062 243.551282 408.752342 243.861538 408.415205 244.171795 408.075638 244.482051 407.733632 244.792308 407.389172 245.102564 407.042247 245.412821 406.692846 245.723077 406.340956 246.033333 405.986565 246.343590 405.629661 246.653846 405.270232 246.964103 404.908273 247.274359 404.543801 247.584615 404.176841 247.894872 403.807418 248.205128 403.435555 248.515385 403.061278 248.825641 402.684611 249.135897 402.305578 249.446154 401.924204 249.756410 401.540513 250.066667 401.154529 250.376923 400.766278 250.687179 400.375783 250.997436 399.983069 251.307692 399.588161 251.617949 399.191082 251.928205 398.791857 252.238462 398.390512 252.548718 397.987069 252.858974 397.581554 253.169231 397.173992 253.479487 396.764405 253.789744 396.352820 254.100000 395.939260 254.410256 395.523750 254.720513 395.106315 255.030769 394.686978 255.341026 394.265764 255.651282 393.842698 255.961538 393.417804 256.271795 392.991106 256.582051 392.562630 256.892308 392.132399 257.202564 391.700438 257.512821 391.266771 257.823077 390.831423 258.133333 390.394418 258.443590 389.955781 258.753846 389.515536 259.064103 389.073707 259.374359 388.630320 259.684615 388.185398 259.994872 387.738965 260.305128 387.291048 260.615385 386.841669 260.925641 386.390853 261.235897 385.938625 261.546154 385.485009 261.856410 385.030029 262.166667 384.573711 262.476923 384.116078 262.787179 383.657155 263.097436 383.196967 263.407692 382.735537 263.717949 382.272890 264.028205 381.809051 264.338462 381.344045 264.648718 380.877895 264.958974 380.410626 265.269231 379.942262 265.579487 379.472828 265.889744 379.002349 266.200000 378.530849 266.510256 378.058351 266.820513 377.584882 267.130769 377.110465 267.441026 376.635124 267.751282 376.158884 268.061538 375.681770 268.371795 375.203806 268.682051 374.725017 268.992308 374.245426 269.302564 373.765058 269.612821 373.283938 269.923077 372.802090 270.233333 372.319539 270.543590 371.836309 270.853846 371.352425 271.164103 370.867910 271.474359 370.382790 271.784615 369.897089 272.094872 369.410831 272.405128 368.924041 272.715385 368.436743 273.025641 367.948962 273.335897 367.460722 273.646154 366.972047 273.956410 366.482962 274.266667 365.993492 274.576923 365.503661 274.887179 365.013493 275.197436 364.523013 275.507692 364.032245 275.817949 363.541213 276.128205 363.049943 276.438462 362.558458 276.748718 362.066784 277.058974 361.574943 277.369231 361.082962 277.679487 360.590864 277.989744 360.098674 278.300000 359.606416 278.610256 359.114115 278.920513 358.621794 279.230769 358.129480 279.541026 357.637195 279.851282 357.144965 280.161538 356.652814 280.471795 356.160766 280.782051 355.668846 281.092308 355.177079 281.402564 354.685488 281.712821 354.194098 282.023077 353.702933 282.333333 353.212019 282.643590 352.721379 282.953846 352.231039 283.264103 351.741021 283.574359 351.251352 283.884615 350.762054 284.194872 350.273154 284.505128 349.784674 284.815385 349.296640 285.125641 348.809077 285.435897 348.322007 285.746154 347.835457 286.056410 347.349450 286.366667 346.864011 286.676923 346.379164 286.987179 345.894934 287.297436 345.411345 287.607692 344.928422 287.917949 344.446189 288.228205 343.964671 288.538462 343.483891 288.848718 343.003875 289.158974 342.524646 289.469231 342.046230 289.779487 341.568651 290.089744 341.091933 290.400000 340.616100 290.710256 340.141178 291.020513 339.667190 291.330769 339.194161 291.641026 338.722116 291.951282 338.251079 292.261538 337.781073 292.571795 337.312125 292.882051 336.844258 293.192308 336.377496 293.502564 335.911865 293.812821 335.447388 294.123077 334.984090 294.433333 334.521996 294.743590 334.061129 295.053846 333.601515 295.364103 333.143178 295.674359 332.686142 295.984615 332.230431 296.294872 331.776071 296.605128 331.323085 296.915385 330.871499 297.225641 330.421336 297.535897 329.972620 297.846154 329.525377 298.156410 329.079631 298.466667 328.635406 298.776923 328.192727 299.087179 327.751618 299.397436 327.312104 299.707692 326.874208 300.017949 326.437957 300.328205 326.003373 300.638462 325.570481 300.948718 325.139306 301.258974 324.709873 301.569231 324.282205 301.879487 323.856328 302.189744 323.432265 302.500000 323.010041 302.810256 322.589680 303.120513 322.171208 303.430769 321.754648 303.741026 321.340025 304.051282 320.927363 304.361538 320.516687 304.671795 320.108021 304.982051 319.701389 305.292308 319.296817 305.602564 318.894328 305.912821 318.493948 306.223077 318.095699 306.533333 317.699608 306.843590 317.305698 307.153846 316.913993 307.464103 316.524519 307.774359 316.137299 308.084615 315.752359 308.394872 315.369722 308.705128 314.989413 309.015385 314.611457 309.325641 314.235877 309.635897 313.862699 309.946154 313.491946 310.256410 313.123644 310.566667 312.757816 310.876923 312.394488 311.187179 312.033683 311.497436 311.675426 311.807692 311.319741 312.117949 310.966654 312.428205 310.616188 312.738462 310.268367 313.048718 309.923217 313.358974 309.580761 313.669231 309.241025 313.979487 308.904032 314.289744 308.569807 314.600000 308.238375 314.910256 307.909760 315.220513 307.583986 315.530769 307.261078 315.841026 306.941060 316.151282 306.623956 316.461538 306.309792 316.771795 305.998592 317.082051 305.690379 317.392308 305.385179 317.702564 305.083016 318.012821 304.783915 318.323077 304.487899 318.633333 304.194993 318.943590 303.905222 319.253846 303.618611 319.564103 303.335183 319.874359 303.054963 320.184615 302.777975 320.494872 302.504245 320.805128 302.233796 321.115385 301.966652 321.425641 301.702839 321.735897 301.442381 322.046154 301.185302 322.356410 300.931627 322.666667 300.681379 322.976923 300.434584 323.287179 300.191267 323.597436 299.951450 323.907692 299.715160 324.217949 299.482419 324.528205 299.253245 324.838462 299.027620 325.148718 298.805516 325.458974 298.586908 325.769231 298.371768 326.079487 298.160071 326.389744 297.951791 326.700000 297.746899 327.010256 297.545372 327.320513 297.347180 327.630769 297.152299 327.941026 296.960702 328.251282 296.772363 328.561538 296.587254 328.871795 296.405350 329.182051 296.226624 329.492308 296.051050 329.802564 295.878600 330.112821 295.709250 330.423077 295.542972 330.733333 295.379740 331.043590 295.219527 331.353846 295.062307 331.664103 294.908053 331.974359 294.756740 332.284615 294.608340 332.594872 294.462828 332.905128 294.320176 333.215385 294.180358 333.525641 294.043349 333.835897 293.909120 334.146154 293.777647 334.456410 293.648902 334.766667 293.522859 335.076923 293.399492 335.387179 293.278774 335.697436 293.160679 336.007692 293.045180 336.317949 292.932251 336.628205 292.821865 336.938462 292.713997 337.248718 292.608618 337.558974 292.505704 337.869231 292.405228 338.179487 292.307162 338.489744 292.211482 338.800000 292.118159 339.110256 292.027169 339.420513 291.938483 339.730769 291.852077 340.041026 291.767923 340.351282 291.685996 340.661538 291.606268 340.971795 291.528713 341.282051 291.453304 341.592308 291.380016 341.902564 291.308822 342.212821 291.239695 342.523077 291.172610 342.833333 291.107538 343.143590 291.044455 343.453846 290.983333 343.764103 290.924147 344.074359 290.866869 344.384615 290.811473 344.694872 290.757934 345.005128 290.706223 345.315385 290.656316 345.625641 290.608185 345.935897 290.561804 346.246154 290.517146 346.556410 290.474186 346.866667 290.432897 347.176923 290.393252 347.487179 290.355224 347.797436 290.318788 348.107692 290.283917 348.417949 290.250584 348.728205 290.218764 349.038462 290.188428 349.348718 290.159553 349.658974 290.132109 349.969231 290.106072 350.279487 290.081415 350.589744 290.058111 350.900000 290.036134 351.210256 290.015458 351.520513 289.996055 351.830769 289.977901 352.141026 289.960967 352.451282 289.945228 352.761538 289.930657 353.071795 289.917228 353.382051 289.904914 353.692308 289.893690 354.002564 289.883527 354.312821 289.874401 354.623077 289.866284 354.933333 289.859151 355.243590 289.852974 355.553846 289.847727 355.864103 289.843384 356.174359 289.839919 356.484615 289.837304 356.794872 289.835514 357.105128 289.834522 357.415385 289.834301 357.725641 289.834826 358.035897 289.836069 358.346154 289.838004 358.656410 289.840605 358.966667 289.843846 359.276923 289.847699 359.587179 289.852139 359.897436 289.857139 360.207692 289.862673 360.517949 289.868713 360.828205 289.875234 361.138462 289.882210 361.448718 289.889613 361.758974 289.897417 362.069231 289.905597 362.379487 289.914124 362.689744 289.922974 363.000000 289.932120 363.310256 289.941534 363.620513 289.951191 363.930769 289.961065 364.241026 289.971128 364.551282 289.981354 364.861538 289.991717 365.171795 290.002191 365.482051 290.012749 365.792308 290.023364 366.102564 290.034010 366.412821 290.044661 366.723077 290.055291 367.033333 290.065872 367.343590 290.076378 367.653846 290.086783 367.964103 290.097061 368.274359 290.107184 368.584615 290.117127 368.894872 290.126863 369.205128 290.136366 369.515385 290.145609 369.825641 290.154566 370.135897 290.163210 370.446154 290.171515 370.756410 290.179454 371.066667 290.187002 371.376923 290.194131 371.687179 290.200814 371.997436 290.207027 372.307692 290.212742 372.617949 290.217932 372.928205 290.222572 373.238462 290.226635 373.548718 290.230094 373.858974 290.232923 374.169231 290.235095 374.479487 290.236585 374.789744 290.237365 375.100000 290.237410 375.410256 290.236692 375.720513 290.235185 376.030769 290.232864 376.341026 290.229700 376.651282 290.225669 376.961538 290.220743 377.271795 290.214896 377.582051 290.208102 377.892308 290.200334 378.202564 290.191566 378.512821 290.181771 378.823077 290.170923 379.133333 290.158995 379.443590 290.145961 379.753846 290.131795 380.064103 290.116470 380.374359 290.099959 380.684615 290.082237 380.994872 290.063276 381.305128 290.043051 381.615385 290.021534 381.925641 289.998700 382.235897 289.974522 382.546154 289.948973 382.856410 289.922027 383.166667 289.893658 383.476923 289.863839 383.787179 289.832544 384.097436 289.799746 384.407692 289.765419 384.717949 289.729536 385.028205 289.692072 385.338462 289.652998 385.648718 289.612290 385.958974 289.569920 386.269231 289.525863 386.579487 289.480091 386.889744 289.432578 387.200000 289.383299 387.510256 289.332225 387.820513 289.279332 388.130769 289.224592 388.441026 289.167979 388.751282 289.109467 389.061538 289.049029 389.371795 288.986638 389.682051 288.922269 389.992308 288.855895 390.302564 288.787488 390.612821 288.717024 390.923077 288.644476 391.233333 288.569816 391.543590 288.493019 391.853846 288.414058 392.164103 288.332907 392.474359 288.249539 392.784615 288.163928 393.094872 288.076047 393.405128 287.985870 393.715385 287.893371 394.025641 287.798523 394.335897 287.701299 394.646154 287.601673 394.956410 287.499619 395.266667 287.395110 395.576923 287.288121 395.887179 287.178623 396.197436 287.066591 396.507692 286.951999 396.817949 286.834820 397.128205 286.715027 397.438462 286.592595 397.748718 286.467496 398.058974 286.339704 398.369231 286.209194 398.679487 286.075937 398.989744 285.939909 399.300000 285.801081 399.610256 285.659429 399.920513 285.514926 400.230769 285.367544 400.541026 285.217259 400.851282 285.064042 401.161538 284.907869 401.471795 284.748711 401.782051 284.586544 402.092308 284.421347 402.402564 284.253131 402.712821 284.081914 403.023077 283.907713 403.333333 283.730546 403.643590 283.550430 403.953846 283.367383 404.264103 283.181422 404.574359 282.992565 404.884615 282.800830 405.194872 282.606234 405.505128 282.408794 405.815385 282.208529 406.125641 282.005455 406.435897 281.799591 406.746154 281.590954 407.056410 281.379561 407.366667 281.165430 407.676923 280.948579 407.987179 280.729025 408.297436 280.506786 408.607692 280.281879 408.917949 280.054322 409.228205 279.824132 409.538462 279.591328 409.848718 279.355925 410.158974 279.117943 410.469231 278.877399 410.779487 278.634310 411.089744 278.388694 411.400000 278.140568 411.710256 277.889950 412.020513 277.636858 412.330769 277.381309 412.641026 277.123320 412.951282 276.862910 413.261538 276.600095 413.571795 276.334894 413.882051 276.067323 414.192308 275.797401 414.502564 275.525145 414.812821 275.250573 415.123077 274.973702 415.433333 274.694549 415.743590 274.413133 416.053846 274.129471 416.364103 273.843580 416.674359 273.555478 416.984615 273.265182 417.294872 272.972711 417.605128 272.678081 417.915385 272.381311 418.225641 272.082417 418.535897 271.781418 418.846154 271.478331 419.156410 271.173173 419.466667 270.865962 419.776923 270.556716 420.087179 270.245452 420.397436 269.932188 420.707692 269.616941 421.017949 269.299729 421.328205 268.980569 421.638462 268.659480 421.948718 268.336478 422.258974 268.011581 422.569231 267.684807 422.879487 267.356173 423.189744 267.025697 423.500000 266.693396 423.810256 266.359289 424.120513 266.023392 424.430769 265.685723 424.741026 265.346299 425.051282 265.005139 425.361538 264.662260 425.671795 264.317679 425.982051 263.971413 426.292308 263.623482 426.602564 263.273901 426.912821 262.922689 427.223077 262.569863 427.533333 262.215441 427.843590 261.859440 428.153846 261.501878 428.464103 261.142773 428.774359 260.782141 429.084615 260.420002 429.394872 260.056371 429.705128 259.691267 430.015385 259.324707 430.325641 258.956709 430.635897 258.587290 430.946154 258.216468 431.256410 257.844261 431.566667 257.470686 431.876923 257.095760 432.187179 256.719502 432.497436 256.341928 432.807692 255.963057 433.117949 255.582906 433.428205 255.201492 433.738462 254.818833 434.048718 254.434947 434.358974 254.049851 434.669231 253.663562 434.979487 253.276099 435.289744 252.887479 435.600000 252.497719 435.910256 252.106837 436.220513 251.714851 436.530769 251.321778 436.841026 250.927635 437.151282 250.532441 437.461538 250.136212 437.771795 249.738967 438.082051 249.340723 438.392308 248.941497 438.702564 248.541308 439.012821 248.140171 439.323077 247.738107 439.633333 247.335130 439.943590 246.931261 440.253846 246.526515 440.564103 246.120910 440.874359 245.714465 441.184615 245.307196 441.494872 244.899121 441.805128 244.490258 442.115385 244.080624 442.425641 243.670237 442.735897 243.259115 443.046154 242.847274 443.356410 242.434733 443.666667 242.021509 443.976923 241.607620 444.287179 241.193083 444.597436 240.777915 444.907692 240.362135 445.217949 239.945760 445.528205 239.528808 445.838462 239.111295 446.148718 238.693240 446.458974 238.274660 446.769231 237.855573 447.079487 237.435997 447.389744 237.015948 447.700000 236.595444 448.010256 236.174504 448.320513 235.753144 448.630769 235.331382 448.941026 234.909236 449.251282 234.486723 449.561538 234.063861 449.871795 233.640668 450.182051 233.217160 450.492308 232.793356 450.802564 232.369273 451.112821 231.944928 451.423077 231.520340 451.733333 231.095525 452.043590 230.670502 452.353846 230.245288 452.664103 229.819900 452.974359 229.394356 453.284615 228.968674 453.594872 228.542871 453.905128 228.116964 454.215385 227.690972 454.525641 227.264912 454.835897 226.838801 455.146154 226.412657 455.456410 225.986498 455.766667 225.560341 456.076923 225.134203 456.387179 224.708103 456.697436 224.282058 457.007692 223.856084 457.317949 223.430201 457.628205 223.004426 457.938462 222.578775 458.248718 222.153267 458.558974 221.727919 458.869231 221.302749 459.179487 220.877774 459.489744 220.453012 459.800000 220.028481 460.110256 219.604197 460.420513 219.180179 460.730769 218.756445 461.041026 218.333011 461.351282 217.909895 461.661538 217.487115 461.971795 217.064688 462.282051 216.642633 462.592308 216.220966 462.902564 215.799705 463.212821 215.378867 463.523077 214.958471 463.833333 214.538534 464.143590 214.119073 464.453846 213.700106 464.764103 213.281650 465.074359 212.863723 465.384615 212.446344 465.694872 212.029528 466.005128 211.613294 466.315385 211.197659 466.625641 210.782641 466.935897 210.368258 467.246154 209.954526 467.556410 209.541464 467.866667 209.129089 468.176923 208.717419 468.487179 208.306471 468.797436 207.896263 469.107692 207.486812 469.417949 207.078137 469.728205 206.670254 470.038462 206.263180 470.348718 205.856935 470.658974 205.451534 470.969231 205.046997 471.279487 204.643340 471.589744 204.240580 471.900000 203.838736 472.210256 203.437826 472.520513 203.037865 472.830769 202.638873 473.141026 202.240867 473.451282 201.843864 473.761538 201.447881 474.071795 201.052937 474.382051 200.659050 474.692308 200.266235 475.002564 199.874512 475.312821 199.483897 475.623077 199.094409 475.933333 198.706064 476.243590 198.318881 476.553846 197.932877 476.864103 197.548069 477.174359 197.164475 477.484615 196.782113 477.794872 196.401000 478.105128 196.021154 478.415385 195.642592 478.725641 195.265332 479.035897 194.889392 479.346154 194.514788 479.656410 194.141535 479.966667 193.769632 480.276923 193.399071 480.587179 193.029848 480.897436 192.661957 481.207692 192.295393 481.517949 191.930149 481.828205 191.566221 482.138462 191.203601 482.448718 190.842286 482.758974 190.482269 483.069231 190.123545 483.379487 189.766108 483.689744 189.409952 484.000000 189.055072 484.310256 188.701462 484.620513 188.349116 484.930769 187.998029 485.241026 187.648195 485.551282 187.299609 485.861538 186.952265 486.171795 186.606157 486.482051 186.261280 486.792308 185.917628 487.102564 185.575195 487.412821 185.233976 487.723077 184.893965 488.033333 184.555157 488.343590 184.217545 488.653846 183.881125 488.964103 183.545890 489.274359 183.211835 489.584615 182.878955 489.894872 182.547243 490.205128 182.216695 490.515385 181.887303 490.825641 181.559064 491.135897 181.231971 491.446154 180.906018 491.756410 180.581201 492.066667 180.257512 492.376923 179.934947 492.687179 179.613501 492.997436 179.293166 493.307692 178.973939 493.617949 178.655812 493.928205 178.338781 494.238462 178.022840 494.548718 177.707983 494.858974 177.394205 495.169231 177.081499 495.479487 176.769861 495.789744 176.459285 496.100000 176.149765 496.410256 175.841295 496.720513 175.533870 497.030769 175.227484 497.341026 174.922131 497.651282 174.617807 497.961538 174.314505 498.271795 174.012219 498.582051 173.710944 498.892308 173.410675 499.202564 173.111406 499.512821 172.813131 499.823077 172.515844 500.133333 172.219540 500.443590 171.924213 500.753846 171.629858 501.064103 171.336468 501.374359 171.044039 501.684615 170.752565 501.994872 170.462040 502.305128 170.172458 502.615385 169.883814 502.925641 169.596102 503.235897 169.309317 503.546154 169.023452 503.856410 168.738503 504.166667 168.454464 504.476923 168.171328 504.787179 167.889091 505.097436 167.607746 505.407692 167.327289 505.717949 167.047713 506.028205 166.769013 506.338462 166.491183 506.648718 166.214217 506.958974 165.938111 507.269231 165.662858 507.579487 165.388453 507.889744 165.114889 508.200000 164.842162 508.510256 164.570266 508.820513 164.299195 509.130769 164.028943 509.441026 163.759506 509.751282 163.490876 510.061538 163.223049 510.371795 162.956019 510.682051 162.689781 510.992308 162.424328 511.302564 162.159655 511.612821 161.895757 511.923077 161.632628 512.233333 161.370261 512.543590 161.108653 512.853846 160.847796 513.164103 160.587686 513.474359 160.328316 513.784615 160.069681 514.094872 159.811776 514.405128 159.554594 514.715385 159.298130 515.025641 159.042379 515.335897 158.787335 515.646154 158.532992 515.956410 158.279345 516.266667 158.026388 516.576923 157.774115 516.887179 157.522520 517.197436 157.271599 517.507692 157.021345 517.817949 156.771753 518.128205 156.522817 518.438462 156.274532 518.748718 156.026892 519.058974 155.779891 519.369231 155.533523 519.679487 155.287784 519.989744 155.042667 520.300000 154.798166 520.610256 154.554277 520.920513 154.310994 521.230769 154.068310 521.541026 153.826220 521.851282 153.584719 522.161538 153.343801 522.471795 153.103460 522.782051 152.863691 523.092308 152.624488 523.402564 152.385846 523.712821 152.147758 524.023077 151.910219 524.333333 151.673224 524.643590 151.436767 524.953846 151.200842 525.264103 150.965444 525.574359 150.730566 525.884615 150.496204 526.194872 150.262352 526.505128 150.029004 526.815385 149.796155 527.125641 149.563798 527.435897 149.331928 527.746154 149.100540 528.056410 148.869628 528.366667 148.639186 528.676923 148.409209 528.987179 148.179691 529.297436 147.950627 529.607692 147.722010 529.917949 147.493835 530.228205 147.266097 530.538462 147.038790 530.848718 146.811908 531.158974 146.585446 531.469231 146.359397 531.779487 146.133757 532.089744 145.908520 532.400000 145.683680 532.710256 145.459231 533.020513 145.235168 533.330769 145.011485 533.641026 144.788177 533.951282 144.565238 534.261538 144.342662 534.571795 144.120443 534.882051 143.898577 535.192308 143.677057 535.502564 143.455878 535.812821 143.235034 536.123077 143.014520 536.433333 142.794329 536.743590 142.574457 537.053846 142.354897 537.364103 142.135645 537.674359 141.916693 537.984615 141.698038 538.294872 141.479672 538.605128 141.261591 538.915385 141.043789 539.225641 140.826259 539.535897 140.608998 539.846154 140.391998 540.156410 140.175255 540.466667 139.958762 540.776923 139.742514 541.087179 139.526506 541.397436 139.310731 541.707692 139.095185 542.017949 138.879861 542.328205 138.664754 542.638462 138.449858 542.948718 138.235168 543.258974 138.020677 543.569231 137.806382 543.879487 137.592274 544.189744 137.378350 544.500000 137.164603 544.810256 136.951028 545.120513 136.737620 545.430769 136.524371 545.741026 136.311278 546.051282 136.098334 546.361538 135.885533 546.671795 135.672871 546.982051 135.460341 547.292308 135.247938 547.602564 135.035656 547.912821 134.823489 548.223077 134.611432 548.533333 134.399479 548.843590 134.187625 549.153846 133.975864 549.464103 133.764190 549.774359 133.552598 550.084615 133.341082 550.394872 133.129637 550.705128 132.918256 551.015385 132.706934 551.325641 132.495666 551.635897 132.284446 551.946154 132.073268 552.256410 131.862127 552.566667 131.651016 552.876923 131.439931 553.187179 131.228866 553.497436 131.017815 553.807692 130.806772 554.117949 130.595732 554.428205 130.384690 554.738462 130.173639 555.048718 129.962573 555.358974 129.751489 555.669231 129.540378 555.979487 129.329237 556.289744 129.118060 556.600000 128.906840 556.910256 128.695572 557.220513 128.484252 557.530769 128.272877 557.841026 128.061449 558.151282 127.849965 558.461538 127.638427 558.771795 127.426833 559.082051 127.215183 559.392308 127.003476 559.702564 126.791713 560.012821 126.579892 560.323077 126.368014 560.633333 126.156078 560.943590 125.944083 561.253846 125.732029 561.564103 125.519916 561.874359 125.307743 562.184615 125.095510 562.494872 124.883216 562.805128 124.670862 563.115385 124.458446 563.425641 124.245968 563.735897 124.033427 564.046154 123.820824 564.356410 123.608158 564.666667 123.395429 564.976923 123.182635 565.287179 122.969778 565.597436 122.756855 565.907692 122.543867 566.217949 122.330814 566.528205 122.117694 566.838462 121.904508 567.148718 121.691256 567.458974 121.477936 567.769231 121.264548 568.079487 121.051092 568.389744 120.837567 568.700000 120.623974 569.010256 120.410311 569.320513 120.196579 569.630769 119.982776 569.941026 119.768902 570.251282 119.554958 570.561538 119.340942 570.871795 119.126854 571.182051 118.912694 571.492308 118.698461 571.802564 118.484155 572.112821 118.269775 572.423077 118.055322 572.733333 117.840794 573.043590 117.626191 573.353846 117.411513 573.664103 117.196759 573.974359 116.981929 574.284615 116.767023 574.594872 116.552040 574.905128 116.336980 575.215385 116.121841 575.525641 115.906625 575.835897 115.691330 576.146154 115.475956 576.456410 115.260502 576.766667 115.044969 577.076923 114.829356 577.387179 114.613662 577.697436 114.397886 578.007692 114.182030 578.317949 113.966091 578.628205 113.750070 578.938462 113.533966 579.248718 113.317779 579.558974 113.101508 579.869231 112.885154 580.179487 112.668715 580.489744 112.452191 580.800000 112.235582 581.110256 112.018887 581.420513 111.802106 581.730769 111.585238 582.041026 111.368284 582.351282 111.151242 582.661538 110.934112 582.971795 110.716894 583.282051 110.499588 583.592308 110.282192 583.902564 110.064708 584.212821 109.847133 584.523077 109.629468 584.833333 109.411712 585.143590 109.193865 585.453846 108.975926 585.764103 108.757896 586.074359 108.539773 586.384615 108.321557 586.694872 108.103248 587.005128 107.884846 587.315385 107.666349 587.625641 107.447758 587.935897 107.229072 588.246154 107.010291 588.556410 106.791414 588.866667 106.572441 589.176923 106.353371 589.487179 106.134204 589.797436 105.914940 590.107692 105.695578 590.417949 105.476118 590.728205 105.256559 591.038462 105.036901 591.348718 104.817144 591.658974 104.597287 591.969231 104.377329 592.279487 104.157271 592.589744 103.937111 592.900000 103.716850 593.210256 103.496487 593.520513 103.276021 593.830769 103.055453 594.141026 102.834781 594.451282 102.614005 594.761538 102.393126 595.071795 102.172142 595.382051 101.951053 595.692308 101.729859 596.002564 101.508559 596.312821 101.287152 596.623077 101.065640 596.933333 100.844020 597.243590 100.622292 597.553846 100.400457 597.864103 100.178514 598.174359 99.956462 598.484615 99.734300 598.794872 99.512030 599.105128 99.289649 599.415385 99.067158 599.725641 98.844556 600.035897 98.621843 600.346154 98.399018 600.656410 98.176081 600.966667 97.953032 601.276923 97.729870 601.587179 97.506594 601.897436 97.283205 602.207692 97.059702 602.517949 96.836084 602.828205 96.612351 603.138462 96.388503 603.448718 96.164539 603.758974 95.940459 604.069231 95.716262 604.379487 95.491948 604.689744 95.267516 605.000000 95.042967 605.310256 94.818299 605.620513 94.593513 605.930769 94.368607 606.241026 94.143582 606.551282 93.918437 606.861538 93.693171 607.171795 93.467785 607.482051 93.242277 607.792308 93.016648 608.102564 92.790897 608.412821 92.565023 608.723077 92.339026 609.033333 92.112906 609.343590 91.886662 609.653846 91.660294 609.964103 91.433801 610.274359 91.207184 610.584615 90.980441 610.894872 90.753572 611.205128 90.526577 611.515385 90.299455 611.825641 90.072206 612.135897 89.844829 612.446154 89.617325 612.756410 89.389692 613.066667 89.161930 613.376923 88.934040 613.687179 88.706019 613.997436 88.477869 614.307692 88.249588 614.617949 88.021176 614.928205 87.792633 615.238462 87.563959 615.548718 87.335152 615.858974 87.106212 616.169231 86.877140 616.479487 86.647934 616.789744 86.418595 617.100000 86.189121 617.410256 85.959513 617.720513 85.729769 618.030769 85.499890 618.341026 85.269876 618.651282 85.039725 618.961538 84.809437 619.271795 84.579012 619.582051 84.348449 619.892308 84.117749 620.202564 83.886910 620.512821 83.655932 620.823077 83.424815 621.133333 83.193559 621.443590 82.962162 621.753846 82.730625 622.064103 82.498947 622.374359 82.267128 622.684615 82.035167 622.994872 81.803063 623.305128 81.570818 623.615385 81.338429 623.925641 81.105896 624.235897 80.873220 624.546154 80.640400 624.856410 80.407435 625.166667 80.174325 625.476923 79.941069 625.787179 79.707668 626.097436 79.474120 626.407692 79.240425 626.717949 79.006584 627.028205 78.772594 627.338462 78.538457 627.648718 78.304171 627.958974 78.069736 628.269231 77.835152 628.579487 77.600419 628.889744 77.365535 629.200000 77.130500 629.510256 76.895315 629.820513 76.659979 630.130769 76.424490 630.441026 76.188850 630.751282 75.953056 631.061538 75.717110 631.371795 75.481010 631.682051 75.244757 631.992308 75.008349 632.302564 74.771786 632.612821 74.535069 632.923077 74.298195 633.233333 74.061166 633.543590 73.823981 633.853846 73.586638 634.164103 73.349139 634.474359 73.111481 634.784615 72.873666 635.094872 72.635694 635.405128 72.397564 635.715385 72.159279 636.025641 71.920838 636.335897 71.682242 636.646154 71.443492 636.956410 71.204588 637.266667 70.965531 637.576923 70.726322 637.887179 70.486961 638.197436 70.247449 638.507692 70.007787 638.817949 69.767974 639.128205 69.528013 639.438462 69.287903 639.748718 69.047645 640.058974 68.807239 640.369231 68.566687 640.679487 68.325989 640.989744 68.085146 641.300000 67.844158 641.610256 67.603025 641.920513 67.361749 642.230769 67.120331 642.541026 66.878770 642.851282 66.637067 643.161538 66.395223 643.471795 66.153239 643.782051 65.911116 644.092308 65.668853 644.402564 65.426452 644.712821 65.183912 645.023077 64.941236 645.333333 64.698423 645.643590 64.455475 645.953846 64.212391 646.264103 63.969172 646.574359 63.725819 646.884615 63.482333 647.194872 63.238714 647.505128 62.994963 647.815385 62.751080 648.125641 62.507067 648.435897 62.262923 648.746154 62.018650 649.056410 61.774248 649.366667 61.529717 649.676923 61.285059 649.987179 61.040274 650.297436 60.795362 650.607692 60.550324 650.917949 60.305161 651.228205 60.059874 651.538462 59.814463 651.848718 59.568928 652.158974 59.323271 652.469231 59.077492 652.779487 58.831591 653.089744 58.585570 653.400000 58.339429 653.710256 58.093168 654.020513 57.846788 654.330769 57.600290 654.641026 57.353674 654.951282 57.106942 655.261538 56.860093 655.571795 56.613128 655.882051 56.366048 656.192308 56.118854 656.502564 55.871546 656.812821 55.624125 657.123077 55.376592 657.433333 55.128946 657.743590 54.881189 658.053846 54.633322 658.364103 54.385344 658.674359 54.137258 658.984615 53.889062 659.294872 53.640758 659.605128 53.392347 659.915385 53.143829 660.225641 52.895205 660.535897 52.646475 660.846154 52.397640 661.156410 52.148701 661.466667 51.899659 661.776923 51.650513 662.087179 51.401265 662.397436 51.151915 662.707692 50.902464 663.017949 50.652912 663.328205 50.403260 663.638462 50.153510 663.948718 49.903660 664.258974 49.653713 664.569231 49.403668 664.879487 49.153526 665.189744 48.903289 665.500000 48.652956 665.810256 48.402528 666.120513 48.152006 666.430769 47.901390 666.741026 47.650681 667.051282 47.399880 667.361538 47.148988 667.671795 46.898004 667.982051 46.646930 668.292308 46.395766 668.602564 46.144513 668.912821 45.893172 669.223077 45.641742 669.533333 45.390226 669.843590 45.138623 670.153846 44.886933 670.464103 44.635159 670.774359 44.383299 671.084615 44.131356 671.394872 43.879329 671.705128 43.627220 672.015385 43.375028 672.325641 43.122754 672.635897 42.870400 672.946154 42.617966 673.256410 42.365451 673.566667 42.112858 673.876923 41.860186 674.187179 41.607437 674.497436 41.354610 674.807692 41.101707 675.117949 40.848728 675.428205 40.595674 675.738462 40.342545 676.048718 40.089343 676.358974 39.836067 676.669231 39.582718 676.979487 39.329297 677.289744 39.075805 677.600000 38.822242 677.910256 38.568608 678.220513 38.314905 678.530769 38.061134 678.841026 37.807294 679.151282 37.553386 679.461538 37.299411 679.771795 37.045370 680.082051 36.791263 680.392308 36.537092 680.702564 36.282855 681.012821 36.028555 681.323077 35.774191 681.633333 35.519765 681.943590 35.265277 682.253846 35.010728 682.564103 34.756118 682.874359 34.501448 683.184615 34.246718 683.494872 33.991930 683.805128 33.737083 684.115385 33.482179 684.425641 33.227218 684.735897 32.972201 685.046154 32.717128 685.356410 32.462000 685.666667 32.206818 685.976923 31.951582 686.287179 31.696293 686.597436 31.440952 686.907692 31.185558 687.217949 30.930114 687.528205 30.674618 687.838462 30.419073 688.148718 30.163479 688.458974 29.907836 688.769231 29.652145 689.079487 29.396406 689.389744 29.140621 689.700000 28.884789 690.010256 28.628912 690.320513 28.372990 690.630769 28.117024 690.941026 27.861014 691.251282 27.604961 691.561538 27.348866 691.871795 27.092729 692.182051 26.836551 692.492308 26.580333 692.802564 26.324075 693.112821 26.067777 693.423077 25.811441 693.733333 25.555067 694.043590 25.298656 694.353846 25.042208 694.664103 24.785724 694.974359 24.529205 695.284615 24.272651 695.594872 24.016062 695.905128 23.759440 696.215385 23.502786 696.525641 23.246099 696.835897 22.989380 697.146154 22.732631 697.456410 22.475851 697.766667 22.219041 698.076923 21.962203 698.387179 21.705336 698.697436 21.448441 699.007692 21.191519 699.317949 20.934570 699.628205 20.677596 699.938462 20.420596 700.248718 20.163571 700.558974 19.906523 700.869231 19.649451 701.179487 19.392356 701.489744 19.135239 701.800000 18.878101 702.110256 18.620942 702.420513 18.363762 702.730769 18.106563 703.041026 17.849345 703.351282 17.592109 703.661538 17.334855 703.971795 17.077584 704.282051 16.820296 704.592308 16.562993 704.902564 16.305675 705.212821 16.048342 705.523077 15.790995 705.833333 15.533634 706.143590 15.276261 706.453846 15.018877 706.764103 14.761480 707.074359 14.504073 707.384615 14.246656 707.694872 13.989230 708.005128 13.731794 708.315385 13.474350 708.625641 13.216899 708.935897 12.959441 709.246154 12.701976 709.556410 12.444506 709.866667 12.187031 710.176923 11.929551 710.487179 11.672068 710.797436 11.414581 711.107692 11.157092 711.417949 10.899601 711.728205 10.642108 712.038462 10.384615 712.038462 540.000000" /></g></g><g class="titles" /><g class="plot overlay" transform="translate(54, 20)"><g class="series serie-0 color-0"><g class="dots"><circle class="dot reactive tooltip-trigger" cx="13.96153846153846" cy="529.6153846153845" r="2.5" /><desc class="value">296,891,766(kWh)</desc><desc class="x top">13.96153846153846</desc><desc class="y top">529.6153846153845</desc><desc class="x_label">2549</desc></g><g class="dots"><circle class="dot reactive tooltip-trigger" cx="91.52564102564101" cy="483.71395822132496" r="2.5" /><desc class="value">318,059,723(kWh)</desc><desc class="x top">91.52564102564101</desc><desc class="y top">483.71395822132496</desc><desc class="x_label">2550</desc></g><g class="dots"><circle class="dot reactive tooltip-trigger" cx="169.08974358974356" cy="447.4310556197063" r="2.5" /><desc class="value">334,791,990(kWh)</desc><desc class="x top">169.08974358974356</desc><desc class="y top">447.4310556197063</desc><desc class="x_label">2551</desc></g><g class="dots"><circle class="dot reactive tooltip-trigger" cx="246.65384615384613" cy="405.27023227296525" r="2.5" /><desc class="value">354,234,926(kWh)</desc><desc class="x top">246.65384615384613</desc><desc class="y top">405.27023227296525</desc><desc class="x_label">2552</desc></g><g class="dots"><circle class="dot reactive tooltip-trigger" cx="324.21794871794873" cy="299.4824194259626" r="2.5" /><desc class="value">403,020,161(kWh)</desc><desc class="x top">324.21794871794873</desc><desc class="y top">299.4824194259626</desc><desc class="x_label">2553</desc></g><g class="dots"><circle class="dot reactive tooltip-trigger" cx="401.78205128205127" cy="284.58654362314644" r="2.5" /><desc class="value">409,889,561(kWh)</desc><desc class="x left top">401.78205128205127</desc><desc class="y left top">284.58654362314644</desc><desc class="x_label">2554</desc></g><g class="dots"><circle class="dot reactive tooltip-trigger" cx="479.3461538461538" cy="194.51478832411294" r="2.5" /><desc class="value">451,427,160(kWh)</desc><desc class="x left">479.3461538461538</desc><desc class="y left">194.51478832411294</desc><desc class="x_label">2555</desc></g><g class="dots"><circle class="dot reactive tooltip-trigger" cx="556.9102564102565" cy="128.69557191023836" r="2.5" /><desc class="value">481,780,429(kWh)</desc><desc class="x left">556.9102564102565</desc><desc class="y left">128.69557191023836</desc><desc class="x_label">2556</desc></g><g class="dots"><circle class="dot reactive tooltip-trigger" cx="634.474358974359" cy="73.1114814625256" r="2.5" /><desc class="value">507,413,655(kWh)</desc><desc class="x left">634.474358974359</desc><desc class="y left">73.1114814625256</desc><desc class="x_label">2557</desc></g><g class="dots"><circle class="dot reactive tooltip-trigger" cx="712.0384615384615" cy="10.384615384615472" r="2.5" /><desc class="value">536,340,852(kWh)</desc><desc class="x left">712.0384615384615</desc><desc class="y left">10.384615384615472</desc><desc class="x_label">2558</desc></g></g></g><g class="plot text-overlay" transform="translate(54, 20)"><g class="series serie-0 color-0" /></g><g class="plot tooltip-overlay" transform="translate(54, 20)"><g class="tooltip" style="opacity: 0" transform="translate(0 0)"><rect class="tooltip-box" height="0" rx="0" ry="0" width="0" /><g class="text" /></g></g></g></svg>