<?xml version='1.0' encoding='utf-8'?>
<svg xmlns:xlink="http://www.w3.org/1999/xlink" class="pygal-chart" id="chart-c0b10746-c2e2-4ecd-9108-58568d0aca05" viewBox="0 0 800 600" xmlns="http://www.w3.org/2000/svg"><!--Generated with pygal 2.3.0 (etree) ©Kozea 2012-2016 on 2016-12-08--><!--http://pygal.org--><!--http://github.com/Kozea/pygal--><defs><style type="text/css">#chart-c0b10746-c2e2-4ecd-9108-58568d0aca05{-webkit-user-select:none;-webkit-font-smoothing:antialiased;font-family:Consolas,"Liberation Mono",Menlo,Courier,monospace}#chart-c0b10746-c2e2-4ecd-9108-58568d0aca05 .title{font-family:Consolas,"Liberation Mono",Menlo,Courier,monospace;font-size:16px}#chart-c0b10746-c2e2-4ecd-9108-58568d0aca05 .legends .legend text{font-family:Consolas,"Liberation Mono",Menlo,Courier,monospace;font-size:14px}#chart-c0b10746-c2e2-4ecd-9108-58568d0aca05 .axis text{font-family:Consolas,"Liberation Mono",Menlo,Courier,monospace;font-size:10px}#chart-c0b10746-c2e2-4ecd-9108-58568d0aca05 .axis text.major{font-family:Consolas,"Liberation Mono",Menlo,Courier,monospace;font-size:10px}#chart-c0b10746-c2e2-4ecd-9108-58568d0aca05 .text-overlay text.value{font-family:Consolas,"Liberation Mono",Menlo,Courier,monospace;font-size:16px}#chart-c0b10746-c2e2-4ecd-9108-58568d0aca05 .text-overlay text.label{font-family:Consolas,"Liberation Mono",Menlo,Courier,monospace;font-size:10px}#chart-c0b10746-c2e2-4ecd-9108-58568d0aca05 .tooltip{font-family:Consolas,"Liberation Mono",Menlo,Courier,monospace;font-size:14px}#chart-c0b10746-c2e2-4ecd-9108-58568d0aca05 text.no_data{font-family:Consolas,"Liberation Mono",Menlo,Courier,monospace;font-size:64px}
#chart-c0b10746-c2e2-4ecd-9108-58568d0aca05{background-color:rgba(249,249,249,1)}#chart-c0b10746-c2e2-4ecd-9108-58568d0aca05 path,#chart-c0b10746-c2e2-4ecd-9108-58568d0aca05 line,#chart-c0b10746-c2e2-4ecd-9108-58568d0aca05 rect,#chart-c0b10746-c2e2-4ecd-9108-58568d0aca05 circle{-webkit-transition:150ms;-moz-transition:150ms;transition:150ms}#chart-c0b10746-c2e2-4ecd-9108-58568d0aca05 .graph &gt; .background{fill:rgba(249,249,249,1)}#chart-c0b10746-c2e2-4ecd-9108-58568d0aca05 .plot &gt; .background{fill:rgba(255,255,255,1)}#chart-c0b10746-c2e2-4ecd-9108-58568d0aca05 .graph{fill:rgba(0,0,0,.87)}#chart-c0b10746-c2e2-4ecd-9108-58568d0aca05 text.no_data{fill:rgba(0,0,0,1)}#chart-c0b10746-c2e2-4ecd-9108-58568d0aca05 .title{fill:rgba(0,0,0,1)}#chart-c0b10746-c2e2-4ecd-9108-58568d0aca05 .legends .legend text{fill:rgba(0,0,0,.87)}#chart-c0b10746-c2e2-4ecd-9108-58568d0aca05 .legends .legend:hover text{fill:rgba(0,0,0,1)}#chart-c0b10746-c2e2-4ecd-9108-58568d0aca05 .axis .line{stroke:rgba(0,0,0,1)}#chart-c0b10746-c2e2-4ecd-9108-58568d0aca05 .axis .guide.line{stroke:rgba(0,0,0,.54)}#chart-c0b10746-c2e2-4ecd-9108-58568d0aca05 .axis .major.line{stroke:rgba(0,0,0,.87)}#chart-c0b10746-c2e2-4ecd-9108-58568d0aca05 .axis text.major{fill:rgba(0,0,0,1)}#chart-c0b10746-c2e2-4ecd-9108-58568d0aca05 .axis.y .guides:hover .guide.line,#chart-c0b10746-c2e2-4ecd-9108-58568d0aca05 .line-graph .axis.x .guides:hover .guide.line,#chart-c0b10746-c2e2-4ecd-9108-58568d0aca05 .stackedline-graph .axis.x .guides:hover .guide.line,#chart-c0b10746-c2e2-4ecd-9108-58568d0aca05 .xy-graph .axis.x .guides:hover .guide.line{stroke:rgba(0,0,0,1)}#chart-c0b10746-c2e2-4ecd-9108-58568d0aca05 .axis .guides:hover text{fill:rgba(0,0,0,1)}#chart-c0b10746-c2e2-4ecd-9108-58568d0aca05 .reactive{fill-opacity:.7;stroke-opacity:.8}#chart-c0b10746-c2e2-4ecd-9108-58568d0aca05 .ci{stroke:rgba(0,0,0,.87)}#chart-c0b10746-c2e2-4ecd-9108-58568d0aca05 .reactive.active,#chart-c0b10746-c2e2-4ecd-9108-58568d0aca05 .active .reactive{fill-opacity:.8;stroke-opacity:.9;stroke-width:4}#chart-c0b10746-c2e2-4ecd-9108-58568d0aca05 .ci .reactive.active{stroke-width:1.5}#chart-c0b10746-c2e2-4ecd-9108-58568d0aca05 .series text{fill:rgba(0,0,0,1)}#chart-c0b10746-c2e2-4ecd-9108-58568d0aca05 .tooltip rect{fill:rgba(255,255,255,1);stroke:rgba(0,0,0,1);-webkit-transition:opacity 150ms;-moz-transition:opacity 150ms;transition:opacity 150ms}#chart-c0b10746-c2e2-4ecd-9108-58568d0aca05 .tooltip .label{fill:rgba(0,0,0,.87)}#chart-c0b10746-c2e2-4ecd-9108-58568d0aca05 .tooltip .label{fill:rgba(0,0,0,.87)}#chart-c0b10746-c2e2-4ecd-9108-58568d0aca05 .tooltip .legend{font-size:.8em;fill:rgba(0,0,0,.54)}#chart-c0b10746-c2e2-4ecd-9108-58568d0aca05 .tooltip .x_label{font-size:.6em;fill:rgba(0,0,0,1)}#chart-c0b10746-c2e2-4ecd-9108-58568d0aca05 .tooltip .xlink{font-size:.5em;text-decoration:underline}#chart-c0b10746-c2e2-4ecd-9108-58568d0aca05 .tooltip .value{font-size:1.5em}#chart-c0b10746-c2e2-4ecd-9108-58568d0aca05 .bound{font-size:.5em}#chart-c0b10746-c2e2-4ecd-9108-58568d0aca05 .max-value{font-size:.75em;fill:rgba(0,0,0,.54)}#chart-c0b10746-c2e2-4ecd-9108-58568d0aca05 .map-element{fill:rgba(255,255,255,1);stroke:rgba(0,0,0,.54) !important}#chart-c0b10746-c2e2-4ecd-9108-58568d0aca05 .map-element .reactive{fill-opacity:inherit;stroke-opacity:inherit}#chart-c0b10746-c2e2-4ecd-9108-58568d0aca05 .color-0,#chart-c0b10746-c2e2-4ecd-9108-58568d0aca05 .color-0 a:visited{stroke:#e86fa0;fill:#e86fa0}#chart-c0b10746-c2e2-4ecd-9108-58568d0aca05 .text-overlay .color-0 text{fill:black}
#chart-c0b10746-c2e2-4ecd-9108-58568d0aca05 text.no_data{text-anchor:middle}#chart-c0b10746-c2e2-4ecd-9108-58568d0aca05 .guide.line{fill:none}#chart-c0b10746-c2e2-4ecd-9108-58568d0aca05 .centered{text-anchor:middle}#chart-c0b10746-c2e2-4ecd-9108-58568d0aca05 .title{text-anchor:middle}#chart-c0b10746-c2e2-4ecd-9108-58568d0aca05 .legends .legend text{fill-opacity:1}#chart-c0b10746-c2e2-4ecd-9108-58568d0aca05 .axis.x text{text-anchor:middle}#chart-c0b10746-c2e2-4ecd-9108-58568d0aca05 .axis.x:not(.web) text[transform]{text-anchor:start}#chart-c0b10746-c2e2-4ecd-9108-58568d0aca05 .axis.x:not(.web) text[transform].backwards{text-anchor:end}#chart-c0b10746-c2e2-4ecd-9108-58568d0aca05 .axis.y text{text-anchor:end}#chart-c0b10746-c2e2-4ecd-9108-58568d0aca05 .axis.y text[transform].backwards{text-anchor:start}#chart-c0b10746-c2e2-4ecd-9108-58568d0aca05 .axis.y2 text{text-anchor:start}#chart-c0b10746-c2e2-4ecd-9108-58568d0aca05 .axis.y2 text[transform].backwards{text-anchor:end}#chart-c0b10746-c2e2-4ecd-9108-58568d0aca05 .axis .guide.line{stroke-dasharray:4,4}#chart-c0b10746-c2e2-4ecd-9108-58568d0aca05 .axis .major.guide.line{stroke-dasharray:6,6}#chart-c0b10746-c2e2-4ecd-9108-58568d0aca05 .horizontal .axis.y .guide.line,#chart-c0b10746-c2e2-4ecd-9108-58568d0aca05 .horizontal .axis.y2 .guide.line,#chart-c0b10746-c2e2-4ecd-9108-58568d0aca05 .vertical .axis.x .guide.line{opacity:0}#chart-c0b10746-c2e2-4ecd-9108-58568d0aca05 .horizontal .axis.always_show .guide.line,#chart-c0b10746-c2e2-4ecd-9108-58568d0aca05 .vertical .axis.always_show .guide.line{opacity:1 !important}#chart-c0b10746-c2e2-4ecd-9108-58568d0aca05 .axis.y .guides:hover .guide.line,#chart-c0b10746-c2e2-4ecd-9108-58568d0aca05 .axis.y2 .guides:hover .guide.line,#chart-c0b10746-c2e2-4ecd-9108-58568d0aca05 .axis.x .guides:hover .guide.line{opacity:1}#chart-c0b10746-c2e2-4ecd-9108-58568d0aca05 .axis .guides:hover text{opacity:1}#chart-c0b10746-c2e2-4ecd-9108-58568d0aca05 .nofill{fill:none}#chart-c0b10746-c2e2-4ecd-9108-58568d0aca05 .subtle-fill{fill-opacity:.2}#chart-c0b10746-c2e2-4ecd-9108-58568d0aca05 .dot{stroke-width:1px;fill-opacity:1}#chart-c0b10746-c2e2-4ecd-9108-58568d0aca05 .dot.active{stroke-width:5px}#chart-c0b10746-c2e2-4ecd-9108-58568d0aca05 .dot.negative{fill:transparent}#chart-c0b10746-c2e2-4ecd-9108-58568d0aca05 text,#chart-c0b10746-c2e2-4ecd-9108-58568d0aca05 tspan{stroke:none !important}#chart-c0b10746-c2e2-4ecd-9108-58568d0aca05 .series text.active{opacity:1}#chart-c0b10746-c2e2-4ecd-9108-58568d0aca05 .tooltip rect{fill-opacity:.95;stroke-width:.5}#chart-c0b10746-c2e2-4ecd-9108-58568d0aca05 .tooltip text{fill-opacity:1}#chart-c0b10746-c2e2-4ecd-9108-58568d0aca05 .showable{visibility:hidden}#chart-c0b10746-c2e2-4ecd-9108-58568d0aca05 .showable.shown{visibility:visible}#chart-c0b10746-c2e2-4ecd-9108-58568d0aca05 .gauge-background{fill:rgba(229,229,229,1);stroke:none}#chart-c0b10746-c2e2-4ecd-9108-58568d0aca05 .bg-lines{stroke:rgba(249,249,249,1);stroke-width:2px}</style><script type="text/javascript">window.pygal = window.pygal || {};window.pygal.config = window.pygal.config || {};window.pygal.config['c0b10746-c2e2-4ecd-9108-58568d0aca05'] = {"no_data_text": "No data", "no_prefix": false, "xrange": null, "print_values_position": "center", "truncate_label": null, "x_labels": ["2549", "2550", "2551", "2552", "2553", "2554", "2555", "2556", "2557", "2558"], "title": null, "force_uri_protocol": "https", "defs": [], "formatter": null, "classes": ["pygal-chart"], "y_labels": null, "rounded_bars": null, "explicit_size": false, "x_labels_major_every": null, "legend_at_bottom_columns": null, "stroke_style": null, "half_pie": false, "spacing": 10, "tooltip_fancy_mode": true, "inverse_y_axis": false, "width": 800, "inner_radius": 0, "interpolation_parameters": {}, "tooltip_border_radius": 0, "style": {"no_data_font_family": "Consolas, \"Liberation Mono\", Menlo, Courier, monospace", "tooltip_font_size": 14, "tooltip_font_family": "Consolas, \"Liberation Mono\", Menlo, Courier, monospace", "stroke_opacity_hover": ".9", "legend_font_family": "Consolas, \"Liberation Mono\", Menlo, Courier, monospace", "font_family": "Consolas, \"Liberation Mono\", Menlo, Courier, monospace", "title_font_family": "Consolas, \"Liberation Mono\", Menlo, Courier, monospace", "background": "rgba(249, 249, 249, 1)", "stroke_opacity": ".8", "foreground": "rgba(0, 0, 0, .87)", "value_background": "rgba(229, 229, 229, 1)", "guide_stroke_dasharray": "4,4", "foreground_subtle": "rgba(0, 0, 0, .54)", "opacity_hover": ".8", "value_font_family": "Consolas, \"Liberation Mono\", Menlo, Courier, monospace", "value_label_font_size": 10, "plot_background": "rgba(255, 255, 255, 1)", "ci_colors": [], "label_font_size": 10, "major_label_font_size": 10, "title_font_size": 16, "no_data_font_size": 64, "value_font_size": 16, "value_colors": [], "label_font_family": "Consolas, \"Liberation Mono\", Menlo, Courier, monospace", "major_guide_stroke_dasharray": "6,6", "transition": "150ms", "foreground_strong": "rgba(0, 0, 0, 1)", "colors": ["#e86fa0", "#e88f6f", "#e8df6f", "#a0e86f", "#6fe88f", "#6fe8df", "#6fa0e8", "#8f6fe8", "#df6fe8", "#e86fa0"], "opacity": ".7", "legend_font_size": 14, "value_label_font_family": "Consolas, \"Liberation Mono\", Menlo, Courier, monospace", "major_label_font_family": "Consolas, \"Liberation Mono\", Menlo, Courier, monospace"}, "x_labels_major_count": null, "interpolation_precision": 250, "missing_value_fill_truncation": "x", "stack_from_top": false, "truncate_legend": null, "show_minor_x_labels": true, "print_zeroes": true, "css": ["file://style.css", "file://graph.css"], "y_label_rotation": 0, "legend_at_bottom": false, "print_values": false, "margin_top": null, "max_scale": 16, "allow_interruptions": false, "show_x_labels": true, "strict": false, "show_x_guides": false, "stroke": true, "margin_left": null, "dynamic_print_values": false, "print_labels": false, "show_y_labels": true, "x_labels_major": null, "range": null, "x_label_rotation": 0, "margin": 20, "zero": 0, "include_x_axis": false, "height": 600, "show_minor_y_labels": true, "show_dots": true, "interpolate": "cubic", "show_y_guides": true, "y_labels_major": null, "box_mode": "extremes", "margin_bottom": null, "order_min": null, "legend_box_size": 12, "fill": true, "show_only_major_dots": false, "js": ["//kozea.github.io/pygal.js/2.0.x/pygal-tooltips.min.js"], "x_title": null, "y_labels_major_every": null, "y_labels_major_count": null, "disable_xml_declaration": false, "y_title": null, "logarithmic": false, "pretty_print": false, "min_scale": 4, "dots_size": 2.5, "margin_right": null, "legends": [null], "secondary_range": null, "show_legend": false}</script><script type="text/javascript" xlink:href="https://kozea.github.io/pygal.js/2.0.x/pygal-tooltips.min.js" /></defs><title>Pygal</title><g class="graph stackedline-graph vertical"><rect class="background" height="600" width="800" x="0" y="0" /><g class="plot" transform="translate(60, 20)"><rect class="background" height="540" width="720.0" x="0" y="0" /><g class="axis y"><path class="line" d="M0.000000 540.000000 h720.000000" /><g class="guides"><path class="guide line" d="M0.000000 502.729462 h720.000000" /><text class="" x="-5" y="506.22946238884623">900M</text><title>900M</title></g><g class="guides"><path class="major guide line" d="M0.000000 383.246044 h720.000000" /><text class="major" x="-5" y="386.7460440095611">1000M</text><title>1000M</title></g><g class="guides"><path class="guide line" d="M0.000000 263.762626 h720.000000" /><text class="" x="-5" y="267.26262563027603">1100M</text><title>1100M</title></g><g class="guides"><path class="guide line" d="M0.000000 144.279207 h720.000000" /><text class="" x="-5" y="147.7792072509909">1200M</text><title>1200M</title></g><g class="guides"><path class="guide line" d="M0.000000 24.795789 h720.000000" /><text class="" x="-5" y="28.29578887170578">1300M</text><title>1300M</title></g></g><g class="axis x"><g class="guides"><path class="line" d="M13.846154 0.000000 v540.000000" /><text class="" x="13.846153846153847" y="555.0">2549</text></g><g class="guides"><path class="guide line" d="M90.769231 0.000000 v540.000000" /><text class="" x="90.76923076923076" y="555.0">2550</text></g><g class="guides"><path class="guide line" d="M167.692308 0.000000 v540.000000" /><text class="" x="167.69230769230765" y="555.0">2551</text></g><g class="guides"><path class="guide line" d="M244.615385 0.000000 v540.000000" /><text class="" x="244.6153846153846" y="555.0">2552</text></g><g class="guides"><path class="guide line" d="M321.538462 0.000000 v540.000000" /><text class="" x="321.5384615384615" y="555.0">2553</text></g><g class="guides"><path class="guide line" d="M398.461538 0.000000 v540.000000" /><text class="" x="398.46153846153845" y="555.0">2554</text></g><g class="guides"><path class="guide line" d="M475.384615 0.000000 v540.000000" /><text class="" x="475.38461538461536" y="555.0">2555</text></g><g class="guides"><path class="guide line" d="M552.307692 0.000000 v540.000000" /><text class="" x="552.3076923076923" y="555.0">2556</text></g><g class="guides"><path class="guide line" d="M629.230769 0.000000 v540.000000" /><text class="" x="629.2307692307692" y="555.0">2557</text></g><g class="guides"><path class="guide line" d="M706.153846 0.000000 v540.000000" /><text class="" x="706.1538461538461" y="555.0">2558</text></g></g><g class="series serie-0 color-0"><path class="line reactive" d="M13.846154 540.000000 L13.846154 529.615385 14.153846 529.475168 14.461538 529.334952 14.769231 529.194738 15.076923 529.054527 15.384615 528.914320 15.692308 528.774118 16.000000 528.633921 16.307692 528.493731 16.615385 528.353549 16.923077 528.213375 17.230769 528.073211 17.538462 527.933057 17.846154 527.792915 18.153846 527.652786 18.461538 527.512669 18.769231 527.372568 19.076923 527.232481 19.384615 527.092411 19.692308 526.952358 20.000000 526.812323 20.307692 526.672307 20.615385 526.532312 20.923077 526.392337 21.230769 526.252385 21.538462 526.112455 21.846154 525.972550 22.153846 525.832669 22.461538 525.692814 22.769231 525.552986 23.076923 525.413186 23.384615 525.273415 23.692308 525.133673 24.000000 524.993962 24.307692 524.854282 24.615385 524.714635 24.923077 524.575022 25.230769 524.435443 25.538462 524.295899 25.846154 524.156392 26.153846 524.016922 26.461538 523.877491 26.769231 523.738098 27.076923 523.598746 27.384615 523.459435 27.692308 523.320167 28.000000 523.180941 28.307692 523.041759 28.615385 522.902623 28.923077 522.763532 29.230769 522.624488 29.538462 522.485492 29.846154 522.346545 30.153846 522.207648 30.461538 522.068802 30.769231 521.930007 31.076923 521.791265 31.384615 521.652576 31.692308 521.513943 32.000000 521.375364 32.307692 521.236842 32.615385 521.098378 32.923077 520.959972 33.230769 520.821625 33.538462 520.683339 33.846154 520.545114 34.153846 520.406951 34.461538 520.268852 34.769231 520.130817 35.076923 519.992846 35.384615 519.854942 35.692308 519.717105 36.000000 519.579336 36.307692 519.441636 36.615385 519.304005 36.923077 519.166446 37.230769 519.028958 37.538462 518.891543 37.846154 518.754202 38.153846 518.616936 38.461538 518.479745 38.769231 518.342631 39.076923 518.205594 39.384615 518.068636 39.692308 517.931757 40.000000 517.794959 40.307692 517.658242 40.615385 517.521608 40.923077 517.385057 41.230769 517.248590 41.538462 517.112208 41.846154 516.975913 42.153846 516.839704 42.461538 516.703584 42.769231 516.567553 43.076923 516.431612 43.384615 516.295762 43.692308 516.160004 44.000000 516.024338 44.307692 515.888767 44.615385 515.753290 44.923077 515.617909 45.230769 515.482625 45.538462 515.347438 45.846154 515.212350 46.153846 515.077362 46.461538 514.942474 46.769231 514.807688 47.076923 514.673004 47.384615 514.538423 47.692308 514.403947 48.000000 514.269577 48.307692 514.135312 48.615385 514.001155 48.923077 513.867106 49.230769 513.733166 49.538462 513.599337 49.846154 513.465618 50.153846 513.332012 50.461538 513.198518 50.769231 513.065138 51.076923 512.931874 51.384615 512.798725 51.692308 512.665693 52.000000 512.532779 52.307692 512.399983 52.615385 512.267307 52.923077 512.134752 53.230769 512.002319 53.538462 511.870008 53.846154 511.737820 54.153846 511.605757 54.461538 511.473820 54.769231 511.342009 55.076923 511.210325 55.384615 511.078770 55.692308 510.947344 56.000000 510.816048 56.307692 510.684883 56.615385 510.553850 56.923077 510.422951 57.230769 510.292185 57.538462 510.161555 57.846154 510.031061 58.153846 509.900703 58.461538 509.770484 58.769231 509.640403 59.076923 509.510462 59.384615 509.380662 59.692308 509.251003 60.000000 509.121488 60.307692 508.992115 60.615385 508.862888 60.923077 508.733806 61.230769 508.604870 61.538462 508.476082 61.846154 508.347443 62.153846 508.218953 62.461538 508.090613 62.769231 507.962424 63.076923 507.834388 63.384615 507.706505 63.692308 507.578776 64.000000 507.451202 64.307692 507.323785 64.615385 507.196524 64.923077 507.069421 65.230769 506.942478 65.538462 506.815694 65.846154 506.689071 66.153846 506.562610 66.461538 506.436312 66.769231 506.310177 67.076923 506.184207 67.384615 506.058403 67.692308 505.932765 68.000000 505.807296 68.307692 505.681994 68.615385 505.556862 68.923077 505.431901 69.230769 505.307111 69.538462 505.182493 69.846154 505.058048 70.153846 504.933778 70.461538 504.809683 70.769231 504.685765 71.076923 504.562023 71.384615 504.438460 71.692308 504.315075 72.000000 504.191871 72.307692 504.068848 72.615385 503.946006 72.923077 503.823348 73.230769 503.700873 73.538462 503.578583 73.846154 503.456479 74.153846 503.334562 74.461538 503.212832 74.769231 503.091291 75.076923 502.969940 75.384615 502.848779 75.692308 502.727810 76.000000 502.607033 76.307692 502.486450 76.615385 502.366061 76.923077 502.245867 77.230769 502.125869 77.538462 502.006069 77.846154 501.886467 78.153846 501.767065 78.461538 501.647862 78.769231 501.528861 79.076923 501.410061 79.384615 501.291465 79.692308 501.173072 80.000000 501.054885 80.307692 500.936903 80.615385 500.819128 80.923077 500.701561 81.230769 500.584203 81.538462 500.467054 81.846154 500.350117 82.153846 500.233390 82.461538 500.116877 82.769231 500.000576 83.076923 499.884491 83.384615 499.768621 83.692308 499.652967 84.000000 499.537530 84.307692 499.422312 84.615385 499.307314 84.923077 499.192535 85.230769 499.077978 85.538462 498.963642 85.846154 498.849530 86.153846 498.735642 86.461538 498.621979 86.769231 498.508543 87.076923 498.395332 87.384615 498.282350 87.692308 498.169597 88.000000 498.057074 88.307692 497.944781 88.615385 497.832720 88.923077 497.720892 89.230769 497.609297 89.538462 497.497937 89.846154 497.386813 90.153846 497.275925 90.461538 497.165275 90.769231 497.054863 91.076923 496.944689 91.384615 496.834751 91.692308 496.725042 92.000000 496.615559 92.307692 496.506298 92.615385 496.397253 92.923077 496.288420 93.230769 496.179794 93.538462 496.071371 93.846154 495.963146 94.153846 495.855116 94.461538 495.747274 94.769231 495.639617 95.076923 495.532139 95.384615 495.424837 95.692308 495.317706 96.000000 495.210742 96.307692 495.103939 96.615385 494.997293 96.923077 494.890799 97.230769 494.784454 97.538462 494.678252 97.846154 494.572189 98.153846 494.466260 98.461538 494.360461 98.769231 494.254787 99.076923 494.149233 99.384615 494.043796 99.692308 493.938470 100.000000 493.833250 100.307692 493.728133 100.615385 493.623114 100.923077 493.518188 101.230769 493.413350 101.538462 493.308597 101.846154 493.203923 102.153846 493.099323 102.461538 492.994794 102.769231 492.890331 103.076923 492.785929 103.384615 492.681584 103.692308 492.577290 104.000000 492.473044 104.307692 492.368841 104.615385 492.264676 104.923077 492.160544 105.230769 492.056442 105.538462 491.952365 105.846154 491.848307 106.153846 491.744265 106.461538 491.640234 106.769231 491.536209 107.076923 491.432185 107.384615 491.328159 107.692308 491.224126 108.000000 491.120080 108.307692 491.016018 108.615385 490.911935 108.923077 490.807826 109.230769 490.703687 109.538462 490.599513 109.846154 490.495300 110.153846 490.391042 110.461538 490.286736 110.769231 490.182377 111.076923 490.077961 111.384615 489.973482 111.692308 489.868936 112.000000 489.764318 112.307692 489.659625 112.615385 489.554851 112.923077 489.449992 113.230769 489.345044 113.538462 489.240001 113.846154 489.134859 114.153846 489.029614 114.461538 488.924261 114.769231 488.818795 115.076923 488.713213 115.384615 488.607508 115.692308 488.501678 116.000000 488.395716 116.307692 488.289619 116.615385 488.183382 116.923077 488.077001 117.230769 487.970470 117.538462 487.863786 117.846154 487.756944 118.153846 487.649939 118.461538 487.542766 118.769231 487.435421 119.076923 487.327900 119.384615 487.220198 119.692308 487.112310 120.000000 487.004232 120.307692 486.895959 120.615385 486.787486 120.923077 486.678810 121.230769 486.569925 121.538462 486.460827 121.846154 486.351512 122.153846 486.241974 122.461538 486.132209 122.769231 486.022213 123.076923 485.911981 123.384615 485.801509 123.692308 485.690791 124.000000 485.579824 124.307692 485.468602 124.615385 485.357122 124.923077 485.245378 125.230769 485.133367 125.538462 485.021083 125.846154 484.908521 126.153846 484.795679 126.461538 484.682549 126.769231 484.569130 127.076923 484.455414 127.384615 484.341399 127.692308 484.227079 128.000000 484.112451 128.307692 483.997508 128.615385 483.882247 128.923077 483.766664 129.230769 483.650753 129.538462 483.534510 129.846154 483.417931 130.153846 483.301011 130.461538 483.183745 130.769231 483.066129 131.076923 482.948158 131.384615 482.829827 131.692308 482.711133 132.000000 482.592070 132.307692 482.472634 132.615385 482.352821 132.923077 482.232625 133.230769 482.112043 133.538462 481.991069 133.846154 481.869699 134.153846 481.747929 134.461538 481.625754 134.769231 481.503169 135.076923 481.380170 135.384615 481.256752 135.692308 481.132910 136.000000 481.008641 136.307692 480.883939 136.615385 480.758801 136.923077 480.633220 137.230769 480.507194 137.538462 480.380717 137.846154 480.253784 138.153846 480.126391 138.461538 479.998534 138.769231 479.870208 139.076923 479.741408 139.384615 479.612130 139.692308 479.482370 140.000000 479.352122 140.307692 479.221382 140.615385 479.090145 140.923077 478.958408 141.230769 478.826165 141.538462 478.693411 141.846154 478.560143 142.153846 478.426356 142.461538 478.292045 142.769231 478.157205 143.076923 478.021832 143.384615 477.885922 143.692308 477.749469 144.000000 477.612470 144.307692 477.474919 144.615385 477.336813 144.923077 477.198146 145.230769 477.058914 145.538462 476.919112 145.846154 476.778736 146.153846 476.637782 146.461538 476.496244 146.769231 476.354118 147.076923 476.211400 147.384615 476.068085 147.692308 475.924168 148.000000 475.779645 148.307692 475.634511 148.615385 475.488762 148.923077 475.342393 149.230769 475.195399 149.538462 475.047777 149.846154 474.899521 150.153846 474.750627 150.461538 474.601090 150.769231 474.450905 151.076923 474.300069 151.384615 474.148577 151.692308 473.996423 152.000000 473.843604 152.307692 473.690114 152.615385 473.535950 152.923077 473.381107 153.230769 473.225580 153.538462 473.069364 153.846154 472.912455 154.153846 472.754849 154.461538 472.596540 154.769231 472.437525 155.076923 472.277799 155.384615 472.117356 155.692308 471.956193 156.000000 471.794306 156.307692 471.631688 156.615385 471.468337 156.923077 471.304246 157.230769 471.139413 157.538462 470.973831 157.846154 470.807498 158.153846 470.640407 158.461538 470.472554 158.769231 470.303936 159.076923 470.134547 159.384615 469.964382 159.692308 469.793438 160.000000 469.621709 160.307692 469.449191 160.615385 469.275879 160.923077 469.101770 161.230769 468.926858 161.538462 468.751138 161.846154 468.574607 162.153846 468.397259 162.461538 468.219090 162.769231 468.040096 163.076923 467.860271 163.384615 467.679612 163.692308 467.498113 164.000000 467.315771 164.307692 467.132580 164.615385 466.948537 164.923077 466.763635 165.230769 466.577872 165.538462 466.391242 165.846154 466.203740 166.153846 466.015363 166.461538 465.826106 166.769231 465.635963 167.076923 465.444931 167.384615 465.253005 167.692308 465.060180 168.000000 464.866452 168.307692 464.671817 168.615385 464.476273 168.923077 464.279815 169.230769 464.082441 169.538462 463.884148 169.846154 463.684931 170.153846 463.484789 170.461538 463.283717 170.769231 463.081712 171.076923 462.878771 171.384615 462.674890 171.692308 462.470068 172.000000 462.264299 172.307692 462.057581 172.615385 461.849911 172.923077 461.641285 173.230769 461.431699 173.538462 461.221152 173.846154 461.009639 174.153846 460.797158 174.461538 460.583704 174.769231 460.369275 175.076923 460.153867 175.384615 459.937477 175.692308 459.720102 176.000000 459.501739 176.307692 459.282384 176.615385 459.062033 176.923077 458.840685 177.230769 458.618335 177.538462 458.394980 177.846154 458.170616 178.153846 457.945242 178.461538 457.718852 178.769231 457.491445 179.076923 457.263016 179.384615 457.033563 179.692308 456.803082 180.000000 456.571570 180.307692 456.339024 180.615385 456.105439 180.923077 455.870814 181.230769 455.635145 181.538462 455.398428 181.846154 455.160661 182.153846 454.921839 182.461538 454.681960 182.769231 454.441021 183.076923 454.199017 183.384615 453.955947 183.692308 453.711806 184.000000 453.466591 184.307692 453.220299 184.615385 452.972927 184.923077 452.724471 185.230769 452.474929 185.538462 452.224297 185.846154 451.972571 186.153846 451.719748 186.461538 451.465826 186.769231 451.210800 187.076923 450.954668 187.384615 450.697426 187.692308 450.439071 188.000000 450.179599 188.307692 449.919008 188.615385 449.657294 188.923077 449.394454 189.230769 449.130485 189.538462 448.865383 189.846154 448.599145 190.153846 448.331767 190.461538 448.063247 190.769231 447.793581 191.076923 447.522766 191.384615 447.250799 191.692308 446.977676 192.000000 446.703394 192.307692 446.427950 192.615385 446.151340 192.923077 445.873562 193.230769 445.594611 193.538462 445.314485 193.846154 445.033181 194.153846 444.750695 194.461538 444.467023 194.769231 444.182163 195.076923 443.896111 195.384615 443.608865 195.692308 443.320420 196.000000 443.030773 196.307692 442.739922 196.615385 442.447862 196.923077 442.154591 197.230769 441.860106 197.538462 441.564402 197.846154 441.267478 198.153846 440.969328 198.461538 440.669951 198.769231 440.369343 199.076923 440.067501 199.384615 439.764421 199.692308 439.460100 200.000000 439.154535 200.307692 438.847723 200.615385 438.539659 200.923077 438.230342 201.230769 437.919768 201.538462 437.607932 201.846154 437.294833 202.153846 436.980467 202.461538 436.664831 202.769231 436.347921 203.076923 436.029734 203.384615 435.710267 203.692308 435.389516 204.000000 435.067478 204.307692 434.744150 204.615385 434.419529 204.923077 434.093612 205.230769 433.766394 205.538462 433.437874 205.846154 433.108047 206.153846 432.776910 206.461538 432.444460 206.769231 432.110694 207.076923 431.775608 207.384615 431.439199 207.692308 431.101465 208.000000 430.762401 208.307692 430.422004 208.615385 430.080271 208.923077 429.737199 209.230769 429.392785 209.538462 429.047025 209.846154 428.699915 210.153846 428.351454 210.461538 428.001636 210.769231 427.650460 211.076923 427.297922 211.384615 426.944018 211.692308 426.588745 212.000000 426.232101 212.307692 425.874081 212.615385 425.514683 212.923077 425.153902 213.230769 424.791737 213.538462 424.428183 213.846154 424.063238 214.153846 423.696897 214.461538 423.329159 214.769231 422.960019 215.076923 422.589474 215.384615 422.217521 215.692308 421.844156 216.000000 421.469377 216.307692 421.093180 216.615385 420.715562 216.923077 420.336520 217.230769 419.956049 217.538462 419.574148 217.846154 419.190813 218.153846 418.806039 218.461538 418.419825 218.769231 418.032167 219.076923 417.643062 219.384615 417.252506 219.692308 416.860495 220.000000 416.467028 220.307692 416.072100 220.615385 415.675708 220.923077 415.277850 221.230769 414.878520 221.538462 414.477718 221.846154 414.075438 222.153846 413.671678 222.461538 413.266435 222.769231 412.859705 223.076923 412.451485 223.384615 412.041771 223.692308 411.630561 224.000000 411.217852 224.307692 410.803639 224.615385 410.387919 224.923077 409.970690 225.230769 409.551948 225.538462 409.131690 225.846154 408.709912 226.153846 408.286612 226.461538 407.861785 226.769231 407.435429 227.076923 407.007540 227.384615 406.578116 227.692308 406.147152 228.000000 405.714646 228.307692 405.280594 228.615385 404.844993 228.923077 404.407840 229.230769 403.969131 229.538462 403.528864 229.846154 403.087034 230.153846 402.643639 230.461538 402.198675 230.769231 401.752139 231.076923 401.304028 231.384615 400.854338 231.692308 400.403067 232.000000 399.950210 232.307692 399.495765 232.615385 399.039729 232.923077 398.582097 233.230769 398.122868 233.538462 397.662037 233.846154 397.199601 234.153846 396.735557 234.461538 396.269902 234.769231 395.802632 235.076923 395.333744 235.384615 394.863236 235.692308 394.391103 236.000000 393.917342 236.307692 393.441950 236.615385 392.964924 236.923077 392.486260 237.230769 392.005956 237.538462 391.524007 237.846154 391.040412 238.153846 390.555165 238.461538 390.068265 238.769231 389.579707 239.076923 389.089489 239.384615 388.597607 239.692308 388.104059 240.000000 387.608839 240.307692 387.111947 240.615385 386.613377 240.923077 386.113128 241.230769 385.611194 241.538462 385.107575 241.846154 384.602265 242.153846 384.095262 242.461538 383.586562 242.769231 383.076163 243.076923 382.564060 243.384615 382.050251 243.692308 381.534733 244.000000 381.017502 244.307692 380.498554 244.615385 379.977887 244.923077 379.455502 245.230769 378.931421 245.538462 378.405670 245.846154 377.878276 246.153846 377.349265 246.461538 376.818664 246.769231 376.286499 247.076923 375.752796 247.384615 375.217583 247.692308 374.680885 248.000000 374.142730 248.307692 373.603143 248.615385 373.062151 248.923077 372.519781 249.230769 371.976059 249.538462 371.431012 249.846154 370.884665 250.153846 370.337047 250.461538 369.788182 250.769231 369.238098 251.076923 368.686821 251.384615 368.134377 251.692308 367.580793 252.000000 367.026096 252.307692 366.470312 252.615385 365.913468 252.923077 365.355589 253.230769 364.796703 253.538462 364.236835 253.846154 363.676014 254.153846 363.114264 254.461538 362.551612 254.769231 361.988086 255.076923 361.423711 255.384615 360.858513 255.692308 360.292521 256.000000 359.725759 256.307692 359.158254 256.615385 358.590033 256.923077 358.021123 257.230769 357.451549 257.538462 356.881339 257.846154 356.310518 258.153846 355.739114 258.461538 355.167152 258.769231 354.594660 259.076923 354.021664 259.384615 353.448190 259.692308 352.874264 260.000000 352.299914 260.307692 351.725165 260.615385 351.150045 260.923077 350.574580 261.230769 349.998795 261.538462 349.422718 261.846154 348.846376 262.153846 348.269794 262.461538 347.692999 262.769231 347.116018 263.076923 346.538877 263.384615 345.961603 263.692308 345.384221 264.000000 344.806760 264.307692 344.229244 264.615385 343.651701 264.923077 343.074157 265.230769 342.496638 265.538462 341.919172 265.846154 341.341784 266.153846 340.764501 266.461538 340.187350 266.769231 339.610357 267.076923 339.033548 267.384615 338.456950 267.692308 337.880589 268.000000 337.304493 268.307692 336.728687 268.615385 336.153198 268.923077 335.578052 269.230769 335.003276 269.538462 334.428897 269.846154 333.854940 270.153846 333.281433 270.461538 332.708402 270.769231 332.135873 271.076923 331.563873 271.384615 330.992428 271.692308 330.421565 272.000000 329.851311 272.307692 329.281691 272.615385 328.712733 272.923077 328.144462 273.230769 327.576906 273.538462 327.010090 273.846154 326.444042 274.153846 325.878787 274.461538 325.314353 274.769231 324.750765 275.076923 324.188050 275.384615 323.626236 275.692308 323.065347 276.000000 322.505411 276.307692 321.946454 276.615385 321.388503 276.923077 320.831584 277.230769 320.275724 277.538462 319.720949 277.846154 319.167285 278.153846 318.614760 278.461538 318.063399 278.769231 317.513229 279.076923 316.964277 279.384615 316.416569 279.692308 315.870131 280.000000 315.324991 280.307692 314.781173 280.615385 314.238706 280.923077 313.697616 281.230769 313.157928 281.538462 312.619670 281.846154 312.082868 282.153846 311.547549 282.461538 311.013738 282.769231 310.481463 283.076923 309.950750 283.384615 309.421625 283.692308 308.894115 284.000000 308.368247 284.307692 307.844046 284.615385 307.321540 284.923077 306.800754 285.230769 306.281716 285.538462 305.764452 285.846154 305.248988 286.153846 304.735351 286.461538 304.223568 286.769231 303.713664 287.076923 303.205666 287.384615 302.699602 287.692308 302.195496 288.000000 301.693376 288.307692 301.193269 288.615385 300.695200 288.923077 300.199197 289.230769 299.705285 289.538462 299.213491 289.846154 298.723843 290.153846 298.236365 290.461538 297.751085 290.769231 297.268029 291.076923 296.787224 291.384615 296.308696 291.692308 295.832472 292.000000 295.358577 292.307692 294.887040 292.615385 294.417885 292.923077 293.951140 293.230769 293.486832 293.538462 293.024985 293.846154 292.565628 294.153846 292.108786 294.461538 291.654487 294.769231 291.202756 295.076923 290.753620 295.384615 290.307105 295.692308 289.863239 296.000000 289.422047 296.307692 288.983556 296.615385 288.547792 296.923077 288.114782 297.230769 287.684553 297.538462 287.257131 297.846154 286.832542 298.153846 286.410813 298.461538 285.991971 298.769231 285.576041 299.076923 285.163051 299.384615 284.753027 299.692308 284.345995 300.000000 283.941982 300.307692 283.541014 300.615385 283.143118 300.923077 282.748320 301.230769 282.356647 301.538462 281.968126 301.846154 281.582782 302.153846 281.200643 302.461538 280.821734 302.769231 280.446083 303.076923 280.073715 303.384615 279.704657 303.692308 279.338937 304.000000 278.976579 304.307692 278.617611 304.615385 278.262060 304.923077 277.909951 305.230769 277.561311 305.538462 277.216167 305.846154 276.874545 306.153846 276.536472 306.461538 276.201974 306.769231 275.871077 307.076923 275.543809 307.384615 275.220195 307.692308 274.900262 308.000000 274.584037 308.307692 274.271546 308.615385 273.962815 308.923077 273.657872 309.230769 273.356742 309.538462 273.059452 309.846154 272.766029 310.153846 272.476498 310.461538 272.190887 310.769231 271.909222 311.076923 271.631530 311.384615 271.357836 311.692308 271.088168 312.000000 270.822552 312.307692 270.561014 312.615385 270.303582 312.923077 270.050280 313.230769 269.801137 313.538462 269.556178 313.846154 269.315430 314.153846 269.078919 314.461538 268.846672 314.769231 268.618715 315.076923 268.395075 315.384615 268.175779 315.692308 267.960852 316.000000 267.750322 316.307692 267.544214 316.615385 267.342556 316.923077 267.145373 317.230769 266.952693 317.538462 266.764542 317.846154 266.580945 318.153846 266.401931 318.461538 266.227525 318.769231 266.057753 319.076923 265.892642 319.384615 265.732220 319.692308 265.576511 320.000000 265.425543 320.307692 265.279343 320.615385 265.137935 320.923077 265.001349 321.230769 264.869608 321.538462 264.742741 321.846154 264.620762 322.153846 264.503639 322.461538 264.391331 322.769231 264.283794 323.076923 264.180986 323.384615 264.082864 323.692308 263.989385 324.000000 263.900506 324.307692 263.816184 324.615385 263.736378 324.923077 263.661044 325.230769 263.590139 325.538462 263.523621 325.846154 263.461446 326.153846 263.403573 326.461538 263.349958 326.769231 263.300559 327.076923 263.255333 327.384615 263.214236 327.692308 263.177228 328.000000 263.144263 328.307692 263.115301 328.615385 263.090298 328.923077 263.069211 329.230769 263.051998 329.538462 263.038616 329.846154 263.029022 330.153846 263.023174 330.461538 263.021028 330.769231 263.022542 331.076923 263.027673 331.384615 263.036379 331.692308 263.048616 332.000000 263.064343 332.307692 263.083515 332.615385 263.106091 332.923077 263.132027 333.230769 263.161282 333.538462 263.193812 333.846154 263.229574 334.153846 263.268526 334.461538 263.310624 334.769231 263.355827 335.076923 263.404092 335.384615 263.455375 335.692308 263.509634 336.000000 263.566826 336.307692 263.626909 336.615385 263.689840 336.923077 263.755575 337.230769 263.824073 337.538462 263.895290 337.846154 263.969184 338.153846 264.045712 338.461538 264.124831 338.769231 264.206498 339.076923 264.290672 339.384615 264.377308 339.692308 264.466365 340.000000 264.557799 340.307692 264.651567 340.615385 264.747628 340.923077 264.845938 341.230769 264.946455 341.538462 265.049135 341.846154 265.153936 342.153846 265.260816 342.461538 265.369731 342.769231 265.480639 343.076923 265.593496 343.384615 265.708262 343.692308 265.824891 344.000000 265.943343 344.307692 266.063573 344.615385 266.185540 344.923077 266.309200 345.230769 266.434511 345.538462 266.561430 345.846154 266.689914 346.153846 266.819921 346.461538 266.951408 346.769231 267.084331 347.076923 267.218649 347.384615 267.354319 347.692308 267.491297 348.000000 267.629542 348.307692 267.769009 348.615385 267.909658 348.923077 268.051444 349.230769 268.194325 349.538462 268.338258 349.846154 268.483201 350.153846 268.629111 350.461538 268.775945 350.769231 268.923660 351.076923 269.072214 351.384615 269.221564 351.692308 269.371666 352.000000 269.522479 352.307692 269.673960 352.615385 269.826066 352.923077 269.978753 353.230769 270.131980 353.538462 270.285704 353.846154 270.439881 354.153846 270.594469 354.461538 270.749426 354.769231 270.904709 355.076923 271.060274 355.384615 271.216079 355.692308 271.372082 356.000000 271.528239 356.307692 271.684509 356.615385 271.840847 356.923077 271.997212 357.230769 272.153560 357.538462 272.309849 357.846154 272.466037 358.153846 272.622079 358.461538 272.777935 358.769231 272.933560 359.076923 273.088912 359.384615 273.243949 359.692308 273.398628 360.000000 273.552905 360.307692 273.706738 360.615385 273.860085 360.923077 274.012903 361.230769 274.165148 361.538462 274.316779 361.846154 274.467752 362.153846 274.618024 362.461538 274.767554 362.769231 274.916298 363.076923 275.064213 363.384615 275.211257 363.692308 275.357387 364.000000 275.502560 364.307692 275.646733 364.615385 275.789864 364.923077 275.931910 365.230769 276.072828 365.538462 276.212576 365.846154 276.351110 366.153846 276.488388 366.461538 276.624368 366.769231 276.759006 367.076923 276.892259 367.384615 277.024086 367.692308 277.154443 368.000000 277.283287 368.307692 277.410576 368.615385 277.536267 368.923077 277.660317 369.230769 277.782683 369.538462 277.903323 369.846154 278.022195 370.153846 278.139254 370.461538 278.254459 370.769231 278.367767 371.076923 278.479135 371.384615 278.588519 371.692308 278.695879 372.000000 278.801170 372.307692 278.904350 372.615385 279.005376 372.923077 279.104206 373.230769 279.200797 373.538462 279.295106 373.846154 279.387089 374.153846 279.476706 374.461538 279.563912 374.769231 279.648665 375.076923 279.730922 375.384615 279.810641 375.692308 279.887779 376.000000 279.962293 376.307692 280.034140 376.615385 280.103277 376.923077 280.169662 377.230769 280.233253 377.538462 280.294005 377.846154 280.351877 378.153846 280.406826 378.461538 280.458809 378.769231 280.507784 379.076923 280.553706 379.384615 280.596535 379.692308 280.636226 380.000000 280.672738 380.307692 280.706028 380.615385 280.736052 380.923077 280.762769 381.230769 280.786134 381.538462 280.806106 381.846154 280.822642 382.153846 280.835699 382.461538 280.845235 382.769231 280.851206 383.076923 280.853570 383.384615 280.852284 383.692308 280.847305 384.000000 280.838591 384.307692 280.826098 384.615385 280.809785 384.923077 280.789608 385.230769 280.765525 385.538462 280.737492 385.846154 280.705468 386.153846 280.669409 386.461538 280.629272 386.769231 280.585016 387.076923 280.536596 387.384615 280.483971 387.692308 280.427097 388.000000 280.365933 388.307692 280.300434 388.615385 280.230559 388.923077 280.156264 389.230769 280.077508 389.538462 279.994246 389.846154 279.906437 390.153846 279.814037 390.461538 279.717005 390.769231 279.615296 391.076923 279.508869 391.384615 279.397680 391.692308 279.281688 392.000000 279.160848 392.307692 279.035119 392.615385 278.904458 392.923077 278.768821 393.230769 278.628167 393.538462 278.482452 393.846154 278.331633 394.153846 278.175669 394.461538 278.014516 394.769231 277.848131 395.076923 277.676471 395.384615 277.499495 395.692308 277.317159 396.000000 277.129420 396.307692 276.936236 396.615385 276.737564 396.923077 276.533361 397.230769 276.323585 397.538462 276.108192 397.846154 275.887140 398.153846 275.660387 398.461538 275.427889 398.769231 275.189616 399.076923 274.945594 399.384615 274.695857 399.692308 274.440444 400.000000 274.179391 400.307692 273.912735 400.615385 273.640513 400.923077 273.362762 401.230769 273.079517 401.538462 272.790818 401.846154 272.496699 402.153846 272.197199 402.461538 271.892353 402.769231 271.582199 403.076923 271.266774 403.384615 270.946114 403.692308 270.620257 404.000000 270.289238 404.307692 269.953096 404.615385 269.611866 404.923077 269.265586 405.230769 268.914293 405.538462 268.558023 405.846154 268.196813 406.153846 267.830701 406.461538 267.459722 406.769231 267.083914 407.076923 266.703314 407.384615 266.317958 407.692308 265.927884 408.000000 265.533128 408.307692 265.133727 408.615385 264.729717 408.923077 264.321137 409.230769 263.908022 409.538462 263.490409 409.846154 263.068336 410.153846 262.641839 410.461538 262.210955 410.769231 261.775721 411.076923 261.336173 411.384615 260.892349 411.692308 260.444286 412.000000 259.992019 412.307692 259.535587 412.615385 259.075025 412.923077 258.610372 413.230769 258.141663 413.538462 257.668935 413.846154 257.192226 414.153846 256.711572 414.461538 256.227010 414.769231 255.738577 415.076923 255.246310 415.384615 254.750246 415.692308 254.250420 416.000000 253.746871 416.307692 253.239635 416.615385 252.728750 416.923077 252.214251 417.230769 251.696175 417.538462 251.174560 417.846154 250.649443 418.153846 250.120860 418.461538 249.588848 418.769231 249.053444 419.076923 248.514684 419.384615 247.972607 419.692308 247.427247 420.000000 246.878643 420.307692 246.326832 420.615385 245.771849 420.923077 245.213732 421.230769 244.652518 421.538462 244.088243 421.846154 243.520945 422.153846 242.950661 422.461538 242.377426 422.769231 241.801278 423.076923 241.222254 423.384615 240.640391 423.692308 240.055726 424.000000 239.468294 424.307692 238.878134 424.615385 238.285282 424.923077 237.689775 425.230769 237.091650 425.538462 236.490944 425.846154 235.887692 426.153846 235.281934 426.461538 234.673704 426.769231 234.063040 427.076923 233.449980 427.384615 232.834559 427.692308 232.216814 428.000000 231.596783 428.307692 230.974503 428.615385 230.350009 428.923077 229.723340 429.230769 229.094531 429.538462 228.463620 429.846154 227.830643 430.153846 227.195638 430.461538 226.558641 430.769231 225.919689 431.076923 225.278819 431.384615 224.636068 431.692308 223.991473 432.000000 223.345069 432.307692 222.696896 432.615385 222.046988 432.923077 221.395384 433.230769 220.742119 433.538462 220.087231 433.846154 219.430757 434.153846 218.772733 434.461538 218.113196 434.769231 217.452184 435.076923 216.789732 435.384615 216.125878 435.692308 215.460659 436.000000 214.794112 436.307692 214.126273 436.615385 213.457179 436.923077 212.786867 437.230769 212.115374 437.538462 211.442737 437.846154 210.768992 438.153846 210.094177 438.461538 209.418328 438.769231 208.741483 439.076923 208.063677 439.384615 207.384949 439.692308 206.705334 440.000000 206.024869 440.307692 205.343592 440.615385 204.661540 440.923077 203.978748 441.230769 203.295254 441.538462 202.611096 441.846154 201.926308 442.153846 201.240930 442.461538 200.554997 442.769231 199.868546 443.076923 199.181614 443.384615 198.494238 443.692308 197.806455 444.000000 197.118301 444.307692 196.429814 444.615385 195.741030 444.923077 195.051986 445.230769 194.362720 445.538462 193.673267 445.846154 192.983665 446.153846 192.293950 446.461538 191.604160 446.769231 190.914331 447.076923 190.224501 447.384615 189.534705 447.692308 188.844981 448.000000 188.155366 448.307692 187.465896 448.615385 186.776609 448.923077 186.087541 449.230769 185.398729 449.538462 184.710210 449.846154 184.022020 450.153846 183.334197 450.461538 182.646778 450.769231 181.959799 451.076923 181.273297 451.384615 180.587310 451.692308 179.901873 452.000000 179.217023 452.307692 178.532799 452.615385 177.849236 452.923077 177.166371 453.230769 176.484241 453.538462 175.802883 453.846154 175.122334 454.153846 174.442630 454.461538 173.763809 454.769231 173.085908 455.076923 172.408962 455.384615 171.733010 455.692308 171.058088 456.000000 170.384232 456.307692 169.711480 456.615385 169.039869 456.923077 168.369435 457.230769 167.700215 457.538462 167.032246 457.846154 166.365564 458.153846 165.700208 458.461538 165.036213 458.769231 164.373617 459.076923 163.712455 459.384615 163.052766 459.692308 162.394586 460.000000 161.737952 460.307692 161.082900 460.615385 160.429468 460.923077 159.777692 461.230769 159.127609 461.538462 158.479257 461.846154 157.832671 462.153846 157.187889 462.461538 156.544948 462.769231 155.903884 463.076923 155.264735 463.384615 154.627536 463.692308 153.992326 464.000000 153.359141 464.307692 152.728017 464.615385 152.098992 464.923077 151.472102 465.230769 150.847384 465.538462 150.224876 465.846154 149.604613 466.153846 148.986634 466.461538 148.370974 466.769231 147.757670 467.076923 147.146760 467.384615 146.538280 467.692308 145.932267 468.000000 145.328758 468.307692 144.727790 468.615385 144.129399 468.923077 143.533623 469.230769 142.940498 469.538462 142.350062 469.846154 141.762350 470.153846 141.177400 470.461538 140.595249 470.769231 140.015933 471.076923 139.439490 471.384615 138.865956 471.692308 138.295368 472.000000 137.727764 472.307692 137.163179 472.615385 136.601650 472.923077 136.043215 473.230769 135.487911 473.538462 134.935773 473.846154 134.386840 474.153846 133.841148 474.461538 133.298733 474.769231 132.759633 475.076923 132.223884 475.384615 131.691524 475.692308 131.162580 476.000000 130.637048 476.307692 130.114914 476.615385 129.596164 476.923077 129.080785 477.230769 128.568762 477.538462 128.060082 477.846154 127.554733 478.153846 127.052699 478.461538 126.553967 478.769231 126.058524 479.076923 125.566356 479.384615 125.077449 479.692308 124.591789 480.000000 124.109364 480.307692 123.630159 480.615385 123.154161 480.923077 122.681355 481.230769 122.211729 481.538462 121.745269 481.846154 121.281960 482.153846 120.821790 482.461538 120.364745 482.769231 119.910811 483.076923 119.459974 483.384615 119.012221 483.692308 118.567538 484.000000 118.125912 484.307692 117.687328 484.615385 117.251773 484.923077 116.819234 485.230769 116.389697 485.538462 115.963148 485.846154 115.539573 486.153846 115.118959 486.461538 114.701292 486.769231 114.286559 487.076923 113.874746 487.384615 113.465839 487.692308 113.059824 488.000000 112.656689 488.307692 112.256418 488.615385 111.859000 488.923077 111.464419 489.230769 111.072662 489.538462 110.683716 489.846154 110.297567 490.153846 109.914202 490.461538 109.533606 490.769231 109.155766 491.076923 108.780668 491.384615 108.408299 491.692308 108.038645 492.000000 107.671692 492.307692 107.307427 492.615385 106.945837 492.923077 106.586906 493.230769 106.230623 493.538462 105.876972 493.846154 105.525941 494.153846 105.177515 494.461538 104.831682 494.769231 104.488427 495.076923 104.147737 495.384615 103.809599 495.692308 103.473997 496.000000 103.140920 496.307692 102.810353 496.615385 102.482282 496.923077 102.156694 497.230769 101.833575 497.538462 101.512912 497.846154 101.194691 498.153846 100.878898 498.461538 100.565520 498.769231 100.254542 499.076923 99.945952 499.384615 99.639735 499.692308 99.335879 500.000000 99.034369 500.307692 98.735191 500.615385 98.438332 500.923077 98.143779 501.230769 97.851517 501.538462 97.561534 501.846154 97.273815 502.153846 96.988346 502.461538 96.705115 502.769231 96.424107 503.076923 96.145309 503.384615 95.868706 503.692308 95.594287 504.000000 95.322036 504.307692 95.051940 504.615385 94.783986 504.923077 94.518159 505.230769 94.254447 505.538462 93.992835 505.846154 93.733310 506.153846 93.475858 506.461538 93.220465 506.769231 92.967119 507.076923 92.715805 507.384615 92.466509 507.692308 92.219218 508.000000 91.973919 508.307692 91.730597 508.615385 91.489239 508.923077 91.249831 509.230769 91.012360 509.538462 90.776812 509.846154 90.543173 510.153846 90.311430 510.461538 90.081569 510.769231 89.853576 511.076923 89.627438 511.384615 89.403141 511.692308 89.180671 512.000000 88.960015 512.307692 88.741159 512.615385 88.524089 512.923077 88.308792 513.230769 88.095255 513.538462 87.883462 513.846154 87.673402 514.153846 87.465059 514.461538 87.258422 514.769231 87.053474 515.076923 86.850205 515.384615 86.648598 515.692308 86.448641 516.000000 86.250321 516.307692 86.053623 516.615385 85.858534 516.923077 85.665040 517.230769 85.473128 517.538462 85.282784 517.846154 85.093994 518.153846 84.906744 518.461538 84.721022 518.769231 84.536812 519.076923 84.354103 519.384615 84.172879 519.692308 83.993128 520.000000 83.814835 520.307692 83.637987 520.615385 83.462571 520.923077 83.288572 521.230769 83.115978 521.538462 82.944773 521.846154 82.774946 522.153846 82.606481 522.461538 82.439366 522.769231 82.273587 523.076923 82.109129 523.384615 81.945981 523.692308 81.784127 524.000000 81.623554 524.307692 81.464248 524.615385 81.306197 524.923077 81.149385 525.230769 80.993800 525.538462 80.839428 525.846154 80.686255 526.153846 80.534268 526.461538 80.383452 526.769231 80.233795 527.076923 80.085282 527.384615 79.937900 527.692308 79.791636 528.000000 79.646475 528.307692 79.502404 528.615385 79.359409 528.923077 79.217477 529.230769 79.076593 529.538462 78.936746 529.846154 78.797919 530.153846 78.660101 530.461538 78.523277 530.769231 78.387434 531.076923 78.252558 531.384615 78.118635 531.692308 77.985652 532.000000 77.853595 532.307692 77.722450 532.615385 77.592205 532.923077 77.462844 533.230769 77.334354 533.538462 77.206723 533.846154 77.079936 534.153846 76.953979 534.461538 76.828838 534.769231 76.704502 535.076923 76.580954 535.384615 76.458182 535.692308 76.336173 536.000000 76.214912 536.307692 76.094386 536.615385 75.974581 536.923077 75.855484 537.230769 75.737081 537.538462 75.619358 537.846154 75.502301 538.153846 75.385898 538.461538 75.270133 538.769231 75.154995 539.076923 75.040468 539.384615 74.926540 539.692308 74.813196 540.000000 74.700423 540.307692 74.588208 540.615385 74.476536 540.923077 74.365394 541.230769 74.254769 541.538462 74.144647 541.846154 74.035013 542.153846 73.925855 542.461538 73.817159 542.769231 73.708911 543.076923 73.601097 543.384615 73.493704 543.692308 73.386718 544.000000 73.280126 544.307692 73.173913 544.615385 73.068066 544.923077 72.962573 545.230769 72.857417 545.538462 72.752588 545.846154 72.648069 546.153846 72.543849 546.461538 72.439912 546.769231 72.336247 547.076923 72.232838 547.384615 72.129672 547.692308 72.026736 548.000000 71.924016 548.307692 71.821499 548.615385 71.719170 548.923077 71.617015 549.230769 71.515023 549.538462 71.413178 549.846154 71.311466 550.153846 71.209876 550.461538 71.108391 550.769231 71.007000 551.076923 70.905689 551.384615 70.804443 551.692308 70.703249 552.000000 70.602093 552.307692 70.500962 552.615385 70.399845 552.923077 70.298738 553.230769 70.197640 553.538462 70.096552 553.846154 69.995472 554.153846 69.894400 554.461538 69.793334 554.769231 69.692275 555.076923 69.591221 555.384615 69.490172 555.692308 69.389128 556.000000 69.288087 556.307692 69.187048 556.615385 69.086012 556.923077 68.984977 557.230769 68.883943 557.538462 68.782908 557.846154 68.681874 558.153846 68.580837 558.461538 68.479799 558.769231 68.378758 559.076923 68.277713 559.384615 68.176665 559.692308 68.075611 560.000000 67.974552 560.307692 67.873487 560.615385 67.772415 560.923077 67.671335 561.230769 67.570247 561.538462 67.469149 561.846154 67.368043 562.153846 67.266925 562.461538 67.165797 562.769231 67.064657 563.076923 66.963505 563.384615 66.862339 563.692308 66.761159 564.000000 66.659965 564.307692 66.558756 564.615385 66.457531 564.923077 66.356289 565.230769 66.255030 565.538462 66.153753 565.846154 66.052457 566.153846 65.951142 566.461538 65.849806 566.769231 65.748450 567.076923 65.647073 567.384615 65.545673 567.692308 65.444250 568.000000 65.342804 568.307692 65.241334 568.615385 65.139839 568.923077 65.038318 569.230769 64.936770 569.538462 64.835196 569.846154 64.733594 570.153846 64.631964 570.461538 64.530304 570.769231 64.428615 571.076923 64.326895 571.384615 64.225144 571.692308 64.123362 572.000000 64.021546 572.307692 63.919698 572.615385 63.817815 572.923077 63.715898 573.230769 63.613946 573.538462 63.511957 573.846154 63.409932 574.153846 63.307869 574.461538 63.205769 574.769231 63.103629 575.076923 63.001450 575.384615 62.899231 575.692308 62.796971 576.000000 62.694670 576.307692 62.592326 576.615385 62.489939 576.923077 62.387508 577.230769 62.285034 577.538462 62.182514 577.846154 62.079948 578.153846 61.977336 578.461538 61.874677 578.769231 61.771971 579.076923 61.669215 579.384615 61.566411 579.692308 61.463556 580.000000 61.360651 580.307692 61.257695 580.615385 61.154687 580.923077 61.051626 581.230769 60.948512 581.538462 60.845344 581.846154 60.742121 582.153846 60.638842 582.461538 60.535508 582.769231 60.432117 583.076923 60.328668 583.384615 60.225161 583.692308 60.121595 584.000000 60.017970 584.307692 59.914284 584.615385 59.810537 584.923077 59.706729 585.230769 59.602858 585.538462 59.498925 585.846154 59.394927 586.153846 59.290865 586.461538 59.186738 586.769231 59.082546 587.076923 58.978286 587.384615 58.873960 587.692308 58.769565 588.000000 58.665102 588.307692 58.560570 588.615385 58.455968 588.923077 58.351295 589.230769 58.246551 589.538462 58.141734 589.846154 58.036845 590.153846 57.931883 590.461538 57.826846 590.769231 57.721735 591.076923 57.616548 591.384615 57.511285 591.692308 57.405944 592.000000 57.300527 592.307692 57.195031 592.615385 57.089456 592.923077 56.983801 593.230769 56.878066 593.538462 56.772250 593.846154 56.666353 594.153846 56.560372 594.461538 56.454309 594.769231 56.348162 595.076923 56.241930 595.384615 56.135613 595.692308 56.029210 596.000000 55.922721 596.307692 55.816144 596.615385 55.709480 596.923077 55.602726 597.230769 55.495883 597.538462 55.388951 597.846154 55.281927 598.153846 55.174812 598.461538 55.067605 598.769231 54.960305 599.076923 54.852911 599.384615 54.745424 599.692308 54.637841 600.000000 54.530163 600.307692 54.422388 600.615385 54.314516 600.923077 54.206547 601.230769 54.098480 601.538462 53.990313 601.846154 53.882046 602.153846 53.773679 602.461538 53.665211 602.769231 53.556641 603.076923 53.447969 603.384615 53.339193 603.692308 53.230314 604.000000 53.121329 604.307692 53.012240 604.615385 52.903044 604.923077 52.793742 605.230769 52.684332 605.538462 52.574815 605.846154 52.465188 606.153846 52.355452 606.461538 52.245606 606.769231 52.135649 607.076923 52.025581 607.384615 51.915400 607.692308 51.805106 608.000000 51.694699 608.307692 51.584177 608.615385 51.473541 608.923077 51.362788 609.230769 51.251920 609.538462 51.140934 609.846154 51.029830 610.153846 50.918608 610.461538 50.807267 610.769231 50.695806 611.076923 50.584224 611.384615 50.472522 611.692308 50.360697 612.000000 50.248749 612.307692 50.136679 612.615385 50.024484 612.923077 49.912164 613.230769 49.799719 613.538462 49.687148 613.846154 49.574451 614.153846 49.461625 614.461538 49.348672 614.769231 49.235590 615.076923 49.122378 615.384615 49.009036 615.692308 48.895563 616.000000 48.781958 616.307692 48.668221 616.615385 48.554351 616.923077 48.440347 617.230769 48.326209 617.538462 48.211936 617.846154 48.097527 618.153846 47.982981 618.461538 47.868298 618.769231 47.753478 619.076923 47.638519 619.384615 47.523420 619.692308 47.408182 620.000000 47.292803 620.307692 47.177282 620.615385 47.061620 620.923077 46.945815 621.230769 46.829866 621.538462 46.713774 621.846154 46.597536 622.153846 46.481153 622.461538 46.364624 622.769231 46.247948 623.076923 46.131125 623.384615 46.014153 623.692308 45.897032 624.000000 45.779761 624.307692 45.662341 624.615385 45.544769 624.923077 45.427045 625.230769 45.309169 625.538462 45.191140 625.846154 45.072957 626.153846 44.954620 626.461538 44.836127 626.769231 44.717478 627.076923 44.598673 627.384615 44.479711 627.692308 44.360591 628.000000 44.241312 628.307692 44.121873 628.615385 44.002275 628.923077 43.882516 629.230769 43.762595 629.538462 43.642513 629.846154 43.522269 630.153846 43.401864 630.461538 43.281299 630.769231 43.160574 631.076923 43.039691 631.384615 42.918649 631.692308 42.797450 632.000000 42.676094 632.307692 42.554582 632.615385 42.432914 632.923077 42.311091 633.230769 42.189113 633.538462 42.066982 633.846154 41.944698 634.153846 41.822261 634.461538 41.699673 634.769231 41.576934 635.076923 41.454044 635.384615 41.331004 635.692308 41.207815 636.000000 41.084478 636.307692 40.960993 636.615385 40.837361 636.923077 40.713582 637.230769 40.589657 637.538462 40.465587 637.846154 40.341372 638.153846 40.217013 638.461538 40.092511 638.769231 39.967867 639.076923 39.843080 639.384615 39.718152 639.692308 39.593083 640.000000 39.467874 640.307692 39.342526 640.615385 39.217039 640.923077 39.091414 641.230769 38.965651 641.538462 38.839752 641.846154 38.713716 642.153846 38.587545 642.461538 38.461238 642.769231 38.334798 643.076923 38.208224 643.384615 38.081517 643.692308 37.954678 644.000000 37.827707 644.307692 37.700605 644.615385 37.573373 644.923077 37.446011 645.230769 37.318520 645.538462 37.190901 645.846154 37.063154 646.153846 36.935280 646.461538 36.807279 646.769231 36.679153 647.076923 36.550901 647.384615 36.422525 647.692308 36.294025 648.000000 36.165402 648.307692 36.036656 648.615385 35.907788 648.923077 35.778799 649.230769 35.649690 649.538462 35.520460 649.846154 35.391111 650.153846 35.261644 650.461538 35.132058 650.769231 35.002355 651.076923 34.872535 651.384615 34.742600 651.692308 34.612548 652.000000 34.482382 652.307692 34.352102 652.615385 34.221709 652.923077 34.091202 653.230769 33.960584 653.538462 33.829853 653.846154 33.699012 654.153846 33.568061 654.461538 33.437000 654.769231 33.305830 655.076923 33.174552 655.384615 33.043166 655.692308 32.911673 656.000000 32.780074 656.307692 32.648369 656.615385 32.516560 656.923077 32.384645 657.230769 32.252627 657.538462 32.120506 657.846154 31.988282 658.153846 31.855957 658.461538 31.723530 658.769231 31.591003 659.076923 31.458376 659.384615 31.325650 659.692308 31.192825 660.000000 31.059902 660.307692 30.926882 660.615385 30.793765 660.923077 30.660553 661.230769 30.527245 661.538462 30.393842 661.846154 30.260345 662.153846 30.126755 662.461538 29.993072 662.769231 29.859298 663.076923 29.725431 663.384615 29.591474 663.692308 29.457427 664.000000 29.323290 664.307692 29.189065 664.615385 29.054751 664.923077 28.920349 665.230769 28.785861 665.538462 28.651287 665.846154 28.516627 666.153846 28.381882 666.461538 28.247052 666.769231 28.112139 667.076923 27.977143 667.384615 27.842065 667.692308 27.706905 668.000000 27.571664 668.307692 27.436342 668.615385 27.300941 668.923077 27.165460 669.230769 27.029901 669.538462 26.894265 669.846154 26.758551 670.153846 26.622760 670.461538 26.486894 670.769231 26.350953 671.076923 26.214936 671.384615 26.078846 671.692308 25.942683 672.000000 25.806447 672.307692 25.670139 672.615385 25.533760 672.923077 25.397310 673.230769 25.260790 673.538462 25.124201 673.846154 24.987543 674.153846 24.850816 674.461538 24.714023 674.769231 24.577162 675.076923 24.440236 675.384615 24.303244 675.692308 24.166187 676.000000 24.029066 676.307692 23.891881 676.615385 23.754633 676.923077 23.617323 677.230769 23.479952 677.538462 23.342520 677.846154 23.205027 678.153846 23.067474 678.461538 22.929863 678.769231 22.792193 679.076923 22.654466 679.384615 22.516681 679.692308 22.378840 680.000000 22.240944 680.307692 22.102992 680.615385 21.964985 680.923077 21.826925 681.230769 21.688812 681.538462 21.550646 681.846154 21.412428 682.153846 21.274159 682.461538 21.135840 682.769231 20.997470 683.076923 20.859051 683.384615 20.720584 683.692308 20.582069 684.000000 20.443506 684.307692 20.304896 684.615385 20.166241 684.923077 20.027540 685.230769 19.888794 685.538462 19.750005 685.846154 19.611171 686.153846 19.472295 686.461538 19.333377 686.769231 19.194418 687.076923 19.055417 687.384615 18.916377 687.692308 18.777296 688.000000 18.638177 688.307692 18.499020 688.615385 18.359825 688.923077 18.220593 689.230769 18.081324 689.538462 17.942020 689.846154 17.802681 690.153846 17.663308 690.461538 17.523901 690.769231 17.384461 691.076923 17.244988 691.384615 17.105484 691.692308 16.965948 692.000000 16.826382 692.307692 16.686786 692.615385 16.547161 692.923077 16.407508 693.230769 16.267827 693.538462 16.128118 693.846154 15.988383 694.153846 15.848621 694.461538 15.708835 694.769231 15.569024 695.076923 15.429189 695.384615 15.289330 695.692308 15.149449 696.000000 15.009546 696.307692 14.869621 696.615385 14.729676 696.923077 14.589711 697.230769 14.449726 697.538462 14.309722 697.846154 14.169700 698.153846 14.029661 698.461538 13.889604 698.769231 13.749532 699.076923 13.609444 699.384615 13.469341 699.692308 13.329224 700.000000 13.189093 700.307692 13.048949 700.615385 12.908793 700.923077 12.768625 701.230769 12.628447 701.538462 12.488257 701.846154 12.348058 702.153846 12.207850 702.461538 12.067634 702.769231 11.927410 703.076923 11.787178 703.384615 11.646941 703.692308 11.506697 704.000000 11.366448 704.307692 11.226195 704.615385 11.085937 704.923077 10.945677 705.230769 10.805414 705.538462 10.665149 705.846154 10.524882 706.153846 10.384615 706.153846 540.000000" /></g></g><g class="titles" /><g class="plot overlay" transform="translate(60, 20)"><g class="series serie-0 color-0"><g class="dots"><circle class="dot reactive tooltip-trigger" cx="13.846153846153847" cy="529.6153846153845" r="2.5" /><desc class="value">877,498,198(kWh)</desc><desc class="x top">13.846153846153847</desc><desc class="y top">529.6153846153845</desc><desc class="x_label">2549</desc></g><g class="dots"><circle class="dot reactive tooltip-trigger" cx="90.76923076923076" cy="497.0548626861109" r="2.5" /><desc class="value">904,749,278(kWh)</desc><desc class="x top">90.76923076923076</desc><desc class="y top">497.0548626861109</desc><desc class="x_label">2550</desc></g><g class="dots"><circle class="dot reactive tooltip-trigger" cx="167.69230769230765" cy="465.06017957609015" r="2.5" /><desc class="value">931,526,787(kWh)</desc><desc class="x top">167.69230769230765</desc><desc class="y top">465.06017957609015</desc><desc class="x_label">2551</desc></g><g class="dots"><circle class="dot reactive tooltip-trigger" cx="244.6153846153846" cy="379.97788695151775" r="2.5" /><desc class="value">1,002,735,239(kWh)</desc><desc class="x top">244.6153846153846</desc><desc class="y top">379.97788695151775</desc><desc class="x_label">2552</desc></g><g class="dots"><circle class="dot reactive tooltip-trigger" cx="321.5384615384615" cy="264.7427409422362" r="2.5" /><desc class="value">1,099,179,706(kWh)</desc><desc class="x ">321.5384615384615</desc><desc class="y ">264.7427409422362</desc><desc class="x_label">2553</desc></g><g class="dots"><circle class="dot reactive tooltip-trigger" cx="398.46153846153845" cy="275.4278885482145" r="2.5" /><desc class="value">1,090,236,919(kWh)</desc><desc class="x left top">398.46153846153845</desc><desc class="y left top">275.4278885482145</desc><desc class="x_label">2554</desc></g><g class="dots"><circle class="dot reactive tooltip-trigger" cx="475.38461538461536" cy="131.69152397932504" r="2.5" /><desc class="value">1,210,535,088(kWh)</desc><desc class="x left">475.38461538461536</desc><desc class="y left">131.69152397932504</desc><desc class="x_label">2555</desc></g><g class="dots"><circle class="dot reactive tooltip-trigger" cx="552.3076923076923" cy="70.50096244291785" r="2.5" /><desc class="value">1,261,747,685(kWh)</desc><desc class="x left">552.3076923076923</desc><desc class="y left">70.50096244291785</desc><desc class="x_label">2556</desc></g><g class="dots"><circle class="dot reactive tooltip-trigger" cx="629.2307692307692" cy="43.76259506907286" r="2.5" /><desc class="value">1,284,125,993(kWh)</desc><desc class="x left">629.2307692307692</desc><desc class="y left">43.76259506907286</desc><desc class="x_label">2557</desc></g><g class="dots"><circle class="dot reactive tooltip-trigger" cx="706.1538461538461" cy="10.384615384615472" r="2.5" /><desc class="value">1,312,061,233(kWh)</desc><desc class="x left">706.1538461538461</desc><desc class="y left">10.384615384615472</desc><desc class="x_label">2558</desc></g></g></g><g class="plot text-overlay" transform="translate(60, 20)"><g class="series serie-0 color-0" /></g><g class="plot tooltip-overlay" transform="translate(60, 20)"><g class="tooltip" style="opacity: 0" transform="translate(0 0)"><rect class="tooltip-box" height="0" rx="0" ry="0" width="0" /><g class="text" /></g></g></g></svg>