<?xml version='1.0' encoding='utf-8'?>
<svg xmlns:xlink="http://www.w3.org/1999/xlink" class="pygal-chart" id="chart-086cb72a-acdf-4ec0-8b37-68c2cff6fde8" viewBox="0 0 800 600" xmlns="http://www.w3.org/2000/svg"><!--Generated with pygal 2.3.0 (etree) ©Kozea 2012-2016 on 2016-12-08--><!--http://pygal.org--><!--http://github.com/Kozea/pygal--><defs><style type="text/css">#chart-086cb72a-acdf-4ec0-8b37-68c2cff6fde8{-webkit-user-select:none;-webkit-font-smoothing:antialiased;font-family:Consolas,"Liberation Mono",Menlo,Courier,monospace}#chart-086cb72a-acdf-4ec0-8b37-68c2cff6fde8 .title{font-family:Consolas,"Liberation Mono",Menlo,Courier,monospace;font-size:16px}#chart-086cb72a-acdf-4ec0-8b37-68c2cff6fde8 .legends .legend text{font-family:Consolas,"Liberation Mono",Menlo,Courier,monospace;font-size:14px}#chart-086cb72a-acdf-4ec0-8b37-68c2cff6fde8 .axis text{font-family:Consolas,"Liberation Mono",Menlo,Courier,monospace;font-size:10px}#chart-086cb72a-acdf-4ec0-8b37-68c2cff6fde8 .axis text.major{font-family:Consolas,"Liberation Mono",Menlo,Courier,monospace;font-size:10px}#chart-086cb72a-acdf-4ec0-8b37-68c2cff6fde8 .text-overlay text.value{font-family:Consolas,"Liberation Mono",Menlo,Courier,monospace;font-size:16px}#chart-086cb72a-acdf-4ec0-8b37-68c2cff6fde8 .text-overlay text.label{font-family:Consolas,"Liberation Mono",Menlo,Courier,monospace;font-size:10px}#chart-086cb72a-acdf-4ec0-8b37-68c2cff6fde8 .tooltip{font-family:Consolas,"Liberation Mono",Menlo,Courier,monospace;font-size:14px}#chart-086cb72a-acdf-4ec0-8b37-68c2cff6fde8 text.no_data{font-family:Consolas,"Liberation Mono",Menlo,Courier,monospace;font-size:64px}
#chart-086cb72a-acdf-4ec0-8b37-68c2cff6fde8{background-color:rgba(249,249,249,1)}#chart-086cb72a-acdf-4ec0-8b37-68c2cff6fde8 path,#chart-086cb72a-acdf-4ec0-8b37-68c2cff6fde8 line,#chart-086cb72a-acdf-4ec0-8b37-68c2cff6fde8 rect,#chart-086cb72a-acdf-4ec0-8b37-68c2cff6fde8 circle{-webkit-transition:150ms;-moz-transition:150ms;transition:150ms}#chart-086cb72a-acdf-4ec0-8b37-68c2cff6fde8 .graph &gt; .background{fill:rgba(249,249,249,1)}#chart-086cb72a-acdf-4ec0-8b37-68c2cff6fde8 .plot &gt; .background{fill:rgba(255,255,255,1)}#chart-086cb72a-acdf-4ec0-8b37-68c2cff6fde8 .graph{fill:rgba(0,0,0,.87)}#chart-086cb72a-acdf-4ec0-8b37-68c2cff6fde8 text.no_data{fill:rgba(0,0,0,1)}#chart-086cb72a-acdf-4ec0-8b37-68c2cff6fde8 .title{fill:rgba(0,0,0,1)}#chart-086cb72a-acdf-4ec0-8b37-68c2cff6fde8 .legends .legend text{fill:rgba(0,0,0,.87)}#chart-086cb72a-acdf-4ec0-8b37-68c2cff6fde8 .legends .legend:hover text{fill:rgba(0,0,0,1)}#chart-086cb72a-acdf-4ec0-8b37-68c2cff6fde8 .axis .line{stroke:rgba(0,0,0,1)}#chart-086cb72a-acdf-4ec0-8b37-68c2cff6fde8 .axis .guide.line{stroke:rgba(0,0,0,.54)}#chart-086cb72a-acdf-4ec0-8b37-68c2cff6fde8 .axis .major.line{stroke:rgba(0,0,0,.87)}#chart-086cb72a-acdf-4ec0-8b37-68c2cff6fde8 .axis text.major{fill:rgba(0,0,0,1)}#chart-086cb72a-acdf-4ec0-8b37-68c2cff6fde8 .axis.y .guides:hover .guide.line,#chart-086cb72a-acdf-4ec0-8b37-68c2cff6fde8 .line-graph .axis.x .guides:hover .guide.line,#chart-086cb72a-acdf-4ec0-8b37-68c2cff6fde8 .stackedline-graph .axis.x .guides:hover .guide.line,#chart-086cb72a-acdf-4ec0-8b37-68c2cff6fde8 .xy-graph .axis.x .guides:hover .guide.line{stroke:rgba(0,0,0,1)}#chart-086cb72a-acdf-4ec0-8b37-68c2cff6fde8 .axis .guides:hover text{fill:rgba(0,0,0,1)}#chart-086cb72a-acdf-4ec0-8b37-68c2cff6fde8 .reactive{fill-opacity:.7;stroke-opacity:.8}#chart-086cb72a-acdf-4ec0-8b37-68c2cff6fde8 .ci{stroke:rgba(0,0,0,.87)}#chart-086cb72a-acdf-4ec0-8b37-68c2cff6fde8 .reactive.active,#chart-086cb72a-acdf-4ec0-8b37-68c2cff6fde8 .active .reactive{fill-opacity:.8;stroke-opacity:.9;stroke-width:4}#chart-086cb72a-acdf-4ec0-8b37-68c2cff6fde8 .ci .reactive.active{stroke-width:1.5}#chart-086cb72a-acdf-4ec0-8b37-68c2cff6fde8 .series text{fill:rgba(0,0,0,1)}#chart-086cb72a-acdf-4ec0-8b37-68c2cff6fde8 .tooltip rect{fill:rgba(255,255,255,1);stroke:rgba(0,0,0,1);-webkit-transition:opacity 150ms;-moz-transition:opacity 150ms;transition:opacity 150ms}#chart-086cb72a-acdf-4ec0-8b37-68c2cff6fde8 .tooltip .label{fill:rgba(0,0,0,.87)}#chart-086cb72a-acdf-4ec0-8b37-68c2cff6fde8 .tooltip .label{fill:rgba(0,0,0,.87)}#chart-086cb72a-acdf-4ec0-8b37-68c2cff6fde8 .tooltip .legend{font-size:.8em;fill:rgba(0,0,0,.54)}#chart-086cb72a-acdf-4ec0-8b37-68c2cff6fde8 .tooltip .x_label{font-size:.6em;fill:rgba(0,0,0,1)}#chart-086cb72a-acdf-4ec0-8b37-68c2cff6fde8 .tooltip .xlink{font-size:.5em;text-decoration:underline}#chart-086cb72a-acdf-4ec0-8b37-68c2cff6fde8 .tooltip .value{font-size:1.5em}#chart-086cb72a-acdf-4ec0-8b37-68c2cff6fde8 .bound{font-size:.5em}#chart-086cb72a-acdf-4ec0-8b37-68c2cff6fde8 .max-value{font-size:.75em;fill:rgba(0,0,0,.54)}#chart-086cb72a-acdf-4ec0-8b37-68c2cff6fde8 .map-element{fill:rgba(255,255,255,1);stroke:rgba(0,0,0,.54) !important}#chart-086cb72a-acdf-4ec0-8b37-68c2cff6fde8 .map-element .reactive{fill-opacity:inherit;stroke-opacity:inherit}#chart-086cb72a-acdf-4ec0-8b37-68c2cff6fde8 .color-0,#chart-086cb72a-acdf-4ec0-8b37-68c2cff6fde8 .color-0 a:visited{stroke:#e86fa0;fill:#e86fa0}#chart-086cb72a-acdf-4ec0-8b37-68c2cff6fde8 .text-overlay .color-0 text{fill:black}
#chart-086cb72a-acdf-4ec0-8b37-68c2cff6fde8 text.no_data{text-anchor:middle}#chart-086cb72a-acdf-4ec0-8b37-68c2cff6fde8 .guide.line{fill:none}#chart-086cb72a-acdf-4ec0-8b37-68c2cff6fde8 .centered{text-anchor:middle}#chart-086cb72a-acdf-4ec0-8b37-68c2cff6fde8 .title{text-anchor:middle}#chart-086cb72a-acdf-4ec0-8b37-68c2cff6fde8 .legends .legend text{fill-opacity:1}#chart-086cb72a-acdf-4ec0-8b37-68c2cff6fde8 .axis.x text{text-anchor:middle}#chart-086cb72a-acdf-4ec0-8b37-68c2cff6fde8 .axis.x:not(.web) text[transform]{text-anchor:start}#chart-086cb72a-acdf-4ec0-8b37-68c2cff6fde8 .axis.x:not(.web) text[transform].backwards{text-anchor:end}#chart-086cb72a-acdf-4ec0-8b37-68c2cff6fde8 .axis.y text{text-anchor:end}#chart-086cb72a-acdf-4ec0-8b37-68c2cff6fde8 .axis.y text[transform].backwards{text-anchor:start}#chart-086cb72a-acdf-4ec0-8b37-68c2cff6fde8 .axis.y2 text{text-anchor:start}#chart-086cb72a-acdf-4ec0-8b37-68c2cff6fde8 .axis.y2 text[transform].backwards{text-anchor:end}#chart-086cb72a-acdf-4ec0-8b37-68c2cff6fde8 .axis .guide.line{stroke-dasharray:4,4}#chart-086cb72a-acdf-4ec0-8b37-68c2cff6fde8 .axis .major.guide.line{stroke-dasharray:6,6}#chart-086cb72a-acdf-4ec0-8b37-68c2cff6fde8 .horizontal .axis.y .guide.line,#chart-086cb72a-acdf-4ec0-8b37-68c2cff6fde8 .horizontal .axis.y2 .guide.line,#chart-086cb72a-acdf-4ec0-8b37-68c2cff6fde8 .vertical .axis.x .guide.line{opacity:0}#chart-086cb72a-acdf-4ec0-8b37-68c2cff6fde8 .horizontal .axis.always_show .guide.line,#chart-086cb72a-acdf-4ec0-8b37-68c2cff6fde8 .vertical .axis.always_show .guide.line{opacity:1 !important}#chart-086cb72a-acdf-4ec0-8b37-68c2cff6fde8 .axis.y .guides:hover .guide.line,#chart-086cb72a-acdf-4ec0-8b37-68c2cff6fde8 .axis.y2 .guides:hover .guide.line,#chart-086cb72a-acdf-4ec0-8b37-68c2cff6fde8 .axis.x .guides:hover .guide.line{opacity:1}#chart-086cb72a-acdf-4ec0-8b37-68c2cff6fde8 .axis .guides:hover text{opacity:1}#chart-086cb72a-acdf-4ec0-8b37-68c2cff6fde8 .nofill{fill:none}#chart-086cb72a-acdf-4ec0-8b37-68c2cff6fde8 .subtle-fill{fill-opacity:.2}#chart-086cb72a-acdf-4ec0-8b37-68c2cff6fde8 .dot{stroke-width:1px;fill-opacity:1}#chart-086cb72a-acdf-4ec0-8b37-68c2cff6fde8 .dot.active{stroke-width:5px}#chart-086cb72a-acdf-4ec0-8b37-68c2cff6fde8 .dot.negative{fill:transparent}#chart-086cb72a-acdf-4ec0-8b37-68c2cff6fde8 text,#chart-086cb72a-acdf-4ec0-8b37-68c2cff6fde8 tspan{stroke:none !important}#chart-086cb72a-acdf-4ec0-8b37-68c2cff6fde8 .series text.active{opacity:1}#chart-086cb72a-acdf-4ec0-8b37-68c2cff6fde8 .tooltip rect{fill-opacity:.95;stroke-width:.5}#chart-086cb72a-acdf-4ec0-8b37-68c2cff6fde8 .tooltip text{fill-opacity:1}#chart-086cb72a-acdf-4ec0-8b37-68c2cff6fde8 .showable{visibility:hidden}#chart-086cb72a-acdf-4ec0-8b37-68c2cff6fde8 .showable.shown{visibility:visible}#chart-086cb72a-acdf-4ec0-8b37-68c2cff6fde8 .gauge-background{fill:rgba(229,229,229,1);stroke:none}#chart-086cb72a-acdf-4ec0-8b37-68c2cff6fde8 .bg-lines{stroke:rgba(249,249,249,1);stroke-width:2px}</style><script type="text/javascript">window.pygal = window.pygal || {};window.pygal.config = window.pygal.config || {};window.pygal.config['086cb72a-acdf-4ec0-8b37-68c2cff6fde8'] = {"no_data_text": "No data", "no_prefix": false, "xrange": null, "print_values_position": "center", "truncate_label": null, "x_labels": ["2549", "2550", "2551", "2552", "2553", "2554", "2555", "2556", "2557", "2558"], "title": null, "force_uri_protocol": "https", "defs": [], "formatter": null, "classes": ["pygal-chart"], "y_labels": null, "rounded_bars": null, "explicit_size": false, "x_labels_major_every": null, "legend_at_bottom_columns": null, "stroke_style": null, "half_pie": false, "spacing": 10, "tooltip_fancy_mode": true, "inverse_y_axis": false, "width": 800, "inner_radius": 0, "interpolation_parameters": {}, "tooltip_border_radius": 0, "style": {"no_data_font_family": "Consolas, \"Liberation Mono\", Menlo, Courier, monospace", "tooltip_font_size": 14, "tooltip_font_family": "Consolas, \"Liberation Mono\", Menlo, Courier, monospace", "stroke_opacity_hover": ".9", "legend_font_family": "Consolas, \"Liberation Mono\", Menlo, Courier, monospace", "font_family": "Consolas, \"Liberation Mono\", Menlo, Courier, monospace", "title_font_family": "Consolas, \"Liberation Mono\", Menlo, Courier, monospace", "background": "rgba(249, 249, 249, 1)", "stroke_opacity": ".8", "foreground": "rgba(0, 0, 0, .87)", "value_background": "rgba(229, 229, 229, 1)", "guide_stroke_dasharray": "4,4", "foreground_subtle": "rgba(0, 0, 0, .54)", "opacity_hover": ".8", "value_font_family": "Consolas, \"Liberation Mono\", Menlo, Courier, monospace", "value_label_font_size": 10, "plot_background": "rgba(255, 255, 255, 1)", "ci_colors": [], "label_font_size": 10, "major_label_font_size": 10, "title_font_size": 16, "no_data_font_size": 64, "value_font_size": 16, "value_colors": [], "label_font_family": "Consolas, \"Liberation Mono\", Menlo, Courier, monospace", "major_guide_stroke_dasharray": "6,6", "transition": "150ms", "foreground_strong": "rgba(0, 0, 0, 1)", "colors": ["#e86fa0", "#e88f6f", "#e8df6f", "#a0e86f", "#6fe88f", "#6fe8df", "#6fa0e8", "#8f6fe8", "#df6fe8", "#e86fa0"], "opacity": ".7", "legend_font_size": 14, "value_label_font_family": "Consolas, \"Liberation Mono\", Menlo, Courier, monospace", "major_label_font_family": "Consolas, \"Liberation Mono\", Menlo, Courier, monospace"}, "x_labels_major_count": null, "interpolation_precision": 250, "missing_value_fill_truncation": "x", "stack_from_top": false, "truncate_legend": null, "show_minor_x_labels": true, "print_zeroes": true, "css": ["file://style.css", "file://graph.css"], "y_label_rotation": 0, "legend_at_bottom": false, "print_values": false, "margin_top": null, "max_scale": 16, "allow_interruptions": false, "show_x_labels": true, "strict": false, "show_x_guides": false, "stroke": true, "margin_left": null, "dynamic_print_values": false, "print_labels": false, "show_y_labels": true, "x_labels_major": null, "range": null, "x_label_rotation": 0, "margin": 20, "zero": 0, "include_x_axis": false, "height": 600, "show_minor_y_labels": true, "show_dots": true, "interpolate": "cubic", "show_y_guides": true, "y_labels_major": null, "box_mode": "extremes", "margin_bottom": null, "order_min": null, "legend_box_size": 12, "fill": true, "show_only_major_dots": false, "js": ["//kozea.github.io/pygal.js/2.0.x/pygal-tooltips.min.js"], "x_title": null, "y_labels_major_every": null, "y_labels_major_count": null, "disable_xml_declaration": false, "y_title": null, "logarithmic": false, "pretty_print": false, "min_scale": 4, "dots_size": 2.5, "margin_right": null, "legends": [null], "secondary_range": null, "show_legend": false}</script><script type="text/javascript" xlink:href="https://kozea.github.io/pygal.js/2.0.x/pygal-tooltips.min.js" /></defs><title>Pygal</title><g class="graph stackedline-graph vertical"><rect class="background" height="600" width="800" x="0" y="0" /><g class="plot" transform="translate(54, 20)"><rect class="background" height="540" width="726.0" x="0" y="0" /><g class="axis y"><path class="line" d="M0.000000 540.000000 h726.000000" /><g class="guides"><path class="guide line" d="M0.000000 481.843403 h726.000000" /><text class="" x="-5" y="485.34340289288974">220M</text><title>220M</title></g><g class="guides"><path class="guide line" d="M0.000000 427.104600 h726.000000" /><text class="" x="-5" y="430.6046002805984">240M</text><title>240M</title></g><g class="guides"><path class="guide line" d="M0.000000 372.365798 h726.000000" /><text class="" x="-5" y="375.865797668307">260M</text><title>260M</title></g><g class="guides"><path class="guide line" d="M0.000000 317.626995 h726.000000" /><text class="" x="-5" y="321.12699505601563">280M</text><title>280M</title></g><g class="guides"><path class="major guide line" d="M0.000000 262.888192 h726.000000" /><text class="major" x="-5" y="266.38819244372434">300M</text><title>300M</title></g><g class="guides"><path class="guide line" d="M0.000000 208.149390 h726.000000" /><text class="" x="-5" y="211.64938983143293">320M</text><title>320M</title></g><g class="guides"><path class="guide line" d="M0.000000 153.410587 h726.000000" /><text class="" x="-5" y="156.91058721914163">340M</text><title>340M</title></g><g class="guides"><path class="guide line" d="M0.000000 98.671785 h726.000000" /><text class="" x="-5" y="102.17178460685028">360M</text><title>360M</title></g><g class="guides"><path class="guide line" d="M0.000000 43.932982 h726.000000" /><text class="" x="-5" y="47.43298199455893">380M</text><title>380M</title></g></g><g class="axis x"><g class="guides"><path class="line" d="M13.961538 0.000000 v540.000000" /><text class="" x="13.96153846153846" y="555.0">2549</text></g><g class="guides"><path class="guide line" d="M91.525641 0.000000 v540.000000" /><text class="" x="91.52564102564101" y="555.0">2550</text></g><g class="guides"><path class="guide line" d="M169.089744 0.000000 v540.000000" /><text class="" x="169.08974358974356" y="555.0">2551</text></g><g class="guides"><path class="guide line" d="M246.653846 0.000000 v540.000000" /><text class="" x="246.65384615384613" y="555.0">2552</text></g><g class="guides"><path class="guide line" d="M324.217949 0.000000 v540.000000" /><text class="" x="324.21794871794873" y="555.0">2553</text></g><g class="guides"><path class="guide line" d="M401.782051 0.000000 v540.000000" /><text class="" x="401.78205128205127" y="555.0">2554</text></g><g class="guides"><path class="guide line" d="M479.346154 0.000000 v540.000000" /><text class="" x="479.3461538461538" y="555.0">2555</text></g><g class="guides"><path class="guide line" d="M556.910256 0.000000 v540.000000" /><text class="" x="556.9102564102565" y="555.0">2556</text></g><g class="guides"><path class="guide line" d="M634.474359 0.000000 v540.000000" /><text class="" x="634.474358974359" y="555.0">2557</text></g><g class="guides"><path class="guide line" d="M712.038462 0.000000 v540.000000" /><text class="" x="712.0384615384615" y="555.0">2558</text></g></g><g class="series serie-0 color-0"><path class="line reactive" d="M13.961538 540.000000 L13.961538 529.615385 14.271795 529.409142 14.582051 529.202903 14.892308 528.996669 15.202564 528.790444 15.512821 528.584232 15.823077 528.378034 16.133333 528.171853 16.443590 527.965694 16.753846 527.759558 17.064103 527.553449 17.374359 527.347370 17.684615 527.141323 17.994872 526.935311 18.305128 526.729339 18.615385 526.523407 18.925641 526.317521 19.235897 526.111681 19.546154 525.905892 19.856410 525.700156 20.166667 525.494477 20.476923 525.288857 20.787179 525.083299 21.097436 524.877806 21.407692 524.672382 21.717949 524.467028 22.028205 524.261749 22.338462 524.056547 22.648718 523.851424 22.958974 523.646385 23.269231 523.441432 23.579487 523.236567 23.889744 523.031795 24.200000 522.827117 24.510256 522.622537 24.820513 522.418058 25.130769 522.213682 25.441026 522.009413 25.751282 521.805254 26.061538 521.601208 26.371795 521.397277 26.682051 521.193464 26.992308 520.989773 27.302564 520.786207 27.612821 520.582768 27.923077 520.379459 28.233333 520.176284 28.543590 519.973245 28.853846 519.770345 29.164103 519.567588 29.474359 519.364976 29.784615 519.162512 30.094872 518.960199 30.405128 518.758040 30.715385 518.556038 31.025641 518.354196 31.335897 518.152517 31.646154 517.951005 31.956410 517.749661 32.266667 517.548489 32.576923 517.347492 32.887179 517.146672 33.197436 516.946034 33.507692 516.745579 33.817949 516.545311 34.128205 516.345232 34.438462 516.145346 34.748718 515.945656 35.058974 515.746164 35.369231 515.546874 35.679487 515.347788 35.989744 515.148910 36.300000 514.950242 36.610256 514.751788 36.920513 514.553549 37.230769 514.355530 37.541026 514.157734 37.851282 513.960162 38.161538 513.762819 38.471795 513.565707 38.782051 513.368829 39.092308 513.172188 39.402564 512.975787 39.712821 512.779629 40.023077 512.583717 40.333333 512.388054 40.643590 512.192643 40.953846 511.997487 41.264103 511.802589 41.574359 511.607951 41.884615 511.413577 42.194872 511.219470 42.505128 511.025633 42.815385 510.832068 43.125641 510.638778 43.435897 510.445768 43.746154 510.253039 44.056410 510.060594 44.366667 509.868437 44.676923 509.676570 44.987179 509.484996 45.297436 509.293719 45.607692 509.102742 45.917949 508.912066 46.228205 508.721696 46.538462 508.531634 46.848718 508.341883 47.158974 508.152446 47.469231 507.963326 47.779487 507.774527 48.089744 507.586050 48.400000 507.397899 48.710256 507.210078 49.020513 507.022588 49.330769 506.835433 49.641026 506.648616 49.951282 506.462139 50.261538 506.276007 50.571795 506.090221 50.882051 505.904785 51.192308 505.719701 51.502564 505.534973 51.812821 505.350604 52.123077 505.166596 52.433333 504.982953 52.743590 504.799677 53.053846 504.616772 53.364103 504.434240 53.674359 504.252084 53.984615 504.070308 54.294872 503.888914 54.605128 503.707905 54.915385 503.527285 55.225641 503.347055 55.535897 503.167220 55.846154 502.987782 56.156410 502.808744 56.466667 502.630109 56.776923 502.451880 57.087179 502.274060 57.397436 502.096651 57.707692 501.919658 58.017949 501.743083 58.328205 501.566928 58.638462 501.391197 58.948718 501.215893 59.258974 501.041018 59.569231 500.866577 59.879487 500.692570 60.189744 500.519003 60.500000 500.345877 60.810256 500.173195 61.120513 500.000961 61.430769 499.829178 61.741026 499.657847 62.051282 499.486974 62.361538 499.316559 62.671795 499.146607 62.982051 498.977120 63.292308 498.808101 63.602564 498.639554 63.912821 498.471480 64.223077 498.303884 64.533333 498.136768 64.843590 497.970135 65.153846 497.803988 65.464103 497.638330 65.774359 497.473163 66.084615 497.308492 66.394872 497.144319 66.705128 496.980646 67.015385 496.817477 67.325641 496.654815 67.635897 496.492662 67.946154 496.331023 68.256410 496.169899 68.566667 496.009293 68.876923 495.849209 69.187179 495.689650 69.497436 495.530618 69.807692 495.372116 70.117949 495.214148 70.428205 495.056717 70.738462 494.899824 71.048718 494.743474 71.358974 494.587670 71.669231 494.432413 71.979487 494.277708 72.289744 494.123557 72.600000 493.969963 72.910256 493.816929 73.220513 493.664458 73.530769 493.512553 73.841026 493.361217 74.151282 493.210453 74.461538 493.060264 74.771795 492.910653 75.082051 492.761623 75.392308 492.613176 75.702564 492.465317 76.012821 492.318047 76.323077 492.171369 76.633333 492.025288 76.943590 491.879804 77.253846 491.734923 77.564103 491.590646 77.874359 491.446977 78.184615 491.303918 78.494872 491.161472 78.805128 491.019643 79.115385 490.878433 79.425641 490.737846 79.735897 490.597883 80.046154 490.458549 80.356410 490.319847 80.666667 490.181778 80.976923 490.044347 81.287179 489.907555 81.597436 489.771407 81.907692 489.635905 82.217949 489.501052 82.528205 489.366851 82.838462 489.233304 83.148718 489.100416 83.458974 488.968188 83.769231 488.836624 84.079487 488.705727 84.389744 488.575500 84.700000 488.445945 85.010256 488.317066 85.320513 488.188866 85.630769 488.061347 85.941026 487.934513 86.251282 487.808367 86.561538 487.682911 86.871795 487.558148 87.182051 487.434081 87.492308 487.310715 87.802564 487.188050 88.112821 487.066091 88.423077 486.944840 88.733333 486.824300 89.043590 486.704474 89.353846 486.585366 89.664103 486.466977 89.974359 486.349312 90.284615 486.232373 90.594872 486.116163 90.905128 486.000684 91.215385 485.885941 91.525641 485.771936 91.835897 485.658669 92.146154 485.546136 92.456410 485.434327 92.766667 485.323236 93.076923 485.212854 93.387179 485.103173 93.697436 484.994185 94.007692 484.885882 94.317949 484.778257 94.628205 484.671302 94.938462 484.565008 95.248718 484.459367 95.558974 484.354372 95.869231 484.250015 96.179487 484.146288 96.489744 484.043183 96.800000 483.940692 97.110256 483.838806 97.420513 483.737519 97.730769 483.636822 98.041026 483.536707 98.351282 483.437167 98.661538 483.338193 98.971795 483.239777 99.282051 483.141912 99.592308 483.044589 99.902564 482.947801 100.212821 482.851539 100.523077 482.755797 100.833333 482.660565 101.143590 482.565836 101.453846 482.471602 101.764103 482.377856 102.074359 482.284588 102.384615 482.191792 102.694872 482.099458 103.005128 482.007580 103.315385 481.916150 103.625641 481.825159 103.935897 481.734599 104.246154 481.644463 104.556410 481.554743 104.866667 481.465430 105.176923 481.376518 105.487179 481.287997 105.797436 481.199860 106.107692 481.112099 106.417949 481.024706 106.728205 480.937673 107.038462 480.850993 107.348718 480.764656 107.658974 480.678657 107.969231 480.592985 108.279487 480.507634 108.589744 480.422596 108.900000 480.337862 109.210256 480.253425 109.520513 480.169276 109.830769 480.085409 110.141026 480.001814 110.451282 479.918484 110.761538 479.835411 111.071795 479.752588 111.382051 479.670005 111.692308 479.587656 112.002564 479.505532 112.312821 479.423626 112.623077 479.341929 112.933333 479.260433 113.243590 479.179131 113.553846 479.098015 113.864103 479.017076 114.174359 478.936307 114.484615 478.855700 114.794872 478.775247 115.105128 478.694940 115.415385 478.614771 115.725641 478.534732 116.035897 478.454815 116.346154 478.375013 116.656410 478.295317 116.966667 478.215719 117.276923 478.136212 117.587179 478.056787 117.897436 477.977437 118.207692 477.898153 118.517949 477.818928 118.828205 477.739754 119.138462 477.660623 119.448718 477.581527 119.758974 477.502458 120.069231 477.423408 120.379487 477.344369 120.689744 477.265334 121.000000 477.186293 121.310256 477.107240 121.620513 477.028167 121.930769 476.949064 122.241026 476.869926 122.551282 476.790743 122.861538 476.711508 123.171795 476.632212 123.482051 476.552849 123.792308 476.473409 124.102564 476.393885 124.412821 476.314269 124.723077 476.234554 125.033333 476.154730 125.343590 476.074791 125.653846 475.994728 125.964103 475.914533 126.274359 475.834199 126.584615 475.753718 126.894872 475.673081 127.205128 475.592280 127.515385 475.511309 127.825641 475.430158 128.135897 475.348820 128.446154 475.267287 128.756410 475.185551 129.066667 475.103604 129.376923 475.021438 129.687179 474.939045 129.997436 474.856418 130.307692 474.773548 130.617949 474.690427 130.928205 474.607048 131.238462 474.523402 131.548718 474.439482 131.858974 474.355280 132.169231 474.270787 132.479487 474.185997 132.789744 474.100900 133.100000 474.015489 133.410256 473.929756 133.720513 473.843693 134.030769 473.757292 134.341026 473.670546 134.651282 473.583446 134.961538 473.495984 135.271795 473.408152 135.582051 473.319943 135.892308 473.231349 136.202564 473.142361 136.512821 473.052972 136.823077 472.963174 137.133333 472.872959 137.443590 472.782318 137.753846 472.691245 138.064103 472.599730 138.374359 472.507767 138.684615 472.415347 138.994872 472.322462 139.305128 472.229104 139.615385 472.135266 139.925641 472.040939 140.235897 471.946116 140.546154 471.850788 140.856410 471.754948 141.166667 471.658588 141.476923 471.561700 141.787179 471.464275 142.097436 471.366306 142.407692 471.267786 142.717949 471.168705 143.028205 471.069057 143.338462 470.968833 143.648718 470.868025 143.958974 470.766625 144.269231 470.664626 144.579487 470.562019 144.889744 470.458797 145.200000 470.354951 145.510256 470.250474 145.820513 470.145358 146.130769 470.039595 146.441026 469.933176 146.751282 469.826095 147.061538 469.718342 147.371795 469.609911 147.682051 469.500793 147.992308 469.390980 148.302564 469.280464 148.612821 469.169238 148.923077 469.057293 149.233333 468.944622 149.543590 468.831216 149.853846 468.717068 150.164103 468.602169 150.474359 468.486513 150.784615 468.370090 151.094872 468.252893 151.405128 468.134914 151.715385 468.016145 152.025641 467.896579 152.335897 467.776206 152.646154 467.655020 152.956410 467.533012 153.266667 467.410174 153.576923 467.286499 153.887179 467.161979 154.197436 467.036605 154.507692 466.910369 154.817949 466.783265 155.128205 466.655283 155.438462 466.526416 155.748718 466.396656 156.058974 466.265995 156.369231 466.134425 156.679487 466.001939 156.989744 465.868527 157.300000 465.734183 157.610256 465.598898 157.920513 465.462665 158.230769 465.325475 158.541026 465.187320 158.851282 465.048193 159.161538 464.908086 159.471795 464.766991 159.782051 464.624899 160.092308 464.481804 160.402564 464.337696 160.712821 464.192569 161.023077 464.046413 161.333333 463.899222 161.643590 463.750987 161.953846 463.601700 162.264103 463.451353 162.574359 463.299939 162.884615 463.147450 163.194872 462.993877 163.505128 462.839213 163.815385 462.683449 164.125641 462.526579 164.435897 462.368593 164.746154 462.209484 165.056410 462.049244 165.366667 461.887865 165.676923 461.725339 165.987179 461.561659 166.297436 461.396815 166.607692 461.230801 166.917949 461.063609 167.228205 460.895230 167.538462 460.725656 167.848718 460.554880 168.158974 460.382894 168.469231 460.209689 168.779487 460.035258 169.089744 459.859594 169.400000 459.682689 169.710256 459.504546 170.020513 459.325170 170.330769 459.144565 170.641026 458.962735 170.951282 458.779685 171.261538 458.595419 171.571795 458.409940 171.882051 458.223255 172.192308 458.035366 172.502564 457.846278 172.812821 457.655996 173.123077 457.464524 173.433333 457.271866 173.743590 457.078026 174.053846 456.883009 174.364103 456.686819 174.674359 456.489461 174.984615 456.290938 175.294872 456.091256 175.605128 455.890418 175.915385 455.688428 176.225641 455.485292 176.535897 455.281013 176.846154 455.075596 177.156410 454.869044 177.466667 454.661363 177.776923 454.452557 178.087179 454.242630 178.397436 454.031586 178.707692 453.819430 179.017949 453.606165 179.328205 453.391797 179.638462 453.176330 179.948718 452.959767 180.258974 452.742114 180.569231 452.523374 180.879487 452.303552 181.189744 452.082653 181.500000 451.860679 181.810256 451.637637 182.120513 451.413530 182.430769 451.188363 182.741026 450.962139 183.051282 450.734863 183.361538 450.506540 183.671795 450.277174 183.982051 450.046769 184.292308 449.815329 184.602564 449.582859 184.912821 449.349363 185.223077 449.114846 185.533333 448.879311 185.843590 448.642763 186.153846 448.405207 186.464103 448.166646 186.774359 447.927086 187.084615 447.686530 187.394872 447.444982 187.705128 447.202447 188.015385 446.958930 188.325641 446.714435 188.635897 446.468965 188.946154 446.222526 189.256410 445.975121 189.566667 445.726755 189.876923 445.477432 190.187179 445.227158 190.497436 444.975934 190.807692 444.723768 191.117949 444.470661 191.428205 444.216620 191.738462 443.961648 192.048718 443.705749 192.358974 443.448928 192.669231 443.191189 192.979487 442.932537 193.289744 442.672975 193.600000 442.412509 193.910256 442.151142 194.220513 441.888879 194.530769 441.625724 194.841026 441.361681 195.151282 441.096756 195.461538 440.830951 195.771795 440.564271 196.082051 440.296722 196.392308 440.028306 196.702564 439.759029 197.012821 439.488894 197.323077 439.217907 197.633333 438.946070 197.943590 438.673390 198.253846 438.399869 198.564103 438.125513 198.874359 437.850325 199.184615 437.574310 199.494872 437.297472 199.805128 437.019816 200.115385 436.741346 200.425641 436.462066 200.735897 436.181981 201.046154 435.901095 201.356410 435.619411 201.666667 435.336936 201.976923 435.053672 202.287179 434.769624 202.597436 434.484797 202.907692 434.199195 203.217949 433.912821 203.528205 433.625682 203.838462 433.337780 204.148718 433.049120 204.458974 432.759706 204.769231 432.469543 205.079487 432.178636 205.389744 431.886987 205.700000 431.594603 206.010256 431.301486 206.320513 431.007642 206.630769 430.713075 206.941026 430.417788 207.251282 430.121787 207.561538 429.825076 207.871795 429.527658 208.182051 429.229539 208.492308 428.930722 208.802564 428.631213 209.112821 428.331014 209.423077 428.030132 209.733333 427.728569 210.043590 427.426330 210.353846 427.123420 210.664103 426.819843 210.974359 426.515603 211.284615 426.210705 211.594872 425.905152 211.905128 425.598950 212.215385 425.292102 212.525641 424.984613 212.835897 424.676487 213.146154 424.367728 213.456410 424.058341 213.766667 423.748331 214.076923 423.437701 214.387179 423.126455 214.697436 422.814599 215.007692 422.502136 215.317949 422.189071 215.628205 421.875408 215.938462 421.561151 216.248718 421.246305 216.558974 420.930874 216.869231 420.614862 217.179487 420.298274 217.489744 419.981114 217.800000 419.663386 218.110256 419.345095 218.420513 419.026245 218.730769 418.706840 219.041026 418.386884 219.351282 418.066383 219.661538 417.745340 219.971795 417.423759 220.282051 417.101646 220.592308 416.779003 220.902564 416.455836 221.212821 416.132149 221.523077 415.807946 221.833333 415.483232 222.143590 415.158010 222.453846 414.832286 222.764103 414.506063 223.074359 414.179346 223.384615 413.852139 223.694872 413.524446 224.005128 413.196272 224.315385 412.867622 224.625641 412.538498 224.935897 412.208907 225.246154 411.878851 225.556410 411.548336 225.866667 411.217365 226.176923 410.885944 226.487179 410.554076 226.797436 410.221765 227.107692 409.889017 227.417949 409.555835 227.728205 409.222223 228.038462 408.888187 228.348718 408.553730 228.658974 408.218856 228.969231 407.883570 229.279487 407.547877 229.589744 407.211780 229.900000 406.875284 230.210256 406.538393 230.520513 406.201112 230.830769 405.863445 231.141026 405.525395 231.451282 405.186969 231.761538 404.848169 232.071795 404.509000 232.382051 404.169467 232.692308 403.829574 233.002564 403.489324 233.312821 403.148724 233.623077 402.807776 233.933333 402.466485 234.243590 402.124855 234.553846 401.782891 234.864103 401.440598 235.174359 401.097978 235.484615 400.755038 235.794872 400.411780 236.105128 400.068210 236.415385 399.724331 236.725641 399.380149 237.035897 399.035666 237.346154 398.690889 237.656410 398.345820 237.966667 398.000465 238.276923 397.654827 238.587179 397.308911 238.897436 396.962722 239.207692 396.616263 239.517949 396.269539 239.828205 395.922554 240.138462 395.575313 240.448718 395.227819 240.758974 394.880078 241.069231 394.532093 241.379487 394.183869 241.689744 393.835411 242.000000 393.486722 242.310256 393.137806 242.620513 392.788669 242.930769 392.439314 243.241026 392.089746 243.551282 391.739969 243.861538 391.389988 244.171795 391.039806 244.482051 390.689428 244.792308 390.338859 245.102564 389.988102 245.412821 389.637163 245.723077 389.286045 246.033333 388.934752 246.343590 388.583290 246.653846 388.231662 246.964103 387.879873 247.274359 387.527929 247.584615 387.175839 247.894872 386.823609 248.205128 386.471246 248.515385 386.118757 248.825641 385.766150 249.135897 385.413432 249.446154 385.060609 249.756410 384.707689 250.066667 384.354680 250.376923 384.001587 250.687179 383.648419 250.997436 383.295183 251.307692 382.941885 251.617949 382.588533 251.928205 382.235134 252.238462 381.881695 252.548718 381.528223 252.858974 381.174725 253.169231 380.821209 253.479487 380.467682 253.789744 380.114151 254.100000 379.760622 254.410256 379.407104 254.720513 379.053602 255.030769 378.700125 255.341026 378.346680 255.651282 377.993273 255.961538 377.639912 256.271795 377.286604 256.582051 376.933357 256.892308 376.580176 257.202564 376.227070 257.512821 375.874045 257.823077 375.521109 258.133333 375.168268 258.443590 374.815531 258.753846 374.462904 259.064103 374.110394 259.374359 373.758008 259.684615 373.405754 259.994872 373.053638 260.305128 372.701668 260.615385 372.349852 260.925641 371.998195 261.235897 371.646705 261.546154 371.295390 261.856410 370.944257 262.166667 370.593312 262.476923 370.242563 262.787179 369.892017 263.097436 369.541680 263.407692 369.191562 263.717949 368.841667 264.028205 368.492004 264.338462 368.142580 264.648718 367.793401 264.958974 367.444476 265.269231 367.095810 265.579487 366.747412 265.889744 366.399288 266.200000 366.051446 266.510256 365.703892 266.820513 365.356634 267.130769 365.009679 267.441026 364.663034 267.751282 364.316707 268.061538 363.970703 268.371795 363.625032 268.682051 363.279698 268.992308 362.934711 269.302564 362.590077 269.612821 362.245803 269.923077 361.901895 270.233333 361.558363 270.543590 361.215212 270.853846 360.872449 271.164103 360.530083 271.474359 360.188119 271.784615 359.846565 272.094872 359.505429 272.405128 359.164717 272.715385 358.824436 273.025641 358.484594 273.335897 358.145198 273.646154 357.806255 273.956410 357.467772 274.266667 357.129756 274.576923 356.792215 274.887179 356.455155 275.197436 356.118584 275.507692 355.782509 275.817949 355.446936 276.128205 355.111874 276.438462 354.777329 276.748718 354.443308 277.058974 354.109818 277.369231 353.776868 277.679487 353.444463 277.989744 353.112611 278.300000 352.781320 278.610256 352.450595 278.920513 352.120445 279.230769 351.790876 279.541026 351.461896 279.851282 351.133512 280.161538 350.805731 280.471795 350.478560 280.782051 350.152006 281.092308 349.826077 281.402564 349.500779 281.712821 349.176119 282.023077 348.852106 282.333333 348.528745 282.643590 348.206045 282.953846 347.884012 283.264103 347.562653 283.574359 347.241976 283.884615 346.921987 284.194872 346.602694 284.505128 346.284104 284.815385 345.966224 285.125641 345.649062 285.435897 345.332624 285.746154 345.016917 286.056410 344.701949 286.366667 344.387727 286.676923 344.074258 286.987179 343.761548 287.297436 343.449607 287.607692 343.138439 287.917949 342.828053 288.228205 342.518456 288.538462 342.209654 288.848718 341.901656 289.158974 341.594467 289.469231 341.288096 289.779487 340.982549 290.089744 340.677834 290.400000 340.373957 290.710256 340.070926 291.020513 339.768748 291.330769 339.467430 291.641026 339.166980 291.951282 338.867404 292.261538 338.568709 292.571795 338.270903 292.882051 337.973993 293.192308 337.677986 293.502564 337.382889 293.812821 337.088709 294.123077 336.795453 294.433333 336.503129 294.743590 336.211744 295.053846 335.921304 295.364103 335.631818 295.674359 335.343291 295.984615 335.055732 296.294872 334.769147 296.605128 334.483544 296.915385 334.198929 297.225641 333.915311 297.535897 333.632695 297.846154 333.351089 298.156410 333.070500 298.466667 332.790936 298.776923 332.512404 299.087179 332.234910 299.397436 331.958462 299.707692 331.683066 300.017949 331.408731 300.328205 331.135464 300.638462 330.863270 300.948718 330.592158 301.258974 330.322135 301.569231 330.053207 301.879487 329.785383 302.189744 329.518669 302.500000 329.253071 302.810256 328.988599 303.120513 328.725258 303.430769 328.463055 303.741026 328.201998 304.051282 327.942094 304.361538 327.683351 304.671795 327.425774 304.982051 327.169372 305.292308 326.914152 305.602564 326.660120 305.912821 326.407284 306.223077 326.155651 306.533333 325.905228 306.843590 325.656022 307.153846 325.408041 307.464103 325.161291 307.774359 324.915780 308.084615 324.671514 308.394872 324.428502 308.705128 324.186750 309.015385 323.946265 309.325641 323.707054 309.635897 323.469125 309.946154 323.232485 310.256410 322.997140 310.566667 322.763098 310.876923 322.530367 311.187179 322.298953 311.497436 322.068863 311.807692 321.840104 312.117949 321.612685 312.428205 321.386611 312.738462 321.161890 313.048718 320.938529 313.358974 320.716535 313.669231 320.495916 313.979487 320.276678 314.289744 320.058829 314.600000 319.842376 314.910256 319.627326 315.220513 319.413686 315.530769 319.201463 315.841026 318.990665 316.151282 318.781298 316.461538 318.573369 316.771795 318.366887 317.082051 318.161858 317.392308 317.958288 317.702564 317.756186 318.012821 317.555558 318.323077 317.356412 318.633333 317.158755 318.943590 316.962593 319.253846 316.767934 319.564103 316.574785 319.874359 316.383154 320.184615 316.193047 320.494872 316.004472 320.805128 315.817435 321.115385 315.631944 321.425641 315.448006 321.735897 315.265628 322.046154 315.084817 322.356410 314.905581 322.666667 314.727926 322.976923 314.551860 323.287179 314.377390 323.597436 314.204523 323.907692 314.033266 324.217949 313.863626 324.528205 313.695606 324.838462 313.529196 325.148718 313.364378 325.458974 313.201138 325.769231 313.039460 326.079487 312.879327 326.389744 312.720726 326.700000 312.563638 327.010256 312.408050 327.320513 312.253946 327.630769 312.101309 327.941026 311.950124 328.251282 311.800375 328.561538 311.652047 328.871795 311.505125 329.182051 311.359592 329.492308 311.215432 329.802564 311.072631 330.112821 310.931172 330.423077 310.791039 330.733333 310.652218 331.043590 310.514692 331.353846 310.378446 331.664103 310.243465 331.974359 310.109731 332.284615 309.977230 332.594872 309.845947 332.905128 309.715865 333.215385 309.586968 333.525641 309.459242 333.835897 309.332670 334.146154 309.207237 334.456410 309.082927 334.766667 308.959724 335.076923 308.837614 335.387179 308.716579 335.697436 308.596605 336.007692 308.477675 336.317949 308.359775 336.628205 308.242888 336.938462 308.126999 337.248718 308.012092 337.558974 307.898151 337.869231 307.785161 338.179487 307.673107 338.489744 307.561972 338.800000 307.451740 339.110256 307.342397 339.420513 307.233926 339.730769 307.126312 340.041026 307.019539 340.351282 306.913592 340.661538 306.808454 340.971795 306.704111 341.282051 306.600546 341.592308 306.497743 341.902564 306.395688 342.212821 306.294365 342.523077 306.193757 342.833333 306.093849 343.143590 305.994626 343.453846 305.896072 343.764103 305.798170 344.074359 305.700907 344.384615 305.604265 344.694872 305.508229 345.005128 305.412784 345.315385 305.317913 345.625641 305.223602 345.935897 305.129834 346.246154 305.036594 346.556410 304.943866 346.866667 304.851635 347.176923 304.759884 347.487179 304.668599 347.797436 304.577763 348.107692 304.487361 348.417949 304.397377 348.728205 304.307796 349.038462 304.218601 349.348718 304.129778 349.658974 304.041310 349.969231 303.953182 350.279487 303.865378 350.589744 303.777883 350.900000 303.690680 351.210256 303.603755 351.520513 303.517091 351.830769 303.430673 352.141026 303.344485 352.451282 303.258512 352.761538 303.172738 353.071795 303.087146 353.382051 303.001723 353.692308 302.916451 354.002564 302.831315 354.312821 302.746300 354.623077 302.661390 354.933333 302.576569 355.243590 302.491821 355.553846 302.407132 355.864103 302.322484 356.174359 302.237863 356.484615 302.153253 356.794872 302.068638 357.105128 301.984003 357.415385 301.899332 357.725641 301.814608 358.035897 301.729818 358.346154 301.644944 358.656410 301.559971 358.966667 301.474884 359.276923 301.389667 359.587179 301.304304 359.897436 301.218780 360.207692 301.133078 360.517949 301.047184 360.828205 300.961081 361.138462 300.874754 361.448718 300.788188 361.758974 300.701366 362.069231 300.614273 362.379487 300.526893 362.689744 300.439210 363.000000 300.351210 363.310256 300.262876 363.620513 300.174192 363.930769 300.085143 364.241026 299.995714 364.551282 299.905888 364.861538 299.815650 365.171795 299.724984 365.482051 299.633875 365.792308 299.542306 366.102564 299.450263 366.412821 299.357730 366.723077 299.264690 367.033333 299.171129 367.343590 299.077030 367.653846 298.982378 367.964103 298.887158 368.274359 298.791353 368.584615 298.694948 368.894872 298.597927 369.205128 298.500275 369.515385 298.401975 369.825641 298.303013 370.135897 298.203373 370.446154 298.103038 370.756410 298.001994 371.066667 297.900225 371.376923 297.797714 371.687179 297.694447 371.997436 297.590407 372.307692 297.485579 372.617949 297.379947 372.928205 297.273496 373.238462 297.166210 373.548718 297.058074 373.858974 296.949070 374.169231 296.839185 374.479487 296.728402 374.789744 296.616706 375.100000 296.504081 375.410256 296.390511 375.720513 296.275980 376.030769 296.160474 376.341026 296.043976 376.651282 295.926470 376.961538 295.807942 377.271795 295.688374 377.582051 295.567753 377.892308 295.446061 378.202564 295.323284 378.512821 295.199405 378.823077 295.074409 379.133333 294.948281 379.443590 294.821004 379.753846 294.692563 380.064103 294.562942 380.374359 294.432126 380.684615 294.300100 380.994872 294.166846 381.305128 294.032350 381.615385 293.896596 381.925641 293.759568 382.235897 293.621251 382.546154 293.481629 382.856410 293.340687 383.166667 293.198407 383.476923 293.054776 383.787179 292.909778 384.097436 292.763396 384.407692 292.615615 384.717949 292.466419 385.028205 292.315793 385.338462 292.163721 385.648718 292.010187 385.958974 291.855176 386.269231 291.698672 386.579487 291.540659 386.889744 291.381122 387.200000 291.220045 387.510256 291.057412 387.820513 290.893208 388.130769 290.727417 388.441026 290.560023 388.751282 290.391011 389.061538 290.220365 389.371795 290.048070 389.682051 289.874109 389.992308 289.698467 390.302564 289.521128 390.612821 289.342077 390.923077 289.161298 391.233333 288.978776 391.543590 288.794494 391.853846 288.608437 392.164103 288.420590 392.474359 288.230936 392.784615 288.039461 393.094872 287.846147 393.405128 287.650981 393.715385 287.453945 394.025641 287.255025 394.335897 287.054204 394.646154 286.851468 394.956410 286.646800 395.266667 286.440184 395.576923 286.231606 395.887179 286.021049 396.197436 285.808498 396.507692 285.593937 396.817949 285.377350 397.128205 285.158722 397.438462 284.938037 397.748718 284.715279 398.058974 284.490433 398.369231 284.263483 398.679487 284.034414 398.989744 283.803209 399.300000 283.569853 399.610256 283.334331 399.920513 283.096627 400.230769 282.856724 400.541026 282.614608 400.851282 282.370263 401.161538 282.123672 401.471795 281.874822 401.782051 281.623694 402.092308 281.370281 402.402564 281.114594 402.712821 280.856651 403.023077 280.596470 403.333333 280.334070 403.643590 280.069469 403.953846 279.802685 404.264103 279.533735 404.574359 279.262638 404.884615 278.989413 405.194872 278.714077 405.505128 278.436648 405.815385 278.157144 406.125641 277.875584 406.435897 277.591986 406.746154 277.306368 407.056410 277.018748 407.366667 276.729144 407.676923 276.437574 407.987179 276.144056 408.297436 275.848608 408.607692 275.551250 408.917949 275.251997 409.228205 274.950870 409.538462 274.647886 409.848718 274.343062 410.158974 274.036418 410.469231 273.727971 410.779487 273.417739 411.089744 273.105740 411.400000 272.791994 411.710256 272.476517 412.020513 272.159327 412.330769 271.840444 412.641026 271.519885 412.951282 271.197668 413.261538 270.873811 413.571795 270.548333 413.882051 270.221251 414.192308 269.892584 414.502564 269.562349 414.812821 269.230566 415.123077 268.897251 415.433333 268.562424 415.743590 268.226102 416.053846 267.888303 416.364103 267.549046 416.674359 267.208348 416.984615 266.866228 417.294872 266.522703 417.605128 266.177793 417.915385 265.831515 418.225641 265.483886 418.535897 265.134927 418.846154 264.784653 419.156410 264.433084 419.466667 264.080238 419.776923 263.726132 420.087179 263.370786 420.397436 263.014216 420.707692 262.656441 421.017949 262.297480 421.328205 261.937350 421.638462 261.576069 421.948718 261.213656 422.258974 260.850129 422.569231 260.485505 422.879487 260.119804 423.189744 259.753042 423.500000 259.385238 423.810256 259.016411 424.120513 258.646579 424.430769 258.275758 424.741026 257.903969 425.051282 257.531228 425.361538 257.157554 425.671795 256.782965 425.982051 256.407479 426.292308 256.031114 426.602564 255.653888 426.912821 255.275821 427.223077 254.896928 427.533333 254.517229 427.843590 254.136742 428.153846 253.755485 428.464103 253.373476 428.774359 252.990733 429.084615 252.607275 429.394872 252.223119 429.705128 251.838283 430.015385 251.452786 430.325641 251.066645 430.635897 250.679880 430.946154 250.292507 431.256410 249.904546 431.566667 249.516014 431.876923 249.126929 432.187179 248.737309 432.497436 248.347173 432.807692 247.956539 433.117949 247.565425 433.428205 247.173848 433.738462 246.781827 434.048718 246.389381 434.358974 245.996527 434.669231 245.603283 434.979487 245.209668 435.289744 244.815699 435.600000 244.421395 435.910256 244.026774 436.220513 243.631854 436.530769 243.236652 436.841026 242.841189 437.151282 242.445480 437.461538 242.049545 437.771795 241.653401 438.082051 241.257067 438.392308 240.860561 438.702564 240.463901 439.012821 240.067104 439.323077 239.670190 439.633333 239.273176 439.943590 238.876081 440.253846 238.478922 440.564103 238.081717 440.874359 237.684485 441.184615 237.287244 441.494872 236.890012 441.805128 236.492808 442.115385 236.095648 442.425641 235.698551 442.735897 235.301536 443.046154 234.904621 443.356410 234.507823 443.666667 234.111161 443.976923 233.714653 444.287179 233.318317 444.597436 232.922171 444.907692 232.526233 445.217949 232.130521 445.528205 231.735054 445.838462 231.339850 446.148718 230.944926 446.458974 230.550302 446.769231 230.155994 447.079487 229.762021 447.389744 229.368401 447.700000 228.975153 448.010256 228.582294 448.320513 228.189842 448.630769 227.797816 448.941026 227.406234 449.251282 227.015114 449.561538 226.624474 449.871795 226.234332 450.182051 225.844706 450.492308 225.455615 450.802564 225.067076 451.112821 224.679107 451.423077 224.291727 451.733333 223.904954 452.043590 223.518806 452.353846 223.133301 452.664103 222.748458 452.974359 222.364293 453.284615 221.980826 453.594872 221.598074 453.905128 221.216056 454.215385 220.834790 454.525641 220.454294 454.835897 220.074586 455.146154 219.695683 455.456410 219.317605 455.766667 218.940370 456.076923 218.563994 456.387179 218.188498 456.697436 217.813898 457.007692 217.440213 457.317949 217.067460 457.628205 216.695659 457.938462 216.324827 458.248718 215.954982 458.558974 215.586143 458.869231 215.218327 459.179487 214.851553 459.489744 214.485838 459.800000 214.121202 460.110256 213.757661 460.420513 213.395234 460.730769 213.033940 461.041026 212.673796 461.351282 212.314820 461.661538 211.957031 461.971795 211.600447 462.282051 211.245085 462.592308 210.890965 462.902564 210.538103 463.212821 210.186519 463.523077 209.836229 463.833333 209.487254 464.143590 209.139609 464.453846 208.793315 464.764103 208.448388 465.074359 208.104847 465.384615 207.762709 465.694872 207.421994 466.005128 207.082719 466.315385 206.744903 466.625641 206.408563 466.935897 206.073717 467.246154 205.740384 467.556410 205.408582 467.866667 205.078329 468.176923 204.749643 468.487179 204.422542 468.797436 204.097044 469.107692 203.773168 469.417949 203.450931 469.728205 203.130352 470.038462 202.811448 470.348718 202.494238 470.658974 202.178740 470.969231 201.864973 471.279487 201.552953 471.589744 201.242700 471.900000 200.934231 472.210256 200.627565 472.520513 200.322720 472.830769 200.019713 473.141026 199.718563 473.451282 199.419288 473.761538 199.121906 474.071795 198.826436 474.382051 198.532895 474.692308 198.241301 475.002564 197.951673 475.312821 197.664029 475.623077 197.378386 475.933333 197.094764 476.243590 196.813179 476.553846 196.533651 476.864103 196.256197 477.174359 195.980835 477.484615 195.707584 477.794872 195.436462 478.105128 195.167486 478.415385 194.900676 478.725641 194.636048 479.035897 194.373621 479.346154 194.113414 479.656410 193.855438 479.966667 193.599684 480.276923 193.346135 480.587179 193.094776 480.897436 192.845590 481.207692 192.598561 481.517949 192.353674 481.828205 192.110913 482.138462 191.870262 482.448718 191.631704 482.758974 191.395223 483.069231 191.160805 483.379487 190.928432 483.689744 190.698089 484.000000 190.469760 484.310256 190.243429 484.620513 190.019079 484.930769 189.796696 485.241026 189.576263 485.551282 189.357763 485.861538 189.141182 486.171795 188.926502 486.482051 188.713709 486.792308 188.502786 487.102564 188.293717 487.412821 188.086487 487.723077 187.881078 488.033333 187.677476 488.343590 187.475664 488.653846 187.275627 488.964103 187.077348 489.274359 186.880811 489.584615 186.686001 489.894872 186.492901 490.205128 186.301496 490.515385 186.111769 490.825641 185.923705 491.135897 185.737287 491.446154 185.552500 491.756410 185.369328 492.066667 185.187755 492.376923 185.007764 492.687179 184.829340 492.997436 184.652467 493.307692 184.477129 493.617949 184.303310 493.928205 184.130993 494.238462 183.960164 494.548718 183.790805 494.858974 183.622902 495.169231 183.456438 495.479487 183.291396 495.789744 183.127762 496.100000 182.965519 496.410256 182.804652 496.720513 182.645143 497.030769 182.486978 497.341026 182.330140 497.651282 182.174613 497.961538 182.020382 498.271795 181.867430 498.582051 181.715742 498.892308 181.565301 499.202564 181.416092 499.512821 181.268098 499.823077 181.121304 500.133333 180.975693 500.443590 180.831250 500.753846 180.687959 501.064103 180.545803 501.374359 180.404767 501.684615 180.264835 501.994872 180.125991 502.305128 179.988218 502.615385 179.851502 502.925641 179.715825 503.235897 179.581173 503.546154 179.447528 503.856410 179.314875 504.166667 179.183199 504.476923 179.052482 504.787179 178.922710 505.097436 178.793866 505.407692 178.665934 505.717949 178.538898 506.028205 178.412742 506.338462 178.287451 506.648718 178.163008 506.958974 178.039397 507.269231 177.916603 507.579487 177.794610 507.889744 177.673400 508.200000 177.552959 508.510256 177.433271 508.820513 177.314320 509.130769 177.196088 509.441026 177.078562 509.751282 176.961724 510.061538 176.845559 510.371795 176.730051 510.682051 176.615183 510.992308 176.500941 511.302564 176.387307 511.612821 176.274266 511.923077 176.161802 512.233333 176.049898 512.543590 175.938540 512.853846 175.827711 513.164103 175.717395 513.474359 175.607576 513.784615 175.498238 514.094872 175.389365 514.405128 175.280941 514.715385 175.172951 515.025641 175.065378 515.335897 174.958206 515.646154 174.851420 515.956410 174.745002 516.266667 174.638939 516.576923 174.533212 516.887179 174.427807 517.197436 174.322708 517.507692 174.217898 517.817949 174.113362 518.128205 174.009083 518.438462 173.905046 518.748718 173.801234 519.058974 173.697632 519.369231 173.594224 519.679487 173.490994 519.989744 173.387926 520.300000 173.285003 520.610256 173.182210 520.920513 173.079531 521.230769 172.976950 521.541026 172.874451 521.851282 172.772018 522.161538 172.669635 522.471795 172.567287 522.782051 172.464956 523.092308 172.362627 523.402564 172.260285 523.712821 172.157913 524.023077 172.055495 524.333333 171.953015 524.643590 171.850457 524.953846 171.747806 525.264103 171.645046 525.574359 171.542159 525.884615 171.439132 526.194872 171.335946 526.505128 171.232587 526.815385 171.129039 527.125641 171.025285 527.435897 170.921310 527.746154 170.817098 528.056410 170.712632 528.366667 170.607897 528.676923 170.502877 528.987179 170.397555 529.297436 170.291917 529.607692 170.185945 529.917949 170.079624 530.228205 169.972938 530.538462 169.865871 530.848718 169.758407 531.158974 169.650530 531.469231 169.542224 531.779487 169.433473 532.089744 169.324261 532.400000 169.214573 532.710256 169.104392 533.020513 168.993701 533.330769 168.882487 533.641026 168.770731 533.951282 168.658419 534.261538 168.545534 534.571795 168.432061 534.882051 168.317983 535.192308 168.203284 535.502564 168.087949 535.812821 167.971961 536.123077 167.855306 536.433333 167.737965 536.743590 167.619925 537.053846 167.501168 537.364103 167.381678 537.674359 167.261441 537.984615 167.140439 538.294872 167.018657 538.605128 166.896079 538.915385 166.772689 539.225641 166.648471 539.535897 166.523408 539.846154 166.397486 540.156410 166.270688 540.466667 166.142997 540.776923 166.014399 541.087179 165.884877 541.397436 165.754415 541.707692 165.622997 542.017949 165.490608 542.328205 165.357231 542.638462 165.222850 542.948718 165.087449 543.258974 164.951013 543.569231 164.813525 543.879487 164.674970 544.189744 164.535331 544.500000 164.394592 544.810256 164.252738 545.120513 164.109753 545.430769 163.965620 545.741026 163.820324 546.051282 163.673848 546.361538 163.526178 546.671795 163.377295 546.982051 163.227186 547.292308 163.075834 547.602564 162.923222 547.912821 162.769335 548.223077 162.614158 548.533333 162.457673 548.843590 162.299865 549.153846 162.140718 549.464103 161.980216 549.774359 161.818343 550.084615 161.655083 550.394872 161.490421 550.705128 161.324339 551.015385 161.156823 551.325641 160.987856 551.635897 160.817423 551.946154 160.645507 552.256410 160.472092 552.566667 160.297162 552.876923 160.120702 553.187179 159.942695 553.497436 159.763126 553.807692 159.581978 554.117949 159.399236 554.428205 159.214884 554.738462 159.028905 555.048718 158.841283 555.358974 158.652004 555.669231 158.461050 555.979487 158.268406 556.289744 158.074056 556.600000 157.877983 556.910256 157.680173 557.220513 157.480612 557.530769 157.279308 557.841026 157.076268 558.151282 156.871505 558.461538 156.665026 558.771795 156.456842 559.082051 156.246962 559.392308 156.035398 559.702564 155.822157 560.012821 155.607250 560.323077 155.390688 560.633333 155.172479 560.943590 154.952633 561.253846 154.731161 561.564103 154.508071 561.874359 154.283375 562.184615 154.057081 562.494872 153.829199 562.805128 153.599740 563.115385 153.368712 563.425641 153.136127 563.735897 152.901993 564.046154 152.666320 564.356410 152.429119 564.666667 152.190398 564.976923 151.950168 565.287179 151.708439 565.597436 151.465220 565.907692 151.220522 566.217949 150.974353 566.528205 150.726724 566.838462 150.477644 567.148718 150.227124 567.458974 149.975173 567.769231 149.721801 568.079487 149.467017 568.389744 149.210832 568.700000 148.953256 569.010256 148.694297 569.320513 148.433966 569.630769 148.172273 569.941026 147.909228 570.251282 147.644839 570.561538 147.379118 570.871795 147.112074 571.182051 146.843716 571.492308 146.574055 571.802564 146.303100 572.112821 146.030861 572.423077 145.757347 572.733333 145.482570 573.043590 145.206538 573.353846 144.929261 573.664103 144.650749 573.974359 144.371012 574.284615 144.090059 574.594872 143.807901 574.905128 143.524547 575.215385 143.240007 575.525641 142.954290 575.835897 142.667408 576.146154 142.379368 576.456410 142.090182 576.766667 141.799859 577.076923 141.508408 577.387179 141.215840 577.697436 140.922165 578.007692 140.627391 578.317949 140.331530 578.628205 140.034590 578.938462 139.736581 579.248718 139.437514 579.558974 139.137398 579.869231 138.836243 580.179487 138.534059 580.489744 138.230855 580.800000 137.926641 581.110256 137.621427 581.420513 137.315224 581.730769 137.008040 582.041026 136.699885 582.351282 136.390770 582.661538 136.080703 582.971795 135.769696 583.282051 135.457757 583.592308 135.144896 583.902564 134.831124 584.212821 134.516450 584.523077 134.200884 584.833333 133.884435 585.143590 133.567113 585.453846 133.248929 585.764103 132.929892 586.074359 132.610011 586.384615 132.289298 586.694872 131.967760 587.005128 131.645409 587.315385 131.322253 587.625641 130.998304 587.935897 130.673570 588.246154 130.348061 588.556410 130.021787 588.866667 129.694758 589.176923 129.366984 589.487179 129.038475 589.797436 128.709240 590.107692 128.379289 590.417949 128.048632 590.728205 127.717278 591.038462 127.385238 591.348718 127.052522 591.658974 126.719138 591.969231 126.385097 592.279487 126.050409 592.589744 125.715084 592.900000 125.379130 593.210256 125.042559 593.520513 124.705379 593.830769 124.367602 594.141026 124.029235 594.451282 123.690290 594.761538 123.350776 595.071795 123.010703 595.382051 122.670080 595.692308 122.328918 596.002564 121.987226 596.312821 121.645014 596.623077 121.302291 596.933333 120.959069 597.243590 120.615355 597.553846 120.271161 597.864103 119.926496 598.174359 119.581369 598.484615 119.235791 598.794872 118.889772 599.105128 118.543321 599.415385 118.196447 599.725641 117.849161 600.035897 117.501473 600.346154 117.153392 600.656410 116.804929 600.966667 116.456092 601.276923 116.106892 601.587179 115.757338 601.897436 115.407441 602.207692 115.057209 602.517949 114.706654 602.828205 114.355784 603.138462 114.004610 603.448718 113.653141 603.758974 113.301387 604.069231 112.949358 604.379487 112.597064 604.689744 112.244514 605.000000 111.891718 605.310256 111.538686 605.620513 111.185429 605.930769 110.831954 606.241026 110.478274 606.551282 110.124396 606.861538 109.770331 607.171795 109.416090 607.482051 109.061680 607.792308 108.707114 608.102564 108.352399 608.412821 107.997546 608.723077 107.642565 609.033333 107.287466 609.343590 106.932258 609.653846 106.576951 609.964103 106.221555 610.274359 105.866080 610.584615 105.510536 610.894872 105.154932 611.205128 104.799277 611.515385 104.443583 611.825641 104.087859 612.135897 103.732114 612.446154 103.376358 612.756410 103.020602 613.066667 102.664854 613.376923 102.309125 613.687179 101.953424 613.997436 101.597762 614.307692 101.242148 614.617949 100.886592 614.928205 100.531103 615.238462 100.175692 615.548718 99.820368 615.858974 99.465141 616.169231 99.110021 616.479487 98.755018 616.789744 98.400141 617.100000 98.045400 617.410256 97.690805 617.720513 97.336366 618.030769 96.982093 618.341026 96.627995 618.651282 96.274082 618.961538 95.920364 619.271795 95.566851 619.582051 95.213553 619.892308 94.860479 620.202564 94.507639 620.512821 94.155043 620.823077 93.802701 621.133333 93.450622 621.443590 93.098817 621.753846 92.747295 622.064103 92.396066 622.374359 92.045139 622.684615 91.694525 622.994872 91.344234 623.305128 90.994274 623.615385 90.644657 623.925641 90.295391 624.235897 89.946486 624.546154 89.597953 624.856410 89.249801 625.166667 88.902040 625.476923 88.554679 625.787179 88.207729 626.097436 87.861199 626.407692 87.515100 626.717949 87.169440 627.028205 86.824230 627.338462 86.479479 627.648718 86.135197 627.958974 85.791395 628.269231 85.448081 628.579487 85.105266 628.889744 84.762959 629.200000 84.421170 629.510256 84.079910 629.820513 83.739187 630.130769 83.399012 630.441026 83.059394 630.751282 82.720344 631.061538 82.381870 631.371795 82.043983 631.682051 81.706693 631.992308 81.370009 632.302564 81.033941 632.612821 80.698499 632.923077 80.363693 633.233333 80.029533 633.543590 79.696027 633.853846 79.363187 634.164103 79.031022 634.474359 78.699541 634.784615 78.368753 635.094872 78.038657 635.405128 77.709250 635.715385 77.380528 636.025641 77.052490 636.335897 76.725133 636.646154 76.398454 636.956410 76.072449 637.266667 75.747117 637.576923 75.422455 637.887179 75.098459 638.197436 74.775127 638.507692 74.452456 638.817949 74.130444 639.128205 73.809087 639.438462 73.488383 639.748718 73.168329 640.058974 72.848922 640.369231 72.530160 640.679487 72.212040 640.989744 71.894558 641.300000 71.577713 641.610256 71.261501 641.920513 70.945920 642.230769 70.630966 642.541026 70.316638 642.851282 70.002932 643.161538 69.689845 643.471795 69.377375 643.782051 69.065519 644.092308 68.754275 644.402564 68.443638 644.712821 68.133607 645.023077 67.824179 645.333333 67.515351 645.643590 67.207121 645.953846 66.899484 646.264103 66.592440 646.574359 66.285984 646.884615 65.980115 647.194872 65.674829 647.505128 65.370124 647.815385 65.065996 648.125641 64.762444 648.435897 64.459463 648.746154 64.157053 649.056410 63.855209 649.366667 63.553929 649.676923 63.253210 649.987179 62.953049 650.297436 62.653444 650.607692 62.354392 650.917949 62.055890 651.228205 61.757935 651.538462 61.460525 651.848718 61.163656 652.158974 60.867326 652.469231 60.571533 652.779487 60.276273 653.089744 59.981543 653.400000 59.687341 653.710256 59.393665 654.020513 59.100510 654.330769 58.807875 654.641026 58.515757 654.951282 58.224153 655.261538 57.933060 655.571795 57.642475 655.882051 57.352396 656.192308 57.062820 656.502564 56.773743 656.812821 56.485164 657.123077 56.197080 657.433333 55.909487 657.743590 55.622383 658.053846 55.335765 658.364103 55.049631 658.674359 54.763977 658.984615 54.478801 659.294872 54.194100 659.605128 53.909871 659.915385 53.626112 660.225641 53.342820 660.535897 53.059991 660.846154 52.777624 661.156410 52.495715 661.466667 52.214261 661.776923 51.933261 662.087179 51.652710 662.397436 51.372607 662.707692 51.092948 663.017949 50.813731 663.328205 50.534952 663.638462 50.256610 663.948718 49.978702 664.258974 49.701224 664.569231 49.424173 664.879487 49.147548 665.189744 48.871345 665.500000 48.595561 665.810256 48.320195 666.120513 48.045242 666.430769 47.770700 666.741026 47.496567 667.051282 47.222839 667.361538 46.949514 667.671795 46.676589 667.982051 46.404061 668.292308 46.131928 668.602564 45.860186 668.912821 45.588834 669.223077 45.317867 669.533333 45.047284 669.843590 44.777082 670.153846 44.507257 670.464103 44.237807 670.774359 43.968730 671.084615 43.700022 671.394872 43.431681 671.705128 43.163703 672.015385 42.896087 672.325641 42.628829 672.635897 42.361927 672.946154 42.095378 673.256410 41.829178 673.566667 41.563326 673.876923 41.297819 674.187179 41.032653 674.497436 40.767826 674.807692 40.503335 675.117949 40.239177 675.428205 39.975350 675.738462 39.711851 676.048718 39.448677 676.358974 39.185825 676.669231 38.923293 676.979487 38.661077 677.289744 38.399175 677.600000 38.137584 677.910256 37.876302 678.220513 37.615325 678.530769 37.354651 678.841026 37.094277 679.151282 36.834201 679.461538 36.574419 679.771795 36.314928 680.082051 36.055726 680.392308 35.796811 680.702564 35.538179 681.012821 35.279827 681.323077 35.021754 681.633333 34.763955 681.943590 34.506429 682.253846 34.249172 682.564103 33.992181 682.874359 33.735455 683.184615 33.478990 683.494872 33.222783 683.805128 32.966831 684.115385 32.711133 684.425641 32.455684 684.735897 32.200483 685.046154 31.945526 685.356410 31.690811 685.666667 31.436335 685.976923 31.182095 686.287179 30.928088 686.597436 30.674312 686.907692 30.420764 687.217949 30.167441 687.528205 29.914339 687.838462 29.661458 688.148718 29.408793 688.458974 29.156342 688.769231 28.904102 689.079487 28.652070 689.389744 28.400244 689.700000 28.148621 690.010256 27.897198 690.320513 27.645972 690.630769 27.394941 690.941026 27.144101 691.251282 26.893450 691.561538 26.642985 691.871795 26.392704 692.182051 26.142603 692.492308 25.892680 692.802564 25.642932 693.112821 25.393356 693.423077 25.143950 693.733333 24.894710 694.043590 24.645635 694.353846 24.396720 694.664103 24.147964 694.974359 23.899363 695.284615 23.650915 695.594872 23.402617 695.905128 23.154467 696.215385 22.906460 696.525641 22.658596 696.835897 22.410870 697.146154 22.163281 697.456410 21.915825 697.766667 21.668499 698.076923 21.421301 698.387179 21.174228 698.697436 20.927278 699.007692 20.680447 699.317949 20.433732 699.628205 20.187132 699.938462 19.940642 700.248718 19.694261 700.558974 19.447986 700.869231 19.201813 701.179487 18.955740 701.489744 18.709765 701.800000 18.463884 702.110256 18.218094 702.420513 17.972394 702.730769 17.726780 703.041026 17.481249 703.351282 17.235798 703.661538 16.990425 703.971795 16.745128 704.282051 16.499902 704.592308 16.254746 704.902564 16.009657 705.212821 15.764632 705.523077 15.519667 705.833333 15.274761 706.143590 15.029911 706.453846 14.785113 706.764103 14.540366 707.074359 14.295666 707.384615 14.051010 707.694872 13.806395 708.005128 13.561820 708.315385 13.317281 708.625641 13.072775 708.935897 12.828299 709.246154 12.583852 709.556410 12.339429 709.866667 12.095029 710.176923 11.850648 710.487179 11.606284 710.797436 11.361933 711.107692 11.117594 711.417949 10.873263 711.728205 10.628938 712.038462 10.384615 712.038462 540.000000" /></g></g><g class="titles" /><g class="plot overlay" transform="translate(54, 20)"><g class="series serie-0 color-0"><g class="dots"><circle class="dot reactive tooltip-trigger" cx="13.96153846153846" cy="529.6153846153845" r="2.5" /><desc class="value">202,545,478(kWh)</desc><desc class="x top">13.96153846153846</desc><desc class="y top">529.6153846153845</desc><desc class="x_label">2549</desc></g><g class="dots"><circle class="dot reactive tooltip-trigger" cx="91.52564102564101" cy="485.7719355959305" r="2.5" /><desc class="value">218,564,626(kWh)</desc><desc class="x top">91.52564102564101</desc><desc class="y top">485.7719355959305</desc><desc class="x_label">2550</desc></g><g class="dots"><circle class="dot reactive tooltip-trigger" cx="169.08974358974356" cy="459.85959363323985" r="2.5" /><desc class="value">228,032,258(kWh)</desc><desc class="x top">169.08974358974356</desc><desc class="y top">459.85959363323985</desc><desc class="x_label">2551</desc></g><g class="dots"><circle class="dot reactive tooltip-trigger" cx="246.65384615384613" cy="388.23166170437116" r="2.5" /><desc class="value">254,203,065(kWh)</desc><desc class="x top">246.65384615384613</desc><desc class="y top">388.23166170437116</desc><desc class="x_label">2552</desc></g><g class="dots"><circle class="dot reactive tooltip-trigger" cx="324.21794871794873" cy="313.863625742097" r="2.5" /><desc class="value">281,375,028(kWh)</desc><desc class="x top">324.21794871794873</desc><desc class="y top">313.863625742097</desc><desc class="x_label">2553</desc></g><g class="dots"><circle class="dot reactive tooltip-trigger" cx="401.78205128205127" cy="281.62369441569575" r="2.5" /><desc class="value">293,154,581(kWh)</desc><desc class="x left top">401.78205128205127</desc><desc class="y left top">281.62369441569575</desc><desc class="x_label">2554</desc></g><g class="dots"><circle class="dot reactive tooltip-trigger" cx="479.3461538461538" cy="194.11341386035627" r="2.5" /><desc class="value">325,128,346(kWh)</desc><desc class="x left">479.3461538461538</desc><desc class="y left">194.11341386035627</desc><desc class="x_label">2555</desc></g><g class="dots"><circle class="dot reactive tooltip-trigger" cx="556.9102564102565" cy="157.6801727687984" r="2.5" /><desc class="value">338,440,015(kWh)</desc><desc class="x left">556.9102564102565</desc><desc class="y left">157.6801727687984</desc><desc class="x_label">2556</desc></g><g class="dots"><circle class="dot reactive tooltip-trigger" cx="634.474358974359" cy="78.69954149805801" r="2.5" /><desc class="value">367,297,289(kWh)</desc><desc class="x left">634.474358974359</desc><desc class="y left">78.69954149805801</desc><desc class="x_label">2557</desc></g><g class="dots"><circle class="dot reactive tooltip-trigger" cx="712.0384615384615" cy="10.384615384615472" r="2.5" /><desc class="value">392,257,618(kWh)</desc><desc class="x left">712.0384615384615</desc><desc class="y left">10.384615384615472</desc><desc class="x_label">2558</desc></g></g></g><g class="plot text-overlay" transform="translate(54, 20)"><g class="series serie-0 color-0" /></g><g class="plot tooltip-overlay" transform="translate(54, 20)"><g class="tooltip" style="opacity: 0" transform="translate(0 0)"><rect class="tooltip-box" height="0" rx="0" ry="0" width="0" /><g class="text" /></g></g></g></svg>