<?xml version='1.0' encoding='utf-8'?>
<svg xmlns:xlink="http://www.w3.org/1999/xlink" class="pygal-chart" id="chart-927a5661-baec-4ccd-9f3f-c6ccc768a365" viewBox="0 0 800 600" xmlns="http://www.w3.org/2000/svg"><!--Generated with pygal 2.3.0 (etree) ©Kozea 2012-2016 on 2016-12-08--><!--http://pygal.org--><!--http://github.com/Kozea/pygal--><defs><style type="text/css">#chart-927a5661-baec-4ccd-9f3f-c6ccc768a365{-webkit-user-select:none;-webkit-font-smoothing:antialiased;font-family:Consolas,"Liberation Mono",Menlo,Courier,monospace}#chart-927a5661-baec-4ccd-9f3f-c6ccc768a365 .title{font-family:Consolas,"Liberation Mono",Menlo,Courier,monospace;font-size:16px}#chart-927a5661-baec-4ccd-9f3f-c6ccc768a365 .legends .legend text{font-family:Consolas,"Liberation Mono",Menlo,Courier,monospace;font-size:14px}#chart-927a5661-baec-4ccd-9f3f-c6ccc768a365 .axis text{font-family:Consolas,"Liberation Mono",Menlo,Courier,monospace;font-size:10px}#chart-927a5661-baec-4ccd-9f3f-c6ccc768a365 .axis text.major{font-family:Consolas,"Liberation Mono",Menlo,Courier,monospace;font-size:10px}#chart-927a5661-baec-4ccd-9f3f-c6ccc768a365 .text-overlay text.value{font-family:Consolas,"Liberation Mono",Menlo,Courier,monospace;font-size:16px}#chart-927a5661-baec-4ccd-9f3f-c6ccc768a365 .text-overlay text.label{font-family:Consolas,"Liberation Mono",Menlo,Courier,monospace;font-size:10px}#chart-927a5661-baec-4ccd-9f3f-c6ccc768a365 .tooltip{font-family:Consolas,"Liberation Mono",Menlo,Courier,monospace;font-size:14px}#chart-927a5661-baec-4ccd-9f3f-c6ccc768a365 text.no_data{font-family:Consolas,"Liberation Mono",Menlo,Courier,monospace;font-size:64px}
#chart-927a5661-baec-4ccd-9f3f-c6ccc768a365{background-color:rgba(249,249,249,1)}#chart-927a5661-baec-4ccd-9f3f-c6ccc768a365 path,#chart-927a5661-baec-4ccd-9f3f-c6ccc768a365 line,#chart-927a5661-baec-4ccd-9f3f-c6ccc768a365 rect,#chart-927a5661-baec-4ccd-9f3f-c6ccc768a365 circle{-webkit-transition:150ms;-moz-transition:150ms;transition:150ms}#chart-927a5661-baec-4ccd-9f3f-c6ccc768a365 .graph &gt; .background{fill:rgba(249,249,249,1)}#chart-927a5661-baec-4ccd-9f3f-c6ccc768a365 .plot &gt; .background{fill:rgba(255,255,255,1)}#chart-927a5661-baec-4ccd-9f3f-c6ccc768a365 .graph{fill:rgba(0,0,0,.87)}#chart-927a5661-baec-4ccd-9f3f-c6ccc768a365 text.no_data{fill:rgba(0,0,0,1)}#chart-927a5661-baec-4ccd-9f3f-c6ccc768a365 .title{fill:rgba(0,0,0,1)}#chart-927a5661-baec-4ccd-9f3f-c6ccc768a365 .legends .legend text{fill:rgba(0,0,0,.87)}#chart-927a5661-baec-4ccd-9f3f-c6ccc768a365 .legends .legend:hover text{fill:rgba(0,0,0,1)}#chart-927a5661-baec-4ccd-9f3f-c6ccc768a365 .axis .line{stroke:rgba(0,0,0,1)}#chart-927a5661-baec-4ccd-9f3f-c6ccc768a365 .axis .guide.line{stroke:rgba(0,0,0,.54)}#chart-927a5661-baec-4ccd-9f3f-c6ccc768a365 .axis .major.line{stroke:rgba(0,0,0,.87)}#chart-927a5661-baec-4ccd-9f3f-c6ccc768a365 .axis text.major{fill:rgba(0,0,0,1)}#chart-927a5661-baec-4ccd-9f3f-c6ccc768a365 .axis.y .guides:hover .guide.line,#chart-927a5661-baec-4ccd-9f3f-c6ccc768a365 .line-graph .axis.x .guides:hover .guide.line,#chart-927a5661-baec-4ccd-9f3f-c6ccc768a365 .stackedline-graph .axis.x .guides:hover .guide.line,#chart-927a5661-baec-4ccd-9f3f-c6ccc768a365 .xy-graph .axis.x .guides:hover .guide.line{stroke:rgba(0,0,0,1)}#chart-927a5661-baec-4ccd-9f3f-c6ccc768a365 .axis .guides:hover text{fill:rgba(0,0,0,1)}#chart-927a5661-baec-4ccd-9f3f-c6ccc768a365 .reactive{fill-opacity:.7;stroke-opacity:.8}#chart-927a5661-baec-4ccd-9f3f-c6ccc768a365 .ci{stroke:rgba(0,0,0,.87)}#chart-927a5661-baec-4ccd-9f3f-c6ccc768a365 .reactive.active,#chart-927a5661-baec-4ccd-9f3f-c6ccc768a365 .active .reactive{fill-opacity:.8;stroke-opacity:.9;stroke-width:4}#chart-927a5661-baec-4ccd-9f3f-c6ccc768a365 .ci .reactive.active{stroke-width:1.5}#chart-927a5661-baec-4ccd-9f3f-c6ccc768a365 .series text{fill:rgba(0,0,0,1)}#chart-927a5661-baec-4ccd-9f3f-c6ccc768a365 .tooltip rect{fill:rgba(255,255,255,1);stroke:rgba(0,0,0,1);-webkit-transition:opacity 150ms;-moz-transition:opacity 150ms;transition:opacity 150ms}#chart-927a5661-baec-4ccd-9f3f-c6ccc768a365 .tooltip .label{fill:rgba(0,0,0,.87)}#chart-927a5661-baec-4ccd-9f3f-c6ccc768a365 .tooltip .label{fill:rgba(0,0,0,.87)}#chart-927a5661-baec-4ccd-9f3f-c6ccc768a365 .tooltip .legend{font-size:.8em;fill:rgba(0,0,0,.54)}#chart-927a5661-baec-4ccd-9f3f-c6ccc768a365 .tooltip .x_label{font-size:.6em;fill:rgba(0,0,0,1)}#chart-927a5661-baec-4ccd-9f3f-c6ccc768a365 .tooltip .xlink{font-size:.5em;text-decoration:underline}#chart-927a5661-baec-4ccd-9f3f-c6ccc768a365 .tooltip .value{font-size:1.5em}#chart-927a5661-baec-4ccd-9f3f-c6ccc768a365 .bound{font-size:.5em}#chart-927a5661-baec-4ccd-9f3f-c6ccc768a365 .max-value{font-size:.75em;fill:rgba(0,0,0,.54)}#chart-927a5661-baec-4ccd-9f3f-c6ccc768a365 .map-element{fill:rgba(255,255,255,1);stroke:rgba(0,0,0,.54) !important}#chart-927a5661-baec-4ccd-9f3f-c6ccc768a365 .map-element .reactive{fill-opacity:inherit;stroke-opacity:inherit}#chart-927a5661-baec-4ccd-9f3f-c6ccc768a365 .color-0,#chart-927a5661-baec-4ccd-9f3f-c6ccc768a365 .color-0 a:visited{stroke:#e86fa0;fill:#e86fa0}#chart-927a5661-baec-4ccd-9f3f-c6ccc768a365 .text-overlay .color-0 text{fill:black}
#chart-927a5661-baec-4ccd-9f3f-c6ccc768a365 text.no_data{text-anchor:middle}#chart-927a5661-baec-4ccd-9f3f-c6ccc768a365 .guide.line{fill:none}#chart-927a5661-baec-4ccd-9f3f-c6ccc768a365 .centered{text-anchor:middle}#chart-927a5661-baec-4ccd-9f3f-c6ccc768a365 .title{text-anchor:middle}#chart-927a5661-baec-4ccd-9f3f-c6ccc768a365 .legends .legend text{fill-opacity:1}#chart-927a5661-baec-4ccd-9f3f-c6ccc768a365 .axis.x text{text-anchor:middle}#chart-927a5661-baec-4ccd-9f3f-c6ccc768a365 .axis.x:not(.web) text[transform]{text-anchor:start}#chart-927a5661-baec-4ccd-9f3f-c6ccc768a365 .axis.x:not(.web) text[transform].backwards{text-anchor:end}#chart-927a5661-baec-4ccd-9f3f-c6ccc768a365 .axis.y text{text-anchor:end}#chart-927a5661-baec-4ccd-9f3f-c6ccc768a365 .axis.y text[transform].backwards{text-anchor:start}#chart-927a5661-baec-4ccd-9f3f-c6ccc768a365 .axis.y2 text{text-anchor:start}#chart-927a5661-baec-4ccd-9f3f-c6ccc768a365 .axis.y2 text[transform].backwards{text-anchor:end}#chart-927a5661-baec-4ccd-9f3f-c6ccc768a365 .axis .guide.line{stroke-dasharray:4,4}#chart-927a5661-baec-4ccd-9f3f-c6ccc768a365 .axis .major.guide.line{stroke-dasharray:6,6}#chart-927a5661-baec-4ccd-9f3f-c6ccc768a365 .horizontal .axis.y .guide.line,#chart-927a5661-baec-4ccd-9f3f-c6ccc768a365 .horizontal .axis.y2 .guide.line,#chart-927a5661-baec-4ccd-9f3f-c6ccc768a365 .vertical .axis.x .guide.line{opacity:0}#chart-927a5661-baec-4ccd-9f3f-c6ccc768a365 .horizontal .axis.always_show .guide.line,#chart-927a5661-baec-4ccd-9f3f-c6ccc768a365 .vertical .axis.always_show .guide.line{opacity:1 !important}#chart-927a5661-baec-4ccd-9f3f-c6ccc768a365 .axis.y .guides:hover .guide.line,#chart-927a5661-baec-4ccd-9f3f-c6ccc768a365 .axis.y2 .guides:hover .guide.line,#chart-927a5661-baec-4ccd-9f3f-c6ccc768a365 .axis.x .guides:hover .guide.line{opacity:1}#chart-927a5661-baec-4ccd-9f3f-c6ccc768a365 .axis .guides:hover text{opacity:1}#chart-927a5661-baec-4ccd-9f3f-c6ccc768a365 .nofill{fill:none}#chart-927a5661-baec-4ccd-9f3f-c6ccc768a365 .subtle-fill{fill-opacity:.2}#chart-927a5661-baec-4ccd-9f3f-c6ccc768a365 .dot{stroke-width:1px;fill-opacity:1}#chart-927a5661-baec-4ccd-9f3f-c6ccc768a365 .dot.active{stroke-width:5px}#chart-927a5661-baec-4ccd-9f3f-c6ccc768a365 .dot.negative{fill:transparent}#chart-927a5661-baec-4ccd-9f3f-c6ccc768a365 text,#chart-927a5661-baec-4ccd-9f3f-c6ccc768a365 tspan{stroke:none !important}#chart-927a5661-baec-4ccd-9f3f-c6ccc768a365 .series text.active{opacity:1}#chart-927a5661-baec-4ccd-9f3f-c6ccc768a365 .tooltip rect{fill-opacity:.95;stroke-width:.5}#chart-927a5661-baec-4ccd-9f3f-c6ccc768a365 .tooltip text{fill-opacity:1}#chart-927a5661-baec-4ccd-9f3f-c6ccc768a365 .showable{visibility:hidden}#chart-927a5661-baec-4ccd-9f3f-c6ccc768a365 .showable.shown{visibility:visible}#chart-927a5661-baec-4ccd-9f3f-c6ccc768a365 .gauge-background{fill:rgba(229,229,229,1);stroke:none}#chart-927a5661-baec-4ccd-9f3f-c6ccc768a365 .bg-lines{stroke:rgba(249,249,249,1);stroke-width:2px}</style><script type="text/javascript">window.pygal = window.pygal || {};window.pygal.config = window.pygal.config || {};window.pygal.config['927a5661-baec-4ccd-9f3f-c6ccc768a365'] = {"no_data_text": "No data", "no_prefix": false, "xrange": null, "print_values_position": "center", "truncate_label": null, "x_labels": ["2549", "2550", "2551", "2552", "2553", "2554", "2555", "2556", "2557", "2558"], "title": null, "force_uri_protocol": "https", "defs": [], "formatter": null, "classes": ["pygal-chart"], "y_labels": null, "rounded_bars": null, "explicit_size": false, "x_labels_major_every": null, "legend_at_bottom_columns": null, "stroke_style": null, "half_pie": false, "spacing": 10, "tooltip_fancy_mode": true, "inverse_y_axis": false, "width": 800, "inner_radius": 0, "interpolation_parameters": {}, "tooltip_border_radius": 0, "style": {"no_data_font_family": "Consolas, \"Liberation Mono\", Menlo, Courier, monospace", "tooltip_font_size": 14, "tooltip_font_family": "Consolas, \"Liberation Mono\", Menlo, Courier, monospace", "stroke_opacity_hover": ".9", "legend_font_family": "Consolas, \"Liberation Mono\", Menlo, Courier, monospace", "font_family": "Consolas, \"Liberation Mono\", Menlo, Courier, monospace", "title_font_family": "Consolas, \"Liberation Mono\", Menlo, Courier, monospace", "background": "rgba(249, 249, 249, 1)", "stroke_opacity": ".8", "foreground": "rgba(0, 0, 0, .87)", "value_background": "rgba(229, 229, 229, 1)", "guide_stroke_dasharray": "4,4", "foreground_subtle": "rgba(0, 0, 0, .54)", "opacity_hover": ".8", "value_font_family": "Consolas, \"Liberation Mono\", Menlo, Courier, monospace", "value_label_font_size": 10, "plot_background": "rgba(255, 255, 255, 1)", "ci_colors": [], "label_font_size": 10, "major_label_font_size": 10, "title_font_size": 16, "no_data_font_size": 64, "value_font_size": 16, "value_colors": [], "label_font_family": "Consolas, \"Liberation Mono\", Menlo, Courier, monospace", "major_guide_stroke_dasharray": "6,6", "transition": "150ms", "foreground_strong": "rgba(0, 0, 0, 1)", "colors": ["#e86fa0", "#e88f6f", "#e8df6f", "#a0e86f", "#6fe88f", "#6fe8df", "#6fa0e8", "#8f6fe8", "#df6fe8", "#e86fa0"], "opacity": ".7", "legend_font_size": 14, "value_label_font_family": "Consolas, \"Liberation Mono\", Menlo, Courier, monospace", "major_label_font_family": "Consolas, \"Liberation Mono\", Menlo, Courier, monospace"}, "x_labels_major_count": null, "interpolation_precision": 250, "missing_value_fill_truncation": "x", "stack_from_top": false, "truncate_legend": null, "show_minor_x_labels": true, "print_zeroes": true, "css": ["file://style.css", "file://graph.css"], "y_label_rotation": 0, "legend_at_bottom": false, "print_values": false, "margin_top": null, "max_scale": 16, "allow_interruptions": false, "show_x_labels": true, "strict": false, "show_x_guides": false, "stroke": true, "margin_left": null, "dynamic_print_values": false, "print_labels": false, "show_y_labels": true, "x_labels_major": null, "range": null, "x_label_rotation": 0, "margin": 20, "zero": 0, "include_x_axis": false, "height": 600, "show_minor_y_labels": true, "show_dots": true, "interpolate": "cubic", "show_y_guides": true, "y_labels_major": null, "box_mode": "extremes", "margin_bottom": null, "order_min": null, "legend_box_size": 12, "fill": true, "show_only_major_dots": false, "js": ["//kozea.github.io/pygal.js/2.0.x/pygal-tooltips.min.js"], "x_title": null, "y_labels_major_every": null, "y_labels_major_count": null, "disable_xml_declaration": false, "y_title": null, "logarithmic": false, "pretty_print": false, "min_scale": 4, "dots_size": 2.5, "margin_right": null, "legends": [null], "secondary_range": null, "show_legend": false}</script><script type="text/javascript" xlink:href="https://kozea.github.io/pygal.js/2.0.x/pygal-tooltips.min.js" /></defs><title>Pygal</title><g class="graph stackedline-graph vertical"><rect class="background" height="600" width="800" x="0" y="0" /><g class="plot" transform="translate(60, 20)"><rect class="background" height="540" width="720.0" x="0" y="0" /><g class="axis y"><path class="line" d="M0.000000 540.000000 h720.000000" /><g class="guides"><path class="guide line" d="M0.000000 452.346734 h720.000000" /><text class="" x="-5" y="455.8467336337379">1100M</text><title>1100M</title></g><g class="guides"><path class="guide line" d="M0.000000 348.444962 h720.000000" /><text class="" x="-5" y="351.9449624162726">1200M</text><title>1200M</title></g><g class="guides"><path class="guide line" d="M0.000000 244.543191 h720.000000" /><text class="" x="-5" y="248.04319119880734">1300M</text><title>1300M</title></g><g class="guides"><path class="guide line" d="M0.000000 140.641420 h720.000000" /><text class="" x="-5" y="144.14141998134198">1400M</text><title>1400M</title></g><g class="guides"><path class="major guide line" d="M0.000000 36.739649 h720.000000" /><text class="major" x="-5" y="40.23964876387669">1500M</text><title>1500M</title></g></g><g class="axis x"><g class="guides"><path class="line" d="M13.846154 0.000000 v540.000000" /><text class="" x="13.846153846153847" y="555.0">2549</text></g><g class="guides"><path class="guide line" d="M90.769231 0.000000 v540.000000" /><text class="" x="90.76923076923076" y="555.0">2550</text></g><g class="guides"><path class="guide line" d="M167.692308 0.000000 v540.000000" /><text class="" x="167.69230769230765" y="555.0">2551</text></g><g class="guides"><path class="guide line" d="M244.615385 0.000000 v540.000000" /><text class="" x="244.6153846153846" y="555.0">2552</text></g><g class="guides"><path class="guide line" d="M321.538462 0.000000 v540.000000" /><text class="" x="321.5384615384615" y="555.0">2553</text></g><g class="guides"><path class="guide line" d="M398.461538 0.000000 v540.000000" /><text class="" x="398.46153846153845" y="555.0">2554</text></g><g class="guides"><path class="guide line" d="M475.384615 0.000000 v540.000000" /><text class="" x="475.38461538461536" y="555.0">2555</text></g><g class="guides"><path class="guide line" d="M552.307692 0.000000 v540.000000" /><text class="" x="552.3076923076923" y="555.0">2556</text></g><g class="guides"><path class="guide line" d="M629.230769 0.000000 v540.000000" /><text class="" x="629.2307692307692" y="555.0">2557</text></g><g class="guides"><path class="guide line" d="M706.153846 0.000000 v540.000000" /><text class="" x="706.1538461538461" y="555.0">2558</text></g></g><g class="series serie-0 color-0"><path class="line reactive" d="M13.846154 540.000000 L13.846154 529.615385 14.153846 529.314400 14.461538 529.013418 14.769231 528.712439 15.076923 528.411465 15.384615 528.110498 15.692308 527.809541 16.000000 527.508594 16.307692 527.207659 16.615385 526.906739 16.923077 526.605834 17.230769 526.304948 17.538462 526.004081 17.846154 525.703235 18.153846 525.402412 18.461538 525.101614 18.769231 524.800843 19.076923 524.500100 19.384615 524.199388 19.692308 523.898707 20.000000 523.598060 20.307692 523.297449 20.615385 522.996875 20.923077 522.696340 21.230769 522.395846 21.538462 522.095395 21.846154 521.794988 22.153846 521.494627 22.461538 521.194314 22.769231 520.894051 23.076923 520.593840 23.384615 520.293682 23.692308 519.993579 24.000000 519.693532 24.307692 519.393545 24.615385 519.093617 24.923077 518.793752 25.230769 518.493951 25.538462 518.194216 25.846154 517.894548 26.153846 517.594949 26.461538 517.295422 26.769231 516.995967 27.076923 516.696587 27.384615 516.397283 27.692308 516.098058 28.000000 515.798912 28.307692 515.499848 28.615385 515.200868 28.923077 514.901973 29.230769 514.603165 29.538462 514.304446 29.846154 514.005817 30.153846 513.707281 30.461538 513.408839 30.769231 513.110493 31.076923 512.812244 31.384615 512.514095 31.692308 512.216048 32.000000 511.918103 32.307692 511.620263 32.615385 511.322530 32.923077 511.024905 33.230769 510.727391 33.538462 510.429988 33.846154 510.132699 34.153846 509.835525 34.461538 509.538469 34.769231 509.241532 35.076923 508.944716 35.384615 508.648022 35.692308 508.351452 36.000000 508.055009 36.307692 507.758693 36.615385 507.462508 36.923077 507.166453 37.230769 506.870532 37.538462 506.574746 37.846154 506.279097 38.153846 505.983586 38.461538 505.688216 38.769231 505.392988 39.076923 505.097904 39.384615 504.802965 39.692308 504.508174 40.000000 504.213532 40.307692 503.919041 40.615385 503.624703 40.923077 503.330520 41.230769 503.036492 41.538462 502.742623 41.846154 502.448914 42.153846 502.155367 42.461538 501.861983 42.769231 501.568764 43.076923 501.275712 43.384615 500.982829 43.692308 500.690116 44.000000 500.397576 44.307692 500.105210 44.615385 499.813020 44.923077 499.521007 45.230769 499.229174 45.538462 498.937523 45.846154 498.646054 46.153846 498.354770 46.461538 498.063672 46.769231 497.772763 47.076923 497.482044 47.384615 497.191516 47.692308 496.901183 48.000000 496.611044 48.307692 496.321103 48.615385 496.031361 48.923077 495.741820 49.230769 495.452481 49.538462 495.163347 49.846154 494.874419 50.153846 494.585698 50.461538 494.297187 50.769231 494.008888 51.076923 493.720802 51.384615 493.432930 51.692308 493.145276 52.000000 492.857840 52.307692 492.570624 52.615385 492.283631 52.923077 491.996861 53.230769 491.710317 53.538462 491.424000 53.846154 491.137912 54.153846 490.852056 54.461538 490.566432 54.769231 490.281043 55.076923 489.995890 55.384615 489.710975 55.692308 489.426299 56.000000 489.141866 56.307692 488.857676 56.615385 488.573731 56.923077 488.290033 57.230769 488.006583 57.538462 487.723385 57.846154 487.440438 58.153846 487.157746 58.461538 486.875309 58.769231 486.593130 59.076923 486.311210 59.384615 486.029552 59.692308 485.748156 60.000000 485.467025 60.307692 485.186161 60.615385 484.905565 60.923077 484.625239 61.230769 484.345185 61.538462 484.065404 61.846154 483.785899 62.153846 483.506671 62.461538 483.227722 62.769231 482.949053 63.076923 482.670667 63.384615 482.392565 63.692308 482.114750 64.000000 481.837222 64.307692 481.559984 64.615385 481.283037 64.923077 481.006383 65.230769 480.730024 65.538462 480.453962 65.846154 480.178198 66.153846 479.902734 66.461538 479.627573 66.769231 479.352715 67.076923 479.078163 67.384615 478.803919 67.692308 478.529983 68.000000 478.256358 68.307692 477.983046 68.615385 477.710049 68.923077 477.437367 69.230769 477.165004 69.538462 476.892960 69.846154 476.621239 70.153846 476.349840 70.461538 476.078766 70.769231 475.808020 71.076923 475.537602 71.384615 475.267514 71.692308 474.997759 72.000000 474.728338 72.307692 474.459252 72.615385 474.190504 72.923077 473.922096 73.230769 473.654028 73.538462 473.386304 73.846154 473.118924 74.153846 472.851890 74.461538 472.585205 74.769231 472.318870 75.076923 472.052886 75.384615 471.787256 75.692308 471.521981 76.000000 471.257064 76.307692 470.992505 76.615385 470.728307 76.923077 470.464471 77.230769 470.201000 77.538462 469.937895 77.846154 469.675157 78.153846 469.412789 78.461538 469.150792 78.769231 468.889168 79.076923 468.627919 79.384615 468.367047 79.692308 468.106553 80.000000 467.846440 80.307692 467.586708 80.615385 467.327360 80.923077 467.068397 81.230769 466.809822 81.538462 466.551636 81.846154 466.293841 82.153846 466.036439 82.461538 465.779430 82.769231 465.522818 83.076923 465.266604 83.384615 465.010790 83.692308 464.755377 84.000000 464.500368 84.307692 464.245764 84.615385 463.991566 84.923077 463.737777 85.230769 463.484398 85.538462 463.231432 85.846154 462.978880 86.153846 462.726743 86.461538 462.475024 86.769231 462.223724 87.076923 461.972845 87.384615 461.722389 87.692308 461.472357 88.000000 461.222752 88.307692 460.973575 88.615385 460.724828 88.923077 460.476513 89.230769 460.228631 89.538462 459.981185 89.846154 459.734176 90.153846 459.487605 90.461538 459.241475 90.769231 458.995787 91.076923 458.750543 91.384615 458.505743 91.692308 458.261385 92.000000 458.017470 92.307692 457.773996 92.615385 457.530963 92.923077 457.288370 93.230769 457.046217 93.538462 456.804502 93.846154 456.563226 94.153846 456.322387 94.461538 456.081985 94.769231 455.842019 95.076923 455.602489 95.384615 455.363394 95.692308 455.124733 96.000000 454.886506 96.307692 454.648711 96.615385 454.411349 96.923077 454.174418 97.230769 453.937918 97.538462 453.701849 97.846154 453.466209 98.153846 453.230998 98.461538 452.996215 98.769231 452.761860 99.076923 452.527932 99.384615 452.294431 99.692308 452.061354 100.000000 451.828703 100.307692 451.596476 100.615385 451.364673 100.923077 451.133293 101.230769 450.902335 101.538462 450.671799 101.846154 450.441684 102.153846 450.211989 102.461538 449.982714 102.769231 449.753858 103.076923 449.525420 103.384615 449.297400 103.692308 449.069797 104.000000 448.842610 104.307692 448.615839 104.615385 448.389483 104.923077 448.163542 105.230769 447.938014 105.538462 447.712899 105.846154 447.488197 106.153846 447.263907 106.461538 447.040027 106.769231 446.816558 107.076923 446.593499 107.384615 446.370849 107.692308 446.148607 108.000000 445.926773 108.307692 445.705347 108.615385 445.484326 108.923077 445.263712 109.230769 445.043503 109.538462 444.823698 109.846154 444.604297 110.153846 444.385299 110.461538 444.166703 110.769231 443.948510 111.076923 443.730718 111.384615 443.513326 111.692308 443.296334 112.000000 443.079741 112.307692 442.863547 112.615385 442.647750 112.923077 442.432351 113.230769 442.217348 113.538462 442.002741 113.846154 441.788530 114.153846 441.574713 114.461538 441.361290 114.769231 441.148260 115.076923 440.935623 115.384615 440.723377 115.692308 440.511523 116.000000 440.300060 116.307692 440.088986 116.615385 439.878302 116.923077 439.668006 117.230769 439.458098 117.538462 439.248578 117.846154 439.039444 118.153846 438.830696 118.461538 438.622334 118.769231 438.414356 119.076923 438.206762 119.384615 437.999551 119.692308 437.792723 120.000000 437.586277 120.307692 437.380213 120.615385 437.174529 120.923077 436.969225 121.230769 436.764300 121.538462 436.559754 121.846154 436.355586 122.153846 436.151796 122.461538 435.948382 122.769231 435.745344 123.076923 435.542682 123.384615 435.340394 123.692308 435.138481 124.000000 434.936941 124.307692 434.735773 124.615385 434.534978 124.923077 434.334554 125.230769 434.134501 125.538462 433.934818 125.846154 433.735504 126.153846 433.536560 126.461538 433.337983 126.769231 433.139774 127.076923 432.941931 127.384615 432.744455 127.692308 432.547344 128.000000 432.350598 128.307692 432.154216 128.615385 431.958198 128.923077 431.762542 129.230769 431.567249 129.538462 431.372317 129.846154 431.177746 130.153846 430.983535 130.461538 430.789683 130.769231 430.596191 131.076923 430.403057 131.384615 430.210280 131.692308 430.017860 132.000000 429.825796 132.307692 429.634088 132.615385 429.442735 132.923077 429.251736 133.230769 429.061090 133.538462 428.870798 133.846154 428.680857 134.153846 428.491269 134.461538 428.302031 134.769231 428.113143 135.076923 427.924605 135.384615 427.736416 135.692308 427.548576 136.000000 427.361083 136.307692 427.173936 136.615385 426.987137 136.923077 426.800682 137.230769 426.614573 137.538462 426.428808 137.846154 426.243387 138.153846 426.058309 138.461538 425.873573 138.769231 425.689178 139.076923 425.505125 139.384615 425.321412 139.692308 425.138039 140.000000 424.955005 140.307692 424.772309 140.615385 424.589951 140.923077 424.407930 141.230769 424.226245 141.538462 424.044896 141.846154 423.863882 142.153846 423.683202 142.461538 423.502856 142.769231 423.322844 143.076923 423.143163 143.384615 422.963815 143.692308 422.784797 144.000000 422.606110 144.307692 422.427753 144.615385 422.249724 144.923077 422.072025 145.230769 421.894653 145.538462 421.717608 145.846154 421.540889 146.153846 421.364497 146.461538 421.188429 146.769231 421.012686 147.076923 420.837267 147.384615 420.662171 147.692308 420.487398 148.000000 420.312946 148.307692 420.138815 148.615385 419.965005 148.923077 419.791515 149.230769 419.618344 149.538462 419.445492 149.846154 419.272957 150.153846 419.100740 150.461538 418.928839 150.769231 418.757254 151.076923 418.585984 151.384615 418.415029 151.692308 418.244388 152.000000 418.074059 152.307692 417.904044 152.615385 417.734340 152.923077 417.564948 153.230769 417.395866 153.538462 417.227095 153.846154 417.058632 154.153846 416.890478 154.461538 416.722632 154.769231 416.555093 155.076923 416.387861 155.384615 416.220935 155.692308 416.054315 156.000000 415.887998 156.307692 415.721986 156.615385 415.556277 156.923077 415.390871 157.230769 415.225767 157.538462 415.060964 157.846154 414.896462 158.153846 414.732260 158.461538 414.568357 158.769231 414.404753 159.076923 414.241447 159.384615 414.078438 159.692308 413.915726 160.000000 413.753310 160.307692 413.591189 160.615385 413.429363 160.923077 413.267832 161.230769 413.106593 161.538462 412.945648 161.846154 412.784994 162.153846 412.624632 162.461538 412.464560 162.769231 412.304779 163.076923 412.145287 163.384615 411.986084 163.692308 411.827169 164.000000 411.668542 164.307692 411.510201 164.615385 411.352146 164.923077 411.194377 165.230769 411.036893 165.538462 410.879692 165.846154 410.722776 166.153846 410.566142 166.461538 410.409790 166.769231 410.253720 167.076923 410.097930 167.384615 409.942421 167.692308 409.787191 168.000000 409.632239 168.307692 409.477554 168.615385 409.323126 168.923077 409.168943 169.230769 409.014995 169.538462 408.861270 169.846154 408.707757 170.153846 408.554445 170.461538 408.401324 170.769231 408.248381 171.076923 408.095606 171.384615 407.942987 171.692308 407.790514 172.000000 407.638176 172.307692 407.485961 172.615385 407.333858 172.923077 407.181856 173.230769 407.029944 173.538462 406.878111 173.846154 406.726345 174.153846 406.574637 174.461538 406.422973 174.769231 406.271345 175.076923 406.119739 175.384615 405.968146 175.692308 405.816554 176.000000 405.664952 176.307692 405.513329 176.615385 405.361673 176.923077 405.209975 177.230769 405.058221 177.538462 404.906403 177.846154 404.754507 178.153846 404.602524 178.461538 404.450442 178.769231 404.298250 179.076923 404.145936 179.384615 403.993491 179.692308 403.840902 180.000000 403.688159 180.307692 403.535250 180.615385 403.382164 180.923077 403.228891 181.230769 403.075419 181.538462 402.921737 181.846154 402.767833 182.153846 402.613698 182.461538 402.459319 182.769231 402.304686 183.076923 402.149787 183.384615 401.994611 183.692308 401.839148 184.000000 401.683386 184.307692 401.527314 184.615385 401.370920 184.923077 401.214195 185.230769 401.057126 185.538462 400.899703 185.846154 400.741914 186.153846 400.583749 186.461538 400.425196 186.769231 400.266243 187.076923 400.106881 187.384615 399.947098 187.692308 399.786883 188.000000 399.626224 188.307692 399.465111 188.615385 399.303533 188.923077 399.141477 189.230769 398.978934 189.538462 398.815892 189.846154 398.652340 190.153846 398.488268 190.461538 398.323662 190.769231 398.158514 191.076923 397.992811 191.384615 397.826543 191.692308 397.659697 192.000000 397.492265 192.307692 397.324233 192.615385 397.155591 192.923077 396.986329 193.230769 396.816434 193.538462 396.645895 193.846154 396.474703 194.153846 396.302845 194.461538 396.130310 194.769231 395.957087 195.076923 395.783166 195.384615 395.608535 195.692308 395.433182 196.000000 395.257098 196.307692 395.080270 196.615385 394.902687 196.923077 394.724339 197.230769 394.545215 197.538462 394.365303 197.846154 394.184592 198.153846 394.003071 198.461538 393.820729 198.769231 393.637554 199.076923 393.453537 199.384615 393.268665 199.692308 393.082928 200.000000 392.896313 200.307692 392.708812 200.615385 392.520411 200.923077 392.331100 201.230769 392.140869 201.538462 391.949705 201.846154 391.757598 202.153846 391.564536 202.461538 391.370509 202.769231 391.175506 203.076923 390.979515 203.384615 390.782524 203.692308 390.584524 204.000000 390.385503 204.307692 390.185450 204.615385 389.984353 204.923077 389.782202 205.230769 389.578986 205.538462 389.374693 205.846154 389.169312 206.153846 388.962832 206.461538 388.755243 206.769231 388.546532 207.076923 388.336689 207.384615 388.125703 207.692308 387.913563 208.000000 387.700257 208.307692 387.485775 208.615385 387.270104 208.923077 387.053235 209.230769 386.835156 209.538462 386.615856 209.846154 386.395324 210.153846 386.173549 210.461538 385.950519 210.769231 385.726224 211.076923 385.500652 211.384615 385.273792 211.692308 385.045634 212.000000 384.816166 212.307692 384.585376 212.615385 384.353255 212.923077 384.119790 213.230769 383.884971 213.538462 383.648787 213.846154 383.411226 214.153846 383.172277 214.461538 382.931929 214.769231 382.690172 215.076923 382.446993 215.384615 382.202382 215.692308 381.956328 216.000000 381.708820 216.307692 381.459846 216.615385 381.209396 216.923077 380.957458 217.230769 380.704021 217.538462 380.449074 217.846154 380.192606 218.153846 379.934606 218.461538 379.675063 218.769231 379.413966 219.076923 379.151303 219.384615 378.887063 219.692308 378.621236 220.000000 378.353810 220.307692 378.084774 220.615385 377.814117 220.923077 377.541828 221.230769 377.267896 221.538462 376.992310 221.846154 376.715057 222.153846 376.436129 222.461538 376.155513 222.769231 375.873197 223.076923 375.589172 223.384615 375.303427 223.692308 375.015948 224.000000 374.726727 224.307692 374.435751 224.615385 374.143010 224.923077 373.848493 225.230769 373.552187 225.538462 373.254083 225.846154 372.954169 226.153846 372.652434 226.461538 372.348867 226.769231 372.043457 227.076923 371.736192 227.384615 371.427062 227.692308 371.116056 228.000000 370.803161 228.307692 370.488368 228.615385 370.171665 228.923077 369.853041 229.230769 369.532485 229.538462 369.209986 229.846154 368.885532 230.153846 368.559113 230.461538 368.230718 230.769231 367.900335 231.076923 367.567953 231.384615 367.233561 231.692308 366.897148 232.000000 366.558703 232.307692 366.218215 232.615385 365.875673 232.923077 365.531065 233.230769 365.184380 233.538462 364.835608 233.846154 364.484738 234.153846 364.131757 234.461538 363.776655 234.769231 363.419422 235.076923 363.060045 235.384615 362.698513 235.692308 362.334817 236.000000 361.968944 236.307692 361.600883 236.615385 361.230623 236.923077 360.858154 237.230769 360.483463 237.538462 360.106541 237.846154 359.727375 238.153846 359.345955 238.461538 358.962270 238.769231 358.576308 239.076923 358.188058 239.384615 357.797510 239.692308 357.404652 240.000000 357.009473 240.307692 356.611962 240.615385 356.212107 240.923077 355.809899 241.230769 355.405325 241.538462 354.998374 241.846154 354.589036 242.153846 354.177299 242.461538 353.763152 242.769231 353.346585 243.076923 352.927585 243.384615 352.506142 243.692308 352.082245 244.000000 351.655882 244.307692 351.227043 244.615385 350.795716 244.923077 350.361896 245.230769 349.925599 245.538462 349.486847 245.846154 349.045662 246.153846 348.602065 246.461538 348.156079 246.769231 347.707725 247.076923 347.257026 247.384615 346.804002 247.692308 346.348676 248.000000 345.891069 248.307692 345.431204 248.615385 344.969102 248.923077 344.504786 249.230769 344.038276 249.538462 343.569595 249.846154 343.098765 250.153846 342.625807 250.461538 342.150743 250.769231 341.673596 251.076923 341.194386 251.384615 340.713136 251.692308 340.229868 252.000000 339.744603 252.307692 339.257364 252.615385 338.768172 252.923077 338.277048 253.230769 337.784015 253.538462 337.289095 253.846154 336.792310 254.153846 336.293680 254.461538 335.793229 254.769231 335.290978 255.076923 334.786948 255.384615 334.281162 255.692308 333.773642 256.000000 333.264409 256.307692 332.753484 256.615385 332.240891 256.923077 331.726651 257.230769 331.210785 257.538462 330.693316 257.846154 330.174264 258.153846 329.653653 258.461538 329.131504 258.769231 328.607839 259.076923 328.082679 259.384615 327.556047 259.692308 327.027964 260.000000 326.498452 260.307692 325.967533 260.615385 325.435229 260.923077 324.901562 261.230769 324.366552 261.538462 323.830224 261.846154 323.292597 262.153846 322.753694 262.461538 322.213537 262.769231 321.672147 263.076923 321.129547 263.384615 320.585759 263.692308 320.040803 264.000000 319.494702 264.307692 318.947478 264.615385 318.399153 264.923077 317.849748 265.230769 317.299286 265.538462 316.747787 265.846154 316.195275 266.153846 315.641770 266.461538 315.087295 266.769231 314.531871 267.076923 313.975520 267.384615 313.418265 267.692308 312.860127 268.000000 312.301127 268.307692 311.741288 268.615385 311.180631 268.923077 310.619179 269.230769 310.056952 269.538462 309.493974 269.846154 308.930266 270.153846 308.365849 270.461538 307.800745 270.769231 307.234977 271.076923 306.668566 271.384615 306.101534 271.692308 305.533902 272.000000 304.965693 272.307692 304.396929 272.615385 303.827631 272.923077 303.257821 273.230769 302.687521 273.538462 302.116752 273.846154 301.545538 274.153846 300.973898 274.461538 300.401856 274.769231 299.829433 275.076923 299.256652 275.384615 298.683532 275.692308 298.110098 276.000000 297.536370 276.307692 296.962370 276.615385 296.388120 276.923077 295.813642 277.230769 295.238958 277.538462 294.664090 277.846154 294.089059 278.153846 293.513887 278.461538 292.938596 278.769231 292.363208 279.076923 291.787745 279.384615 291.212229 279.692308 290.636681 280.000000 290.061124 280.307692 289.485578 280.615385 288.910066 280.923077 288.334611 281.230769 287.759232 281.538462 287.183954 281.846154 286.608796 282.153846 286.033782 282.461538 285.458932 282.769231 284.884269 283.076923 284.309815 283.384615 283.735592 283.692308 283.161620 284.000000 282.587923 284.307692 282.014522 284.615385 281.441438 284.923077 280.868694 285.230769 280.296312 285.538462 279.724312 285.846154 279.152718 286.153846 278.581551 286.461538 278.010832 286.769231 277.440584 287.076923 276.870829 287.384615 276.301588 287.692308 275.732883 288.000000 275.164736 288.307692 274.597168 288.615385 274.030203 288.923077 273.463860 289.230769 272.898163 289.538462 272.333133 289.846154 271.768792 290.153846 271.205162 290.461538 270.642264 290.769231 270.080121 291.076923 269.518754 291.384615 268.958185 291.692308 268.398437 292.000000 267.839529 292.307692 267.281486 292.615385 266.724328 292.923077 266.168077 293.230769 265.612755 293.538462 265.058384 293.846154 264.504986 294.153846 263.952583 294.461538 263.401196 294.769231 262.850847 295.076923 262.301559 295.384615 261.753352 295.692308 261.206249 296.000000 260.660272 296.307692 260.115442 296.615385 259.571782 296.923077 259.029312 297.230769 258.488055 297.538462 257.948034 297.846154 257.409269 298.153846 256.871782 298.461538 256.335595 298.769231 255.800731 299.076923 255.267211 299.384615 254.735056 299.692308 254.204289 300.000000 253.674931 300.307692 253.147005 300.615385 252.620532 300.923077 252.095533 301.230769 251.572032 301.538462 251.050049 301.846154 250.529606 302.153846 250.010726 302.461538 249.493430 302.769231 248.977740 303.076923 248.463677 303.384615 247.951264 303.692308 247.440523 304.000000 246.931475 304.307692 246.424142 304.615385 245.918546 304.923077 245.414708 305.230769 244.912652 305.538462 244.412397 305.846154 243.913967 306.153846 243.417383 306.461538 242.922667 306.769231 242.429841 307.076923 241.938927 307.384615 241.449945 307.692308 240.962920 308.000000 240.477871 308.307692 239.994821 308.615385 239.513792 308.923077 239.034805 309.230769 238.557883 309.538462 238.083047 309.846154 237.610320 310.153846 237.139722 310.461538 236.671276 310.769231 236.205004 311.076923 235.740927 311.384615 235.279067 311.692308 234.819446 312.000000 234.362087 312.307692 233.907010 312.615385 233.454238 312.923077 233.003792 313.230769 232.555694 313.538462 232.109967 313.846154 231.666631 314.153846 231.225709 314.461538 230.787223 314.769231 230.351194 315.076923 229.917645 315.384615 229.486597 315.692308 229.058071 316.000000 228.632091 316.307692 228.208676 316.615385 227.787851 316.923077 227.369635 317.230769 226.954052 317.538462 226.541123 317.846154 226.130869 318.153846 225.723313 318.461538 225.318477 318.769231 224.916382 319.076923 224.517049 319.384615 224.120502 319.692308 223.726762 320.000000 223.335850 320.307692 222.947789 320.615385 222.562599 320.923077 222.180304 321.230769 221.800925 321.538462 221.424484 321.846154 221.050995 322.153846 220.680442 322.461538 220.312804 322.769231 219.948058 323.076923 219.586179 323.384615 219.227147 323.692308 218.870938 324.000000 218.517529 324.307692 218.166898 324.615385 217.819022 324.923077 217.473878 325.230769 217.131444 325.538462 216.791696 325.846154 216.454613 326.153846 216.120170 326.461538 215.788346 326.769231 215.459118 327.076923 215.132463 327.384615 214.808358 327.692308 214.486781 328.000000 214.167709 328.307692 213.851118 328.615385 213.536987 328.923077 213.225293 329.230769 212.916012 329.538462 212.609122 329.846154 212.304601 330.153846 212.002426 330.461538 211.702573 330.769231 211.405021 331.076923 211.109746 331.384615 210.816725 331.692308 210.525937 332.000000 210.237357 332.307692 209.950965 332.615385 209.666735 332.923077 209.384647 333.230769 209.104677 333.538462 208.826803 333.846154 208.551001 334.153846 208.277250 334.461538 208.005525 334.769231 207.735805 335.076923 207.468067 335.384615 207.202288 335.692308 206.938446 336.000000 206.676517 336.307692 206.416478 336.615385 206.158308 336.923077 205.901983 337.230769 205.647481 337.538462 205.394779 337.846154 205.143854 338.153846 204.894683 338.461538 204.647244 338.769231 204.401514 339.076923 204.157470 339.384615 203.915089 339.692308 203.674349 340.000000 203.435227 340.307692 203.197701 340.615385 202.961746 340.923077 202.727342 341.230769 202.494464 341.538462 202.263091 341.846154 202.033200 342.153846 201.804767 342.461538 201.577770 342.769231 201.352186 343.076923 201.127993 343.384615 200.905168 343.692308 200.683688 344.000000 200.463530 344.307692 200.244672 344.615385 200.027091 344.923077 199.810764 345.230769 199.595668 345.538462 199.381781 345.846154 199.169080 346.153846 198.957542 346.461538 198.747144 346.769231 198.537864 347.076923 198.329679 347.384615 198.122566 347.692308 197.916503 348.000000 197.711466 348.307692 197.507434 348.615385 197.304382 348.923077 197.102290 349.230769 196.901133 349.538462 196.700889 349.846154 196.501535 350.153846 196.303049 350.461538 196.105407 350.769231 195.908588 351.076923 195.712568 351.384615 195.517325 351.692308 195.322835 352.000000 195.129077 352.307692 194.936027 352.615385 194.743662 352.923077 194.551961 353.230769 194.360899 353.538462 194.170456 353.846154 193.980606 354.153846 193.791329 354.461538 193.602601 354.769231 193.414399 355.076923 193.226701 355.384615 193.039484 355.692308 192.852726 356.000000 192.666402 356.307692 192.480492 356.615385 192.294971 356.923077 192.109818 357.230769 191.925009 357.538462 191.740523 357.846154 191.556335 358.153846 191.372423 358.461538 191.188765 358.769231 191.005338 359.076923 190.822119 359.384615 190.639086 359.692308 190.456215 360.000000 190.273484 360.307692 190.090870 360.615385 189.908350 360.923077 189.725902 361.230769 189.543504 361.538462 189.361131 361.846154 189.178761 362.153846 188.996373 362.461538 188.813942 362.769231 188.631447 363.076923 188.448864 363.384615 188.266171 363.692308 188.083344 364.000000 187.900362 364.307692 187.717202 364.615385 187.533840 364.923077 187.350255 365.230769 187.166423 365.538462 186.982321 365.846154 186.797927 366.153846 186.613218 366.461538 186.428172 366.769231 186.242765 367.076923 186.056975 367.384615 185.870779 367.692308 185.684155 368.000000 185.497079 368.307692 185.309529 368.615385 185.121482 368.923077 184.932916 369.230769 184.743807 369.538462 184.554134 369.846154 184.363872 370.153846 184.173000 370.461538 183.981495 370.769231 183.789334 371.076923 183.596494 371.384615 183.402953 371.692308 183.208687 372.000000 183.013674 372.307692 182.817892 372.615385 182.621317 372.923077 182.423927 373.230769 182.225699 373.538462 182.026611 373.846154 181.826639 374.153846 181.625761 374.461538 181.423954 374.769231 181.221195 375.076923 181.017462 375.384615 180.812732 375.692308 180.606982 376.000000 180.400190 376.307692 180.192332 376.615385 179.983386 376.923077 179.773329 377.230769 179.562139 377.538462 179.349792 377.846154 179.136267 378.153846 178.921540 378.461538 178.705588 378.769231 178.488389 379.076923 178.269920 379.384615 178.050158 379.692308 177.829081 380.000000 177.606666 380.307692 177.382889 380.615385 177.157729 380.923077 176.931163 381.230769 176.703167 381.538462 176.473720 381.846154 176.242798 382.153846 176.010378 382.461538 175.776439 382.769231 175.540956 383.076923 175.303908 383.384615 175.065272 383.692308 174.825024 384.000000 174.583143 384.307692 174.339605 384.615385 174.094388 384.923077 173.847469 385.230769 173.598825 385.538462 173.348434 385.846154 173.096272 386.153846 172.842318 386.461538 172.586547 386.769231 172.328938 387.076923 172.069468 387.384615 171.808114 387.692308 171.544854 388.000000 171.279663 388.307692 171.012521 388.615385 170.743404 388.923077 170.472289 389.230769 170.199154 389.538462 169.923976 389.846154 169.646731 390.153846 169.367399 390.461538 169.085954 390.769231 168.802376 391.076923 168.516641 391.384615 168.228726 391.692308 167.938609 392.000000 167.646267 392.307692 167.351678 392.615385 167.054817 392.923077 166.755664 393.230769 166.454194 393.538462 166.150386 393.846154 165.844216 394.153846 165.535662 394.461538 165.224701 394.769231 164.911310 395.076923 164.595467 395.384615 164.277149 395.692308 163.956333 396.000000 163.632996 396.307692 163.307115 396.615385 162.978669 396.923077 162.647634 397.230769 162.313987 397.538462 161.977706 397.846154 161.638767 398.153846 161.297149 398.461538 160.952828 398.769231 160.605790 399.076923 160.256051 399.384615 159.903636 399.692308 159.548569 400.000000 159.190875 400.307692 158.830578 400.615385 158.467703 400.923077 158.102275 401.230769 157.734318 401.538462 157.363856 401.846154 156.990914 402.153846 156.615517 402.461538 156.237689 402.769231 155.857455 403.076923 155.474839 403.384615 155.089866 403.692308 154.702560 404.000000 154.312946 404.307692 153.921049 404.615385 153.526892 404.923077 153.130501 405.230769 152.731901 405.538462 152.331114 405.846154 151.928167 406.153846 151.523083 406.461538 151.115888 406.769231 150.706605 407.076923 150.295260 407.384615 149.881876 407.692308 149.466479 408.000000 149.049093 408.307692 148.629742 408.615385 148.208451 408.923077 147.785245 409.230769 147.360148 409.538462 146.933184 409.846154 146.504379 410.153846 146.073756 410.461538 145.641340 410.769231 145.207156 411.076923 144.771229 411.384615 144.333582 411.692308 143.894241 412.000000 143.453230 412.307692 143.010573 412.615385 142.566295 412.923077 142.120421 413.230769 141.672975 413.538462 141.223982 413.846154 140.773465 414.153846 140.321451 414.461538 139.867963 414.769231 139.413025 415.076923 138.956663 415.384615 138.498901 415.692308 138.039763 416.000000 137.579274 416.307692 137.117459 416.615385 136.654341 416.923077 136.189947 417.230769 135.724299 417.538462 135.257423 417.846154 134.789343 418.153846 134.320085 418.461538 133.849671 418.769231 133.378127 419.076923 132.905478 419.384615 132.431747 419.692308 131.956960 420.000000 131.481141 420.307692 131.004314 420.615385 130.526505 420.923077 130.047737 421.230769 129.568036 421.538462 129.087425 421.846154 128.605929 422.153846 128.123573 422.461538 127.640381 422.769231 127.156379 423.076923 126.671589 423.384615 126.186038 423.692308 125.699749 424.000000 125.212747 424.307692 124.725057 424.615385 124.236703 424.923077 123.747709 425.230769 123.258101 425.538462 122.767902 425.846154 122.277138 426.153846 121.785832 426.461538 121.294010 426.769231 120.801696 427.076923 120.308914 427.384615 119.815689 427.692308 119.322046 428.000000 118.828009 428.307692 118.333602 428.615385 117.838851 428.923077 117.343779 429.230769 116.848411 429.538462 116.352772 429.846154 115.856887 430.153846 115.360779 430.461538 114.864474 430.769231 114.367995 431.076923 113.871369 431.384615 113.374618 431.692308 112.877767 432.000000 112.380842 432.307692 111.883866 432.615385 111.386865 432.923077 110.889862 433.230769 110.392883 433.538462 109.895951 433.846154 109.399092 434.153846 108.902329 434.461538 108.405688 434.769231 107.909193 435.076923 107.412868 435.384615 106.916739 435.692308 106.420829 436.000000 105.925163 436.307692 105.429766 436.615385 104.934662 436.923077 104.439875 437.230769 103.945431 437.538462 103.451354 437.846154 102.957668 438.153846 102.464398 438.461538 101.971569 438.769231 101.479205 439.076923 100.987330 439.384615 100.495969 439.692308 100.005147 440.000000 99.514887 440.307692 99.025216 440.615385 98.536157 440.923077 98.047734 441.230769 97.559973 441.538462 97.072898 441.846154 96.586533 442.153846 96.100903 442.461538 95.616033 442.769231 95.131947 443.076923 94.648669 443.384615 94.166224 443.692308 93.684637 444.000000 93.203932 444.307692 92.724134 444.615385 92.245267 444.923077 91.767356 445.230769 91.290425 445.538462 90.814499 445.846154 90.339603 446.153846 89.865760 446.461538 89.392996 446.769231 88.921335 447.076923 88.450802 447.384615 87.981421 447.692308 87.513216 448.000000 87.046213 448.307692 86.580435 448.615385 86.115908 448.923077 85.652656 449.230769 85.190703 449.538462 84.730073 449.846154 84.270793 450.153846 83.812885 450.461538 83.356375 450.769231 82.901287 451.076923 82.447645 451.384615 81.995475 451.692308 81.544800 452.000000 81.095646 452.307692 80.648037 452.615385 80.201996 452.923077 79.757550 453.230769 79.314722 453.538462 78.873537 453.846154 78.434019 454.153846 77.996194 454.461538 77.560085 454.769231 77.125717 455.076923 76.693115 455.384615 76.262303 455.692308 75.833306 456.000000 75.406148 456.307692 74.980854 456.615385 74.557448 456.923077 74.135955 457.230769 73.716399 457.538462 73.298806 457.846154 72.883199 458.153846 72.469603 458.461538 72.058043 458.769231 71.648543 459.076923 71.241127 459.384615 70.835821 459.692308 70.432648 460.000000 70.031634 460.307692 69.632803 460.615385 69.236179 460.923077 68.841787 461.230769 68.449651 461.538462 68.059797 461.846154 67.672248 462.153846 67.287029 462.461538 66.904164 462.769231 66.523679 463.076923 66.145598 463.384615 65.769945 463.692308 65.396744 464.000000 65.026021 464.307692 64.657800 464.615385 64.292105 464.923077 63.928962 465.230769 63.568393 465.538462 63.210425 465.846154 62.855081 466.153846 62.502387 466.461538 62.152366 466.769231 61.805043 467.076923 61.460443 467.384615 61.118591 467.692308 60.779510 468.000000 60.443225 468.307692 60.109762 468.615385 59.779144 468.923077 59.451396 469.230769 59.126542 469.538462 58.804607 469.846154 58.485616 470.153846 58.169594 470.461538 57.856564 470.769231 57.546551 471.076923 57.239580 471.384615 56.935675 471.692308 56.634861 472.000000 56.337163 472.307692 56.042604 472.615385 55.751210 472.923077 55.463005 473.230769 55.178013 473.538462 54.896260 473.846154 54.617769 474.153846 54.342566 474.461538 54.070674 474.769231 53.802118 475.076923 53.536923 475.384615 53.275114 475.692308 53.016707 476.000000 52.761691 476.307692 52.510047 476.615385 52.261756 476.923077 52.016800 477.230769 51.775158 477.538462 51.536813 477.846154 51.301745 478.153846 51.069936 478.461538 50.841366 478.769231 50.616017 479.076923 50.393869 479.384615 50.174903 479.692308 49.959102 480.000000 49.746445 480.307692 49.536914 480.615385 49.330490 480.923077 49.127154 481.230769 48.926887 481.538462 48.729670 481.846154 48.535485 482.153846 48.344311 482.461538 48.156131 482.769231 47.970925 483.076923 47.788675 483.384615 47.609361 483.692308 47.432964 484.000000 47.259467 484.307692 47.088848 484.615385 46.921091 484.923077 46.756175 485.230769 46.594083 485.538462 46.434794 485.846154 46.278290 486.153846 46.124552 486.461538 45.973562 486.769231 45.825299 487.076923 45.679746 487.384615 45.536883 487.692308 45.396691 488.000000 45.259152 488.307692 45.124247 488.615385 44.991955 488.923077 44.862260 489.230769 44.735141 489.538462 44.610580 489.846154 44.488558 490.153846 44.369056 490.461538 44.252054 490.769231 44.137535 491.076923 44.025479 491.384615 43.915867 491.692308 43.808680 492.000000 43.703899 492.307692 43.601506 492.615385 43.501481 492.923077 43.403805 493.230769 43.308460 493.538462 43.215427 493.846154 43.124686 494.153846 43.036219 494.461538 42.950007 494.769231 42.866030 495.076923 42.784271 495.384615 42.704709 495.692308 42.627327 496.000000 42.552104 496.307692 42.479023 496.615385 42.408064 496.923077 42.339208 497.230769 42.272437 497.538462 42.207730 497.846154 42.145071 498.153846 42.084439 498.461538 42.025815 498.769231 41.969182 499.076923 41.914519 499.384615 41.861807 499.692308 41.811029 500.000000 41.762165 500.307692 41.715195 500.615385 41.670102 500.923077 41.626865 501.230769 41.585467 501.538462 41.545888 501.846154 41.508110 502.153846 41.472112 502.461538 41.437878 502.769231 41.405386 503.076923 41.374620 503.384615 41.345559 503.692308 41.318184 504.000000 41.292477 504.307692 41.268419 504.615385 41.245991 504.923077 41.225174 505.230769 41.205949 505.538462 41.188297 505.846154 41.172199 506.153846 41.157637 506.461538 41.144590 506.769231 41.133041 507.076923 41.122971 507.384615 41.114359 507.692308 41.107189 508.000000 41.101439 508.307692 41.097093 508.615385 41.094130 508.923077 41.092532 509.230769 41.092280 509.538462 41.093355 509.846154 41.095737 510.153846 41.099409 510.461538 41.104351 510.769231 41.110544 511.076923 41.117969 511.384615 41.126607 511.692308 41.136440 512.000000 41.147448 512.307692 41.159613 512.615385 41.172915 512.923077 41.187336 513.230769 41.202856 513.538462 41.219457 513.846154 41.237120 514.153846 41.255826 514.461538 41.275555 514.769231 41.296290 515.076923 41.318011 515.384615 41.340699 515.692308 41.364335 516.000000 41.388900 516.307692 41.414375 516.615385 41.440742 516.923077 41.467982 517.230769 41.496074 517.538462 41.525002 517.846154 41.554745 518.153846 41.585284 518.461538 41.616602 518.769231 41.648678 519.076923 41.681494 519.384615 41.715031 519.692308 41.749270 520.000000 41.784192 520.307692 41.819778 520.615385 41.856010 520.923077 41.892867 521.230769 41.930332 521.538462 41.968386 521.846154 42.007008 522.153846 42.046182 522.461538 42.085887 522.769231 42.126104 523.076923 42.166815 523.384615 42.208001 523.692308 42.249643 524.000000 42.291722 524.307692 42.334219 524.615385 42.377114 524.923077 42.420390 525.230769 42.464027 525.538462 42.508006 525.846154 42.552308 526.153846 42.596915 526.461538 42.641807 526.769231 42.686966 527.076923 42.732372 527.384615 42.778007 527.692308 42.823851 528.000000 42.869886 528.307692 42.916093 528.615385 42.962453 528.923077 43.008946 529.230769 43.055555 529.538462 43.102259 529.846154 43.149041 530.153846 43.195881 530.461538 43.242760 530.769231 43.289660 531.076923 43.336561 531.384615 43.383444 531.692308 43.430290 532.000000 43.477082 532.307692 43.523799 532.615385 43.570422 532.923077 43.616933 533.230769 43.663313 533.538462 43.709543 533.846154 43.755604 534.153846 43.801477 534.461538 43.847143 534.769231 43.892583 535.076923 43.937778 535.384615 43.982710 535.692308 44.027359 536.000000 44.071706 536.307692 44.115732 536.615385 44.159420 536.923077 44.202748 537.230769 44.245700 537.538462 44.288255 537.846154 44.330394 538.153846 44.372100 538.461538 44.413352 538.769231 44.454133 539.076923 44.494422 539.384615 44.534202 539.692308 44.573453 540.000000 44.612155 540.307692 44.650292 540.615385 44.687842 540.923077 44.724788 541.230769 44.761110 541.538462 44.796790 541.846154 44.831809 542.153846 44.866147 542.461538 44.899786 542.769231 44.932706 543.076923 44.964890 543.384615 44.996317 543.692308 45.026969 544.000000 45.056828 544.307692 45.085873 544.615385 45.114087 544.923077 45.141449 545.230769 45.167943 545.538462 45.193547 545.846154 45.218244 546.153846 45.242014 546.461538 45.264839 546.769231 45.286700 547.076923 45.307577 547.384615 45.327452 547.692308 45.346306 548.000000 45.364119 548.307692 45.380874 548.615385 45.396550 548.923077 45.411130 549.230769 45.424594 549.538462 45.436922 549.846154 45.448098 550.153846 45.458100 550.461538 45.466911 550.769231 45.474511 551.076923 45.480882 551.384615 45.486004 551.692308 45.489859 552.000000 45.492428 552.307692 45.493691 552.615385 45.493635 552.923077 45.492261 553.230769 45.489579 553.538462 45.485595 553.846154 45.480316 554.153846 45.473750 554.461538 45.465905 554.769231 45.456788 555.076923 45.446406 555.384615 45.434767 555.692308 45.421878 556.000000 45.407747 556.307692 45.392381 556.615385 45.375788 556.923077 45.357974 557.230769 45.338949 557.538462 45.318718 557.846154 45.297289 558.153846 45.274671 558.461538 45.250869 558.769231 45.225892 559.076923 45.199748 559.384615 45.172443 559.692308 45.143985 560.000000 45.114381 560.307692 45.083640 560.615385 45.051768 560.923077 45.018772 561.230769 44.984661 561.538462 44.949442 561.846154 44.913122 562.153846 44.875708 562.461538 44.837208 562.769231 44.797630 563.076923 44.756981 563.384615 44.715268 563.692308 44.672499 564.000000 44.628681 564.307692 44.583822 564.615385 44.537930 564.923077 44.491010 565.230769 44.443072 565.538462 44.394122 565.846154 44.344168 566.153846 44.293218 566.461538 44.241278 566.769231 44.188357 567.076923 44.134461 567.384615 44.079598 567.692308 44.023776 568.000000 43.967002 568.307692 43.909284 568.615385 43.850628 568.923077 43.791043 569.230769 43.730536 569.538462 43.669114 569.846154 43.606784 570.153846 43.543555 570.461538 43.479433 570.769231 43.414427 571.076923 43.348543 571.384615 43.281788 571.692308 43.214172 572.000000 43.145700 572.307692 43.076380 572.615385 43.006220 572.923077 42.935227 573.230769 42.863408 573.538462 42.790772 573.846154 42.717325 574.153846 42.643075 574.461538 42.568030 574.769231 42.492196 575.076923 42.415581 575.384615 42.338194 575.692308 42.260040 576.000000 42.181128 576.307692 42.101465 576.615385 42.021058 576.923077 41.939916 577.230769 41.858045 577.538462 41.775452 577.846154 41.692146 578.153846 41.608133 578.461538 41.523422 578.769231 41.438019 579.076923 41.351933 579.384615 41.265169 579.692308 41.177737 580.000000 41.089643 580.307692 41.000895 580.615385 40.911500 580.923077 40.821466 581.230769 40.730800 581.538462 40.639509 581.846154 40.547602 582.153846 40.455085 582.461538 40.361966 582.769231 40.268252 583.076923 40.173951 583.384615 40.079070 583.692308 39.983618 584.000000 39.887600 584.307692 39.791025 584.615385 39.693899 584.923077 39.596232 585.230769 39.498029 585.538462 39.399298 585.846154 39.300048 586.153846 39.200285 586.461538 39.100016 586.769231 38.999249 587.076923 38.897992 587.384615 38.796252 587.692308 38.694037 588.000000 38.591354 588.307692 38.488209 588.615385 38.384612 588.923077 38.280569 589.230769 38.176088 589.538462 38.071175 589.846154 37.965840 590.153846 37.860088 590.461538 37.753928 590.769231 37.647366 591.076923 37.540412 591.384615 37.433070 591.692308 37.325351 592.000000 37.217259 592.307692 37.108804 592.615385 36.999993 592.923077 36.890833 593.230769 36.781331 593.538462 36.671495 593.846154 36.561332 594.153846 36.450850 594.461538 36.340057 594.769231 36.228959 595.076923 36.117564 595.384615 36.005880 595.692308 35.893914 596.000000 35.781673 596.307692 35.669165 596.615385 35.556398 596.923077 35.443378 597.230769 35.330114 597.538462 35.216612 597.846154 35.102881 598.153846 34.988927 598.461538 34.874758 598.769231 34.760381 599.076923 34.645805 599.384615 34.531035 599.692308 34.416081 600.000000 34.300949 600.307692 34.185646 600.615385 34.070181 600.923077 33.954560 601.230769 33.838792 601.538462 33.722882 601.846154 33.606840 602.153846 33.490672 602.461538 33.374386 602.769231 33.257989 603.076923 33.141489 603.384615 33.024893 603.692308 32.908208 604.000000 32.791443 604.307692 32.674604 604.615385 32.557699 604.923077 32.440735 605.230769 32.323720 605.538462 32.206661 605.846154 32.089566 606.153846 31.972442 606.461538 31.855297 606.769231 31.738138 607.076923 31.620972 607.384615 31.503807 607.692308 31.386650 608.000000 31.269510 608.307692 31.152392 608.615385 31.035305 608.923077 30.918257 609.230769 30.801254 609.538462 30.684304 609.846154 30.567414 610.153846 30.450592 610.461538 30.333846 610.769231 30.217182 611.076923 30.100609 611.384615 29.984133 611.692308 29.867763 612.000000 29.751505 612.307692 29.635367 612.615385 29.519357 612.923077 29.403481 613.230769 29.287748 613.538462 29.172165 613.846154 29.056738 614.153846 28.941477 614.461538 28.826388 614.769231 28.711478 615.076923 28.596755 615.384615 28.482227 615.692308 28.367901 616.000000 28.253784 616.307692 28.139883 616.615385 28.026208 616.923077 27.912763 617.230769 27.799558 617.538462 27.686600 617.846154 27.573895 618.153846 27.461452 618.461538 27.349278 618.769231 27.237380 619.076923 27.125766 619.384615 27.014443 619.692308 26.903419 620.000000 26.792701 620.307692 26.682297 620.615385 26.572213 620.923077 26.462458 621.230769 26.353039 621.538462 26.243964 621.846154 26.135239 622.153846 26.026872 622.461538 25.918871 622.769231 25.811244 623.076923 25.703996 623.384615 25.597137 623.692308 25.490673 624.000000 25.384612 624.307692 25.278962 624.615385 25.173729 624.923077 25.068922 625.230769 24.964547 625.538462 24.860612 625.846154 24.757125 626.153846 24.654093 626.461538 24.551524 626.769231 24.449424 627.076923 24.347802 627.384615 24.246664 627.692308 24.146019 628.000000 24.045873 628.307692 23.946234 628.615385 23.847111 628.923077 23.748509 629.230769 23.650436 629.538462 23.552899 629.846154 23.455897 630.153846 23.359427 630.461538 23.263487 630.769231 23.168076 631.076923 23.073191 631.384615 22.978831 631.692308 22.884992 632.000000 22.791672 632.307692 22.698871 632.615385 22.606584 632.923077 22.514812 633.230769 22.423550 633.538462 22.332797 633.846154 22.242551 634.153846 22.152810 634.461538 22.063571 634.769231 21.974832 635.076923 21.886592 635.384615 21.798848 635.692308 21.711598 636.000000 21.624840 636.307692 21.538571 636.615385 21.452790 636.923077 21.367494 637.230769 21.282682 637.538462 21.198350 637.846154 21.114498 638.153846 21.031122 638.461538 20.948221 638.769231 20.865792 639.076923 20.783834 639.384615 20.702343 639.692308 20.621319 640.000000 20.540759 640.307692 20.460660 640.615385 20.381022 640.923077 20.301840 641.230769 20.223114 641.538462 20.144841 641.846154 20.067019 642.153846 19.989645 642.461538 19.912719 642.769231 19.836237 643.076923 19.760197 643.384615 19.684598 643.692308 19.609437 644.000000 19.534712 644.307692 19.460420 644.615385 19.386561 644.923077 19.313131 645.230769 19.240128 645.538462 19.167550 645.846154 19.095396 646.153846 19.023662 646.461538 18.952347 646.769231 18.881449 647.076923 18.810965 647.384615 18.740894 647.692308 18.671233 648.000000 18.601980 648.307692 18.533133 648.615385 18.464689 648.923077 18.396648 649.230769 18.329005 649.538462 18.261760 649.846154 18.194910 650.153846 18.128453 650.461538 18.062387 650.769231 17.996710 651.076923 17.931419 651.384615 17.866513 651.692308 17.801989 652.000000 17.737845 652.307692 17.674079 652.615385 17.610689 652.923077 17.547673 653.230769 17.485028 653.538462 17.422752 653.846154 17.360844 654.153846 17.299301 654.461538 17.238121 654.769231 17.177301 655.076923 17.116841 655.384615 17.056736 655.692308 16.996986 656.000000 16.937589 656.307692 16.878541 656.615385 16.819841 656.923077 16.761488 657.230769 16.703477 657.538462 16.645808 657.846154 16.588479 658.153846 16.531486 658.461538 16.474829 658.769231 16.418505 659.076923 16.362511 659.384615 16.306846 659.692308 16.251507 660.000000 16.196493 660.307692 16.141801 660.615385 16.087428 660.923077 16.033374 661.230769 15.979635 661.538462 15.926210 661.846154 15.873096 662.153846 15.820292 662.461538 15.767794 662.769231 15.715602 663.076923 15.663712 663.384615 15.612123 663.692308 15.560833 664.000000 15.509839 664.307692 15.459139 664.615385 15.408731 664.923077 15.358614 665.230769 15.308784 665.538462 15.259239 665.846154 15.209978 666.153846 15.160999 666.461538 15.112298 666.769231 15.063875 667.076923 15.015726 667.384615 14.967851 667.692308 14.920246 668.000000 14.872909 668.307692 14.825838 668.615385 14.779032 668.923077 14.732488 669.230769 14.686204 669.538462 14.640177 669.846154 14.594406 670.153846 14.548888 670.461538 14.503622 670.769231 14.458605 671.076923 14.413835 671.384615 14.369309 671.692308 14.325026 672.000000 14.280984 672.307692 14.237180 672.615385 14.193613 672.923077 14.150279 673.230769 14.107178 673.538462 14.064306 673.846154 14.021662 674.153846 13.979243 674.461538 13.937048 674.769231 13.895074 675.076923 13.853319 675.384615 13.811781 675.692308 13.770457 676.000000 13.729346 676.307692 13.688446 676.615385 13.647754 676.923077 13.607269 677.230769 13.566987 677.538462 13.526907 677.846154 13.487027 678.153846 13.447344 678.461538 13.407857 678.769231 13.368563 679.076923 13.329460 679.384615 13.290547 679.692308 13.251820 680.000000 13.213278 680.307692 13.174918 680.615385 13.136739 680.923077 13.098738 681.230769 13.060913 681.538462 13.023262 681.846154 12.985783 682.153846 12.948473 682.461538 12.911332 682.769231 12.874355 683.076923 12.837542 683.384615 12.800889 683.692308 12.764396 684.000000 12.728059 684.307692 12.691877 684.615385 12.655848 684.923077 12.619969 685.230769 12.584238 685.538462 12.548653 685.846154 12.513212 686.153846 12.477913 686.461538 12.442753 686.769231 12.407731 687.076923 12.372844 687.384615 12.338090 687.692308 12.303467 688.000000 12.268973 688.307692 12.234606 688.615385 12.200363 688.923077 12.166243 689.230769 12.132243 689.538462 12.098361 689.846154 12.064595 690.153846 12.030943 690.461538 11.997403 690.769231 11.963972 691.076923 11.930649 691.384615 11.897430 691.692308 11.864315 692.000000 11.831301 692.307692 11.798385 692.615385 11.765567 692.923077 11.732842 693.230769 11.700210 693.538462 11.667669 693.846154 11.635215 694.153846 11.602847 694.461538 11.570563 694.769231 11.538361 695.076923 11.506238 695.384615 11.474192 695.692308 11.442222 696.000000 11.410324 696.307692 11.378498 696.615385 11.346740 696.923077 11.315048 697.230769 11.283422 697.538462 11.251857 697.846154 11.220353 698.153846 11.188906 698.461538 11.157515 698.769231 11.126179 699.076923 11.094893 699.384615 11.063657 699.692308 11.032468 700.000000 11.001325 700.307692 10.970224 700.615385 10.939164 700.923077 10.908143 701.230769 10.877158 701.538462 10.846208 701.846154 10.815290 702.153846 10.784402 702.461538 10.753541 702.769231 10.722707 703.076923 10.691896 703.384615 10.661107 703.692308 10.630337 704.000000 10.599584 704.307692 10.568846 704.615385 10.538122 704.923077 10.507407 705.230769 10.476702 705.538462 10.446003 705.846154 10.415308 706.153846 10.384615 706.153846 540.000000" /></g></g><g class="titles" /><g class="plot overlay" transform="translate(60, 20)"><g class="series serie-0 color-0"><g class="dots"><circle class="dot reactive tooltip-trigger" cx="13.846153846153847" cy="529.6153846153846" r="2.5" /><desc class="value">1,025,632,980(kWh)</desc><desc class="x top">13.846153846153847</desc><desc class="y top">529.6153846153846</desc><desc class="x_label">2549</desc></g><g class="dots"><circle class="dot reactive tooltip-trigger" cx="90.76923076923076" cy="458.9957872154085" r="2.5" /><desc class="value">1,093,600,635(kWh)</desc><desc class="x top">90.76923076923076</desc><desc class="y top">458.9957872154085</desc><desc class="x_label">2550</desc></g><g class="dots"><circle class="dot reactive tooltip-trigger" cx="167.69230769230765" cy="409.78719144459546" r="2.5" /><desc class="value">1,140,961,325(kWh)</desc><desc class="x top">167.69230769230765</desc><desc class="y top">409.78719144459546</desc><desc class="x_label">2551</desc></g><g class="dots"><circle class="dot reactive tooltip-trigger" cx="244.6153846153846" cy="350.79571609266037" r="2.5" /><desc class="value">1,197,737,523(kWh)</desc><desc class="x top">244.6153846153846</desc><desc class="y top">350.79571609266037</desc><desc class="x_label">2552</desc></g><g class="dots"><circle class="dot reactive tooltip-trigger" cx="321.5384615384615" cy="221.42448395532125" r="2.5" /><desc class="value">1,322,250,542(kWh)</desc><desc class="x ">321.5384615384615</desc><desc class="y ">221.42448395532125</desc><desc class="x_label">2553</desc></g><g class="dots"><circle class="dot reactive tooltip-trigger" cx="398.46153846153845" cy="160.95282812669302" r="2.5" /><desc class="value">1,380,451,336(kWh)</desc><desc class="x left">398.46153846153845</desc><desc class="y left">160.95282812669302</desc><desc class="x_label">2554</desc></g><g class="dots"><circle class="dot reactive tooltip-trigger" cx="475.38461538461536" cy="53.275113807581306" r="2.5" /><desc class="value">1,484,085,483(kWh)</desc><desc class="x left">475.38461538461536</desc><desc class="y left">53.275113807581306</desc><desc class="x_label">2555</desc></g><g class="dots"><circle class="dot reactive tooltip-trigger" cx="552.3076923076923" cy="45.49369092836804" r="2.5" /><desc class="value">1,491,574,694(kWh)</desc><desc class="x left">552.3076923076923</desc><desc class="y left">45.49369092836804</desc><desc class="x_label">2556</desc></g><g class="dots"><circle class="dot reactive tooltip-trigger" cx="629.2307692307692" cy="23.650436111568297" r="2.5" /><desc class="value">1,512,597,680(kWh)</desc><desc class="x left">629.2307692307692</desc><desc class="y left">23.650436111568297</desc><desc class="x_label">2557</desc></g><g class="dots"><circle class="dot reactive tooltip-trigger" cx="706.1538461538461" cy="10.384615384615245" r="2.5" /><desc class="value">1,525,365,336(kWh)</desc><desc class="x left">706.1538461538461</desc><desc class="y left">10.384615384615245</desc><desc class="x_label">2558</desc></g></g></g><g class="plot text-overlay" transform="translate(60, 20)"><g class="series serie-0 color-0" /></g><g class="plot tooltip-overlay" transform="translate(60, 20)"><g class="tooltip" style="opacity: 0" transform="translate(0 0)"><rect class="tooltip-box" height="0" rx="0" ry="0" width="0" /><g class="text" /></g></g></g></svg>