<?xml version='1.0' encoding='utf-8'?>
<svg xmlns:xlink="http://www.w3.org/1999/xlink" class="pygal-chart" id="chart-e143da62-0b44-4a74-a375-d84ab9c0baa8" viewBox="0 0 800 600" xmlns="http://www.w3.org/2000/svg"><!--Generated with pygal 2.3.0 (etree) ©Kozea 2012-2016 on 2016-12-08--><!--http://pygal.org--><!--http://github.com/Kozea/pygal--><defs><style type="text/css">#chart-e143da62-0b44-4a74-a375-d84ab9c0baa8{-webkit-user-select:none;-webkit-font-smoothing:antialiased;font-family:Consolas,"Liberation Mono",Menlo,Courier,monospace}#chart-e143da62-0b44-4a74-a375-d84ab9c0baa8 .title{font-family:Consolas,"Liberation Mono",Menlo,Courier,monospace;font-size:16px}#chart-e143da62-0b44-4a74-a375-d84ab9c0baa8 .legends .legend text{font-family:Consolas,"Liberation Mono",Menlo,Courier,monospace;font-size:14px}#chart-e143da62-0b44-4a74-a375-d84ab9c0baa8 .axis text{font-family:Consolas,"Liberation Mono",Menlo,Courier,monospace;font-size:10px}#chart-e143da62-0b44-4a74-a375-d84ab9c0baa8 .axis text.major{font-family:Consolas,"Liberation Mono",Menlo,Courier,monospace;font-size:10px}#chart-e143da62-0b44-4a74-a375-d84ab9c0baa8 .text-overlay text.value{font-family:Consolas,"Liberation Mono",Menlo,Courier,monospace;font-size:16px}#chart-e143da62-0b44-4a74-a375-d84ab9c0baa8 .text-overlay text.label{font-family:Consolas,"Liberation Mono",Menlo,Courier,monospace;font-size:10px}#chart-e143da62-0b44-4a74-a375-d84ab9c0baa8 .tooltip{font-family:Consolas,"Liberation Mono",Menlo,Courier,monospace;font-size:14px}#chart-e143da62-0b44-4a74-a375-d84ab9c0baa8 text.no_data{font-family:Consolas,"Liberation Mono",Menlo,Courier,monospace;font-size:64px}
#chart-e143da62-0b44-4a74-a375-d84ab9c0baa8{background-color:rgba(249,249,249,1)}#chart-e143da62-0b44-4a74-a375-d84ab9c0baa8 path,#chart-e143da62-0b44-4a74-a375-d84ab9c0baa8 line,#chart-e143da62-0b44-4a74-a375-d84ab9c0baa8 rect,#chart-e143da62-0b44-4a74-a375-d84ab9c0baa8 circle{-webkit-transition:150ms;-moz-transition:150ms;transition:150ms}#chart-e143da62-0b44-4a74-a375-d84ab9c0baa8 .graph &gt; .background{fill:rgba(249,249,249,1)}#chart-e143da62-0b44-4a74-a375-d84ab9c0baa8 .plot &gt; .background{fill:rgba(255,255,255,1)}#chart-e143da62-0b44-4a74-a375-d84ab9c0baa8 .graph{fill:rgba(0,0,0,.87)}#chart-e143da62-0b44-4a74-a375-d84ab9c0baa8 text.no_data{fill:rgba(0,0,0,1)}#chart-e143da62-0b44-4a74-a375-d84ab9c0baa8 .title{fill:rgba(0,0,0,1)}#chart-e143da62-0b44-4a74-a375-d84ab9c0baa8 .legends .legend text{fill:rgba(0,0,0,.87)}#chart-e143da62-0b44-4a74-a375-d84ab9c0baa8 .legends .legend:hover text{fill:rgba(0,0,0,1)}#chart-e143da62-0b44-4a74-a375-d84ab9c0baa8 .axis .line{stroke:rgba(0,0,0,1)}#chart-e143da62-0b44-4a74-a375-d84ab9c0baa8 .axis .guide.line{stroke:rgba(0,0,0,.54)}#chart-e143da62-0b44-4a74-a375-d84ab9c0baa8 .axis .major.line{stroke:rgba(0,0,0,.87)}#chart-e143da62-0b44-4a74-a375-d84ab9c0baa8 .axis text.major{fill:rgba(0,0,0,1)}#chart-e143da62-0b44-4a74-a375-d84ab9c0baa8 .axis.y .guides:hover .guide.line,#chart-e143da62-0b44-4a74-a375-d84ab9c0baa8 .line-graph .axis.x .guides:hover .guide.line,#chart-e143da62-0b44-4a74-a375-d84ab9c0baa8 .stackedline-graph .axis.x .guides:hover .guide.line,#chart-e143da62-0b44-4a74-a375-d84ab9c0baa8 .xy-graph .axis.x .guides:hover .guide.line{stroke:rgba(0,0,0,1)}#chart-e143da62-0b44-4a74-a375-d84ab9c0baa8 .axis .guides:hover text{fill:rgba(0,0,0,1)}#chart-e143da62-0b44-4a74-a375-d84ab9c0baa8 .reactive{fill-opacity:.7;stroke-opacity:.8}#chart-e143da62-0b44-4a74-a375-d84ab9c0baa8 .ci{stroke:rgba(0,0,0,.87)}#chart-e143da62-0b44-4a74-a375-d84ab9c0baa8 .reactive.active,#chart-e143da62-0b44-4a74-a375-d84ab9c0baa8 .active .reactive{fill-opacity:.8;stroke-opacity:.9;stroke-width:4}#chart-e143da62-0b44-4a74-a375-d84ab9c0baa8 .ci .reactive.active{stroke-width:1.5}#chart-e143da62-0b44-4a74-a375-d84ab9c0baa8 .series text{fill:rgba(0,0,0,1)}#chart-e143da62-0b44-4a74-a375-d84ab9c0baa8 .tooltip rect{fill:rgba(255,255,255,1);stroke:rgba(0,0,0,1);-webkit-transition:opacity 150ms;-moz-transition:opacity 150ms;transition:opacity 150ms}#chart-e143da62-0b44-4a74-a375-d84ab9c0baa8 .tooltip .label{fill:rgba(0,0,0,.87)}#chart-e143da62-0b44-4a74-a375-d84ab9c0baa8 .tooltip .label{fill:rgba(0,0,0,.87)}#chart-e143da62-0b44-4a74-a375-d84ab9c0baa8 .tooltip .legend{font-size:.8em;fill:rgba(0,0,0,.54)}#chart-e143da62-0b44-4a74-a375-d84ab9c0baa8 .tooltip .x_label{font-size:.6em;fill:rgba(0,0,0,1)}#chart-e143da62-0b44-4a74-a375-d84ab9c0baa8 .tooltip .xlink{font-size:.5em;text-decoration:underline}#chart-e143da62-0b44-4a74-a375-d84ab9c0baa8 .tooltip .value{font-size:1.5em}#chart-e143da62-0b44-4a74-a375-d84ab9c0baa8 .bound{font-size:.5em}#chart-e143da62-0b44-4a74-a375-d84ab9c0baa8 .max-value{font-size:.75em;fill:rgba(0,0,0,.54)}#chart-e143da62-0b44-4a74-a375-d84ab9c0baa8 .map-element{fill:rgba(255,255,255,1);stroke:rgba(0,0,0,.54) !important}#chart-e143da62-0b44-4a74-a375-d84ab9c0baa8 .map-element .reactive{fill-opacity:inherit;stroke-opacity:inherit}#chart-e143da62-0b44-4a74-a375-d84ab9c0baa8 .color-0,#chart-e143da62-0b44-4a74-a375-d84ab9c0baa8 .color-0 a:visited{stroke:#e86fa0;fill:#e86fa0}#chart-e143da62-0b44-4a74-a375-d84ab9c0baa8 .text-overlay .color-0 text{fill:black}
#chart-e143da62-0b44-4a74-a375-d84ab9c0baa8 text.no_data{text-anchor:middle}#chart-e143da62-0b44-4a74-a375-d84ab9c0baa8 .guide.line{fill:none}#chart-e143da62-0b44-4a74-a375-d84ab9c0baa8 .centered{text-anchor:middle}#chart-e143da62-0b44-4a74-a375-d84ab9c0baa8 .title{text-anchor:middle}#chart-e143da62-0b44-4a74-a375-d84ab9c0baa8 .legends .legend text{fill-opacity:1}#chart-e143da62-0b44-4a74-a375-d84ab9c0baa8 .axis.x text{text-anchor:middle}#chart-e143da62-0b44-4a74-a375-d84ab9c0baa8 .axis.x:not(.web) text[transform]{text-anchor:start}#chart-e143da62-0b44-4a74-a375-d84ab9c0baa8 .axis.x:not(.web) text[transform].backwards{text-anchor:end}#chart-e143da62-0b44-4a74-a375-d84ab9c0baa8 .axis.y text{text-anchor:end}#chart-e143da62-0b44-4a74-a375-d84ab9c0baa8 .axis.y text[transform].backwards{text-anchor:start}#chart-e143da62-0b44-4a74-a375-d84ab9c0baa8 .axis.y2 text{text-anchor:start}#chart-e143da62-0b44-4a74-a375-d84ab9c0baa8 .axis.y2 text[transform].backwards{text-anchor:end}#chart-e143da62-0b44-4a74-a375-d84ab9c0baa8 .axis .guide.line{stroke-dasharray:4,4}#chart-e143da62-0b44-4a74-a375-d84ab9c0baa8 .axis .major.guide.line{stroke-dasharray:6,6}#chart-e143da62-0b44-4a74-a375-d84ab9c0baa8 .horizontal .axis.y .guide.line,#chart-e143da62-0b44-4a74-a375-d84ab9c0baa8 .horizontal .axis.y2 .guide.line,#chart-e143da62-0b44-4a74-a375-d84ab9c0baa8 .vertical .axis.x .guide.line{opacity:0}#chart-e143da62-0b44-4a74-a375-d84ab9c0baa8 .horizontal .axis.always_show .guide.line,#chart-e143da62-0b44-4a74-a375-d84ab9c0baa8 .vertical .axis.always_show .guide.line{opacity:1 !important}#chart-e143da62-0b44-4a74-a375-d84ab9c0baa8 .axis.y .guides:hover .guide.line,#chart-e143da62-0b44-4a74-a375-d84ab9c0baa8 .axis.y2 .guides:hover .guide.line,#chart-e143da62-0b44-4a74-a375-d84ab9c0baa8 .axis.x .guides:hover .guide.line{opacity:1}#chart-e143da62-0b44-4a74-a375-d84ab9c0baa8 .axis .guides:hover text{opacity:1}#chart-e143da62-0b44-4a74-a375-d84ab9c0baa8 .nofill{fill:none}#chart-e143da62-0b44-4a74-a375-d84ab9c0baa8 .subtle-fill{fill-opacity:.2}#chart-e143da62-0b44-4a74-a375-d84ab9c0baa8 .dot{stroke-width:1px;fill-opacity:1}#chart-e143da62-0b44-4a74-a375-d84ab9c0baa8 .dot.active{stroke-width:5px}#chart-e143da62-0b44-4a74-a375-d84ab9c0baa8 .dot.negative{fill:transparent}#chart-e143da62-0b44-4a74-a375-d84ab9c0baa8 text,#chart-e143da62-0b44-4a74-a375-d84ab9c0baa8 tspan{stroke:none !important}#chart-e143da62-0b44-4a74-a375-d84ab9c0baa8 .series text.active{opacity:1}#chart-e143da62-0b44-4a74-a375-d84ab9c0baa8 .tooltip rect{fill-opacity:.95;stroke-width:.5}#chart-e143da62-0b44-4a74-a375-d84ab9c0baa8 .tooltip text{fill-opacity:1}#chart-e143da62-0b44-4a74-a375-d84ab9c0baa8 .showable{visibility:hidden}#chart-e143da62-0b44-4a74-a375-d84ab9c0baa8 .showable.shown{visibility:visible}#chart-e143da62-0b44-4a74-a375-d84ab9c0baa8 .gauge-background{fill:rgba(229,229,229,1);stroke:none}#chart-e143da62-0b44-4a74-a375-d84ab9c0baa8 .bg-lines{stroke:rgba(249,249,249,1);stroke-width:2px}</style><script type="text/javascript">window.pygal = window.pygal || {};window.pygal.config = window.pygal.config || {};window.pygal.config['e143da62-0b44-4a74-a375-d84ab9c0baa8'] = {"no_data_text": "No data", "no_prefix": false, "xrange": null, "print_values_position": "center", "truncate_label": null, "x_labels": ["2549", "2550", "2551", "2552", "2553", "2554", "2555", "2556", "2557", "2558"], "title": null, "force_uri_protocol": "https", "defs": [], "formatter": null, "classes": ["pygal-chart"], "y_labels": null, "rounded_bars": null, "explicit_size": false, "x_labels_major_every": null, "legend_at_bottom_columns": null, "stroke_style": null, "half_pie": false, "spacing": 10, "tooltip_fancy_mode": true, "inverse_y_axis": false, "width": 800, "inner_radius": 0, "interpolation_parameters": {}, "tooltip_border_radius": 0, "style": {"no_data_font_family": "Consolas, \"Liberation Mono\", Menlo, Courier, monospace", "tooltip_font_size": 14, "tooltip_font_family": "Consolas, \"Liberation Mono\", Menlo, Courier, monospace", "stroke_opacity_hover": ".9", "legend_font_family": "Consolas, \"Liberation Mono\", Menlo, Courier, monospace", "font_family": "Consolas, \"Liberation Mono\", Menlo, Courier, monospace", "title_font_family": "Consolas, \"Liberation Mono\", Menlo, Courier, monospace", "background": "rgba(249, 249, 249, 1)", "stroke_opacity": ".8", "foreground": "rgba(0, 0, 0, .87)", "value_background": "rgba(229, 229, 229, 1)", "guide_stroke_dasharray": "4,4", "foreground_subtle": "rgba(0, 0, 0, .54)", "opacity_hover": ".8", "value_font_family": "Consolas, \"Liberation Mono\", Menlo, Courier, monospace", "value_label_font_size": 10, "plot_background": "rgba(255, 255, 255, 1)", "ci_colors": [], "label_font_size": 10, "major_label_font_size": 10, "title_font_size": 16, "no_data_font_size": 64, "value_font_size": 16, "value_colors": [], "label_font_family": "Consolas, \"Liberation Mono\", Menlo, Courier, monospace", "major_guide_stroke_dasharray": "6,6", "transition": "150ms", "foreground_strong": "rgba(0, 0, 0, 1)", "colors": ["#e86fa0", "#e88f6f", "#e8df6f", "#a0e86f", "#6fe88f", "#6fe8df", "#6fa0e8", "#8f6fe8", "#df6fe8", "#e86fa0"], "opacity": ".7", "legend_font_size": 14, "value_label_font_family": "Consolas, \"Liberation Mono\", Menlo, Courier, monospace", "major_label_font_family": "Consolas, \"Liberation Mono\", Menlo, Courier, monospace"}, "x_labels_major_count": null, "interpolation_precision": 250, "missing_value_fill_truncation": "x", "stack_from_top": false, "truncate_legend": null, "show_minor_x_labels": true, "print_zeroes": true, "css": ["file://style.css", "file://graph.css"], "y_label_rotation": 0, "legend_at_bottom": false, "print_values": false, "margin_top": null, "max_scale": 16, "allow_interruptions": false, "show_x_labels": true, "strict": false, "show_x_guides": false, "stroke": true, "margin_left": null, "dynamic_print_values": false, "print_labels": false, "show_y_labels": true, "x_labels_major": null, "range": null, "x_label_rotation": 0, "margin": 20, "zero": 0, "include_x_axis": false, "height": 600, "show_minor_y_labels": true, "show_dots": true, "interpolate": "cubic", "show_y_guides": true, "y_labels_major": null, "box_mode": "extremes", "margin_bottom": null, "order_min": null, "legend_box_size": 12, "fill": true, "show_only_major_dots": false, "js": ["//kozea.github.io/pygal.js/2.0.x/pygal-tooltips.min.js"], "x_title": null, "y_labels_major_every": null, "y_labels_major_count": null, "disable_xml_declaration": false, "y_title": null, "logarithmic": false, "pretty_print": false, "min_scale": 4, "dots_size": 2.5, "margin_right": null, "legends": [null], "secondary_range": null, "show_legend": false}</script><script type="text/javascript" xlink:href="https://kozea.github.io/pygal.js/2.0.x/pygal-tooltips.min.js" /></defs><title>Pygal</title><g class="graph stackedline-graph vertical"><rect class="background" height="600" width="800" x="0" y="0" /><g class="plot" transform="translate(60, 20)"><rect class="background" height="540" width="720.0" x="0" y="0" /><g class="axis y"><path class="line" d="M0.000000 540.000000 h720.000000" /><g class="guides"><path class="guide line" d="M0.000000 485.597797 h720.000000" /><text class="" x="-5" y="489.09779690607513">3400M</text><title>3400M</title></g><g class="guides"><path class="guide line" d="M0.000000 436.012707 h720.000000" /><text class="" x="-5" y="439.5127067665092">3600M</text><title>3600M</title></g><g class="guides"><path class="guide line" d="M0.000000 386.427617 h720.000000" /><text class="" x="-5" y="389.9276166269433">3800M</text><title>3800M</title></g><g class="guides"><path class="major guide line" d="M0.000000 336.842526 h720.000000" /><text class="major" x="-5" y="340.3425264873774">4000M</text><title>4000M</title></g><g class="guides"><path class="guide line" d="M0.000000 287.257436 h720.000000" /><text class="" x="-5" y="290.75743634781156">4200M</text><title>4200M</title></g><g class="guides"><path class="guide line" d="M0.000000 237.672346 h720.000000" /><text class="" x="-5" y="241.17234620824564">4400M</text><title>4400M</title></g><g class="guides"><path class="guide line" d="M0.000000 188.087256 h720.000000" /><text class="" x="-5" y="191.58725606867972">4600M</text><title>4600M</title></g><g class="guides"><path class="guide line" d="M0.000000 138.502166 h720.000000" /><text class="" x="-5" y="142.00216592911386">4800M</text><title>4800M</title></g><g class="guides"><path class="major guide line" d="M0.000000 88.917076 h720.000000" /><text class="major" x="-5" y="92.41707578954794">5000M</text><title>5000M</title></g><g class="guides"><path class="guide line" d="M0.000000 39.331986 h720.000000" /><text class="" x="-5" y="42.831985649982016">5200M</text><title>5200M</title></g></g><g class="axis x"><g class="guides"><path class="line" d="M13.846154 0.000000 v540.000000" /><text class="" x="13.846153846153847" y="555.0">2549</text></g><g class="guides"><path class="guide line" d="M90.769231 0.000000 v540.000000" /><text class="" x="90.76923076923076" y="555.0">2550</text></g><g class="guides"><path class="guide line" d="M167.692308 0.000000 v540.000000" /><text class="" x="167.69230769230765" y="555.0">2551</text></g><g class="guides"><path class="guide line" d="M244.615385 0.000000 v540.000000" /><text class="" x="244.6153846153846" y="555.0">2552</text></g><g class="guides"><path class="guide line" d="M321.538462 0.000000 v540.000000" /><text class="" x="321.5384615384615" y="555.0">2553</text></g><g class="guides"><path class="guide line" d="M398.461538 0.000000 v540.000000" /><text class="" x="398.46153846153845" y="555.0">2554</text></g><g class="guides"><path class="guide line" d="M475.384615 0.000000 v540.000000" /><text class="" x="475.38461538461536" y="555.0">2555</text></g><g class="guides"><path class="guide line" d="M552.307692 0.000000 v540.000000" /><text class="" x="552.3076923076923" y="555.0">2556</text></g><g class="guides"><path class="guide line" d="M629.230769 0.000000 v540.000000" /><text class="" x="629.2307692307692" y="555.0">2557</text></g><g class="guides"><path class="guide line" d="M706.153846 0.000000 v540.000000" /><text class="" x="706.1538461538461" y="555.0">2558</text></g></g><g class="series serie-0 color-0"><path class="line reactive" d="M13.846154 540.000000 L13.846154 529.615385 14.153846 529.364998 14.461538 529.114613 14.769231 528.864233 15.076923 528.613859 15.384615 528.363494 15.692308 528.113139 16.000000 527.862798 16.307692 527.612472 16.615385 527.362163 16.923077 527.111874 17.230769 526.861606 17.538462 526.611362 17.846154 526.361144 18.153846 526.110955 18.461538 525.860795 18.769231 525.610668 19.076923 525.360576 19.384615 525.110521 19.692308 524.860505 20.000000 524.610530 20.307692 524.360598 20.615385 524.110712 20.923077 523.860873 21.230769 523.611084 21.538462 523.361348 21.846154 523.111665 22.153846 522.862039 22.461538 522.612471 22.769231 522.362964 23.076923 522.113520 23.384615 521.864141 23.692308 521.614829 24.000000 521.365586 24.307692 521.116415 24.615385 520.867318 24.923077 520.618296 25.230769 520.369352 25.538462 520.120489 25.846154 519.871708 26.153846 519.623012 26.461538 519.374402 26.769231 519.125881 27.076923 518.877451 27.384615 518.629114 27.692308 518.380873 28.000000 518.132729 28.307692 517.884684 28.615385 517.636742 28.923077 517.388904 29.230769 517.141172 29.538462 516.893548 29.846154 516.646034 30.153846 516.398634 30.461538 516.151348 30.769231 515.904179 31.076923 515.657130 31.384615 515.410202 31.692308 515.163397 32.000000 514.916718 32.307692 514.670167 32.615385 514.423746 32.923077 514.177457 33.230769 513.931303 33.538462 513.685285 33.846154 513.439405 34.153846 513.193667 34.461538 512.948071 34.769231 512.702621 35.076923 512.457318 35.384615 512.212165 35.692308 511.967163 36.000000 511.722316 36.307692 511.477624 36.615385 511.233091 36.923077 510.988717 37.230769 510.744507 37.538462 510.500461 37.846154 510.256582 38.153846 510.012872 38.461538 509.769333 38.769231 509.525967 39.076923 509.282778 39.384615 509.039765 39.692308 508.796933 40.000000 508.554283 40.307692 508.311817 40.615385 508.069537 40.923077 507.827446 41.230769 507.585545 41.538462 507.343838 41.846154 507.102325 42.153846 506.861010 42.461538 506.619894 42.769231 506.378979 43.076923 506.138268 43.384615 505.897763 43.692308 505.657467 44.000000 505.417380 44.307692 505.177506 44.615385 504.937846 44.923077 504.698403 45.230769 504.459179 45.538462 504.220176 45.846154 503.981396 46.153846 503.742842 46.461538 503.504515 46.769231 503.266417 47.076923 503.028552 47.384615 502.790921 47.692308 502.553526 48.000000 502.316369 48.307692 502.079453 48.615385 501.842779 48.923077 501.606351 49.230769 501.370169 49.538462 501.134237 49.846154 500.898556 50.153846 500.663129 50.461538 500.427957 50.769231 500.193043 51.076923 499.958390 51.384615 499.723998 51.692308 499.489871 52.000000 499.256010 52.307692 499.022419 52.615385 498.789098 52.923077 498.556050 53.230769 498.323277 53.538462 498.090782 53.846154 497.858566 54.153846 497.626632 54.461538 497.394982 54.769231 497.163618 55.076923 496.932542 55.384615 496.701757 55.692308 496.471264 56.000000 496.241066 56.307692 496.011164 56.615385 495.781562 56.923077 495.552261 57.230769 495.323264 57.538462 495.094572 57.846154 494.866187 58.153846 494.638113 58.461538 494.410351 58.769231 494.182903 59.076923 493.955771 59.384615 493.728958 59.692308 493.502465 60.000000 493.276296 60.307692 493.050451 60.615385 492.824934 60.923077 492.599746 61.230769 492.374890 61.538462 492.150368 61.846154 491.926181 62.153846 491.702333 62.461538 491.478824 62.769231 491.255658 63.076923 491.032837 63.384615 490.810362 63.692308 490.588237 64.000000 490.366462 64.307692 490.145041 64.615385 489.923975 64.923077 489.703266 65.230769 489.482918 65.538462 489.262931 65.846154 489.043308 66.153846 488.824052 66.461538 488.605164 66.769231 488.386646 67.076923 488.168502 67.384615 487.950732 67.692308 487.733339 68.000000 487.516325 68.307692 487.299693 68.615385 487.083445 68.923077 486.867582 69.230769 486.652107 69.538462 486.437022 69.846154 486.222330 70.153846 486.008032 70.461538 485.794130 70.769231 485.580627 71.076923 485.367526 71.384615 485.154827 71.692308 484.942533 72.000000 484.730647 72.307692 484.519170 72.615385 484.308106 72.923077 484.097455 73.230769 483.887220 73.538462 483.677403 73.846154 483.468007 74.153846 483.259034 74.461538 483.050485 74.769231 482.842363 75.076923 482.634670 75.384615 482.427409 75.692308 482.220581 76.000000 482.014188 76.307692 481.808233 76.615385 481.602718 76.923077 481.397646 77.230769 481.193017 77.538462 480.988835 77.846154 480.785101 78.153846 480.581819 78.461538 480.378989 78.769231 480.176614 79.076923 479.974697 79.384615 479.773239 79.692308 479.572242 80.000000 479.371709 80.307692 479.171643 80.615385 478.972044 80.923077 478.772916 81.230769 478.574260 81.538462 478.376078 81.846154 478.178374 82.153846 477.981148 82.461538 477.784403 82.769231 477.588142 83.076923 477.392366 83.384615 477.197078 83.692308 477.002279 84.000000 476.807973 84.307692 476.614160 84.615385 476.420844 84.923077 476.228026 85.230769 476.035709 85.538462 475.843894 85.846154 475.652585 86.153846 475.461782 86.461538 475.271489 86.769231 475.081708 87.076923 474.892439 87.384615 474.703687 87.692308 474.515453 88.000000 474.327738 88.307692 474.140546 88.615385 473.953879 88.923077 473.767738 89.230769 473.582126 89.538462 473.397044 89.846154 473.212496 90.153846 473.028483 90.461538 472.845008 90.769231 472.662072 91.076923 472.479677 91.384615 472.297824 91.692308 472.116510 92.000000 471.935735 92.307692 471.755497 92.615385 471.575797 92.923077 471.396633 93.230769 471.218003 93.538462 471.039907 93.846154 470.862345 94.153846 470.685314 94.461538 470.508815 94.769231 470.332845 95.076923 470.157405 95.384615 469.982493 95.692308 469.808107 96.000000 469.634248 96.307692 469.460915 96.615385 469.288105 96.923077 469.115818 97.230769 468.944054 97.538462 468.772811 97.846154 468.602089 98.153846 468.431885 98.461538 468.262200 98.769231 468.093032 99.076923 467.924381 99.384615 467.756245 99.692308 467.588624 100.000000 467.421516 100.307692 467.254920 100.615385 467.088836 100.923077 466.923262 101.230769 466.758198 101.538462 466.593643 101.846154 466.429595 102.153846 466.266054 102.461538 466.103018 102.769231 465.940487 103.076923 465.778460 103.384615 465.616935 103.692308 465.455912 104.000000 465.295390 104.307692 465.135368 104.615385 464.975844 104.923077 464.816818 105.230769 464.658289 105.538462 464.500256 105.846154 464.342718 106.153846 464.185674 106.461538 464.029122 106.769231 463.873063 107.076923 463.717495 107.384615 463.562416 107.692308 463.407827 108.000000 463.253725 108.307692 463.100111 108.615385 462.946983 108.923077 462.794340 109.230769 462.642181 109.538462 462.490505 109.846154 462.339312 110.153846 462.188599 110.461538 462.038367 110.769231 461.888614 111.076923 461.739339 111.384615 461.590542 111.692308 461.442221 112.000000 461.294375 112.307692 461.147004 112.615385 461.000106 112.923077 460.853681 113.230769 460.707727 113.538462 460.562243 113.846154 460.417229 114.153846 460.272683 114.461538 460.128605 114.769231 459.984994 115.076923 459.841848 115.384615 459.699167 115.692308 459.556949 116.000000 459.415194 116.307692 459.273901 116.615385 459.133068 116.923077 458.992695 117.230769 458.852781 117.538462 458.713324 117.846154 458.574325 118.153846 458.435781 118.461538 458.297692 118.769231 458.160056 119.076923 458.022874 119.384615 457.886144 119.692308 457.749864 120.000000 457.614035 120.307692 457.478654 120.615385 457.343722 120.923077 457.209236 121.230769 457.075197 121.538462 456.941602 121.846154 456.808452 122.153846 456.675744 122.461538 456.543479 122.769231 456.411655 123.076923 456.280272 123.384615 456.149327 123.692308 456.018821 124.000000 455.888751 124.307692 455.759119 124.615385 455.629921 124.923077 455.501158 125.230769 455.372828 125.538462 455.244930 125.846154 455.117464 126.153846 454.990429 126.461538 454.863822 126.769231 454.737644 127.076923 454.611894 127.384615 454.486570 127.692308 454.361672 128.000000 454.237198 128.307692 454.113148 128.615385 453.989520 128.923077 453.866314 129.230769 453.743529 129.538462 453.621163 129.846154 453.499216 130.153846 453.377687 130.461538 453.256574 130.769231 453.135877 131.076923 453.015595 131.384615 452.895727 131.692308 452.776272 132.000000 452.657228 132.307692 452.538595 132.615385 452.420373 132.923077 452.302559 133.230769 452.185153 133.538462 452.068154 133.846154 451.951561 134.153846 451.835373 134.461538 451.719589 134.769231 451.604208 135.076923 451.489229 135.384615 451.374651 135.692308 451.260474 136.000000 451.146695 136.307692 451.033315 136.615385 450.920332 136.923077 450.807745 137.230769 450.695554 137.538462 450.583756 137.846154 450.472352 138.153846 450.361340 138.461538 450.250720 138.769231 450.140490 139.076923 450.030649 139.384615 449.921197 139.692308 449.812132 140.000000 449.703454 140.307692 449.595161 140.615385 449.487252 140.923077 449.379728 141.230769 449.272585 141.538462 449.165824 141.846154 449.059444 142.153846 448.953444 142.461538 448.847822 142.769231 448.742577 143.076923 448.637710 143.384615 448.533218 143.692308 448.429100 144.000000 448.325357 144.307692 448.221986 144.615385 448.118987 144.923077 448.016359 145.230769 447.914101 145.538462 447.812212 145.846154 447.710690 146.153846 447.609536 146.461538 447.508747 146.769231 447.408323 147.076923 447.308264 147.384615 447.208567 147.692308 447.109232 148.000000 447.010259 148.307692 446.911645 148.615385 446.813391 148.923077 446.715495 149.230769 446.617955 149.538462 446.520772 149.846154 446.423945 150.153846 446.327471 150.461538 446.231351 150.769231 446.135582 151.076923 446.040166 151.384615 445.945099 151.692308 445.850382 152.000000 445.756013 152.307692 445.661992 152.615385 445.568316 152.923077 445.474987 153.230769 445.382002 153.538462 445.289360 153.846154 445.197061 154.153846 445.105103 154.461538 445.013486 154.769231 444.922208 155.076923 444.831269 155.384615 444.740667 155.692308 444.650402 156.000000 444.560473 156.307692 444.470879 156.615385 444.381618 156.923077 444.292690 157.230769 444.204093 157.538462 444.115828 157.846154 444.027892 158.153846 443.940285 158.461538 443.853006 158.769231 443.766054 159.076923 443.679427 159.384615 443.593126 159.692308 443.507148 160.000000 443.421493 160.307692 443.336161 160.615385 443.251149 160.923077 443.166457 161.230769 443.082085 161.538462 442.998030 161.846154 442.914293 162.153846 442.830872 162.461538 442.747765 162.769231 442.664973 163.076923 442.582495 163.384615 442.500328 163.692308 442.418472 164.000000 442.336927 164.307692 442.255691 164.615385 442.174764 164.923077 442.094144 165.230769 442.013830 165.538462 441.933821 165.846154 441.854117 166.153846 441.774716 166.461538 441.695618 166.769231 441.616821 167.076923 441.538325 167.384615 441.460128 167.692308 441.382229 168.000000 441.304627 168.307692 441.227314 168.615385 441.150281 168.923077 441.073519 169.230769 440.997021 169.538462 440.920776 169.846154 440.844776 170.153846 440.769014 170.461538 440.693479 170.769231 440.618163 171.076923 440.543059 171.384615 440.468156 171.692308 440.393446 172.000000 440.318921 172.307692 440.244571 172.615385 440.170389 172.923077 440.096365 173.230769 440.022491 173.538462 439.948758 173.846154 439.875157 174.153846 439.801679 174.461538 439.728317 174.769231 439.655061 175.076923 439.581903 175.384615 439.508833 175.692308 439.435843 176.000000 439.362925 176.307692 439.290070 176.615385 439.217269 176.923077 439.144513 177.230769 439.071794 177.538462 438.999102 177.846154 438.926430 178.153846 438.853769 178.461538 438.781109 178.769231 438.708443 179.076923 438.635761 179.384615 438.563055 179.692308 438.490316 180.000000 438.417536 180.307692 438.344705 180.615385 438.271815 180.923077 438.198857 181.230769 438.125824 181.538462 438.052705 181.846154 437.979492 182.153846 437.906177 182.461538 437.832750 182.769231 437.759204 183.076923 437.685529 183.384615 437.611717 183.692308 437.537759 184.000000 437.463646 184.307692 437.389370 184.615385 437.314922 184.923077 437.240293 185.230769 437.165475 185.538462 437.090459 185.846154 437.015236 186.153846 436.939797 186.461538 436.864134 186.769231 436.788238 187.076923 436.712101 187.384615 436.635713 187.692308 436.559066 188.000000 436.482152 188.307692 436.404961 188.615385 436.327485 188.923077 436.249715 189.230769 436.171643 189.538462 436.093260 189.846154 436.014557 190.153846 435.935525 190.461538 435.856156 190.769231 435.776441 191.076923 435.696371 191.384615 435.615938 191.692308 435.535133 192.000000 435.453947 192.307692 435.372371 192.615385 435.290398 192.923077 435.208018 193.230769 435.125222 193.538462 435.042002 193.846154 434.958349 194.153846 434.874254 194.461538 434.789709 194.769231 434.704705 195.076923 434.619234 195.384615 434.533286 195.692308 434.446853 196.000000 434.359926 196.307692 434.272496 196.615385 434.184556 196.923077 434.096095 197.230769 434.007106 197.538462 433.917580 197.846154 433.827507 198.153846 433.736880 198.461538 433.645690 198.769231 433.553927 199.076923 433.461584 199.384615 433.368652 199.692308 433.275121 200.000000 433.180983 200.307692 433.086230 200.615385 432.990852 200.923077 432.894842 201.230769 432.798190 201.538462 432.700888 201.846154 432.602926 202.153846 432.504297 202.461538 432.404992 202.769231 432.305001 203.076923 432.204317 203.384615 432.102930 203.692308 432.000832 204.000000 431.898014 204.307692 431.794467 204.615385 431.690183 204.923077 431.585153 205.230769 431.479369 205.538462 431.372821 205.846154 431.265501 206.153846 431.157400 206.461538 431.048510 206.769231 430.938821 207.076923 430.828326 207.384615 430.717015 207.692308 430.604880 208.000000 430.491912 208.307692 430.378102 208.615385 430.263442 208.923077 430.147923 209.230769 430.031536 209.538462 429.914273 209.846154 429.796125 210.153846 429.677082 210.461538 429.557138 210.769231 429.436282 211.076923 429.314506 211.384615 429.191802 211.692308 429.068160 212.000000 428.943572 212.307692 428.818030 212.615385 428.691524 212.923077 428.564046 213.230769 428.435587 213.538462 428.306139 213.846154 428.175693 214.153846 428.044240 214.461538 427.911771 214.769231 427.778278 215.076923 427.643752 215.384615 427.508184 215.692308 427.371566 216.000000 427.233889 216.307692 427.095145 216.615385 426.955323 216.923077 426.814417 217.230769 426.672417 217.538462 426.529314 217.846154 426.385100 218.153846 426.239766 218.461538 426.093304 218.769231 425.945704 219.076923 425.796958 219.384615 425.647058 219.692308 425.495994 220.000000 425.343758 220.307692 425.190341 220.615385 425.035735 220.923077 424.879930 221.230769 424.722919 221.538462 424.564692 221.846154 424.405241 222.153846 424.244557 222.461538 424.082631 222.769231 423.919454 223.076923 423.755019 223.384615 423.589316 223.692308 423.422337 224.000000 423.254072 224.307692 423.084514 224.615385 422.913653 224.923077 422.741480 225.230769 422.567988 225.538462 422.393167 225.846154 422.217009 226.153846 422.039505 226.461538 421.860646 226.769231 421.680424 227.076923 421.498830 227.384615 421.315854 227.692308 421.131490 228.000000 420.945727 228.307692 420.758557 228.615385 420.569972 228.923077 420.379962 229.230769 420.188519 229.538462 419.995635 229.846154 419.801300 230.153846 419.605507 230.461538 419.408245 230.769231 419.209507 231.076923 419.009284 231.384615 418.807567 231.692308 418.604347 232.000000 418.399617 232.307692 418.193366 232.615385 417.985586 232.923077 417.776270 233.230769 417.565407 233.538462 417.352990 233.846154 417.139009 234.153846 416.923456 234.461538 416.706322 234.769231 416.487598 235.076923 416.267277 235.384615 416.045348 235.692308 415.821804 236.000000 415.596636 236.307692 415.369835 236.615385 415.141392 236.923077 414.911298 237.230769 414.679546 237.538462 414.446125 237.846154 414.211029 238.153846 413.974247 238.461538 413.735771 238.769231 413.495592 239.076923 413.253703 239.384615 413.010093 239.692308 412.764755 240.000000 412.517679 240.307692 412.268858 240.615385 412.018281 240.923077 411.765942 241.230769 411.511830 241.538462 411.255937 241.846154 410.998255 242.153846 410.738774 242.461538 410.477487 242.769231 410.214384 243.076923 409.949456 243.384615 409.682696 243.692308 409.414094 244.000000 409.143641 244.307692 408.871330 244.615385 408.597151 244.923077 408.321099 245.230769 408.043189 245.538462 407.763438 245.846154 407.481863 246.153846 407.198482 246.461538 406.913313 246.769231 406.626374 247.076923 406.337682 247.384615 406.047254 247.692308 405.755109 248.000000 405.461265 248.307692 405.165738 248.615385 404.868547 248.923077 404.569709 249.230769 404.269241 249.538462 403.967163 249.846154 403.663490 250.153846 403.358241 250.461538 403.051434 250.769231 402.743086 251.076923 402.433215 251.384615 402.121838 251.692308 401.808973 252.000000 401.494639 252.307692 401.178851 252.615385 400.861629 252.923077 400.542990 253.230769 400.222951 253.538462 399.901531 253.846154 399.578746 254.153846 399.254615 254.461538 398.929155 254.769231 398.602384 255.076923 398.274319 255.384615 397.944978 255.692308 397.614380 256.000000 397.282540 256.307692 396.949478 256.615385 396.615211 256.923077 396.279756 257.230769 395.943132 257.538462 395.605355 257.846154 395.266444 258.153846 394.926416 258.461538 394.585288 258.769231 394.243080 259.076923 393.899807 259.384615 393.555488 259.692308 393.210141 260.000000 392.863783 260.307692 392.516431 260.615385 392.168104 260.923077 391.818820 261.230769 391.468595 261.538462 391.117447 261.846154 390.765395 262.153846 390.412456 262.461538 390.058647 262.769231 389.703986 263.076923 389.348491 263.384615 388.992180 263.692308 388.635069 264.000000 388.277178 264.307692 387.918523 264.615385 387.559122 264.923077 387.198993 265.230769 386.838153 265.538462 386.476621 265.846154 386.114413 266.153846 385.751548 266.461538 385.388043 266.769231 385.023916 267.076923 384.659184 267.384615 384.293866 267.692308 383.927978 268.000000 383.561539 268.307692 383.194566 268.615385 382.827076 268.923077 382.459088 269.230769 382.090620 269.538462 381.721688 269.846154 381.352310 270.153846 380.982505 270.461538 380.612290 270.769231 380.241682 271.076923 379.870699 271.384615 379.499359 271.692308 379.127679 272.000000 378.755678 272.307692 378.383372 272.615385 378.010780 272.923077 377.637919 273.230769 377.264807 273.538462 376.891461 273.846154 376.517899 274.153846 376.144140 274.461538 375.770199 274.769231 375.396096 275.076923 375.021847 275.384615 374.647472 275.692308 374.272986 276.000000 373.898408 276.307692 373.523755 276.615385 373.149046 276.923077 372.774297 277.230769 372.399527 277.538462 372.024753 277.846154 371.649992 278.153846 371.275264 278.461538 370.900584 278.769231 370.525971 279.076923 370.151443 279.384615 369.777016 279.692308 369.402710 280.000000 369.028541 280.307692 368.654527 280.615385 368.280686 280.923077 367.907035 281.230769 367.533592 281.538462 367.160376 281.846154 366.787402 282.153846 366.414690 282.461538 366.042257 282.769231 365.670120 283.076923 365.298297 283.384615 364.926806 283.692308 364.555664 284.000000 364.184890 284.307692 363.814500 284.615385 363.444513 284.923077 363.074946 285.230769 362.705816 285.538462 362.337142 285.846154 361.968942 286.153846 361.601232 286.461538 361.234030 286.769231 360.867355 287.076923 360.501223 287.384615 360.135653 287.692308 359.770662 288.000000 359.406267 288.307692 359.042487 288.615385 358.679340 288.923077 358.316842 289.230769 357.955011 289.538462 357.593866 289.846154 357.233423 290.153846 356.873701 290.461538 356.514717 290.769231 356.156488 291.076923 355.799033 291.384615 355.442369 291.692308 355.086514 292.000000 354.731486 292.307692 354.377301 292.615385 354.023979 292.923077 353.671535 293.230769 353.319989 293.538462 352.969358 293.846154 352.619659 294.153846 352.270910 294.461538 351.923129 294.769231 351.576333 295.076923 351.230540 295.384615 350.885769 295.692308 350.542035 296.000000 350.199358 296.307692 349.857754 296.615385 349.517242 296.923077 349.177839 297.230769 348.839563 297.538462 348.502431 297.846154 348.166462 298.153846 347.831672 298.461538 347.498079 298.769231 347.165702 299.076923 346.834557 299.384615 346.504663 299.692308 346.176037 300.000000 345.848696 300.307692 345.522659 300.615385 345.197943 300.923077 344.874566 301.230769 344.552546 301.538462 344.231899 301.846154 343.912644 302.153846 343.594799 302.461538 343.278380 302.769231 342.963407 303.076923 342.649896 303.384615 342.337865 303.692308 342.027331 304.000000 341.718313 304.307692 341.410829 304.615385 341.104894 304.923077 340.800529 305.230769 340.497749 305.538462 340.196573 305.846154 339.897019 306.153846 339.599104 306.461538 339.302845 306.769231 339.008261 307.076923 338.715369 307.384615 338.424187 307.692308 338.134732 308.000000 337.847022 308.307692 337.561075 308.615385 337.276908 308.923077 336.994539 309.230769 336.713987 309.538462 336.435267 309.846154 336.158399 310.153846 335.883399 310.461538 335.610286 310.769231 335.339077 311.076923 335.069789 311.384615 334.802441 311.692308 334.537050 312.000000 334.273634 312.307692 334.012210 312.615385 333.752797 312.923077 333.495411 313.230769 333.240070 313.538462 332.986792 313.846154 332.735596 314.153846 332.486497 314.461538 332.239515 314.769231 331.994666 315.076923 331.751969 315.384615 331.511441 315.692308 331.273100 316.000000 331.036963 316.307692 330.803048 316.615385 330.571373 316.923077 330.341955 317.230769 330.114812 317.538462 329.889962 317.846154 329.667423 318.153846 329.447211 318.461538 329.229345 318.769231 329.013843 319.076923 328.800722 319.384615 328.589999 319.692308 328.381693 320.000000 328.175821 320.307692 327.972400 320.615385 327.771449 320.923077 327.572985 321.230769 327.377026 321.538462 327.183589 321.846154 326.992685 322.153846 326.804297 322.461538 326.618399 322.769231 326.434967 323.076923 326.253976 323.384615 326.075403 323.692308 325.899221 324.000000 325.725406 324.307692 325.553934 324.615385 325.384780 324.923077 325.217919 325.230769 325.053327 325.538462 324.890978 325.846154 324.730849 326.153846 324.572914 326.461538 324.417149 326.769231 324.263529 327.076923 324.112029 327.384615 323.962625 327.692308 323.815292 328.000000 323.670006 328.307692 323.526741 328.615385 323.385474 328.923077 323.246178 329.230769 323.108831 329.538462 322.973406 329.846154 322.839880 330.153846 322.708227 330.461538 322.578423 330.769231 322.450443 331.076923 322.324263 331.384615 322.199857 331.692308 322.077202 332.000000 321.956273 332.307692 321.837044 332.615385 321.719491 332.923077 321.603590 333.230769 321.489315 333.538462 321.376642 333.846154 321.265547 334.153846 321.156005 334.461538 321.047990 334.769231 320.941479 335.076923 320.836447 335.384615 320.732869 335.692308 320.630719 336.000000 320.529975 336.307692 320.430610 336.615385 320.332601 336.923077 320.235922 337.230769 320.140549 337.538462 320.046457 337.846154 319.953621 338.153846 319.862018 338.461538 319.771621 338.769231 319.682407 339.076923 319.594351 339.384615 319.507428 339.692308 319.421613 340.000000 319.336882 340.307692 319.253210 340.615385 319.170572 340.923077 319.088944 341.230769 319.008301 341.538462 318.928619 341.846154 318.849871 342.153846 318.772035 342.461538 318.695085 342.769231 318.618997 343.076923 318.543745 343.384615 318.469306 343.692308 318.395654 344.000000 318.322764 344.307692 318.250613 344.615385 318.179176 344.923077 318.108427 345.230769 318.038342 345.538462 317.968897 345.846154 317.900067 346.153846 317.831826 346.461538 317.764151 346.769231 317.697016 347.076923 317.630398 347.384615 317.564270 347.692308 317.498610 348.000000 317.433391 348.307692 317.368589 348.615385 317.304180 348.923077 317.240139 349.230769 317.176441 349.538462 317.113062 349.846154 317.049976 350.153846 316.987160 350.461538 316.924588 350.769231 316.862236 351.076923 316.800079 351.384615 316.738092 351.692308 316.676251 352.000000 316.614531 352.307692 316.552907 352.615385 316.491355 352.923077 316.429850 353.230769 316.368368 353.538462 316.306883 353.846154 316.245371 354.153846 316.183807 354.461538 316.122166 354.769231 316.060425 355.076923 315.998558 355.384615 315.936540 355.692308 315.874347 356.000000 315.811954 356.307692 315.749337 356.615385 315.686470 356.923077 315.623330 357.230769 315.559891 357.538462 315.496129 357.846154 315.432018 358.153846 315.367535 358.461538 315.302655 358.769231 315.237353 359.076923 315.171604 359.384615 315.105384 359.692308 315.038667 360.000000 314.971430 360.307692 314.903647 360.615385 314.835295 360.923077 314.766347 361.230769 314.696780 361.538462 314.626569 361.846154 314.555689 362.153846 314.484116 362.461538 314.411824 362.769231 314.338789 363.076923 314.264987 363.384615 314.190392 363.692308 314.114981 364.000000 314.038728 364.307692 313.961608 364.615385 313.883598 364.923077 313.804672 365.230769 313.724805 365.538462 313.643974 365.846154 313.562153 366.153846 313.479317 366.461538 313.395442 366.769231 313.310503 367.076923 313.224476 367.384615 313.137336 367.692308 313.049058 368.000000 312.959617 368.307692 312.868989 368.615385 312.777150 368.923077 312.684073 369.230769 312.589736 369.538462 312.494112 369.846154 312.397178 370.153846 312.298909 370.461538 312.199279 370.769231 312.098265 371.076923 311.995841 371.384615 311.891984 371.692308 311.786667 372.000000 311.679868 372.307692 311.571560 372.615385 311.461719 372.923077 311.350321 373.230769 311.237341 373.538462 311.122754 373.846154 311.006535 374.153846 310.888660 374.461538 310.769105 374.769231 310.647843 375.076923 310.524852 375.384615 310.400105 375.692308 310.273579 376.000000 310.145249 376.307692 310.015089 376.615385 309.883076 376.923077 309.749185 377.230769 309.613390 377.538462 309.475668 377.846154 309.335993 378.153846 309.194341 378.461538 309.050688 378.769231 308.905008 379.076923 308.757277 379.384615 308.607470 379.692308 308.455562 380.000000 308.301529 380.307692 308.145347 380.615385 307.986990 380.923077 307.826433 381.230769 307.663653 381.538462 307.498624 381.846154 307.331321 382.153846 307.161721 382.461538 306.989798 382.769231 306.815528 383.076923 306.638886 383.384615 306.459847 383.692308 306.278386 384.000000 306.094479 384.307692 305.908102 384.615385 305.719229 384.923077 305.527836 385.230769 305.333899 385.538462 305.137391 385.846154 304.938290 386.153846 304.736569 386.461538 304.532206 386.769231 304.325173 387.076923 304.115448 387.384615 303.903006 387.692308 303.687821 388.000000 303.469868 388.307692 303.249125 388.615385 303.025565 388.923077 302.799164 389.230769 302.569897 389.538462 302.337740 389.846154 302.102668 390.153846 301.864655 390.461538 301.623679 390.769231 301.379713 391.076923 301.132734 391.384615 300.882716 391.692308 300.629635 392.000000 300.373466 392.307692 300.114184 392.615385 299.851765 392.923077 299.586185 393.230769 299.317417 393.538462 299.045439 393.846154 298.770224 394.153846 298.491749 394.461538 298.209988 394.769231 297.924918 395.076923 297.636512 395.384615 297.344747 395.692308 297.049599 396.000000 296.751041 396.307692 296.449050 396.615385 296.143601 396.923077 295.834669 397.230769 295.522229 397.538462 295.206257 397.846154 294.886729 398.153846 294.563619 398.461538 294.236902 398.769231 293.906564 399.076923 293.572622 399.384615 293.235105 399.692308 292.894040 400.000000 292.549456 400.307692 292.201379 400.615385 291.849837 400.923077 291.494859 401.230769 291.136472 401.538462 290.774703 401.846154 290.409581 402.153846 290.041134 402.461538 289.669388 402.769231 289.294372 403.076923 288.916114 403.384615 288.534640 403.692308 288.149980 404.000000 287.762160 404.307692 287.371209 404.615385 286.977154 404.923077 286.580023 405.230769 286.179844 405.538462 285.776644 405.846154 285.370451 406.153846 284.961293 406.461538 284.549197 406.769231 284.134192 407.076923 283.716305 407.384615 283.295564 407.692308 282.871997 408.000000 282.445631 408.307692 282.016494 408.615385 281.584614 408.923077 281.150018 409.230769 280.712735 409.538462 280.272791 409.846154 279.830216 410.153846 279.385036 410.461538 278.937279 410.769231 278.486974 411.076923 278.034147 411.384615 277.578827 411.692308 277.121040 412.000000 276.660816 412.307692 276.198182 412.615385 275.733165 412.923077 275.265793 413.230769 274.796094 413.538462 274.324096 413.846154 273.849827 414.153846 273.373313 414.461538 272.894584 414.769231 272.413666 415.076923 271.930587 415.384615 271.445376 415.692308 270.958059 416.000000 270.468666 416.307692 269.977222 416.615385 269.483757 416.923077 268.988297 417.230769 268.490871 417.538462 267.991507 417.846154 267.490231 418.153846 266.987073 418.461538 266.482059 418.769231 265.975217 419.076923 265.466575 419.384615 264.956161 419.692308 264.444003 420.000000 263.930128 420.307692 263.414564 420.615385 262.897339 420.923077 262.378480 421.230769 261.858015 421.538462 261.335973 421.846154 260.812380 422.153846 260.287264 422.461538 259.760654 422.769231 259.232577 423.076923 258.703061 423.384615 258.172133 423.692308 257.639821 424.000000 257.106153 424.307692 256.571156 424.615385 256.034859 424.923077 255.497290 425.230769 254.958475 425.538462 254.418443 425.846154 253.877221 426.153846 253.334837 426.461538 252.791319 426.769231 252.246695 427.076923 251.700992 427.384615 251.154238 427.692308 250.606461 428.000000 250.057689 428.307692 249.507949 428.615385 248.957268 428.923077 248.405676 429.230769 247.853199 429.538462 247.299866 429.846154 246.745704 430.153846 246.190740 430.461538 245.635003 430.769231 245.078520 431.076923 244.521319 431.384615 243.963428 431.692308 243.404874 432.000000 242.845685 432.307692 242.285890 432.615385 241.725515 432.923077 241.164588 433.230769 240.603138 433.538462 240.041192 433.846154 239.478777 434.153846 238.915922 434.461538 238.352654 434.769231 237.789000 435.076923 237.224990 435.384615 236.660650 435.692308 236.096008 436.000000 235.531091 436.307692 234.965929 436.615385 234.400547 436.923077 233.834975 437.230769 233.269240 437.538462 232.703369 437.846154 232.137391 438.153846 231.571332 438.461538 231.005222 438.769231 230.439086 439.076923 229.872955 439.384615 229.306854 439.692308 228.740812 440.000000 228.174856 440.307692 227.609015 440.615385 227.043316 440.923077 226.477786 441.230769 225.912454 441.538462 225.347347 441.846154 224.782493 442.153846 224.217920 442.461538 223.653655 442.769231 223.089727 443.076923 222.526162 443.384615 221.962989 443.692308 221.400235 444.000000 220.837929 444.307692 220.276097 444.615385 219.714769 444.923077 219.153970 445.230769 218.593730 445.538462 218.034075 445.846154 217.475034 446.153846 216.916634 446.461538 216.358904 446.769231 215.801870 447.076923 215.245561 447.384615 214.690004 447.692308 214.135228 448.000000 213.581259 448.307692 213.028125 448.615385 212.475855 448.923077 211.924476 449.230769 211.374016 449.538462 210.824502 449.846154 210.275962 450.153846 209.728425 450.461538 209.181917 450.769231 208.636466 451.076923 208.092101 451.384615 207.548849 451.692308 207.006738 452.000000 206.465795 452.307692 205.926048 452.615385 205.387525 452.923077 204.850253 453.230769 204.314262 453.538462 203.779577 453.846154 203.246227 454.153846 202.714240 454.461538 202.183643 454.769231 201.654464 455.076923 201.126732 455.384615 200.600472 455.692308 200.075714 456.000000 199.552486 456.307692 199.030814 456.615385 198.510726 456.923077 197.992251 457.230769 197.475416 457.538462 196.960249 457.846154 196.446777 458.153846 195.935029 458.461538 195.425032 458.769231 194.916813 459.076923 194.410401 459.384615 193.905823 459.692308 193.403107 460.000000 192.902281 460.307692 192.403373 460.615385 191.906409 460.923077 191.411419 461.230769 190.918429 461.538462 190.427468 461.846154 189.938563 462.153846 189.451741 462.461538 188.967032 462.769231 188.484462 463.076923 188.004059 463.384615 187.525851 463.692308 187.049865 464.000000 186.576130 464.307692 186.104673 464.615385 185.635522 464.923077 185.168705 465.230769 184.704249 465.538462 184.242182 465.846154 183.782532 466.153846 183.325326 466.461538 182.870593 466.769231 182.418359 467.076923 181.968654 467.384615 181.521504 467.692308 181.076937 468.000000 180.634982 468.307692 180.195665 468.615385 179.759015 468.923077 179.325059 469.230769 178.893825 469.538462 178.465340 469.846154 178.039634 470.153846 177.616732 470.461538 177.196663 470.769231 176.779455 471.076923 176.365136 471.384615 175.953732 471.692308 175.545273 472.000000 175.139785 472.307692 174.737297 472.615385 174.337836 472.923077 173.941430 473.230769 173.548106 473.538462 173.157893 473.846154 172.770818 474.153846 172.386908 474.461538 172.006193 474.769231 171.628698 475.076923 171.254453 475.384615 170.883485 475.692308 170.515813 476.000000 170.151426 476.307692 169.790303 476.615385 169.432425 476.923077 169.077771 477.230769 168.726322 477.538462 168.378057 477.846154 168.032957 478.153846 167.691001 478.461538 167.352169 478.769231 167.016442 479.076923 166.683798 479.384615 166.354219 479.692308 166.027685 480.000000 165.704174 480.307692 165.383668 480.615385 165.066146 480.923077 164.751588 481.230769 164.439974 481.538462 164.131284 481.846154 163.825498 482.153846 163.522597 482.461538 163.222559 482.769231 162.925365 483.076923 162.630995 483.384615 162.339429 483.692308 162.050647 484.000000 161.764629 484.307692 161.481355 484.615385 161.200804 484.923077 160.922957 485.230769 160.647794 485.538462 160.375295 485.846154 160.105440 486.153846 159.838208 486.461538 159.573579 486.769231 159.311535 487.076923 159.052054 487.384615 158.795116 487.692308 158.540703 488.000000 158.288792 488.307692 158.039365 488.615385 157.792402 488.923077 157.547882 489.230769 157.305785 489.538462 157.066092 489.846154 156.828782 490.153846 156.593836 490.461538 156.361233 490.769231 156.130953 491.076923 155.902976 491.384615 155.677283 491.692308 155.453853 492.000000 155.232666 492.307692 155.013702 492.615385 154.796941 492.923077 154.582364 493.230769 154.369949 493.538462 154.159677 493.846154 153.951529 494.153846 153.745483 494.461538 153.541521 494.769231 153.339621 495.076923 153.139765 495.384615 152.941931 495.692308 152.746100 496.000000 152.552252 496.307692 152.360366 496.615385 152.170424 496.923077 151.982404 497.230769 151.796287 497.538462 151.612053 497.846154 151.429681 498.153846 151.249152 498.461538 151.070446 498.769231 150.893542 499.076923 150.718421 499.384615 150.545062 499.692308 150.373446 500.000000 150.203552 500.307692 150.035361 500.615385 149.868852 500.923077 149.704006 501.230769 149.540802 501.538462 149.379220 501.846154 149.219241 502.153846 149.060844 502.461538 148.904010 502.769231 148.748717 503.076923 148.594947 503.384615 148.442679 503.692308 148.291893 504.000000 148.142569 504.307692 147.994688 504.615385 147.848228 504.923077 147.703171 505.230769 147.559496 505.538462 147.417182 505.846154 147.276211 506.153846 147.136562 506.461538 146.998214 506.769231 146.861149 507.076923 146.725345 507.384615 146.590783 507.692308 146.457443 508.000000 146.325305 508.307692 146.194349 508.615385 146.064554 508.923077 145.935901 509.230769 145.808370 509.538462 145.681941 509.846154 145.556593 510.153846 145.432306 510.461538 145.309062 510.769231 145.186839 511.076923 145.065617 511.384615 144.945377 511.692308 144.826099 512.000000 144.707761 512.307692 144.590346 512.615385 144.473832 512.923077 144.358199 513.230769 144.243427 513.538462 144.129497 513.846154 144.016388 514.153846 143.904081 514.461538 143.792554 514.769231 143.681789 515.076923 143.571765 515.384615 143.462462 515.692308 143.353861 516.000000 143.245940 516.307692 143.138681 516.615385 143.032063 516.923077 142.926065 517.230769 142.820669 517.538462 142.715854 517.846154 142.611600 518.153846 142.507886 518.461538 142.404694 518.769231 142.302002 519.076923 142.199791 519.384615 142.098042 519.692308 141.996732 520.000000 141.895844 520.307692 141.795357 520.615385 141.695250 520.923077 141.595504 521.230769 141.496098 521.538462 141.397013 521.846154 141.298229 522.153846 141.199725 522.461538 141.101482 522.769231 141.003480 523.076923 140.905698 523.384615 140.808116 523.692308 140.710715 524.000000 140.613475 524.307692 140.516374 524.615385 140.419394 524.923077 140.322515 525.230769 140.225716 525.538462 140.128977 525.846154 140.032278 526.153846 139.935600 526.461538 139.838922 526.769231 139.742224 527.076923 139.645486 527.384615 139.548689 527.692308 139.451811 528.000000 139.354834 528.307692 139.257736 528.615385 139.160499 528.923077 139.063102 529.230769 138.965524 529.538462 138.867747 529.846154 138.769750 530.153846 138.671512 530.461538 138.573015 530.769231 138.474237 531.076923 138.375159 531.384615 138.275761 531.692308 138.176022 532.000000 138.075924 532.307692 137.975445 532.615385 137.874566 532.923077 137.773266 533.230769 137.671526 533.538462 137.569326 533.846154 137.466645 534.153846 137.363464 534.461538 137.259762 534.769231 137.155520 535.076923 137.050718 535.384615 136.945335 535.692308 136.839351 536.000000 136.732747 536.307692 136.625502 536.615385 136.517596 536.923077 136.409010 537.230769 136.299723 537.538462 136.189715 537.846154 136.078967 538.153846 135.967458 538.461538 135.855168 538.769231 135.742077 539.076923 135.628165 539.384615 135.513412 539.692308 135.397799 540.000000 135.281304 540.307692 135.163909 540.615385 135.045593 540.923077 134.926335 541.230769 134.806117 541.538462 134.684917 541.846154 134.562716 542.153846 134.439495 542.461538 134.315232 542.769231 134.189908 543.076923 134.063502 543.384615 133.935996 543.692308 133.807368 544.000000 133.677599 544.307692 133.546669 544.615385 133.414557 544.923077 133.281244 545.230769 133.146709 545.538462 133.010934 545.846154 132.873896 546.153846 132.735578 546.461538 132.595957 546.769231 132.455016 547.076923 132.312732 547.384615 132.169087 547.692308 132.024061 548.000000 131.877633 548.307692 131.729783 548.615385 131.580492 548.923077 131.429738 549.230769 131.277503 549.538462 131.123767 549.846154 130.968508 550.153846 130.811708 550.461538 130.653346 550.769231 130.493402 551.076923 130.331856 551.384615 130.168689 551.692308 130.003879 552.000000 129.837407 552.307692 129.669254 552.615385 129.499403 552.923077 129.327861 553.230769 129.154637 553.538462 128.979742 553.846154 128.803186 554.153846 128.624979 554.461538 128.445131 554.769231 128.263654 555.076923 128.080556 555.384615 127.895849 555.692308 127.709542 556.000000 127.521646 556.307692 127.332171 556.615385 127.141128 556.923077 126.948526 557.230769 126.754375 557.538462 126.558687 557.846154 126.361471 558.153846 126.162738 558.461538 125.962497 558.769231 125.760760 559.076923 125.557536 559.384615 125.352836 559.692308 125.146669 560.000000 124.939046 560.307692 124.729978 560.615385 124.519475 560.923077 124.307546 561.230769 124.094203 561.538462 123.879455 561.846154 123.663312 562.153846 123.445785 562.461538 123.226885 562.769231 123.006621 563.076923 122.785004 563.384615 122.562043 563.692308 122.337750 564.000000 122.112134 564.307692 121.885206 564.615385 121.656975 564.923077 121.427453 565.230769 121.196650 565.538462 120.964575 565.846154 120.731239 566.153846 120.496652 566.461538 120.260825 566.769231 120.023767 567.076923 119.785490 567.384615 119.546003 567.692308 119.305316 568.000000 119.063440 568.307692 118.820384 568.615385 118.576161 568.923077 118.330778 569.230769 118.084248 569.538462 117.836579 569.846154 117.587783 570.153846 117.337869 570.461538 117.086848 570.769231 116.834730 571.076923 116.581526 571.384615 116.327245 571.692308 116.071897 572.000000 115.815494 572.307692 115.558045 572.615385 115.299561 572.923077 115.040052 573.230769 114.779527 573.538462 114.517998 573.846154 114.255475 574.153846 113.991967 574.461538 113.727486 574.769231 113.462041 575.076923 113.195642 575.384615 112.928301 575.692308 112.660026 576.000000 112.390829 576.307692 112.120719 576.615385 111.849708 576.923077 111.577804 577.230769 111.305019 577.538462 111.031363 577.846154 110.756846 578.153846 110.481477 578.461538 110.205269 578.769231 109.928229 579.076923 109.650370 579.384615 109.371701 579.692308 109.092232 580.000000 108.811975 580.307692 108.530938 580.615385 108.249132 580.923077 107.966568 581.230769 107.683255 581.538462 107.399205 581.846154 107.114426 582.153846 106.828930 582.461538 106.542727 582.769231 106.255827 583.076923 105.968240 583.384615 105.679977 583.692308 105.391047 584.000000 105.101462 584.307692 104.811231 584.615385 104.520364 584.923077 104.228872 585.230769 103.936765 585.538462 103.644053 585.846154 103.350747 586.153846 103.056857 586.461538 102.762393 586.769231 102.467365 587.076923 102.171784 587.384615 101.875659 587.692308 101.579002 588.000000 101.281822 588.307692 100.984130 588.615385 100.685935 588.923077 100.387248 589.230769 100.088080 589.538462 99.788441 589.846154 99.488340 590.153846 99.187789 590.461538 98.886797 590.769231 98.585374 591.076923 98.283532 591.384615 97.981279 591.692308 97.678627 592.000000 97.375586 592.307692 97.072165 592.615385 96.768376 592.923077 96.464228 593.230769 96.159732 593.538462 95.854898 593.846154 95.549736 594.153846 95.244256 594.461538 94.938469 594.769231 94.632385 595.076923 94.326014 595.384615 94.019367 595.692308 93.712453 596.000000 93.405284 596.307692 93.097869 596.615385 92.790218 596.923077 92.482342 597.230769 92.174250 597.538462 91.865955 597.846154 91.557464 598.153846 91.248790 598.461538 90.939941 598.769231 90.630929 599.076923 90.321763 599.384615 90.012454 599.692308 89.703012 600.000000 89.393447 600.307692 89.083770 600.615385 88.773991 600.923077 88.464120 601.230769 88.154167 601.538462 87.844143 601.846154 87.534057 602.153846 87.223921 602.461538 86.913744 602.769231 86.603536 603.076923 86.293309 603.384615 85.983071 603.692308 85.672834 604.000000 85.362607 604.307692 85.052402 604.615385 84.742227 604.923077 84.432094 605.230769 84.122013 605.538462 83.811993 605.846154 83.502045 606.153846 83.192180 606.461538 82.882408 606.769231 82.572738 607.076923 82.263182 607.384615 81.953749 607.692308 81.644450 608.000000 81.335295 608.307692 81.026294 608.615385 80.717457 608.923077 80.408795 609.230769 80.100318 609.538462 79.792036 609.846154 79.483960 610.153846 79.176099 610.461538 78.868465 610.769231 78.561066 611.076923 78.253914 611.384615 77.947019 611.692308 77.640391 612.000000 77.334040 612.307692 77.027977 612.615385 76.722211 612.923077 76.416753 613.230769 76.111614 613.538462 75.806803 613.846154 75.502331 614.153846 75.198208 614.461538 74.894444 614.769231 74.591050 615.076923 74.288036 615.384615 73.985412 615.692308 73.683188 616.000000 73.381374 616.307692 73.079982 616.615385 72.779020 616.923077 72.478500 617.230769 72.178432 617.538462 71.878825 617.846154 71.579690 618.153846 71.281038 618.461538 70.982879 618.769231 70.685222 619.076923 70.388078 619.384615 70.091458 619.692308 69.795371 620.000000 69.499829 620.307692 69.204840 620.615385 68.910416 620.923077 68.616567 621.230769 68.323302 621.538462 68.030633 621.846154 67.738569 622.153846 67.447120 622.461538 67.156298 622.769231 66.866112 623.076923 66.576572 623.384615 66.287689 623.692308 65.999473 624.000000 65.711934 624.307692 65.425083 624.615385 65.138929 624.923077 64.853483 625.230769 64.568756 625.538462 64.284757 625.846154 64.001497 626.153846 63.718985 626.461538 63.437233 626.769231 63.156251 627.076923 62.876048 627.384615 62.596635 627.692308 62.318023 628.000000 62.040221 628.307692 61.763240 628.615385 61.487090 628.923077 61.211781 629.230769 60.937324 629.538462 60.663726 629.846154 60.390987 630.153846 60.119102 630.461538 59.848069 630.769231 59.577884 631.076923 59.308544 631.384615 59.040045 631.692308 58.772383 632.000000 58.505556 632.307692 58.239559 632.615385 57.974390 632.923077 57.710045 633.230769 57.446520 633.538462 57.183812 633.846154 56.921918 634.153846 56.660833 634.461538 56.400556 634.769231 56.141081 635.076923 55.882407 635.384615 55.624528 635.692308 55.367443 636.000000 55.111147 636.307692 54.855637 636.615385 54.600909 636.923077 54.346960 637.230769 54.093788 637.538462 53.841387 637.846154 53.589755 638.153846 53.338888 638.461538 53.088783 638.769231 52.839437 639.076923 52.590845 639.384615 52.343005 639.692308 52.095913 640.000000 51.849566 640.307692 51.603960 640.615385 51.359091 640.923077 51.114957 641.230769 50.871553 641.538462 50.628877 641.846154 50.386925 642.153846 50.145693 642.461538 49.905179 642.769231 49.665378 643.076923 49.426287 643.384615 49.187902 643.692308 48.950221 644.000000 48.713240 644.307692 48.476955 644.615385 48.241363 644.923077 48.006460 645.230769 47.772244 645.538462 47.538710 645.846154 47.305855 646.153846 47.073676 646.461538 46.842168 646.769231 46.611330 647.076923 46.381157 647.384615 46.151646 647.692308 45.922793 648.000000 45.694596 648.307692 45.467049 648.615385 45.240151 648.923077 45.013898 649.230769 44.788285 649.538462 44.563311 649.846154 44.338971 650.153846 44.115261 650.461538 43.892179 650.769231 43.669721 651.076923 43.447883 651.384615 43.226663 651.692308 43.006056 652.000000 42.786059 652.307692 42.566669 652.615385 42.347882 652.923077 42.129695 653.230769 41.912104 653.538462 41.695107 653.846154 41.478698 654.153846 41.262876 654.461538 41.047637 654.769231 40.832976 655.076923 40.618891 655.384615 40.405379 655.692308 40.192435 656.000000 39.980057 656.307692 39.768240 656.615385 39.556982 656.923077 39.346279 657.230769 39.136127 657.538462 38.926524 657.846154 38.717465 658.153846 38.508948 658.461538 38.300968 658.769231 38.093523 659.076923 37.886608 659.384615 37.680221 659.692308 37.474358 660.000000 37.269015 660.307692 37.064189 660.615385 36.859878 660.923077 36.656076 661.230769 36.452781 661.538462 36.249989 661.846154 36.047697 662.153846 35.845902 662.461538 35.644599 662.769231 35.443786 663.076923 35.243459 663.384615 35.043615 663.692308 34.844250 664.000000 34.645361 664.307692 34.446943 664.615385 34.248995 664.923077 34.051512 665.230769 33.854491 665.538462 33.657928 665.846154 33.461821 666.153846 33.266165 666.461538 33.070957 666.769231 32.876194 667.076923 32.681872 667.384615 32.487988 667.692308 32.294538 668.000000 32.101520 668.307692 31.908928 668.615385 31.716761 668.923077 31.525014 669.230769 31.333685 669.538462 31.142769 669.846154 30.952263 670.153846 30.762164 670.461538 30.572468 670.769231 30.383172 671.076923 30.194273 671.384615 30.005767 671.692308 29.817650 672.000000 29.629919 672.307692 29.442571 672.615385 29.255602 672.923077 29.069009 673.230769 28.882788 673.538462 28.696936 673.846154 28.511449 674.153846 28.326324 674.461538 28.141558 674.769231 27.957147 675.076923 27.773088 675.384615 27.589376 675.692308 27.406010 676.000000 27.222985 676.307692 27.040297 676.615385 26.857944 676.923077 26.675922 677.230769 26.494227 677.538462 26.312857 677.846154 26.131807 678.153846 25.951074 678.461538 25.770654 678.769231 25.590546 679.076923 25.410743 679.384615 25.231245 679.692308 25.052046 680.000000 24.873143 680.307692 24.694534 680.615385 24.516214 680.923077 24.338180 681.230769 24.160429 681.538462 23.982957 681.846154 23.805761 682.153846 23.628838 682.461538 23.452183 682.769231 23.275793 683.076923 23.099666 683.384615 22.923797 683.692308 22.748183 684.000000 22.572821 684.307692 22.397707 684.615385 22.222838 684.923077 22.048210 685.230769 21.873820 685.538462 21.699665 685.846154 21.525740 686.153846 21.352043 686.461538 21.178570 686.769231 21.005318 687.076923 20.832282 687.384615 20.659461 687.692308 20.486850 688.000000 20.314445 688.307692 20.142244 688.615385 19.970243 688.923077 19.798439 689.230769 19.626827 689.538462 19.455405 689.846154 19.284169 690.153846 19.113116 690.461538 18.942242 690.769231 18.771544 691.076923 18.601019 691.384615 18.430662 691.692308 18.260471 692.000000 18.090441 692.307692 17.920571 692.615385 17.750855 692.923077 17.581291 693.230769 17.411876 693.538462 17.242605 693.846154 17.073475 694.153846 16.904484 694.461538 16.735626 694.769231 16.566900 695.076923 16.398301 695.384615 16.229827 695.692308 16.061473 696.000000 15.893236 696.307692 15.725113 696.615385 15.557101 696.923077 15.389195 697.230769 15.221393 697.538462 15.053690 697.846154 14.886084 698.153846 14.718572 698.461538 14.551148 698.769231 14.383811 699.076923 14.216557 699.384615 14.049382 699.692308 13.882283 700.000000 13.715256 700.307692 13.548299 700.615385 13.381406 700.923077 13.214576 701.230769 13.047804 701.538462 12.881088 701.846154 12.714423 702.153846 12.547807 702.461538 12.381235 702.769231 12.214705 703.076923 12.048212 703.384615 11.881754 703.692308 11.715327 704.000000 11.548928 704.307692 11.382553 704.615385 11.216198 704.923077 11.049861 705.230769 10.883538 705.538462 10.717224 705.846154 10.550918 706.153846 10.384615 706.153846 540.000000" /></g></g><g class="titles" /><g class="plot overlay" transform="translate(60, 20)"><g class="series serie-0 color-0"><g class="dots"><circle class="dot reactive tooltip-trigger" cx="13.846153846153847" cy="529.6153846153846" r="2.5" /><desc class="value">3,222,456,357(kWh)</desc><desc class="x top">13.846153846153847</desc><desc class="y top">529.6153846153846</desc><desc class="x_label">2549</desc></g><g class="dots"><circle class="dot reactive tooltip-trigger" cx="90.76923076923076" cy="472.662072060401" r="2.5" /><desc class="value">3,452,175,865(kWh)</desc><desc class="x top">90.76923076923076</desc><desc class="y top">472.662072060401</desc><desc class="x_label">2550</desc></g><g class="dots"><circle class="dot reactive tooltip-trigger" cx="167.69230769230765" cy="441.3822293198126" r="2.5" /><desc class="value">3,578,342,189(kWh)</desc><desc class="x top">167.69230769230765</desc><desc class="y top">441.3822293198126</desc><desc class="x_label">2551</desc></g><g class="dots"><circle class="dot reactive tooltip-trigger" cx="244.6153846153846" cy="408.59715059226625" r="2.5" /><desc class="value">3,710,579,838(kWh)</desc><desc class="x top">244.6153846153846</desc><desc class="y top">408.59715059226625</desc><desc class="x_label">2552</desc></g><g class="dots"><circle class="dot reactive tooltip-trigger" cx="321.5384615384615" cy="327.18358893662264" r="2.5" /><desc class="value">4,038,959,040(kWh)</desc><desc class="x top">321.5384615384615</desc><desc class="y top">327.18358893662264</desc><desc class="x_label">2553</desc></g><g class="dots"><circle class="dot reactive tooltip-trigger" cx="398.46153846153845" cy="294.2369024832934" r="2.5" /><desc class="value">4,171,848,529(kWh)</desc><desc class="x left top">398.46153846153845</desc><desc class="y left top">294.2369024832934</desc><desc class="x_label">2554</desc></g><g class="dots"><circle class="dot reactive tooltip-trigger" cx="475.38461538461536" cy="170.8834849201499" r="2.5" /><desc class="value">4,669,390,904(kWh)</desc><desc class="x left">475.38461538461536</desc><desc class="y left">170.8834849201499</desc><desc class="x_label">2555</desc></g><g class="dots"><circle class="dot reactive tooltip-trigger" cx="552.3076923076923" cy="129.6692537507961" r="2.5" /><desc class="value">4,835,627,291(kWh)</desc><desc class="x left">552.3076923076923</desc><desc class="y left">129.6692537507961</desc><desc class="x_label">2556</desc></g><g class="dots"><circle class="dot reactive tooltip-trigger" cx="629.2307692307692" cy="60.93732384869179" r="2.5" /><desc class="value">5,112,855,505(kWh)</desc><desc class="x left">629.2307692307692</desc><desc class="y left">60.93732384869179</desc><desc class="x_label">2557</desc></g><g class="dots"><circle class="dot reactive tooltip-trigger" cx="706.1538461538461" cy="10.384615384615358" r="2.5" /><desc class="value">5,316,758,365(kWh)</desc><desc class="x left">706.1538461538461</desc><desc class="y left">10.384615384615358</desc><desc class="x_label">2558</desc></g></g></g><g class="plot text-overlay" transform="translate(60, 20)"><g class="series serie-0 color-0" /></g><g class="plot tooltip-overlay" transform="translate(60, 20)"><g class="tooltip" style="opacity: 0" transform="translate(0 0)"><rect class="tooltip-box" height="0" rx="0" ry="0" width="0" /><g class="text" /></g></g></g></svg>