<?xml version='1.0' encoding='utf-8'?>
<svg xmlns:xlink="http://www.w3.org/1999/xlink" class="pygal-chart" id="chart-6924d302-0225-4af9-a788-0362d39a6e1c" viewBox="0 0 800 600" xmlns="http://www.w3.org/2000/svg"><!--Generated with pygal 2.3.0 (etree) ©Kozea 2012-2016 on 2016-12-08--><!--http://pygal.org--><!--http://github.com/Kozea/pygal--><defs><style type="text/css">#chart-6924d302-0225-4af9-a788-0362d39a6e1c{-webkit-user-select:none;-webkit-font-smoothing:antialiased;font-family:Consolas,"Liberation Mono",Menlo,Courier,monospace}#chart-6924d302-0225-4af9-a788-0362d39a6e1c .title{font-family:Consolas,"Liberation Mono",Menlo,Courier,monospace;font-size:16px}#chart-6924d302-0225-4af9-a788-0362d39a6e1c .legends .legend text{font-family:Consolas,"Liberation Mono",Menlo,Courier,monospace;font-size:14px}#chart-6924d302-0225-4af9-a788-0362d39a6e1c .axis text{font-family:Consolas,"Liberation Mono",Menlo,Courier,monospace;font-size:10px}#chart-6924d302-0225-4af9-a788-0362d39a6e1c .axis text.major{font-family:Consolas,"Liberation Mono",Menlo,Courier,monospace;font-size:10px}#chart-6924d302-0225-4af9-a788-0362d39a6e1c .text-overlay text.value{font-family:Consolas,"Liberation Mono",Menlo,Courier,monospace;font-size:16px}#chart-6924d302-0225-4af9-a788-0362d39a6e1c .text-overlay text.label{font-family:Consolas,"Liberation Mono",Menlo,Courier,monospace;font-size:10px}#chart-6924d302-0225-4af9-a788-0362d39a6e1c .tooltip{font-family:Consolas,"Liberation Mono",Menlo,Courier,monospace;font-size:14px}#chart-6924d302-0225-4af9-a788-0362d39a6e1c text.no_data{font-family:Consolas,"Liberation Mono",Menlo,Courier,monospace;font-size:64px}
#chart-6924d302-0225-4af9-a788-0362d39a6e1c{background-color:rgba(249,249,249,1)}#chart-6924d302-0225-4af9-a788-0362d39a6e1c path,#chart-6924d302-0225-4af9-a788-0362d39a6e1c line,#chart-6924d302-0225-4af9-a788-0362d39a6e1c rect,#chart-6924d302-0225-4af9-a788-0362d39a6e1c circle{-webkit-transition:150ms;-moz-transition:150ms;transition:150ms}#chart-6924d302-0225-4af9-a788-0362d39a6e1c .graph &gt; .background{fill:rgba(249,249,249,1)}#chart-6924d302-0225-4af9-a788-0362d39a6e1c .plot &gt; .background{fill:rgba(255,255,255,1)}#chart-6924d302-0225-4af9-a788-0362d39a6e1c .graph{fill:rgba(0,0,0,.87)}#chart-6924d302-0225-4af9-a788-0362d39a6e1c text.no_data{fill:rgba(0,0,0,1)}#chart-6924d302-0225-4af9-a788-0362d39a6e1c .title{fill:rgba(0,0,0,1)}#chart-6924d302-0225-4af9-a788-0362d39a6e1c .legends .legend text{fill:rgba(0,0,0,.87)}#chart-6924d302-0225-4af9-a788-0362d39a6e1c .legends .legend:hover text{fill:rgba(0,0,0,1)}#chart-6924d302-0225-4af9-a788-0362d39a6e1c .axis .line{stroke:rgba(0,0,0,1)}#chart-6924d302-0225-4af9-a788-0362d39a6e1c .axis .guide.line{stroke:rgba(0,0,0,.54)}#chart-6924d302-0225-4af9-a788-0362d39a6e1c .axis .major.line{stroke:rgba(0,0,0,.87)}#chart-6924d302-0225-4af9-a788-0362d39a6e1c .axis text.major{fill:rgba(0,0,0,1)}#chart-6924d302-0225-4af9-a788-0362d39a6e1c .axis.y .guides:hover .guide.line,#chart-6924d302-0225-4af9-a788-0362d39a6e1c .line-graph .axis.x .guides:hover .guide.line,#chart-6924d302-0225-4af9-a788-0362d39a6e1c .stackedline-graph .axis.x .guides:hover .guide.line,#chart-6924d302-0225-4af9-a788-0362d39a6e1c .xy-graph .axis.x .guides:hover .guide.line{stroke:rgba(0,0,0,1)}#chart-6924d302-0225-4af9-a788-0362d39a6e1c .axis .guides:hover text{fill:rgba(0,0,0,1)}#chart-6924d302-0225-4af9-a788-0362d39a6e1c .reactive{fill-opacity:.7;stroke-opacity:.8}#chart-6924d302-0225-4af9-a788-0362d39a6e1c .ci{stroke:rgba(0,0,0,.87)}#chart-6924d302-0225-4af9-a788-0362d39a6e1c .reactive.active,#chart-6924d302-0225-4af9-a788-0362d39a6e1c .active .reactive{fill-opacity:.8;stroke-opacity:.9;stroke-width:4}#chart-6924d302-0225-4af9-a788-0362d39a6e1c .ci .reactive.active{stroke-width:1.5}#chart-6924d302-0225-4af9-a788-0362d39a6e1c .series text{fill:rgba(0,0,0,1)}#chart-6924d302-0225-4af9-a788-0362d39a6e1c .tooltip rect{fill:rgba(255,255,255,1);stroke:rgba(0,0,0,1);-webkit-transition:opacity 150ms;-moz-transition:opacity 150ms;transition:opacity 150ms}#chart-6924d302-0225-4af9-a788-0362d39a6e1c .tooltip .label{fill:rgba(0,0,0,.87)}#chart-6924d302-0225-4af9-a788-0362d39a6e1c .tooltip .label{fill:rgba(0,0,0,.87)}#chart-6924d302-0225-4af9-a788-0362d39a6e1c .tooltip .legend{font-size:.8em;fill:rgba(0,0,0,.54)}#chart-6924d302-0225-4af9-a788-0362d39a6e1c .tooltip .x_label{font-size:.6em;fill:rgba(0,0,0,1)}#chart-6924d302-0225-4af9-a788-0362d39a6e1c .tooltip .xlink{font-size:.5em;text-decoration:underline}#chart-6924d302-0225-4af9-a788-0362d39a6e1c .tooltip .value{font-size:1.5em}#chart-6924d302-0225-4af9-a788-0362d39a6e1c .bound{font-size:.5em}#chart-6924d302-0225-4af9-a788-0362d39a6e1c .max-value{font-size:.75em;fill:rgba(0,0,0,.54)}#chart-6924d302-0225-4af9-a788-0362d39a6e1c .map-element{fill:rgba(255,255,255,1);stroke:rgba(0,0,0,.54) !important}#chart-6924d302-0225-4af9-a788-0362d39a6e1c .map-element .reactive{fill-opacity:inherit;stroke-opacity:inherit}#chart-6924d302-0225-4af9-a788-0362d39a6e1c .color-0,#chart-6924d302-0225-4af9-a788-0362d39a6e1c .color-0 a:visited{stroke:#e86fa0;fill:#e86fa0}#chart-6924d302-0225-4af9-a788-0362d39a6e1c .text-overlay .color-0 text{fill:black}
#chart-6924d302-0225-4af9-a788-0362d39a6e1c text.no_data{text-anchor:middle}#chart-6924d302-0225-4af9-a788-0362d39a6e1c .guide.line{fill:none}#chart-6924d302-0225-4af9-a788-0362d39a6e1c .centered{text-anchor:middle}#chart-6924d302-0225-4af9-a788-0362d39a6e1c .title{text-anchor:middle}#chart-6924d302-0225-4af9-a788-0362d39a6e1c .legends .legend text{fill-opacity:1}#chart-6924d302-0225-4af9-a788-0362d39a6e1c .axis.x text{text-anchor:middle}#chart-6924d302-0225-4af9-a788-0362d39a6e1c .axis.x:not(.web) text[transform]{text-anchor:start}#chart-6924d302-0225-4af9-a788-0362d39a6e1c .axis.x:not(.web) text[transform].backwards{text-anchor:end}#chart-6924d302-0225-4af9-a788-0362d39a6e1c .axis.y text{text-anchor:end}#chart-6924d302-0225-4af9-a788-0362d39a6e1c .axis.y text[transform].backwards{text-anchor:start}#chart-6924d302-0225-4af9-a788-0362d39a6e1c .axis.y2 text{text-anchor:start}#chart-6924d302-0225-4af9-a788-0362d39a6e1c .axis.y2 text[transform].backwards{text-anchor:end}#chart-6924d302-0225-4af9-a788-0362d39a6e1c .axis .guide.line{stroke-dasharray:4,4}#chart-6924d302-0225-4af9-a788-0362d39a6e1c .axis .major.guide.line{stroke-dasharray:6,6}#chart-6924d302-0225-4af9-a788-0362d39a6e1c .horizontal .axis.y .guide.line,#chart-6924d302-0225-4af9-a788-0362d39a6e1c .horizontal .axis.y2 .guide.line,#chart-6924d302-0225-4af9-a788-0362d39a6e1c .vertical .axis.x .guide.line{opacity:0}#chart-6924d302-0225-4af9-a788-0362d39a6e1c .horizontal .axis.always_show .guide.line,#chart-6924d302-0225-4af9-a788-0362d39a6e1c .vertical .axis.always_show .guide.line{opacity:1 !important}#chart-6924d302-0225-4af9-a788-0362d39a6e1c .axis.y .guides:hover .guide.line,#chart-6924d302-0225-4af9-a788-0362d39a6e1c .axis.y2 .guides:hover .guide.line,#chart-6924d302-0225-4af9-a788-0362d39a6e1c .axis.x .guides:hover .guide.line{opacity:1}#chart-6924d302-0225-4af9-a788-0362d39a6e1c .axis .guides:hover text{opacity:1}#chart-6924d302-0225-4af9-a788-0362d39a6e1c .nofill{fill:none}#chart-6924d302-0225-4af9-a788-0362d39a6e1c .subtle-fill{fill-opacity:.2}#chart-6924d302-0225-4af9-a788-0362d39a6e1c .dot{stroke-width:1px;fill-opacity:1}#chart-6924d302-0225-4af9-a788-0362d39a6e1c .dot.active{stroke-width:5px}#chart-6924d302-0225-4af9-a788-0362d39a6e1c .dot.negative{fill:transparent}#chart-6924d302-0225-4af9-a788-0362d39a6e1c text,#chart-6924d302-0225-4af9-a788-0362d39a6e1c tspan{stroke:none !important}#chart-6924d302-0225-4af9-a788-0362d39a6e1c .series text.active{opacity:1}#chart-6924d302-0225-4af9-a788-0362d39a6e1c .tooltip rect{fill-opacity:.95;stroke-width:.5}#chart-6924d302-0225-4af9-a788-0362d39a6e1c .tooltip text{fill-opacity:1}#chart-6924d302-0225-4af9-a788-0362d39a6e1c .showable{visibility:hidden}#chart-6924d302-0225-4af9-a788-0362d39a6e1c .showable.shown{visibility:visible}#chart-6924d302-0225-4af9-a788-0362d39a6e1c .gauge-background{fill:rgba(229,229,229,1);stroke:none}#chart-6924d302-0225-4af9-a788-0362d39a6e1c .bg-lines{stroke:rgba(249,249,249,1);stroke-width:2px}</style><script type="text/javascript">window.pygal = window.pygal || {};window.pygal.config = window.pygal.config || {};window.pygal.config['6924d302-0225-4af9-a788-0362d39a6e1c'] = {"no_data_text": "No data", "no_prefix": false, "xrange": null, "print_values_position": "center", "truncate_label": null, "x_labels": ["2549", "2550", "2551", "2552", "2553", "2554", "2555", "2556", "2557", "2558"], "title": null, "force_uri_protocol": "https", "defs": [], "formatter": null, "classes": ["pygal-chart"], "y_labels": null, "rounded_bars": null, "explicit_size": false, "x_labels_major_every": null, "legend_at_bottom_columns": null, "stroke_style": null, "half_pie": false, "spacing": 10, "tooltip_fancy_mode": true, "inverse_y_axis": false, "width": 800, "inner_radius": 0, "interpolation_parameters": {}, "tooltip_border_radius": 0, "style": {"no_data_font_family": "Consolas, \"Liberation Mono\", Menlo, Courier, monospace", "tooltip_font_size": 14, "tooltip_font_family": "Consolas, \"Liberation Mono\", Menlo, Courier, monospace", "stroke_opacity_hover": ".9", "legend_font_family": "Consolas, \"Liberation Mono\", Menlo, Courier, monospace", "font_family": "Consolas, \"Liberation Mono\", Menlo, Courier, monospace", "title_font_family": "Consolas, \"Liberation Mono\", Menlo, Courier, monospace", "background": "rgba(249, 249, 249, 1)", "stroke_opacity": ".8", "foreground": "rgba(0, 0, 0, .87)", "value_background": "rgba(229, 229, 229, 1)", "guide_stroke_dasharray": "4,4", "foreground_subtle": "rgba(0, 0, 0, .54)", "opacity_hover": ".8", "value_font_family": "Consolas, \"Liberation Mono\", Menlo, Courier, monospace", "value_label_font_size": 10, "plot_background": "rgba(255, 255, 255, 1)", "ci_colors": [], "label_font_size": 10, "major_label_font_size": 10, "title_font_size": 16, "no_data_font_size": 64, "value_font_size": 16, "value_colors": [], "label_font_family": "Consolas, \"Liberation Mono\", Menlo, Courier, monospace", "major_guide_stroke_dasharray": "6,6", "transition": "150ms", "foreground_strong": "rgba(0, 0, 0, 1)", "colors": ["#e86fa0", "#e88f6f", "#e8df6f", "#a0e86f", "#6fe88f", "#6fe8df", "#6fa0e8", "#8f6fe8", "#df6fe8", "#e86fa0"], "opacity": ".7", "legend_font_size": 14, "value_label_font_family": "Consolas, \"Liberation Mono\", Menlo, Courier, monospace", "major_label_font_family": "Consolas, \"Liberation Mono\", Menlo, Courier, monospace"}, "x_labels_major_count": null, "interpolation_precision": 250, "missing_value_fill_truncation": "x", "stack_from_top": false, "truncate_legend": null, "show_minor_x_labels": true, "print_zeroes": true, "css": ["file://style.css", "file://graph.css"], "y_label_rotation": 0, "legend_at_bottom": false, "print_values": false, "margin_top": null, "max_scale": 16, "allow_interruptions": false, "show_x_labels": true, "strict": false, "show_x_guides": false, "stroke": true, "margin_left": null, "dynamic_print_values": false, "print_labels": false, "show_y_labels": true, "x_labels_major": null, "range": null, "x_label_rotation": 0, "margin": 20, "zero": 0, "include_x_axis": false, "height": 600, "show_minor_y_labels": true, "show_dots": true, "interpolate": "cubic", "show_y_guides": true, "y_labels_major": null, "box_mode": "extremes", "margin_bottom": null, "order_min": null, "legend_box_size": 12, "fill": true, "show_only_major_dots": false, "js": ["//kozea.github.io/pygal.js/2.0.x/pygal-tooltips.min.js"], "x_title": null, "y_labels_major_every": null, "y_labels_major_count": null, "disable_xml_declaration": false, "y_title": null, "logarithmic": false, "pretty_print": false, "min_scale": 4, "dots_size": 2.5, "margin_right": null, "legends": [null], "secondary_range": null, "show_legend": false}</script><script type="text/javascript" xlink:href="https://kozea.github.io/pygal.js/2.0.x/pygal-tooltips.min.js" /></defs><title>Pygal</title><g class="graph stackedline-graph vertical"><rect class="background" height="600" width="800" x="0" y="0" /><g class="plot" transform="translate(60, 20)"><rect class="background" height="540" width="720.0" x="0" y="0" /><g class="axis y"><path class="line" d="M0.000000 540.000000 h720.000000" /><g class="guides"><path class="major guide line" d="M0.000000 500.493213 h720.000000" /><text class="major" x="-5" y="503.99321322063366">3000M</text><title>3000M</title></g><g class="guides"><path class="guide line" d="M0.000000 459.477533 h720.000000" /><text class="" x="-5" y="462.9775331111541">3100M</text><title>3100M</title></g><g class="guides"><path class="guide line" d="M0.000000 418.461853 h720.000000" /><text class="" x="-5" y="421.9618530016746">3200M</text><title>3200M</title></g><g class="guides"><path class="guide line" d="M0.000000 377.446173 h720.000000" /><text class="" x="-5" y="380.946172892195">3300M</text><title>3300M</title></g><g class="guides"><path class="guide line" d="M0.000000 336.430493 h720.000000" /><text class="" x="-5" y="339.9304927827155">3400M</text><title>3400M</title></g><g class="guides"><path class="major guide line" d="M0.000000 295.414813 h720.000000" /><text class="major" x="-5" y="298.91481267323593">3500M</text><title>3500M</title></g><g class="guides"><path class="guide line" d="M0.000000 254.399133 h720.000000" /><text class="" x="-5" y="257.8991325637564">3600M</text><title>3600M</title></g><g class="guides"><path class="guide line" d="M0.000000 213.383452 h720.000000" /><text class="" x="-5" y="216.88345245427683">3700M</text><title>3700M</title></g><g class="guides"><path class="guide line" d="M0.000000 172.367772 h720.000000" /><text class="" x="-5" y="175.86777234479723">3800M</text><title>3800M</title></g><g class="guides"><path class="guide line" d="M0.000000 131.352092 h720.000000" /><text class="" x="-5" y="134.85209223531768">3900M</text><title>3900M</title></g><g class="guides"><path class="major guide line" d="M0.000000 90.336412 h720.000000" /><text class="major" x="-5" y="93.83641212583814">4000M</text><title>4000M</title></g><g class="guides"><path class="guide line" d="M0.000000 49.320732 h720.000000" /><text class="" x="-5" y="52.82073201635859">4100M</text><title>4100M</title></g></g><g class="axis x"><g class="guides"><path class="line" d="M13.846154 0.000000 v540.000000" /><text class="" x="13.846153846153847" y="555.0">2549</text></g><g class="guides"><path class="guide line" d="M90.769231 0.000000 v540.000000" /><text class="" x="90.76923076923076" y="555.0">2550</text></g><g class="guides"><path class="guide line" d="M167.692308 0.000000 v540.000000" /><text class="" x="167.69230769230765" y="555.0">2551</text></g><g class="guides"><path class="guide line" d="M244.615385 0.000000 v540.000000" /><text class="" x="244.6153846153846" y="555.0">2552</text></g><g class="guides"><path class="guide line" d="M321.538462 0.000000 v540.000000" /><text class="" x="321.5384615384615" y="555.0">2553</text></g><g class="guides"><path class="guide line" d="M398.461538 0.000000 v540.000000" /><text class="" x="398.46153846153845" y="555.0">2554</text></g><g class="guides"><path class="guide line" d="M475.384615 0.000000 v540.000000" /><text class="" x="475.38461538461536" y="555.0">2555</text></g><g class="guides"><path class="guide line" d="M552.307692 0.000000 v540.000000" /><text class="" x="552.3076923076923" y="555.0">2556</text></g><g class="guides"><path class="guide line" d="M629.230769 0.000000 v540.000000" /><text class="" x="629.2307692307692" y="555.0">2557</text></g><g class="guides"><path class="guide line" d="M706.153846 0.000000 v540.000000" /><text class="" x="706.1538461538461" y="555.0">2558</text></g></g><g class="series serie-0 color-0"><path class="line reactive" d="M13.846154 540.000000 L13.846154 529.615385 14.153846 529.383553 14.461538 529.151725 14.769231 528.919901 15.076923 528.688085 15.384615 528.456279 15.692308 528.224485 16.000000 527.992707 16.307692 527.760946 16.615385 527.529206 16.923077 527.297488 17.230769 527.065795 17.538462 526.834130 17.846154 526.602495 18.153846 526.370894 18.461538 526.139327 18.769231 525.907798 19.076923 525.676310 19.384615 525.444864 19.692308 525.213464 20.000000 524.982112 20.307692 524.750810 20.615385 524.519561 20.923077 524.288367 21.230769 524.057232 21.538462 523.826157 21.846154 523.595145 22.153846 523.364198 22.461538 523.133320 22.769231 522.902512 23.076923 522.671777 23.384615 522.441118 23.692308 522.210537 24.000000 521.980037 24.307692 521.749620 24.615385 521.519289 24.923077 521.289046 25.230769 521.058893 25.538462 520.828834 25.846154 520.598871 26.153846 520.369006 26.461538 520.139242 26.769231 519.909581 27.076923 519.680026 27.384615 519.450579 27.692308 519.221244 28.000000 518.992022 28.307692 518.762915 28.615385 518.533928 28.923077 518.305061 29.230769 518.076318 29.538462 517.847701 29.846154 517.619212 30.153846 517.390855 30.461538 517.162631 30.769231 516.934543 31.076923 516.706594 31.384615 516.478786 31.692308 516.251122 32.000000 516.023603 32.307692 515.796234 32.615385 515.569016 32.923077 515.341952 33.230769 515.115044 33.538462 514.888295 33.846154 514.661707 34.153846 514.435283 34.461538 514.209025 34.769231 513.982937 35.076923 513.757019 35.384615 513.531276 35.692308 513.305709 36.000000 513.080321 36.307692 512.855115 36.615385 512.630092 36.923077 512.405257 37.230769 512.180610 37.538462 511.956155 37.846154 511.731894 38.153846 511.507829 38.461538 511.283964 38.769231 511.060300 39.076923 510.836841 39.384615 510.613588 39.692308 510.390545 40.000000 510.167713 40.307692 509.945096 40.615385 509.722695 40.923077 509.500514 41.230769 509.278554 41.538462 509.056819 41.846154 508.835311 42.153846 508.614032 42.461538 508.392985 42.769231 508.172173 43.076923 507.951597 43.384615 507.731261 43.692308 507.511167 44.000000 507.291317 44.307692 507.071715 44.615385 506.852362 44.923077 506.633261 45.230769 506.414415 45.538462 506.195826 45.846154 505.977497 46.153846 505.759429 46.461538 505.541627 46.769231 505.324092 47.076923 505.106826 47.384615 504.889833 47.692308 504.673114 48.000000 504.456673 48.307692 504.240511 48.615385 504.024632 48.923077 503.809038 49.230769 503.593731 49.538462 503.378714 49.846154 503.163990 50.153846 502.949560 50.461538 502.735428 50.769231 502.521596 51.076923 502.308066 51.384615 502.094842 51.692308 501.881925 52.000000 501.669318 52.307692 501.457023 52.615385 501.245044 52.923077 501.033382 53.230769 500.822041 53.538462 500.611022 53.846154 500.400328 54.153846 500.189962 54.461538 499.979927 54.769231 499.770224 55.076923 499.560856 55.384615 499.351826 55.692308 499.143137 56.000000 498.934790 56.307692 498.726789 56.615385 498.519135 56.923077 498.311832 57.230769 498.104882 57.538462 497.898288 57.846154 497.692051 58.153846 497.486175 58.461538 497.280662 58.769231 497.075514 59.076923 496.870734 59.384615 496.666325 59.692308 496.462289 60.000000 496.258629 60.307692 496.055347 60.615385 495.852445 60.923077 495.649927 61.230769 495.447794 61.538462 495.246050 61.846154 495.044696 62.153846 494.843735 62.461538 494.643171 62.769231 494.443004 63.076923 494.243239 63.384615 494.043876 63.692308 493.844920 64.000000 493.646372 64.307692 493.448235 64.615385 493.250511 64.923077 493.053204 65.230769 492.856314 65.538462 492.659846 65.846154 492.463801 66.153846 492.268183 66.461538 492.072993 66.769231 491.878234 67.076923 491.683908 67.384615 491.490019 67.692308 491.296568 68.000000 491.103558 68.307692 490.910992 68.615385 490.718873 68.923077 490.527202 69.230769 490.335982 69.538462 490.145216 69.846154 489.954906 70.153846 489.765055 70.461538 489.575666 70.769231 489.386740 71.076923 489.198281 71.384615 489.010290 71.692308 488.822771 72.000000 488.635726 72.307692 488.449157 72.615385 488.263067 72.923077 488.077459 73.230769 487.892335 73.538462 487.707697 73.846154 487.523548 74.153846 487.339891 74.461538 487.156728 74.769231 486.974062 75.076923 486.791895 75.384615 486.610229 75.692308 486.429068 76.000000 486.248413 76.307692 486.068268 76.615385 485.888634 76.923077 485.709514 77.230769 485.530912 77.538462 485.352828 77.846154 485.175267 78.153846 484.998229 78.461538 484.821719 78.769231 484.645738 79.076923 484.470289 79.384615 484.295374 79.692308 484.120997 80.000000 483.947158 80.307692 483.773862 80.615385 483.601111 80.923077 483.428906 81.230769 483.257251 81.538462 483.086148 81.846154 482.915599 82.153846 482.745608 82.461538 482.576176 82.769231 482.407307 83.076923 482.239002 83.384615 482.071264 83.692308 481.904096 84.000000 481.737500 84.307692 481.571479 84.615385 481.406036 84.923077 481.241172 85.230769 481.076890 85.538462 480.913194 85.846154 480.750084 86.153846 480.587565 86.461538 480.425638 86.769231 480.264306 87.076923 480.103571 87.384615 479.943437 87.692308 479.783904 88.000000 479.624977 88.307692 479.466658 88.615385 479.308948 88.923077 479.151851 89.230769 478.995369 89.538462 478.839505 89.846154 478.684261 90.153846 478.529639 90.461538 478.375643 90.769231 478.222274 91.076923 478.069536 91.384615 477.917431 91.692308 477.765963 92.000000 477.615134 92.307692 477.464949 92.615385 477.315409 92.923077 477.166519 93.230769 477.018282 93.538462 476.870699 93.846154 476.723776 94.153846 476.577515 94.461538 476.431919 94.769231 476.286991 95.076923 476.142735 95.384615 475.999154 95.692308 475.856251 96.000000 475.714028 96.307692 475.572490 96.615385 475.431639 96.923077 475.291479 97.230769 475.152013 97.538462 475.013244 97.846154 474.875175 98.153846 474.737809 98.461538 474.601150 98.769231 474.465200 99.076923 474.329964 99.384615 474.195443 99.692308 474.061642 100.000000 473.928563 100.307692 473.796209 100.615385 473.664585 100.923077 473.533692 101.230769 473.403535 101.538462 473.274115 101.846154 473.145438 102.153846 473.017505 102.461538 472.890320 102.769231 472.763885 103.076923 472.638205 103.384615 472.513283 103.692308 472.389121 104.000000 472.265722 104.307692 472.143091 104.615385 472.021230 104.923077 471.900142 105.230769 471.779830 105.538462 471.660298 105.846154 471.541549 106.153846 471.423586 106.461538 471.306412 106.769231 471.190031 107.076923 471.074445 107.384615 470.959657 107.692308 470.845672 108.000000 470.732492 108.307692 470.620120 108.615385 470.508559 108.923077 470.397813 109.230769 470.287884 109.538462 470.178777 109.846154 470.070494 110.153846 469.963038 110.461538 469.856413 110.769231 469.750621 111.076923 469.645666 111.384615 469.541551 111.692308 469.438280 112.000000 469.335854 112.307692 469.234279 112.615385 469.133556 112.923077 469.033689 113.230769 468.934681 113.538462 468.836536 113.846154 468.739256 114.153846 468.642844 114.461538 468.547305 114.769231 468.452640 115.076923 468.358854 115.384615 468.265949 115.692308 468.173928 116.000000 468.082795 116.307692 467.992553 116.615385 467.903206 116.923077 467.814755 117.230769 467.727205 117.538462 467.640559 117.846154 467.554819 118.153846 467.469989 118.461538 467.386073 118.769231 467.303072 119.076923 467.220992 119.384615 467.139834 119.692308 467.059601 120.000000 466.980298 120.307692 466.901927 120.615385 466.824492 120.923077 466.747995 121.230769 466.672440 121.538462 466.597830 121.846154 466.524168 122.153846 466.451457 122.461538 466.379701 122.769231 466.308902 123.076923 466.239064 123.384615 466.170191 123.692308 466.102284 124.000000 466.035348 124.307692 465.969385 124.615385 465.904399 124.923077 465.840393 125.230769 465.777371 125.538462 465.715334 125.846154 465.654287 126.153846 465.594232 126.461538 465.535174 126.769231 465.477114 127.076923 465.420056 127.384615 465.364004 127.692308 465.308960 128.000000 465.254928 128.307692 465.201911 128.615385 465.149912 128.923077 465.098934 129.230769 465.048981 129.538462 465.000055 129.846154 464.952160 130.153846 464.905299 130.461538 464.859475 130.769231 464.814691 131.076923 464.770951 131.384615 464.728258 131.692308 464.686614 132.000000 464.646024 132.307692 464.606489 132.615385 464.568014 132.923077 464.530602 133.230769 464.494255 133.538462 464.458978 133.846154 464.424772 134.153846 464.391642 134.461538 464.359590 134.769231 464.328619 135.076923 464.298734 135.384615 464.269937 135.692308 464.242230 136.000000 464.215618 136.307692 464.190104 136.615385 464.165690 136.923077 464.142381 137.230769 464.120178 137.538462 464.099086 137.846154 464.079107 138.153846 464.060244 138.461538 464.042502 138.769231 464.025882 139.076923 464.010389 139.384615 463.996024 139.692308 463.982793 140.000000 463.970697 140.307692 463.959740 140.615385 463.949925 140.923077 463.941255 141.230769 463.933733 141.538462 463.927364 141.846154 463.922148 142.153846 463.918091 142.461538 463.915195 142.769231 463.913464 143.076923 463.912899 143.384615 463.913506 143.692308 463.915286 144.000000 463.918243 144.307692 463.922380 144.615385 463.927701 144.923077 463.934209 145.230769 463.941906 145.538462 463.950796 145.846154 463.960882 146.153846 463.972167 146.461538 463.984655 146.769231 463.998348 147.076923 464.013250 147.384615 464.029365 147.692308 464.046694 148.000000 464.065241 148.307692 464.085011 148.615385 464.106005 148.923077 464.128226 149.230769 464.151679 149.538462 464.176366 149.846154 464.202291 150.153846 464.229456 150.461538 464.257864 150.769231 464.287520 151.076923 464.318426 151.384615 464.350585 151.692308 464.384001 152.000000 464.418676 152.307692 464.454615 152.615385 464.491819 152.923077 464.530292 153.230769 464.570038 153.538462 464.611059 153.846154 464.653359 154.153846 464.696941 154.461538 464.741809 154.769231 464.787964 155.076923 464.835411 155.384615 464.884152 155.692308 464.934192 156.000000 464.985532 156.307692 465.038176 156.615385 465.092128 156.923077 465.147391 157.230769 465.203967 157.538462 465.261860 157.846154 465.321073 158.153846 465.381609 158.461538 465.443471 158.769231 465.506664 159.076923 465.571189 159.384615 465.637050 159.692308 465.704250 160.000000 465.772792 160.307692 465.842680 160.615385 465.913917 160.923077 465.986506 161.230769 466.060449 161.538462 466.135751 161.846154 466.212414 162.153846 466.290442 162.461538 466.369837 162.769231 466.450604 163.076923 466.532744 163.384615 466.616262 163.692308 466.701160 164.000000 466.787442 164.307692 466.875111 164.615385 466.964170 164.923077 467.054622 165.230769 467.146470 165.538462 467.239718 165.846154 467.334368 166.153846 467.430425 166.461538 467.527890 166.769231 467.626768 167.076923 467.727061 167.384615 467.828773 167.692308 467.931907 168.000000 468.036460 168.307692 468.142408 168.615385 468.249721 168.923077 468.358369 169.230769 468.468322 169.538462 468.579550 169.846154 468.692023 170.153846 468.805711 170.461538 468.920584 170.769231 469.036611 171.076923 469.153764 171.384615 469.272012 171.692308 469.391324 172.000000 469.511672 172.307692 469.633024 172.615385 469.755352 172.923077 469.878624 173.230769 470.002812 173.538462 470.127884 173.846154 470.253811 174.153846 470.380563 174.461538 470.508110 174.769231 470.636422 175.076923 470.765469 175.384615 470.895221 175.692308 471.025648 176.000000 471.156719 176.307692 471.288406 176.615385 471.420677 176.923077 471.553504 177.230769 471.686855 177.538462 471.820701 177.846154 471.955013 178.153846 472.089759 178.461538 472.224910 178.769231 472.360435 179.076923 472.496306 179.384615 472.632492 179.692308 472.768962 180.000000 472.905688 180.307692 473.042638 180.615385 473.179783 180.923077 473.317093 181.230769 473.454538 181.538462 473.592088 181.846154 473.729713 182.153846 473.867382 182.461538 474.005067 182.769231 474.142736 183.076923 474.280360 183.384615 474.417910 183.692308 474.555354 184.000000 474.692662 184.307692 474.829806 184.615385 474.966755 184.923077 475.103478 185.230769 475.239946 185.538462 475.376129 185.846154 475.511997 186.153846 475.647520 186.461538 475.782668 186.769231 475.917410 187.076923 476.051718 187.384615 476.185560 187.692308 476.318907 188.000000 476.451729 188.307692 476.583995 188.615385 476.715677 188.923077 476.846743 189.230769 476.977164 189.538462 477.106910 189.846154 477.235951 190.153846 477.364257 190.461538 477.491797 190.769231 477.618543 191.076923 477.744463 191.384615 477.869528 191.692308 477.993707 192.000000 478.116972 192.307692 478.239291 192.615385 478.360636 192.923077 478.480974 193.230769 478.600278 193.538462 478.718517 193.846154 478.835660 194.153846 478.951678 194.461538 479.066541 194.769231 479.180219 195.076923 479.292681 195.384615 479.403899 195.692308 479.513841 196.000000 479.622478 196.307692 479.729779 196.615385 479.835716 196.923077 479.940257 197.230769 480.043373 197.538462 480.145034 197.846154 480.245209 198.153846 480.343870 198.461538 480.440985 198.769231 480.536524 199.076923 480.630459 199.384615 480.722758 199.692308 480.813392 200.000000 480.902331 200.307692 480.989545 200.615385 481.075003 200.923077 481.158676 201.230769 481.240534 201.538462 481.320547 201.846154 481.398684 202.153846 481.474916 202.461538 481.549213 202.769231 481.621544 203.076923 481.691881 203.384615 481.760192 203.692308 481.826447 204.000000 481.890618 204.307692 481.952673 204.615385 482.012583 204.923077 482.070318 205.230769 482.125847 205.538462 482.179141 205.846154 482.230170 206.153846 482.278903 206.461538 482.325311 206.769231 482.369364 207.076923 482.411032 207.384615 482.450284 207.692308 482.487091 208.000000 482.521423 208.307692 482.553249 208.615385 482.582541 208.923077 482.609266 209.230769 482.633397 209.538462 482.654902 209.846154 482.673752 210.153846 482.689916 210.461538 482.703366 210.769231 482.714070 211.076923 482.721998 211.384615 482.727121 211.692308 482.729409 212.000000 482.728832 212.307692 482.725359 212.615385 482.718961 212.923077 482.709608 213.230769 482.697269 213.538462 482.681915 213.846154 482.663516 214.153846 482.642041 214.461538 482.617461 214.769231 482.589745 215.076923 482.558865 215.384615 482.524789 215.692308 482.487487 216.000000 482.446930 216.307692 482.403088 216.615385 482.355931 216.923077 482.305428 217.230769 482.251549 217.538462 482.194266 217.846154 482.133547 218.153846 482.069362 218.461538 482.001683 218.769231 481.930477 219.076923 481.855717 219.384615 481.777371 219.692308 481.695410 220.000000 481.609803 220.307692 481.520521 220.615385 481.427534 220.923077 481.330811 221.230769 481.230323 221.538462 481.126039 221.846154 481.017930 222.153846 480.905966 222.461538 480.790116 222.769231 480.670351 223.076923 480.546640 223.384615 480.418954 223.692308 480.287263 224.000000 480.151536 224.307692 480.011744 224.615385 479.867856 224.923077 479.719843 225.230769 479.567674 225.538462 479.411321 225.846154 479.250751 226.153846 479.085936 226.461538 478.916846 226.769231 478.743451 227.076923 478.565720 227.384615 478.383623 227.692308 478.197131 228.000000 478.006214 228.307692 477.810841 228.615385 477.610983 228.923077 477.406609 229.230769 477.197690 229.538462 476.984196 229.846154 476.766096 230.153846 476.543360 230.461538 476.315959 230.769231 476.083863 231.076923 475.847041 231.384615 475.605464 231.692308 475.359101 232.000000 475.107923 232.307692 474.851899 232.615385 474.591000 232.923077 474.325195 233.230769 474.054455 233.538462 473.778750 233.846154 473.498049 234.153846 473.212322 234.461538 472.921540 234.769231 472.625673 235.076923 472.324690 235.384615 472.018561 235.692308 471.707257 236.000000 471.390748 236.307692 471.069003 236.615385 470.741992 236.923077 470.409686 237.230769 470.072055 237.538462 469.729068 237.846154 469.380695 238.153846 469.026907 238.461538 468.667674 238.769231 468.302965 239.076923 467.932751 239.384615 467.557000 239.692308 467.175685 240.000000 466.788774 240.307692 466.396237 240.615385 465.998045 240.923077 465.594168 241.230769 465.184574 241.538462 464.769236 241.846154 464.348122 242.153846 463.921202 242.461538 463.488447 242.769231 463.049826 243.076923 462.605309 243.384615 462.154867 243.692308 461.698470 244.000000 461.236087 244.307692 460.767688 244.615385 460.293244 244.923077 459.812738 245.230769 459.326208 245.538462 458.833705 245.846154 458.335281 246.153846 457.830987 246.461538 457.320875 246.769231 456.804995 247.076923 456.283401 247.384615 455.756142 247.692308 455.223270 248.000000 454.684837 248.307692 454.140895 248.615385 453.591494 248.923077 453.036686 249.230769 452.476523 249.538462 451.911056 249.846154 451.340336 250.153846 450.764415 250.461538 450.183344 250.769231 449.597175 251.076923 449.005959 251.384615 448.409747 251.692308 447.808592 252.000000 447.202544 252.307692 446.591655 252.615385 445.975976 252.923077 445.355559 253.230769 444.730455 253.538462 444.100716 253.846154 443.466392 254.153846 442.827536 254.461538 442.184200 254.769231 441.536433 255.076923 440.884288 255.384615 440.227816 255.692308 439.567070 256.000000 438.902099 256.307692 438.232955 256.615385 437.559691 256.923077 436.882357 257.230769 436.201004 257.538462 435.515685 257.846154 434.826451 258.153846 434.133353 258.461538 433.436442 258.769231 432.735770 259.076923 432.031389 259.384615 431.323350 259.692308 430.611703 260.000000 429.896502 260.307692 429.177797 260.615385 428.455639 260.923077 427.730080 261.230769 427.001172 261.538462 426.268966 261.846154 425.533513 262.153846 424.794864 262.461538 424.053072 262.769231 423.308188 263.076923 422.560262 263.384615 421.809347 263.692308 421.055494 264.000000 420.298755 264.307692 419.539180 264.615385 418.776821 264.923077 418.011730 265.230769 417.243959 265.538462 416.473557 265.846154 415.700578 266.153846 414.925072 266.461538 414.147091 266.769231 413.366686 267.076923 412.583909 267.384615 411.798811 267.692308 411.011443 268.000000 410.221858 268.307692 409.430106 268.615385 408.636239 268.923077 407.840308 269.230769 407.042365 269.538462 406.242461 269.846154 405.440648 270.153846 404.636976 270.461538 403.831498 270.769231 403.024266 271.076923 402.215329 271.384615 401.404740 271.692308 400.592551 272.000000 399.778812 272.307692 398.963575 272.615385 398.146892 272.923077 397.328813 273.230769 396.509391 273.538462 395.688677 273.846154 394.866722 274.153846 394.043578 274.461538 393.219296 274.769231 392.393927 275.076923 391.567524 275.384615 390.740137 275.692308 389.911817 276.000000 389.082617 276.307692 388.252588 276.615385 387.421781 276.923077 386.590247 277.230769 385.758039 277.538462 384.925207 277.846154 384.091803 278.153846 383.257878 278.461538 382.423484 278.769231 381.588672 279.076923 380.753494 279.384615 379.918000 279.692308 379.082244 280.000000 378.246275 280.307692 377.410146 280.615385 376.573907 280.923077 375.737611 281.230769 374.901308 281.538462 374.065050 281.846154 373.228889 282.153846 372.392876 282.461538 371.557063 282.769231 370.721500 283.076923 369.886239 283.384615 369.051332 283.692308 368.216831 284.000000 367.382786 284.307692 366.549248 284.615385 365.716271 284.923077 364.883904 285.230769 364.052199 285.538462 363.221209 285.846154 362.390983 286.153846 361.561574 286.461538 360.733033 286.769231 359.905412 287.076923 359.078761 287.384615 358.253133 287.692308 357.428579 288.000000 356.605150 288.307692 355.782897 288.615385 354.961873 288.923077 354.142128 289.230769 353.323714 289.538462 352.506683 289.846154 351.691085 290.153846 350.876972 290.461538 350.064397 290.769231 349.253409 291.076923 348.444061 291.384615 347.636404 291.692308 346.830489 292.000000 346.026368 292.307692 345.224093 292.615385 344.423714 292.923077 343.625283 293.230769 342.828852 293.538462 342.034472 293.846154 341.242195 294.153846 340.452071 294.461538 339.664153 294.769231 338.878492 295.076923 338.095138 295.384615 337.314145 295.692308 336.535562 296.000000 335.759442 296.307692 334.985836 296.615385 334.214795 296.923077 333.446371 297.230769 332.680615 297.538462 331.917579 297.846154 331.157314 298.153846 330.399872 298.461538 329.645303 298.769231 328.893660 299.076923 328.144994 299.384615 327.399356 299.692308 326.656798 300.000000 325.917371 300.307692 325.181127 300.615385 324.448116 300.923077 323.718391 301.230769 322.992003 301.538462 322.269003 301.846154 321.549443 302.153846 320.833375 302.461538 320.120848 302.769231 319.411916 303.076923 318.706629 303.384615 318.005040 303.692308 317.307198 304.000000 316.613157 304.307692 315.922966 304.615385 315.236679 304.923077 314.554345 305.230769 313.876017 305.538462 313.201746 305.846154 312.531583 306.153846 311.865580 306.461538 311.203788 306.769231 310.546259 307.076923 309.893045 307.384615 309.244195 307.692308 308.599763 308.000000 307.959799 308.307692 307.324355 308.615385 306.693483 308.923077 306.067233 309.230769 305.445657 309.538462 304.828807 309.846154 304.216734 310.153846 303.609489 310.461538 303.007125 310.769231 302.409691 311.076923 301.817241 311.384615 301.229824 311.692308 300.647493 312.000000 300.070300 312.307692 299.498295 312.615385 298.931529 312.923077 298.370056 313.230769 297.813925 313.538462 297.263188 313.846154 296.717897 314.153846 296.178103 314.461538 295.643857 314.769231 295.115212 315.076923 294.592218 315.384615 294.074927 315.692308 293.563390 316.000000 293.057659 316.307692 292.557785 316.615385 292.063819 316.923077 291.575814 317.230769 291.093820 317.538462 290.617889 317.846154 290.148072 318.153846 289.684421 318.461538 289.226987 318.769231 288.775822 319.076923 288.330977 319.384615 287.892504 319.692308 287.460453 320.000000 287.034877 320.307692 286.615826 320.615385 286.203353 320.923077 285.797508 321.230769 285.398344 321.538462 285.005911 321.846154 284.620244 322.153846 284.241310 322.461538 283.869058 322.769231 283.503440 323.076923 283.144403 323.384615 282.791899 323.692308 282.445877 324.000000 282.106287 324.307692 281.773079 324.615385 281.446203 324.923077 281.125608 325.230769 280.811244 325.538462 280.503062 325.846154 280.201012 326.153846 279.905042 326.461538 279.615103 326.769231 279.331145 327.076923 279.053118 327.384615 278.780971 327.692308 278.514654 328.000000 278.254118 328.307692 277.999312 328.615385 277.750185 328.923077 277.506689 329.230769 277.268772 329.538462 277.036385 329.846154 276.809477 330.153846 276.587998 330.461538 276.371899 330.769231 276.161128 331.076923 275.955637 331.384615 275.755374 331.692308 275.560290 332.000000 275.370334 332.307692 275.185456 332.615385 275.005607 332.923077 274.830736 333.230769 274.660792 333.538462 274.495727 333.846154 274.335489 334.153846 274.180028 334.461538 274.029295 334.769231 273.883239 335.076923 273.741810 335.384615 273.604958 335.692308 273.472633 336.000000 273.344785 336.307692 273.221363 336.615385 273.102317 336.923077 272.987598 337.230769 272.877155 337.538462 272.770937 337.846154 272.668896 338.153846 272.570980 338.461538 272.477140 338.769231 272.387326 339.076923 272.301486 339.384615 272.219572 339.692308 272.141533 340.000000 272.067319 340.307692 271.996879 340.615385 271.930164 340.923077 271.867124 341.230769 271.807708 341.538462 271.751866 341.846154 271.699548 342.153846 271.650704 342.461538 271.605284 342.769231 271.563237 343.076923 271.524514 343.384615 271.489065 343.692308 271.456839 344.000000 271.427785 344.307692 271.401855 344.615385 271.378998 344.923077 271.359163 345.230769 271.342301 345.538462 271.328361 345.846154 271.317293 346.153846 271.309048 346.461538 271.303575 346.769231 271.300823 347.076923 271.300744 347.384615 271.303285 347.692308 271.308399 348.000000 271.316033 348.307692 271.326139 348.615385 271.338666 348.923077 271.353564 349.230769 271.370783 349.538462 271.390272 349.846154 271.411982 350.153846 271.435862 350.461538 271.461862 350.769231 271.489932 351.076923 271.520023 351.384615 271.552083 351.692308 271.586063 352.000000 271.621912 352.307692 271.659581 352.615385 271.699019 352.923077 271.740176 353.230769 271.783002 353.538462 271.827448 353.846154 271.873461 354.153846 271.920994 354.461538 271.969994 354.769231 272.020414 355.076923 272.072201 355.384615 272.125306 355.692308 272.179679 356.000000 272.235270 356.307692 272.292029 356.615385 272.349905 356.923077 272.408849 357.230769 272.468809 357.538462 272.529737 357.846154 272.591582 358.153846 272.654293 358.461538 272.717821 358.769231 272.782116 359.076923 272.847127 359.384615 272.912804 359.692308 272.979098 360.000000 273.045957 360.307692 273.113333 360.615385 273.181174 360.923077 273.249430 361.230769 273.318052 361.538462 273.386989 361.846154 273.456192 362.153846 273.525609 362.461538 273.595192 362.769231 273.664889 363.076923 273.734650 363.384615 273.804427 363.692308 273.874167 364.000000 273.943822 364.307692 274.013341 364.615385 274.082673 364.923077 274.151770 365.230769 274.220580 365.538462 274.289054 365.846154 274.357141 366.153846 274.424791 366.461538 274.491954 366.769231 274.558581 367.076923 274.624620 367.384615 274.690022 367.692308 274.754736 368.000000 274.818713 368.307692 274.881902 368.615385 274.944253 368.923077 275.005717 369.230769 275.066242 369.538462 275.125779 369.846154 275.184277 370.153846 275.241687 370.461538 275.297958 370.769231 275.353041 371.076923 275.406884 371.384615 275.459439 371.692308 275.510654 372.000000 275.560480 372.307692 275.608866 372.615385 275.655763 372.923077 275.701120 373.230769 275.744887 373.538462 275.787014 373.846154 275.827450 374.153846 275.866147 374.461538 275.903053 374.769231 275.938118 375.076923 275.971293 375.384615 276.002527 375.692308 276.031770 376.000000 276.058971 376.307692 276.084082 376.615385 276.107051 376.923077 276.127828 377.230769 276.146364 377.538462 276.162608 377.846154 276.176510 378.153846 276.188019 378.461538 276.197087 378.769231 276.203662 379.076923 276.207695 379.384615 276.209135 379.692308 276.207932 380.000000 276.204037 380.307692 276.197398 380.615385 276.187966 380.923077 276.175691 381.230769 276.160522 381.538462 276.142410 381.846154 276.121303 382.153846 276.097154 382.461538 276.069910 382.769231 276.039521 383.076923 276.005939 383.384615 275.969112 383.692308 275.928991 384.000000 275.885525 384.307692 275.838664 384.615385 275.788358 384.923077 275.734557 385.230769 275.677210 385.538462 275.616268 385.846154 275.551681 386.153846 275.483398 386.461538 275.411370 386.769231 275.335545 387.076923 275.255874 387.384615 275.172307 387.692308 275.084794 388.000000 274.993284 388.307692 274.897728 388.615385 274.798075 388.923077 274.694275 389.230769 274.586278 389.538462 274.474033 389.846154 274.357492 390.153846 274.236603 390.461538 274.111316 390.769231 273.981582 391.076923 273.847350 391.384615 273.708570 391.692308 273.565191 392.000000 273.417165 392.307692 273.264440 392.615385 273.106966 392.923077 272.944694 393.230769 272.777573 393.538462 272.605553 393.846154 272.428584 394.153846 272.246616 394.461538 272.059598 394.769231 271.867481 395.076923 271.670215 395.384615 271.467748 395.692308 271.260032 396.000000 271.047015 396.307692 270.828649 396.615385 270.604882 396.923077 270.375664 397.230769 270.140946 397.538462 269.900677 397.846154 269.654808 398.153846 269.403287 398.461538 269.146065 398.769231 268.883107 399.076923 268.614440 399.384615 268.340105 399.692308 268.060144 400.000000 267.774599 400.307692 267.483511 400.615385 267.186923 400.923077 266.884875 401.230769 266.577411 401.538462 266.264571 401.846154 265.946397 402.153846 265.622932 402.461538 265.294216 402.769231 264.960292 403.076923 264.621201 403.384615 264.276986 403.692308 263.927687 404.000000 263.573347 404.307692 263.214008 404.615385 262.849711 404.923077 262.480497 405.230769 262.106410 405.538462 261.727489 405.846154 261.343779 406.153846 260.955319 406.461538 260.562152 406.769231 260.164319 407.076923 259.761863 407.384615 259.354825 407.692308 258.943246 408.000000 258.527169 408.307692 258.106636 408.615385 257.681688 408.923077 257.252366 409.230769 256.818713 409.538462 256.380771 409.846154 255.938581 410.153846 255.492184 410.461538 255.041623 410.769231 254.586940 411.076923 254.128176 411.384615 253.665373 411.692308 253.198573 412.000000 252.727817 412.307692 252.253147 412.615385 251.774605 412.923077 251.292234 413.230769 250.806073 413.538462 250.316166 413.846154 249.822554 414.153846 249.325279 414.461538 248.824383 414.769231 248.319906 415.076923 247.811892 415.384615 247.300382 415.692308 246.785417 416.000000 246.267040 416.307692 245.745292 416.615385 245.220215 416.923077 244.691851 417.230769 244.160241 417.538462 243.625427 417.846154 243.087451 418.153846 242.546355 418.461538 242.002180 418.769231 241.454969 419.076923 240.904763 419.384615 240.351603 419.692308 239.795532 420.000000 239.236591 420.307692 238.674823 420.615385 238.110268 420.923077 237.542968 421.230769 236.972967 421.538462 236.400304 421.846154 235.825022 422.153846 235.247163 422.461538 234.666768 422.769231 234.083879 423.076923 233.498538 423.384615 232.910787 423.692308 232.320667 424.000000 231.728221 424.307692 231.133489 424.615385 230.536515 424.923077 229.937338 425.230769 229.336002 425.538462 228.732548 425.846154 228.127018 426.153846 227.519454 426.461538 226.909896 426.769231 226.298388 427.076923 225.684970 427.384615 225.069686 427.692308 224.452575 428.000000 223.833681 428.307692 223.213044 428.615385 222.590707 428.923077 221.966712 429.230769 221.341099 429.538462 220.713912 429.846154 220.085191 430.153846 219.454979 430.461538 218.823317 430.769231 218.190247 431.076923 217.555811 431.384615 216.920050 431.692308 216.283006 432.000000 215.644722 432.307692 215.005238 432.615385 214.364597 432.923077 213.722840 433.230769 213.080009 433.538462 212.436146 433.846154 211.791292 434.153846 211.145490 434.461538 210.498781 434.769231 209.851207 435.076923 209.202810 435.384615 208.553631 435.692308 207.903712 436.000000 207.253095 436.307692 206.601822 436.615385 205.949934 436.923077 205.297474 437.230769 204.644482 437.538462 203.991001 437.846154 203.337073 438.153846 202.682739 438.461538 202.028041 438.769231 201.373020 439.076923 200.717720 439.384615 200.062180 439.692308 199.406444 440.000000 198.750552 440.307692 198.094547 440.615385 197.438471 440.923077 196.782364 441.230769 196.126270 441.538462 195.470229 441.846154 194.814283 442.153846 194.158475 442.461538 193.502846 442.769231 192.847437 443.076923 192.192291 443.384615 191.537449 443.692308 190.882953 444.000000 190.228844 444.307692 189.575166 444.615385 188.921958 444.923077 188.269264 445.230769 187.617124 445.538462 186.965581 445.846154 186.314676 446.153846 185.664451 446.461538 185.014948 446.769231 184.366209 447.076923 183.718275 447.384615 183.071188 447.692308 182.424990 448.000000 181.779723 448.307692 181.135428 448.615385 180.492147 448.923077 179.849922 449.230769 179.208795 449.538462 178.568808 449.846154 177.930001 450.153846 177.292418 450.461538 176.656099 450.769231 176.021087 451.076923 175.387423 451.384615 174.755149 451.692308 174.124307 452.000000 173.494938 452.307692 172.867085 452.615385 172.240789 452.923077 171.616092 453.230769 170.993035 453.538462 170.371661 453.846154 169.752011 454.153846 169.134126 454.461538 168.518050 454.769231 167.903822 455.076923 167.291486 455.384615 166.681083 455.692308 166.072655 456.000000 165.466243 456.307692 164.861889 456.615385 164.259635 456.923077 163.659523 457.230769 163.061595 457.538462 162.465892 457.846154 161.872455 458.153846 161.281328 458.461538 160.692551 458.769231 160.106167 459.076923 159.522216 459.384615 158.940742 459.692308 158.361785 460.000000 157.785387 460.307692 157.211591 460.615385 156.640437 460.923077 156.071968 461.230769 155.506226 461.538462 154.943251 461.846154 154.383087 462.153846 153.825774 462.461538 153.271355 462.769231 152.719871 463.076923 152.171364 463.384615 151.625876 463.692308 151.083448 464.000000 150.544123 464.307692 150.007941 464.615385 149.474946 464.923077 148.945177 465.230769 148.418679 465.538462 147.895491 465.846154 147.375656 466.153846 146.859216 466.461538 146.346212 466.769231 145.836687 467.076923 145.330681 467.384615 144.828237 467.692308 144.329396 468.000000 143.834200 468.307692 143.342692 468.615385 142.854912 468.923077 142.370903 469.230769 141.890705 469.538462 141.414362 469.846154 140.941915 470.153846 140.473405 470.461538 140.008874 470.769231 139.548365 471.076923 139.091918 471.384615 138.639576 471.692308 138.191380 472.000000 137.747372 472.307692 137.307594 472.615385 136.872088 472.923077 136.440895 473.230769 136.014057 473.538462 135.591616 473.846154 135.173613 474.153846 134.760092 474.461538 134.351092 474.769231 133.946656 475.076923 133.546826 475.384615 133.151644 475.692308 132.761139 476.000000 132.375297 476.307692 131.994090 476.615385 131.617493 476.923077 131.245477 477.230769 130.878018 477.538462 130.515087 477.846154 130.156658 478.153846 129.802704 478.461538 129.453198 478.769231 129.108115 479.076923 128.767426 479.384615 128.431106 479.692308 128.099127 480.000000 127.771463 480.307692 127.448087 480.615385 127.128972 480.923077 126.814092 481.230769 126.503419 481.538462 126.196928 481.846154 125.894590 482.153846 125.596381 482.461538 125.302272 482.769231 125.012237 483.076923 124.726249 483.384615 124.444281 483.692308 124.166308 484.000000 123.892301 484.307692 123.622235 484.615385 123.356083 484.923077 123.093817 485.230769 122.835411 485.538462 122.580838 485.846154 122.330072 486.153846 122.083086 486.461538 121.839852 486.769231 121.600345 487.076923 121.364538 487.384615 121.132403 487.692308 120.903914 488.000000 120.679045 488.307692 120.457768 488.615385 120.240057 488.923077 120.025884 489.230769 119.815225 489.538462 119.608050 489.846154 119.404335 490.153846 119.204051 490.461538 119.007173 490.769231 118.813674 491.076923 118.623526 491.384615 118.436703 491.692308 118.253178 492.000000 118.072925 492.307692 117.895917 492.615385 117.722127 492.923077 117.551528 493.230769 117.384094 493.538462 117.219797 493.846154 117.058612 494.153846 116.900511 494.461538 116.745467 494.769231 116.593454 495.076923 116.444446 495.384615 116.298414 495.692308 116.155333 496.000000 116.015176 496.307692 115.877916 496.615385 115.743526 496.923077 115.611980 497.230769 115.483251 497.538462 115.357312 497.846154 115.234136 498.153846 115.113696 498.461538 114.995967 498.769231 114.880920 499.076923 114.768530 499.384615 114.658769 499.692308 114.551612 500.000000 114.447030 500.307692 114.344997 500.615385 114.245488 500.923077 114.148474 501.230769 114.053929 501.538462 113.961826 501.846154 113.872139 502.153846 113.784841 502.461538 113.699905 502.769231 113.617304 503.076923 113.537012 503.384615 113.459001 503.692308 113.383246 504.000000 113.309719 504.307692 113.238394 504.615385 113.169243 504.923077 113.102241 505.230769 113.037360 505.538462 112.974573 505.846154 112.913855 506.153846 112.855177 506.461538 112.798514 506.769231 112.743838 507.076923 112.691123 507.384615 112.640343 507.692308 112.591469 508.000000 112.544477 508.307692 112.499338 508.615385 112.456026 508.923077 112.414515 509.230769 112.374777 509.538462 112.336786 509.846154 112.300515 510.153846 112.265937 510.461538 112.233026 510.769231 112.201755 511.076923 112.172098 511.384615 112.144026 511.692308 112.117514 512.000000 112.092535 512.307692 112.069062 512.615385 112.047068 512.923077 112.026527 513.230769 112.007412 513.538462 111.989696 513.846154 111.973353 514.153846 111.958355 514.461538 111.944676 514.769231 111.932289 515.076923 111.921167 515.384615 111.911284 515.692308 111.902613 516.000000 111.895127 516.307692 111.888799 516.615385 111.883603 516.923077 111.879512 517.230769 111.876499 517.538462 111.874538 517.846154 111.873601 518.153846 111.873662 518.461538 111.874694 518.769231 111.876671 519.076923 111.879565 519.384615 111.883350 519.692308 111.887999 520.000000 111.893485 520.307692 111.899783 520.615385 111.906864 520.923077 111.914702 521.230769 111.923271 521.538462 111.932543 521.846154 111.942492 522.153846 111.953091 522.461538 111.964314 522.769231 111.976134 523.076923 111.988523 523.384615 112.001455 523.692308 112.014904 524.000000 112.028843 524.307692 112.043244 524.615385 112.058082 524.923077 112.073329 525.230769 112.088959 525.538462 112.104944 525.846154 112.121259 526.153846 112.137876 526.461538 112.154769 526.769231 112.171911 527.076923 112.189275 527.384615 112.206834 527.692308 112.224562 528.000000 112.242432 528.307692 112.260417 528.615385 112.278491 528.923077 112.296626 529.230769 112.314796 529.538462 112.332974 529.846154 112.351134 530.153846 112.369248 530.461538 112.387291 530.769231 112.405234 531.076923 112.423052 531.384615 112.440718 531.692308 112.458205 532.000000 112.475485 532.307692 112.492534 532.615385 112.509323 532.923077 112.525825 533.230769 112.542015 533.538462 112.557866 533.846154 112.573350 534.153846 112.588441 534.461538 112.603113 534.769231 112.617337 535.076923 112.631089 535.384615 112.644340 535.692308 112.657065 536.000000 112.669236 536.307692 112.680827 536.615385 112.691810 536.923077 112.702160 537.230769 112.711850 537.538462 112.720852 537.846154 112.729140 538.153846 112.736687 538.461538 112.743467 538.769231 112.749452 539.076923 112.754617 539.384615 112.758933 539.692308 112.762376 540.000000 112.764916 540.307692 112.766529 540.615385 112.767187 540.923077 112.766864 541.230769 112.765532 541.538462 112.763165 541.846154 112.759736 542.153846 112.755219 542.461538 112.749587 542.769231 112.742812 543.076923 112.734869 543.384615 112.725730 543.692308 112.715369 544.000000 112.703759 544.307692 112.690873 544.615385 112.676685 544.923077 112.661167 545.230769 112.644294 545.538462 112.626037 545.846154 112.606372 546.153846 112.585269 546.461538 112.562704 546.769231 112.538649 547.076923 112.513078 547.384615 112.485963 547.692308 112.457279 548.000000 112.426997 548.307692 112.395092 548.615385 112.361537 548.923077 112.326305 549.230769 112.289369 549.538462 112.250702 549.846154 112.210279 550.153846 112.168071 550.461538 112.124053 550.769231 112.078197 551.076923 112.030477 551.384615 111.980865 551.692308 111.929336 552.000000 111.875863 552.307692 111.820418 552.615385 111.762982 552.923077 111.703557 553.230769 111.642155 553.538462 111.578784 553.846154 111.513455 554.153846 111.446178 554.461538 111.376963 554.769231 111.305820 555.076923 111.232758 555.384615 111.157788 555.692308 111.080920 556.000000 111.002163 556.307692 110.921528 556.615385 110.839025 556.923077 110.754663 557.230769 110.668453 557.538462 110.580404 557.846154 110.490526 558.153846 110.398830 558.461538 110.305325 558.769231 110.210022 559.076923 110.112930 559.384615 110.014059 559.692308 109.913419 560.000000 109.811021 560.307692 109.706874 560.615385 109.600988 560.923077 109.493373 561.230769 109.384039 561.538462 109.272996 561.846154 109.160254 562.153846 109.045823 562.461538 108.929713 562.769231 108.811934 563.076923 108.692495 563.384615 108.571408 563.692308 108.448681 564.000000 108.324325 564.307692 108.198350 564.615385 108.070766 564.923077 107.941582 565.230769 107.810809 565.538462 107.678456 565.846154 107.544534 566.153846 107.409052 566.461538 107.272021 566.769231 107.133450 567.076923 106.993350 567.384615 106.851730 567.692308 106.708601 568.000000 106.563972 568.307692 106.417853 568.615385 106.270254 568.923077 106.121186 569.230769 105.970658 569.538462 105.818679 569.846154 105.665261 570.153846 105.510414 570.461538 105.354146 570.769231 105.196468 571.076923 105.037390 571.384615 104.876922 571.692308 104.715074 572.000000 104.551856 572.307692 104.387278 572.615385 104.221349 572.923077 104.054080 573.230769 103.885481 573.538462 103.715562 573.846154 103.544332 574.153846 103.371802 574.461538 103.197982 574.769231 103.022881 575.076923 102.846510 575.384615 102.668878 575.692308 102.489996 576.000000 102.309873 576.307692 102.128519 576.615385 101.945945 576.923077 101.762161 577.230769 101.577175 577.538462 101.390999 577.846154 101.203642 578.153846 101.015114 578.461538 100.825425 578.769231 100.634586 579.076923 100.442606 579.384615 100.249494 579.692308 100.055262 580.000000 99.859919 580.307692 99.663474 580.615385 99.465939 580.923077 99.267322 581.230769 99.067635 581.538462 98.866886 581.846154 98.665086 582.153846 98.462244 582.461538 98.258372 582.769231 98.053478 583.076923 97.847572 583.384615 97.640666 583.692308 97.432768 584.000000 97.223888 584.307692 97.014037 584.615385 96.803225 584.923077 96.591461 585.230769 96.378755 585.538462 96.165118 585.846154 95.950559 586.153846 95.735088 586.461538 95.518716 586.769231 95.301452 587.076923 95.083306 587.384615 94.864288 587.692308 94.644409 588.000000 94.423677 588.307692 94.202104 588.615385 93.979699 588.923077 93.756471 589.230769 93.532432 589.538462 93.307591 589.846154 93.081957 590.153846 92.855542 590.461538 92.628354 590.769231 92.400404 591.076923 92.171702 591.384615 91.942257 591.692308 91.712081 592.000000 91.481181 592.307692 91.249570 592.615385 91.017256 592.923077 90.784250 593.230769 90.550561 593.538462 90.316200 593.846154 90.081176 594.153846 89.845500 594.461538 89.609181 594.769231 89.372229 595.076923 89.134655 595.384615 88.896468 595.692308 88.657678 596.000000 88.418296 596.307692 88.178331 596.615385 87.937793 596.923077 87.696692 597.230769 87.455038 597.538462 87.212841 597.846154 86.970111 598.153846 86.726858 598.461538 86.483092 598.769231 86.238823 599.076923 85.994061 599.384615 85.748816 599.692308 85.503098 600.000000 85.256916 600.307692 85.010281 600.615385 84.763203 600.923077 84.515692 601.230769 84.267757 601.538462 84.019409 601.846154 83.770657 602.153846 83.521512 602.461538 83.271984 602.769231 83.022082 603.076923 82.771816 603.384615 82.521197 603.692308 82.270234 604.000000 82.018938 604.307692 81.767318 604.615385 81.515384 604.923077 81.263146 605.230769 81.010615 605.538462 80.757800 605.846154 80.504711 606.153846 80.251358 606.461538 79.997751 606.769231 79.743900 607.076923 79.489815 607.384615 79.235506 607.692308 78.980983 608.000000 78.726256 608.307692 78.471335 608.615385 78.216230 608.923077 77.960951 609.230769 77.705507 609.538462 77.449909 609.846154 77.194167 610.153846 76.938290 610.461538 76.682289 610.769231 76.426174 611.076923 76.169954 611.384615 75.913639 611.692308 75.657241 612.000000 75.400767 612.307692 75.144229 612.615385 74.887637 612.923077 74.631000 613.230769 74.374328 613.538462 74.117631 613.846154 73.860920 614.153846 73.604204 614.461538 73.347493 614.769231 73.090798 615.076923 72.834127 615.384615 72.577492 615.692308 72.320901 616.000000 72.064366 616.307692 71.807895 616.615385 71.551500 616.923077 71.295190 617.230769 71.038974 617.538462 70.782863 617.846154 70.526867 618.153846 70.270996 618.461538 70.015260 618.769231 69.759668 619.076923 69.504231 619.384615 69.248959 619.692308 68.993861 620.000000 68.738948 620.307692 68.484229 620.615385 68.229715 620.923077 67.975415 621.230769 67.721340 621.538462 67.467499 621.846154 67.213903 622.153846 66.960561 622.461538 66.707483 622.769231 66.454680 623.076923 66.202161 623.384615 65.949936 623.692308 65.698015 624.000000 65.446408 624.307692 65.195126 624.615385 64.944177 624.923077 64.693573 625.230769 64.443322 625.538462 64.193436 625.846154 63.943923 626.153846 63.694794 626.461538 63.446060 626.769231 63.197729 627.076923 62.949812 627.384615 62.702318 627.692308 62.455259 628.000000 62.208643 628.307692 61.962480 628.615385 61.716782 628.923077 61.471557 629.230769 61.226815 629.538462 60.982565 629.846154 60.738807 630.153846 60.495538 630.461538 60.252757 630.769231 60.010462 631.076923 59.768650 631.384615 59.527319 631.692308 59.286469 632.000000 59.046096 632.307692 58.806199 632.615385 58.566776 632.923077 58.327825 633.230769 58.089343 633.538462 57.851329 633.846154 57.613782 634.153846 57.376698 634.461538 57.140076 634.769231 56.903914 635.076923 56.668210 635.384615 56.432962 635.692308 56.198168 636.000000 55.963826 636.307692 55.729935 636.615385 55.496491 636.923077 55.263494 637.230769 55.030940 637.538462 54.798829 637.846154 54.567159 638.153846 54.335926 638.461538 54.105130 638.769231 53.874768 639.076923 53.644838 639.384615 53.415339 639.692308 53.186268 640.000000 52.957624 640.307692 52.729403 640.615385 52.501606 640.923077 52.274229 641.230769 52.047270 641.538462 51.820728 641.846154 51.594601 642.153846 51.368886 642.461538 51.143582 642.769231 50.918686 643.076923 50.694197 643.384615 50.470113 643.692308 50.246431 644.000000 50.023150 644.307692 49.800268 644.615385 49.577783 644.923077 49.355693 645.230769 49.133995 645.538462 48.912689 645.846154 48.691771 646.153846 48.471240 646.461538 48.251094 646.769231 48.031331 647.076923 47.811949 647.384615 47.592946 647.692308 47.374321 648.000000 47.156070 648.307692 46.938192 648.615385 46.720686 648.923077 46.503548 649.230769 46.286778 649.538462 46.070373 649.846154 45.854332 650.153846 45.638651 650.461538 45.423330 650.769231 45.208366 651.076923 44.993758 651.384615 44.779503 651.692308 44.565599 652.000000 44.352045 652.307692 44.138838 652.615385 43.925977 652.923077 43.713459 653.230769 43.501282 653.538462 43.289446 653.846154 43.077946 654.153846 42.866783 654.461538 42.655953 654.769231 42.445454 655.076923 42.235286 655.384615 42.025445 655.692308 41.815930 656.000000 41.606738 656.307692 41.397868 656.615385 41.189318 656.923077 40.981086 657.230769 40.773170 657.538462 40.565568 657.846154 40.358278 658.153846 40.151297 658.461538 39.944625 658.769231 39.738258 659.076923 39.532196 659.384615 39.326435 659.692308 39.120975 660.000000 38.915812 660.307692 38.710946 660.615385 38.506374 660.923077 38.302094 661.230769 38.098105 661.538462 37.894403 661.846154 37.690988 662.153846 37.487857 662.461538 37.285009 662.769231 37.082440 663.076923 36.880150 663.384615 36.678137 663.692308 36.476398 664.000000 36.274931 664.307692 36.073735 664.615385 35.872807 664.923077 35.672145 665.230769 35.471749 665.538462 35.271615 665.846154 35.071741 666.153846 34.872126 666.461538 34.672768 666.769231 34.473664 667.076923 34.274813 667.384615 34.076213 667.692308 33.877861 668.000000 33.679756 668.307692 33.481896 668.615385 33.284279 668.923077 33.086903 669.230769 32.889765 669.538462 32.692865 669.846154 32.496199 670.153846 32.299766 670.461538 32.103564 670.769231 31.907592 671.076923 31.711846 671.384615 31.516325 671.692308 31.321028 672.000000 31.125951 672.307692 30.931094 672.615385 30.736454 672.923077 30.542029 673.230769 30.347817 673.538462 30.153816 673.846154 29.960025 674.153846 29.766441 674.461538 29.573062 674.769231 29.379887 675.076923 29.186912 675.384615 28.994138 675.692308 28.801561 676.000000 28.609179 676.307692 28.416990 676.615385 28.224994 676.923077 28.033186 677.230769 27.841566 677.538462 27.650132 677.846154 27.458881 678.153846 27.267812 678.461538 27.076923 678.769231 26.886211 679.076923 26.695675 679.384615 26.505313 679.692308 26.315123 680.000000 26.125102 680.307692 25.935249 680.615385 25.745562 680.923077 25.556038 681.230769 25.366677 681.538462 25.177475 681.846154 24.988432 682.153846 24.799544 682.461538 24.610811 682.769231 24.422229 683.076923 24.233797 683.384615 24.045514 683.692308 23.857376 684.000000 23.669383 684.307692 23.481532 684.615385 23.293821 684.923077 23.106248 685.230769 22.918811 685.538462 22.731509 685.846154 22.544339 686.153846 22.357299 686.461538 22.170387 686.769231 21.983602 687.076923 21.796941 687.384615 21.610403 687.692308 21.423985 688.000000 21.237685 688.307692 21.051502 688.615385 20.865434 688.923077 20.679478 689.230769 20.493632 689.538462 20.307895 689.846154 20.122265 690.153846 19.936739 690.461538 19.751316 690.769231 19.565994 691.076923 19.380770 691.384615 19.195643 691.692308 19.010611 692.000000 18.825672 692.307692 18.640823 692.615385 18.456064 692.923077 18.271391 693.230769 18.086803 693.538462 17.902298 693.846154 17.717873 694.153846 17.533528 694.461538 17.349260 694.769231 17.165067 695.076923 16.980947 695.384615 16.796898 695.692308 16.612918 696.000000 16.429005 696.307692 16.245157 696.615385 16.061373 696.923077 15.877650 697.230769 15.693985 697.538462 15.510379 697.846154 15.326827 698.153846 15.143329 698.461538 14.959882 698.769231 14.776484 699.076923 14.593134 699.384615 14.409829 699.692308 14.226568 700.000000 14.043348 700.307692 13.860168 700.615385 13.677025 700.923077 13.493917 701.230769 13.310843 701.538462 13.127801 701.846154 12.944788 702.153846 12.761803 702.461538 12.578844 702.769231 12.395909 703.076923 12.212995 703.384615 12.030100 703.692308 11.847224 704.000000 11.664363 704.307692 11.481517 704.615385 11.298682 704.923077 11.115857 705.230769 10.933039 705.538462 10.750228 705.846154 10.567421 706.153846 10.384615 706.153846 540.000000" /></g></g><g class="titles" /><g class="plot overlay" transform="translate(60, 20)"><g class="series serie-0 color-0"><g class="dots"><circle class="dot reactive tooltip-trigger" cx="13.846153846153847" cy="529.6153846153845" r="2.5" /><desc class="value">2,928,997,468(kWh)</desc><desc class="x top">13.846153846153847</desc><desc class="y top">529.6153846153845</desc><desc class="x_label">2549</desc></g><g class="dots"><circle class="dot reactive tooltip-trigger" cx="90.76923076923076" cy="478.22227437117823" r="2.5" /><desc class="value">3,054,298,597(kWh)</desc><desc class="x top">90.76923076923076</desc><desc class="y top">478.22227437117823</desc><desc class="x_label">2550</desc></g><g class="dots"><circle class="dot reactive tooltip-trigger" cx="167.69230769230765" cy="467.93190699014946" r="2.5" /><desc class="value">3,079,387,459(kWh)</desc><desc class="x top">167.69230769230765</desc><desc class="y top">467.93190699014946</desc><desc class="x_label">2551</desc></g><g class="dots"><circle class="dot reactive tooltip-trigger" cx="244.6153846153846" cy="460.29324434387865" r="2.5" /><desc class="value">3,098,011,221(kWh)</desc><desc class="x top">244.6153846153846</desc><desc class="y top">460.29324434387865</desc><desc class="x_label">2552</desc></g><g class="dots"><circle class="dot reactive tooltip-trigger" cx="321.5384615384615" cy="285.00591079700433" r="2.5" /><desc class="value">3,525,377,860(kWh)</desc><desc class="x top">321.5384615384615</desc><desc class="y top">285.00591079700433</desc><desc class="x_label">2553</desc></g><g class="dots"><circle class="dot reactive tooltip-trigger" cx="398.46153846153845" cy="269.14606522958945" r="2.5" /><desc class="value">3,564,045,622(kWh)</desc><desc class="x left">398.46153846153845</desc><desc class="y left">269.14606522958945</desc><desc class="x_label">2554</desc></g><g class="dots"><circle class="dot reactive tooltip-trigger" cx="475.38461538461536" cy="133.1516437157307" r="2.5" /><desc class="value">3,895,612,528(kWh)</desc><desc class="x left">475.38461538461536</desc><desc class="y left">133.1516437157307</desc><desc class="x_label">2555</desc></g><g class="dots"><circle class="dot reactive tooltip-trigger" cx="552.3076923076923" cy="111.8204183945179" r="2.5" /><desc class="value">3,947,620,017(kWh)</desc><desc class="x left">552.3076923076923</desc><desc class="y left">111.8204183945179</desc><desc class="x_label">2556</desc></g><g class="dots"><circle class="dot reactive tooltip-trigger" cx="629.2307692307692" cy="61.22681531829528" r="2.5" /><desc class="value">4,070,971,874(kWh)</desc><desc class="x left">629.2307692307692</desc><desc class="y left">61.22681531829528</desc><desc class="x_label">2557</desc></g><g class="dots"><circle class="dot reactive tooltip-trigger" cx="706.1538461538461" cy="10.384615384615472" r="2.5" /><desc class="value">4,194,929,833(kWh)</desc><desc class="x left">706.1538461538461</desc><desc class="y left">10.384615384615472</desc><desc class="x_label">2558</desc></g></g></g><g class="plot text-overlay" transform="translate(60, 20)"><g class="series serie-0 color-0" /></g><g class="plot tooltip-overlay" transform="translate(60, 20)"><g class="tooltip" style="opacity: 0" transform="translate(0 0)"><rect class="tooltip-box" height="0" rx="0" ry="0" width="0" /><g class="text" /></g></g></g></svg>