<?xml version='1.0' encoding='utf-8'?>
<svg xmlns:xlink="http://www.w3.org/1999/xlink" class="pygal-chart" id="chart-e50d81c0-a296-485c-b7ef-64f2009c4e32" viewBox="0 0 800 600" xmlns="http://www.w3.org/2000/svg"><!--Generated with pygal 2.3.0 (etree) ©Kozea 2012-2016 on 2016-12-08--><!--http://pygal.org--><!--http://github.com/Kozea/pygal--><defs><style type="text/css">#chart-e50d81c0-a296-485c-b7ef-64f2009c4e32{-webkit-user-select:none;-webkit-font-smoothing:antialiased;font-family:Consolas,"Liberation Mono",Menlo,Courier,monospace}#chart-e50d81c0-a296-485c-b7ef-64f2009c4e32 .title{font-family:Consolas,"Liberation Mono",Menlo,Courier,monospace;font-size:16px}#chart-e50d81c0-a296-485c-b7ef-64f2009c4e32 .legends .legend text{font-family:Consolas,"Liberation Mono",Menlo,Courier,monospace;font-size:14px}#chart-e50d81c0-a296-485c-b7ef-64f2009c4e32 .axis text{font-family:Consolas,"Liberation Mono",Menlo,Courier,monospace;font-size:10px}#chart-e50d81c0-a296-485c-b7ef-64f2009c4e32 .axis text.major{font-family:Consolas,"Liberation Mono",Menlo,Courier,monospace;font-size:10px}#chart-e50d81c0-a296-485c-b7ef-64f2009c4e32 .text-overlay text.value{font-family:Consolas,"Liberation Mono",Menlo,Courier,monospace;font-size:16px}#chart-e50d81c0-a296-485c-b7ef-64f2009c4e32 .text-overlay text.label{font-family:Consolas,"Liberation Mono",Menlo,Courier,monospace;font-size:10px}#chart-e50d81c0-a296-485c-b7ef-64f2009c4e32 .tooltip{font-family:Consolas,"Liberation Mono",Menlo,Courier,monospace;font-size:14px}#chart-e50d81c0-a296-485c-b7ef-64f2009c4e32 text.no_data{font-family:Consolas,"Liberation Mono",Menlo,Courier,monospace;font-size:64px}
#chart-e50d81c0-a296-485c-b7ef-64f2009c4e32{background-color:rgba(249,249,249,1)}#chart-e50d81c0-a296-485c-b7ef-64f2009c4e32 path,#chart-e50d81c0-a296-485c-b7ef-64f2009c4e32 line,#chart-e50d81c0-a296-485c-b7ef-64f2009c4e32 rect,#chart-e50d81c0-a296-485c-b7ef-64f2009c4e32 circle{-webkit-transition:150ms;-moz-transition:150ms;transition:150ms}#chart-e50d81c0-a296-485c-b7ef-64f2009c4e32 .graph &gt; .background{fill:rgba(249,249,249,1)}#chart-e50d81c0-a296-485c-b7ef-64f2009c4e32 .plot &gt; .background{fill:rgba(255,255,255,1)}#chart-e50d81c0-a296-485c-b7ef-64f2009c4e32 .graph{fill:rgba(0,0,0,.87)}#chart-e50d81c0-a296-485c-b7ef-64f2009c4e32 text.no_data{fill:rgba(0,0,0,1)}#chart-e50d81c0-a296-485c-b7ef-64f2009c4e32 .title{fill:rgba(0,0,0,1)}#chart-e50d81c0-a296-485c-b7ef-64f2009c4e32 .legends .legend text{fill:rgba(0,0,0,.87)}#chart-e50d81c0-a296-485c-b7ef-64f2009c4e32 .legends .legend:hover text{fill:rgba(0,0,0,1)}#chart-e50d81c0-a296-485c-b7ef-64f2009c4e32 .axis .line{stroke:rgba(0,0,0,1)}#chart-e50d81c0-a296-485c-b7ef-64f2009c4e32 .axis .guide.line{stroke:rgba(0,0,0,.54)}#chart-e50d81c0-a296-485c-b7ef-64f2009c4e32 .axis .major.line{stroke:rgba(0,0,0,.87)}#chart-e50d81c0-a296-485c-b7ef-64f2009c4e32 .axis text.major{fill:rgba(0,0,0,1)}#chart-e50d81c0-a296-485c-b7ef-64f2009c4e32 .axis.y .guides:hover .guide.line,#chart-e50d81c0-a296-485c-b7ef-64f2009c4e32 .line-graph .axis.x .guides:hover .guide.line,#chart-e50d81c0-a296-485c-b7ef-64f2009c4e32 .stackedline-graph .axis.x .guides:hover .guide.line,#chart-e50d81c0-a296-485c-b7ef-64f2009c4e32 .xy-graph .axis.x .guides:hover .guide.line{stroke:rgba(0,0,0,1)}#chart-e50d81c0-a296-485c-b7ef-64f2009c4e32 .axis .guides:hover text{fill:rgba(0,0,0,1)}#chart-e50d81c0-a296-485c-b7ef-64f2009c4e32 .reactive{fill-opacity:.7;stroke-opacity:.8}#chart-e50d81c0-a296-485c-b7ef-64f2009c4e32 .ci{stroke:rgba(0,0,0,.87)}#chart-e50d81c0-a296-485c-b7ef-64f2009c4e32 .reactive.active,#chart-e50d81c0-a296-485c-b7ef-64f2009c4e32 .active .reactive{fill-opacity:.8;stroke-opacity:.9;stroke-width:4}#chart-e50d81c0-a296-485c-b7ef-64f2009c4e32 .ci .reactive.active{stroke-width:1.5}#chart-e50d81c0-a296-485c-b7ef-64f2009c4e32 .series text{fill:rgba(0,0,0,1)}#chart-e50d81c0-a296-485c-b7ef-64f2009c4e32 .tooltip rect{fill:rgba(255,255,255,1);stroke:rgba(0,0,0,1);-webkit-transition:opacity 150ms;-moz-transition:opacity 150ms;transition:opacity 150ms}#chart-e50d81c0-a296-485c-b7ef-64f2009c4e32 .tooltip .label{fill:rgba(0,0,0,.87)}#chart-e50d81c0-a296-485c-b7ef-64f2009c4e32 .tooltip .label{fill:rgba(0,0,0,.87)}#chart-e50d81c0-a296-485c-b7ef-64f2009c4e32 .tooltip .legend{font-size:.8em;fill:rgba(0,0,0,.54)}#chart-e50d81c0-a296-485c-b7ef-64f2009c4e32 .tooltip .x_label{font-size:.6em;fill:rgba(0,0,0,1)}#chart-e50d81c0-a296-485c-b7ef-64f2009c4e32 .tooltip .xlink{font-size:.5em;text-decoration:underline}#chart-e50d81c0-a296-485c-b7ef-64f2009c4e32 .tooltip .value{font-size:1.5em}#chart-e50d81c0-a296-485c-b7ef-64f2009c4e32 .bound{font-size:.5em}#chart-e50d81c0-a296-485c-b7ef-64f2009c4e32 .max-value{font-size:.75em;fill:rgba(0,0,0,.54)}#chart-e50d81c0-a296-485c-b7ef-64f2009c4e32 .map-element{fill:rgba(255,255,255,1);stroke:rgba(0,0,0,.54) !important}#chart-e50d81c0-a296-485c-b7ef-64f2009c4e32 .map-element .reactive{fill-opacity:inherit;stroke-opacity:inherit}#chart-e50d81c0-a296-485c-b7ef-64f2009c4e32 .color-0,#chart-e50d81c0-a296-485c-b7ef-64f2009c4e32 .color-0 a:visited{stroke:#e86fa0;fill:#e86fa0}#chart-e50d81c0-a296-485c-b7ef-64f2009c4e32 .text-overlay .color-0 text{fill:black}
#chart-e50d81c0-a296-485c-b7ef-64f2009c4e32 text.no_data{text-anchor:middle}#chart-e50d81c0-a296-485c-b7ef-64f2009c4e32 .guide.line{fill:none}#chart-e50d81c0-a296-485c-b7ef-64f2009c4e32 .centered{text-anchor:middle}#chart-e50d81c0-a296-485c-b7ef-64f2009c4e32 .title{text-anchor:middle}#chart-e50d81c0-a296-485c-b7ef-64f2009c4e32 .legends .legend text{fill-opacity:1}#chart-e50d81c0-a296-485c-b7ef-64f2009c4e32 .axis.x text{text-anchor:middle}#chart-e50d81c0-a296-485c-b7ef-64f2009c4e32 .axis.x:not(.web) text[transform]{text-anchor:start}#chart-e50d81c0-a296-485c-b7ef-64f2009c4e32 .axis.x:not(.web) text[transform].backwards{text-anchor:end}#chart-e50d81c0-a296-485c-b7ef-64f2009c4e32 .axis.y text{text-anchor:end}#chart-e50d81c0-a296-485c-b7ef-64f2009c4e32 .axis.y text[transform].backwards{text-anchor:start}#chart-e50d81c0-a296-485c-b7ef-64f2009c4e32 .axis.y2 text{text-anchor:start}#chart-e50d81c0-a296-485c-b7ef-64f2009c4e32 .axis.y2 text[transform].backwards{text-anchor:end}#chart-e50d81c0-a296-485c-b7ef-64f2009c4e32 .axis .guide.line{stroke-dasharray:4,4}#chart-e50d81c0-a296-485c-b7ef-64f2009c4e32 .axis .major.guide.line{stroke-dasharray:6,6}#chart-e50d81c0-a296-485c-b7ef-64f2009c4e32 .horizontal .axis.y .guide.line,#chart-e50d81c0-a296-485c-b7ef-64f2009c4e32 .horizontal .axis.y2 .guide.line,#chart-e50d81c0-a296-485c-b7ef-64f2009c4e32 .vertical .axis.x .guide.line{opacity:0}#chart-e50d81c0-a296-485c-b7ef-64f2009c4e32 .horizontal .axis.always_show .guide.line,#chart-e50d81c0-a296-485c-b7ef-64f2009c4e32 .vertical .axis.always_show .guide.line{opacity:1 !important}#chart-e50d81c0-a296-485c-b7ef-64f2009c4e32 .axis.y .guides:hover .guide.line,#chart-e50d81c0-a296-485c-b7ef-64f2009c4e32 .axis.y2 .guides:hover .guide.line,#chart-e50d81c0-a296-485c-b7ef-64f2009c4e32 .axis.x .guides:hover .guide.line{opacity:1}#chart-e50d81c0-a296-485c-b7ef-64f2009c4e32 .axis .guides:hover text{opacity:1}#chart-e50d81c0-a296-485c-b7ef-64f2009c4e32 .nofill{fill:none}#chart-e50d81c0-a296-485c-b7ef-64f2009c4e32 .subtle-fill{fill-opacity:.2}#chart-e50d81c0-a296-485c-b7ef-64f2009c4e32 .dot{stroke-width:1px;fill-opacity:1}#chart-e50d81c0-a296-485c-b7ef-64f2009c4e32 .dot.active{stroke-width:5px}#chart-e50d81c0-a296-485c-b7ef-64f2009c4e32 .dot.negative{fill:transparent}#chart-e50d81c0-a296-485c-b7ef-64f2009c4e32 text,#chart-e50d81c0-a296-485c-b7ef-64f2009c4e32 tspan{stroke:none !important}#chart-e50d81c0-a296-485c-b7ef-64f2009c4e32 .series text.active{opacity:1}#chart-e50d81c0-a296-485c-b7ef-64f2009c4e32 .tooltip rect{fill-opacity:.95;stroke-width:.5}#chart-e50d81c0-a296-485c-b7ef-64f2009c4e32 .tooltip text{fill-opacity:1}#chart-e50d81c0-a296-485c-b7ef-64f2009c4e32 .showable{visibility:hidden}#chart-e50d81c0-a296-485c-b7ef-64f2009c4e32 .showable.shown{visibility:visible}#chart-e50d81c0-a296-485c-b7ef-64f2009c4e32 .gauge-background{fill:rgba(229,229,229,1);stroke:none}#chart-e50d81c0-a296-485c-b7ef-64f2009c4e32 .bg-lines{stroke:rgba(249,249,249,1);stroke-width:2px}</style><script type="text/javascript">window.pygal = window.pygal || {};window.pygal.config = window.pygal.config || {};window.pygal.config['e50d81c0-a296-485c-b7ef-64f2009c4e32'] = {"no_data_text": "No data", "no_prefix": false, "xrange": null, "print_values_position": "center", "truncate_label": null, "x_labels": ["2549", "2550", "2551", "2552", "2553", "2554", "2555", "2556", "2557", "2558"], "title": null, "force_uri_protocol": "https", "defs": [], "formatter": null, "classes": ["pygal-chart"], "y_labels": null, "rounded_bars": null, "explicit_size": false, "x_labels_major_every": null, "legend_at_bottom_columns": null, "stroke_style": null, "half_pie": false, "spacing": 10, "tooltip_fancy_mode": true, "inverse_y_axis": false, "width": 800, "inner_radius": 0, "interpolation_parameters": {}, "tooltip_border_radius": 0, "style": {"no_data_font_family": "Consolas, \"Liberation Mono\", Menlo, Courier, monospace", "tooltip_font_size": 14, "tooltip_font_family": "Consolas, \"Liberation Mono\", Menlo, Courier, monospace", "stroke_opacity_hover": ".9", "legend_font_family": "Consolas, \"Liberation Mono\", Menlo, Courier, monospace", "font_family": "Consolas, \"Liberation Mono\", Menlo, Courier, monospace", "title_font_family": "Consolas, \"Liberation Mono\", Menlo, Courier, monospace", "background": "rgba(249, 249, 249, 1)", "stroke_opacity": ".8", "foreground": "rgba(0, 0, 0, .87)", "value_background": "rgba(229, 229, 229, 1)", "guide_stroke_dasharray": "4,4", "foreground_subtle": "rgba(0, 0, 0, .54)", "opacity_hover": ".8", "value_font_family": "Consolas, \"Liberation Mono\", Menlo, Courier, monospace", "value_label_font_size": 10, "plot_background": "rgba(255, 255, 255, 1)", "ci_colors": [], "label_font_size": 10, "major_label_font_size": 10, "title_font_size": 16, "no_data_font_size": 64, "value_font_size": 16, "value_colors": [], "label_font_family": "Consolas, \"Liberation Mono\", Menlo, Courier, monospace", "major_guide_stroke_dasharray": "6,6", "transition": "150ms", "foreground_strong": "rgba(0, 0, 0, 1)", "colors": ["#e86fa0", "#e88f6f", "#e8df6f", "#a0e86f", "#6fe88f", "#6fe8df", "#6fa0e8", "#8f6fe8", "#df6fe8", "#e86fa0"], "opacity": ".7", "legend_font_size": 14, "value_label_font_family": "Consolas, \"Liberation Mono\", Menlo, Courier, monospace", "major_label_font_family": "Consolas, \"Liberation Mono\", Menlo, Courier, monospace"}, "x_labels_major_count": null, "interpolation_precision": 250, "missing_value_fill_truncation": "x", "stack_from_top": false, "truncate_legend": null, "show_minor_x_labels": true, "print_zeroes": true, "css": ["file://style.css", "file://graph.css"], "y_label_rotation": 0, "legend_at_bottom": false, "print_values": false, "margin_top": null, "max_scale": 16, "allow_interruptions": false, "show_x_labels": true, "strict": false, "show_x_guides": false, "stroke": true, "margin_left": null, "dynamic_print_values": false, "print_labels": false, "show_y_labels": true, "x_labels_major": null, "range": null, "x_label_rotation": 0, "margin": 20, "zero": 0, "include_x_axis": false, "height": 600, "show_minor_y_labels": true, "show_dots": true, "interpolate": "cubic", "show_y_guides": true, "y_labels_major": null, "box_mode": "extremes", "margin_bottom": null, "order_min": null, "legend_box_size": 12, "fill": true, "show_only_major_dots": false, "js": ["//kozea.github.io/pygal.js/2.0.x/pygal-tooltips.min.js"], "x_title": null, "y_labels_major_every": null, "y_labels_major_count": null, "disable_xml_declaration": false, "y_title": null, "logarithmic": false, "pretty_print": false, "min_scale": 4, "dots_size": 2.5, "margin_right": null, "legends": [null], "secondary_range": null, "show_legend": false}</script><script type="text/javascript" xlink:href="https://kozea.github.io/pygal.js/2.0.x/pygal-tooltips.min.js" /></defs><title>Pygal</title><g class="graph stackedline-graph vertical"><rect class="background" height="600" width="800" x="0" y="0" /><g class="plot" transform="translate(60, 20)"><rect class="background" height="540" width="720.0" x="0" y="0" /><g class="axis y"><path class="line" d="M0.000000 540.000000 h720.000000" /><g class="guides"><path class="major guide line" d="M0.000000 524.954405 h720.000000" /><text class="major" x="-5" y="528.45440504467">3000M</text><title>3000M</title></g><g class="guides"><path class="guide line" d="M0.000000 491.867227 h720.000000" /><text class="" x="-5" y="495.3672266507236">3100M</text><title>3100M</title></g><g class="guides"><path class="guide line" d="M0.000000 458.780048 h720.000000" /><text class="" x="-5" y="462.28004825677715">3200M</text><title>3200M</title></g><g class="guides"><path class="guide line" d="M0.000000 425.692870 h720.000000" /><text class="" x="-5" y="429.19286986283066">3300M</text><title>3300M</title></g><g class="guides"><path class="guide line" d="M0.000000 392.605691 h720.000000" /><text class="" x="-5" y="396.10569146888423">3400M</text><title>3400M</title></g><g class="guides"><path class="major guide line" d="M0.000000 359.518513 h720.000000" /><text class="major" x="-5" y="363.0185130749378">3500M</text><title>3500M</title></g><g class="guides"><path class="guide line" d="M0.000000 326.431335 h720.000000" /><text class="" x="-5" y="329.9313346809913">3600M</text><title>3600M</title></g><g class="guides"><path class="guide line" d="M0.000000 293.344156 h720.000000" /><text class="" x="-5" y="296.84415628704494">3700M</text><title>3700M</title></g><g class="guides"><path class="guide line" d="M0.000000 260.256978 h720.000000" /><text class="" x="-5" y="263.75697789309845">3800M</text><title>3800M</title></g><g class="guides"><path class="guide line" d="M0.000000 227.169799 h720.000000" /><text class="" x="-5" y="230.66979949915202">3900M</text><title>3900M</title></g><g class="guides"><path class="major guide line" d="M0.000000 194.082621 h720.000000" /><text class="major" x="-5" y="197.58262110520565">4000M</text><title>4000M</title></g><g class="guides"><path class="guide line" d="M0.000000 160.995443 h720.000000" /><text class="" x="-5" y="164.49544271125922">4100M</text><title>4100M</title></g><g class="guides"><path class="guide line" d="M0.000000 127.908264 h720.000000" /><text class="" x="-5" y="131.40826431731273">4200M</text><title>4200M</title></g><g class="guides"><path class="guide line" d="M0.000000 94.821086 h720.000000" /><text class="" x="-5" y="98.3210859233663">4300M</text><title>4300M</title></g><g class="guides"><path class="guide line" d="M0.000000 61.733908 h720.000000" /><text class="" x="-5" y="65.23390752941987">4400M</text><title>4400M</title></g><g class="guides"><path class="major guide line" d="M0.000000 28.646729 h720.000000" /><text class="major" x="-5" y="32.146729135473436">4500M</text><title>4500M</title></g></g><g class="axis x"><g class="guides"><path class="line" d="M13.846154 0.000000 v540.000000" /><text class="" x="13.846153846153847" y="555.0">2549</text></g><g class="guides"><path class="guide line" d="M90.769231 0.000000 v540.000000" /><text class="" x="90.76923076923076" y="555.0">2550</text></g><g class="guides"><path class="guide line" d="M167.692308 0.000000 v540.000000" /><text class="" x="167.69230769230765" y="555.0">2551</text></g><g class="guides"><path class="guide line" d="M244.615385 0.000000 v540.000000" /><text class="" x="244.6153846153846" y="555.0">2552</text></g><g class="guides"><path class="guide line" d="M321.538462 0.000000 v540.000000" /><text class="" x="321.5384615384615" y="555.0">2553</text></g><g class="guides"><path class="guide line" d="M398.461538 0.000000 v540.000000" /><text class="" x="398.46153846153845" y="555.0">2554</text></g><g class="guides"><path class="guide line" d="M475.384615 0.000000 v540.000000" /><text class="" x="475.38461538461536" y="555.0">2555</text></g><g class="guides"><path class="guide line" d="M552.307692 0.000000 v540.000000" /><text class="" x="552.3076923076923" y="555.0">2556</text></g><g class="guides"><path class="guide line" d="M629.230769 0.000000 v540.000000" /><text class="" x="629.2307692307692" y="555.0">2557</text></g><g class="guides"><path class="guide line" d="M706.153846 0.000000 v540.000000" /><text class="" x="706.1538461538461" y="555.0">2558</text></g></g><g class="series serie-0 color-0"><path class="line reactive" d="M13.846154 540.000000 L13.846154 529.615385 14.153846 529.385541 14.461538 529.155701 14.769231 528.925868 15.076923 528.696043 15.384615 528.466232 15.692308 528.236436 16.000000 528.006659 16.307692 527.776904 16.615385 527.547174 16.923077 527.317473 17.230769 527.087804 17.538462 526.858169 17.846154 526.628571 18.153846 526.399015 18.461538 526.169504 18.769231 525.940039 19.076923 525.710625 19.384615 525.481264 19.692308 525.251961 20.000000 525.022717 20.307692 524.793537 20.615385 524.564422 20.923077 524.335377 21.230769 524.106405 21.538462 523.877509 21.846154 523.648691 22.153846 523.419955 22.461538 523.191305 22.769231 522.962743 23.076923 522.734272 23.384615 522.505896 23.692308 522.277618 24.000000 522.049441 24.307692 521.821368 24.615385 521.593402 24.923077 521.365547 25.230769 521.137805 25.538462 520.910180 25.846154 520.682675 26.153846 520.455293 26.461538 520.228037 26.769231 520.000911 27.076923 519.773917 27.384615 519.547059 27.692308 519.320340 28.000000 519.093762 28.307692 518.867330 28.615385 518.641046 28.923077 518.414914 29.230769 518.188936 29.538462 517.963116 29.846154 517.737457 30.153846 517.511962 30.461538 517.286634 30.769231 517.061477 31.076923 516.836493 31.384615 516.611686 31.692308 516.387059 32.000000 516.162615 32.307692 515.938356 32.615385 515.714288 32.923077 515.490411 33.230769 515.266731 33.538462 515.043249 33.846154 514.819969 34.153846 514.596894 34.461538 514.374028 34.769231 514.151373 35.076923 513.928932 35.384615 513.706709 35.692308 513.484707 36.000000 513.262929 36.307692 513.041379 36.615385 512.820058 36.923077 512.598972 37.230769 512.378121 37.538462 512.157511 37.846154 511.937144 38.153846 511.717022 38.461538 511.497150 38.769231 511.277531 39.076923 511.058167 39.384615 510.839062 39.692308 510.620218 40.000000 510.401640 40.307692 510.183330 40.615385 509.965291 40.923077 509.747527 41.230769 509.530040 41.538462 509.312835 41.846154 509.095913 42.153846 508.879279 42.461538 508.662934 42.769231 508.446884 43.076923 508.231129 43.384615 508.015675 43.692308 507.800524 44.000000 507.585678 44.307692 507.371142 44.615385 507.156918 44.923077 506.943010 45.230769 506.729421 45.538462 506.516153 45.846154 506.303210 46.153846 506.090596 46.461538 505.878313 46.769231 505.666364 47.076923 505.454753 47.384615 505.243483 47.692308 505.032556 48.000000 504.821977 48.307692 504.611748 48.615385 504.401873 48.923077 504.192354 49.230769 503.983194 49.538462 503.774398 49.846154 503.565968 50.153846 503.357906 50.461538 503.150217 50.769231 502.942904 51.076923 502.735969 51.384615 502.529417 51.692308 502.323249 52.000000 502.117469 52.307692 501.912080 52.615385 501.707086 52.923077 501.502490 53.230769 501.298294 53.538462 501.094502 53.846154 500.891117 54.153846 500.688143 54.461538 500.485581 54.769231 500.283437 55.076923 500.081712 55.384615 499.880409 55.692308 499.679533 56.000000 499.479086 56.307692 499.279071 56.615385 499.079492 56.923077 498.880351 57.230769 498.681652 57.538462 498.483398 57.846154 498.285592 58.153846 498.088237 58.461538 497.891337 58.769231 497.694894 59.076923 497.498912 59.384615 497.303394 59.692308 497.108343 60.000000 496.913761 60.307692 496.719654 60.615385 496.526022 60.923077 496.332871 61.230769 496.140202 61.538462 495.948019 61.846154 495.756325 62.153846 495.565123 62.461538 495.374417 62.769231 495.184209 63.076923 494.994503 63.384615 494.805302 63.692308 494.616609 64.000000 494.428427 64.307692 494.240760 64.615385 494.053610 64.923077 493.866980 65.230769 493.680875 65.538462 493.495296 65.846154 493.310247 66.153846 493.125732 66.461538 492.941753 66.769231 492.758314 67.076923 492.575418 67.384615 492.393067 67.692308 492.211265 68.000000 492.030016 68.307692 491.849322 68.615385 491.669186 68.923077 491.489613 69.230769 491.310604 69.538462 491.132163 69.846154 490.954293 70.153846 490.776997 70.461538 490.600279 70.769231 490.424141 71.076923 490.248588 71.384615 490.073621 71.692308 489.899244 72.000000 489.725460 72.307692 489.552273 72.615385 489.379685 72.923077 489.207700 73.230769 489.036321 73.538462 488.865551 73.846154 488.695393 74.153846 488.525850 74.461538 488.356926 74.769231 488.188624 75.076923 488.020946 75.384615 487.853896 75.692308 487.687477 76.000000 487.521693 76.307692 487.356546 76.615385 487.192039 76.923077 487.028176 77.230769 486.864960 77.538462 486.702394 77.846154 486.540481 78.153846 486.379225 78.461538 486.218628 78.769231 486.058693 79.076923 485.899425 79.384615 485.740825 79.692308 485.582898 80.000000 485.425646 80.307692 485.269072 80.615385 485.113180 80.923077 484.957972 81.230769 484.803452 81.538462 484.649624 81.846154 484.496490 82.153846 484.344053 82.461538 484.192316 82.769231 484.041283 83.076923 483.890957 83.384615 483.741341 83.692308 483.592438 84.000000 483.444252 84.307692 483.296784 84.615385 483.150040 84.923077 483.004021 85.230769 482.858731 85.538462 482.714173 85.846154 482.570350 86.153846 482.427266 86.461538 482.284923 86.769231 482.143325 87.076923 482.002475 87.384615 481.862376 87.692308 481.723031 88.000000 481.584443 88.307692 481.446616 88.615385 481.309552 88.923077 481.173255 89.230769 481.037728 89.538462 480.902974 89.846154 480.768997 90.153846 480.635798 90.461538 480.503383 90.769231 480.371753 91.076923 480.240910 91.384615 480.110852 91.692308 479.981574 92.000000 479.853070 92.307692 479.725338 92.615385 479.598371 92.923077 479.472166 93.230769 479.346719 93.538462 479.222023 93.846154 479.098075 94.153846 478.974871 94.461538 478.852405 94.769231 478.730674 95.076923 478.609672 95.384615 478.489396 95.692308 478.369840 96.000000 478.251000 96.307692 478.132871 96.615385 478.015449 96.923077 477.898730 97.230769 477.782708 97.538462 477.667379 97.846154 477.552740 98.153846 477.438784 98.461538 477.325508 98.769231 477.212906 99.076923 477.100976 99.384615 476.989711 99.692308 476.879107 100.000000 476.769161 100.307692 476.659866 100.615385 476.551219 100.923077 476.443215 101.230769 476.335850 101.538462 476.229119 101.846154 476.123017 102.153846 476.017540 102.461538 475.912684 102.769231 475.808443 103.076923 475.704814 103.384615 475.601791 103.692308 475.499370 104.000000 475.397547 104.307692 475.296317 104.615385 475.195675 104.923077 475.095617 105.230769 474.996139 105.538462 474.897235 105.846154 474.798902 106.153846 474.701134 106.461538 474.603927 106.769231 474.507277 107.076923 474.411179 107.384615 474.315629 107.692308 474.220621 108.000000 474.126152 108.307692 474.032216 108.615385 473.938810 108.923077 473.845929 109.230769 473.753567 109.538462 473.661721 109.846154 473.570387 110.153846 473.479558 110.461538 473.389232 110.769231 473.299403 111.076923 473.210067 111.384615 473.121219 111.692308 473.032854 112.000000 472.944969 112.307692 472.857558 112.615385 472.770618 112.923077 472.684143 113.230769 472.598129 113.538462 472.512571 113.846154 472.427465 114.153846 472.342806 114.461538 472.258590 114.769231 472.174813 115.076923 472.091468 115.384615 472.008553 115.692308 471.926062 116.000000 471.843992 116.307692 471.762336 116.615385 471.681092 116.923077 471.600253 117.230769 471.519817 117.538462 471.439777 117.846154 471.360130 118.153846 471.280872 118.461538 471.201996 118.769231 471.123500 119.076923 471.045378 119.384615 470.967626 119.692308 470.890239 120.000000 470.813213 120.307692 470.736543 120.615385 470.660225 120.923077 470.584253 121.230769 470.508625 121.538462 470.433334 121.846154 470.358376 122.153846 470.283748 122.461538 470.209443 122.769231 470.135459 123.076923 470.061789 123.384615 469.988430 123.692308 469.915378 124.000000 469.842626 124.307692 469.770172 124.615385 469.698010 124.923077 469.626136 125.230769 469.554546 125.538462 469.483234 125.846154 469.412196 126.153846 469.341428 126.461538 469.270924 126.769231 469.200682 127.076923 469.130695 127.384615 469.060960 127.692308 468.991472 128.000000 468.922226 128.307692 468.853217 128.615385 468.784442 128.923077 468.715896 129.230769 468.647573 129.538462 468.579470 129.846154 468.511582 130.153846 468.443905 130.461538 468.376433 130.769231 468.309163 131.076923 468.242089 131.384615 468.175208 131.692308 468.108514 132.000000 468.042004 132.307692 467.975672 132.615385 467.909513 132.923077 467.843525 133.230769 467.777701 133.538462 467.712037 133.846154 467.646530 134.153846 467.581173 134.461538 467.515963 134.769231 467.450895 135.076923 467.385965 135.384615 467.321168 135.692308 467.256499 136.000000 467.191954 136.307692 467.127528 136.615385 467.063218 136.923077 466.999017 137.230769 466.934922 137.538462 466.870928 137.846154 466.807031 138.153846 466.743225 138.461538 466.679507 138.769231 466.615872 139.076923 466.552316 139.384615 466.488833 139.692308 466.425419 140.000000 466.362070 140.307692 466.298781 140.615385 466.235548 140.923077 466.172366 141.230769 466.109230 141.538462 466.046136 141.846154 465.983079 142.153846 465.920055 142.461538 465.857059 142.769231 465.794087 143.076923 465.731135 143.384615 465.668196 143.692308 465.605268 144.000000 465.542345 144.307692 465.479423 144.615385 465.416498 144.923077 465.353564 145.230769 465.290618 145.538462 465.227654 145.846154 465.164668 146.153846 465.101656 146.461538 465.038613 146.769231 464.975534 147.076923 464.912415 147.384615 464.849252 147.692308 464.786039 148.000000 464.722773 148.307692 464.659448 148.615385 464.596061 148.923077 464.532606 149.230769 464.469079 149.538462 464.405475 149.846154 464.341791 150.153846 464.278021 150.461538 464.214160 150.769231 464.150205 151.076923 464.086151 151.384615 464.021993 151.692308 463.957726 152.000000 463.893346 152.307692 463.828849 152.615385 463.764230 152.923077 463.699484 153.230769 463.634607 153.538462 463.569594 153.846154 463.504441 154.153846 463.439143 154.461538 463.373696 154.769231 463.308095 155.076923 463.242335 155.384615 463.176412 155.692308 463.110322 156.000000 463.044059 156.307692 462.977620 156.615385 462.910999 156.923077 462.844193 157.230769 462.777196 157.538462 462.710004 157.846154 462.642613 158.153846 462.575017 158.461538 462.507213 158.769231 462.439196 159.076923 462.370961 159.384615 462.302504 159.692308 462.233820 160.000000 462.164904 160.307692 462.095753 160.615385 462.026361 160.923077 461.956724 161.230769 461.886838 161.538462 461.816697 161.846154 461.746298 162.153846 461.675635 162.461538 461.604705 162.769231 461.533502 163.076923 461.462022 163.384615 461.390261 163.692308 461.318214 164.000000 461.245876 164.307692 461.173243 164.615385 461.100310 164.923077 461.027073 165.230769 460.953527 165.538462 460.879668 165.846154 460.805491 166.153846 460.730991 166.461538 460.656164 166.769231 460.581006 167.076923 460.505512 167.384615 460.429677 167.692308 460.353496 168.000000 460.276965 168.307692 460.200073 168.615385 460.122810 168.923077 460.045164 169.230769 459.967124 169.538462 459.888680 169.846154 459.809820 170.153846 459.730534 170.461538 459.650811 170.769231 459.570640 171.076923 459.490009 171.384615 459.408909 171.692308 459.327327 172.000000 459.245254 172.307692 459.162678 172.615385 459.079588 172.923077 458.995973 173.230769 458.911823 173.538462 458.827126 173.846154 458.741871 174.153846 458.656049 174.461538 458.569647 174.769231 458.482654 175.076923 458.395061 175.384615 458.306855 175.692308 458.218026 176.000000 458.128563 176.307692 458.038456 176.615385 457.947692 176.923077 457.856262 177.230769 457.764153 177.538462 457.671357 177.846154 457.577860 178.153846 457.483653 178.461538 457.388725 178.769231 457.293064 179.076923 457.196660 179.384615 457.099502 179.692308 457.001579 180.000000 456.902879 180.307692 456.803393 180.615385 456.703108 180.923077 456.602015 181.230769 456.500102 181.538462 456.397358 181.846154 456.293772 182.153846 456.189334 182.461538 456.084032 182.769231 455.977856 183.076923 455.870794 183.384615 455.762836 183.692308 455.653971 184.000000 455.544188 184.307692 455.433475 184.615385 455.321823 184.923077 455.209219 185.230769 455.095654 185.538462 454.981115 185.846154 454.865593 186.153846 454.749076 186.461538 454.631554 186.769231 454.513015 187.076923 454.393448 187.384615 454.272843 187.692308 454.151189 188.000000 454.028474 188.307692 453.904688 188.615385 453.779820 188.923077 453.653859 189.230769 453.526794 189.538462 453.398614 189.846154 453.269308 190.153846 453.138866 190.461538 453.007275 190.769231 452.874526 191.076923 452.740607 191.384615 452.605508 191.692308 452.469218 192.000000 452.331724 192.307692 452.193018 192.615385 452.053087 192.923077 451.911922 193.230769 451.769510 193.538462 451.625841 193.846154 451.480904 194.153846 451.334688 194.461538 451.187182 194.769231 451.038376 195.076923 450.888258 195.384615 450.736817 195.692308 450.584043 196.000000 450.429924 196.307692 450.274450 196.615385 450.117609 196.923077 449.959392 197.230769 449.799786 197.538462 449.638781 197.846154 449.476365 198.153846 449.312529 198.461538 449.147261 198.769231 448.980550 199.076923 448.812385 199.384615 448.642756 199.692308 448.471651 200.000000 448.299059 200.307692 448.124970 200.615385 447.949372 200.923077 447.772255 201.230769 447.593608 201.538462 447.413419 201.846154 447.231678 202.153846 447.048375 202.461538 446.863497 202.769231 446.677034 203.076923 446.488975 203.384615 446.299310 203.692308 446.108027 204.000000 445.915115 204.307692 445.720563 204.615385 445.524361 204.923077 445.326497 205.230769 445.126962 205.538462 444.925742 205.846154 444.722829 206.153846 444.518210 206.461538 444.311875 206.769231 444.103813 207.076923 443.894014 207.384615 443.682465 207.692308 443.469156 208.000000 443.254077 208.307692 443.037216 208.615385 442.818562 208.923077 442.598105 209.230769 442.375833 209.538462 442.151736 209.846154 441.925802 210.153846 441.698021 210.461538 441.468382 210.769231 441.236874 211.076923 441.003486 211.384615 440.768207 211.692308 440.531025 212.000000 440.291931 212.307692 440.050913 212.615385 439.807961 212.923077 439.563062 213.230769 439.316208 213.538462 439.067385 213.846154 438.816584 214.153846 438.563794 214.461538 438.309004 214.769231 438.052202 215.076923 437.793378 215.384615 437.532521 215.692308 437.269620 216.000000 437.004664 216.307692 436.737642 216.615385 436.468543 216.923077 436.197356 217.230769 435.924071 217.538462 435.648676 217.846154 435.371161 218.153846 435.091514 218.461538 434.809725 218.769231 434.525782 219.076923 434.239675 219.384615 433.951393 219.692308 433.660925 220.000000 433.368260 220.307692 433.073386 220.615385 432.776294 220.923077 432.476972 221.230769 432.175409 221.538462 431.871595 221.846154 431.565518 222.153846 431.257167 222.461538 430.946532 222.769231 430.633601 223.076923 430.318364 223.384615 430.000810 223.692308 429.680927 224.000000 429.358705 224.307692 429.034133 224.615385 428.707201 224.923077 428.377896 225.230769 428.046208 225.538462 427.712127 225.846154 427.375640 226.153846 427.036738 226.461538 426.695410 226.769231 426.351644 227.076923 426.005429 227.384615 425.656755 227.692308 425.305611 228.000000 424.951986 228.307692 424.595868 228.615385 424.237247 228.923077 423.876113 229.230769 423.512453 229.538462 423.146257 229.846154 422.777514 230.153846 422.406214 230.461538 422.032345 230.769231 421.655897 231.076923 421.276857 231.384615 420.895217 231.692308 420.510964 232.000000 420.124087 232.307692 419.734576 232.615385 419.342420 232.923077 418.947608 233.230769 418.550129 233.538462 418.149972 233.846154 417.747126 234.153846 417.341580 234.461538 416.933323 234.769231 416.522345 235.076923 416.108634 235.384615 415.692179 235.692308 415.272970 236.000000 414.850995 236.307692 414.426244 236.615385 413.998705 236.923077 413.568369 237.230769 413.135223 237.538462 412.699257 237.846154 412.260460 238.153846 411.818821 238.461538 411.374330 238.769231 410.926974 239.076923 410.476744 239.384615 410.023628 239.692308 409.567615 240.000000 409.108695 240.307692 408.646856 240.615385 408.182088 240.923077 407.714380 241.230769 407.243720 241.538462 406.770098 241.846154 406.293503 242.153846 405.813924 242.461538 405.331350 242.769231 404.845770 243.076923 404.357173 243.384615 403.865549 243.692308 403.370886 244.000000 402.873173 244.307692 402.372399 244.615385 401.868554 244.923077 401.361635 245.230769 400.851673 245.538462 400.338707 245.846154 399.822775 246.153846 399.303919 246.461538 398.782175 246.769231 398.257585 247.076923 397.730186 247.384615 397.200019 247.692308 396.667122 248.000000 396.131534 248.307692 395.593295 248.615385 395.052445 248.923077 394.509021 249.230769 393.963063 249.538462 393.414612 249.846154 392.863704 250.153846 392.310381 250.461538 391.754681 250.769231 391.196643 251.076923 390.636307 251.384615 390.073712 251.692308 389.508896 252.000000 388.941899 252.307692 388.372761 252.615385 387.801520 252.923077 387.228216 253.230769 386.652888 253.538462 386.075575 253.846154 385.496316 254.153846 384.915151 254.461538 384.332119 254.769231 383.747258 255.076923 383.160608 255.384615 382.572209 255.692308 381.982099 256.000000 381.390318 256.307692 380.796904 256.615385 380.201898 256.923077 379.605338 257.230769 379.007264 257.538462 378.407714 257.846154 377.806728 258.153846 377.204345 258.461538 376.600604 258.769231 375.995545 259.076923 375.389206 259.384615 374.781627 259.692308 374.172848 260.000000 373.562906 260.307692 372.951842 260.615385 372.339694 260.923077 371.726503 261.230769 371.112306 261.538462 370.497144 261.846154 369.881055 262.153846 369.264078 262.461538 368.646254 262.769231 368.027620 263.076923 367.408217 263.384615 366.788083 263.692308 366.167258 264.000000 365.545780 264.307692 364.923690 264.615385 364.301025 264.923077 363.677827 265.230769 363.054132 265.538462 362.429982 265.846154 361.805414 266.153846 361.180469 266.461538 360.555185 266.769231 359.929601 267.076923 359.303758 267.384615 358.677693 267.692308 358.051446 268.000000 357.425057 268.307692 356.798565 268.615385 356.172008 268.923077 355.545426 269.230769 354.918858 269.538462 354.292344 269.846154 353.665922 270.153846 353.039632 270.461538 352.413513 270.769231 351.787604 271.076923 351.161944 271.384615 350.536573 271.692308 349.911530 272.000000 349.286853 272.307692 348.662583 272.615385 348.038758 272.923077 347.415417 273.230769 346.792601 273.538462 346.170347 273.846154 345.548695 274.153846 344.927685 274.461538 344.307355 274.769231 343.687744 275.076923 343.068893 275.384615 342.450840 275.692308 341.833624 276.000000 341.217285 276.307692 340.601861 276.615385 339.987392 276.923077 339.373917 277.230769 338.761476 277.538462 338.150107 277.846154 337.539850 278.153846 336.930743 278.461538 336.322827 278.769231 335.716140 279.076923 335.110721 279.384615 334.506610 279.692308 333.903846 280.000000 333.302468 280.307692 332.702515 280.615385 332.104027 280.923077 331.507042 281.230769 330.911600 281.538462 330.317741 281.846154 329.725502 282.153846 329.134924 282.461538 328.546045 282.769231 327.958906 283.076923 327.373544 283.384615 326.790000 283.692308 326.208312 284.000000 325.628520 284.307692 325.050662 284.615385 324.474779 284.923077 323.900908 285.230769 323.329091 285.538462 322.759364 285.846154 322.191769 286.153846 321.626344 286.461538 321.063127 286.769231 320.502159 287.076923 319.943479 287.384615 319.387126 287.692308 318.833138 288.000000 318.281556 288.307692 317.732418 288.615385 317.185764 288.923077 316.641632 289.230769 316.100063 289.538462 315.561095 289.846154 315.024767 290.153846 314.491118 290.461538 313.960189 290.769231 313.432017 291.076923 312.906642 291.384615 312.384104 291.692308 311.864442 292.000000 311.347694 292.307692 310.833900 292.615385 310.323099 292.923077 309.815331 293.230769 309.310634 293.538462 308.809048 293.846154 308.310612 294.153846 307.815365 294.461538 307.323346 294.769231 306.834595 295.076923 306.349150 295.384615 305.867052 295.692308 305.388338 296.000000 304.913049 296.307692 304.441224 296.615385 303.972901 296.923077 303.508120 297.230769 303.046920 297.538462 302.589340 297.846154 302.135420 298.153846 301.685199 298.461538 301.238716 298.769231 300.796009 299.076923 300.357119 299.384615 299.922085 299.692308 299.490945 300.000000 299.063739 300.307692 298.640506 300.615385 298.221285 300.923077 297.806116 301.230769 297.395037 301.538462 296.988089 301.846154 296.585309 302.153846 296.186738 302.461538 295.792414 302.769231 295.402377 303.076923 295.016666 303.384615 294.635319 303.692308 294.258377 304.000000 293.885879 304.307692 293.517863 304.615385 293.154369 304.923077 292.795436 305.230769 292.441103 305.538462 292.091409 305.846154 291.746395 306.153846 291.406098 306.461538 291.070558 306.769231 290.739814 307.076923 290.413906 307.384615 290.092872 307.692308 289.776753 308.000000 289.465586 308.307692 289.159411 308.615385 288.858268 308.923077 288.562195 309.230769 288.271233 309.538462 287.985419 309.846154 287.704793 310.153846 287.429395 310.461538 287.159263 310.769231 286.894438 311.076923 286.634957 311.384615 286.380860 311.692308 286.132187 312.000000 285.888976 312.307692 285.651267 312.615385 285.419099 312.923077 285.192511 313.230769 284.971543 313.538462 284.756233 313.846154 284.546621 314.153846 284.342746 314.461538 284.144647 314.769231 283.952363 315.076923 283.765934 315.384615 283.585399 315.692308 283.410797 316.000000 283.242166 316.307692 283.079548 316.615385 282.922979 316.923077 282.772501 317.230769 282.628151 317.538462 282.489969 317.846154 282.357995 318.153846 282.232267 318.461538 282.112825 318.769231 281.999708 319.076923 281.892955 319.384615 281.792606 319.692308 281.698698 320.000000 281.611273 320.307692 281.530368 320.615385 281.456024 320.923077 281.388279 321.230769 281.327172 321.538462 281.272743 321.846154 281.225015 322.153846 281.183943 322.461538 281.149468 322.769231 281.121531 323.076923 281.100070 323.384615 281.085027 323.692308 281.076340 324.000000 281.073951 324.307692 281.077799 324.615385 281.087824 324.923077 281.103967 325.230769 281.126166 325.538462 281.154364 325.846154 281.188498 326.153846 281.228510 326.461538 281.274340 326.769231 281.325927 327.076923 281.383212 327.384615 281.446134 327.692308 281.514634 328.000000 281.588651 328.307692 281.668127 328.615385 281.753000 328.923077 281.843211 329.230769 281.938699 329.538462 282.039406 329.846154 282.145271 330.153846 282.256233 330.461538 282.372234 330.769231 282.493212 331.076923 282.619109 331.384615 282.749864 331.692308 282.885417 332.000000 283.025708 332.307692 283.170677 332.615385 283.320265 332.923077 283.474411 333.230769 283.633055 333.538462 283.796138 333.846154 283.963599 334.153846 284.135379 334.461538 284.311417 334.769231 284.491654 335.076923 284.676029 335.384615 284.864483 335.692308 285.056956 336.000000 285.253388 336.307692 285.453718 336.615385 285.657887 336.923077 285.865835 337.230769 286.077501 337.538462 286.292827 337.846154 286.511752 338.153846 286.734215 338.461538 286.960158 338.769231 287.189520 339.076923 287.422241 339.384615 287.658261 339.692308 287.897520 340.000000 288.139959 340.307692 288.385516 340.615385 288.634133 340.923077 288.885750 341.230769 289.140306 341.538462 289.397741 341.846154 289.657996 342.153846 289.921010 342.461538 290.186724 342.769231 290.455078 343.076923 290.726011 343.384615 290.999463 343.692308 291.275376 344.000000 291.553688 344.307692 291.834340 344.615385 292.117272 344.923077 292.402424 345.230769 292.689736 345.538462 292.979147 345.846154 293.270599 346.153846 293.564031 346.461538 293.859383 346.769231 294.156595 347.076923 294.455607 347.384615 294.756359 347.692308 295.058791 348.000000 295.362844 348.307692 295.668457 348.615385 295.975571 348.923077 296.284125 349.230769 296.594059 349.538462 296.905314 349.846154 297.217829 350.153846 297.531545 350.461538 297.846401 350.769231 298.162338 351.076923 298.479296 351.384615 298.797215 351.692308 299.116034 352.000000 299.435694 352.307692 299.756135 352.615385 300.077297 352.923077 300.399119 353.230769 300.721543 353.538462 301.044508 353.846154 301.367953 354.153846 301.691820 354.461538 302.016048 354.769231 302.340577 355.076923 302.665347 355.384615 302.990299 355.692308 303.315371 356.000000 303.640505 356.307692 303.965641 356.615385 304.290717 356.923077 304.615676 357.230769 304.940455 357.538462 305.264997 357.846154 305.589239 358.153846 305.913124 358.461538 306.236590 358.769231 306.559577 359.076923 306.882027 359.384615 307.203878 359.692308 307.525071 360.000000 307.845546 360.307692 308.165242 360.615385 308.484101 360.923077 308.802061 361.230769 309.119064 361.538462 309.435048 361.846154 309.749955 362.153846 310.063724 362.461538 310.376295 362.769231 310.687608 363.076923 310.997603 363.384615 311.306220 363.692308 311.613400 364.000000 311.919083 364.307692 312.223207 364.615385 312.525714 364.923077 312.826544 365.230769 313.125636 365.538462 313.422930 365.846154 313.718368 366.153846 314.011887 366.461538 314.303430 366.769231 314.592935 367.076923 314.880343 367.384615 315.165594 367.692308 315.448627 368.000000 315.729384 368.307692 316.007803 368.615385 316.283825 368.923077 316.557391 369.230769 316.828439 369.538462 317.096910 369.846154 317.362745 370.153846 317.625883 370.461538 317.886263 370.769231 318.143827 371.076923 318.398515 371.384615 318.650265 371.692308 318.899019 372.000000 319.144717 372.307692 319.387298 372.615385 319.626702 372.923077 319.862870 373.230769 320.095741 373.538462 320.325256 373.846154 320.551354 374.153846 320.773977 374.461538 320.993063 374.769231 321.208552 375.076923 321.420386 375.384615 321.628503 375.692308 321.832844 376.000000 322.033349 376.307692 322.229958 376.615385 322.422611 376.923077 322.611248 377.230769 322.795809 377.538462 322.976234 377.846154 323.152464 378.153846 323.324437 378.461538 323.492095 378.769231 323.655377 379.076923 323.814223 379.384615 323.968574 379.692308 324.118369 380.000000 324.263549 380.307692 324.404052 380.615385 324.539821 380.923077 324.670794 381.230769 324.796911 381.538462 324.918114 381.846154 325.034341 382.153846 325.145532 382.461538 325.251628 382.769231 325.352569 383.076923 325.448295 383.384615 325.538746 383.692308 325.623862 384.000000 325.703582 384.307692 325.777848 384.615385 325.846599 384.923077 325.909774 385.230769 325.967315 385.538462 326.019161 385.846154 326.065252 386.153846 326.105529 386.461538 326.139930 386.769231 326.168397 387.076923 326.190869 387.384615 326.207287 387.692308 326.217590 388.000000 326.221719 388.307692 326.219613 388.615385 326.211212 388.923077 326.196457 389.230769 326.175288 389.538462 326.147645 389.846154 326.113467 390.153846 326.072694 390.461538 326.025268 390.769231 325.971128 391.076923 325.910213 391.384615 325.842464 391.692308 325.767821 392.000000 325.686224 392.307692 325.597614 392.615385 325.501929 392.923077 325.399110 393.230769 325.289098 393.538462 325.171831 393.846154 325.047251 394.153846 324.915297 394.461538 324.775910 394.769231 324.629028 395.076923 324.474594 395.384615 324.312545 395.692308 324.142823 396.000000 323.965368 396.307692 323.780119 396.615385 323.587016 396.923077 323.386001 397.230769 323.177011 397.538462 322.959989 397.846154 322.734873 398.153846 322.501605 398.461538 322.260122 398.769231 322.010387 399.076923 321.752438 399.384615 321.486336 399.692308 321.212138 400.000000 320.929907 400.307692 320.639700 400.615385 320.341577 400.923077 320.035599 401.230769 319.721824 401.538462 319.400312 401.846154 319.071124 402.153846 318.734317 402.461538 318.389953 402.769231 318.038091 403.076923 317.678789 403.384615 317.312109 403.692308 316.938109 404.000000 316.556849 404.307692 316.168389 404.615385 315.772788 404.923077 315.370106 405.230769 314.960403 405.538462 314.543737 405.846154 314.120169 406.153846 313.689759 406.461538 313.252565 406.769231 312.808648 407.076923 312.358067 407.384615 311.900881 407.692308 311.437151 408.000000 310.966936 408.307692 310.490295 408.615385 310.007288 408.923077 309.517975 409.230769 309.022415 409.538462 308.520668 409.846154 308.012794 410.153846 307.498851 410.461538 306.978900 410.769231 306.453001 411.076923 305.921212 411.384615 305.383594 411.692308 304.840206 412.000000 304.291108 412.307692 303.736359 412.615385 303.176019 412.923077 302.610147 413.230769 302.038803 413.538462 301.462047 413.846154 300.879939 414.153846 300.292537 414.461538 299.699901 414.769231 299.102092 415.076923 298.499169 415.384615 297.891190 415.692308 297.278217 416.000000 296.660308 416.307692 296.037523 416.615385 295.409922 416.923077 294.777564 417.230769 294.140510 417.538462 293.498817 417.846154 292.852547 418.153846 292.201758 418.461538 291.546511 418.769231 290.886864 419.076923 290.222878 419.384615 289.554612 419.692308 288.882126 420.000000 288.205479 420.307692 287.524731 420.615385 286.839942 420.923077 286.151170 421.230769 285.458476 421.538462 284.761920 421.846154 284.061560 422.153846 283.357457 422.461538 282.649670 422.769231 281.938259 423.076923 281.223283 423.384615 280.504802 423.692308 279.782875 424.000000 279.057563 424.307692 278.328924 424.615385 277.597019 424.923077 276.861906 425.230769 276.123646 425.538462 275.382298 425.846154 274.637922 426.153846 273.890577 426.461538 273.140323 426.769231 272.387219 427.076923 271.631326 427.384615 270.872702 427.692308 270.111408 428.000000 269.347502 428.307692 268.581045 428.615385 267.812096 428.923077 267.040715 429.230769 266.266961 429.538462 265.490894 429.846154 264.712573 430.153846 263.932059 430.461538 263.149410 430.769231 262.364687 431.076923 261.577948 431.384615 260.789254 431.692308 259.998665 432.000000 259.206238 432.307692 258.412036 432.615385 257.616116 432.923077 256.818538 433.230769 256.019363 433.538462 255.218650 433.846154 254.416457 434.153846 253.612846 434.461538 252.807875 434.769231 252.001604 435.076923 251.194093 435.384615 250.385402 435.692308 249.575589 436.000000 248.764715 436.307692 247.952839 436.615385 247.140020 436.923077 246.326319 437.230769 245.511795 437.538462 244.696507 437.846154 243.880516 438.153846 243.063880 438.461538 242.246660 438.769231 241.428914 439.076923 240.610703 439.384615 239.792086 439.692308 238.973123 440.000000 238.153873 440.307692 237.334396 440.615385 236.514752 440.923077 235.695000 441.230769 234.875199 441.538462 234.055410 441.846154 233.235692 442.153846 232.416104 442.461538 231.596706 442.769231 230.777558 443.076923 229.958720 443.384615 229.140250 443.692308 228.322209 444.000000 227.504656 444.307692 226.687651 444.615385 225.871253 444.923077 225.055522 445.230769 224.240518 445.538462 223.426299 445.846154 222.612927 446.153846 221.800460 446.461538 220.988957 446.769231 220.178480 447.076923 219.369086 447.384615 218.560836 447.692308 217.753790 448.000000 216.948006 448.307692 216.143545 448.615385 215.340466 448.923077 214.538829 449.230769 213.738693 449.538462 212.940118 449.846154 212.143164 450.153846 211.347889 450.461538 210.554355 450.769231 209.762620 451.076923 208.972744 451.384615 208.184786 451.692308 207.398807 452.000000 206.614865 452.307692 205.833020 452.615385 205.053333 452.923077 204.275862 453.230769 203.500667 453.538462 202.727808 453.846154 201.957345 454.153846 201.189336 454.461538 200.423842 454.769231 199.660922 455.076923 198.900635 455.384615 198.143042 455.692308 197.388202 456.000000 196.636175 456.307692 195.887020 456.615385 195.140796 456.923077 194.397564 457.230769 193.657383 457.538462 192.920312 457.846154 192.186412 458.153846 191.455741 458.461538 190.728360 458.769231 190.004327 459.076923 189.283703 459.384615 188.566548 459.692308 187.852920 460.000000 187.142879 460.307692 186.436485 460.615385 185.733798 460.923077 185.034877 461.230769 184.339782 461.538462 183.648573 461.846154 182.961308 462.153846 182.278047 462.461538 181.598851 462.769231 180.923779 463.076923 180.252890 463.384615 179.586244 463.692308 178.923900 464.000000 178.265919 464.307692 177.612360 464.615385 176.963282 464.923077 176.318744 465.230769 175.678808 465.538462 175.043531 465.846154 174.412975 466.153846 173.787197 466.461538 173.166259 466.769231 172.550219 467.076923 171.939138 467.384615 171.333074 467.692308 170.732087 468.000000 170.136238 468.307692 169.545585 468.615385 168.960188 468.923077 168.380107 469.230769 167.805401 469.538462 167.236131 469.846154 166.672355 470.153846 166.114133 470.461538 165.561525 470.769231 165.014590 471.076923 164.473388 471.384615 163.937979 471.692308 163.408422 472.000000 162.884777 472.307692 162.367103 472.615385 161.855460 472.923077 161.349908 473.230769 160.850506 473.538462 160.357314 473.846154 159.870391 474.153846 159.389797 474.461538 158.915591 474.769231 158.447834 475.076923 157.986585 475.384615 157.531903 475.692308 157.083831 476.000000 156.642350 476.307692 156.207419 476.615385 155.779003 476.923077 155.357064 477.230769 154.941563 477.538462 154.532464 477.846154 154.129728 478.153846 153.733318 478.461538 153.343197 478.769231 152.959326 479.076923 152.581668 479.384615 152.210186 479.692308 151.844842 480.000000 151.485598 480.307692 151.132417 480.615385 150.785261 480.923077 150.444092 481.230769 150.108873 481.538462 149.779566 481.846154 149.456133 482.153846 149.138537 482.461538 148.826741 482.769231 148.520706 483.076923 148.220396 483.384615 147.925771 483.692308 147.636796 484.000000 147.353432 484.307692 147.075641 484.615385 146.803386 484.923077 146.536629 485.230769 146.275333 485.538462 146.019460 485.846154 145.768973 486.153846 145.523833 486.461538 145.284003 486.769231 145.049446 487.076923 144.820124 487.384615 144.595999 487.692308 144.377034 488.000000 144.163190 488.307692 143.954432 488.615385 143.750720 488.923077 143.552017 489.230769 143.358286 489.538462 143.169488 489.846154 142.985587 490.153846 142.806545 490.461538 142.632324 490.769231 142.462886 491.076923 142.298194 491.384615 142.138210 491.692308 141.982896 492.000000 141.832216 492.307692 141.686131 492.615385 141.544603 492.923077 141.407596 493.230769 141.275071 493.538462 141.146991 493.846154 141.023318 494.153846 140.904015 494.461538 140.789043 494.769231 140.678366 495.076923 140.571946 495.384615 140.469745 495.692308 140.371725 496.000000 140.277849 496.307692 140.188079 496.615385 140.102378 496.923077 140.020708 497.230769 139.943031 497.538462 139.869309 497.846154 139.799506 498.153846 139.733584 498.461538 139.671504 498.769231 139.613229 499.076923 139.558722 499.384615 139.507945 499.692308 139.460860 500.000000 139.417430 500.307692 139.377617 500.615385 139.341384 500.923077 139.308692 501.230769 139.279505 501.538462 139.253784 501.846154 139.231493 502.153846 139.212592 502.461538 139.197045 502.769231 139.184815 503.076923 139.175863 503.384615 139.170152 503.692308 139.167644 504.000000 139.168301 504.307692 139.172087 504.615385 139.178963 504.923077 139.188892 505.230769 139.201835 505.538462 139.217757 505.846154 139.236618 506.153846 139.258381 506.461538 139.283010 506.769231 139.310465 507.076923 139.340709 507.384615 139.373705 507.692308 139.409416 508.000000 139.447803 508.307692 139.488828 508.615385 139.532455 508.923077 139.578646 509.230769 139.627363 509.538462 139.678568 509.846154 139.732224 510.153846 139.788293 510.461538 139.846737 510.769231 139.907519 511.076923 139.970602 511.384615 140.035947 511.692308 140.103518 512.000000 140.173276 512.307692 140.245183 512.615385 140.319203 512.923077 140.395297 513.230769 140.473428 513.538462 140.553558 513.846154 140.635650 514.153846 140.719666 514.461538 140.805569 514.769231 140.893320 515.076923 140.982883 515.384615 141.074219 515.692308 141.167291 516.000000 141.262061 516.307692 141.358492 516.615385 141.456546 516.923077 141.556185 517.230769 141.657372 517.538462 141.760069 517.846154 141.864239 518.153846 141.969844 518.461538 142.076846 518.769231 142.185208 519.076923 142.294892 519.384615 142.405860 519.692308 142.518075 520.000000 142.631499 520.307692 142.746095 520.615385 142.861825 520.923077 142.978651 521.230769 143.096536 521.538462 143.215442 521.846154 143.335331 522.153846 143.456166 522.461538 143.577910 522.769231 143.700524 523.076923 143.823970 523.384615 143.948213 523.692308 144.073213 524.000000 144.198933 524.307692 144.325335 524.615385 144.452382 524.923077 144.580037 525.230769 144.708261 525.538462 144.837017 525.846154 144.966267 526.153846 145.095974 526.461538 145.226100 526.769231 145.356608 527.076923 145.487460 527.384615 145.618617 527.692308 145.750044 528.000000 145.881701 528.307692 146.013552 528.615385 146.145558 528.923077 146.277682 529.230769 146.409887 529.538462 146.542135 529.846154 146.674388 530.153846 146.806609 530.461538 146.938760 530.769231 147.070803 531.076923 147.202700 531.384615 147.334415 531.692308 147.465909 532.000000 147.597146 532.307692 147.728086 532.615385 147.858693 532.923077 147.988929 533.230769 148.118757 533.538462 148.248138 533.846154 148.377035 534.153846 148.505411 534.461538 148.633228 534.769231 148.760448 535.076923 148.887033 535.384615 149.012947 535.692308 149.138151 536.000000 149.262608 536.307692 149.386280 536.615385 149.509129 536.923077 149.631118 537.230769 149.752210 537.538462 149.872366 537.846154 149.991549 538.153846 150.109722 538.461538 150.226846 538.769231 150.342885 539.076923 150.457800 539.384615 150.571554 539.692308 150.684109 540.000000 150.795428 540.307692 150.905473 540.615385 151.014206 540.923077 151.121591 541.230769 151.227588 541.538462 151.332161 541.846154 151.435271 542.153846 151.536882 542.461538 151.636956 542.769231 151.735455 543.076923 151.832341 543.384615 151.927577 543.692308 152.021125 544.000000 152.112948 544.307692 152.203007 544.615385 152.291266 544.923077 152.377687 545.230769 152.462231 545.538462 152.544863 545.846154 152.625542 546.153846 152.704233 546.461538 152.780898 546.769231 152.855499 547.076923 152.927997 547.384615 152.998357 547.692308 153.066540 548.000000 153.132508 548.307692 153.196224 548.615385 153.257650 548.923077 153.316748 549.230769 153.373482 549.538462 153.427813 549.846154 153.479703 550.153846 153.529116 550.461538 153.576013 550.769231 153.620357 551.076923 153.662110 551.384615 153.701235 551.692308 153.737694 552.000000 153.771449 552.307692 153.802463 552.615385 153.830705 552.923077 153.856179 553.230769 153.878895 553.538462 153.898863 553.846154 153.916093 554.153846 153.930595 554.461538 153.942379 554.769231 153.951457 555.076923 153.957837 555.384615 153.961531 555.692308 153.962549 556.000000 153.960900 556.307692 153.956596 556.615385 153.949646 556.923077 153.940060 557.230769 153.927849 557.538462 153.913024 557.846154 153.895594 558.153846 153.875569 558.461538 153.852960 558.769231 153.827778 559.076923 153.800032 559.384615 153.769732 559.692308 153.736890 560.000000 153.701514 560.307692 153.663616 560.615385 153.623205 560.923077 153.580293 561.230769 153.534888 561.538462 153.487002 561.846154 153.436645 562.153846 153.383826 562.461538 153.328557 562.769231 153.270847 563.076923 153.210706 563.384615 153.148146 563.692308 153.083175 564.000000 153.015805 564.307692 152.946046 564.615385 152.873908 564.923077 152.799400 565.230769 152.722535 565.538462 152.643321 565.846154 152.561768 566.153846 152.477888 566.461538 152.391691 566.769231 152.303186 567.076923 152.212384 567.384615 152.119295 567.692308 152.023929 568.000000 151.926297 568.307692 151.826410 568.615385 151.724276 568.923077 151.619907 569.230769 151.513312 569.538462 151.404502 569.846154 151.293488 570.153846 151.180279 570.461538 151.064886 570.769231 150.947318 571.076923 150.827587 571.384615 150.705702 571.692308 150.581674 572.000000 150.455513 572.307692 150.327229 572.615385 150.196833 572.923077 150.064334 573.230769 149.929743 573.538462 149.793071 573.846154 149.654327 574.153846 149.513521 574.461538 149.370665 574.769231 149.225768 575.076923 149.078840 575.384615 148.929892 575.692308 148.778934 576.000000 148.625976 576.307692 148.471029 576.615385 148.314102 576.923077 148.155206 577.230769 147.994352 577.538462 147.831549 577.846154 147.666808 578.153846 147.500139 578.461538 147.331552 578.769231 147.161057 579.076923 146.988665 579.384615 146.814387 579.692308 146.638231 580.000000 146.460209 580.307692 146.280331 580.615385 146.098606 580.923077 145.915046 581.230769 145.729661 581.538462 145.542460 581.846154 145.353454 582.153846 145.162654 582.461538 144.970069 582.769231 144.775710 583.076923 144.579586 583.384615 144.381709 583.692308 144.182089 584.000000 143.980735 584.307692 143.777659 584.615385 143.572869 584.923077 143.366377 585.230769 143.158193 585.538462 142.948327 585.846154 142.736789 586.153846 142.523590 586.461538 142.308740 586.769231 142.092248 587.076923 141.874126 587.384615 141.654383 587.692308 141.433031 588.000000 141.210078 588.307692 140.985535 588.615385 140.759413 588.923077 140.531722 589.230769 140.302472 589.538462 140.071673 589.846154 139.839336 590.153846 139.605471 590.461538 139.370087 590.769231 139.133196 591.076923 138.894807 591.384615 138.654932 591.692308 138.413579 592.000000 138.170760 592.307692 137.926484 592.615385 137.680762 592.923077 137.433604 593.230769 137.185021 593.538462 136.935022 593.846154 136.683617 594.153846 136.430818 594.461538 136.176635 594.769231 135.921076 595.076923 135.664154 595.384615 135.405878 595.692308 135.146258 596.000000 134.885304 596.307692 134.623028 596.615385 134.359439 596.923077 134.094546 597.230769 133.828362 597.538462 133.560895 597.846154 133.292157 598.153846 133.022157 598.461538 132.750905 598.769231 132.478412 599.076923 132.204689 599.384615 131.929744 599.692308 131.653590 600.000000 131.376235 600.307692 131.097690 600.615385 130.817966 600.923077 130.537072 601.230769 130.255019 601.538462 129.971818 601.846154 129.687477 602.153846 129.402009 602.461538 129.115422 602.769231 128.827727 603.076923 128.538935 603.384615 128.249055 603.692308 127.958098 604.000000 127.666074 604.307692 127.372994 604.615385 127.078867 604.923077 126.783705 605.230769 126.487516 605.538462 126.190312 605.846154 125.892102 606.153846 125.592897 606.461538 125.292708 606.769231 124.991544 607.076923 124.689415 607.384615 124.386332 607.692308 124.082306 608.000000 123.777346 608.307692 123.471463 608.615385 123.164666 608.923077 122.856967 609.230769 122.548375 609.538462 122.238901 609.846154 121.928554 610.153846 121.617346 610.461538 121.305286 610.769231 120.992385 611.076923 120.678653 611.384615 120.364100 611.692308 120.048737 612.000000 119.732573 612.307692 119.415619 612.615385 119.097885 612.923077 118.779382 613.230769 118.460119 613.538462 118.140107 613.846154 117.819357 614.153846 117.497878 614.461538 117.175680 614.769231 116.852775 615.076923 116.529172 615.384615 116.204881 615.692308 115.879913 616.000000 115.554278 616.307692 115.227986 616.615385 114.901047 616.923077 114.573473 617.230769 114.245272 617.538462 113.916455 617.846154 113.587033 618.153846 113.257016 618.461538 112.926413 618.769231 112.595236 619.076923 112.263494 619.384615 111.931198 619.692308 111.598358 620.000000 111.264984 620.307692 110.931087 620.615385 110.596676 620.923077 110.261763 621.230769 109.926356 621.538462 109.590467 621.846154 109.254106 622.153846 108.917283 622.461538 108.580008 622.769231 108.242291 623.076923 107.904144 623.384615 107.565575 623.692308 107.226595 624.000000 106.887215 624.307692 106.547445 624.615385 106.207295 624.923077 105.866775 625.230769 105.525895 625.538462 105.184667 625.846154 104.843099 626.153846 104.501202 626.461538 104.158988 626.769231 103.816464 627.076923 103.473643 627.384615 103.130534 627.692308 102.787148 628.000000 102.443494 628.307692 102.099584 628.615385 101.755426 628.923077 101.411033 629.230769 101.066413 629.538462 100.721575 629.846154 100.376522 630.153846 100.031256 630.461538 99.685775 630.769231 99.340082 631.076923 98.994178 631.384615 98.648063 631.692308 98.301738 632.000000 97.955203 632.307692 97.608461 632.615385 97.261511 632.923077 96.914355 633.230769 96.566993 633.538462 96.219427 633.846154 95.871656 634.153846 95.523683 634.461538 95.175507 634.769231 94.827131 635.076923 94.478553 635.384615 94.129776 635.692308 93.780801 636.000000 93.431628 636.307692 93.082257 636.615385 92.732691 636.923077 92.382929 637.230769 92.032973 637.538462 91.682824 637.846154 91.332481 638.153846 90.981947 638.461538 90.631223 638.769231 90.280308 639.076923 89.929204 639.384615 89.577911 639.692308 89.226431 640.000000 88.874765 640.307692 88.522912 640.615385 88.170875 640.923077 87.818654 641.230769 87.466250 641.538462 87.113663 641.846154 86.760895 642.153846 86.407947 642.461538 86.054819 642.769231 85.701512 643.076923 85.348027 643.384615 84.994365 643.692308 84.640526 644.000000 84.286513 644.307692 83.932325 644.615385 83.577963 644.923077 83.223428 645.230769 82.868722 645.538462 82.513844 645.846154 82.158796 646.153846 81.803579 646.461538 81.448194 646.769231 81.092641 647.076923 80.736921 647.384615 80.381035 647.692308 80.024984 648.000000 79.668770 648.307692 79.312392 648.615385 78.955851 648.923077 78.599149 649.230769 78.242286 649.538462 77.885264 649.846154 77.528082 650.153846 77.170743 650.461538 76.813246 650.769231 76.455593 651.076923 76.097784 651.384615 75.739820 651.692308 75.381703 652.000000 75.023433 652.307692 74.665011 652.615385 74.306438 652.923077 73.947715 653.230769 73.588842 653.538462 73.229820 653.846154 72.870651 654.153846 72.511335 654.461538 72.151872 654.769231 71.792265 655.076923 71.432514 655.384615 71.072619 655.692308 70.712581 656.000000 70.352402 656.307692 69.992082 656.615385 69.631622 656.923077 69.271023 657.230769 68.910286 657.538462 68.549411 657.846154 68.188400 658.153846 67.827253 658.461538 67.465972 658.769231 67.104556 659.076923 66.743008 659.384615 66.381327 659.692308 66.019516 660.000000 65.657573 660.307692 65.295501 660.615385 64.933301 660.923077 64.570972 661.230769 64.208517 661.538462 63.845935 661.846154 63.483228 662.153846 63.120397 662.461538 62.757442 662.769231 62.394364 663.076923 62.031165 663.384615 61.667845 663.692308 61.304405 664.000000 60.940845 664.307692 60.577167 664.615385 60.213372 664.923077 59.849460 665.230769 59.485432 665.538462 59.121289 665.846154 58.757033 666.153846 58.392663 666.461538 58.028181 666.769231 57.663587 667.076923 57.298883 667.384615 56.934069 667.692308 56.569146 668.000000 56.204116 668.307692 55.838978 668.615385 55.473734 668.923077 55.108384 669.230769 54.742930 669.538462 54.377372 669.846154 54.011712 670.153846 53.645949 670.461538 53.280086 670.769231 52.914122 671.076923 52.548059 671.384615 52.181898 671.692308 51.815638 672.000000 51.449283 672.307692 51.082831 672.615385 50.716284 672.923077 50.349643 673.230769 49.982909 673.538462 49.616082 673.846154 49.249164 674.153846 48.882155 674.461538 48.515056 674.769231 48.147868 675.076923 47.780592 675.384615 47.413229 675.692308 47.045779 676.000000 46.678244 676.307692 46.310624 676.615385 45.942921 676.923077 45.575134 677.230769 45.207266 677.538462 44.839316 677.846154 44.471286 678.153846 44.103176 678.461538 43.734988 678.769231 43.366722 679.076923 42.998379 679.384615 42.629960 679.692308 42.261466 680.000000 41.892898 680.307692 41.524256 680.615385 41.155542 680.923077 40.786756 681.230769 40.417899 681.538462 40.048972 681.846154 39.679976 682.153846 39.310912 682.461538 38.941781 682.769231 38.572583 683.076923 38.203319 683.384615 37.833990 683.692308 37.464598 684.000000 37.095142 684.307692 36.725625 684.615385 36.356046 684.923077 35.986406 685.230769 35.616707 685.538462 35.246949 685.846154 34.877133 686.153846 34.507261 686.461538 34.137332 686.769231 33.767347 687.076923 33.397309 687.384615 33.027217 687.692308 32.657072 688.000000 32.286875 688.307692 31.916627 688.615385 31.546329 688.923077 31.175982 689.230769 30.805587 689.538462 30.435144 689.846154 30.064655 690.153846 29.694119 690.461538 29.323539 690.769231 28.952915 691.076923 28.582247 691.384615 28.211537 691.692308 27.840786 692.000000 27.469994 692.307692 27.099162 692.615385 26.728292 692.923077 26.357383 693.230769 25.986437 693.538462 25.615455 693.846154 25.244438 694.153846 24.873386 694.461538 24.502300 694.769231 24.131182 695.076923 23.760031 695.384615 23.388850 695.692308 23.017638 696.000000 22.646397 696.307692 22.275127 696.615385 21.903830 696.923077 21.532506 697.230769 21.161156 697.538462 20.789781 697.846154 20.418382 698.153846 20.046959 698.461538 19.675514 698.769231 19.304047 699.076923 18.932560 699.384615 18.561053 699.692308 18.189527 700.000000 17.817982 700.307692 17.446421 700.615385 17.074842 700.923077 16.703249 701.230769 16.331641 701.538462 15.960018 701.846154 15.588383 702.153846 15.216736 702.461538 14.845078 702.769231 14.473409 703.076923 14.101731 703.384615 13.730044 703.692308 13.358349 704.000000 12.986648 704.307692 12.614940 704.615385 12.243227 704.923077 11.871510 705.230769 11.499789 705.538462 11.128066 705.846154 10.756341 706.153846 10.384615 706.153846 540.000000" /></g></g><g class="titles" /><g class="plot overlay" transform="translate(60, 20)"><g class="series serie-0 color-0"><g class="dots"><circle class="dot reactive tooltip-trigger" cx="13.846153846153847" cy="529.6153846153845" r="2.5" /><desc class="value">2,985,913,034(kWh)</desc><desc class="x top">13.846153846153847</desc><desc class="y top">529.6153846153845</desc><desc class="x_label">2549</desc></g><g class="dots"><circle class="dot reactive tooltip-trigger" cx="90.76923076923076" cy="480.37175256264794" r="2.5" /><desc class="value">3,134,742,987(kWh)</desc><desc class="x top">90.76923076923076</desc><desc class="y top">480.37175256264794</desc><desc class="x_label">2550</desc></g><g class="dots"><circle class="dot reactive tooltip-trigger" cx="167.69230769230765" cy="460.35349645217343" r="2.5" /><desc class="value">3,195,244,538(kWh)</desc><desc class="x top">167.69230769230765</desc><desc class="y top">460.35349645217343</desc><desc class="x_label">2551</desc></g><g class="dots"><circle class="dot reactive tooltip-trigger" cx="244.6153846153846" cy="401.86855426272757" r="2.5" /><desc class="value">3,372,004,676(kWh)</desc><desc class="x top">244.6153846153846</desc><desc class="y top">401.86855426272757</desc><desc class="x_label">2552</desc></g><g class="dots"><circle class="dot reactive tooltip-trigger" cx="321.5384615384615" cy="281.2727432799476" r="2.5" /><desc class="value">3,736,483,658(kWh)</desc><desc class="x top">321.5384615384615</desc><desc class="y top">281.2727432799476</desc><desc class="x_label">2553</desc></g><g class="dots"><circle class="dot reactive tooltip-trigger" cx="398.46153846153845" cy="322.26012244363284" r="2.5" /><desc class="value">3,612,606,733(kWh)</desc><desc class="x left top">398.46153846153845</desc><desc class="y left top">322.26012244363284</desc><desc class="x_label">2554</desc></g><g class="dots"><circle class="dot reactive tooltip-trigger" cx="475.38461538461536" cy="157.53190268498003" r="2.5" /><desc class="value">4,110,467,922(kWh)</desc><desc class="x left">475.38461538461536</desc><desc class="y left">157.53190268498003</desc><desc class="x_label">2555</desc></g><g class="dots"><circle class="dot reactive tooltip-trigger" cx="552.3076923076923" cy="153.80246251261468" r="2.5" /><desc class="value">4,121,739,479(kWh)</desc><desc class="x left">552.3076923076923</desc><desc class="y left">153.80246251261468</desc><desc class="x_label">2556</desc></g><g class="dots"><circle class="dot reactive tooltip-trigger" cx="629.2307692307692" cy="101.06641260604022" r="2.5" /><desc class="value">4,281,124,632(kWh)</desc><desc class="x left">629.2307692307692</desc><desc class="y left">101.06641260604022</desc><desc class="x_label">2557</desc></g><g class="dots"><circle class="dot reactive tooltip-trigger" cx="706.1538461538461" cy="10.384615384615245" r="2.5" /><desc class="value">4,555,193,929(kWh)</desc><desc class="x left">706.1538461538461</desc><desc class="y left">10.384615384615245</desc><desc class="x_label">2558</desc></g></g></g><g class="plot text-overlay" transform="translate(60, 20)"><g class="series serie-0 color-0" /></g><g class="plot tooltip-overlay" transform="translate(60, 20)"><g class="tooltip" style="opacity: 0" transform="translate(0 0)"><rect class="tooltip-box" height="0" rx="0" ry="0" width="0" /><g class="text" /></g></g></g></svg>