<?xml version='1.0' encoding='utf-8'?>
<svg xmlns:xlink="http://www.w3.org/1999/xlink" class="pygal-chart" id="chart-6bfec2b1-0711-4034-9e72-fa35d80c64db" viewBox="0 0 800 600" xmlns="http://www.w3.org/2000/svg"><!--Generated with pygal 2.3.0 (etree) ©Kozea 2012-2016 on 2016-12-08--><!--http://pygal.org--><!--http://github.com/Kozea/pygal--><defs><style type="text/css">#chart-6bfec2b1-0711-4034-9e72-fa35d80c64db{-webkit-user-select:none;-webkit-font-smoothing:antialiased;font-family:Consolas,"Liberation Mono",Menlo,Courier,monospace}#chart-6bfec2b1-0711-4034-9e72-fa35d80c64db .title{font-family:Consolas,"Liberation Mono",Menlo,Courier,monospace;font-size:16px}#chart-6bfec2b1-0711-4034-9e72-fa35d80c64db .legends .legend text{font-family:Consolas,"Liberation Mono",Menlo,Courier,monospace;font-size:14px}#chart-6bfec2b1-0711-4034-9e72-fa35d80c64db .axis text{font-family:Consolas,"Liberation Mono",Menlo,Courier,monospace;font-size:10px}#chart-6bfec2b1-0711-4034-9e72-fa35d80c64db .axis text.major{font-family:Consolas,"Liberation Mono",Menlo,Courier,monospace;font-size:10px}#chart-6bfec2b1-0711-4034-9e72-fa35d80c64db .text-overlay text.value{font-family:Consolas,"Liberation Mono",Menlo,Courier,monospace;font-size:16px}#chart-6bfec2b1-0711-4034-9e72-fa35d80c64db .text-overlay text.label{font-family:Consolas,"Liberation Mono",Menlo,Courier,monospace;font-size:10px}#chart-6bfec2b1-0711-4034-9e72-fa35d80c64db .tooltip{font-family:Consolas,"Liberation Mono",Menlo,Courier,monospace;font-size:14px}#chart-6bfec2b1-0711-4034-9e72-fa35d80c64db text.no_data{font-family:Consolas,"Liberation Mono",Menlo,Courier,monospace;font-size:64px}
#chart-6bfec2b1-0711-4034-9e72-fa35d80c64db{background-color:rgba(249,249,249,1)}#chart-6bfec2b1-0711-4034-9e72-fa35d80c64db path,#chart-6bfec2b1-0711-4034-9e72-fa35d80c64db line,#chart-6bfec2b1-0711-4034-9e72-fa35d80c64db rect,#chart-6bfec2b1-0711-4034-9e72-fa35d80c64db circle{-webkit-transition:150ms;-moz-transition:150ms;transition:150ms}#chart-6bfec2b1-0711-4034-9e72-fa35d80c64db .graph &gt; .background{fill:rgba(249,249,249,1)}#chart-6bfec2b1-0711-4034-9e72-fa35d80c64db .plot &gt; .background{fill:rgba(255,255,255,1)}#chart-6bfec2b1-0711-4034-9e72-fa35d80c64db .graph{fill:rgba(0,0,0,.87)}#chart-6bfec2b1-0711-4034-9e72-fa35d80c64db text.no_data{fill:rgba(0,0,0,1)}#chart-6bfec2b1-0711-4034-9e72-fa35d80c64db .title{fill:rgba(0,0,0,1)}#chart-6bfec2b1-0711-4034-9e72-fa35d80c64db .legends .legend text{fill:rgba(0,0,0,.87)}#chart-6bfec2b1-0711-4034-9e72-fa35d80c64db .legends .legend:hover text{fill:rgba(0,0,0,1)}#chart-6bfec2b1-0711-4034-9e72-fa35d80c64db .axis .line{stroke:rgba(0,0,0,1)}#chart-6bfec2b1-0711-4034-9e72-fa35d80c64db .axis .guide.line{stroke:rgba(0,0,0,.54)}#chart-6bfec2b1-0711-4034-9e72-fa35d80c64db .axis .major.line{stroke:rgba(0,0,0,.87)}#chart-6bfec2b1-0711-4034-9e72-fa35d80c64db .axis text.major{fill:rgba(0,0,0,1)}#chart-6bfec2b1-0711-4034-9e72-fa35d80c64db .axis.y .guides:hover .guide.line,#chart-6bfec2b1-0711-4034-9e72-fa35d80c64db .line-graph .axis.x .guides:hover .guide.line,#chart-6bfec2b1-0711-4034-9e72-fa35d80c64db .stackedline-graph .axis.x .guides:hover .guide.line,#chart-6bfec2b1-0711-4034-9e72-fa35d80c64db .xy-graph .axis.x .guides:hover .guide.line{stroke:rgba(0,0,0,1)}#chart-6bfec2b1-0711-4034-9e72-fa35d80c64db .axis .guides:hover text{fill:rgba(0,0,0,1)}#chart-6bfec2b1-0711-4034-9e72-fa35d80c64db .reactive{fill-opacity:.7;stroke-opacity:.8}#chart-6bfec2b1-0711-4034-9e72-fa35d80c64db .ci{stroke:rgba(0,0,0,.87)}#chart-6bfec2b1-0711-4034-9e72-fa35d80c64db .reactive.active,#chart-6bfec2b1-0711-4034-9e72-fa35d80c64db .active .reactive{fill-opacity:.8;stroke-opacity:.9;stroke-width:4}#chart-6bfec2b1-0711-4034-9e72-fa35d80c64db .ci .reactive.active{stroke-width:1.5}#chart-6bfec2b1-0711-4034-9e72-fa35d80c64db .series text{fill:rgba(0,0,0,1)}#chart-6bfec2b1-0711-4034-9e72-fa35d80c64db .tooltip rect{fill:rgba(255,255,255,1);stroke:rgba(0,0,0,1);-webkit-transition:opacity 150ms;-moz-transition:opacity 150ms;transition:opacity 150ms}#chart-6bfec2b1-0711-4034-9e72-fa35d80c64db .tooltip .label{fill:rgba(0,0,0,.87)}#chart-6bfec2b1-0711-4034-9e72-fa35d80c64db .tooltip .label{fill:rgba(0,0,0,.87)}#chart-6bfec2b1-0711-4034-9e72-fa35d80c64db .tooltip .legend{font-size:.8em;fill:rgba(0,0,0,.54)}#chart-6bfec2b1-0711-4034-9e72-fa35d80c64db .tooltip .x_label{font-size:.6em;fill:rgba(0,0,0,1)}#chart-6bfec2b1-0711-4034-9e72-fa35d80c64db .tooltip .xlink{font-size:.5em;text-decoration:underline}#chart-6bfec2b1-0711-4034-9e72-fa35d80c64db .tooltip .value{font-size:1.5em}#chart-6bfec2b1-0711-4034-9e72-fa35d80c64db .bound{font-size:.5em}#chart-6bfec2b1-0711-4034-9e72-fa35d80c64db .max-value{font-size:.75em;fill:rgba(0,0,0,.54)}#chart-6bfec2b1-0711-4034-9e72-fa35d80c64db .map-element{fill:rgba(255,255,255,1);stroke:rgba(0,0,0,.54) !important}#chart-6bfec2b1-0711-4034-9e72-fa35d80c64db .map-element .reactive{fill-opacity:inherit;stroke-opacity:inherit}#chart-6bfec2b1-0711-4034-9e72-fa35d80c64db .color-0,#chart-6bfec2b1-0711-4034-9e72-fa35d80c64db .color-0 a:visited{stroke:#e86fa0;fill:#e86fa0}#chart-6bfec2b1-0711-4034-9e72-fa35d80c64db .text-overlay .color-0 text{fill:black}
#chart-6bfec2b1-0711-4034-9e72-fa35d80c64db text.no_data{text-anchor:middle}#chart-6bfec2b1-0711-4034-9e72-fa35d80c64db .guide.line{fill:none}#chart-6bfec2b1-0711-4034-9e72-fa35d80c64db .centered{text-anchor:middle}#chart-6bfec2b1-0711-4034-9e72-fa35d80c64db .title{text-anchor:middle}#chart-6bfec2b1-0711-4034-9e72-fa35d80c64db .legends .legend text{fill-opacity:1}#chart-6bfec2b1-0711-4034-9e72-fa35d80c64db .axis.x text{text-anchor:middle}#chart-6bfec2b1-0711-4034-9e72-fa35d80c64db .axis.x:not(.web) text[transform]{text-anchor:start}#chart-6bfec2b1-0711-4034-9e72-fa35d80c64db .axis.x:not(.web) text[transform].backwards{text-anchor:end}#chart-6bfec2b1-0711-4034-9e72-fa35d80c64db .axis.y text{text-anchor:end}#chart-6bfec2b1-0711-4034-9e72-fa35d80c64db .axis.y text[transform].backwards{text-anchor:start}#chart-6bfec2b1-0711-4034-9e72-fa35d80c64db .axis.y2 text{text-anchor:start}#chart-6bfec2b1-0711-4034-9e72-fa35d80c64db .axis.y2 text[transform].backwards{text-anchor:end}#chart-6bfec2b1-0711-4034-9e72-fa35d80c64db .axis .guide.line{stroke-dasharray:4,4}#chart-6bfec2b1-0711-4034-9e72-fa35d80c64db .axis .major.guide.line{stroke-dasharray:6,6}#chart-6bfec2b1-0711-4034-9e72-fa35d80c64db .horizontal .axis.y .guide.line,#chart-6bfec2b1-0711-4034-9e72-fa35d80c64db .horizontal .axis.y2 .guide.line,#chart-6bfec2b1-0711-4034-9e72-fa35d80c64db .vertical .axis.x .guide.line{opacity:0}#chart-6bfec2b1-0711-4034-9e72-fa35d80c64db .horizontal .axis.always_show .guide.line,#chart-6bfec2b1-0711-4034-9e72-fa35d80c64db .vertical .axis.always_show .guide.line{opacity:1 !important}#chart-6bfec2b1-0711-4034-9e72-fa35d80c64db .axis.y .guides:hover .guide.line,#chart-6bfec2b1-0711-4034-9e72-fa35d80c64db .axis.y2 .guides:hover .guide.line,#chart-6bfec2b1-0711-4034-9e72-fa35d80c64db .axis.x .guides:hover .guide.line{opacity:1}#chart-6bfec2b1-0711-4034-9e72-fa35d80c64db .axis .guides:hover text{opacity:1}#chart-6bfec2b1-0711-4034-9e72-fa35d80c64db .nofill{fill:none}#chart-6bfec2b1-0711-4034-9e72-fa35d80c64db .subtle-fill{fill-opacity:.2}#chart-6bfec2b1-0711-4034-9e72-fa35d80c64db .dot{stroke-width:1px;fill-opacity:1}#chart-6bfec2b1-0711-4034-9e72-fa35d80c64db .dot.active{stroke-width:5px}#chart-6bfec2b1-0711-4034-9e72-fa35d80c64db .dot.negative{fill:transparent}#chart-6bfec2b1-0711-4034-9e72-fa35d80c64db text,#chart-6bfec2b1-0711-4034-9e72-fa35d80c64db tspan{stroke:none !important}#chart-6bfec2b1-0711-4034-9e72-fa35d80c64db .series text.active{opacity:1}#chart-6bfec2b1-0711-4034-9e72-fa35d80c64db .tooltip rect{fill-opacity:.95;stroke-width:.5}#chart-6bfec2b1-0711-4034-9e72-fa35d80c64db .tooltip text{fill-opacity:1}#chart-6bfec2b1-0711-4034-9e72-fa35d80c64db .showable{visibility:hidden}#chart-6bfec2b1-0711-4034-9e72-fa35d80c64db .showable.shown{visibility:visible}#chart-6bfec2b1-0711-4034-9e72-fa35d80c64db .gauge-background{fill:rgba(229,229,229,1);stroke:none}#chart-6bfec2b1-0711-4034-9e72-fa35d80c64db .bg-lines{stroke:rgba(249,249,249,1);stroke-width:2px}</style><script type="text/javascript">window.pygal = window.pygal || {};window.pygal.config = window.pygal.config || {};window.pygal.config['6bfec2b1-0711-4034-9e72-fa35d80c64db'] = {"no_data_text": "No data", "no_prefix": false, "xrange": null, "print_values_position": "center", "truncate_label": null, "x_labels": ["2549", "2550", "2551", "2552", "2553", "2554", "2555", "2556", "2557", "2558"], "title": null, "force_uri_protocol": "https", "defs": [], "formatter": null, "classes": ["pygal-chart"], "y_labels": null, "rounded_bars": null, "explicit_size": false, "x_labels_major_every": null, "legend_at_bottom_columns": null, "stroke_style": null, "half_pie": false, "spacing": 10, "tooltip_fancy_mode": true, "inverse_y_axis": false, "width": 800, "inner_radius": 0, "interpolation_parameters": {}, "tooltip_border_radius": 0, "style": {"no_data_font_family": "Consolas, \"Liberation Mono\", Menlo, Courier, monospace", "tooltip_font_size": 14, "tooltip_font_family": "Consolas, \"Liberation Mono\", Menlo, Courier, monospace", "stroke_opacity_hover": ".9", "legend_font_family": "Consolas, \"Liberation Mono\", Menlo, Courier, monospace", "font_family": "Consolas, \"Liberation Mono\", Menlo, Courier, monospace", "title_font_family": "Consolas, \"Liberation Mono\", Menlo, Courier, monospace", "background": "rgba(249, 249, 249, 1)", "stroke_opacity": ".8", "foreground": "rgba(0, 0, 0, .87)", "value_background": "rgba(229, 229, 229, 1)", "guide_stroke_dasharray": "4,4", "foreground_subtle": "rgba(0, 0, 0, .54)", "opacity_hover": ".8", "value_font_family": "Consolas, \"Liberation Mono\", Menlo, Courier, monospace", "value_label_font_size": 10, "plot_background": "rgba(255, 255, 255, 1)", "ci_colors": [], "label_font_size": 10, "major_label_font_size": 10, "title_font_size": 16, "no_data_font_size": 64, "value_font_size": 16, "value_colors": [], "label_font_family": "Consolas, \"Liberation Mono\", Menlo, Courier, monospace", "major_guide_stroke_dasharray": "6,6", "transition": "150ms", "foreground_strong": "rgba(0, 0, 0, 1)", "colors": ["#e86fa0", "#e88f6f", "#e8df6f", "#a0e86f", "#6fe88f", "#6fe8df", "#6fa0e8", "#8f6fe8", "#df6fe8", "#e86fa0"], "opacity": ".7", "legend_font_size": 14, "value_label_font_family": "Consolas, \"Liberation Mono\", Menlo, Courier, monospace", "major_label_font_family": "Consolas, \"Liberation Mono\", Menlo, Courier, monospace"}, "x_labels_major_count": null, "interpolation_precision": 250, "missing_value_fill_truncation": "x", "stack_from_top": false, "truncate_legend": null, "show_minor_x_labels": true, "print_zeroes": true, "css": ["file://style.css", "file://graph.css"], "y_label_rotation": 0, "legend_at_bottom": false, "print_values": false, "margin_top": null, "max_scale": 16, "allow_interruptions": false, "show_x_labels": true, "strict": false, "show_x_guides": false, "stroke": true, "margin_left": null, "dynamic_print_values": false, "print_labels": false, "show_y_labels": true, "x_labels_major": null, "range": null, "x_label_rotation": 0, "margin": 20, "zero": 0, "include_x_axis": false, "height": 600, "show_minor_y_labels": true, "show_dots": true, "interpolate": "cubic", "show_y_guides": true, "y_labels_major": null, "box_mode": "extremes", "margin_bottom": null, "order_min": null, "legend_box_size": 12, "fill": true, "show_only_major_dots": false, "js": ["//kozea.github.io/pygal.js/2.0.x/pygal-tooltips.min.js"], "x_title": null, "y_labels_major_every": null, "y_labels_major_count": null, "disable_xml_declaration": false, "y_title": null, "logarithmic": false, "pretty_print": false, "min_scale": 4, "dots_size": 2.5, "margin_right": null, "legends": [null], "secondary_range": null, "show_legend": false}</script><script type="text/javascript" xlink:href="https://kozea.github.io/pygal.js/2.0.x/pygal-tooltips.min.js" /></defs><title>Pygal</title><g class="graph stackedline-graph vertical"><rect class="background" height="600" width="800" x="0" y="0" /><g class="plot" transform="translate(54, 20)"><rect class="background" height="540" width="726.0" x="0" y="0" /><g class="axis y"><path class="line" d="M0.000000 540.000000 h726.000000" /><g class="guides"><path class="guide line" d="M0.000000 422.583461 h726.000000" /><text class="" x="-5" y="426.0834607211817">600M</text><title>600M</title></g><g class="guides"><path class="guide line" d="M0.000000 307.922587 h726.000000" /><text class="" x="-5" y="311.4225870643061">700M</text><title>700M</title></g><g class="guides"><path class="guide line" d="M0.000000 193.261713 h726.000000" /><text class="" x="-5" y="196.7617134074303">800M</text><title>800M</title></g><g class="guides"><path class="guide line" d="M0.000000 78.600840 h726.000000" /><text class="" x="-5" y="82.10083975055454">900M</text><title>900M</title></g></g><g class="axis x"><g class="guides"><path class="line" d="M13.961538 0.000000 v540.000000" /><text class="" x="13.96153846153846" y="555.0">2549</text></g><g class="guides"><path class="guide line" d="M91.525641 0.000000 v540.000000" /><text class="" x="91.52564102564101" y="555.0">2550</text></g><g class="guides"><path class="guide line" d="M169.089744 0.000000 v540.000000" /><text class="" x="169.08974358974356" y="555.0">2551</text></g><g class="guides"><path class="guide line" d="M246.653846 0.000000 v540.000000" /><text class="" x="246.65384615384613" y="555.0">2552</text></g><g class="guides"><path class="guide line" d="M324.217949 0.000000 v540.000000" /><text class="" x="324.21794871794873" y="555.0">2553</text></g><g class="guides"><path class="guide line" d="M401.782051 0.000000 v540.000000" /><text class="" x="401.78205128205127" y="555.0">2554</text></g><g class="guides"><path class="guide line" d="M479.346154 0.000000 v540.000000" /><text class="" x="479.3461538461538" y="555.0">2555</text></g><g class="guides"><path class="guide line" d="M556.910256 0.000000 v540.000000" /><text class="" x="556.9102564102565" y="555.0">2556</text></g><g class="guides"><path class="guide line" d="M634.474359 0.000000 v540.000000" /><text class="" x="634.474358974359" y="555.0">2557</text></g><g class="guides"><path class="guide line" d="M712.038462 0.000000 v540.000000" /><text class="" x="712.0384615384615" y="555.0">2558</text></g></g><g class="series serie-0 color-0"><path class="line reactive" d="M13.961538 540.000000 L13.961538 529.615385 14.271795 529.386704 14.582051 529.158027 14.892308 528.929355 15.202564 528.700691 15.512821 528.472039 15.823077 528.243401 16.133333 528.014780 16.443590 527.786178 16.753846 527.557600 17.064103 527.329046 17.374359 527.100521 17.684615 526.872028 17.994872 526.643568 18.305128 526.415144 18.615385 526.186761 18.925641 525.958419 19.235897 525.730123 19.546154 525.501875 19.856410 525.273678 20.166667 525.045535 20.476923 524.817448 20.787179 524.589420 21.097436 524.361455 21.407692 524.133555 21.717949 523.905722 22.028205 523.677960 22.338462 523.450272 22.648718 523.222660 22.958974 522.995127 23.269231 522.767676 23.579487 522.540310 23.889744 522.313031 24.200000 522.085843 24.510256 521.858748 24.820513 521.631749 25.130769 521.404850 25.441026 521.178051 25.751282 520.951358 26.061538 520.724772 26.371795 520.498296 26.682051 520.271933 26.992308 520.045686 27.302564 519.819558 27.612821 519.593551 27.923077 519.367669 28.233333 519.141914 28.543590 518.916289 28.853846 518.690797 29.164103 518.465440 29.474359 518.240222 29.784615 518.015145 30.094872 517.790212 30.405128 517.565427 30.715385 517.340791 31.025641 517.116308 31.335897 516.891980 31.646154 516.667810 31.956410 516.443802 32.266667 516.219957 32.576923 515.996280 32.887179 515.772771 33.197436 515.549436 33.507692 515.326275 33.817949 515.103293 34.128205 514.880491 34.438462 514.657873 34.748718 514.435442 35.058974 514.213200 35.369231 513.991150 35.679487 513.769296 35.989744 513.547639 36.300000 513.326183 36.610256 513.104930 36.920513 512.883884 37.230769 512.663046 37.541026 512.442421 37.851282 512.222011 38.161538 512.001818 38.471795 511.781846 38.782051 511.562096 39.092308 511.342574 39.402564 511.123280 39.712821 510.904217 40.023077 510.685390 40.333333 510.466799 40.643590 510.248449 40.953846 510.030343 41.264103 509.812482 41.574359 509.594869 41.884615 509.377508 42.194872 509.160402 42.505128 508.943553 42.815385 508.726964 43.125641 508.510637 43.435897 508.294577 43.746154 508.078785 44.056410 507.863264 44.366667 507.648017 44.676923 507.433048 44.987179 507.218358 45.297436 507.003951 45.607692 506.789829 45.917949 506.575996 46.228205 506.362453 46.538462 506.149205 46.848718 505.936253 47.158974 505.723601 47.469231 505.511252 47.779487 505.299208 48.089744 505.087471 48.400000 504.876046 48.710256 504.664934 49.020513 504.454139 49.330769 504.243664 49.641026 504.033510 49.951282 503.823682 50.261538 503.614181 50.571795 503.405011 50.882051 503.196175 51.192308 502.987675 51.502564 502.779514 51.812821 502.571695 52.123077 502.364221 52.433333 502.157095 52.743590 501.950319 53.053846 501.743896 53.364103 501.537830 53.674359 501.332122 53.984615 501.126777 54.294872 500.921796 54.605128 500.717182 54.915385 500.512938 55.225641 500.309068 55.535897 500.105573 55.846154 499.902458 56.156410 499.699724 56.466667 499.497374 56.776923 499.295411 57.087179 499.093839 57.397436 498.892659 57.707692 498.691875 58.017949 498.491490 58.328205 498.291506 58.638462 498.091926 58.948718 497.892753 59.258974 497.693990 59.569231 497.495639 59.879487 497.297704 60.189744 497.100188 60.500000 496.903092 60.810256 496.706420 61.120513 496.510176 61.430769 496.314361 61.741026 496.118978 62.051282 495.924030 62.361538 495.729521 62.671795 495.535453 62.982051 495.341828 63.292308 495.148650 63.602564 494.955921 63.912821 494.763644 64.223077 494.571823 64.533333 494.380459 64.843590 494.189556 65.153846 493.999117 65.464103 493.809144 65.774359 493.619640 66.084615 493.430608 66.394872 493.242051 66.705128 493.053972 67.015385 492.866373 67.325641 492.679258 67.635897 492.492628 67.946154 492.306488 68.256410 492.120839 68.566667 491.935685 68.876923 491.751029 69.187179 491.566872 69.497436 491.383219 69.807692 491.200072 70.117949 491.017433 70.428205 490.835306 70.738462 490.653694 71.048718 490.472599 71.358974 490.292023 71.669231 490.111971 71.979487 489.932444 72.289744 489.753446 72.600000 489.574979 72.910256 489.397047 73.220513 489.219651 73.530769 489.042795 73.841026 488.866482 74.151282 488.690715 74.461538 488.515496 74.771795 488.340827 75.082051 488.166713 75.392308 487.993156 75.702564 487.820158 76.012821 487.647723 76.323077 487.475853 76.633333 487.304551 76.943590 487.133820 77.253846 486.963663 77.564103 486.794082 77.874359 486.625081 78.184615 486.456662 78.494872 486.288828 78.805128 486.121582 79.115385 485.954927 79.425641 485.788865 79.735897 485.623400 80.046154 485.458534 80.356410 485.294270 80.666667 485.130610 80.976923 484.967559 81.287179 484.805118 81.597436 484.643290 81.907692 484.482078 82.217949 484.321486 82.528205 484.161515 82.838462 484.002168 83.148718 483.843450 83.458974 483.685361 83.769231 483.527906 84.079487 483.371086 84.389744 483.214906 84.700000 483.059367 85.010256 482.904472 85.320513 482.750225 85.630769 482.596627 85.941026 482.443683 86.251282 482.291394 86.561538 482.139764 86.871795 481.988795 87.182051 481.838490 87.492308 481.688853 87.802564 481.539885 88.112821 481.391590 88.423077 481.243971 88.733333 481.097029 89.043590 480.950769 89.353846 480.805193 89.664103 480.660304 89.974359 480.516104 90.284615 480.372597 90.594872 480.229785 90.905128 480.087672 91.215385 479.946259 91.525641 479.805550 91.835897 479.665546 92.146154 479.526244 92.456410 479.387637 92.766667 479.249721 93.076923 479.112489 93.387179 478.975938 93.697436 478.840061 94.007692 478.704852 94.317949 478.570308 94.628205 478.436421 94.938462 478.303187 95.248718 478.170601 95.558974 478.038656 95.869231 477.907348 96.179487 477.776672 96.489744 477.646621 96.800000 477.517191 97.110256 477.388376 97.420513 477.260170 97.730769 477.132569 98.041026 477.005567 98.351282 476.879159 98.661538 476.753338 98.971795 476.628100 99.282051 476.503440 99.592308 476.379352 99.902564 476.255831 100.212821 476.132870 100.523077 476.010466 100.833333 475.888612 101.143590 475.767304 101.453846 475.646535 101.764103 475.526300 102.074359 475.406594 102.384615 475.287412 102.694872 475.168748 103.005128 475.050597 103.315385 474.932954 103.625641 474.815812 103.935897 474.699167 104.246154 474.583014 104.556410 474.467346 104.866667 474.352159 105.176923 474.237447 105.487179 474.123205 105.797436 474.009427 106.107692 473.896109 106.417949 473.783243 106.728205 473.670826 107.038462 473.558852 107.348718 473.447316 107.658974 473.336211 107.969231 473.225533 108.279487 473.115277 108.589744 473.005436 108.900000 472.896006 109.210256 472.786982 109.520513 472.678357 109.830769 472.570126 110.141026 472.462284 110.451282 472.354826 110.761538 472.247747 111.071795 472.141040 111.382051 472.034701 111.692308 471.928724 112.002564 471.823103 112.312821 471.717834 112.623077 471.612911 112.933333 471.508328 113.243590 471.404081 113.553846 471.300164 113.864103 471.196570 114.174359 471.093296 114.484615 470.990336 114.794872 470.887684 115.105128 470.785335 115.415385 470.683283 115.725641 470.581524 116.035897 470.480051 116.346154 470.378860 116.656410 470.277944 116.966667 470.177300 117.276923 470.076920 117.587179 469.976801 117.897436 469.876935 118.207692 469.777319 118.517949 469.677947 118.828205 469.578813 119.138462 469.479912 119.448718 469.381238 119.758974 469.282787 120.069231 469.184552 120.379487 469.086529 120.689744 468.988712 121.000000 468.891095 121.310256 468.793674 121.620513 468.696442 121.930769 468.599395 122.241026 468.502527 122.551282 468.405833 122.861538 468.309308 123.171795 468.212945 123.482051 468.116740 123.792308 468.020687 124.102564 467.924780 124.412821 467.829016 124.723077 467.733387 125.033333 467.637889 125.343590 467.542516 125.653846 467.447263 125.964103 467.352125 126.274359 467.257096 126.584615 467.162170 126.894872 467.067343 127.205128 466.972609 127.515385 466.877962 127.825641 466.783398 128.135897 466.688911 128.446154 466.594495 128.756410 466.500145 129.066667 466.405856 129.376923 466.311622 129.687179 466.217438 129.997436 466.123298 130.307692 466.029198 130.617949 465.935132 130.928205 465.841094 131.238462 465.747079 131.548718 465.653081 131.858974 465.559096 132.169231 465.465118 132.479487 465.371141 132.789744 465.277160 133.100000 465.183170 133.410256 465.089166 133.720513 464.995141 134.030769 464.901091 134.341026 464.807010 134.651282 464.712893 134.961538 464.618734 135.271795 464.524528 135.582051 464.430270 135.892308 464.335955 136.202564 464.241576 136.512821 464.147129 136.823077 464.052607 137.133333 463.958007 137.443590 463.863322 137.753846 463.768547 138.064103 463.673676 138.374359 463.578705 138.684615 463.483628 138.994872 463.388439 139.305128 463.293133 139.615385 463.197705 139.925641 463.102149 140.235897 463.006460 140.546154 462.910632 140.856410 462.814661 141.166667 462.718541 141.476923 462.622266 141.787179 462.525831 142.097436 462.429230 142.407692 462.332459 142.717949 462.235511 143.028205 462.138383 143.338462 462.041067 143.648718 461.943559 143.958974 461.845853 144.269231 461.747944 144.579487 461.649827 144.889744 461.551496 145.200000 461.452946 145.510256 461.354171 145.820513 461.255166 146.130769 461.155926 146.441026 461.056445 146.751282 460.956718 147.061538 460.856740 147.371795 460.756505 147.682051 460.656007 147.992308 460.555242 148.302564 460.454204 148.612821 460.352887 148.923077 460.251286 149.233333 460.149397 149.543590 460.047213 149.853846 459.944729 150.164103 459.841939 150.474359 459.738839 150.784615 459.635423 151.094872 459.531685 151.405128 459.427621 151.715385 459.323224 152.025641 459.218490 152.335897 459.113412 152.646154 459.007987 152.956410 458.902207 153.266667 458.796069 153.576923 458.689565 153.887179 458.582692 154.197436 458.475444 154.507692 458.367815 154.817949 458.259800 155.128205 458.151393 155.438462 458.042590 155.748718 457.933384 156.058974 457.823771 156.369231 457.713745 156.679487 457.603301 156.989744 457.492433 157.300000 457.381135 157.610256 457.269404 157.920513 457.157232 158.230769 457.044615 158.541026 456.931547 158.851282 456.818024 159.161538 456.704039 159.471795 456.589587 159.782051 456.474663 160.092308 456.359261 160.402564 456.243377 160.712821 456.127004 161.023077 456.010137 161.333333 455.892772 161.643590 455.774902 161.953846 455.656522 162.264103 455.537627 162.574359 455.418211 162.884615 455.298269 163.194872 455.177796 163.505128 455.056786 163.815385 454.935234 164.125641 454.813134 164.435897 454.690482 164.746154 454.567271 165.056410 454.443496 165.366667 454.319153 165.676923 454.194235 165.987179 454.068737 166.297436 453.942654 166.607692 453.815980 166.917949 453.688711 167.228205 453.560840 167.538462 453.432362 167.848718 453.303272 168.158974 453.173565 168.469231 453.043234 168.779487 452.912276 169.089744 452.780684 169.400000 452.648453 169.710256 452.515582 170.020513 452.382069 170.330769 452.247913 170.641026 452.113112 170.951282 451.977665 171.261538 451.841571 171.571795 451.704827 171.882051 451.567433 172.192308 451.429388 172.502564 451.290689 172.812821 451.151335 173.123077 451.011325 173.433333 450.870658 173.743590 450.729332 174.053846 450.587346 174.364103 450.444698 174.674359 450.301387 174.984615 450.157411 175.294872 450.012769 175.605128 449.867460 175.915385 449.721482 176.225641 449.574833 176.535897 449.427513 176.846154 449.279520 177.156410 449.130853 177.466667 448.981509 177.776923 448.831488 178.087179 448.680788 178.397436 448.529409 178.707692 448.377347 179.017949 448.224603 179.328205 448.071174 179.638462 447.917059 179.948718 447.762257 180.258974 447.606766 180.569231 447.450585 180.879487 447.293713 181.189744 447.136147 181.500000 446.977887 181.810256 446.818932 182.120513 446.659279 182.430769 446.498928 182.741026 446.337876 183.051282 446.176123 183.361538 446.013667 183.671795 445.850507 183.982051 445.686641 184.292308 445.522068 184.602564 445.356786 184.912821 445.190795 185.223077 445.024092 185.533333 444.856676 185.843590 444.688546 186.153846 444.519700 186.464103 444.350137 186.774359 444.179856 187.084615 444.008854 187.394872 443.837132 187.705128 443.664686 188.015385 443.491517 188.325641 443.317621 188.635897 443.142999 188.946154 442.967649 189.256410 442.791568 189.566667 442.614756 189.876923 442.437212 190.187179 442.258933 190.497436 442.079919 190.807692 441.900168 191.117949 441.719678 191.428205 441.538449 191.738462 441.356479 192.048718 441.173766 192.358974 440.990309 192.669231 440.806106 192.979487 440.621156 193.289744 440.435459 193.600000 440.249011 193.910256 440.061812 194.220513 439.873861 194.530769 439.685156 194.841026 439.495695 195.151282 439.305478 195.461538 439.114502 195.771795 438.922767 196.082051 438.730270 196.392308 438.537012 196.702564 438.342989 197.012821 438.148200 197.323077 437.952646 197.633333 437.756322 197.943590 437.559230 198.253846 437.361366 198.564103 437.162730 198.874359 436.963320 199.184615 436.763135 199.494872 436.562173 199.805128 436.360433 200.115385 436.157913 200.425641 435.954613 200.735897 435.750530 201.046154 435.545663 201.356410 435.340011 201.666667 435.133573 201.976923 434.926346 202.287179 434.718330 202.597436 434.509523 202.907692 434.299924 203.217949 434.089531 203.528205 433.878343 203.838462 433.666358 204.148718 433.453576 204.458974 433.239994 204.769231 433.025611 205.079487 432.810426 205.389744 432.594438 205.700000 432.377644 206.010256 432.160044 206.320513 431.941635 206.630769 431.722418 206.941026 431.502390 207.251282 431.281549 207.561538 431.059895 207.871795 430.837426 208.182051 430.614141 208.492308 430.390038 208.802564 430.165115 209.112821 429.939372 209.423077 429.712807 209.733333 429.485418 210.043590 429.257204 210.353846 429.028164 210.664103 428.798296 210.974359 428.567599 211.284615 428.336072 211.594872 428.103712 211.905128 427.870519 212.215385 427.636491 212.525641 427.401626 212.835897 427.165924 213.146154 426.929383 213.456410 426.692002 213.766667 426.453778 214.076923 426.214711 214.387179 425.974799 214.697436 425.734041 215.007692 425.492435 215.317949 425.249980 215.628205 425.006675 215.938462 424.762518 216.248718 424.517507 216.558974 424.271642 216.869231 424.024921 217.179487 423.777342 217.489744 423.528904 217.800000 423.279605 218.110256 423.029445 218.420513 422.778422 218.730769 422.526533 219.041026 422.273779 219.351282 422.020157 219.661538 421.765667 219.971795 421.510306 220.282051 421.254073 220.592308 420.996967 220.902564 420.738986 221.212821 420.480129 221.523077 420.220395 221.833333 419.959782 222.143590 419.698289 222.453846 419.435914 222.764103 419.172656 223.074359 418.908514 223.384615 418.643485 223.694872 418.377569 224.005128 418.110764 224.315385 417.843069 224.625641 417.574483 224.935897 417.305003 225.246154 417.034629 225.556410 416.763359 225.866667 416.491192 226.176923 416.218126 226.487179 415.944159 226.797436 415.669292 227.107692 415.393521 227.417949 415.116846 227.728205 414.839265 228.038462 414.560776 228.348718 414.281379 228.658974 414.001072 228.969231 413.719854 229.279487 413.437723 229.589744 413.154677 229.900000 412.870715 230.210256 412.585836 230.520513 412.300039 230.830769 412.013322 231.141026 411.725683 231.451282 411.437121 231.761538 411.147635 232.071795 410.857224 232.382051 410.565885 232.692308 410.273618 233.002564 409.980421 233.312821 409.686292 233.623077 409.391231 233.933333 409.095235 234.243590 408.798304 234.553846 408.500436 234.864103 408.201629 235.174359 407.901882 235.484615 407.601194 235.794872 407.299564 236.105128 406.996989 236.415385 406.693469 236.725641 406.389001 237.035897 406.083586 237.346154 405.777220 237.656410 405.469903 237.966667 405.161634 238.276923 404.852410 238.587179 404.542231 238.897436 404.231095 239.207692 403.919001 239.517949 403.605947 239.828205 403.291932 240.138462 402.976954 240.448718 402.661012 240.758974 402.344105 241.069231 402.026231 241.379487 401.707389 241.689744 401.387576 242.000000 401.066793 242.310256 400.745038 242.620513 400.422308 242.930769 400.098603 243.241026 399.773921 243.551282 399.448261 243.861538 399.121622 244.171795 398.794001 244.482051 398.465398 244.792308 398.135811 245.102564 397.805239 245.412821 397.473680 245.723077 397.141133 246.033333 396.807596 246.343590 396.473068 246.653846 396.137548 246.964103 395.801037 247.274359 395.463544 247.584615 395.125083 247.894872 394.785666 248.205128 394.445305 248.515385 394.104014 248.825641 393.761805 249.135897 393.418690 249.446154 393.074683 249.756410 392.729796 250.066667 392.384041 250.376923 392.037431 250.687179 391.689979 250.997436 391.341697 251.307692 390.992598 251.617949 390.642695 251.928205 390.292001 252.238462 389.940527 252.548718 389.588286 252.858974 389.235292 253.169231 388.881557 253.479487 388.527093 253.789744 388.171913 254.100000 387.816030 254.410256 387.459456 254.720513 387.102204 255.030769 386.744287 255.341026 386.385717 255.651282 386.026507 255.961538 385.666669 256.271795 385.306216 256.582051 384.945162 256.892308 384.583517 257.202564 384.221296 257.512821 383.858510 257.823077 383.495172 258.133333 383.131295 258.443590 382.766892 258.753846 382.401975 259.064103 382.036557 259.374359 381.670650 259.684615 381.304267 259.994872 380.937421 260.305128 380.570124 260.615385 380.202389 260.925641 379.834229 261.235897 379.465656 261.546154 379.096682 261.856410 378.727322 262.166667 378.357586 262.476923 377.987488 262.787179 377.617040 263.097436 377.246255 263.407692 376.875146 263.717949 376.503726 264.028205 376.132006 264.338462 375.759999 264.648718 375.387719 264.958974 375.015177 265.269231 374.642387 265.579487 374.269361 265.889744 373.896112 266.200000 373.522651 266.510256 373.148993 266.820513 372.775149 267.130769 372.401133 267.441026 372.026956 267.751282 371.652632 268.061538 371.278173 268.371795 370.903591 268.682051 370.528900 268.992308 370.154112 269.302564 369.779239 269.612821 369.404295 269.923077 369.029291 270.233333 368.654241 270.543590 368.279158 270.853846 367.904052 271.164103 367.528939 271.474359 367.153829 271.784615 366.778736 272.094872 366.403672 272.405128 366.028650 272.715385 365.653683 273.025641 365.278782 273.335897 364.903962 273.646154 364.529234 273.956410 364.154611 274.266667 363.780106 274.576923 363.405731 274.887179 363.031499 275.197436 362.657422 275.507692 362.283514 275.817949 361.909787 276.128205 361.536253 276.438462 361.162925 276.748718 360.789816 277.058974 360.416938 277.369231 360.044305 277.679487 359.671928 277.989744 359.299820 278.300000 358.927994 278.610256 358.556463 278.920513 358.185238 279.230769 357.814334 279.541026 357.443762 279.851282 357.073535 280.161538 356.703665 280.471795 356.334166 280.782051 355.965050 281.092308 355.596330 281.402564 355.228017 281.712821 354.860126 282.023077 354.492668 282.333333 354.125656 282.643590 353.759102 282.953846 353.393020 283.264103 353.027422 283.574359 352.662321 283.884615 352.297729 284.194872 351.933659 284.505128 351.570123 284.815385 351.207134 285.125641 350.844706 285.435897 350.482849 285.746154 350.121578 286.056410 349.760904 286.366667 349.400840 286.676923 349.041400 286.987179 348.682595 287.297436 348.324438 287.607692 347.966942 287.917949 347.610119 288.228205 347.253983 288.538462 346.898545 288.848718 346.543818 289.158974 346.189816 289.469231 345.836550 289.779487 345.484033 290.089744 345.132278 290.400000 344.781298 290.710256 344.431104 291.020513 344.081711 291.330769 343.733130 291.641026 343.385374 291.951282 343.038455 292.261538 342.692387 292.571795 342.347181 292.882051 342.002852 293.192308 341.659410 293.502564 341.316869 293.812821 340.975242 294.123077 340.634540 294.433333 340.294778 294.743590 339.955966 295.053846 339.618119 295.364103 339.281248 295.674359 338.945366 295.984615 338.610486 296.294872 338.276621 296.605128 337.943783 296.915385 337.611984 297.225641 337.281238 297.535897 336.951557 297.846154 336.622953 298.156410 336.295440 298.466667 335.969029 298.776923 335.643734 299.087179 335.319567 299.397436 334.996541 299.707692 334.674669 300.017949 334.353962 300.328205 334.034434 300.638462 333.716098 300.948718 333.398965 301.258974 333.083049 301.569231 332.768362 301.879487 332.454917 302.189744 332.142726 302.500000 331.831803 302.810256 331.522159 303.120513 331.213807 303.430769 330.906761 303.741026 330.601032 304.051282 330.296633 304.361538 329.993577 304.671795 329.691877 304.982051 329.391544 305.292308 329.092593 305.602564 328.795035 305.912821 328.498883 306.223077 328.204149 306.533333 327.910847 306.843590 327.618989 307.153846 327.328587 307.464103 327.039655 307.774359 326.752204 308.084615 326.466247 308.394872 326.181798 308.705128 325.898869 309.015385 325.617471 309.325641 325.337619 309.635897 325.059325 309.946154 324.782600 310.256410 324.507458 310.566667 324.233912 310.876923 323.961974 311.187179 323.691657 311.497436 323.422973 311.807692 323.155935 312.117949 322.890556 312.428205 322.626848 312.738462 322.364824 313.048718 322.104496 313.358974 321.845878 313.669231 321.588981 313.979487 321.333819 314.289744 321.080404 314.600000 320.828748 314.910256 320.578865 315.220513 320.330767 315.530769 320.084466 315.841026 319.839975 316.151282 319.597308 316.461538 319.356475 316.771795 319.117491 317.082051 318.880368 317.392308 318.645118 317.702564 318.411754 318.012821 318.180288 318.323077 317.950734 318.633333 317.723104 318.943590 317.497410 319.253846 317.273665 319.564103 317.051883 319.874359 316.832074 320.184615 316.614253 320.494872 316.398431 320.805128 316.184621 321.115385 315.972837 321.425641 315.763090 321.735897 315.555393 322.046154 315.349759 322.356410 315.146200 322.666667 314.944729 322.976923 314.745360 323.287179 314.548103 323.597436 314.352973 323.907692 314.159981 324.217949 313.969140 324.528205 313.780458 324.838462 313.593920 325.148718 313.409507 325.458974 313.227200 325.769231 313.046978 326.079487 312.868823 326.389744 312.692715 326.700000 312.518634 327.010256 312.346561 327.320513 312.176477 327.630769 312.008362 327.941026 311.842197 328.251282 311.677961 328.561538 311.515636 328.871795 311.355203 329.182051 311.196640 329.492308 311.039931 329.802564 310.885053 330.112821 310.731989 330.423077 310.580719 330.733333 310.431223 331.043590 310.283481 331.353846 310.137475 331.664103 309.993185 331.974359 309.850591 332.284615 309.709673 332.594872 309.570414 332.905128 309.432792 333.215385 309.296788 333.525641 309.162383 333.835897 309.029558 334.146154 308.898292 334.456410 308.768567 334.766667 308.640363 335.076923 308.513661 335.387179 308.388440 335.697436 308.264682 336.007692 308.142367 336.317949 308.021476 336.628205 307.901988 336.938462 307.783886 337.248718 307.667148 337.558974 307.551756 337.869231 307.437690 338.179487 307.324931 338.489744 307.213459 338.800000 307.103255 339.110256 306.994298 339.420513 306.886571 339.730769 306.780053 340.041026 306.674725 340.351282 306.570567 340.661538 306.467560 340.971795 306.365684 341.282051 306.264920 341.592308 306.165248 341.902564 306.066649 342.212821 305.969104 342.523077 305.872593 342.833333 305.777096 343.143590 305.682594 343.453846 305.589067 343.764103 305.496496 344.074359 305.404862 344.384615 305.314145 344.694872 305.224326 345.005128 305.135385 345.315385 305.047302 345.625641 304.960058 345.935897 304.873634 346.246154 304.788010 346.556410 304.703167 346.866667 304.619085 347.176923 304.535745 347.487179 304.453126 347.797436 304.371211 348.107692 304.289979 348.417949 304.209411 348.728205 304.129486 349.038462 304.050187 349.348718 303.971493 349.658974 303.893385 349.969231 303.815843 350.279487 303.738849 350.589744 303.662381 350.900000 303.586422 351.210256 303.510951 351.520513 303.435948 351.830769 303.361396 352.141026 303.287273 352.451282 303.213561 352.761538 303.140240 353.071795 303.067290 353.382051 302.994693 353.692308 302.922428 354.002564 302.850476 354.312821 302.778818 354.623077 302.707434 354.933333 302.636304 355.243590 302.565410 355.553846 302.494732 355.864103 302.424249 356.174359 302.353944 356.484615 302.283796 356.794872 302.213785 357.105128 302.143893 357.415385 302.074099 357.725641 302.004385 358.035897 301.934731 358.346154 301.865117 358.656410 301.795524 358.966667 301.725932 359.276923 301.656323 359.587179 301.586675 359.897436 301.516971 360.207692 301.447190 360.517949 301.377313 360.828205 301.307321 361.138462 301.237194 361.448718 301.166912 361.758974 301.096456 362.069231 301.025807 362.379487 300.954945 362.689744 300.883850 363.000000 300.812504 363.310256 300.740886 363.620513 300.668978 363.930769 300.596759 364.241026 300.524211 364.551282 300.451313 364.861538 300.378046 365.171795 300.304391 365.482051 300.230329 365.792308 300.155839 366.102564 300.080903 366.412821 300.005500 366.723077 299.929612 367.033333 299.853218 367.343590 299.776300 367.653846 299.698838 367.964103 299.620813 368.274359 299.542204 368.584615 299.462993 368.894872 299.383160 369.205128 299.302685 369.515385 299.221549 369.825641 299.139733 370.135897 299.057217 370.446154 298.973982 370.756410 298.890007 371.066667 298.805274 371.376923 298.719764 371.687179 298.633456 371.997436 298.546331 372.307692 298.458370 372.617949 298.369553 372.928205 298.279860 373.238462 298.189273 373.548718 298.097772 373.858974 298.005337 374.169231 297.911949 374.479487 297.817588 374.789744 297.722235 375.100000 297.625871 375.410256 297.528475 375.720513 297.430028 376.030769 297.330512 376.341026 297.229906 376.651282 297.128191 376.961538 297.025347 377.271795 296.921355 377.582051 296.816196 377.892308 296.709850 378.202564 296.602297 378.512821 296.493519 378.823077 296.383495 379.133333 296.272206 379.443590 296.159633 379.753846 296.045756 380.064103 295.930555 380.374359 295.814012 380.684615 295.696106 380.994872 295.576819 381.305128 295.456130 381.615385 295.334020 381.925641 295.210471 382.235897 295.085461 382.546154 294.958972 382.856410 294.830985 383.166667 294.701480 383.476923 294.570436 383.787179 294.437836 384.097436 294.303659 384.407692 294.167886 384.717949 294.030498 385.028205 293.891474 385.338462 293.750796 385.648718 293.608443 385.958974 293.464398 386.269231 293.318639 386.579487 293.171148 386.889744 293.021905 387.200000 292.870890 387.510256 292.718085 387.820513 292.563469 388.130769 292.407023 388.441026 292.248728 388.751282 292.088564 389.061538 291.926512 389.371795 291.762552 389.682051 291.596664 389.992308 291.428830 390.302564 291.259030 390.612821 291.087244 390.923077 290.913452 391.233333 290.737636 391.543590 290.559776 391.853846 290.379852 392.164103 290.197845 392.474359 290.013736 392.784615 289.827504 393.094872 289.639131 393.405128 289.448596 393.715385 289.255882 394.025641 289.060967 394.335897 288.863832 394.646154 288.664459 394.956410 288.462827 395.266667 288.258917 395.576923 288.052710 395.887179 287.844186 396.197436 287.633325 396.507692 287.420109 396.817949 287.204517 397.128205 286.986530 397.438462 286.766129 397.748718 286.543294 398.058974 286.318006 398.369231 286.090245 398.679487 285.859992 398.989744 285.627227 399.300000 285.391931 399.610256 285.154085 399.920513 284.913668 400.230769 284.670661 400.541026 284.425045 400.851282 284.176801 401.161538 283.925909 401.471795 283.672348 401.782051 283.416101 402.092308 283.157154 402.402564 282.895521 402.712821 282.631222 403.023077 282.364277 403.333333 282.094707 403.643590 281.822532 403.953846 281.547772 404.264103 281.270449 404.574359 280.990581 404.884615 280.708189 405.194872 280.423294 405.505128 280.135916 405.815385 279.846075 406.125641 279.553792 406.435897 279.259087 406.746154 278.961980 407.056410 278.662492 407.366667 278.360642 407.676923 278.056452 407.987179 277.749941 408.297436 277.441131 408.607692 277.130040 408.917949 276.816690 409.228205 276.501100 409.538462 276.183292 409.848718 275.863285 410.158974 275.541100 410.469231 275.216757 410.779487 274.890276 411.089744 274.561678 411.400000 274.230983 411.710256 273.898212 412.020513 273.563384 412.330769 273.226520 412.641026 272.887641 412.951282 272.546766 413.261538 272.203916 413.571795 271.859111 413.882051 271.512372 414.192308 271.163719 414.502564 270.813172 414.812821 270.460752 415.123077 270.106479 415.433333 269.750372 415.743590 269.392454 416.053846 269.032743 416.364103 268.671260 416.674359 268.308026 416.984615 267.943060 417.294872 267.576384 417.605128 267.208017 417.915385 266.837980 418.225641 266.466293 418.535897 266.092976 418.846154 265.718050 419.156410 265.341535 419.466667 264.963452 419.776923 264.583820 420.087179 264.202660 420.397436 263.819992 420.707692 263.435837 421.017949 263.050215 421.328205 262.663146 421.638462 262.274651 421.948718 261.884750 422.258974 261.493463 422.569231 261.100811 422.879487 260.706813 423.189744 260.311491 423.500000 259.914864 423.810256 259.516953 424.120513 259.117778 424.430769 258.717359 424.741026 258.315718 425.051282 257.912873 425.361538 257.508846 425.671795 257.103656 425.982051 256.697325 426.292308 256.289872 426.602564 255.881318 426.912821 255.471683 427.223077 255.060987 427.533333 254.649251 427.843590 254.236494 428.153846 253.822739 428.464103 253.408003 428.774359 252.992309 429.084615 252.575676 429.394872 252.158124 429.705128 251.739675 430.015385 251.320347 430.325641 250.900163 430.635897 250.479141 430.946154 250.057302 431.256410 249.634666 431.566667 249.211255 431.876923 248.787088 432.187179 248.362185 432.497436 247.936567 432.807692 247.510254 433.117949 247.083266 433.428205 246.655624 433.738462 246.227349 434.048718 245.798459 434.358974 245.368977 434.669231 244.938921 434.979487 244.508313 435.289744 244.077172 435.600000 243.645519 435.910256 243.213375 436.220513 242.780759 436.530769 242.347692 436.841026 241.914195 437.151282 241.480287 437.461538 241.045988 437.771795 240.611320 438.082051 240.176303 438.392308 239.740957 438.702564 239.305301 439.012821 238.869357 439.323077 238.433145 439.633333 237.996685 439.943590 237.559998 440.253846 237.123103 440.564103 236.686022 440.874359 236.248773 441.184615 235.811379 441.494872 235.373859 441.805128 234.936233 442.115385 234.498521 442.425641 234.060745 442.735897 233.622924 443.046154 233.185079 443.356410 232.747229 443.666667 232.309396 443.976923 231.871600 444.287179 231.433860 444.597436 230.996198 444.907692 230.558633 445.217949 230.121186 445.528205 229.683878 445.838462 229.246727 446.148718 228.809756 446.458974 228.372984 446.769231 227.936431 447.079487 227.500119 447.389744 227.064066 447.700000 226.628294 448.010256 226.192822 448.320513 225.757672 448.630769 225.322863 448.941026 224.888415 449.251282 224.454350 449.561538 224.020687 449.871795 223.587447 450.182051 223.154650 450.492308 222.722316 450.802564 222.290466 451.112821 221.859120 451.423077 221.428298 451.733333 220.998020 452.043590 220.568308 452.353846 220.139181 452.664103 219.710659 452.974359 219.282763 453.284615 218.855514 453.594872 218.428931 453.905128 218.003034 454.215385 217.577845 454.525641 217.153384 454.835897 216.729670 455.146154 216.306724 455.456410 215.884567 455.766667 215.463219 456.076923 215.042699 456.387179 214.623029 456.697436 214.204229 457.007692 213.786319 457.317949 213.369319 457.628205 212.953249 457.938462 212.538131 458.248718 212.123984 458.558974 211.710829 458.869231 211.298686 459.179487 210.887575 459.489744 210.477516 459.800000 210.068531 460.110256 209.660638 460.420513 209.253860 460.730769 208.848215 461.041026 208.443724 461.351282 208.040408 461.661538 207.638286 461.971795 207.237380 462.282051 206.837709 462.592308 206.439295 462.902564 206.042156 463.212821 205.646313 463.523077 205.251788 463.833333 204.858599 464.143590 204.466768 464.453846 204.076314 464.764103 203.687259 465.074359 203.299622 465.384615 202.913423 465.694872 202.528684 466.005128 202.145424 466.315385 201.763663 466.625641 201.383422 466.935897 201.004722 467.246154 200.627582 467.556410 200.252024 467.866667 199.878066 468.176923 199.505730 468.487179 199.135036 468.797436 198.766004 469.107692 198.398654 469.417949 198.033007 469.728205 197.669084 470.038462 197.306904 470.348718 196.946487 470.658974 196.587855 470.969231 196.231027 471.279487 195.876024 471.589744 195.522866 471.900000 195.171574 472.210256 194.822167 472.520513 194.474666 472.830769 194.129092 473.141026 193.785464 473.451282 193.443803 473.761538 193.104129 474.071795 192.766463 474.382051 192.430825 474.692308 192.097235 475.002564 191.765714 475.312821 191.436282 475.623077 191.108959 475.933333 190.783765 476.243590 190.460721 476.553846 190.139848 476.864103 189.821165 477.174359 189.504693 477.484615 189.190451 477.794872 188.878462 478.105128 188.568744 478.415385 188.261318 478.725641 187.956205 479.035897 187.653424 479.346154 187.352997 479.656410 187.054937 479.966667 186.759237 480.276923 186.465883 480.587179 186.174862 480.897436 185.886160 481.207692 185.599764 481.517949 185.315660 481.828205 185.033835 482.138462 184.754274 482.448718 184.476965 482.758974 184.201894 483.069231 183.929047 483.379487 183.658412 483.689744 183.389973 484.000000 183.123718 484.310256 182.859634 484.620513 182.597706 484.930769 182.337921 485.241026 182.080265 485.551282 181.824726 485.861538 181.571289 486.171795 181.319942 486.482051 181.070669 486.792308 180.823458 487.102564 180.578296 487.412821 180.335169 487.723077 180.094062 488.033333 179.854964 488.343590 179.617859 488.653846 179.382735 488.964103 179.149578 489.274359 178.918375 489.584615 178.689111 489.894872 178.461774 490.205128 178.236350 490.515385 178.012825 490.825641 177.791185 491.135897 177.571418 491.446154 177.353510 491.756410 177.137447 492.066667 176.923215 492.376923 176.710802 492.687179 176.500193 492.997436 176.291374 493.307692 176.084334 493.617949 175.879057 493.928205 175.675530 494.238462 175.473741 494.548718 175.273674 494.858974 175.075317 495.169231 174.878656 495.479487 174.683678 495.789744 174.490369 496.100000 174.298715 496.410256 174.108704 496.720513 173.920321 497.030769 173.733552 497.341026 173.548385 497.651282 173.364806 497.961538 173.182801 498.271795 173.002357 498.582051 172.823459 498.892308 172.646096 499.202564 172.470252 499.512821 172.295915 499.823077 172.123071 500.133333 171.951707 500.443590 171.781808 500.753846 171.613361 501.064103 171.446354 501.374359 171.280771 501.684615 171.116601 501.994872 170.953828 502.305128 170.792440 502.615385 170.632423 502.925641 170.473764 503.235897 170.316448 503.546154 170.160463 503.856410 170.005795 504.166667 169.852431 504.476923 169.700356 504.787179 169.549557 505.097436 169.400021 505.407692 169.251734 505.717949 169.104683 506.028205 168.958854 506.338462 168.814233 506.648718 168.670807 506.958974 168.528563 507.269231 168.387487 507.579487 168.247565 507.889744 168.108784 508.200000 167.971130 508.510256 167.834590 508.820513 167.699150 509.130769 167.564796 509.441026 167.431516 509.751282 167.299295 510.061538 167.168120 510.371795 167.037978 510.682051 166.908854 510.992308 166.780736 511.302564 166.653610 511.612821 166.527462 511.923077 166.402279 512.233333 166.278047 512.543590 166.154752 512.853846 166.032382 513.164103 165.910922 513.474359 165.790359 513.784615 165.670680 514.094872 165.551870 514.405128 165.433917 514.715385 165.316807 515.025641 165.200525 515.335897 165.085060 515.646154 164.970397 515.956410 164.856522 516.266667 164.743423 516.576923 164.631085 516.887179 164.519495 517.197436 164.408640 517.507692 164.298505 517.817949 164.189078 518.128205 164.080345 518.438462 163.972292 518.748718 163.864906 519.058974 163.758173 519.369231 163.652079 519.679487 163.546612 519.989744 163.441757 520.300000 163.337501 520.610256 163.233831 520.920513 163.130733 521.230769 163.028193 521.541026 162.926198 521.851282 162.824734 522.161538 162.723788 522.471795 162.623346 522.782051 162.523395 523.092308 162.423920 523.402564 162.324910 523.712821 162.226349 524.023077 162.128225 524.333333 162.030524 524.643590 161.933232 524.953846 161.836336 525.264103 161.739823 525.574359 161.643678 525.884615 161.547888 526.194872 161.452440 526.505128 161.357320 526.815385 161.262515 527.125641 161.168011 527.435897 161.073794 527.746154 160.979851 528.056410 160.886169 528.366667 160.792733 528.676923 160.699531 528.987179 160.606548 529.297436 160.513772 529.607692 160.421188 529.917949 160.328784 530.228205 160.236545 530.538462 160.144458 530.848718 160.052509 531.158974 159.960686 531.469231 159.868974 531.779487 159.777360 532.089744 159.685830 532.400000 159.594371 532.710256 159.502969 533.020513 159.411610 533.330769 159.320282 533.641026 159.228971 533.951282 159.137662 534.261538 159.046343 534.571795 158.955000 534.882051 158.863620 535.192308 158.772188 535.502564 158.680692 535.812821 158.589117 536.123077 158.497451 536.433333 158.405679 536.743590 158.313788 537.053846 158.221765 537.364103 158.129597 537.674359 158.037268 537.984615 157.944767 538.294872 157.852079 538.605128 157.759191 538.915385 157.666089 539.225641 157.572760 539.535897 157.479190 539.846154 157.385366 540.156410 157.291274 540.466667 157.196900 540.776923 157.102232 541.087179 157.007255 541.397436 156.911957 541.707692 156.816322 542.017949 156.720339 542.328205 156.623993 542.638462 156.527270 542.948718 156.430158 543.258974 156.332643 543.569231 156.234711 543.879487 156.136348 544.189744 156.037541 544.500000 155.938277 544.810256 155.838542 545.120513 155.738323 545.430769 155.637605 545.741026 155.536376 546.051282 155.434621 546.361538 155.332328 546.671795 155.229482 546.982051 155.126071 547.292308 155.022080 547.602564 154.917496 547.912821 154.812306 548.223077 154.706496 548.533333 154.600052 548.843590 154.492961 549.153846 154.385209 549.464103 154.276784 549.774359 154.167670 550.084615 154.057855 550.394872 153.947326 550.705128 153.836068 551.015385 153.724068 551.325641 153.611313 551.635897 153.497788 551.946154 153.383482 552.256410 153.268379 552.566667 153.152466 552.876923 153.035730 553.187179 152.918158 553.497436 152.799735 553.807692 152.680448 554.117949 152.560284 554.428205 152.439229 554.738462 152.317270 555.048718 152.194393 555.358974 152.070584 555.669231 151.945830 555.979487 151.820117 556.289744 151.693433 556.600000 151.565762 556.910256 151.437092 557.220513 151.307413 557.530769 151.176722 557.841026 151.045025 558.151282 150.912321 558.461538 150.778616 558.771795 150.643910 559.082051 150.508206 559.392308 150.371508 559.702564 150.233816 560.012821 150.095135 560.323077 149.955467 560.633333 149.814813 560.943590 149.673177 561.253846 149.530561 561.564103 149.386968 561.874359 149.242400 562.184615 149.096860 562.494872 148.950350 562.805128 148.802873 563.115385 148.654431 563.425641 148.505027 563.735897 148.354663 564.046154 148.203342 564.356410 148.051067 564.666667 147.897840 564.976923 147.743663 565.287179 147.588539 565.597436 147.432471 565.907692 147.275461 566.217949 147.117512 566.528205 146.958626 566.838462 146.798806 567.148718 146.638054 567.458974 146.476372 567.769231 146.313764 568.079487 146.150232 568.389744 145.985779 568.700000 145.820406 569.010256 145.654116 569.320513 145.486913 569.630769 145.318798 569.941026 145.149775 570.251282 144.979844 570.561538 144.809010 570.871795 144.637275 571.182051 144.464641 571.492308 144.291110 571.802564 144.116686 572.112821 143.941371 572.423077 143.765167 572.733333 143.588077 573.043590 143.410103 573.353846 143.231248 573.664103 143.051515 573.974359 142.870905 574.284615 142.689423 574.594872 142.507069 574.905128 142.323847 575.215385 142.139759 575.525641 141.954807 575.835897 141.768995 576.146154 141.582325 576.456410 141.394798 576.766667 141.206419 577.076923 141.017189 577.387179 140.827111 577.697436 140.636187 578.007692 140.444420 578.317949 140.251813 578.628205 140.058367 578.938462 139.864087 579.248718 139.668973 579.558974 139.473029 579.869231 139.276257 580.179487 139.078659 580.489744 138.880239 580.800000 138.680999 581.110256 138.480940 581.420513 138.280067 581.730769 138.078381 582.041026 137.875885 582.351282 137.672581 582.661538 137.468472 582.971795 137.263561 583.282051 137.057849 583.592308 136.851341 583.902564 136.644037 584.212821 136.435941 584.523077 136.227055 584.833333 136.017381 585.143590 135.806923 585.453846 135.595683 585.764103 135.383663 586.074359 135.170865 586.384615 134.957293 586.694872 134.742949 587.005128 134.527835 587.315385 134.311955 587.625641 134.095309 587.935897 133.877902 588.246154 133.659735 588.556410 133.440812 588.866667 133.221134 589.176923 133.000704 589.487179 132.779524 589.797436 132.557598 590.107692 132.334928 590.417949 132.111516 590.728205 131.887365 591.038462 131.662477 591.348718 131.436855 591.658974 131.210501 591.969231 130.983418 592.279487 130.755609 592.589744 130.527076 592.900000 130.297821 593.210256 130.067848 593.520513 129.837158 593.830769 129.605754 594.141026 129.373638 594.451282 129.140814 594.761538 128.907284 595.071795 128.673050 595.382051 128.438115 595.692308 128.202481 596.002564 127.966151 596.312821 127.729128 596.623077 127.491413 596.933333 127.253010 597.243590 127.013921 597.553846 126.774148 597.864103 126.533695 598.174359 126.292563 598.484615 126.050755 598.794872 125.808274 599.105128 125.565122 599.415385 125.321302 599.725641 125.076817 600.035897 124.831668 600.346154 124.585858 600.656410 124.339390 600.966667 124.092267 601.276923 123.844490 601.587179 123.596063 601.897436 123.346988 602.207692 123.097268 602.517949 122.846905 602.828205 122.595901 603.138462 122.344259 603.448718 122.091982 603.758974 121.839073 604.069231 121.585533 604.379487 121.331365 604.689744 121.076572 605.000000 120.821157 605.310256 120.565121 605.620513 120.308468 605.930769 120.051200 606.241026 119.793319 606.551282 119.534828 606.861538 119.275730 607.171795 119.016027 607.482051 118.755721 607.792308 118.494816 608.102564 118.233313 608.412821 117.971216 608.723077 117.708526 609.033333 117.445246 609.343590 117.181380 609.653846 116.916928 609.964103 116.651895 610.274359 116.386282 610.584615 116.120092 610.894872 115.853327 611.205128 115.585991 611.515385 115.318085 611.825641 115.049612 612.135897 114.780575 612.446154 114.510975 612.756410 114.240817 613.066667 113.970102 613.376923 113.698832 613.687179 113.427011 613.997436 113.154640 614.307692 112.881723 614.617949 112.608262 614.928205 112.334259 615.238462 112.059718 615.548718 111.784639 615.858974 111.509027 616.169231 111.232883 616.479487 110.956211 616.789744 110.679012 617.100000 110.401289 617.410256 110.123044 617.720513 109.844281 618.030769 109.565002 618.341026 109.285209 618.651282 109.004905 618.961538 108.724092 619.271795 108.442773 619.582051 108.160951 619.892308 107.878627 620.202564 107.595805 620.512821 107.312487 620.823077 107.028676 621.133333 106.744373 621.443590 106.459583 621.753846 106.174306 622.064103 105.888546 622.374359 105.602305 622.684615 105.315586 622.994872 105.028392 623.305128 104.740724 623.615385 104.452585 623.925641 104.163979 624.235897 103.874906 624.546154 103.585371 624.856410 103.295375 625.166667 103.004922 625.476923 102.714013 625.787179 102.422650 626.097436 102.130838 626.407692 101.838578 626.717949 101.545872 627.028205 101.252724 627.338462 100.959135 627.648718 100.665109 627.958974 100.370647 628.269231 100.075753 628.579487 99.780429 628.889744 99.484677 629.200000 99.188500 629.510256 98.891901 629.820513 98.594881 630.130769 98.297444 630.441026 97.999593 630.751282 97.701329 631.061538 97.402655 631.371795 97.103573 631.682051 96.804087 631.992308 96.504199 632.302564 96.203911 632.612821 95.903226 632.923077 95.602146 633.233333 95.300674 633.543590 94.998813 633.853846 94.696564 634.164103 94.393931 634.474359 94.090916 634.784615 93.787521 635.094872 93.483749 635.405128 93.179600 635.715385 92.875076 636.025641 92.570179 636.335897 92.264910 636.646154 91.959270 636.956410 91.653262 637.266667 91.346887 637.576923 91.040145 637.887179 90.733040 638.197436 90.425572 638.507692 90.117742 638.817949 89.809553 639.128205 89.501005 639.438462 89.192101 639.748718 88.882842 640.058974 88.573229 640.369231 88.263264 640.679487 87.952949 640.989744 87.642284 641.300000 87.331272 641.610256 87.019913 641.920513 86.708210 642.230769 86.396165 642.541026 86.083777 642.851282 85.771050 643.161538 85.457984 643.471795 85.144581 643.782051 84.830843 644.092308 84.516771 644.402564 84.202367 644.712821 83.887631 645.023077 83.572567 645.333333 83.257174 645.643590 82.941455 645.953846 82.625412 646.264103 82.309045 646.574359 81.992356 646.884615 81.675347 647.194872 81.358019 647.505128 81.040374 647.815385 80.722414 648.125641 80.404139 648.435897 80.085552 648.746154 79.766653 649.056410 79.447445 649.366667 79.127929 649.676923 78.808106 649.987179 78.487978 650.297436 78.167546 650.607692 77.846813 650.917949 77.525779 651.228205 77.204446 651.538462 76.882815 651.848718 76.560889 652.158974 76.238668 652.469231 75.916154 652.779487 75.593348 653.089744 75.270253 653.400000 74.946870 653.710256 74.623199 654.020513 74.299244 654.330769 73.975004 654.641026 73.650482 654.951282 73.325679 655.261538 73.000598 655.571795 72.675238 655.882051 72.349602 656.192308 72.023691 656.502564 71.697508 656.812821 71.371052 657.123077 71.044326 657.433333 70.717332 657.743590 70.390071 658.053846 70.062544 658.364103 69.734752 658.674359 69.406699 658.984615 69.078384 659.294872 68.749810 659.605128 68.420977 659.915385 68.091889 660.225641 67.762545 660.535897 67.432947 660.846154 67.103098 661.156410 66.772999 661.466667 66.442650 661.776923 66.112054 662.087179 65.781212 662.397436 65.450126 662.707692 65.118797 663.017949 64.787227 663.328205 64.455416 663.638462 64.123368 663.948718 63.791083 664.258974 63.458562 664.569231 63.125808 664.879487 62.792822 665.189744 62.459605 665.500000 62.126158 665.810256 61.792484 666.120513 61.458584 666.430769 61.124459 666.741026 60.790111 667.051282 60.455542 667.361538 60.120752 667.671795 59.785744 667.982051 59.450519 668.292308 59.115079 668.602564 58.779424 668.912821 58.443557 669.223077 58.107479 669.533333 57.771191 669.843590 57.434696 670.153846 57.097994 670.464103 56.761087 670.774359 56.423977 671.084615 56.086665 671.394872 55.749152 671.705128 55.411441 672.015385 55.073532 672.325641 54.735428 672.635897 54.397130 672.946154 54.058638 673.256410 53.719956 673.566667 53.381083 673.876923 53.042023 674.187179 52.702776 674.497436 52.363343 674.807692 52.023727 675.117949 51.683929 675.428205 51.343950 675.738462 51.003792 676.048718 50.663457 676.358974 50.322945 676.669231 49.982259 676.979487 49.641400 677.289744 49.300370 677.600000 48.959169 677.910256 48.617800 678.220513 48.276264 678.530769 47.934563 678.841026 47.592697 679.151282 47.250670 679.461538 46.908481 679.771795 46.566133 680.082051 46.223627 680.392308 45.880965 680.702564 45.538148 681.012821 45.195178 681.323077 44.852056 681.633333 44.508783 681.943590 44.165362 682.253846 43.821794 682.564103 43.478080 682.874359 43.134222 683.184615 42.790221 683.494872 42.446079 683.805128 42.101798 684.115385 41.757378 684.425641 41.412821 684.735897 41.068130 685.046154 40.723305 685.356410 40.378348 685.666667 40.033260 685.976923 39.688044 686.287179 39.342700 686.597436 38.997230 686.907692 38.651635 687.217949 38.305918 687.528205 37.960079 687.838462 37.614120 688.148718 37.268043 688.458974 36.921849 688.769231 36.575540 689.079487 36.229117 689.389744 35.882581 689.700000 35.535935 690.010256 35.189179 690.320513 34.842316 690.630769 34.495346 690.941026 34.148272 691.251282 33.801095 691.561538 33.453815 691.871795 33.106436 692.182051 32.758958 692.492308 32.411383 692.802564 32.063712 693.112821 31.715947 693.423077 31.368090 693.733333 31.020141 694.043590 30.672103 694.353846 30.323977 694.664103 29.975764 694.974359 29.627467 695.284615 29.279086 695.594872 28.930622 695.905128 28.582079 696.215385 28.233457 696.525641 27.884757 696.835897 27.535981 697.146154 27.187131 697.456410 26.838208 697.766667 26.489214 698.076923 26.140150 698.387179 25.791017 698.697436 25.441818 699.007692 25.092554 699.317949 24.743225 699.628205 24.393835 699.938462 24.044384 700.248718 23.694874 700.558974 23.345306 700.869231 22.995681 701.179487 22.646003 701.489744 22.296271 701.800000 21.946487 702.110256 21.596654 702.420513 21.246772 702.730769 20.896842 703.041026 20.546868 703.351282 20.196849 703.661538 19.846788 703.971795 19.496685 704.282051 19.146544 704.592308 18.796364 704.902564 18.446148 705.212821 18.095897 705.523077 17.745613 705.833333 17.395296 706.143590 17.044950 706.453846 16.694574 706.764103 16.344171 707.074359 15.993743 707.384615 15.643290 707.694872 15.292814 708.005128 14.942318 708.315385 14.591801 708.625641 14.241266 708.935897 13.890715 709.246154 13.540148 709.556410 13.189568 709.866667 12.838975 710.176923 12.488372 710.487179 12.137760 710.797436 11.787140 711.107692 11.436514 711.417949 11.085884 711.728205 10.735250 712.038462 10.384615 712.038462 540.000000" /></g></g><g class="titles" /><g class="plot overlay" transform="translate(54, 20)"><g class="series serie-0 color-0"><g class="dots"><circle class="dot reactive tooltip-trigger" cx="13.96153846153846" cy="529.6153846153846" r="2.5" /><desc class="value">506,653,490(kWh)</desc><desc class="x top">13.96153846153846</desc><desc class="y top">529.6153846153846</desc><desc class="x_label">2549</desc></g><g class="dots"><circle class="dot reactive tooltip-trigger" cx="91.52564102564101" cy="479.80554990366625" r="2.5" /><desc class="value">550,094,494(kWh)</desc><desc class="x top">91.52564102564101</desc><desc class="y top">479.80554990366625</desc><desc class="x_label">2550</desc></g><g class="dots"><circle class="dot reactive tooltip-trigger" cx="169.08974358974356" cy="452.78068370728744" r="2.5" /><desc class="value">573,663,882(kWh)</desc><desc class="x top">169.08974358974356</desc><desc class="y top">452.78068370728744</desc><desc class="x_label">2551</desc></g><g class="dots"><circle class="dot reactive tooltip-trigger" cx="246.65384615384613" cy="396.13754823433237" r="2.5" /><desc class="value">623,064,461(kWh)</desc><desc class="x top">246.65384615384613</desc><desc class="y top">396.13754823433237</desc><desc class="x_label">2552</desc></g><g class="dots"><circle class="dot reactive tooltip-trigger" cx="324.21794871794873" cy="313.96913994772865" r="2.5" /><desc class="value">694,726,577(kWh)</desc><desc class="x top">324.21794871794873</desc><desc class="y top">313.96913994772865</desc><desc class="x_label">2553</desc></g><g class="dots"><circle class="dot reactive tooltip-trigger" cx="401.78205128205127" cy="283.41610133849093" r="2.5" /><desc class="value">721,373,015(kWh)</desc><desc class="x left top">401.78205128205127</desc><desc class="y left top">283.41610133849093</desc><desc class="x_label">2554</desc></g><g class="dots"><circle class="dot reactive tooltip-trigger" cx="479.3461538461538" cy="187.35299665344803" r="2.5" /><desc class="value">805,153,211(kWh)</desc><desc class="x left">479.3461538461538</desc><desc class="y left">187.35299665344803</desc><desc class="x_label">2555</desc></g><g class="dots"><circle class="dot reactive tooltip-trigger" cx="556.9102564102565" cy="151.43709240553284" r="2.5" /><desc class="value">836,476,803(kWh)</desc><desc class="x left">556.9102564102565</desc><desc class="y left">151.43709240553284</desc><desc class="x_label">2556</desc></g><g class="dots"><circle class="dot reactive tooltip-trigger" cx="634.474358974359" cy="94.09091607896806" r="2.5" /><desc class="value">886,490,530(kWh)</desc><desc class="x left">634.474358974359</desc><desc class="y left">94.09091607896806</desc><desc class="x_label">2557</desc></g><g class="dots"><circle class="dot reactive tooltip-trigger" cx="712.0384615384615" cy="10.384615384615358" r="2.5" /><desc class="value">959,493,899(kWh)</desc><desc class="x left">712.0384615384615</desc><desc class="y left">10.384615384615358</desc><desc class="x_label">2558</desc></g></g></g><g class="plot text-overlay" transform="translate(54, 20)"><g class="series serie-0 color-0" /></g><g class="plot tooltip-overlay" transform="translate(54, 20)"><g class="tooltip" style="opacity: 0" transform="translate(0 0)"><rect class="tooltip-box" height="0" rx="0" ry="0" width="0" /><g class="text" /></g></g></g></svg>