<?xml version='1.0' encoding='utf-8'?>
<svg xmlns:xlink="http://www.w3.org/1999/xlink" class="pygal-chart" id="chart-3eaabebc-40c7-4ae5-b242-272424c315f0" viewBox="0 0 800 600" xmlns="http://www.w3.org/2000/svg"><!--Generated with pygal 2.3.0 (etree) ©Kozea 2012-2016 on 2016-12-08--><!--http://pygal.org--><!--http://github.com/Kozea/pygal--><defs><style type="text/css">#chart-3eaabebc-40c7-4ae5-b242-272424c315f0{-webkit-user-select:none;-webkit-font-smoothing:antialiased;font-family:Consolas,"Liberation Mono",Menlo,Courier,monospace}#chart-3eaabebc-40c7-4ae5-b242-272424c315f0 .title{font-family:Consolas,"Liberation Mono",Menlo,Courier,monospace;font-size:16px}#chart-3eaabebc-40c7-4ae5-b242-272424c315f0 .legends .legend text{font-family:Consolas,"Liberation Mono",Menlo,Courier,monospace;font-size:14px}#chart-3eaabebc-40c7-4ae5-b242-272424c315f0 .axis text{font-family:Consolas,"Liberation Mono",Menlo,Courier,monospace;font-size:10px}#chart-3eaabebc-40c7-4ae5-b242-272424c315f0 .axis text.major{font-family:Consolas,"Liberation Mono",Menlo,Courier,monospace;font-size:10px}#chart-3eaabebc-40c7-4ae5-b242-272424c315f0 .text-overlay text.value{font-family:Consolas,"Liberation Mono",Menlo,Courier,monospace;font-size:16px}#chart-3eaabebc-40c7-4ae5-b242-272424c315f0 .text-overlay text.label{font-family:Consolas,"Liberation Mono",Menlo,Courier,monospace;font-size:10px}#chart-3eaabebc-40c7-4ae5-b242-272424c315f0 .tooltip{font-family:Consolas,"Liberation Mono",Menlo,Courier,monospace;font-size:14px}#chart-3eaabebc-40c7-4ae5-b242-272424c315f0 text.no_data{font-family:Consolas,"Liberation Mono",Menlo,Courier,monospace;font-size:64px}
#chart-3eaabebc-40c7-4ae5-b242-272424c315f0{background-color:rgba(249,249,249,1)}#chart-3eaabebc-40c7-4ae5-b242-272424c315f0 path,#chart-3eaabebc-40c7-4ae5-b242-272424c315f0 line,#chart-3eaabebc-40c7-4ae5-b242-272424c315f0 rect,#chart-3eaabebc-40c7-4ae5-b242-272424c315f0 circle{-webkit-transition:150ms;-moz-transition:150ms;transition:150ms}#chart-3eaabebc-40c7-4ae5-b242-272424c315f0 .graph &gt; .background{fill:rgba(249,249,249,1)}#chart-3eaabebc-40c7-4ae5-b242-272424c315f0 .plot &gt; .background{fill:rgba(255,255,255,1)}#chart-3eaabebc-40c7-4ae5-b242-272424c315f0 .graph{fill:rgba(0,0,0,.87)}#chart-3eaabebc-40c7-4ae5-b242-272424c315f0 text.no_data{fill:rgba(0,0,0,1)}#chart-3eaabebc-40c7-4ae5-b242-272424c315f0 .title{fill:rgba(0,0,0,1)}#chart-3eaabebc-40c7-4ae5-b242-272424c315f0 .legends .legend text{fill:rgba(0,0,0,.87)}#chart-3eaabebc-40c7-4ae5-b242-272424c315f0 .legends .legend:hover text{fill:rgba(0,0,0,1)}#chart-3eaabebc-40c7-4ae5-b242-272424c315f0 .axis .line{stroke:rgba(0,0,0,1)}#chart-3eaabebc-40c7-4ae5-b242-272424c315f0 .axis .guide.line{stroke:rgba(0,0,0,.54)}#chart-3eaabebc-40c7-4ae5-b242-272424c315f0 .axis .major.line{stroke:rgba(0,0,0,.87)}#chart-3eaabebc-40c7-4ae5-b242-272424c315f0 .axis text.major{fill:rgba(0,0,0,1)}#chart-3eaabebc-40c7-4ae5-b242-272424c315f0 .axis.y .guides:hover .guide.line,#chart-3eaabebc-40c7-4ae5-b242-272424c315f0 .line-graph .axis.x .guides:hover .guide.line,#chart-3eaabebc-40c7-4ae5-b242-272424c315f0 .stackedline-graph .axis.x .guides:hover .guide.line,#chart-3eaabebc-40c7-4ae5-b242-272424c315f0 .xy-graph .axis.x .guides:hover .guide.line{stroke:rgba(0,0,0,1)}#chart-3eaabebc-40c7-4ae5-b242-272424c315f0 .axis .guides:hover text{fill:rgba(0,0,0,1)}#chart-3eaabebc-40c7-4ae5-b242-272424c315f0 .reactive{fill-opacity:.7;stroke-opacity:.8}#chart-3eaabebc-40c7-4ae5-b242-272424c315f0 .ci{stroke:rgba(0,0,0,.87)}#chart-3eaabebc-40c7-4ae5-b242-272424c315f0 .reactive.active,#chart-3eaabebc-40c7-4ae5-b242-272424c315f0 .active .reactive{fill-opacity:.8;stroke-opacity:.9;stroke-width:4}#chart-3eaabebc-40c7-4ae5-b242-272424c315f0 .ci .reactive.active{stroke-width:1.5}#chart-3eaabebc-40c7-4ae5-b242-272424c315f0 .series text{fill:rgba(0,0,0,1)}#chart-3eaabebc-40c7-4ae5-b242-272424c315f0 .tooltip rect{fill:rgba(255,255,255,1);stroke:rgba(0,0,0,1);-webkit-transition:opacity 150ms;-moz-transition:opacity 150ms;transition:opacity 150ms}#chart-3eaabebc-40c7-4ae5-b242-272424c315f0 .tooltip .label{fill:rgba(0,0,0,.87)}#chart-3eaabebc-40c7-4ae5-b242-272424c315f0 .tooltip .label{fill:rgba(0,0,0,.87)}#chart-3eaabebc-40c7-4ae5-b242-272424c315f0 .tooltip .legend{font-size:.8em;fill:rgba(0,0,0,.54)}#chart-3eaabebc-40c7-4ae5-b242-272424c315f0 .tooltip .x_label{font-size:.6em;fill:rgba(0,0,0,1)}#chart-3eaabebc-40c7-4ae5-b242-272424c315f0 .tooltip .xlink{font-size:.5em;text-decoration:underline}#chart-3eaabebc-40c7-4ae5-b242-272424c315f0 .tooltip .value{font-size:1.5em}#chart-3eaabebc-40c7-4ae5-b242-272424c315f0 .bound{font-size:.5em}#chart-3eaabebc-40c7-4ae5-b242-272424c315f0 .max-value{font-size:.75em;fill:rgba(0,0,0,.54)}#chart-3eaabebc-40c7-4ae5-b242-272424c315f0 .map-element{fill:rgba(255,255,255,1);stroke:rgba(0,0,0,.54) !important}#chart-3eaabebc-40c7-4ae5-b242-272424c315f0 .map-element .reactive{fill-opacity:inherit;stroke-opacity:inherit}#chart-3eaabebc-40c7-4ae5-b242-272424c315f0 .color-0,#chart-3eaabebc-40c7-4ae5-b242-272424c315f0 .color-0 a:visited{stroke:#e86fa0;fill:#e86fa0}#chart-3eaabebc-40c7-4ae5-b242-272424c315f0 .text-overlay .color-0 text{fill:black}
#chart-3eaabebc-40c7-4ae5-b242-272424c315f0 text.no_data{text-anchor:middle}#chart-3eaabebc-40c7-4ae5-b242-272424c315f0 .guide.line{fill:none}#chart-3eaabebc-40c7-4ae5-b242-272424c315f0 .centered{text-anchor:middle}#chart-3eaabebc-40c7-4ae5-b242-272424c315f0 .title{text-anchor:middle}#chart-3eaabebc-40c7-4ae5-b242-272424c315f0 .legends .legend text{fill-opacity:1}#chart-3eaabebc-40c7-4ae5-b242-272424c315f0 .axis.x text{text-anchor:middle}#chart-3eaabebc-40c7-4ae5-b242-272424c315f0 .axis.x:not(.web) text[transform]{text-anchor:start}#chart-3eaabebc-40c7-4ae5-b242-272424c315f0 .axis.x:not(.web) text[transform].backwards{text-anchor:end}#chart-3eaabebc-40c7-4ae5-b242-272424c315f0 .axis.y text{text-anchor:end}#chart-3eaabebc-40c7-4ae5-b242-272424c315f0 .axis.y text[transform].backwards{text-anchor:start}#chart-3eaabebc-40c7-4ae5-b242-272424c315f0 .axis.y2 text{text-anchor:start}#chart-3eaabebc-40c7-4ae5-b242-272424c315f0 .axis.y2 text[transform].backwards{text-anchor:end}#chart-3eaabebc-40c7-4ae5-b242-272424c315f0 .axis .guide.line{stroke-dasharray:4,4}#chart-3eaabebc-40c7-4ae5-b242-272424c315f0 .axis .major.guide.line{stroke-dasharray:6,6}#chart-3eaabebc-40c7-4ae5-b242-272424c315f0 .horizontal .axis.y .guide.line,#chart-3eaabebc-40c7-4ae5-b242-272424c315f0 .horizontal .axis.y2 .guide.line,#chart-3eaabebc-40c7-4ae5-b242-272424c315f0 .vertical .axis.x .guide.line{opacity:0}#chart-3eaabebc-40c7-4ae5-b242-272424c315f0 .horizontal .axis.always_show .guide.line,#chart-3eaabebc-40c7-4ae5-b242-272424c315f0 .vertical .axis.always_show .guide.line{opacity:1 !important}#chart-3eaabebc-40c7-4ae5-b242-272424c315f0 .axis.y .guides:hover .guide.line,#chart-3eaabebc-40c7-4ae5-b242-272424c315f0 .axis.y2 .guides:hover .guide.line,#chart-3eaabebc-40c7-4ae5-b242-272424c315f0 .axis.x .guides:hover .guide.line{opacity:1}#chart-3eaabebc-40c7-4ae5-b242-272424c315f0 .axis .guides:hover text{opacity:1}#chart-3eaabebc-40c7-4ae5-b242-272424c315f0 .nofill{fill:none}#chart-3eaabebc-40c7-4ae5-b242-272424c315f0 .subtle-fill{fill-opacity:.2}#chart-3eaabebc-40c7-4ae5-b242-272424c315f0 .dot{stroke-width:1px;fill-opacity:1}#chart-3eaabebc-40c7-4ae5-b242-272424c315f0 .dot.active{stroke-width:5px}#chart-3eaabebc-40c7-4ae5-b242-272424c315f0 .dot.negative{fill:transparent}#chart-3eaabebc-40c7-4ae5-b242-272424c315f0 text,#chart-3eaabebc-40c7-4ae5-b242-272424c315f0 tspan{stroke:none !important}#chart-3eaabebc-40c7-4ae5-b242-272424c315f0 .series text.active{opacity:1}#chart-3eaabebc-40c7-4ae5-b242-272424c315f0 .tooltip rect{fill-opacity:.95;stroke-width:.5}#chart-3eaabebc-40c7-4ae5-b242-272424c315f0 .tooltip text{fill-opacity:1}#chart-3eaabebc-40c7-4ae5-b242-272424c315f0 .showable{visibility:hidden}#chart-3eaabebc-40c7-4ae5-b242-272424c315f0 .showable.shown{visibility:visible}#chart-3eaabebc-40c7-4ae5-b242-272424c315f0 .gauge-background{fill:rgba(229,229,229,1);stroke:none}#chart-3eaabebc-40c7-4ae5-b242-272424c315f0 .bg-lines{stroke:rgba(249,249,249,1);stroke-width:2px}</style><script type="text/javascript">window.pygal = window.pygal || {};window.pygal.config = window.pygal.config || {};window.pygal.config['3eaabebc-40c7-4ae5-b242-272424c315f0'] = {"no_data_text": "No data", "no_prefix": false, "xrange": null, "print_values_position": "center", "truncate_label": null, "x_labels": ["2555", "2556", "2557", "2558"], "title": null, "force_uri_protocol": "https", "defs": [], "formatter": null, "classes": ["pygal-chart"], "y_labels": null, "rounded_bars": null, "explicit_size": false, "x_labels_major_every": null, "legend_at_bottom_columns": null, "stroke_style": null, "half_pie": false, "spacing": 10, "tooltip_fancy_mode": true, "inverse_y_axis": false, "width": 800, "inner_radius": 0, "interpolation_parameters": {}, "tooltip_border_radius": 0, "style": {"no_data_font_family": "Consolas, \"Liberation Mono\", Menlo, Courier, monospace", "tooltip_font_size": 14, "tooltip_font_family": "Consolas, \"Liberation Mono\", Menlo, Courier, monospace", "stroke_opacity_hover": ".9", "legend_font_family": "Consolas, \"Liberation Mono\", Menlo, Courier, monospace", "font_family": "Consolas, \"Liberation Mono\", Menlo, Courier, monospace", "title_font_family": "Consolas, \"Liberation Mono\", Menlo, Courier, monospace", "background": "rgba(249, 249, 249, 1)", "stroke_opacity": ".8", "foreground": "rgba(0, 0, 0, .87)", "value_background": "rgba(229, 229, 229, 1)", "guide_stroke_dasharray": "4,4", "foreground_subtle": "rgba(0, 0, 0, .54)", "opacity_hover": ".8", "value_font_family": "Consolas, \"Liberation Mono\", Menlo, Courier, monospace", "value_label_font_size": 10, "plot_background": "rgba(255, 255, 255, 1)", "ci_colors": [], "label_font_size": 10, "major_label_font_size": 10, "title_font_size": 16, "no_data_font_size": 64, "value_font_size": 16, "value_colors": [], "label_font_family": "Consolas, \"Liberation Mono\", Menlo, Courier, monospace", "major_guide_stroke_dasharray": "6,6", "transition": "150ms", "foreground_strong": "rgba(0, 0, 0, 1)", "colors": ["#e86fa0", "#e88f6f", "#e8df6f", "#a0e86f", "#6fe88f", "#6fe8df", "#6fa0e8", "#8f6fe8", "#df6fe8", "#e86fa0"], "opacity": ".7", "legend_font_size": 14, "value_label_font_family": "Consolas, \"Liberation Mono\", Menlo, Courier, monospace", "major_label_font_family": "Consolas, \"Liberation Mono\", Menlo, Courier, monospace"}, "x_labels_major_count": null, "interpolation_precision": 250, "missing_value_fill_truncation": "x", "stack_from_top": false, "truncate_legend": null, "show_minor_x_labels": true, "print_zeroes": true, "css": ["file://style.css", "file://graph.css"], "y_label_rotation": 0, "legend_at_bottom": false, "print_values": false, "margin_top": null, "max_scale": 16, "allow_interruptions": false, "show_x_labels": true, "strict": false, "show_x_guides": false, "stroke": true, "margin_left": null, "dynamic_print_values": false, "print_labels": false, "show_y_labels": true, "x_labels_major": null, "range": null, "x_label_rotation": 0, "margin": 20, "zero": 0, "include_x_axis": false, "height": 600, "show_minor_y_labels": true, "show_dots": true, "interpolate": "cubic", "show_y_guides": true, "y_labels_major": null, "box_mode": "extremes", "margin_bottom": null, "order_min": null, "legend_box_size": 12, "fill": true, "show_only_major_dots": false, "js": ["//kozea.github.io/pygal.js/2.0.x/pygal-tooltips.min.js"], "x_title": null, "y_labels_major_every": null, "y_labels_major_count": null, "disable_xml_declaration": false, "y_title": null, "logarithmic": false, "pretty_print": false, "min_scale": 4, "dots_size": 2.5, "margin_right": null, "legends": [null], "secondary_range": null, "show_legend": false}</script><script type="text/javascript" xlink:href="https://kozea.github.io/pygal.js/2.0.x/pygal-tooltips.min.js" /></defs><title>Pygal</title><g class="graph stackedline-graph vertical"><rect class="background" height="600" width="800" x="0" y="0" /><g class="plot" transform="translate(54, 20)"><rect class="background" height="540" width="726.0" x="0" y="0" /><g class="axis y"><path class="line" d="M0.000000 540.000000 h726.000000" /><g class="guides"><path class="guide line" d="M0.000000 504.569360 h726.000000" /><text class="" x="-5" y="508.069360148765">160M</text><title>160M</title></g><g class="guides"><path class="guide line" d="M0.000000 442.289412 h726.000000" /><text class="" x="-5" y="445.7894118142172">170M</text><title>170M</title></g><g class="guides"><path class="guide line" d="M0.000000 380.009463 h726.000000" /><text class="" x="-5" y="383.5094634796694">180M</text><title>180M</title></g><g class="guides"><path class="guide line" d="M0.000000 317.729515 h726.000000" /><text class="" x="-5" y="321.2295151451216">190M</text><title>190M</title></g><g class="guides"><path class="major guide line" d="M0.000000 255.449567 h726.000000" /><text class="major" x="-5" y="258.94956681057374">200M</text><title>200M</title></g><g class="guides"><path class="guide line" d="M0.000000 193.169618 h726.000000" /><text class="" x="-5" y="196.66961847602596">210M</text><title>210M</title></g><g class="guides"><path class="guide line" d="M0.000000 130.889670 h726.000000" /><text class="" x="-5" y="134.38967014147812">220M</text><title>220M</title></g><g class="guides"><path class="guide line" d="M0.000000 68.609722 h726.000000" /><text class="" x="-5" y="72.10972180693034">230M</text><title>230M</title></g></g><g class="axis x"><g class="guides"><path class="line" d="M13.961538 0.000000 v540.000000" /><text class="" x="13.96153846153846" y="555.0">2555</text></g><g class="guides"><path class="guide line" d="M246.653846 0.000000 v540.000000" /><text class="" x="246.65384615384613" y="555.0">2556</text></g><g class="guides"><path class="guide line" d="M479.346154 0.000000 v540.000000" /><text class="" x="479.3461538461538" y="555.0">2557</text></g><g class="guides"><path class="guide line" d="M712.038462 0.000000 v540.000000" /><text class="" x="712.0384615384615" y="555.0">2558</text></g></g><g class="series serie-0 color-0"><path class="line reactive" d="M13.961538 540.000000 L13.961538 529.615385 14.892308 528.066941 15.823077 526.518520 16.753846 524.970146 17.684615 523.421841 18.615385 521.873630 19.546154 520.325535 20.476923 518.777580 21.407692 517.229787 22.338462 515.682180 23.269231 514.134783 24.200000 512.587618 25.130769 511.040709 26.061538 509.494079 26.992308 507.947752 27.923077 506.401750 28.853846 504.856097 29.784615 503.310816 30.715385 501.765930 31.646154 500.221463 32.576923 498.677438 33.507692 497.133878 34.438462 495.590806 35.369231 494.048247 36.300000 492.506222 37.230769 490.964755 38.161538 489.423869 39.092308 487.883589 40.023077 486.343936 40.953846 484.804934 41.884615 483.266607 42.815385 481.728978 43.746154 480.192069 44.676923 478.655905 45.607692 477.120508 46.538462 475.585902 47.469231 474.052110 48.400000 472.519156 49.330769 470.987061 50.261538 469.455851 51.192308 467.925547 52.123077 466.396174 53.053846 464.867755 53.984615 463.340312 54.915385 461.813869 55.846154 460.288449 56.776923 458.764077 57.707692 457.240773 58.638462 455.718563 59.569231 454.197470 60.500000 452.677516 61.430769 451.158724 62.361538 449.641119 63.292308 448.124724 64.223077 446.609560 65.153846 445.095653 66.084615 443.583025 67.015385 442.071699 67.946154 440.561699 68.876923 439.053048 69.807692 437.545769 70.738462 436.039885 71.669231 434.535420 72.600000 433.032397 73.530769 431.530840 74.461538 430.030770 75.392308 428.532213 76.323077 427.035190 77.253846 425.539726 78.184615 424.045843 79.115385 422.553564 80.046154 421.062914 80.976923 419.573915 81.907692 418.086591 82.838462 416.600964 83.769231 415.117058 84.700000 413.634897 85.630769 412.154503 86.561538 410.675900 87.492308 409.199111 88.423077 407.724159 89.353846 406.251068 90.284615 404.779860 91.215385 403.310560 92.146154 401.843190 93.076923 400.377774 94.007692 398.914334 94.938462 397.452895 95.869231 395.993478 96.800000 394.536109 97.730769 393.080809 98.661538 391.627603 99.592308 390.176513 100.523077 388.727562 101.453846 387.280775 102.384615 385.836174 103.315385 384.393782 104.246154 382.953622 105.176923 381.515719 106.107692 380.080095 107.038462 378.646773 107.969231 377.215777 108.900000 375.787130 109.830769 374.360855 110.761538 372.936976 111.692308 371.515515 112.623077 370.096496 113.553846 368.679943 114.484615 367.265878 115.415385 365.854325 116.346154 364.445307 117.276923 363.038847 118.207692 361.634969 119.138462 360.233695 120.069231 358.835050 121.000000 357.439055 121.930769 356.045736 122.861538 354.655114 123.792308 353.267213 124.723077 351.882057 125.653846 350.499668 126.584615 349.120070 127.515385 347.743286 128.446154 346.369339 129.376923 344.998253 130.307692 343.630051 131.238462 342.264756 132.169231 340.902392 133.100000 339.542981 134.030769 338.186547 134.961538 336.833113 135.892308 335.482702 136.823077 334.135338 137.753846 332.791045 138.684615 331.449844 139.615385 330.111760 140.546154 328.776815 141.476923 327.445033 142.407692 326.116438 143.338462 324.791052 144.269231 323.468899 145.200000 322.150002 146.130769 320.834384 147.061538 319.522068 147.992308 318.213079 148.923077 316.907438 149.853846 315.605169 150.784615 314.306296 151.715385 313.010842 152.646154 311.718830 153.576923 310.430283 154.507692 309.145225 155.438462 307.863679 156.369231 306.585667 157.300000 305.311214 158.230769 304.040343 159.161538 302.773076 160.092308 301.509437 161.023077 300.249450 161.953846 298.993138 162.884615 297.740523 163.815385 296.491629 164.746154 295.246480 165.676923 294.005098 166.607692 292.767508 167.538462 291.533731 168.469231 290.303792 169.400000 289.077713 170.330769 287.855519 171.261538 286.637231 172.192308 285.422874 173.123077 284.212471 174.053846 283.006045 174.984615 281.803619 175.915385 280.605216 176.846154 279.410860 177.776923 278.220574 178.707692 277.034382 179.638462 275.852305 180.569231 274.674369 181.500000 273.500595 182.430769 272.331008 183.361538 271.165630 184.292308 270.004486 185.223077 268.847597 186.153846 267.694987 187.084615 266.546680 188.015385 265.402699 188.946154 264.263067 189.876923 263.127807 190.807692 261.996942 191.738462 260.870497 192.669231 259.748494 193.600000 258.630956 194.530769 257.517906 195.461538 256.409369 196.392308 255.305366 197.323077 254.205922 198.253846 253.111060 199.184615 252.020802 200.115385 250.935173 201.046154 249.854195 201.976923 248.777891 202.907692 247.706286 203.838462 246.639402 204.769231 245.577262 205.700000 244.519890 206.630769 243.467309 207.561538 242.419542 208.492308 241.376612 209.423077 240.338543 210.353846 239.305358 211.284615 238.277081 212.215385 237.253734 213.146154 236.235340 214.076923 235.221924 215.007692 234.213508 215.938462 233.210115 216.869231 232.211769 217.800000 231.218494 218.730769 230.230311 219.661538 229.247245 220.592308 228.269319 221.523077 227.296556 222.453846 226.328979 223.384615 225.366612 224.315385 224.409477 225.246154 223.457599 226.176923 222.511000 227.107692 221.569704 228.038462 220.633733 228.969231 219.703112 229.900000 218.777863 230.830769 217.858009 231.761538 216.943575 232.692308 216.034582 233.623077 215.131055 234.553846 214.233017 235.484615 213.340490 236.415385 212.453499 237.346154 211.572066 238.276923 210.696215 239.207692 209.825969 240.138462 208.961351 241.069231 208.102384 242.000000 207.249092 242.930769 206.401499 243.861538 205.559626 244.792308 204.723498 245.723077 203.893137 246.653846 203.068568 247.584615 202.249804 248.515385 201.436826 249.446154 200.629604 250.376923 199.828111 251.307692 199.032318 252.238462 198.242195 253.169231 197.457714 254.100000 196.678847 255.030769 195.905565 255.961538 195.137839 256.892308 194.375641 257.823077 193.618941 258.753846 192.867711 259.684615 192.121923 260.615385 191.381548 261.546154 190.646557 262.476923 189.916921 263.407692 189.192612 264.338462 188.473601 265.269231 187.759859 266.200000 187.051359 267.130769 186.348070 268.061538 185.649964 268.992308 184.957014 269.923077 184.269189 270.853846 183.586462 271.784615 182.908803 272.715385 182.236184 273.646154 181.568577 274.576923 180.905952 275.507692 180.248281 276.438462 179.595536 277.369231 178.947687 278.300000 178.304706 279.230769 177.666565 280.161538 177.033234 281.092308 176.404684 282.023077 175.780888 282.953846 175.161817 283.884615 174.547442 284.815385 173.937733 285.746154 173.332663 286.676923 172.732203 287.607692 172.136325 288.538462 171.544998 289.469231 170.958196 290.400000 170.375889 291.330769 169.798048 292.261538 169.224645 293.192308 168.655651 294.123077 168.091037 295.053846 167.530776 295.984615 166.974837 296.915385 166.423193 297.846154 165.875814 298.776923 165.332673 299.707692 164.793740 300.638462 164.258986 301.569231 163.728384 302.500000 163.201904 303.430769 162.679518 304.361538 162.161196 305.292308 161.646911 306.223077 161.136634 307.153846 160.630335 308.084615 160.127987 309.015385 159.629561 309.946154 159.135027 310.876923 158.644358 311.807692 158.157524 312.738462 157.674498 313.669231 157.195249 314.600000 156.719750 315.530769 156.247972 316.461538 155.779886 317.392308 155.315464 318.323077 154.854676 319.253846 154.397495 320.184615 153.943891 321.115385 153.493836 322.046154 153.047301 322.976923 152.604258 323.907692 152.164677 324.838462 151.728531 325.769231 151.295790 326.700000 150.866425 327.630769 150.440409 328.561538 150.017712 329.492308 149.598306 330.423077 149.182162 331.353846 148.769252 332.284615 148.359546 333.215385 147.953016 334.146154 147.549634 335.076923 147.149370 336.007692 146.752196 336.938462 146.358083 337.869231 145.967004 338.800000 145.578928 339.730769 145.193827 340.661538 144.811673 341.592308 144.432437 342.523077 144.056091 343.453846 143.682604 344.384615 143.311950 345.315385 142.944099 346.246154 142.579023 347.176923 142.216692 348.107692 141.857079 349.038462 141.500154 349.969231 141.145889 350.900000 140.794256 351.830769 140.445225 352.761538 140.098767 353.692308 139.754855 354.623077 139.413459 355.553846 139.074551 356.484615 138.738102 357.415385 138.404084 358.346154 138.072467 359.276923 137.743224 360.207692 137.416325 361.138462 137.091741 362.069231 136.769445 363.000000 136.449407 363.930769 136.131599 364.861538 135.815992 365.792308 135.502557 366.723077 135.191266 367.653846 134.882090 368.584615 134.575000 369.515385 134.269968 370.446154 133.966965 371.376923 133.665962 372.307692 133.366931 373.238462 133.069843 374.169231 132.774669 375.100000 132.481380 376.030769 132.189949 376.961538 131.900346 377.892308 131.612542 378.823077 131.326509 379.753846 131.042219 380.684615 130.759642 381.615385 130.478750 382.546154 130.199514 383.476923 129.921905 384.407692 129.645896 385.338462 129.371456 386.269231 129.098559 387.200000 128.827173 388.130769 128.557272 389.061538 128.288827 389.992308 128.021808 390.923077 127.756187 391.853846 127.491936 392.784615 127.229026 393.715385 126.967427 394.646154 126.707112 395.576923 126.448052 396.507692 126.190218 397.438462 125.933581 398.369231 125.678113 399.300000 125.423784 400.230769 125.170568 401.161538 124.918433 402.092308 124.667353 403.023077 124.417298 403.953846 124.168240 404.884615 123.920150 405.815385 123.672999 406.746154 123.426758 407.676923 123.181400 408.607692 122.936895 409.538462 122.693214 410.469231 122.450329 411.400000 122.208212 412.330769 121.966833 413.261538 121.726164 414.192308 121.486176 415.123077 121.246840 416.053846 121.008129 416.984615 120.770012 417.915385 120.532462 418.846154 120.295450 419.776923 120.058947 420.707692 119.822925 421.638462 119.587354 422.569231 119.352206 423.500000 119.117453 424.430769 118.883066 425.361538 118.649015 426.292308 118.415273 427.223077 118.181811 428.153846 117.948600 429.084615 117.715611 430.015385 117.482816 430.946154 117.250186 431.876923 117.017692 432.807692 116.785306 433.738462 116.552999 434.669231 116.320742 435.600000 116.088507 436.530769 115.856265 437.461538 115.623987 438.392308 115.391645 439.323077 115.159210 440.253846 114.926652 441.184615 114.693945 442.115385 114.461058 443.046154 114.227964 443.976923 113.994633 444.907692 113.761037 445.838462 113.527147 446.769231 113.292935 447.700000 113.058372 448.630769 112.823429 449.561538 112.588077 450.492308 112.352288 451.423077 112.116033 452.353846 111.879284 453.284615 111.642011 454.215385 111.404187 455.146154 111.165782 456.076923 110.926768 457.007692 110.687116 457.938462 110.446797 458.869231 110.205783 459.800000 109.964045 460.730769 109.721555 461.661538 109.478283 462.592308 109.234201 463.523077 108.989280 464.453846 108.743493 465.384615 108.496809 466.315385 108.249200 467.246154 108.000639 468.176923 107.751095 469.107692 107.500540 470.038462 107.248946 470.969231 106.996284 471.900000 106.742525 472.830769 106.487641 473.761538 106.231603 474.692308 105.974382 475.623077 105.715949 476.553846 105.456277 477.484615 105.195335 478.415385 104.933097 479.346154 104.669532 480.276923 104.404617 481.207692 104.138354 482.138462 103.870746 483.069231 103.601800 484.000000 103.331521 484.930769 103.059914 485.861538 102.786985 486.792308 102.512739 487.723077 102.237181 488.653846 101.960317 489.584615 101.682153 490.515385 101.402693 491.446154 101.121944 492.376923 100.839910 493.307692 100.556598 494.238462 100.272011 495.169231 99.986157 496.100000 99.699040 497.030769 99.410666 497.961538 99.121040 498.892308 98.830167 499.823077 98.538054 500.753846 98.244704 501.684615 97.950125 502.615385 97.654321 503.546154 97.357297 504.476923 97.059060 505.407692 96.759614 506.338462 96.458965 507.269231 96.157118 508.200000 95.854079 509.130769 95.549854 510.061538 95.244447 510.992308 94.937863 511.923077 94.630110 512.853846 94.321191 513.784615 94.011112 514.715385 93.699880 515.646154 93.387498 516.576923 93.073972 517.507692 92.759309 518.438462 92.443513 519.369231 92.126590 520.300000 91.808545 521.230769 91.489384 522.161538 91.169112 523.092308 90.847734 524.023077 90.525256 524.953846 90.201683 525.884615 89.877021 526.815385 89.551276 527.746154 89.224451 528.676923 88.896554 529.607692 88.567589 530.538462 88.237562 531.469231 87.906479 532.400000 87.574343 533.330769 87.241162 534.261538 86.906941 535.192308 86.571684 536.123077 86.235398 537.053846 85.898087 537.984615 85.559758 538.915385 85.220415 539.846154 84.880065 540.776923 84.538711 541.707692 84.196361 542.638462 83.853018 543.569231 83.508690 544.500000 83.163381 545.430769 82.817096 546.361538 82.469841 547.292308 82.121621 548.223077 81.772442 549.153846 81.422310 550.084615 81.071229 551.015385 80.719205 551.946154 80.366243 552.876923 80.012350 553.807692 79.657529 554.738462 79.301788 555.669231 78.945130 556.600000 78.587563 557.530769 78.229090 558.461538 77.869717 559.392308 77.509451 560.323077 77.148295 561.253846 76.786256 562.184615 76.423340 563.115385 76.059550 564.046154 75.694894 564.976923 75.329376 565.907692 74.963002 566.838462 74.595777 567.769231 74.227706 568.700000 73.858796 569.630769 73.489051 570.561538 73.118477 571.492308 72.747079 572.423077 72.374862 573.353846 72.001833 574.284615 71.627997 575.215385 71.253358 576.146154 70.877923 577.076923 70.501696 578.007692 70.124684 578.938462 69.746891 579.869231 69.368324 580.800000 68.988986 581.730769 68.608885 582.661538 68.228025 583.592308 67.846412 584.523077 67.464051 585.453846 67.080947 586.384615 66.697106 587.315385 66.312534 588.246154 65.927236 589.176923 65.541217 590.107692 65.154482 591.038462 64.767038 591.969231 64.378889 592.900000 63.990041 593.830769 63.600499 594.761538 63.210269 595.692308 62.819356 596.623077 62.427766 597.553846 62.035504 598.484615 61.642575 599.415385 61.248985 600.346154 60.854739 601.276923 60.459843 602.207692 60.064302 603.138462 59.668122 604.069231 59.271308 605.000000 58.873864 605.930769 58.475798 606.861538 58.077114 607.792308 57.677818 608.723077 57.277914 609.653846 56.877409 610.584615 56.476308 611.515385 56.074616 612.446154 55.672339 613.376923 55.269482 614.307692 54.866051 615.238462 54.462051 616.169231 54.057487 617.100000 53.652364 618.030769 53.246689 618.961538 52.840467 619.892308 52.433703 620.823077 52.026402 621.753846 51.618570 622.684615 51.210213 623.615385 50.801335 624.546154 50.391942 625.476923 49.982040 626.407692 49.571634 627.338462 49.160730 628.269231 48.749332 629.200000 48.337446 630.130769 47.925079 631.061538 47.512234 631.992308 47.098918 632.923077 46.685135 633.853846 46.270893 634.784615 45.856194 635.715385 45.441047 636.646154 45.025454 637.576923 44.609423 638.507692 44.192958 639.438462 43.776065 640.369231 43.358750 641.300000 42.941017 642.230769 42.522872 643.161538 42.104321 644.092308 41.685368 645.023077 41.266021 645.953846 40.846283 646.884615 40.426160 647.815385 40.005658 648.746154 39.584781 649.676923 39.163537 650.607692 38.741929 651.538462 38.319964 652.469231 37.897646 653.400000 37.474982 654.330769 37.051976 655.261538 36.628634 656.192308 36.204961 657.123077 35.780964 658.053846 35.356646 658.984615 34.932015 659.915385 34.507074 660.846154 34.081830 661.776923 33.656288 662.707692 33.230453 663.638462 32.804331 664.569231 32.377927 665.500000 31.951247 666.430769 31.524296 667.361538 31.097079 668.292308 30.669603 669.223077 30.241871 670.153846 29.813890 671.084615 29.385666 672.015385 28.957203 672.946154 28.528506 673.876923 28.099583 674.807692 27.670437 675.738462 27.241074 676.669231 26.811500 677.600000 26.381720 678.530769 25.951739 679.461538 25.521564 680.392308 25.091198 681.323077 24.660649 682.253846 24.229921 683.184615 23.799019 684.115385 23.367949 685.046154 22.936717 685.976923 22.505327 686.907692 22.073786 687.838462 21.642098 688.769231 21.210270 689.700000 20.778306 690.630769 20.346212 691.561538 19.913993 692.492308 19.481655 693.423077 19.049203 694.353846 18.616643 695.284615 18.183980 696.215385 17.751219 697.146154 17.318367 698.076923 16.885427 699.007692 16.452406 699.938462 16.019310 700.869231 15.586143 701.800000 15.152911 702.730769 14.719619 703.661538 14.286273 704.592308 13.852878 705.523077 13.419440 706.453846 12.985964 707.384615 12.552456 708.315385 12.118920 709.246154 11.685363 710.176923 11.251790 711.107692 10.818205 712.038462 10.384615 712.038462 540.000000" /></g></g><g class="titles" /><g class="plot overlay" transform="translate(54, 20)"><g class="series serie-0 color-0"><g class="dots"><circle class="dot reactive tooltip-trigger" cx="13.96153846153846" cy="529.6153846153846" r="2.5" /><desc class="value">155,978,477(kWh)</desc><desc class="x top">13.96153846153846</desc><desc class="y top">529.6153846153846</desc><desc class="x_label">2555</desc></g><g class="dots"><circle class="dot reactive tooltip-trigger" cx="246.65384615384613" cy="203.06856784817433" r="2.5" /><desc class="value">208,410,572(kWh)</desc><desc class="x ">246.65384615384613</desc><desc class="y ">203.06856784817433</desc><desc class="x_label">2556</desc></g><g class="dots"><circle class="dot reactive tooltip-trigger" cx="479.3461538461538" cy="104.66953163286598" r="2.5" /><desc class="value">224,210,045(kWh)</desc><desc class="x left">479.3461538461538</desc><desc class="y left">104.66953163286598</desc><desc class="x_label">2557</desc></g><g class="dots"><circle class="dot reactive tooltip-trigger" cx="712.0384615384615" cy="10.384615384615358" r="2.5" /><desc class="value">239,348,933(kWh)</desc><desc class="x left">712.0384615384615</desc><desc class="y left">10.384615384615358</desc><desc class="x_label">2558</desc></g></g></g><g class="plot text-overlay" transform="translate(54, 20)"><g class="series serie-0 color-0" /></g><g class="plot tooltip-overlay" transform="translate(54, 20)"><g class="tooltip" style="opacity: 0" transform="translate(0 0)"><rect class="tooltip-box" height="0" rx="0" ry="0" width="0" /><g class="text" /></g></g></g></svg>