<?xml version='1.0' encoding='utf-8'?>
<svg xmlns:xlink="http://www.w3.org/1999/xlink" class="pygal-chart" id="chart-e60955b1-fd2e-4f54-b0f3-10485da6be3c" viewBox="0 0 800 600" xmlns="http://www.w3.org/2000/svg"><!--Generated with pygal 2.3.0 (etree) ©Kozea 2012-2016 on 2016-12-08--><!--http://pygal.org--><!--http://github.com/Kozea/pygal--><defs><style type="text/css">#chart-e60955b1-fd2e-4f54-b0f3-10485da6be3c{-webkit-user-select:none;-webkit-font-smoothing:antialiased;font-family:Consolas,"Liberation Mono",Menlo,Courier,monospace}#chart-e60955b1-fd2e-4f54-b0f3-10485da6be3c .title{font-family:Consolas,"Liberation Mono",Menlo,Courier,monospace;font-size:16px}#chart-e60955b1-fd2e-4f54-b0f3-10485da6be3c .legends .legend text{font-family:Consolas,"Liberation Mono",Menlo,Courier,monospace;font-size:14px}#chart-e60955b1-fd2e-4f54-b0f3-10485da6be3c .axis text{font-family:Consolas,"Liberation Mono",Menlo,Courier,monospace;font-size:10px}#chart-e60955b1-fd2e-4f54-b0f3-10485da6be3c .axis text.major{font-family:Consolas,"Liberation Mono",Menlo,Courier,monospace;font-size:10px}#chart-e60955b1-fd2e-4f54-b0f3-10485da6be3c .text-overlay text.value{font-family:Consolas,"Liberation Mono",Menlo,Courier,monospace;font-size:16px}#chart-e60955b1-fd2e-4f54-b0f3-10485da6be3c .text-overlay text.label{font-family:Consolas,"Liberation Mono",Menlo,Courier,monospace;font-size:10px}#chart-e60955b1-fd2e-4f54-b0f3-10485da6be3c .tooltip{font-family:Consolas,"Liberation Mono",Menlo,Courier,monospace;font-size:14px}#chart-e60955b1-fd2e-4f54-b0f3-10485da6be3c text.no_data{font-family:Consolas,"Liberation Mono",Menlo,Courier,monospace;font-size:64px}
#chart-e60955b1-fd2e-4f54-b0f3-10485da6be3c{background-color:rgba(249,249,249,1)}#chart-e60955b1-fd2e-4f54-b0f3-10485da6be3c path,#chart-e60955b1-fd2e-4f54-b0f3-10485da6be3c line,#chart-e60955b1-fd2e-4f54-b0f3-10485da6be3c rect,#chart-e60955b1-fd2e-4f54-b0f3-10485da6be3c circle{-webkit-transition:150ms;-moz-transition:150ms;transition:150ms}#chart-e60955b1-fd2e-4f54-b0f3-10485da6be3c .graph &gt; .background{fill:rgba(249,249,249,1)}#chart-e60955b1-fd2e-4f54-b0f3-10485da6be3c .plot &gt; .background{fill:rgba(255,255,255,1)}#chart-e60955b1-fd2e-4f54-b0f3-10485da6be3c .graph{fill:rgba(0,0,0,.87)}#chart-e60955b1-fd2e-4f54-b0f3-10485da6be3c text.no_data{fill:rgba(0,0,0,1)}#chart-e60955b1-fd2e-4f54-b0f3-10485da6be3c .title{fill:rgba(0,0,0,1)}#chart-e60955b1-fd2e-4f54-b0f3-10485da6be3c .legends .legend text{fill:rgba(0,0,0,.87)}#chart-e60955b1-fd2e-4f54-b0f3-10485da6be3c .legends .legend:hover text{fill:rgba(0,0,0,1)}#chart-e60955b1-fd2e-4f54-b0f3-10485da6be3c .axis .line{stroke:rgba(0,0,0,1)}#chart-e60955b1-fd2e-4f54-b0f3-10485da6be3c .axis .guide.line{stroke:rgba(0,0,0,.54)}#chart-e60955b1-fd2e-4f54-b0f3-10485da6be3c .axis .major.line{stroke:rgba(0,0,0,.87)}#chart-e60955b1-fd2e-4f54-b0f3-10485da6be3c .axis text.major{fill:rgba(0,0,0,1)}#chart-e60955b1-fd2e-4f54-b0f3-10485da6be3c .axis.y .guides:hover .guide.line,#chart-e60955b1-fd2e-4f54-b0f3-10485da6be3c .line-graph .axis.x .guides:hover .guide.line,#chart-e60955b1-fd2e-4f54-b0f3-10485da6be3c .stackedline-graph .axis.x .guides:hover .guide.line,#chart-e60955b1-fd2e-4f54-b0f3-10485da6be3c .xy-graph .axis.x .guides:hover .guide.line{stroke:rgba(0,0,0,1)}#chart-e60955b1-fd2e-4f54-b0f3-10485da6be3c .axis .guides:hover text{fill:rgba(0,0,0,1)}#chart-e60955b1-fd2e-4f54-b0f3-10485da6be3c .reactive{fill-opacity:.7;stroke-opacity:.8}#chart-e60955b1-fd2e-4f54-b0f3-10485da6be3c .ci{stroke:rgba(0,0,0,.87)}#chart-e60955b1-fd2e-4f54-b0f3-10485da6be3c .reactive.active,#chart-e60955b1-fd2e-4f54-b0f3-10485da6be3c .active .reactive{fill-opacity:.8;stroke-opacity:.9;stroke-width:4}#chart-e60955b1-fd2e-4f54-b0f3-10485da6be3c .ci .reactive.active{stroke-width:1.5}#chart-e60955b1-fd2e-4f54-b0f3-10485da6be3c .series text{fill:rgba(0,0,0,1)}#chart-e60955b1-fd2e-4f54-b0f3-10485da6be3c .tooltip rect{fill:rgba(255,255,255,1);stroke:rgba(0,0,0,1);-webkit-transition:opacity 150ms;-moz-transition:opacity 150ms;transition:opacity 150ms}#chart-e60955b1-fd2e-4f54-b0f3-10485da6be3c .tooltip .label{fill:rgba(0,0,0,.87)}#chart-e60955b1-fd2e-4f54-b0f3-10485da6be3c .tooltip .label{fill:rgba(0,0,0,.87)}#chart-e60955b1-fd2e-4f54-b0f3-10485da6be3c .tooltip .legend{font-size:.8em;fill:rgba(0,0,0,.54)}#chart-e60955b1-fd2e-4f54-b0f3-10485da6be3c .tooltip .x_label{font-size:.6em;fill:rgba(0,0,0,1)}#chart-e60955b1-fd2e-4f54-b0f3-10485da6be3c .tooltip .xlink{font-size:.5em;text-decoration:underline}#chart-e60955b1-fd2e-4f54-b0f3-10485da6be3c .tooltip .value{font-size:1.5em}#chart-e60955b1-fd2e-4f54-b0f3-10485da6be3c .bound{font-size:.5em}#chart-e60955b1-fd2e-4f54-b0f3-10485da6be3c .max-value{font-size:.75em;fill:rgba(0,0,0,.54)}#chart-e60955b1-fd2e-4f54-b0f3-10485da6be3c .map-element{fill:rgba(255,255,255,1);stroke:rgba(0,0,0,.54) !important}#chart-e60955b1-fd2e-4f54-b0f3-10485da6be3c .map-element .reactive{fill-opacity:inherit;stroke-opacity:inherit}#chart-e60955b1-fd2e-4f54-b0f3-10485da6be3c .color-0,#chart-e60955b1-fd2e-4f54-b0f3-10485da6be3c .color-0 a:visited{stroke:#e86fa0;fill:#e86fa0}#chart-e60955b1-fd2e-4f54-b0f3-10485da6be3c .text-overlay .color-0 text{fill:black}
#chart-e60955b1-fd2e-4f54-b0f3-10485da6be3c text.no_data{text-anchor:middle}#chart-e60955b1-fd2e-4f54-b0f3-10485da6be3c .guide.line{fill:none}#chart-e60955b1-fd2e-4f54-b0f3-10485da6be3c .centered{text-anchor:middle}#chart-e60955b1-fd2e-4f54-b0f3-10485da6be3c .title{text-anchor:middle}#chart-e60955b1-fd2e-4f54-b0f3-10485da6be3c .legends .legend text{fill-opacity:1}#chart-e60955b1-fd2e-4f54-b0f3-10485da6be3c .axis.x text{text-anchor:middle}#chart-e60955b1-fd2e-4f54-b0f3-10485da6be3c .axis.x:not(.web) text[transform]{text-anchor:start}#chart-e60955b1-fd2e-4f54-b0f3-10485da6be3c .axis.x:not(.web) text[transform].backwards{text-anchor:end}#chart-e60955b1-fd2e-4f54-b0f3-10485da6be3c .axis.y text{text-anchor:end}#chart-e60955b1-fd2e-4f54-b0f3-10485da6be3c .axis.y text[transform].backwards{text-anchor:start}#chart-e60955b1-fd2e-4f54-b0f3-10485da6be3c .axis.y2 text{text-anchor:start}#chart-e60955b1-fd2e-4f54-b0f3-10485da6be3c .axis.y2 text[transform].backwards{text-anchor:end}#chart-e60955b1-fd2e-4f54-b0f3-10485da6be3c .axis .guide.line{stroke-dasharray:4,4}#chart-e60955b1-fd2e-4f54-b0f3-10485da6be3c .axis .major.guide.line{stroke-dasharray:6,6}#chart-e60955b1-fd2e-4f54-b0f3-10485da6be3c .horizontal .axis.y .guide.line,#chart-e60955b1-fd2e-4f54-b0f3-10485da6be3c .horizontal .axis.y2 .guide.line,#chart-e60955b1-fd2e-4f54-b0f3-10485da6be3c .vertical .axis.x .guide.line{opacity:0}#chart-e60955b1-fd2e-4f54-b0f3-10485da6be3c .horizontal .axis.always_show .guide.line,#chart-e60955b1-fd2e-4f54-b0f3-10485da6be3c .vertical .axis.always_show .guide.line{opacity:1 !important}#chart-e60955b1-fd2e-4f54-b0f3-10485da6be3c .axis.y .guides:hover .guide.line,#chart-e60955b1-fd2e-4f54-b0f3-10485da6be3c .axis.y2 .guides:hover .guide.line,#chart-e60955b1-fd2e-4f54-b0f3-10485da6be3c .axis.x .guides:hover .guide.line{opacity:1}#chart-e60955b1-fd2e-4f54-b0f3-10485da6be3c .axis .guides:hover text{opacity:1}#chart-e60955b1-fd2e-4f54-b0f3-10485da6be3c .nofill{fill:none}#chart-e60955b1-fd2e-4f54-b0f3-10485da6be3c .subtle-fill{fill-opacity:.2}#chart-e60955b1-fd2e-4f54-b0f3-10485da6be3c .dot{stroke-width:1px;fill-opacity:1}#chart-e60955b1-fd2e-4f54-b0f3-10485da6be3c .dot.active{stroke-width:5px}#chart-e60955b1-fd2e-4f54-b0f3-10485da6be3c .dot.negative{fill:transparent}#chart-e60955b1-fd2e-4f54-b0f3-10485da6be3c text,#chart-e60955b1-fd2e-4f54-b0f3-10485da6be3c tspan{stroke:none !important}#chart-e60955b1-fd2e-4f54-b0f3-10485da6be3c .series text.active{opacity:1}#chart-e60955b1-fd2e-4f54-b0f3-10485da6be3c .tooltip rect{fill-opacity:.95;stroke-width:.5}#chart-e60955b1-fd2e-4f54-b0f3-10485da6be3c .tooltip text{fill-opacity:1}#chart-e60955b1-fd2e-4f54-b0f3-10485da6be3c .showable{visibility:hidden}#chart-e60955b1-fd2e-4f54-b0f3-10485da6be3c .showable.shown{visibility:visible}#chart-e60955b1-fd2e-4f54-b0f3-10485da6be3c .gauge-background{fill:rgba(229,229,229,1);stroke:none}#chart-e60955b1-fd2e-4f54-b0f3-10485da6be3c .bg-lines{stroke:rgba(249,249,249,1);stroke-width:2px}</style><script type="text/javascript">window.pygal = window.pygal || {};window.pygal.config = window.pygal.config || {};window.pygal.config['e60955b1-fd2e-4f54-b0f3-10485da6be3c'] = {"no_data_text": "No data", "no_prefix": false, "xrange": null, "print_values_position": "center", "truncate_label": null, "x_labels": ["2549", "2550", "2551", "2552", "2553", "2554", "2555", "2556", "2557", "2558"], "title": null, "force_uri_protocol": "https", "defs": [], "formatter": null, "classes": ["pygal-chart"], "y_labels": null, "rounded_bars": null, "explicit_size": false, "x_labels_major_every": null, "legend_at_bottom_columns": null, "stroke_style": null, "half_pie": false, "spacing": 10, "tooltip_fancy_mode": true, "inverse_y_axis": false, "width": 800, "inner_radius": 0, "interpolation_parameters": {}, "tooltip_border_radius": 0, "style": {"no_data_font_family": "Consolas, \"Liberation Mono\", Menlo, Courier, monospace", "tooltip_font_size": 14, "tooltip_font_family": "Consolas, \"Liberation Mono\", Menlo, Courier, monospace", "stroke_opacity_hover": ".9", "legend_font_family": "Consolas, \"Liberation Mono\", Menlo, Courier, monospace", "font_family": "Consolas, \"Liberation Mono\", Menlo, Courier, monospace", "title_font_family": "Consolas, \"Liberation Mono\", Menlo, Courier, monospace", "background": "rgba(249, 249, 249, 1)", "stroke_opacity": ".8", "foreground": "rgba(0, 0, 0, .87)", "value_background": "rgba(229, 229, 229, 1)", "guide_stroke_dasharray": "4,4", "foreground_subtle": "rgba(0, 0, 0, .54)", "opacity_hover": ".8", "value_font_family": "Consolas, \"Liberation Mono\", Menlo, Courier, monospace", "value_label_font_size": 10, "plot_background": "rgba(255, 255, 255, 1)", "ci_colors": [], "label_font_size": 10, "major_label_font_size": 10, "title_font_size": 16, "no_data_font_size": 64, "value_font_size": 16, "value_colors": [], "label_font_family": "Consolas, \"Liberation Mono\", Menlo, Courier, monospace", "major_guide_stroke_dasharray": "6,6", "transition": "150ms", "foreground_strong": "rgba(0, 0, 0, 1)", "colors": ["#e86fa0", "#e88f6f", "#e8df6f", "#a0e86f", "#6fe88f", "#6fe8df", "#6fa0e8", "#8f6fe8", "#df6fe8", "#e86fa0"], "opacity": ".7", "legend_font_size": 14, "value_label_font_family": "Consolas, \"Liberation Mono\", Menlo, Courier, monospace", "major_label_font_family": "Consolas, \"Liberation Mono\", Menlo, Courier, monospace"}, "x_labels_major_count": null, "interpolation_precision": 250, "missing_value_fill_truncation": "x", "stack_from_top": false, "truncate_legend": null, "show_minor_x_labels": true, "print_zeroes": true, "css": ["file://style.css", "file://graph.css"], "y_label_rotation": 0, "legend_at_bottom": false, "print_values": false, "margin_top": null, "max_scale": 16, "allow_interruptions": false, "show_x_labels": true, "strict": false, "show_x_guides": false, "stroke": true, "margin_left": null, "dynamic_print_values": false, "print_labels": false, "show_y_labels": true, "x_labels_major": null, "range": null, "x_label_rotation": 0, "margin": 20, "zero": 0, "include_x_axis": false, "height": 600, "show_minor_y_labels": true, "show_dots": true, "interpolate": "cubic", "show_y_guides": true, "y_labels_major": null, "box_mode": "extremes", "margin_bottom": null, "order_min": null, "legend_box_size": 12, "fill": true, "show_only_major_dots": false, "js": ["//kozea.github.io/pygal.js/2.0.x/pygal-tooltips.min.js"], "x_title": null, "y_labels_major_every": null, "y_labels_major_count": null, "disable_xml_declaration": false, "y_title": null, "logarithmic": false, "pretty_print": false, "min_scale": 4, "dots_size": 2.5, "margin_right": null, "legends": [null], "secondary_range": null, "show_legend": false}</script><script type="text/javascript" xlink:href="https://kozea.github.io/pygal.js/2.0.x/pygal-tooltips.min.js" /></defs><title>Pygal</title><g class="graph stackedline-graph vertical"><rect class="background" height="600" width="800" x="0" y="0" /><g class="plot" transform="translate(54, 20)"><rect class="background" height="540" width="726.0" x="0" y="0" /><g class="axis y"><path class="line" d="M0.000000 540.000000 h726.000000" /><g class="guides"><path class="guide line" d="M0.000000 504.392296 h726.000000" /><text class="" x="-5" y="507.8922960834712">370M</text><title>370M</title></g><g class="guides"><path class="guide line" d="M0.000000 458.109990 h726.000000" /><text class="" x="-5" y="461.60998999504085">380M</text><title>380M</title></g><g class="guides"><path class="guide line" d="M0.000000 411.827684 h726.000000" /><text class="" x="-5" y="415.32768390661045">390M</text><title>390M</title></g><g class="guides"><path class="major guide line" d="M0.000000 365.545378 h726.000000" /><text class="major" x="-5" y="369.04537781818004">400M</text><title>400M</title></g><g class="guides"><path class="guide line" d="M0.000000 319.263072 h726.000000" /><text class="" x="-5" y="322.76307172974964">410M</text><title>410M</title></g><g class="guides"><path class="guide line" d="M0.000000 272.980766 h726.000000" /><text class="" x="-5" y="276.48076564131924">420M</text><title>420M</title></g><g class="guides"><path class="guide line" d="M0.000000 226.698460 h726.000000" /><text class="" x="-5" y="230.1984595528889">430M</text><title>430M</title></g><g class="guides"><path class="guide line" d="M0.000000 180.416153 h726.000000" /><text class="" x="-5" y="183.9161534644585">440M</text><title>440M</title></g><g class="guides"><path class="major guide line" d="M0.000000 134.133847 h726.000000" /><text class="major" x="-5" y="137.63384737602814">450M</text><title>450M</title></g><g class="guides"><path class="guide line" d="M0.000000 87.851541 h726.000000" /><text class="" x="-5" y="91.35154128759774">460M</text><title>460M</title></g><g class="guides"><path class="guide line" d="M0.000000 41.569235 h726.000000" /><text class="" x="-5" y="45.06923519916734">470M</text><title>470M</title></g></g><g class="axis x"><g class="guides"><path class="line" d="M13.961538 0.000000 v540.000000" /><text class="" x="13.96153846153846" y="555.0">2549</text></g><g class="guides"><path class="guide line" d="M91.525641 0.000000 v540.000000" /><text class="" x="91.52564102564101" y="555.0">2550</text></g><g class="guides"><path class="guide line" d="M169.089744 0.000000 v540.000000" /><text class="" x="169.08974358974356" y="555.0">2551</text></g><g class="guides"><path class="guide line" d="M246.653846 0.000000 v540.000000" /><text class="" x="246.65384615384613" y="555.0">2552</text></g><g class="guides"><path class="guide line" d="M324.217949 0.000000 v540.000000" /><text class="" x="324.21794871794873" y="555.0">2553</text></g><g class="guides"><path class="guide line" d="M401.782051 0.000000 v540.000000" /><text class="" x="401.78205128205127" y="555.0">2554</text></g><g class="guides"><path class="guide line" d="M479.346154 0.000000 v540.000000" /><text class="" x="479.3461538461538" y="555.0">2555</text></g><g class="guides"><path class="guide line" d="M556.910256 0.000000 v540.000000" /><text class="" x="556.9102564102565" y="555.0">2556</text></g><g class="guides"><path class="guide line" d="M634.474359 0.000000 v540.000000" /><text class="" x="634.474358974359" y="555.0">2557</text></g><g class="guides"><path class="guide line" d="M712.038462 0.000000 v540.000000" /><text class="" x="712.0384615384615" y="555.0">2558</text></g></g><g class="series serie-0 color-0"><path class="line reactive" d="M13.961538 540.000000 L13.961538 529.615385 14.271795 529.188719 14.582051 528.762062 14.892308 528.335424 15.202564 527.908813 15.512821 527.482239 15.823077 527.055710 16.133333 526.629237 16.443590 526.202827 16.753846 525.776491 17.064103 525.350237 17.374359 524.924075 17.684615 524.498014 17.994872 524.072063 18.305128 523.646231 18.615385 523.220527 18.925641 522.794960 19.235897 522.369540 19.546154 521.944276 19.856410 521.519176 20.166667 521.094251 20.476923 520.669509 20.787179 520.244959 21.097436 519.820611 21.407692 519.396474 21.717949 518.972556 22.028205 518.548867 22.338462 518.125417 22.648718 517.702214 22.958974 517.279267 23.269231 516.856586 23.579487 516.434180 23.889744 516.012058 24.200000 515.590229 24.510256 515.168702 24.820513 514.747487 25.130769 514.326592 25.441026 513.906027 25.751282 513.485801 26.061538 513.065924 26.371795 512.646403 26.682051 512.227249 26.992308 511.808471 27.302564 511.390077 27.612821 510.972077 27.923077 510.554480 28.233333 510.137296 28.543590 509.720533 28.853846 509.304200 29.164103 508.888307 29.474359 508.472863 29.784615 508.057877 30.094872 507.643358 30.405128 507.229316 30.715385 506.815759 31.025641 506.402697 31.335897 505.990139 31.646154 505.578093 31.956410 505.166570 32.266667 504.755578 32.576923 504.345127 32.887179 503.935225 33.197436 503.525882 33.507692 503.117107 33.817949 502.708909 34.128205 502.301298 34.438462 501.894281 34.748718 501.487870 35.058974 501.082072 35.369231 500.676897 35.679487 500.272355 35.989744 499.868453 36.300000 499.465202 36.610256 499.062610 36.920513 498.660688 37.230769 498.259443 37.541026 497.858885 37.851282 497.459023 38.161538 497.059867 38.471795 496.661425 38.782051 496.263707 39.092308 495.866722 39.402564 495.470479 39.712821 495.074987 40.023077 494.680255 40.333333 494.286293 40.643590 493.893110 40.953846 493.500714 41.264103 493.109116 41.574359 492.718323 41.884615 492.328346 42.194872 491.939193 42.505128 491.550874 42.815385 491.163398 43.125641 490.776773 43.435897 490.391010 43.746154 490.006117 44.056410 489.622103 44.366667 489.238978 44.676923 488.856751 44.987179 488.475431 45.297436 488.095026 45.607692 487.715547 45.917949 487.337003 46.228205 486.959402 46.538462 486.582753 46.848718 486.207067 47.158974 485.832351 47.469231 485.458616 47.779487 485.085870 48.089744 484.714123 48.400000 484.343383 48.710256 483.973660 49.020513 483.604963 49.330769 483.237301 49.641026 482.870684 49.951282 482.505120 50.261538 482.140619 50.571795 481.777189 50.882051 481.414841 51.192308 481.053582 51.502564 480.693423 51.812821 480.334373 52.123077 479.976440 52.433333 479.619633 52.743590 479.263963 53.053846 478.909438 53.364103 478.556067 53.674359 478.203859 53.984615 477.852824 54.294872 477.502971 54.605128 477.154308 54.915385 476.806846 55.225641 476.460593 55.535897 476.115558 55.846154 475.771751 56.156410 475.429180 56.466667 475.087856 56.776923 474.747786 57.087179 474.408981 57.397436 474.071448 57.707692 473.735199 58.017949 473.400241 58.328205 473.066584 58.638462 472.734236 58.948718 472.403208 59.258974 472.073509 59.569231 471.745146 59.879487 471.418131 60.189744 471.092471 60.500000 470.768176 60.810256 470.445255 61.120513 470.123718 61.430769 469.803572 61.741026 469.484829 62.051282 469.167496 62.361538 468.851583 62.671795 468.537100 62.982051 468.224054 63.292308 467.912456 63.602564 467.602314 63.912821 467.293638 64.223077 466.986437 64.533333 466.680720 64.843590 466.376496 65.153846 466.073775 65.464103 465.772565 65.774359 465.472876 66.084615 465.174716 66.394872 464.878096 66.705128 464.583024 67.015385 464.289509 67.325641 463.997560 67.635897 463.707188 67.946154 463.418400 68.256410 463.131206 68.566667 462.845615 68.876923 462.561636 69.187179 462.279279 69.497436 461.998552 69.807692 461.719465 70.117949 461.442028 70.428205 461.166248 70.738462 460.892135 71.048718 460.619699 71.358974 460.348949 71.669231 460.079893 71.979487 459.812541 72.289744 459.546902 72.600000 459.282985 72.910256 459.020800 73.220513 458.760355 73.530769 458.501660 73.841026 458.244724 74.151282 457.989556 74.461538 457.736165 74.771795 457.484560 75.082051 457.234751 75.392308 456.986746 75.702564 456.740556 76.012821 456.496188 76.323077 456.253652 76.633333 456.012958 76.943590 455.774114 77.253846 455.537130 77.564103 455.302015 77.874359 455.068777 78.184615 454.837427 78.494872 454.607973 78.805128 454.380424 79.115385 454.154790 79.425641 453.931080 79.735897 453.709302 80.046154 453.489467 80.356410 453.271583 80.666667 453.055659 80.976923 452.841705 81.287179 452.629730 81.597436 452.419742 81.907692 452.211752 82.217949 452.005767 82.528205 451.801798 82.838462 451.599854 83.148718 451.399943 83.458974 451.202075 83.769231 451.006259 84.079487 450.812504 84.389744 450.620820 84.700000 450.431215 85.010256 450.243699 85.320513 450.058280 85.630769 449.874969 85.941026 449.693773 86.251282 449.514703 86.561538 449.337767 86.871795 449.162975 87.182051 448.990336 87.492308 448.819858 87.802564 448.651552 88.112821 448.485426 88.423077 448.321489 88.733333 448.159751 89.043590 448.000221 89.353846 447.842907 89.664103 447.687820 89.974359 447.534968 90.284615 447.384360 90.594872 447.236006 90.905128 447.089914 91.215385 446.946094 91.525641 446.804556 91.835897 446.665303 92.146154 446.528325 92.456410 446.393607 92.766667 446.261132 93.076923 446.130886 93.387179 446.002854 93.697436 445.877019 94.007692 445.753367 94.317949 445.631881 94.628205 445.512548 94.938462 445.395350 95.248718 445.280274 95.558974 445.167303 95.869231 445.056422 96.179487 444.947616 96.489744 444.840869 96.800000 444.736166 97.110256 444.633492 97.420513 444.532830 97.730769 444.434167 98.041026 444.337486 98.351282 444.242772 98.661538 444.150009 98.971795 444.059183 99.282051 443.970277 99.592308 443.883277 99.902564 443.798167 100.212821 443.714931 100.523077 443.633555 100.833333 443.554022 101.143590 443.476318 101.453846 443.400427 101.764103 443.326334 102.074359 443.254023 102.384615 443.183479 102.694872 443.114686 103.005128 443.047630 103.315385 442.982294 103.625641 442.918664 103.935897 442.856723 104.246154 442.796457 104.556410 442.737851 104.866667 442.680888 105.176923 442.625553 105.487179 442.571831 105.797436 442.519707 106.107692 442.469166 106.417949 442.420191 106.728205 442.372767 107.038462 442.326879 107.348718 442.282512 107.658974 442.239651 107.969231 442.198279 108.279487 442.158382 108.589744 442.119943 108.900000 442.082949 109.210256 442.047382 109.520513 442.013229 109.830769 441.980473 110.141026 441.949099 110.451282 441.919092 110.761538 441.890437 111.071795 441.863117 111.382051 441.837118 111.692308 441.812424 112.002564 441.789020 112.312821 441.766890 112.623077 441.746019 112.933333 441.726392 113.243590 441.707993 113.553846 441.690807 113.864103 441.674818 114.174359 441.660011 114.484615 441.646371 114.794872 441.633883 115.105128 441.622530 115.415385 441.612297 115.725641 441.603170 116.035897 441.595132 116.346154 441.588169 116.656410 441.582265 116.966667 441.577404 117.276923 441.573571 117.587179 441.570751 117.897436 441.568929 118.207692 441.568088 118.517949 441.568214 118.828205 441.569291 119.138462 441.571304 119.448718 441.574237 119.758974 441.578076 120.069231 441.582804 120.379487 441.588406 120.689744 441.594867 121.000000 441.602171 121.310256 441.610304 121.620513 441.619249 121.930769 441.628991 122.241026 441.639516 122.551282 441.650807 122.861538 441.662849 123.171795 441.675626 123.482051 441.689124 123.792308 441.703327 124.102564 441.718220 124.412821 441.733786 124.723077 441.750012 125.033333 441.766880 125.343590 441.784377 125.653846 441.802487 125.964103 441.821193 126.274359 441.840481 126.584615 441.860336 126.894872 441.880742 127.205128 441.901683 127.515385 441.923145 127.825641 441.945111 128.135897 441.967567 128.446154 441.990497 128.756410 442.013886 129.066667 442.037718 129.376923 442.061978 129.687179 442.086651 129.997436 442.111720 130.307692 442.137171 130.617949 442.162989 130.928205 442.189157 131.238462 442.215662 131.548718 442.242486 131.858974 442.269615 132.169231 442.297033 132.479487 442.324726 132.789744 442.352677 133.100000 442.380871 133.410256 442.409293 133.720513 442.437927 134.030769 442.466759 134.341026 442.495772 134.651282 442.524952 134.961538 442.554282 135.271795 442.583748 135.582051 442.613333 135.892308 442.643024 136.202564 442.672804 136.512821 442.702658 136.823077 442.732570 137.133333 442.762525 137.443590 442.792509 137.753846 442.822504 138.064103 442.852496 138.374359 442.882471 138.684615 442.912411 138.994872 442.942302 139.305128 442.972128 139.615385 443.001875 139.925641 443.031526 140.235897 443.061066 140.546154 443.090480 140.856410 443.119752 141.166667 443.148868 141.476923 443.177811 141.787179 443.206567 142.097436 443.235119 142.407692 443.263453 142.717949 443.291553 143.028205 443.319404 143.338462 443.346990 143.648718 443.374295 143.958974 443.401306 144.269231 443.428006 144.579487 443.454379 144.889744 443.480411 145.200000 443.506085 145.510256 443.531388 145.820513 443.556302 146.130769 443.580813 146.441026 443.604906 146.751282 443.628565 147.061538 443.651774 147.371795 443.674519 147.682051 443.696783 147.992308 443.718552 148.302564 443.739810 148.612821 443.760541 148.923077 443.780731 149.233333 443.800364 149.543590 443.819424 149.853846 443.837897 150.164103 443.855766 150.474359 443.873016 150.784615 443.889633 151.094872 443.905600 151.405128 443.920902 151.715385 443.935523 152.025641 443.949450 152.335897 443.962665 152.646154 443.975154 152.956410 443.986901 153.266667 443.997891 153.576923 444.008108 153.887179 444.017537 154.197436 444.026163 154.507692 444.033970 154.817949 444.040943 155.128205 444.047067 155.438462 444.052325 155.748718 444.056704 156.058974 444.060186 156.369231 444.062758 156.679487 444.064403 156.989744 444.065106 157.300000 444.064852 157.610256 444.063625 157.920513 444.061410 158.230769 444.058192 158.541026 444.053955 158.851282 444.048683 159.161538 444.042362 159.471795 444.034976 159.782051 444.026510 160.092308 444.016948 160.402564 444.006275 160.712821 443.994475 161.023077 443.981533 161.333333 443.967434 161.643590 443.952162 161.953846 443.935702 162.264103 443.918038 162.574359 443.899156 162.884615 443.879039 163.194872 443.857673 163.505128 443.835041 163.815385 443.811129 164.125641 443.785921 164.435897 443.759402 164.746154 443.731557 165.056410 443.702369 165.366667 443.671824 165.676923 443.639906 165.987179 443.606599 166.297436 443.571890 166.607692 443.535761 166.917949 443.498198 167.228205 443.459185 167.538462 443.418706 167.848718 443.376748 168.158974 443.333293 168.469231 443.288327 168.779487 443.241835 169.089744 443.193800 169.400000 443.144210 169.710256 443.093063 170.020513 443.040360 170.330769 442.986100 170.641026 442.930285 170.951282 442.872914 171.261538 442.813988 171.571795 442.753507 171.882051 442.691472 172.192308 442.627883 172.502564 442.562741 172.812821 442.496046 173.123077 442.427799 173.433333 442.357999 173.743590 442.286647 174.053846 442.213744 174.364103 442.139290 174.674359 442.063286 174.984615 441.985732 175.294872 441.906627 175.605128 441.825974 175.915385 441.743771 176.225641 441.660021 176.535897 441.574722 176.846154 441.487875 177.156410 441.399482 177.466667 441.309541 177.776923 441.218054 178.087179 441.125021 178.397436 441.030442 178.707692 440.934319 179.017949 440.836650 179.328205 440.737437 179.638462 440.636680 179.948718 440.534380 180.258974 440.430536 180.569231 440.325150 180.879487 440.218221 181.189744 440.109751 181.500000 439.999739 181.810256 439.888186 182.120513 439.775092 182.430769 439.660458 182.741026 439.544285 183.051282 439.426571 183.361538 439.307319 183.671795 439.186528 183.982051 439.064199 184.292308 438.940332 184.602564 438.814928 184.912821 438.687987 185.223077 438.559509 185.533333 438.429495 185.843590 438.297946 186.153846 438.164861 186.464103 438.030241 186.774359 437.894087 187.084615 437.756398 187.394872 437.617176 187.705128 437.476421 188.015385 437.334132 188.325641 437.190312 188.635897 437.044959 188.946154 436.898075 189.256410 436.749659 189.566667 436.599713 189.876923 436.448236 190.187179 436.295229 190.497436 436.140693 190.807692 435.984627 191.117949 435.827033 191.428205 435.667910 191.738462 435.507260 192.048718 435.345082 192.358974 435.181376 192.669231 435.016144 192.979487 434.849386 193.289744 434.681102 193.600000 434.511293 193.910256 434.339958 194.220513 434.167099 194.530769 433.992715 194.841026 433.816808 195.151282 433.639377 195.461538 433.460424 195.771795 433.279947 196.082051 433.097949 196.392308 432.914429 196.702564 432.729387 197.012821 432.542825 197.323077 432.354741 197.633333 432.165138 197.943590 431.974015 198.253846 431.781373 198.564103 431.587212 198.874359 431.391532 199.184615 431.194335 199.494872 430.995619 199.805128 430.795387 200.115385 430.593637 200.425641 430.390371 200.735897 430.185589 201.046154 429.979292 201.356410 429.771479 201.666667 429.562152 201.976923 429.351310 202.287179 429.138954 202.597436 428.925084 202.907692 428.709702 203.217949 428.492807 203.528205 428.274399 203.838462 428.054479 204.148718 427.833048 204.458974 427.610106 204.769231 427.385653 205.079487 427.159690 205.389744 426.932217 205.700000 426.703235 206.010256 426.472744 206.320513 426.240744 206.630769 426.007235 206.941026 425.772219 207.251282 425.535696 207.561538 425.297665 207.871795 425.058128 208.182051 424.817085 208.492308 424.574536 208.802564 424.330482 209.112821 424.084923 209.423077 423.837859 209.733333 423.589291 210.043590 423.339220 210.353846 423.087645 210.664103 422.834567 210.974359 422.579987 211.284615 422.323905 211.594872 422.066321 211.905128 421.807236 212.215385 421.546650 212.525641 421.284563 212.835897 421.020977 213.146154 420.755891 213.456410 420.489306 213.766667 420.221222 214.076923 419.951640 214.387179 419.680559 214.697436 419.407982 215.007692 419.133907 215.317949 418.858335 215.628205 418.581267 215.938462 418.302704 216.248718 418.022644 216.558974 417.741090 216.869231 417.458041 217.179487 417.173498 217.489744 416.887461 217.800000 416.599930 218.110256 416.310907 218.420513 416.020390 218.730769 415.728382 219.041026 415.434882 219.351282 415.139890 219.661538 414.843408 219.971795 414.545435 220.282051 414.245972 220.592308 413.945019 220.902564 413.642576 221.212821 413.338645 221.523077 413.033226 221.833333 412.726318 222.143590 412.417922 222.453846 412.108040 222.764103 411.796670 223.074359 411.483814 223.384615 411.169472 223.694872 410.853644 224.005128 410.536331 224.315385 410.217534 224.625641 409.897252 224.935897 409.575486 225.246154 409.252236 225.556410 408.927503 225.866667 408.601288 226.176923 408.273590 226.487179 407.944410 226.797436 407.613748 227.107692 407.281606 227.417949 406.947983 227.728205 406.612879 228.038462 406.276296 228.348718 405.938233 228.658974 405.598691 228.969231 405.257671 229.279487 404.915172 229.589744 404.571196 229.900000 404.225742 230.210256 403.878811 230.520513 403.530403 230.830769 403.180519 231.141026 402.829160 231.451282 402.476325 231.761538 402.122015 232.071795 401.766231 232.382051 401.408972 232.692308 401.050240 233.002564 400.690035 233.312821 400.328356 233.623077 399.965205 233.933333 399.600582 234.243590 399.234488 234.553846 398.866922 234.864103 398.497885 235.174359 398.127378 235.484615 397.755401 235.794872 397.381954 236.105128 397.007038 236.415385 396.630653 236.725641 396.252800 237.035897 395.873479 237.346154 395.492691 237.656410 395.110435 237.966667 394.726712 238.276923 394.341523 238.587179 393.954869 238.897436 393.566748 239.207692 393.177163 239.517949 392.786113 239.828205 392.393599 240.138462 391.999621 240.448718 391.604179 240.758974 391.207274 241.069231 390.808907 241.379487 390.409078 241.689744 390.007786 242.000000 389.605034 242.310256 389.200820 242.620513 388.795146 242.930769 388.388011 243.241026 387.979417 243.551282 387.569364 243.861538 387.157851 244.171795 386.744880 244.482051 386.330451 244.792308 385.914565 245.102564 385.497221 245.412821 385.078420 245.723077 384.658162 246.033333 384.236449 246.343590 383.813280 246.653846 383.388655 246.964103 382.962578 247.274359 382.535059 247.584615 382.106109 247.894872 381.675742 248.205128 381.243969 248.515385 380.810803 248.825641 380.376256 249.135897 379.940341 249.446154 379.503071 249.756410 379.064456 250.066667 378.624510 250.376923 378.183246 250.687179 377.740675 250.997436 377.296809 251.307692 376.851662 251.617949 376.405246 251.928205 375.957572 252.238462 375.508654 252.548718 375.058503 252.858974 374.607132 253.169231 374.154553 253.479487 373.700779 253.789744 373.245823 254.100000 372.789695 254.410256 372.332410 254.720513 371.873978 255.030769 371.414413 255.341026 370.953727 255.651282 370.491932 255.961538 370.029040 256.271795 369.565065 256.582051 369.100017 256.892308 368.633910 257.202564 368.166757 257.512821 367.698568 257.823077 367.229358 258.133333 366.759137 258.443590 366.287918 258.753846 365.815715 259.064103 365.342539 259.374359 364.868402 259.684615 364.393316 259.994872 363.917295 260.305128 363.440351 260.615385 362.962496 260.925641 362.483741 261.235897 362.004101 261.546154 361.523586 261.856410 361.042210 262.166667 360.559984 262.476923 360.076922 262.787179 359.593035 263.097436 359.108335 263.407692 358.622836 263.717949 358.136549 264.028205 357.649487 264.338462 357.161662 264.648718 356.673087 264.958974 356.183774 265.269231 355.693735 265.579487 355.202982 265.889744 354.711529 266.200000 354.219387 266.510256 353.726568 266.820513 353.233086 267.130769 352.738952 267.441026 352.244179 267.751282 351.748779 268.061538 351.252764 268.371795 350.756148 268.682051 350.258941 268.992308 349.761157 269.302564 349.262808 269.612821 348.763906 269.923077 348.264464 270.233333 347.764494 270.543590 347.264008 270.853846 346.763019 271.164103 346.261539 271.474359 345.759580 271.784615 345.257155 272.094872 344.754276 272.405128 344.250956 272.715385 343.747206 273.025641 343.243040 273.335897 342.738469 273.646154 342.233507 273.956410 341.728164 274.266667 341.222454 274.576923 340.716389 274.887179 340.209982 275.197436 339.703244 275.507692 339.196188 275.817949 338.688827 276.128205 338.181172 276.438462 337.673237 276.748718 337.165033 277.058974 336.656573 277.369231 336.147869 277.679487 335.638933 277.989744 335.129779 278.300000 334.620418 278.610256 334.110862 278.920513 333.601125 279.230769 333.091217 279.541026 332.581153 279.851282 332.070943 280.161538 331.560601 280.471795 331.050139 280.782051 330.539569 281.092308 330.028903 281.402564 329.518155 281.712821 329.007335 282.023077 328.496457 282.333333 327.985533 282.643590 327.474575 282.953846 326.963596 283.264103 326.452608 283.574359 325.941623 283.884615 325.430654 284.194872 324.919713 284.505128 324.408812 284.815385 323.897965 285.125641 323.387182 285.435897 322.876477 285.746154 322.365861 286.056410 321.855348 286.366667 321.344950 286.676923 320.834678 286.987179 320.324546 287.297436 319.814565 287.607692 319.304748 287.917949 318.795108 288.228205 318.285656 288.538462 317.776406 288.848718 317.267369 289.158974 316.758557 289.469231 316.249984 289.779487 315.741661 290.089744 315.233601 290.400000 314.725817 290.710256 314.218320 291.020513 313.711123 291.330769 313.204238 291.641026 312.697677 291.951282 312.191454 292.261538 311.685580 292.571795 311.180068 292.882051 310.674930 293.192308 310.170179 293.502564 309.665826 293.812821 309.161884 294.123077 308.658366 294.433333 308.155284 294.743590 307.652650 295.053846 307.150476 295.364103 306.648775 295.674359 306.147560 295.984615 305.646842 296.294872 305.146635 296.605128 304.646950 296.915385 304.147799 297.225641 303.649195 297.535897 303.151151 297.846154 302.653679 298.156410 302.156791 298.466667 301.660499 298.776923 301.164817 299.087179 300.669755 299.397436 300.175327 299.707692 299.681545 300.017949 299.188422 300.328205 298.695969 300.638462 298.204198 300.948718 297.713124 301.258974 297.222757 301.569231 296.733110 301.879487 296.244196 302.189744 295.756026 302.500000 295.268613 302.810256 294.781970 303.120513 294.296109 303.430769 293.811043 303.741026 293.326782 304.051282 292.843341 304.361538 292.360731 304.671795 291.878964 304.982051 291.398054 305.292308 290.918012 305.602564 290.438851 305.912821 289.960583 306.223077 289.483220 306.533333 289.006775 306.843590 288.531260 307.153846 288.056688 307.464103 287.583070 307.774359 287.110420 308.084615 286.638750 308.394872 286.168071 308.705128 285.698397 309.015385 285.229739 309.325641 284.762110 309.635897 284.295523 309.946154 283.829989 310.256410 283.365522 310.566667 282.902133 310.876923 282.439835 311.187179 281.978640 311.497436 281.518560 311.807692 281.059608 312.117949 280.601797 312.428205 280.145138 312.738462 279.689644 313.048718 279.235328 313.358974 278.782201 313.669231 278.330276 313.979487 277.879565 314.289744 277.430082 314.600000 276.981837 314.910256 276.534844 315.220513 276.089114 315.530769 275.644661 315.841026 275.201496 316.151282 274.759632 316.461538 274.319082 316.771795 273.879857 317.082051 273.441970 317.392308 273.005433 317.702564 272.570259 318.012821 272.136460 318.323077 271.704048 318.633333 271.273036 318.943590 270.843436 319.253846 270.415261 319.564103 269.988522 319.874359 269.563233 320.184615 269.139405 320.494872 268.717051 320.805128 268.296183 321.115385 267.876814 321.425641 267.458955 321.735897 267.042621 322.046154 266.627821 322.356410 266.214570 322.666667 265.802879 322.976923 265.392761 323.287179 264.984228 323.597436 264.577293 323.907692 264.171967 324.217949 263.768263 324.528205 263.366190 324.838462 262.965735 325.148718 262.566883 325.458974 262.169619 325.769231 261.773927 326.079487 261.379792 326.389744 260.987196 326.700000 260.596126 327.010256 260.206565 327.320513 259.818498 327.630769 259.431909 327.941026 259.046783 328.251282 258.663103 328.561538 258.280854 328.871795 257.900020 329.182051 257.520587 329.492308 257.142537 329.802564 256.765856 330.112821 256.390528 330.423077 256.016537 330.733333 255.643868 331.043590 255.272504 331.353846 254.902431 331.664103 254.533633 331.974359 254.166093 332.284615 253.799796 332.594872 253.434728 332.905128 253.070871 333.215385 252.708211 333.525641 252.346731 333.835897 251.986416 334.146154 251.627251 334.456410 251.269220 334.766667 250.912307 335.076923 250.556496 335.387179 250.201772 335.697436 249.848119 336.007692 249.495521 336.317949 249.143964 336.628205 248.793431 336.938462 248.443906 337.248718 248.095374 337.558974 247.747820 337.869231 247.401227 338.179487 247.055580 338.489744 246.710863 338.800000 246.367061 339.110256 246.024159 339.420513 245.682139 339.730769 245.340987 340.041026 245.000687 340.351282 244.661224 340.661538 244.322582 340.971795 243.984744 341.282051 243.647696 341.592308 243.311422 341.902564 242.975906 342.212821 242.641133 342.523077 242.307087 342.833333 241.973751 343.143590 241.641112 343.453846 241.309152 343.764103 240.977857 344.074359 240.647210 344.384615 240.317196 344.694872 239.987800 345.005128 239.659005 345.315385 239.330796 345.625641 239.003158 345.935897 238.676074 346.246154 238.349530 346.556410 238.023509 346.866667 237.697996 347.176923 237.372975 347.487179 237.048430 347.797436 236.724346 348.107692 236.400708 348.417949 236.077499 348.728205 235.754704 349.038462 235.432307 349.348718 235.110293 349.658974 234.788645 349.969231 234.467350 350.279487 234.146389 350.589744 233.825749 350.900000 233.505413 351.210256 233.185366 351.520513 232.865592 351.830769 232.546075 352.141026 232.226800 352.451282 231.907751 352.761538 231.588913 353.071795 231.270269 353.382051 230.951805 353.692308 230.633504 354.002564 230.315351 354.312821 229.997330 354.623077 229.679426 354.933333 229.361623 355.243590 229.043905 355.553846 228.726256 355.864103 228.408662 356.174359 228.091106 356.484615 227.773573 356.794872 227.456046 357.105128 227.138511 357.415385 226.820952 357.725641 226.503353 358.035897 226.185698 358.346154 225.867972 358.656410 225.550159 358.966667 225.232244 359.276923 224.914210 359.587179 224.596043 359.897436 224.277726 360.207692 223.959244 360.517949 223.640582 360.828205 223.321723 361.138462 223.002652 361.448718 222.683353 361.758974 222.363811 362.069231 222.044009 362.379487 221.723934 362.689744 221.403567 363.000000 221.082895 363.310256 220.761902 363.620513 220.440571 363.930769 220.118887 364.241026 219.796835 364.551282 219.474398 364.861538 219.151561 365.171795 218.828310 365.482051 218.504626 365.792308 218.180497 366.102564 217.855904 366.412821 217.530834 366.723077 217.205270 367.033333 216.879196 367.343590 216.552598 367.653846 216.225458 367.964103 215.897763 368.274359 215.569495 368.584615 215.240640 368.894872 214.911182 369.205128 214.581104 369.515385 214.250392 369.825641 213.919030 370.135897 213.587002 370.446154 213.254292 370.756410 212.920885 371.066667 212.586766 371.376923 212.251917 371.687179 211.916325 371.997436 211.579973 372.307692 211.242846 372.617949 210.904927 372.928205 210.566202 373.238462 210.226654 373.548718 209.886269 373.858974 209.545029 374.169231 209.202921 374.479487 208.859927 374.789744 208.516033 375.100000 208.171222 375.410256 207.825480 375.720513 207.478790 376.030769 207.131137 376.341026 206.782505 376.651282 206.432878 376.961538 206.082242 377.271795 205.730579 377.582051 205.377875 377.892308 205.024114 378.202564 204.669280 378.512821 204.313358 378.823077 203.956332 379.133333 203.598186 379.443590 203.238904 379.753846 202.878472 380.064103 202.516873 380.374359 202.154092 380.684615 201.790112 380.994872 201.424920 381.305128 201.058498 381.615385 200.690831 381.925641 200.321903 382.235897 199.951699 382.546154 199.580204 382.856410 199.207401 383.166667 198.833275 383.476923 198.457810 383.787179 198.080990 384.097436 197.702801 384.407692 197.323225 384.717949 196.942249 385.028205 196.559855 385.338462 196.176029 385.648718 195.790754 385.958974 195.404015 386.269231 195.015797 386.579487 194.626084 386.889744 194.234859 387.200000 193.842108 387.510256 193.447815 387.820513 193.051964 388.130769 192.654539 388.441026 192.255525 388.751282 191.854906 389.061538 191.452667 389.371795 191.048792 389.682051 190.643265 389.992308 190.236070 390.302564 189.827193 390.612821 189.416616 390.923077 189.004326 391.233333 188.590305 391.543590 188.174539 391.853846 187.757011 392.164103 187.337707 392.474359 186.916609 392.784615 186.493704 393.094872 186.068975 393.405128 185.642406 393.715385 185.213981 394.025641 184.783686 394.335897 184.351505 394.646154 183.917421 394.956410 183.481420 395.266667 183.043485 395.576923 182.603601 395.887179 182.161752 396.197436 181.717923 396.507692 181.272098 396.817949 180.824261 397.128205 180.374397 397.438462 179.922489 397.748718 179.468523 398.058974 179.012483 398.369231 178.554353 398.679487 178.094117 398.989744 177.631760 399.300000 177.167266 399.610256 176.700620 399.920513 176.231805 400.230769 175.760807 400.541026 175.287609 400.851282 174.812196 401.161538 174.334552 401.471795 173.854662 401.782051 173.372509 402.092308 172.888087 402.402564 172.401418 402.712821 171.912534 403.023077 171.421465 403.333333 170.928243 403.643590 170.432898 403.953846 169.935463 404.264103 169.435967 404.574359 168.934443 404.884615 168.430920 405.194872 167.925431 405.505128 167.418007 405.815385 166.908677 406.125641 166.397475 406.435897 165.884430 406.746154 165.369574 407.056410 164.852938 407.366667 164.334553 407.676923 163.814450 407.987179 163.292660 408.297436 162.769214 408.607692 162.244144 408.917949 161.717480 409.228205 161.189254 409.538462 160.659497 409.848718 160.128239 410.158974 159.595513 410.469231 159.061348 410.779487 158.525777 411.089744 157.988829 411.400000 157.450537 411.710256 156.910932 412.020513 156.370044 412.330769 155.827905 412.641026 155.284545 412.951282 154.739996 413.261538 154.194289 413.571795 153.647456 413.882051 153.099526 414.192308 152.550531 414.502564 152.000503 414.812821 151.449473 415.123077 150.897471 415.433333 150.344528 415.743590 149.790676 416.053846 149.235946 416.364103 148.680370 416.674359 148.123977 416.984615 147.566799 417.294872 147.008867 417.605128 146.450213 417.915385 145.890868 418.225641 145.330862 418.535897 144.770226 418.846154 144.208993 419.156410 143.647192 419.466667 143.084855 419.776923 142.522013 420.087179 141.958698 420.397436 141.394939 420.707692 140.830769 421.017949 140.266219 421.328205 139.701319 421.638462 139.136101 421.948718 138.570596 422.258974 138.004834 422.569231 137.438848 422.879487 136.872667 423.189744 136.306324 423.500000 135.739849 423.810256 135.173273 424.120513 134.606628 424.430769 134.039945 424.741026 133.473254 425.051282 132.906587 425.361538 132.339975 425.671795 131.773449 425.982051 131.207040 426.292308 130.640779 426.602564 130.074698 426.912821 129.508827 427.223077 128.943197 427.533333 128.377841 427.843590 127.812787 428.153846 127.248069 428.464103 126.683717 428.774359 126.119761 429.084615 125.556234 429.394872 124.993166 429.705128 124.430588 430.015385 123.868532 430.325641 123.307028 430.635897 122.746108 430.946154 122.185803 431.256410 121.626143 431.566667 121.067161 431.876923 120.508886 432.187179 119.951351 432.497436 119.394586 432.807692 118.838622 433.117949 118.283490 433.428205 117.729223 433.738462 117.175849 434.048718 116.623402 434.358974 116.071911 434.669231 115.521409 434.979487 114.971925 435.289744 114.423492 435.600000 113.876140 435.910256 113.329900 436.220513 112.784804 436.530769 112.240882 436.841026 111.698166 437.151282 111.156687 437.461538 110.616475 437.771795 110.077563 438.082051 109.539981 438.392308 109.003760 438.702564 108.468931 439.012821 107.935525 439.323077 107.403574 439.633333 106.873109 439.943590 106.344160 440.253846 105.816759 440.564103 105.290937 440.874359 104.766725 441.184615 104.244154 441.494872 103.723255 441.805128 103.204060 442.115385 102.686599 442.425641 102.170903 442.735897 101.657004 443.046154 101.144933 443.356410 100.634721 443.666667 100.126398 443.976923 99.619997 444.287179 99.115547 444.597436 98.613081 444.907692 98.112629 445.217949 97.614223 445.528205 97.117893 445.838462 96.623671 446.148718 96.131587 446.458974 95.641674 446.769231 95.153961 447.079487 94.668480 447.389744 94.185262 447.700000 93.704339 448.010256 93.225741 448.320513 92.749499 448.630769 92.275645 448.941026 91.804210 449.251282 91.335224 449.561538 90.868719 449.871795 90.404726 450.182051 89.943276 450.492308 89.484401 450.802564 89.028130 451.112821 88.574496 451.423077 88.123530 451.733333 87.675261 452.043590 87.229723 452.353846 86.786945 452.664103 86.346960 452.974359 85.909797 453.284615 85.475488 453.594872 85.044064 453.905128 84.615557 454.215385 84.189997 454.525641 83.767416 454.835897 83.347844 455.146154 82.931313 455.456410 82.517853 455.766667 82.107497 456.076923 81.700274 456.387179 81.296216 456.697436 80.895355 457.007692 80.497721 457.317949 80.103346 457.628205 79.712259 457.938462 79.324494 458.248718 78.940080 458.558974 78.559049 458.869231 78.181432 459.179487 77.807260 459.489744 77.436564 459.800000 77.069375 460.110256 76.705724 460.420513 76.345643 460.730769 75.989163 461.041026 75.636314 461.351282 75.287127 461.661538 74.941635 461.971795 74.599867 462.282051 74.261856 462.592308 73.927631 462.902564 73.597225 463.212821 73.270668 463.523077 72.947992 463.833333 72.629227 464.143590 72.314405 464.453846 72.003556 464.764103 71.696713 465.074359 71.393905 465.384615 71.095164 465.694872 70.800522 466.005128 70.510008 466.315385 70.223655 466.625641 69.941494 466.935897 69.663555 467.246154 69.389869 467.556410 69.120469 467.866667 68.855384 468.176923 68.594646 468.487179 68.338286 468.797436 68.086336 469.107692 67.838826 469.417949 67.595787 469.728205 67.357250 470.038462 67.123247 470.348718 66.893809 470.658974 66.668966 470.969231 66.448751 471.279487 66.233193 471.589744 66.022325 471.900000 65.816176 472.210256 65.614779 472.520513 65.418164 472.830769 65.226363 473.141026 65.039406 473.451282 64.857325 473.761538 64.680151 474.071795 64.507915 474.382051 64.340648 474.692308 64.178380 475.002564 64.021144 475.312821 63.868971 475.623077 63.721890 475.933333 63.579934 476.243590 63.443134 476.553846 63.311521 476.864103 63.185125 477.174359 63.063978 477.484615 62.948111 477.794872 62.837556 478.105128 62.732342 478.415385 62.632502 478.725641 62.538066 479.035897 62.449066 479.346154 62.365532 479.656410 62.287485 479.966667 62.214899 480.276923 62.147739 480.587179 62.085966 480.897436 62.029547 481.207692 61.978443 481.517949 61.932619 481.828205 61.892038 482.138462 61.856664 482.448718 61.826460 482.758974 61.801391 483.069231 61.781419 483.379487 61.766509 483.689744 61.756624 484.000000 61.751728 484.310256 61.751784 484.620513 61.756757 484.930769 61.766609 485.241026 61.781304 485.551282 61.800806 485.861538 61.825079 486.171795 61.854087 486.482051 61.887792 486.792308 61.926159 487.102564 61.969151 487.412821 62.016732 487.723077 62.068866 488.033333 62.125515 488.343590 62.186645 488.653846 62.252218 488.964103 62.322198 489.274359 62.396549 489.584615 62.475234 489.894872 62.558218 490.205128 62.645463 490.515385 62.736933 490.825641 62.832593 491.135897 62.932405 491.446154 63.036333 491.756410 63.144341 492.066667 63.256393 492.376923 63.372452 492.687179 63.492482 492.997436 63.616447 493.307692 63.744310 493.617949 63.876034 493.928205 64.011584 494.238462 64.150923 494.548718 64.294015 494.858974 64.440823 495.169231 64.591311 495.479487 64.745443 495.789744 64.903183 496.100000 65.064493 496.410256 65.229338 496.720513 65.397681 497.030769 65.569486 497.341026 65.744717 497.651282 65.923337 497.961538 66.105310 498.271795 66.290599 498.582051 66.479168 498.892308 66.670982 499.202564 66.866002 499.512821 67.064194 499.823077 67.265521 500.133333 67.469946 500.443590 67.677433 500.753846 67.887946 501.064103 68.101448 501.374359 68.317903 501.684615 68.537274 501.994872 68.759526 502.305128 68.984622 502.615385 69.212525 502.925641 69.443200 503.235897 69.676609 503.546154 69.912717 503.856410 70.151487 504.166667 70.392883 504.476923 70.636869 504.787179 70.883407 505.097436 71.132462 505.407692 71.383998 505.717949 71.637977 506.028205 71.894365 506.338462 72.153123 506.648718 72.414217 506.958974 72.677609 507.269231 72.943263 507.579487 73.211144 507.889744 73.481214 508.200000 73.753437 508.510256 74.027777 508.820513 74.304197 509.130769 74.582662 509.441026 74.863134 509.751282 75.145578 510.061538 75.429957 510.371795 75.716235 510.682051 76.004375 510.992308 76.294341 511.302564 76.586096 511.612821 76.879605 511.923077 77.174831 512.233333 77.471738 512.543590 77.770289 512.853846 78.070447 513.164103 78.372178 513.474359 78.675443 513.784615 78.980207 514.094872 79.286434 514.405128 79.594087 514.715385 79.903130 515.025641 80.213526 515.335897 80.525239 515.646154 80.838233 515.956410 81.152471 516.266667 81.467918 516.576923 81.784536 516.887179 82.102289 517.197436 82.421141 517.507692 82.741056 517.817949 83.061997 518.128205 83.383928 518.438462 83.706813 518.748718 84.030614 519.058974 84.355297 519.369231 84.680824 519.679487 85.007159 519.989744 85.334266 520.300000 85.662108 520.610256 85.990649 520.920513 86.319853 521.230769 86.649684 521.541026 86.980104 521.851282 87.311078 522.161538 87.642570 522.471795 87.974542 522.782051 88.306959 523.092308 88.639784 523.402564 88.972981 523.712821 89.306514 524.023077 89.640345 524.333333 89.974440 524.643590 90.308761 524.953846 90.643272 525.264103 90.977937 525.574359 91.312719 525.884615 91.647583 526.194872 91.982491 526.505128 92.317407 526.815385 92.652296 527.125641 92.987120 527.435897 93.321843 527.746154 93.656429 528.056410 93.990842 528.366667 94.325045 528.676923 94.659002 528.987179 94.992677 529.297436 95.326032 529.607692 95.659033 529.917949 95.991642 530.228205 96.323823 530.538462 96.655539 530.848718 96.986756 531.158974 97.317435 531.469231 97.647541 531.779487 97.977037 532.089744 98.305887 532.400000 98.634055 532.710256 98.961504 533.020513 99.288198 533.330769 99.614101 533.641026 99.939176 533.951282 100.263386 534.261538 100.586697 534.571795 100.909070 534.882051 101.230470 535.192308 101.550861 535.502564 101.870206 535.812821 102.188468 536.123077 102.505612 536.433333 102.821601 536.743590 103.136398 537.053846 103.449968 537.364103 103.762274 537.674359 104.073280 537.984615 104.382949 538.294872 104.691244 538.605128 104.998130 538.915385 105.303571 539.225641 105.607529 539.535897 105.909969 539.846154 106.210854 540.156410 106.510148 540.466667 106.807814 540.776923 107.103816 541.087179 107.398118 541.397436 107.690684 541.707692 107.981476 542.017949 108.270459 542.328205 108.557597 542.638462 108.842852 542.948718 109.126189 543.258974 109.407572 543.569231 109.686963 543.879487 109.964327 544.189744 110.239626 544.500000 110.512826 544.810256 110.783890 545.120513 111.052780 545.430769 111.319461 545.741026 111.583897 546.051282 111.846051 546.361538 112.105886 546.671795 112.363367 546.982051 112.618457 547.292308 112.871119 547.602564 113.121318 547.912821 113.369017 548.223077 113.614179 548.533333 113.856769 548.843590 114.096749 549.153846 114.334084 549.464103 114.568738 549.774359 114.800673 550.084615 115.029853 550.394872 115.256243 550.705128 115.479805 551.015385 115.700504 551.325641 115.918303 551.635897 116.133166 551.946154 116.345056 552.256410 116.553937 552.566667 116.759773 552.876923 116.962527 553.187179 117.162163 553.497436 117.358645 553.807692 117.551935 554.117949 117.741999 554.428205 117.928799 554.738462 118.112300 555.048718 118.292464 555.358974 118.469256 555.669231 118.642639 555.979487 118.812576 556.289744 118.979032 556.600000 119.141970 556.910256 119.301354 557.220513 119.457156 557.530769 119.609381 557.841026 119.758044 558.151282 119.903160 558.461538 120.044742 558.771795 120.182805 559.082051 120.317364 559.392308 120.448432 559.702564 120.576023 560.012821 120.700153 560.323077 120.820836 560.633333 120.938086 560.943590 121.051916 561.253846 121.162342 561.564103 121.269378 561.874359 121.373038 562.184615 121.473337 562.494872 121.570288 562.805128 121.663906 563.115385 121.754206 563.425641 121.841201 563.735897 121.924907 564.046154 122.005337 564.356410 122.082505 564.666667 122.156426 564.976923 122.227115 565.287179 122.294585 565.597436 122.358852 565.907692 122.419928 566.217949 122.477829 566.528205 122.532569 566.838462 122.584162 567.148718 122.632623 567.458974 122.677966 567.769231 122.720204 568.079487 122.759353 568.389744 122.795427 568.700000 122.828440 569.010256 122.858407 569.320513 122.885341 569.630769 122.909257 569.941026 122.930170 570.251282 122.948093 570.561538 122.963042 570.871795 122.975030 571.182051 122.984071 571.492308 122.990180 571.802564 122.993372 572.112821 122.993660 572.423077 122.991059 572.733333 122.985584 573.043590 122.977248 573.353846 122.966065 573.664103 122.952051 573.974359 122.935220 574.284615 122.915585 574.594872 122.893162 574.905128 122.867964 575.215385 122.840005 575.525641 122.809301 575.835897 122.775866 576.146154 122.739712 576.456410 122.700857 576.766667 122.659312 577.076923 122.615093 577.387179 122.568214 577.697436 122.518690 578.007692 122.466534 578.317949 122.411761 578.628205 122.354385 578.938462 122.294421 579.248718 122.231883 579.558974 122.166785 579.869231 122.099141 580.179487 122.028967 580.489744 121.956275 580.800000 121.881081 581.110256 121.803399 581.420513 121.723243 581.730769 121.640628 582.041026 121.555567 582.351282 121.468076 582.661538 121.378167 582.971795 121.285857 583.282051 121.191159 583.592308 121.094086 583.902564 120.994655 584.212821 120.892879 584.523077 120.788772 584.833333 120.682348 585.143590 120.573623 585.453846 120.462609 585.764103 120.349323 586.074359 120.233777 586.384615 120.115986 586.694872 119.995965 587.005128 119.873728 587.315385 119.749289 587.625641 119.622663 587.935897 119.493863 588.246154 119.362904 588.556410 119.229801 588.866667 119.094568 589.176923 118.957219 589.487179 118.817768 589.797436 118.676230 590.107692 118.532618 590.417949 118.386949 590.728205 118.239235 591.038462 118.089490 591.348718 117.937731 591.658974 117.783969 591.969231 117.628221 592.279487 117.470500 592.589744 117.310821 592.900000 117.149197 593.210256 116.985644 593.520513 116.820175 593.830769 116.652805 594.141026 116.483548 594.451282 116.312419 594.761538 116.139431 595.071795 115.964600 595.382051 115.787939 595.692308 115.609462 596.002564 115.429185 596.312821 115.247121 596.623077 115.063285 596.933333 114.877691 597.243590 114.690353 597.553846 114.501286 597.864103 114.310504 598.174359 114.118021 598.484615 113.923852 598.794872 113.728011 599.105128 113.530512 599.415385 113.331369 599.725641 113.130598 600.035897 112.928211 600.346154 112.724224 600.656410 112.518651 600.966667 112.311506 601.276923 112.102804 601.587179 111.892558 601.897436 111.680784 602.207692 111.467495 602.517949 111.252705 602.828205 111.036430 603.138462 110.818683 603.448718 110.599479 603.758974 110.378832 604.069231 110.156756 604.379487 109.933265 604.689744 109.708375 605.000000 109.482099 605.310256 109.254452 605.620513 109.025447 605.930769 108.795100 606.241026 108.563424 606.551282 108.330434 606.861538 108.096144 607.171795 107.860569 607.482051 107.623723 607.792308 107.385620 608.102564 107.146274 608.412821 106.905700 608.723077 106.663912 609.033333 106.420925 609.343590 106.176752 609.653846 105.931408 609.964103 105.684908 610.274359 105.437265 610.584615 105.188495 610.894872 104.938610 611.205128 104.687627 611.515385 104.435558 611.825641 104.182418 612.135897 103.928222 612.446154 103.672984 612.756410 103.416719 613.066667 103.159440 613.376923 102.901161 613.687179 102.641898 613.997436 102.381664 614.307692 102.120474 614.617949 101.858343 614.928205 101.595283 615.238462 101.331311 615.548718 101.066439 615.858974 100.800683 616.169231 100.534057 616.479487 100.266575 616.789744 99.998251 617.100000 99.729100 617.410256 99.459135 617.720513 99.188372 618.030769 98.916825 618.341026 98.644508 618.651282 98.371434 618.961538 98.097620 619.271795 97.823078 619.582051 97.547824 619.892308 97.271871 620.202564 96.995234 620.512821 96.717927 620.823077 96.439964 621.133333 96.161361 621.443590 95.882130 621.753846 95.602287 622.064103 95.321846 622.374359 95.040821 622.684615 94.759226 622.994872 94.477076 623.305128 94.194385 623.615385 93.911167 623.925641 93.627437 624.235897 93.343208 624.546154 93.058497 624.856410 92.773315 625.166667 92.487679 625.476923 92.201602 625.787179 91.915099 626.097436 91.628183 626.407692 91.340870 626.717949 91.053173 627.028205 90.765107 627.338462 90.476686 627.648718 90.187924 627.958974 89.898837 628.269231 89.609437 628.579487 89.319740 628.889744 89.029760 629.200000 88.739511 629.510256 88.449007 629.820513 88.158263 630.130769 87.867292 630.441026 87.576111 630.751282 87.284731 631.061538 86.993169 631.371795 86.701438 631.682051 86.409553 631.992308 86.117527 632.302564 85.825376 632.612821 85.533114 632.923077 85.240754 633.233333 84.948311 633.543590 84.655800 633.853846 84.363235 634.164103 84.070630 634.474359 83.777999 634.784615 83.485355 635.094872 83.192700 635.405128 82.900033 635.715385 82.607356 636.025641 82.314667 636.335897 82.021968 636.646154 81.729257 636.956410 81.436536 637.266667 81.143803 637.576923 80.851060 637.887179 80.558306 638.197436 80.265541 638.507692 79.972766 638.817949 79.679980 639.128205 79.387184 639.438462 79.094376 639.748718 78.801559 640.058974 78.508731 640.369231 78.215892 640.679487 77.923043 640.989744 77.630184 641.300000 77.337315 641.610256 77.044435 641.920513 76.751545 642.230769 76.458645 642.541026 76.165735 642.851282 75.872815 643.161538 75.579885 643.471795 75.286945 643.782051 74.993995 644.092308 74.701035 644.402564 74.408065 644.712821 74.115086 645.023077 73.822096 645.333333 73.529097 645.643590 73.236089 645.953846 72.943071 646.264103 72.650043 646.574359 72.357006 646.884615 72.063959 647.194872 71.770903 647.505128 71.477837 647.815385 71.184762 648.125641 70.891678 648.435897 70.598585 648.746154 70.305482 649.056410 70.012370 649.366667 69.719249 649.676923 69.426119 649.987179 69.132980 650.297436 68.839832 650.607692 68.546676 650.917949 68.253510 651.228205 67.960335 651.538462 67.667152 651.848718 67.373960 652.158974 67.080759 652.469231 66.787549 652.779487 66.494331 653.089744 66.201104 653.400000 65.907869 653.710256 65.614626 654.020513 65.321373 654.330769 65.028113 654.641026 64.734844 654.951282 64.441567 655.261538 64.148281 655.571795 63.854988 655.882051 63.561686 656.192308 63.268376 656.502564 62.975058 656.812821 62.681732 657.123077 62.388398 657.433333 62.095056 657.743590 61.801706 658.053846 61.508348 658.364103 61.214983 658.674359 60.921609 658.984615 60.628228 659.294872 60.334839 659.605128 60.041443 659.915385 59.748039 660.225641 59.454628 660.535897 59.161209 660.846154 58.867782 661.156410 58.574349 661.466667 58.280907 661.776923 57.987459 662.087179 57.694003 662.397436 57.400540 662.707692 57.107070 663.017949 56.813593 663.328205 56.520108 663.638462 56.226617 663.948718 55.933118 664.258974 55.639613 664.569231 55.346101 664.879487 55.052582 665.189744 54.759056 665.500000 54.465523 665.810256 54.171983 666.120513 53.878437 666.430769 53.584884 666.741026 53.291325 667.051282 52.997759 667.361538 52.704186 667.671795 52.410607 667.982051 52.117022 668.292308 51.823430 668.602564 51.529832 668.912821 51.236228 669.223077 50.942617 669.533333 50.649001 669.843590 50.355378 670.153846 50.061749 670.464103 49.768114 670.774359 49.474473 671.084615 49.180825 671.394872 48.887172 671.705128 48.593514 672.015385 48.299849 672.325641 48.006178 672.635897 47.712502 672.946154 47.418820 673.256410 47.125133 673.566667 46.831439 673.876923 46.537741 674.187179 46.244036 674.497436 45.950327 674.807692 45.656611 675.117949 45.362891 675.428205 45.069165 675.738462 44.775434 676.048718 44.481697 676.358974 44.187956 676.669231 43.894209 676.979487 43.600457 677.289744 43.306700 677.600000 43.012938 677.910256 42.719171 678.220513 42.425399 678.530769 42.131622 678.841026 41.837840 679.151282 41.544054 679.461538 41.250262 679.771795 40.956466 680.082051 40.662666 680.392308 40.368861 680.702564 40.075051 681.012821 39.781236 681.323077 39.487418 681.633333 39.193594 681.943590 38.899767 682.253846 38.605934 682.564103 38.312098 682.874359 38.018258 683.184615 37.724413 683.494872 37.430564 683.805128 37.136711 684.115385 36.842853 684.425641 36.548992 684.735897 36.255127 685.046154 35.961258 685.356410 35.667384 685.666667 35.373507 685.976923 35.079627 686.287179 34.785742 686.597436 34.491854 686.907692 34.197962 687.217949 33.904066 687.528205 33.610167 687.838462 33.316264 688.148718 33.022358 688.458974 32.728448 688.769231 32.434535 689.079487 32.140619 689.389744 31.846699 689.700000 31.552776 690.010256 31.258850 690.320513 30.964920 690.630769 30.670988 690.941026 30.377052 691.251282 30.083113 691.561538 29.789171 691.871795 29.495227 692.182051 29.201279 692.492308 28.907328 692.802564 28.613375 693.112821 28.319419 693.423077 28.025460 693.733333 27.731499 694.043590 27.437534 694.353846 27.143568 694.664103 26.849598 694.974359 26.555626 695.284615 26.261652 695.594872 25.967675 695.905128 25.673696 696.215385 25.379714 696.525641 25.085731 696.835897 24.791745 697.146154 24.497756 697.456410 24.203766 697.766667 23.909774 698.076923 23.615779 698.387179 23.321782 698.697436 23.027784 699.007692 22.733783 699.317949 22.439781 699.628205 22.145777 699.938462 21.851771 700.248718 21.557763 700.558974 21.263754 700.869231 20.969743 701.179487 20.675730 701.489744 20.381716 701.800000 20.087700 702.110256 19.793682 702.420513 19.499664 702.730769 19.205644 703.041026 18.911622 703.351282 18.617599 703.661538 18.323575 703.971795 18.029550 704.282051 17.735524 704.592308 17.441496 704.902564 17.147467 705.212821 16.853438 705.523077 16.559407 705.833333 16.265376 706.143590 15.971343 706.453846 15.677310 706.764103 15.383276 707.074359 15.089241 707.384615 14.795205 707.694872 14.501169 708.005128 14.207132 708.315385 13.913095 708.625641 13.619056 708.935897 13.325018 709.246154 13.030979 709.556410 12.736940 709.866667 12.442900 710.176923 12.148860 710.487179 11.854819 710.797436 11.560779 711.107692 11.266738 711.417949 10.972697 711.728205 10.678656 712.038462 10.384615 712.038462 540.000000" /></g></g><g class="titles" /><g class="plot overlay" transform="translate(54, 20)"><g class="series serie-0 color-0"><g class="dots"><circle class="dot reactive tooltip-trigger" cx="13.96153846153846" cy="529.6153846153848" r="2.5" /><desc class="value">364,550,166(kWh)</desc><desc class="x top">13.96153846153846</desc><desc class="y top">529.6153846153848</desc><desc class="x_label">2549</desc></g><g class="dots"><circle class="dot reactive tooltip-trigger" cx="91.52564102564101" cy="446.80455554805263" r="2.5" /><desc class="value">382,442,712(kWh)</desc><desc class="x top">91.52564102564101</desc><desc class="y top">446.80455554805263</desc><desc class="x_label">2550</desc></g><g class="dots"><circle class="dot reactive tooltip-trigger" cx="169.08974358974356" cy="443.19379978448825" r="2.5" /><desc class="value">383,222,871(kWh)</desc><desc class="x top">169.08974358974356</desc><desc class="y top">443.19379978448825</desc><desc class="x_label">2551</desc></g><g class="dots"><circle class="dot reactive tooltip-trigger" cx="246.65384615384613" cy="383.3886554514505" r="2.5" /><desc class="value">396,144,687(kWh)</desc><desc class="x top">246.65384615384613</desc><desc class="y top">383.3886554514505</desc><desc class="x_label">2552</desc></g><g class="dots"><circle class="dot reactive tooltip-trigger" cx="324.21794871794873" cy="263.76826335795596" r="2.5" /><desc class="value">421,990,502(kWh)</desc><desc class="x ">324.21794871794873</desc><desc class="y ">263.76826335795596</desc><desc class="x_label">2553</desc></g><g class="dots"><circle class="dot reactive tooltip-trigger" cx="401.78205128205127" cy="173.3725094678582" r="2.5" /><desc class="value">441,521,887(kWh)</desc><desc class="x left">401.78205128205127</desc><desc class="y left">173.3725094678582</desc><desc class="x_label">2554</desc></g><g class="dots"><circle class="dot reactive tooltip-trigger" cx="479.3461538461538" cy="62.36553223125708" r="2.5" /><desc class="value">465,506,642(kWh)</desc><desc class="x left">479.3461538461538</desc><desc class="y left">62.36553223125708</desc><desc class="x_label">2555</desc></g><g class="dots"><circle class="dot reactive tooltip-trigger" cx="556.9102564102565" cy="119.30135408780586" r="2.5" /><desc class="value">453,204,787(kWh)</desc><desc class="x left">556.9102564102565</desc><desc class="y left">119.30135408780586</desc><desc class="x_label">2556</desc></g><g class="dots"><circle class="dot reactive tooltip-trigger" cx="634.474358974359" cy="83.77799948899394" r="2.5" /><desc class="value">460,880,151(kWh)</desc><desc class="x left">634.474358974359</desc><desc class="y left">83.77799948899394</desc><desc class="x_label">2557</desc></g><g class="dots"><circle class="dot reactive tooltip-trigger" cx="712.0384615384615" cy="10.384615384615358" r="2.5" /><desc class="value">476,737,914(kWh)</desc><desc class="x left">712.0384615384615</desc><desc class="y left">10.384615384615358</desc><desc class="x_label">2558</desc></g></g></g><g class="plot text-overlay" transform="translate(54, 20)"><g class="series serie-0 color-0" /></g><g class="plot tooltip-overlay" transform="translate(54, 20)"><g class="tooltip" style="opacity: 0" transform="translate(0 0)"><rect class="tooltip-box" height="0" rx="0" ry="0" width="0" /><g class="text" /></g></g></g></svg>