<?xml version='1.0' encoding='utf-8'?>
<svg xmlns:xlink="http://www.w3.org/1999/xlink" class="pygal-chart" id="chart-dd5b74eb-9e3f-4e2a-8d48-95c2b75d89f9" viewBox="0 0 800 600" xmlns="http://www.w3.org/2000/svg"><!--Generated with pygal 2.3.0 (etree) ©Kozea 2012-2016 on 2016-12-08--><!--http://pygal.org--><!--http://github.com/Kozea/pygal--><defs><style type="text/css">#chart-dd5b74eb-9e3f-4e2a-8d48-95c2b75d89f9{-webkit-user-select:none;-webkit-font-smoothing:antialiased;font-family:Consolas,"Liberation Mono",Menlo,Courier,monospace}#chart-dd5b74eb-9e3f-4e2a-8d48-95c2b75d89f9 .title{font-family:Consolas,"Liberation Mono",Menlo,Courier,monospace;font-size:16px}#chart-dd5b74eb-9e3f-4e2a-8d48-95c2b75d89f9 .legends .legend text{font-family:Consolas,"Liberation Mono",Menlo,Courier,monospace;font-size:14px}#chart-dd5b74eb-9e3f-4e2a-8d48-95c2b75d89f9 .axis text{font-family:Consolas,"Liberation Mono",Menlo,Courier,monospace;font-size:10px}#chart-dd5b74eb-9e3f-4e2a-8d48-95c2b75d89f9 .axis text.major{font-family:Consolas,"Liberation Mono",Menlo,Courier,monospace;font-size:10px}#chart-dd5b74eb-9e3f-4e2a-8d48-95c2b75d89f9 .text-overlay text.value{font-family:Consolas,"Liberation Mono",Menlo,Courier,monospace;font-size:16px}#chart-dd5b74eb-9e3f-4e2a-8d48-95c2b75d89f9 .text-overlay text.label{font-family:Consolas,"Liberation Mono",Menlo,Courier,monospace;font-size:10px}#chart-dd5b74eb-9e3f-4e2a-8d48-95c2b75d89f9 .tooltip{font-family:Consolas,"Liberation Mono",Menlo,Courier,monospace;font-size:14px}#chart-dd5b74eb-9e3f-4e2a-8d48-95c2b75d89f9 text.no_data{font-family:Consolas,"Liberation Mono",Menlo,Courier,monospace;font-size:64px}
#chart-dd5b74eb-9e3f-4e2a-8d48-95c2b75d89f9{background-color:rgba(249,249,249,1)}#chart-dd5b74eb-9e3f-4e2a-8d48-95c2b75d89f9 path,#chart-dd5b74eb-9e3f-4e2a-8d48-95c2b75d89f9 line,#chart-dd5b74eb-9e3f-4e2a-8d48-95c2b75d89f9 rect,#chart-dd5b74eb-9e3f-4e2a-8d48-95c2b75d89f9 circle{-webkit-transition:150ms;-moz-transition:150ms;transition:150ms}#chart-dd5b74eb-9e3f-4e2a-8d48-95c2b75d89f9 .graph &gt; .background{fill:rgba(249,249,249,1)}#chart-dd5b74eb-9e3f-4e2a-8d48-95c2b75d89f9 .plot &gt; .background{fill:rgba(255,255,255,1)}#chart-dd5b74eb-9e3f-4e2a-8d48-95c2b75d89f9 .graph{fill:rgba(0,0,0,.87)}#chart-dd5b74eb-9e3f-4e2a-8d48-95c2b75d89f9 text.no_data{fill:rgba(0,0,0,1)}#chart-dd5b74eb-9e3f-4e2a-8d48-95c2b75d89f9 .title{fill:rgba(0,0,0,1)}#chart-dd5b74eb-9e3f-4e2a-8d48-95c2b75d89f9 .legends .legend text{fill:rgba(0,0,0,.87)}#chart-dd5b74eb-9e3f-4e2a-8d48-95c2b75d89f9 .legends .legend:hover text{fill:rgba(0,0,0,1)}#chart-dd5b74eb-9e3f-4e2a-8d48-95c2b75d89f9 .axis .line{stroke:rgba(0,0,0,1)}#chart-dd5b74eb-9e3f-4e2a-8d48-95c2b75d89f9 .axis .guide.line{stroke:rgba(0,0,0,.54)}#chart-dd5b74eb-9e3f-4e2a-8d48-95c2b75d89f9 .axis .major.line{stroke:rgba(0,0,0,.87)}#chart-dd5b74eb-9e3f-4e2a-8d48-95c2b75d89f9 .axis text.major{fill:rgba(0,0,0,1)}#chart-dd5b74eb-9e3f-4e2a-8d48-95c2b75d89f9 .axis.y .guides:hover .guide.line,#chart-dd5b74eb-9e3f-4e2a-8d48-95c2b75d89f9 .line-graph .axis.x .guides:hover .guide.line,#chart-dd5b74eb-9e3f-4e2a-8d48-95c2b75d89f9 .stackedline-graph .axis.x .guides:hover .guide.line,#chart-dd5b74eb-9e3f-4e2a-8d48-95c2b75d89f9 .xy-graph .axis.x .guides:hover .guide.line{stroke:rgba(0,0,0,1)}#chart-dd5b74eb-9e3f-4e2a-8d48-95c2b75d89f9 .axis .guides:hover text{fill:rgba(0,0,0,1)}#chart-dd5b74eb-9e3f-4e2a-8d48-95c2b75d89f9 .reactive{fill-opacity:.7;stroke-opacity:.8}#chart-dd5b74eb-9e3f-4e2a-8d48-95c2b75d89f9 .ci{stroke:rgba(0,0,0,.87)}#chart-dd5b74eb-9e3f-4e2a-8d48-95c2b75d89f9 .reactive.active,#chart-dd5b74eb-9e3f-4e2a-8d48-95c2b75d89f9 .active .reactive{fill-opacity:.8;stroke-opacity:.9;stroke-width:4}#chart-dd5b74eb-9e3f-4e2a-8d48-95c2b75d89f9 .ci .reactive.active{stroke-width:1.5}#chart-dd5b74eb-9e3f-4e2a-8d48-95c2b75d89f9 .series text{fill:rgba(0,0,0,1)}#chart-dd5b74eb-9e3f-4e2a-8d48-95c2b75d89f9 .tooltip rect{fill:rgba(255,255,255,1);stroke:rgba(0,0,0,1);-webkit-transition:opacity 150ms;-moz-transition:opacity 150ms;transition:opacity 150ms}#chart-dd5b74eb-9e3f-4e2a-8d48-95c2b75d89f9 .tooltip .label{fill:rgba(0,0,0,.87)}#chart-dd5b74eb-9e3f-4e2a-8d48-95c2b75d89f9 .tooltip .label{fill:rgba(0,0,0,.87)}#chart-dd5b74eb-9e3f-4e2a-8d48-95c2b75d89f9 .tooltip .legend{font-size:.8em;fill:rgba(0,0,0,.54)}#chart-dd5b74eb-9e3f-4e2a-8d48-95c2b75d89f9 .tooltip .x_label{font-size:.6em;fill:rgba(0,0,0,1)}#chart-dd5b74eb-9e3f-4e2a-8d48-95c2b75d89f9 .tooltip .xlink{font-size:.5em;text-decoration:underline}#chart-dd5b74eb-9e3f-4e2a-8d48-95c2b75d89f9 .tooltip .value{font-size:1.5em}#chart-dd5b74eb-9e3f-4e2a-8d48-95c2b75d89f9 .bound{font-size:.5em}#chart-dd5b74eb-9e3f-4e2a-8d48-95c2b75d89f9 .max-value{font-size:.75em;fill:rgba(0,0,0,.54)}#chart-dd5b74eb-9e3f-4e2a-8d48-95c2b75d89f9 .map-element{fill:rgba(255,255,255,1);stroke:rgba(0,0,0,.54) !important}#chart-dd5b74eb-9e3f-4e2a-8d48-95c2b75d89f9 .map-element .reactive{fill-opacity:inherit;stroke-opacity:inherit}#chart-dd5b74eb-9e3f-4e2a-8d48-95c2b75d89f9 .color-0,#chart-dd5b74eb-9e3f-4e2a-8d48-95c2b75d89f9 .color-0 a:visited{stroke:#e86fa0;fill:#e86fa0}#chart-dd5b74eb-9e3f-4e2a-8d48-95c2b75d89f9 .text-overlay .color-0 text{fill:black}
#chart-dd5b74eb-9e3f-4e2a-8d48-95c2b75d89f9 text.no_data{text-anchor:middle}#chart-dd5b74eb-9e3f-4e2a-8d48-95c2b75d89f9 .guide.line{fill:none}#chart-dd5b74eb-9e3f-4e2a-8d48-95c2b75d89f9 .centered{text-anchor:middle}#chart-dd5b74eb-9e3f-4e2a-8d48-95c2b75d89f9 .title{text-anchor:middle}#chart-dd5b74eb-9e3f-4e2a-8d48-95c2b75d89f9 .legends .legend text{fill-opacity:1}#chart-dd5b74eb-9e3f-4e2a-8d48-95c2b75d89f9 .axis.x text{text-anchor:middle}#chart-dd5b74eb-9e3f-4e2a-8d48-95c2b75d89f9 .axis.x:not(.web) text[transform]{text-anchor:start}#chart-dd5b74eb-9e3f-4e2a-8d48-95c2b75d89f9 .axis.x:not(.web) text[transform].backwards{text-anchor:end}#chart-dd5b74eb-9e3f-4e2a-8d48-95c2b75d89f9 .axis.y text{text-anchor:end}#chart-dd5b74eb-9e3f-4e2a-8d48-95c2b75d89f9 .axis.y text[transform].backwards{text-anchor:start}#chart-dd5b74eb-9e3f-4e2a-8d48-95c2b75d89f9 .axis.y2 text{text-anchor:start}#chart-dd5b74eb-9e3f-4e2a-8d48-95c2b75d89f9 .axis.y2 text[transform].backwards{text-anchor:end}#chart-dd5b74eb-9e3f-4e2a-8d48-95c2b75d89f9 .axis .guide.line{stroke-dasharray:4,4}#chart-dd5b74eb-9e3f-4e2a-8d48-95c2b75d89f9 .axis .major.guide.line{stroke-dasharray:6,6}#chart-dd5b74eb-9e3f-4e2a-8d48-95c2b75d89f9 .horizontal .axis.y .guide.line,#chart-dd5b74eb-9e3f-4e2a-8d48-95c2b75d89f9 .horizontal .axis.y2 .guide.line,#chart-dd5b74eb-9e3f-4e2a-8d48-95c2b75d89f9 .vertical .axis.x .guide.line{opacity:0}#chart-dd5b74eb-9e3f-4e2a-8d48-95c2b75d89f9 .horizontal .axis.always_show .guide.line,#chart-dd5b74eb-9e3f-4e2a-8d48-95c2b75d89f9 .vertical .axis.always_show .guide.line{opacity:1 !important}#chart-dd5b74eb-9e3f-4e2a-8d48-95c2b75d89f9 .axis.y .guides:hover .guide.line,#chart-dd5b74eb-9e3f-4e2a-8d48-95c2b75d89f9 .axis.y2 .guides:hover .guide.line,#chart-dd5b74eb-9e3f-4e2a-8d48-95c2b75d89f9 .axis.x .guides:hover .guide.line{opacity:1}#chart-dd5b74eb-9e3f-4e2a-8d48-95c2b75d89f9 .axis .guides:hover text{opacity:1}#chart-dd5b74eb-9e3f-4e2a-8d48-95c2b75d89f9 .nofill{fill:none}#chart-dd5b74eb-9e3f-4e2a-8d48-95c2b75d89f9 .subtle-fill{fill-opacity:.2}#chart-dd5b74eb-9e3f-4e2a-8d48-95c2b75d89f9 .dot{stroke-width:1px;fill-opacity:1}#chart-dd5b74eb-9e3f-4e2a-8d48-95c2b75d89f9 .dot.active{stroke-width:5px}#chart-dd5b74eb-9e3f-4e2a-8d48-95c2b75d89f9 .dot.negative{fill:transparent}#chart-dd5b74eb-9e3f-4e2a-8d48-95c2b75d89f9 text,#chart-dd5b74eb-9e3f-4e2a-8d48-95c2b75d89f9 tspan{stroke:none !important}#chart-dd5b74eb-9e3f-4e2a-8d48-95c2b75d89f9 .series text.active{opacity:1}#chart-dd5b74eb-9e3f-4e2a-8d48-95c2b75d89f9 .tooltip rect{fill-opacity:.95;stroke-width:.5}#chart-dd5b74eb-9e3f-4e2a-8d48-95c2b75d89f9 .tooltip text{fill-opacity:1}#chart-dd5b74eb-9e3f-4e2a-8d48-95c2b75d89f9 .showable{visibility:hidden}#chart-dd5b74eb-9e3f-4e2a-8d48-95c2b75d89f9 .showable.shown{visibility:visible}#chart-dd5b74eb-9e3f-4e2a-8d48-95c2b75d89f9 .gauge-background{fill:rgba(229,229,229,1);stroke:none}#chart-dd5b74eb-9e3f-4e2a-8d48-95c2b75d89f9 .bg-lines{stroke:rgba(249,249,249,1);stroke-width:2px}</style><script type="text/javascript">window.pygal = window.pygal || {};window.pygal.config = window.pygal.config || {};window.pygal.config['dd5b74eb-9e3f-4e2a-8d48-95c2b75d89f9'] = {"no_data_text": "No data", "no_prefix": false, "xrange": null, "print_values_position": "center", "truncate_label": null, "x_labels": ["2549", "2550", "2551", "2552", "2553", "2554", "2555", "2556", "2557", "2558"], "title": null, "force_uri_protocol": "https", "defs": [], "formatter": null, "classes": ["pygal-chart"], "y_labels": null, "rounded_bars": null, "explicit_size": false, "x_labels_major_every": null, "legend_at_bottom_columns": null, "stroke_style": null, "half_pie": false, "spacing": 10, "tooltip_fancy_mode": true, "inverse_y_axis": false, "width": 800, "inner_radius": 0, "interpolation_parameters": {}, "tooltip_border_radius": 0, "style": {"no_data_font_family": "Consolas, \"Liberation Mono\", Menlo, Courier, monospace", "tooltip_font_size": 14, "tooltip_font_family": "Consolas, \"Liberation Mono\", Menlo, Courier, monospace", "stroke_opacity_hover": ".9", "legend_font_family": "Consolas, \"Liberation Mono\", Menlo, Courier, monospace", "font_family": "Consolas, \"Liberation Mono\", Menlo, Courier, monospace", "title_font_family": "Consolas, \"Liberation Mono\", Menlo, Courier, monospace", "background": "rgba(249, 249, 249, 1)", "stroke_opacity": ".8", "foreground": "rgba(0, 0, 0, .87)", "value_background": "rgba(229, 229, 229, 1)", "guide_stroke_dasharray": "4,4", "foreground_subtle": "rgba(0, 0, 0, .54)", "opacity_hover": ".8", "value_font_family": "Consolas, \"Liberation Mono\", Menlo, Courier, monospace", "value_label_font_size": 10, "plot_background": "rgba(255, 255, 255, 1)", "ci_colors": [], "label_font_size": 10, "major_label_font_size": 10, "title_font_size": 16, "no_data_font_size": 64, "value_font_size": 16, "value_colors": [], "label_font_family": "Consolas, \"Liberation Mono\", Menlo, Courier, monospace", "major_guide_stroke_dasharray": "6,6", "transition": "150ms", "foreground_strong": "rgba(0, 0, 0, 1)", "colors": ["#e86fa0", "#e88f6f", "#e8df6f", "#a0e86f", "#6fe88f", "#6fe8df", "#6fa0e8", "#8f6fe8", "#df6fe8", "#e86fa0"], "opacity": ".7", "legend_font_size": 14, "value_label_font_family": "Consolas, \"Liberation Mono\", Menlo, Courier, monospace", "major_label_font_family": "Consolas, \"Liberation Mono\", Menlo, Courier, monospace"}, "x_labels_major_count": null, "interpolation_precision": 250, "missing_value_fill_truncation": "x", "stack_from_top": false, "truncate_legend": null, "show_minor_x_labels": true, "print_zeroes": true, "css": ["file://style.css", "file://graph.css"], "y_label_rotation": 0, "legend_at_bottom": false, "print_values": false, "margin_top": null, "max_scale": 16, "allow_interruptions": false, "show_x_labels": true, "strict": false, "show_x_guides": false, "stroke": true, "margin_left": null, "dynamic_print_values": false, "print_labels": false, "show_y_labels": true, "x_labels_major": null, "range": null, "x_label_rotation": 0, "margin": 20, "zero": 0, "include_x_axis": false, "height": 600, "show_minor_y_labels": true, "show_dots": true, "interpolate": "cubic", "show_y_guides": true, "y_labels_major": null, "box_mode": "extremes", "margin_bottom": null, "order_min": null, "legend_box_size": 12, "fill": true, "show_only_major_dots": false, "js": ["//kozea.github.io/pygal.js/2.0.x/pygal-tooltips.min.js"], "x_title": null, "y_labels_major_every": null, "y_labels_major_count": null, "disable_xml_declaration": false, "y_title": null, "logarithmic": false, "pretty_print": false, "min_scale": 4, "dots_size": 2.5, "margin_right": null, "legends": [null], "secondary_range": null, "show_legend": false}</script><script type="text/javascript" xlink:href="https://kozea.github.io/pygal.js/2.0.x/pygal-tooltips.min.js" /></defs><title>Pygal</title><g class="graph stackedline-graph vertical"><rect class="background" height="600" width="800" x="0" y="0" /><g class="plot" transform="translate(60, 20)"><rect class="background" height="540" width="720.0" x="0" y="0" /><g class="axis y"><path class="line" d="M0.000000 540.000000 h720.000000" /><g class="guides"><path class="guide line" d="M0.000000 496.584853 h720.000000" /><text class="" x="-5" y="500.08485337955966">6300M</text><title>6300M</title></g><g class="guides"><path class="guide line" d="M0.000000 447.816498 h720.000000" /><text class="" x="-5" y="451.3164984747463">6400M</text><title>6400M</title></g><g class="guides"><path class="major guide line" d="M0.000000 399.048144 h720.000000" /><text class="major" x="-5" y="402.548143569933">6500M</text><title>6500M</title></g><g class="guides"><path class="guide line" d="M0.000000 350.279789 h720.000000" /><text class="" x="-5" y="353.77978866511967">6600M</text><title>6600M</title></g><g class="guides"><path class="guide line" d="M0.000000 301.511434 h720.000000" /><text class="" x="-5" y="305.0114337603063">6700M</text><title>6700M</title></g><g class="guides"><path class="guide line" d="M0.000000 252.743079 h720.000000" /><text class="" x="-5" y="256.24307885549297">6800M</text><title>6800M</title></g><g class="guides"><path class="guide line" d="M0.000000 203.974724 h720.000000" /><text class="" x="-5" y="207.47472395067967">6900M</text><title>6900M</title></g><g class="guides"><path class="major guide line" d="M0.000000 155.206369 h720.000000" /><text class="major" x="-5" y="158.70636904586632">7000M</text><title>7000M</title></g><g class="guides"><path class="guide line" d="M0.000000 106.438014 h720.000000" /><text class="" x="-5" y="109.93801414105297">7100M</text><title>7100M</title></g><g class="guides"><path class="guide line" d="M0.000000 57.669659 h720.000000" /><text class="" x="-5" y="61.16965923623968">7200M</text><title>7200M</title></g></g><g class="axis x"><g class="guides"><path class="line" d="M13.846154 0.000000 v540.000000" /><text class="" x="13.846153846153847" y="555.0">2549</text></g><g class="guides"><path class="guide line" d="M90.769231 0.000000 v540.000000" /><text class="" x="90.76923076923076" y="555.0">2550</text></g><g class="guides"><path class="guide line" d="M167.692308 0.000000 v540.000000" /><text class="" x="167.69230769230765" y="555.0">2551</text></g><g class="guides"><path class="guide line" d="M244.615385 0.000000 v540.000000" /><text class="" x="244.6153846153846" y="555.0">2552</text></g><g class="guides"><path class="guide line" d="M321.538462 0.000000 v540.000000" /><text class="" x="321.5384615384615" y="555.0">2553</text></g><g class="guides"><path class="guide line" d="M398.461538 0.000000 v540.000000" /><text class="" x="398.46153846153845" y="555.0">2554</text></g><g class="guides"><path class="guide line" d="M475.384615 0.000000 v540.000000" /><text class="" x="475.38461538461536" y="555.0">2555</text></g><g class="guides"><path class="guide line" d="M552.307692 0.000000 v540.000000" /><text class="" x="552.3076923076923" y="555.0">2556</text></g><g class="guides"><path class="guide line" d="M629.230769 0.000000 v540.000000" /><text class="" x="629.2307692307692" y="555.0">2557</text></g><g class="guides"><path class="guide line" d="M706.153846 0.000000 v540.000000" /><text class="" x="706.1538461538461" y="555.0">2558</text></g></g><g class="series serie-0 color-0"><path class="line reactive" d="M13.846154 540.000000 L13.846154 529.615385 14.153846 528.680210 14.461538 527.745045 14.769231 526.809897 15.076923 525.874777 15.384615 524.939693 15.692308 524.004655 16.000000 523.069671 16.307692 522.134750 16.615385 521.199903 16.923077 520.265136 17.230769 519.330461 17.538462 518.395886 17.846154 517.461419 18.153846 516.527070 18.461538 515.592849 18.769231 514.658763 19.076923 513.724823 19.384615 512.791037 19.692308 511.857415 20.000000 510.923965 20.307692 509.990696 20.615385 509.057618 20.923077 508.124740 21.230769 507.192071 21.538462 506.259619 21.846154 505.327394 22.153846 504.395405 22.461538 503.463662 22.769231 502.532172 23.076923 501.600946 23.384615 500.669992 23.692308 499.739319 24.000000 498.808937 24.307692 497.878854 24.615385 496.949080 24.923077 496.019624 25.230769 495.090494 25.538462 494.161700 25.846154 493.233251 26.153846 492.305156 26.461538 491.377424 26.769231 490.450065 27.076923 489.523086 27.384615 488.596498 27.692308 487.670309 28.000000 486.744528 28.307692 485.819165 28.615385 484.894229 28.923077 483.969728 29.230769 483.045672 29.538462 482.122070 29.846154 481.198931 30.153846 480.276264 30.461538 479.354078 30.769231 478.432381 31.076923 477.511185 31.384615 476.590496 31.692308 475.670325 32.000000 474.750680 32.307692 473.831571 32.615385 472.913006 32.923077 471.994995 33.230769 471.077547 33.538462 470.160670 33.846154 469.244374 34.153846 468.328669 34.461538 467.413562 34.769231 466.499064 35.076923 465.585183 35.384615 464.671928 35.692308 463.759308 36.000000 462.847333 36.307692 461.936011 36.615385 461.025352 36.923077 460.115364 37.230769 459.206058 37.538462 458.297441 37.846154 457.389523 38.153846 456.482312 38.461538 455.575819 38.769231 454.670053 39.076923 453.765021 39.384615 452.860733 39.692308 451.957199 40.000000 451.054427 40.307692 450.152427 40.615385 449.251208 40.923077 448.350778 41.230769 447.451146 41.538462 446.552323 41.846154 445.654316 42.153846 444.757136 42.461538 443.860790 42.769231 442.965288 43.076923 442.070640 43.384615 441.176854 43.692308 440.283939 44.000000 439.391905 44.307692 438.500760 44.615385 437.610514 44.923077 436.721175 45.230769 435.832754 45.538462 434.945257 45.846154 434.058696 46.153846 433.173079 46.461538 432.288415 46.769231 431.404713 47.076923 430.521982 47.384615 429.640231 47.692308 428.759470 48.000000 427.879707 48.307692 427.000951 48.615385 426.123212 48.923077 425.246499 49.230769 424.370820 49.538462 423.496186 49.846154 422.622604 50.153846 421.750084 50.461538 420.878635 50.769231 420.008266 51.076923 419.138986 51.384615 418.270805 51.692308 417.403731 52.000000 416.537773 52.307692 415.672941 52.615385 414.809243 52.923077 413.946689 53.230769 413.085288 53.538462 412.225048 53.846154 411.365979 54.153846 410.508091 54.461538 409.651391 54.769231 408.795889 55.076923 407.941595 55.384615 407.088516 55.692308 406.236664 56.000000 405.386045 56.307692 404.536670 56.615385 403.688547 56.923077 402.841687 57.230769 401.996096 57.538462 401.151786 57.846154 400.308764 58.153846 399.467041 58.461538 398.626624 58.769231 397.787524 59.076923 396.949748 59.384615 396.113307 59.692308 395.278209 60.000000 394.444464 60.307692 393.612080 60.615385 392.781066 60.923077 391.951432 61.230769 391.123187 61.538462 390.296340 61.846154 389.470899 62.153846 388.646875 62.461538 387.824275 62.769231 387.003110 63.076923 386.183387 63.384615 385.365117 63.692308 384.548308 64.000000 383.732970 64.307692 382.919111 64.615385 382.106740 64.923077 381.295868 65.230769 380.486501 65.538462 379.678651 65.846154 378.872325 66.153846 378.067534 66.461538 377.264285 66.769231 376.462589 67.076923 375.662453 67.384615 374.863888 67.692308 374.066902 68.000000 373.271505 68.307692 372.477704 68.615385 371.685511 68.923077 370.894933 69.230769 370.105980 69.538462 369.318660 69.846154 368.532984 70.153846 367.748959 70.461538 366.966595 70.769231 366.185901 71.076923 365.406887 71.384615 364.629560 71.692308 363.853931 72.000000 363.080009 72.307692 362.307801 72.615385 361.537319 72.923077 360.768570 73.230769 360.001563 73.538462 359.236308 73.846154 358.472814 74.153846 357.711091 74.461538 356.951146 74.769231 356.192989 75.076923 355.436629 75.384615 354.682075 75.692308 353.929337 76.000000 353.178423 76.307692 352.429342 76.615385 351.682104 76.923077 350.936718 77.230769 350.193192 77.538462 349.451536 77.846154 348.711759 78.153846 347.973870 78.461538 347.237878 78.769231 346.503791 79.076923 345.771620 79.384615 345.041373 79.692308 344.313060 80.000000 343.586689 80.307692 342.862269 80.615385 342.139809 80.923077 341.419320 81.230769 340.700809 81.538462 339.984285 81.846154 339.269759 82.153846 338.557238 82.461538 337.846732 82.769231 337.138251 83.076923 336.431802 83.384615 335.727396 83.692308 335.025041 84.000000 334.324746 84.307692 333.626521 84.615385 332.930374 84.923077 332.236315 85.230769 331.544353 85.538462 330.854496 85.846154 330.166754 86.153846 329.481136 86.461538 328.797651 86.769231 328.116308 87.076923 327.437116 87.384615 326.760084 87.692308 326.085221 88.000000 325.412537 88.307692 324.742040 88.615385 324.073740 88.923077 323.407645 89.230769 322.743765 89.538462 322.082109 89.846154 321.422686 90.153846 320.765504 90.461538 320.110573 90.769231 319.457903 91.076923 318.807503 91.384615 318.159397 91.692308 317.513607 92.000000 316.870158 92.307692 316.229072 92.615385 315.590374 92.923077 314.954086 93.230769 314.320234 93.538462 313.688841 93.846154 313.059929 94.153846 312.433524 94.461538 311.809648 94.769231 311.188326 95.076923 310.569580 95.384615 309.953436 95.692308 309.339915 96.000000 308.729043 96.307692 308.120842 96.615385 307.515337 96.923077 306.912551 97.230769 306.312508 97.538462 305.715231 97.846154 305.120744 98.153846 304.529072 98.461538 303.940236 98.769231 303.354262 99.076923 302.771173 99.384615 302.190993 99.692308 301.613744 100.000000 301.039452 100.307692 300.468139 100.615385 299.899830 100.923077 299.334548 101.230769 298.772316 101.538462 298.213159 101.846154 297.657099 102.153846 297.104162 102.461538 296.554370 102.769231 296.007747 103.076923 295.464316 103.384615 294.924103 103.692308 294.387129 104.000000 293.853419 104.307692 293.322997 104.615385 292.795886 104.923077 292.272110 105.230769 291.751693 105.538462 291.234657 105.846154 290.721028 106.153846 290.210828 106.461538 289.704082 106.769231 289.200813 107.076923 288.701044 107.384615 288.204800 107.692308 287.712103 108.000000 287.222979 108.307692 286.737450 108.615385 286.255540 108.923077 285.777273 109.230769 285.302672 109.538462 284.831761 109.846154 284.364565 110.153846 283.901106 110.461538 283.441408 110.769231 282.985495 111.076923 282.533390 111.384615 282.085118 111.692308 281.640702 112.000000 281.200165 112.307692 280.763532 112.615385 280.330825 112.923077 279.902070 113.230769 279.477289 113.538462 279.056505 113.846154 278.639744 114.153846 278.227028 114.461538 277.818381 114.769231 277.413827 115.076923 277.013389 115.384615 276.617092 115.692308 276.224958 116.000000 275.837012 116.307692 275.453277 116.615385 275.073777 116.923077 274.698536 117.230769 274.327576 117.538462 273.960923 117.846154 273.598600 118.153846 273.240629 118.461538 272.887036 118.769231 272.537843 119.076923 272.193075 119.384615 271.852755 119.692308 271.516907 120.000000 271.185554 120.307692 270.858720 120.615385 270.536429 120.923077 270.218704 121.230769 269.905570 121.538462 269.597049 121.846154 269.293166 122.153846 268.993944 122.461538 268.699407 122.769231 268.409579 123.076923 268.124482 123.384615 267.844142 123.692308 267.568582 124.000000 267.297824 124.307692 267.031894 124.615385 266.770815 124.923077 266.514609 125.230769 266.263302 125.538462 266.016917 125.846154 265.775477 126.153846 265.539006 126.461538 265.307528 126.769231 265.081066 127.076923 264.859645 127.384615 264.643287 127.692308 264.432017 128.000000 264.225858 128.307692 264.024834 128.615385 263.828969 128.923077 263.638286 129.230769 263.452809 129.538462 263.272561 129.846154 263.097567 130.153846 262.927850 130.461538 262.763433 130.769231 262.604341 131.076923 262.450597 131.384615 262.302225 131.692308 262.159248 132.000000 262.021690 132.307692 261.889575 132.615385 261.762926 132.923077 261.641768 133.230769 261.526123 133.538462 261.416016 133.846154 261.311470 134.153846 261.212510 134.461538 261.119157 134.769231 261.031437 135.076923 260.949373 135.384615 260.872988 135.692308 260.802307 136.000000 260.737353 136.307692 260.678150 136.615385 260.624720 136.923077 260.577089 137.230769 260.535280 137.538462 260.499316 137.846154 260.469221 138.153846 260.445019 138.461538 260.426734 138.769231 260.414388 139.076923 260.408007 139.384615 260.407613 139.692308 260.413230 140.000000 260.424882 140.307692 260.442593 140.615385 260.466386 140.923077 260.496285 141.230769 260.532313 141.538462 260.574495 141.846154 260.622854 142.153846 260.677413 142.461538 260.738197 142.769231 260.805229 143.076923 260.878533 143.384615 260.958132 143.692308 261.044050 144.000000 261.136311 144.307692 261.234939 144.615385 261.339956 144.923077 261.451388 145.230769 261.569257 145.538462 261.693587 145.846154 261.824402 146.153846 261.961726 146.461538 262.105582 146.769231 262.255994 147.076923 262.412985 147.384615 262.576580 147.692308 262.746802 148.000000 262.923674 148.307692 263.107221 148.615385 263.297466 148.923077 263.494433 149.230769 263.698145 149.538462 263.908626 149.846154 264.125900 150.153846 264.349991 150.461538 264.580921 150.769231 264.818716 151.076923 265.063398 151.384615 265.314991 151.692308 265.573519 152.000000 265.839006 152.307692 266.111475 152.615385 266.390950 152.923077 266.677454 153.230769 266.971012 153.538462 267.271647 153.846154 267.579383 154.153846 267.894243 154.461538 268.216250 154.769231 268.545430 155.076923 268.881805 155.384615 269.225400 155.692308 269.576237 156.000000 269.934340 156.307692 270.299734 156.615385 270.672441 156.923077 271.052486 157.230769 271.439893 157.538462 271.834684 157.846154 272.236883 158.153846 272.646515 158.461538 273.063603 158.769231 273.488171 159.076923 273.920242 159.384615 274.359840 159.692308 274.806988 160.000000 275.261711 160.307692 275.724032 160.615385 276.193975 160.923077 276.671563 161.230769 277.156820 161.538462 277.649770 161.846154 278.150437 162.153846 278.658843 162.461538 279.175014 162.769231 279.698972 163.076923 280.230741 163.384615 280.770345 163.692308 281.317808 164.000000 281.873153 164.307692 282.436404 164.615385 283.007584 164.923077 283.586718 165.230769 284.173829 165.538462 284.768941 165.846154 285.372077 166.153846 285.983261 166.461538 286.602516 166.769231 287.229868 167.076923 287.865338 167.384615 288.508951 167.692308 289.160730 168.000000 289.820677 168.307692 290.488698 168.615385 291.164678 168.923077 291.848501 169.230769 292.540052 169.538462 293.239215 169.846154 293.945874 170.153846 294.659914 170.461538 295.381219 170.769231 296.109674 171.076923 296.845162 171.384615 297.587569 171.692308 298.336779 172.000000 299.092675 172.307692 299.855143 172.615385 300.624067 172.923077 301.399331 173.230769 302.180820 173.538462 302.968417 173.846154 303.762008 174.153846 304.561476 174.461538 305.366706 174.769231 306.177583 175.076923 306.993990 175.384615 307.815813 175.692308 308.642935 176.000000 309.475241 176.307692 310.312615 176.615385 311.154942 176.923077 312.002106 177.230769 312.853992 177.538462 313.710483 177.846154 314.571464 178.153846 315.436820 178.461538 316.306434 178.769231 317.180192 179.076923 318.057978 179.384615 318.939676 179.692308 319.825170 180.000000 320.714344 180.307692 321.607084 180.615385 322.503274 180.923077 323.402797 181.230769 324.305539 181.538462 325.211383 181.846154 326.120214 182.153846 327.031917 182.461538 327.946375 182.769231 328.863473 183.076923 329.783096 183.384615 330.705128 183.692308 331.629453 184.000000 332.555956 184.307692 333.484521 184.615385 334.415032 184.923077 335.347374 185.230769 336.281431 185.538462 337.217088 185.846154 338.154228 186.153846 339.092737 186.461538 340.032498 186.769231 340.973397 187.076923 341.915317 187.384615 342.858142 187.692308 343.801758 188.000000 344.746048 188.307692 345.690897 188.615385 346.636189 188.923077 347.581809 189.230769 348.527641 189.538462 349.473569 189.846154 350.419478 190.153846 351.365252 190.461538 352.310776 190.769231 353.255933 191.076923 354.200609 191.384615 355.144688 191.692308 356.088053 192.000000 357.030590 192.307692 357.972182 192.615385 358.912715 192.923077 359.852072 193.230769 360.790138 193.538462 361.726797 193.846154 362.661934 194.153846 363.595433 194.461538 364.527178 194.769231 365.457054 195.076923 366.384945 195.384615 367.310736 195.692308 368.234310 196.000000 369.155553 196.307692 370.074348 196.615385 370.990580 196.923077 371.904134 197.230769 372.814893 197.538462 373.722743 197.846154 374.627567 198.153846 375.529250 198.461538 376.427676 198.769231 377.322730 199.076923 378.214295 199.384615 379.102257 199.692308 379.986500 200.000000 380.866908 200.307692 381.743366 200.615385 382.615757 200.923077 383.483966 201.230769 384.347878 201.538462 385.207377 201.846154 386.062348 202.153846 386.912674 202.461538 387.758240 202.769231 388.598931 203.076923 389.434631 203.384615 390.265224 203.692308 391.090594 204.000000 391.910626 204.307692 392.725205 204.615385 393.534215 204.923077 394.337539 205.230769 395.135064 205.538462 395.926671 205.846154 396.712248 206.153846 397.491676 206.461538 398.264842 206.769231 399.031629 207.076923 399.791922 207.384615 400.545605 207.692308 401.292563 208.000000 402.032679 208.307692 402.765838 208.615385 403.491925 208.923077 404.210824 209.230769 404.922420 209.538462 405.626596 209.846154 406.323237 210.153846 407.012228 210.461538 407.693452 210.769231 408.366795 211.076923 409.032140 211.384615 409.689373 211.692308 410.338376 212.000000 410.979036 212.307692 411.611235 212.615385 412.234859 212.923077 412.849792 213.230769 413.455918 213.538462 414.053122 213.846154 414.641287 214.153846 415.220299 214.461538 415.790042 214.769231 416.350399 215.076923 416.901257 215.384615 417.442498 215.692308 417.974007 216.000000 418.495669 216.307692 419.007367 216.615385 419.508987 216.923077 420.000413 217.230769 420.481529 217.538462 420.952220 217.846154 421.412369 218.153846 421.861861 218.461538 422.300581 218.769231 422.728413 219.076923 423.145241 219.384615 423.550950 219.692308 423.945424 220.000000 424.328548 220.307692 424.700205 220.615385 425.060281 220.923077 425.408659 221.230769 425.745224 221.538462 426.069860 221.846154 426.382453 222.153846 426.682885 222.461538 426.971041 222.769231 427.246807 223.076923 427.510066 223.384615 427.760702 223.692308 427.998600 224.000000 428.223645 224.307692 428.435720 224.615385 428.634710 224.923077 428.820500 225.230769 428.992974 225.538462 429.152015 225.846154 429.297510 226.153846 429.429341 226.461538 429.547394 226.769231 429.651552 227.076923 429.741700 227.384615 429.817723 227.692308 429.879505 228.000000 429.926930 228.307692 429.959882 228.615385 429.978246 228.923077 429.981907 229.230769 429.970749 229.538462 429.944655 229.846154 429.903511 230.153846 429.847201 230.461538 429.775609 230.769231 429.688619 231.076923 429.586116 231.384615 429.467985 231.692308 429.334109 232.000000 429.184374 232.307692 429.018663 232.615385 428.836861 232.923077 428.638851 233.230769 428.424520 233.538462 428.193750 233.846154 427.946427 234.153846 427.682434 234.461538 427.401657 234.769231 427.103979 235.076923 426.789285 235.384615 426.457458 235.692308 426.108385 236.000000 425.741948 236.307692 425.358033 236.615385 424.956523 236.923077 424.537304 237.230769 424.100259 237.538462 423.645272 237.846154 423.172229 238.153846 422.681014 238.461538 422.171510 238.769231 421.643603 239.076923 421.097176 239.384615 420.532114 239.692308 419.948302 240.000000 419.345624 240.307692 418.723963 240.615385 418.083206 240.923077 417.423235 241.230769 416.743935 241.538462 416.045192 241.846154 415.326888 242.153846 414.588909 242.461538 413.831138 242.769231 413.053461 243.076923 412.255761 243.384615 411.437923 243.692308 410.599832 244.000000 409.741371 244.307692 408.862425 244.615385 407.962878 244.923077 407.042666 245.230769 406.101921 245.538462 405.140828 245.846154 404.159572 246.153846 403.158336 246.461538 402.137304 246.769231 401.096661 247.076923 400.036591 247.384615 398.957278 247.692308 397.858906 248.000000 396.741659 248.307692 395.605722 248.615385 394.451278 248.923077 393.278511 249.230769 392.087607 249.538462 390.878748 249.846154 389.652120 250.153846 388.407906 250.461538 387.146290 250.769231 385.867456 251.076923 384.571590 251.384615 383.258874 251.692308 381.929493 252.000000 380.583631 252.307692 379.221472 252.615385 377.843201 252.923077 376.449001 253.230769 375.039057 253.538462 373.613553 253.846154 372.172673 254.153846 370.716601 254.461538 369.245521 254.769231 367.759617 255.076923 366.259074 255.384615 364.744076 255.692308 363.214806 256.000000 361.671449 256.307692 360.114190 256.615385 358.543211 256.923077 356.958699 257.230769 355.360835 257.538462 353.749805 257.846154 352.125794 258.153846 350.488984 258.461538 348.839560 258.769231 347.177706 259.076923 345.503607 259.384615 343.817446 259.692308 342.119408 260.000000 340.409677 260.307692 338.688437 260.615385 336.955871 260.923077 335.212166 261.230769 333.457503 261.538462 331.692068 261.846154 329.916045 262.153846 328.129617 262.461538 326.332970 262.769231 324.526286 263.076923 322.709751 263.384615 320.883548 263.692308 319.047862 264.000000 317.202876 264.307692 315.348776 264.615385 313.485744 264.923077 311.613965 265.230769 309.733624 265.538462 307.844904 265.846154 305.947989 266.153846 304.043064 266.461538 302.130313 266.769231 300.209920 267.076923 298.282069 267.384615 296.346945 267.692308 294.404730 268.000000 292.455611 268.307692 290.499770 268.615385 288.537391 268.923077 286.568660 269.230769 284.593760 269.538462 282.612875 269.846154 280.626190 270.153846 278.633888 270.461538 276.636153 270.769231 274.633171 271.076923 272.625124 271.384615 270.612198 271.692308 268.594576 272.000000 266.572442 272.307692 264.545981 272.615385 262.515377 272.923077 260.480813 273.230769 258.442475 273.538462 256.400545 273.846154 254.355209 274.153846 252.306650 274.461538 250.255053 274.769231 248.200601 275.076923 246.143479 275.384615 244.083872 275.692308 242.021962 276.000000 239.957934 276.307692 237.891973 276.615385 235.824263 276.923077 233.754987 277.230769 231.684330 277.538462 229.612476 277.846154 227.539610 278.153846 225.465914 278.461538 223.391574 278.769231 221.316773 279.076923 219.241697 279.384615 217.166528 279.692308 215.091451 280.000000 213.016650 280.307692 210.942309 280.615385 208.868613 280.923077 206.795745 281.230769 204.723890 281.538462 202.653232 281.846154 200.583955 282.153846 198.516243 282.461538 196.450280 282.769231 194.386251 283.076923 192.324339 283.384615 190.264729 283.692308 188.207605 284.000000 186.153151 284.307692 184.101551 284.615385 182.052989 284.923077 180.007649 285.230769 177.965717 285.538462 175.927374 285.846154 173.892807 286.153846 171.862199 286.461538 169.835734 286.769231 167.813596 287.076923 165.795970 287.384615 163.783039 287.692308 161.774988 288.000000 159.772000 288.307692 157.774261 288.615385 155.781954 288.923077 153.795263 289.230769 151.814373 289.538462 149.839467 289.846154 147.870730 290.153846 145.908345 290.461538 143.952498 290.769231 142.003372 291.076923 140.061151 291.384615 138.126019 291.692308 136.198162 292.000000 134.277761 292.307692 132.365003 292.615385 130.460071 292.923077 128.563149 293.230769 126.674421 293.538462 124.794071 293.846154 122.922284 294.153846 121.059244 294.461538 119.205135 294.769231 117.360141 295.076923 115.524446 295.384615 113.698234 295.692308 111.881689 296.000000 110.074997 296.307692 108.278340 296.615385 106.491902 296.923077 104.715869 297.230769 102.950424 297.538462 101.195751 297.846154 99.452035 298.153846 97.719459 298.461538 95.998208 298.769231 94.288466 299.076923 92.590417 299.384615 90.904245 299.692308 89.230134 300.000000 87.568269 300.307692 85.918833 300.615385 84.282011 300.923077 82.657987 301.230769 81.046945 301.538462 79.449069 301.846154 77.864544 302.153846 76.293552 302.461538 74.736280 302.769231 73.192910 303.076923 71.663627 303.384615 70.148615 303.692308 68.648058 304.000000 67.162141 304.307692 65.691047 304.615385 64.234960 304.923077 62.794066 305.230769 61.368547 305.538462 59.958588 305.846154 58.564373 306.153846 57.186087 306.461538 55.823913 306.769231 54.478036 307.076923 53.148639 307.384615 51.835907 307.692308 50.540025 308.000000 49.261175 308.307692 47.999543 308.615385 46.755312 308.923077 45.528667 309.230769 44.319792 309.538462 43.128870 309.846154 41.956087 310.153846 40.801625 310.461538 39.665670 310.769231 38.548406 311.076923 37.450016 311.384615 36.370685 311.692308 35.310596 312.000000 34.269935 312.307692 33.248885 312.615385 32.247630 312.923077 31.266355 313.230769 30.305243 313.538462 29.364479 313.846154 28.444247 314.153846 27.544731 314.461538 26.666115 314.769231 25.808583 315.076923 24.972320 315.384615 24.157509 315.692308 23.364336 316.000000 22.592983 316.307692 21.843635 316.615385 21.116476 316.923077 20.411691 317.230769 19.729463 317.538462 19.069977 317.846154 18.433416 318.153846 17.819965 318.461538 17.229809 318.769231 16.663130 319.076923 16.120114 319.384615 15.600945 319.692308 15.105806 320.000000 14.634881 320.307692 14.188356 320.615385 13.766414 320.923077 13.369239 321.230769 12.997015 321.538462 12.649926 321.846154 12.328104 322.153846 12.031460 322.461538 11.759855 322.769231 11.513149 323.076923 11.291201 323.384615 11.093870 323.692308 10.921017 324.000000 10.772500 324.307692 10.648181 324.615385 10.547917 324.923077 10.471569 325.230769 10.418996 325.538462 10.390058 325.846154 10.384615 326.153846 10.402526 326.461538 10.443651 326.769231 10.507850 327.076923 10.594981 327.384615 10.704905 327.692308 10.837481 328.000000 10.992569 328.307692 11.170029 328.615385 11.369720 328.923077 11.591501 329.230769 11.835233 329.538462 12.100775 329.846154 12.387986 330.153846 12.696726 330.461538 13.026855 330.769231 13.378233 331.076923 13.750718 331.384615 14.144171 331.692308 14.558452 332.000000 14.993419 332.307692 15.448933 332.615385 15.924852 332.923077 16.421038 333.230769 16.937348 333.538462 17.473644 333.846154 18.029784 334.153846 18.605628 334.461538 19.201036 334.769231 19.815867 335.076923 20.449981 335.384615 21.103238 335.692308 21.775497 336.000000 22.466618 336.307692 23.176460 336.615385 23.904883 336.923077 24.651747 337.230769 25.416911 337.538462 26.200235 337.846154 27.001579 338.153846 27.820801 338.461538 28.657763 338.769231 29.512322 339.076923 30.384340 339.384615 31.273675 339.692308 32.180187 340.000000 33.103736 340.307692 34.044181 340.615385 35.001383 340.923077 35.975200 341.230769 36.965492 341.538462 37.972119 341.846154 38.994940 342.153846 40.033816 342.461538 41.088605 342.769231 42.159167 343.076923 43.245363 343.384615 44.347050 343.692308 45.464090 344.000000 46.596342 344.307692 47.743665 344.615385 48.905919 344.923077 50.082964 345.230769 51.274658 345.538462 52.480863 345.846154 53.701437 346.153846 54.936240 346.461538 56.185131 346.769231 57.447971 347.076923 58.724619 347.384615 60.014934 347.692308 61.318777 348.000000 62.636005 348.307692 63.966481 348.615385 65.310062 348.923077 66.666609 349.230769 68.035981 349.538462 69.418037 349.846154 70.812638 350.153846 72.219643 350.461538 73.638912 350.769231 75.070304 351.076923 76.513679 351.384615 77.968896 351.692308 79.435815 352.000000 80.914296 352.307692 82.404198 352.615385 83.905381 352.923077 85.417704 353.230769 86.941028 353.538462 88.475211 353.846154 90.020114 354.153846 91.575595 354.461538 93.141516 354.769231 94.717734 355.076923 96.304110 355.384615 97.900504 355.692308 99.506774 356.000000 101.122782 356.307692 102.748385 356.615385 104.383444 356.923077 106.027819 357.230769 107.681369 357.538462 109.343954 357.846154 111.015432 358.153846 112.695665 358.461538 114.384512 358.769231 116.081831 359.076923 117.787483 359.384615 119.501328 359.692308 121.223224 360.000000 122.953033 360.307692 124.690612 360.615385 126.435822 360.923077 128.188523 361.230769 129.948574 361.538462 131.715834 361.846154 133.490164 362.153846 135.271422 362.461538 137.059469 362.769231 138.854164 363.076923 140.655367 363.384615 142.462937 363.692308 144.276734 364.000000 146.096618 364.307692 147.922448 364.615385 149.754084 364.923077 151.591385 365.230769 153.434211 365.538462 155.282422 365.846154 157.135876 366.153846 158.994435 366.461538 160.857958 366.769231 162.726303 367.076923 164.599331 367.384615 166.476901 367.692308 168.358873 368.000000 170.245107 368.307692 172.135462 368.615385 174.029798 368.923077 175.927974 369.230769 177.829850 369.538462 179.735285 369.846154 181.644140 370.153846 183.556274 370.461538 185.471546 370.769231 187.389816 371.076923 189.310944 371.384615 191.234789 371.692308 193.161211 372.000000 195.090069 372.307692 197.021224 372.615385 198.954534 372.923077 200.889860 373.230769 202.827060 373.538462 204.765995 373.846154 206.706524 374.153846 208.648507 374.461538 210.591804 374.769231 212.536273 375.076923 214.481775 375.384615 216.428170 375.692308 218.375316 376.000000 220.323073 376.307692 222.271302 376.615385 224.219861 376.923077 226.168611 377.230769 228.117411 377.538462 230.066120 377.846154 232.014598 378.153846 233.962705 378.461538 235.910300 378.769231 237.857243 379.076923 239.803394 379.384615 241.748612 379.692308 243.692757 380.000000 245.635689 380.307692 247.577266 380.615385 249.517349 380.923077 251.455797 381.230769 253.392471 381.538462 255.327228 381.846154 257.259930 382.153846 259.190436 382.461538 261.118604 382.769231 263.044296 383.076923 264.967370 383.384615 266.887687 383.692308 268.805105 384.000000 270.719485 384.307692 272.630685 384.615385 274.538567 384.923077 276.442988 385.230769 278.343810 385.538462 280.240890 385.846154 282.134090 386.153846 284.023269 386.461538 285.908286 386.769231 287.789000 387.076923 289.665273 387.384615 291.536962 387.692308 293.403928 388.000000 295.266031 388.307692 297.123129 388.615385 298.975083 388.923077 300.821753 389.230769 302.662997 389.538462 304.498675 389.846154 306.328648 390.153846 308.152774 390.461538 309.970913 390.769231 311.782926 391.076923 313.588670 391.384615 315.388007 391.692308 317.180796 392.000000 318.966896 392.307692 320.746167 392.615385 322.518468 392.923077 324.283660 393.230769 326.041601 393.538462 327.792152 393.846154 329.535171 394.153846 331.270520 394.461538 332.998056 394.769231 334.717641 395.076923 336.429133 395.384615 338.132392 395.692308 339.827277 396.000000 341.513649 396.307692 343.191367 396.615385 344.860290 396.923077 346.520279 397.230769 348.171192 397.538462 349.812889 397.846154 351.445231 398.153846 353.068076 398.461538 354.681284 398.769231 356.284740 399.076923 357.878427 399.384615 359.462352 399.692308 361.036524 400.000000 362.600951 400.307692 364.155640 400.615385 365.700600 400.923077 367.235839 401.230769 368.761364 401.538462 370.277184 401.846154 371.783306 402.153846 373.279739 402.461538 374.766490 402.769231 376.243567 403.076923 377.710979 403.384615 379.168733 403.692308 380.616838 404.000000 382.055301 404.307692 383.484130 404.615385 384.903333 404.923077 386.312919 405.230769 387.712894 405.538462 389.103268 405.846154 390.484048 406.153846 391.855242 406.461538 393.216858 406.769231 394.568904 407.076923 395.911388 407.384615 397.244318 407.692308 398.567702 408.000000 399.881547 408.307692 401.185863 408.615385 402.480656 408.923077 403.765936 409.230769 405.041709 409.538462 406.307983 409.846154 407.564768 410.153846 408.812070 410.461538 410.049898 410.769231 411.278259 411.076923 412.497162 411.384615 413.706615 411.692308 414.906625 412.000000 416.097200 412.307692 417.278349 412.615385 418.450079 412.923077 419.612399 413.230769 420.765316 413.538462 421.908839 413.846154 423.042975 414.153846 424.167732 414.461538 425.283118 414.769231 426.389142 415.076923 427.485810 415.384615 428.573132 415.692308 429.651115 416.000000 430.719767 416.307692 431.779096 416.615385 432.829111 416.923077 433.869818 417.230769 434.901226 417.538462 435.923343 417.846154 436.936177 418.153846 437.939736 418.461538 438.934028 418.769231 439.919060 419.076923 440.894842 419.384615 441.861380 419.692308 442.818682 420.000000 443.766758 420.307692 444.705614 420.615385 445.635259 420.923077 446.555700 421.230769 447.466946 421.538462 448.369005 421.846154 449.261884 422.153846 450.145591 422.461538 451.020135 422.769231 451.885524 423.076923 452.741765 423.384615 453.588866 423.692308 454.426835 424.000000 455.255681 424.307692 456.075411 424.615385 456.886033 424.923077 457.687556 425.230769 458.479986 425.538462 459.263333 425.846154 460.037604 426.153846 460.802807 426.461538 461.558950 426.769231 462.306041 427.076923 463.044088 427.384615 463.773099 427.692308 464.493082 428.000000 465.204045 428.307692 465.905996 428.615385 466.598942 428.923077 467.282893 429.230769 467.957855 429.538462 468.623837 429.846154 469.280846 430.153846 469.928891 430.461538 470.567980 430.769231 471.198121 431.076923 471.819321 431.384615 472.431589 431.692308 473.034932 432.000000 473.629359 432.307692 474.214877 432.615385 474.791495 432.923077 475.359220 433.230769 475.918060 433.538462 476.468024 433.846154 477.009119 434.153846 477.541354 434.461538 478.064735 434.769231 478.579272 435.076923 479.084972 435.384615 479.581843 435.692308 480.069894 436.000000 480.549131 436.307692 481.019564 436.615385 481.481200 436.923077 481.934046 437.230769 482.378112 437.538462 482.813404 437.846154 483.239932 438.153846 483.657702 438.461538 484.066723 438.769231 484.467003 439.076923 484.858550 439.384615 485.241372 439.692308 485.615476 440.000000 485.980871 440.307692 486.337565 440.615385 486.685566 440.923077 487.024881 441.230769 487.355518 441.538462 487.677486 441.846154 487.990793 442.153846 488.295446 442.461538 488.591454 442.769231 488.878824 443.076923 489.157564 443.384615 489.427683 443.692308 489.689188 444.000000 489.942088 444.307692 490.186389 444.615385 490.422101 444.923077 490.649232 445.230769 490.867788 445.538462 491.077779 445.846154 491.279211 446.153846 491.472094 446.461538 491.656435 446.769231 491.832242 447.076923 491.999523 447.384615 492.158286 447.692308 492.308538 448.000000 492.450289 448.307692 492.583546 448.615385 492.708316 448.923077 492.824608 449.230769 492.932430 449.538462 493.031790 449.846154 493.122696 450.153846 493.205155 450.461538 493.279176 450.769231 493.344766 451.076923 493.401935 451.384615 493.450688 451.692308 493.491036 452.000000 493.522984 452.307692 493.546543 452.615385 493.561718 452.923077 493.568519 453.230769 493.566954 453.538462 493.557030 453.846154 493.538755 454.153846 493.512138 454.461538 493.477185 454.769231 493.433906 455.076923 493.382309 455.384615 493.322400 455.692308 493.254189 456.000000 493.177682 456.307692 493.092889 456.615385 492.999817 456.923077 492.898474 457.230769 492.788868 457.538462 492.671006 457.846154 492.544898 458.153846 492.410551 458.461538 492.267972 458.769231 492.117171 459.076923 491.958154 459.384615 491.790930 459.692308 491.615506 460.000000 491.431892 460.307692 491.240094 460.615385 491.040121 460.923077 490.831980 461.230769 490.615680 461.538462 490.391229 461.846154 490.158634 462.153846 489.917903 462.461538 489.669045 462.769231 489.412068 463.076923 489.146979 463.384615 488.873786 463.692308 488.592498 464.000000 488.303122 464.307692 488.005666 464.615385 487.700138 464.923077 487.386547 465.230769 487.064900 465.538462 486.735205 465.846154 486.397470 466.153846 486.051704 466.461538 485.697913 466.769231 485.336107 467.076923 484.966292 467.384615 484.588478 467.692308 484.202671 468.000000 483.808880 468.307692 483.407114 468.615385 482.997379 468.923077 482.579684 469.230769 482.154037 469.538462 481.720445 469.846154 481.278917 470.153846 480.829461 470.461538 480.372085 470.769231 479.906796 471.076923 479.433603 471.384615 478.952514 471.692308 478.463536 472.000000 477.966677 472.307692 477.461946 472.615385 476.949351 472.923077 476.428899 473.230769 475.900598 473.538462 475.364457 473.846154 474.820483 474.153846 474.268685 474.461538 473.709069 474.769231 473.141645 475.076923 472.566420 475.384615 471.983403 475.692308 471.392608 476.000000 470.794087 476.307692 470.187895 476.615385 469.574090 476.923077 468.952730 477.230769 468.323872 477.538462 467.687573 477.846154 467.043891 478.153846 466.392882 478.461538 465.734606 478.769231 465.069117 479.076923 464.396475 479.384615 463.716736 479.692308 463.029958 480.000000 462.336199 480.307692 461.635514 480.615385 460.927962 480.923077 460.213601 481.230769 459.492487 481.538462 458.764678 481.846154 458.030231 482.153846 457.289204 482.461538 456.541654 482.769231 455.787638 483.076923 455.027213 483.384615 454.260438 483.692308 453.487369 484.000000 452.708064 484.307692 451.922579 484.615385 451.130974 484.923077 450.333303 485.230769 449.529627 485.538462 448.720000 485.846154 447.904481 486.153846 447.083128 486.461538 446.255997 486.769231 445.423146 487.076923 444.584632 487.384615 443.740513 487.692308 442.890846 488.000000 442.035688 488.307692 441.175097 488.615385 440.309129 488.923077 439.437843 489.230769 438.561296 489.538462 437.679545 489.846154 436.792647 490.153846 435.900660 490.461538 435.003642 490.769231 434.101648 491.076923 433.194738 491.384615 432.282968 491.692308 431.366395 492.000000 430.445077 492.307692 429.519072 492.615385 428.588436 492.923077 427.653227 493.230769 426.713502 493.538462 425.769319 493.846154 424.820735 494.153846 423.867807 494.461538 422.910593 494.769231 421.949151 495.076923 420.983536 495.384615 420.013808 495.692308 419.040022 496.000000 418.062237 496.307692 417.080510 496.615385 416.094898 496.923077 415.105459 497.230769 414.112250 497.538462 413.115327 497.846154 412.114750 498.153846 411.110574 498.461538 410.102858 498.769231 409.091659 499.076923 408.077033 499.384615 407.059039 499.692308 406.037733 500.000000 405.013174 500.307692 403.985418 500.615385 402.954523 500.923077 401.920546 501.230769 400.883545 501.538462 399.843576 501.846154 398.800698 502.153846 397.754967 502.461538 396.706442 502.769231 395.655178 503.076923 394.601234 503.384615 393.544667 503.692308 392.485535 504.000000 391.423894 504.307692 390.359802 504.615385 389.293316 504.923077 388.224495 505.230769 387.153394 505.538462 386.080072 505.846154 385.004586 506.153846 383.926992 506.461538 382.847350 506.769231 381.765715 507.076923 380.682146 507.384615 379.596699 507.692308 378.509432 508.000000 377.420402 508.307692 376.329667 508.615385 375.237284 508.923077 374.143310 509.230769 373.047803 509.538462 371.950820 509.846154 370.852418 510.153846 369.752655 510.461538 368.651589 510.769231 367.549275 511.076923 366.445773 511.384615 365.341139 511.692308 364.235430 512.000000 363.128704 512.307692 362.021019 512.615385 360.912431 512.923077 359.802998 513.230769 358.692777 513.538462 357.581826 513.846154 356.470202 514.153846 355.357962 514.461538 354.245164 514.769231 353.131865 515.076923 352.018123 515.384615 350.903994 515.692308 349.789536 516.000000 348.674807 516.307692 347.559864 516.615385 346.444764 516.923077 345.329564 517.230769 344.214322 517.538462 343.099096 517.846154 341.983942 518.153846 340.868918 518.461538 339.754082 518.769231 338.639490 519.076923 337.525200 519.384615 336.411269 519.692308 335.297756 520.000000 334.184716 520.307692 333.072208 520.615385 331.960288 520.923077 330.849015 521.230769 329.738445 521.538462 328.628636 521.846154 327.519645 522.153846 326.411530 522.461538 325.304347 522.769231 324.198155 523.076923 323.093011 523.384615 321.988971 523.692308 320.886094 524.000000 319.784437 524.307692 318.684056 524.615385 317.585010 524.923077 316.487356 525.230769 315.391151 525.538462 314.296452 525.846154 313.203317 526.153846 312.111803 526.461538 311.021967 526.769231 309.933868 527.076923 308.847562 527.384615 307.763106 527.692308 306.680558 528.000000 305.599976 528.307692 304.521416 528.615385 303.444936 528.923077 302.370593 529.230769 301.298445 529.538462 300.228549 529.846154 299.160963 530.153846 298.095743 530.461538 297.032947 530.769231 295.972633 531.076923 294.914858 531.384615 293.859679 531.692308 292.807153 532.000000 291.757338 532.307692 290.710291 532.615385 289.666070 532.923077 288.624732 533.230769 287.586334 533.538462 286.550934 533.846154 285.518589 534.153846 284.489356 534.461538 283.463293 534.769231 282.440457 535.076923 281.420905 535.384615 280.404695 535.692308 279.391885 536.000000 278.382530 536.307692 277.376690 536.615385 276.374420 536.923077 275.375780 537.230769 274.380825 537.538462 273.389613 537.846154 272.402202 538.153846 271.418649 538.461538 270.439011 538.769231 269.463345 539.076923 268.491710 539.384615 267.524162 539.692308 266.560759 540.000000 265.601558 540.307692 264.646616 540.615385 263.695991 540.923077 262.749740 541.230769 261.807921 541.538462 260.870591 541.846154 259.937806 542.153846 259.009626 542.461538 258.086106 542.769231 257.167304 543.076923 256.253278 543.384615 255.344085 543.692308 254.439782 544.000000 253.540427 544.307692 252.646077 544.615385 251.756789 544.923077 250.872621 545.230769 249.993630 545.538462 249.119874 545.846154 248.251409 546.153846 247.388293 546.461538 246.530584 546.769231 245.678339 547.076923 244.831615 547.384615 243.990469 547.692308 243.154960 548.000000 242.325143 548.307692 241.501078 548.615385 240.682820 548.923077 239.870427 549.230769 239.063958 549.538462 238.263468 549.846154 237.469015 550.153846 236.680658 550.461538 235.898452 550.769231 235.122456 551.076923 234.352727 551.384615 233.589321 551.692308 232.832298 552.000000 232.081713 552.307692 231.337624 552.615385 230.600074 552.923077 229.869041 553.230769 229.144491 553.538462 228.426387 553.846154 227.714694 554.153846 227.009377 554.461538 226.310399 554.769231 225.617725 555.076923 224.931320 555.384615 224.251147 555.692308 223.577172 556.000000 222.909358 556.307692 222.247670 556.615385 221.592072 556.923077 220.942528 557.230769 220.299004 557.538462 219.661463 557.846154 219.029869 558.153846 218.404187 558.461538 217.784382 558.769231 217.170417 559.076923 216.562257 559.384615 215.959867 559.692308 215.363211 560.000000 214.772252 560.307692 214.186956 560.615385 213.607287 560.923077 213.033209 561.230769 212.464686 561.538462 211.901683 561.846154 211.344165 562.153846 210.792095 562.461538 210.245438 562.769231 209.704158 563.076923 209.168220 563.384615 208.637588 563.692308 208.112227 564.000000 207.592100 564.307692 207.077172 564.615385 206.567407 564.923077 206.062771 565.230769 205.563226 565.538462 205.068738 565.846154 204.579271 566.153846 204.094789 566.461538 203.615256 566.769231 203.140638 567.076923 202.670897 567.384615 202.206000 567.692308 201.745909 568.000000 201.290590 568.307692 200.840006 568.615385 200.394122 568.923077 199.952903 569.230769 199.516313 569.538462 199.084315 569.846154 198.656875 570.153846 198.233957 570.461538 197.815525 570.769231 197.401544 571.076923 196.991977 571.384615 196.586790 571.692308 196.185946 572.000000 195.789411 572.307692 195.397147 572.615385 195.009121 572.923077 194.625295 573.230769 194.245635 573.538462 193.870104 573.846154 193.498667 574.153846 193.131289 574.461538 192.767934 574.769231 192.408566 575.076923 192.053149 575.384615 191.701648 575.692308 191.354028 576.000000 191.010252 576.307692 190.670285 576.615385 190.334091 576.923077 190.001635 577.230769 189.672881 577.538462 189.347793 577.846154 189.026336 578.153846 188.708474 578.461538 188.394171 578.769231 188.083393 579.076923 187.776102 579.384615 187.472264 579.692308 187.171842 580.000000 186.874802 580.307692 186.581107 580.615385 186.290723 580.923077 186.003612 581.230769 185.719740 581.538462 185.439072 581.846154 185.161570 582.153846 184.887200 582.461538 184.615926 582.769231 184.347713 583.076923 184.082524 583.384615 183.820325 583.692308 183.561078 584.000000 183.304750 584.307692 183.051304 584.615385 182.800704 584.923077 182.552916 585.230769 182.307902 585.538462 182.065628 585.846154 181.826058 586.153846 181.589157 586.461538 181.354888 586.769231 181.123216 587.076923 180.894105 587.384615 180.667520 587.692308 180.443425 588.000000 180.221785 588.307692 180.002563 588.615385 179.785725 588.923077 179.571234 589.230769 179.359055 589.538462 179.149152 589.846154 178.941490 590.153846 178.736032 590.461538 178.532744 590.769231 178.331590 591.076923 178.132533 591.384615 177.935539 591.692308 177.740572 592.000000 177.547595 592.307692 177.356574 592.615385 177.167473 592.923077 176.980256 593.230769 176.794887 593.538462 176.611332 593.846154 176.429553 594.153846 176.249516 594.461538 176.071185 594.769231 175.894524 595.076923 175.719498 595.384615 175.546070 595.692308 175.374206 596.000000 175.203870 596.307692 175.035026 596.615385 174.867638 596.923077 174.701671 597.230769 174.537089 597.538462 174.373856 597.846154 174.211937 598.153846 174.051297 598.461538 173.891898 598.769231 173.733707 599.076923 173.576687 599.384615 173.420803 599.692308 173.266018 600.000000 173.112298 600.307692 172.959607 600.615385 172.807908 600.923077 172.657167 601.230769 172.507347 601.538462 172.358414 601.846154 172.210331 602.153846 172.063063 602.461538 171.916574 602.769231 171.770828 603.076923 171.625791 603.384615 171.481425 603.692308 171.337696 604.000000 171.194568 604.307692 171.052006 604.615385 170.909973 604.923077 170.768434 605.230769 170.627353 605.538462 170.486695 605.846154 170.346424 606.153846 170.206504 606.461538 170.066900 606.769231 169.927577 607.076923 169.788497 607.384615 169.649627 607.692308 169.510930 608.000000 169.372370 608.307692 169.233912 608.615385 169.095521 608.923077 168.957160 609.230769 168.818794 609.538462 168.680387 609.846154 168.541904 610.153846 168.403309 610.461538 168.264566 610.769231 168.125640 611.076923 167.986496 611.384615 167.847096 611.692308 167.707407 612.000000 167.567391 612.307692 167.427014 612.615385 167.286240 612.923077 167.145034 613.230769 167.003359 613.538462 166.861179 613.846154 166.718460 614.153846 166.575166 614.461538 166.431261 614.769231 166.286709 615.076923 166.141474 615.384615 165.995522 615.692308 165.848817 616.000000 165.701322 616.307692 165.553002 616.615385 165.403821 616.923077 165.253745 617.230769 165.102737 617.538462 164.950761 617.846154 164.797782 618.153846 164.643764 618.461538 164.488672 618.769231 164.332471 619.076923 164.175123 619.384615 164.016594 619.692308 163.856848 620.000000 163.695850 620.307692 163.533563 620.615385 163.369952 620.923077 163.204982 621.230769 163.038617 621.538462 162.870820 621.846154 162.701558 622.153846 162.530793 622.461538 162.358491 622.769231 162.184615 623.076923 162.009130 623.384615 161.832000 623.692308 161.653190 624.000000 161.472664 624.307692 161.290387 624.615385 161.106322 624.923077 160.920434 625.230769 160.732688 625.538462 160.543047 625.846154 160.351477 626.153846 160.157941 626.461538 159.962404 626.769231 159.764830 627.076923 159.565184 627.384615 159.363429 627.692308 159.159532 628.000000 158.953454 628.307692 158.745162 628.615385 158.534619 628.923077 158.321789 629.230769 158.106638 629.538462 157.889137 629.846154 157.669287 630.153846 157.447099 630.461538 157.222582 630.769231 156.995744 631.076923 156.766597 631.384615 156.535148 631.692308 156.301408 632.000000 156.065385 632.307692 155.827090 632.615385 155.586531 632.923077 155.343719 633.230769 155.098662 633.538462 154.851371 633.846154 154.601853 634.153846 154.350120 634.461538 154.096180 634.769231 153.840043 635.076923 153.581717 635.384615 153.321214 635.692308 153.058541 636.000000 152.793709 636.307692 152.526727 636.615385 152.257604 636.923077 151.986350 637.230769 151.712974 637.538462 151.437485 637.846154 151.159894 638.153846 150.880209 638.461538 150.598440 638.769231 150.314596 639.076923 150.028687 639.384615 149.740723 639.692308 149.450712 640.000000 149.158664 640.307692 148.864588 640.615385 148.568494 640.923077 148.270392 641.230769 147.970290 641.538462 147.668199 641.846154 147.364127 642.153846 147.058085 642.461538 146.750080 642.769231 146.440124 643.076923 146.128225 643.384615 145.814393 643.692308 145.498637 644.000000 145.180967 644.307692 144.861392 644.615385 144.539921 644.923077 144.216564 645.230769 143.891331 645.538462 143.564230 645.846154 143.235272 646.153846 142.904465 646.461538 142.571820 646.769231 142.237345 647.076923 141.901050 647.384615 141.562944 647.692308 141.223037 648.000000 140.881338 648.307692 140.537857 648.615385 140.192603 648.923077 139.845586 649.230769 139.496814 649.538462 139.146298 649.846154 138.794047 650.153846 138.440070 650.461538 138.084376 650.769231 137.726976 651.076923 137.367878 651.384615 137.007093 651.692308 136.644628 652.000000 136.280495 652.307692 135.914702 652.615385 135.547258 652.923077 135.178174 653.230769 134.807458 653.538462 134.435120 653.846154 134.061169 654.153846 133.685616 654.461538 133.308468 654.769231 132.929737 655.076923 132.549430 655.384615 132.167558 655.692308 131.784130 656.000000 131.399156 656.307692 131.012644 656.615385 130.624605 656.923077 130.235047 657.230769 129.843981 657.538462 129.451415 657.846154 129.057359 658.153846 128.661822 658.461538 128.264815 658.769231 127.866345 659.076923 127.466424 659.384615 127.065059 659.692308 126.662262 660.000000 126.258040 660.307692 125.852403 660.615385 125.445362 660.923077 125.036925 661.230769 124.627101 661.538462 124.215901 661.846154 123.803333 662.153846 123.389408 662.461538 122.974134 662.769231 122.557520 663.076923 122.139577 663.384615 121.720314 663.692308 121.299740 664.000000 120.877865 664.307692 120.454698 664.615385 120.030248 664.923077 119.604525 665.230769 119.177538 665.538462 118.749297 665.846154 118.319812 666.153846 117.889090 666.461538 117.457143 666.769231 117.023980 667.076923 116.589609 667.384615 116.154041 667.692308 115.717285 668.000000 115.279349 668.307692 114.840245 668.615385 114.399980 668.923077 113.958565 669.230769 113.516009 669.538462 113.072321 669.846154 112.627512 670.153846 112.181589 670.461538 111.734563 670.769231 111.286443 671.076923 110.837238 671.384615 110.386959 671.692308 109.935614 672.000000 109.483212 672.307692 109.029764 672.615385 108.575279 672.923077 108.119765 673.230769 107.663233 673.538462 107.205692 673.846154 106.747152 674.153846 106.287621 674.461538 105.827110 674.769231 105.365627 675.076923 104.903182 675.384615 104.439785 675.692308 103.975445 676.000000 103.510171 676.307692 103.043973 676.615385 102.576861 676.923077 102.108843 677.230769 101.639929 677.538462 101.170128 677.846154 100.699451 678.153846 100.227906 678.461538 99.755503 678.769231 99.282251 679.076923 98.808160 679.384615 98.333239 679.692308 97.857498 680.000000 97.380945 680.307692 96.903591 680.615385 96.425445 680.923077 95.946516 681.230769 95.466814 681.538462 94.986348 681.846154 94.505128 682.153846 94.023162 682.461538 93.540461 682.769231 93.057034 683.076923 92.572890 683.384615 92.088039 683.692308 91.602490 684.000000 91.116253 684.307692 90.629336 684.615385 90.141750 684.923077 89.653504 685.230769 89.164608 685.538462 88.675070 685.846154 88.184900 686.153846 87.694108 686.461538 87.202702 686.769231 86.710694 687.076923 86.218091 687.384615 85.724903 687.692308 85.231140 688.000000 84.736812 688.307692 84.241927 688.615385 83.746495 688.923077 83.250525 689.230769 82.754028 689.538462 82.257012 689.846154 81.759486 690.153846 81.261461 690.461538 80.762945 690.769231 80.263948 691.076923 79.764480 691.384615 79.264550 691.692308 78.764167 692.000000 78.263341 692.307692 77.762081 692.615385 77.260397 692.923077 76.758298 693.230769 76.255793 693.538462 75.752892 693.846154 75.249605 694.153846 74.745940 694.461538 74.241908 694.769231 73.737517 695.076923 73.232777 695.384615 72.727698 695.692308 72.222289 696.000000 71.716559 696.307692 71.210518 696.615385 70.704175 696.923077 70.197540 697.230769 69.690622 697.538462 69.183430 697.846154 68.675975 698.153846 68.168264 698.461538 67.660309 698.769231 67.152118 699.076923 66.643700 699.384615 66.135066 699.692308 65.626224 700.000000 65.117184 700.307692 64.607956 700.615385 64.098548 700.923077 63.588970 701.230769 63.079233 701.538462 62.569344 701.846154 62.059314 702.153846 61.549152 702.461538 61.038867 702.769231 60.528469 703.076923 60.017967 703.384615 59.507372 703.692308 58.996691 704.000000 58.485935 704.307692 57.975112 704.615385 57.464233 704.923077 56.953307 705.230769 56.442344 705.538462 55.931352 705.846154 55.420341 706.153846 54.909321 706.153846 540.000000" /></g></g><g class="titles" /><g class="plot overlay" transform="translate(60, 20)"><g class="series serie-0 color-0"><g class="dots"><circle class="dot reactive tooltip-trigger" cx="13.846153846153847" cy="529.6153846153845" r="2.5" /><desc class="value">6,232,270,565(kWh)</desc><desc class="x top">13.846153846153847</desc><desc class="y top">529.6153846153845</desc><desc class="x_label">2549</desc></g><g class="dots"><circle class="dot reactive tooltip-trigger" cx="90.76923076923076" cy="319.4579025827179" r="2.5" /><desc class="value">6,663,200,586(kWh)</desc><desc class="x top">90.76923076923076</desc><desc class="y top">319.4579025827179</desc><desc class="x_label">2550</desc></g><g class="dots"><circle class="dot reactive tooltip-trigger" cx="167.69230769230765" cy="289.160730348927" r="2.5" /><desc class="value">6,725,325,241(kWh)</desc><desc class="x top">167.69230769230765</desc><desc class="y top">289.160730348927</desc><desc class="x_label">2551</desc></g><g class="dots"><circle class="dot reactive tooltip-trigger" cx="244.6153846153846" cy="407.96287838869625" r="2.5" /><desc class="value">6,481,720,247(kWh)</desc><desc class="x top">244.6153846153846</desc><desc class="y top">407.96287838869625</desc><desc class="x_label">2552</desc></g><g class="dots"><circle class="dot reactive tooltip-trigger" cx="321.5384615384615" cy="12.649926359653591" r="2.5" /><desc class="value">7,292,313,413(kWh)</desc><desc class="x ">321.5384615384615</desc><desc class="y ">12.649926359653591</desc><desc class="x_label">2553</desc></g><g class="dots"><circle class="dot reactive tooltip-trigger" cx="398.46153846153845" cy="354.6812843648628" r="2.5" /><desc class="value">6,590,974,689(kWh)</desc><desc class="x left top">398.46153846153845</desc><desc class="y left top">354.6812843648628</desc><desc class="x_label">2554</desc></g><g class="dots"><circle class="dot reactive tooltip-trigger" cx="475.38461538461536" cy="471.9834026646975" r="2.5" /><desc class="value">6,350,445,521(kWh)</desc><desc class="x left top">475.38461538461536</desc><desc class="y left top">471.9834026646975</desc><desc class="x_label">2555</desc></g><g class="dots"><circle class="dot reactive tooltip-trigger" cx="552.3076923076923" cy="231.33762424000093" r="2.5" /><desc class="value">6,843,892,099(kWh)</desc><desc class="x left">552.3076923076923</desc><desc class="y left">231.33762424000093</desc><desc class="x_label">2556</desc></g><g class="dots"><circle class="dot reactive tooltip-trigger" cx="629.2307692307692" cy="158.1066382302456" r="2.5" /><desc class="value">6,994,052,969(kWh)</desc><desc class="x left">629.2307692307692</desc><desc class="y left">158.1066382302456</desc><desc class="x_label">2557</desc></g><g class="dots"><circle class="dot reactive tooltip-trigger" cx="706.1538461538461" cy="54.90932060490519" r="2.5" /><desc class="value">7,205,660,102(kWh)</desc><desc class="x left">706.1538461538461</desc><desc class="y left">54.90932060490519</desc><desc class="x_label">2558</desc></g></g></g><g class="plot text-overlay" transform="translate(60, 20)"><g class="series serie-0 color-0" /></g><g class="plot tooltip-overlay" transform="translate(60, 20)"><g class="tooltip" style="opacity: 0" transform="translate(0 0)"><rect class="tooltip-box" height="0" rx="0" ry="0" width="0" /><g class="text" /></g></g></g></svg>