<?xml version='1.0' encoding='utf-8'?>
<svg xmlns:xlink="http://www.w3.org/1999/xlink" class="pygal-chart" id="chart-e7223246-3446-4607-8f7e-35df5ac89cfc" viewBox="0 0 800 600" xmlns="http://www.w3.org/2000/svg"><!--Generated with pygal 2.3.0 (etree) ©Kozea 2012-2016 on 2016-12-08--><!--http://pygal.org--><!--http://github.com/Kozea/pygal--><defs><style type="text/css">#chart-e7223246-3446-4607-8f7e-35df5ac89cfc{-webkit-user-select:none;-webkit-font-smoothing:antialiased;font-family:Consolas,"Liberation Mono",Menlo,Courier,monospace}#chart-e7223246-3446-4607-8f7e-35df5ac89cfc .title{font-family:Consolas,"Liberation Mono",Menlo,Courier,monospace;font-size:16px}#chart-e7223246-3446-4607-8f7e-35df5ac89cfc .legends .legend text{font-family:Consolas,"Liberation Mono",Menlo,Courier,monospace;font-size:14px}#chart-e7223246-3446-4607-8f7e-35df5ac89cfc .axis text{font-family:Consolas,"Liberation Mono",Menlo,Courier,monospace;font-size:10px}#chart-e7223246-3446-4607-8f7e-35df5ac89cfc .axis text.major{font-family:Consolas,"Liberation Mono",Menlo,Courier,monospace;font-size:10px}#chart-e7223246-3446-4607-8f7e-35df5ac89cfc .text-overlay text.value{font-family:Consolas,"Liberation Mono",Menlo,Courier,monospace;font-size:16px}#chart-e7223246-3446-4607-8f7e-35df5ac89cfc .text-overlay text.label{font-family:Consolas,"Liberation Mono",Menlo,Courier,monospace;font-size:10px}#chart-e7223246-3446-4607-8f7e-35df5ac89cfc .tooltip{font-family:Consolas,"Liberation Mono",Menlo,Courier,monospace;font-size:14px}#chart-e7223246-3446-4607-8f7e-35df5ac89cfc text.no_data{font-family:Consolas,"Liberation Mono",Menlo,Courier,monospace;font-size:64px}
#chart-e7223246-3446-4607-8f7e-35df5ac89cfc{background-color:rgba(249,249,249,1)}#chart-e7223246-3446-4607-8f7e-35df5ac89cfc path,#chart-e7223246-3446-4607-8f7e-35df5ac89cfc line,#chart-e7223246-3446-4607-8f7e-35df5ac89cfc rect,#chart-e7223246-3446-4607-8f7e-35df5ac89cfc circle{-webkit-transition:150ms;-moz-transition:150ms;transition:150ms}#chart-e7223246-3446-4607-8f7e-35df5ac89cfc .graph &gt; .background{fill:rgba(249,249,249,1)}#chart-e7223246-3446-4607-8f7e-35df5ac89cfc .plot &gt; .background{fill:rgba(255,255,255,1)}#chart-e7223246-3446-4607-8f7e-35df5ac89cfc .graph{fill:rgba(0,0,0,.87)}#chart-e7223246-3446-4607-8f7e-35df5ac89cfc text.no_data{fill:rgba(0,0,0,1)}#chart-e7223246-3446-4607-8f7e-35df5ac89cfc .title{fill:rgba(0,0,0,1)}#chart-e7223246-3446-4607-8f7e-35df5ac89cfc .legends .legend text{fill:rgba(0,0,0,.87)}#chart-e7223246-3446-4607-8f7e-35df5ac89cfc .legends .legend:hover text{fill:rgba(0,0,0,1)}#chart-e7223246-3446-4607-8f7e-35df5ac89cfc .axis .line{stroke:rgba(0,0,0,1)}#chart-e7223246-3446-4607-8f7e-35df5ac89cfc .axis .guide.line{stroke:rgba(0,0,0,.54)}#chart-e7223246-3446-4607-8f7e-35df5ac89cfc .axis .major.line{stroke:rgba(0,0,0,.87)}#chart-e7223246-3446-4607-8f7e-35df5ac89cfc .axis text.major{fill:rgba(0,0,0,1)}#chart-e7223246-3446-4607-8f7e-35df5ac89cfc .axis.y .guides:hover .guide.line,#chart-e7223246-3446-4607-8f7e-35df5ac89cfc .line-graph .axis.x .guides:hover .guide.line,#chart-e7223246-3446-4607-8f7e-35df5ac89cfc .stackedline-graph .axis.x .guides:hover .guide.line,#chart-e7223246-3446-4607-8f7e-35df5ac89cfc .xy-graph .axis.x .guides:hover .guide.line{stroke:rgba(0,0,0,1)}#chart-e7223246-3446-4607-8f7e-35df5ac89cfc .axis .guides:hover text{fill:rgba(0,0,0,1)}#chart-e7223246-3446-4607-8f7e-35df5ac89cfc .reactive{fill-opacity:.7;stroke-opacity:.8}#chart-e7223246-3446-4607-8f7e-35df5ac89cfc .ci{stroke:rgba(0,0,0,.87)}#chart-e7223246-3446-4607-8f7e-35df5ac89cfc .reactive.active,#chart-e7223246-3446-4607-8f7e-35df5ac89cfc .active .reactive{fill-opacity:.8;stroke-opacity:.9;stroke-width:4}#chart-e7223246-3446-4607-8f7e-35df5ac89cfc .ci .reactive.active{stroke-width:1.5}#chart-e7223246-3446-4607-8f7e-35df5ac89cfc .series text{fill:rgba(0,0,0,1)}#chart-e7223246-3446-4607-8f7e-35df5ac89cfc .tooltip rect{fill:rgba(255,255,255,1);stroke:rgba(0,0,0,1);-webkit-transition:opacity 150ms;-moz-transition:opacity 150ms;transition:opacity 150ms}#chart-e7223246-3446-4607-8f7e-35df5ac89cfc .tooltip .label{fill:rgba(0,0,0,.87)}#chart-e7223246-3446-4607-8f7e-35df5ac89cfc .tooltip .label{fill:rgba(0,0,0,.87)}#chart-e7223246-3446-4607-8f7e-35df5ac89cfc .tooltip .legend{font-size:.8em;fill:rgba(0,0,0,.54)}#chart-e7223246-3446-4607-8f7e-35df5ac89cfc .tooltip .x_label{font-size:.6em;fill:rgba(0,0,0,1)}#chart-e7223246-3446-4607-8f7e-35df5ac89cfc .tooltip .xlink{font-size:.5em;text-decoration:underline}#chart-e7223246-3446-4607-8f7e-35df5ac89cfc .tooltip .value{font-size:1.5em}#chart-e7223246-3446-4607-8f7e-35df5ac89cfc .bound{font-size:.5em}#chart-e7223246-3446-4607-8f7e-35df5ac89cfc .max-value{font-size:.75em;fill:rgba(0,0,0,.54)}#chart-e7223246-3446-4607-8f7e-35df5ac89cfc .map-element{fill:rgba(255,255,255,1);stroke:rgba(0,0,0,.54) !important}#chart-e7223246-3446-4607-8f7e-35df5ac89cfc .map-element .reactive{fill-opacity:inherit;stroke-opacity:inherit}#chart-e7223246-3446-4607-8f7e-35df5ac89cfc .color-0,#chart-e7223246-3446-4607-8f7e-35df5ac89cfc .color-0 a:visited{stroke:#e86fa0;fill:#e86fa0}#chart-e7223246-3446-4607-8f7e-35df5ac89cfc .text-overlay .color-0 text{fill:black}
#chart-e7223246-3446-4607-8f7e-35df5ac89cfc text.no_data{text-anchor:middle}#chart-e7223246-3446-4607-8f7e-35df5ac89cfc .guide.line{fill:none}#chart-e7223246-3446-4607-8f7e-35df5ac89cfc .centered{text-anchor:middle}#chart-e7223246-3446-4607-8f7e-35df5ac89cfc .title{text-anchor:middle}#chart-e7223246-3446-4607-8f7e-35df5ac89cfc .legends .legend text{fill-opacity:1}#chart-e7223246-3446-4607-8f7e-35df5ac89cfc .axis.x text{text-anchor:middle}#chart-e7223246-3446-4607-8f7e-35df5ac89cfc .axis.x:not(.web) text[transform]{text-anchor:start}#chart-e7223246-3446-4607-8f7e-35df5ac89cfc .axis.x:not(.web) text[transform].backwards{text-anchor:end}#chart-e7223246-3446-4607-8f7e-35df5ac89cfc .axis.y text{text-anchor:end}#chart-e7223246-3446-4607-8f7e-35df5ac89cfc .axis.y text[transform].backwards{text-anchor:start}#chart-e7223246-3446-4607-8f7e-35df5ac89cfc .axis.y2 text{text-anchor:start}#chart-e7223246-3446-4607-8f7e-35df5ac89cfc .axis.y2 text[transform].backwards{text-anchor:end}#chart-e7223246-3446-4607-8f7e-35df5ac89cfc .axis .guide.line{stroke-dasharray:4,4}#chart-e7223246-3446-4607-8f7e-35df5ac89cfc .axis .major.guide.line{stroke-dasharray:6,6}#chart-e7223246-3446-4607-8f7e-35df5ac89cfc .horizontal .axis.y .guide.line,#chart-e7223246-3446-4607-8f7e-35df5ac89cfc .horizontal .axis.y2 .guide.line,#chart-e7223246-3446-4607-8f7e-35df5ac89cfc .vertical .axis.x .guide.line{opacity:0}#chart-e7223246-3446-4607-8f7e-35df5ac89cfc .horizontal .axis.always_show .guide.line,#chart-e7223246-3446-4607-8f7e-35df5ac89cfc .vertical .axis.always_show .guide.line{opacity:1 !important}#chart-e7223246-3446-4607-8f7e-35df5ac89cfc .axis.y .guides:hover .guide.line,#chart-e7223246-3446-4607-8f7e-35df5ac89cfc .axis.y2 .guides:hover .guide.line,#chart-e7223246-3446-4607-8f7e-35df5ac89cfc .axis.x .guides:hover .guide.line{opacity:1}#chart-e7223246-3446-4607-8f7e-35df5ac89cfc .axis .guides:hover text{opacity:1}#chart-e7223246-3446-4607-8f7e-35df5ac89cfc .nofill{fill:none}#chart-e7223246-3446-4607-8f7e-35df5ac89cfc .subtle-fill{fill-opacity:.2}#chart-e7223246-3446-4607-8f7e-35df5ac89cfc .dot{stroke-width:1px;fill-opacity:1}#chart-e7223246-3446-4607-8f7e-35df5ac89cfc .dot.active{stroke-width:5px}#chart-e7223246-3446-4607-8f7e-35df5ac89cfc .dot.negative{fill:transparent}#chart-e7223246-3446-4607-8f7e-35df5ac89cfc text,#chart-e7223246-3446-4607-8f7e-35df5ac89cfc tspan{stroke:none !important}#chart-e7223246-3446-4607-8f7e-35df5ac89cfc .series text.active{opacity:1}#chart-e7223246-3446-4607-8f7e-35df5ac89cfc .tooltip rect{fill-opacity:.95;stroke-width:.5}#chart-e7223246-3446-4607-8f7e-35df5ac89cfc .tooltip text{fill-opacity:1}#chart-e7223246-3446-4607-8f7e-35df5ac89cfc .showable{visibility:hidden}#chart-e7223246-3446-4607-8f7e-35df5ac89cfc .showable.shown{visibility:visible}#chart-e7223246-3446-4607-8f7e-35df5ac89cfc .gauge-background{fill:rgba(229,229,229,1);stroke:none}#chart-e7223246-3446-4607-8f7e-35df5ac89cfc .bg-lines{stroke:rgba(249,249,249,1);stroke-width:2px}</style><script type="text/javascript">window.pygal = window.pygal || {};window.pygal.config = window.pygal.config || {};window.pygal.config['e7223246-3446-4607-8f7e-35df5ac89cfc'] = {"no_data_text": "No data", "no_prefix": false, "xrange": null, "print_values_position": "center", "truncate_label": null, "x_labels": ["2549", "2550", "2551", "2552", "2553", "2554", "2555", "2556", "2557", "2558"], "title": null, "force_uri_protocol": "https", "defs": [], "formatter": null, "classes": ["pygal-chart"], "y_labels": null, "rounded_bars": null, "explicit_size": false, "x_labels_major_every": null, "legend_at_bottom_columns": null, "stroke_style": null, "half_pie": false, "spacing": 10, "tooltip_fancy_mode": true, "inverse_y_axis": false, "width": 800, "inner_radius": 0, "interpolation_parameters": {}, "tooltip_border_radius": 0, "style": {"no_data_font_family": "Consolas, \"Liberation Mono\", Menlo, Courier, monospace", "tooltip_font_size": 14, "tooltip_font_family": "Consolas, \"Liberation Mono\", Menlo, Courier, monospace", "stroke_opacity_hover": ".9", "legend_font_family": "Consolas, \"Liberation Mono\", Menlo, Courier, monospace", "font_family": "Consolas, \"Liberation Mono\", Menlo, Courier, monospace", "title_font_family": "Consolas, \"Liberation Mono\", Menlo, Courier, monospace", "background": "rgba(249, 249, 249, 1)", "stroke_opacity": ".8", "foreground": "rgba(0, 0, 0, .87)", "value_background": "rgba(229, 229, 229, 1)", "guide_stroke_dasharray": "4,4", "foreground_subtle": "rgba(0, 0, 0, .54)", "opacity_hover": ".8", "value_font_family": "Consolas, \"Liberation Mono\", Menlo, Courier, monospace", "value_label_font_size": 10, "plot_background": "rgba(255, 255, 255, 1)", "ci_colors": [], "label_font_size": 10, "major_label_font_size": 10, "title_font_size": 16, "no_data_font_size": 64, "value_font_size": 16, "value_colors": [], "label_font_family": "Consolas, \"Liberation Mono\", Menlo, Courier, monospace", "major_guide_stroke_dasharray": "6,6", "transition": "150ms", "foreground_strong": "rgba(0, 0, 0, 1)", "colors": ["#e86fa0", "#e88f6f", "#e8df6f", "#a0e86f", "#6fe88f", "#6fe8df", "#6fa0e8", "#8f6fe8", "#df6fe8", "#e86fa0"], "opacity": ".7", "legend_font_size": 14, "value_label_font_family": "Consolas, \"Liberation Mono\", Menlo, Courier, monospace", "major_label_font_family": "Consolas, \"Liberation Mono\", Menlo, Courier, monospace"}, "x_labels_major_count": null, "interpolation_precision": 250, "missing_value_fill_truncation": "x", "stack_from_top": false, "truncate_legend": null, "show_minor_x_labels": true, "print_zeroes": true, "css": ["file://style.css", "file://graph.css"], "y_label_rotation": 0, "legend_at_bottom": false, "print_values": false, "margin_top": null, "max_scale": 16, "allow_interruptions": false, "show_x_labels": true, "strict": false, "show_x_guides": false, "stroke": true, "margin_left": null, "dynamic_print_values": false, "print_labels": false, "show_y_labels": true, "x_labels_major": null, "range": null, "x_label_rotation": 0, "margin": 20, "zero": 0, "include_x_axis": false, "height": 600, "show_minor_y_labels": true, "show_dots": true, "interpolate": "cubic", "show_y_guides": true, "y_labels_major": null, "box_mode": "extremes", "margin_bottom": null, "order_min": null, "legend_box_size": 12, "fill": true, "show_only_major_dots": false, "js": ["//kozea.github.io/pygal.js/2.0.x/pygal-tooltips.min.js"], "x_title": null, "y_labels_major_every": null, "y_labels_major_count": null, "disable_xml_declaration": false, "y_title": null, "logarithmic": false, "pretty_print": false, "min_scale": 4, "dots_size": 2.5, "margin_right": null, "legends": [null], "secondary_range": null, "show_legend": false}</script><script type="text/javascript" xlink:href="https://kozea.github.io/pygal.js/2.0.x/pygal-tooltips.min.js" /></defs><title>Pygal</title><g class="graph stackedline-graph vertical"><rect class="background" height="600" width="800" x="0" y="0" /><g class="plot" transform="translate(60, 20)"><rect class="background" height="540" width="720.0" x="0" y="0" /><g class="axis y"><path class="line" d="M0.000000 540.000000 h720.000000" /><g class="guides"><path class="guide line" d="M0.000000 519.356240 h720.000000" /><text class="" x="-5" y="522.8562396167862">1100M</text><title>1100M</title></g><g class="guides"><path class="guide line" d="M0.000000 405.899905 h720.000000" /><text class="" x="-5" y="409.3999046635792">1200M</text><title>1200M</title></g><g class="guides"><path class="guide line" d="M0.000000 292.443570 h720.000000" /><text class="" x="-5" y="295.94356971037223">1300M</text><title>1300M</title></g><g class="guides"><path class="guide line" d="M0.000000 178.987235 h720.000000" /><text class="" x="-5" y="182.48723475716525">1400M</text><title>1400M</title></g><g class="guides"><path class="major guide line" d="M0.000000 65.530900 h720.000000" /><text class="major" x="-5" y="69.03089980395828">1500M</text><title>1500M</title></g></g><g class="axis x"><g class="guides"><path class="line" d="M13.846154 0.000000 v540.000000" /><text class="" x="13.846153846153847" y="555.0">2549</text></g><g class="guides"><path class="guide line" d="M90.769231 0.000000 v540.000000" /><text class="" x="90.76923076923076" y="555.0">2550</text></g><g class="guides"><path class="guide line" d="M167.692308 0.000000 v540.000000" /><text class="" x="167.69230769230765" y="555.0">2551</text></g><g class="guides"><path class="guide line" d="M244.615385 0.000000 v540.000000" /><text class="" x="244.6153846153846" y="555.0">2552</text></g><g class="guides"><path class="guide line" d="M321.538462 0.000000 v540.000000" /><text class="" x="321.5384615384615" y="555.0">2553</text></g><g class="guides"><path class="guide line" d="M398.461538 0.000000 v540.000000" /><text class="" x="398.46153846153845" y="555.0">2554</text></g><g class="guides"><path class="guide line" d="M475.384615 0.000000 v540.000000" /><text class="" x="475.38461538461536" y="555.0">2555</text></g><g class="guides"><path class="guide line" d="M552.307692 0.000000 v540.000000" /><text class="" x="552.3076923076923" y="555.0">2556</text></g><g class="guides"><path class="guide line" d="M629.230769 0.000000 v540.000000" /><text class="" x="629.2307692307692" y="555.0">2557</text></g><g class="guides"><path class="guide line" d="M706.153846 0.000000 v540.000000" /><text class="" x="706.1538461538461" y="555.0">2558</text></g></g><g class="series serie-0 color-0"><path class="line reactive" d="M13.846154 540.000000 L13.846154 529.615385 14.153846 529.607924 14.461538 529.600462 14.769231 529.592994 15.076923 529.585520 15.384615 529.578036 15.692308 529.570540 16.000000 529.563031 16.307692 529.555504 16.615385 529.547959 16.923077 529.540393 17.230769 529.532804 17.538462 529.525189 17.846154 529.517545 18.153846 529.509871 18.461538 529.502164 18.769231 529.494422 19.076923 529.486642 19.384615 529.478822 19.692308 529.470961 20.000000 529.463054 20.307692 529.455101 20.615385 529.447098 20.923077 529.439043 21.230769 529.430935 21.538462 529.422770 21.846154 529.414546 22.153846 529.406262 22.461538 529.397914 22.769231 529.389500 23.076923 529.381018 23.384615 529.372466 23.692308 529.363841 24.000000 529.355141 24.307692 529.346363 24.615385 529.337505 24.923077 529.328565 25.230769 529.319541 25.538462 529.310430 25.846154 529.301230 26.153846 529.291938 26.461538 529.282552 26.769231 529.273069 27.076923 529.263489 27.384615 529.253807 27.692308 529.244022 28.000000 529.234131 28.307692 529.224132 28.615385 529.214023 28.923077 529.203801 29.230769 529.193464 29.538462 529.183010 29.846154 529.172436 30.153846 529.161739 30.461538 529.150919 30.769231 529.139971 31.076923 529.128895 31.384615 529.117687 31.692308 529.106345 32.000000 529.094866 32.307692 529.083250 32.615385 529.071492 32.923077 529.059591 33.230769 529.047545 33.538462 529.035350 33.846154 529.023006 34.153846 529.010508 34.461538 528.997856 34.769231 528.985046 35.076923 528.972077 35.384615 528.958946 35.692308 528.945650 36.000000 528.932188 36.307692 528.918556 36.615385 528.904753 36.923077 528.890776 37.230769 528.876624 37.538462 528.862292 37.846154 528.847780 38.153846 528.833085 38.461538 528.818204 38.769231 528.803136 39.076923 528.787877 39.384615 528.772425 39.692308 528.756779 40.000000 528.740936 40.307692 528.724892 40.615385 528.708647 40.923077 528.692198 41.230769 528.675542 41.538462 528.658677 41.846154 528.641601 42.153846 528.624311 42.461538 528.606804 42.769231 528.589080 43.076923 528.571135 43.384615 528.552966 43.692308 528.534573 44.000000 528.515951 44.307692 528.497100 44.615385 528.478016 44.923077 528.458697 45.230769 528.439141 45.538462 528.419345 45.846154 528.399308 46.153846 528.379026 46.461538 528.358498 46.769231 528.337720 47.076923 528.316692 47.384615 528.295410 47.692308 528.273872 48.000000 528.252076 48.307692 528.230019 48.615385 528.207699 48.923077 528.185114 49.230769 528.162261 49.538462 528.139138 49.846154 528.115742 50.153846 528.092072 50.461538 528.068125 50.769231 528.043898 51.076923 528.019390 51.384615 527.994597 51.692308 527.969518 52.000000 527.944150 52.307692 527.918491 52.615385 527.892538 52.923077 527.866290 53.230769 527.839743 53.538462 527.812896 53.846154 527.785745 54.153846 527.758290 54.461538 527.730527 54.769231 527.702454 55.076923 527.674068 55.384615 527.645368 55.692308 527.616351 56.000000 527.587015 56.307692 527.557356 56.615385 527.527374 56.923077 527.497066 57.230769 527.466428 57.538462 527.435460 57.846154 527.404158 58.153846 527.372520 58.461538 527.340544 58.769231 527.308228 59.076923 527.275569 59.384615 527.242564 59.692308 527.209213 60.000000 527.175511 60.307692 527.141457 60.615385 527.107048 60.923077 527.072283 61.230769 527.037158 61.538462 527.001671 61.846154 526.965821 62.153846 526.929604 62.461538 526.893019 62.769231 526.856062 63.076923 526.818733 63.384615 526.781027 63.692308 526.742944 64.000000 526.704480 64.307692 526.665633 64.615385 526.626401 64.923077 526.586782 65.230769 526.546772 65.538462 526.506371 65.846154 526.465575 66.153846 526.424383 66.461538 526.382791 66.769231 526.340798 67.076923 526.298400 67.384615 526.255597 67.692308 526.212385 68.000000 526.168762 68.307692 526.124725 68.615385 526.080273 68.923077 526.035403 69.230769 525.990113 69.538462 525.944400 69.846154 525.898262 70.153846 525.851697 70.461538 525.804702 70.769231 525.757275 71.076923 525.709413 71.384615 525.661115 71.692308 525.612377 72.000000 525.563198 72.307692 525.513576 72.615385 525.463507 72.923077 525.412989 73.230769 525.362021 73.538462 525.310599 73.846154 525.258722 74.153846 525.206387 74.461538 525.153592 74.769231 525.100334 75.076923 525.046612 75.384615 524.992422 75.692308 524.937762 76.000000 524.882630 76.307692 524.827024 76.615385 524.770942 76.923077 524.714380 77.230769 524.657337 77.538462 524.599810 77.846154 524.541797 78.153846 524.483295 78.461538 524.424303 78.769231 524.364818 79.076923 524.304837 79.384615 524.244359 79.692308 524.183380 80.000000 524.121898 80.307692 524.059912 80.615385 523.997419 80.923077 523.934416 81.230769 523.870901 81.538462 523.806872 81.846154 523.742326 82.153846 523.677262 82.461538 523.611676 82.769231 523.545566 83.076923 523.478930 83.384615 523.411766 83.692308 523.344072 84.000000 523.275844 84.307692 523.207081 84.615385 523.137780 84.923077 523.067939 85.230769 522.997556 85.538462 522.926627 85.846154 522.855152 86.153846 522.783127 86.461538 522.710551 86.769231 522.637420 87.076923 522.563732 87.384615 522.489486 87.692308 522.414679 88.000000 522.339308 88.307692 522.263371 88.615385 522.186865 88.923077 522.109790 89.230769 522.032141 89.538462 521.953917 89.846154 521.875115 90.153846 521.795733 90.461538 521.715769 90.769231 521.635220 91.076923 521.554084 91.384615 521.472361 91.692308 521.390049 92.000000 521.307147 92.307692 521.223655 92.615385 521.139572 92.923077 521.054897 93.230769 520.969630 93.538462 520.883769 93.846154 520.797314 94.153846 520.710264 94.461538 520.622618 94.769231 520.534376 95.076923 520.445536 95.384615 520.356098 95.692308 520.266060 96.000000 520.175424 96.307692 520.084186 96.615385 519.992347 96.923077 519.899906 97.230769 519.806862 97.538462 519.713214 97.846154 519.618961 98.153846 519.524103 98.461538 519.428639 98.769231 519.332568 99.076923 519.235889 99.384615 519.138601 99.692308 519.040705 100.000000 518.942198 100.307692 518.843080 100.615385 518.743350 100.923077 518.643007 101.230769 518.542052 101.538462 518.440482 101.846154 518.338297 102.153846 518.235497 102.461538 518.132080 102.769231 518.028045 103.076923 517.923393 103.384615 517.818121 103.692308 517.712230 104.000000 517.605718 104.307692 517.498585 104.615385 517.390830 104.923077 517.282452 105.230769 517.173450 105.538462 517.063823 105.846154 516.953572 106.153846 516.842694 106.461538 516.731189 106.769231 516.619057 107.076923 516.506296 107.384615 516.392905 107.692308 516.278885 108.000000 516.164234 108.307692 516.048951 108.615385 515.933035 108.923077 515.816487 109.230769 515.699304 109.538462 515.581486 109.846154 515.463033 110.153846 515.343943 110.461538 515.224216 110.769231 515.103851 111.076923 514.982847 111.384615 514.861203 111.692308 514.738919 112.000000 514.615994 112.307692 514.492426 112.615385 514.368216 112.923077 514.243362 113.230769 514.117863 113.538462 513.991720 113.846154 513.864930 114.153846 513.737494 114.461538 513.609409 114.769231 513.480677 115.076923 513.351295 115.384615 513.221263 115.692308 513.090581 116.000000 512.959246 116.307692 512.827260 116.615385 512.694620 116.923077 512.561326 117.230769 512.427377 117.538462 512.292773 117.846154 512.157512 118.153846 512.021594 118.461538 511.885018 118.769231 511.747784 119.076923 511.609889 119.384615 511.471335 119.692308 511.332119 120.000000 511.192241 120.307692 511.051700 120.615385 510.910496 120.923077 510.768628 121.230769 510.626094 121.538462 510.482894 121.846154 510.339028 122.153846 510.194494 122.461538 510.049291 122.769231 509.903420 123.076923 509.756878 123.384615 509.609666 123.692308 509.461782 124.000000 509.313226 124.307692 509.163997 124.615385 509.014094 124.923077 508.863516 125.230769 508.712262 125.538462 508.560333 125.846154 508.407726 126.153846 508.254441 126.461538 508.100477 126.769231 507.945834 127.076923 507.790511 127.384615 507.634506 127.692308 507.477820 128.000000 507.320451 128.307692 507.162398 128.615385 507.003662 128.923077 506.844240 129.230769 506.684132 129.538462 506.523337 129.846154 506.361855 130.153846 506.199685 130.461538 506.036825 130.769231 505.873276 131.076923 505.709036 131.384615 505.544105 131.692308 505.378481 132.000000 505.212164 132.307692 505.045154 132.615385 504.877448 132.923077 504.709048 133.230769 504.539951 133.538462 504.370156 133.846154 504.199665 134.153846 504.028474 134.461538 503.856584 134.769231 503.683994 135.076923 503.510703 135.384615 503.336709 135.692308 503.162014 136.000000 502.986615 136.307692 502.810511 136.615385 502.633703 136.923077 502.456189 137.230769 502.277968 137.538462 502.099040 137.846154 501.919403 138.153846 501.739058 138.461538 501.558002 138.769231 501.376237 139.076923 501.193759 139.384615 501.010570 139.692308 500.826667 140.000000 500.642051 140.307692 500.456720 140.615385 500.270674 140.923077 500.083912 141.230769 499.896432 141.538462 499.708235 141.846154 499.519320 142.153846 499.329684 142.461538 499.139329 142.769231 498.948253 143.076923 498.756455 143.384615 498.563935 143.692308 498.370691 144.000000 498.176723 144.307692 497.982030 144.615385 497.786611 144.923077 497.590466 145.230769 497.393593 145.538462 497.195992 145.846154 496.997663 146.153846 496.798603 146.461538 496.598813 146.769231 496.398292 147.076923 496.197039 147.384615 495.995053 147.692308 495.792333 148.000000 495.588878 148.307692 495.384688 148.615385 495.179762 148.923077 494.974099 149.230769 494.767699 149.538462 494.560560 149.846154 494.352682 150.153846 494.144063 150.461538 493.934704 150.769231 493.724603 151.076923 493.513759 151.384615 493.302173 151.692308 493.089842 152.000000 492.876766 152.307692 492.662945 152.615385 492.448377 152.923077 492.233062 153.230769 492.016998 153.538462 491.800186 153.846154 491.582625 154.153846 491.364313 154.461538 491.145249 154.769231 490.925434 155.076923 490.704865 155.384615 490.483544 155.692308 490.261467 156.000000 490.038636 156.307692 489.815048 156.615385 489.590703 156.923077 489.365601 157.230769 489.139741 157.538462 488.913121 157.846154 488.685741 158.153846 488.457601 158.461538 488.228698 158.769231 487.999034 159.076923 487.768606 159.384615 487.537414 159.692308 487.305458 160.000000 487.072735 160.307692 486.839247 160.615385 486.604991 160.923077 486.369967 161.230769 486.134175 161.538462 485.897612 161.846154 485.660280 162.153846 485.422176 162.461538 485.183301 162.769231 484.943652 163.076923 484.703230 163.384615 484.462034 163.692308 484.220062 164.000000 483.977315 164.307692 483.733790 164.615385 483.489488 164.923077 483.244408 165.230769 482.998549 165.538462 482.751910 165.846154 482.504490 166.153846 482.256288 166.461538 482.007304 166.769231 481.757537 167.076923 481.506986 167.384615 481.255651 167.692308 481.003529 168.000000 480.750620 168.307692 480.496914 168.615385 480.242398 168.923077 479.987064 169.230769 479.730899 169.538462 479.473892 169.846154 479.216033 170.153846 478.957311 170.461538 478.697713 170.769231 478.437230 171.076923 478.175850 171.384615 477.913562 171.692308 477.650355 172.000000 477.386219 172.307692 477.121141 172.615385 476.855111 172.923077 476.588118 173.230769 476.320152 173.538462 476.051200 173.846154 475.781251 174.153846 475.510296 174.461538 475.238322 174.769231 474.965319 175.076923 474.691275 175.384615 474.416180 175.692308 474.140023 176.000000 473.862792 176.307692 473.584476 176.615385 473.305065 176.923077 473.024547 177.230769 472.742912 177.538462 472.460147 177.846154 472.176243 178.153846 471.891188 178.461538 471.604971 178.769231 471.317581 179.076923 471.029007 179.384615 470.739238 179.692308 470.448263 180.000000 470.156071 180.307692 469.862650 180.615385 469.567991 180.923077 469.272081 181.230769 468.974909 181.538462 468.676466 181.846154 468.376739 182.153846 468.075717 182.461538 467.773390 182.769231 467.469746 183.076923 467.164775 183.384615 466.858465 183.692308 466.550805 184.000000 466.241785 184.307692 465.931393 184.615385 465.619618 184.923077 465.306449 185.230769 464.991875 185.538462 464.675885 185.846154 464.358468 186.153846 464.039613 186.461538 463.719309 186.769231 463.397545 187.076923 463.074309 187.384615 462.749592 187.692308 462.423381 188.000000 462.095665 188.307692 461.766434 188.615385 461.435677 188.923077 461.103382 189.230769 460.769539 189.538462 460.434136 189.846154 460.097163 190.153846 459.758607 190.461538 459.418459 190.769231 459.076707 191.076923 458.733341 191.384615 458.388348 191.692308 458.041719 192.000000 457.693442 192.307692 457.343505 192.615385 456.991899 192.923077 456.638611 193.230769 456.283632 193.538462 455.926949 193.846154 455.568551 194.153846 455.208429 194.461538 454.846570 194.769231 454.482964 195.076923 454.117599 195.384615 453.750465 195.692308 453.381551 196.000000 453.010844 196.307692 452.638336 196.615385 452.264013 196.923077 451.887866 197.230769 451.509883 197.538462 451.130053 197.846154 450.748365 198.153846 450.364809 198.461538 449.979372 198.769231 449.592045 199.076923 449.202815 199.384615 448.811673 199.692308 448.418606 200.000000 448.023604 200.307692 447.626656 200.615385 447.227750 200.923077 446.826877 201.230769 446.424023 201.538462 446.019180 201.846154 445.612335 202.153846 445.203477 202.461538 444.792596 202.769231 444.379680 203.076923 443.964719 203.384615 443.547701 203.692308 443.128615 204.000000 442.707451 204.307692 442.284196 204.615385 441.858841 204.923077 441.431374 205.230769 441.001783 205.538462 440.570059 205.846154 440.136190 206.153846 439.700164 206.461538 439.261972 206.769231 438.821601 207.076923 438.379041 207.384615 437.934280 207.692308 437.487309 208.000000 437.038114 208.307692 436.586687 208.615385 436.133015 208.923077 435.677087 209.230769 435.218893 209.538462 434.758421 209.846154 434.295661 210.153846 433.830600 210.461538 433.363229 210.769231 432.893536 211.076923 432.421511 211.384615 431.947141 211.692308 431.470416 212.000000 430.991326 212.307692 430.509858 212.615385 430.026002 212.923077 429.539748 213.230769 429.051082 213.538462 428.559996 213.846154 428.066478 214.153846 427.570516 214.461538 427.072099 214.769231 426.571217 215.076923 426.067859 215.384615 425.562013 215.692308 425.053669 216.000000 424.542815 216.307692 424.029441 216.615385 423.513534 216.923077 422.995085 217.230769 422.474082 217.538462 421.950515 217.846154 421.424371 218.153846 420.895640 218.461538 420.364312 218.769231 419.830374 219.076923 419.293817 219.384615 418.754628 219.692308 418.212797 220.000000 417.668313 220.307692 417.121164 220.615385 416.571340 220.923077 416.018830 221.230769 415.463623 221.538462 414.905707 221.846154 414.345071 222.153846 413.781705 222.461538 413.215597 222.769231 412.646737 223.076923 412.075113 223.384615 411.500714 223.692308 410.923530 224.000000 410.343548 224.307692 409.760759 224.615385 409.175151 224.923077 408.586713 225.230769 407.995434 225.538462 407.401302 225.846154 406.804308 226.153846 406.204440 226.461538 405.601686 226.769231 404.996036 227.076923 404.387479 227.384615 403.776003 227.692308 403.161598 228.000000 402.544253 228.307692 401.923956 228.615385 401.300697 228.923077 400.674464 229.230769 400.045246 229.538462 399.413033 229.846154 398.777813 230.153846 398.139575 230.461538 397.498308 230.769231 396.854002 231.076923 396.206644 231.384615 395.556225 231.692308 394.902733 232.000000 394.246156 232.307692 393.586485 232.615385 392.923707 232.923077 392.257813 233.230769 391.588790 233.538462 390.916627 233.846154 390.241315 234.153846 389.562841 234.461538 388.881194 234.769231 388.196364 235.076923 387.508340 235.384615 386.817110 235.692308 386.122663 236.000000 385.424989 236.307692 384.724076 236.615385 384.019914 236.923077 383.312490 237.230769 382.601795 237.538462 381.887817 237.846154 381.170544 238.153846 380.449967 238.461538 379.726074 238.769231 378.998854 239.076923 378.268296 239.384615 377.534388 239.692308 376.797120 240.000000 376.056481 240.307692 375.312460 240.615385 374.565045 240.923077 373.814226 241.230769 373.059992 241.538462 372.302331 241.846154 371.541232 242.153846 370.776685 242.461538 370.008678 242.769231 369.237201 243.076923 368.462242 243.384615 367.683790 243.692308 366.901834 244.000000 366.116363 244.307692 365.327367 244.615385 364.534833 244.923077 363.738761 245.230769 362.939188 245.538462 362.136160 245.846154 361.329723 246.153846 360.519924 246.461538 359.706810 246.769231 358.890426 247.076923 358.070821 247.384615 357.248039 247.692308 356.422128 248.000000 355.593134 248.307692 354.761104 248.615385 353.926084 248.923077 353.088121 249.230769 352.247261 249.538462 351.403550 249.846154 350.557036 250.153846 349.707764 250.461538 348.855782 250.769231 348.001135 251.076923 347.143871 251.384615 346.284035 251.692308 345.421675 252.000000 344.556837 252.307692 343.689566 252.615385 342.819911 252.923077 341.947917 253.230769 341.073631 253.538462 340.197099 253.846154 339.318368 254.153846 338.437484 254.461538 337.554495 254.769231 336.669445 255.076923 335.782383 255.384615 334.893354 255.692308 334.002405 256.000000 333.109583 256.307692 332.214933 256.615385 331.318503 256.923077 330.420339 257.230769 329.520488 257.538462 328.618995 257.846154 327.715909 258.153846 326.811274 258.461538 325.905137 258.769231 324.997546 259.076923 324.088547 259.384615 323.178185 259.692308 322.266508 260.000000 321.353563 260.307692 320.439395 260.615385 319.524051 260.923077 318.607578 261.230769 317.690022 261.538462 316.771429 261.846154 315.851847 262.153846 314.931322 262.461538 314.009900 262.769231 313.087628 263.076923 312.164552 263.384615 311.240718 263.692308 310.316174 264.000000 309.390966 264.307692 308.465140 264.615385 307.538743 264.923077 306.611822 265.230769 305.684422 265.538462 304.756590 265.846154 303.828374 266.153846 302.899819 266.461538 301.970972 266.769231 301.041879 267.076923 300.112587 267.384615 299.183143 267.692308 298.253592 268.000000 297.323982 268.307692 296.394360 268.615385 295.464770 268.923077 294.535261 269.230769 293.605878 269.538462 292.676668 269.846154 291.747678 270.153846 290.818954 270.461538 289.890542 270.769231 288.962490 271.076923 288.034843 271.384615 287.107648 271.692308 286.180952 272.000000 285.254801 272.307692 284.329242 272.615385 283.404321 272.923077 282.480085 273.230769 281.556580 273.538462 280.633852 273.846154 279.711949 274.153846 278.790917 274.461538 277.870802 274.769231 276.951650 275.076923 276.033509 275.384615 275.116425 275.692308 274.200444 276.000000 273.285613 276.307692 272.371978 276.615385 271.459586 276.923077 270.548484 277.230769 269.638717 277.538462 268.730333 277.846154 267.823377 278.153846 266.917897 278.461538 266.013939 278.769231 265.111550 279.076923 264.210775 279.384615 263.311662 279.692308 262.414257 280.000000 261.518606 280.307692 260.624756 280.615385 259.732754 280.923077 258.842646 281.230769 257.954479 281.538462 257.068298 281.846154 256.184152 282.153846 255.302085 282.461538 254.422145 282.769231 253.544378 283.076923 252.668830 283.384615 251.795549 283.692308 250.924580 284.000000 250.055971 284.307692 249.189767 284.615385 248.326016 284.923077 247.464763 285.230769 246.606055 285.538462 245.749939 285.846154 244.896462 286.153846 244.045669 286.461538 243.197608 286.769231 242.352324 287.076923 241.509864 287.384615 240.670276 287.692308 239.833604 288.000000 238.999897 288.307692 238.169200 288.615385 237.341560 288.923077 236.517023 289.230769 235.695636 289.538462 234.877446 289.846154 234.062498 290.153846 233.250840 290.461538 232.442518 290.769231 231.637578 291.076923 230.836067 291.384615 230.038032 291.692308 229.243519 292.000000 228.452574 292.307692 227.665244 292.615385 226.881576 292.923077 226.101616 293.230769 225.325411 293.538462 224.553006 293.846154 223.784449 294.153846 223.019787 294.461538 222.259064 294.769231 221.502330 295.076923 220.749628 295.384615 220.001007 295.692308 219.256513 296.000000 218.516191 296.307692 217.780090 296.615385 217.048255 296.923077 216.320732 297.230769 215.597569 297.538462 214.878811 297.846154 214.164506 298.153846 213.454699 298.461538 212.749438 298.769231 212.048768 299.076923 211.352737 299.384615 210.661391 299.692308 209.974776 300.000000 209.292939 300.307692 208.615926 300.615385 207.943785 300.923077 207.276560 301.230769 206.614300 301.538462 205.957050 301.846154 205.304857 302.153846 204.657767 302.461538 204.015827 302.769231 203.379084 303.076923 202.747584 303.384615 202.121373 303.692308 201.500498 304.000000 200.885006 304.307692 200.274943 304.615385 199.670356 304.923077 199.071290 305.230769 198.477794 305.538462 197.889912 305.846154 197.307692 306.153846 196.731180 306.461538 196.160422 306.769231 195.595466 307.076923 195.036358 307.384615 194.483143 307.692308 193.935870 308.000000 193.394583 308.307692 192.859330 308.615385 192.330158 308.923077 191.807112 309.230769 191.290240 309.538462 190.779587 309.846154 190.275201 310.153846 189.777127 310.461538 189.285413 310.769231 188.800104 311.076923 188.321248 311.384615 187.848891 311.692308 187.383079 312.000000 186.923859 312.307692 186.471277 312.615385 186.025381 312.923077 185.586215 313.230769 185.153828 313.538462 184.728265 313.846154 184.309573 314.153846 183.897799 314.461538 183.492988 314.769231 183.095188 315.076923 182.704445 315.384615 182.320806 315.692308 181.944316 316.000000 181.575024 316.307692 181.212974 316.615385 180.858214 316.923077 180.510790 317.230769 180.170748 317.538462 179.838136 317.846154 179.512999 318.153846 179.195384 318.461538 178.885338 318.769231 178.582908 319.076923 178.288139 319.384615 178.001078 319.692308 177.721772 320.000000 177.450267 320.307692 177.186609 320.615385 176.930846 320.923077 176.683024 321.230769 176.443189 321.538462 176.211388 321.846154 175.987649 322.153846 175.771923 322.461538 175.564144 322.769231 175.364246 323.076923 175.172162 323.384615 174.987826 323.692308 174.811171 324.000000 174.642130 324.307692 174.480637 324.615385 174.326626 324.923077 174.180029 325.230769 174.040781 325.538462 173.908815 325.846154 173.784064 326.153846 173.666462 326.461538 173.555941 326.769231 173.452437 327.076923 173.355881 327.384615 173.266208 327.692308 173.183351 328.000000 173.107243 328.307692 173.037819 328.615385 172.975010 328.923077 172.918752 329.230769 172.868977 329.538462 172.825618 329.846154 172.788610 330.153846 172.757885 330.461538 172.733377 330.769231 172.715020 331.076923 172.702747 331.384615 172.696492 331.692308 172.696187 332.000000 172.701767 332.307692 172.713164 332.615385 172.730313 332.923077 172.753147 333.230769 172.781599 333.538462 172.815602 333.846154 172.855091 334.153846 172.899998 334.461538 172.950257 334.769231 173.005802 335.076923 173.066565 335.384615 173.132481 335.692308 173.203483 336.000000 173.279505 336.307692 173.360479 336.615385 173.446339 336.923077 173.537019 337.230769 173.632452 337.538462 173.732572 337.846154 173.837311 338.153846 173.946605 338.461538 174.060385 338.769231 174.178585 339.076923 174.301140 339.384615 174.427982 339.692308 174.559045 340.000000 174.694262 340.307692 174.833566 340.615385 174.976892 340.923077 175.124173 341.230769 175.275341 341.538462 175.430331 341.846154 175.589076 342.153846 175.751510 342.461538 175.917565 342.769231 176.087176 343.076923 176.260276 343.384615 176.436798 343.692308 176.616675 344.000000 176.799842 344.307692 176.986232 344.615385 177.175778 344.923077 177.368413 345.230769 177.564071 345.538462 177.762686 345.846154 177.964190 346.153846 178.168518 346.461538 178.375603 346.769231 178.585378 347.076923 178.797777 347.384615 179.012734 347.692308 179.230180 348.000000 179.450051 348.307692 179.672280 348.615385 179.896800 348.923077 180.123544 349.230769 180.352446 349.538462 180.583439 349.846154 180.816458 350.153846 181.051435 350.461538 181.288303 350.769231 181.526997 351.076923 181.767449 351.384615 182.009594 351.692308 182.253364 352.000000 182.498694 352.307692 182.745515 352.615385 182.993763 352.923077 183.243371 353.230769 183.494271 353.538462 183.746397 353.846154 183.999684 354.153846 184.254063 354.461538 184.509470 354.769231 184.765836 355.076923 185.023096 355.384615 185.281184 355.692308 185.540031 356.000000 185.799573 356.307692 186.059743 356.615385 186.320473 356.923077 186.581697 357.230769 186.843350 357.538462 187.105364 357.846154 187.367672 358.153846 187.630209 358.461538 187.892907 358.769231 188.155701 359.076923 188.418523 359.384615 188.681307 359.692308 188.943987 360.000000 189.206495 360.307692 189.468766 360.615385 189.730733 360.923077 189.992329 361.230769 190.253488 361.538462 190.514143 361.846154 190.774228 362.153846 191.033676 362.461538 191.292421 362.769231 191.550395 363.076923 191.807533 363.384615 192.063769 363.692308 192.319034 364.000000 192.573264 364.307692 192.826391 364.615385 193.078348 364.923077 193.329070 365.230769 193.578490 365.538462 193.826541 365.846154 194.073156 366.153846 194.318269 366.461538 194.561814 366.769231 194.803725 367.076923 195.043933 367.384615 195.282373 367.692308 195.518979 368.000000 195.753684 368.307692 195.986421 368.615385 196.217123 368.923077 196.445725 369.230769 196.672160 369.538462 196.896360 369.846154 197.118260 370.153846 197.337794 370.461538 197.554893 370.769231 197.769493 371.076923 197.981526 371.384615 198.190926 371.692308 198.397626 372.000000 198.601560 372.307692 198.802661 372.615385 199.000863 372.923077 199.196099 373.230769 199.388303 373.538462 199.577407 373.846154 199.763346 374.153846 199.946053 374.461538 200.125462 374.769231 200.301505 375.076923 200.474117 375.384615 200.643231 375.692308 200.808779 376.000000 200.970697 376.307692 201.128916 376.615385 201.283372 376.923077 201.433996 377.230769 201.580723 377.538462 201.723486 377.846154 201.862218 378.153846 201.996853 378.461538 202.127325 378.769231 202.253566 379.076923 202.375511 379.384615 202.493092 379.692308 202.606244 380.000000 202.714899 380.307692 202.818991 380.615385 202.918454 380.923077 203.013221 381.230769 203.103225 381.538462 203.188400 381.846154 203.268680 382.153846 203.343997 382.461538 203.414286 382.769231 203.479480 383.076923 203.539512 383.384615 203.594315 383.692308 203.643823 384.000000 203.687971 384.307692 203.726690 384.615385 203.759914 384.923077 203.787578 385.230769 203.809614 385.538462 203.825956 385.846154 203.836537 386.153846 203.841291 386.461538 203.840151 386.769231 203.833051 387.076923 203.819924 387.384615 203.800704 387.692308 203.775324 388.000000 203.743717 388.307692 203.705817 388.615385 203.661558 388.923077 203.610872 389.230769 203.553694 389.538462 203.489957 389.846154 203.419594 390.153846 203.342539 390.461538 203.258725 390.769231 203.168085 391.076923 203.070554 391.384615 202.966064 391.692308 202.854549 392.000000 202.735942 392.307692 202.610178 392.615385 202.477189 392.923077 202.336908 393.230769 202.189270 393.538462 202.034208 393.846154 201.871655 394.153846 201.701545 394.461538 201.523810 394.769231 201.338386 395.076923 201.145204 395.384615 200.944199 395.692308 200.735303 396.000000 200.518452 396.307692 200.293576 396.615385 200.060612 396.923077 199.819491 397.230769 199.570147 397.538462 199.312514 397.846154 199.046525 398.153846 198.772114 398.461538 198.489214 398.769231 198.197779 399.076923 197.897854 399.384615 197.589499 399.692308 197.272781 400.000000 196.947761 400.307692 196.614504 400.615385 196.273073 400.923077 195.923531 401.230769 195.565944 401.538462 195.200373 401.846154 194.826883 402.153846 194.445538 402.461538 194.056400 402.769231 193.659534 403.076923 193.255003 403.384615 192.842871 403.692308 192.423202 404.000000 191.996058 404.307692 191.561505 404.615385 191.119604 404.923077 190.670421 405.230769 190.214018 405.538462 189.750459 405.846154 189.279808 406.153846 188.802128 406.461538 188.317483 406.769231 187.825937 407.076923 187.327553 407.384615 186.822396 407.692308 186.310527 408.000000 185.792012 408.307692 185.266913 408.615385 184.735295 408.923077 184.197221 409.230769 183.652755 409.538462 183.101959 409.846154 182.544899 410.153846 181.981637 410.461538 181.412237 410.769231 180.836763 411.076923 180.255278 411.384615 179.667846 411.692308 179.074530 412.000000 178.475395 412.307692 177.870504 412.615385 177.259920 412.923077 176.643707 413.230769 176.021929 413.538462 175.394649 413.846154 174.761931 414.153846 174.123839 414.461538 173.480435 414.769231 172.831785 415.076923 172.177951 415.384615 171.518997 415.692308 170.854986 416.000000 170.185983 416.307692 169.512051 416.615385 168.833253 416.923077 168.149653 417.230769 167.461315 417.538462 166.768303 417.846154 166.070679 418.153846 165.368508 418.461538 164.661853 418.769231 163.950778 419.076923 163.235347 419.384615 162.515622 419.692308 161.791669 420.000000 161.063549 420.307692 160.331328 420.615385 159.595068 420.923077 158.854833 421.230769 158.110688 421.538462 157.362694 421.846154 156.610917 422.153846 155.855419 422.461538 155.096265 422.769231 154.333517 423.076923 153.567240 423.384615 152.797497 423.692308 152.024352 424.000000 151.247869 424.307692 150.468110 424.615385 149.685140 424.923077 148.899022 425.230769 148.109820 425.538462 147.317598 425.846154 146.522419 426.153846 145.724346 426.461538 144.923444 426.769231 144.119776 427.076923 143.313405 427.384615 142.504396 427.692308 141.692812 428.000000 140.878716 428.307692 140.062172 428.615385 139.243243 428.923077 138.421994 429.230769 137.598488 429.538462 136.772789 429.846154 135.944960 430.153846 135.115064 430.461538 134.283166 430.769231 133.449329 431.076923 132.613617 431.384615 131.776093 431.692308 130.936821 432.000000 130.095864 432.307692 129.253287 432.615385 128.409152 432.923077 127.563524 433.230769 126.716465 433.538462 125.868041 433.846154 125.018313 434.153846 124.167347 434.461538 123.315205 434.769231 122.461951 435.076923 121.607649 435.384615 120.752362 435.692308 119.896154 436.000000 119.039089 436.307692 118.181230 436.615385 117.322640 436.923077 116.463385 437.230769 115.603526 437.538462 114.743128 437.846154 113.882254 438.153846 113.020968 438.461538 112.159334 438.769231 111.297415 439.076923 110.435275 439.384615 109.572977 439.692308 108.710586 440.000000 107.848164 440.307692 106.985775 440.615385 106.123483 440.923077 105.261352 441.230769 104.399444 441.538462 103.537825 441.846154 102.676557 442.153846 101.815704 442.461538 100.955329 442.769231 100.095497 443.076923 99.236271 443.384615 98.377714 443.692308 97.519890 444.000000 96.662863 444.307692 95.806697 444.615385 94.951454 444.923077 94.097199 445.230769 93.243995 445.538462 92.391906 445.846154 91.540995 446.153846 90.691327 446.461538 89.842964 446.769231 88.995971 447.076923 88.150410 447.384615 87.306346 447.692308 86.463842 448.000000 85.622962 448.307692 84.783770 448.615385 83.946328 448.923077 83.110701 449.230769 82.276952 449.538462 81.445146 449.846154 80.615344 450.153846 79.787612 450.461538 78.962013 450.769231 78.138610 451.076923 77.317467 451.384615 76.498648 451.692308 75.682216 452.000000 74.868235 452.307692 74.056768 452.615385 73.247879 452.923077 72.441632 453.230769 71.638091 453.538462 70.837318 453.846154 70.039378 454.153846 69.244334 454.461538 68.452250 454.769231 67.663190 455.076923 66.877216 455.384615 66.094394 455.692308 65.314785 456.000000 64.538455 456.307692 63.765466 456.615385 62.995882 456.923077 62.229767 457.230769 61.467184 457.538462 60.708198 457.846154 59.952871 458.153846 59.201267 458.461538 58.453451 458.769231 57.709484 459.076923 56.969432 459.384615 56.233358 459.692308 55.501325 460.000000 54.773397 460.307692 54.049638 460.615385 53.330111 460.923077 52.614879 461.230769 51.904008 461.538462 51.197559 461.846154 50.495597 462.153846 49.798185 462.461538 49.105388 462.769231 48.417268 463.076923 47.733889 463.384615 47.055315 463.692308 46.381609 464.000000 45.712836 464.307692 45.049058 464.615385 44.390340 464.923077 43.736744 465.230769 43.088335 465.538462 42.445176 465.846154 41.807331 466.153846 41.174863 466.461538 40.547837 466.769231 39.926315 467.076923 39.310361 467.384615 38.700039 467.692308 38.095413 468.000000 37.496546 468.307692 36.903501 468.615385 36.316343 468.923077 35.735135 469.230769 35.159941 469.538462 34.590823 469.846154 34.027847 470.153846 33.471075 470.461538 32.920571 470.769231 32.376399 471.076923 31.838622 471.384615 31.307305 471.692308 30.782509 472.000000 30.264300 472.307692 29.752741 472.615385 29.247896 472.923077 28.749827 473.230769 28.258599 473.538462 27.774275 473.846154 27.296919 474.153846 26.826595 474.461538 26.363366 474.769231 25.907296 475.076923 25.458448 475.384615 25.016886 475.692308 24.582657 476.000000 24.155744 476.307692 23.736111 476.615385 23.323723 476.923077 22.918547 477.230769 22.520547 477.538462 22.129690 477.846154 21.745939 478.153846 21.369261 478.461538 20.999621 478.769231 20.636985 479.076923 20.281317 479.384615 19.932584 479.692308 19.590750 480.000000 19.255780 480.307692 18.927642 480.615385 18.606298 480.923077 18.291716 481.230769 17.983861 481.538462 17.682697 481.846154 17.388190 482.153846 17.100305 482.461538 16.819009 482.769231 16.544266 483.076923 16.276042 483.384615 16.014301 483.692308 15.759010 484.000000 15.510134 484.307692 15.267638 484.615385 15.031487 484.923077 14.801648 485.230769 14.578084 485.538462 14.360763 485.846154 14.149648 486.153846 13.944706 486.461538 13.745901 486.769231 13.553200 487.076923 13.366567 487.384615 13.185969 487.692308 13.011369 488.000000 12.842734 488.307692 12.680029 488.615385 12.523220 488.923077 12.372271 489.230769 12.227149 489.538462 12.087818 489.846154 11.954244 490.153846 11.826392 490.461538 11.704228 490.769231 11.587717 491.076923 11.476825 491.384615 11.371516 491.692308 11.271756 492.000000 11.177511 492.307692 11.088746 492.615385 11.005426 492.923077 10.927517 493.230769 10.854984 493.538462 10.787792 493.846154 10.725907 494.153846 10.669295 494.461538 10.617919 494.769231 10.571747 495.076923 10.530743 495.384615 10.494873 495.692308 10.464102 496.000000 10.438395 496.307692 10.417718 496.615385 10.402036 496.923077 10.391315 497.230769 10.385519 497.538462 10.384615 497.846154 10.388568 498.153846 10.397343 498.461538 10.410905 498.769231 10.429220 499.076923 10.452253 499.384615 10.479970 499.692308 10.512335 500.000000 10.549315 500.307692 10.590875 500.615385 10.636979 500.923077 10.687594 501.230769 10.742685 501.538462 10.802217 501.846154 10.866156 502.153846 10.934466 502.461538 11.007114 502.769231 11.084065 503.076923 11.165284 503.384615 11.250736 503.692308 11.340386 504.000000 11.434202 504.307692 11.532146 504.615385 11.634186 504.923077 11.740286 505.230769 11.850411 505.538462 11.964528 505.846154 12.082601 506.153846 12.204596 506.461538 12.330478 506.769231 12.460213 507.076923 12.593765 507.384615 12.731101 507.692308 12.872186 508.000000 13.016984 508.307692 13.165462 508.615385 13.317585 508.923077 13.473318 509.230769 13.632627 509.538462 13.795477 509.846154 13.961833 510.153846 14.131660 510.461538 14.304925 510.769231 14.481592 511.076923 14.661627 511.384615 14.844996 511.692308 15.031662 512.000000 15.221593 512.307692 15.414753 512.615385 15.611108 512.923077 15.810623 513.230769 16.013263 513.538462 16.218994 513.846154 16.427782 514.153846 16.639591 514.461538 16.854386 514.769231 17.072135 515.076923 17.292800 515.384615 17.516349 515.692308 17.742747 516.000000 17.971958 516.307692 18.203949 516.615385 18.438684 516.923077 18.676129 517.230769 18.916249 517.538462 19.159010 517.846154 19.404377 518.153846 19.652316 518.461538 19.902791 518.769231 20.155769 519.076923 20.411214 519.384615 20.669092 519.692308 20.929369 520.000000 21.192009 520.307692 21.456978 520.615385 21.724242 520.923077 21.993766 521.230769 22.265515 521.538462 22.539454 521.846154 22.815549 522.153846 23.093766 522.461538 23.374070 522.769231 23.656425 523.076923 23.940798 523.384615 24.227154 523.692308 24.515458 524.000000 24.805676 524.307692 25.097772 524.615385 25.391713 524.923077 25.687464 525.230769 25.984990 525.538462 26.284256 525.846154 26.585228 526.153846 26.887871 526.461538 27.192151 526.769231 27.498033 527.076923 27.805482 527.384615 28.114464 527.692308 28.424944 528.000000 28.736888 528.307692 29.050260 528.615385 29.365027 528.923077 29.681153 529.230769 29.998604 529.538462 30.317346 529.846154 30.637343 530.153846 30.958562 530.461538 31.280966 530.769231 31.604523 531.076923 31.929197 531.384615 32.254954 531.692308 32.581758 532.000000 32.909576 532.307692 33.238373 532.615385 33.568113 532.923077 33.898763 533.230769 34.230288 533.538462 34.562654 533.846154 34.895825 534.153846 35.229766 534.461538 35.564445 534.769231 35.899825 535.076923 36.235872 535.384615 36.572551 535.692308 36.909829 536.000000 37.247669 536.307692 37.586039 536.615385 37.924902 536.923077 38.264224 537.230769 38.603972 537.538462 38.944109 537.846154 39.284602 538.153846 39.625416 538.461538 39.966516 538.769231 40.307868 539.076923 40.649436 539.384615 40.991187 539.692308 41.333086 540.000000 41.675098 540.307692 42.017188 540.615385 42.359323 540.923077 42.701466 541.230769 43.043584 541.538462 43.385642 541.846154 43.727606 542.153846 44.069440 542.461538 44.411110 542.769231 44.752582 543.076923 45.093821 543.384615 45.434792 543.692308 45.775460 544.000000 46.115792 544.307692 46.455752 544.615385 46.795306 544.923077 47.134418 545.230769 47.473056 545.538462 47.811183 545.846154 48.148765 546.153846 48.485768 546.461538 48.822157 546.769231 49.157898 547.076923 49.492955 547.384615 49.827294 547.692308 50.160881 548.000000 50.493681 548.307692 50.825659 548.615385 51.156781 548.923077 51.487011 549.230769 51.816316 549.538462 52.144661 549.846154 52.472011 550.153846 52.798331 550.461538 53.123587 550.769231 53.447745 551.076923 53.770769 551.384615 54.092625 551.692308 54.413279 552.000000 54.732695 552.307692 55.050839 552.615385 55.367683 552.923077 55.683221 553.230769 55.997453 553.538462 56.310381 553.846154 56.622003 554.153846 56.932322 554.461538 57.241337 554.769231 57.549049 555.076923 57.855459 555.384615 58.160567 555.692308 58.464372 556.000000 58.766877 556.307692 59.068082 556.615385 59.367986 556.923077 59.666590 557.230769 59.963896 557.538462 60.259903 557.846154 60.554611 558.153846 60.848022 558.461538 61.140136 558.769231 61.430954 559.076923 61.720475 559.384615 62.008700 559.692308 62.295630 560.000000 62.581266 560.307692 62.865607 560.615385 63.148655 560.923077 63.430409 561.230769 63.710871 561.538462 63.990040 561.846154 64.267918 562.153846 64.544505 562.461538 64.819800 562.769231 65.093806 563.076923 65.366521 563.384615 65.637948 563.692308 65.908085 564.000000 66.176935 564.307692 66.444496 564.615385 66.710770 564.923077 66.975758 565.230769 67.239459 565.538462 67.501874 565.846154 67.763004 566.153846 68.022849 566.461538 68.281409 566.769231 68.538686 567.076923 68.794679 567.384615 69.049390 567.692308 69.302818 568.000000 69.554964 568.307692 69.805829 568.615385 70.055413 568.923077 70.303716 569.230769 70.550739 569.538462 70.796483 569.846154 71.040948 570.153846 71.284135 570.461538 71.526044 570.769231 71.766675 571.076923 72.006029 571.384615 72.244106 571.692308 72.480908 572.000000 72.716434 572.307692 72.950685 572.615385 73.183662 572.923077 73.415364 573.230769 73.645793 573.538462 73.874949 573.846154 74.102832 574.153846 74.329443 574.461538 74.554783 574.769231 74.778851 575.076923 75.001649 575.384615 75.223177 575.692308 75.443435 576.000000 75.662424 576.307692 75.880145 576.615385 76.096597 576.923077 76.311782 577.230769 76.525699 577.538462 76.738350 577.846154 76.949735 578.153846 77.159854 578.461538 77.368707 578.769231 77.576297 579.076923 77.782621 579.384615 77.987683 579.692308 78.191480 580.000000 78.394016 580.307692 78.595288 580.615385 78.795300 580.923077 78.994050 581.230769 79.191539 581.538462 79.387768 581.846154 79.582737 582.153846 79.776446 582.461538 79.968897 582.769231 80.160090 583.076923 80.350025 583.384615 80.538702 583.692308 80.726123 584.000000 80.912287 584.307692 81.097196 584.615385 81.280849 584.923077 81.463247 585.230769 81.644391 585.538462 81.824281 585.846154 82.002918 586.153846 82.180301 586.461538 82.356433 586.769231 82.531312 587.076923 82.704940 587.384615 82.877317 587.692308 83.048443 588.000000 83.218320 588.307692 83.386947 588.615385 83.554325 588.923077 83.720455 589.230769 83.885337 589.538462 84.048971 589.846154 84.211358 590.153846 84.372499 590.461538 84.532393 590.769231 84.691042 591.076923 84.848447 591.384615 85.004606 591.692308 85.159522 592.000000 85.313193 592.307692 85.465622 592.615385 85.616809 592.923077 85.766753 593.230769 85.915455 593.538462 86.062917 593.846154 86.209138 594.153846 86.354118 594.461538 86.497860 594.769231 86.640362 595.076923 86.781625 595.384615 86.921650 595.692308 87.060438 596.000000 87.197988 596.307692 87.334302 596.615385 87.469379 596.923077 87.603221 597.230769 87.735827 597.538462 87.867199 597.846154 87.997337 598.153846 88.126241 598.461538 88.253911 598.769231 88.380349 599.076923 88.505555 599.384615 88.629529 599.692308 88.752271 600.000000 88.873783 600.307692 88.994065 600.615385 89.113117 600.923077 89.230939 601.230769 89.347533 601.538462 89.462898 601.846154 89.577035 602.153846 89.689945 602.461538 89.801629 602.769231 89.912086 603.076923 90.021317 603.384615 90.129322 603.692308 90.236103 604.000000 90.341660 604.307692 90.445992 604.615385 90.549101 604.923077 90.650987 605.230769 90.751651 605.538462 90.851093 605.846154 90.949313 606.153846 91.046313 606.461538 91.142092 606.769231 91.236651 607.076923 91.329990 607.384615 91.422111 607.692308 91.513013 608.000000 91.602697 608.307692 91.691164 608.615385 91.778413 608.923077 91.864446 609.230769 91.949263 609.538462 92.032865 609.846154 92.115251 610.153846 92.196423 610.461538 92.276381 610.769231 92.355125 611.076923 92.432656 611.384615 92.508975 611.692308 92.584081 612.000000 92.657976 612.307692 92.730660 612.615385 92.802133 612.923077 92.872396 613.230769 92.941449 613.538462 93.009293 613.846154 93.075929 614.153846 93.141356 614.461538 93.205576 614.769231 93.268588 615.076923 93.330394 615.384615 93.390993 615.692308 93.450387 616.000000 93.508576 616.307692 93.565560 616.615385 93.621339 616.923077 93.675915 617.230769 93.729288 617.538462 93.781458 617.846154 93.832426 618.153846 93.882192 618.461538 93.930756 618.769231 93.978120 619.076923 94.024284 619.384615 94.069247 619.692308 94.113012 620.000000 94.155577 620.307692 94.196944 620.615385 94.237114 620.923077 94.276086 621.230769 94.313861 621.538462 94.350440 621.846154 94.385823 622.153846 94.420010 622.461538 94.453003 622.769231 94.484801 623.076923 94.515405 623.384615 94.544816 623.692308 94.573034 624.000000 94.600060 624.307692 94.625893 624.615385 94.650536 624.923077 94.673987 625.230769 94.696248 625.538462 94.717318 625.846154 94.737200 626.153846 94.755892 626.461538 94.773396 626.769231 94.789711 627.076923 94.804840 627.384615 94.818781 627.692308 94.831535 628.000000 94.843104 628.307692 94.853487 628.615385 94.862685 628.923077 94.870699 629.230769 94.877528 629.538462 94.883174 629.846154 94.887642 630.153846 94.890935 630.461538 94.893060 630.769231 94.894019 631.076923 94.893819 631.384615 94.892463 631.692308 94.889957 632.000000 94.886305 632.307692 94.881512 632.615385 94.875583 632.923077 94.868523 633.230769 94.860336 633.538462 94.851026 633.846154 94.840600 634.153846 94.829060 634.461538 94.816413 634.769231 94.802663 635.076923 94.787815 635.384615 94.771873 635.692308 94.754842 636.000000 94.736726 636.307692 94.717532 636.615385 94.697262 636.923077 94.675923 637.230769 94.653519 637.538462 94.630054 637.846154 94.605533 638.153846 94.579961 638.461538 94.553343 638.769231 94.525683 639.076923 94.496987 639.384615 94.467258 639.692308 94.436502 640.000000 94.404724 640.307692 94.371927 640.615385 94.338118 640.923077 94.303300 641.230769 94.267478 641.538462 94.230658 641.846154 94.192843 642.153846 94.154038 642.461538 94.114249 642.769231 94.073480 643.076923 94.031736 643.384615 93.989021 643.692308 93.945340 644.000000 93.900699 644.307692 93.855101 644.615385 93.808551 644.923077 93.761054 645.230769 93.712616 645.538462 93.663239 645.846154 93.612931 646.153846 93.561694 646.461538 93.509534 646.769231 93.456456 647.076923 93.402464 647.384615 93.347563 647.692308 93.291757 648.000000 93.235052 648.307692 93.177453 648.615385 93.118963 648.923077 93.059588 649.230769 92.999332 649.538462 92.938201 649.846154 92.876198 650.153846 92.813329 650.461538 92.749599 650.769231 92.685011 651.076923 92.619571 651.384615 92.553284 651.692308 92.486154 652.000000 92.418186 652.307692 92.349385 652.615385 92.279756 652.923077 92.209302 653.230769 92.138030 653.538462 92.065943 653.846154 91.993047 654.153846 91.919345 654.461538 91.844844 654.769231 91.769548 655.076923 91.693460 655.384615 91.616587 655.692308 91.538933 656.000000 91.460502 656.307692 91.381299 656.615385 91.301330 656.923077 91.220598 657.230769 91.139109 657.538462 91.056867 657.846154 90.973877 658.153846 90.890144 658.461538 90.805672 658.769231 90.720467 659.076923 90.634532 659.384615 90.547873 659.692308 90.460494 660.000000 90.372400 660.307692 90.283597 660.615385 90.194088 660.923077 90.103878 661.230769 90.012972 661.538462 89.921375 661.846154 89.829091 662.153846 89.736126 662.461538 89.642484 662.769231 89.548169 663.076923 89.453187 663.384615 89.357543 663.692308 89.261240 664.000000 89.164283 664.307692 89.066678 664.615385 88.968430 664.923077 88.869542 665.230769 88.770019 665.538462 88.669867 665.846154 88.569091 666.153846 88.467693 666.461538 88.365681 666.769231 88.263058 667.076923 88.159828 667.384615 88.055998 667.692308 87.951571 668.000000 87.846552 668.307692 87.740946 668.615385 87.634758 668.923077 87.527992 669.230769 87.420653 669.538462 87.312746 669.846154 87.204276 670.153846 87.095247 670.461538 86.985664 670.769231 86.875532 671.076923 86.764856 671.384615 86.653640 671.692308 86.541889 672.000000 86.429607 672.307692 86.316800 672.615385 86.203473 672.923077 86.089629 673.230769 85.975274 673.538462 85.860413 673.846154 85.745049 674.153846 85.629189 674.461538 85.512836 674.769231 85.395995 675.076923 85.278672 675.384615 85.160870 675.692308 85.042595 676.000000 84.923851 676.307692 84.804644 676.615385 84.684977 676.923077 84.564855 677.230769 84.444284 677.538462 84.323268 677.846154 84.201811 678.153846 84.079919 678.461538 83.957596 678.769231 83.834847 679.076923 83.711677 679.384615 83.588090 679.692308 83.464091 680.000000 83.339685 680.307692 83.214877 680.615385 83.089670 680.923077 82.964071 681.230769 82.838084 681.538462 82.711713 681.846154 82.584964 682.153846 82.457840 682.461538 82.330347 682.769231 82.202490 683.076923 82.074273 683.384615 81.945701 683.692308 81.816778 684.000000 81.687510 684.307692 81.557901 684.615385 81.427955 684.923077 81.297679 685.230769 81.167076 685.538462 81.036150 685.846154 80.904908 686.153846 80.773353 686.461538 80.641490 686.769231 80.509325 687.076923 80.376861 687.384615 80.244103 687.692308 80.111057 688.000000 79.977727 688.307692 79.844117 688.615385 79.710233 688.923077 79.576079 689.230769 79.441660 689.538462 79.306980 689.846154 79.172045 690.153846 79.036859 690.461538 78.901427 690.769231 78.765753 691.076923 78.629843 691.384615 78.493700 691.692308 78.357330 692.000000 78.220738 692.307692 78.083928 692.615385 77.946905 692.923077 77.809674 693.230769 77.672239 693.538462 77.534605 693.846154 77.396777 694.153846 77.258760 694.461538 77.120558 694.769231 76.982176 695.076923 76.843619 695.384615 76.704892 695.692308 76.565998 696.000000 76.426944 696.307692 76.287734 696.615385 76.148372 696.923077 76.008864 697.230769 75.869213 697.538462 75.729425 697.846154 75.589505 698.153846 75.449456 698.461538 75.309285 698.769231 75.168995 699.076923 75.028592 699.384615 74.888079 699.692308 74.747463 700.000000 74.606747 700.307692 74.465937 700.615385 74.325036 700.923077 74.184050 701.230769 74.042984 701.538462 73.901842 701.846154 73.760629 702.153846 73.619350 702.461538 73.478009 702.769231 73.336612 703.076923 73.195162 703.384615 73.053665 703.692308 72.912125 704.000000 72.770548 704.307692 72.628937 704.615385 72.487298 704.923077 72.345636 705.230769 72.203954 705.538462 72.062258 705.846154 71.920553 706.153846 71.778843 706.153846 540.000000" /></g></g><g class="titles" /><g class="plot overlay" transform="translate(60, 20)"><g class="series serie-0 color-0"><g class="dots"><circle class="dot reactive tooltip-trigger" cx="13.846153846153847" cy="529.6153846153845" r="2.5" /><desc class="value">1,090,957,627(kWh)</desc><desc class="x top">13.846153846153847</desc><desc class="y top">529.6153846153845</desc><desc class="x_label">2549</desc></g><g class="dots"><circle class="dot reactive tooltip-trigger" cx="90.76923076923076" cy="521.6352199985411" r="2.5" /><desc class="value">1,097,991,315(kWh)</desc><desc class="x top">90.76923076923076</desc><desc class="y top">521.6352199985411</desc><desc class="x_label">2550</desc></g><g class="dots"><circle class="dot reactive tooltip-trigger" cx="167.69230769230765" cy="481.0035293575684" r="2.5" /><desc class="value">1,133,803,939(kWh)</desc><desc class="x top">167.69230769230765</desc><desc class="y top">481.0035293575684</desc><desc class="x_label">2551</desc></g><g class="dots"><circle class="dot reactive tooltip-trigger" cx="244.6153846153846" cy="364.53483340803245" r="2.5" /><desc class="value">1,236,459,023(kWh)</desc><desc class="x top">244.6153846153846</desc><desc class="y top">364.53483340803245</desc><desc class="x_label">2552</desc></g><g class="dots"><circle class="dot reactive tooltip-trigger" cx="321.5384615384615" cy="176.21138824036979" r="2.5" /><desc class="value">1,402,446,621(kWh)</desc><desc class="x ">321.5384615384615</desc><desc class="y ">176.21138824036979</desc><desc class="x_label">2553</desc></g><g class="dots"><circle class="dot reactive tooltip-trigger" cx="398.46153846153845" cy="198.48921353906155" r="2.5" /><desc class="value">1,382,811,027(kWh)</desc><desc class="x left">398.46153846153845</desc><desc class="y left">198.48921353906155</desc><desc class="x_label">2554</desc></g><g class="dots"><circle class="dot reactive tooltip-trigger" cx="475.38461538461536" cy="25.016886073599153" r="2.5" /><desc class="value">1,535,708,904(kWh)</desc><desc class="x left">475.38461538461536</desc><desc class="y left">25.016886073599153</desc><desc class="x_label">2555</desc></g><g class="dots"><circle class="dot reactive tooltip-trigger" cx="552.3076923076923" cy="55.050839437319155" r="2.5" /><desc class="value">1,509,237,087(kWh)</desc><desc class="x left">552.3076923076923</desc><desc class="y left">55.050839437319155</desc><desc class="x_label">2556</desc></g><g class="dots"><circle class="dot reactive tooltip-trigger" cx="629.2307692307692" cy="94.87752788315163" r="2.5" /><desc class="value">1,474,133,989(kWh)</desc><desc class="x left">629.2307692307692</desc><desc class="y left">94.87752788315163</desc><desc class="x_label">2557</desc></g><g class="dots"><circle class="dot reactive tooltip-trigger" cx="706.1538461538461" cy="71.77884259738335" r="2.5" /><desc class="value">1,494,493,086(kWh)</desc><desc class="x left">706.1538461538461</desc><desc class="y left">71.77884259738335</desc><desc class="x_label">2558</desc></g></g></g><g class="plot text-overlay" transform="translate(60, 20)"><g class="series serie-0 color-0" /></g><g class="plot tooltip-overlay" transform="translate(60, 20)"><g class="tooltip" style="opacity: 0" transform="translate(0 0)"><rect class="tooltip-box" height="0" rx="0" ry="0" width="0" /><g class="text" /></g></g></g></svg>