<?xml version='1.0' encoding='utf-8'?>
<svg xmlns:xlink="http://www.w3.org/1999/xlink" class="pygal-chart" id="chart-ed902aaa-8603-4ff4-ac23-fea3a17a2e22" viewBox="0 0 800 600" xmlns="http://www.w3.org/2000/svg"><!--Generated with pygal 2.3.0 (etree) ©Kozea 2012-2016 on 2016-12-08--><!--http://pygal.org--><!--http://github.com/Kozea/pygal--><defs><style type="text/css">#chart-ed902aaa-8603-4ff4-ac23-fea3a17a2e22{-webkit-user-select:none;-webkit-font-smoothing:antialiased;font-family:Consolas,"Liberation Mono",Menlo,Courier,monospace}#chart-ed902aaa-8603-4ff4-ac23-fea3a17a2e22 .title{font-family:Consolas,"Liberation Mono",Menlo,Courier,monospace;font-size:16px}#chart-ed902aaa-8603-4ff4-ac23-fea3a17a2e22 .legends .legend text{font-family:Consolas,"Liberation Mono",Menlo,Courier,monospace;font-size:14px}#chart-ed902aaa-8603-4ff4-ac23-fea3a17a2e22 .axis text{font-family:Consolas,"Liberation Mono",Menlo,Courier,monospace;font-size:10px}#chart-ed902aaa-8603-4ff4-ac23-fea3a17a2e22 .axis text.major{font-family:Consolas,"Liberation Mono",Menlo,Courier,monospace;font-size:10px}#chart-ed902aaa-8603-4ff4-ac23-fea3a17a2e22 .text-overlay text.value{font-family:Consolas,"Liberation Mono",Menlo,Courier,monospace;font-size:16px}#chart-ed902aaa-8603-4ff4-ac23-fea3a17a2e22 .text-overlay text.label{font-family:Consolas,"Liberation Mono",Menlo,Courier,monospace;font-size:10px}#chart-ed902aaa-8603-4ff4-ac23-fea3a17a2e22 .tooltip{font-family:Consolas,"Liberation Mono",Menlo,Courier,monospace;font-size:14px}#chart-ed902aaa-8603-4ff4-ac23-fea3a17a2e22 text.no_data{font-family:Consolas,"Liberation Mono",Menlo,Courier,monospace;font-size:64px}
#chart-ed902aaa-8603-4ff4-ac23-fea3a17a2e22{background-color:rgba(249,249,249,1)}#chart-ed902aaa-8603-4ff4-ac23-fea3a17a2e22 path,#chart-ed902aaa-8603-4ff4-ac23-fea3a17a2e22 line,#chart-ed902aaa-8603-4ff4-ac23-fea3a17a2e22 rect,#chart-ed902aaa-8603-4ff4-ac23-fea3a17a2e22 circle{-webkit-transition:150ms;-moz-transition:150ms;transition:150ms}#chart-ed902aaa-8603-4ff4-ac23-fea3a17a2e22 .graph &gt; .background{fill:rgba(249,249,249,1)}#chart-ed902aaa-8603-4ff4-ac23-fea3a17a2e22 .plot &gt; .background{fill:rgba(255,255,255,1)}#chart-ed902aaa-8603-4ff4-ac23-fea3a17a2e22 .graph{fill:rgba(0,0,0,.87)}#chart-ed902aaa-8603-4ff4-ac23-fea3a17a2e22 text.no_data{fill:rgba(0,0,0,1)}#chart-ed902aaa-8603-4ff4-ac23-fea3a17a2e22 .title{fill:rgba(0,0,0,1)}#chart-ed902aaa-8603-4ff4-ac23-fea3a17a2e22 .legends .legend text{fill:rgba(0,0,0,.87)}#chart-ed902aaa-8603-4ff4-ac23-fea3a17a2e22 .legends .legend:hover text{fill:rgba(0,0,0,1)}#chart-ed902aaa-8603-4ff4-ac23-fea3a17a2e22 .axis .line{stroke:rgba(0,0,0,1)}#chart-ed902aaa-8603-4ff4-ac23-fea3a17a2e22 .axis .guide.line{stroke:rgba(0,0,0,.54)}#chart-ed902aaa-8603-4ff4-ac23-fea3a17a2e22 .axis .major.line{stroke:rgba(0,0,0,.87)}#chart-ed902aaa-8603-4ff4-ac23-fea3a17a2e22 .axis text.major{fill:rgba(0,0,0,1)}#chart-ed902aaa-8603-4ff4-ac23-fea3a17a2e22 .axis.y .guides:hover .guide.line,#chart-ed902aaa-8603-4ff4-ac23-fea3a17a2e22 .line-graph .axis.x .guides:hover .guide.line,#chart-ed902aaa-8603-4ff4-ac23-fea3a17a2e22 .stackedline-graph .axis.x .guides:hover .guide.line,#chart-ed902aaa-8603-4ff4-ac23-fea3a17a2e22 .xy-graph .axis.x .guides:hover .guide.line{stroke:rgba(0,0,0,1)}#chart-ed902aaa-8603-4ff4-ac23-fea3a17a2e22 .axis .guides:hover text{fill:rgba(0,0,0,1)}#chart-ed902aaa-8603-4ff4-ac23-fea3a17a2e22 .reactive{fill-opacity:.7;stroke-opacity:.8}#chart-ed902aaa-8603-4ff4-ac23-fea3a17a2e22 .ci{stroke:rgba(0,0,0,.87)}#chart-ed902aaa-8603-4ff4-ac23-fea3a17a2e22 .reactive.active,#chart-ed902aaa-8603-4ff4-ac23-fea3a17a2e22 .active .reactive{fill-opacity:.8;stroke-opacity:.9;stroke-width:4}#chart-ed902aaa-8603-4ff4-ac23-fea3a17a2e22 .ci .reactive.active{stroke-width:1.5}#chart-ed902aaa-8603-4ff4-ac23-fea3a17a2e22 .series text{fill:rgba(0,0,0,1)}#chart-ed902aaa-8603-4ff4-ac23-fea3a17a2e22 .tooltip rect{fill:rgba(255,255,255,1);stroke:rgba(0,0,0,1);-webkit-transition:opacity 150ms;-moz-transition:opacity 150ms;transition:opacity 150ms}#chart-ed902aaa-8603-4ff4-ac23-fea3a17a2e22 .tooltip .label{fill:rgba(0,0,0,.87)}#chart-ed902aaa-8603-4ff4-ac23-fea3a17a2e22 .tooltip .label{fill:rgba(0,0,0,.87)}#chart-ed902aaa-8603-4ff4-ac23-fea3a17a2e22 .tooltip .legend{font-size:.8em;fill:rgba(0,0,0,.54)}#chart-ed902aaa-8603-4ff4-ac23-fea3a17a2e22 .tooltip .x_label{font-size:.6em;fill:rgba(0,0,0,1)}#chart-ed902aaa-8603-4ff4-ac23-fea3a17a2e22 .tooltip .xlink{font-size:.5em;text-decoration:underline}#chart-ed902aaa-8603-4ff4-ac23-fea3a17a2e22 .tooltip .value{font-size:1.5em}#chart-ed902aaa-8603-4ff4-ac23-fea3a17a2e22 .bound{font-size:.5em}#chart-ed902aaa-8603-4ff4-ac23-fea3a17a2e22 .max-value{font-size:.75em;fill:rgba(0,0,0,.54)}#chart-ed902aaa-8603-4ff4-ac23-fea3a17a2e22 .map-element{fill:rgba(255,255,255,1);stroke:rgba(0,0,0,.54) !important}#chart-ed902aaa-8603-4ff4-ac23-fea3a17a2e22 .map-element .reactive{fill-opacity:inherit;stroke-opacity:inherit}#chart-ed902aaa-8603-4ff4-ac23-fea3a17a2e22 .color-0,#chart-ed902aaa-8603-4ff4-ac23-fea3a17a2e22 .color-0 a:visited{stroke:#e86fa0;fill:#e86fa0}#chart-ed902aaa-8603-4ff4-ac23-fea3a17a2e22 .text-overlay .color-0 text{fill:black}
#chart-ed902aaa-8603-4ff4-ac23-fea3a17a2e22 text.no_data{text-anchor:middle}#chart-ed902aaa-8603-4ff4-ac23-fea3a17a2e22 .guide.line{fill:none}#chart-ed902aaa-8603-4ff4-ac23-fea3a17a2e22 .centered{text-anchor:middle}#chart-ed902aaa-8603-4ff4-ac23-fea3a17a2e22 .title{text-anchor:middle}#chart-ed902aaa-8603-4ff4-ac23-fea3a17a2e22 .legends .legend text{fill-opacity:1}#chart-ed902aaa-8603-4ff4-ac23-fea3a17a2e22 .axis.x text{text-anchor:middle}#chart-ed902aaa-8603-4ff4-ac23-fea3a17a2e22 .axis.x:not(.web) text[transform]{text-anchor:start}#chart-ed902aaa-8603-4ff4-ac23-fea3a17a2e22 .axis.x:not(.web) text[transform].backwards{text-anchor:end}#chart-ed902aaa-8603-4ff4-ac23-fea3a17a2e22 .axis.y text{text-anchor:end}#chart-ed902aaa-8603-4ff4-ac23-fea3a17a2e22 .axis.y text[transform].backwards{text-anchor:start}#chart-ed902aaa-8603-4ff4-ac23-fea3a17a2e22 .axis.y2 text{text-anchor:start}#chart-ed902aaa-8603-4ff4-ac23-fea3a17a2e22 .axis.y2 text[transform].backwards{text-anchor:end}#chart-ed902aaa-8603-4ff4-ac23-fea3a17a2e22 .axis .guide.line{stroke-dasharray:4,4}#chart-ed902aaa-8603-4ff4-ac23-fea3a17a2e22 .axis .major.guide.line{stroke-dasharray:6,6}#chart-ed902aaa-8603-4ff4-ac23-fea3a17a2e22 .horizontal .axis.y .guide.line,#chart-ed902aaa-8603-4ff4-ac23-fea3a17a2e22 .horizontal .axis.y2 .guide.line,#chart-ed902aaa-8603-4ff4-ac23-fea3a17a2e22 .vertical .axis.x .guide.line{opacity:0}#chart-ed902aaa-8603-4ff4-ac23-fea3a17a2e22 .horizontal .axis.always_show .guide.line,#chart-ed902aaa-8603-4ff4-ac23-fea3a17a2e22 .vertical .axis.always_show .guide.line{opacity:1 !important}#chart-ed902aaa-8603-4ff4-ac23-fea3a17a2e22 .axis.y .guides:hover .guide.line,#chart-ed902aaa-8603-4ff4-ac23-fea3a17a2e22 .axis.y2 .guides:hover .guide.line,#chart-ed902aaa-8603-4ff4-ac23-fea3a17a2e22 .axis.x .guides:hover .guide.line{opacity:1}#chart-ed902aaa-8603-4ff4-ac23-fea3a17a2e22 .axis .guides:hover text{opacity:1}#chart-ed902aaa-8603-4ff4-ac23-fea3a17a2e22 .nofill{fill:none}#chart-ed902aaa-8603-4ff4-ac23-fea3a17a2e22 .subtle-fill{fill-opacity:.2}#chart-ed902aaa-8603-4ff4-ac23-fea3a17a2e22 .dot{stroke-width:1px;fill-opacity:1}#chart-ed902aaa-8603-4ff4-ac23-fea3a17a2e22 .dot.active{stroke-width:5px}#chart-ed902aaa-8603-4ff4-ac23-fea3a17a2e22 .dot.negative{fill:transparent}#chart-ed902aaa-8603-4ff4-ac23-fea3a17a2e22 text,#chart-ed902aaa-8603-4ff4-ac23-fea3a17a2e22 tspan{stroke:none !important}#chart-ed902aaa-8603-4ff4-ac23-fea3a17a2e22 .series text.active{opacity:1}#chart-ed902aaa-8603-4ff4-ac23-fea3a17a2e22 .tooltip rect{fill-opacity:.95;stroke-width:.5}#chart-ed902aaa-8603-4ff4-ac23-fea3a17a2e22 .tooltip text{fill-opacity:1}#chart-ed902aaa-8603-4ff4-ac23-fea3a17a2e22 .showable{visibility:hidden}#chart-ed902aaa-8603-4ff4-ac23-fea3a17a2e22 .showable.shown{visibility:visible}#chart-ed902aaa-8603-4ff4-ac23-fea3a17a2e22 .gauge-background{fill:rgba(229,229,229,1);stroke:none}#chart-ed902aaa-8603-4ff4-ac23-fea3a17a2e22 .bg-lines{stroke:rgba(249,249,249,1);stroke-width:2px}</style><script type="text/javascript">window.pygal = window.pygal || {};window.pygal.config = window.pygal.config || {};window.pygal.config['ed902aaa-8603-4ff4-ac23-fea3a17a2e22'] = {"no_data_text": "No data", "no_prefix": false, "xrange": null, "print_values_position": "center", "truncate_label": null, "x_labels": ["2549", "2550", "2551", "2552", "2553", "2554", "2555", "2556", "2557", "2558"], "title": null, "force_uri_protocol": "https", "defs": [], "formatter": null, "classes": ["pygal-chart"], "y_labels": null, "rounded_bars": null, "explicit_size": false, "x_labels_major_every": null, "legend_at_bottom_columns": null, "stroke_style": null, "half_pie": false, "spacing": 10, "tooltip_fancy_mode": true, "inverse_y_axis": false, "width": 800, "inner_radius": 0, "interpolation_parameters": {}, "tooltip_border_radius": 0, "style": {"no_data_font_family": "Consolas, \"Liberation Mono\", Menlo, Courier, monospace", "tooltip_font_size": 14, "tooltip_font_family": "Consolas, \"Liberation Mono\", Menlo, Courier, monospace", "stroke_opacity_hover": ".9", "legend_font_family": "Consolas, \"Liberation Mono\", Menlo, Courier, monospace", "font_family": "Consolas, \"Liberation Mono\", Menlo, Courier, monospace", "title_font_family": "Consolas, \"Liberation Mono\", Menlo, Courier, monospace", "background": "rgba(249, 249, 249, 1)", "stroke_opacity": ".8", "foreground": "rgba(0, 0, 0, .87)", "value_background": "rgba(229, 229, 229, 1)", "guide_stroke_dasharray": "4,4", "foreground_subtle": "rgba(0, 0, 0, .54)", "opacity_hover": ".8", "value_font_family": "Consolas, \"Liberation Mono\", Menlo, Courier, monospace", "value_label_font_size": 10, "plot_background": "rgba(255, 255, 255, 1)", "ci_colors": [], "label_font_size": 10, "major_label_font_size": 10, "title_font_size": 16, "no_data_font_size": 64, "value_font_size": 16, "value_colors": [], "label_font_family": "Consolas, \"Liberation Mono\", Menlo, Courier, monospace", "major_guide_stroke_dasharray": "6,6", "transition": "150ms", "foreground_strong": "rgba(0, 0, 0, 1)", "colors": ["#e86fa0", "#e88f6f", "#e8df6f", "#a0e86f", "#6fe88f", "#6fe8df", "#6fa0e8", "#8f6fe8", "#df6fe8", "#e86fa0"], "opacity": ".7", "legend_font_size": 14, "value_label_font_family": "Consolas, \"Liberation Mono\", Menlo, Courier, monospace", "major_label_font_family": "Consolas, \"Liberation Mono\", Menlo, Courier, monospace"}, "x_labels_major_count": null, "interpolation_precision": 250, "missing_value_fill_truncation": "x", "stack_from_top": false, "truncate_legend": null, "show_minor_x_labels": true, "print_zeroes": true, "css": ["file://style.css", "file://graph.css"], "y_label_rotation": 0, "legend_at_bottom": false, "print_values": false, "margin_top": null, "max_scale": 16, "allow_interruptions": false, "show_x_labels": true, "strict": false, "show_x_guides": false, "stroke": true, "margin_left": null, "dynamic_print_values": false, "print_labels": false, "show_y_labels": true, "x_labels_major": null, "range": null, "x_label_rotation": 0, "margin": 20, "zero": 0, "include_x_axis": false, "height": 600, "show_minor_y_labels": true, "show_dots": true, "interpolate": "cubic", "show_y_guides": true, "y_labels_major": null, "box_mode": "extremes", "margin_bottom": null, "order_min": null, "legend_box_size": 12, "fill": true, "show_only_major_dots": false, "js": ["//kozea.github.io/pygal.js/2.0.x/pygal-tooltips.min.js"], "x_title": null, "y_labels_major_every": null, "y_labels_major_count": null, "disable_xml_declaration": false, "y_title": null, "logarithmic": false, "pretty_print": false, "min_scale": 4, "dots_size": 2.5, "margin_right": null, "legends": [null], "secondary_range": null, "show_legend": false}</script><script type="text/javascript" xlink:href="https://kozea.github.io/pygal.js/2.0.x/pygal-tooltips.min.js" /></defs><title>Pygal</title><g class="graph stackedline-graph vertical"><rect class="background" height="600" width="800" x="0" y="0" /><g class="plot" transform="translate(54, 20)"><rect class="background" height="540" width="726.0" x="0" y="0" /><g class="axis y"><path class="line" d="M0.000000 540.000000 h726.000000" /><g class="guides"><path class="major guide line" d="M0.000000 523.664320 h726.000000" /><text class="major" x="-5" y="527.1643197344521">200M</text><title>200M</title></g><g class="guides"><path class="guide line" d="M0.000000 484.816688 h726.000000" /><text class="" x="-5" y="488.31668760640366">210M</text><title>210M</title></g><g class="guides"><path class="guide line" d="M0.000000 445.969055 h726.000000" /><text class="" x="-5" y="449.46905547835524">220M</text><title>220M</title></g><g class="guides"><path class="guide line" d="M0.000000 407.121423 h726.000000" /><text class="" x="-5" y="410.6214233503068">230M</text><title>230M</title></g><g class="guides"><path class="guide line" d="M0.000000 368.273791 h726.000000" /><text class="" x="-5" y="371.7737912222584">240M</text><title>240M</title></g><g class="guides"><path class="major guide line" d="M0.000000 329.426159 h726.000000" /><text class="major" x="-5" y="332.92615909421">250M</text><title>250M</title></g><g class="guides"><path class="guide line" d="M0.000000 290.578527 h726.000000" /><text class="" x="-5" y="294.0785269661616">260M</text><title>260M</title></g><g class="guides"><path class="guide line" d="M0.000000 251.730895 h726.000000" /><text class="" x="-5" y="255.23089483811316">270M</text><title>270M</title></g><g class="guides"><path class="guide line" d="M0.000000 212.883263 h726.000000" /><text class="" x="-5" y="216.38326271006474">280M</text><title>280M</title></g><g class="guides"><path class="guide line" d="M0.000000 174.035631 h726.000000" /><text class="" x="-5" y="177.53563058201632">290M</text><title>290M</title></g><g class="guides"><path class="major guide line" d="M0.000000 135.187998 h726.000000" /><text class="major" x="-5" y="138.6879984539679">300M</text><title>300M</title></g><g class="guides"><path class="guide line" d="M0.000000 96.340366 h726.000000" /><text class="" x="-5" y="99.84036632591949">310M</text><title>310M</title></g><g class="guides"><path class="guide line" d="M0.000000 57.492734 h726.000000" /><text class="" x="-5" y="60.99273419787107">320M</text><title>320M</title></g><g class="guides"><path class="guide line" d="M0.000000 18.645102 h726.000000" /><text class="" x="-5" y="22.145102069822656">330M</text><title>330M</title></g></g><g class="axis x"><g class="guides"><path class="line" d="M13.961538 0.000000 v540.000000" /><text class="" x="13.96153846153846" y="555.0">2549</text></g><g class="guides"><path class="guide line" d="M91.525641 0.000000 v540.000000" /><text class="" x="91.52564102564101" y="555.0">2550</text></g><g class="guides"><path class="guide line" d="M169.089744 0.000000 v540.000000" /><text class="" x="169.08974358974356" y="555.0">2551</text></g><g class="guides"><path class="guide line" d="M246.653846 0.000000 v540.000000" /><text class="" x="246.65384615384613" y="555.0">2552</text></g><g class="guides"><path class="guide line" d="M324.217949 0.000000 v540.000000" /><text class="" x="324.21794871794873" y="555.0">2553</text></g><g class="guides"><path class="guide line" d="M401.782051 0.000000 v540.000000" /><text class="" x="401.78205128205127" y="555.0">2554</text></g><g class="guides"><path class="guide line" d="M479.346154 0.000000 v540.000000" /><text class="" x="479.3461538461538" y="555.0">2555</text></g><g class="guides"><path class="guide line" d="M556.910256 0.000000 v540.000000" /><text class="" x="556.9102564102565" y="555.0">2556</text></g><g class="guides"><path class="guide line" d="M634.474359 0.000000 v540.000000" /><text class="" x="634.474358974359" y="555.0">2557</text></g><g class="guides"><path class="guide line" d="M712.038462 0.000000 v540.000000" /><text class="" x="712.0384615384615" y="555.0">2558</text></g></g><g class="series serie-0 color-0"><path class="line reactive" d="M13.961538 540.000000 L13.961538 529.615385 14.271795 529.376702 14.582051 529.138023 14.892308 528.899348 15.202564 528.660681 15.512821 528.422024 15.823077 528.183380 16.133333 527.944751 16.443590 527.706140 16.753846 527.467549 17.064103 527.228981 17.374359 526.990438 17.684615 526.751923 17.994872 526.513438 18.305128 526.274986 18.615385 526.036570 18.925641 525.798192 19.235897 525.559854 19.546154 525.321559 19.856410 525.083310 20.166667 524.845109 20.476923 524.606958 20.787179 524.368861 21.097436 524.130820 21.407692 523.892836 21.717949 523.654914 22.028205 523.417055 22.338462 523.179261 22.648718 522.941536 22.958974 522.703882 23.269231 522.466301 23.579487 522.228797 23.889744 521.991370 24.200000 521.754025 24.510256 521.516763 24.820513 521.279588 25.130769 521.042501 25.441026 520.805505 25.751282 520.568603 26.061538 520.331797 26.371795 520.095090 26.682051 519.858484 26.992308 519.621982 27.302564 519.385587 27.612821 519.149300 27.923077 518.913124 28.233333 518.677063 28.543590 518.441118 28.853846 518.205292 29.164103 517.969588 29.474359 517.734007 29.784615 517.498554 30.094872 517.263229 30.405128 517.028036 30.715385 516.792978 31.025641 516.558056 31.335897 516.323273 31.646154 516.088632 31.956410 515.854135 32.266667 515.619786 32.576923 515.385585 32.887179 515.151537 33.197436 514.917643 33.507692 514.683906 33.817949 514.450329 34.128205 514.216913 34.438462 513.983663 34.748718 513.750579 35.058974 513.517665 35.369231 513.284923 35.679487 513.052356 35.989744 512.819966 36.300000 512.587756 36.610256 512.355728 36.920513 512.123886 37.230769 511.892230 37.541026 511.660764 37.851282 511.429491 38.161538 511.198413 38.471795 510.967532 38.782051 510.736852 39.092308 510.506374 39.402564 510.276101 39.712821 510.046035 40.023077 509.816180 40.333333 509.586537 40.643590 509.357110 40.953846 509.127901 41.264103 508.898912 41.574359 508.670145 41.884615 508.441604 42.194872 508.213291 42.505128 507.985208 42.815385 507.757359 43.125641 507.529744 43.435897 507.302368 43.746154 507.075232 44.056410 506.848340 44.366667 506.621693 44.676923 506.395294 44.987179 506.169146 45.297436 505.943251 45.607692 505.717612 45.917949 505.492231 46.228205 505.267111 46.538462 505.042254 46.848718 504.817663 47.158974 504.593340 47.469231 504.369289 47.779487 504.145511 48.089744 503.922009 48.400000 503.698785 48.710256 503.475843 49.020513 503.253184 49.330769 503.030811 49.641026 502.808727 49.951282 502.586934 50.261538 502.365435 50.571795 502.144232 50.882051 501.923328 51.192308 501.702725 51.502564 501.482426 51.812821 501.262433 52.123077 501.042750 52.433333 500.823378 52.743590 500.604319 53.053846 500.385578 53.364103 500.167155 53.674359 499.949054 53.984615 499.731277 54.294872 499.513827 54.605128 499.296706 54.915385 499.079916 55.225641 498.863461 55.535897 498.647343 55.846154 498.431563 56.156410 498.216126 56.466667 498.001033 56.776923 497.786287 57.087179 497.571891 57.397436 497.357846 57.707692 497.144156 58.017949 496.930823 58.328205 496.717849 58.638462 496.505238 58.948718 496.292991 59.258974 496.081111 59.569231 495.869602 59.879487 495.658464 60.189744 495.447701 60.500000 495.237315 60.810256 495.027309 61.120513 494.817686 61.430769 494.608447 61.741026 494.399596 62.051282 494.191135 62.361538 493.983066 62.671795 493.775392 62.982051 493.568116 63.292308 493.361240 63.602564 493.154766 63.912821 492.948698 64.223077 492.743037 64.533333 492.537786 64.843590 492.332949 65.153846 492.128526 65.464103 491.924521 65.774359 491.720937 66.084615 491.517775 66.394872 491.315039 66.705128 491.112731 67.015385 490.910853 67.325641 490.709409 67.635897 490.508399 67.946154 490.307828 68.256410 490.107698 68.566667 489.908010 68.876923 489.708768 69.187179 489.509975 69.497436 489.311632 69.807692 489.113742 70.117949 488.916308 70.428205 488.719333 70.738462 488.522818 71.048718 488.326767 71.358974 488.131181 71.669231 487.936064 71.979487 487.741418 72.289744 487.547246 72.600000 487.353549 72.910256 487.160331 73.220513 486.967595 73.530769 486.775341 73.841026 486.583574 74.151282 486.392296 74.461538 486.201509 74.771795 486.011216 75.082051 485.821419 75.392308 485.632121 75.702564 485.443324 76.012821 485.255031 76.323077 485.067245 76.633333 484.879967 76.943590 484.693201 77.253846 484.506949 77.564103 484.321213 77.874359 484.135997 78.184615 483.951302 78.494872 483.767132 78.805128 483.583488 79.115385 483.400373 79.425641 483.217790 79.735897 483.035741 80.046154 482.854230 80.356410 482.673257 80.666667 482.492826 80.976923 482.312940 81.287179 482.133601 81.597436 481.954811 81.907692 481.776573 82.217949 481.598890 82.528205 481.421764 82.838462 481.245197 83.148718 481.069192 83.458974 480.893753 83.769231 480.718880 84.079487 480.544577 84.389744 480.370846 84.700000 480.197690 85.010256 480.025112 85.320513 479.853113 85.630769 479.681697 85.941026 479.510866 86.251282 479.340622 86.561538 479.170968 86.871795 479.001906 87.182051 478.833440 87.492308 478.665571 87.802564 478.498302 88.112821 478.331636 88.423077 478.165576 88.733333 478.000122 89.043590 477.835280 89.353846 477.671049 89.664103 477.507435 89.974359 477.344438 90.284615 477.182061 90.594872 477.020307 90.905128 476.859179 91.215385 476.698679 91.525641 476.538809 91.835897 476.379570 92.146154 476.220957 92.456410 476.062960 92.766667 475.905573 93.076923 475.748787 93.387179 475.592594 93.697436 475.436987 94.007692 475.281956 94.317949 475.127495 94.628205 474.973596 94.938462 474.820249 95.248718 474.667448 95.558974 474.515185 95.869231 474.363451 96.179487 474.212239 96.489744 474.061540 96.800000 473.911346 97.110256 473.761651 97.420513 473.612445 97.730769 473.463720 98.041026 473.315470 98.351282 473.167685 98.661538 473.020358 98.971795 472.873481 99.282051 472.727045 99.592308 472.581044 99.902564 472.435468 100.212821 472.290311 100.523077 472.145563 100.833333 472.001218 101.143590 471.857266 101.453846 471.713701 101.764103 471.570514 102.074359 471.427697 102.384615 471.285242 102.694872 471.143141 103.005128 471.001387 103.315385 470.859971 103.625641 470.718886 103.935897 470.578122 104.246154 470.437674 104.556410 470.297531 104.866667 470.157687 105.176923 470.018134 105.487179 469.878863 105.797436 469.739867 106.107692 469.601138 106.417949 469.462667 106.728205 469.324447 107.038462 469.186469 107.348718 469.048727 107.658974 468.911211 107.969231 468.773914 108.279487 468.636828 108.589744 468.499945 108.900000 468.363256 109.210256 468.226755 109.520513 468.090433 109.830769 467.954281 110.141026 467.818293 110.451282 467.682460 110.761538 467.546774 111.071795 467.411228 111.382051 467.275812 111.692308 467.140520 112.002564 467.005343 112.312821 466.870273 112.623077 466.735303 112.933333 466.600424 113.243590 466.465629 113.553846 466.330909 113.864103 466.196256 114.174359 466.061664 114.484615 465.927122 114.794872 465.792624 115.105128 465.658162 115.415385 465.523728 115.725641 465.389313 116.035897 465.254910 116.346154 465.120511 116.656410 464.986108 116.966667 464.851692 117.276923 464.717256 117.587179 464.582793 117.897436 464.448293 118.207692 464.313749 118.517949 464.179153 118.828205 464.044498 119.138462 463.909774 119.448718 463.774974 119.758974 463.640091 120.069231 463.505116 120.379487 463.370041 120.689744 463.234858 121.000000 463.099560 121.310256 462.964138 121.620513 462.828584 121.930769 462.692891 122.241026 462.557050 122.551282 462.421054 122.861538 462.284894 123.171795 462.148563 123.482051 462.012052 123.792308 461.875354 124.102564 461.738461 124.412821 461.601364 124.723077 461.464056 125.033333 461.326528 125.343590 461.188774 125.653846 461.050784 125.964103 460.912551 126.274359 460.774067 126.584615 460.635324 126.894872 460.496314 127.205128 460.357029 127.515385 460.217461 127.825641 460.077602 128.135897 459.937444 128.446154 459.796980 128.756410 459.656200 129.066667 459.515098 129.376923 459.373665 129.687179 459.231893 129.997436 459.089774 130.307692 458.947301 130.617949 458.804465 130.928205 458.661259 131.238462 458.517674 131.548718 458.373702 131.858974 458.229336 132.169231 458.084568 132.479487 457.939389 132.789744 457.793792 133.100000 457.647768 133.410256 457.501310 133.720513 457.354410 134.030769 457.207060 134.341026 457.059251 134.651282 456.910977 134.961538 456.762228 135.271795 456.612997 135.582051 456.463276 135.892308 456.313057 136.202564 456.162331 136.512821 456.011092 136.823077 455.859331 137.133333 455.707041 137.443590 455.554212 137.753846 455.400837 138.064103 455.246909 138.374359 455.092419 138.684615 454.937359 138.994872 454.781722 139.305128 454.625498 139.615385 454.468682 139.925641 454.311263 140.235897 454.153235 140.546154 453.994590 140.856410 453.835319 141.166667 453.675415 141.476923 453.514869 141.787179 453.353674 142.097436 453.191822 142.407692 453.029304 142.717949 452.866113 143.028205 452.702241 143.338462 452.537679 143.648718 452.372421 143.958974 452.206457 144.269231 452.039780 144.579487 451.872382 144.889744 451.704256 145.200000 451.535392 145.510256 451.365783 145.820513 451.195421 146.130769 451.024299 146.441026 450.852407 146.751282 450.679739 147.061538 450.506286 147.371795 450.332040 147.682051 450.156993 147.992308 449.981138 148.302564 449.804466 148.612821 449.626970 148.923077 449.448641 149.233333 449.269471 149.543590 449.089453 149.853846 448.908579 150.164103 448.726840 150.474359 448.544229 150.784615 448.360737 151.094872 448.176357 151.405128 447.991081 151.715385 447.804900 152.025641 447.617807 152.335897 447.429794 152.646154 447.240853 152.956410 447.050976 153.266667 446.860154 153.576923 446.668381 153.887179 446.475648 154.197436 446.281946 154.507692 446.087269 154.817949 445.891608 155.128205 445.694954 155.438462 445.497302 155.748718 445.298641 156.058974 445.098964 156.369231 444.898264 156.679487 444.696532 156.989744 444.493760 157.300000 444.289941 157.610256 444.085066 157.920513 443.879128 158.230769 443.672118 158.541026 443.464028 158.851282 443.254851 159.161538 443.044579 159.471795 442.833203 159.782051 442.620716 160.092308 442.407110 160.402564 442.192376 160.712821 441.976507 161.023077 441.759495 161.333333 441.541332 161.643590 441.322009 161.953846 441.101520 162.264103 440.879855 162.574359 440.657007 162.884615 440.432969 163.194872 440.207731 163.505128 439.981286 163.815385 439.753627 164.125641 439.524744 164.435897 439.294631 164.746154 439.063279 165.056410 438.830680 165.366667 438.596827 165.676923 438.361711 165.987179 438.125324 166.297436 437.887658 166.607692 437.648706 166.917949 437.408460 167.228205 437.166910 167.538462 436.924051 167.848718 436.679873 168.158974 436.434368 168.469231 436.187529 168.779487 435.939348 169.089744 435.689817 169.400000 435.438929 169.710256 435.186691 170.020513 434.933109 170.330769 434.678191 170.641026 434.421945 170.951282 434.164376 171.261538 433.905494 171.571795 433.645305 171.882051 433.383816 172.192308 433.121035 172.502564 432.856970 172.812821 432.591627 173.123077 432.325014 173.433333 432.057138 173.743590 431.788007 174.053846 431.517628 174.364103 431.246009 174.674359 430.973156 174.984615 430.699078 175.294872 430.423781 175.605128 430.147272 175.915385 429.869560 176.225641 429.590651 176.535897 429.310554 176.846154 429.029274 177.156410 428.746820 177.466667 428.463199 177.776923 428.178418 178.087179 427.892485 178.397436 427.605407 178.707692 427.317192 179.017949 427.027846 179.328205 426.737377 179.638462 426.445792 179.948718 426.153099 180.258974 425.859306 180.569231 425.564419 180.879487 425.268445 181.189744 424.971393 181.500000 424.673270 181.810256 424.374082 182.120513 424.073838 182.430769 423.772544 182.741026 423.470208 183.051282 423.166838 183.361538 422.862440 183.671795 422.557022 183.982051 422.250592 184.292308 421.943156 184.602564 421.634723 184.912821 421.325298 185.223077 421.014891 185.533333 420.703508 185.843590 420.391156 186.153846 420.077844 186.464103 419.763577 186.774359 419.448364 187.084615 419.132212 187.394872 418.815128 187.705128 418.497120 188.015385 418.178195 188.325641 417.858360 188.635897 417.537623 188.946154 417.215991 189.256410 416.893471 189.566667 416.570072 189.876923 416.245799 190.187179 415.920661 190.497436 415.594664 190.807692 415.267817 191.117949 414.940126 191.428205 414.611599 191.738462 414.282244 192.048718 413.952067 192.358974 413.621076 192.669231 413.289278 192.979487 412.956681 193.289744 412.623292 193.600000 412.289118 193.910256 411.954167 194.220513 411.618446 194.530769 411.281963 194.841026 410.944724 195.151282 410.606738 195.461538 410.268011 195.771795 409.928551 196.082051 409.588365 196.392308 409.247460 196.702564 408.905845 197.012821 408.563526 197.323077 408.220510 197.633333 407.876806 197.943590 407.532419 198.253846 407.187359 198.564103 406.841631 198.874359 406.495244 199.184615 406.148205 199.494872 405.800521 199.805128 405.452199 200.115385 405.103247 200.425641 404.753672 200.735897 404.403482 201.046154 404.052683 201.356410 403.701284 201.666667 403.349292 201.976923 402.996713 202.287179 402.643556 202.597436 402.289827 202.907692 401.935534 203.217949 401.580685 203.528205 401.225286 203.838462 400.869346 204.148718 400.512871 204.458974 400.155868 204.769231 399.798346 205.079487 399.440312 205.389744 399.081772 205.700000 398.722734 206.010256 398.363206 206.320513 398.003195 206.630769 397.642708 206.941026 397.281752 207.251282 396.920336 207.561538 396.558466 207.871795 396.196150 208.182051 395.833394 208.492308 395.470207 208.802564 395.106596 209.112821 394.742568 209.423077 394.378130 209.733333 394.013291 210.043590 393.648056 210.353846 393.282434 210.664103 392.916431 210.974359 392.550056 211.284615 392.183316 211.594872 391.816217 211.905128 391.448768 212.215385 391.080975 212.525641 390.712847 212.835897 390.344389 213.146154 389.975611 213.456410 389.606518 213.766667 389.237119 214.076923 388.867421 214.387179 388.497430 214.697436 388.127156 215.007692 387.756604 215.317949 387.385782 215.628205 387.014698 215.938462 386.643358 216.248718 386.271771 216.558974 385.899944 216.869231 385.527883 217.179487 385.155597 217.489744 384.783093 217.800000 384.410377 218.110256 384.037458 218.420513 383.664342 218.730769 383.291038 219.041026 382.917552 219.351282 382.543892 219.661538 382.170065 219.971795 381.796079 220.282051 381.421940 220.592308 381.047657 220.902564 380.673236 221.212821 380.298685 221.523077 379.924011 221.833333 379.549222 222.143590 379.174325 222.453846 378.799328 222.764103 378.424237 223.074359 378.049060 223.384615 377.673804 223.694872 377.298478 224.005128 376.923087 224.315385 376.547640 224.625641 376.172143 224.935897 375.796605 225.246154 375.421032 225.556410 375.045433 225.866667 374.669813 226.176923 374.294181 226.487179 373.918544 226.797436 373.542909 227.107692 373.167284 227.417949 372.791676 227.728205 372.416093 228.038462 372.040541 228.348718 371.665028 228.658974 371.289561 228.969231 370.914149 229.279487 370.538797 229.589744 370.163514 229.900000 369.788307 230.210256 369.413183 230.520513 369.038149 230.830769 368.663214 231.141026 368.288383 231.451282 367.913666 231.761538 367.539068 232.071795 367.164598 232.382051 366.790262 232.692308 366.416068 233.002564 366.042024 233.312821 365.668136 233.623077 365.294413 233.933333 364.920861 234.243590 364.547488 234.553846 364.174301 234.864103 363.801307 235.174359 363.428515 235.484615 363.055930 235.794872 362.683561 236.105128 362.311416 236.415385 361.939500 236.725641 361.567822 237.035897 361.196389 237.346154 360.825208 237.656410 360.454288 237.966667 360.083634 238.276923 359.713254 238.587179 359.343157 238.897436 358.973348 239.207692 358.603836 239.517949 358.234628 239.828205 357.865731 240.138462 357.497152 240.448718 357.128900 240.758974 356.760980 241.069231 356.393402 241.379487 356.026171 241.689744 355.659295 242.000000 355.292783 242.310256 354.926640 242.620513 354.560874 242.930769 354.195494 243.241026 353.830505 243.551282 353.465916 243.861538 353.101734 244.171795 352.737966 244.482051 352.374619 244.792308 352.011701 245.102564 351.649220 245.412821 351.287181 245.723077 350.925594 246.033333 350.564466 246.343590 350.203802 246.653846 349.843612 246.964103 349.483902 247.274359 349.124674 247.584615 348.765934 247.894872 348.407683 248.205128 348.049926 248.515385 347.692664 248.825641 347.335902 249.135897 346.979642 249.446154 346.623888 249.756410 346.268642 250.066667 345.913908 250.376923 345.559690 250.687179 345.205989 250.997436 344.852810 251.307692 344.500155 251.617949 344.148028 251.928205 343.796432 252.238462 343.445370 252.548718 343.094845 252.858974 342.744860 253.169231 342.395419 253.479487 342.046524 253.789744 341.698179 254.100000 341.350386 254.410256 341.003150 254.720513 340.656473 255.030769 340.310358 255.341026 339.964809 255.651282 339.619829 255.961538 339.275420 256.271795 338.931586 256.582051 338.588330 256.892308 338.245656 257.202564 337.903566 257.512821 337.562064 257.823077 337.221152 258.133333 336.880834 258.443590 336.541113 258.753846 336.201993 259.064103 335.863476 259.374359 335.525565 259.684615 335.188264 259.994872 334.851576 260.305128 334.515503 260.615385 334.180050 260.925641 333.845219 261.235897 333.511014 261.546154 333.177437 261.856410 332.844491 262.166667 332.512181 262.476923 332.180509 262.787179 331.849478 263.097436 331.519091 263.407692 331.189352 263.717949 330.860263 264.028205 330.531828 264.338462 330.204050 264.648718 329.876933 264.958974 329.550478 265.269231 329.224690 265.579487 328.899572 265.889744 328.575126 266.200000 328.251356 266.510256 327.928265 266.820513 327.605857 267.130769 327.284133 267.441026 326.963099 267.751282 326.642756 268.061538 326.323107 268.371795 326.004157 268.682051 325.685908 268.992308 325.368363 269.302564 325.051525 269.612821 324.735398 269.923077 324.419985 270.233333 324.105289 270.543590 323.791312 270.853846 323.478059 271.164103 323.165533 271.474359 322.853735 271.784615 322.542671 272.094872 322.232342 272.405128 321.922752 272.715385 321.613904 273.025641 321.305802 273.335897 320.998448 273.646154 320.691845 273.956410 320.385998 274.266667 320.080908 274.576923 319.776579 274.887179 319.473014 275.197436 319.170217 275.507692 318.868190 275.817949 318.566937 276.128205 318.266461 276.438462 317.966765 276.748718 317.667852 277.058974 317.369725 277.369231 317.072387 277.679487 316.775842 277.989744 316.480093 278.300000 316.185143 278.610256 315.890994 278.920513 315.597651 279.230769 315.305117 279.541026 315.013393 279.851282 314.722485 280.161538 314.432394 280.471795 314.143124 280.782051 313.854679 281.092308 313.567060 281.402564 313.280272 281.712821 312.994318 282.023077 312.709200 282.333333 312.424923 282.643590 312.141488 282.953846 311.858899 283.264103 311.577160 283.574359 311.296273 283.884615 311.016242 284.194872 310.737070 284.505128 310.458760 284.815385 310.181315 285.125641 309.904738 285.435897 309.629033 285.746154 309.354202 286.056410 309.080249 286.366667 308.807177 286.676923 308.534988 286.987179 308.263687 287.297436 307.993277 287.607692 307.723760 287.917949 307.455139 288.228205 307.187419 288.538462 306.920601 288.848718 306.654689 289.158974 306.389687 289.469231 306.125597 289.779487 305.862423 290.089744 305.600167 290.400000 305.338834 290.710256 305.078425 291.020513 304.818945 291.330769 304.560396 291.641026 304.302781 291.951282 304.046104 292.261538 303.790368 292.571795 303.535576 292.882051 303.281731 293.192308 303.028837 293.502564 302.776895 293.812821 302.525911 294.123077 302.275886 294.433333 302.026824 294.743590 301.778728 295.053846 301.531601 295.364103 301.285446 295.674359 301.040267 295.984615 300.796067 296.294872 300.552849 296.605128 300.310615 296.915385 300.069370 297.225641 299.829116 297.535897 299.589856 297.846154 299.351594 298.156410 299.114332 298.466667 298.878075 298.776923 298.642825 299.087179 298.408584 299.397436 298.175357 299.707692 297.943147 300.017949 297.711956 300.328205 297.481789 300.638462 297.252647 300.948718 297.024534 301.258974 296.797453 301.569231 296.571408 301.879487 296.346402 302.189744 296.122437 302.500000 295.899517 302.810256 295.677645 303.120513 295.456825 303.430769 295.237059 303.741026 295.018350 304.051282 294.800702 304.361538 294.584117 304.671795 294.368600 304.982051 294.154153 305.292308 293.940779 305.602564 293.728482 305.912821 293.517264 306.223077 293.307129 306.533333 293.098079 306.843590 292.890119 307.153846 292.683251 307.464103 292.477479 307.774359 292.272805 308.084615 292.069232 308.394872 291.866764 308.705128 291.665405 309.015385 291.465156 309.325641 291.266022 309.635897 291.068005 309.946154 290.871109 310.256410 290.675336 310.566667 290.480691 310.876923 290.287175 311.187179 290.094793 311.497436 289.903547 311.807692 289.713441 312.117949 289.524477 312.428205 289.336659 312.738462 289.149990 313.048718 288.964473 313.358974 288.780111 313.669231 288.596908 313.979487 288.414866 314.289744 288.233990 314.600000 288.054281 314.910256 287.875743 315.220513 287.698379 315.530769 287.522193 315.841026 287.347187 316.151282 287.173365 316.461538 287.000729 316.771795 286.829284 317.082051 286.659032 317.392308 286.489976 317.702564 286.322119 318.012821 286.155466 318.323077 285.990017 318.633333 285.825778 318.943590 285.662751 319.253846 285.500939 319.564103 285.340345 319.874359 285.180973 320.184615 285.022825 320.494872 284.865906 320.805128 284.710217 321.115385 284.555763 321.425641 284.402545 321.735897 284.250568 322.046154 284.099835 322.356410 283.950349 322.666667 283.802112 322.976923 283.655129 323.287179 283.509401 323.597436 283.364933 323.907692 283.221728 324.217949 283.079788 324.528205 282.939114 324.838462 282.799696 325.148718 282.661519 325.458974 282.524570 325.769231 282.388836 326.079487 282.254303 326.389744 282.120957 326.700000 281.988785 327.010256 281.857774 327.320513 281.727909 327.630769 281.599177 327.941026 281.471565 328.251282 281.345059 328.561538 281.219646 328.871795 281.095311 329.182051 280.972042 329.492308 280.849824 329.802564 280.728645 330.112821 280.608490 330.423077 280.489347 330.733333 280.371201 331.043590 280.254038 331.353846 280.137847 331.664103 280.022612 331.974359 279.908320 332.284615 279.794958 332.594872 279.682512 332.905128 279.570969 333.215385 279.460314 333.525641 279.350535 333.835897 279.241618 334.146154 279.133549 334.456410 279.026315 334.766667 278.919902 335.076923 278.814297 335.387179 278.709486 335.697436 278.605455 336.007692 278.502191 336.317949 278.399680 336.628205 278.297909 336.938462 278.196865 337.248718 278.096532 337.558974 277.996900 337.869231 277.897952 338.179487 277.799676 338.489744 277.702059 338.800000 277.605087 339.110256 277.508746 339.420513 277.413022 339.730769 277.317903 340.041026 277.223374 340.351282 277.129422 340.661538 277.036034 340.971795 276.943195 341.282051 276.850893 341.592308 276.759113 341.902564 276.667843 342.212821 276.577068 342.523077 276.486775 342.833333 276.396951 343.143590 276.307581 343.453846 276.218653 343.764103 276.130153 344.074359 276.042066 344.384615 275.954381 344.694872 275.867082 345.005128 275.780157 345.315385 275.693592 345.625641 275.607373 345.935897 275.521487 346.246154 275.435920 346.556410 275.350659 346.866667 275.265690 347.176923 275.181000 347.487179 275.096574 347.797436 275.012400 348.107692 274.928464 348.417949 274.844752 348.728205 274.761251 349.038462 274.677947 349.348718 274.594826 349.658974 274.511875 349.969231 274.429081 350.279487 274.346430 350.589744 274.263908 350.900000 274.181502 351.210256 274.099198 351.520513 274.016982 351.830769 273.934842 352.141026 273.852763 352.451282 273.770732 352.761538 273.688735 353.071795 273.606760 353.382051 273.524791 353.692308 273.442816 354.002564 273.360821 354.312821 273.278793 354.623077 273.196717 354.933333 273.114581 355.243590 273.032371 355.553846 272.950073 355.864103 272.867674 356.174359 272.785160 356.484615 272.702518 356.794872 272.619733 357.105128 272.536793 357.415385 272.453684 357.725641 272.370392 358.035897 272.286904 358.346154 272.203206 358.656410 272.119284 358.966667 272.035126 359.276923 271.950717 359.587179 271.866044 359.897436 271.781093 360.207692 271.695851 360.517949 271.610305 360.828205 271.524440 361.138462 271.438243 361.448718 271.351700 361.758974 271.264799 362.069231 271.177525 362.379487 271.089864 362.689744 271.001804 363.000000 270.913331 363.310256 270.824431 363.620513 270.735090 363.930769 270.645295 364.241026 270.555033 364.551282 270.464290 364.861538 270.373052 365.171795 270.281305 365.482051 270.189037 365.792308 270.096233 366.102564 270.002881 366.412821 269.908966 366.723077 269.814474 367.033333 269.719393 367.343590 269.623709 367.653846 269.527408 367.964103 269.430477 368.274359 269.332902 368.584615 269.234669 368.894872 269.135765 369.205128 269.036177 369.515385 268.935890 369.825641 268.834892 370.135897 268.733168 370.446154 268.630706 370.756410 268.527490 371.066667 268.423509 371.376923 268.318749 371.687179 268.213195 371.997436 268.106834 372.307692 267.999654 372.617949 267.891639 372.928205 267.782777 373.238462 267.673054 373.548718 267.562456 373.858974 267.450971 374.169231 267.338583 374.479487 267.225281 374.789744 267.111049 375.100000 266.995875 375.410256 266.879746 375.720513 266.762646 376.030769 266.644564 376.341026 266.525485 376.651282 266.405396 376.961538 266.284283 377.271795 266.162133 377.582051 266.038932 377.892308 265.914666 378.202564 265.789322 378.512821 265.662887 378.823077 265.535347 379.133333 265.406688 379.443590 265.276896 379.753846 265.145959 380.064103 265.013862 380.374359 264.880593 380.684615 264.746136 380.994872 264.610480 381.305128 264.473610 381.615385 264.335513 381.925641 264.196174 382.235897 264.055582 382.546154 263.913721 382.856410 263.770579 383.166667 263.626142 383.476923 263.480397 383.787179 263.333329 384.097436 263.184925 384.407692 263.035172 384.717949 262.884056 385.028205 262.731564 385.338462 262.577681 385.648718 262.422395 385.958974 262.265692 386.269231 262.107558 386.579487 261.947980 386.889744 261.786944 387.200000 261.624436 387.510256 261.460444 387.820513 261.294953 388.130769 261.127949 388.441026 260.959420 388.751282 260.789352 389.061538 260.617731 389.371795 260.444544 389.682051 260.269776 389.992308 260.093415 390.302564 259.915447 390.612821 259.735859 390.923077 259.554636 391.233333 259.371765 391.543590 259.187233 391.853846 259.001026 392.164103 258.813131 392.474359 258.623533 392.784615 258.432220 393.094872 258.239178 393.405128 258.044393 393.715385 257.847852 394.025641 257.649541 394.335897 257.449446 394.646154 257.247554 394.956410 257.043852 395.266667 256.838326 395.576923 256.630962 395.887179 256.421746 396.197436 256.210666 396.507692 255.997708 396.817949 255.782857 397.128205 255.566101 397.438462 255.347426 397.748718 255.126818 398.058974 254.904264 398.369231 254.679750 398.679487 254.453263 398.989744 254.224789 399.300000 253.994314 399.610256 253.761826 399.920513 253.527309 400.230769 253.290752 400.541026 253.052140 400.851282 252.811459 401.161538 252.568697 401.471795 252.323839 401.782051 252.076872 402.092308 251.827787 402.402564 251.576593 402.712821 251.323304 403.023077 251.067933 403.333333 250.810494 403.643590 250.551002 403.953846 250.289468 404.264103 250.025908 404.574359 249.760334 404.884615 249.492761 405.194872 249.223201 405.505128 248.951670 405.815385 248.678180 406.125641 248.402745 406.435897 248.125378 406.746154 247.846094 407.056410 247.564906 407.366667 247.281828 407.676923 246.996873 407.987179 246.710055 408.297436 246.421388 408.607692 246.130885 408.917949 245.838560 409.228205 245.544427 409.538462 245.248500 409.848718 244.950791 410.158974 244.651315 410.469231 244.350085 410.779487 244.047115 411.089744 243.742419 411.400000 243.436011 411.710256 243.127903 412.020513 242.818110 412.330769 242.506646 412.641026 242.193523 412.951282 241.878756 413.261538 241.562358 413.571795 241.244343 413.882051 240.924725 414.192308 240.603518 414.502564 240.280734 414.812821 239.956388 415.123077 239.630493 415.433333 239.303063 415.743590 238.974112 416.053846 238.643653 416.364103 238.311700 416.674359 237.978267 416.984615 237.643367 417.294872 237.307014 417.605128 236.969221 417.915385 236.630003 418.225641 236.289373 418.535897 235.947345 418.846154 235.603931 419.156410 235.259147 419.466667 234.913005 419.776923 234.565520 420.087179 234.216704 420.397436 233.866572 420.707692 233.515137 421.017949 233.162414 421.328205 232.808414 421.638462 232.453153 421.948718 232.096644 422.258974 231.738901 422.569231 231.379937 422.879487 231.019765 423.189744 230.658401 423.500000 230.295856 423.810256 229.932146 424.120513 229.567283 424.430769 229.201281 424.741026 228.834154 425.051282 228.465916 425.361538 228.096579 425.671795 227.726159 425.982051 227.354669 426.292308 226.982121 426.602564 226.608530 426.912821 226.233910 427.223077 225.858275 427.533333 225.481637 427.843590 225.104010 428.153846 224.725409 428.464103 224.345847 428.774359 223.965337 429.084615 223.583893 429.394872 223.201529 429.705128 222.818259 430.015385 222.434096 430.325641 222.049053 430.635897 221.663146 430.946154 221.276386 431.256410 220.888788 431.566667 220.500366 431.876923 220.111133 432.187179 219.721103 432.497436 219.330289 432.807692 218.938705 433.117949 218.546366 433.428205 218.153283 433.738462 217.759472 434.048718 217.364946 434.358974 216.969718 434.669231 216.573802 434.979487 216.177212 435.289744 215.779962 435.600000 215.382065 435.910256 214.983534 436.220513 214.584384 436.530769 214.184628 436.841026 213.784280 437.151282 213.383353 437.461538 212.981862 437.771795 212.579819 438.082051 212.177239 438.392308 211.774135 438.702564 211.370520 439.012821 210.966409 439.323077 210.561815 439.633333 210.156752 439.943590 209.751233 440.253846 209.345273 440.564103 208.938884 440.874359 208.532081 441.184615 208.124876 441.494872 207.717285 441.805128 207.309320 442.115385 206.900994 442.425641 206.492323 442.735897 206.083319 443.046154 205.673996 443.356410 205.264368 443.666667 204.854448 443.976923 204.444251 444.287179 204.033789 444.597436 203.623076 444.907692 203.212127 445.217949 202.800954 445.528205 202.389572 445.838462 201.977993 446.148718 201.566233 446.458974 201.154304 446.769231 200.742219 447.079487 200.329994 447.389744 199.917641 447.700000 199.505174 448.010256 199.092606 448.320513 198.679952 448.630769 198.267225 448.941026 197.854439 449.251282 197.441607 449.561538 197.028743 449.871795 196.615861 450.182051 196.202974 450.492308 195.790096 450.802564 195.377241 451.112821 194.964422 451.423077 194.551653 451.733333 194.138947 452.043590 193.726320 452.353846 193.313783 452.664103 192.901350 452.974359 192.489036 453.284615 192.076854 453.594872 191.664818 453.905128 191.252941 454.215385 190.841237 454.525641 190.429720 454.835897 190.018403 455.146154 189.607299 455.456410 189.196424 455.766667 188.785790 456.076923 188.375411 456.387179 187.965300 456.697436 187.555472 457.007692 187.145939 457.317949 186.736717 457.628205 186.327817 457.938462 185.919255 458.248718 185.511043 458.558974 185.103195 458.869231 184.695726 459.179487 184.288647 459.489744 183.881975 459.800000 183.475721 460.110256 183.069899 460.420513 182.664524 460.730769 182.259609 461.041026 181.855168 461.351282 181.451214 461.661538 181.047760 461.971795 180.644821 462.282051 180.242411 462.592308 179.840542 462.902564 179.439229 463.212821 179.038485 463.523077 178.638324 463.833333 178.238760 464.143590 177.839806 464.453846 177.441476 464.764103 177.043783 465.074359 176.646742 465.384615 176.250365 465.694872 175.854667 466.005128 175.459661 466.315385 175.065361 466.625641 174.671781 466.935897 174.278933 467.246154 173.886833 467.556410 173.495493 467.866667 173.104928 468.176923 172.715150 468.487179 172.326174 468.797436 171.938013 469.107692 171.550680 469.417949 171.164191 469.728205 170.778557 470.038462 170.393794 470.348718 170.009913 470.658974 169.626931 470.969231 169.244858 471.279487 168.863711 471.589744 168.483501 471.900000 168.104244 472.210256 167.725951 472.520513 167.348638 472.830769 166.972318 473.141026 166.597005 473.451282 166.222711 473.761538 165.849451 474.071795 165.477239 474.382051 165.106088 474.692308 164.736012 475.002564 164.367024 475.312821 163.999138 475.623077 163.632368 475.933333 163.266728 476.243590 162.902230 476.553846 162.538890 476.864103 162.176720 477.174359 161.815734 477.484615 161.455946 477.794872 161.097369 478.105128 160.740017 478.415385 160.383904 478.725641 160.029044 479.035897 159.675449 479.346154 159.323135 479.656410 158.972111 479.966667 158.622378 480.276923 158.273931 480.587179 157.926770 480.897436 157.580890 481.207692 157.236288 481.517949 156.892961 481.828205 156.550907 482.138462 156.210122 482.448718 155.870604 482.758974 155.532349 483.069231 155.195354 483.379487 154.859617 483.689744 154.525134 484.000000 154.191903 484.310256 153.859920 484.620513 153.529182 484.930769 153.199686 485.241026 152.871430 485.551282 152.544410 485.861538 152.218623 486.171795 151.894067 486.482051 151.570738 486.792308 151.248633 487.102564 150.927749 487.412821 150.608084 487.723077 150.289634 488.033333 149.972397 488.343590 149.656368 488.653846 149.341546 488.964103 149.027927 489.274359 148.715508 489.584615 148.404287 489.894872 148.094260 490.205128 147.785423 490.515385 147.477776 490.825641 147.171313 491.135897 146.866033 491.446154 146.561931 491.756410 146.259006 492.066667 145.957254 492.376923 145.656673 492.687179 145.357258 492.997436 145.059008 493.307692 144.761918 493.617949 144.465987 493.928205 144.171211 494.238462 143.877588 494.548718 143.585113 494.858974 143.293784 495.169231 143.003599 495.479487 142.714554 495.789744 142.426645 496.100000 142.139871 496.410256 141.854228 496.720513 141.569713 497.030769 141.286323 497.341026 141.004055 497.651282 140.722907 497.961538 140.442874 498.271795 140.163954 498.582051 139.886145 498.892308 139.609442 499.202564 139.333844 499.512821 139.059346 499.823077 138.785947 500.133333 138.513642 500.443590 138.242430 500.753846 137.972307 501.064103 137.703269 501.374359 137.435315 501.684615 137.168440 501.994872 136.902643 502.305128 136.637919 502.615385 136.374267 502.925641 136.111682 503.235897 135.850162 503.546154 135.589705 503.856410 135.330306 504.166667 135.071963 504.476923 134.814673 504.787179 134.558433 505.097436 134.303240 505.407692 134.049091 505.717949 133.795983 506.028205 133.543913 506.338462 133.292877 506.648718 133.042874 506.958974 132.793899 507.269231 132.545950 507.579487 132.299024 507.889744 132.053118 508.200000 131.808229 508.510256 131.564353 508.820513 131.321489 509.130769 131.079632 509.441026 130.838780 509.751282 130.598930 510.061538 130.360079 510.371795 130.122223 510.682051 129.885361 510.992308 129.649488 511.302564 129.414602 511.612821 129.180700 511.923077 128.947778 512.233333 128.715834 512.543590 128.484865 512.853846 128.254868 513.164103 128.025840 513.474359 127.797777 513.784615 127.570677 514.094872 127.344537 514.405128 127.119353 514.715385 126.895124 515.025641 126.671844 515.335897 126.449513 515.646154 126.228126 515.956410 126.007682 516.266667 125.788175 516.576923 125.569605 516.887179 125.351967 517.197436 125.135259 517.507692 124.919477 517.817949 124.704619 518.128205 124.490682 518.438462 124.277662 518.748718 124.065557 519.058974 123.854364 519.369231 123.644079 519.679487 123.434700 519.989744 123.226224 520.300000 123.018647 520.610256 122.811966 520.920513 122.606180 521.230769 122.401284 521.541026 122.197275 521.851282 121.994151 522.161538 121.791909 522.471795 121.590545 522.782051 121.390057 523.092308 121.190441 523.402564 120.991695 523.712821 120.793815 524.023077 120.596799 524.333333 120.400644 524.643590 120.205346 524.953846 120.010902 525.264103 119.817310 525.574359 119.624567 525.884615 119.432669 526.194872 119.241613 526.505128 119.051397 526.815385 118.862018 527.125641 118.673472 527.435897 118.485756 527.746154 118.298868 528.056410 118.112804 528.366667 117.927562 528.676923 117.743138 528.987179 117.559530 529.297436 117.376734 529.607692 117.194747 529.917949 117.013567 530.228205 116.833190 530.538462 116.653614 530.848718 116.474835 531.158974 116.296851 531.469231 116.119657 531.779487 115.943253 532.089744 115.767633 532.400000 115.592796 532.710256 115.418739 533.020513 115.245457 533.330769 115.072949 533.641026 114.901212 533.951282 114.730241 534.261538 114.560035 534.571795 114.390591 534.882051 114.221904 535.192308 114.053973 535.502564 113.886795 535.812821 113.720365 536.123077 113.554682 536.433333 113.389742 536.743590 113.225542 537.053846 113.062080 537.364103 112.899352 537.674359 112.737355 537.984615 112.576087 538.294872 112.415543 538.605128 112.255722 538.915385 112.096621 539.225641 111.938235 539.535897 111.780563 539.846154 111.623600 540.156410 111.467345 540.466667 111.311795 540.776923 111.156945 541.087179 111.002794 541.397436 110.849337 541.707692 110.696573 542.017949 110.544499 542.328205 110.393110 542.638462 110.242404 542.948718 110.092379 543.258974 109.943031 543.569231 109.794357 543.879487 109.646354 544.189744 109.499019 544.500000 109.352349 544.810256 109.206341 545.120513 109.060993 545.430769 108.916300 545.741026 108.772261 546.051282 108.628872 546.361538 108.486130 546.671795 108.344032 546.982051 108.202575 547.292308 108.061756 547.602564 107.921572 547.912821 107.782020 548.223077 107.643097 548.533333 107.504801 548.843590 107.367127 549.153846 107.230073 549.464103 107.093636 549.774359 106.957814 550.084615 106.822602 550.394872 106.687999 550.705128 106.554000 551.015385 106.420603 551.325641 106.287806 551.635897 106.155604 551.946154 106.023995 552.256410 105.892976 552.566667 105.762545 552.876923 105.632697 553.187179 105.503430 553.497436 105.374741 553.807692 105.246627 554.117949 105.119085 554.428205 104.992111 554.738462 104.865704 555.048718 104.739860 555.358974 104.614575 555.669231 104.489848 555.979487 104.365674 556.289744 104.242051 556.600000 104.118976 556.910256 103.996446 557.220513 103.874457 557.530769 103.753004 557.841026 103.632081 558.151282 103.511682 558.461538 103.391800 558.771795 103.272430 559.082051 103.153565 559.392308 103.035200 559.702564 102.917328 560.012821 102.799944 560.323077 102.683041 560.633333 102.566613 560.943590 102.450655 561.253846 102.335159 561.564103 102.220121 561.874359 102.105534 562.184615 101.991392 562.494872 101.877689 562.805128 101.764419 563.115385 101.651576 563.425641 101.539153 563.735897 101.427145 564.046154 101.315546 564.356410 101.204350 564.666667 101.093550 564.976923 100.983141 565.287179 100.873116 565.597436 100.763470 565.907692 100.654196 566.217949 100.545288 566.528205 100.436741 566.838462 100.328548 567.148718 100.220703 567.458974 100.113200 567.769231 100.006034 568.079487 99.899197 568.389744 99.792684 568.700000 99.686490 569.010256 99.580607 569.320513 99.475030 569.630769 99.369752 569.941026 99.264769 570.251282 99.160073 570.561538 99.055659 570.871795 98.951520 571.182051 98.847651 571.492308 98.744045 571.802564 98.640696 572.112821 98.537599 572.423077 98.434747 572.733333 98.332135 573.043590 98.229755 573.353846 98.127603 573.664103 98.025672 573.974359 97.923956 574.284615 97.822449 574.594872 97.721144 574.905128 97.620037 575.215385 97.519120 575.525641 97.418388 575.835897 97.317835 576.146154 97.217455 576.456410 97.117241 576.766667 97.017188 577.076923 96.917289 577.387179 96.817539 577.697436 96.717931 578.007692 96.618459 578.317949 96.519118 578.628205 96.419901 578.938462 96.320802 579.248718 96.221815 579.558974 96.122934 579.869231 96.024154 580.179487 95.925467 580.489744 95.826868 580.800000 95.728351 581.110256 95.629910 581.420513 95.531539 581.730769 95.433231 582.041026 95.334981 582.351282 95.236783 582.661538 95.138630 582.971795 95.040517 583.282051 94.942437 583.592308 94.844385 583.902564 94.746354 584.212821 94.648338 584.523077 94.550331 584.833333 94.452328 585.143590 94.354322 585.453846 94.256307 585.764103 94.158276 586.074359 94.060225 586.384615 93.962147 586.694872 93.864036 587.005128 93.765885 587.315385 93.667689 587.625641 93.569442 587.935897 93.471138 588.246154 93.372770 588.556410 93.274333 588.866667 93.175820 589.176923 93.077226 589.487179 92.978544 589.797436 92.879769 590.107692 92.780893 590.417949 92.681912 590.728205 92.582820 591.038462 92.483609 591.348718 92.384274 591.658974 92.284810 591.969231 92.185209 592.279487 92.085466 592.589744 91.985576 592.900000 91.885531 593.210256 91.785326 593.520513 91.684954 593.830769 91.584410 594.141026 91.483688 594.451282 91.382781 594.761538 91.281684 595.071795 91.180391 595.382051 91.078894 595.692308 90.977189 596.002564 90.875270 596.312821 90.773129 596.623077 90.670762 596.933333 90.568162 597.243590 90.465323 597.553846 90.362239 597.864103 90.258904 598.174359 90.155312 598.484615 90.051457 598.794872 89.947333 599.105128 89.842933 599.415385 89.738252 599.725641 89.633284 600.035897 89.528022 600.346154 89.422461 600.656410 89.316595 600.966667 89.210417 601.276923 89.103921 601.587179 88.997102 601.897436 88.889953 602.207692 88.782468 602.517949 88.674641 602.828205 88.566467 603.138462 88.457939 603.448718 88.349050 603.758974 88.239796 604.069231 88.130170 604.379487 88.020165 604.689744 87.909776 605.000000 87.798997 605.310256 87.687822 605.620513 87.576245 605.930769 87.464259 606.241026 87.351858 606.551282 87.239037 606.861538 87.125790 607.171795 87.012110 607.482051 86.897991 607.792308 86.783428 608.102564 86.668414 608.412821 86.552943 608.723077 86.437009 609.033333 86.320606 609.343590 86.203729 609.653846 86.086370 609.964103 85.968524 610.274359 85.850186 610.584615 85.731348 610.894872 85.612004 611.205128 85.492150 611.515385 85.371778 611.825641 85.250883 612.135897 85.129458 612.446154 85.007498 612.756410 84.884996 613.066667 84.761947 613.376923 84.638344 613.687179 84.514181 613.997436 84.389453 614.307692 84.264152 614.617949 84.138274 614.928205 84.011812 615.238462 83.884760 615.548718 83.757112 615.858974 83.628862 616.169231 83.500004 616.479487 83.370532 616.789744 83.240439 617.100000 83.109721 617.410256 82.978369 617.720513 82.846380 618.030769 82.713746 618.341026 82.580461 618.651282 82.446520 618.961538 82.311917 619.271795 82.176645 619.582051 82.040698 619.892308 81.904070 620.202564 81.766755 620.512821 81.628748 620.823077 81.490042 621.133333 81.350631 621.443590 81.210508 621.753846 81.069669 622.064103 80.928107 622.374359 80.785815 622.684615 80.642788 622.994872 80.499020 623.305128 80.354505 623.615385 80.209236 623.925641 80.063208 624.235897 79.916414 624.546154 79.768849 624.856410 79.620506 625.166667 79.471379 625.476923 79.321463 625.787179 79.170751 626.097436 79.019238 626.407692 78.866916 626.717949 78.713780 627.028205 78.559825 627.338462 78.405044 627.648718 78.249430 627.958974 78.092978 628.269231 77.935683 628.579487 77.777537 628.889744 77.618534 629.200000 77.458670 629.510256 77.297937 629.820513 77.136329 630.130769 76.973841 630.441026 76.810467 630.751282 76.646200 631.061538 76.481034 631.371795 76.314964 631.682051 76.147982 631.992308 75.980084 632.302564 75.811264 632.612821 75.641514 632.923077 75.470829 633.233333 75.299204 633.543590 75.126631 633.853846 74.953105 634.164103 74.778620 634.474359 74.603170 634.784615 74.426750 635.094872 74.249363 635.405128 74.071012 635.715385 73.891702 636.025641 73.711436 636.335897 73.530218 636.646154 73.348052 636.956410 73.164942 637.266667 72.980892 637.576923 72.795905 637.887179 72.609986 638.197436 72.423139 638.507692 72.235367 638.817949 72.046674 639.128205 71.857064 639.438462 71.666542 639.748718 71.475110 640.058974 71.282773 640.369231 71.089534 640.679487 70.895398 640.989744 70.700369 641.300000 70.504450 641.610256 70.307645 641.920513 70.109958 642.230769 69.911393 642.541026 69.711954 642.851282 69.511645 643.161538 69.310469 643.471795 69.108431 643.782051 68.905535 644.092308 68.701783 644.402564 68.497181 644.712821 68.291732 645.023077 68.085439 645.333333 67.878308 645.643590 67.670341 645.953846 67.461543 646.264103 67.251917 646.574359 67.041468 646.884615 66.830199 647.194872 66.618114 647.505128 66.405217 647.815385 66.191512 648.125641 65.977003 648.435897 65.761693 648.746154 65.545587 649.056410 65.328688 649.366667 65.111001 649.676923 64.892529 649.987179 64.673276 650.297436 64.453246 650.607692 64.232443 650.917949 64.010871 651.228205 63.788533 651.538462 63.565434 651.848718 63.341577 652.158974 63.116966 652.469231 62.891606 652.779487 62.665500 653.089744 62.438652 653.400000 62.211065 653.710256 61.982744 654.020513 61.753693 654.330769 61.523916 654.641026 61.293415 654.951282 61.062196 655.261538 60.830262 655.571795 60.597617 655.882051 60.364266 656.192308 60.130210 656.502564 59.895456 656.812821 59.660006 657.123077 59.423865 657.433333 59.187036 657.743590 58.949523 658.053846 58.711330 658.364103 58.472461 658.674359 58.232920 658.984615 57.992711 659.294872 57.751838 659.605128 57.510304 659.915385 57.268113 660.225641 57.025270 660.535897 56.781778 660.846154 56.537641 661.156410 56.292863 661.466667 56.047448 661.776923 55.801399 662.087179 55.554722 662.397436 55.307418 662.707692 55.059493 663.017949 54.810951 663.328205 54.561794 663.638462 54.312028 663.948718 54.061655 664.258974 53.810681 664.569231 53.559108 664.879487 53.306940 665.189744 53.054182 665.500000 52.800838 665.810256 52.546910 666.120513 52.292404 666.430769 52.037323 666.741026 51.781670 667.051282 51.525451 667.361538 51.268668 667.671795 51.011325 667.982051 50.753427 668.292308 50.494978 668.602564 50.235980 668.912821 49.976439 669.223077 49.716358 669.533333 49.455740 669.843590 49.194590 670.153846 48.932912 670.464103 48.670710 670.774359 48.407987 671.084615 48.144747 671.394872 47.880994 671.705128 47.616732 672.015385 47.351965 672.325641 47.086697 672.635897 46.820932 672.946154 46.554673 673.256410 46.287925 673.566667 46.020691 673.876923 45.752976 674.187179 45.484782 674.497436 45.216115 674.807692 44.946978 675.117949 44.677374 675.428205 44.407308 675.738462 44.136783 676.048718 43.865804 676.358974 43.594375 676.669231 43.322498 676.979487 43.050179 677.289744 42.777420 677.600000 42.504227 677.910256 42.230602 678.220513 41.956550 678.530769 41.682074 678.841026 41.407179 679.151282 41.131868 679.461538 40.856145 679.771795 40.580015 680.082051 40.303480 680.392308 40.026545 680.702564 39.749214 681.012821 39.471490 681.323077 39.193378 681.633333 38.914882 681.943590 38.636004 682.253846 38.356750 682.564103 38.077123 682.874359 37.797126 683.184615 37.516765 683.494872 37.236042 683.805128 36.954962 684.115385 36.673528 684.425641 36.391745 684.735897 36.109615 685.046154 35.827144 685.356410 35.544335 685.666667 35.261192 685.976923 34.977718 686.287179 34.693918 686.597436 34.409796 686.907692 34.125355 687.217949 33.840600 687.528205 33.555533 687.838462 33.270160 688.148718 32.984484 688.458974 32.698508 688.769231 32.412238 689.079487 32.125675 689.389744 31.838826 689.700000 31.551693 690.010256 31.264280 690.320513 30.976591 690.630769 30.688630 690.941026 30.400401 691.251282 30.111908 691.561538 29.823155 691.871795 29.534145 692.182051 29.244883 692.492308 28.955372 692.802564 28.665616 693.112821 28.375620 693.423077 28.085386 693.733333 27.794920 694.043590 27.504224 694.353846 27.213302 694.664103 26.922160 694.974359 26.630800 695.284615 26.339226 695.594872 26.047442 695.905128 25.755452 696.215385 25.463261 696.525641 25.170871 696.835897 24.878287 697.146154 24.585513 697.456410 24.292552 697.766667 23.999408 698.076923 23.706086 698.387179 23.412589 698.697436 23.118921 699.007692 22.825086 699.317949 22.531088 699.628205 22.236930 699.938462 21.942618 700.248718 21.648153 700.558974 21.353541 700.869231 21.058785 701.179487 20.763890 701.489744 20.468858 701.800000 20.173694 702.110256 19.878402 702.420513 19.582986 702.730769 19.287449 703.041026 18.991796 703.351282 18.696030 703.661538 18.400156 703.971795 18.104176 704.282051 17.808095 704.592308 17.511918 704.902564 17.215647 705.212821 16.919286 705.523077 16.622841 705.833333 16.326313 706.143590 16.029708 706.453846 15.733029 706.764103 15.436280 707.074359 15.139466 707.384615 14.842589 707.694872 14.545653 708.005128 14.248663 708.315385 13.951623 708.625641 13.654536 708.935897 13.357407 709.246154 13.060238 709.556410 12.763035 709.866667 12.465801 710.176923 12.168539 710.487179 11.871254 710.797436 11.573950 711.107692 11.276630 711.417949 10.979298 711.728205 10.681959 712.038462 10.384615 712.038462 540.000000" /></g></g><g class="titles" /><g class="plot overlay" transform="translate(54, 20)"><g class="series serie-0 color-0"><g class="dots"><circle class="dot reactive tooltip-trigger" cx="13.96153846153846" cy="529.6153846153846" r="2.5" /><desc class="value">198,468,101(kWh)</desc><desc class="x top">13.96153846153846</desc><desc class="y top">529.6153846153846</desc><desc class="x_label">2549</desc></g><g class="dots"><circle class="dot reactive tooltip-trigger" cx="91.52564102564101" cy="476.5388088362928" r="2.5" /><desc class="value">212,130,858(kWh)</desc><desc class="x top">91.52564102564101</desc><desc class="y top">476.5388088362928</desc><desc class="x_label">2550</desc></g><g class="dots"><circle class="dot reactive tooltip-trigger" cx="169.08974358974356" cy="435.68981662674514" r="2.5" /><desc class="value">222,646,040(kWh)</desc><desc class="x top">169.08974358974356</desc><desc class="y top">435.68981662674514</desc><desc class="x_label">2551</desc></g><g class="dots"><circle class="dot reactive tooltip-trigger" cx="246.65384615384613" cy="349.84361212327906" r="2.5" /><desc class="value">244,744,222(kWh)</desc><desc class="x top">246.65384615384613</desc><desc class="y top">349.84361212327906</desc><desc class="x_label">2552</desc></g><g class="dots"><circle class="dot reactive tooltip-trigger" cx="324.21794871794873" cy="283.07978796030045" r="2.5" /><desc class="value">261,930,295(kWh)</desc><desc class="x top">324.21794871794873</desc><desc class="y top">283.07978796030045</desc><desc class="x_label">2553</desc></g><g class="dots"><circle class="dot reactive tooltip-trigger" cx="401.78205128205127" cy="252.07687184984553" r="2.5" /><desc class="value">269,910,940(kWh)</desc><desc class="x left">401.78205128205127</desc><desc class="y left">252.07687184984553</desc><desc class="x_label">2554</desc></g><g class="dots"><circle class="dot reactive tooltip-trigger" cx="479.3461538461538" cy="159.32313491482222" r="2.5" /><desc class="value">293,787,231(kWh)</desc><desc class="x left">479.3461538461538</desc><desc class="y left">159.32313491482222</desc><desc class="x_label">2555</desc></g><g class="dots"><circle class="dot reactive tooltip-trigger" cx="556.9102564102565" cy="103.99644601142563" r="2.5" /><desc class="value">308,029,203(kWh)</desc><desc class="x left">556.9102564102565</desc><desc class="y left">103.99644601142563</desc><desc class="x_label">2556</desc></g><g class="dots"><circle class="dot reactive tooltip-trigger" cx="634.474358974359" cy="74.60316988390679" r="2.5" /><desc class="value">315,595,501(kWh)</desc><desc class="x left">634.474358974359</desc><desc class="y left">74.60316988390679</desc><desc class="x_label">2557</desc></g><g class="dots"><circle class="dot reactive tooltip-trigger" cx="712.0384615384615" cy="10.384615384615472" r="2.5" /><desc class="value">332,126,381(kWh)</desc><desc class="x left">712.0384615384615</desc><desc class="y left">10.384615384615472</desc><desc class="x_label">2558</desc></g></g></g><g class="plot text-overlay" transform="translate(54, 20)"><g class="series serie-0 color-0" /></g><g class="plot tooltip-overlay" transform="translate(54, 20)"><g class="tooltip" style="opacity: 0" transform="translate(0 0)"><rect class="tooltip-box" height="0" rx="0" ry="0" width="0" /><g class="text" /></g></g></g></svg>