<?xml version='1.0' encoding='utf-8'?>
<svg xmlns:xlink="http://www.w3.org/1999/xlink" class="pygal-chart" id="chart-21c8ade4-3c96-4f67-92fa-6e937fb9862e" viewBox="0 0 800 600" xmlns="http://www.w3.org/2000/svg"><!--Generated with pygal 2.3.0 (etree) ©Kozea 2012-2016 on 2016-12-08--><!--http://pygal.org--><!--http://github.com/Kozea/pygal--><defs><style type="text/css">#chart-21c8ade4-3c96-4f67-92fa-6e937fb9862e{-webkit-user-select:none;-webkit-font-smoothing:antialiased;font-family:Consolas,"Liberation Mono",Menlo,Courier,monospace}#chart-21c8ade4-3c96-4f67-92fa-6e937fb9862e .title{font-family:Consolas,"Liberation Mono",Menlo,Courier,monospace;font-size:16px}#chart-21c8ade4-3c96-4f67-92fa-6e937fb9862e .legends .legend text{font-family:Consolas,"Liberation Mono",Menlo,Courier,monospace;font-size:14px}#chart-21c8ade4-3c96-4f67-92fa-6e937fb9862e .axis text{font-family:Consolas,"Liberation Mono",Menlo,Courier,monospace;font-size:10px}#chart-21c8ade4-3c96-4f67-92fa-6e937fb9862e .axis text.major{font-family:Consolas,"Liberation Mono",Menlo,Courier,monospace;font-size:10px}#chart-21c8ade4-3c96-4f67-92fa-6e937fb9862e .text-overlay text.value{font-family:Consolas,"Liberation Mono",Menlo,Courier,monospace;font-size:16px}#chart-21c8ade4-3c96-4f67-92fa-6e937fb9862e .text-overlay text.label{font-family:Consolas,"Liberation Mono",Menlo,Courier,monospace;font-size:10px}#chart-21c8ade4-3c96-4f67-92fa-6e937fb9862e .tooltip{font-family:Consolas,"Liberation Mono",Menlo,Courier,monospace;font-size:14px}#chart-21c8ade4-3c96-4f67-92fa-6e937fb9862e text.no_data{font-family:Consolas,"Liberation Mono",Menlo,Courier,monospace;font-size:64px}
#chart-21c8ade4-3c96-4f67-92fa-6e937fb9862e{background-color:rgba(249,249,249,1)}#chart-21c8ade4-3c96-4f67-92fa-6e937fb9862e path,#chart-21c8ade4-3c96-4f67-92fa-6e937fb9862e line,#chart-21c8ade4-3c96-4f67-92fa-6e937fb9862e rect,#chart-21c8ade4-3c96-4f67-92fa-6e937fb9862e circle{-webkit-transition:150ms;-moz-transition:150ms;transition:150ms}#chart-21c8ade4-3c96-4f67-92fa-6e937fb9862e .graph &gt; .background{fill:rgba(249,249,249,1)}#chart-21c8ade4-3c96-4f67-92fa-6e937fb9862e .plot &gt; .background{fill:rgba(255,255,255,1)}#chart-21c8ade4-3c96-4f67-92fa-6e937fb9862e .graph{fill:rgba(0,0,0,.87)}#chart-21c8ade4-3c96-4f67-92fa-6e937fb9862e text.no_data{fill:rgba(0,0,0,1)}#chart-21c8ade4-3c96-4f67-92fa-6e937fb9862e .title{fill:rgba(0,0,0,1)}#chart-21c8ade4-3c96-4f67-92fa-6e937fb9862e .legends .legend text{fill:rgba(0,0,0,.87)}#chart-21c8ade4-3c96-4f67-92fa-6e937fb9862e .legends .legend:hover text{fill:rgba(0,0,0,1)}#chart-21c8ade4-3c96-4f67-92fa-6e937fb9862e .axis .line{stroke:rgba(0,0,0,1)}#chart-21c8ade4-3c96-4f67-92fa-6e937fb9862e .axis .guide.line{stroke:rgba(0,0,0,.54)}#chart-21c8ade4-3c96-4f67-92fa-6e937fb9862e .axis .major.line{stroke:rgba(0,0,0,.87)}#chart-21c8ade4-3c96-4f67-92fa-6e937fb9862e .axis text.major{fill:rgba(0,0,0,1)}#chart-21c8ade4-3c96-4f67-92fa-6e937fb9862e .axis.y .guides:hover .guide.line,#chart-21c8ade4-3c96-4f67-92fa-6e937fb9862e .line-graph .axis.x .guides:hover .guide.line,#chart-21c8ade4-3c96-4f67-92fa-6e937fb9862e .stackedline-graph .axis.x .guides:hover .guide.line,#chart-21c8ade4-3c96-4f67-92fa-6e937fb9862e .xy-graph .axis.x .guides:hover .guide.line{stroke:rgba(0,0,0,1)}#chart-21c8ade4-3c96-4f67-92fa-6e937fb9862e .axis .guides:hover text{fill:rgba(0,0,0,1)}#chart-21c8ade4-3c96-4f67-92fa-6e937fb9862e .reactive{fill-opacity:.7;stroke-opacity:.8}#chart-21c8ade4-3c96-4f67-92fa-6e937fb9862e .ci{stroke:rgba(0,0,0,.87)}#chart-21c8ade4-3c96-4f67-92fa-6e937fb9862e .reactive.active,#chart-21c8ade4-3c96-4f67-92fa-6e937fb9862e .active .reactive{fill-opacity:.8;stroke-opacity:.9;stroke-width:4}#chart-21c8ade4-3c96-4f67-92fa-6e937fb9862e .ci .reactive.active{stroke-width:1.5}#chart-21c8ade4-3c96-4f67-92fa-6e937fb9862e .series text{fill:rgba(0,0,0,1)}#chart-21c8ade4-3c96-4f67-92fa-6e937fb9862e .tooltip rect{fill:rgba(255,255,255,1);stroke:rgba(0,0,0,1);-webkit-transition:opacity 150ms;-moz-transition:opacity 150ms;transition:opacity 150ms}#chart-21c8ade4-3c96-4f67-92fa-6e937fb9862e .tooltip .label{fill:rgba(0,0,0,.87)}#chart-21c8ade4-3c96-4f67-92fa-6e937fb9862e .tooltip .label{fill:rgba(0,0,0,.87)}#chart-21c8ade4-3c96-4f67-92fa-6e937fb9862e .tooltip .legend{font-size:.8em;fill:rgba(0,0,0,.54)}#chart-21c8ade4-3c96-4f67-92fa-6e937fb9862e .tooltip .x_label{font-size:.6em;fill:rgba(0,0,0,1)}#chart-21c8ade4-3c96-4f67-92fa-6e937fb9862e .tooltip .xlink{font-size:.5em;text-decoration:underline}#chart-21c8ade4-3c96-4f67-92fa-6e937fb9862e .tooltip .value{font-size:1.5em}#chart-21c8ade4-3c96-4f67-92fa-6e937fb9862e .bound{font-size:.5em}#chart-21c8ade4-3c96-4f67-92fa-6e937fb9862e .max-value{font-size:.75em;fill:rgba(0,0,0,.54)}#chart-21c8ade4-3c96-4f67-92fa-6e937fb9862e .map-element{fill:rgba(255,255,255,1);stroke:rgba(0,0,0,.54) !important}#chart-21c8ade4-3c96-4f67-92fa-6e937fb9862e .map-element .reactive{fill-opacity:inherit;stroke-opacity:inherit}#chart-21c8ade4-3c96-4f67-92fa-6e937fb9862e .color-0,#chart-21c8ade4-3c96-4f67-92fa-6e937fb9862e .color-0 a:visited{stroke:#e86fa0;fill:#e86fa0}#chart-21c8ade4-3c96-4f67-92fa-6e937fb9862e .text-overlay .color-0 text{fill:black}
#chart-21c8ade4-3c96-4f67-92fa-6e937fb9862e text.no_data{text-anchor:middle}#chart-21c8ade4-3c96-4f67-92fa-6e937fb9862e .guide.line{fill:none}#chart-21c8ade4-3c96-4f67-92fa-6e937fb9862e .centered{text-anchor:middle}#chart-21c8ade4-3c96-4f67-92fa-6e937fb9862e .title{text-anchor:middle}#chart-21c8ade4-3c96-4f67-92fa-6e937fb9862e .legends .legend text{fill-opacity:1}#chart-21c8ade4-3c96-4f67-92fa-6e937fb9862e .axis.x text{text-anchor:middle}#chart-21c8ade4-3c96-4f67-92fa-6e937fb9862e .axis.x:not(.web) text[transform]{text-anchor:start}#chart-21c8ade4-3c96-4f67-92fa-6e937fb9862e .axis.x:not(.web) text[transform].backwards{text-anchor:end}#chart-21c8ade4-3c96-4f67-92fa-6e937fb9862e .axis.y text{text-anchor:end}#chart-21c8ade4-3c96-4f67-92fa-6e937fb9862e .axis.y text[transform].backwards{text-anchor:start}#chart-21c8ade4-3c96-4f67-92fa-6e937fb9862e .axis.y2 text{text-anchor:start}#chart-21c8ade4-3c96-4f67-92fa-6e937fb9862e .axis.y2 text[transform].backwards{text-anchor:end}#chart-21c8ade4-3c96-4f67-92fa-6e937fb9862e .axis .guide.line{stroke-dasharray:4,4}#chart-21c8ade4-3c96-4f67-92fa-6e937fb9862e .axis .major.guide.line{stroke-dasharray:6,6}#chart-21c8ade4-3c96-4f67-92fa-6e937fb9862e .horizontal .axis.y .guide.line,#chart-21c8ade4-3c96-4f67-92fa-6e937fb9862e .horizontal .axis.y2 .guide.line,#chart-21c8ade4-3c96-4f67-92fa-6e937fb9862e .vertical .axis.x .guide.line{opacity:0}#chart-21c8ade4-3c96-4f67-92fa-6e937fb9862e .horizontal .axis.always_show .guide.line,#chart-21c8ade4-3c96-4f67-92fa-6e937fb9862e .vertical .axis.always_show .guide.line{opacity:1 !important}#chart-21c8ade4-3c96-4f67-92fa-6e937fb9862e .axis.y .guides:hover .guide.line,#chart-21c8ade4-3c96-4f67-92fa-6e937fb9862e .axis.y2 .guides:hover .guide.line,#chart-21c8ade4-3c96-4f67-92fa-6e937fb9862e .axis.x .guides:hover .guide.line{opacity:1}#chart-21c8ade4-3c96-4f67-92fa-6e937fb9862e .axis .guides:hover text{opacity:1}#chart-21c8ade4-3c96-4f67-92fa-6e937fb9862e .nofill{fill:none}#chart-21c8ade4-3c96-4f67-92fa-6e937fb9862e .subtle-fill{fill-opacity:.2}#chart-21c8ade4-3c96-4f67-92fa-6e937fb9862e .dot{stroke-width:1px;fill-opacity:1}#chart-21c8ade4-3c96-4f67-92fa-6e937fb9862e .dot.active{stroke-width:5px}#chart-21c8ade4-3c96-4f67-92fa-6e937fb9862e .dot.negative{fill:transparent}#chart-21c8ade4-3c96-4f67-92fa-6e937fb9862e text,#chart-21c8ade4-3c96-4f67-92fa-6e937fb9862e tspan{stroke:none !important}#chart-21c8ade4-3c96-4f67-92fa-6e937fb9862e .series text.active{opacity:1}#chart-21c8ade4-3c96-4f67-92fa-6e937fb9862e .tooltip rect{fill-opacity:.95;stroke-width:.5}#chart-21c8ade4-3c96-4f67-92fa-6e937fb9862e .tooltip text{fill-opacity:1}#chart-21c8ade4-3c96-4f67-92fa-6e937fb9862e .showable{visibility:hidden}#chart-21c8ade4-3c96-4f67-92fa-6e937fb9862e .showable.shown{visibility:visible}#chart-21c8ade4-3c96-4f67-92fa-6e937fb9862e .gauge-background{fill:rgba(229,229,229,1);stroke:none}#chart-21c8ade4-3c96-4f67-92fa-6e937fb9862e .bg-lines{stroke:rgba(249,249,249,1);stroke-width:2px}</style><script type="text/javascript">window.pygal = window.pygal || {};window.pygal.config = window.pygal.config || {};window.pygal.config['21c8ade4-3c96-4f67-92fa-6e937fb9862e'] = {"no_data_text": "No data", "no_prefix": false, "xrange": null, "print_values_position": "center", "truncate_label": null, "x_labels": ["2549", "2550", "2551", "2552", "2553", "2554", "2555", "2556", "2557", "2558"], "title": null, "force_uri_protocol": "https", "defs": [], "formatter": null, "classes": ["pygal-chart"], "y_labels": null, "rounded_bars": null, "explicit_size": false, "x_labels_major_every": null, "legend_at_bottom_columns": null, "stroke_style": null, "half_pie": false, "spacing": 10, "tooltip_fancy_mode": true, "inverse_y_axis": false, "width": 800, "inner_radius": 0, "interpolation_parameters": {}, "tooltip_border_radius": 0, "style": {"no_data_font_family": "Consolas, \"Liberation Mono\", Menlo, Courier, monospace", "tooltip_font_size": 14, "tooltip_font_family": "Consolas, \"Liberation Mono\", Menlo, Courier, monospace", "stroke_opacity_hover": ".9", "legend_font_family": "Consolas, \"Liberation Mono\", Menlo, Courier, monospace", "font_family": "Consolas, \"Liberation Mono\", Menlo, Courier, monospace", "title_font_family": "Consolas, \"Liberation Mono\", Menlo, Courier, monospace", "background": "rgba(249, 249, 249, 1)", "stroke_opacity": ".8", "foreground": "rgba(0, 0, 0, .87)", "value_background": "rgba(229, 229, 229, 1)", "guide_stroke_dasharray": "4,4", "foreground_subtle": "rgba(0, 0, 0, .54)", "opacity_hover": ".8", "value_font_family": "Consolas, \"Liberation Mono\", Menlo, Courier, monospace", "value_label_font_size": 10, "plot_background": "rgba(255, 255, 255, 1)", "ci_colors": [], "label_font_size": 10, "major_label_font_size": 10, "title_font_size": 16, "no_data_font_size": 64, "value_font_size": 16, "value_colors": [], "label_font_family": "Consolas, \"Liberation Mono\", Menlo, Courier, monospace", "major_guide_stroke_dasharray": "6,6", "transition": "150ms", "foreground_strong": "rgba(0, 0, 0, 1)", "colors": ["#e86fa0", "#e88f6f", "#e8df6f", "#a0e86f", "#6fe88f", "#6fe8df", "#6fa0e8", "#8f6fe8", "#df6fe8", "#e86fa0"], "opacity": ".7", "legend_font_size": 14, "value_label_font_family": "Consolas, \"Liberation Mono\", Menlo, Courier, monospace", "major_label_font_family": "Consolas, \"Liberation Mono\", Menlo, Courier, monospace"}, "x_labels_major_count": null, "interpolation_precision": 250, "missing_value_fill_truncation": "x", "stack_from_top": false, "truncate_legend": null, "show_minor_x_labels": true, "print_zeroes": true, "css": ["file://style.css", "file://graph.css"], "y_label_rotation": 0, "legend_at_bottom": false, "print_values": false, "margin_top": null, "max_scale": 16, "allow_interruptions": false, "show_x_labels": true, "strict": false, "show_x_guides": false, "stroke": true, "margin_left": null, "dynamic_print_values": false, "print_labels": false, "show_y_labels": true, "x_labels_major": null, "range": null, "x_label_rotation": 0, "margin": 20, "zero": 0, "include_x_axis": false, "height": 600, "show_minor_y_labels": true, "show_dots": true, "interpolate": "cubic", "show_y_guides": true, "y_labels_major": null, "box_mode": "extremes", "margin_bottom": null, "order_min": null, "legend_box_size": 12, "fill": true, "show_only_major_dots": false, "js": ["//kozea.github.io/pygal.js/2.0.x/pygal-tooltips.min.js"], "x_title": null, "y_labels_major_every": null, "y_labels_major_count": null, "disable_xml_declaration": false, "y_title": null, "logarithmic": false, "pretty_print": false, "min_scale": 4, "dots_size": 2.5, "margin_right": null, "legends": [null], "secondary_range": null, "show_legend": false}</script><script type="text/javascript" xlink:href="https://kozea.github.io/pygal.js/2.0.x/pygal-tooltips.min.js" /></defs><title>Pygal</title><g class="graph stackedline-graph vertical"><rect class="background" height="600" width="800" x="0" y="0" /><g class="plot" transform="translate(54, 20)"><rect class="background" height="540" width="726.0" x="0" y="0" /><g class="axis y"><path class="line" d="M0.000000 540.000000 h726.000000" /><g class="guides"><path class="guide line" d="M0.000000 511.612339 h726.000000" /><text class="" x="-5" y="515.1123394081989">420M</text><title>420M</title></g><g class="guides"><path class="guide line" d="M0.000000 477.476850 h726.000000" /><text class="" x="-5" y="480.97684992278545">440M</text><title>440M</title></g><g class="guides"><path class="guide line" d="M0.000000 443.341360 h726.000000" /><text class="" x="-5" y="446.84136043737203">460M</text><title>460M</title></g><g class="guides"><path class="guide line" d="M0.000000 409.205871 h726.000000" /><text class="" x="-5" y="412.7058709519586">480M</text><title>480M</title></g><g class="guides"><path class="major guide line" d="M0.000000 375.070381 h726.000000" /><text class="major" x="-5" y="378.5703814665452">500M</text><title>500M</title></g><g class="guides"><path class="guide line" d="M0.000000 340.934892 h726.000000" /><text class="" x="-5" y="344.4348919811317">520M</text><title>520M</title></g><g class="guides"><path class="guide line" d="M0.000000 306.799402 h726.000000" /><text class="" x="-5" y="310.29940249571837">540M</text><title>540M</title></g><g class="guides"><path class="guide line" d="M0.000000 272.663913 h726.000000" /><text class="" x="-5" y="276.1639130103049">560M</text><title>560M</title></g><g class="guides"><path class="guide line" d="M0.000000 238.528424 h726.000000" /><text class="" x="-5" y="242.02842352489148">580M</text><title>580M</title></g><g class="guides"><path class="major guide line" d="M0.000000 204.392934 h726.000000" /><text class="major" x="-5" y="207.89293403947806">600M</text><title>600M</title></g><g class="guides"><path class="guide line" d="M0.000000 170.257445 h726.000000" /><text class="" x="-5" y="173.75744455406465">620M</text><title>620M</title></g><g class="guides"><path class="guide line" d="M0.000000 136.121955 h726.000000" /><text class="" x="-5" y="139.62195506865123">640M</text><title>640M</title></g><g class="guides"><path class="guide line" d="M0.000000 101.986466 h726.000000" /><text class="" x="-5" y="105.48646558323776">660M</text><title>660M</title></g><g class="guides"><path class="guide line" d="M0.000000 67.850976 h726.000000" /><text class="" x="-5" y="71.35097609782434">680M</text><title>680M</title></g><g class="guides"><path class="major guide line" d="M0.000000 33.715487 h726.000000" /><text class="major" x="-5" y="37.21548661241093">700M</text><title>700M</title></g></g><g class="axis x"><g class="guides"><path class="line" d="M13.961538 0.000000 v540.000000" /><text class="" x="13.96153846153846" y="555.0">2549</text></g><g class="guides"><path class="guide line" d="M91.525641 0.000000 v540.000000" /><text class="" x="91.52564102564101" y="555.0">2550</text></g><g class="guides"><path class="guide line" d="M169.089744 0.000000 v540.000000" /><text class="" x="169.08974358974356" y="555.0">2551</text></g><g class="guides"><path class="guide line" d="M246.653846 0.000000 v540.000000" /><text class="" x="246.65384615384613" y="555.0">2552</text></g><g class="guides"><path class="guide line" d="M324.217949 0.000000 v540.000000" /><text class="" x="324.21794871794873" y="555.0">2553</text></g><g class="guides"><path class="guide line" d="M401.782051 0.000000 v540.000000" /><text class="" x="401.78205128205127" y="555.0">2554</text></g><g class="guides"><path class="guide line" d="M479.346154 0.000000 v540.000000" /><text class="" x="479.3461538461538" y="555.0">2555</text></g><g class="guides"><path class="guide line" d="M556.910256 0.000000 v540.000000" /><text class="" x="556.9102564102565" y="555.0">2556</text></g><g class="guides"><path class="guide line" d="M634.474359 0.000000 v540.000000" /><text class="" x="634.474358974359" y="555.0">2557</text></g><g class="guides"><path class="guide line" d="M712.038462 0.000000 v540.000000" /><text class="" x="712.0384615384615" y="555.0">2558</text></g></g><g class="series serie-0 color-0"><path class="line reactive" d="M13.961538 540.000000 L13.961538 529.615385 14.271795 529.508260 14.582051 529.401139 14.892308 529.294027 15.202564 529.186928 15.512821 529.079847 15.823077 528.972786 16.133333 528.865751 16.443590 528.758747 16.753846 528.651776 17.064103 528.544845 17.374359 528.437956 17.684615 528.331114 17.994872 528.224323 18.305128 528.117589 18.615385 528.010914 18.925641 527.904304 19.235897 527.797762 19.546154 527.691294 19.856410 527.584902 20.166667 527.478592 20.476923 527.372368 20.787179 527.266233 21.097436 527.160193 21.407692 527.054252 21.717949 526.948414 22.028205 526.842682 22.338462 526.737062 22.648718 526.631558 22.958974 526.526174 23.269231 526.420915 23.579487 526.315784 23.889744 526.210786 24.200000 526.105925 24.510256 526.001205 24.820513 525.896632 25.130769 525.792208 25.441026 525.687939 25.751282 525.583829 26.061538 525.479881 26.371795 525.376101 26.682051 525.272492 26.992308 525.169059 27.302564 525.065806 27.612821 524.962737 27.923077 524.859857 28.233333 524.757170 28.543590 524.654680 28.853846 524.552392 29.164103 524.450309 29.474359 524.348437 29.784615 524.246779 30.094872 524.145339 30.405128 524.044123 30.715385 523.943134 31.025641 523.842376 31.335897 523.741855 31.646154 523.641573 31.956410 523.541536 32.266667 523.441747 32.576923 523.342211 32.887179 523.242933 33.197436 523.143916 33.507692 523.045165 33.817949 522.946684 34.128205 522.848478 34.438462 522.750550 34.748718 522.652905 35.058974 522.555548 35.369231 522.458482 35.679487 522.361712 35.989744 522.265242 36.300000 522.169076 36.610256 522.073219 36.920513 521.977675 37.230769 521.882449 37.541026 521.787544 37.851282 521.692965 38.161538 521.598716 38.471795 521.504801 38.782051 521.411225 39.092308 521.317993 39.402564 521.225107 39.712821 521.132573 40.023077 521.040395 40.333333 520.948577 40.643590 520.857124 40.953846 520.766039 41.264103 520.675327 41.574359 520.584993 41.884615 520.495040 42.194872 520.405473 42.505128 520.316297 42.815385 520.227514 43.125641 520.139131 43.435897 520.051151 43.746154 519.963577 44.056410 519.876416 44.366667 519.789670 44.676923 519.703345 44.987179 519.617444 45.297436 519.531972 45.607692 519.446933 45.917949 519.362331 46.228205 519.278171 46.538462 519.194456 46.848718 519.111192 47.158974 519.028383 47.469231 518.946032 47.779487 518.864144 48.089744 518.782724 48.400000 518.701775 48.710256 518.621302 49.020513 518.541310 49.330769 518.461802 49.641026 518.382783 49.951282 518.304256 50.261538 518.226227 50.571795 518.148700 50.882051 518.071679 51.192308 517.995168 51.502564 517.919172 51.812821 517.843694 52.123077 517.768739 52.433333 517.694312 52.743590 517.620416 53.053846 517.547057 53.364103 517.474237 53.674359 517.401963 53.984615 517.330237 54.294872 517.259064 54.605128 517.188448 54.915385 517.118394 55.225641 517.048907 55.535897 516.979989 55.846154 516.911646 56.156410 516.843882 56.466667 516.776701 56.776923 516.710107 57.087179 516.644105 57.397436 516.578699 57.707692 516.513893 58.017949 516.449692 58.328205 516.386099 58.638462 516.323120 58.948718 516.260758 59.258974 516.199018 59.569231 516.137904 59.879487 516.077420 60.189744 516.017571 60.500000 515.958361 60.810256 515.899794 61.120513 515.841874 61.430769 515.784606 61.741026 515.727994 62.051282 515.672042 62.361538 515.616755 62.671795 515.562136 62.982051 515.508191 63.292308 515.454923 63.602564 515.402337 63.912821 515.350437 64.223077 515.299228 64.533333 515.248713 64.843590 515.198896 65.153846 515.149783 65.464103 515.101378 65.774359 515.053684 66.084615 515.006706 66.394872 514.960449 66.705128 514.914916 67.015385 514.870112 67.325641 514.826041 67.635897 514.782708 67.946154 514.740117 68.256410 514.698271 68.566667 514.657176 68.876923 514.616836 69.187179 514.577254 69.497436 514.538436 69.807692 514.500385 70.117949 514.463106 70.428205 514.426603 70.738462 514.390880 71.048718 514.355942 71.358974 514.321793 71.669231 514.288437 71.979487 514.255878 72.289744 514.224122 72.600000 514.193171 72.910256 514.163031 73.220513 514.133705 73.530769 514.105199 73.841026 514.077515 74.151282 514.050660 74.461538 514.024635 74.771795 513.999447 75.082051 513.975100 75.392308 513.951597 75.702564 513.928943 76.012821 513.907142 76.323077 513.886199 76.633333 513.866118 76.943590 513.846902 77.253846 513.828557 77.564103 513.811087 77.874359 513.794496 78.184615 513.778788 78.494872 513.763967 78.805128 513.750039 79.115385 513.737006 79.425641 513.724874 79.735897 513.713647 80.046154 513.703328 80.356410 513.693923 80.666667 513.685435 80.976923 513.677870 81.287179 513.671230 81.597436 513.665521 81.907692 513.660746 82.217949 513.656911 82.528205 513.654019 82.838462 513.652074 83.148718 513.651081 83.458974 513.651044 83.769231 513.651968 84.079487 513.653857 84.389744 513.656714 84.700000 513.660545 85.010256 513.665353 85.320513 513.671143 85.630769 513.677920 85.941026 513.685686 86.251282 513.694448 86.561538 513.704209 86.871795 513.714972 87.182051 513.726744 87.492308 513.739527 87.802564 513.753327 88.112821 513.768147 88.423077 513.783992 88.733333 513.800865 89.043590 513.818772 89.353846 513.837717 89.664103 513.857704 89.974359 513.878736 90.284615 513.900820 90.594872 513.923958 90.905128 513.948155 91.215385 513.973415 91.525641 513.999743 91.835897 514.027140 92.146154 514.055595 92.456410 514.085094 92.766667 514.115623 93.076923 514.147168 93.387179 514.179715 93.697436 514.213250 94.007692 514.247760 94.317949 514.283230 94.628205 514.319647 94.938462 514.356996 95.248718 514.395263 95.558974 514.434435 95.869231 514.474498 96.179487 514.515437 96.489744 514.557240 96.800000 514.599890 97.110256 514.643376 97.420513 514.687683 97.730769 514.732796 98.041026 514.778703 98.351282 514.825389 98.661538 514.872839 98.971795 514.921041 99.282051 514.969980 99.592308 515.019643 99.902564 515.070015 100.212821 515.121082 100.523077 515.172830 100.833333 515.225246 101.143590 515.278316 101.453846 515.332025 101.764103 515.386360 102.074359 515.441307 102.384615 515.496851 102.694872 515.552979 103.005128 515.609677 103.315385 515.666931 103.625641 515.724728 103.935897 515.783052 104.246154 515.841890 104.556410 515.901228 104.866667 515.961053 105.176923 516.021349 105.487179 516.082105 105.797436 516.143304 106.107692 516.204934 106.417949 516.266980 106.728205 516.329429 107.038462 516.392267 107.348718 516.455479 107.658974 516.519052 107.969231 516.582972 108.279487 516.647224 108.589744 516.711795 108.900000 516.776672 109.210256 516.841839 109.520513 516.907283 109.830769 516.972991 110.141026 517.038947 110.451282 517.105139 110.761538 517.171552 111.071795 517.238172 111.382051 517.304986 111.692308 517.371979 112.002564 517.439137 112.312821 517.506447 112.623077 517.573895 112.933333 517.641466 113.243590 517.709147 113.553846 517.776923 113.864103 517.844782 114.174359 517.912708 114.484615 517.980688 114.794872 518.048709 115.105128 518.116755 115.415385 518.184813 115.725641 518.252869 116.035897 518.320910 116.346154 518.388921 116.656410 518.456888 116.966667 518.524797 117.276923 518.592635 117.587179 518.660388 117.897436 518.728040 118.207692 518.795580 118.517949 518.862992 118.828205 518.930262 119.138462 518.997378 119.448718 519.064324 119.758974 519.131087 120.069231 519.197653 120.379487 519.264008 120.689744 519.330138 121.000000 519.396029 121.310256 519.461667 121.620513 519.527038 121.930769 519.592128 122.241026 519.656924 122.551282 519.721411 122.861538 519.785576 123.171795 519.849403 123.482051 519.912881 123.792308 519.975994 124.102564 520.038728 124.412821 520.101070 124.723077 520.163006 125.033333 520.224522 125.343590 520.285604 125.653846 520.346237 125.964103 520.406408 126.274359 520.466104 126.584615 520.525309 126.894872 520.584010 127.205128 520.642194 127.515385 520.699846 127.825641 520.756952 128.135897 520.813498 128.446154 520.869471 128.756410 520.924856 129.066667 520.979640 129.376923 521.033808 129.687179 521.087347 129.997436 521.140242 130.307692 521.192480 130.617949 521.244047 130.928205 521.294929 131.238462 521.345112 131.548718 521.394581 131.858974 521.443324 132.169231 521.491325 132.479487 521.538572 132.789744 521.585049 133.100000 521.630744 133.410256 521.675642 133.720513 521.719730 134.030769 521.762993 134.341026 521.805417 134.651282 521.846989 134.961538 521.887694 135.271795 521.927519 135.582051 521.966449 135.892308 522.004471 136.202564 522.041571 136.512821 522.077735 136.823077 522.112948 137.133333 522.147198 137.443590 522.180469 137.753846 522.212749 138.064103 522.244022 138.374359 522.274276 138.684615 522.303495 138.994872 522.331667 139.305128 522.358778 139.615385 522.384812 139.925641 522.409757 140.235897 522.433599 140.546154 522.456323 140.856410 522.477915 141.166667 522.498363 141.476923 522.517650 141.787179 522.535765 142.097436 522.552692 142.407692 522.568419 142.717949 522.582930 143.028205 522.596212 143.338462 522.608251 143.648718 522.619033 143.958974 522.628544 144.269231 522.636770 144.579487 522.643698 144.889744 522.649313 145.200000 522.653601 145.510256 522.656549 145.820513 522.658142 146.130769 522.658366 146.441026 522.657208 146.751282 522.654654 147.061538 522.650689 147.371795 522.645300 147.682051 522.638473 147.992308 522.630194 148.302564 522.620448 148.612821 522.609223 148.923077 522.596503 149.233333 522.582276 149.543590 522.566526 149.853846 522.549241 150.164103 522.530406 150.474359 522.510007 150.784615 522.488031 151.094872 522.464463 151.405128 522.439289 151.715385 522.412496 152.025641 522.384069 152.335897 522.353995 152.646154 522.322259 152.956410 522.288849 153.266667 522.253749 153.576923 522.216945 153.887179 522.178425 154.197436 522.138174 154.507692 522.096177 154.817949 522.052422 155.128205 522.006894 155.438462 521.959578 155.748718 521.910462 156.058974 521.859532 156.369231 521.806772 156.679487 521.752170 156.989744 521.695711 157.300000 521.637382 157.610256 521.577169 157.920513 521.515056 158.230769 521.451032 158.541026 521.385081 158.851282 521.317190 159.161538 521.247345 159.471795 521.175531 159.782051 521.101736 160.092308 521.025944 160.402564 520.948143 160.712821 520.868317 161.023077 520.786454 161.333333 520.702539 161.643590 520.616558 161.953846 520.528497 162.264103 520.438343 162.574359 520.346081 162.884615 520.251698 163.194872 520.155179 163.505128 520.056510 163.815385 519.955679 164.125641 519.852669 164.435897 519.747469 164.746154 519.640063 165.056410 519.530439 165.366667 519.418581 165.676923 519.304476 165.987179 519.188110 166.297436 519.069469 166.607692 518.948539 166.917949 518.825307 167.228205 518.699757 167.538462 518.571877 167.848718 518.441653 168.158974 518.309069 168.469231 518.174113 168.779487 518.036771 169.089744 517.897028 169.400000 517.754875 169.710256 517.610321 170.020513 517.463377 170.330769 517.314058 170.641026 517.162376 170.951282 517.008344 171.261538 516.851974 171.571795 516.693280 171.882051 516.532274 172.192308 516.368969 172.502564 516.203377 172.812821 516.035513 173.123077 515.865388 173.433333 515.693016 173.743590 515.518409 174.053846 515.341580 174.364103 515.162542 174.674359 514.981307 174.984615 514.797890 175.294872 514.612301 175.605128 514.424555 175.915385 514.234664 176.225641 514.042641 176.535897 513.848498 176.846154 513.652249 177.156410 513.453907 177.466667 513.253483 177.776923 513.050992 178.087179 512.846446 178.397436 512.639857 178.707692 512.431239 179.017949 512.220604 179.328205 512.007966 179.638462 511.793336 179.948718 511.576729 180.258974 511.358156 180.569231 511.137630 180.879487 510.915165 181.189744 510.690774 181.500000 510.464468 181.810256 510.236261 182.120513 510.006166 182.430769 509.774195 182.741026 509.540362 183.051282 509.304679 183.361538 509.067159 183.671795 508.827814 183.982051 508.586659 184.292308 508.343705 184.602564 508.098965 184.912821 507.852452 185.223077 507.604180 185.533333 507.354160 185.843590 507.102406 186.153846 506.848931 186.464103 506.593747 186.774359 506.336867 187.084615 506.078304 187.394872 505.818071 187.705128 505.556180 188.015385 505.292645 188.325641 505.027479 188.635897 504.760693 188.946154 504.492302 189.256410 504.222317 189.566667 503.950752 189.876923 503.677620 190.187179 503.402932 190.497436 503.126703 190.807692 502.848945 191.117949 502.569671 191.428205 502.288893 191.738462 502.006625 192.048718 501.722879 192.358974 501.437669 192.669231 501.151006 192.979487 500.862904 193.289744 500.573376 193.600000 500.282434 193.910256 499.990091 194.220513 499.696361 194.530769 499.401255 194.841026 499.104788 195.151282 498.806971 195.461538 498.507817 195.771795 498.207340 196.082051 497.905552 196.392308 497.602465 196.702564 497.298094 197.012821 496.992450 197.323077 496.685547 197.633333 496.377397 197.943590 496.068013 198.253846 495.757407 198.564103 495.445594 198.874359 495.132585 199.184615 494.818394 199.494872 494.503033 199.805128 494.186515 200.115385 493.868853 200.425641 493.550060 200.735897 493.230148 201.046154 492.909131 201.356410 492.587021 201.666667 492.263831 201.976923 491.939574 202.287179 491.614263 202.597436 491.287910 202.907692 490.960529 203.217949 490.632132 203.528205 490.302732 203.838462 489.972342 204.148718 489.640975 204.458974 489.308643 204.769231 488.975360 205.079487 488.641138 205.389744 488.305990 205.700000 487.969929 206.010256 487.632967 206.320513 487.295119 206.630769 486.956395 206.941026 486.616810 207.251282 486.276376 207.561538 485.935106 207.871795 485.593012 208.182051 485.250108 208.492308 484.906406 208.802564 484.561920 209.112821 484.216662 209.423077 483.870644 209.733333 483.523880 210.043590 483.176383 210.353846 482.828165 210.664103 482.479240 210.974359 482.129619 211.284615 481.779316 211.594872 481.428344 211.905128 481.076715 212.215385 480.724443 212.525641 480.371540 212.835897 480.018019 213.146154 479.663893 213.456410 479.309175 213.766667 478.953877 214.076923 478.598012 214.387179 478.241594 214.697436 477.884634 215.007692 477.527147 215.317949 477.169144 215.628205 476.810638 215.938462 476.451643 216.248718 476.092171 216.558974 475.732236 216.869231 475.371849 217.179487 475.011023 217.489744 474.649772 217.800000 474.288109 218.110256 473.926045 218.420513 473.563595 218.730769 473.200770 219.041026 472.837584 219.351282 472.474050 219.661538 472.110180 219.971795 471.745987 220.282051 471.381484 220.592308 471.016684 220.902564 470.651599 221.212821 470.286243 221.523077 469.920628 221.833333 469.554768 222.143590 469.188674 222.453846 468.822360 222.764103 468.455839 223.074359 468.089123 223.384615 467.722226 223.694872 467.355159 224.005128 466.987937 224.315385 466.620571 224.625641 466.253075 224.935897 465.885462 225.246154 465.517743 225.556410 465.149933 225.866667 464.782044 226.176923 464.414089 226.487179 464.046080 226.797436 463.678031 227.107692 463.309953 227.417949 462.941862 227.728205 462.573767 228.038462 462.205684 228.348718 461.837625 228.658974 461.469601 228.969231 461.101627 229.279487 460.733715 229.589744 460.365879 229.900000 459.998129 230.210256 459.630481 230.520513 459.262946 230.830769 458.895537 231.141026 458.528267 231.451282 458.161149 231.761538 457.794196 232.071795 457.427420 232.382051 457.060835 232.692308 456.694453 233.002564 456.328287 233.312821 455.962350 233.623077 455.596655 233.933333 455.231214 234.243590 454.866041 234.553846 454.501148 234.864103 454.136548 235.174359 453.772254 235.484615 453.408278 235.794872 453.044635 236.105128 452.681335 236.415385 452.318393 236.725641 451.955821 237.035897 451.593632 237.346154 451.231838 237.656410 450.870453 237.966667 450.509489 238.276923 450.148960 238.587179 449.788878 238.897436 449.429255 239.207692 449.070105 239.517949 448.711441 239.828205 448.353275 240.138462 447.995621 240.448718 447.638490 240.758974 447.281896 241.069231 446.925852 241.379487 446.570371 241.689744 446.215464 242.000000 445.861146 242.310256 445.507429 242.620513 445.154326 242.930769 444.801850 243.241026 444.450013 243.551282 444.098828 243.861538 443.748309 244.171795 443.398467 244.482051 443.049317 244.792308 442.700870 245.102564 442.353140 245.412821 442.006138 245.723077 441.659880 246.033333 441.314376 246.343590 440.969640 246.653846 440.625684 246.964103 440.282521 247.274359 439.940153 247.584615 439.598584 247.894872 439.257816 248.205128 438.917851 248.515385 438.578692 248.825641 438.240341 249.135897 437.902802 249.446154 437.566075 249.756410 437.230165 250.066667 436.895073 250.376923 436.560802 250.687179 436.227354 250.997436 435.894731 251.307692 435.562937 251.617949 435.231974 251.928205 434.901844 252.238462 434.572550 252.548718 434.244094 252.858974 433.916478 253.169231 433.589706 253.479487 433.263779 253.789744 432.938701 254.100000 432.614473 254.410256 432.291098 254.720513 431.968579 255.030769 431.646917 255.341026 431.326117 255.651282 431.006179 255.961538 430.687107 256.271795 430.368903 256.582051 430.051569 256.892308 429.735108 257.202564 429.419523 257.512821 429.104816 257.823077 428.790989 258.133333 428.478045 258.443590 428.165986 258.753846 427.854815 259.064103 427.544534 259.374359 427.235147 259.684615 426.926654 259.994872 426.619060 260.305128 426.312365 260.615385 426.006574 260.925641 425.701687 261.235897 425.397708 261.546154 425.094640 261.856410 424.792484 262.166667 424.491244 262.476923 424.190921 262.787179 423.891518 263.097436 423.593037 263.407692 423.295482 263.717949 422.998855 264.028205 422.703157 264.338462 422.408392 264.648718 422.114562 264.958974 421.821670 265.269231 421.529718 265.579487 421.238708 265.889744 420.948643 266.200000 420.659525 266.510256 420.371357 266.820513 420.084142 267.130769 419.797882 267.441026 419.512579 267.751282 419.228236 268.061538 418.944855 268.371795 418.662439 268.682051 418.380991 268.992308 418.100512 269.302564 417.821006 269.612821 417.542474 269.923077 417.264919 270.233333 416.988344 270.543590 416.712752 270.853846 416.438144 271.164103 416.164523 271.474359 415.891892 271.784615 415.620253 272.094872 415.349609 272.405128 415.079962 272.715385 414.811314 273.025641 414.543669 273.335897 414.277028 273.646154 414.011394 273.956410 413.746769 274.266667 413.483157 274.576923 413.220559 274.887179 412.958978 275.197436 412.698417 275.507692 412.438877 275.817949 412.180362 276.128205 411.922874 276.438462 411.666415 276.748718 411.410988 277.058974 411.156595 277.369231 410.903240 277.679487 410.650923 277.989744 410.399649 278.300000 410.149418 278.610256 409.900235 278.920513 409.652100 279.230769 409.405018 279.541026 409.158989 279.851282 408.914018 280.161538 408.670105 280.471795 408.427254 280.782051 408.185467 281.092308 407.944747 281.402564 407.705096 281.712821 407.466517 282.023077 407.229012 282.333333 406.992583 282.643590 406.757233 282.953846 406.522965 283.264103 406.289781 283.574359 406.057684 283.884615 405.826675 284.194872 405.596758 284.505128 405.367935 284.815385 405.140208 285.125641 404.913580 285.435897 404.688054 285.746154 404.463631 286.056410 404.240315 286.366667 404.018107 286.676923 403.797011 286.987179 403.577029 287.297436 403.358163 287.607692 403.140416 287.917949 402.923790 288.228205 402.708288 288.538462 402.493912 288.848718 402.280665 289.158974 402.068549 289.469231 401.857566 289.779487 401.647720 290.089744 401.439012 290.400000 401.231446 290.710256 401.025023 291.020513 400.819746 291.330769 400.615618 291.641026 400.412641 291.951282 400.210818 292.261538 400.010150 292.571795 399.810641 292.882051 399.612293 293.192308 399.415108 293.502564 399.219090 293.812821 399.024240 294.123077 398.830560 294.433333 398.638054 294.743590 398.446725 295.053846 398.256573 295.364103 398.067602 295.674359 397.879815 295.984615 397.693213 296.294872 397.507800 296.605128 397.323577 296.915385 397.140548 297.225641 396.958715 297.535897 396.778080 297.846154 396.598645 298.156410 396.420414 298.466667 396.243388 298.776923 396.067571 299.087179 395.892964 299.397436 395.719570 299.707692 395.547392 300.017949 395.376432 300.328205 395.206693 300.638462 395.038177 300.948718 394.870886 301.258974 394.704823 301.569231 394.539991 301.879487 394.376392 302.189744 394.214028 302.500000 394.052902 302.810256 393.893017 303.120513 393.734375 303.430769 393.576978 303.741026 393.420829 304.051282 393.265930 304.361538 393.112284 304.671795 392.959894 304.982051 392.808761 305.292308 392.658889 305.602564 392.510279 305.912821 392.362935 306.223077 392.216859 306.533333 392.072052 306.843590 391.928519 307.153846 391.786261 307.464103 391.645280 307.774359 391.505580 308.084615 391.367162 308.394872 391.230029 308.705128 391.094184 309.015385 390.959629 309.325641 390.826367 309.635897 390.694400 309.946154 390.563730 310.256410 390.434361 310.566667 390.306294 310.876923 390.179531 311.187179 390.054077 311.497436 389.929932 311.807692 389.807100 312.117949 389.685583 312.428205 389.565383 312.738462 389.446503 313.048718 389.328946 313.358974 389.212713 313.669231 389.097808 313.979487 388.984233 314.289744 388.871989 314.600000 388.761081 314.910256 388.651510 315.220513 388.543279 315.530769 388.436390 315.841026 388.330846 316.151282 388.226649 316.461538 388.123801 316.771795 388.022306 317.082051 387.922166 317.392308 387.823383 317.702564 387.725959 318.012821 387.629897 318.323077 387.535201 318.633333 387.441871 318.943590 387.349910 319.253846 387.259322 319.564103 387.170108 319.874359 387.082272 320.184615 386.995815 320.494872 386.910739 320.805128 386.827049 321.115385 386.744745 321.425641 386.663831 321.735897 386.584308 322.046154 386.506180 322.356410 386.429449 322.666667 386.354117 322.976923 386.280187 323.287179 386.207662 323.597436 386.136543 323.907692 386.066834 324.217949 385.998536 324.528205 385.931647 324.838462 385.866143 325.148718 385.801995 325.458974 385.739172 325.769231 385.677646 326.079487 385.617387 326.389744 385.558366 326.700000 385.500552 327.010256 385.443918 327.320513 385.388433 327.630769 385.334068 327.941026 385.280793 328.251282 385.228579 328.561538 385.177397 328.871795 385.127217 329.182051 385.078010 329.492308 385.029746 329.802564 384.982395 330.112821 384.935929 330.423077 384.890318 330.733333 384.845533 331.043590 384.801543 331.353846 384.758321 331.664103 384.715835 331.974359 384.674057 332.284615 384.632958 332.594872 384.592507 332.905128 384.552676 333.215385 384.513435 333.525641 384.474754 333.835897 384.436604 334.146154 384.398956 334.456410 384.361781 334.766667 384.325048 335.076923 384.288729 335.387179 384.252793 335.697436 384.217212 336.007692 384.181956 336.317949 384.146996 336.628205 384.112301 336.938462 384.077844 337.248718 384.043594 337.558974 384.009522 337.869231 383.975598 338.179487 383.941793 338.489744 383.908077 338.800000 383.874422 339.110256 383.840798 339.420513 383.807174 339.730769 383.773523 340.041026 383.739814 340.351282 383.706017 340.661538 383.672105 340.971795 383.638046 341.282051 383.603812 341.592308 383.569373 341.902564 383.534700 342.212821 383.499763 342.523077 383.464533 342.833333 383.428980 343.143590 383.393075 343.453846 383.356789 343.764103 383.320092 344.074359 383.282955 344.384615 383.245347 344.694872 383.207241 345.005128 383.168606 345.315385 383.129413 345.625641 383.089632 345.935897 383.049235 346.246154 383.008191 346.556410 382.966471 346.866667 382.924045 347.176923 382.880886 347.487179 382.836962 347.797436 382.792244 348.107692 382.746703 348.417949 382.700310 348.728205 382.653035 349.038462 382.604849 349.348718 382.555721 349.658974 382.505624 349.969231 382.454527 350.279487 382.402401 350.589744 382.349216 350.900000 382.294943 351.210256 382.239553 351.520513 382.183016 351.830769 382.125303 352.141026 382.066384 352.451282 382.006230 352.761538 381.944811 353.071795 381.882098 353.382051 381.818062 353.692308 381.752673 354.002564 381.685901 354.312821 381.617718 354.623077 381.548093 354.933333 381.476998 355.243590 381.404402 355.553846 381.330277 355.864103 381.254593 356.174359 381.177321 356.484615 381.098431 356.794872 381.017893 357.105128 380.935679 357.415385 380.851759 357.725641 380.766102 358.035897 380.678681 358.346154 380.589466 358.656410 380.498426 358.966667 380.405533 359.276923 380.310757 359.587179 380.214069 359.897436 380.115440 360.207692 380.014839 360.517949 379.912238 360.828205 379.807606 361.138462 379.700916 361.448718 379.592136 361.758974 379.481238 362.069231 379.368192 362.379487 379.252969 362.689744 379.135540 363.000000 379.015874 363.310256 378.893943 363.620513 378.769717 363.930769 378.643167 364.241026 378.514262 364.551282 378.382975 364.861538 378.249275 365.171795 378.113132 365.482051 377.974518 365.792308 377.833403 366.102564 377.689758 366.412821 377.543553 366.723077 377.394758 367.033333 377.243345 367.343590 377.089283 367.653846 376.932544 367.964103 376.773098 368.274359 376.610915 368.584615 376.445966 368.894872 376.278222 369.205128 376.107653 369.515385 375.934230 369.825641 375.757923 370.135897 375.578703 370.446154 375.396541 370.756410 375.211406 371.066667 375.023270 371.376923 374.832103 371.687179 374.637875 371.997436 374.440558 372.307692 374.240122 372.617949 374.036537 372.928205 373.829774 373.238462 373.619803 373.548718 373.406596 373.858974 373.190122 374.169231 372.970352 374.479487 372.747257 374.789744 372.520807 375.100000 372.290973 375.410256 372.057726 375.720513 371.821035 376.030769 371.580872 376.341026 371.337207 376.651282 371.090011 376.961538 370.839254 377.271795 370.584907 377.582051 370.326940 377.892308 370.065324 378.202564 369.800029 378.512821 369.531026 378.823077 369.258287 379.133333 368.981780 379.443590 368.701477 379.753846 368.417348 380.064103 368.129364 380.374359 367.837495 380.684615 367.541713 380.994872 367.241987 381.305128 366.938288 381.615385 366.630586 381.925641 366.318853 382.235897 366.003059 382.546154 365.683173 382.856410 365.359168 383.166667 365.031014 383.476923 364.698680 383.787179 364.362138 384.097436 364.021358 384.407692 363.676310 384.717949 363.326966 385.028205 362.973296 385.338462 362.615270 385.648718 362.252860 385.958974 361.886034 386.269231 361.514765 386.579487 361.139022 386.889744 360.758777 387.200000 360.373999 387.510256 359.984660 387.820513 359.590729 388.130769 359.192178 388.441026 358.788977 388.751282 358.381097 389.061538 357.968507 389.371795 357.551180 389.682051 357.129084 389.992308 356.702192 390.302564 356.270473 390.612821 355.833897 390.923077 355.392437 391.233333 354.946061 391.543590 354.494741 391.853846 354.038447 392.164103 353.577150 392.474359 353.110820 392.784615 352.639428 393.094872 352.162945 393.405128 351.681340 393.715385 351.194585 394.025641 350.702650 394.335897 350.205506 394.646154 349.703123 394.956410 349.195472 395.266667 348.682523 395.576923 348.164247 395.887179 347.640615 396.197436 347.111597 396.507692 346.577163 396.817949 346.037285 397.128205 345.491932 397.438462 344.941075 397.748718 344.384686 398.058974 343.822734 398.369231 343.255190 398.679487 342.682024 398.989744 342.103207 399.300000 341.518711 399.610256 340.928504 399.920513 340.332558 400.230769 339.730844 400.541026 339.123331 400.851282 338.509991 401.161538 337.890794 401.471795 337.265711 401.782051 336.634711 402.092308 335.997779 402.402564 335.354944 402.712821 334.706251 403.023077 334.051742 403.333333 333.391461 403.643590 332.725450 403.953846 332.053754 404.264103 331.376415 404.574359 330.693476 404.884615 330.004981 405.194872 329.310973 405.505128 328.611495 405.815385 327.906590 406.125641 327.196302 406.435897 326.480674 406.746154 325.759749 407.056410 325.033570 407.366667 324.302180 407.676923 323.565623 407.987179 322.823942 408.297436 322.077180 408.607692 321.325381 408.917949 320.568587 409.228205 319.806841 409.538462 319.040188 409.848718 318.268670 410.158974 317.492330 410.469231 316.711212 410.779487 315.925359 411.089744 315.134814 411.400000 314.339620 411.710256 313.539821 412.020513 312.735459 412.330769 311.926578 412.641026 311.113222 412.951282 310.295433 413.261538 309.473255 413.571795 308.646730 413.882051 307.815902 414.192308 306.980815 414.502564 306.141511 414.812821 305.298034 415.123077 304.450427 415.433333 303.598733 415.743590 302.742995 416.053846 301.883257 416.364103 301.019561 416.674359 300.151952 416.984615 299.280472 417.294872 298.405164 417.605128 297.526072 417.915385 296.643239 418.225641 295.756708 418.535897 294.866523 418.846154 293.972726 419.156410 293.075360 419.466667 292.174470 419.776923 291.270098 420.087179 290.362287 420.397436 289.451081 420.707692 288.536523 421.017949 287.618656 421.328205 286.697523 421.638462 285.773168 421.948718 284.845633 422.258974 283.914962 422.569231 282.981199 422.879487 282.044386 423.189744 281.104566 423.500000 280.161784 423.810256 279.216081 424.120513 278.267502 424.430769 277.316089 424.741026 276.361886 425.051282 275.404936 425.361538 274.445282 425.671795 273.482967 425.982051 272.518035 426.292308 271.550529 426.602564 270.580491 426.912821 269.607966 427.223077 268.632997 427.533333 267.655626 427.843590 266.675897 428.153846 265.693853 428.464103 264.709537 428.774359 263.722993 429.084615 262.734264 429.394872 261.743393 429.705128 260.750423 430.015385 259.755397 430.325641 258.758359 430.635897 257.759352 430.946154 256.758419 431.256410 255.755604 431.566667 254.750948 431.876923 253.744497 432.187179 252.736292 432.497436 251.726378 432.807692 250.714797 433.117949 249.701593 433.428205 248.686808 433.738462 247.670487 434.048718 246.652672 434.358974 245.633406 434.669231 244.612733 434.979487 243.590696 435.289744 242.567338 435.600000 241.542703 435.910256 240.516833 436.220513 239.489772 436.530769 238.461563 436.841026 237.432249 437.151282 236.401874 437.461538 235.370480 437.771795 234.338111 438.082051 233.304811 438.392308 232.270621 438.702564 231.235586 439.012821 230.199749 439.323077 229.163153 439.633333 228.125842 439.943590 227.087857 440.253846 226.049244 440.564103 225.010044 440.874359 223.970301 441.184615 222.930059 441.494872 221.889360 441.805128 220.848247 442.115385 219.806765 442.425641 218.764956 442.735897 217.722864 443.046154 216.680531 443.356410 215.638000 443.666667 214.595316 443.976923 213.552521 444.287179 212.509659 444.597436 211.466772 444.907692 210.423905 445.217949 209.381099 445.528205 208.338399 445.838462 207.295848 446.148718 206.253488 446.458974 205.211363 446.769231 204.169517 447.079487 203.127992 447.389744 202.086831 447.700000 201.046079 448.010256 200.005777 448.320513 198.965970 448.630769 197.926701 448.941026 196.888012 449.251282 195.849948 449.561538 194.812550 449.871795 193.775863 450.182051 192.739930 450.492308 191.704794 450.802564 190.670497 451.112821 189.637084 451.423077 188.604598 451.733333 187.573081 452.043590 186.542577 452.353846 185.513130 452.664103 184.484781 452.974359 183.457576 453.284615 182.431556 453.594872 181.406765 453.905128 180.383247 454.215385 179.361044 454.525641 178.340200 454.835897 177.320758 455.146154 176.302761 455.456410 175.286252 455.766667 174.271275 456.076923 173.257873 456.387179 172.246088 456.697436 171.235965 457.007692 170.227547 457.317949 169.220876 457.628205 168.215996 457.938462 167.212950 458.248718 166.211782 458.558974 165.212534 458.869231 164.215250 459.179487 163.219973 459.489744 162.226746 459.800000 161.235612 460.110256 160.246616 460.420513 159.259799 460.730769 158.275205 461.041026 157.292877 461.351282 156.312859 461.661538 155.335194 461.971795 154.359925 462.282051 153.387095 462.592308 152.416747 462.902564 151.448925 463.212821 150.483672 463.523077 149.521031 463.833333 148.561045 464.143590 147.603758 464.453846 146.649212 464.764103 145.697452 465.074359 144.748519 465.384615 143.802458 465.694872 142.859312 466.005128 141.919123 466.315385 140.981935 466.625641 140.047792 466.935897 139.116736 467.246154 138.188811 467.556410 137.264060 467.866667 136.342525 468.176923 135.424252 468.487179 134.509281 468.797436 133.597658 469.107692 132.689424 469.417949 131.784624 469.728205 130.883300 470.038462 129.985496 470.348718 129.091255 470.658974 128.200620 470.969231 127.313634 471.279487 126.430341 471.589744 125.550783 471.900000 124.675005 472.210256 123.803049 472.520513 122.934958 472.830769 122.070775 473.141026 121.210545 473.451282 120.354309 473.761538 119.502112 474.071795 118.653997 474.382051 117.810006 474.692308 116.970183 475.002564 116.134571 475.312821 115.303214 475.623077 114.476154 475.933333 113.653435 476.243590 112.835101 476.553846 112.021193 476.864103 111.211756 477.174359 110.406832 477.484615 109.606466 477.794872 108.810699 478.105128 108.019576 478.415385 107.233140 478.725641 106.451433 479.035897 105.674500 479.346154 104.902382 479.656410 104.135114 479.966667 103.372688 480.276923 102.615087 480.587179 101.862294 480.897436 101.114291 481.207692 100.371061 481.517949 99.632587 481.828205 98.898852 482.138462 98.169838 482.448718 97.445528 482.758974 96.725905 483.069231 96.010951 483.379487 95.300650 483.689744 94.594983 484.000000 93.893934 484.310256 93.197486 484.620513 92.505621 484.930769 91.818322 485.241026 91.135571 485.551282 90.457352 485.861538 89.783647 486.171795 89.114439 486.482051 88.449710 486.792308 87.789444 487.102564 87.133623 487.412821 86.482230 487.723077 85.835247 488.033333 85.192657 488.343590 84.554443 488.653846 83.920588 488.964103 83.291075 489.274359 82.665886 489.584615 82.045003 489.894872 81.428411 490.205128 80.816090 490.515385 80.208025 490.825641 79.604198 491.135897 79.004591 491.446154 78.409188 491.756410 77.817970 492.066667 77.230922 492.376923 76.648025 492.687179 76.069262 492.997436 75.494616 493.307692 74.924070 493.617949 74.357606 493.928205 73.795208 494.238462 73.236857 494.548718 72.682538 494.858974 72.132231 495.169231 71.585921 495.479487 71.043589 495.789744 70.505220 496.100000 69.970794 496.410256 69.440296 496.720513 68.913707 497.030769 68.391011 497.341026 67.872190 497.651282 67.357227 497.961538 66.846105 498.271795 66.338806 498.582051 65.835313 498.892308 65.335610 499.202564 64.839678 499.512821 64.347500 499.823077 63.859060 500.133333 63.374340 500.443590 62.893322 500.753846 62.415989 501.064103 61.942324 501.374359 61.472311 501.684615 61.005930 501.994872 60.543167 502.305128 60.084002 502.615385 59.628418 502.925641 59.176400 503.235897 58.727928 503.546154 58.282986 503.856410 57.841557 504.166667 57.403624 504.476923 56.969168 504.787179 56.538174 505.097436 56.110623 505.407692 55.686498 505.717949 55.265783 506.028205 54.848459 506.338462 54.434510 506.648718 54.023918 506.958974 53.616666 507.269231 53.212737 507.579487 52.812113 507.889744 52.414777 508.200000 52.020713 508.510256 51.629902 508.820513 51.242327 509.130769 50.857972 509.441026 50.476818 509.751282 50.098849 510.061538 49.724048 510.371795 49.352396 510.682051 48.983877 510.992308 48.618474 511.302564 48.256169 511.612821 47.896945 511.923077 47.540785 512.233333 47.187671 512.543590 46.837587 512.853846 46.490514 513.164103 46.146436 513.474359 45.805336 513.784615 45.467196 514.094872 45.131998 514.405128 44.799726 514.715385 44.470363 515.025641 44.143890 515.335897 43.820292 515.646154 43.499549 515.956410 43.181647 516.266667 42.866566 516.576923 42.554290 516.887179 42.244801 517.197436 41.938083 517.507692 41.634117 517.817949 41.332887 518.128205 41.034376 518.438462 40.738566 518.748718 40.445439 519.058974 40.154980 519.369231 39.867169 519.679487 39.581991 519.989744 39.299427 520.300000 39.019461 520.610256 38.742076 520.920513 38.467253 521.230769 38.194976 521.541026 37.925228 521.851282 37.657990 522.161538 37.393247 522.471795 37.130980 522.782051 36.871173 523.092308 36.613808 523.402564 36.358868 523.712821 36.106335 524.023077 35.856193 524.333333 35.608424 524.643590 35.363010 524.953846 35.119936 525.264103 34.879182 525.574359 34.640733 525.884615 34.404570 526.194872 34.170677 526.505128 33.939035 526.815385 33.709629 527.125641 33.482441 527.435897 33.257453 527.746154 33.034648 528.056410 32.814009 528.366667 32.595519 528.676923 32.379160 528.987179 32.164915 529.297436 31.952766 529.607692 31.742698 529.917949 31.534692 530.228205 31.328730 530.538462 31.124797 530.848718 30.922874 531.158974 30.722944 531.469231 30.524990 531.779487 30.328995 532.089744 30.134941 532.400000 29.942811 532.710256 29.752589 533.020513 29.564255 533.330769 29.377795 533.641026 29.193189 533.951282 29.010421 534.261538 28.829474 534.571795 28.650330 534.882051 28.472972 535.192308 28.297382 535.502564 28.123545 535.812821 27.951441 536.123077 27.781055 536.433333 27.612368 536.743590 27.445363 537.053846 27.280024 537.364103 27.116332 537.674359 26.954271 537.984615 26.793824 538.294872 26.634973 538.605128 26.477700 538.915385 26.321989 539.225641 26.167822 539.535897 26.015183 539.846154 25.864053 540.156410 25.714415 540.466667 25.566253 540.776923 25.419549 541.087179 25.274285 541.397436 25.130445 541.707692 24.988011 542.017949 24.846966 542.328205 24.707293 542.638462 24.568973 542.948718 24.431991 543.258974 24.296329 543.569231 24.161970 543.879487 24.028895 544.189744 23.897089 544.500000 23.766533 544.810256 23.637211 545.120513 23.509105 545.430769 23.382198 545.741026 23.256473 546.051282 23.131913 546.361538 23.008499 546.671795 22.886215 546.982051 22.765044 547.292308 22.644968 547.602564 22.525971 547.912821 22.408034 548.223077 22.291141 548.533333 22.175274 548.843590 22.060416 549.153846 21.946550 549.464103 21.833658 549.774359 21.721724 550.084615 21.610729 550.394872 21.500658 550.705128 21.391491 551.015385 21.283213 551.325641 21.175806 551.635897 21.069252 551.946154 20.963535 552.256410 20.858637 552.566667 20.754540 552.876923 20.651229 553.187179 20.548684 553.497436 20.446890 553.807692 20.345828 554.117949 20.245482 554.428205 20.145834 554.738462 20.046867 555.048718 19.948564 555.358974 19.850907 555.669231 19.753879 555.979487 19.657463 556.289744 19.561642 556.600000 19.466398 556.910256 19.371715 557.220513 19.277577 557.530769 19.183981 557.841026 19.090926 558.151282 18.998412 558.461538 18.906438 558.771795 18.815003 559.082051 18.724107 559.392308 18.633749 559.702564 18.543927 560.012821 18.454642 560.323077 18.365893 560.633333 18.277678 560.943590 18.189998 561.253846 18.102851 561.564103 18.016237 561.874359 17.930155 562.184615 17.844604 562.494872 17.759584 562.805128 17.675093 563.115385 17.591132 563.425641 17.507699 563.735897 17.424794 564.046154 17.342416 564.356410 17.260564 564.666667 17.179237 564.976923 17.098436 565.287179 17.018158 565.597436 16.938404 565.907692 16.859172 566.217949 16.780463 566.528205 16.702274 566.838462 16.624606 567.148718 16.547458 567.458974 16.470829 567.769231 16.394718 568.079487 16.319124 568.389744 16.244048 568.700000 16.169488 569.010256 16.095443 569.320513 16.021913 569.630769 15.948896 569.941026 15.876393 570.251282 15.804403 570.561538 15.732924 570.871795 15.661957 571.182051 15.591500 571.492308 15.521552 571.802564 15.452114 572.112821 15.383183 572.423077 15.314760 572.733333 15.246844 573.043590 15.179434 573.353846 15.112529 573.664103 15.046129 573.974359 14.980233 574.284615 14.914840 574.594872 14.849949 574.905128 14.785560 575.215385 14.721672 575.525641 14.658285 575.835897 14.595397 576.146154 14.533007 576.456410 14.471116 576.766667 14.409722 577.076923 14.348825 577.387179 14.288424 577.697436 14.228518 578.007692 14.169107 578.317949 14.110189 578.628205 14.051764 578.938462 13.993832 579.248718 13.936391 579.558974 13.879441 579.869231 13.822982 580.179487 13.767012 580.489744 13.711530 580.800000 13.656537 581.110256 13.602031 581.420513 13.548011 581.730769 13.494477 582.041026 13.441429 582.351282 13.388865 582.661538 13.336784 582.971795 13.285187 583.282051 13.234071 583.592308 13.183438 583.902564 13.133285 584.212821 13.083612 584.523077 13.034418 584.833333 12.985703 585.143590 12.937466 585.453846 12.889706 585.764103 12.842423 586.074359 12.795615 586.384615 12.749283 586.694872 12.703424 587.005128 12.658040 587.315385 12.613128 587.625641 12.568688 587.935897 12.524720 588.246154 12.481222 588.556410 12.438195 588.866667 12.395636 589.176923 12.353546 589.487179 12.311924 589.797436 12.270769 590.107692 12.230081 590.417949 12.189858 590.728205 12.150100 591.038462 12.110806 591.348718 12.071976 591.658974 12.033608 591.969231 11.995703 592.279487 11.958258 592.589744 11.921275 592.900000 11.884751 593.210256 11.848687 593.520513 11.813080 593.830769 11.777932 594.141026 11.743241 594.451282 11.709005 594.761538 11.675226 595.071795 11.641901 595.382051 11.609030 595.692308 11.576613 596.002564 11.544648 596.312821 11.513136 596.623077 11.482074 596.933333 11.451463 597.243590 11.421302 597.553846 11.391590 597.864103 11.362326 598.174359 11.333510 598.484615 11.305140 598.794872 11.277217 599.105128 11.249740 599.415385 11.222707 599.725641 11.196118 600.035897 11.169972 600.346154 11.144269 600.656410 11.119007 600.966667 11.094187 601.276923 11.069807 601.587179 11.045867 601.897436 11.022366 602.207692 10.999303 602.517949 10.976678 602.828205 10.954489 603.138462 10.932737 603.448718 10.911420 603.758974 10.890537 604.069231 10.870088 604.379487 10.850073 604.689744 10.830490 605.000000 10.811339 605.310256 10.792618 605.620513 10.774328 605.930769 10.756468 606.241026 10.739037 606.551282 10.722033 606.861538 10.705457 607.171795 10.689308 607.482051 10.673585 607.792308 10.658287 608.102564 10.643413 608.412821 10.628963 608.723077 10.614937 609.033333 10.601332 609.343590 10.588150 609.653846 10.575388 609.964103 10.563046 610.274359 10.551124 610.584615 10.539621 610.894872 10.528536 611.205128 10.517868 611.515385 10.507617 611.825641 10.497781 612.135897 10.488361 612.446154 10.479355 612.756410 10.470763 613.066667 10.462584 613.376923 10.454817 613.687179 10.447461 613.997436 10.440517 614.307692 10.433982 614.617949 10.427857 614.928205 10.422141 615.238462 10.416832 615.548718 10.411931 615.858974 10.407436 616.169231 10.403347 616.479487 10.399663 616.789744 10.396383 617.100000 10.393507 617.410256 10.391034 617.720513 10.388963 618.030769 10.387294 618.341026 10.386025 618.651282 10.385156 618.961538 10.384686 619.271795 10.384615 619.582051 10.384942 619.892308 10.385666 620.202564 10.386787 620.512821 10.388303 620.823077 10.390214 621.133333 10.392519 621.443590 10.395217 621.753846 10.398309 622.064103 10.401793 622.374359 10.405667 622.684615 10.409933 622.994872 10.414588 623.305128 10.419633 623.615385 10.425066 623.925641 10.430887 624.235897 10.437095 624.546154 10.443689 624.856410 10.450668 625.166667 10.458033 625.476923 10.465782 625.787179 10.473914 626.097436 10.482429 626.407692 10.491325 626.717949 10.500603 627.028205 10.510262 627.338462 10.520300 627.648718 10.530717 627.958974 10.541513 628.269231 10.552686 628.579487 10.564237 628.889744 10.576163 629.200000 10.588465 629.510256 10.601142 629.820513 10.614193 630.130769 10.627617 630.441026 10.641413 630.751282 10.655582 631.061538 10.670121 631.371795 10.685032 631.682051 10.700311 631.992308 10.715960 632.302564 10.731977 632.612821 10.748362 632.923077 10.765113 633.233333 10.782230 633.543590 10.799713 633.853846 10.817561 634.164103 10.835772 634.474359 10.854347 634.784615 10.873284 635.094872 10.892582 635.405128 10.912239 635.715385 10.932255 636.025641 10.952628 636.335897 10.973355 636.646154 10.994437 636.956410 11.015871 637.266667 11.037655 637.576923 11.059789 637.887179 11.082272 638.197436 11.105100 638.507692 11.128274 638.817949 11.151791 639.128205 11.175651 639.438462 11.199851 639.748718 11.224391 640.058974 11.249268 640.369231 11.274482 640.679487 11.300031 640.989744 11.325913 641.300000 11.352128 641.610256 11.378672 641.920513 11.405546 642.230769 11.432748 642.541026 11.460276 642.851282 11.488129 643.161538 11.516305 643.471795 11.544803 643.782051 11.573621 644.092308 11.602759 644.402564 11.632214 644.712821 11.661985 645.023077 11.692070 645.333333 11.722469 645.643590 11.753180 645.953846 11.784201 646.264103 11.815531 646.574359 11.847168 646.884615 11.879111 647.194872 11.911358 647.505128 11.943909 647.815385 11.976761 648.125641 12.009913 648.435897 12.043364 648.746154 12.077113 649.056410 12.111157 649.366667 12.145495 649.676923 12.180126 649.987179 12.215049 650.297436 12.250262 650.607692 12.285763 650.917949 12.321551 651.228205 12.357625 651.538462 12.393984 651.848718 12.430624 652.158974 12.467547 652.469231 12.504749 652.779487 12.542229 653.089744 12.579986 653.400000 12.618019 653.710256 12.656326 654.020513 12.694906 654.330769 12.733756 654.641026 12.772877 654.951282 12.812265 655.261538 12.851921 655.571795 12.891841 655.882051 12.932026 656.192308 12.972473 656.502564 13.013181 656.812821 13.054149 657.123077 13.095374 657.433333 13.136857 657.743590 13.178594 658.053846 13.220585 658.364103 13.262829 658.674359 13.305323 658.984615 13.348067 659.294872 13.391059 659.605128 13.434297 659.915385 13.477780 660.225641 13.521507 660.535897 13.565476 660.846154 13.609686 661.156410 13.654134 661.466667 13.698821 661.776923 13.743744 662.087179 13.788902 662.397436 13.834293 662.707692 13.879917 663.017949 13.925771 663.328205 13.971854 663.638462 14.018164 663.948718 14.064701 664.258974 14.111463 664.569231 14.158448 664.879487 14.205654 665.189744 14.253081 665.500000 14.300728 665.810256 14.348591 666.120513 14.396671 666.430769 14.444965 666.741026 14.493472 667.051282 14.542191 667.361538 14.591120 667.671795 14.640258 667.982051 14.689604 668.292308 14.739155 668.602564 14.788911 668.912821 14.838870 669.223077 14.889030 669.533333 14.939390 669.843590 14.989949 670.153846 15.040705 670.464103 15.091657 670.774359 15.142804 671.084615 15.194143 671.394872 15.245673 671.705128 15.297394 672.015385 15.349303 672.325641 15.401398 672.635897 15.453680 672.946154 15.506146 673.256410 15.558794 673.566667 15.611624 673.876923 15.664633 674.187179 15.717821 674.497436 15.771186 674.807692 15.824726 675.117949 15.878440 675.428205 15.932326 675.738462 15.986384 676.048718 16.040612 676.358974 16.095007 676.669231 16.149569 676.979487 16.204297 677.289744 16.259189 677.600000 16.314242 677.910256 16.369457 678.220513 16.424831 678.530769 16.480364 678.841026 16.536053 679.151282 16.591897 679.461538 16.647895 679.771795 16.704045 680.082051 16.760345 680.392308 16.816796 680.702564 16.873394 681.012821 16.930138 681.323077 16.987028 681.633333 17.044061 681.943590 17.101236 682.253846 17.158552 682.564103 17.216007 682.874359 17.273599 683.184615 17.331328 683.494872 17.389192 683.805128 17.447189 684.115385 17.505319 684.425641 17.563578 684.735897 17.621967 685.046154 17.680483 685.356410 17.739126 685.666667 17.797893 685.976923 17.856784 686.287179 17.915796 686.597436 17.974928 686.907692 18.034180 687.217949 18.093549 687.528205 18.153034 687.838462 18.212633 688.148718 18.272346 688.458974 18.332170 688.769231 18.392104 689.079487 18.452147 689.389744 18.512298 689.700000 18.572554 690.010256 18.632915 690.320513 18.693378 690.630769 18.753944 690.941026 18.814609 691.251282 18.875373 691.561538 18.936233 691.871795 18.997190 692.182051 19.058241 692.492308 19.119385 692.802564 19.180620 693.112821 19.241945 693.423077 19.303358 693.733333 19.364858 694.043590 19.426444 694.353846 19.488114 694.664103 19.549867 694.974359 19.611701 695.284615 19.673614 695.594872 19.735606 695.905128 19.797675 696.215385 19.859819 696.525641 19.922037 696.835897 19.984328 697.146154 20.046689 697.456410 20.109120 697.766667 20.171620 698.076923 20.234186 698.387179 20.296817 698.697436 20.359512 699.007692 20.422270 699.317949 20.485088 699.628205 20.547966 699.938462 20.610902 700.248718 20.673894 700.558974 20.736941 700.869231 20.800042 701.179487 20.863196 701.489744 20.926400 701.800000 20.989653 702.110256 21.052954 702.420513 21.116302 702.730769 21.179694 703.041026 21.243130 703.351282 21.306609 703.661538 21.370127 703.971795 21.433685 704.282051 21.497281 704.592308 21.560912 704.902564 21.624579 705.212821 21.688279 705.523077 21.752011 705.833333 21.815773 706.143590 21.879564 706.453846 21.943383 706.764103 22.007228 707.074359 22.071098 707.384615 22.134990 707.694872 22.198905 708.005128 22.262840 708.315385 22.326793 708.625641 22.390764 708.935897 22.454751 709.246154 22.518753 709.556410 22.582767 709.866667 22.646794 710.176923 22.710830 710.487179 22.774875 710.797436 22.838927 711.107692 22.902985 711.417949 22.967048 711.728205 23.031113 712.038462 23.095180 712.038462 540.000000" /></g></g><g class="titles" /><g class="plot overlay" transform="translate(54, 20)"><g class="series serie-0 color-0"><g class="dots"><circle class="dot reactive tooltip-trigger" cx="13.96153846153846" cy="529.6153846153846" r="2.5" /><desc class="value">409,452,007(kWh)</desc><desc class="x top">13.96153846153846</desc><desc class="y top">529.6153846153846</desc><desc class="x_label">2549</desc></g><g class="dots"><circle class="dot reactive tooltip-trigger" cx="91.52564102564101" cy="513.9997431140937" r="2.5" /><desc class="value">418,601,219(kWh)</desc><desc class="x top">91.52564102564101</desc><desc class="y top">513.9997431140937</desc><desc class="x_label">2550</desc></g><g class="dots"><circle class="dot reactive tooltip-trigger" cx="169.08974358974356" cy="517.8970277909073" r="2.5" /><desc class="value">416,317,798(kWh)</desc><desc class="x top">169.08974358974356</desc><desc class="y top">517.8970277909073</desc><desc class="x_label">2551</desc></g><g class="dots"><circle class="dot reactive tooltip-trigger" cx="246.65384615384613" cy="440.6256842629684" r="2.5" /><desc class="value">461,591,116(kWh)</desc><desc class="x top">246.65384615384613</desc><desc class="y top">440.6256842629684</desc><desc class="x_label">2552</desc></g><g class="dots"><circle class="dot reactive tooltip-trigger" cx="324.21794871794873" cy="385.9985358449246" r="2.5" /><desc class="value">493,597,189(kWh)</desc><desc class="x top">324.21794871794873</desc><desc class="y top">385.9985358449246</desc><desc class="x_label">2553</desc></g><g class="dots"><circle class="dot reactive tooltip-trigger" cx="401.78205128205127" cy="336.6347112422452" r="2.5" /><desc class="value">522,519,478(kWh)</desc><desc class="x left top">401.78205128205127</desc><desc class="y left top">336.6347112422452</desc><desc class="x_label">2554</desc></g><g class="dots"><circle class="dot reactive tooltip-trigger" cx="479.3461538461538" cy="104.90238224573733" r="2.5" /><desc class="value">658,291,563(kWh)</desc><desc class="x left">479.3461538461538</desc><desc class="y left">104.90238224573733</desc><desc class="x_label">2555</desc></g><g class="dots"><circle class="dot reactive tooltip-trigger" cx="556.9102564102565" cy="19.37171467482733" r="2.5" /><desc class="value">708,404,023(kWh)</desc><desc class="x left">556.9102564102565</desc><desc class="y left">19.37171467482733</desc><desc class="x_label">2556</desc></g><g class="dots"><circle class="dot reactive tooltip-trigger" cx="634.474358974359" cy="10.854346812640188" r="2.5" /><desc class="value">713,394,353(kWh)</desc><desc class="x left">634.474358974359</desc><desc class="y left">10.854346812640188</desc><desc class="x_label">2557</desc></g><g class="dots"><circle class="dot reactive tooltip-trigger" cx="712.0384615384615" cy="23.095179732406677" r="2.5" /><desc class="value">706,222,443(kWh)</desc><desc class="x left">712.0384615384615</desc><desc class="y left">23.095179732406677</desc><desc class="x_label">2558</desc></g></g></g><g class="plot text-overlay" transform="translate(54, 20)"><g class="series serie-0 color-0" /></g><g class="plot tooltip-overlay" transform="translate(54, 20)"><g class="tooltip" style="opacity: 0" transform="translate(0 0)"><rect class="tooltip-box" height="0" rx="0" ry="0" width="0" /><g class="text" /></g></g></g></svg>