<?xml version='1.0' encoding='utf-8'?>
<svg xmlns:xlink="http://www.w3.org/1999/xlink" class="pygal-chart" id="chart-d73c4721-5993-487e-9b29-096acfa65717" viewBox="0 0 800 600" xmlns="http://www.w3.org/2000/svg"><!--Generated with pygal 2.3.0 (etree) ©Kozea 2012-2016 on 2016-12-08--><!--http://pygal.org--><!--http://github.com/Kozea/pygal--><defs><style type="text/css">#chart-d73c4721-5993-487e-9b29-096acfa65717{-webkit-user-select:none;-webkit-font-smoothing:antialiased;font-family:Consolas,"Liberation Mono",Menlo,Courier,monospace}#chart-d73c4721-5993-487e-9b29-096acfa65717 .title{font-family:Consolas,"Liberation Mono",Menlo,Courier,monospace;font-size:16px}#chart-d73c4721-5993-487e-9b29-096acfa65717 .legends .legend text{font-family:Consolas,"Liberation Mono",Menlo,Courier,monospace;font-size:14px}#chart-d73c4721-5993-487e-9b29-096acfa65717 .axis text{font-family:Consolas,"Liberation Mono",Menlo,Courier,monospace;font-size:10px}#chart-d73c4721-5993-487e-9b29-096acfa65717 .axis text.major{font-family:Consolas,"Liberation Mono",Menlo,Courier,monospace;font-size:10px}#chart-d73c4721-5993-487e-9b29-096acfa65717 .text-overlay text.value{font-family:Consolas,"Liberation Mono",Menlo,Courier,monospace;font-size:16px}#chart-d73c4721-5993-487e-9b29-096acfa65717 .text-overlay text.label{font-family:Consolas,"Liberation Mono",Menlo,Courier,monospace;font-size:10px}#chart-d73c4721-5993-487e-9b29-096acfa65717 .tooltip{font-family:Consolas,"Liberation Mono",Menlo,Courier,monospace;font-size:14px}#chart-d73c4721-5993-487e-9b29-096acfa65717 text.no_data{font-family:Consolas,"Liberation Mono",Menlo,Courier,monospace;font-size:64px}
#chart-d73c4721-5993-487e-9b29-096acfa65717{background-color:rgba(249,249,249,1)}#chart-d73c4721-5993-487e-9b29-096acfa65717 path,#chart-d73c4721-5993-487e-9b29-096acfa65717 line,#chart-d73c4721-5993-487e-9b29-096acfa65717 rect,#chart-d73c4721-5993-487e-9b29-096acfa65717 circle{-webkit-transition:150ms;-moz-transition:150ms;transition:150ms}#chart-d73c4721-5993-487e-9b29-096acfa65717 .graph &gt; .background{fill:rgba(249,249,249,1)}#chart-d73c4721-5993-487e-9b29-096acfa65717 .plot &gt; .background{fill:rgba(255,255,255,1)}#chart-d73c4721-5993-487e-9b29-096acfa65717 .graph{fill:rgba(0,0,0,.87)}#chart-d73c4721-5993-487e-9b29-096acfa65717 text.no_data{fill:rgba(0,0,0,1)}#chart-d73c4721-5993-487e-9b29-096acfa65717 .title{fill:rgba(0,0,0,1)}#chart-d73c4721-5993-487e-9b29-096acfa65717 .legends .legend text{fill:rgba(0,0,0,.87)}#chart-d73c4721-5993-487e-9b29-096acfa65717 .legends .legend:hover text{fill:rgba(0,0,0,1)}#chart-d73c4721-5993-487e-9b29-096acfa65717 .axis .line{stroke:rgba(0,0,0,1)}#chart-d73c4721-5993-487e-9b29-096acfa65717 .axis .guide.line{stroke:rgba(0,0,0,.54)}#chart-d73c4721-5993-487e-9b29-096acfa65717 .axis .major.line{stroke:rgba(0,0,0,.87)}#chart-d73c4721-5993-487e-9b29-096acfa65717 .axis text.major{fill:rgba(0,0,0,1)}#chart-d73c4721-5993-487e-9b29-096acfa65717 .axis.y .guides:hover .guide.line,#chart-d73c4721-5993-487e-9b29-096acfa65717 .line-graph .axis.x .guides:hover .guide.line,#chart-d73c4721-5993-487e-9b29-096acfa65717 .stackedline-graph .axis.x .guides:hover .guide.line,#chart-d73c4721-5993-487e-9b29-096acfa65717 .xy-graph .axis.x .guides:hover .guide.line{stroke:rgba(0,0,0,1)}#chart-d73c4721-5993-487e-9b29-096acfa65717 .axis .guides:hover text{fill:rgba(0,0,0,1)}#chart-d73c4721-5993-487e-9b29-096acfa65717 .reactive{fill-opacity:.7;stroke-opacity:.8}#chart-d73c4721-5993-487e-9b29-096acfa65717 .ci{stroke:rgba(0,0,0,.87)}#chart-d73c4721-5993-487e-9b29-096acfa65717 .reactive.active,#chart-d73c4721-5993-487e-9b29-096acfa65717 .active .reactive{fill-opacity:.8;stroke-opacity:.9;stroke-width:4}#chart-d73c4721-5993-487e-9b29-096acfa65717 .ci .reactive.active{stroke-width:1.5}#chart-d73c4721-5993-487e-9b29-096acfa65717 .series text{fill:rgba(0,0,0,1)}#chart-d73c4721-5993-487e-9b29-096acfa65717 .tooltip rect{fill:rgba(255,255,255,1);stroke:rgba(0,0,0,1);-webkit-transition:opacity 150ms;-moz-transition:opacity 150ms;transition:opacity 150ms}#chart-d73c4721-5993-487e-9b29-096acfa65717 .tooltip .label{fill:rgba(0,0,0,.87)}#chart-d73c4721-5993-487e-9b29-096acfa65717 .tooltip .label{fill:rgba(0,0,0,.87)}#chart-d73c4721-5993-487e-9b29-096acfa65717 .tooltip .legend{font-size:.8em;fill:rgba(0,0,0,.54)}#chart-d73c4721-5993-487e-9b29-096acfa65717 .tooltip .x_label{font-size:.6em;fill:rgba(0,0,0,1)}#chart-d73c4721-5993-487e-9b29-096acfa65717 .tooltip .xlink{font-size:.5em;text-decoration:underline}#chart-d73c4721-5993-487e-9b29-096acfa65717 .tooltip .value{font-size:1.5em}#chart-d73c4721-5993-487e-9b29-096acfa65717 .bound{font-size:.5em}#chart-d73c4721-5993-487e-9b29-096acfa65717 .max-value{font-size:.75em;fill:rgba(0,0,0,.54)}#chart-d73c4721-5993-487e-9b29-096acfa65717 .map-element{fill:rgba(255,255,255,1);stroke:rgba(0,0,0,.54) !important}#chart-d73c4721-5993-487e-9b29-096acfa65717 .map-element .reactive{fill-opacity:inherit;stroke-opacity:inherit}#chart-d73c4721-5993-487e-9b29-096acfa65717 .color-0,#chart-d73c4721-5993-487e-9b29-096acfa65717 .color-0 a:visited{stroke:#e86fa0;fill:#e86fa0}#chart-d73c4721-5993-487e-9b29-096acfa65717 .text-overlay .color-0 text{fill:black}
#chart-d73c4721-5993-487e-9b29-096acfa65717 text.no_data{text-anchor:middle}#chart-d73c4721-5993-487e-9b29-096acfa65717 .guide.line{fill:none}#chart-d73c4721-5993-487e-9b29-096acfa65717 .centered{text-anchor:middle}#chart-d73c4721-5993-487e-9b29-096acfa65717 .title{text-anchor:middle}#chart-d73c4721-5993-487e-9b29-096acfa65717 .legends .legend text{fill-opacity:1}#chart-d73c4721-5993-487e-9b29-096acfa65717 .axis.x text{text-anchor:middle}#chart-d73c4721-5993-487e-9b29-096acfa65717 .axis.x:not(.web) text[transform]{text-anchor:start}#chart-d73c4721-5993-487e-9b29-096acfa65717 .axis.x:not(.web) text[transform].backwards{text-anchor:end}#chart-d73c4721-5993-487e-9b29-096acfa65717 .axis.y text{text-anchor:end}#chart-d73c4721-5993-487e-9b29-096acfa65717 .axis.y text[transform].backwards{text-anchor:start}#chart-d73c4721-5993-487e-9b29-096acfa65717 .axis.y2 text{text-anchor:start}#chart-d73c4721-5993-487e-9b29-096acfa65717 .axis.y2 text[transform].backwards{text-anchor:end}#chart-d73c4721-5993-487e-9b29-096acfa65717 .axis .guide.line{stroke-dasharray:4,4}#chart-d73c4721-5993-487e-9b29-096acfa65717 .axis .major.guide.line{stroke-dasharray:6,6}#chart-d73c4721-5993-487e-9b29-096acfa65717 .horizontal .axis.y .guide.line,#chart-d73c4721-5993-487e-9b29-096acfa65717 .horizontal .axis.y2 .guide.line,#chart-d73c4721-5993-487e-9b29-096acfa65717 .vertical .axis.x .guide.line{opacity:0}#chart-d73c4721-5993-487e-9b29-096acfa65717 .horizontal .axis.always_show .guide.line,#chart-d73c4721-5993-487e-9b29-096acfa65717 .vertical .axis.always_show .guide.line{opacity:1 !important}#chart-d73c4721-5993-487e-9b29-096acfa65717 .axis.y .guides:hover .guide.line,#chart-d73c4721-5993-487e-9b29-096acfa65717 .axis.y2 .guides:hover .guide.line,#chart-d73c4721-5993-487e-9b29-096acfa65717 .axis.x .guides:hover .guide.line{opacity:1}#chart-d73c4721-5993-487e-9b29-096acfa65717 .axis .guides:hover text{opacity:1}#chart-d73c4721-5993-487e-9b29-096acfa65717 .nofill{fill:none}#chart-d73c4721-5993-487e-9b29-096acfa65717 .subtle-fill{fill-opacity:.2}#chart-d73c4721-5993-487e-9b29-096acfa65717 .dot{stroke-width:1px;fill-opacity:1}#chart-d73c4721-5993-487e-9b29-096acfa65717 .dot.active{stroke-width:5px}#chart-d73c4721-5993-487e-9b29-096acfa65717 .dot.negative{fill:transparent}#chart-d73c4721-5993-487e-9b29-096acfa65717 text,#chart-d73c4721-5993-487e-9b29-096acfa65717 tspan{stroke:none !important}#chart-d73c4721-5993-487e-9b29-096acfa65717 .series text.active{opacity:1}#chart-d73c4721-5993-487e-9b29-096acfa65717 .tooltip rect{fill-opacity:.95;stroke-width:.5}#chart-d73c4721-5993-487e-9b29-096acfa65717 .tooltip text{fill-opacity:1}#chart-d73c4721-5993-487e-9b29-096acfa65717 .showable{visibility:hidden}#chart-d73c4721-5993-487e-9b29-096acfa65717 .showable.shown{visibility:visible}#chart-d73c4721-5993-487e-9b29-096acfa65717 .gauge-background{fill:rgba(229,229,229,1);stroke:none}#chart-d73c4721-5993-487e-9b29-096acfa65717 .bg-lines{stroke:rgba(249,249,249,1);stroke-width:2px}</style><script type="text/javascript">window.pygal = window.pygal || {};window.pygal.config = window.pygal.config || {};window.pygal.config['d73c4721-5993-487e-9b29-096acfa65717'] = {"no_data_text": "No data", "no_prefix": false, "xrange": null, "print_values_position": "center", "truncate_label": null, "x_labels": ["2549", "2550", "2551", "2552", "2553", "2554", "2555", "2556", "2557", "2558"], "title": null, "force_uri_protocol": "https", "defs": [], "formatter": null, "classes": ["pygal-chart"], "y_labels": null, "rounded_bars": null, "explicit_size": false, "x_labels_major_every": null, "legend_at_bottom_columns": null, "stroke_style": null, "half_pie": false, "spacing": 10, "tooltip_fancy_mode": true, "inverse_y_axis": false, "width": 800, "inner_radius": 0, "interpolation_parameters": {}, "tooltip_border_radius": 0, "style": {"no_data_font_family": "Consolas, \"Liberation Mono\", Menlo, Courier, monospace", "tooltip_font_size": 14, "tooltip_font_family": "Consolas, \"Liberation Mono\", Menlo, Courier, monospace", "stroke_opacity_hover": ".9", "legend_font_family": "Consolas, \"Liberation Mono\", Menlo, Courier, monospace", "font_family": "Consolas, \"Liberation Mono\", Menlo, Courier, monospace", "title_font_family": "Consolas, \"Liberation Mono\", Menlo, Courier, monospace", "background": "rgba(249, 249, 249, 1)", "stroke_opacity": ".8", "foreground": "rgba(0, 0, 0, .87)", "value_background": "rgba(229, 229, 229, 1)", "guide_stroke_dasharray": "4,4", "foreground_subtle": "rgba(0, 0, 0, .54)", "opacity_hover": ".8", "value_font_family": "Consolas, \"Liberation Mono\", Menlo, Courier, monospace", "value_label_font_size": 10, "plot_background": "rgba(255, 255, 255, 1)", "ci_colors": [], "label_font_size": 10, "major_label_font_size": 10, "title_font_size": 16, "no_data_font_size": 64, "value_font_size": 16, "value_colors": [], "label_font_family": "Consolas, \"Liberation Mono\", Menlo, Courier, monospace", "major_guide_stroke_dasharray": "6,6", "transition": "150ms", "foreground_strong": "rgba(0, 0, 0, 1)", "colors": ["#e86fa0", "#e88f6f", "#e8df6f", "#a0e86f", "#6fe88f", "#6fe8df", "#6fa0e8", "#8f6fe8", "#df6fe8", "#e86fa0"], "opacity": ".7", "legend_font_size": 14, "value_label_font_family": "Consolas, \"Liberation Mono\", Menlo, Courier, monospace", "major_label_font_family": "Consolas, \"Liberation Mono\", Menlo, Courier, monospace"}, "x_labels_major_count": null, "interpolation_precision": 250, "missing_value_fill_truncation": "x", "stack_from_top": false, "truncate_legend": null, "show_minor_x_labels": true, "print_zeroes": true, "css": ["file://style.css", "file://graph.css"], "y_label_rotation": 0, "legend_at_bottom": false, "print_values": false, "margin_top": null, "max_scale": 16, "allow_interruptions": false, "show_x_labels": true, "strict": false, "show_x_guides": false, "stroke": true, "margin_left": null, "dynamic_print_values": false, "print_labels": false, "show_y_labels": true, "x_labels_major": null, "range": null, "x_label_rotation": 0, "margin": 20, "zero": 0, "include_x_axis": false, "height": 600, "show_minor_y_labels": true, "show_dots": true, "interpolate": "cubic", "show_y_guides": true, "y_labels_major": null, "box_mode": "extremes", "margin_bottom": null, "order_min": null, "legend_box_size": 12, "fill": true, "show_only_major_dots": false, "js": ["//kozea.github.io/pygal.js/2.0.x/pygal-tooltips.min.js"], "x_title": null, "y_labels_major_every": null, "y_labels_major_count": null, "disable_xml_declaration": false, "y_title": null, "logarithmic": false, "pretty_print": false, "min_scale": 4, "dots_size": 2.5, "margin_right": null, "legends": [null], "secondary_range": null, "show_legend": false}</script><script type="text/javascript" xlink:href="https://kozea.github.io/pygal.js/2.0.x/pygal-tooltips.min.js" /></defs><title>Pygal</title><g class="graph stackedline-graph vertical"><rect class="background" height="600" width="800" x="0" y="0" /><g class="plot" transform="translate(54, 20)"><rect class="background" height="540" width="726.0" x="0" y="0" /><g class="axis y"><path class="line" d="M0.000000 540.000000 h726.000000" /><g class="guides"><path class="guide line" d="M0.000000 479.934439 h726.000000" /><text class="" x="-5" y="483.4344385905448">260M</text><title>260M</title></g><g class="guides"><path class="guide line" d="M0.000000 424.115230 h726.000000" /><text class="" x="-5" y="427.61523003090883">280M</text><title>280M</title></g><g class="guides"><path class="major guide line" d="M0.000000 368.296021 h726.000000" /><text class="major" x="-5" y="371.79602147127287">300M</text><title>300M</title></g><g class="guides"><path class="guide line" d="M0.000000 312.476813 h726.000000" /><text class="" x="-5" y="315.9768129116369">320M</text><title>320M</title></g><g class="guides"><path class="guide line" d="M0.000000 256.657604 h726.000000" /><text class="" x="-5" y="260.1576043520009">340M</text><title>340M</title></g><g class="guides"><path class="guide line" d="M0.000000 200.838396 h726.000000" /><text class="" x="-5" y="204.3383957923649">360M</text><title>360M</title></g><g class="guides"><path class="guide line" d="M0.000000 145.019187 h726.000000" /><text class="" x="-5" y="148.51918723272894">380M</text><title>380M</title></g><g class="guides"><path class="major guide line" d="M0.000000 89.199979 h726.000000" /><text class="major" x="-5" y="92.69997867309291">400M</text><title>400M</title></g><g class="guides"><path class="guide line" d="M0.000000 33.380770 h726.000000" /><text class="" x="-5" y="36.88077011345695">420M</text><title>420M</title></g></g><g class="axis x"><g class="guides"><path class="line" d="M13.961538 0.000000 v540.000000" /><text class="" x="13.96153846153846" y="555.0">2549</text></g><g class="guides"><path class="guide line" d="M91.525641 0.000000 v540.000000" /><text class="" x="91.52564102564101" y="555.0">2550</text></g><g class="guides"><path class="guide line" d="M169.089744 0.000000 v540.000000" /><text class="" x="169.08974358974356" y="555.0">2551</text></g><g class="guides"><path class="guide line" d="M246.653846 0.000000 v540.000000" /><text class="" x="246.65384615384613" y="555.0">2552</text></g><g class="guides"><path class="guide line" d="M324.217949 0.000000 v540.000000" /><text class="" x="324.21794871794873" y="555.0">2553</text></g><g class="guides"><path class="guide line" d="M401.782051 0.000000 v540.000000" /><text class="" x="401.78205128205127" y="555.0">2554</text></g><g class="guides"><path class="guide line" d="M479.346154 0.000000 v540.000000" /><text class="" x="479.3461538461538" y="555.0">2555</text></g><g class="guides"><path class="guide line" d="M556.910256 0.000000 v540.000000" /><text class="" x="556.9102564102565" y="555.0">2556</text></g><g class="guides"><path class="guide line" d="M634.474359 0.000000 v540.000000" /><text class="" x="634.474358974359" y="555.0">2557</text></g><g class="guides"><path class="guide line" d="M712.038462 0.000000 v540.000000" /><text class="" x="712.0384615384615" y="555.0">2558</text></g></g><g class="series serie-0 color-0"><path class="line reactive" d="M13.961538 540.000000 L13.961538 529.615385 14.271795 529.275454 14.582051 528.935528 14.892308 528.595611 15.202564 528.255706 15.512821 527.915818 15.823077 527.575951 16.133333 527.236110 16.443590 526.896298 16.753846 526.556519 17.064103 526.216779 17.374359 525.877081 17.684615 525.537430 17.994872 525.197829 18.305128 524.858283 18.615385 524.518796 18.925641 524.179373 19.235897 523.840017 19.546154 523.500733 19.856410 523.161525 20.166667 522.822397 20.476923 522.483354 20.787179 522.144400 21.097436 521.805538 21.407692 521.466774 21.717949 521.128110 22.028205 520.789553 22.338462 520.451105 22.648718 520.112771 22.958974 519.774556 23.269231 519.436463 23.579487 519.098497 23.889744 518.760662 24.200000 518.422962 24.510256 518.085401 24.820513 517.747984 25.130769 517.410714 25.441026 517.073597 25.751282 516.736636 26.061538 516.399836 26.371795 516.063200 26.682051 515.726733 26.992308 515.390439 27.302564 515.054323 27.612821 514.718389 27.923077 514.382640 28.233333 514.047081 28.543590 513.711717 28.853846 513.376551 29.164103 513.041588 29.474359 512.706831 29.784615 512.372286 30.094872 512.037957 30.405128 511.703847 30.715385 511.369961 31.025641 511.036303 31.335897 510.702877 31.646154 510.369688 31.956410 510.036739 32.266667 509.704036 32.576923 509.371582 32.887179 509.039381 33.197436 508.707437 33.507692 508.375756 33.817949 508.044341 34.128205 507.713196 34.438462 507.382325 34.748718 507.051734 35.058974 506.721425 35.369231 506.391404 35.679487 506.061674 35.989744 505.732239 36.300000 505.403105 36.610256 505.074275 36.920513 504.745753 37.230769 504.417543 37.541026 504.089650 37.851282 503.762079 38.161538 503.434832 38.471795 503.107915 38.782051 502.781332 39.092308 502.455086 39.402564 502.129183 39.712821 501.803626 40.023077 501.478420 40.333333 501.153568 40.643590 500.829075 40.953846 500.504946 41.264103 500.181184 41.574359 499.857794 41.884615 499.534780 42.194872 499.212145 42.505128 498.889896 42.815385 498.568034 43.125641 498.246566 43.435897 497.925495 43.746154 497.604824 44.056410 497.284560 44.366667 496.964705 44.676923 496.645264 44.987179 496.326241 45.297436 496.007640 45.607692 495.689466 45.917949 495.371723 46.228205 495.054415 46.538462 494.737546 46.848718 494.421121 47.158974 494.105143 47.469231 493.789617 47.779487 493.474548 48.089744 493.159939 48.400000 492.845794 48.710256 492.532118 49.020513 492.218916 49.330769 491.906190 49.641026 491.593946 49.951282 491.282188 50.261538 490.970920 50.571795 490.660146 50.882051 490.349870 51.192308 490.040097 51.502564 489.730831 51.812821 489.422076 52.123077 489.113836 52.433333 488.806116 52.743590 488.498919 53.053846 488.192251 53.364103 487.886114 53.674359 487.580514 53.984615 487.275455 54.294872 486.970940 54.605128 486.666975 54.915385 486.363563 55.225641 486.060708 55.535897 485.758415 55.846154 485.456689 56.156410 485.155532 56.466667 484.854950 56.776923 484.554946 57.087179 484.255525 57.397436 483.956692 57.707692 483.658449 58.017949 483.360803 58.328205 483.063755 58.638462 482.767312 58.948718 482.471478 59.258974 482.176255 59.569231 481.881650 59.879487 481.587665 60.189744 481.294305 60.500000 481.001575 60.810256 480.709478 61.120513 480.418019 61.430769 480.127202 61.741026 479.837031 62.051282 479.547510 62.361538 479.258645 62.671795 478.970438 62.982051 478.682894 63.292308 478.396018 63.602564 478.109813 63.912821 477.824284 64.223077 477.539435 64.533333 477.255270 64.843590 476.971794 65.153846 476.689010 65.464103 476.406924 65.774359 476.125538 66.084615 475.844858 66.394872 475.564887 66.705128 475.285631 67.015385 475.007092 67.325641 474.729275 67.635897 474.452185 67.946154 474.175826 68.256410 473.900202 68.566667 473.625316 68.876923 473.351174 69.187179 473.077780 69.497436 472.805138 69.807692 472.533251 70.117949 472.262125 70.428205 471.991763 70.738462 471.722170 71.048718 471.453350 71.358974 471.185307 71.669231 470.918046 71.979487 470.651570 72.289744 470.385884 72.600000 470.120992 72.910256 469.856898 73.220513 469.593607 73.530769 469.331123 73.841026 469.069449 74.151282 468.808591 74.461538 468.548552 74.771795 468.289336 75.082051 468.030949 75.392308 467.773393 75.702564 467.516674 76.012821 467.260796 76.323077 467.005762 76.633333 466.751577 76.943590 466.498245 77.253846 466.245771 77.564103 465.994158 77.874359 465.743411 78.184615 465.493534 78.494872 465.244532 78.805128 464.996408 79.115385 464.749167 79.425641 464.502813 79.735897 464.257350 80.046154 464.012782 80.356410 463.769114 80.666667 463.526350 80.976923 463.284494 81.287179 463.043551 81.597436 462.803524 81.907692 462.564417 82.217949 462.326236 82.528205 462.088984 82.838462 461.852665 83.148718 461.617284 83.458974 461.382845 83.769231 461.149352 84.079487 460.916809 84.389744 460.685221 84.700000 460.454592 85.010256 460.224925 85.320513 459.996226 85.630769 459.768499 85.941026 459.541747 86.251282 459.315975 86.561538 459.091187 86.871795 458.867387 87.182051 458.644580 87.492308 458.422770 87.802564 458.201960 88.112821 457.982156 88.423077 457.763362 88.733333 457.545581 89.043590 457.328818 89.353846 457.113077 89.664103 456.898363 89.974359 456.684679 90.284615 456.472030 90.594872 456.260420 90.905128 456.049853 91.215385 455.840334 91.525641 455.631866 91.835897 455.424453 92.146154 455.218090 92.456410 455.012771 92.766667 454.808492 93.076923 454.605247 93.387179 454.403029 93.697436 454.201833 94.007692 454.001655 94.317949 453.802487 94.628205 453.604325 94.938462 453.407163 95.248718 453.210995 95.558974 453.015815 95.869231 452.821619 96.179487 452.628400 96.489744 452.436153 96.800000 452.244873 97.110256 452.054553 97.420513 451.865188 97.730769 451.676773 98.041026 451.489301 98.351282 451.302768 98.661538 451.117167 98.971795 450.932493 99.282051 450.748741 99.592308 450.565905 99.902564 450.383979 100.212821 450.202957 100.523077 450.022835 100.833333 449.843606 101.143590 449.665264 101.453846 449.487805 101.764103 449.311223 102.074359 449.135512 102.384615 448.960666 102.694872 448.786679 103.005128 448.613547 103.315385 448.441264 103.625641 448.269824 103.935897 448.099221 104.246154 447.929449 104.556410 447.760504 104.866667 447.592380 105.176923 447.425070 105.487179 447.258570 105.797436 447.092874 106.107692 446.927976 106.417949 446.763870 106.728205 446.600551 107.038462 446.438014 107.348718 446.276252 107.658974 446.115261 107.969231 445.955034 108.279487 445.795566 108.589744 445.636851 108.900000 445.478884 109.210256 445.321660 109.520513 445.165171 109.830769 445.009414 110.141026 444.854382 110.451282 444.700070 110.761538 444.546471 111.071795 444.393582 111.382051 444.241395 111.692308 444.089905 112.002564 443.939107 112.312821 443.788996 112.623077 443.639564 112.933333 443.490808 113.243590 443.342721 113.553846 443.195298 113.864103 443.048532 114.174359 442.902419 114.484615 442.756953 114.794872 442.612129 115.105128 442.467940 115.415385 442.324381 115.725641 442.181446 116.035897 442.039130 116.346154 441.897428 116.656410 441.756333 116.966667 441.615840 117.276923 441.475944 117.587179 441.336638 117.897436 441.197918 118.207692 441.059777 118.517949 440.922211 118.828205 440.785212 119.138462 440.648777 119.448718 440.512899 119.758974 440.377572 120.069231 440.242791 120.379487 440.108551 120.689744 439.974846 121.000000 439.841670 121.310256 439.709017 121.620513 439.576882 121.930769 439.445260 122.241026 439.314144 122.551282 439.183530 122.861538 439.053411 123.171795 438.923782 123.482051 438.794638 123.792308 438.665972 124.102564 438.537780 124.412821 438.410055 124.723077 438.282792 125.033333 438.155985 125.343590 438.029629 125.653846 437.903718 125.964103 437.778247 126.274359 437.653210 126.584615 437.528601 126.894872 437.404415 127.205128 437.280645 127.515385 437.157288 127.825641 437.034336 128.135897 436.911785 128.446154 436.789628 128.756410 436.667860 129.066667 436.546476 129.376923 436.425470 129.687179 436.304836 129.997436 436.184569 130.307692 436.064663 130.617949 435.945112 130.928205 435.825911 131.238462 435.707055 131.548718 435.588537 131.858974 435.470352 132.169231 435.352495 132.479487 435.234959 132.789744 435.117740 133.100000 435.000832 133.410256 434.884228 133.720513 434.767924 134.030769 434.651914 134.341026 434.536192 134.651282 434.420752 134.961538 434.305590 135.271795 434.190699 135.582051 434.076074 135.892308 433.961709 136.202564 433.847599 136.512821 433.733738 136.823077 433.620120 137.133333 433.506740 137.443590 433.393592 137.753846 433.280671 138.064103 433.167971 138.374359 433.055486 138.684615 432.943211 138.994872 432.831140 139.305128 432.719268 139.615385 432.607589 139.925641 432.496097 140.235897 432.384787 140.546154 432.273653 140.856410 432.162690 141.166667 432.051891 141.476923 431.941252 141.787179 431.830767 142.097436 431.720430 142.407692 431.610235 142.717949 431.500177 143.028205 431.390251 143.338462 431.280450 143.648718 431.170770 143.958974 431.061204 144.269231 430.951747 144.579487 430.842393 144.889744 430.733137 145.200000 430.623974 145.510256 430.514896 145.820513 430.405900 146.130769 430.296979 146.441026 430.188127 146.751282 430.079340 147.061538 429.970611 147.371795 429.861935 147.682051 429.753306 147.992308 429.644719 148.302564 429.536168 148.612821 429.427648 148.923077 429.319153 149.233333 429.210676 149.543590 429.102214 149.853846 428.993759 150.164103 428.885307 150.474359 428.776852 150.784615 428.668388 151.094872 428.559909 151.405128 428.451411 151.715385 428.342887 152.025641 428.234332 152.335897 428.125740 152.646154 428.017106 152.956410 427.908424 153.266667 427.799688 153.576923 427.690893 153.887179 427.582034 154.197436 427.473104 154.507692 427.364097 154.817949 427.255010 155.128205 427.145835 155.438462 427.036567 155.748718 426.927201 156.058974 426.817731 156.369231 426.708151 156.679487 426.598457 156.989744 426.488641 157.300000 426.378699 157.610256 426.268624 157.920513 426.158413 158.230769 426.048058 158.541026 425.937554 158.851282 425.826895 159.161538 425.716077 159.471795 425.605093 159.782051 425.493938 160.092308 425.382606 160.402564 425.271091 160.712821 425.159388 161.023077 425.047492 161.333333 424.935396 161.643590 424.823096 161.953846 424.710585 162.264103 424.597858 162.574359 424.484909 162.884615 424.371733 163.194872 424.258324 163.505128 424.144677 163.815385 424.030786 164.125641 423.916644 164.435897 423.802248 164.746154 423.687590 165.056410 423.572667 165.366667 423.457471 165.676923 423.341997 165.987179 423.226240 166.297436 423.110194 166.607692 422.993853 166.917949 422.877213 167.228205 422.760266 167.538462 422.643008 167.848718 422.525434 168.158974 422.407536 168.469231 422.289311 168.779487 422.170752 169.089744 422.051853 169.400000 421.932611 169.710256 421.813021 170.020513 421.693081 170.330769 421.572790 170.641026 421.452145 170.951282 421.331145 171.261538 421.209786 171.571795 421.088067 171.882051 420.965985 172.192308 420.843539 172.502564 420.720726 172.812821 420.597543 173.123077 420.473989 173.433333 420.350062 173.743590 420.225759 174.053846 420.101078 174.364103 419.976017 174.674359 419.850574 174.984615 419.724746 175.294872 419.598532 175.605128 419.471928 175.915385 419.344934 176.225641 419.217546 176.535897 419.089763 176.846154 418.961582 177.156410 418.833001 177.466667 418.704018 177.776923 418.574631 178.087179 418.444838 178.397436 418.314635 178.707692 418.184022 179.017949 418.052996 179.328205 417.921555 179.638462 417.789696 179.948718 417.657417 180.258974 417.524717 180.569231 417.391593 180.879487 417.258042 181.189744 417.124063 181.500000 416.989654 181.810256 416.854811 182.120513 416.719534 182.430769 416.583819 182.741026 416.447665 183.051282 416.311069 183.361538 416.174030 183.671795 416.036544 183.982051 415.898611 184.292308 415.760226 184.602564 415.621390 184.912821 415.482098 185.223077 415.342350 185.533333 415.202142 185.843590 415.061473 186.153846 414.920341 186.464103 414.778743 186.774359 414.636676 187.084615 414.494140 187.394872 414.351131 187.705128 414.207648 188.015385 414.063688 188.325641 413.919249 188.635897 413.774329 188.946154 413.628925 189.256410 413.483036 189.566667 413.336659 189.876923 413.189793 190.187179 413.042434 190.497436 412.894581 190.807692 412.746231 191.117949 412.597383 191.428205 412.448034 191.738462 412.298181 192.048718 412.147824 192.358974 411.996959 192.669231 411.845584 192.979487 411.693697 193.289744 411.541296 193.600000 411.388379 193.910256 411.234943 194.220513 411.080987 194.530769 410.926508 194.841026 410.771504 195.151282 410.615972 195.461538 410.459912 195.771795 410.303319 196.082051 410.146193 196.392308 409.988530 196.702564 409.830329 197.012821 409.671588 197.323077 409.512304 197.633333 409.352476 197.943590 409.192100 198.253846 409.031175 198.564103 408.869699 198.874359 408.707669 199.184615 408.545083 199.494872 408.381939 199.805128 408.218235 200.115385 408.053969 200.425641 407.889138 200.735897 407.723740 201.046154 407.557773 201.356410 407.391235 201.666667 407.224124 201.976923 407.056437 202.287179 406.888172 202.597436 406.719327 202.907692 406.549901 203.217949 406.379889 203.528205 406.209291 203.838462 406.038105 204.148718 405.866327 204.458974 405.693956 204.769231 405.520990 205.079487 405.347427 205.389744 405.173263 205.700000 404.998498 206.010256 404.823129 206.320513 404.647153 206.630769 404.470569 206.941026 404.293373 207.251282 404.115565 207.561538 403.937142 207.871795 403.758102 208.182051 403.578442 208.492308 403.398160 208.802564 403.217255 209.112821 403.035723 209.423077 402.853563 209.733333 402.670773 210.043590 402.487350 210.353846 402.303292 210.664103 402.118597 210.974359 401.933262 211.284615 401.747286 211.594872 401.560667 211.905128 401.373401 212.215385 401.185488 212.525641 400.996924 212.835897 400.807708 213.146154 400.617837 213.456410 400.427309 213.766667 400.236122 214.076923 400.044274 214.387179 399.851763 214.697436 399.658586 215.007692 399.464741 215.317949 399.270226 215.628205 399.075039 215.938462 398.879177 216.248718 398.682639 216.558974 398.485422 216.869231 398.287524 217.179487 398.088943 217.489744 397.889676 217.800000 397.689722 218.110256 397.489078 218.420513 397.287741 218.730769 397.085711 219.041026 396.882984 219.351282 396.679559 219.661538 396.475433 219.971795 396.270604 220.282051 396.065070 220.592308 395.858828 220.902564 395.651877 221.212821 395.444214 221.523077 395.235838 221.833333 395.026745 222.143590 394.816933 222.453846 394.606401 222.764103 394.395147 223.074359 394.183167 223.384615 393.970460 223.694872 393.757024 224.005128 393.542857 224.315385 393.327956 224.625641 393.112318 224.935897 392.895943 225.246154 392.678827 225.556410 392.460969 225.866667 392.242366 226.176923 392.023016 226.487179 391.802917 226.797436 391.582067 227.107692 391.360464 227.417949 391.138104 227.728205 390.914987 228.038462 390.691109 228.348718 390.466470 228.658974 390.241066 228.969231 390.014895 229.279487 389.787955 229.589744 389.560245 229.900000 389.331761 230.210256 389.102501 230.520513 388.872464 230.830769 388.641647 231.141026 388.410048 231.451282 388.177665 231.761538 387.944495 232.071795 387.710537 232.382051 387.475787 232.692308 387.240245 233.002564 387.003908 233.312821 386.766773 233.623077 386.528839 233.933333 386.290102 234.243590 386.050562 234.553846 385.810215 234.864103 385.569061 235.174359 385.327095 235.484615 385.084317 235.794872 384.840723 236.105128 384.596313 236.415385 384.351083 236.725641 384.105031 237.035897 383.858156 237.346154 383.610455 237.656410 383.361926 237.966667 383.112566 238.276923 382.862373 238.587179 382.611346 238.897436 382.359482 239.207692 382.106779 239.517949 381.853235 239.828205 381.598846 240.138462 381.343613 240.448718 381.087531 240.758974 380.830599 241.069231 380.572815 241.379487 380.314176 241.689744 380.054680 242.000000 379.794326 242.310256 379.533110 242.620513 379.271031 242.930769 379.008087 243.241026 378.744275 243.551282 378.479593 243.861538 378.214039 244.171795 377.947610 244.482051 377.680305 244.792308 377.412122 245.102564 377.143057 245.412821 376.873110 245.723077 376.602277 246.033333 376.330556 246.343590 376.057946 246.653846 375.784445 246.964103 375.510050 247.274359 375.234770 247.584615 374.958612 247.894872 374.681583 248.205128 374.403693 248.515385 374.124948 248.825641 373.845357 249.135897 373.564929 249.446154 373.283670 249.756410 373.001589 250.066667 372.718694 250.376923 372.434993 250.687179 372.150494 250.997436 371.865204 251.307692 371.579133 251.617949 371.292287 251.928205 371.004676 252.238462 370.716306 252.548718 370.427186 252.858974 370.137325 253.169231 369.846729 253.479487 369.555406 253.789744 369.263366 254.100000 368.970616 254.410256 368.677163 254.720513 368.383017 255.030769 368.088184 255.341026 367.792673 255.651282 367.496492 255.961538 367.199649 256.271795 366.902152 256.582051 366.604009 256.892308 366.305227 257.202564 366.005816 257.512821 365.705782 257.823077 365.405134 258.133333 365.103880 258.443590 364.802028 258.753846 364.499585 259.064103 364.196561 259.374359 363.892962 259.684615 363.588798 259.994872 363.284075 260.305128 362.978802 260.615385 362.672986 260.925641 362.366637 261.235897 362.059761 261.546154 361.752367 261.856410 361.444464 262.166667 361.136057 262.476923 360.827157 262.787179 360.517771 263.097436 360.207906 263.407692 359.897571 263.717949 359.586774 264.028205 359.275523 264.338462 358.963826 264.648718 358.651690 264.958974 358.339125 265.269231 358.026137 265.579487 357.712735 265.889744 357.398926 266.200000 357.084720 266.510256 356.770123 266.820513 356.455144 267.130769 356.139791 267.441026 355.824072 267.751282 355.507994 268.061538 355.191566 268.371795 354.874796 268.682051 354.557692 268.992308 354.240262 269.302564 353.922513 269.612821 353.604454 269.923077 353.286093 270.233333 352.967438 270.543590 352.648496 270.853846 352.329277 271.164103 352.009787 271.474359 351.690034 271.784615 351.370028 272.094872 351.049775 272.405128 350.729284 272.715385 350.408563 273.025641 350.087620 273.335897 349.766462 273.646154 349.445098 273.956410 349.123536 274.266667 348.801783 274.576923 348.479849 274.887179 348.157740 275.197436 347.835465 275.507692 347.513031 275.817949 347.190447 276.128205 346.867721 276.438462 346.544861 276.748718 346.221874 277.058974 345.898770 277.369231 345.575554 277.679487 345.252237 277.989744 344.928825 278.300000 344.605327 278.610256 344.281751 278.920513 343.958105 279.230769 343.634396 279.541026 343.310633 279.851282 342.986823 280.161538 342.662976 280.471795 342.339098 280.782051 342.015197 281.092308 341.691283 281.402564 341.367362 281.712821 341.043443 282.023077 340.719533 282.333333 340.395641 282.643590 340.071775 282.953846 339.747943 283.264103 339.424152 283.574359 339.100411 283.884615 338.776727 284.194872 338.453109 284.505128 338.129565 284.815385 337.806103 285.125641 337.482730 285.435897 337.159455 285.746154 336.836286 286.056410 336.513230 286.366667 336.190296 286.676923 335.867492 286.987179 335.544825 287.297436 335.222304 287.607692 334.899936 287.917949 334.577730 288.228205 334.255694 288.538462 333.933836 288.848718 333.612163 289.158974 333.290684 289.469231 332.969406 289.779487 332.648338 290.089744 332.327488 290.400000 332.006863 290.710256 331.686472 291.020513 331.366323 291.330769 331.046423 291.641026 330.726781 291.951282 330.407404 292.261538 330.088301 292.571795 329.769480 292.882051 329.450948 293.192308 329.132714 293.502564 328.814786 293.812821 328.497171 294.123077 328.179878 294.433333 327.862914 294.743590 327.546288 295.053846 327.230007 295.364103 326.914081 295.674359 326.598515 295.984615 326.283320 296.294872 325.968502 296.605128 325.654069 296.915385 325.340030 297.225641 325.026393 297.535897 324.713165 297.846154 324.400355 298.156410 324.087971 298.466667 323.776020 298.776923 323.464510 299.087179 323.153450 299.397436 322.842848 299.707692 322.532711 300.017949 322.223048 300.328205 321.913867 300.638462 321.605175 300.948718 321.296980 301.258974 320.989291 301.569231 320.682116 301.879487 320.375462 302.189744 320.069338 302.500000 319.763751 302.810256 319.458710 303.120513 319.154223 303.430769 318.850297 303.741026 318.546940 304.051282 318.244161 304.361538 317.941968 304.671795 317.640368 304.982051 317.339369 305.292308 317.038981 305.602564 316.739209 305.912821 316.440063 306.223077 316.141551 306.533333 315.843680 306.843590 315.546459 307.153846 315.249896 307.464103 314.953997 307.774359 314.658773 308.084615 314.364230 308.394872 314.070376 308.705128 313.777220 309.015385 313.484769 309.325641 313.193032 309.635897 312.902016 309.946154 312.611730 310.256410 312.322181 310.566667 312.033378 310.876923 311.745329 311.187179 311.458040 311.497436 311.171522 311.807692 310.885781 312.117949 310.600825 312.428205 310.316663 312.738462 310.033302 313.048718 309.750751 313.358974 309.469017 313.669231 309.188108 313.979487 308.908033 314.289744 308.628800 314.600000 308.350416 314.910256 308.072890 315.220513 307.796229 315.530769 307.520441 315.841026 307.245535 316.151282 306.971518 316.461538 306.698399 316.771795 306.426185 317.082051 306.154885 317.392308 305.884506 317.702564 305.615057 318.012821 305.346545 318.323077 305.078978 318.633333 304.812365 318.943590 304.546713 319.253846 304.282031 319.564103 304.018326 319.874359 303.755607 320.184615 303.493881 320.494872 303.233157 320.805128 302.973441 321.115385 302.714744 321.425641 302.457072 321.735897 302.200433 322.046154 301.944835 322.356410 301.690287 322.666667 301.436797 322.976923 301.184371 323.287179 300.933020 323.597436 300.682749 323.907692 300.433568 324.217949 300.185485 324.528205 299.938504 324.838462 299.692620 325.148718 299.447824 325.458974 299.204109 325.769231 298.961465 326.079487 298.719885 326.389744 298.479359 326.700000 298.239879 327.010256 298.001438 327.320513 297.764026 327.630769 297.527635 327.941026 297.292257 328.251282 297.057882 328.561538 296.824504 328.871795 296.592113 329.182051 296.360700 329.492308 296.130258 329.802564 295.900778 330.112821 295.672252 330.423077 295.444670 330.733333 295.218026 331.043590 294.992309 331.353846 294.767512 331.664103 294.543627 331.974359 294.320645 332.284615 294.098557 332.594872 293.877355 332.905128 293.657030 333.215385 293.437575 333.525641 293.218981 333.835897 293.001239 334.146154 292.784341 334.456410 292.568278 334.766667 292.353042 335.076923 292.138625 335.387179 291.925018 335.697436 291.712212 336.007692 291.500200 336.317949 291.288973 336.628205 291.078521 336.938462 290.868838 337.248718 290.659915 337.558974 290.451742 337.869231 290.244312 338.179487 290.037616 338.489744 289.831646 338.800000 289.626394 339.110256 289.421850 339.420513 289.218007 339.730769 289.014855 340.041026 288.812387 340.351282 288.610595 340.661538 288.409469 340.971795 288.209001 341.282051 288.009183 341.592308 287.810006 341.902564 287.611463 342.212821 287.413544 342.523077 287.216241 342.833333 287.019545 343.143590 286.823449 343.453846 286.627944 343.764103 286.433021 344.074359 286.238671 344.384615 286.044888 344.694872 285.851661 345.005128 285.658983 345.315385 285.466845 345.625641 285.275239 345.935897 285.084156 346.246154 284.893587 346.556410 284.703526 346.866667 284.513962 347.176923 284.324887 347.487179 284.136294 347.797436 283.948174 348.107692 283.760517 348.417949 283.573317 348.728205 283.386563 349.038462 283.200249 349.348718 283.014365 349.658974 282.828903 349.969231 282.643855 350.279487 282.459212 350.589744 282.274966 350.900000 282.091108 351.210256 281.907629 351.520513 281.724522 351.830769 281.541779 352.141026 281.359389 352.451282 281.177346 352.761538 280.995641 353.071795 280.814264 353.382051 280.633209 353.692308 280.452465 354.002564 280.272026 354.312821 280.091882 354.623077 279.912026 354.933333 279.732448 355.243590 279.553140 355.553846 279.374093 355.864103 279.195300 356.174359 279.016752 356.484615 278.838441 356.794872 278.660357 357.105128 278.482493 357.415385 278.304840 357.725641 278.127390 358.035897 277.950134 358.346154 277.773063 358.656410 277.596171 358.966667 277.419447 359.276923 277.242883 359.587179 277.066472 359.897436 276.890204 360.207692 276.714071 360.517949 276.538066 360.828205 276.362178 361.138462 276.186400 361.448718 276.010724 361.758974 275.835141 362.069231 275.659642 362.379487 275.484220 362.689744 275.308865 363.000000 275.133570 363.310256 274.958325 363.620513 274.783122 363.930769 274.607954 364.241026 274.432811 364.551282 274.257685 364.861538 274.082568 365.171795 273.907451 365.482051 273.732326 365.792308 273.557184 366.102564 273.382017 366.412821 273.206816 366.723077 273.031574 367.033333 272.856281 367.343590 272.680929 367.653846 272.505510 367.964103 272.330015 368.274359 272.154436 368.584615 271.978765 368.894872 271.802992 369.205128 271.627110 369.515385 271.451110 369.825641 271.274983 370.135897 271.098722 370.446154 270.922318 370.756410 270.745762 371.066667 270.569046 371.376923 270.392161 371.687179 270.215099 371.997436 270.037852 372.307692 269.860411 372.617949 269.682768 372.928205 269.504914 373.238462 269.326841 373.548718 269.148541 373.858974 268.970004 374.169231 268.791223 374.479487 268.612189 374.789744 268.432894 375.100000 268.253328 375.410256 268.073485 375.720513 267.893355 376.030769 267.712930 376.341026 267.532202 376.651282 267.351161 376.961538 267.169800 377.271795 266.988110 377.582051 266.806083 377.892308 266.623711 378.202564 266.440984 378.512821 266.257894 378.823077 266.074434 379.133333 265.890594 379.443590 265.706366 379.753846 265.521742 380.064103 265.336713 380.374359 265.151271 380.684615 264.965408 380.994872 264.779114 381.305128 264.592382 381.615385 264.405203 381.925641 264.217568 382.235897 264.029470 382.546154 263.840899 382.856410 263.651848 383.166667 263.462307 383.476923 263.272269 383.787179 263.081725 384.097436 262.890667 384.407692 262.699086 384.717949 262.506973 385.028205 262.314321 385.338462 262.121120 385.648718 261.927363 385.958974 261.733041 386.269231 261.538145 386.579487 261.342668 386.889744 261.146600 387.200000 260.949933 387.510256 260.752659 387.820513 260.554769 388.130769 260.356256 388.441026 260.157109 388.751282 259.957322 389.061538 259.756885 389.371795 259.555791 389.682051 259.354030 389.992308 259.151594 390.302564 258.948475 390.612821 258.744665 390.923077 258.540155 391.233333 258.334936 391.543590 258.129000 391.853846 257.922339 392.164103 257.714944 392.474359 257.506807 392.784615 257.297919 393.094872 257.088272 393.405128 256.877858 393.715385 256.666667 394.025641 256.454693 394.335897 256.241925 394.646154 256.028356 394.956410 255.813977 395.266667 255.598781 395.576923 255.382757 395.887179 255.165899 396.197436 254.948197 396.507692 254.729643 396.817949 254.510229 397.128205 254.289946 397.438462 254.068786 397.748718 253.846740 398.058974 253.623801 398.369231 253.399958 398.679487 253.175205 398.989744 252.949532 399.300000 252.722932 399.610256 252.495395 399.920513 252.266914 400.230769 252.037479 400.541026 251.807083 400.851282 251.575717 401.161538 251.343372 401.471795 251.110041 401.782051 250.875714 402.092308 250.640386 402.402564 250.404060 402.712821 250.166741 403.023077 249.928436 403.333333 249.689150 403.643590 249.448890 403.953846 249.207660 404.264103 248.965466 404.574359 248.722315 404.884615 248.478212 405.194872 248.233162 405.505128 247.987172 405.815385 247.740247 406.125641 247.492393 406.435897 247.243616 406.746154 246.993922 407.056410 246.743316 407.366667 246.491803 407.676923 246.239391 407.987179 245.986084 408.297436 245.731888 408.607692 245.476809 408.917949 245.220853 409.228205 244.964025 409.538462 244.706332 409.848718 244.447778 410.158974 244.188371 410.469231 243.928115 410.779487 243.667016 411.089744 243.405080 411.400000 243.142313 411.710256 242.878720 412.020513 242.614307 412.330769 242.349081 412.641026 242.083046 412.951282 241.816209 413.261538 241.548575 413.571795 241.280150 413.882051 241.010940 414.192308 240.740950 414.502564 240.470187 414.812821 240.198655 415.123077 239.926361 415.433333 239.653311 415.743590 239.379510 416.053846 239.104964 416.364103 238.829678 416.674359 238.553660 416.984615 238.276913 417.294872 237.999444 417.605128 237.721260 417.915385 237.442364 418.225641 237.162764 418.535897 236.882465 418.846154 236.601472 419.156410 236.319793 419.466667 236.037431 419.776923 235.754393 420.087179 235.470685 420.397436 235.186313 420.707692 234.901282 421.017949 234.615597 421.328205 234.329266 421.638462 234.042293 421.948718 233.754684 422.258974 233.466445 422.569231 233.177582 422.879487 232.888101 423.189744 232.598006 423.500000 232.307305 423.810256 232.016003 424.120513 231.724104 424.430769 231.431617 424.741026 231.138545 425.051282 230.844895 425.361538 230.550672 425.671795 230.255883 425.982051 229.960532 426.292308 229.664626 426.602564 229.368171 426.912821 229.071172 427.223077 228.773635 427.533333 228.475566 427.843590 228.176970 428.153846 227.877854 428.464103 227.578222 428.774359 227.278082 429.084615 226.977437 429.394872 226.676295 429.705128 226.374661 430.015385 226.072541 430.325641 225.769940 430.635897 225.466865 430.946154 225.163320 431.256410 224.859312 431.566667 224.554847 431.876923 224.249930 432.187179 223.944566 432.497436 223.638763 432.807692 223.332525 433.117949 223.025858 433.428205 222.718769 433.738462 222.411262 434.048718 222.103343 434.358974 221.795019 434.669231 221.486295 434.979487 221.177176 435.289744 220.867669 435.600000 220.557779 435.910256 220.247512 436.220513 219.936874 436.530769 219.625871 436.841026 219.314507 437.151282 219.002790 437.461538 218.690724 437.771795 218.378316 438.082051 218.065571 438.392308 217.752495 438.702564 217.439094 439.012821 217.125373 439.323077 216.811339 439.633333 216.496996 439.943590 216.182352 440.253846 215.867410 440.564103 215.552178 440.874359 215.236661 441.184615 214.920865 441.494872 214.604795 441.805128 214.288457 442.115385 213.971858 442.425641 213.655002 442.735897 213.337896 443.046154 213.020544 443.356410 212.702954 443.666667 212.385131 443.976923 212.067080 444.287179 211.748807 444.597436 211.430318 444.907692 211.111619 445.217949 210.792716 445.528205 210.473613 445.838462 210.154318 446.148718 209.834836 446.458974 209.515171 446.769231 209.195332 447.079487 208.875322 447.389744 208.555148 447.700000 208.234815 448.010256 207.914330 448.320513 207.593697 448.630769 207.272923 448.941026 206.952014 449.251282 206.630975 449.561538 206.309812 449.871795 205.988531 450.182051 205.667137 450.492308 205.345636 450.802564 205.024035 451.112821 204.702338 451.423077 204.380552 451.733333 204.058682 452.043590 203.736733 452.353846 203.414713 452.664103 203.092626 452.974359 202.770478 453.284615 202.448276 453.594872 202.126024 453.905128 201.803728 454.215385 201.481395 454.525641 201.159030 454.835897 200.836638 455.146154 200.514226 455.456410 200.191799 455.766667 199.869363 456.076923 199.546924 456.387179 199.224487 456.697436 198.902059 457.007692 198.579645 457.317949 198.257250 457.628205 197.934881 457.938462 197.612543 458.248718 197.290242 458.558974 196.967983 458.869231 196.645774 459.179487 196.323618 459.489744 196.001522 459.800000 195.679492 460.110256 195.357534 460.420513 195.035653 460.730769 194.713855 461.041026 194.392145 461.351282 194.070530 461.661538 193.749016 461.971795 193.427607 462.282051 193.106310 462.592308 192.785130 462.902564 192.464074 463.212821 192.143147 463.523077 191.822354 463.833333 191.501702 464.143590 191.181196 464.453846 190.860842 464.764103 190.540646 465.074359 190.220613 465.384615 189.900750 465.694872 189.581061 466.005128 189.261554 466.315385 188.942232 466.625641 188.623103 466.935897 188.304172 467.246154 187.985445 467.556410 187.666927 467.866667 187.348624 468.176923 187.030543 468.487179 186.712688 468.797436 186.395065 469.107692 186.077681 469.417949 185.760541 469.728205 185.443650 470.038462 185.127015 470.348718 184.810641 470.658974 184.494534 470.969231 184.178700 471.279487 183.863145 471.589744 183.547873 471.900000 183.232892 472.210256 182.918206 472.520513 182.603822 472.830769 182.289745 473.141026 181.975981 473.451282 181.662536 473.761538 181.349415 474.071795 181.036624 474.382051 180.724170 474.692308 180.412057 475.002564 180.100291 475.312821 179.788879 475.623077 179.477826 475.933333 179.167138 476.243590 178.856820 476.553846 178.546878 476.864103 178.237318 477.174359 177.928146 477.484615 177.619367 477.794872 177.310988 478.105128 177.003014 478.415385 176.695450 478.725641 176.388303 479.035897 176.081578 479.346154 175.775281 479.656410 175.469417 479.966667 175.163985 480.276923 174.858985 480.587179 174.554415 480.897436 174.250275 481.207692 173.946564 481.517949 173.643280 481.828205 173.340423 482.138462 173.037991 482.448718 172.735983 482.758974 172.434398 483.069231 172.133236 483.379487 171.832495 483.689744 171.532174 484.000000 171.232273 484.310256 170.932789 484.620513 170.633723 484.930769 170.335072 485.241026 170.036837 485.551282 169.739015 485.861538 169.441606 486.171795 169.144610 486.482051 168.848023 486.792308 168.551847 487.102564 168.256079 487.412821 167.960720 487.723077 167.665766 488.033333 167.371219 488.343590 167.077075 488.653846 166.783336 488.964103 166.489998 489.274359 166.197063 489.584615 165.904527 489.894872 165.612391 490.205128 165.320653 490.515385 165.029313 490.825641 164.738368 491.135897 164.447819 491.446154 164.157664 491.756410 163.867902 492.066667 163.578532 492.376923 163.289553 492.687179 163.000964 492.997436 162.712764 493.307692 162.424952 493.617949 162.137527 493.928205 161.850487 494.238462 161.563832 494.548718 161.277561 494.858974 160.991673 495.169231 160.706166 495.479487 160.421040 495.789744 160.136293 496.100000 159.851924 496.410256 159.567934 496.720513 159.284319 497.030769 159.001080 497.341026 158.718215 497.651282 158.435724 497.961538 158.153605 498.271795 157.871857 498.582051 157.590479 498.892308 157.309470 499.202564 157.028829 499.512821 156.748556 499.823077 156.468648 500.133333 156.189105 500.443590 155.909926 500.753846 155.631110 501.064103 155.352656 501.374359 155.074563 501.684615 154.796829 501.994872 154.519454 502.305128 154.242437 502.615385 153.965776 502.925641 153.689471 503.235897 153.413520 503.546154 153.137923 503.856410 152.862678 504.166667 152.587785 504.476923 152.313242 504.787179 152.039048 505.097436 151.765203 505.407692 151.491705 505.717949 151.218553 506.028205 150.945746 506.338462 150.673283 506.648718 150.401163 506.958974 150.129386 507.269231 149.857949 507.579487 149.586852 507.889744 149.316094 508.200000 149.045674 508.510256 148.775591 508.820513 148.505843 509.130769 148.236431 509.441026 147.967351 509.751282 147.698605 510.061538 147.430190 510.371795 147.162106 510.682051 146.894351 510.992308 146.626925 511.302564 146.359826 511.612821 146.093053 511.923077 145.826606 512.233333 145.560483 512.543590 145.294683 512.853846 145.029206 513.164103 144.764049 513.474359 144.499213 513.784615 144.234696 514.094872 143.970497 514.405128 143.706615 514.715385 143.443049 515.025641 143.179798 515.335897 142.916860 515.646154 142.654236 515.956410 142.391923 516.266667 142.129921 516.576923 141.868229 516.887179 141.606846 517.197436 141.345770 517.507692 141.085000 517.817949 140.824536 518.128205 140.564377 518.438462 140.304521 518.748718 140.044968 519.058974 139.785716 519.369231 139.526764 519.679487 139.268111 519.989744 139.009757 520.300000 138.751700 520.610256 138.493939 520.920513 138.236473 521.230769 137.979302 521.541026 137.722423 521.851282 137.465836 522.161538 137.209541 522.471795 136.953535 522.782051 136.697818 523.092308 136.442389 523.402564 136.187246 523.712821 135.932390 524.023077 135.677818 524.333333 135.423529 524.643590 135.169524 524.953846 134.915799 525.264103 134.662356 525.574359 134.409192 525.884615 134.156306 526.194872 133.903698 526.505128 133.651366 526.815385 133.399309 527.125641 133.147527 527.435897 132.896018 527.746154 132.644781 528.056410 132.393815 528.366667 132.143119 528.676923 131.892693 528.987179 131.642534 529.297436 131.392642 529.607692 131.143017 529.917949 130.893656 530.228205 130.644559 530.538462 130.395725 530.848718 130.147152 531.158974 129.898841 531.469231 129.650789 531.779487 129.402995 532.089744 129.155459 532.400000 128.908180 532.710256 128.661157 533.020513 128.414387 533.330769 128.167872 533.641026 127.921608 533.951282 127.675596 534.261538 127.429834 534.571795 127.184322 534.882051 126.939057 535.192308 126.694040 535.502564 126.449269 535.812821 126.204743 536.123077 125.960462 536.433333 125.716423 536.743590 125.472626 537.053846 125.229070 537.364103 124.985754 537.674359 124.742676 537.984615 124.499837 538.294872 124.257234 538.605128 124.014867 538.915385 123.772735 539.225641 123.530836 539.535897 123.289170 539.846154 123.047736 540.156410 122.806531 540.466667 122.565557 540.776923 122.324811 541.087179 122.084292 541.397436 121.843999 541.707692 121.603932 542.017949 121.364089 542.328205 121.124469 542.638462 120.885072 542.948718 120.645895 543.258974 120.406939 543.569231 120.168201 543.879487 119.929682 544.189744 119.691379 544.500000 119.453293 544.810256 119.215421 545.120513 118.977763 545.430769 118.740318 545.741026 118.503085 546.051282 118.266062 546.361538 118.029249 546.671795 117.792645 546.982051 117.556248 547.292308 117.320058 547.602564 117.084073 547.912821 116.848293 548.223077 116.612716 548.533333 116.377341 548.843590 116.142168 549.153846 115.907195 549.464103 115.672421 549.774359 115.437846 550.084615 115.203467 550.394872 114.969285 550.705128 114.735298 551.015385 114.501505 551.325641 114.267904 551.635897 114.034496 551.946154 113.801279 552.256410 113.568251 552.566667 113.335412 552.876923 113.102761 553.187179 112.870297 553.497436 112.638019 553.807692 112.405925 554.117949 112.174014 554.428205 111.942287 554.738462 111.710740 555.048718 111.479374 555.358974 111.248188 555.669231 111.017180 555.979487 110.786350 556.289744 110.555695 556.600000 110.325216 556.910256 110.094911 557.220513 109.864780 557.530769 109.634821 557.841026 109.405035 558.151282 109.175422 558.461538 108.945980 558.771795 108.716710 559.082051 108.487612 559.392308 108.258684 559.702564 108.029928 560.012821 107.801342 560.323077 107.572927 560.633333 107.344682 560.943590 107.116606 561.253846 106.888700 561.564103 106.660963 561.874359 106.433395 562.184615 106.205996 562.494872 105.978765 562.805128 105.751702 563.115385 105.524806 563.425641 105.298079 563.735897 105.071518 564.046154 104.845125 564.356410 104.618898 564.666667 104.392837 564.976923 104.166943 565.287179 103.941214 565.597436 103.715651 565.907692 103.490253 566.217949 103.265020 566.528205 103.039951 566.838462 102.815047 567.148718 102.590307 567.458974 102.365731 567.769231 102.141318 568.079487 101.917069 568.389744 101.692982 568.700000 101.469058 569.010256 101.245297 569.320513 101.021697 569.630769 100.798259 569.941026 100.574983 570.251282 100.351868 570.561538 100.128914 570.871795 99.906121 571.182051 99.683488 571.492308 99.461015 571.802564 99.238702 572.112821 99.016549 572.423077 98.794555 572.733333 98.572719 573.043590 98.351043 573.353846 98.129524 573.664103 97.908164 573.974359 97.686962 574.284615 97.465917 574.594872 97.245030 574.905128 97.024299 575.215385 96.803725 575.525641 96.583308 575.835897 96.363046 576.146154 96.142941 576.456410 95.922991 576.766667 95.703196 577.076923 95.483556 577.387179 95.264071 577.697436 95.044740 578.007692 94.825564 578.317949 94.606541 578.628205 94.387672 578.938462 94.168956 579.248718 93.950393 579.558974 93.731983 579.869231 93.513725 580.179487 93.295619 580.489744 93.077665 580.800000 92.859863 581.110256 92.642212 581.420513 92.424712 581.730769 92.207362 582.041026 91.990164 582.351282 91.773115 582.661538 91.556216 582.971795 91.339467 583.282051 91.122866 583.592308 90.906415 583.902564 90.690113 584.212821 90.473959 584.523077 90.257953 584.833333 90.042095 585.143590 89.826385 585.453846 89.610822 585.764103 89.395406 586.074359 89.180137 586.384615 88.965014 586.694872 88.750037 587.005128 88.535206 587.315385 88.320521 587.625641 88.105981 587.935897 87.891586 588.246154 87.677336 588.556410 87.463230 588.866667 87.249268 589.176923 87.035451 589.487179 86.821777 589.797436 86.608246 590.107692 86.394858 590.417949 86.181613 590.728205 85.968510 591.038462 85.755550 591.348718 85.542731 591.658974 85.330054 591.969231 85.117519 592.279487 84.905124 592.589744 84.692870 592.900000 84.480757 593.210256 84.268784 593.520513 84.056951 593.830769 83.845257 594.141026 83.633703 594.451282 83.422287 594.761538 83.211011 595.071795 82.999873 595.382051 82.788873 595.692308 82.578011 596.002564 82.367287 596.312821 82.156700 596.623077 81.946250 596.933333 81.735936 597.243590 81.525760 597.553846 81.315719 597.864103 81.105815 598.174359 80.896046 598.484615 80.686412 598.794872 80.476913 599.105128 80.267550 599.415385 80.058320 599.725641 79.849225 600.035897 79.640264 600.346154 79.431437 600.656410 79.222743 600.966667 79.014181 601.276923 78.805753 601.587179 78.597457 601.897436 78.389294 602.207692 78.181262 602.517949 77.973362 602.828205 77.765593 603.138462 77.557956 603.448718 77.350449 603.758974 77.143073 604.069231 76.935827 604.379487 76.728711 604.689744 76.521724 605.000000 76.314867 605.310256 76.108139 605.620513 75.901540 605.930769 75.695069 606.241026 75.488727 606.551282 75.282513 606.861538 75.076426 607.171795 74.870466 607.482051 74.664634 607.792308 74.458929 608.102564 74.253350 608.412821 74.047897 608.723077 73.842570 609.033333 73.637369 609.343590 73.432293 609.653846 73.227343 609.964103 73.022517 610.274359 72.817816 610.584615 72.613239 610.894872 72.408786 611.205128 72.204456 611.515385 72.000250 611.825641 71.796167 612.135897 71.592207 612.446154 71.388370 612.756410 71.184655 613.066667 70.981061 613.376923 70.777590 613.687179 70.574240 613.997436 70.371011 614.307692 70.167903 614.617949 69.964915 614.928205 69.762048 615.238462 69.559300 615.548718 69.356673 615.858974 69.154164 616.169231 68.951775 616.479487 68.749505 616.789744 68.547353 617.100000 68.345320 617.410256 68.143405 617.720513 67.941607 618.030769 67.739927 618.341026 67.538363 618.651282 67.336917 618.961538 67.135587 619.271795 66.934374 619.582051 66.733277 619.892308 66.532295 620.202564 66.331429 620.512821 66.130677 620.823077 65.930041 621.133333 65.729520 621.443590 65.529112 621.753846 65.328819 622.064103 65.128639 622.374359 64.928573 622.684615 64.728620 622.994872 64.528780 623.305128 64.329052 623.615385 64.129437 623.925641 63.929934 624.235897 63.730542 624.546154 63.531262 624.856410 63.332093 625.166667 63.133035 625.476923 62.934088 625.787179 62.735251 626.097436 62.536524 626.407692 62.337906 626.717949 62.139398 627.028205 61.941000 627.338462 61.742710 627.648718 61.544529 627.958974 61.346456 628.269231 61.148491 628.579487 60.950634 628.889744 60.752884 629.200000 60.555242 629.510256 60.357706 629.820513 60.160277 630.130769 59.962955 630.441026 59.765738 630.751282 59.568628 631.061538 59.371622 631.371795 59.174722 631.682051 58.977927 631.992308 58.781236 632.302564 58.584650 632.612821 58.388168 632.923077 58.191790 633.233333 57.995515 633.543590 57.799343 633.853846 57.603274 634.164103 57.407308 634.474359 57.211444 634.784615 57.015683 635.094872 56.820022 635.405128 56.624464 635.715385 56.429006 636.025641 56.233648 636.335897 56.038390 636.646154 55.843233 636.956410 55.648174 637.266667 55.453214 637.576923 55.258352 637.887179 55.063589 638.197436 54.868923 638.507692 54.674354 638.817949 54.479882 639.128205 54.285506 639.438462 54.091226 639.748718 53.897042 640.058974 53.702953 640.369231 53.508959 640.679487 53.315059 640.989744 53.121252 641.300000 52.927540 641.610256 52.733920 641.920513 52.540393 642.230769 52.346958 642.541026 52.153616 642.851282 51.960364 643.161538 51.767204 643.471795 51.574134 643.782051 51.381155 644.092308 51.188265 644.402564 50.995465 644.712821 50.802754 645.023077 50.610131 645.333333 50.417597 645.643590 50.225150 645.953846 50.032791 646.264103 49.840518 646.574359 49.648332 646.884615 49.456233 647.194872 49.264219 647.505128 49.072290 647.815385 48.880446 648.125641 48.688687 648.435897 48.497012 648.746154 48.305421 649.056410 48.113913 649.366667 47.922487 649.676923 47.731145 649.987179 47.539884 650.297436 47.348705 650.607692 47.157607 650.917949 46.966590 651.228205 46.775654 651.538462 46.584797 651.848718 46.394020 652.158974 46.203323 652.469231 46.012704 652.779487 45.822163 653.089744 45.631701 653.400000 45.441316 653.710256 45.251008 654.020513 45.060777 654.330769 44.870622 654.641026 44.680543 654.951282 44.490540 655.261538 44.300612 655.571795 44.110758 655.882051 43.920979 656.192308 43.731274 656.502564 43.541642 656.812821 43.352084 657.123077 43.162598 657.433333 42.973184 657.743590 42.783842 658.053846 42.594572 658.364103 42.405372 658.674359 42.216243 658.984615 42.027185 659.294872 41.838196 659.605128 41.649277 659.915385 41.460427 660.225641 41.271645 660.535897 41.082931 660.846154 40.894285 661.156410 40.705707 661.466667 40.517195 661.776923 40.328751 662.087179 40.140372 662.397436 39.952059 662.707692 39.763811 663.017949 39.575628 663.328205 39.387510 663.638462 39.199456 663.948718 39.011465 664.258974 38.823538 664.569231 38.635673 664.879487 38.447871 665.189744 38.260132 665.500000 38.072453 665.810256 37.884836 666.120513 37.697280 666.430769 37.509785 666.741026 37.322349 667.051282 37.134973 667.361538 36.947656 667.671795 36.760398 667.982051 36.573198 668.292308 36.386056 668.602564 36.198972 668.912821 36.011945 669.223077 35.824975 669.533333 35.638061 669.843590 35.451203 670.153846 35.264400 670.464103 35.077653 670.774359 34.890960 671.084615 34.704322 671.394872 34.517737 671.705128 34.331206 672.015385 34.144728 672.325641 33.958303 672.635897 33.771930 672.946154 33.585609 673.256410 33.399339 673.566667 33.213120 673.876923 33.026952 674.187179 32.840834 674.497436 32.654766 674.807692 32.468748 675.117949 32.282778 675.428205 32.096857 675.738462 31.910984 676.048718 31.725159 676.358974 31.539381 676.669231 31.353650 676.979487 31.167966 677.289744 30.982328 677.600000 30.796736 677.910256 30.611188 678.220513 30.425686 678.530769 30.240229 678.841026 30.054815 679.151282 29.869445 679.461538 29.684118 679.771795 29.498835 680.082051 29.313593 680.392308 29.128394 680.702564 28.943236 681.012821 28.758120 681.323077 28.573044 681.633333 28.388009 681.943590 28.203014 682.253846 28.018059 682.564103 27.833142 682.874359 27.648265 683.184615 27.463426 683.494872 27.278624 683.805128 27.093861 684.115385 26.909134 684.425641 26.724444 684.735897 26.539791 685.046154 26.355173 685.356410 26.170592 685.666667 25.986045 685.976923 25.801532 686.287179 25.617055 686.597436 25.432611 686.907692 25.248200 687.217949 25.063823 687.528205 24.879478 687.838462 24.695165 688.148718 24.510885 688.458974 24.326635 688.769231 24.142417 689.079487 23.958230 689.389744 23.774072 689.700000 23.589945 690.010256 23.405846 690.320513 23.221777 690.630769 23.037737 690.941026 22.853724 691.251282 22.669739 691.561538 22.485782 691.871795 22.301852 692.182051 22.117948 692.492308 21.934070 692.802564 21.750218 693.112821 21.566391 693.423077 21.382590 693.733333 21.198812 694.043590 21.015059 694.353846 20.831330 694.664103 20.647623 694.974359 20.463940 695.284615 20.280279 695.594872 20.096640 695.905128 19.913023 696.215385 19.729427 696.525641 19.545852 696.835897 19.362297 697.146154 19.178762 697.456410 18.995247 697.766667 18.811751 698.076923 18.628273 698.387179 18.444815 698.697436 18.261374 699.007692 18.077950 699.317949 17.894544 699.628205 17.711155 699.938462 17.527782 700.248718 17.344424 700.558974 17.161083 700.869231 16.977756 701.179487 16.794444 701.489744 16.611147 701.800000 16.427863 702.110256 16.244593 702.420513 16.061336 702.730769 15.878091 703.041026 15.694859 703.351282 15.511638 703.661538 15.328429 703.971795 15.145231 704.282051 14.962044 704.592308 14.778867 704.902564 14.595699 705.212821 14.412541 705.523077 14.229392 705.833333 14.046252 706.143590 13.863120 706.453846 13.679995 706.764103 13.496878 707.074359 13.313768 707.384615 13.130664 707.694872 12.947567 708.005128 12.764475 708.315385 12.581388 708.625641 12.398307 708.935897 12.215230 709.246154 12.032157 709.556410 11.849087 709.866667 11.666021 710.176923 11.482958 710.487179 11.299897 710.797436 11.116838 711.107692 10.933781 711.417949 10.750725 711.728205 10.567670 712.038462 10.384615 712.038462 540.000000" /></g></g><g class="titles" /><g class="plot overlay" transform="translate(54, 20)"><g class="series serie-0 color-0"><g class="dots"><circle class="dot reactive tooltip-trigger" cx="13.96153846153846" cy="529.6153846153845" r="2.5" /><desc class="value">242,199,337(kWh)</desc><desc class="x top">13.96153846153846</desc><desc class="y top">529.6153846153845</desc><desc class="x_label">2549</desc></g><g class="dots"><circle class="dot reactive tooltip-trigger" cx="91.52564102564101" cy="455.6318659859296" r="2.5" /><desc class="value">268,707,602(kWh)</desc><desc class="x top">91.52564102564101</desc><desc class="y top">455.6318659859296</desc><desc class="x_label">2550</desc></g><g class="dots"><circle class="dot reactive tooltip-trigger" cx="169.08974358974356" cy="422.0518534497789" r="2.5" /><desc class="value">280,739,307(kWh)</desc><desc class="x top">169.08974358974356</desc><desc class="y top">422.0518534497789</desc><desc class="x_label">2551</desc></g><g class="dots"><circle class="dot reactive tooltip-trigger" cx="246.65384615384613" cy="375.7844446046304" r="2.5" /><desc class="value">297,316,901(kWh)</desc><desc class="x top">246.65384615384613</desc><desc class="y top">375.7844446046304</desc><desc class="x_label">2552</desc></g><g class="dots"><circle class="dot reactive tooltip-trigger" cx="324.21794871794873" cy="300.1854845879344" r="2.5" /><desc class="value">324,403,978(kWh)</desc><desc class="x top">324.21794871794873</desc><desc class="y top">300.1854845879344</desc><desc class="x_label">2553</desc></g><g class="dots"><circle class="dot reactive tooltip-trigger" cx="401.78205128205127" cy="250.8757139723328" r="2.5" /><desc class="value">342,071,649(kWh)</desc><desc class="x left">401.78205128205127</desc><desc class="y left">250.8757139723328</desc><desc class="x_label">2554</desc></g><g class="dots"><circle class="dot reactive tooltip-trigger" cx="479.3461538461538" cy="175.77528088920383" r="2.5" /><desc class="value">368,980,104(kWh)</desc><desc class="x left">479.3461538461538</desc><desc class="y left">175.77528088920383</desc><desc class="x_label">2555</desc></g><g class="dots"><circle class="dot reactive tooltip-trigger" cx="556.9102564102565" cy="110.09491139740118" r="2.5" /><desc class="value">392,513,354(kWh)</desc><desc class="x left">556.9102564102565</desc><desc class="y left">110.09491139740118</desc><desc class="x_label">2556</desc></g><g class="dots"><circle class="dot reactive tooltip-trigger" cx="634.474358974359" cy="57.211444337948535" r="2.5" /><desc class="value">411,461,479(kWh)</desc><desc class="x left">634.474358974359</desc><desc class="y left">57.211444337948535</desc><desc class="x_label">2557</desc></g><g class="dots"><circle class="dot reactive tooltip-trigger" cx="712.0384615384615" cy="10.384615384615358" r="2.5" /><desc class="value">428,239,513(kWh)</desc><desc class="x left">712.0384615384615</desc><desc class="y left">10.384615384615358</desc><desc class="x_label">2558</desc></g></g></g><g class="plot text-overlay" transform="translate(54, 20)"><g class="series serie-0 color-0" /></g><g class="plot tooltip-overlay" transform="translate(54, 20)"><g class="tooltip" style="opacity: 0" transform="translate(0 0)"><rect class="tooltip-box" height="0" rx="0" ry="0" width="0" /><g class="text" /></g></g></g></svg>