<?xml version='1.0' encoding='utf-8'?>
<svg xmlns:xlink="http://www.w3.org/1999/xlink" class="pygal-chart" id="chart-bc114436-d0b5-4970-92cf-8e5379e1bcfa" viewBox="0 0 800 600" xmlns="http://www.w3.org/2000/svg"><!--Generated with pygal 2.3.0 (etree) ©Kozea 2012-2016 on 2016-12-08--><!--http://pygal.org--><!--http://github.com/Kozea/pygal--><defs><style type="text/css">#chart-bc114436-d0b5-4970-92cf-8e5379e1bcfa{-webkit-user-select:none;-webkit-font-smoothing:antialiased;font-family:Consolas,"Liberation Mono",Menlo,Courier,monospace}#chart-bc114436-d0b5-4970-92cf-8e5379e1bcfa .title{font-family:Consolas,"Liberation Mono",Menlo,Courier,monospace;font-size:16px}#chart-bc114436-d0b5-4970-92cf-8e5379e1bcfa .legends .legend text{font-family:Consolas,"Liberation Mono",Menlo,Courier,monospace;font-size:14px}#chart-bc114436-d0b5-4970-92cf-8e5379e1bcfa .axis text{font-family:Consolas,"Liberation Mono",Menlo,Courier,monospace;font-size:10px}#chart-bc114436-d0b5-4970-92cf-8e5379e1bcfa .axis text.major{font-family:Consolas,"Liberation Mono",Menlo,Courier,monospace;font-size:10px}#chart-bc114436-d0b5-4970-92cf-8e5379e1bcfa .text-overlay text.value{font-family:Consolas,"Liberation Mono",Menlo,Courier,monospace;font-size:16px}#chart-bc114436-d0b5-4970-92cf-8e5379e1bcfa .text-overlay text.label{font-family:Consolas,"Liberation Mono",Menlo,Courier,monospace;font-size:10px}#chart-bc114436-d0b5-4970-92cf-8e5379e1bcfa .tooltip{font-family:Consolas,"Liberation Mono",Menlo,Courier,monospace;font-size:14px}#chart-bc114436-d0b5-4970-92cf-8e5379e1bcfa text.no_data{font-family:Consolas,"Liberation Mono",Menlo,Courier,monospace;font-size:64px}
#chart-bc114436-d0b5-4970-92cf-8e5379e1bcfa{background-color:rgba(249,249,249,1)}#chart-bc114436-d0b5-4970-92cf-8e5379e1bcfa path,#chart-bc114436-d0b5-4970-92cf-8e5379e1bcfa line,#chart-bc114436-d0b5-4970-92cf-8e5379e1bcfa rect,#chart-bc114436-d0b5-4970-92cf-8e5379e1bcfa circle{-webkit-transition:150ms;-moz-transition:150ms;transition:150ms}#chart-bc114436-d0b5-4970-92cf-8e5379e1bcfa .graph &gt; .background{fill:rgba(249,249,249,1)}#chart-bc114436-d0b5-4970-92cf-8e5379e1bcfa .plot &gt; .background{fill:rgba(255,255,255,1)}#chart-bc114436-d0b5-4970-92cf-8e5379e1bcfa .graph{fill:rgba(0,0,0,.87)}#chart-bc114436-d0b5-4970-92cf-8e5379e1bcfa text.no_data{fill:rgba(0,0,0,1)}#chart-bc114436-d0b5-4970-92cf-8e5379e1bcfa .title{fill:rgba(0,0,0,1)}#chart-bc114436-d0b5-4970-92cf-8e5379e1bcfa .legends .legend text{fill:rgba(0,0,0,.87)}#chart-bc114436-d0b5-4970-92cf-8e5379e1bcfa .legends .legend:hover text{fill:rgba(0,0,0,1)}#chart-bc114436-d0b5-4970-92cf-8e5379e1bcfa .axis .line{stroke:rgba(0,0,0,1)}#chart-bc114436-d0b5-4970-92cf-8e5379e1bcfa .axis .guide.line{stroke:rgba(0,0,0,.54)}#chart-bc114436-d0b5-4970-92cf-8e5379e1bcfa .axis .major.line{stroke:rgba(0,0,0,.87)}#chart-bc114436-d0b5-4970-92cf-8e5379e1bcfa .axis text.major{fill:rgba(0,0,0,1)}#chart-bc114436-d0b5-4970-92cf-8e5379e1bcfa .axis.y .guides:hover .guide.line,#chart-bc114436-d0b5-4970-92cf-8e5379e1bcfa .line-graph .axis.x .guides:hover .guide.line,#chart-bc114436-d0b5-4970-92cf-8e5379e1bcfa .stackedline-graph .axis.x .guides:hover .guide.line,#chart-bc114436-d0b5-4970-92cf-8e5379e1bcfa .xy-graph .axis.x .guides:hover .guide.line{stroke:rgba(0,0,0,1)}#chart-bc114436-d0b5-4970-92cf-8e5379e1bcfa .axis .guides:hover text{fill:rgba(0,0,0,1)}#chart-bc114436-d0b5-4970-92cf-8e5379e1bcfa .reactive{fill-opacity:.7;stroke-opacity:.8}#chart-bc114436-d0b5-4970-92cf-8e5379e1bcfa .ci{stroke:rgba(0,0,0,.87)}#chart-bc114436-d0b5-4970-92cf-8e5379e1bcfa .reactive.active,#chart-bc114436-d0b5-4970-92cf-8e5379e1bcfa .active .reactive{fill-opacity:.8;stroke-opacity:.9;stroke-width:4}#chart-bc114436-d0b5-4970-92cf-8e5379e1bcfa .ci .reactive.active{stroke-width:1.5}#chart-bc114436-d0b5-4970-92cf-8e5379e1bcfa .series text{fill:rgba(0,0,0,1)}#chart-bc114436-d0b5-4970-92cf-8e5379e1bcfa .tooltip rect{fill:rgba(255,255,255,1);stroke:rgba(0,0,0,1);-webkit-transition:opacity 150ms;-moz-transition:opacity 150ms;transition:opacity 150ms}#chart-bc114436-d0b5-4970-92cf-8e5379e1bcfa .tooltip .label{fill:rgba(0,0,0,.87)}#chart-bc114436-d0b5-4970-92cf-8e5379e1bcfa .tooltip .label{fill:rgba(0,0,0,.87)}#chart-bc114436-d0b5-4970-92cf-8e5379e1bcfa .tooltip .legend{font-size:.8em;fill:rgba(0,0,0,.54)}#chart-bc114436-d0b5-4970-92cf-8e5379e1bcfa .tooltip .x_label{font-size:.6em;fill:rgba(0,0,0,1)}#chart-bc114436-d0b5-4970-92cf-8e5379e1bcfa .tooltip .xlink{font-size:.5em;text-decoration:underline}#chart-bc114436-d0b5-4970-92cf-8e5379e1bcfa .tooltip .value{font-size:1.5em}#chart-bc114436-d0b5-4970-92cf-8e5379e1bcfa .bound{font-size:.5em}#chart-bc114436-d0b5-4970-92cf-8e5379e1bcfa .max-value{font-size:.75em;fill:rgba(0,0,0,.54)}#chart-bc114436-d0b5-4970-92cf-8e5379e1bcfa .map-element{fill:rgba(255,255,255,1);stroke:rgba(0,0,0,.54) !important}#chart-bc114436-d0b5-4970-92cf-8e5379e1bcfa .map-element .reactive{fill-opacity:inherit;stroke-opacity:inherit}#chart-bc114436-d0b5-4970-92cf-8e5379e1bcfa .color-0,#chart-bc114436-d0b5-4970-92cf-8e5379e1bcfa .color-0 a:visited{stroke:#e86fa0;fill:#e86fa0}#chart-bc114436-d0b5-4970-92cf-8e5379e1bcfa .text-overlay .color-0 text{fill:black}
#chart-bc114436-d0b5-4970-92cf-8e5379e1bcfa text.no_data{text-anchor:middle}#chart-bc114436-d0b5-4970-92cf-8e5379e1bcfa .guide.line{fill:none}#chart-bc114436-d0b5-4970-92cf-8e5379e1bcfa .centered{text-anchor:middle}#chart-bc114436-d0b5-4970-92cf-8e5379e1bcfa .title{text-anchor:middle}#chart-bc114436-d0b5-4970-92cf-8e5379e1bcfa .legends .legend text{fill-opacity:1}#chart-bc114436-d0b5-4970-92cf-8e5379e1bcfa .axis.x text{text-anchor:middle}#chart-bc114436-d0b5-4970-92cf-8e5379e1bcfa .axis.x:not(.web) text[transform]{text-anchor:start}#chart-bc114436-d0b5-4970-92cf-8e5379e1bcfa .axis.x:not(.web) text[transform].backwards{text-anchor:end}#chart-bc114436-d0b5-4970-92cf-8e5379e1bcfa .axis.y text{text-anchor:end}#chart-bc114436-d0b5-4970-92cf-8e5379e1bcfa .axis.y text[transform].backwards{text-anchor:start}#chart-bc114436-d0b5-4970-92cf-8e5379e1bcfa .axis.y2 text{text-anchor:start}#chart-bc114436-d0b5-4970-92cf-8e5379e1bcfa .axis.y2 text[transform].backwards{text-anchor:end}#chart-bc114436-d0b5-4970-92cf-8e5379e1bcfa .axis .guide.line{stroke-dasharray:4,4}#chart-bc114436-d0b5-4970-92cf-8e5379e1bcfa .axis .major.guide.line{stroke-dasharray:6,6}#chart-bc114436-d0b5-4970-92cf-8e5379e1bcfa .horizontal .axis.y .guide.line,#chart-bc114436-d0b5-4970-92cf-8e5379e1bcfa .horizontal .axis.y2 .guide.line,#chart-bc114436-d0b5-4970-92cf-8e5379e1bcfa .vertical .axis.x .guide.line{opacity:0}#chart-bc114436-d0b5-4970-92cf-8e5379e1bcfa .horizontal .axis.always_show .guide.line,#chart-bc114436-d0b5-4970-92cf-8e5379e1bcfa .vertical .axis.always_show .guide.line{opacity:1 !important}#chart-bc114436-d0b5-4970-92cf-8e5379e1bcfa .axis.y .guides:hover .guide.line,#chart-bc114436-d0b5-4970-92cf-8e5379e1bcfa .axis.y2 .guides:hover .guide.line,#chart-bc114436-d0b5-4970-92cf-8e5379e1bcfa .axis.x .guides:hover .guide.line{opacity:1}#chart-bc114436-d0b5-4970-92cf-8e5379e1bcfa .axis .guides:hover text{opacity:1}#chart-bc114436-d0b5-4970-92cf-8e5379e1bcfa .nofill{fill:none}#chart-bc114436-d0b5-4970-92cf-8e5379e1bcfa .subtle-fill{fill-opacity:.2}#chart-bc114436-d0b5-4970-92cf-8e5379e1bcfa .dot{stroke-width:1px;fill-opacity:1}#chart-bc114436-d0b5-4970-92cf-8e5379e1bcfa .dot.active{stroke-width:5px}#chart-bc114436-d0b5-4970-92cf-8e5379e1bcfa .dot.negative{fill:transparent}#chart-bc114436-d0b5-4970-92cf-8e5379e1bcfa text,#chart-bc114436-d0b5-4970-92cf-8e5379e1bcfa tspan{stroke:none !important}#chart-bc114436-d0b5-4970-92cf-8e5379e1bcfa .series text.active{opacity:1}#chart-bc114436-d0b5-4970-92cf-8e5379e1bcfa .tooltip rect{fill-opacity:.95;stroke-width:.5}#chart-bc114436-d0b5-4970-92cf-8e5379e1bcfa .tooltip text{fill-opacity:1}#chart-bc114436-d0b5-4970-92cf-8e5379e1bcfa .showable{visibility:hidden}#chart-bc114436-d0b5-4970-92cf-8e5379e1bcfa .showable.shown{visibility:visible}#chart-bc114436-d0b5-4970-92cf-8e5379e1bcfa .gauge-background{fill:rgba(229,229,229,1);stroke:none}#chart-bc114436-d0b5-4970-92cf-8e5379e1bcfa .bg-lines{stroke:rgba(249,249,249,1);stroke-width:2px}</style><script type="text/javascript">window.pygal = window.pygal || {};window.pygal.config = window.pygal.config || {};window.pygal.config['bc114436-d0b5-4970-92cf-8e5379e1bcfa'] = {"no_data_text": "No data", "no_prefix": false, "xrange": null, "print_values_position": "center", "truncate_label": null, "x_labels": ["2549", "2550", "2551", "2552", "2553", "2554", "2555", "2556", "2557", "2558"], "title": null, "force_uri_protocol": "https", "defs": [], "formatter": null, "classes": ["pygal-chart"], "y_labels": null, "rounded_bars": null, "explicit_size": false, "x_labels_major_every": null, "legend_at_bottom_columns": null, "stroke_style": null, "half_pie": false, "spacing": 10, "tooltip_fancy_mode": true, "inverse_y_axis": false, "width": 800, "inner_radius": 0, "interpolation_parameters": {}, "tooltip_border_radius": 0, "style": {"no_data_font_family": "Consolas, \"Liberation Mono\", Menlo, Courier, monospace", "tooltip_font_size": 14, "tooltip_font_family": "Consolas, \"Liberation Mono\", Menlo, Courier, monospace", "stroke_opacity_hover": ".9", "legend_font_family": "Consolas, \"Liberation Mono\", Menlo, Courier, monospace", "font_family": "Consolas, \"Liberation Mono\", Menlo, Courier, monospace", "title_font_family": "Consolas, \"Liberation Mono\", Menlo, Courier, monospace", "background": "rgba(249, 249, 249, 1)", "stroke_opacity": ".8", "foreground": "rgba(0, 0, 0, .87)", "value_background": "rgba(229, 229, 229, 1)", "guide_stroke_dasharray": "4,4", "foreground_subtle": "rgba(0, 0, 0, .54)", "opacity_hover": ".8", "value_font_family": "Consolas, \"Liberation Mono\", Menlo, Courier, monospace", "value_label_font_size": 10, "plot_background": "rgba(255, 255, 255, 1)", "ci_colors": [], "label_font_size": 10, "major_label_font_size": 10, "title_font_size": 16, "no_data_font_size": 64, "value_font_size": 16, "value_colors": [], "label_font_family": "Consolas, \"Liberation Mono\", Menlo, Courier, monospace", "major_guide_stroke_dasharray": "6,6", "transition": "150ms", "foreground_strong": "rgba(0, 0, 0, 1)", "colors": ["#e86fa0", "#e88f6f", "#e8df6f", "#a0e86f", "#6fe88f", "#6fe8df", "#6fa0e8", "#8f6fe8", "#df6fe8", "#e86fa0"], "opacity": ".7", "legend_font_size": 14, "value_label_font_family": "Consolas, \"Liberation Mono\", Menlo, Courier, monospace", "major_label_font_family": "Consolas, \"Liberation Mono\", Menlo, Courier, monospace"}, "x_labels_major_count": null, "interpolation_precision": 250, "missing_value_fill_truncation": "x", "stack_from_top": false, "truncate_legend": null, "show_minor_x_labels": true, "print_zeroes": true, "css": ["file://style.css", "file://graph.css"], "y_label_rotation": 0, "legend_at_bottom": false, "print_values": false, "margin_top": null, "max_scale": 16, "allow_interruptions": false, "show_x_labels": true, "strict": false, "show_x_guides": false, "stroke": true, "margin_left": null, "dynamic_print_values": false, "print_labels": false, "show_y_labels": true, "x_labels_major": null, "range": null, "x_label_rotation": 0, "margin": 20, "zero": 0, "include_x_axis": false, "height": 600, "show_minor_y_labels": true, "show_dots": true, "interpolate": "cubic", "show_y_guides": true, "y_labels_major": null, "box_mode": "extremes", "margin_bottom": null, "order_min": null, "legend_box_size": 12, "fill": true, "show_only_major_dots": false, "js": ["//kozea.github.io/pygal.js/2.0.x/pygal-tooltips.min.js"], "x_title": null, "y_labels_major_every": null, "y_labels_major_count": null, "disable_xml_declaration": false, "y_title": null, "logarithmic": false, "pretty_print": false, "min_scale": 4, "dots_size": 2.5, "margin_right": null, "legends": [null], "secondary_range": null, "show_legend": false}</script><script type="text/javascript" xlink:href="https://kozea.github.io/pygal.js/2.0.x/pygal-tooltips.min.js" /></defs><title>Pygal</title><g class="graph stackedline-graph vertical"><rect class="background" height="600" width="800" x="0" y="0" /><g class="plot" transform="translate(60, 20)"><rect class="background" height="540" width="720.0" x="0" y="0" /><g class="axis y"><path class="line" d="M0.000000 540.000000 h720.000000" /><g class="guides"><path class="guide line" d="M0.000000 503.205873 h720.000000" /><text class="" x="-5" y="506.70587323682696">4400M</text><title>4400M</title></g><g class="guides"><path class="major guide line" d="M0.000000 459.702787 h720.000000" /><text class="major" x="-5" y="463.2027874609623">4500M</text><title>4500M</title></g><g class="guides"><path class="guide line" d="M0.000000 416.199702 h720.000000" /><text class="" x="-5" y="419.69970168509764">4600M</text><title>4600M</title></g><g class="guides"><path class="guide line" d="M0.000000 372.696616 h720.000000" /><text class="" x="-5" y="376.19661590923295">4700M</text><title>4700M</title></g><g class="guides"><path class="guide line" d="M0.000000 329.193530 h720.000000" /><text class="" x="-5" y="332.6935301333683">4800M</text><title>4800M</title></g><g class="guides"><path class="guide line" d="M0.000000 285.690444 h720.000000" /><text class="" x="-5" y="289.1904443575037">4900M</text><title>4900M</title></g><g class="guides"><path class="major guide line" d="M0.000000 242.187359 h720.000000" /><text class="major" x="-5" y="245.687358581639">5000M</text><title>5000M</title></g><g class="guides"><path class="guide line" d="M0.000000 198.684273 h720.000000" /><text class="" x="-5" y="202.18427280577436">5100M</text><title>5100M</title></g><g class="guides"><path class="guide line" d="M0.000000 155.181187 h720.000000" /><text class="" x="-5" y="158.68118702990967">5200M</text><title>5200M</title></g><g class="guides"><path class="guide line" d="M0.000000 111.678101 h720.000000" /><text class="" x="-5" y="115.17810125404503">5300M</text><title>5300M</title></g><g class="guides"><path class="guide line" d="M0.000000 68.175015 h720.000000" /><text class="" x="-5" y="71.67501547818034">5400M</text><title>5400M</title></g><g class="guides"><path class="major guide line" d="M0.000000 24.671930 h720.000000" /><text class="major" x="-5" y="28.17192970231565">5500M</text><title>5500M</title></g></g><g class="axis x"><g class="guides"><path class="line" d="M13.846154 0.000000 v540.000000" /><text class="" x="13.846153846153847" y="555.0">2549</text></g><g class="guides"><path class="guide line" d="M90.769231 0.000000 v540.000000" /><text class="" x="90.76923076923076" y="555.0">2550</text></g><g class="guides"><path class="guide line" d="M167.692308 0.000000 v540.000000" /><text class="" x="167.69230769230765" y="555.0">2551</text></g><g class="guides"><path class="guide line" d="M244.615385 0.000000 v540.000000" /><text class="" x="244.6153846153846" y="555.0">2552</text></g><g class="guides"><path class="guide line" d="M321.538462 0.000000 v540.000000" /><text class="" x="321.5384615384615" y="555.0">2553</text></g><g class="guides"><path class="guide line" d="M398.461538 0.000000 v540.000000" /><text class="" x="398.46153846153845" y="555.0">2554</text></g><g class="guides"><path class="guide line" d="M475.384615 0.000000 v540.000000" /><text class="" x="475.38461538461536" y="555.0">2555</text></g><g class="guides"><path class="guide line" d="M552.307692 0.000000 v540.000000" /><text class="" x="552.3076923076923" y="555.0">2556</text></g><g class="guides"><path class="guide line" d="M629.230769 0.000000 v540.000000" /><text class="" x="629.2307692307692" y="555.0">2557</text></g><g class="guides"><path class="guide line" d="M706.153846 0.000000 v540.000000" /><text class="" x="706.1538461538461" y="555.0">2558</text></g></g><g class="series serie-0 color-0"><path class="line reactive" d="M13.846154 540.000000 L13.846154 529.615385 14.153846 528.911352 14.461538 528.207321 14.769231 527.503294 15.076923 526.799273 15.384615 526.095259 15.692308 525.391255 16.000000 524.687263 16.307692 523.983283 16.615385 523.279319 16.923077 522.575372 17.230769 521.871444 17.538462 521.167536 17.846154 520.463652 18.153846 519.759792 18.461538 519.055959 18.769231 518.352154 19.076923 517.648380 19.384615 516.944638 19.692308 516.240930 20.000000 515.537258 20.307692 514.833624 20.615385 514.130030 20.923077 513.426478 21.230769 512.722970 21.538462 512.019507 21.846154 511.316092 22.153846 510.612726 22.461538 509.909411 22.769231 509.206149 23.076923 508.502943 23.384615 507.799794 23.692308 507.096703 24.000000 506.393673 24.307692 505.690706 24.615385 504.987803 24.923077 504.284967 25.230769 503.582200 25.538462 502.879502 25.846154 502.176877 26.153846 501.474326 26.461538 500.771851 26.769231 500.069453 27.076923 499.367136 27.384615 498.664900 27.692308 497.962747 28.000000 497.260680 28.307692 496.558701 28.615385 495.856811 28.923077 495.155012 29.230769 494.453305 29.538462 493.751694 29.846154 493.050180 30.153846 492.348765 30.461538 491.647450 30.769231 490.946238 31.076923 490.245130 31.384615 489.544129 31.692308 488.843235 32.000000 488.142452 32.307692 487.441782 32.615385 486.741225 32.923077 486.040783 33.230769 485.340460 33.538462 484.640256 33.846154 483.940174 34.153846 483.240215 34.461538 482.540382 34.769231 481.840676 35.076923 481.141099 35.384615 480.441653 35.692308 479.742340 36.000000 479.043162 36.307692 478.344121 36.615385 477.645218 36.923077 476.946456 37.230769 476.247836 37.538462 475.549361 37.846154 474.851032 38.153846 474.152851 38.461538 473.454820 38.769231 472.756941 39.076923 472.059215 39.384615 471.361646 39.692308 470.664234 40.000000 469.966982 40.307692 469.269891 40.615385 468.572964 40.923077 467.876201 41.230769 467.179606 41.538462 466.483180 41.846154 465.786925 42.153846 465.090843 42.461538 464.394935 42.769231 463.699204 43.076923 463.003652 43.384615 462.308280 43.692308 461.613090 44.000000 460.918085 44.307692 460.223265 44.615385 459.528634 44.923077 458.834193 45.230769 458.139943 45.538462 457.445887 45.846154 456.752027 46.153846 456.058365 46.461538 455.364901 46.769231 454.671639 47.076923 453.978581 47.384615 453.285727 47.692308 452.593081 48.000000 451.900643 48.307692 451.208416 48.615385 450.516402 48.923077 449.824603 49.230769 449.133020 49.538462 448.441655 49.846154 447.750511 50.153846 447.059589 50.461538 446.368891 50.769231 445.678419 51.076923 444.988175 51.384615 444.298161 51.692308 443.608378 52.000000 442.918829 52.307692 442.229516 52.615385 441.540440 52.923077 440.851604 53.230769 440.163008 53.538462 439.474656 53.846154 438.786548 54.153846 438.098688 54.461538 437.411076 54.769231 436.723715 55.076923 436.036607 55.384615 435.349753 55.692308 434.663156 56.000000 433.976817 56.307692 433.290738 56.615385 432.604921 56.923077 431.919368 57.230769 431.234081 57.538462 430.549062 57.846154 429.864313 58.153846 429.179835 58.461538 428.495631 58.769231 427.811702 59.076923 427.128050 59.384615 426.444678 59.692308 425.761586 60.000000 425.078778 60.307692 424.396254 60.615385 423.714018 60.923077 423.032070 61.230769 422.350412 61.538462 421.669047 61.846154 420.987977 62.153846 420.307203 62.461538 419.626726 62.769231 418.946550 63.076923 418.266676 63.384615 417.587106 63.692308 416.907842 64.000000 416.228885 64.307692 415.550238 64.615385 414.871903 64.923077 414.193880 65.230769 413.516173 65.538462 412.838784 65.846154 412.161713 66.153846 411.484963 66.461538 410.808536 66.769231 410.132434 67.076923 409.456659 67.384615 408.781212 67.692308 408.106096 68.000000 407.431312 68.307692 406.756862 68.615385 406.082748 68.923077 405.408973 69.230769 404.735537 69.538462 404.062444 69.846154 403.389694 70.153846 402.717289 70.461538 402.045233 70.769231 401.373526 71.076923 400.702170 71.384615 400.031167 71.692308 399.360520 72.000000 398.690229 72.307692 398.020298 72.615385 397.350727 72.923077 396.681520 73.230769 396.012677 73.538462 395.344200 73.846154 394.676092 74.153846 394.008354 74.461538 393.340989 74.769231 392.673997 75.076923 392.007382 75.384615 391.341145 75.692308 390.675287 76.000000 390.009812 76.307692 389.344720 76.615385 388.680013 76.923077 388.015694 77.230769 387.351764 77.538462 386.688226 77.846154 386.025080 78.153846 385.362330 78.461538 384.699977 78.769231 384.038022 79.076923 383.376469 79.384615 382.715317 79.692308 382.054571 80.000000 381.394231 80.307692 380.734299 80.615385 380.074777 80.923077 379.415668 81.230769 378.756973 81.538462 378.098693 81.846154 377.440832 82.153846 376.783390 82.461538 376.126370 82.769231 375.469773 83.076923 374.813602 83.384615 374.157858 83.692308 373.502543 84.000000 372.847660 84.307692 372.193209 84.615385 371.539194 84.923077 370.885615 85.230769 370.232475 85.538462 369.579775 85.846154 368.927519 86.153846 368.275706 86.461538 367.624340 86.769231 366.973422 87.076923 366.322954 87.384615 365.672939 87.692308 365.023377 88.000000 364.374271 88.307692 363.725623 88.615385 363.077434 88.923077 362.429707 89.230769 361.782443 89.538462 361.135645 89.846154 360.489314 90.153846 359.843452 90.461538 359.198060 90.769231 358.553142 91.076923 357.908705 91.384615 357.264778 91.692308 356.621399 92.000000 355.978604 92.307692 355.336428 92.615385 354.694908 92.923077 354.054081 93.230769 353.413982 93.538462 352.774649 93.846154 352.136116 94.153846 351.498421 94.461538 350.861599 94.769231 350.225688 95.076923 349.590722 95.384615 348.956739 95.692308 348.323775 96.000000 347.691866 96.307692 347.061048 96.615385 346.431357 96.923077 345.802830 97.230769 345.175503 97.538462 344.549413 97.846154 343.924595 98.153846 343.301085 98.461538 342.678921 98.769231 342.058138 99.076923 341.438773 99.384615 340.820861 99.692308 340.204439 100.000000 339.589544 100.307692 338.976211 100.615385 338.364478 100.923077 337.754379 101.230769 337.145952 101.538462 336.539232 101.846154 335.934256 102.153846 335.331060 102.461538 334.729681 102.769231 334.130154 103.076923 333.532517 103.384615 332.936804 103.692308 332.343053 104.000000 331.751299 104.307692 331.161580 104.615385 330.573931 104.923077 329.988388 105.230769 329.404988 105.538462 328.823767 105.846154 328.244761 106.153846 327.668007 106.461538 327.093540 106.769231 326.521398 107.076923 325.951615 107.384615 325.384230 107.692308 324.819277 108.000000 324.256793 108.307692 323.696814 108.615385 323.139377 108.923077 322.584518 109.230769 322.032273 109.538462 321.482679 109.846154 320.935771 110.153846 320.391585 110.461538 319.850159 110.769231 319.311529 111.076923 318.775730 111.384615 318.242799 111.692308 317.712772 112.000000 317.185685 112.307692 316.661576 112.615385 316.140479 112.923077 315.622431 113.230769 315.107469 113.538462 314.595629 113.846154 314.086946 114.153846 313.581458 114.461538 313.079200 114.769231 312.580209 115.076923 312.084521 115.384615 311.592173 115.692308 311.103200 116.000000 310.617638 116.307692 310.135525 116.615385 309.656896 116.923077 309.181788 117.230769 308.710236 117.538462 308.242278 117.846154 307.777949 118.153846 307.317285 118.461538 306.860323 118.769231 306.407100 119.076923 305.957651 119.384615 305.512012 119.692308 305.070221 120.000000 304.632312 120.307692 304.198323 120.615385 303.768290 120.923077 303.342249 121.230769 302.920236 121.538462 302.502287 121.846154 302.088439 122.153846 301.678728 122.461538 301.273190 122.769231 300.871862 123.076923 300.474779 123.384615 300.081979 123.692308 299.693497 124.000000 299.309369 124.307692 298.929632 124.615385 298.554322 124.923077 298.183475 125.230769 297.817128 125.538462 297.455317 125.846154 297.098078 126.153846 296.745447 126.461538 296.397461 126.769231 296.054156 127.076923 295.715568 127.384615 295.381733 127.692308 295.052688 128.000000 294.728469 128.307692 294.409112 128.615385 294.094653 128.923077 293.785129 129.230769 293.480576 129.538462 293.181030 129.846154 292.886528 130.153846 292.597105 130.461538 292.312798 130.769231 292.033644 131.076923 291.759678 131.384615 291.490936 131.692308 291.227456 132.000000 290.969273 132.307692 290.716424 132.615385 290.468944 132.923077 290.226870 133.230769 289.990239 133.538462 289.759086 133.846154 289.533448 134.153846 289.313361 134.461538 289.098862 134.769231 288.889986 135.076923 288.686770 135.384615 288.489250 135.692308 288.297462 136.000000 288.111443 136.307692 287.931229 136.615385 287.756856 136.923077 287.588361 137.230769 287.425779 137.538462 287.269147 137.846154 287.118501 138.153846 286.973878 138.461538 286.835313 138.769231 286.702844 139.076923 286.576505 139.384615 286.456334 139.692308 286.342367 140.000000 286.234640 140.307692 286.133189 140.615385 286.038051 140.923077 285.949261 141.230769 285.866856 141.538462 285.790873 141.846154 285.721347 142.153846 285.658315 142.461538 285.601814 142.769231 285.551878 143.076923 285.508545 143.384615 285.471851 143.692308 285.441832 144.000000 285.418524 144.307692 285.401964 144.615385 285.392188 144.923077 285.389232 145.230769 285.393133 145.538462 285.403926 145.846154 285.421648 146.153846 285.446335 146.461538 285.478024 146.769231 285.516750 147.076923 285.562550 147.384615 285.615461 147.692308 285.675518 148.000000 285.742758 148.307692 285.817216 148.615385 285.898930 148.923077 285.987936 149.230769 286.084269 149.538462 286.187966 149.846154 286.299064 150.153846 286.417598 150.461538 286.543605 150.769231 286.677121 151.076923 286.818182 151.384615 286.966825 151.692308 287.123086 152.000000 287.287001 152.307692 287.458606 152.615385 287.637938 152.923077 287.825032 153.230769 288.019926 153.538462 288.222656 153.846154 288.433256 154.153846 288.651765 154.461538 288.878218 154.769231 289.112652 155.076923 289.355102 155.384615 289.605605 155.692308 289.864197 156.000000 290.130915 156.307692 290.405794 156.615385 290.688872 156.923077 290.980183 157.230769 291.279766 157.538462 291.587654 157.846154 291.903886 158.153846 292.228498 158.461538 292.561525 158.769231 292.903003 159.076923 293.252970 159.384615 293.611461 159.692308 293.978512 160.000000 294.354161 160.307692 294.738442 160.615385 295.131393 160.923077 295.533050 161.230769 295.943448 161.538462 296.362624 161.846154 296.790615 162.153846 297.227457 162.461538 297.673185 162.769231 298.127837 163.076923 298.591448 163.384615 299.064054 163.692308 299.545693 164.000000 300.036400 164.307692 300.536211 164.615385 301.045163 164.923077 301.563292 165.230769 302.090634 165.538462 302.627226 165.846154 303.173104 166.153846 303.728303 166.461538 304.292861 166.769231 304.866813 167.076923 305.450196 167.384615 306.043047 167.692308 306.645400 168.000000 307.257268 168.307692 307.878561 168.615385 308.509164 168.923077 309.148963 169.230769 309.797844 169.538462 310.455691 169.846154 311.122390 170.153846 311.797827 170.461538 312.481887 170.769231 313.174455 171.076923 313.875417 171.384615 314.584658 171.692308 315.302064 172.000000 316.027520 172.307692 316.760911 172.615385 317.502123 172.923077 318.251042 173.230769 319.007552 173.538462 319.771540 173.846154 320.542890 174.153846 321.321488 174.461538 322.107220 174.769231 322.899971 175.076923 323.699626 175.384615 324.506070 175.692308 325.319190 176.000000 326.138871 176.307692 326.964997 176.615385 327.797455 176.923077 328.636130 177.230769 329.480907 177.538462 330.331672 177.846154 331.188309 178.153846 332.050706 178.461538 332.918746 178.769231 333.792316 179.076923 334.671301 179.384615 335.555585 179.692308 336.445056 180.000000 337.339597 180.307692 338.239096 180.615385 339.143436 180.923077 340.052503 181.230769 340.966183 181.538462 341.884362 181.846154 342.806924 182.153846 343.733755 182.461538 344.664740 182.769231 345.599766 183.076923 346.538717 183.384615 347.481478 183.692308 348.427936 184.000000 349.377975 184.307692 350.331482 184.615385 351.288340 184.923077 352.248437 185.230769 353.211657 185.538462 354.177886 185.846154 355.147009 186.153846 356.118911 186.461538 357.093478 186.769231 358.070596 187.076923 359.050150 187.384615 360.032025 187.692308 361.016106 188.000000 362.002280 188.307692 362.990431 188.615385 363.980445 188.923077 364.972208 189.230769 365.965604 189.538462 366.960520 189.846154 367.956840 190.153846 368.954450 190.461538 369.953236 190.769231 370.953083 191.076923 371.953876 191.384615 372.955500 191.692308 373.957842 192.000000 374.960787 192.307692 375.964220 192.615385 376.968026 192.923077 377.972091 193.230769 378.976300 193.538462 379.980539 193.846154 380.984693 194.153846 381.988648 194.461538 382.992289 194.769231 383.995501 195.076923 384.998170 195.384615 386.000181 195.692308 387.001420 196.000000 388.001772 196.307692 389.001123 196.615385 389.999358 196.923077 390.996362 197.230769 391.992020 197.538462 392.986220 197.846154 393.978844 198.153846 394.969780 198.461538 395.958912 198.769231 396.946127 199.076923 397.931308 199.384615 398.914343 199.692308 399.895115 200.000000 400.873512 200.307692 401.849417 200.615385 402.822717 200.923077 403.793296 201.230769 404.761041 201.538462 405.725837 201.846154 406.687569 202.153846 407.646122 202.461538 408.601383 202.769231 409.553236 203.076923 410.501566 203.384615 411.446261 203.692308 412.387203 204.000000 413.324280 204.307692 414.257377 204.615385 415.186378 204.923077 416.111170 205.230769 417.031638 205.538462 417.947667 205.846154 418.859142 206.153846 419.765950 206.461538 420.667975 206.769231 421.565104 207.076923 422.457220 207.384615 423.344211 207.692308 424.225960 208.000000 425.102354 208.307692 425.973279 208.615385 426.838618 208.923077 427.698259 209.230769 428.552086 209.538462 429.399985 209.846154 430.241841 210.153846 431.077540 210.461538 431.906966 210.769231 432.730006 211.076923 433.546545 211.384615 434.356468 211.692308 435.159661 212.000000 435.956009 212.307692 436.745398 212.615385 437.527713 212.923077 438.302839 213.230769 439.070662 213.538462 439.831067 213.846154 440.583940 214.153846 441.329166 214.461538 442.066631 214.769231 442.796219 215.076923 443.517817 215.384615 444.231310 215.692308 444.936583 216.000000 445.633521 216.307692 446.322011 216.615385 447.001937 216.923077 447.673185 217.230769 448.335641 217.538462 448.989189 217.846154 449.633715 218.153846 450.269105 218.461538 450.895244 218.769231 451.512018 219.076923 452.119311 219.384615 452.717010 219.692308 453.305000 220.000000 453.883165 220.307692 454.451393 220.615385 455.009567 220.923077 455.557573 221.230769 456.095298 221.538462 456.622626 221.846154 457.139442 222.153846 457.645633 222.461538 458.141083 222.769231 458.625678 223.076923 459.099304 223.384615 459.561845 223.692308 460.013188 224.000000 460.453217 224.307692 460.881819 224.615385 461.298878 224.923077 461.704280 225.230769 462.097910 225.538462 462.479654 225.846154 462.849397 226.153846 463.207025 226.461538 463.552423 226.769231 463.885476 227.076923 464.206071 227.384615 464.514091 227.692308 464.809424 228.000000 465.091953 228.307692 465.361565 228.615385 465.618146 228.923077 465.861579 229.230769 466.091752 229.538462 466.308549 229.846154 466.511855 230.153846 466.701557 230.461538 466.877539 230.769231 467.039687 231.076923 467.187887 231.384615 467.322024 231.692308 467.441982 232.000000 467.547649 232.307692 467.638908 232.615385 467.715646 232.923077 467.777748 233.230769 467.825100 233.538462 467.857586 233.846154 467.875092 234.153846 467.877504 234.461538 467.864708 234.769231 467.836587 235.076923 467.793029 235.384615 467.733918 235.692308 467.659139 236.000000 467.568579 236.307692 467.462123 236.615385 467.339655 236.923077 467.201062 237.230769 467.046229 237.538462 466.875041 237.846154 466.687384 238.153846 466.483143 238.461538 466.262204 238.769231 466.024451 239.076923 465.769771 239.384615 465.498049 239.692308 465.209171 240.000000 464.903021 240.307692 464.579485 240.615385 464.238448 240.923077 463.879797 241.230769 463.503416 241.538462 463.109190 241.846154 462.697006 242.153846 462.266749 242.461538 461.818304 242.769231 461.351556 243.076923 460.866391 243.384615 460.362695 243.692308 459.840352 244.000000 459.299248 244.307692 458.739270 244.615385 458.160301 244.923077 457.562274 245.230769 456.945309 245.538462 456.309570 245.846154 455.655225 246.153846 454.982438 246.461538 454.291375 246.769231 453.582202 247.076923 452.855086 247.384615 452.110190 247.692308 451.347683 248.000000 450.567728 248.307692 449.770492 248.615385 448.956141 248.923077 448.124840 249.230769 447.276756 249.538462 446.412054 249.846154 445.530899 250.153846 444.633458 250.461538 443.719896 250.769231 442.790379 251.076923 441.845073 251.384615 440.884143 251.692308 439.907756 252.000000 438.916077 252.307692 437.909272 252.615385 436.887506 252.923077 435.850946 253.230769 434.799757 253.538462 433.734105 253.846154 432.654156 254.153846 431.560075 254.461538 430.452029 254.769231 429.330182 255.076923 428.194701 255.384615 427.045752 255.692308 425.883500 256.000000 424.708111 256.307692 423.519751 256.615385 422.318586 256.923077 421.104781 257.230769 419.878502 257.538462 418.639915 257.846154 417.389186 258.153846 416.126480 258.461538 414.851963 258.769231 413.565802 259.076923 412.268161 259.384615 410.959207 259.692308 409.639104 260.000000 408.308020 260.307692 406.966120 260.615385 405.613569 260.923077 404.250534 261.230769 402.877180 261.538462 401.493673 261.846154 400.100178 262.153846 398.696862 262.461538 397.283890 262.769231 395.861427 263.076923 394.429641 263.384615 392.988696 263.692308 391.538758 264.000000 390.079994 264.307692 388.612568 264.615385 387.136646 264.923077 385.652395 265.230769 384.159980 265.538462 382.659567 265.846154 381.151322 266.153846 379.635410 266.461538 378.111997 266.769231 376.581248 267.076923 375.043331 267.384615 373.498410 267.692308 371.946651 268.000000 370.388221 268.307692 368.823284 268.615385 367.252006 268.923077 365.674554 269.230769 364.091093 269.538462 362.501788 269.846154 360.906807 270.153846 359.306313 270.461538 357.700474 270.769231 356.089454 271.076923 354.473421 271.384615 352.852538 271.692308 351.226973 272.000000 349.596891 272.307692 347.962457 272.615385 346.323838 272.923077 344.681199 273.230769 343.034707 273.538462 341.384526 273.846154 339.730822 274.153846 338.073762 274.461538 336.413511 274.769231 334.750235 275.076923 333.084099 275.384615 331.415270 275.692308 329.743913 276.000000 328.070194 276.307692 326.394278 276.615385 324.716332 276.923077 323.036521 277.230769 321.355011 277.538462 319.671968 277.846154 317.987558 278.153846 316.301945 278.461538 314.615297 278.769231 312.927779 279.076923 311.239556 279.384615 309.550794 279.692308 307.861660 280.000000 306.172319 280.307692 304.482936 280.615385 302.793677 280.923077 301.104709 281.230769 299.416197 281.538462 297.728306 281.846154 296.041203 282.153846 294.355053 282.461538 292.670022 282.769231 290.986276 283.076923 289.303981 283.384615 287.623301 283.692308 285.944404 284.000000 284.267455 284.307692 282.592619 284.615385 280.920063 284.923077 279.249952 285.230769 277.582452 285.538462 275.917728 285.846154 274.255947 286.153846 272.597274 286.461538 270.941876 286.769231 269.289917 287.076923 267.641563 287.384615 265.996981 287.692308 264.356335 288.000000 262.719793 288.307692 261.087519 288.615385 259.459680 288.923077 257.836440 289.230769 256.217967 289.538462 254.604425 289.846154 252.995980 290.153846 251.392799 290.461538 249.795047 290.769231 248.202889 291.076923 246.616492 291.384615 245.036021 291.692308 243.461642 292.000000 241.893521 292.307692 240.331824 292.615385 238.776716 292.923077 237.228362 293.230769 235.686930 293.538462 234.152585 293.846154 232.625491 294.153846 231.105816 294.461538 229.593725 294.769231 228.089384 295.076923 226.592958 295.384615 225.104613 295.692308 223.624515 296.000000 222.152830 296.307692 220.689723 296.615385 219.235361 296.923077 217.789909 297.230769 216.353532 297.538462 214.926397 297.846154 213.508670 298.153846 212.100516 298.461538 210.702100 298.769231 209.313589 299.076923 207.935149 299.384615 206.566945 299.692308 205.209142 300.000000 203.861908 300.307692 202.525407 300.615385 201.199805 300.923077 199.885268 301.230769 198.581962 301.538462 197.290053 301.846154 196.009706 302.153846 194.741087 302.461538 193.484361 302.769231 192.239696 303.076923 191.007256 303.384615 189.787207 303.692308 188.579714 304.000000 187.384945 304.307692 186.203064 304.615385 185.034237 304.923077 183.878631 305.230769 182.736409 305.538462 181.607740 305.846154 180.492788 306.153846 179.391719 306.461538 178.304698 306.769231 177.231893 307.076923 176.173467 307.384615 175.129588 307.692308 174.100420 308.000000 173.086131 308.307692 172.086884 308.615385 171.102847 308.923077 170.134185 309.230769 169.181064 309.538462 168.243649 309.846154 167.322106 310.153846 166.416601 310.461538 165.527300 310.769231 164.654369 311.076923 163.797973 311.384615 162.958278 311.692308 162.135450 312.000000 161.329655 312.307692 160.541058 312.615385 159.769825 312.923077 159.016122 313.230769 158.280114 313.538462 157.561968 313.846154 156.861850 314.153846 156.179924 314.461538 155.516357 314.769231 154.871315 315.076923 154.244963 315.384615 153.637467 315.692308 153.048993 316.000000 152.479706 316.307692 151.929773 316.615385 151.399359 316.923077 150.888629 317.230769 150.397751 317.538462 149.926889 317.846154 149.476209 318.153846 149.045877 318.461538 148.636058 318.769231 148.246919 319.076923 147.878626 319.384615 147.531343 319.692308 147.205238 320.000000 146.900474 320.307692 146.617219 320.615385 146.355639 320.923077 146.115898 321.230769 145.898162 321.538462 145.702599 321.846154 145.529317 322.153846 145.378211 322.461538 145.249119 322.769231 145.141879 323.076923 145.056329 323.384615 144.992308 323.692308 144.949654 324.000000 144.928206 324.307692 144.927800 324.615385 144.948277 324.923077 144.989474 325.230769 145.051229 325.538462 145.133382 325.846154 145.235769 326.153846 145.358229 326.461538 145.500602 326.769231 145.662724 327.076923 145.844435 327.384615 146.045572 327.692308 146.265974 328.000000 146.505479 328.307692 146.763926 328.615385 147.041153 328.923077 147.336998 329.230769 147.651299 329.538462 147.983895 329.846154 148.334624 330.153846 148.703324 330.461538 149.089834 330.769231 149.493992 331.076923 149.915636 331.384615 150.354605 331.692308 150.810736 332.000000 151.283869 332.307692 151.773841 332.615385 152.280491 332.923077 152.803656 333.230769 153.343177 333.538462 153.898890 333.846154 154.470633 334.153846 155.058246 334.461538 155.661567 334.769231 156.280434 335.076923 156.914684 335.384615 157.564158 335.692308 158.228691 336.000000 158.908125 336.307692 159.602295 336.615385 160.311041 336.923077 161.034201 337.230769 161.771613 337.538462 162.523116 337.846154 163.288548 338.153846 164.067747 338.461538 164.860552 338.769231 165.666800 339.076923 166.486331 339.384615 167.318982 339.692308 168.164591 340.000000 169.022998 340.307692 169.894040 340.615385 170.777555 340.923077 171.673383 341.230769 172.581360 341.538462 173.501327 341.846154 174.433120 342.153846 175.376578 342.461538 176.331539 342.769231 177.297843 343.076923 178.275326 343.384615 179.263828 343.692308 180.263186 344.000000 181.273239 344.307692 182.293826 344.615385 183.324784 344.923077 184.365952 345.230769 185.417168 345.538462 186.478271 345.846154 187.549098 346.153846 188.629489 346.461538 189.719280 346.769231 190.818312 347.076923 191.926421 347.384615 193.043447 347.692308 194.169227 348.000000 195.303600 348.307692 196.446405 348.615385 197.597479 348.923077 198.756660 349.230769 199.923788 349.538462 201.098700 349.846154 202.281235 350.153846 203.471231 350.461538 204.668526 350.769231 205.872959 351.076923 207.084367 351.384615 208.302590 351.692308 209.527465 352.000000 210.758832 352.307692 211.996527 352.615385 213.240390 352.923077 214.490258 353.230769 215.745971 353.538462 217.007365 353.846154 218.274281 354.153846 219.546555 354.461538 220.824027 354.769231 222.106534 355.076923 223.393915 355.384615 224.686008 355.692308 225.982652 356.000000 227.283684 356.307692 228.588944 356.615385 229.898268 356.923077 231.211497 357.230769 232.528467 357.538462 233.849018 357.846154 235.172987 358.153846 236.500213 358.461538 237.830534 358.769231 239.163789 359.076923 240.499816 359.384615 241.838452 359.692308 243.179537 360.000000 244.522909 360.307692 245.868405 360.615385 247.215865 360.923077 248.565127 361.230769 249.916028 361.538462 251.268408 361.846154 252.622104 362.153846 253.976955 362.461538 255.332799 362.769231 256.689475 363.076923 258.046820 363.384615 259.404673 363.692308 260.762872 364.000000 262.121257 364.307692 263.479664 364.615385 264.837932 364.923077 266.195900 365.230769 267.553405 365.538462 268.910287 365.846154 270.266383 366.153846 271.621532 366.461538 272.975572 366.769231 274.328342 367.076923 275.679679 367.384615 277.029421 367.692308 278.377409 368.000000 279.723478 368.307692 281.067469 368.615385 282.409219 368.923077 283.748566 369.230769 285.085349 369.538462 286.419406 369.846154 287.750575 370.153846 289.078696 370.461538 290.403605 370.769231 291.725141 371.076923 293.043143 371.384615 294.357449 371.692308 295.667897 372.000000 296.974325 372.307692 298.276573 372.615385 299.574477 372.923077 300.867877 373.230769 302.156610 373.538462 303.440516 373.846154 304.719432 374.153846 305.993196 374.461538 307.261647 374.769231 308.524624 375.076923 309.781964 375.384615 311.033506 375.692308 312.279088 376.000000 313.518548 376.307692 314.751725 376.615385 315.978457 376.923077 317.198583 377.230769 318.411940 377.538462 319.618367 377.846154 320.817702 378.153846 322.009784 378.461538 323.194451 378.769231 324.371541 379.076923 325.540892 379.384615 326.702343 379.692308 327.855732 380.000000 329.000898 380.307692 330.137678 380.615385 331.265911 380.923077 332.385435 381.230769 333.496089 381.538462 334.597711 381.846154 335.690139 382.153846 336.773212 382.461538 337.846767 382.769231 338.910643 383.076923 339.964679 383.384615 341.008712 383.692308 342.042582 384.000000 343.066125 384.307692 344.079182 384.615385 345.081589 384.923077 346.073185 385.230769 347.053809 385.538462 348.023299 385.846154 348.981493 386.153846 349.928229 386.461538 350.863346 386.769231 351.786682 387.076923 352.698075 387.384615 353.597364 387.692308 354.484387 388.000000 355.358982 388.307692 356.220987 388.615385 357.070242 388.923077 357.906583 389.230769 358.729850 389.538462 359.539881 389.846154 360.336514 390.153846 361.119587 390.461538 361.888939 390.769231 362.644408 391.076923 363.385831 391.384615 364.113049 391.692308 364.825898 392.000000 365.524218 392.307692 366.207846 392.615385 366.876621 392.923077 367.530381 393.230769 368.168964 393.538462 368.792209 393.846154 369.399954 394.153846 369.992037 394.461538 370.568297 394.769231 371.128571 395.076923 371.672699 395.384615 372.200519 395.692308 372.711868 396.000000 373.206585 396.307692 373.684508 396.615385 374.145477 396.923077 374.589328 397.230769 375.015901 397.538462 375.425033 397.846154 375.816563 398.153846 376.190330 398.461538 376.546170 398.769231 376.883968 399.076923 377.203777 399.384615 377.505697 399.692308 377.789827 400.000000 378.056266 400.307692 378.305114 400.615385 378.536469 400.923077 378.750431 401.230769 378.947098 401.538462 379.126570 401.846154 379.288945 402.153846 379.434324 402.461538 379.562804 402.769231 379.674485 403.076923 379.769467 403.384615 379.847847 403.692308 379.909726 404.000000 379.955203 404.307692 379.984376 404.615385 379.997344 404.923077 379.994207 405.230769 379.975064 405.538462 379.940014 405.846154 379.889156 406.153846 379.822589 406.461538 379.740412 406.769231 379.642724 407.076923 379.529625 407.384615 379.401213 407.692308 379.257587 408.000000 379.098847 408.307692 378.925092 408.615385 378.736421 408.923077 378.532933 409.230769 378.314726 409.538462 378.081901 409.846154 377.834556 410.153846 377.572790 410.461538 377.296702 410.769231 377.006392 411.076923 376.701959 411.384615 376.383501 411.692308 376.051117 412.000000 375.704908 412.307692 375.344972 412.615385 374.971407 412.923077 374.584314 413.230769 374.183791 413.538462 373.769937 413.846154 373.342852 414.153846 372.902634 414.461538 372.449382 414.769231 371.983197 415.076923 371.504176 415.384615 371.012419 415.692308 370.508025 416.000000 369.991092 416.307692 369.461722 416.615385 368.920011 416.923077 368.366059 417.230769 367.799966 417.538462 367.221831 417.846154 366.631752 418.153846 366.029829 418.461538 365.416160 418.769231 364.790846 419.076923 364.153984 419.384615 363.505675 419.692308 362.846016 420.000000 362.175108 420.307692 361.493050 420.615385 360.799939 420.923077 360.095876 421.230769 359.380960 421.538462 358.655290 421.846154 357.918964 422.153846 357.172083 422.461538 356.414744 422.769231 355.647047 423.076923 354.869092 423.384615 354.080976 423.692308 353.282801 424.000000 352.474663 424.307692 351.656664 424.615385 350.828900 424.923077 349.991473 425.230769 349.144480 425.538462 348.288022 425.846154 347.422196 426.153846 346.547103 426.461538 345.662840 426.769231 344.769508 427.076923 343.867206 427.384615 342.956032 427.692308 342.036085 428.000000 341.107465 428.307692 340.170271 428.615385 339.224602 428.923077 338.270557 429.230769 337.308234 429.538462 336.337734 429.846154 335.359155 430.153846 334.372597 430.461538 333.378158 430.769231 332.375937 431.076923 331.366034 431.384615 330.348548 431.692308 329.323577 432.000000 328.291222 432.307692 327.251580 432.615385 326.204751 432.923077 325.150835 433.230769 324.089930 433.538462 323.022135 433.846154 321.947550 434.153846 320.866273 434.461538 319.778404 434.769231 318.684041 435.076923 317.583285 435.384615 316.476233 435.692308 315.362985 436.000000 314.243640 436.307692 313.118298 436.615385 311.987057 436.923077 310.850016 437.230769 309.707275 437.538462 308.558932 437.846154 307.405087 438.153846 306.245838 438.461538 305.081286 438.769231 303.911528 439.076923 302.736665 439.384615 301.556794 439.692308 300.372016 440.000000 299.182429 440.307692 297.988133 440.615385 296.789226 440.923077 295.585807 441.230769 294.377977 441.538462 293.165833 441.846154 291.949474 442.153846 290.729001 442.461538 289.504512 442.769231 288.276106 443.076923 287.043883 443.384615 285.807940 443.692308 284.568378 444.000000 283.325296 444.307692 282.078792 444.615385 280.828966 444.923077 279.575917 445.230769 278.319743 445.538462 277.060545 445.846154 275.798420 446.153846 274.533469 446.461538 273.265790 446.769231 271.995483 447.076923 270.722646 447.384615 269.447378 447.692308 268.169779 448.000000 266.889948 448.307692 265.607984 448.615385 264.323985 448.923077 263.038052 449.230769 261.750282 449.538462 260.460776 449.846154 259.169632 450.153846 257.876950 450.461538 256.582828 450.769231 255.287365 451.076923 253.990662 451.384615 252.692816 451.692308 251.393926 452.000000 250.094093 452.307692 248.793415 452.615385 247.491991 452.923077 246.189920 453.230769 244.887301 453.538462 243.584234 453.846154 242.280818 454.153846 240.977151 454.461538 239.673332 454.769231 238.369462 455.076923 237.065638 455.384615 235.761960 455.692308 234.458528 456.000000 233.155439 456.307692 231.852794 456.615385 230.550691 456.923077 229.249230 457.230769 227.948509 457.538462 226.648627 457.846154 225.349685 458.153846 224.051780 458.461538 222.755012 458.769231 221.459480 459.076923 220.165283 459.384615 218.872520 459.692308 217.581291 460.000000 216.291694 460.307692 215.003828 460.615385 213.717793 460.923077 212.433688 461.230769 211.151611 461.538462 209.871663 461.846154 208.593941 462.153846 207.318545 462.461538 206.045574 462.769231 204.775127 463.076923 203.507304 463.384615 202.242203 463.692308 200.979924 464.000000 199.720565 464.307692 198.464226 464.615385 197.211006 464.923077 195.961003 465.230769 194.714317 465.538462 193.471048 465.846154 192.231293 466.153846 190.995153 466.461538 189.762726 466.769231 188.534112 467.076923 187.309409 467.384615 186.088717 467.692308 184.872134 468.000000 183.659760 468.307692 182.451694 468.615385 181.248035 468.923077 180.048882 469.230769 178.854334 469.538462 177.664491 469.846154 176.479451 470.153846 175.299313 470.461538 174.124177 470.769231 172.954141 471.076923 171.789305 471.384615 170.629768 471.692308 169.475629 472.000000 168.326987 472.307692 167.183941 472.615385 166.046590 472.923077 164.915034 473.230769 163.789370 473.538462 162.669700 473.846154 161.556120 474.153846 160.448732 474.461538 159.347633 474.769231 158.252923 475.076923 157.164701 475.384615 156.083066 475.692308 155.008097 476.000000 153.939793 476.307692 152.878132 476.615385 151.823093 476.923077 150.774655 477.230769 149.732796 477.538462 148.697495 477.846154 147.668731 478.153846 146.646482 478.461538 145.630727 478.769231 144.621444 479.076923 143.618613 479.384615 142.622211 479.692308 141.632217 480.000000 140.648611 480.307692 139.671370 480.615385 138.700474 480.923077 137.735901 481.230769 136.777629 481.538462 135.825637 481.846154 134.879905 482.153846 133.940410 482.461538 133.007131 482.769231 132.080047 483.076923 131.159136 483.384615 130.244377 483.692308 129.335749 484.000000 128.433231 484.307692 127.536800 484.615385 126.646436 484.923077 125.762117 485.230769 124.883822 485.538462 124.011530 485.846154 123.145219 486.153846 122.284868 486.461538 121.430455 486.769231 120.581959 487.076923 119.739359 487.384615 118.902633 487.692308 118.071760 488.000000 117.246719 488.307692 116.427489 488.615385 115.614047 488.923077 114.806372 489.230769 114.004444 489.538462 113.208241 489.846154 112.417741 490.153846 111.632924 490.461538 110.853767 490.769231 110.080249 491.076923 109.312349 491.384615 108.550047 491.692308 107.793319 492.000000 107.042145 492.307692 106.296504 492.615385 105.556374 492.923077 104.821734 493.230769 104.092563 493.538462 103.368838 493.846154 102.650540 494.153846 101.937646 494.461538 101.230134 494.769231 100.527985 495.076923 99.831176 495.384615 99.139685 495.692308 98.453493 496.000000 97.772576 496.307692 97.096915 496.615385 96.426487 496.923077 95.761271 497.230769 95.101246 497.538462 94.446390 497.846154 93.796682 498.153846 93.152102 498.461538 92.512626 498.769231 91.878234 499.076923 91.248905 499.384615 90.624618 499.692308 90.005350 500.000000 89.391080 500.307692 88.781788 500.615385 88.177452 500.923077 87.578050 501.230769 86.983561 501.538462 86.393964 501.846154 85.809237 502.153846 85.229359 502.461538 84.654309 502.769231 84.084065 503.076923 83.518606 503.384615 82.957911 503.692308 82.401958 504.000000 81.850725 504.307692 81.304192 504.615385 80.762338 504.923077 80.225139 505.230769 79.692577 505.538462 79.164628 505.846154 78.641272 506.153846 78.122487 506.461538 77.608252 506.769231 77.098546 507.076923 76.593347 507.384615 76.092634 507.692308 75.596385 508.000000 75.104579 508.307692 74.617195 508.615385 74.134212 508.923077 73.655607 509.230769 73.181361 509.538462 72.711450 509.846154 72.245855 510.153846 71.784553 510.461538 71.327523 510.769231 70.874744 511.076923 70.426195 511.384615 69.981853 511.692308 69.541699 512.000000 69.105710 512.307692 68.673865 512.615385 68.246143 512.923077 67.822522 513.230769 67.402981 513.538462 66.987498 513.846154 66.576053 514.153846 66.168624 514.461538 65.765189 514.769231 65.365727 515.076923 64.970218 515.384615 64.578638 515.692308 64.190968 516.000000 63.807185 516.307692 63.427269 516.615385 63.051198 516.923077 62.678950 517.230769 62.310505 517.538462 61.945840 517.846154 61.584935 518.153846 61.227768 518.461538 60.874319 518.769231 60.524564 519.076923 60.178484 519.384615 59.836056 519.692308 59.497260 520.000000 59.162073 520.307692 58.830476 520.615385 58.502445 520.923077 58.177961 521.230769 57.857001 521.538462 57.539544 521.846154 57.225569 522.153846 56.915055 522.461538 56.607979 522.769231 56.304322 523.076923 56.004061 523.384615 55.707175 523.692308 55.413642 524.000000 55.123442 524.307692 54.836553 524.615385 54.552953 524.923077 54.272621 525.230769 53.995537 525.538462 53.721678 525.846154 53.451023 526.153846 53.183551 526.461538 52.919240 526.769231 52.658069 527.076923 52.400017 527.384615 52.145062 527.692308 51.893183 528.000000 51.644359 528.307692 51.398568 528.615385 51.155789 528.923077 50.916000 529.230769 50.679181 529.538462 50.445309 529.846154 50.214364 530.153846 49.986324 530.461538 49.761167 530.769231 49.538873 531.076923 49.319420 531.384615 49.102786 531.692308 48.888951 532.000000 48.677893 532.307692 48.469590 532.615385 48.264021 532.923077 48.061165 533.230769 47.861001 533.538462 47.663506 533.846154 47.468660 534.153846 47.276442 534.461538 47.086830 534.769231 46.899802 535.076923 46.715338 535.384615 46.533415 535.692308 46.354013 536.000000 46.177110 536.307692 46.002685 536.615385 45.830717 536.923077 45.661184 537.230769 45.494064 537.538462 45.329337 537.846154 45.166980 538.153846 45.006974 538.461538 44.849295 538.769231 44.693924 539.076923 44.540838 539.384615 44.390017 539.692308 44.241438 540.000000 44.095081 540.307692 43.950923 540.615385 43.808945 540.923077 43.669124 541.230769 43.531439 541.538462 43.395869 541.846154 43.262392 542.153846 43.130987 542.461538 43.001632 542.769231 42.874307 543.076923 42.748990 543.384615 42.625659 543.692308 42.504293 544.000000 42.384871 544.307692 42.267371 544.615385 42.151773 544.923077 42.038054 545.230769 41.926194 545.538462 41.816170 545.846154 41.707962 546.153846 41.601549 546.461538 41.496908 546.769231 41.394019 547.076923 41.292859 547.384615 41.193409 547.692308 41.095646 548.000000 40.999549 548.307692 40.905097 548.615385 40.812269 548.923077 40.721042 549.230769 40.631396 549.538462 40.543309 549.846154 40.456760 550.153846 40.371728 550.461538 40.288190 550.769231 40.206127 551.076923 40.125516 551.384615 40.046336 551.692308 39.968566 552.000000 39.892184 552.307692 39.817169 552.615385 39.743502 552.923077 39.671171 553.230769 39.600167 553.538462 39.530481 553.846154 39.462103 554.153846 39.395023 554.461538 39.329233 554.769231 39.264723 555.076923 39.201483 555.384615 39.139505 555.692308 39.078779 556.000000 39.019295 556.307692 38.961045 556.615385 38.904018 556.923077 38.848206 557.230769 38.793599 557.538462 38.740187 557.846154 38.687962 558.153846 38.636914 558.461538 38.587033 558.769231 38.538310 559.076923 38.490736 559.384615 38.444302 559.692308 38.398998 560.000000 38.354814 560.307692 38.311742 560.615385 38.269772 560.923077 38.228894 561.230769 38.189100 561.538462 38.150379 561.846154 38.112723 562.153846 38.076122 562.461538 38.040566 562.769231 38.006047 563.076923 37.972555 563.384615 37.940080 563.692308 37.908614 564.000000 37.878147 564.307692 37.848669 564.615385 37.820171 564.923077 37.792643 565.230769 37.766078 565.538462 37.740464 565.846154 37.715793 566.153846 37.692055 566.461538 37.669240 566.769231 37.647341 567.076923 37.626346 567.384615 37.606248 567.692308 37.587035 568.000000 37.568700 568.307692 37.551232 568.615385 37.534622 568.923077 37.518862 569.230769 37.503941 569.538462 37.489850 569.846154 37.476579 570.153846 37.464121 570.461538 37.452464 570.769231 37.441600 571.076923 37.431519 571.384615 37.422212 571.692308 37.413669 572.000000 37.405882 572.307692 37.398840 572.615385 37.392535 572.923077 37.386957 573.230769 37.382096 573.538462 37.377944 573.846154 37.374491 574.153846 37.371727 574.461538 37.369643 574.769231 37.368231 575.076923 37.367479 575.384615 37.367380 575.692308 37.367923 576.000000 37.369100 576.307692 37.370901 576.615385 37.373316 576.923077 37.376336 577.230769 37.379952 577.538462 37.384155 577.846154 37.388934 578.153846 37.394282 578.461538 37.400187 578.769231 37.406642 579.076923 37.413636 579.384615 37.421161 579.692308 37.429206 580.000000 37.437763 580.307692 37.446821 580.615385 37.456373 580.923077 37.466408 581.230769 37.476916 581.538462 37.487890 581.846154 37.499318 582.153846 37.511193 582.461538 37.523503 582.769231 37.536241 583.076923 37.549397 583.384615 37.562961 583.692308 37.576924 584.000000 37.591277 584.307692 37.606010 584.615385 37.621113 584.923077 37.636579 585.230769 37.652396 585.538462 37.668556 585.846154 37.685050 586.153846 37.701867 586.461538 37.718999 586.769231 37.736436 587.076923 37.754170 587.384615 37.772189 587.692308 37.790486 588.000000 37.809051 588.307692 37.827874 588.615385 37.846946 588.923077 37.866257 589.230769 37.885799 589.538462 37.905562 589.846154 37.925536 590.153846 37.945713 590.461538 37.966082 590.769231 37.986635 591.076923 38.007362 591.384615 38.028253 591.692308 38.049299 592.000000 38.070492 592.307692 38.091821 592.615385 38.113277 592.923077 38.134851 593.230769 38.156534 593.538462 38.178315 593.846154 38.200186 594.153846 38.222138 594.461538 38.244160 594.769231 38.266244 595.076923 38.288380 595.384615 38.310559 595.692308 38.332772 596.000000 38.355008 596.307692 38.377259 596.615385 38.399516 596.923077 38.421768 597.230769 38.444007 597.538462 38.466223 597.846154 38.488407 598.153846 38.510550 598.461538 38.532641 598.769231 38.554673 599.076923 38.576634 599.384615 38.598517 599.692308 38.620311 600.000000 38.642007 600.307692 38.663596 600.615385 38.685069 600.923077 38.706416 601.230769 38.727627 601.538462 38.748694 601.846154 38.769607 602.153846 38.790356 602.461538 38.810933 602.769231 38.831327 603.076923 38.851530 603.384615 38.871533 603.692308 38.891324 604.000000 38.910897 604.307692 38.930240 604.615385 38.949345 604.923077 38.968202 605.230769 38.986802 605.538462 39.005135 605.846154 39.023193 606.153846 39.040965 606.461538 39.058443 606.769231 39.075617 607.076923 39.092477 607.384615 39.109015 607.692308 39.125220 608.000000 39.141084 608.307692 39.156597 608.615385 39.171750 608.923077 39.186534 609.230769 39.200938 609.538462 39.214954 609.846154 39.228573 610.153846 39.241784 610.461538 39.254579 610.769231 39.266948 611.076923 39.278881 611.384615 39.290371 611.692308 39.301406 612.000000 39.311978 612.307692 39.322077 612.615385 39.331694 612.923077 39.340820 613.230769 39.349444 613.538462 39.357559 613.846154 39.365154 614.153846 39.372220 614.461538 39.378748 614.769231 39.384728 615.076923 39.390151 615.384615 39.395008 615.692308 39.399289 616.000000 39.402985 616.307692 39.406086 616.615385 39.408583 616.923077 39.410467 617.230769 39.411728 617.538462 39.412357 617.846154 39.412345 618.153846 39.411682 618.461538 39.410359 618.769231 39.408366 619.076923 39.405695 619.384615 39.402335 619.692308 39.398278 620.000000 39.393513 620.307692 39.388032 620.615385 39.381825 620.923077 39.374884 621.230769 39.367197 621.538462 39.358757 621.846154 39.349554 622.153846 39.339577 622.461538 39.328819 622.769231 39.317270 623.076923 39.304919 623.384615 39.291759 623.692308 39.277779 624.000000 39.262970 624.307692 39.247323 624.615385 39.230829 624.923077 39.213477 625.230769 39.195259 625.538462 39.176165 625.846154 39.156187 626.153846 39.135313 626.461538 39.113536 626.769231 39.090846 627.076923 39.067233 627.384615 39.042688 627.692308 39.017202 628.000000 38.990765 628.307692 38.963367 628.615385 38.935001 628.923077 38.905655 629.230769 38.875322 629.538462 38.843993 629.846154 38.811670 630.153846 38.778358 630.461538 38.744060 630.769231 38.708781 631.076923 38.672524 631.384615 38.635293 631.692308 38.597093 632.000000 38.557927 632.307692 38.517799 632.615385 38.476714 632.923077 38.434675 633.230769 38.391686 633.538462 38.347751 633.846154 38.302875 634.153846 38.257061 634.461538 38.210314 634.769231 38.162636 635.076923 38.114033 635.384615 38.064508 635.692308 38.014066 636.000000 37.962709 636.307692 37.910443 636.615385 37.857271 636.923077 37.803197 637.230769 37.748225 637.538462 37.692360 637.846154 37.635604 638.153846 37.577963 638.461538 37.519440 638.769231 37.460039 639.076923 37.399764 639.384615 37.338619 639.692308 37.276609 640.000000 37.213736 640.307692 37.150006 640.615385 37.085421 640.923077 37.019987 641.230769 36.953706 641.538462 36.886584 641.846154 36.818624 642.153846 36.749830 642.461538 36.680205 642.769231 36.609755 643.076923 36.538483 643.384615 36.466393 643.692308 36.393488 644.000000 36.319774 644.307692 36.245254 644.615385 36.169931 644.923077 36.093811 645.230769 36.016896 645.538462 35.939192 645.846154 35.860701 646.153846 35.781428 646.461538 35.701377 646.769231 35.620552 647.076923 35.538957 647.384615 35.456595 647.692308 35.373472 648.000000 35.289590 648.307692 35.204954 648.615385 35.119568 648.923077 35.033436 649.230769 34.946562 649.538462 34.858949 649.846154 34.770602 650.153846 34.681525 650.461538 34.591722 650.769231 34.501196 651.076923 34.409952 651.384615 34.317994 651.692308 34.225326 652.000000 34.131951 652.307692 34.037874 652.615385 33.943099 652.923077 33.847629 653.230769 33.751469 653.538462 33.654623 653.846154 33.557094 654.153846 33.458887 654.461538 33.360006 654.769231 33.260454 655.076923 33.160236 655.384615 33.059355 655.692308 32.957816 656.000000 32.855623 656.307692 32.752779 656.615385 32.649289 656.923077 32.545157 657.230769 32.440385 657.538462 32.334980 657.846154 32.228944 658.153846 32.122281 658.461538 32.014996 658.769231 31.907093 659.076923 31.798575 659.384615 31.689446 659.692308 31.579711 660.000000 31.469374 660.307692 31.358437 660.615385 31.246907 660.923077 31.134785 661.230769 31.022078 661.538462 30.908787 661.846154 30.794918 662.153846 30.680474 662.461538 30.565460 662.769231 30.449879 663.076923 30.333736 663.384615 30.217033 663.692308 30.099777 664.000000 29.981969 664.307692 29.863615 664.615385 29.744718 664.923077 29.625283 665.230769 29.505312 665.538462 29.384811 665.846154 29.263784 666.153846 29.142233 666.461538 29.020164 666.769231 28.897580 667.076923 28.774485 667.384615 28.650884 667.692308 28.526780 668.000000 28.402176 668.307692 28.277079 668.615385 28.151490 668.923077 28.025414 669.230769 27.898856 669.538462 27.771819 669.846154 27.644307 670.153846 27.516324 670.461538 27.387874 670.769231 27.258962 671.076923 27.129590 671.384615 26.999764 671.692308 26.869487 672.000000 26.738762 672.307692 26.607595 672.615385 26.475989 672.923077 26.343948 673.230769 26.211476 673.538462 26.078577 673.846154 25.945255 674.153846 25.811514 674.461538 25.677358 674.769231 25.542791 675.076923 25.407817 675.384615 25.272441 675.692308 25.136665 676.000000 25.000494 676.307692 24.863931 676.615385 24.726982 676.923077 24.589650 677.230769 24.451939 677.538462 24.313852 677.846154 24.175395 678.153846 24.036570 678.461538 23.897383 678.769231 23.757836 679.076923 23.617934 679.384615 23.477681 679.692308 23.337080 680.000000 23.196137 680.307692 23.054854 680.615385 22.913236 680.923077 22.771287 681.230769 22.629011 681.538462 22.486412 681.846154 22.343493 682.153846 22.200259 682.461538 22.056714 682.769231 21.912861 683.076923 21.768706 683.384615 21.624251 683.692308 21.479500 684.000000 21.334459 684.307692 21.189130 684.615385 21.043518 684.923077 20.897626 685.230769 20.751460 685.538462 20.605021 685.846154 20.458316 686.153846 20.311347 686.461538 20.164119 686.769231 20.016635 687.076923 19.868900 687.384615 19.720918 687.692308 19.572692 688.000000 19.424227 688.307692 19.275526 688.615385 19.126594 688.923077 18.977434 689.230769 18.828051 689.538462 18.678449 689.846154 18.528631 690.153846 18.378601 690.461538 18.228364 690.769231 18.077924 691.076923 17.927284 691.384615 17.776448 691.692308 17.625421 692.000000 17.474207 692.307692 17.322809 692.615385 17.171231 692.923077 17.019478 693.230769 16.867553 693.538462 16.715460 693.846154 16.563204 694.153846 16.410788 694.461538 16.258217 694.769231 16.105494 695.076923 15.952624 695.384615 15.799609 695.692308 15.646456 696.000000 15.493166 696.307692 15.339745 696.615385 15.186196 696.923077 15.032523 697.230769 14.878731 697.538462 14.724823 697.846154 14.570803 698.153846 14.416675 698.461538 14.262444 698.769231 14.108113 699.076923 13.953686 699.384615 13.799168 699.692308 13.644561 700.000000 13.489871 700.307692 13.335101 700.615385 13.180255 700.923077 13.025338 701.230769 12.870352 701.538462 12.715303 701.846154 12.560194 702.153846 12.405029 702.461538 12.249812 702.769231 12.094547 703.076923 11.939238 703.384615 11.783890 703.692308 11.628505 704.000000 11.473089 704.307692 11.317645 704.615385 11.162176 704.923077 11.006688 705.230769 10.851184 705.538462 10.695668 705.846154 10.540144 706.153846 10.384615 706.153846 540.000000" /></g></g><g class="titles" /><g class="plot overlay" transform="translate(60, 20)"><g class="series serie-0 color-0"><g class="dots"><circle class="dot reactive tooltip-trigger" cx="13.846153846153847" cy="529.6153846153846" r="2.5" /><desc class="value">4,339,292,786(kWh)</desc><desc class="x top">13.846153846153847</desc><desc class="y top">529.6153846153846</desc><desc class="x_label">2549</desc></g><g class="dots"><circle class="dot reactive tooltip-trigger" cx="90.76923076923076" cy="358.5531423694962" r="2.5" /><desc class="value">4,732,511,426(kWh)</desc><desc class="x top">90.76923076923076</desc><desc class="y top">358.5531423694962</desc><desc class="x_label">2550</desc></g><g class="dots"><circle class="dot reactive tooltip-trigger" cx="167.69230769230765" cy="306.64540006663987" r="2.5" /><desc class="value">4,851,831,105(kWh)</desc><desc class="x top">167.69230769230765</desc><desc class="y top">306.64540006663987</desc><desc class="x_label">2551</desc></g><g class="dots"><circle class="dot reactive tooltip-trigger" cx="244.6153846153846" cy="458.1603007237618" r="2.5" /><desc class="value">4,503,545,695(kWh)</desc><desc class="x top">244.6153846153846</desc><desc class="y top">458.1603007237618</desc><desc class="x_label">2552</desc></g><g class="dots"><circle class="dot reactive tooltip-trigger" cx="321.5384615384615" cy="145.7025985364058" r="2.5" /><desc class="value">5,221,788,313(kWh)</desc><desc class="x ">321.5384615384615</desc><desc class="y ">145.7025985364058</desc><desc class="x_label">2553</desc></g><g class="dots"><circle class="dot reactive tooltip-trigger" cx="398.46153846153845" cy="376.5461704721632" r="2.5" /><desc class="value">4,691,151,077(kWh)</desc><desc class="x left top">398.46153846153845</desc><desc class="y left top">376.5461704721632</desc><desc class="x_label">2554</desc></g><g class="dots"><circle class="dot reactive tooltip-trigger" cx="475.38461538461536" cy="156.0830660323017" r="2.5" /><desc class="value">5,197,926,862(kWh)</desc><desc class="x left">475.38461538461536</desc><desc class="y left">156.0830660323017</desc><desc class="x_label">2555</desc></g><g class="dots"><circle class="dot reactive tooltip-trigger" cx="552.3076923076923" cy="39.8171692446636" r="2.5" /><desc class="value">5,465,185,827(kWh)</desc><desc class="x left">552.3076923076923</desc><desc class="y left">39.8171692446636</desc><desc class="x_label">2556</desc></g><g class="dots"><circle class="dot reactive tooltip-trigger" cx="629.2307692307692" cy="38.875321782214996" r="2.5" /><desc class="value">5,467,350,840(kWh)</desc><desc class="x left">629.2307692307692</desc><desc class="y left">38.875321782214996</desc><desc class="x_label">2557</desc></g><g class="dots"><circle class="dot reactive tooltip-trigger" cx="706.1538461538461" cy="10.384615384615358" r="2.5" /><desc class="value">5,532,842,071(kWh)</desc><desc class="x left">706.1538461538461</desc><desc class="y left">10.384615384615358</desc><desc class="x_label">2558</desc></g></g></g><g class="plot text-overlay" transform="translate(60, 20)"><g class="series serie-0 color-0" /></g><g class="plot tooltip-overlay" transform="translate(60, 20)"><g class="tooltip" style="opacity: 0" transform="translate(0 0)"><rect class="tooltip-box" height="0" rx="0" ry="0" width="0" /><g class="text" /></g></g></g></svg>