<?xml version='1.0' encoding='utf-8'?>
<svg xmlns:xlink="http://www.w3.org/1999/xlink" class="pygal-chart" id="chart-e79bae9f-d209-418a-b0d3-e9b65ca98f75" viewBox="0 0 800 600" xmlns="http://www.w3.org/2000/svg"><!--Generated with pygal 2.3.0 (etree) ©Kozea 2012-2016 on 2016-12-08--><!--http://pygal.org--><!--http://github.com/Kozea/pygal--><defs><style type="text/css">#chart-e79bae9f-d209-418a-b0d3-e9b65ca98f75{-webkit-user-select:none;-webkit-font-smoothing:antialiased;font-family:Consolas,"Liberation Mono",Menlo,Courier,monospace}#chart-e79bae9f-d209-418a-b0d3-e9b65ca98f75 .title{font-family:Consolas,"Liberation Mono",Menlo,Courier,monospace;font-size:16px}#chart-e79bae9f-d209-418a-b0d3-e9b65ca98f75 .legends .legend text{font-family:Consolas,"Liberation Mono",Menlo,Courier,monospace;font-size:14px}#chart-e79bae9f-d209-418a-b0d3-e9b65ca98f75 .axis text{font-family:Consolas,"Liberation Mono",Menlo,Courier,monospace;font-size:10px}#chart-e79bae9f-d209-418a-b0d3-e9b65ca98f75 .axis text.major{font-family:Consolas,"Liberation Mono",Menlo,Courier,monospace;font-size:10px}#chart-e79bae9f-d209-418a-b0d3-e9b65ca98f75 .text-overlay text.value{font-family:Consolas,"Liberation Mono",Menlo,Courier,monospace;font-size:16px}#chart-e79bae9f-d209-418a-b0d3-e9b65ca98f75 .text-overlay text.label{font-family:Consolas,"Liberation Mono",Menlo,Courier,monospace;font-size:10px}#chart-e79bae9f-d209-418a-b0d3-e9b65ca98f75 .tooltip{font-family:Consolas,"Liberation Mono",Menlo,Courier,monospace;font-size:14px}#chart-e79bae9f-d209-418a-b0d3-e9b65ca98f75 text.no_data{font-family:Consolas,"Liberation Mono",Menlo,Courier,monospace;font-size:64px}
#chart-e79bae9f-d209-418a-b0d3-e9b65ca98f75{background-color:rgba(249,249,249,1)}#chart-e79bae9f-d209-418a-b0d3-e9b65ca98f75 path,#chart-e79bae9f-d209-418a-b0d3-e9b65ca98f75 line,#chart-e79bae9f-d209-418a-b0d3-e9b65ca98f75 rect,#chart-e79bae9f-d209-418a-b0d3-e9b65ca98f75 circle{-webkit-transition:150ms;-moz-transition:150ms;transition:150ms}#chart-e79bae9f-d209-418a-b0d3-e9b65ca98f75 .graph &gt; .background{fill:rgba(249,249,249,1)}#chart-e79bae9f-d209-418a-b0d3-e9b65ca98f75 .plot &gt; .background{fill:rgba(255,255,255,1)}#chart-e79bae9f-d209-418a-b0d3-e9b65ca98f75 .graph{fill:rgba(0,0,0,.87)}#chart-e79bae9f-d209-418a-b0d3-e9b65ca98f75 text.no_data{fill:rgba(0,0,0,1)}#chart-e79bae9f-d209-418a-b0d3-e9b65ca98f75 .title{fill:rgba(0,0,0,1)}#chart-e79bae9f-d209-418a-b0d3-e9b65ca98f75 .legends .legend text{fill:rgba(0,0,0,.87)}#chart-e79bae9f-d209-418a-b0d3-e9b65ca98f75 .legends .legend:hover text{fill:rgba(0,0,0,1)}#chart-e79bae9f-d209-418a-b0d3-e9b65ca98f75 .axis .line{stroke:rgba(0,0,0,1)}#chart-e79bae9f-d209-418a-b0d3-e9b65ca98f75 .axis .guide.line{stroke:rgba(0,0,0,.54)}#chart-e79bae9f-d209-418a-b0d3-e9b65ca98f75 .axis .major.line{stroke:rgba(0,0,0,.87)}#chart-e79bae9f-d209-418a-b0d3-e9b65ca98f75 .axis text.major{fill:rgba(0,0,0,1)}#chart-e79bae9f-d209-418a-b0d3-e9b65ca98f75 .axis.y .guides:hover .guide.line,#chart-e79bae9f-d209-418a-b0d3-e9b65ca98f75 .line-graph .axis.x .guides:hover .guide.line,#chart-e79bae9f-d209-418a-b0d3-e9b65ca98f75 .stackedline-graph .axis.x .guides:hover .guide.line,#chart-e79bae9f-d209-418a-b0d3-e9b65ca98f75 .xy-graph .axis.x .guides:hover .guide.line{stroke:rgba(0,0,0,1)}#chart-e79bae9f-d209-418a-b0d3-e9b65ca98f75 .axis .guides:hover text{fill:rgba(0,0,0,1)}#chart-e79bae9f-d209-418a-b0d3-e9b65ca98f75 .reactive{fill-opacity:.7;stroke-opacity:.8}#chart-e79bae9f-d209-418a-b0d3-e9b65ca98f75 .ci{stroke:rgba(0,0,0,.87)}#chart-e79bae9f-d209-418a-b0d3-e9b65ca98f75 .reactive.active,#chart-e79bae9f-d209-418a-b0d3-e9b65ca98f75 .active .reactive{fill-opacity:.8;stroke-opacity:.9;stroke-width:4}#chart-e79bae9f-d209-418a-b0d3-e9b65ca98f75 .ci .reactive.active{stroke-width:1.5}#chart-e79bae9f-d209-418a-b0d3-e9b65ca98f75 .series text{fill:rgba(0,0,0,1)}#chart-e79bae9f-d209-418a-b0d3-e9b65ca98f75 .tooltip rect{fill:rgba(255,255,255,1);stroke:rgba(0,0,0,1);-webkit-transition:opacity 150ms;-moz-transition:opacity 150ms;transition:opacity 150ms}#chart-e79bae9f-d209-418a-b0d3-e9b65ca98f75 .tooltip .label{fill:rgba(0,0,0,.87)}#chart-e79bae9f-d209-418a-b0d3-e9b65ca98f75 .tooltip .label{fill:rgba(0,0,0,.87)}#chart-e79bae9f-d209-418a-b0d3-e9b65ca98f75 .tooltip .legend{font-size:.8em;fill:rgba(0,0,0,.54)}#chart-e79bae9f-d209-418a-b0d3-e9b65ca98f75 .tooltip .x_label{font-size:.6em;fill:rgba(0,0,0,1)}#chart-e79bae9f-d209-418a-b0d3-e9b65ca98f75 .tooltip .xlink{font-size:.5em;text-decoration:underline}#chart-e79bae9f-d209-418a-b0d3-e9b65ca98f75 .tooltip .value{font-size:1.5em}#chart-e79bae9f-d209-418a-b0d3-e9b65ca98f75 .bound{font-size:.5em}#chart-e79bae9f-d209-418a-b0d3-e9b65ca98f75 .max-value{font-size:.75em;fill:rgba(0,0,0,.54)}#chart-e79bae9f-d209-418a-b0d3-e9b65ca98f75 .map-element{fill:rgba(255,255,255,1);stroke:rgba(0,0,0,.54) !important}#chart-e79bae9f-d209-418a-b0d3-e9b65ca98f75 .map-element .reactive{fill-opacity:inherit;stroke-opacity:inherit}#chart-e79bae9f-d209-418a-b0d3-e9b65ca98f75 .color-0,#chart-e79bae9f-d209-418a-b0d3-e9b65ca98f75 .color-0 a:visited{stroke:#e86fa0;fill:#e86fa0}#chart-e79bae9f-d209-418a-b0d3-e9b65ca98f75 .text-overlay .color-0 text{fill:black}
#chart-e79bae9f-d209-418a-b0d3-e9b65ca98f75 text.no_data{text-anchor:middle}#chart-e79bae9f-d209-418a-b0d3-e9b65ca98f75 .guide.line{fill:none}#chart-e79bae9f-d209-418a-b0d3-e9b65ca98f75 .centered{text-anchor:middle}#chart-e79bae9f-d209-418a-b0d3-e9b65ca98f75 .title{text-anchor:middle}#chart-e79bae9f-d209-418a-b0d3-e9b65ca98f75 .legends .legend text{fill-opacity:1}#chart-e79bae9f-d209-418a-b0d3-e9b65ca98f75 .axis.x text{text-anchor:middle}#chart-e79bae9f-d209-418a-b0d3-e9b65ca98f75 .axis.x:not(.web) text[transform]{text-anchor:start}#chart-e79bae9f-d209-418a-b0d3-e9b65ca98f75 .axis.x:not(.web) text[transform].backwards{text-anchor:end}#chart-e79bae9f-d209-418a-b0d3-e9b65ca98f75 .axis.y text{text-anchor:end}#chart-e79bae9f-d209-418a-b0d3-e9b65ca98f75 .axis.y text[transform].backwards{text-anchor:start}#chart-e79bae9f-d209-418a-b0d3-e9b65ca98f75 .axis.y2 text{text-anchor:start}#chart-e79bae9f-d209-418a-b0d3-e9b65ca98f75 .axis.y2 text[transform].backwards{text-anchor:end}#chart-e79bae9f-d209-418a-b0d3-e9b65ca98f75 .axis .guide.line{stroke-dasharray:4,4}#chart-e79bae9f-d209-418a-b0d3-e9b65ca98f75 .axis .major.guide.line{stroke-dasharray:6,6}#chart-e79bae9f-d209-418a-b0d3-e9b65ca98f75 .horizontal .axis.y .guide.line,#chart-e79bae9f-d209-418a-b0d3-e9b65ca98f75 .horizontal .axis.y2 .guide.line,#chart-e79bae9f-d209-418a-b0d3-e9b65ca98f75 .vertical .axis.x .guide.line{opacity:0}#chart-e79bae9f-d209-418a-b0d3-e9b65ca98f75 .horizontal .axis.always_show .guide.line,#chart-e79bae9f-d209-418a-b0d3-e9b65ca98f75 .vertical .axis.always_show .guide.line{opacity:1 !important}#chart-e79bae9f-d209-418a-b0d3-e9b65ca98f75 .axis.y .guides:hover .guide.line,#chart-e79bae9f-d209-418a-b0d3-e9b65ca98f75 .axis.y2 .guides:hover .guide.line,#chart-e79bae9f-d209-418a-b0d3-e9b65ca98f75 .axis.x .guides:hover .guide.line{opacity:1}#chart-e79bae9f-d209-418a-b0d3-e9b65ca98f75 .axis .guides:hover text{opacity:1}#chart-e79bae9f-d209-418a-b0d3-e9b65ca98f75 .nofill{fill:none}#chart-e79bae9f-d209-418a-b0d3-e9b65ca98f75 .subtle-fill{fill-opacity:.2}#chart-e79bae9f-d209-418a-b0d3-e9b65ca98f75 .dot{stroke-width:1px;fill-opacity:1}#chart-e79bae9f-d209-418a-b0d3-e9b65ca98f75 .dot.active{stroke-width:5px}#chart-e79bae9f-d209-418a-b0d3-e9b65ca98f75 .dot.negative{fill:transparent}#chart-e79bae9f-d209-418a-b0d3-e9b65ca98f75 text,#chart-e79bae9f-d209-418a-b0d3-e9b65ca98f75 tspan{stroke:none !important}#chart-e79bae9f-d209-418a-b0d3-e9b65ca98f75 .series text.active{opacity:1}#chart-e79bae9f-d209-418a-b0d3-e9b65ca98f75 .tooltip rect{fill-opacity:.95;stroke-width:.5}#chart-e79bae9f-d209-418a-b0d3-e9b65ca98f75 .tooltip text{fill-opacity:1}#chart-e79bae9f-d209-418a-b0d3-e9b65ca98f75 .showable{visibility:hidden}#chart-e79bae9f-d209-418a-b0d3-e9b65ca98f75 .showable.shown{visibility:visible}#chart-e79bae9f-d209-418a-b0d3-e9b65ca98f75 .gauge-background{fill:rgba(229,229,229,1);stroke:none}#chart-e79bae9f-d209-418a-b0d3-e9b65ca98f75 .bg-lines{stroke:rgba(249,249,249,1);stroke-width:2px}</style><script type="text/javascript">window.pygal = window.pygal || {};window.pygal.config = window.pygal.config || {};window.pygal.config['e79bae9f-d209-418a-b0d3-e9b65ca98f75'] = {"no_data_text": "No data", "no_prefix": false, "xrange": null, "print_values_position": "center", "truncate_label": null, "x_labels": ["2549", "2550", "2551", "2552", "2553", "2554", "2555", "2556", "2557", "2558"], "title": null, "force_uri_protocol": "https", "defs": [], "formatter": null, "classes": ["pygal-chart"], "y_labels": null, "rounded_bars": null, "explicit_size": false, "x_labels_major_every": null, "legend_at_bottom_columns": null, "stroke_style": null, "half_pie": false, "spacing": 10, "tooltip_fancy_mode": true, "inverse_y_axis": false, "width": 800, "inner_radius": 0, "interpolation_parameters": {}, "tooltip_border_radius": 0, "style": {"no_data_font_family": "Consolas, \"Liberation Mono\", Menlo, Courier, monospace", "tooltip_font_size": 14, "tooltip_font_family": "Consolas, \"Liberation Mono\", Menlo, Courier, monospace", "stroke_opacity_hover": ".9", "legend_font_family": "Consolas, \"Liberation Mono\", Menlo, Courier, monospace", "font_family": "Consolas, \"Liberation Mono\", Menlo, Courier, monospace", "title_font_family": "Consolas, \"Liberation Mono\", Menlo, Courier, monospace", "background": "rgba(249, 249, 249, 1)", "stroke_opacity": ".8", "foreground": "rgba(0, 0, 0, .87)", "value_background": "rgba(229, 229, 229, 1)", "guide_stroke_dasharray": "4,4", "foreground_subtle": "rgba(0, 0, 0, .54)", "opacity_hover": ".8", "value_font_family": "Consolas, \"Liberation Mono\", Menlo, Courier, monospace", "value_label_font_size": 10, "plot_background": "rgba(255, 255, 255, 1)", "ci_colors": [], "label_font_size": 10, "major_label_font_size": 10, "title_font_size": 16, "no_data_font_size": 64, "value_font_size": 16, "value_colors": [], "label_font_family": "Consolas, \"Liberation Mono\", Menlo, Courier, monospace", "major_guide_stroke_dasharray": "6,6", "transition": "150ms", "foreground_strong": "rgba(0, 0, 0, 1)", "colors": ["#e86fa0", "#e88f6f", "#e8df6f", "#a0e86f", "#6fe88f", "#6fe8df", "#6fa0e8", "#8f6fe8", "#df6fe8", "#e86fa0"], "opacity": ".7", "legend_font_size": 14, "value_label_font_family": "Consolas, \"Liberation Mono\", Menlo, Courier, monospace", "major_label_font_family": "Consolas, \"Liberation Mono\", Menlo, Courier, monospace"}, "x_labels_major_count": null, "interpolation_precision": 250, "missing_value_fill_truncation": "x", "stack_from_top": false, "truncate_legend": null, "show_minor_x_labels": true, "print_zeroes": true, "css": ["file://style.css", "file://graph.css"], "y_label_rotation": 0, "legend_at_bottom": false, "print_values": false, "margin_top": null, "max_scale": 16, "allow_interruptions": false, "show_x_labels": true, "strict": false, "show_x_guides": false, "stroke": true, "margin_left": null, "dynamic_print_values": false, "print_labels": false, "show_y_labels": true, "x_labels_major": null, "range": null, "x_label_rotation": 0, "margin": 20, "zero": 0, "include_x_axis": false, "height": 600, "show_minor_y_labels": true, "show_dots": true, "interpolate": "cubic", "show_y_guides": true, "y_labels_major": null, "box_mode": "extremes", "margin_bottom": null, "order_min": null, "legend_box_size": 12, "fill": true, "show_only_major_dots": false, "js": ["//kozea.github.io/pygal.js/2.0.x/pygal-tooltips.min.js"], "x_title": null, "y_labels_major_every": null, "y_labels_major_count": null, "disable_xml_declaration": false, "y_title": null, "logarithmic": false, "pretty_print": false, "min_scale": 4, "dots_size": 2.5, "margin_right": null, "legends": [null], "secondary_range": null, "show_legend": false}</script><script type="text/javascript" xlink:href="https://kozea.github.io/pygal.js/2.0.x/pygal-tooltips.min.js" /></defs><title>Pygal</title><g class="graph stackedline-graph vertical"><rect class="background" height="600" width="800" x="0" y="0" /><g class="plot" transform="translate(54, 20)"><rect class="background" height="540" width="726.0" x="0" y="0" /><g class="axis y"><path class="line" d="M0.000000 540.000000 h726.000000" /><g class="guides"><path class="guide line" d="M0.000000 495.085758 h726.000000" /><text class="" x="-5" y="498.58575752723516">320M</text><title>320M</title></g><g class="guides"><path class="guide line" d="M0.000000 452.113529 h726.000000" /><text class="" x="-5" y="455.613529313305">340M</text><title>340M</title></g><g class="guides"><path class="guide line" d="M0.000000 409.141301 h726.000000" /><text class="" x="-5" y="412.6413010993748">360M</text><title>360M</title></g><g class="guides"><path class="guide line" d="M0.000000 366.169073 h726.000000" /><text class="" x="-5" y="369.6690728854446">380M</text><title>380M</title></g><g class="guides"><path class="major guide line" d="M0.000000 323.196845 h726.000000" /><text class="major" x="-5" y="326.69684467151444">400M</text><title>400M</title></g><g class="guides"><path class="guide line" d="M0.000000 280.224616 h726.000000" /><text class="" x="-5" y="283.72461645758426">420M</text><title>420M</title></g><g class="guides"><path class="guide line" d="M0.000000 237.252388 h726.000000" /><text class="" x="-5" y="240.75238824365402">440M</text><title>440M</title></g><g class="guides"><path class="guide line" d="M0.000000 194.280160 h726.000000" /><text class="" x="-5" y="197.78016002972385">460M</text><title>460M</title></g><g class="guides"><path class="guide line" d="M0.000000 151.307932 h726.000000" /><text class="" x="-5" y="154.80793181579367">480M</text><title>480M</title></g><g class="guides"><path class="major guide line" d="M0.000000 108.335704 h726.000000" /><text class="major" x="-5" y="111.83570360186349">500M</text><title>500M</title></g><g class="guides"><path class="guide line" d="M0.000000 65.363475 h726.000000" /><text class="" x="-5" y="68.8634753879333">520M</text><title>520M</title></g><g class="guides"><path class="guide line" d="M0.000000 22.391247 h726.000000" /><text class="" x="-5" y="25.89124717400307">540M</text><title>540M</title></g></g><g class="axis x"><g class="guides"><path class="line" d="M13.961538 0.000000 v540.000000" /><text class="" x="13.96153846153846" y="555.0">2549</text></g><g class="guides"><path class="guide line" d="M91.525641 0.000000 v540.000000" /><text class="" x="91.52564102564101" y="555.0">2550</text></g><g class="guides"><path class="guide line" d="M169.089744 0.000000 v540.000000" /><text class="" x="169.08974358974356" y="555.0">2551</text></g><g class="guides"><path class="guide line" d="M246.653846 0.000000 v540.000000" /><text class="" x="246.65384615384613" y="555.0">2552</text></g><g class="guides"><path class="guide line" d="M324.217949 0.000000 v540.000000" /><text class="" x="324.21794871794873" y="555.0">2553</text></g><g class="guides"><path class="guide line" d="M401.782051 0.000000 v540.000000" /><text class="" x="401.78205128205127" y="555.0">2554</text></g><g class="guides"><path class="guide line" d="M479.346154 0.000000 v540.000000" /><text class="" x="479.3461538461538" y="555.0">2555</text></g><g class="guides"><path class="guide line" d="M556.910256 0.000000 v540.000000" /><text class="" x="556.9102564102565" y="555.0">2556</text></g><g class="guides"><path class="guide line" d="M634.474359 0.000000 v540.000000" /><text class="" x="634.474358974359" y="555.0">2557</text></g><g class="guides"><path class="guide line" d="M712.038462 0.000000 v540.000000" /><text class="" x="712.0384615384615" y="555.0">2558</text></g></g><g class="series serie-0 color-0"><path class="line reactive" d="M13.961538 540.000000 L13.961538 529.615385 14.271795 529.171995 14.582051 528.728609 14.892308 528.285228 15.202564 527.841855 15.512821 527.398494 15.823077 526.955147 16.133333 526.511817 16.443590 526.068507 16.753846 525.625219 17.064103 525.181957 17.374359 524.738723 17.684615 524.295521 17.994872 523.852352 18.305128 523.409220 18.615385 522.966127 18.925641 522.523077 19.235897 522.080072 19.546154 521.637115 19.856410 521.194209 20.166667 520.751357 20.476923 520.308562 20.787179 519.865825 21.097436 519.423151 21.407692 518.980542 21.717949 518.538001 22.028205 518.095530 22.338462 517.653133 22.648718 517.210813 22.958974 516.768571 23.269231 516.326412 23.579487 515.884337 23.889744 515.442350 24.200000 515.000453 24.510256 514.558650 24.820513 514.116943 25.130769 513.675335 25.441026 513.233828 25.751282 512.792426 26.061538 512.351132 26.371795 511.909948 26.682051 511.468877 26.992308 511.027922 27.302564 510.587085 27.612821 510.146371 27.923077 509.705780 28.233333 509.265317 28.543590 508.824984 28.853846 508.384784 29.164103 507.944719 29.474359 507.504793 29.784615 507.065008 30.094872 506.625368 30.405128 506.185875 30.715385 505.746531 31.025641 505.307340 31.335897 504.868305 31.646154 504.429427 31.956410 503.990712 32.266667 503.552160 32.576923 503.113774 32.887179 502.675559 33.197436 502.237516 33.507692 501.799648 33.817949 501.361958 34.128205 500.924450 34.438462 500.487125 34.748718 500.049986 35.058974 499.613037 35.369231 499.176281 35.679487 498.739719 35.989744 498.303356 36.300000 497.867193 36.610256 497.431233 36.920513 496.995480 37.230769 496.559936 37.541026 496.124605 37.851282 495.689488 38.161538 495.254589 38.471795 494.819910 38.782051 494.385455 39.092308 493.951226 39.402564 493.517226 39.712821 493.083457 40.023077 492.649924 40.333333 492.216628 40.643590 491.783572 40.953846 491.350759 41.264103 490.918192 41.574359 490.485874 41.884615 490.053808 42.194872 489.621996 42.505128 489.190442 42.815385 488.759147 43.125641 488.328116 43.435897 487.897350 43.746154 487.466853 44.056410 487.036627 44.366667 486.606676 44.676923 486.177001 44.987179 485.747607 45.297436 485.318495 45.607692 484.889669 45.917949 484.461131 46.228205 484.032884 46.538462 483.604932 46.848718 483.177276 47.158974 482.749920 47.469231 482.322866 47.779487 481.896118 48.089744 481.469678 48.400000 481.043549 48.710256 480.617734 49.020513 480.192235 49.330769 479.767056 49.641026 479.342199 49.951282 478.917668 50.261538 478.493464 50.571795 478.069591 50.882051 477.646052 51.192308 477.222849 51.502564 476.799985 51.812821 476.377464 52.123077 475.955287 52.433333 475.533458 52.743590 475.111980 53.053846 474.690855 53.364103 474.270087 53.674359 473.849677 53.984615 473.429629 54.294872 473.009946 54.605128 472.590631 54.915385 472.171686 55.225641 471.753114 55.535897 471.334918 55.846154 470.917101 56.156410 470.499666 56.466667 470.082615 56.776923 469.665952 57.087179 469.249679 57.397436 468.833798 57.707692 468.418314 58.017949 468.003228 58.328205 467.588544 58.638462 467.174263 58.948718 466.760391 59.258974 466.346928 59.569231 465.933877 59.879487 465.521243 60.189744 465.109026 60.500000 464.697232 60.810256 464.285861 61.120513 463.874917 61.430769 463.464403 61.741026 463.054321 62.051282 462.644675 62.361538 462.235467 62.671795 461.826700 62.982051 461.418377 63.292308 461.010500 63.602564 460.603073 63.912821 460.196099 64.223077 459.789580 64.533333 459.383518 64.843590 458.977918 65.153846 458.572781 65.464103 458.168111 65.774359 457.763910 66.084615 457.360181 66.394872 456.956927 66.705128 456.554151 67.015385 456.151856 67.325641 455.750044 67.635897 455.348718 67.946154 454.947882 68.256410 454.547537 68.566667 454.147687 68.876923 453.748335 69.187179 453.349483 69.497436 452.951135 69.807692 452.553292 70.117949 452.155959 70.428205 451.759137 70.738462 451.362829 71.048718 450.967039 71.358974 450.571770 71.669231 450.177023 71.979487 449.782802 72.289744 449.389110 72.600000 448.995950 72.910256 448.603323 73.220513 448.211234 73.530769 447.819685 73.841026 447.428679 74.151282 447.038219 74.461538 446.648306 74.771795 446.258946 75.082051 445.870139 75.392308 445.481889 75.702564 445.094200 76.012821 444.707072 76.323077 444.320511 76.633333 443.934517 76.943590 443.549095 77.253846 443.164246 77.564103 442.779974 77.874359 442.396282 78.184615 442.013173 78.494872 441.630648 78.805128 441.248712 79.115385 440.867366 79.425641 440.486614 79.735897 440.106459 80.046154 439.726903 80.356410 439.347950 80.666667 438.969601 80.976923 438.591860 81.287179 438.214730 81.597436 437.838213 81.907692 437.462313 82.217949 437.087032 82.528205 436.712373 82.838462 436.338339 83.148718 435.964932 83.458974 435.592156 83.769231 435.220013 84.079487 434.848506 84.389744 434.477639 84.700000 434.107413 85.010256 433.737831 85.320513 433.368897 85.630769 433.000614 85.941026 432.632983 86.251282 432.266008 86.561538 431.899693 86.871795 431.534038 87.182051 431.169048 87.492308 430.804726 87.802564 430.441073 88.112821 430.078093 88.423077 429.715789 88.733333 429.354164 89.043590 428.993219 89.353846 428.632960 89.664103 428.273387 89.974359 427.914504 90.284615 427.556313 90.594872 427.198818 90.905128 426.842022 91.215385 426.485926 91.525641 426.130535 91.835897 425.775850 92.146154 425.421873 92.456410 425.068607 92.766667 424.716051 93.076923 424.364209 93.387179 424.013080 93.697436 423.662668 94.007692 423.312973 94.317949 422.963996 94.628205 422.615740 94.938462 422.268206 95.248718 421.921395 95.558974 421.575309 95.869231 421.229949 96.179487 420.885317 96.489744 420.541415 96.800000 420.198243 97.110256 419.855803 97.420513 419.514098 97.730769 419.173127 98.041026 418.832894 98.351282 418.493399 98.661538 418.154643 98.971795 417.816629 99.282051 417.479358 99.592308 417.142831 99.902564 416.807049 100.212821 416.472016 100.523077 416.137731 100.833333 415.804196 101.143590 415.471413 101.453846 415.139383 101.764103 414.808109 102.074359 414.477590 102.384615 414.147830 102.694872 413.818828 103.005128 413.490588 103.315385 413.163110 103.625641 412.836395 103.935897 412.510446 104.246154 412.185264 104.556410 411.860850 104.866667 411.537206 105.176923 411.214333 105.487179 410.892233 105.797436 410.570908 106.107692 410.250358 106.417949 409.930586 106.728205 409.611592 107.038462 409.293379 107.348718 408.975947 107.658974 408.659299 107.969231 408.343436 108.279487 408.028359 108.589744 407.714069 108.900000 407.400570 109.210256 407.087861 109.520513 406.775944 109.830769 406.464821 110.141026 406.154493 110.451282 405.844963 110.761538 405.536230 111.071795 405.228298 111.382051 404.921166 111.692308 404.614838 112.002564 404.309314 112.312821 404.004596 112.623077 403.700685 112.933333 403.397582 113.243590 403.095291 113.553846 402.793811 113.864103 402.493144 114.174359 402.193292 114.484615 401.894257 114.794872 401.596039 115.105128 401.298641 115.415385 401.002063 115.725641 400.706308 116.035897 400.411377 116.346154 400.117271 116.656410 399.823992 116.966667 399.531541 117.276923 399.239920 117.587179 398.949130 117.897436 398.659173 118.207692 398.370051 118.517949 398.081764 118.828205 397.794315 119.138462 397.507704 119.448718 397.221934 119.758974 396.937006 120.069231 396.652921 120.379487 396.369681 120.689744 396.087287 121.000000 395.805741 121.310256 395.525044 121.620513 395.245198 121.930769 394.966205 122.241026 394.688065 122.551282 394.410781 122.861538 394.134353 123.171795 393.858784 123.482051 393.584075 123.792308 393.310227 124.102564 393.037242 124.412821 392.765121 124.723077 392.493866 125.033333 392.223478 125.343590 391.953959 125.653846 391.685311 125.964103 391.417534 126.274359 391.150631 126.584615 390.884603 126.894872 390.619450 127.205128 390.355176 127.515385 390.091781 127.825641 389.829267 128.135897 389.567635 128.446154 389.306888 128.756410 389.047025 129.066667 388.788049 129.376923 388.529962 129.687179 388.272764 129.997436 388.016458 130.307692 387.761045 130.617949 387.506526 130.928205 387.252903 131.238462 387.000177 131.548718 386.748350 131.858974 386.497423 132.169231 386.247398 132.479487 385.998277 132.789744 385.750060 133.100000 385.502750 133.410256 385.256347 133.720513 385.010854 134.030769 384.766272 134.341026 384.522602 134.651282 384.279846 134.961538 384.038006 135.271795 383.797082 135.582051 383.557076 135.892308 383.317990 136.202564 383.079826 136.512821 382.842585 136.823077 382.606268 137.133333 382.370876 137.443590 382.136412 137.753846 381.902877 138.064103 381.670273 138.374359 381.438600 138.684615 381.207860 138.994872 380.978055 139.305128 380.749187 139.615385 380.521257 139.925641 380.294266 140.235897 380.068215 140.546154 379.843107 140.856410 379.618943 141.166667 379.395724 141.476923 379.173453 141.787179 378.952129 142.097436 378.731755 142.407692 378.512333 142.717949 378.293864 143.028205 378.076348 143.338462 377.859789 143.648718 377.644187 143.958974 377.429544 144.269231 377.215861 144.579487 377.003141 144.889744 376.791383 145.200000 376.580590 145.510256 376.370764 145.820513 376.161906 146.130769 375.954017 146.441026 375.747098 146.751282 375.541152 147.061538 375.336180 147.371795 375.132184 147.682051 374.929164 147.992308 374.727122 148.302564 374.526061 148.612821 374.325981 148.923077 374.126883 149.233333 373.928770 149.543590 373.731643 149.853846 373.535503 150.164103 373.340352 150.474359 373.146192 150.784615 372.953023 151.094872 372.760848 151.405128 372.569667 151.715385 372.379483 152.025641 372.190297 152.335897 372.002110 152.646154 371.814924 152.956410 371.628740 153.266667 371.443560 153.576923 371.259385 153.887179 371.076218 154.197436 370.894059 154.507692 370.712909 154.817949 370.532771 155.128205 370.353646 155.438462 370.175535 155.748718 369.998440 156.058974 369.822362 156.369231 369.647304 156.679487 369.473265 156.989744 369.300249 157.300000 369.128256 157.610256 368.957287 157.920513 368.787345 158.230769 368.618431 158.541026 368.450547 158.851282 368.283693 159.161538 368.117871 159.471795 367.953084 159.782051 367.789331 160.092308 367.626616 160.402564 367.464939 160.712821 367.304302 161.023077 367.144706 161.333333 366.986153 161.643590 366.828645 161.953846 366.672182 162.264103 366.516767 162.574359 366.362400 162.884615 366.209084 163.194872 366.056820 163.505128 365.905609 163.815385 365.755453 164.125641 365.606354 164.435897 365.458312 164.746154 365.311330 165.056410 365.165408 165.366667 365.020549 165.676923 364.876754 165.987179 364.734024 166.297436 364.592361 166.607692 364.451766 166.917949 364.312242 167.228205 364.173788 167.538462 364.036408 167.848718 363.900101 168.158974 363.764871 168.469231 363.630718 168.779487 363.497644 169.089744 363.365651 169.400000 363.234737 169.710256 363.104892 170.020513 362.976106 170.330769 362.848365 170.641026 362.721657 170.951282 362.595971 171.261538 362.471295 171.571795 362.347615 171.882051 362.224921 172.192308 362.103200 172.502564 361.982440 172.812821 361.862628 173.123077 361.743754 173.433333 361.625804 173.743590 361.508767 174.053846 361.392630 174.364103 361.277382 174.674359 361.163011 174.984615 361.049503 175.294872 360.936848 175.605128 360.825032 175.915385 360.714045 176.225641 360.603874 176.535897 360.494506 176.846154 360.385931 177.156410 360.278135 177.466667 360.171106 177.776923 360.064833 178.087179 359.959304 178.397436 359.854505 178.707692 359.750426 179.017949 359.647054 179.328205 359.544377 179.638462 359.442383 179.948718 359.341060 180.258974 359.240395 180.569231 359.140378 180.879487 359.040995 181.189744 358.942234 181.500000 358.844084 181.810256 358.746532 182.120513 358.649566 182.430769 358.553174 182.741026 358.457345 183.051282 358.362065 183.361538 358.267324 183.671795 358.173108 183.982051 358.079406 184.292308 357.986205 184.602564 357.893494 184.912821 357.801261 185.223077 357.709492 185.533333 357.618177 185.843590 357.527303 186.153846 357.436859 186.464103 357.346831 186.774359 357.257208 187.084615 357.167978 187.394872 357.079129 187.705128 356.990648 188.015385 356.902524 188.325641 356.814744 188.635897 356.727297 188.946154 356.640170 189.256410 356.553351 189.566667 356.466828 189.876923 356.380589 190.187179 356.294623 190.497436 356.208916 190.807692 356.123456 191.117949 356.038233 191.428205 355.953233 191.738462 355.868444 192.048718 355.783855 192.358974 355.699453 192.669231 355.615226 192.979487 355.531163 193.289744 355.447250 193.600000 355.363477 193.910256 355.279830 194.220513 355.196298 194.530769 355.112869 194.841026 355.029530 195.151282 354.946270 195.461538 354.863077 195.771795 354.779937 196.082051 354.696840 196.392308 354.613773 196.702564 354.530724 197.012821 354.447681 197.323077 354.364632 197.633333 354.281565 197.943590 354.198467 198.253846 354.115327 198.564103 354.032133 198.874359 353.948872 199.184615 353.865532 199.494872 353.782101 199.805128 353.698568 200.115385 353.614920 200.425641 353.531145 200.735897 353.447231 201.046154 353.363165 201.356410 353.278936 201.666667 353.194532 201.976923 353.109941 202.287179 353.025150 202.597436 352.940147 202.907692 352.854920 203.217949 352.769458 203.528205 352.683748 203.838462 352.597778 204.148718 352.511536 204.458974 352.425009 204.769231 352.338187 205.079487 352.251056 205.389744 352.163604 205.700000 352.075820 206.010256 351.987692 206.320513 351.899207 206.630769 351.810353 206.941026 351.721118 207.251282 351.631490 207.561538 351.541457 207.871795 351.451007 208.182051 351.360128 208.492308 351.268807 208.802564 351.177033 209.112821 351.084794 209.423077 350.992077 209.733333 350.898870 210.043590 350.805162 210.353846 350.710939 210.664103 350.616191 210.974359 350.520905 211.284615 350.425068 211.594872 350.328670 211.905128 350.231697 212.215385 350.134138 212.525641 350.035980 212.835897 349.937211 213.146154 349.837821 213.456410 349.737795 213.766667 349.637122 214.076923 349.535791 214.387179 349.433788 214.697436 349.331103 215.007692 349.227722 215.317949 349.123634 215.628205 349.018827 215.938462 348.913288 216.248718 348.807006 216.558974 348.699968 216.869231 348.592162 217.179487 348.483576 217.489744 348.374199 217.800000 348.264018 218.110256 348.153020 218.420513 348.041195 218.730769 347.928529 219.041026 347.815011 219.351282 347.700628 219.661538 347.585369 219.971795 347.469221 220.282051 347.352173 220.592308 347.234212 220.902564 347.115326 221.212821 346.995503 221.523077 346.874731 221.833333 346.752997 222.143590 346.630291 222.453846 346.506599 222.764103 346.381910 223.074359 346.256212 223.384615 346.129491 223.694872 346.001737 224.005128 345.872938 224.315385 345.743080 224.625641 345.612153 224.935897 345.480144 225.246154 345.347040 225.556410 345.212830 225.866667 345.077502 226.176923 344.941044 226.487179 344.803443 226.797436 344.664687 227.107692 344.524765 227.417949 344.383665 227.728205 344.241373 228.038462 344.097878 228.348718 343.953169 228.658974 343.807232 228.969231 343.660056 229.279487 343.511629 229.589744 343.361939 229.900000 343.210973 230.210256 343.058719 230.520513 342.905166 230.830769 342.750302 231.141026 342.594113 231.451282 342.436589 231.761538 342.277716 232.071795 342.117484 232.382051 341.955879 232.692308 341.792890 233.002564 341.628505 233.312821 341.462711 233.623077 341.295497 233.933333 341.126850 234.243590 340.956759 234.553846 340.785211 234.864103 340.612194 235.174359 340.437696 235.484615 340.261705 235.794872 340.084208 236.105128 339.905195 236.415385 339.724652 236.725641 339.542568 237.035897 339.358930 237.346154 339.173727 237.656410 338.986946 237.966667 338.798576 238.276923 338.608603 238.587179 338.417017 238.897436 338.223804 239.207692 338.028954 239.517949 337.832453 239.828205 337.634290 240.138462 337.434453 240.448718 337.232929 240.758974 337.029707 241.069231 336.824774 241.379487 336.618118 241.689744 336.409727 242.000000 336.199590 242.310256 335.987693 242.620513 335.774026 242.930769 335.558575 243.241026 335.341329 243.551282 335.122275 243.861538 334.901403 244.171795 334.678698 244.482051 334.454150 244.792308 334.227747 245.102564 333.999475 245.412821 333.769324 245.723077 333.537280 246.033333 333.303333 246.343590 333.067469 246.653846 332.829678 246.964103 332.589950 247.274359 332.348298 247.584615 332.104737 247.894872 331.859284 248.205128 331.611953 248.515385 331.362761 248.825641 331.111723 249.135897 330.858855 249.446154 330.604174 249.756410 330.347694 250.066667 330.089432 250.376923 329.829403 250.687179 329.567624 250.997436 329.304109 251.307692 329.038875 251.617949 328.771938 251.928205 328.503313 252.238462 328.233017 252.548718 327.961064 252.858974 327.687471 253.169231 327.412253 253.479487 327.135427 253.789744 326.857008 254.100000 326.577012 254.410256 326.295455 254.720513 326.012352 255.030769 325.727719 255.341026 325.441573 255.651282 325.153928 255.961538 324.864801 256.271795 324.574208 256.582051 324.282164 256.892308 323.988684 257.202564 323.693786 257.512821 323.397485 257.823077 323.099795 258.133333 322.800734 258.443590 322.500317 258.753846 322.198560 259.064103 321.895479 259.374359 321.591089 259.684615 321.285406 259.994872 320.978446 260.305128 320.670224 260.615385 320.360758 260.925641 320.050062 261.235897 319.738152 261.546154 319.425043 261.856410 319.110753 262.166667 318.795296 262.476923 318.478689 262.787179 318.160946 263.097436 317.842085 263.407692 317.522120 263.717949 317.201068 264.028205 316.878944 264.338462 316.555764 264.648718 316.231545 264.958974 315.906300 265.269231 315.580048 265.579487 315.252802 265.889744 314.924580 266.200000 314.595396 266.510256 314.265267 266.820513 313.934209 267.130769 313.602236 267.441026 313.269366 267.751282 312.935614 268.061538 312.600995 268.371795 312.265526 268.682051 311.929221 268.992308 311.592098 269.302564 311.254172 269.612821 310.915458 269.923077 310.575973 270.233333 310.235731 270.543590 309.894750 270.853846 309.553044 271.164103 309.210630 271.474359 308.867524 271.784615 308.523740 272.094872 308.179296 272.405128 307.834206 272.715385 307.488486 273.025641 307.142153 273.335897 306.795222 273.646154 306.447709 273.956410 306.099630 274.266667 305.751000 274.576923 305.401835 274.887179 305.052152 275.197436 304.701965 275.507692 304.351291 275.817949 304.000146 276.128205 303.648544 276.438462 303.296503 276.748718 302.944037 277.058974 302.591164 277.369231 302.237897 277.679487 301.884254 277.989744 301.530250 278.300000 301.175900 278.610256 300.821221 278.920513 300.466229 279.230769 300.110938 279.541026 299.755366 279.851282 299.399528 280.161538 299.043439 280.471795 298.687115 280.782051 298.330572 281.092308 297.973827 281.402564 297.616894 281.712821 297.259789 282.023077 296.902529 282.333333 296.545129 282.643590 296.187605 282.953846 295.829973 283.264103 295.472248 283.574359 295.114447 283.884615 294.756584 284.194872 294.398676 284.505128 294.040739 284.815385 293.682789 285.125641 293.324841 285.435897 292.966910 285.746154 292.609014 286.056410 292.251167 286.366667 291.893386 286.676923 291.535686 286.987179 291.178082 287.297436 290.820592 287.607692 290.463230 287.917949 290.106013 288.228205 289.748956 288.538462 289.392075 288.848718 289.035385 289.158974 288.678903 289.469231 288.322645 289.779487 287.966625 290.089744 287.610861 290.400000 287.255367 290.710256 286.900160 291.020513 286.545255 291.330769 286.190668 291.641026 285.836415 291.951282 285.482512 292.261538 285.128975 292.571795 284.775818 292.882051 284.423059 293.192308 284.070712 293.502564 283.718795 293.812821 283.367321 294.123077 283.016308 294.433333 282.665771 294.743590 282.315726 295.053846 281.966188 295.364103 281.617174 295.674359 281.268699 295.984615 280.920780 296.294872 280.573430 296.605128 280.226668 296.915385 279.880508 297.225641 279.534966 297.535897 279.190058 297.846154 278.845800 298.156410 278.502207 298.466667 278.159296 298.776923 277.817082 299.087179 277.475581 299.397436 277.134808 299.707692 276.794780 300.017949 276.455513 300.328205 276.117022 300.638462 275.779322 300.948718 275.442430 301.258974 275.106362 301.569231 274.771133 301.879487 274.436759 302.189744 274.103256 302.500000 273.770639 302.810256 273.438925 303.120513 273.108130 303.430769 272.778268 303.741026 272.449356 304.051282 272.121410 304.361538 271.794446 304.671795 271.468478 304.982051 271.143524 305.292308 270.819598 305.602564 270.496717 305.912821 270.174896 306.223077 269.854152 306.533333 269.534499 306.843590 269.215954 307.153846 268.898533 307.464103 268.582252 307.774359 268.267125 308.084615 267.953169 308.394872 267.640400 308.705128 267.328834 309.015385 267.018486 309.325641 266.709372 309.635897 266.401508 309.946154 266.094910 310.256410 265.789593 310.566667 265.485573 310.876923 265.182867 311.187179 264.881489 311.497436 264.581457 311.807692 264.282784 312.117949 263.985488 312.428205 263.689584 312.738462 263.395088 313.048718 263.102015 313.358974 262.810382 313.669231 262.520204 313.979487 262.231497 314.289744 261.944277 314.600000 261.658560 314.910256 261.374361 315.220513 261.091696 315.530769 260.810581 315.841026 260.531032 316.151282 260.253064 316.461538 259.976694 316.771795 259.701937 317.082051 259.428809 317.392308 259.157326 317.702564 258.887503 318.012821 258.619357 318.323077 258.352902 318.633333 258.088156 318.943590 257.825133 319.253846 257.563850 319.564103 257.304322 319.874359 257.046566 320.184615 256.790596 320.494872 256.536429 320.805128 256.284080 321.115385 256.033566 321.425641 255.784901 321.735897 255.538103 322.046154 255.293186 322.356410 255.050166 322.666667 254.809060 322.976923 254.569883 323.287179 254.332651 323.597436 254.097379 323.907692 253.864084 324.217949 253.632781 324.528205 253.403480 324.838462 253.176173 325.148718 252.950845 325.458974 252.727479 325.769231 252.506062 326.079487 252.286579 326.389744 252.069015 326.700000 251.853354 327.010256 251.639583 327.320513 251.427685 327.630769 251.217648 327.941026 251.009454 328.251282 250.803090 328.561538 250.598541 328.871795 250.395792 329.182051 250.194828 329.492308 249.995634 329.802564 249.798195 330.112821 249.602496 330.423077 249.408524 330.733333 249.216261 331.043590 249.025695 331.353846 248.836810 331.664103 248.649590 331.974359 248.464022 332.284615 248.280090 332.594872 248.097780 332.905128 247.917076 333.215385 247.737964 333.525641 247.560429 333.835897 247.384456 334.146154 247.210030 334.456410 247.037137 334.766667 246.865760 335.076923 246.695887 335.387179 246.527501 335.697436 246.360588 336.007692 246.195132 336.317949 246.031120 336.628205 245.868536 336.938462 245.707366 337.248718 245.547594 337.558974 245.389205 337.869231 245.232186 338.179487 245.076520 338.489744 244.922193 338.800000 244.769190 339.110256 244.617497 339.420513 244.467098 339.730769 244.317979 340.041026 244.170124 340.351282 244.023519 340.661538 243.878149 340.971795 243.734000 341.282051 243.591055 341.592308 243.449301 341.902564 243.308722 342.212821 243.169304 342.523077 243.031032 342.833333 242.893891 343.143590 242.757865 343.453846 242.622941 343.764103 242.489103 344.074359 242.356337 344.384615 242.224627 344.694872 242.093959 345.005128 241.964317 345.315385 241.835688 345.625641 241.708056 345.935897 241.581406 346.246154 241.455723 346.556410 241.330993 346.866667 241.207200 347.176923 241.084331 347.487179 240.962369 347.797436 240.841300 348.107692 240.721110 348.417949 240.601782 348.728205 240.483303 349.038462 240.365658 349.348718 240.248832 349.658974 240.132809 349.969231 240.017575 350.279487 239.903116 350.589744 239.789415 350.900000 239.676459 351.210256 239.564233 351.520513 239.452721 351.830769 239.341909 352.141026 239.231782 352.451282 239.122325 352.761538 239.013523 353.071795 238.905361 353.382051 238.797825 353.692308 238.690900 354.002564 238.584570 354.312821 238.478821 354.623077 238.373638 354.933333 238.269006 355.243590 238.164911 355.553846 238.061337 355.864103 237.958269 356.174359 237.855693 356.484615 237.753594 356.794872 237.651957 357.105128 237.550767 357.415385 237.450009 357.725641 237.349668 358.035897 237.249730 358.346154 237.150179 358.656410 237.051001 358.966667 236.952181 359.276923 236.853704 359.587179 236.755555 359.897436 236.657720 360.207692 236.560183 360.517949 236.462929 360.828205 236.365944 361.138462 236.269213 361.448718 236.172721 361.758974 236.076452 362.069231 235.980393 362.379487 235.884529 362.689744 235.788844 363.000000 235.693323 363.310256 235.597952 363.620513 235.502716 363.930769 235.407600 364.241026 235.312590 364.551282 235.217669 364.861538 235.122824 365.171795 235.028040 365.482051 234.933301 365.792308 234.838593 366.102564 234.743901 366.412821 234.649210 366.723077 234.554505 367.033333 234.459771 367.343590 234.364994 367.653846 234.270159 367.964103 234.175250 368.274359 234.080254 368.584615 233.985154 368.894872 233.889936 369.205128 233.794586 369.515385 233.699088 369.825641 233.603428 370.135897 233.507590 370.446154 233.411561 370.756410 233.315324 371.066667 233.218865 371.376923 233.122170 371.687179 233.025222 371.997436 232.928009 372.307692 232.830514 372.617949 232.732723 372.928205 232.634620 373.238462 232.536192 373.548718 232.437423 373.858974 232.338298 374.169231 232.238802 374.479487 232.138922 374.789744 232.038640 375.100000 231.937944 375.410256 231.836818 375.720513 231.735246 376.030769 231.633215 376.341026 231.530710 376.651282 231.427714 376.961538 231.324215 377.271795 231.220196 377.582051 231.115643 377.892308 231.010542 378.202564 230.904876 378.512821 230.798632 378.823077 230.691794 379.133333 230.584347 379.443590 230.476278 379.753846 230.367570 380.064103 230.258209 380.374359 230.148180 380.684615 230.037469 380.994872 229.926060 381.305128 229.813938 381.615385 229.701089 381.925641 229.587498 382.235897 229.473150 382.546154 229.358030 382.856410 229.242123 383.166667 229.125414 383.476923 229.007889 383.787179 228.889532 384.097436 228.770330 384.407692 228.650265 384.717949 228.529325 385.028205 228.407494 385.338462 228.284758 385.648718 228.161100 385.958974 228.036508 386.269231 227.910964 386.579487 227.784456 386.889744 227.656968 387.200000 227.528484 387.510256 227.398991 387.820513 227.268473 388.130769 227.136916 388.441026 227.004304 388.751282 226.870623 389.061538 226.735858 389.371795 226.599994 389.682051 226.463016 389.992308 226.324909 390.302564 226.185658 390.612821 226.045249 390.923077 225.903667 391.233333 225.760897 391.543590 225.616923 391.853846 225.471732 392.164103 225.325308 392.474359 225.177636 392.784615 225.028701 393.094872 224.878490 393.405128 224.726985 393.715385 224.574174 394.025641 224.420041 394.335897 224.264571 394.646154 224.107749 394.956410 223.949561 395.266667 223.789991 395.576923 223.629025 395.887179 223.466648 396.197436 223.302844 396.507692 223.137600 396.817949 222.970900 397.128205 222.802729 397.438462 222.633073 397.748718 222.461916 398.058974 222.289244 398.369231 222.115042 398.679487 221.939295 398.989744 221.761988 399.300000 221.583106 399.610256 221.402635 399.920513 221.220559 400.230769 221.036865 400.541026 220.851535 400.851282 220.664557 401.161538 220.475915 401.471795 220.285594 401.782051 220.093580 402.092308 219.899861 402.402564 219.704447 402.712821 219.507351 403.023077 219.308584 403.333333 219.108161 403.643590 218.906094 403.953846 218.702396 404.264103 218.497080 404.574359 218.290159 404.884615 218.081645 405.194872 217.871553 405.505128 217.659894 405.815385 217.446682 406.125641 217.231929 406.435897 217.015649 406.746154 216.797854 407.056410 216.578557 407.366667 216.357772 407.676923 216.135510 407.987179 215.911786 408.297436 215.686612 408.607692 215.460001 408.917949 215.231966 409.228205 215.002519 409.538462 214.771674 409.848718 214.539444 410.158974 214.305842 410.469231 214.070880 410.779487 213.834571 411.089744 213.596929 411.400000 213.357966 411.710256 213.117695 412.020513 212.876129 412.330769 212.633281 412.641026 212.389165 412.951282 212.143792 413.261538 211.897176 413.571795 211.649330 413.882051 211.400267 414.192308 211.149999 414.502564 210.898539 414.812821 210.645902 415.123077 210.392098 415.433333 210.137142 415.743590 209.881046 416.053846 209.623823 416.364103 209.365487 416.674359 209.106049 416.984615 208.845524 417.294872 208.583923 417.605128 208.321260 417.915385 208.057548 418.225641 207.792799 418.535897 207.527027 418.846154 207.260245 419.156410 206.992465 419.466667 206.723700 419.776923 206.453964 420.087179 206.183268 420.397436 205.911627 420.707692 205.639053 421.017949 205.365559 421.328205 205.091158 421.638462 204.815863 421.948718 204.539687 422.258974 204.262642 422.569231 203.984742 422.879487 203.705999 423.189744 203.426427 423.500000 203.146038 423.810256 202.864846 424.120513 202.582863 424.430769 202.300102 424.741026 202.016576 425.051282 201.732298 425.361538 201.447282 425.671795 201.161539 425.982051 200.875083 426.292308 200.587926 426.602564 200.300083 426.912821 200.011564 427.223077 199.722385 427.533333 199.432557 427.843590 199.142093 428.153846 198.851006 428.464103 198.559310 428.774359 198.267017 429.084615 197.974140 429.394872 197.680692 429.705128 197.386686 430.015385 197.092135 430.325641 196.797051 430.635897 196.501448 430.946154 196.205339 431.256410 195.908737 431.566667 195.611654 431.876923 195.314103 432.187179 195.016098 432.497436 194.717650 432.807692 194.418775 433.117949 194.119483 433.428205 193.819788 433.738462 193.519703 434.048718 193.219242 434.358974 192.918416 434.669231 192.617238 434.979487 192.315723 435.289744 192.013882 435.600000 191.711728 435.910256 191.409275 436.220513 191.106536 436.530769 190.803522 436.841026 190.500248 437.151282 190.196726 437.461538 189.892969 437.771795 189.588991 438.082051 189.284803 438.392308 188.980419 438.702564 188.675851 439.012821 188.371114 439.323077 188.066219 439.633333 187.761180 439.943590 187.456009 440.253846 187.150720 440.564103 186.845325 440.874359 186.539837 441.184615 186.234269 441.494872 185.928635 441.805128 185.622946 442.115385 185.317217 442.425641 185.011460 442.735897 184.705687 443.046154 184.399912 443.356410 184.094148 443.666667 183.788407 443.976923 183.482703 444.287179 183.177049 444.597436 182.871456 444.907692 182.565940 445.217949 182.260511 445.528205 181.955183 445.838462 181.649970 446.148718 181.344884 446.458974 181.039937 446.769231 180.735144 447.079487 180.430516 447.389744 180.126067 447.700000 179.821810 448.010256 179.517757 448.320513 179.213922 448.630769 178.910317 448.941026 178.606956 449.251282 178.303850 449.561538 178.001014 449.871795 177.698461 450.182051 177.396202 450.492308 177.094251 450.802564 176.792621 451.112821 176.491325 451.423077 176.190376 451.733333 175.889786 452.043590 175.589570 452.353846 175.289738 452.664103 174.990305 452.974359 174.691284 453.284615 174.392687 453.594872 174.094527 453.905128 173.796817 454.215385 173.499570 454.525641 173.202800 454.835897 172.906518 455.146154 172.610738 455.456410 172.315474 455.766667 172.020736 456.076923 171.726540 456.387179 171.432897 456.697436 171.139820 457.007692 170.847323 457.317949 170.555419 457.628205 170.264120 457.938462 169.973438 458.248718 169.683388 458.558974 169.393983 458.869231 169.105234 459.179487 168.817155 459.489744 168.529759 459.800000 168.243058 460.110256 167.957067 460.420513 167.671797 460.730769 167.387261 461.041026 167.103473 461.351282 166.820446 461.661538 166.538192 461.971795 166.256724 462.282051 165.976055 462.592308 165.696199 462.902564 165.417167 463.212821 165.138973 463.523077 164.861631 463.833333 164.585152 464.143590 164.309550 464.453846 164.034837 464.764103 163.761027 465.074359 163.488133 465.384615 163.216167 465.694872 162.945143 466.005128 162.675072 466.315385 162.405969 466.625641 162.137847 466.935897 161.870717 467.246154 161.604593 467.556410 161.339489 467.866667 161.075416 468.176923 160.812387 468.487179 160.550417 468.797436 160.289517 469.107692 160.029701 469.417949 159.770981 469.728205 159.513371 470.038462 159.256883 470.348718 159.001531 470.658974 158.747326 470.969231 158.494283 471.279487 158.242414 471.589744 157.991731 471.900000 157.742249 472.210256 157.493979 472.520513 157.246936 472.830769 157.001130 473.141026 156.756577 473.451282 156.513288 473.761538 156.271276 474.071795 156.030555 474.382051 155.791138 474.692308 155.553036 475.002564 155.316264 475.312821 155.080833 475.623077 154.846758 475.933333 154.614051 476.243590 154.382724 476.553846 154.152792 476.864103 153.924266 477.174359 153.697159 477.484615 153.471486 477.794872 153.247258 478.105128 153.024488 478.415385 152.803189 478.725641 152.583375 479.035897 152.365058 479.346154 152.148252 479.656410 151.932964 479.966667 151.719189 480.276923 151.506917 480.587179 151.296137 480.897436 151.086839 481.207692 150.879013 481.517949 150.672648 481.828205 150.467734 482.138462 150.264261 482.448718 150.062219 482.758974 149.861597 483.069231 149.662385 483.379487 149.464573 483.689744 149.268151 484.000000 149.073108 484.310256 148.879433 484.620513 148.687118 484.930769 148.496151 485.241026 148.306522 485.551282 148.118221 485.861538 147.931238 486.171795 147.745562 486.482051 147.561183 486.792308 147.378091 487.102564 147.196276 487.412821 147.015727 487.723077 146.836433 488.033333 146.658386 488.343590 146.481574 488.653846 146.305987 488.964103 146.131615 489.274359 145.958448 489.584615 145.786475 489.894872 145.615687 490.205128 145.446072 490.515385 145.277621 490.825641 145.110323 491.135897 144.944168 491.446154 144.779145 491.756410 144.615246 492.066667 144.452458 492.376923 144.290773 492.687179 144.130179 492.997436 143.970666 493.307692 143.812225 493.617949 143.654844 493.928205 143.498514 494.238462 143.343225 494.548718 143.188965 494.858974 143.035725 495.169231 142.883495 495.479487 142.732264 495.789744 142.582022 496.100000 142.432758 496.410256 142.284463 496.720513 142.137126 497.030769 141.990737 497.341026 141.845286 497.651282 141.700762 497.961538 141.557154 498.271795 141.414454 498.582051 141.272650 498.892308 141.131733 499.202564 140.991691 499.512821 140.852516 499.823077 140.714195 500.133333 140.576720 500.443590 140.440079 500.753846 140.304264 501.064103 140.169262 501.374359 140.035065 501.684615 139.901661 501.994872 139.769041 502.305128 139.637195 502.615385 139.506111 502.925641 139.375780 503.235897 139.246191 503.546154 139.117335 503.856410 138.989200 504.166667 138.861777 504.476923 138.735056 504.787179 138.609025 505.097436 138.483676 505.407692 138.358997 505.717949 138.234978 506.028205 138.111609 506.338462 137.988880 506.648718 137.866780 506.958974 137.745300 507.269231 137.624428 507.579487 137.504155 507.889744 137.384471 508.200000 137.265364 508.510256 137.146826 508.820513 137.028845 509.130769 136.911411 509.441026 136.794514 509.751282 136.678145 510.061538 136.562291 510.371795 136.446944 510.682051 136.332092 510.992308 136.217727 511.302564 136.103837 511.612821 135.990411 511.923077 135.877441 512.233333 135.764915 512.543590 135.652824 512.853846 135.541156 513.164103 135.429903 513.474359 135.319053 513.784615 135.208596 514.094872 135.098522 514.405128 134.988820 514.715385 134.879482 515.025641 134.770495 515.335897 134.661850 515.646154 134.553537 515.956410 134.445545 516.266667 134.337864 516.576923 134.230484 516.887179 134.123394 517.197436 134.016585 517.507692 133.910045 517.817949 133.803765 518.128205 133.697735 518.438462 133.591944 518.748718 133.486382 519.058974 133.381038 519.369231 133.275903 519.679487 133.170965 519.989744 133.066216 520.300000 132.961644 520.610256 132.857239 520.920513 132.752991 521.230769 132.648890 521.541026 132.544926 521.851282 132.441087 522.161538 132.337365 522.471795 132.233748 522.782051 132.130226 523.092308 132.026790 523.402564 131.923428 523.712821 131.820131 524.023077 131.716888 524.333333 131.613689 524.643590 131.510524 524.953846 131.407383 525.264103 131.304254 525.574359 131.201129 525.884615 131.097996 526.194872 130.994845 526.505128 130.891667 526.815385 130.788450 527.125641 130.685185 527.435897 130.581861 527.746154 130.478468 528.056410 130.374996 528.366667 130.271435 528.676923 130.167773 528.987179 130.064002 529.297436 129.960110 529.607692 129.856087 529.917949 129.751924 530.228205 129.647610 530.538462 129.543134 530.848718 129.438486 531.158974 129.333657 531.469231 129.228635 531.779487 129.123410 532.089744 129.017973 532.400000 128.912313 532.710256 128.806420 533.020513 128.700283 533.330769 128.593892 533.641026 128.487236 533.951282 128.380307 534.261538 128.273093 534.571795 128.165584 534.882051 128.057769 535.192308 127.949639 535.502564 127.841184 535.812821 127.732392 536.123077 127.623254 536.433333 127.513759 536.743590 127.403898 537.053846 127.293659 537.364103 127.183033 537.674359 127.072010 537.984615 126.960578 538.294872 126.848728 538.605128 126.736450 538.915385 126.623733 539.225641 126.510567 539.535897 126.396941 539.846154 126.282846 540.156410 126.168272 540.466667 126.053207 540.776923 125.937641 541.087179 125.821565 541.397436 125.704969 541.707692 125.587841 542.017949 125.470171 542.328205 125.351950 542.638462 125.233167 542.948718 125.113811 543.258974 124.993873 543.569231 124.873342 543.879487 124.752208 544.189744 124.630461 544.500000 124.508090 544.810256 124.385085 545.120513 124.261435 545.430769 124.137132 545.741026 124.012164 546.051282 123.886520 546.361538 123.760192 546.671795 123.633168 546.982051 123.505438 547.292308 123.376992 547.602564 123.247820 547.912821 123.117911 548.223077 122.987255 548.533333 122.855842 548.843590 122.723661 549.153846 122.590703 549.464103 122.456957 549.774359 122.322413 550.084615 122.187060 550.394872 122.050888 550.705128 121.913887 551.015385 121.776047 551.325641 121.637358 551.635897 121.497808 551.946154 121.357388 552.256410 121.216088 552.566667 121.073897 552.876923 120.930805 553.187179 120.786802 553.497436 120.641878 553.807692 120.496022 554.117949 120.349223 554.428205 120.201473 554.738462 120.052759 555.048718 119.903073 555.358974 119.752404 555.669231 119.600741 555.979487 119.448075 556.289744 119.294395 556.600000 119.139690 556.910256 118.983951 557.220513 118.827170 557.530769 118.669350 557.841026 118.510496 558.151282 118.350615 558.461538 118.189712 558.771795 118.027793 559.082051 117.864863 559.392308 117.700929 559.702564 117.535995 560.012821 117.370068 560.323077 117.203154 560.633333 117.035257 560.943590 116.866384 561.253846 116.696541 561.564103 116.525733 561.874359 116.353966 562.184615 116.181245 562.494872 116.007577 562.805128 115.832967 563.115385 115.657421 563.425641 115.480944 563.735897 115.303542 564.046154 115.125221 564.356410 114.945987 564.666667 114.765845 564.976923 114.584801 565.287179 114.402861 565.597436 114.220031 565.907692 114.036315 566.217949 113.851720 566.528205 113.666252 566.838462 113.479916 567.148718 113.292719 567.458974 113.104665 567.769231 112.915760 568.079487 112.726011 568.389744 112.535422 568.700000 112.344000 569.010256 112.151750 569.320513 111.958678 569.630769 111.764790 569.941026 111.570092 570.251282 111.374588 570.561538 111.178285 570.871795 110.981189 571.182051 110.783305 571.492308 110.584639 571.802564 110.385197 572.112821 110.184984 572.423077 109.984006 572.733333 109.782270 573.043590 109.579779 573.353846 109.376541 573.664103 109.172561 573.974359 108.967844 574.284615 108.762397 574.594872 108.556225 574.905128 108.349333 575.215385 108.141729 575.525641 107.933416 575.835897 107.724401 576.146154 107.514690 576.456410 107.304289 576.766667 107.093202 577.076923 106.881436 577.387179 106.668997 577.697436 106.455890 578.007692 106.242121 578.317949 106.027695 578.628205 105.812619 578.938462 105.596898 579.248718 105.380537 579.558974 105.163543 579.869231 104.945921 580.179487 104.727677 580.489744 104.508817 580.800000 104.289346 581.110256 104.069270 581.420513 103.848595 581.730769 103.627326 582.041026 103.405470 582.351282 103.183031 582.661538 102.960016 582.971795 102.736430 583.282051 102.512279 583.592308 102.287569 583.902564 102.062305 584.212821 101.836494 584.523077 101.610140 584.833333 101.383250 585.143590 101.155829 585.453846 100.927883 585.764103 100.699418 586.074359 100.470439 586.384615 100.240952 586.694872 100.010964 587.005128 99.780478 587.315385 99.549502 587.625641 99.318041 587.935897 99.086101 588.246154 98.853687 588.556410 98.620805 588.866667 98.387461 589.176923 98.153661 589.487179 97.919409 589.797436 97.684713 590.107692 97.449577 590.417949 97.214008 590.728205 96.978011 591.038462 96.741591 591.348718 96.504755 591.658974 96.267509 591.969231 96.029857 592.279487 95.791806 592.589744 95.553361 592.900000 95.314528 593.210256 95.075314 593.520513 94.835722 593.830769 94.595760 594.141026 94.355433 594.451282 94.114746 594.761538 93.873706 595.071795 93.632317 595.382051 93.390587 595.692308 93.148520 596.002564 92.906122 596.312821 92.663399 596.623077 92.420356 596.933333 92.177000 597.243590 91.933336 597.553846 91.689370 597.864103 91.445107 598.174359 91.200553 598.484615 90.955714 598.794872 90.710596 599.105128 90.465204 599.415385 90.219544 599.725641 89.973622 600.035897 89.727443 600.346154 89.481013 600.656410 89.234339 600.966667 88.987424 601.276923 88.740276 601.587179 88.492900 601.897436 88.245302 602.207692 87.997487 602.517949 87.749461 602.828205 87.501231 603.138462 87.252800 603.448718 87.004176 603.758974 86.755364 604.069231 86.506369 604.379487 86.257198 604.689744 86.007856 605.000000 85.758349 605.310256 85.508683 605.620513 85.258862 605.930769 85.008894 606.241026 84.758783 606.551282 84.508536 606.861538 84.258157 607.171795 84.007654 607.482051 83.757031 607.792308 83.506294 608.102564 83.255449 608.412821 83.004502 608.723077 82.753458 609.033333 82.502323 609.343590 82.251103 609.653846 81.999804 609.964103 81.748430 610.274359 81.496989 610.584615 81.245485 610.894872 80.993925 611.205128 80.742313 611.515385 80.490656 611.825641 80.238960 612.135897 79.987230 612.446154 79.735472 612.756410 79.483692 613.066667 79.231894 613.376923 78.980086 613.687179 78.728273 613.997436 78.476460 614.307692 78.224653 614.617949 77.972858 614.928205 77.721081 615.238462 77.469326 615.548718 77.217601 615.858974 76.965911 616.169231 76.714261 616.479487 76.462657 616.789744 76.211105 617.100000 75.959611 617.410256 75.708180 617.720513 75.456818 618.030769 75.205530 618.341026 74.954323 618.651282 74.703203 618.961538 74.452173 619.271795 74.201242 619.582051 73.950414 619.892308 73.699694 620.202564 73.449090 620.512821 73.198606 620.823077 72.948248 621.133333 72.698021 621.443590 72.447933 621.753846 72.197987 622.064103 71.948190 622.374359 71.698549 622.684615 71.449067 622.994872 71.199752 623.305128 70.950608 623.615385 70.701642 623.925641 70.452859 624.235897 70.204265 624.546154 69.955866 624.856410 69.707667 625.166667 69.459674 625.476923 69.211892 625.787179 68.964329 626.097436 68.716988 626.407692 68.469877 626.717949 68.223000 627.028205 67.976363 627.338462 67.729973 627.648718 67.483834 627.958974 67.237952 628.269231 66.992334 628.579487 66.746985 628.889744 66.501910 629.200000 66.257116 629.510256 66.012608 629.820513 65.768391 630.130769 65.524472 630.441026 65.280856 630.751282 65.037549 631.061538 64.794556 631.371795 64.551884 631.682051 64.309538 631.992308 64.067523 632.302564 63.825846 632.612821 63.584512 632.923077 63.343527 633.233333 63.102897 633.543590 62.862627 633.853846 62.622722 634.164103 62.383190 634.474359 62.144035 634.784615 61.905262 635.094872 61.666870 635.405128 61.428858 635.715385 61.191225 636.025641 60.953969 636.335897 60.717089 636.646154 60.480582 636.956410 60.244448 637.266667 60.008684 637.576923 59.773290 637.887179 59.538264 638.197436 59.303604 638.507692 59.069309 638.817949 58.835376 639.128205 58.601806 639.438462 58.368596 639.748718 58.135744 640.058974 57.903249 640.369231 57.671110 640.679487 57.439325 640.989744 57.207893 641.300000 56.976811 641.610256 56.746079 641.920513 56.515694 642.230769 56.285656 642.541026 56.055963 642.851282 55.826613 643.161538 55.597605 643.471795 55.368937 643.782051 55.140608 644.092308 54.912616 644.402564 54.684959 644.712821 54.457637 645.023077 54.230647 645.333333 54.003988 645.643590 53.777658 645.953846 53.551657 646.264103 53.325982 646.574359 53.100632 646.884615 52.875605 647.194872 52.650900 647.505128 52.426515 647.815385 52.202449 648.125641 51.978701 648.435897 51.755268 648.746154 51.532149 649.056410 51.309343 649.366667 51.086847 649.676923 50.864662 649.987179 50.642784 650.297436 50.421213 650.607692 50.199947 650.917949 49.978985 651.228205 49.758324 651.538462 49.537963 651.848718 49.317902 652.158974 49.098138 652.469231 48.878669 652.779487 48.659495 653.089744 48.440614 653.400000 48.222023 653.710256 48.003722 654.020513 47.785710 654.330769 47.567984 654.641026 47.350543 654.951282 47.133385 655.261538 46.916510 655.571795 46.699915 655.882051 46.483599 656.192308 46.267560 656.502564 46.051797 656.812821 45.836309 657.123077 45.621093 657.433333 45.406148 657.743590 45.191473 658.053846 44.977067 658.364103 44.762927 658.674359 44.549052 658.984615 44.335441 659.294872 44.122091 659.605128 43.909003 659.915385 43.696173 660.225641 43.483601 660.535897 43.271284 660.846154 43.059222 661.156410 42.847413 661.466667 42.635855 661.776923 42.424548 662.087179 42.213488 662.397436 42.002675 662.707692 41.792107 663.017949 41.581783 663.328205 41.371701 663.638462 41.161860 663.948718 40.952257 664.258974 40.742893 664.569231 40.533764 664.879487 40.324870 665.189744 40.116208 665.500000 39.907778 665.810256 39.699578 666.120513 39.491606 666.430769 39.283862 666.741026 39.076342 667.051282 38.869046 667.361538 38.661972 667.671795 38.455119 667.982051 38.248485 668.292308 38.042069 668.602564 37.835869 668.912821 37.629883 669.223077 37.424111 669.533333 37.218550 669.843590 37.013198 670.153846 36.808056 670.464103 36.603120 670.774359 36.398389 671.084615 36.193863 671.394872 35.989538 671.705128 35.785415 672.015385 35.581490 672.325641 35.377763 672.635897 35.174233 672.946154 34.970897 673.256410 34.767754 673.566667 34.564803 673.876923 34.362041 674.187179 34.159469 674.497436 33.957083 674.807692 33.754883 675.117949 33.552866 675.428205 33.351032 675.738462 33.149379 676.048718 32.947905 676.358974 32.746608 676.669231 32.545488 676.979487 32.344543 677.289744 32.143771 677.600000 31.943171 677.910256 31.742740 678.220513 31.542479 678.530769 31.342384 678.841026 31.142455 679.151282 30.942689 679.461538 30.743087 679.771795 30.543645 680.082051 30.344362 680.392308 30.145237 680.702564 29.946269 681.012821 29.747455 681.323077 29.548795 681.633333 29.350287 681.943590 29.151928 682.253846 28.953718 682.564103 28.755656 682.874359 28.557739 683.184615 28.359966 683.494872 28.162335 683.805128 27.964846 684.115385 27.767496 684.425641 27.570283 684.735897 27.373208 685.046154 27.176267 685.356410 26.979459 685.666667 26.782784 685.976923 26.586238 686.287179 26.389821 686.597436 26.193532 686.907692 25.997368 687.217949 25.801328 687.528205 25.605411 687.838462 25.409615 688.148718 25.213938 688.458974 25.018380 688.769231 24.822937 689.079487 24.627610 689.389744 24.432397 689.700000 24.237295 690.010256 24.042303 690.320513 23.847420 690.630769 23.652645 690.941026 23.457975 691.251282 23.263410 691.561538 23.068947 691.871795 22.874585 692.182051 22.680323 692.492308 22.486159 692.802564 22.292092 693.112821 22.098119 693.423077 21.904240 693.733333 21.710453 694.043590 21.516757 694.353846 21.323149 694.664103 21.129628 694.974359 20.936194 695.284615 20.742844 695.594872 20.549576 695.905128 20.356390 696.215385 20.163283 696.525641 19.970255 696.835897 19.777303 697.146154 19.584426 697.456410 19.391623 697.766667 19.198892 698.076923 19.006231 698.387179 18.813640 698.697436 18.621116 699.007692 18.428657 699.317949 18.236263 699.628205 18.043932 699.938462 17.851662 700.248718 17.659452 700.558974 17.467300 700.869231 17.275205 701.179487 17.083165 701.489744 16.891179 701.800000 16.699245 702.110256 16.507361 702.420513 16.315526 702.730769 16.123739 703.041026 15.931998 703.351282 15.740301 703.661538 15.548648 703.971795 15.357035 704.282051 15.165463 704.592308 14.973928 704.902564 14.782431 705.212821 14.590969 705.523077 14.399540 705.833333 14.208144 706.143590 14.016778 706.453846 13.825442 706.764103 13.634133 707.074359 13.442850 707.384615 13.251591 707.694872 13.060356 708.005128 12.869142 708.315385 12.677948 708.625641 12.486772 708.935897 12.295613 709.246154 12.104470 709.556410 11.913340 709.866667 11.722223 710.176923 11.531116 710.487179 11.340019 710.797436 11.148929 711.107692 10.957845 711.417949 10.766766 711.728205 10.575690 712.038462 10.384615 712.038462 540.000000" /></g></g><g class="titles" /><g class="plot overlay" transform="translate(54, 20)"><g class="series serie-0 color-0"><g class="dots"><circle class="dot reactive tooltip-trigger" cx="13.96153846153846" cy="529.6153846153846" r="2.5" /><desc class="value">303,929,329(kWh)</desc><desc class="x top">13.96153846153846</desc><desc class="y top">529.6153846153846</desc><desc class="x_label">2549</desc></g><g class="dots"><circle class="dot reactive tooltip-trigger" cx="91.52564102564101" cy="426.1305348182193" r="2.5" /><desc class="value">352,092,924(kWh)</desc><desc class="x top">91.52564102564101</desc><desc class="y top">426.1305348182193</desc><desc class="x_label">2550</desc></g><g class="dots"><circle class="dot reactive tooltip-trigger" cx="169.08974358974356" cy="363.3656506612242" r="2.5" /><desc class="value">381,304,760(kWh)</desc><desc class="x top">169.08974358974356</desc><desc class="y top">363.3656506612242</desc><desc class="x_label">2551</desc></g><g class="dots"><circle class="dot reactive tooltip-trigger" cx="246.65384615384613" cy="332.8296776826961" r="2.5" /><desc class="value">395,516,717(kWh)</desc><desc class="x top">246.65384615384613</desc><desc class="y top">332.8296776826961</desc><desc class="x_label">2552</desc></g><g class="dots"><circle class="dot reactive tooltip-trigger" cx="324.21794871794873" cy="253.63278069010653" r="2.5" /><desc class="value">432,376,289(kWh)</desc><desc class="x ">324.21794871794873</desc><desc class="y ">253.63278069010653</desc><desc class="x_label">2553</desc></g><g class="dots"><circle class="dot reactive tooltip-trigger" cx="401.78205128205127" cy="220.09357966644313" r="2.5" /><desc class="value">447,985,999(kWh)</desc><desc class="x left">401.78205128205127</desc><desc class="y left">220.09357966644313</desc><desc class="x_label">2554</desc></g><g class="dots"><circle class="dot reactive tooltip-trigger" cx="479.3461538461538" cy="152.14825158990567" r="2.5" /><desc class="value">479,608,901(kWh)</desc><desc class="x left">479.3461538461538</desc><desc class="y left">152.14825158990567</desc><desc class="x_label">2555</desc></g><g class="dots"><circle class="dot reactive tooltip-trigger" cx="556.9102564102565" cy="118.98395102823764" r="2.5" /><desc class="value">495,044,126(kWh)</desc><desc class="x left">556.9102564102565</desc><desc class="y left">118.98395102823764</desc><desc class="x_label">2556</desc></g><g class="dots"><circle class="dot reactive tooltip-trigger" cx="634.474358974359" cy="62.144034725151016" r="2.5" /><desc class="value">521,498,382(kWh)</desc><desc class="x left">634.474358974359</desc><desc class="y left">62.144034725151016</desc><desc class="x_label">2557</desc></g><g class="dots"><circle class="dot reactive tooltip-trigger" cx="712.0384615384615" cy="10.384615384615472" r="2.5" /><desc class="value">545,588,089(kWh)</desc><desc class="x left">712.0384615384615</desc><desc class="y left">10.384615384615472</desc><desc class="x_label">2558</desc></g></g></g><g class="plot text-overlay" transform="translate(54, 20)"><g class="series serie-0 color-0" /></g><g class="plot tooltip-overlay" transform="translate(54, 20)"><g class="tooltip" style="opacity: 0" transform="translate(0 0)"><rect class="tooltip-box" height="0" rx="0" ry="0" width="0" /><g class="text" /></g></g></g></svg>