<?xml version='1.0' encoding='utf-8'?>
<svg xmlns:xlink="http://www.w3.org/1999/xlink" class="pygal-chart" id="chart-bb51f4f5-ca81-4fb5-b481-8b5b191a16cc" viewBox="0 0 800 600" xmlns="http://www.w3.org/2000/svg"><!--Generated with pygal 2.3.0 (etree) ©Kozea 2012-2016 on 2016-12-08--><!--http://pygal.org--><!--http://github.com/Kozea/pygal--><defs><style type="text/css">#chart-bb51f4f5-ca81-4fb5-b481-8b5b191a16cc{-webkit-user-select:none;-webkit-font-smoothing:antialiased;font-family:Consolas,"Liberation Mono",Menlo,Courier,monospace}#chart-bb51f4f5-ca81-4fb5-b481-8b5b191a16cc .title{font-family:Consolas,"Liberation Mono",Menlo,Courier,monospace;font-size:16px}#chart-bb51f4f5-ca81-4fb5-b481-8b5b191a16cc .legends .legend text{font-family:Consolas,"Liberation Mono",Menlo,Courier,monospace;font-size:14px}#chart-bb51f4f5-ca81-4fb5-b481-8b5b191a16cc .axis text{font-family:Consolas,"Liberation Mono",Menlo,Courier,monospace;font-size:10px}#chart-bb51f4f5-ca81-4fb5-b481-8b5b191a16cc .axis text.major{font-family:Consolas,"Liberation Mono",Menlo,Courier,monospace;font-size:10px}#chart-bb51f4f5-ca81-4fb5-b481-8b5b191a16cc .text-overlay text.value{font-family:Consolas,"Liberation Mono",Menlo,Courier,monospace;font-size:16px}#chart-bb51f4f5-ca81-4fb5-b481-8b5b191a16cc .text-overlay text.label{font-family:Consolas,"Liberation Mono",Menlo,Courier,monospace;font-size:10px}#chart-bb51f4f5-ca81-4fb5-b481-8b5b191a16cc .tooltip{font-family:Consolas,"Liberation Mono",Menlo,Courier,monospace;font-size:14px}#chart-bb51f4f5-ca81-4fb5-b481-8b5b191a16cc text.no_data{font-family:Consolas,"Liberation Mono",Menlo,Courier,monospace;font-size:64px}
#chart-bb51f4f5-ca81-4fb5-b481-8b5b191a16cc{background-color:rgba(249,249,249,1)}#chart-bb51f4f5-ca81-4fb5-b481-8b5b191a16cc path,#chart-bb51f4f5-ca81-4fb5-b481-8b5b191a16cc line,#chart-bb51f4f5-ca81-4fb5-b481-8b5b191a16cc rect,#chart-bb51f4f5-ca81-4fb5-b481-8b5b191a16cc circle{-webkit-transition:150ms;-moz-transition:150ms;transition:150ms}#chart-bb51f4f5-ca81-4fb5-b481-8b5b191a16cc .graph &gt; .background{fill:rgba(249,249,249,1)}#chart-bb51f4f5-ca81-4fb5-b481-8b5b191a16cc .plot &gt; .background{fill:rgba(255,255,255,1)}#chart-bb51f4f5-ca81-4fb5-b481-8b5b191a16cc .graph{fill:rgba(0,0,0,.87)}#chart-bb51f4f5-ca81-4fb5-b481-8b5b191a16cc text.no_data{fill:rgba(0,0,0,1)}#chart-bb51f4f5-ca81-4fb5-b481-8b5b191a16cc .title{fill:rgba(0,0,0,1)}#chart-bb51f4f5-ca81-4fb5-b481-8b5b191a16cc .legends .legend text{fill:rgba(0,0,0,.87)}#chart-bb51f4f5-ca81-4fb5-b481-8b5b191a16cc .legends .legend:hover text{fill:rgba(0,0,0,1)}#chart-bb51f4f5-ca81-4fb5-b481-8b5b191a16cc .axis .line{stroke:rgba(0,0,0,1)}#chart-bb51f4f5-ca81-4fb5-b481-8b5b191a16cc .axis .guide.line{stroke:rgba(0,0,0,.54)}#chart-bb51f4f5-ca81-4fb5-b481-8b5b191a16cc .axis .major.line{stroke:rgba(0,0,0,.87)}#chart-bb51f4f5-ca81-4fb5-b481-8b5b191a16cc .axis text.major{fill:rgba(0,0,0,1)}#chart-bb51f4f5-ca81-4fb5-b481-8b5b191a16cc .axis.y .guides:hover .guide.line,#chart-bb51f4f5-ca81-4fb5-b481-8b5b191a16cc .line-graph .axis.x .guides:hover .guide.line,#chart-bb51f4f5-ca81-4fb5-b481-8b5b191a16cc .stackedline-graph .axis.x .guides:hover .guide.line,#chart-bb51f4f5-ca81-4fb5-b481-8b5b191a16cc .xy-graph .axis.x .guides:hover .guide.line{stroke:rgba(0,0,0,1)}#chart-bb51f4f5-ca81-4fb5-b481-8b5b191a16cc .axis .guides:hover text{fill:rgba(0,0,0,1)}#chart-bb51f4f5-ca81-4fb5-b481-8b5b191a16cc .reactive{fill-opacity:.7;stroke-opacity:.8}#chart-bb51f4f5-ca81-4fb5-b481-8b5b191a16cc .ci{stroke:rgba(0,0,0,.87)}#chart-bb51f4f5-ca81-4fb5-b481-8b5b191a16cc .reactive.active,#chart-bb51f4f5-ca81-4fb5-b481-8b5b191a16cc .active .reactive{fill-opacity:.8;stroke-opacity:.9;stroke-width:4}#chart-bb51f4f5-ca81-4fb5-b481-8b5b191a16cc .ci .reactive.active{stroke-width:1.5}#chart-bb51f4f5-ca81-4fb5-b481-8b5b191a16cc .series text{fill:rgba(0,0,0,1)}#chart-bb51f4f5-ca81-4fb5-b481-8b5b191a16cc .tooltip rect{fill:rgba(255,255,255,1);stroke:rgba(0,0,0,1);-webkit-transition:opacity 150ms;-moz-transition:opacity 150ms;transition:opacity 150ms}#chart-bb51f4f5-ca81-4fb5-b481-8b5b191a16cc .tooltip .label{fill:rgba(0,0,0,.87)}#chart-bb51f4f5-ca81-4fb5-b481-8b5b191a16cc .tooltip .label{fill:rgba(0,0,0,.87)}#chart-bb51f4f5-ca81-4fb5-b481-8b5b191a16cc .tooltip .legend{font-size:.8em;fill:rgba(0,0,0,.54)}#chart-bb51f4f5-ca81-4fb5-b481-8b5b191a16cc .tooltip .x_label{font-size:.6em;fill:rgba(0,0,0,1)}#chart-bb51f4f5-ca81-4fb5-b481-8b5b191a16cc .tooltip .xlink{font-size:.5em;text-decoration:underline}#chart-bb51f4f5-ca81-4fb5-b481-8b5b191a16cc .tooltip .value{font-size:1.5em}#chart-bb51f4f5-ca81-4fb5-b481-8b5b191a16cc .bound{font-size:.5em}#chart-bb51f4f5-ca81-4fb5-b481-8b5b191a16cc .max-value{font-size:.75em;fill:rgba(0,0,0,.54)}#chart-bb51f4f5-ca81-4fb5-b481-8b5b191a16cc .map-element{fill:rgba(255,255,255,1);stroke:rgba(0,0,0,.54) !important}#chart-bb51f4f5-ca81-4fb5-b481-8b5b191a16cc .map-element .reactive{fill-opacity:inherit;stroke-opacity:inherit}#chart-bb51f4f5-ca81-4fb5-b481-8b5b191a16cc .color-0,#chart-bb51f4f5-ca81-4fb5-b481-8b5b191a16cc .color-0 a:visited{stroke:#e86fa0;fill:#e86fa0}#chart-bb51f4f5-ca81-4fb5-b481-8b5b191a16cc .text-overlay .color-0 text{fill:black}
#chart-bb51f4f5-ca81-4fb5-b481-8b5b191a16cc text.no_data{text-anchor:middle}#chart-bb51f4f5-ca81-4fb5-b481-8b5b191a16cc .guide.line{fill:none}#chart-bb51f4f5-ca81-4fb5-b481-8b5b191a16cc .centered{text-anchor:middle}#chart-bb51f4f5-ca81-4fb5-b481-8b5b191a16cc .title{text-anchor:middle}#chart-bb51f4f5-ca81-4fb5-b481-8b5b191a16cc .legends .legend text{fill-opacity:1}#chart-bb51f4f5-ca81-4fb5-b481-8b5b191a16cc .axis.x text{text-anchor:middle}#chart-bb51f4f5-ca81-4fb5-b481-8b5b191a16cc .axis.x:not(.web) text[transform]{text-anchor:start}#chart-bb51f4f5-ca81-4fb5-b481-8b5b191a16cc .axis.x:not(.web) text[transform].backwards{text-anchor:end}#chart-bb51f4f5-ca81-4fb5-b481-8b5b191a16cc .axis.y text{text-anchor:end}#chart-bb51f4f5-ca81-4fb5-b481-8b5b191a16cc .axis.y text[transform].backwards{text-anchor:start}#chart-bb51f4f5-ca81-4fb5-b481-8b5b191a16cc .axis.y2 text{text-anchor:start}#chart-bb51f4f5-ca81-4fb5-b481-8b5b191a16cc .axis.y2 text[transform].backwards{text-anchor:end}#chart-bb51f4f5-ca81-4fb5-b481-8b5b191a16cc .axis .guide.line{stroke-dasharray:4,4}#chart-bb51f4f5-ca81-4fb5-b481-8b5b191a16cc .axis .major.guide.line{stroke-dasharray:6,6}#chart-bb51f4f5-ca81-4fb5-b481-8b5b191a16cc .horizontal .axis.y .guide.line,#chart-bb51f4f5-ca81-4fb5-b481-8b5b191a16cc .horizontal .axis.y2 .guide.line,#chart-bb51f4f5-ca81-4fb5-b481-8b5b191a16cc .vertical .axis.x .guide.line{opacity:0}#chart-bb51f4f5-ca81-4fb5-b481-8b5b191a16cc .horizontal .axis.always_show .guide.line,#chart-bb51f4f5-ca81-4fb5-b481-8b5b191a16cc .vertical .axis.always_show .guide.line{opacity:1 !important}#chart-bb51f4f5-ca81-4fb5-b481-8b5b191a16cc .axis.y .guides:hover .guide.line,#chart-bb51f4f5-ca81-4fb5-b481-8b5b191a16cc .axis.y2 .guides:hover .guide.line,#chart-bb51f4f5-ca81-4fb5-b481-8b5b191a16cc .axis.x .guides:hover .guide.line{opacity:1}#chart-bb51f4f5-ca81-4fb5-b481-8b5b191a16cc .axis .guides:hover text{opacity:1}#chart-bb51f4f5-ca81-4fb5-b481-8b5b191a16cc .nofill{fill:none}#chart-bb51f4f5-ca81-4fb5-b481-8b5b191a16cc .subtle-fill{fill-opacity:.2}#chart-bb51f4f5-ca81-4fb5-b481-8b5b191a16cc .dot{stroke-width:1px;fill-opacity:1}#chart-bb51f4f5-ca81-4fb5-b481-8b5b191a16cc .dot.active{stroke-width:5px}#chart-bb51f4f5-ca81-4fb5-b481-8b5b191a16cc .dot.negative{fill:transparent}#chart-bb51f4f5-ca81-4fb5-b481-8b5b191a16cc text,#chart-bb51f4f5-ca81-4fb5-b481-8b5b191a16cc tspan{stroke:none !important}#chart-bb51f4f5-ca81-4fb5-b481-8b5b191a16cc .series text.active{opacity:1}#chart-bb51f4f5-ca81-4fb5-b481-8b5b191a16cc .tooltip rect{fill-opacity:.95;stroke-width:.5}#chart-bb51f4f5-ca81-4fb5-b481-8b5b191a16cc .tooltip text{fill-opacity:1}#chart-bb51f4f5-ca81-4fb5-b481-8b5b191a16cc .showable{visibility:hidden}#chart-bb51f4f5-ca81-4fb5-b481-8b5b191a16cc .showable.shown{visibility:visible}#chart-bb51f4f5-ca81-4fb5-b481-8b5b191a16cc .gauge-background{fill:rgba(229,229,229,1);stroke:none}#chart-bb51f4f5-ca81-4fb5-b481-8b5b191a16cc .bg-lines{stroke:rgba(249,249,249,1);stroke-width:2px}</style><script type="text/javascript">window.pygal = window.pygal || {};window.pygal.config = window.pygal.config || {};window.pygal.config['bb51f4f5-ca81-4fb5-b481-8b5b191a16cc'] = {"no_data_text": "No data", "no_prefix": false, "xrange": null, "print_values_position": "center", "truncate_label": null, "x_labels": ["2549", "2550", "2551", "2552", "2553", "2554", "2555", "2556", "2557", "2558"], "title": null, "force_uri_protocol": "https", "defs": [], "formatter": null, "classes": ["pygal-chart"], "y_labels": null, "rounded_bars": null, "explicit_size": false, "x_labels_major_every": null, "legend_at_bottom_columns": null, "stroke_style": null, "half_pie": false, "spacing": 10, "tooltip_fancy_mode": true, "inverse_y_axis": false, "width": 800, "inner_radius": 0, "interpolation_parameters": {}, "tooltip_border_radius": 0, "style": {"no_data_font_family": "Consolas, \"Liberation Mono\", Menlo, Courier, monospace", "tooltip_font_size": 14, "tooltip_font_family": "Consolas, \"Liberation Mono\", Menlo, Courier, monospace", "stroke_opacity_hover": ".9", "legend_font_family": "Consolas, \"Liberation Mono\", Menlo, Courier, monospace", "font_family": "Consolas, \"Liberation Mono\", Menlo, Courier, monospace", "title_font_family": "Consolas, \"Liberation Mono\", Menlo, Courier, monospace", "background": "rgba(249, 249, 249, 1)", "stroke_opacity": ".8", "foreground": "rgba(0, 0, 0, .87)", "value_background": "rgba(229, 229, 229, 1)", "guide_stroke_dasharray": "4,4", "foreground_subtle": "rgba(0, 0, 0, .54)", "opacity_hover": ".8", "value_font_family": "Consolas, \"Liberation Mono\", Menlo, Courier, monospace", "value_label_font_size": 10, "plot_background": "rgba(255, 255, 255, 1)", "ci_colors": [], "label_font_size": 10, "major_label_font_size": 10, "title_font_size": 16, "no_data_font_size": 64, "value_font_size": 16, "value_colors": [], "label_font_family": "Consolas, \"Liberation Mono\", Menlo, Courier, monospace", "major_guide_stroke_dasharray": "6,6", "transition": "150ms", "foreground_strong": "rgba(0, 0, 0, 1)", "colors": ["#e86fa0", "#e88f6f", "#e8df6f", "#a0e86f", "#6fe88f", "#6fe8df", "#6fa0e8", "#8f6fe8", "#df6fe8", "#e86fa0"], "opacity": ".7", "legend_font_size": 14, "value_label_font_family": "Consolas, \"Liberation Mono\", Menlo, Courier, monospace", "major_label_font_family": "Consolas, \"Liberation Mono\", Menlo, Courier, monospace"}, "x_labels_major_count": null, "interpolation_precision": 250, "missing_value_fill_truncation": "x", "stack_from_top": false, "truncate_legend": null, "show_minor_x_labels": true, "print_zeroes": true, "css": ["file://style.css", "file://graph.css"], "y_label_rotation": 0, "legend_at_bottom": false, "print_values": false, "margin_top": null, "max_scale": 16, "allow_interruptions": false, "show_x_labels": true, "strict": false, "show_x_guides": false, "stroke": true, "margin_left": null, "dynamic_print_values": false, "print_labels": false, "show_y_labels": true, "x_labels_major": null, "range": null, "x_label_rotation": 0, "margin": 20, "zero": 0, "include_x_axis": false, "height": 600, "show_minor_y_labels": true, "show_dots": true, "interpolate": "cubic", "show_y_guides": true, "y_labels_major": null, "box_mode": "extremes", "margin_bottom": null, "order_min": null, "legend_box_size": 12, "fill": true, "show_only_major_dots": false, "js": ["//kozea.github.io/pygal.js/2.0.x/pygal-tooltips.min.js"], "x_title": null, "y_labels_major_every": null, "y_labels_major_count": null, "disable_xml_declaration": false, "y_title": null, "logarithmic": false, "pretty_print": false, "min_scale": 4, "dots_size": 2.5, "margin_right": null, "legends": [null], "secondary_range": null, "show_legend": false}</script><script type="text/javascript" xlink:href="https://kozea.github.io/pygal.js/2.0.x/pygal-tooltips.min.js" /></defs><title>Pygal</title><g class="graph stackedline-graph vertical"><rect class="background" height="600" width="800" x="0" y="0" /><g class="plot" transform="translate(60, 20)"><rect class="background" height="540" width="720.0" x="0" y="0" /><g class="axis y"><path class="line" d="M0.000000 540.000000 h720.000000" /><g class="guides"><path class="guide line" d="M0.000000 526.631517 h720.000000" /><text class="" x="-5" y="530.1315172176938">700M</text><title>700M</title></g><g class="guides"><path class="guide line" d="M0.000000 419.299547 h720.000000" /><text class="" x="-5" y="422.7995474989263">800M</text><title>800M</title></g><g class="guides"><path class="guide line" d="M0.000000 311.967578 h720.000000" /><text class="" x="-5" y="315.46757778015876">900M</text><title>900M</title></g><g class="guides"><path class="major guide line" d="M0.000000 204.635608 h720.000000" /><text class="major" x="-5" y="208.13560806139122">1000M</text><title>1000M</title></g><g class="guides"><path class="guide line" d="M0.000000 97.303638 h720.000000" /><text class="" x="-5" y="100.80363834262369">1100M</text><title>1100M</title></g></g><g class="axis x"><g class="guides"><path class="line" d="M13.846154 0.000000 v540.000000" /><text class="" x="13.846153846153847" y="555.0">2549</text></g><g class="guides"><path class="guide line" d="M90.769231 0.000000 v540.000000" /><text class="" x="90.76923076923076" y="555.0">2550</text></g><g class="guides"><path class="guide line" d="M167.692308 0.000000 v540.000000" /><text class="" x="167.69230769230765" y="555.0">2551</text></g><g class="guides"><path class="guide line" d="M244.615385 0.000000 v540.000000" /><text class="" x="244.6153846153846" y="555.0">2552</text></g><g class="guides"><path class="guide line" d="M321.538462 0.000000 v540.000000" /><text class="" x="321.5384615384615" y="555.0">2553</text></g><g class="guides"><path class="guide line" d="M398.461538 0.000000 v540.000000" /><text class="" x="398.46153846153845" y="555.0">2554</text></g><g class="guides"><path class="guide line" d="M475.384615 0.000000 v540.000000" /><text class="" x="475.38461538461536" y="555.0">2555</text></g><g class="guides"><path class="guide line" d="M552.307692 0.000000 v540.000000" /><text class="" x="552.3076923076923" y="555.0">2556</text></g><g class="guides"><path class="guide line" d="M629.230769 0.000000 v540.000000" /><text class="" x="629.2307692307692" y="555.0">2557</text></g><g class="guides"><path class="guide line" d="M706.153846 0.000000 v540.000000" /><text class="" x="706.1538461538461" y="555.0">2558</text></g></g><g class="series serie-0 color-0"><path class="line reactive" d="M13.846154 540.000000 L13.846154 529.615385 14.153846 529.448330 14.461538 529.281274 14.769231 529.114215 15.076923 528.947154 15.384615 528.780087 15.692308 528.613015 16.000000 528.445937 16.307692 528.278850 16.615385 528.111754 16.923077 527.944647 17.230769 527.777530 17.538462 527.610399 17.846154 527.443255 18.153846 527.276097 18.461538 527.108922 18.769231 526.941730 19.076923 526.774519 19.384615 526.607290 19.692308 526.440039 20.000000 526.272768 20.307692 526.105473 20.615385 525.938154 20.923077 525.770810 21.230769 525.603440 21.538462 525.436042 21.846154 525.268616 22.153846 525.101160 22.461538 524.933673 22.769231 524.766154 23.076923 524.598602 23.384615 524.431016 23.692308 524.263394 24.000000 524.095736 24.307692 523.928040 24.615385 523.760305 24.923077 523.592531 25.230769 523.424715 25.538462 523.256857 25.846154 523.088955 26.153846 522.921009 26.461538 522.753017 26.769231 522.584978 27.076923 522.416891 27.384615 522.248756 27.692308 522.080569 28.000000 521.912332 28.307692 521.744042 28.615385 521.575698 28.923077 521.407299 29.230769 521.238845 29.538462 521.070333 29.846154 520.901763 30.153846 520.733133 30.461538 520.564443 30.769231 520.395691 31.076923 520.226877 31.384615 520.057998 31.692308 519.889054 32.000000 519.720044 32.307692 519.550967 32.615385 519.381821 32.923077 519.212605 33.230769 519.043318 33.538462 518.873960 33.846154 518.704528 34.153846 518.535022 34.461538 518.365441 34.769231 518.195783 35.076923 518.026047 35.384615 517.856233 35.692308 517.686338 36.000000 517.516363 36.307692 517.346305 36.615385 517.176164 36.923077 517.005938 37.230769 516.835626 37.538462 516.665228 37.846154 516.494741 38.153846 516.324166 38.461538 516.153500 38.769231 515.982743 39.076923 515.811893 39.384615 515.640949 39.692308 515.469911 40.000000 515.298777 40.307692 515.127545 40.615385 514.956216 40.923077 514.784787 41.230769 514.613257 41.538462 514.441625 41.846154 514.269891 42.153846 514.098053 42.461538 513.926110 42.769231 513.754060 43.076923 513.581903 43.384615 513.409637 43.692308 513.237262 44.000000 513.064776 44.307692 512.892178 44.615385 512.719467 44.923077 512.546641 45.230769 512.373700 45.538462 512.200643 45.846154 512.027467 46.153846 511.854173 46.461538 511.680759 46.769231 511.507224 47.076923 511.333567 47.384615 511.159786 47.692308 510.985881 48.000000 510.811850 48.307692 510.637692 48.615385 510.463406 48.923077 510.288991 49.230769 510.114446 49.538462 509.939769 49.846154 509.764960 50.153846 509.590017 50.461538 509.414939 50.769231 509.239725 51.076923 509.064374 51.384615 508.888885 51.692308 508.713257 52.000000 508.537487 52.307692 508.361577 52.615385 508.185523 52.923077 508.009325 53.230769 507.832983 53.538462 507.656494 53.846154 507.479857 54.153846 507.303072 54.461538 507.126137 54.769231 506.949052 55.076923 506.771814 55.384615 506.594424 55.692308 506.416879 56.000000 506.239179 56.307692 506.061322 56.615385 505.883307 56.923077 505.705134 57.230769 505.526801 57.538462 505.348306 57.846154 505.169649 58.153846 504.990829 58.461538 504.811845 58.769231 504.632694 59.076923 504.453377 59.384615 504.273892 59.692308 504.094238 60.000000 503.914413 60.307692 503.734417 60.615385 503.554248 60.923077 503.373906 61.230769 503.193389 61.538462 503.012696 61.846154 502.831826 62.153846 502.650778 62.461538 502.469550 62.769231 502.288141 63.076923 502.106551 63.384615 501.924779 63.692308 501.742822 64.000000 501.560680 64.307692 501.378351 64.615385 501.195836 64.923077 501.013132 65.230769 500.830238 65.538462 500.647153 65.846154 500.463876 66.153846 500.280407 66.461538 500.096743 66.769231 499.912883 67.076923 499.728827 67.384615 499.544573 67.692308 499.360121 68.000000 499.175468 68.307692 498.990615 68.615385 498.805559 68.923077 498.620300 69.230769 498.434836 69.538462 498.249166 69.846154 498.063290 70.153846 497.877206 70.461538 497.690912 70.769231 497.504409 71.076923 497.317694 71.384615 497.130766 71.692308 496.943625 72.000000 496.756269 72.307692 496.568696 72.615385 496.380907 72.923077 496.192900 73.230769 496.004673 73.538462 495.816226 73.846154 495.627556 74.153846 495.438665 74.461538 495.249549 74.769231 495.060208 75.076923 494.870640 75.384615 494.680846 75.692308 494.490823 76.000000 494.300570 76.307692 494.110086 76.615385 493.919370 76.923077 493.728421 77.230769 493.537238 77.538462 493.345820 77.846154 493.154165 78.153846 492.962272 78.461538 492.770141 78.769231 492.577769 79.076923 492.385157 79.384615 492.192302 79.692308 491.999204 80.000000 491.805861 80.307692 491.612273 80.615385 491.418437 80.923077 491.224354 81.230769 491.030022 81.538462 490.835439 81.846154 490.640605 82.153846 490.445519 82.461538 490.250179 82.769231 490.054584 83.076923 489.858733 83.384615 489.662625 83.692308 489.466258 84.000000 489.269633 84.307692 489.072746 84.615385 488.875598 84.923077 488.678188 85.230769 488.480513 85.538462 488.282573 85.846154 488.084367 86.153846 487.885893 86.461538 487.687151 86.769231 487.488140 87.076923 487.288857 87.384615 487.089303 87.692308 486.889475 88.000000 486.689373 88.307692 486.488996 88.615385 486.288342 88.923077 486.087411 89.230769 485.886201 89.538462 485.684710 89.846154 485.482939 90.153846 485.280886 90.461538 485.078549 90.769231 484.875927 91.076923 484.673021 91.384615 484.469832 91.692308 484.266365 92.000000 484.062622 92.307692 483.858608 92.615385 483.654325 92.923077 483.449778 93.230769 483.244969 93.538462 483.039903 93.846154 482.834582 94.153846 482.629010 94.461538 482.423191 94.769231 482.217128 95.076923 482.010825 95.384615 481.804284 95.692308 481.597510 96.000000 481.390506 96.307692 481.183276 96.615385 480.975823 96.923077 480.768150 97.230769 480.560261 97.538462 480.352159 97.846154 480.143848 98.153846 479.935332 98.461538 479.726614 98.769231 479.517697 99.076923 479.308584 99.384615 479.099280 99.692308 478.889788 100.000000 478.680111 100.307692 478.470253 100.615385 478.260217 100.923077 478.050006 101.230769 477.839625 101.538462 477.629077 101.846154 477.418365 102.153846 477.207492 102.461538 476.996462 102.769231 476.785279 103.076923 476.573946 103.384615 476.362467 103.692308 476.150844 104.000000 475.939083 104.307692 475.727185 104.615385 475.515154 104.923077 475.302995 105.230769 475.090710 105.538462 474.878303 105.846154 474.665777 106.153846 474.453136 106.461538 474.240383 106.769231 474.027523 107.076923 473.814557 107.384615 473.601491 107.692308 473.388326 108.000000 473.175068 108.307692 472.961718 108.615385 472.748282 108.923077 472.534761 109.230769 472.321161 109.538462 472.107483 109.846154 471.893732 110.153846 471.679911 110.461538 471.466024 110.769231 471.252074 111.076923 471.038064 111.384615 470.823998 111.692308 470.609880 112.000000 470.395713 112.307692 470.181501 112.615385 469.967246 112.923077 469.752953 113.230769 469.538624 113.538462 469.324265 113.846154 469.109877 114.153846 468.895464 114.461538 468.681030 114.769231 468.466579 115.076923 468.252113 115.384615 468.037637 115.692308 467.823153 116.000000 467.608666 116.307692 467.394178 116.615385 467.179693 116.923077 466.965216 117.230769 466.750748 117.538462 466.536294 117.846154 466.321857 118.153846 466.107441 118.461538 465.893049 118.769231 465.678684 119.076923 465.464351 119.384615 465.250052 119.692308 465.035791 120.000000 464.821572 120.307692 464.607397 120.615385 464.393271 120.923077 464.179197 121.230769 463.965178 121.538462 463.751218 121.846154 463.537321 122.153846 463.323489 122.461538 463.109727 122.769231 462.896038 123.076923 462.682425 123.384615 462.468891 123.692308 462.255441 124.000000 462.042078 124.307692 461.828805 124.615385 461.615625 124.923077 461.402543 125.230769 461.189562 125.538462 460.976684 125.846154 460.763914 126.153846 460.551256 126.461538 460.338711 126.769231 460.126285 127.076923 459.913981 127.384615 459.701801 127.692308 459.489750 128.000000 459.277831 128.307692 459.066048 128.615385 458.854403 128.923077 458.642901 129.230769 458.431545 129.538462 458.220338 129.846154 458.009284 130.153846 457.798386 130.461538 457.587648 130.769231 457.377074 131.076923 457.166666 131.384615 456.956428 131.692308 456.746365 132.000000 456.536478 132.307692 456.326772 132.615385 456.117251 132.923077 455.907917 133.230769 455.698774 133.538462 455.489826 133.846154 455.281076 134.153846 455.072527 134.461538 454.864184 134.769231 454.656049 135.076923 454.448127 135.384615 454.240419 135.692308 454.032931 136.000000 453.825665 136.307692 453.618626 136.615385 453.411815 136.923077 453.205238 137.230769 452.998897 137.538462 452.792795 137.846154 452.586938 138.153846 452.381327 138.461538 452.175966 138.769231 451.970859 139.076923 451.766010 139.384615 451.561421 139.692308 451.357096 140.000000 451.153040 140.307692 450.949254 140.615385 450.745743 140.923077 450.542510 141.230769 450.339559 141.538462 450.136893 141.846154 449.934516 142.153846 449.732430 142.461538 449.530641 142.769231 449.329150 143.076923 449.127962 143.384615 448.927080 143.692308 448.726507 144.000000 448.526247 144.307692 448.326304 144.615385 448.126681 144.923077 447.927381 145.230769 447.728408 145.538462 447.529765 145.846154 447.331457 146.153846 447.133485 146.461538 446.935854 146.769231 446.738568 147.076923 446.541630 147.384615 446.345042 147.692308 446.148810 148.000000 445.952935 148.307692 445.757423 148.615385 445.562275 148.923077 445.367497 149.230769 445.173090 149.538462 444.979059 149.846154 444.785407 150.153846 444.592138 150.461538 444.399254 150.769231 444.206760 151.076923 444.014660 151.384615 443.822955 151.692308 443.631651 152.000000 443.440750 152.307692 443.250257 152.615385 443.060173 152.923077 442.870504 153.230769 442.681252 153.538462 442.492420 153.846154 442.304013 154.153846 442.116034 154.461538 441.928487 154.769231 441.741374 155.076923 441.554699 155.384615 441.368466 155.692308 441.182678 156.000000 440.997339 156.307692 440.812452 156.615385 440.628021 156.923077 440.444049 157.230769 440.260540 157.538462 440.077497 157.846154 439.894923 158.153846 439.712822 158.461538 439.531198 158.769231 439.350054 159.076923 439.169394 159.384615 438.989220 159.692308 438.809537 160.000000 438.630348 160.307692 438.451657 160.615385 438.273466 160.923077 438.095780 161.230769 437.918601 161.538462 437.741934 161.846154 437.565782 162.153846 437.390148 162.461538 437.215036 162.769231 437.040449 163.076923 436.866391 163.384615 436.692865 163.692308 436.519875 164.000000 436.347424 164.307692 436.175516 164.615385 436.004154 164.923077 435.833341 165.230769 435.663082 165.538462 435.493380 165.846154 435.324237 166.153846 435.155658 166.461538 434.987646 166.769231 434.820205 167.076923 434.653337 167.384615 434.487047 167.692308 434.321338 168.000000 434.156211 168.307692 433.991658 168.615385 433.827669 168.923077 433.664232 169.230769 433.501337 169.538462 433.338973 169.846154 433.177130 170.153846 433.015798 170.461538 432.854965 170.769231 432.694622 171.076923 432.534757 171.384615 432.375360 171.692308 432.216420 172.000000 432.057927 172.307692 431.899870 172.615385 431.742238 172.923077 431.585022 173.230769 431.428210 173.538462 431.271792 173.846154 431.115756 174.153846 430.960094 174.461538 430.804793 174.769231 430.649844 175.076923 430.495235 175.384615 430.340957 175.692308 430.186998 176.000000 430.033349 176.307692 429.879997 176.615385 429.726934 176.923077 429.574148 177.230769 429.421628 177.538462 429.269365 177.846154 429.117346 178.153846 428.965563 178.461538 428.814004 178.769231 428.662659 179.076923 428.511516 179.384615 428.360567 179.692308 428.209799 180.000000 428.059202 180.307692 427.908766 180.615385 427.758480 180.923077 427.608334 181.230769 427.458316 181.538462 427.308417 181.846154 427.158625 182.153846 427.008931 182.461538 426.859323 182.769231 426.709791 183.076923 426.560325 183.384615 426.410913 183.692308 426.261545 184.000000 426.112211 184.307692 425.962900 184.615385 425.813601 184.923077 425.664304 185.230769 425.514999 185.538462 425.365673 185.846154 425.216318 186.153846 425.066922 186.461538 424.917475 186.769231 424.767966 187.076923 424.618385 187.384615 424.468721 187.692308 424.318963 188.000000 424.169101 188.307692 424.019125 188.615385 423.869023 188.923077 423.718785 189.230769 423.568400 189.538462 423.417859 189.846154 423.267149 190.153846 423.116262 190.461538 422.965185 190.769231 422.813909 191.076923 422.662423 191.384615 422.510716 191.692308 422.358777 192.000000 422.206597 192.307692 422.054165 192.615385 421.901469 192.923077 421.748500 193.230769 421.595246 193.538462 421.441697 193.846154 421.287844 194.153846 421.133674 194.461538 420.979177 194.769231 420.824343 195.076923 420.669161 195.384615 420.513621 195.692308 420.357712 196.000000 420.201423 196.307692 420.044745 196.615385 419.887665 196.923077 419.730174 197.230769 419.572261 197.538462 419.413915 197.846154 419.255126 198.153846 419.095883 198.461538 418.936176 198.769231 418.775994 199.076923 418.615327 199.384615 418.454163 199.692308 418.292493 200.000000 418.130305 200.307692 417.967589 200.615385 417.804335 200.923077 417.640532 201.230769 417.476169 201.538462 417.311235 201.846154 417.145721 202.153846 416.979615 202.461538 416.812908 202.769231 416.645587 203.076923 416.477643 203.384615 416.309066 203.692308 416.139844 204.000000 415.969967 204.307692 415.799424 204.615385 415.628205 204.923077 415.456299 205.230769 415.283695 205.538462 415.110384 205.846154 414.936354 206.153846 414.761595 206.461538 414.586096 206.769231 414.409846 207.076923 414.232836 207.384615 414.055054 207.692308 413.876490 208.000000 413.697133 208.307692 413.516973 208.615385 413.335998 208.923077 413.154199 209.230769 412.971565 209.538462 412.788085 209.846154 412.603749 210.153846 412.418546 210.461538 412.232466 210.769231 412.045497 211.076923 411.857629 211.384615 411.668853 211.692308 411.479156 212.000000 411.288529 212.307692 411.096961 212.615385 410.904441 212.923077 410.710958 213.230769 410.516503 213.538462 410.321065 213.846154 410.124632 214.153846 409.927194 214.461538 409.728742 214.769231 409.529263 215.076923 409.328749 215.384615 409.127187 215.692308 408.924567 216.000000 408.720879 216.307692 408.516113 216.615385 408.310257 216.923077 408.103300 217.230769 407.895234 217.538462 407.686046 217.846154 407.475726 218.153846 407.264264 218.461538 407.051649 218.769231 406.837871 219.076923 406.622918 219.384615 406.406780 219.692308 406.189448 220.000000 405.970909 220.307692 405.751153 220.615385 405.530171 220.923077 405.307951 221.230769 405.084482 221.538462 404.859755 221.846154 404.633758 222.153846 404.406481 222.461538 404.177913 222.769231 403.948044 223.076923 403.716863 223.384615 403.484359 223.692308 403.250523 224.000000 403.015342 224.307692 402.778808 224.615385 402.540908 224.923077 402.301634 225.230769 402.060973 225.538462 401.818915 225.846154 401.575451 226.153846 401.330568 226.461538 401.084257 226.769231 400.836507 227.076923 400.587307 227.384615 400.336647 227.692308 400.084517 228.000000 399.830905 228.307692 399.575801 228.615385 399.319194 228.923077 399.061074 229.230769 398.801431 229.538462 398.540253 229.846154 398.277530 230.153846 398.013251 230.461538 397.747407 230.769231 397.479985 231.076923 397.210977 231.384615 396.940370 231.692308 396.668155 232.000000 396.394321 232.307692 396.118857 232.615385 395.841752 232.923077 395.562997 233.230769 395.282580 233.538462 395.000492 233.846154 394.716720 234.153846 394.431255 234.461538 394.144087 234.769231 393.855204 235.076923 393.564596 235.384615 393.272252 235.692308 392.978162 236.000000 392.682315 236.307692 392.384701 236.615385 392.085308 236.923077 391.784127 237.230769 391.481147 237.538462 391.176357 237.846154 390.869747 238.153846 390.561305 238.461538 390.251022 238.769231 389.938887 239.076923 389.624889 239.384615 389.309018 239.692308 388.991262 240.000000 388.671612 240.307692 388.350057 240.615385 388.026587 240.923077 387.701189 241.230769 387.373855 241.538462 387.044574 241.846154 386.713334 242.153846 386.380125 242.461538 386.044937 242.769231 385.707760 243.076923 385.368582 243.384615 385.027392 243.692308 384.684181 244.000000 384.338938 244.307692 383.991652 244.615385 383.642312 244.923077 383.290914 245.230769 382.937477 245.538462 382.582026 245.846154 382.224585 246.153846 381.865180 246.461538 381.503835 246.769231 381.140576 247.076923 380.775427 247.384615 380.408413 247.692308 380.039559 248.000000 379.668889 248.307692 379.296430 248.615385 378.922206 248.923077 378.546241 249.230769 378.168560 249.538462 377.789189 249.846154 377.408152 250.153846 377.025475 250.461538 376.641181 250.769231 376.255297 251.076923 375.867846 251.384615 375.478855 251.692308 375.088347 252.000000 374.696347 252.307692 374.302881 252.615385 373.907974 252.923077 373.511650 253.230769 373.113934 253.538462 372.714851 253.846154 372.314426 254.153846 371.912684 254.461538 371.509650 254.769231 371.105348 255.076923 370.699804 255.384615 370.293043 255.692308 369.885089 256.000000 369.475967 256.307692 369.065702 256.615385 368.654320 256.923077 368.241844 257.230769 367.828300 257.538462 367.413714 257.846154 366.998108 258.153846 366.581510 258.461538 366.163943 258.769231 365.745432 259.076923 365.326002 259.384615 364.905679 259.692308 364.484487 260.000000 364.062450 260.307692 363.639595 260.615385 363.215945 260.923077 362.791526 261.230769 362.366363 261.538462 361.940480 261.846154 361.513902 262.153846 361.086655 262.461538 360.658763 262.769231 360.230251 263.076923 359.801144 263.384615 359.371466 263.692308 358.941244 264.000000 358.510501 264.307692 358.079263 264.615385 357.647554 264.923077 357.215399 265.230769 356.782824 265.538462 356.349853 265.846154 355.916511 266.153846 355.482823 266.461538 355.048814 266.769231 354.614508 267.076923 354.179931 267.384615 353.745108 267.692308 353.310063 268.000000 352.874821 268.307692 352.439408 268.615385 352.003848 268.923077 351.568166 269.230769 351.132387 269.538462 350.696535 269.846154 350.260637 270.153846 349.824716 270.461538 349.388797 270.769231 348.952906 271.076923 348.517067 271.384615 348.081306 271.692308 347.645646 272.000000 347.210114 272.307692 346.774734 272.615385 346.339530 272.923077 345.904528 273.230769 345.469753 273.538462 345.035229 273.846154 344.600982 274.153846 344.167036 274.461538 343.733416 274.769231 343.300148 275.076923 342.867255 275.384615 342.434763 275.692308 342.002697 276.000000 341.571082 276.307692 341.139942 276.615385 340.709303 276.923077 340.279190 277.230769 339.849626 277.538462 339.420638 277.846154 338.992250 278.153846 338.564487 278.461538 338.137374 278.769231 337.710935 279.076923 337.285197 279.384615 336.860182 279.692308 336.435918 280.000000 336.012428 280.307692 335.589737 280.615385 335.167870 280.923077 334.746852 281.230769 334.326709 281.538462 333.907464 281.846154 333.489143 282.153846 333.071771 282.461538 332.655372 282.769231 332.239972 283.076923 331.825595 283.384615 331.412266 283.692308 331.000011 284.000000 330.588854 284.307692 330.178819 284.615385 329.769933 284.923077 329.362219 285.230769 328.955703 285.538462 328.550410 285.846154 328.146364 286.153846 327.743590 286.461538 327.342114 286.769231 326.941960 287.076923 326.543153 287.384615 326.145718 287.692308 325.749680 288.000000 325.355063 288.307692 324.961893 288.615385 324.570195 288.923077 324.179993 289.230769 323.791313 289.538462 323.404179 289.846154 323.018616 290.153846 322.634649 290.461538 322.252303 290.769231 321.871603 291.076923 321.492573 291.384615 321.115239 291.692308 320.739626 292.000000 320.365758 292.307692 319.993661 292.615385 319.623359 292.923077 319.254877 293.230769 318.888240 293.538462 318.523473 293.846154 318.160601 294.153846 317.799648 294.461538 317.440640 294.769231 317.083602 295.076923 316.728558 295.384615 316.375534 295.692308 316.024553 296.000000 315.675642 296.307692 315.328825 296.615385 314.984127 296.923077 314.641573 297.230769 314.301187 297.538462 313.962995 297.846154 313.627022 298.153846 313.293292 298.461538 312.961830 298.769231 312.632661 299.076923 312.305811 299.384615 311.981304 299.692308 311.659164 300.000000 311.339418 300.307692 311.022089 300.615385 310.707202 300.923077 310.394784 301.230769 310.084857 301.538462 309.777448 301.846154 309.472581 302.153846 309.170282 302.461538 308.870574 302.769231 308.573483 303.076923 308.279034 303.384615 307.987252 303.692308 307.698161 304.000000 307.411787 304.307692 307.128154 304.615385 306.847288 304.923077 306.569212 305.230769 306.293953 305.538462 306.021535 305.846154 305.751983 306.153846 305.485321 306.461538 305.221575 306.769231 304.960770 307.076923 304.702930 307.384615 304.448081 307.692308 304.196247 308.000000 303.947453 308.307692 303.701724 308.615385 303.459085 308.923077 303.219562 309.230769 302.983177 309.538462 302.749958 309.846154 302.519928 310.153846 302.293113 310.461538 302.069537 310.769231 301.849225 311.076923 301.632202 311.384615 301.418494 311.692308 301.208124 312.000000 301.001119 312.307692 300.797502 312.615385 300.597299 312.923077 300.400534 313.230769 300.207233 313.538462 300.017420 313.846154 299.831120 314.153846 299.648359 314.461538 299.469161 314.769231 299.293550 315.076923 299.121553 315.384615 298.953193 315.692308 298.788496 316.000000 298.627486 316.307692 298.470189 316.615385 298.316630 316.923077 298.166832 317.230769 298.020822 317.538462 297.878624 317.846154 297.740262 318.153846 297.605763 318.461538 297.475150 318.769231 297.348449 319.076923 297.225684 319.384615 297.106881 319.692308 296.992065 320.000000 296.881259 320.307692 296.774490 320.615385 296.671781 320.923077 296.573159 321.230769 296.478647 321.538462 296.388272 321.846154 296.302046 322.153846 296.219942 322.461538 296.141923 322.769231 296.067948 323.076923 295.997981 323.384615 295.931983 323.692308 295.869915 324.000000 295.811738 324.307692 295.757416 324.615385 295.706908 324.923077 295.660177 325.230769 295.617184 325.538462 295.577891 325.846154 295.542260 326.153846 295.510252 326.461538 295.481829 326.769231 295.456952 327.076923 295.435583 327.384615 295.417683 327.692308 295.403215 328.000000 295.392139 328.307692 295.384418 328.615385 295.380013 328.923077 295.378886 329.230769 295.380997 329.538462 295.386310 329.846154 295.394785 330.153846 295.406384 330.461538 295.421068 330.769231 295.438800 331.076923 295.459541 331.384615 295.483252 331.692308 295.509895 332.000000 295.539432 332.307692 295.571824 332.615385 295.607033 332.923077 295.645021 333.230769 295.685749 333.538462 295.729178 333.846154 295.775271 334.153846 295.823988 334.461538 295.875293 334.769231 295.929145 335.076923 295.985507 335.384615 296.044340 335.692308 296.105607 336.000000 296.169268 336.307692 296.235285 336.615385 296.303620 336.923077 296.374234 337.230769 296.447089 337.538462 296.522147 337.846154 296.599370 338.153846 296.678718 338.461538 296.760153 338.769231 296.843637 339.076923 296.929132 339.384615 297.016600 339.692308 297.106001 340.000000 297.197298 340.307692 297.290451 340.615385 297.385424 340.923077 297.482177 341.230769 297.580671 341.538462 297.680869 341.846154 297.782733 342.153846 297.886223 342.461538 297.991301 342.769231 298.097929 343.076923 298.206069 343.384615 298.315682 343.692308 298.426729 344.000000 298.539173 344.307692 298.652975 344.615385 298.768097 344.923077 298.884500 345.230769 299.002145 345.538462 299.120995 345.846154 299.241011 346.153846 299.362155 346.461538 299.484388 346.769231 299.607671 347.076923 299.731967 347.384615 299.857238 347.692308 299.983443 348.000000 300.110546 348.307692 300.238508 348.615385 300.367291 348.923077 300.496855 349.230769 300.627163 349.538462 300.758177 349.846154 300.889857 350.153846 301.022166 350.461538 301.155065 350.769231 301.288516 351.076923 301.422480 351.384615 301.556919 351.692308 301.691794 352.000000 301.827068 352.307692 301.962701 352.615385 302.098656 352.923077 302.234894 353.230769 302.371376 353.538462 302.508065 353.846154 302.644921 354.153846 302.781907 354.461538 302.918984 354.769231 303.056113 355.076923 303.193257 355.384615 303.330376 355.692308 303.467433 356.000000 303.604389 356.307692 303.741206 356.615385 303.877844 356.923077 304.014267 357.230769 304.150435 357.538462 304.286311 357.846154 304.421855 358.153846 304.557029 358.461538 304.691795 358.769231 304.826115 359.076923 304.959950 359.384615 305.093262 359.692308 305.226012 360.000000 305.358161 360.307692 305.489673 360.615385 305.620508 360.923077 305.750627 361.230769 305.879993 361.538462 306.008566 361.846154 306.136310 362.153846 306.263184 362.461538 306.389152 362.769231 306.514173 363.076923 306.638211 363.384615 306.761226 363.692308 306.883181 364.000000 307.004037 364.307692 307.123754 364.615385 307.242296 364.923077 307.359624 365.230769 307.475699 365.538462 307.590483 365.846154 307.703937 366.153846 307.816023 366.461538 307.926704 366.769231 308.035939 367.076923 308.143691 367.384615 308.249922 367.692308 308.354593 368.000000 308.457666 368.307692 308.559102 368.615385 308.658863 368.923077 308.756910 369.230769 308.853206 369.538462 308.947711 369.846154 309.040388 370.153846 309.131198 370.461538 309.220103 370.769231 309.307063 371.076923 309.392042 371.384615 309.475000 371.692308 309.555899 372.000000 309.634700 372.307692 309.711366 372.615385 309.785858 372.923077 309.858137 373.230769 309.928165 373.538462 309.995904 373.846154 310.061315 374.153846 310.124360 374.461538 310.185000 374.769231 310.243198 375.076923 310.298914 375.384615 310.352111 375.692308 310.402749 376.000000 310.450791 376.307692 310.496198 376.615385 310.538932 376.923077 310.578955 377.230769 310.616227 377.538462 310.650711 377.846154 310.682368 378.153846 310.711160 378.461538 310.737048 378.769231 310.759994 379.076923 310.779960 379.384615 310.796907 379.692308 310.810796 380.000000 310.821591 380.307692 310.829251 380.615385 310.833739 380.923077 310.835016 381.230769 310.833044 381.538462 310.827784 381.846154 310.819199 382.153846 310.807249 382.461538 310.791896 382.769231 310.773103 383.076923 310.750830 383.384615 310.725039 383.692308 310.695691 384.000000 310.662749 384.307692 310.626174 384.615385 310.585928 384.923077 310.541971 385.230769 310.494267 385.538462 310.442775 385.846154 310.387459 386.153846 310.328279 386.461538 310.265198 386.769231 310.198176 387.076923 310.127176 387.384615 310.052158 387.692308 309.973086 388.000000 309.889919 388.307692 309.802620 388.615385 309.711151 388.923077 309.615473 389.230769 309.515547 389.538462 309.411336 389.846154 309.302800 390.153846 309.189902 390.461538 309.072603 390.769231 308.950865 391.076923 308.824649 391.384615 308.693917 391.692308 308.558630 392.000000 308.418751 392.307692 308.274240 392.615385 308.125060 392.923077 307.971171 393.230769 307.812536 393.538462 307.649116 393.846154 307.480873 394.153846 307.307769 394.461538 307.129764 394.769231 306.946821 395.076923 306.758901 395.384615 306.565966 395.692308 306.367977 396.000000 306.164896 396.307692 305.956685 396.615385 305.743305 396.923077 305.524718 397.230769 305.300886 397.538462 305.071769 397.846154 304.837330 398.153846 304.597530 398.461538 304.352332 398.769231 304.101708 399.076923 303.845683 399.384615 303.584292 399.692308 303.317574 400.000000 303.045562 400.307692 302.768295 400.615385 302.485807 400.923077 302.198136 401.230769 301.905317 401.538462 301.607388 401.846154 301.304383 402.153846 300.996340 402.461538 300.683294 402.769231 300.365282 403.076923 300.042341 403.384615 299.714506 403.692308 299.381813 404.000000 299.044300 404.307692 298.702002 404.615385 298.354955 404.923077 298.003196 405.230769 297.646761 405.538462 297.285687 405.846154 296.920009 406.153846 296.549763 406.461538 296.174987 406.769231 295.795716 407.076923 295.411987 407.384615 295.023836 407.692308 294.631298 408.000000 294.234412 408.307692 293.833211 408.615385 293.427734 408.923077 293.018016 409.230769 292.604093 409.538462 292.186003 409.846154 291.763780 410.153846 291.337461 410.461538 290.907083 410.769231 290.472682 411.076923 290.034293 411.384615 289.591954 411.692308 289.145701 412.000000 288.695569 412.307692 288.241596 412.615385 287.783816 412.923077 287.322268 413.230769 286.856986 413.538462 286.388008 413.846154 285.915369 414.153846 285.439105 414.461538 284.959254 414.769231 284.475851 415.076923 283.988932 415.384615 283.498534 415.692308 283.004693 416.000000 282.507445 416.307692 282.006827 416.615385 281.502874 416.923077 280.995624 417.230769 280.485112 417.538462 279.971374 417.846154 279.454448 418.153846 278.934368 418.461538 278.411172 418.769231 277.884896 419.076923 277.355575 419.384615 276.823247 419.692308 276.287947 420.000000 275.749712 420.307692 275.208577 420.615385 274.664580 420.923077 274.117757 421.230769 273.568143 421.538462 273.015775 421.846154 272.460690 422.153846 271.902923 422.461538 271.342510 422.769231 270.779489 423.076923 270.213896 423.384615 269.645766 423.692308 269.075135 424.000000 268.502041 424.307692 267.926519 424.615385 267.348606 424.923077 266.768338 425.230769 266.185751 425.538462 265.600882 425.846154 265.013766 426.153846 264.424440 426.461538 263.832941 426.769231 263.239304 427.076923 262.643566 427.384615 262.045762 427.692308 261.445930 428.000000 260.844106 428.307692 260.240326 428.615385 259.634625 428.923077 259.027041 429.230769 258.417610 429.538462 257.806367 429.846154 257.193350 430.153846 256.578594 430.461538 255.962136 430.769231 255.344011 431.076923 254.724257 431.384615 254.102910 431.692308 253.480005 432.000000 252.855579 432.307692 252.229668 432.615385 251.602309 432.923077 250.973538 433.230769 250.343391 433.538462 249.711904 433.846154 249.079113 434.153846 248.445056 434.461538 247.809767 434.769231 247.173284 435.076923 246.535643 435.384615 245.896880 435.692308 245.257030 436.000000 244.616132 436.307692 243.974219 436.615385 243.331330 436.923077 242.687500 437.230769 242.042766 437.538462 241.397163 437.846154 240.750728 438.153846 240.103498 438.461538 239.455508 438.769231 238.806795 439.076923 238.157395 439.384615 237.507345 439.692308 236.856680 440.000000 236.205437 440.307692 235.553652 440.615385 234.901361 440.923077 234.248601 441.230769 233.595408 441.538462 232.941818 441.846154 232.287868 442.153846 231.633593 442.461538 230.979031 442.769231 230.324216 443.076923 229.669186 443.384615 229.013977 443.692308 228.358625 444.000000 227.703166 444.307692 227.047637 444.615385 226.392074 444.923077 225.736513 445.230769 225.080990 445.538462 224.425541 445.846154 223.770204 446.153846 223.115014 446.461538 222.460007 446.769231 221.805220 447.076923 221.150688 447.384615 220.496449 447.692308 219.842539 448.000000 219.188993 448.307692 218.535848 448.615385 217.883141 448.923077 217.230907 449.230769 216.579183 449.538462 215.928005 449.846154 215.277409 450.153846 214.627432 450.461538 213.978109 450.769231 213.329478 451.076923 212.681574 451.384615 212.034434 451.692308 211.388094 452.000000 210.742589 452.307692 210.097958 452.615385 209.454235 452.923077 208.811457 453.230769 208.169660 453.538462 207.528880 453.846154 206.889155 454.153846 206.250519 454.461538 205.613010 454.769231 204.976663 455.076923 204.341515 455.384615 203.707603 455.692308 203.074961 456.000000 202.443627 456.307692 201.813637 456.615385 201.185027 456.923077 200.557834 457.230769 199.932093 457.538462 199.307841 457.846154 198.685115 458.153846 198.063949 458.461538 197.444382 458.769231 196.826448 459.076923 196.210185 459.384615 195.595628 459.692308 194.982814 460.000000 194.371779 460.307692 193.762560 460.615385 193.155192 460.923077 192.549711 461.230769 191.946155 461.538462 191.344559 461.846154 190.744960 462.153846 190.147394 462.461538 189.551897 462.769231 188.958505 463.076923 188.367255 463.384615 187.778183 463.692308 187.191325 464.000000 186.606718 464.307692 186.024397 464.615385 185.444399 464.923077 184.866761 465.230769 184.291518 465.538462 183.718707 465.846154 183.148364 466.153846 182.580525 466.461538 182.015227 466.769231 181.452506 467.076923 180.892398 467.384615 180.334939 467.692308 179.780166 468.000000 179.228115 468.307692 178.678822 468.615385 178.132323 468.923077 177.588655 469.230769 177.047854 469.538462 176.509957 469.846154 175.974998 470.153846 175.443016 470.461538 174.914045 470.769231 174.388123 471.076923 173.865286 471.384615 173.345569 471.692308 172.829009 472.000000 172.315643 472.307692 171.805506 472.615385 171.298635 472.923077 170.795066 473.230769 170.294836 473.538462 169.797980 473.846154 169.304536 474.153846 168.814538 474.461538 168.328024 474.769231 167.845030 475.076923 167.365591 475.384615 166.889745 475.692308 166.417519 476.000000 165.948905 476.307692 165.483888 476.615385 165.022451 476.923077 164.564580 477.230769 164.110257 477.538462 163.659468 477.846154 163.212195 478.153846 162.768423 478.461538 162.328137 478.769231 161.891320 479.076923 161.457957 479.384615 161.028030 479.692308 160.601526 480.000000 160.178427 480.307692 159.758717 480.615385 159.342382 480.923077 158.929404 481.230769 158.519768 481.538462 158.113458 481.846154 157.710458 482.153846 157.310752 482.461538 156.914325 482.769231 156.521159 483.076923 156.131241 483.384615 155.744552 483.692308 155.361078 484.000000 154.980803 484.307692 154.603710 484.615385 154.229785 484.923077 153.859009 485.230769 153.491369 485.538462 153.126848 485.846154 152.765430 486.153846 152.407099 486.461538 152.051840 486.769231 151.699635 487.076923 151.350470 487.384615 151.004328 487.692308 150.661194 488.000000 150.321052 488.307692 149.983885 488.615385 149.649678 488.923077 149.318415 489.230769 148.990080 489.538462 148.664657 489.846154 148.342129 490.153846 148.022482 490.461538 147.705699 490.769231 147.391765 491.076923 147.080663 491.384615 146.772377 491.692308 146.466892 492.000000 146.164191 492.307692 145.864260 492.615385 145.567081 492.923077 145.272638 493.230769 144.980917 493.538462 144.691901 493.846154 144.405573 494.153846 144.121919 494.461538 143.840923 494.769231 143.562567 495.076923 143.286837 495.384615 143.013716 495.692308 142.743189 496.000000 142.475240 496.307692 142.209852 496.615385 141.947010 496.923077 141.686697 497.230769 141.428899 497.538462 141.173599 497.846154 140.920781 498.153846 140.670429 498.461538 140.422527 498.769231 140.177059 499.076923 139.934010 499.384615 139.693364 499.692308 139.455104 500.000000 139.219214 500.307692 138.985679 500.615385 138.754483 500.923077 138.525610 501.230769 138.299044 501.538462 138.074769 501.846154 137.852769 502.153846 137.633028 502.461538 137.415530 502.769231 137.200260 503.076923 136.987201 503.384615 136.776337 503.692308 136.567653 504.000000 136.361133 504.307692 136.156761 504.615385 135.954520 504.923077 135.754395 505.230769 135.556370 505.538462 135.360429 505.846154 135.166556 506.153846 134.974735 506.461538 134.784951 506.769231 134.597186 507.076923 134.411427 507.384615 134.227655 507.692308 134.045857 508.000000 133.866015 508.307692 133.688113 508.615385 133.512137 508.923077 133.338069 509.230769 133.165894 509.538462 132.995596 509.846154 132.827160 510.153846 132.660568 510.461538 132.495806 510.769231 132.332857 511.076923 132.171706 511.384615 132.012336 511.692308 131.854731 512.000000 131.698877 512.307692 131.544756 512.615385 131.392352 512.923077 131.241651 513.230769 131.092635 513.538462 130.945290 513.846154 130.799599 514.153846 130.655546 514.461538 130.513115 514.769231 130.372290 515.076923 130.233056 515.384615 130.095397 515.692308 129.959295 516.000000 129.824737 516.307692 129.691705 516.615385 129.560185 516.923077 129.430159 517.230769 129.301611 517.538462 129.174527 517.846154 129.048891 518.153846 128.924685 518.461538 128.801894 518.769231 128.680503 519.076923 128.560496 519.384615 128.441855 519.692308 128.324567 520.000000 128.208614 520.307692 128.093981 520.615385 127.980651 520.923077 127.868610 521.230769 127.757840 521.538462 127.648327 521.846154 127.540053 522.153846 127.433004 522.461538 127.327163 522.769231 127.222515 523.076923 127.119042 523.384615 127.016731 523.692308 126.915564 524.000000 126.815525 524.307692 126.716599 524.615385 126.618771 524.923077 126.522023 525.230769 126.426340 525.538462 126.331706 525.846154 126.238105 526.153846 126.145521 526.461538 126.053939 526.769231 125.963342 527.076923 125.873714 527.384615 125.785040 527.692308 125.697304 528.000000 125.610489 528.307692 125.524580 528.615385 125.439560 528.923077 125.355415 529.230769 125.272128 529.538462 125.189682 529.846154 125.108063 530.153846 125.027254 530.461538 124.947239 530.769231 124.868003 531.076923 124.789529 531.384615 124.711802 531.692308 124.634805 532.000000 124.558523 532.307692 124.482939 532.615385 124.408039 532.923077 124.333805 533.230769 124.260223 533.538462 124.187275 533.846154 124.114946 534.153846 124.043221 534.461538 123.972083 534.769231 123.901517 535.076923 123.831505 535.384615 123.762034 535.692308 123.693086 536.000000 123.624645 536.307692 123.556697 536.615385 123.489224 536.923077 123.422211 537.230769 123.355642 537.538462 123.289501 537.846154 123.223772 538.153846 123.158440 538.461538 123.093488 538.769231 123.028900 539.076923 122.964661 539.384615 122.900754 539.692308 122.837163 540.000000 122.773874 540.307692 122.710869 540.615385 122.648133 540.923077 122.585650 541.230769 122.523404 541.538462 122.461379 541.846154 122.399559 542.153846 122.337929 542.461538 122.276471 542.769231 122.215171 543.076923 122.154013 543.384615 122.092980 543.692308 122.032057 544.000000 121.971227 544.307692 121.910475 544.615385 121.849785 544.923077 121.789141 545.230769 121.728527 545.538462 121.667927 545.846154 121.607325 546.153846 121.546705 546.461538 121.486052 546.769231 121.425349 547.076923 121.364580 547.384615 121.303730 547.692308 121.242783 548.000000 121.181722 548.307692 121.120532 548.615385 121.059197 548.923077 120.997701 549.230769 120.936028 549.538462 120.874162 549.846154 120.812087 550.153846 120.749787 550.461538 120.687247 550.769231 120.624450 551.076923 120.561381 551.384615 120.498023 551.692308 120.434360 552.000000 120.370378 552.307692 120.306059 552.615385 120.241390 552.923077 120.176367 553.230769 120.110987 553.538462 120.045247 553.846154 119.979146 554.153846 119.912681 554.461538 119.845849 554.769231 119.778648 555.076923 119.711077 555.384615 119.643131 555.692308 119.574809 556.000000 119.506109 556.307692 119.437029 556.615385 119.367565 556.923077 119.297715 557.230769 119.227477 557.538462 119.156850 557.846154 119.085829 558.153846 119.014413 558.461538 118.942600 558.769231 118.870386 559.076923 118.797771 559.384615 118.724750 559.692308 118.651323 560.000000 118.577486 560.307692 118.503237 560.615385 118.428574 560.923077 118.353495 561.230769 118.277996 561.538462 118.202076 561.846154 118.125732 562.153846 118.048962 562.461538 117.971763 562.769231 117.894134 563.076923 117.816071 563.384615 117.737572 563.692308 117.658635 564.000000 117.579257 564.307692 117.499437 564.615385 117.419171 564.923077 117.338458 565.230769 117.257294 565.538462 117.175678 565.846154 117.093608 566.153846 117.011080 566.461538 116.928092 566.769231 116.844642 567.076923 116.760728 567.384615 116.676347 567.692308 116.591497 568.000000 116.506175 568.307692 116.420379 568.615385 116.334107 568.923077 116.247356 569.230769 116.160124 569.538462 116.072409 569.846154 115.984207 570.153846 115.895518 570.461538 115.806337 570.769231 115.716664 571.076923 115.626495 571.384615 115.535828 571.692308 115.444661 572.000000 115.352991 572.307692 115.260816 572.615385 115.168134 572.923077 115.074942 573.230769 114.981237 573.538462 114.887019 573.846154 114.792283 574.153846 114.697028 574.461538 114.601251 574.769231 114.504950 575.076923 114.408122 575.384615 114.310766 575.692308 114.212878 576.000000 114.114456 576.307692 114.015499 576.615385 113.916003 576.923077 113.815966 577.230769 113.715386 577.538462 113.614260 577.846154 113.512586 578.153846 113.410362 578.461538 113.307585 578.769231 113.204252 579.076923 113.100363 579.384615 112.995913 579.692308 112.890901 580.000000 112.785324 580.307692 112.679180 580.615385 112.572466 580.923077 112.465181 581.230769 112.357321 581.538462 112.248884 581.846154 112.139869 582.153846 112.030272 582.461538 111.920091 582.769231 111.809323 583.076923 111.697968 583.384615 111.586021 583.692308 111.473480 584.000000 111.360344 584.307692 111.246610 584.615385 111.132275 584.923077 111.017338 585.230769 110.901794 585.538462 110.785643 585.846154 110.668882 586.153846 110.551509 586.461538 110.433520 586.769231 110.314914 587.076923 110.195689 587.384615 110.075841 587.692308 109.955369 588.000000 109.834270 588.307692 109.712542 588.615385 109.590182 588.923077 109.467189 589.230769 109.343558 589.538462 109.219289 589.846154 109.094379 590.153846 108.968825 590.461538 108.842625 590.769231 108.715777 591.076923 108.588278 591.384615 108.460126 591.692308 108.331319 592.000000 108.201853 592.307692 108.071728 592.615385 107.940939 592.923077 107.809485 593.230769 107.677364 593.538462 107.544574 593.846154 107.411110 594.153846 107.276973 594.461538 107.142158 594.769231 107.006664 595.076923 106.870488 595.384615 106.733627 595.692308 106.596081 596.000000 106.457845 596.307692 106.318918 596.615385 106.179297 596.923077 106.038980 597.230769 105.897964 597.538462 105.756248 597.846154 105.613828 598.153846 105.470703 598.461538 105.326869 598.769231 105.182325 599.076923 105.037069 599.384615 104.891097 599.692308 104.744407 600.000000 104.596997 600.307692 104.448865 600.615385 104.300008 600.923077 104.150424 601.230769 104.000110 601.538462 103.849065 601.846154 103.697284 602.153846 103.544768 602.461538 103.391512 602.769231 103.237514 603.076923 103.082773 603.384615 102.927285 603.692308 102.771049 604.000000 102.614062 604.307692 102.456321 604.615385 102.297824 604.923077 102.138569 605.230769 101.978553 605.538462 101.817775 605.846154 101.656231 606.153846 101.493919 606.461538 101.330837 606.769231 101.166982 607.076923 101.002353 607.384615 100.836946 607.692308 100.670759 608.000000 100.503790 608.307692 100.336037 608.615385 100.167497 608.923077 99.998167 609.230769 99.828046 609.538462 99.657130 609.846154 99.485419 610.153846 99.312908 610.461538 99.139596 610.769231 98.965481 611.076923 98.790559 611.384615 98.614829 611.692308 98.438288 612.000000 98.260934 612.307692 98.082765 612.615385 97.903777 612.923077 97.723970 613.230769 97.543339 613.538462 97.361883 613.846154 97.179600 614.153846 96.996487 614.461538 96.812542 614.769231 96.627761 615.076923 96.442144 615.384615 96.255688 615.692308 96.068389 616.000000 95.880246 616.307692 95.691257 616.615385 95.501419 616.923077 95.310729 617.230769 95.119185 617.538462 94.926785 617.846154 94.733527 618.153846 94.539408 618.461538 94.344425 618.769231 94.148577 619.076923 93.951860 619.384615 93.754273 619.692308 93.555813 620.000000 93.356478 620.307692 93.156265 620.615385 92.955172 620.923077 92.753196 621.230769 92.550336 621.538462 92.346588 621.846154 92.141951 622.153846 91.936422 622.461538 91.729998 622.769231 91.522678 623.076923 91.314458 623.384615 91.105337 623.692308 90.895312 624.000000 90.684380 624.307692 90.472540 624.615385 90.259788 624.923077 90.046124 625.230769 89.831543 625.538462 89.616044 625.846154 89.399624 626.153846 89.182281 626.461538 88.964013 626.769231 88.744816 627.076923 88.524690 627.384615 88.303631 627.692308 88.081637 628.000000 87.858705 628.307692 87.634834 628.615385 87.410021 628.923077 87.184263 629.230769 86.957558 629.538462 86.729904 629.846154 86.501306 630.153846 86.271765 630.461538 86.041286 630.769231 85.809874 631.076923 85.577531 631.384615 85.344261 631.692308 85.110068 632.000000 84.874957 632.307692 84.638931 632.615385 84.401993 632.923077 84.164147 633.230769 83.925398 633.538462 83.685748 633.846154 83.445203 634.153846 83.203765 634.461538 82.961439 634.769231 82.718227 635.076923 82.474135 635.384615 82.229166 635.692308 81.983323 636.000000 81.736610 636.307692 81.489032 636.615385 81.240592 636.923077 80.991293 637.230769 80.741140 637.538462 80.490137 637.846154 80.238287 638.153846 79.985593 638.461538 79.732061 638.769231 79.477693 639.076923 79.222493 639.384615 78.966466 639.692308 78.709614 640.000000 78.451942 640.307692 78.193454 640.615385 77.934153 640.923077 77.674044 641.230769 77.413129 641.538462 77.151413 641.846154 76.888899 642.153846 76.625592 642.461538 76.361495 642.769231 76.096612 643.076923 75.830947 643.384615 75.564503 643.692308 75.297285 644.000000 75.029296 644.307692 74.760539 644.615385 74.491020 644.923077 74.220740 645.230769 73.949706 645.538462 73.677919 645.846154 73.405384 646.153846 73.132105 646.461538 72.858086 646.769231 72.583329 647.076923 72.307840 647.384615 72.031622 647.692308 71.754678 648.000000 71.477013 648.307692 71.198630 648.615385 70.919534 648.923077 70.639727 649.230769 70.359214 649.538462 70.077998 649.846154 69.796084 650.153846 69.513475 650.461538 69.230174 650.769231 68.946186 651.076923 68.661515 651.384615 68.376164 651.692308 68.090137 652.000000 67.803438 652.307692 67.516071 652.615385 67.228039 652.923077 66.939346 653.230769 66.649996 653.538462 66.359994 653.846154 66.069341 654.153846 65.778044 654.461538 65.486104 654.769231 65.193527 655.076923 64.900315 655.384615 64.606473 655.692308 64.312005 656.000000 64.016913 656.307692 63.721203 656.615385 63.424877 656.923077 63.127940 657.230769 62.830396 657.538462 62.532248 657.846154 62.233500 658.153846 61.934155 658.461538 61.634218 658.769231 61.333693 659.076923 61.032583 659.384615 60.730891 659.692308 60.428623 660.000000 60.125781 660.307692 59.822370 660.615385 59.518393 660.923077 59.213853 661.230769 58.908756 661.538462 58.603104 661.846154 58.296901 662.153846 57.990152 662.461538 57.682860 662.769231 57.375028 663.076923 57.066661 663.384615 56.757762 663.692308 56.448336 664.000000 56.138385 664.307692 55.827914 664.615385 55.516927 664.923077 55.205427 665.230769 54.893418 665.538462 54.580905 665.846154 54.267890 666.153846 53.954377 666.461538 53.640371 666.769231 53.325875 667.076923 53.010893 667.384615 52.695428 667.692308 52.379485 668.000000 52.063068 668.307692 51.746179 668.615385 51.428824 668.923077 51.111005 669.230769 50.792727 669.538462 50.473993 669.846154 50.154807 670.153846 49.835173 670.461538 49.515095 670.769231 49.194576 671.076923 48.873621 671.384615 48.552232 671.692308 48.230415 672.000000 47.908172 672.307692 47.585508 672.615385 47.262426 672.923077 46.938930 673.230769 46.615024 673.538462 46.290712 673.846154 45.965997 674.153846 45.640883 674.461538 45.315375 674.769231 44.989475 675.076923 44.663188 675.384615 44.336518 675.692308 44.009467 676.000000 43.682041 676.307692 43.354243 676.615385 43.026076 676.923077 42.697545 677.230769 42.368653 677.538462 42.039404 677.846154 41.709802 678.153846 41.379850 678.461538 41.049553 678.769231 40.718915 679.076923 40.387938 679.384615 40.056627 679.692308 39.724986 680.000000 39.393018 680.307692 39.060727 680.615385 38.728117 680.923077 38.395192 681.230769 38.061956 681.538462 37.728412 681.846154 37.394565 682.153846 37.060417 682.461538 36.725973 682.769231 36.391237 683.076923 36.056212 683.384615 35.720903 683.692308 35.385312 684.000000 35.049444 684.307692 34.713303 684.615385 34.376892 684.923077 34.040216 685.230769 33.703277 685.538462 33.366080 685.846154 33.028629 686.153846 32.690927 686.461538 32.352978 686.769231 32.014786 687.076923 31.676355 687.384615 31.337689 687.692308 30.998790 688.000000 30.659664 688.307692 30.320314 688.615385 29.980744 688.923077 29.640957 689.230769 29.300958 689.538462 28.960750 689.846154 28.620336 690.153846 28.279722 690.461538 27.938910 690.769231 27.597904 691.076923 27.256708 691.384615 26.915327 691.692308 26.573763 692.000000 26.232021 692.307692 25.890103 692.615385 25.548015 692.923077 25.205760 693.230769 24.863342 693.538462 24.520764 693.846154 24.178031 694.153846 23.835145 694.461538 23.492112 694.769231 23.148934 695.076923 22.805616 695.384615 22.462161 695.692308 22.118573 696.000000 21.774856 696.307692 21.431013 696.615385 21.087049 696.923077 20.742968 697.230769 20.398772 697.538462 20.054467 697.846154 19.710055 698.153846 19.365540 698.461538 19.020927 698.769231 18.676219 699.076923 18.331419 699.384615 17.986533 699.692308 17.641563 700.000000 17.296513 700.307692 16.951387 700.615385 16.606189 700.923077 16.260922 701.230769 15.915591 701.538462 15.570200 701.846154 15.224751 702.153846 14.879249 702.461538 14.533698 702.769231 14.188101 703.076923 13.842463 703.384615 13.496786 703.692308 13.151076 704.000000 12.805334 704.307692 12.459567 704.615385 12.113776 704.923077 11.767967 705.230769 11.422142 705.538462 11.076306 705.846154 10.730463 706.153846 10.384615 706.153846 540.000000" /></g></g><g class="titles" /><g class="plot overlay" transform="translate(60, 20)"><g class="series serie-0 color-0"><g class="dots"><circle class="dot reactive tooltip-trigger" cx="13.846153846153847" cy="529.6153846153846" r="2.5" /><desc class="value">697,219,964(kWh)</desc><desc class="x top">13.846153846153847</desc><desc class="y top">529.6153846153846</desc><desc class="x_label">2549</desc></g><g class="dots"><circle class="dot reactive tooltip-trigger" cx="90.76923076923076" cy="484.8759270543077" r="2.5" /><desc class="value">738,903,218(kWh)</desc><desc class="x top">90.76923076923076</desc><desc class="y top">484.8759270543077</desc><desc class="x_label">2550</desc></g><g class="dots"><circle class="dot reactive tooltip-trigger" cx="167.69230769230765" cy="434.3213382190755" r="2.5" /><desc class="value">786,004,365(kWh)</desc><desc class="x top">167.69230769230765</desc><desc class="y top">434.3213382190755</desc><desc class="x_label">2551</desc></g><g class="dots"><circle class="dot reactive tooltip-trigger" cx="244.6153846153846" cy="383.6423119181105" r="2.5" /><desc class="value">833,221,449(kWh)</desc><desc class="x top">244.6153846153846</desc><desc class="y top">383.6423119181105</desc><desc class="x_label">2552</desc></g><g class="dots"><circle class="dot reactive tooltip-trigger" cx="321.5384615384615" cy="296.38827153637965" r="2.5" /><desc class="value">914,515,066(kWh)</desc><desc class="x top">321.5384615384615</desc><desc class="y top">296.38827153637965</desc><desc class="x_label">2553</desc></g><g class="dots"><circle class="dot reactive tooltip-trigger" cx="398.46153846153845" cy="304.35233159582435" r="2.5" /><desc class="value">907,095,040(kWh)</desc><desc class="x left top">398.46153846153845</desc><desc class="y left top">304.35233159582435</desc><desc class="x_label">2554</desc></g><g class="dots"><circle class="dot reactive tooltip-trigger" cx="475.38461538461536" cy="166.8897449425134" r="2.5" /><desc class="value">1,035,167,400(kWh)</desc><desc class="x left">475.38461538461536</desc><desc class="y left">166.8897449425134</desc><desc class="x_label">2555</desc></g><g class="dots"><circle class="dot reactive tooltip-trigger" cx="552.3076923076923" cy="120.30605903170277" r="2.5" /><desc class="value">1,078,568,901(kWh)</desc><desc class="x left">552.3076923076923</desc><desc class="y left">120.30605903170277</desc><desc class="x_label">2556</desc></g><g class="dots"><circle class="dot reactive tooltip-trigger" cx="629.2307692307692" cy="86.95755773257105" r="2.5" /><desc class="value">1,109,639,328(kWh)</desc><desc class="x left">629.2307692307692</desc><desc class="y left">86.95755773257105</desc><desc class="x_label">2557</desc></g><g class="dots"><circle class="dot reactive tooltip-trigger" cx="706.1538461538461" cy="10.384615384615472" r="2.5" /><desc class="value">1,180,981,485(kWh)</desc><desc class="x left">706.1538461538461</desc><desc class="y left">10.384615384615472</desc><desc class="x_label">2558</desc></g></g></g><g class="plot text-overlay" transform="translate(60, 20)"><g class="series serie-0 color-0" /></g><g class="plot tooltip-overlay" transform="translate(60, 20)"><g class="tooltip" style="opacity: 0" transform="translate(0 0)"><rect class="tooltip-box" height="0" rx="0" ry="0" width="0" /><g class="text" /></g></g></g></svg>