<?xml version='1.0' encoding='utf-8'?>
<svg xmlns:xlink="http://www.w3.org/1999/xlink" class="pygal-chart" id="chart-7b3ce2d9-49be-40e1-ba1e-fb00373e9a3d" viewBox="0 0 800 600" xmlns="http://www.w3.org/2000/svg"><!--Generated with pygal 2.3.0 (etree) ©Kozea 2012-2016 on 2016-12-08--><!--http://pygal.org--><!--http://github.com/Kozea/pygal--><defs><style type="text/css">#chart-7b3ce2d9-49be-40e1-ba1e-fb00373e9a3d{-webkit-user-select:none;-webkit-font-smoothing:antialiased;font-family:Consolas,"Liberation Mono",Menlo,Courier,monospace}#chart-7b3ce2d9-49be-40e1-ba1e-fb00373e9a3d .title{font-family:Consolas,"Liberation Mono",Menlo,Courier,monospace;font-size:16px}#chart-7b3ce2d9-49be-40e1-ba1e-fb00373e9a3d .legends .legend text{font-family:Consolas,"Liberation Mono",Menlo,Courier,monospace;font-size:14px}#chart-7b3ce2d9-49be-40e1-ba1e-fb00373e9a3d .axis text{font-family:Consolas,"Liberation Mono",Menlo,Courier,monospace;font-size:10px}#chart-7b3ce2d9-49be-40e1-ba1e-fb00373e9a3d .axis text.major{font-family:Consolas,"Liberation Mono",Menlo,Courier,monospace;font-size:10px}#chart-7b3ce2d9-49be-40e1-ba1e-fb00373e9a3d .text-overlay text.value{font-family:Consolas,"Liberation Mono",Menlo,Courier,monospace;font-size:16px}#chart-7b3ce2d9-49be-40e1-ba1e-fb00373e9a3d .text-overlay text.label{font-family:Consolas,"Liberation Mono",Menlo,Courier,monospace;font-size:10px}#chart-7b3ce2d9-49be-40e1-ba1e-fb00373e9a3d .tooltip{font-family:Consolas,"Liberation Mono",Menlo,Courier,monospace;font-size:14px}#chart-7b3ce2d9-49be-40e1-ba1e-fb00373e9a3d text.no_data{font-family:Consolas,"Liberation Mono",Menlo,Courier,monospace;font-size:64px}
#chart-7b3ce2d9-49be-40e1-ba1e-fb00373e9a3d{background-color:rgba(249,249,249,1)}#chart-7b3ce2d9-49be-40e1-ba1e-fb00373e9a3d path,#chart-7b3ce2d9-49be-40e1-ba1e-fb00373e9a3d line,#chart-7b3ce2d9-49be-40e1-ba1e-fb00373e9a3d rect,#chart-7b3ce2d9-49be-40e1-ba1e-fb00373e9a3d circle{-webkit-transition:150ms;-moz-transition:150ms;transition:150ms}#chart-7b3ce2d9-49be-40e1-ba1e-fb00373e9a3d .graph &gt; .background{fill:rgba(249,249,249,1)}#chart-7b3ce2d9-49be-40e1-ba1e-fb00373e9a3d .plot &gt; .background{fill:rgba(255,255,255,1)}#chart-7b3ce2d9-49be-40e1-ba1e-fb00373e9a3d .graph{fill:rgba(0,0,0,.87)}#chart-7b3ce2d9-49be-40e1-ba1e-fb00373e9a3d text.no_data{fill:rgba(0,0,0,1)}#chart-7b3ce2d9-49be-40e1-ba1e-fb00373e9a3d .title{fill:rgba(0,0,0,1)}#chart-7b3ce2d9-49be-40e1-ba1e-fb00373e9a3d .legends .legend text{fill:rgba(0,0,0,.87)}#chart-7b3ce2d9-49be-40e1-ba1e-fb00373e9a3d .legends .legend:hover text{fill:rgba(0,0,0,1)}#chart-7b3ce2d9-49be-40e1-ba1e-fb00373e9a3d .axis .line{stroke:rgba(0,0,0,1)}#chart-7b3ce2d9-49be-40e1-ba1e-fb00373e9a3d .axis .guide.line{stroke:rgba(0,0,0,.54)}#chart-7b3ce2d9-49be-40e1-ba1e-fb00373e9a3d .axis .major.line{stroke:rgba(0,0,0,.87)}#chart-7b3ce2d9-49be-40e1-ba1e-fb00373e9a3d .axis text.major{fill:rgba(0,0,0,1)}#chart-7b3ce2d9-49be-40e1-ba1e-fb00373e9a3d .axis.y .guides:hover .guide.line,#chart-7b3ce2d9-49be-40e1-ba1e-fb00373e9a3d .line-graph .axis.x .guides:hover .guide.line,#chart-7b3ce2d9-49be-40e1-ba1e-fb00373e9a3d .stackedline-graph .axis.x .guides:hover .guide.line,#chart-7b3ce2d9-49be-40e1-ba1e-fb00373e9a3d .xy-graph .axis.x .guides:hover .guide.line{stroke:rgba(0,0,0,1)}#chart-7b3ce2d9-49be-40e1-ba1e-fb00373e9a3d .axis .guides:hover text{fill:rgba(0,0,0,1)}#chart-7b3ce2d9-49be-40e1-ba1e-fb00373e9a3d .reactive{fill-opacity:.7;stroke-opacity:.8}#chart-7b3ce2d9-49be-40e1-ba1e-fb00373e9a3d .ci{stroke:rgba(0,0,0,.87)}#chart-7b3ce2d9-49be-40e1-ba1e-fb00373e9a3d .reactive.active,#chart-7b3ce2d9-49be-40e1-ba1e-fb00373e9a3d .active .reactive{fill-opacity:.8;stroke-opacity:.9;stroke-width:4}#chart-7b3ce2d9-49be-40e1-ba1e-fb00373e9a3d .ci .reactive.active{stroke-width:1.5}#chart-7b3ce2d9-49be-40e1-ba1e-fb00373e9a3d .series text{fill:rgba(0,0,0,1)}#chart-7b3ce2d9-49be-40e1-ba1e-fb00373e9a3d .tooltip rect{fill:rgba(255,255,255,1);stroke:rgba(0,0,0,1);-webkit-transition:opacity 150ms;-moz-transition:opacity 150ms;transition:opacity 150ms}#chart-7b3ce2d9-49be-40e1-ba1e-fb00373e9a3d .tooltip .label{fill:rgba(0,0,0,.87)}#chart-7b3ce2d9-49be-40e1-ba1e-fb00373e9a3d .tooltip .label{fill:rgba(0,0,0,.87)}#chart-7b3ce2d9-49be-40e1-ba1e-fb00373e9a3d .tooltip .legend{font-size:.8em;fill:rgba(0,0,0,.54)}#chart-7b3ce2d9-49be-40e1-ba1e-fb00373e9a3d .tooltip .x_label{font-size:.6em;fill:rgba(0,0,0,1)}#chart-7b3ce2d9-49be-40e1-ba1e-fb00373e9a3d .tooltip .xlink{font-size:.5em;text-decoration:underline}#chart-7b3ce2d9-49be-40e1-ba1e-fb00373e9a3d .tooltip .value{font-size:1.5em}#chart-7b3ce2d9-49be-40e1-ba1e-fb00373e9a3d .bound{font-size:.5em}#chart-7b3ce2d9-49be-40e1-ba1e-fb00373e9a3d .max-value{font-size:.75em;fill:rgba(0,0,0,.54)}#chart-7b3ce2d9-49be-40e1-ba1e-fb00373e9a3d .map-element{fill:rgba(255,255,255,1);stroke:rgba(0,0,0,.54) !important}#chart-7b3ce2d9-49be-40e1-ba1e-fb00373e9a3d .map-element .reactive{fill-opacity:inherit;stroke-opacity:inherit}#chart-7b3ce2d9-49be-40e1-ba1e-fb00373e9a3d .color-0,#chart-7b3ce2d9-49be-40e1-ba1e-fb00373e9a3d .color-0 a:visited{stroke:#e86fa0;fill:#e86fa0}#chart-7b3ce2d9-49be-40e1-ba1e-fb00373e9a3d .text-overlay .color-0 text{fill:black}
#chart-7b3ce2d9-49be-40e1-ba1e-fb00373e9a3d text.no_data{text-anchor:middle}#chart-7b3ce2d9-49be-40e1-ba1e-fb00373e9a3d .guide.line{fill:none}#chart-7b3ce2d9-49be-40e1-ba1e-fb00373e9a3d .centered{text-anchor:middle}#chart-7b3ce2d9-49be-40e1-ba1e-fb00373e9a3d .title{text-anchor:middle}#chart-7b3ce2d9-49be-40e1-ba1e-fb00373e9a3d .legends .legend text{fill-opacity:1}#chart-7b3ce2d9-49be-40e1-ba1e-fb00373e9a3d .axis.x text{text-anchor:middle}#chart-7b3ce2d9-49be-40e1-ba1e-fb00373e9a3d .axis.x:not(.web) text[transform]{text-anchor:start}#chart-7b3ce2d9-49be-40e1-ba1e-fb00373e9a3d .axis.x:not(.web) text[transform].backwards{text-anchor:end}#chart-7b3ce2d9-49be-40e1-ba1e-fb00373e9a3d .axis.y text{text-anchor:end}#chart-7b3ce2d9-49be-40e1-ba1e-fb00373e9a3d .axis.y text[transform].backwards{text-anchor:start}#chart-7b3ce2d9-49be-40e1-ba1e-fb00373e9a3d .axis.y2 text{text-anchor:start}#chart-7b3ce2d9-49be-40e1-ba1e-fb00373e9a3d .axis.y2 text[transform].backwards{text-anchor:end}#chart-7b3ce2d9-49be-40e1-ba1e-fb00373e9a3d .axis .guide.line{stroke-dasharray:4,4}#chart-7b3ce2d9-49be-40e1-ba1e-fb00373e9a3d .axis .major.guide.line{stroke-dasharray:6,6}#chart-7b3ce2d9-49be-40e1-ba1e-fb00373e9a3d .horizontal .axis.y .guide.line,#chart-7b3ce2d9-49be-40e1-ba1e-fb00373e9a3d .horizontal .axis.y2 .guide.line,#chart-7b3ce2d9-49be-40e1-ba1e-fb00373e9a3d .vertical .axis.x .guide.line{opacity:0}#chart-7b3ce2d9-49be-40e1-ba1e-fb00373e9a3d .horizontal .axis.always_show .guide.line,#chart-7b3ce2d9-49be-40e1-ba1e-fb00373e9a3d .vertical .axis.always_show .guide.line{opacity:1 !important}#chart-7b3ce2d9-49be-40e1-ba1e-fb00373e9a3d .axis.y .guides:hover .guide.line,#chart-7b3ce2d9-49be-40e1-ba1e-fb00373e9a3d .axis.y2 .guides:hover .guide.line,#chart-7b3ce2d9-49be-40e1-ba1e-fb00373e9a3d .axis.x .guides:hover .guide.line{opacity:1}#chart-7b3ce2d9-49be-40e1-ba1e-fb00373e9a3d .axis .guides:hover text{opacity:1}#chart-7b3ce2d9-49be-40e1-ba1e-fb00373e9a3d .nofill{fill:none}#chart-7b3ce2d9-49be-40e1-ba1e-fb00373e9a3d .subtle-fill{fill-opacity:.2}#chart-7b3ce2d9-49be-40e1-ba1e-fb00373e9a3d .dot{stroke-width:1px;fill-opacity:1}#chart-7b3ce2d9-49be-40e1-ba1e-fb00373e9a3d .dot.active{stroke-width:5px}#chart-7b3ce2d9-49be-40e1-ba1e-fb00373e9a3d .dot.negative{fill:transparent}#chart-7b3ce2d9-49be-40e1-ba1e-fb00373e9a3d text,#chart-7b3ce2d9-49be-40e1-ba1e-fb00373e9a3d tspan{stroke:none !important}#chart-7b3ce2d9-49be-40e1-ba1e-fb00373e9a3d .series text.active{opacity:1}#chart-7b3ce2d9-49be-40e1-ba1e-fb00373e9a3d .tooltip rect{fill-opacity:.95;stroke-width:.5}#chart-7b3ce2d9-49be-40e1-ba1e-fb00373e9a3d .tooltip text{fill-opacity:1}#chart-7b3ce2d9-49be-40e1-ba1e-fb00373e9a3d .showable{visibility:hidden}#chart-7b3ce2d9-49be-40e1-ba1e-fb00373e9a3d .showable.shown{visibility:visible}#chart-7b3ce2d9-49be-40e1-ba1e-fb00373e9a3d .gauge-background{fill:rgba(229,229,229,1);stroke:none}#chart-7b3ce2d9-49be-40e1-ba1e-fb00373e9a3d .bg-lines{stroke:rgba(249,249,249,1);stroke-width:2px}</style><script type="text/javascript">window.pygal = window.pygal || {};window.pygal.config = window.pygal.config || {};window.pygal.config['7b3ce2d9-49be-40e1-ba1e-fb00373e9a3d'] = {"no_data_text": "No data", "no_prefix": false, "xrange": null, "print_values_position": "center", "truncate_label": null, "x_labels": ["2549", "2550", "2551", "2552", "2553", "2554", "2555", "2556", "2557", "2558"], "title": null, "force_uri_protocol": "https", "defs": [], "formatter": null, "classes": ["pygal-chart"], "y_labels": null, "rounded_bars": null, "explicit_size": false, "x_labels_major_every": null, "legend_at_bottom_columns": null, "stroke_style": null, "half_pie": false, "spacing": 10, "tooltip_fancy_mode": true, "inverse_y_axis": false, "width": 800, "inner_radius": 0, "interpolation_parameters": {}, "tooltip_border_radius": 0, "style": {"no_data_font_family": "Consolas, \"Liberation Mono\", Menlo, Courier, monospace", "tooltip_font_size": 14, "tooltip_font_family": "Consolas, \"Liberation Mono\", Menlo, Courier, monospace", "stroke_opacity_hover": ".9", "legend_font_family": "Consolas, \"Liberation Mono\", Menlo, Courier, monospace", "font_family": "Consolas, \"Liberation Mono\", Menlo, Courier, monospace", "title_font_family": "Consolas, \"Liberation Mono\", Menlo, Courier, monospace", "background": "rgba(249, 249, 249, 1)", "stroke_opacity": ".8", "foreground": "rgba(0, 0, 0, .87)", "value_background": "rgba(229, 229, 229, 1)", "guide_stroke_dasharray": "4,4", "foreground_subtle": "rgba(0, 0, 0, .54)", "opacity_hover": ".8", "value_font_family": "Consolas, \"Liberation Mono\", Menlo, Courier, monospace", "value_label_font_size": 10, "plot_background": "rgba(255, 255, 255, 1)", "ci_colors": [], "label_font_size": 10, "major_label_font_size": 10, "title_font_size": 16, "no_data_font_size": 64, "value_font_size": 16, "value_colors": [], "label_font_family": "Consolas, \"Liberation Mono\", Menlo, Courier, monospace", "major_guide_stroke_dasharray": "6,6", "transition": "150ms", "foreground_strong": "rgba(0, 0, 0, 1)", "colors": ["#e86fa0", "#e88f6f", "#e8df6f", "#a0e86f", "#6fe88f", "#6fe8df", "#6fa0e8", "#8f6fe8", "#df6fe8", "#e86fa0"], "opacity": ".7", "legend_font_size": 14, "value_label_font_family": "Consolas, \"Liberation Mono\", Menlo, Courier, monospace", "major_label_font_family": "Consolas, \"Liberation Mono\", Menlo, Courier, monospace"}, "x_labels_major_count": null, "interpolation_precision": 250, "missing_value_fill_truncation": "x", "stack_from_top": false, "truncate_legend": null, "show_minor_x_labels": true, "print_zeroes": true, "css": ["file://style.css", "file://graph.css"], "y_label_rotation": 0, "legend_at_bottom": false, "print_values": false, "margin_top": null, "max_scale": 16, "allow_interruptions": false, "show_x_labels": true, "strict": false, "show_x_guides": false, "stroke": true, "margin_left": null, "dynamic_print_values": false, "print_labels": false, "show_y_labels": true, "x_labels_major": null, "range": null, "x_label_rotation": 0, "margin": 20, "zero": 0, "include_x_axis": false, "height": 600, "show_minor_y_labels": true, "show_dots": true, "interpolate": "cubic", "show_y_guides": true, "y_labels_major": null, "box_mode": "extremes", "margin_bottom": null, "order_min": null, "legend_box_size": 12, "fill": true, "show_only_major_dots": false, "js": ["//kozea.github.io/pygal.js/2.0.x/pygal-tooltips.min.js"], "x_title": null, "y_labels_major_every": null, "y_labels_major_count": null, "disable_xml_declaration": false, "y_title": null, "logarithmic": false, "pretty_print": false, "min_scale": 4, "dots_size": 2.5, "margin_right": null, "legends": [null], "secondary_range": null, "show_legend": false}</script><script type="text/javascript" xlink:href="https://kozea.github.io/pygal.js/2.0.x/pygal-tooltips.min.js" /></defs><title>Pygal</title><g class="graph stackedline-graph vertical"><rect class="background" height="600" width="800" x="0" y="0" /><g class="plot" transform="translate(60, 20)"><rect class="background" height="540" width="720.0" x="0" y="0" /><g class="axis y"><path class="line" d="M0.000000 540.000000 h720.000000" /><g class="guides"><path class="guide line" d="M0.000000 529.065717 h720.000000" /><text class="" x="-5" y="532.5657174377898">1200M</text><title>1200M</title></g><g class="guides"><path class="guide line" d="M0.000000 486.933262 h720.000000" /><text class="" x="-5" y="490.4332618899297">1300M</text><title>1300M</title></g><g class="guides"><path class="guide line" d="M0.000000 444.800806 h720.000000" /><text class="" x="-5" y="448.3008063420697">1400M</text><title>1400M</title></g><g class="guides"><path class="major guide line" d="M0.000000 402.668351 h720.000000" /><text class="major" x="-5" y="406.1683507942097">1500M</text><title>1500M</title></g><g class="guides"><path class="guide line" d="M0.000000 360.535895 h720.000000" /><text class="" x="-5" y="364.0358952463496">1600M</text><title>1600M</title></g><g class="guides"><path class="guide line" d="M0.000000 318.403440 h720.000000" /><text class="" x="-5" y="321.9034396984896">1700M</text><title>1700M</title></g><g class="guides"><path class="guide line" d="M0.000000 276.270984 h720.000000" /><text class="" x="-5" y="279.77098415062954">1800M</text><title>1800M</title></g><g class="guides"><path class="guide line" d="M0.000000 234.138529 h720.000000" /><text class="" x="-5" y="237.63852860276955">1900M</text><title>1900M</title></g><g class="guides"><path class="major guide line" d="M0.000000 192.006073 h720.000000" /><text class="major" x="-5" y="195.5060730549095">2000M</text><title>2000M</title></g><g class="guides"><path class="guide line" d="M0.000000 149.873618 h720.000000" /><text class="" x="-5" y="153.37361750704946">2100M</text><title>2100M</title></g><g class="guides"><path class="guide line" d="M0.000000 107.741162 h720.000000" /><text class="" x="-5" y="111.24116195918936">2200M</text><title>2200M</title></g><g class="guides"><path class="guide line" d="M0.000000 65.608706 h720.000000" /><text class="" x="-5" y="69.10870641132936">2300M</text><title>2300M</title></g><g class="guides"><path class="guide line" d="M0.000000 23.476251 h720.000000" /><text class="" x="-5" y="26.976250863469318">2400M</text><title>2400M</title></g></g><g class="axis x"><g class="guides"><path class="line" d="M13.846154 0.000000 v540.000000" /><text class="" x="13.846153846153847" y="555.0">2549</text></g><g class="guides"><path class="guide line" d="M90.769231 0.000000 v540.000000" /><text class="" x="90.76923076923076" y="555.0">2550</text></g><g class="guides"><path class="guide line" d="M167.692308 0.000000 v540.000000" /><text class="" x="167.69230769230765" y="555.0">2551</text></g><g class="guides"><path class="guide line" d="M244.615385 0.000000 v540.000000" /><text class="" x="244.6153846153846" y="555.0">2552</text></g><g class="guides"><path class="guide line" d="M321.538462 0.000000 v540.000000" /><text class="" x="321.5384615384615" y="555.0">2553</text></g><g class="guides"><path class="guide line" d="M398.461538 0.000000 v540.000000" /><text class="" x="398.46153846153845" y="555.0">2554</text></g><g class="guides"><path class="guide line" d="M475.384615 0.000000 v540.000000" /><text class="" x="475.38461538461536" y="555.0">2555</text></g><g class="guides"><path class="guide line" d="M552.307692 0.000000 v540.000000" /><text class="" x="552.3076923076923" y="555.0">2556</text></g><g class="guides"><path class="guide line" d="M629.230769 0.000000 v540.000000" /><text class="" x="629.2307692307692" y="555.0">2557</text></g><g class="guides"><path class="guide line" d="M706.153846 0.000000 v540.000000" /><text class="" x="706.1538461538461" y="555.0">2558</text></g></g><g class="series serie-0 color-0"><path class="line reactive" d="M13.846154 540.000000 L13.846154 529.615385 14.153846 529.219218 14.461538 528.823054 14.769231 528.426895 15.076923 528.030745 15.384615 527.634606 15.692308 527.238482 16.000000 526.842374 16.307692 526.446286 16.615385 526.050221 16.923077 525.654181 17.230769 525.258170 17.538462 524.862189 17.846154 524.466243 18.153846 524.070333 18.461538 523.674463 18.769231 523.278635 19.076923 522.882852 19.384615 522.487118 19.692308 522.091434 20.000000 521.695804 20.307692 521.300231 20.615385 520.904717 20.923077 520.509265 21.230769 520.113878 21.538462 519.718559 21.846154 519.323310 22.153846 518.928136 22.461538 518.533037 22.769231 518.138017 23.076923 517.743080 23.384615 517.348227 23.692308 516.953462 24.000000 516.558787 24.307692 516.164206 24.615385 515.769721 24.923077 515.375334 25.230769 514.981050 25.538462 514.586870 25.846154 514.192797 26.153846 513.798835 26.461538 513.404985 26.769231 513.011252 27.076923 512.617637 27.384615 512.224144 27.692308 511.830775 28.000000 511.437533 28.307692 511.044422 28.615385 510.651443 28.923077 510.258600 29.230769 509.865895 29.538462 509.473332 29.846154 509.080912 30.153846 508.688640 30.461538 508.296518 30.769231 507.904548 31.076923 507.512733 31.384615 507.121077 31.692308 506.729582 32.000000 506.338251 32.307692 505.947087 32.615385 505.556092 32.923077 505.165270 33.230769 504.774623 33.538462 504.384154 33.846154 503.993866 34.153846 503.603761 34.461538 503.213843 34.769231 502.824115 35.076923 502.434578 35.384615 502.045237 35.692308 501.656094 36.000000 501.267151 36.307692 500.878411 36.615385 500.489878 36.923077 500.101555 37.230769 499.713443 37.538462 499.325546 37.846154 498.937866 38.153846 498.550407 38.461538 498.163172 38.769231 497.776162 39.076923 497.389381 39.384615 497.002833 39.692308 496.616518 40.000000 496.230441 40.307692 495.844605 40.615385 495.459011 40.923077 495.073663 41.230769 494.688564 41.538462 494.303717 41.846154 493.919124 42.153846 493.534788 42.461538 493.150712 42.769231 492.766899 43.076923 492.383352 43.384615 492.000073 43.692308 491.617066 44.000000 491.234333 44.307692 490.851876 44.615385 490.469700 44.923077 490.087806 45.230769 489.706197 45.538462 489.324877 45.846154 488.943848 46.153846 488.563113 46.461538 488.182675 46.769231 487.802536 47.076923 487.422700 47.384615 487.043169 47.692308 486.663946 48.000000 486.285034 48.307692 485.906435 48.615385 485.528154 48.923077 485.150191 49.230769 484.772551 49.538462 484.395236 49.846154 484.018249 50.153846 483.641592 50.461538 483.265269 50.769231 482.889282 51.076923 482.513634 51.384615 482.138329 51.692308 481.763368 52.000000 481.388755 52.307692 481.014492 52.615385 480.640583 52.923077 480.267029 53.230769 479.893835 53.538462 479.521002 53.846154 479.148534 54.153846 478.776434 54.461538 478.404703 54.769231 478.033346 55.076923 477.662365 55.384615 477.291762 55.692308 476.921541 56.000000 476.551705 56.307692 476.182255 56.615385 475.813196 56.923077 475.444529 57.230769 475.076258 57.538462 474.708386 57.846154 474.340915 58.153846 473.973848 58.461538 473.607188 58.769231 473.240938 59.076923 472.875101 59.384615 472.509679 59.692308 472.144676 60.000000 471.780093 60.307692 471.415935 60.615385 471.052203 60.923077 470.688901 61.230769 470.326031 61.538462 469.963597 61.846154 469.601600 62.153846 469.240045 62.461538 468.878933 62.769231 468.518268 63.076923 468.158053 63.384615 467.798289 63.692308 467.438981 64.000000 467.080130 64.307692 466.721740 64.615385 466.363814 64.923077 466.006354 65.230769 465.649363 65.538462 465.292844 65.846154 464.936800 66.153846 464.581233 66.461538 464.226148 66.769231 463.871545 67.076923 463.517429 67.384615 463.163801 67.692308 462.810665 68.000000 462.458024 68.307692 462.105881 68.615385 461.754237 68.923077 461.403097 69.230769 461.052462 69.538462 460.702337 69.846154 460.352723 70.153846 460.003623 70.461538 459.655041 70.769231 459.306978 71.076923 458.959439 71.384615 458.612425 71.692308 458.265940 72.000000 457.919986 72.307692 457.574566 72.615385 457.229683 72.923077 456.885340 73.230769 456.541540 73.538462 456.198285 73.846154 455.855579 74.153846 455.513423 74.461538 455.171822 74.769231 454.830777 75.076923 454.490293 75.384615 454.150370 75.692308 453.811013 76.000000 453.472224 76.307692 453.134005 76.615385 452.796361 76.923077 452.459293 77.230769 452.122805 77.538462 451.786898 77.846154 451.451577 78.153846 451.116844 78.461538 450.782701 78.769231 450.449152 79.076923 450.116200 79.384615 449.783846 79.692308 449.452094 80.000000 449.120948 80.307692 448.790409 80.615385 448.460480 80.923077 448.131165 81.230769 447.802466 81.538462 447.474386 81.846154 447.146928 82.153846 446.820094 82.461538 446.493888 82.769231 446.168312 83.076923 445.843369 83.384615 445.519062 83.692308 445.195394 84.000000 444.872368 84.307692 444.549985 84.615385 444.228251 84.923077 443.907166 85.230769 443.586734 85.538462 443.266958 85.846154 442.947840 86.153846 442.629383 86.461538 442.311591 86.769231 441.994466 87.076923 441.678011 87.384615 441.362228 87.692308 441.047121 88.000000 440.732692 88.307692 440.418945 88.615385 440.105881 88.923077 439.793504 89.230769 439.481817 89.538462 439.170822 89.846154 438.860523 90.153846 438.550922 90.461538 438.242021 90.769231 437.933824 91.076923 437.626334 91.384615 437.319549 91.692308 437.013471 92.000000 436.708097 92.307692 436.403428 92.615385 436.099464 92.923077 435.796203 93.230769 435.493646 93.538462 435.191792 93.846154 434.890641 94.153846 434.590191 94.461538 434.290444 94.769231 433.991397 95.076923 433.693051 95.384615 433.395406 95.692308 433.098460 96.000000 432.802214 96.307692 432.506667 96.615385 432.211818 96.923077 431.917667 97.230769 431.624214 97.538462 431.331458 97.846154 431.039399 98.153846 430.748036 98.461538 430.457369 98.769231 430.167398 99.076923 429.878121 99.384615 429.589538 99.692308 429.301650 100.000000 429.014456 100.307692 428.727954 100.615385 428.442145 100.923077 428.157028 101.230769 427.872604 101.538462 427.588870 101.846154 427.305827 102.153846 427.023475 102.461538 426.741813 102.769231 426.460840 103.076923 426.180557 103.384615 425.900962 103.692308 425.622055 104.000000 425.343836 104.307692 425.066304 104.615385 424.789460 104.923077 424.513301 105.230769 424.237829 105.538462 423.963042 105.846154 423.688940 106.153846 423.415522 106.461538 423.142789 106.769231 422.870740 107.076923 422.599374 107.384615 422.328690 107.692308 422.058689 108.000000 421.789370 108.307692 421.520733 108.615385 421.252776 108.923077 420.985500 109.230769 420.718904 109.538462 420.452988 109.846154 420.187751 110.153846 419.923192 110.461538 419.659312 110.769231 419.396110 111.076923 419.133586 111.384615 418.871738 111.692308 418.610567 112.000000 418.350072 112.307692 418.090253 112.615385 417.831108 112.923077 417.572639 113.230769 417.314844 113.538462 417.057722 113.846154 416.801274 114.153846 416.545499 114.461538 416.290397 114.769231 416.035966 115.076923 415.782208 115.384615 415.529120 115.692308 415.276703 116.000000 415.024956 116.307692 414.773879 116.615385 414.523471 116.923077 414.273733 117.230769 414.024662 117.538462 413.776260 117.846154 413.528526 118.153846 413.281458 118.461538 413.035057 118.769231 412.789322 119.076923 412.544253 119.384615 412.299850 119.692308 412.056111 120.000000 411.813037 120.307692 411.570626 120.615385 411.328879 120.923077 411.087796 121.230769 410.847375 121.538462 410.607616 121.846154 410.368518 122.153846 410.130082 122.461538 409.892307 122.769231 409.655192 123.076923 409.418738 123.384615 409.182942 123.692308 408.947806 124.000000 408.713328 124.307692 408.479509 124.615385 408.246347 124.923077 408.013842 125.230769 407.781994 125.538462 407.550803 125.846154 407.320267 126.153846 407.090387 126.461538 406.861162 126.769231 406.632591 127.076923 406.404675 127.384615 406.177412 127.692308 405.950802 128.000000 405.724845 128.307692 405.499541 128.615385 405.274888 128.923077 405.050887 129.230769 404.827536 129.538462 404.604836 129.846154 404.382787 130.153846 404.161386 130.461538 403.940635 130.769231 403.720533 131.076923 403.501079 131.384615 403.282273 131.692308 403.064114 132.000000 402.846602 132.307692 402.629737 132.615385 402.413517 132.923077 402.197943 133.230769 401.983015 133.538462 401.768731 133.846154 401.555091 134.153846 401.342095 134.461538 401.129742 134.769231 400.918032 135.076923 400.706965 135.384615 400.496540 135.692308 400.286756 136.000000 400.077613 136.307692 399.869111 136.615385 399.661249 136.923077 399.454027 137.230769 399.247444 137.538462 399.041500 137.846154 398.836194 138.153846 398.631527 138.461538 398.427497 138.769231 398.224104 139.076923 398.021347 139.384615 397.819227 139.692308 397.617742 140.000000 397.416893 140.307692 397.216678 140.615385 397.017098 140.923077 396.818152 141.230769 396.619839 141.538462 396.422159 141.846154 396.225112 142.153846 396.028697 142.461538 395.832913 142.769231 395.637761 143.076923 395.443239 143.384615 395.249348 143.692308 395.056087 144.000000 394.863455 144.307692 394.671452 144.615385 394.480078 144.923077 394.289332 145.230769 394.099213 145.538462 393.909722 145.846154 393.720857 146.153846 393.532619 146.461538 393.345006 146.769231 393.158019 147.076923 392.971657 147.384615 392.785919 147.692308 392.600805 148.000000 392.416315 148.307692 392.232448 148.615385 392.049204 148.923077 391.866582 149.230769 391.684582 149.538462 391.503203 149.846154 391.322445 150.153846 391.142307 150.461538 390.962790 150.769231 390.783892 151.076923 390.605613 151.384615 390.427953 151.692308 390.250911 152.000000 390.074487 152.307692 389.898680 152.615385 389.723490 152.923077 389.548916 153.230769 389.374959 153.538462 389.201616 153.846154 389.028889 154.153846 388.856777 154.461538 388.685279 154.769231 388.514394 155.076923 388.344123 155.384615 388.174465 155.692308 388.005419 156.000000 387.836984 156.307692 387.669162 156.615385 387.501950 156.923077 387.335349 157.230769 387.169358 157.538462 387.003977 157.846154 386.839205 158.153846 386.675042 158.461538 386.511487 158.769231 386.348540 159.076923 386.186201 159.384615 386.024468 159.692308 385.863342 160.000000 385.702823 160.307692 385.542908 160.615385 385.383600 160.923077 385.224895 161.230769 385.066795 161.538462 384.909299 161.846154 384.752407 162.153846 384.596117 162.461538 384.440430 162.769231 384.285345 163.076923 384.130861 163.384615 383.976979 163.692308 383.823697 164.000000 383.671016 164.307692 383.518934 164.615385 383.367452 164.923077 383.216569 165.230769 383.066284 165.538462 382.916597 165.846154 382.767508 166.153846 382.619016 166.461538 382.471121 166.769231 382.323822 167.076923 382.177118 167.384615 382.031010 167.692308 381.885497 168.000000 381.740577 168.307692 381.596244 168.615385 381.452490 168.923077 381.309308 169.230769 381.166689 169.538462 381.024627 169.846154 380.883113 170.153846 380.742140 170.461538 380.601701 170.769231 380.461787 171.076923 380.322391 171.384615 380.183505 171.692308 380.045123 172.000000 379.907235 172.307692 379.769835 172.615385 379.632914 172.923077 379.496466 173.230769 379.360482 173.538462 379.224955 173.846154 379.089878 174.153846 378.955242 174.461538 378.821040 174.769231 378.687264 175.076923 378.553907 175.384615 378.420961 175.692308 378.288418 176.000000 378.156272 176.307692 378.024513 176.615385 377.893134 176.923077 377.762129 177.230769 377.631489 177.538462 377.501206 177.846154 377.371273 178.153846 377.241682 178.461538 377.112426 178.769231 376.983497 179.076923 376.854888 179.384615 376.726590 179.692308 376.598596 180.000000 376.470898 180.307692 376.343489 180.615385 376.216362 180.923077 376.089507 181.230769 375.962919 181.538462 375.836589 181.846154 375.710509 182.153846 375.584673 182.461538 375.459071 182.769231 375.333697 183.076923 375.208543 183.384615 375.083602 183.692308 374.958865 184.000000 374.834325 184.307692 374.709975 184.615385 374.585807 184.923077 374.461812 185.230769 374.337984 185.538462 374.214315 185.846154 374.090797 186.153846 373.967423 186.461538 373.844185 186.769231 373.721075 187.076923 373.598085 187.384615 373.475209 187.692308 373.352438 188.000000 373.229764 188.307692 373.107181 188.615385 372.984680 188.923077 372.862254 189.230769 372.739895 189.538462 372.617596 189.846154 372.495348 190.153846 372.373145 190.461538 372.250978 190.769231 372.128841 191.076923 372.006724 191.384615 371.884621 191.692308 371.762525 192.000000 371.640426 192.307692 371.518318 192.615385 371.396194 192.923077 371.274045 193.230769 371.151863 193.538462 371.029642 193.846154 370.907373 194.153846 370.785050 194.461538 370.662663 194.769231 370.540206 195.076923 370.417671 195.384615 370.295050 195.692308 370.172336 196.000000 370.049521 196.307692 369.926598 196.615385 369.803558 196.923077 369.680394 197.230769 369.557099 197.538462 369.433664 197.846154 369.310083 198.153846 369.186347 198.461538 369.062449 198.769231 368.938382 199.076923 368.814137 199.384615 368.689707 199.692308 368.565084 200.000000 368.440261 200.307692 368.315230 200.615385 368.189983 200.923077 368.064513 201.230769 367.938813 201.538462 367.812874 201.846154 367.686688 202.153846 367.560249 202.461538 367.433548 202.769231 367.306579 203.076923 367.179332 203.384615 367.051801 203.692308 366.923978 204.000000 366.795856 204.307692 366.667426 204.615385 366.538681 204.923077 366.409614 205.230769 366.280216 205.538462 366.150481 205.846154 366.020400 206.153846 365.889966 206.461538 365.759171 206.769231 365.628007 207.076923 365.496468 207.384615 365.364545 207.692308 365.232230 208.000000 365.099517 208.307692 364.966397 208.615385 364.832862 208.923077 364.698906 209.230769 364.564520 209.538462 364.429697 209.846154 364.294429 210.153846 364.158709 210.461538 364.022528 210.769231 363.885880 211.076923 363.748756 211.384615 363.611149 211.692308 363.473051 212.000000 363.334455 212.307692 363.195353 212.615385 363.055738 212.923077 362.915601 213.230769 362.774935 213.538462 362.633733 213.846154 362.491987 214.153846 362.349688 214.461538 362.206830 214.769231 362.063405 215.076923 361.919406 215.384615 361.774824 215.692308 361.629652 216.000000 361.483882 216.307692 361.337507 216.615385 361.190518 216.923077 361.042910 217.230769 360.894673 217.538462 360.745800 217.846154 360.596283 218.153846 360.446116 218.461538 360.295289 218.769231 360.143796 219.076923 359.991629 219.384615 359.838780 219.692308 359.685242 220.000000 359.531007 220.307692 359.376067 220.615385 359.220415 220.923077 359.064043 221.230769 358.906943 221.538462 358.749108 221.846154 358.590530 222.153846 358.431202 222.461538 358.271115 222.769231 358.110263 223.076923 357.948637 223.384615 357.786230 223.692308 357.623034 224.000000 357.459042 224.307692 357.294246 224.615385 357.128639 224.923077 356.962212 225.230769 356.794958 225.538462 356.626869 225.846154 356.457938 226.153846 356.288158 226.461538 356.117519 226.769231 355.946016 227.076923 355.773640 227.384615 355.600383 227.692308 355.426239 228.000000 355.251198 228.307692 355.075255 228.615385 354.898400 228.923077 354.720627 229.230769 354.541927 229.538462 354.362293 229.846154 354.181718 230.153846 354.000194 230.461538 353.817713 230.769231 353.634267 231.076923 353.449849 231.384615 353.264451 231.692308 353.078066 232.000000 352.890686 232.307692 352.702303 232.615385 352.512910 232.923077 352.322499 233.230769 352.131062 233.538462 351.938592 233.846154 351.745081 234.153846 351.550522 234.461538 351.354906 234.769231 351.158226 235.076923 350.960475 235.384615 350.761645 235.692308 350.561728 236.000000 350.360717 236.307692 350.158603 236.615385 349.955380 236.923077 349.751040 237.230769 349.545574 237.538462 349.338976 237.846154 349.131238 238.153846 348.922352 238.461538 348.712310 238.769231 348.501105 239.076923 348.288729 239.384615 348.075175 239.692308 347.860435 240.000000 347.644501 240.307692 347.427365 240.615385 347.209021 240.923077 346.989460 241.230769 346.768674 241.538462 346.546657 241.846154 346.323399 242.153846 346.098895 242.461538 345.873136 242.769231 345.646114 243.076923 345.417822 243.384615 345.188253 243.692308 344.957397 244.000000 344.725249 244.307692 344.491800 244.615385 344.257043 244.923077 344.020972 245.230769 343.783597 245.538462 343.544927 245.846154 343.304974 246.153846 343.063749 246.461538 342.821261 246.769231 342.577524 247.076923 342.332546 247.384615 342.086339 247.692308 341.838914 248.000000 341.590283 248.307692 341.340454 248.615385 341.089441 248.923077 340.837252 249.230769 340.583901 249.538462 340.329396 249.846154 340.073750 250.153846 339.816972 250.461538 339.559075 250.769231 339.300068 251.076923 339.039963 251.384615 338.778770 251.692308 338.516501 252.000000 338.253166 252.307692 337.988776 252.615385 337.723343 252.923077 337.456876 253.230769 337.189387 253.538462 336.920887 253.846154 336.651387 254.153846 336.380897 254.461538 336.109428 254.769231 335.836992 255.076923 335.563599 255.384615 335.289260 255.692308 335.013985 256.000000 334.737787 256.307692 334.460675 256.615385 334.182661 256.923077 333.903755 257.230769 333.623969 257.538462 333.343313 257.846154 333.061798 258.153846 332.779434 258.461538 332.496234 258.769231 332.212208 259.076923 331.927366 259.384615 331.641719 259.692308 331.355280 260.000000 331.068057 260.307692 330.780062 260.615385 330.491307 260.923077 330.201802 261.230769 329.911557 261.538462 329.620584 261.846154 329.328894 262.153846 329.036497 262.461538 328.743404 262.769231 328.449627 263.076923 328.155176 263.384615 327.860061 263.692308 327.564295 264.000000 327.267888 264.307692 326.970850 264.615385 326.673193 264.923077 326.374927 265.230769 326.076063 265.538462 325.776613 265.846154 325.476587 266.153846 325.175995 266.461538 324.874850 266.769231 324.573161 267.076923 324.270940 267.384615 323.968197 267.692308 323.664944 268.000000 323.361191 268.307692 323.056949 268.615385 322.752230 268.923077 322.447043 269.230769 322.141400 269.538462 321.835311 269.846154 321.528789 270.153846 321.221842 270.461538 320.914483 270.769231 320.606723 271.076923 320.298571 271.384615 319.990039 271.692308 319.681138 272.000000 319.371879 272.307692 319.062273 272.615385 318.752330 272.923077 318.442062 273.230769 318.131478 273.538462 317.820591 273.846154 317.509411 274.153846 317.197949 274.461538 316.886216 274.769231 316.574223 275.076923 316.261980 275.384615 315.949498 275.692308 315.636789 276.000000 315.323864 276.307692 315.010732 276.615385 314.697405 276.923077 314.383895 277.230769 314.070211 277.538462 313.756364 277.846154 313.442367 278.153846 313.128228 278.461538 312.813960 278.769231 312.499574 279.076923 312.185079 279.384615 311.870487 279.692308 311.555809 280.000000 311.241056 280.307692 310.926239 280.615385 310.611368 280.923077 310.296454 281.230769 309.981509 281.538462 309.666542 281.846154 309.351566 282.153846 309.036591 282.461538 308.721628 282.769231 308.406687 283.076923 308.091780 283.384615 307.776917 283.692308 307.462110 284.000000 307.147368 284.307692 306.832704 284.615385 306.518128 284.923077 306.203651 285.230769 305.889284 285.538462 305.575037 285.846154 305.260922 286.153846 304.946949 286.461538 304.633130 286.769231 304.319474 287.076923 304.005994 287.384615 303.692700 287.692308 303.379602 288.000000 303.066713 288.307692 302.754041 288.615385 302.441600 288.923077 302.129398 289.230769 301.817448 289.538462 301.505760 289.846154 301.194346 290.153846 300.883215 290.461538 300.572378 290.769231 300.261848 291.076923 299.951634 291.384615 299.641747 291.692308 299.332199 292.000000 299.023000 292.307692 298.714161 292.615385 298.405693 292.923077 298.097607 293.230769 297.789914 293.538462 297.482624 293.846154 297.175749 294.153846 296.869299 294.461538 296.563286 294.769231 296.257719 295.076923 295.952611 295.384615 295.647972 295.692308 295.343812 296.000000 295.040143 296.307692 294.736976 296.615385 294.434321 296.923077 294.132189 297.230769 293.830592 297.538462 293.529540 297.846154 293.229044 298.153846 292.929115 298.461538 292.629763 298.769231 292.331000 299.076923 292.032837 299.384615 291.735284 299.692308 291.438352 300.000000 291.142053 300.307692 290.846397 300.615385 290.551394 300.923077 290.257057 301.230769 289.963395 301.538462 289.670420 301.846154 289.378142 302.153846 289.086573 302.461538 288.795723 302.769231 288.505603 303.076923 288.216224 303.384615 287.927597 303.692308 287.639733 304.000000 287.352642 304.307692 287.066336 304.615385 286.780826 304.923077 286.496121 305.230769 286.212234 305.538462 285.929175 305.846154 285.646955 306.153846 285.365585 306.461538 285.085076 306.769231 284.805438 307.076923 284.526683 307.384615 284.248822 307.692308 283.971864 308.000000 283.695822 308.307692 283.420705 308.615385 283.146526 308.923077 282.873295 309.230769 282.601022 309.538462 282.329719 309.846154 282.059396 310.153846 281.790064 310.461538 281.521735 310.769231 281.254419 311.076923 280.988127 311.384615 280.722870 311.692308 280.458659 312.000000 280.195504 312.307692 279.933417 312.615385 279.672408 312.923077 279.412489 313.230769 279.153669 313.538462 278.895961 313.846154 278.639375 314.153846 278.383922 314.461538 278.129612 314.769231 277.876457 315.076923 277.624467 315.384615 277.373654 315.692308 277.124028 316.000000 276.875600 316.307692 276.628382 316.615385 276.382383 316.923077 276.137615 317.230769 275.894089 317.538462 275.651815 317.846154 275.410805 318.153846 275.171069 318.461538 274.932618 318.769231 274.695463 319.076923 274.459615 319.384615 274.225086 319.692308 273.991885 320.000000 273.760023 320.307692 273.529512 320.615385 273.300363 320.923077 273.072586 321.230769 272.846191 321.538462 272.621192 321.846154 272.397593 322.153846 272.175390 322.461538 271.954572 322.769231 271.735130 323.076923 271.517055 323.384615 271.300335 323.692308 271.084963 324.000000 270.870927 324.307692 270.658219 324.615385 270.446829 324.923077 270.236746 325.230769 270.027962 325.538462 269.820467 325.846154 269.614250 326.153846 269.409302 326.461538 269.205614 326.769231 269.003176 327.076923 268.801978 327.384615 268.602010 327.692308 268.403263 328.000000 268.205726 328.307692 268.009391 328.615385 267.814248 328.923077 267.620287 329.230769 267.427497 329.538462 267.235871 329.846154 267.045397 330.153846 266.856066 330.461538 266.667868 330.769231 266.480795 331.076923 266.294835 331.384615 266.109979 331.692308 265.926219 332.000000 265.743543 332.307692 265.561942 332.615385 265.381407 332.923077 265.201927 333.230769 265.023494 333.538462 264.846097 333.846154 264.669727 334.153846 264.494374 334.461538 264.320028 334.769231 264.146680 335.076923 263.974320 335.384615 263.802938 335.692308 263.632525 336.000000 263.463070 336.307692 263.294565 336.615385 263.126999 336.923077 262.960363 337.230769 262.794646 337.538462 262.629841 337.846154 262.465935 338.153846 262.302921 338.461538 262.140788 338.769231 261.979527 339.076923 261.819127 339.384615 261.659580 339.692308 261.500875 340.000000 261.343003 340.307692 261.185954 340.615385 261.029718 340.923077 260.874286 341.230769 260.719648 341.538462 260.565794 341.846154 260.412715 342.153846 260.260401 342.461538 260.108842 342.769231 259.958028 343.076923 259.807951 343.384615 259.658599 343.692308 259.509964 344.000000 259.362035 344.307692 259.214803 344.615385 259.068259 344.923077 258.922392 345.230769 258.777194 345.538462 258.632653 345.846154 258.488761 346.153846 258.345508 346.461538 258.202884 346.769231 258.060879 347.076923 257.919484 347.384615 257.778689 347.692308 257.638484 348.000000 257.498860 348.307692 257.359807 348.615385 257.221315 348.923077 257.083375 349.230769 256.945976 349.538462 256.809110 349.846154 256.672766 350.153846 256.536935 350.461538 256.401607 350.769231 256.266772 351.076923 256.132421 351.384615 255.998544 351.692308 255.865131 352.000000 255.732173 352.307692 255.599659 352.615385 255.467581 352.923077 255.335928 353.230769 255.204691 353.538462 255.073860 353.846154 254.943425 354.153846 254.813377 354.461538 254.683706 354.769231 254.554402 355.076923 254.425456 355.384615 254.296858 355.692308 254.168598 356.000000 254.040666 356.307692 253.913053 356.615385 253.785750 356.923077 253.658745 357.230769 253.532031 357.538462 253.405596 357.846154 253.279431 358.153846 253.153528 358.461538 253.027875 358.769231 252.902463 359.076923 252.777283 359.384615 252.652325 359.692308 252.527578 360.000000 252.403035 360.307692 252.278684 360.615385 252.154516 360.923077 252.030521 361.230769 251.906690 361.538462 251.783012 361.846154 251.659479 362.153846 251.536081 362.461538 251.412807 362.769231 251.289649 363.076923 251.166596 363.384615 251.043639 363.692308 250.920767 364.000000 250.797972 364.307692 250.675244 364.615385 250.552573 364.923077 250.429949 365.230769 250.307362 365.538462 250.184803 365.846154 250.062263 366.153846 249.939731 366.461538 249.817197 366.769231 249.694653 367.076923 249.572088 367.384615 249.449493 367.692308 249.326858 368.000000 249.204173 368.307692 249.081429 368.615385 248.958615 368.923077 248.835723 369.230769 248.712742 369.538462 248.589663 369.846154 248.466476 370.153846 248.343171 370.461538 248.219739 370.769231 248.096170 371.076923 247.972455 371.384615 247.848583 371.692308 247.724544 372.000000 247.600331 372.307692 247.475931 372.615385 247.351336 372.923077 247.226537 373.230769 247.101523 373.538462 246.976284 373.846154 246.850812 374.153846 246.725096 374.461538 246.599126 374.769231 246.472894 375.076923 246.346389 375.384615 246.219601 375.692308 246.092521 376.000000 245.965139 376.307692 245.837446 376.615385 245.709431 376.923077 245.581085 377.230769 245.452399 377.538462 245.323362 377.846154 245.193966 378.153846 245.064199 378.461538 244.934053 378.769231 244.803518 379.076923 244.672584 379.384615 244.541242 379.692308 244.409481 380.000000 244.277292 380.307692 244.144666 380.615385 244.011593 380.923077 243.878062 381.230769 243.744064 381.538462 243.609591 381.846154 243.474631 382.153846 243.339175 382.461538 243.203214 382.769231 243.066737 383.076923 242.929736 383.384615 242.792200 383.692308 242.654119 384.000000 242.515485 384.307692 242.376287 384.615385 242.236515 384.923077 242.096160 385.230769 241.955213 385.538462 241.813663 385.846154 241.671501 386.153846 241.528717 386.461538 241.385301 386.769231 241.241244 387.076923 241.096536 387.384615 240.951168 387.692308 240.805129 388.000000 240.658410 388.307692 240.511001 388.615385 240.362893 388.923077 240.214075 389.230769 240.064539 389.538462 239.914274 389.846154 239.763271 390.153846 239.611519 390.461538 239.459010 390.769231 239.305734 391.076923 239.151681 391.384615 238.996841 391.692308 238.841204 392.000000 238.684762 392.307692 238.527503 392.615385 238.369419 392.923077 238.210500 393.230769 238.050735 393.538462 237.890117 393.846154 237.728633 394.153846 237.566276 394.461538 237.403035 394.769231 237.238901 395.076923 237.073863 395.384615 236.907912 395.692308 236.741039 396.000000 236.573234 396.307692 236.404487 396.615385 236.234788 396.923077 236.064128 397.230769 235.892497 397.538462 235.719885 397.846154 235.546283 398.153846 235.371681 398.461538 235.196069 398.769231 235.019440 399.076923 234.841796 399.384615 234.663144 399.692308 234.483488 400.000000 234.302834 400.307692 234.121188 400.615385 233.938553 400.923077 233.754936 401.230769 233.570342 401.538462 233.384777 401.846154 233.198245 402.153846 233.010753 402.461538 232.822304 402.769231 232.632905 403.076923 232.442561 403.384615 232.251278 403.692308 232.059060 404.000000 231.865913 404.307692 231.671842 404.615385 231.476852 404.923077 231.280950 405.230769 231.084139 405.538462 230.886426 405.846154 230.687816 406.153846 230.488314 406.461538 230.287925 406.769231 230.086656 407.076923 229.884510 407.384615 229.681494 407.692308 229.477612 408.000000 229.272870 408.307692 229.067274 408.615385 228.860828 408.923077 228.653538 409.230769 228.445410 409.538462 228.236448 409.846154 228.026658 410.153846 227.816046 410.461538 227.604616 410.769231 227.392374 411.076923 227.179325 411.384615 226.965474 411.692308 226.750828 412.000000 226.535390 412.307692 226.319167 412.615385 226.102164 412.923077 225.884386 413.230769 225.665838 413.538462 225.446526 413.846154 225.226455 414.153846 225.005631 414.461538 224.784058 414.769231 224.561742 415.076923 224.338688 415.384615 224.114903 415.692308 223.890390 416.000000 223.665155 416.307692 223.439204 416.615385 223.212542 416.923077 222.985174 417.230769 222.757106 417.538462 222.528342 417.846154 222.298889 418.153846 222.068751 418.461538 221.837934 418.769231 221.606443 419.076923 221.374284 419.384615 221.141461 419.692308 220.907981 420.000000 220.673848 420.307692 220.439067 420.615385 220.203645 420.923077 219.967586 421.230769 219.730896 421.538462 219.493580 421.846154 219.255643 422.153846 219.017090 422.461538 218.777928 422.769231 218.538161 423.076923 218.297794 423.384615 218.056834 423.692308 217.815284 424.000000 217.573151 424.307692 217.330440 424.615385 217.087156 424.923077 216.843305 425.230769 216.598891 425.538462 216.353921 425.846154 216.108399 426.153846 215.862331 426.461538 215.615722 426.769231 215.368577 427.076923 215.120902 427.384615 214.872702 427.692308 214.623982 428.000000 214.374748 428.307692 214.125005 428.615385 213.874758 428.923077 213.624013 429.230769 213.372775 429.538462 213.121049 429.846154 212.868841 430.153846 212.616155 430.461538 212.362998 430.769231 212.109375 431.076923 211.855290 431.384615 211.600749 431.692308 211.345758 432.000000 211.090321 432.307692 210.834445 432.615385 210.578134 432.923077 210.321394 433.230769 210.064230 433.538462 209.806647 433.846154 209.548651 434.153846 209.290247 434.461538 209.031441 434.769231 208.772237 435.076923 208.512641 435.384615 208.252658 435.692308 207.992294 436.000000 207.731553 436.307692 207.470443 436.615385 207.208966 436.923077 206.947130 437.230769 206.684938 437.538462 206.422397 437.846154 206.159512 438.153846 205.896289 438.461538 205.632731 438.769231 205.368846 439.076923 205.104637 439.384615 204.840111 439.692308 204.575273 440.000000 204.310127 440.307692 204.044681 440.615385 203.778937 440.923077 203.512903 441.230769 203.246583 441.538462 202.979983 441.846154 202.713108 442.153846 202.445963 442.461538 202.178553 442.769231 201.910885 443.076923 201.642962 443.384615 201.374792 443.692308 201.106378 444.000000 200.837726 444.307692 200.568842 444.615385 200.299731 444.923077 200.030397 445.230769 199.760848 445.538462 199.491087 445.846154 199.221120 446.153846 198.950952 446.461538 198.680589 446.769231 198.410036 447.076923 198.139299 447.384615 197.868382 447.692308 197.597292 448.000000 197.326032 448.307692 197.054609 448.615385 196.783029 448.923077 196.511295 449.230769 196.239414 449.538462 195.967391 449.846154 195.695231 450.153846 195.422940 450.461538 195.150522 450.769231 194.877984 451.076923 194.605330 451.384615 194.332566 451.692308 194.059697 452.000000 193.786728 452.307692 193.513666 452.615385 193.240514 452.923077 192.967279 453.230769 192.693965 453.538462 192.420579 453.846154 192.147125 454.153846 191.873608 454.461538 191.600035 454.769231 191.326409 455.076923 191.052738 455.384615 190.779025 455.692308 190.505277 456.000000 190.231498 456.307692 189.957694 456.615385 189.683870 456.923077 189.410032 457.230769 189.136184 457.538462 188.862333 457.846154 188.588483 458.153846 188.314640 458.461538 188.040809 458.769231 187.766996 459.076923 187.493205 459.384615 187.219443 459.692308 186.945713 460.000000 186.672023 460.307692 186.398376 460.615385 186.124779 460.923077 185.851237 461.230769 185.577754 461.538462 185.304337 461.846154 185.030990 462.153846 184.757719 462.461538 184.484530 462.769231 184.211427 463.076923 183.938416 463.384615 183.665502 463.692308 183.392690 464.000000 183.119987 464.307692 182.847396 464.615385 182.574924 464.923077 182.302576 465.230769 182.030357 465.538462 181.758272 465.846154 181.486327 466.153846 181.214527 466.461538 180.942878 466.769231 180.671384 467.076923 180.400051 467.384615 180.128885 467.692308 179.857890 468.000000 179.587072 468.307692 179.316436 468.615385 179.045988 468.923077 178.775733 469.230769 178.505676 469.538462 178.235822 469.846154 177.966178 470.153846 177.696748 470.461538 177.427537 470.769231 177.158551 471.076923 176.889795 471.384615 176.621274 471.692308 176.352995 472.000000 176.084961 472.307692 175.817179 472.615385 175.549653 472.923077 175.282390 473.230769 175.015394 473.538462 174.748670 473.846154 174.482225 474.153846 174.216063 474.461538 173.950189 474.769231 173.684610 475.076923 173.419329 475.384615 173.154354 475.692308 172.889687 476.000000 172.625330 476.307692 172.361284 476.615385 172.097548 476.923077 171.834123 477.230769 171.571009 477.538462 171.308206 477.846154 171.045714 478.153846 170.783533 478.461538 170.521664 478.769231 170.260107 479.076923 169.998863 479.384615 169.737930 479.692308 169.477310 480.000000 169.217002 480.307692 168.957007 480.615385 168.697325 480.923077 168.437957 481.230769 168.178901 481.538462 167.920160 481.846154 167.661732 482.153846 167.403618 482.461538 167.145819 482.769231 166.888333 483.076923 166.631163 483.384615 166.374307 483.692308 166.117766 484.000000 165.861540 484.307692 165.605630 484.615385 165.350035 484.923077 165.094756 485.230769 164.839793 485.538462 164.585146 485.846154 164.330815 486.153846 164.076801 486.461538 163.823104 486.769231 163.569723 487.076923 163.316660 487.384615 163.063914 487.692308 162.811485 488.000000 162.559374 488.307692 162.307581 488.615385 162.056106 488.923077 161.804950 489.230769 161.554112 489.538462 161.303592 489.846154 161.053392 490.153846 160.803510 490.461538 160.553948 490.769231 160.304705 491.076923 160.055782 491.384615 159.807179 491.692308 159.558895 492.000000 159.310932 492.307692 159.063290 492.615385 158.815968 492.923077 158.568967 493.230769 158.322286 493.538462 158.075927 493.846154 157.829890 494.153846 157.584174 494.461538 157.338780 494.769231 157.093708 495.076923 156.848958 495.384615 156.604530 495.692308 156.360425 496.000000 156.116643 496.307692 155.873184 496.615385 155.630048 496.923077 155.387235 497.230769 155.144746 497.538462 154.902580 497.846154 154.660739 498.153846 154.419221 498.461538 154.178028 498.769231 153.937160 499.076923 153.696616 499.384615 153.456397 499.692308 153.216503 500.000000 152.976935 500.307692 152.737692 500.615385 152.498775 500.923077 152.260183 501.230769 152.021918 501.538462 151.783979 501.846154 151.546367 502.153846 151.309081 502.461538 151.072122 502.769231 150.835490 503.076923 150.599185 503.384615 150.363208 503.692308 150.127559 504.000000 149.892237 504.307692 149.657243 504.615385 149.422578 504.923077 149.188241 505.230769 148.954232 505.538462 148.720553 505.846154 148.487202 506.153846 148.254181 506.461538 148.021489 506.769231 147.789127 507.076923 147.557094 507.384615 147.325392 507.692308 147.094019 508.000000 146.862977 508.307692 146.632266 508.615385 146.401885 508.923077 146.171835 509.230769 145.942117 509.538462 145.712730 509.846154 145.483674 510.153846 145.254950 510.461538 145.026558 510.769231 144.798498 511.076923 144.570771 511.384615 144.343376 511.692308 144.116314 512.000000 143.889585 512.307692 143.663188 512.615385 143.437125 512.923077 143.211396 513.230769 142.986000 513.538462 142.760938 513.846154 142.536211 514.153846 142.311817 514.461538 142.087758 514.769231 141.864034 515.076923 141.640645 515.384615 141.417590 515.692308 141.194871 516.000000 140.972487 516.307692 140.750439 516.615385 140.528727 516.923077 140.307351 517.230769 140.086311 517.538462 139.865608 517.846154 139.645241 518.153846 139.425211 518.461538 139.205518 518.769231 138.986162 519.076923 138.767143 519.384615 138.548463 519.692308 138.330120 520.000000 138.112115 520.307692 137.894448 520.615385 137.677119 520.923077 137.460129 521.230769 137.243478 521.538462 137.027166 521.846154 136.811193 522.153846 136.595559 522.461538 136.380265 522.769231 136.165311 523.076923 135.950696 523.384615 135.736422 523.692308 135.522488 524.000000 135.308894 524.307692 135.095642 524.615385 134.882730 524.923077 134.670159 525.230769 134.457930 525.538462 134.246042 525.846154 134.034495 526.153846 133.823291 526.461538 133.612429 526.769231 133.401909 527.076923 133.191731 527.384615 132.981897 527.692308 132.772405 528.000000 132.563256 528.307692 132.354450 528.615385 132.145988 528.923077 131.937869 529.230769 131.730094 529.538462 131.522664 529.846154 131.315577 530.153846 131.108835 530.461538 130.902438 530.769231 130.696385 531.076923 130.490678 531.384615 130.285315 531.692308 130.080298 532.000000 129.875627 532.307692 129.671301 532.615385 129.467322 532.923077 129.263688 533.230769 129.060401 533.538462 128.857461 533.846154 128.654867 534.153846 128.452620 534.461538 128.250720 534.769231 128.049168 535.076923 127.847963 535.384615 127.647106 535.692308 127.446597 536.000000 127.246436 536.307692 127.046624 536.615385 126.847160 536.923077 126.648044 537.230769 126.449278 537.538462 126.250861 537.846154 126.052793 538.153846 125.855074 538.461538 125.657705 538.769231 125.460686 539.076923 125.264017 539.384615 125.067699 539.692308 124.871731 540.000000 124.676113 540.307692 124.480847 540.615385 124.285931 540.923077 124.091367 541.230769 123.897154 541.538462 123.703293 541.846154 123.509783 542.153846 123.316626 542.461538 123.123821 542.769231 122.931368 543.076923 122.739268 543.384615 122.547521 543.692308 122.356127 544.000000 122.165086 544.307692 121.974398 544.615385 121.784064 544.923077 121.594084 545.230769 121.404457 545.538462 121.215185 545.846154 121.026268 546.153846 120.837704 546.461538 120.649496 546.769231 120.461643 547.076923 120.274144 547.384615 120.087001 547.692308 119.900214 548.000000 119.713782 548.307692 119.527707 548.615385 119.341987 548.923077 119.156624 549.230769 118.971617 549.538462 118.786967 549.846154 118.602674 550.153846 118.418738 550.461538 118.235159 550.769231 118.051938 551.076923 117.869074 551.384615 117.686569 551.692308 117.504421 552.000000 117.322632 552.307692 117.141201 552.615385 116.960128 552.923077 116.779410 553.230769 116.599044 553.538462 116.419025 553.846154 116.239350 554.153846 116.060016 554.461538 115.881018 554.769231 115.702354 555.076923 115.524018 555.384615 115.346009 555.692308 115.168321 556.000000 114.990952 556.307692 114.813897 556.615385 114.637154 556.923077 114.460718 557.230769 114.284585 557.538462 114.108753 557.846154 113.933217 558.153846 113.757974 558.461538 113.583020 558.769231 113.408351 559.076923 113.233965 559.384615 113.059856 559.692308 112.886021 560.000000 112.712458 560.307692 112.539161 560.615385 112.366128 560.923077 112.193355 561.230769 112.020838 561.538462 111.848573 561.846154 111.676557 562.153846 111.504786 562.461538 111.333257 562.769231 111.161965 563.076923 110.990908 563.384615 110.820081 563.692308 110.649481 564.000000 110.479104 564.307692 110.308946 564.615385 110.139004 564.923077 109.969275 565.230769 109.799754 565.538462 109.630438 565.846154 109.461323 566.153846 109.292405 566.461538 109.123682 566.769231 108.955148 567.076923 108.786801 567.384615 108.618637 567.692308 108.450652 568.000000 108.282843 568.307692 108.115205 568.615385 107.947736 568.923077 107.780431 569.230769 107.613288 569.538462 107.446301 569.846154 107.279468 570.153846 107.112785 570.461538 106.946248 570.769231 106.779854 571.076923 106.613598 571.384615 106.447478 571.692308 106.281489 572.000000 106.115629 572.307692 105.949892 572.615385 105.784276 572.923077 105.618778 573.230769 105.453392 573.538462 105.288116 573.846154 105.122946 574.153846 104.957878 574.461538 104.792909 574.769231 104.628035 575.076923 104.463252 575.384615 104.298557 575.692308 104.133945 576.000000 103.969414 576.307692 103.804960 576.615385 103.640579 576.923077 103.476267 577.230769 103.312020 577.538462 103.147836 577.846154 102.983710 578.153846 102.819639 578.461538 102.655618 578.769231 102.491645 579.076923 102.327716 579.384615 102.163826 579.692308 101.999974 580.000000 101.836153 580.307692 101.672362 580.615385 101.508596 580.923077 101.344852 581.230769 101.181126 581.538462 101.017414 581.846154 100.853713 582.153846 100.690019 582.461538 100.526329 582.769231 100.362638 583.076923 100.198943 583.384615 100.035241 583.692308 99.871527 584.000000 99.707799 584.307692 99.544052 584.615385 99.380282 584.923077 99.216487 585.230769 99.052662 585.538462 98.888804 585.846154 98.724909 586.153846 98.560974 586.461538 98.396994 586.769231 98.232966 587.076923 98.068887 587.384615 97.904753 587.692308 97.740560 588.000000 97.576304 588.307692 97.411982 588.615385 97.247590 588.923077 97.083125 589.230769 96.918582 589.538462 96.753959 589.846154 96.589251 590.153846 96.424455 590.461538 96.259567 590.769231 96.094584 591.076923 95.929501 591.384615 95.764316 591.692308 95.599024 592.000000 95.433622 592.307692 95.268106 592.615385 95.102473 592.923077 94.936719 593.230769 94.770840 593.538462 94.604832 593.846154 94.438692 594.153846 94.272417 594.461538 94.106002 594.769231 93.939444 595.076923 93.772739 595.384615 93.605883 595.692308 93.438874 596.000000 93.271707 596.307692 93.104378 596.615385 92.936885 596.923077 92.769222 597.230769 92.601387 597.538462 92.433377 597.846154 92.265186 598.153846 92.096812 598.461538 91.928251 598.769231 91.759499 599.076923 91.590553 599.384615 91.421409 599.692308 91.252063 600.000000 91.082511 600.307692 90.912751 600.615385 90.742778 600.923077 90.572589 601.230769 90.402179 601.538462 90.231546 601.846154 90.060686 602.153846 89.889594 602.461538 89.718268 602.769231 89.546703 603.076923 89.374897 603.384615 89.202845 603.692308 89.030543 604.000000 88.857989 604.307692 88.685178 604.615385 88.512106 604.923077 88.338771 605.230769 88.165168 605.538462 87.991294 605.846154 87.817144 606.153846 87.642716 606.461538 87.468006 606.769231 87.293010 607.076923 87.117724 607.384615 86.942145 607.692308 86.766269 608.000000 86.590093 608.307692 86.413612 608.615385 86.236823 608.923077 86.059723 609.230769 85.882307 609.538462 85.704573 609.846154 85.526516 610.153846 85.348132 610.461538 85.169419 610.769231 84.990372 611.076923 84.810988 611.384615 84.631263 611.692308 84.451194 612.000000 84.270776 612.307692 84.090007 612.615385 83.908882 612.923077 83.727397 613.230769 83.545550 613.538462 83.363337 613.846154 83.180753 614.153846 82.997795 614.461538 82.814460 614.769231 82.630743 615.076923 82.446642 615.384615 82.262152 615.692308 82.077270 616.000000 81.891993 616.307692 81.706315 616.615385 81.520235 616.923077 81.333748 617.230769 81.146850 617.538462 80.959538 617.846154 80.771809 618.153846 80.583658 618.461538 80.395081 618.769231 80.206076 619.076923 80.016639 619.384615 79.826765 619.692308 79.636452 620.000000 79.445695 620.307692 79.254491 620.615385 79.062837 620.923077 78.870728 621.230769 78.678161 621.538462 78.485132 621.846154 78.291637 622.153846 78.097674 622.461538 77.903238 622.769231 77.708325 623.076923 77.512933 623.384615 77.317056 623.692308 77.120692 624.000000 76.923838 624.307692 76.726488 624.615385 76.528640 624.923077 76.330290 625.230769 76.131435 625.538462 75.932070 625.846154 75.732191 626.153846 75.531797 626.461538 75.330882 626.769231 75.129443 627.076923 74.927476 627.384615 74.724978 627.692308 74.521944 628.000000 74.318373 628.307692 74.114259 628.615385 73.909598 628.923077 73.704389 629.230769 73.498626 629.538462 73.292306 629.846154 73.085433 630.153846 72.878006 630.461538 72.670030 630.769231 72.461505 631.076923 72.252434 631.384615 72.042820 631.692308 71.832664 632.000000 71.621970 632.307692 71.410738 632.615385 71.198972 632.923077 70.986673 633.230769 70.773844 633.538462 70.560487 633.846154 70.346604 634.153846 70.132197 634.461538 69.917269 634.769231 69.701823 635.076923 69.485859 635.384615 69.269380 635.692308 69.052389 636.000000 68.834888 636.307692 68.616879 636.615385 68.398365 636.923077 68.179346 637.230769 67.959827 637.538462 67.739808 637.846154 67.519293 638.153846 67.298283 638.461538 67.076780 638.769231 66.854788 639.076923 66.632307 639.384615 66.409341 639.692308 66.185892 640.000000 65.961961 640.307692 65.737551 640.615385 65.512664 640.923077 65.287303 641.230769 65.061470 641.538462 64.835166 641.846154 64.608395 642.153846 64.381158 642.461538 64.153457 642.769231 63.925296 643.076923 63.696675 643.384615 63.467598 643.692308 63.238066 644.000000 63.008082 644.307692 62.777648 644.615385 62.546766 644.923077 62.315438 645.230769 62.083667 645.538462 61.851455 645.846154 61.618804 646.153846 61.385717 646.461538 61.152195 646.769231 60.918240 647.076923 60.683856 647.384615 60.449044 647.692308 60.213807 648.000000 59.978146 648.307692 59.742064 648.615385 59.505563 648.923077 59.268646 649.230769 59.031314 649.538462 58.793570 649.846154 58.555416 650.153846 58.316854 650.461538 58.077887 650.769231 57.838517 651.076923 57.598746 651.384615 57.358575 651.692308 57.118009 652.000000 56.877048 652.307692 56.635694 652.615385 56.393951 652.923077 56.151821 653.230769 55.909304 653.538462 55.666405 653.846154 55.423125 654.153846 55.179466 654.461538 54.935430 654.769231 54.691020 655.076923 54.446238 655.384615 54.201086 655.692308 53.955567 656.000000 53.709682 656.307692 53.463434 656.615385 53.216825 656.923077 52.969858 657.230769 52.722534 657.538462 52.474856 657.846154 52.226825 658.153846 51.978445 658.461538 51.729718 658.769231 51.480645 659.076923 51.231229 659.384615 50.981472 659.692308 50.731376 660.000000 50.480944 660.307692 50.230178 660.615385 49.979080 660.923077 49.727652 661.230769 49.475897 661.538462 49.223816 661.846154 48.971412 662.153846 48.718688 662.461538 48.465645 662.769231 48.212285 663.076923 47.958612 663.384615 47.704626 663.692308 47.450331 664.000000 47.195728 664.307692 46.940821 664.615385 46.685610 664.923077 46.430098 665.230769 46.174288 665.538462 45.918181 665.846154 45.661781 666.153846 45.405088 666.461538 45.148106 666.769231 44.890837 667.076923 44.633282 667.384615 44.375445 667.692308 44.117326 668.000000 43.858929 668.307692 43.600256 668.615385 43.341309 668.923077 43.082090 669.230769 42.822602 669.538462 42.562846 669.846154 42.302825 670.153846 42.042541 670.461538 41.781997 670.769231 41.521194 671.076923 41.260135 671.384615 40.998822 671.692308 40.737257 672.000000 40.475442 672.307692 40.213380 672.615385 39.951074 672.923077 39.688524 673.230769 39.425734 673.538462 39.162705 673.846154 38.899440 674.153846 38.635942 674.461538 38.372211 674.769231 38.108251 675.076923 37.844064 675.384615 37.579652 675.692308 37.315017 676.000000 37.050161 676.307692 36.785087 676.615385 36.519797 676.923077 36.254294 677.230769 35.988578 677.538462 35.722653 677.846154 35.456521 678.153846 35.190184 678.461538 34.923644 678.769231 34.656904 679.076923 34.389965 679.384615 34.122830 679.692308 33.855502 680.000000 33.587982 680.307692 33.320272 680.615385 33.052375 680.923077 32.784294 681.230769 32.516030 681.538462 32.247585 681.846154 31.978962 682.153846 31.710163 682.461538 31.441190 682.769231 31.172046 683.076923 30.902732 683.384615 30.633252 683.692308 30.363606 684.000000 30.093798 684.307692 29.823829 684.615385 29.553702 684.923077 29.283420 685.230769 29.012983 685.538462 28.742395 685.846154 28.471658 686.153846 28.200774 686.461538 27.929744 686.769231 27.658573 687.076923 27.387261 687.384615 27.115810 687.692308 26.844224 688.000000 26.572505 688.307692 26.300653 688.615385 26.028673 688.923077 25.756565 689.230769 25.484333 689.538462 25.211979 689.846154 24.939503 690.153846 24.666910 690.461538 24.394201 690.769231 24.121379 691.076923 23.848445 691.384615 23.575402 691.692308 23.302252 692.000000 23.028997 692.307692 22.755639 692.615385 22.482182 692.923077 22.208626 693.230769 21.934975 693.538462 21.661230 693.846154 21.387394 694.153846 21.113468 694.461538 20.839456 694.769231 20.565359 695.076923 20.291180 695.384615 20.016920 695.692308 19.742582 696.000000 19.468169 696.307692 19.193682 696.615385 18.919124 696.923077 18.644497 697.230769 18.369803 697.538462 18.095044 697.846154 17.820223 698.153846 17.545342 698.461538 17.270403 698.769231 16.995408 699.076923 16.720360 699.384615 16.445260 699.692308 16.170112 700.000000 15.894916 700.307692 15.619676 700.615385 15.344394 700.923077 15.069072 701.230769 14.793712 701.538462 14.518316 701.846154 14.242886 702.153846 13.967426 702.461538 13.691937 702.769231 13.416420 703.076923 13.140880 703.384615 12.865317 703.692308 12.589734 704.000000 12.314133 704.307692 12.038517 704.615385 11.762887 704.923077 11.487246 705.230769 11.211596 705.538462 10.935940 705.846154 10.660279 706.153846 10.384615 706.153846 540.000000" /></g></g><g class="titles" /><g class="plot overlay" transform="translate(60, 20)"><g class="series serie-0 color-0"><g class="dots"><circle class="dot reactive tooltip-trigger" cx="13.846153846153847" cy="529.6153846153846" r="2.5" /><desc class="value">1,198,695,383(kWh)</desc><desc class="x top">13.846153846153847</desc><desc class="y top">529.6153846153846</desc><desc class="x_label">2549</desc></g><g class="dots"><circle class="dot reactive tooltip-trigger" cx="90.76923076923076" cy="437.9338244804266" r="2.5" /><desc class="value">1,416,298,556(kWh)</desc><desc class="x top">90.76923076923076</desc><desc class="y top">437.9338244804266</desc><desc class="x_label">2550</desc></g><g class="dots"><circle class="dot reactive tooltip-trigger" cx="167.69230769230765" cy="381.8854970684789" r="2.5" /><desc class="value">1,549,327,421(kWh)</desc><desc class="x top">167.69230769230765</desc><desc class="y top">381.8854970684789</desc><desc class="x_label">2551</desc></g><g class="dots"><circle class="dot reactive tooltip-trigger" cx="244.6153846153846" cy="344.2570427298161" r="2.5" /><desc class="value">1,638,637,322(kWh)</desc><desc class="x top">244.6153846153846</desc><desc class="y top">344.2570427298161</desc><desc class="x_label">2552</desc></g><g class="dots"><circle class="dot reactive tooltip-trigger" cx="321.5384615384615" cy="272.62119151289363" r="2.5" /><desc class="value">1,808,662,663(kWh)</desc><desc class="x top">321.5384615384615</desc><desc class="y top">272.62119151289363</desc><desc class="x_label">2553</desc></g><g class="dots"><circle class="dot reactive tooltip-trigger" cx="398.46153846153845" cy="235.19606882602938" r="2.5" /><desc class="value">1,897,489,963(kWh)</desc><desc class="x left">398.46153846153845</desc><desc class="y left">235.19606882602938</desc><desc class="x_label">2554</desc></g><g class="dots"><circle class="dot reactive tooltip-trigger" cx="475.38461538461536" cy="173.154353688022" r="2.5" /><desc class="value">2,044,743,937(kWh)</desc><desc class="x left">475.38461538461536</desc><desc class="y left">173.154353688022</desc><desc class="x_label">2555</desc></g><g class="dots"><circle class="dot reactive tooltip-trigger" cx="552.3076923076923" cy="117.14120097791294" r="2.5" /><desc class="value">2,177,689,316(kWh)</desc><desc class="x left">552.3076923076923</desc><desc class="y left">117.14120097791294</desc><desc class="x_label">2556</desc></g><g class="dots"><circle class="dot reactive tooltip-trigger" cx="629.2307692307692" cy="73.49862553181538" r="2.5" /><desc class="value">2,281,273,536(kWh)</desc><desc class="x left">629.2307692307692</desc><desc class="y left">73.49862553181538</desc><desc class="x_label">2557</desc></g><g class="dots"><circle class="dot reactive tooltip-trigger" cx="706.1538461538461" cy="10.384615384615245" r="2.5" /><desc class="value">2,431,072,567(kWh)</desc><desc class="x left">706.1538461538461</desc><desc class="y left">10.384615384615245</desc><desc class="x_label">2558</desc></g></g></g><g class="plot text-overlay" transform="translate(60, 20)"><g class="series serie-0 color-0" /></g><g class="plot tooltip-overlay" transform="translate(60, 20)"><g class="tooltip" style="opacity: 0" transform="translate(0 0)"><rect class="tooltip-box" height="0" rx="0" ry="0" width="0" /><g class="text" /></g></g></g></svg>