<?xml version='1.0' encoding='utf-8'?>
<svg xmlns:xlink="http://www.w3.org/1999/xlink" class="pygal-chart" id="chart-e3352ba0-d20b-4664-b997-4ef2fe9153e9" viewBox="0 0 800 600" xmlns="http://www.w3.org/2000/svg"><!--Generated with pygal 2.3.0 (etree) ©Kozea 2012-2016 on 2016-12-08--><!--http://pygal.org--><!--http://github.com/Kozea/pygal--><defs><style type="text/css">#chart-e3352ba0-d20b-4664-b997-4ef2fe9153e9{-webkit-user-select:none;-webkit-font-smoothing:antialiased;font-family:Consolas,"Liberation Mono",Menlo,Courier,monospace}#chart-e3352ba0-d20b-4664-b997-4ef2fe9153e9 .title{font-family:Consolas,"Liberation Mono",Menlo,Courier,monospace;font-size:16px}#chart-e3352ba0-d20b-4664-b997-4ef2fe9153e9 .legends .legend text{font-family:Consolas,"Liberation Mono",Menlo,Courier,monospace;font-size:14px}#chart-e3352ba0-d20b-4664-b997-4ef2fe9153e9 .axis text{font-family:Consolas,"Liberation Mono",Menlo,Courier,monospace;font-size:10px}#chart-e3352ba0-d20b-4664-b997-4ef2fe9153e9 .axis text.major{font-family:Consolas,"Liberation Mono",Menlo,Courier,monospace;font-size:10px}#chart-e3352ba0-d20b-4664-b997-4ef2fe9153e9 .text-overlay text.value{font-family:Consolas,"Liberation Mono",Menlo,Courier,monospace;font-size:16px}#chart-e3352ba0-d20b-4664-b997-4ef2fe9153e9 .text-overlay text.label{font-family:Consolas,"Liberation Mono",Menlo,Courier,monospace;font-size:10px}#chart-e3352ba0-d20b-4664-b997-4ef2fe9153e9 .tooltip{font-family:Consolas,"Liberation Mono",Menlo,Courier,monospace;font-size:14px}#chart-e3352ba0-d20b-4664-b997-4ef2fe9153e9 text.no_data{font-family:Consolas,"Liberation Mono",Menlo,Courier,monospace;font-size:64px}
#chart-e3352ba0-d20b-4664-b997-4ef2fe9153e9{background-color:rgba(249,249,249,1)}#chart-e3352ba0-d20b-4664-b997-4ef2fe9153e9 path,#chart-e3352ba0-d20b-4664-b997-4ef2fe9153e9 line,#chart-e3352ba0-d20b-4664-b997-4ef2fe9153e9 rect,#chart-e3352ba0-d20b-4664-b997-4ef2fe9153e9 circle{-webkit-transition:150ms;-moz-transition:150ms;transition:150ms}#chart-e3352ba0-d20b-4664-b997-4ef2fe9153e9 .graph &gt; .background{fill:rgba(249,249,249,1)}#chart-e3352ba0-d20b-4664-b997-4ef2fe9153e9 .plot &gt; .background{fill:rgba(255,255,255,1)}#chart-e3352ba0-d20b-4664-b997-4ef2fe9153e9 .graph{fill:rgba(0,0,0,.87)}#chart-e3352ba0-d20b-4664-b997-4ef2fe9153e9 text.no_data{fill:rgba(0,0,0,1)}#chart-e3352ba0-d20b-4664-b997-4ef2fe9153e9 .title{fill:rgba(0,0,0,1)}#chart-e3352ba0-d20b-4664-b997-4ef2fe9153e9 .legends .legend text{fill:rgba(0,0,0,.87)}#chart-e3352ba0-d20b-4664-b997-4ef2fe9153e9 .legends .legend:hover text{fill:rgba(0,0,0,1)}#chart-e3352ba0-d20b-4664-b997-4ef2fe9153e9 .axis .line{stroke:rgba(0,0,0,1)}#chart-e3352ba0-d20b-4664-b997-4ef2fe9153e9 .axis .guide.line{stroke:rgba(0,0,0,.54)}#chart-e3352ba0-d20b-4664-b997-4ef2fe9153e9 .axis .major.line{stroke:rgba(0,0,0,.87)}#chart-e3352ba0-d20b-4664-b997-4ef2fe9153e9 .axis text.major{fill:rgba(0,0,0,1)}#chart-e3352ba0-d20b-4664-b997-4ef2fe9153e9 .axis.y .guides:hover .guide.line,#chart-e3352ba0-d20b-4664-b997-4ef2fe9153e9 .line-graph .axis.x .guides:hover .guide.line,#chart-e3352ba0-d20b-4664-b997-4ef2fe9153e9 .stackedline-graph .axis.x .guides:hover .guide.line,#chart-e3352ba0-d20b-4664-b997-4ef2fe9153e9 .xy-graph .axis.x .guides:hover .guide.line{stroke:rgba(0,0,0,1)}#chart-e3352ba0-d20b-4664-b997-4ef2fe9153e9 .axis .guides:hover text{fill:rgba(0,0,0,1)}#chart-e3352ba0-d20b-4664-b997-4ef2fe9153e9 .reactive{fill-opacity:.7;stroke-opacity:.8}#chart-e3352ba0-d20b-4664-b997-4ef2fe9153e9 .ci{stroke:rgba(0,0,0,.87)}#chart-e3352ba0-d20b-4664-b997-4ef2fe9153e9 .reactive.active,#chart-e3352ba0-d20b-4664-b997-4ef2fe9153e9 .active .reactive{fill-opacity:.8;stroke-opacity:.9;stroke-width:4}#chart-e3352ba0-d20b-4664-b997-4ef2fe9153e9 .ci .reactive.active{stroke-width:1.5}#chart-e3352ba0-d20b-4664-b997-4ef2fe9153e9 .series text{fill:rgba(0,0,0,1)}#chart-e3352ba0-d20b-4664-b997-4ef2fe9153e9 .tooltip rect{fill:rgba(255,255,255,1);stroke:rgba(0,0,0,1);-webkit-transition:opacity 150ms;-moz-transition:opacity 150ms;transition:opacity 150ms}#chart-e3352ba0-d20b-4664-b997-4ef2fe9153e9 .tooltip .label{fill:rgba(0,0,0,.87)}#chart-e3352ba0-d20b-4664-b997-4ef2fe9153e9 .tooltip .label{fill:rgba(0,0,0,.87)}#chart-e3352ba0-d20b-4664-b997-4ef2fe9153e9 .tooltip .legend{font-size:.8em;fill:rgba(0,0,0,.54)}#chart-e3352ba0-d20b-4664-b997-4ef2fe9153e9 .tooltip .x_label{font-size:.6em;fill:rgba(0,0,0,1)}#chart-e3352ba0-d20b-4664-b997-4ef2fe9153e9 .tooltip .xlink{font-size:.5em;text-decoration:underline}#chart-e3352ba0-d20b-4664-b997-4ef2fe9153e9 .tooltip .value{font-size:1.5em}#chart-e3352ba0-d20b-4664-b997-4ef2fe9153e9 .bound{font-size:.5em}#chart-e3352ba0-d20b-4664-b997-4ef2fe9153e9 .max-value{font-size:.75em;fill:rgba(0,0,0,.54)}#chart-e3352ba0-d20b-4664-b997-4ef2fe9153e9 .map-element{fill:rgba(255,255,255,1);stroke:rgba(0,0,0,.54) !important}#chart-e3352ba0-d20b-4664-b997-4ef2fe9153e9 .map-element .reactive{fill-opacity:inherit;stroke-opacity:inherit}#chart-e3352ba0-d20b-4664-b997-4ef2fe9153e9 .color-0,#chart-e3352ba0-d20b-4664-b997-4ef2fe9153e9 .color-0 a:visited{stroke:#e86fa0;fill:#e86fa0}#chart-e3352ba0-d20b-4664-b997-4ef2fe9153e9 .text-overlay .color-0 text{fill:black}
#chart-e3352ba0-d20b-4664-b997-4ef2fe9153e9 text.no_data{text-anchor:middle}#chart-e3352ba0-d20b-4664-b997-4ef2fe9153e9 .guide.line{fill:none}#chart-e3352ba0-d20b-4664-b997-4ef2fe9153e9 .centered{text-anchor:middle}#chart-e3352ba0-d20b-4664-b997-4ef2fe9153e9 .title{text-anchor:middle}#chart-e3352ba0-d20b-4664-b997-4ef2fe9153e9 .legends .legend text{fill-opacity:1}#chart-e3352ba0-d20b-4664-b997-4ef2fe9153e9 .axis.x text{text-anchor:middle}#chart-e3352ba0-d20b-4664-b997-4ef2fe9153e9 .axis.x:not(.web) text[transform]{text-anchor:start}#chart-e3352ba0-d20b-4664-b997-4ef2fe9153e9 .axis.x:not(.web) text[transform].backwards{text-anchor:end}#chart-e3352ba0-d20b-4664-b997-4ef2fe9153e9 .axis.y text{text-anchor:end}#chart-e3352ba0-d20b-4664-b997-4ef2fe9153e9 .axis.y text[transform].backwards{text-anchor:start}#chart-e3352ba0-d20b-4664-b997-4ef2fe9153e9 .axis.y2 text{text-anchor:start}#chart-e3352ba0-d20b-4664-b997-4ef2fe9153e9 .axis.y2 text[transform].backwards{text-anchor:end}#chart-e3352ba0-d20b-4664-b997-4ef2fe9153e9 .axis .guide.line{stroke-dasharray:4,4}#chart-e3352ba0-d20b-4664-b997-4ef2fe9153e9 .axis .major.guide.line{stroke-dasharray:6,6}#chart-e3352ba0-d20b-4664-b997-4ef2fe9153e9 .horizontal .axis.y .guide.line,#chart-e3352ba0-d20b-4664-b997-4ef2fe9153e9 .horizontal .axis.y2 .guide.line,#chart-e3352ba0-d20b-4664-b997-4ef2fe9153e9 .vertical .axis.x .guide.line{opacity:0}#chart-e3352ba0-d20b-4664-b997-4ef2fe9153e9 .horizontal .axis.always_show .guide.line,#chart-e3352ba0-d20b-4664-b997-4ef2fe9153e9 .vertical .axis.always_show .guide.line{opacity:1 !important}#chart-e3352ba0-d20b-4664-b997-4ef2fe9153e9 .axis.y .guides:hover .guide.line,#chart-e3352ba0-d20b-4664-b997-4ef2fe9153e9 .axis.y2 .guides:hover .guide.line,#chart-e3352ba0-d20b-4664-b997-4ef2fe9153e9 .axis.x .guides:hover .guide.line{opacity:1}#chart-e3352ba0-d20b-4664-b997-4ef2fe9153e9 .axis .guides:hover text{opacity:1}#chart-e3352ba0-d20b-4664-b997-4ef2fe9153e9 .nofill{fill:none}#chart-e3352ba0-d20b-4664-b997-4ef2fe9153e9 .subtle-fill{fill-opacity:.2}#chart-e3352ba0-d20b-4664-b997-4ef2fe9153e9 .dot{stroke-width:1px;fill-opacity:1}#chart-e3352ba0-d20b-4664-b997-4ef2fe9153e9 .dot.active{stroke-width:5px}#chart-e3352ba0-d20b-4664-b997-4ef2fe9153e9 .dot.negative{fill:transparent}#chart-e3352ba0-d20b-4664-b997-4ef2fe9153e9 text,#chart-e3352ba0-d20b-4664-b997-4ef2fe9153e9 tspan{stroke:none !important}#chart-e3352ba0-d20b-4664-b997-4ef2fe9153e9 .series text.active{opacity:1}#chart-e3352ba0-d20b-4664-b997-4ef2fe9153e9 .tooltip rect{fill-opacity:.95;stroke-width:.5}#chart-e3352ba0-d20b-4664-b997-4ef2fe9153e9 .tooltip text{fill-opacity:1}#chart-e3352ba0-d20b-4664-b997-4ef2fe9153e9 .showable{visibility:hidden}#chart-e3352ba0-d20b-4664-b997-4ef2fe9153e9 .showable.shown{visibility:visible}#chart-e3352ba0-d20b-4664-b997-4ef2fe9153e9 .gauge-background{fill:rgba(229,229,229,1);stroke:none}#chart-e3352ba0-d20b-4664-b997-4ef2fe9153e9 .bg-lines{stroke:rgba(249,249,249,1);stroke-width:2px}</style><script type="text/javascript">window.pygal = window.pygal || {};window.pygal.config = window.pygal.config || {};window.pygal.config['e3352ba0-d20b-4664-b997-4ef2fe9153e9'] = {"no_data_text": "No data", "no_prefix": false, "xrange": null, "print_values_position": "center", "truncate_label": null, "x_labels": ["2549", "2550", "2551", "2552", "2553", "2554", "2555", "2556", "2557", "2558"], "title": null, "force_uri_protocol": "https", "defs": [], "formatter": null, "classes": ["pygal-chart"], "y_labels": null, "rounded_bars": null, "explicit_size": false, "x_labels_major_every": null, "legend_at_bottom_columns": null, "stroke_style": null, "half_pie": false, "spacing": 10, "tooltip_fancy_mode": true, "inverse_y_axis": false, "width": 800, "inner_radius": 0, "interpolation_parameters": {}, "tooltip_border_radius": 0, "style": {"no_data_font_family": "Consolas, \"Liberation Mono\", Menlo, Courier, monospace", "tooltip_font_size": 14, "tooltip_font_family": "Consolas, \"Liberation Mono\", Menlo, Courier, monospace", "stroke_opacity_hover": ".9", "legend_font_family": "Consolas, \"Liberation Mono\", Menlo, Courier, monospace", "font_family": "Consolas, \"Liberation Mono\", Menlo, Courier, monospace", "title_font_family": "Consolas, \"Liberation Mono\", Menlo, Courier, monospace", "background": "rgba(249, 249, 249, 1)", "stroke_opacity": ".8", "foreground": "rgba(0, 0, 0, .87)", "value_background": "rgba(229, 229, 229, 1)", "guide_stroke_dasharray": "4,4", "foreground_subtle": "rgba(0, 0, 0, .54)", "opacity_hover": ".8", "value_font_family": "Consolas, \"Liberation Mono\", Menlo, Courier, monospace", "value_label_font_size": 10, "plot_background": "rgba(255, 255, 255, 1)", "ci_colors": [], "label_font_size": 10, "major_label_font_size": 10, "title_font_size": 16, "no_data_font_size": 64, "value_font_size": 16, "value_colors": [], "label_font_family": "Consolas, \"Liberation Mono\", Menlo, Courier, monospace", "major_guide_stroke_dasharray": "6,6", "transition": "150ms", "foreground_strong": "rgba(0, 0, 0, 1)", "colors": ["#e86fa0", "#e88f6f", "#e8df6f", "#a0e86f", "#6fe88f", "#6fe8df", "#6fa0e8", "#8f6fe8", "#df6fe8", "#e86fa0"], "opacity": ".7", "legend_font_size": 14, "value_label_font_family": "Consolas, \"Liberation Mono\", Menlo, Courier, monospace", "major_label_font_family": "Consolas, \"Liberation Mono\", Menlo, Courier, monospace"}, "x_labels_major_count": null, "interpolation_precision": 250, "missing_value_fill_truncation": "x", "stack_from_top": false, "truncate_legend": null, "show_minor_x_labels": true, "print_zeroes": true, "css": ["file://style.css", "file://graph.css"], "y_label_rotation": 0, "legend_at_bottom": false, "print_values": false, "margin_top": null, "max_scale": 16, "allow_interruptions": false, "show_x_labels": true, "strict": false, "show_x_guides": false, "stroke": true, "margin_left": null, "dynamic_print_values": false, "print_labels": false, "show_y_labels": true, "x_labels_major": null, "range": null, "x_label_rotation": 0, "margin": 20, "zero": 0, "include_x_axis": false, "height": 600, "show_minor_y_labels": true, "show_dots": true, "interpolate": "cubic", "show_y_guides": true, "y_labels_major": null, "box_mode": "extremes", "margin_bottom": null, "order_min": null, "legend_box_size": 12, "fill": true, "show_only_major_dots": false, "js": ["//kozea.github.io/pygal.js/2.0.x/pygal-tooltips.min.js"], "x_title": null, "y_labels_major_every": null, "y_labels_major_count": null, "disable_xml_declaration": false, "y_title": null, "logarithmic": false, "pretty_print": false, "min_scale": 4, "dots_size": 2.5, "margin_right": null, "legends": [null], "secondary_range": null, "show_legend": false}</script><script type="text/javascript" xlink:href="https://kozea.github.io/pygal.js/2.0.x/pygal-tooltips.min.js" /></defs><title>Pygal</title><g class="graph stackedline-graph vertical"><rect class="background" height="600" width="800" x="0" y="0" /><g class="plot" transform="translate(54, 20)"><rect class="background" height="540" width="726.0" x="0" y="0" /><g class="axis y"><path class="line" d="M0.000000 540.000000 h726.000000" /><g class="guides"><path class="guide line" d="M0.000000 497.257857 h726.000000" /><text class="" x="-5" y="500.75785737466725">130M</text><title>130M</title></g><g class="guides"><path class="guide line" d="M0.000000 463.877816 h726.000000" /><text class="" x="-5" y="467.377816017063">140M</text><title>140M</title></g><g class="guides"><path class="major guide line" d="M0.000000 430.497775 h726.000000" /><text class="major" x="-5" y="433.99777465945886">150M</text><title>150M</title></g><g class="guides"><path class="guide line" d="M0.000000 397.117733 h726.000000" /><text class="" x="-5" y="400.6177333018546">160M</text><title>160M</title></g><g class="guides"><path class="guide line" d="M0.000000 363.737692 h726.000000" /><text class="" x="-5" y="367.2376919442504">170M</text><title>170M</title></g><g class="guides"><path class="guide line" d="M0.000000 330.357651 h726.000000" /><text class="" x="-5" y="333.85765058664623">180M</text><title>180M</title></g><g class="guides"><path class="guide line" d="M0.000000 296.977609 h726.000000" /><text class="" x="-5" y="300.47760922904206">190M</text><title>190M</title></g><g class="guides"><path class="major guide line" d="M0.000000 263.597568 h726.000000" /><text class="major" x="-5" y="267.09756787143783">200M</text><title>200M</title></g><g class="guides"><path class="guide line" d="M0.000000 230.217527 h726.000000" /><text class="" x="-5" y="233.7175265138336">210M</text><title>210M</title></g><g class="guides"><path class="guide line" d="M0.000000 196.837485 h726.000000" /><text class="" x="-5" y="200.33748515622943">220M</text><title>220M</title></g><g class="guides"><path class="guide line" d="M0.000000 163.457444 h726.000000" /><text class="" x="-5" y="166.9574437986252">230M</text><title>230M</title></g><g class="guides"><path class="guide line" d="M0.000000 130.077402 h726.000000" /><text class="" x="-5" y="133.57740244102098">240M</text><title>240M</title></g><g class="guides"><path class="major guide line" d="M0.000000 96.697361 h726.000000" /><text class="major" x="-5" y="100.19736108341675">250M</text><title>250M</title></g><g class="guides"><path class="guide line" d="M0.000000 63.317320 h726.000000" /><text class="" x="-5" y="66.81731972581252">260M</text><title>260M</title></g><g class="guides"><path class="guide line" d="M0.000000 29.937278 h726.000000" /><text class="" x="-5" y="33.437278368208354">270M</text><title>270M</title></g></g><g class="axis x"><g class="guides"><path class="line" d="M13.961538 0.000000 v540.000000" /><text class="" x="13.96153846153846" y="555.0">2549</text></g><g class="guides"><path class="guide line" d="M91.525641 0.000000 v540.000000" /><text class="" x="91.52564102564101" y="555.0">2550</text></g><g class="guides"><path class="guide line" d="M169.089744 0.000000 v540.000000" /><text class="" x="169.08974358974356" y="555.0">2551</text></g><g class="guides"><path class="guide line" d="M246.653846 0.000000 v540.000000" /><text class="" x="246.65384615384613" y="555.0">2552</text></g><g class="guides"><path class="guide line" d="M324.217949 0.000000 v540.000000" /><text class="" x="324.21794871794873" y="555.0">2553</text></g><g class="guides"><path class="guide line" d="M401.782051 0.000000 v540.000000" /><text class="" x="401.78205128205127" y="555.0">2554</text></g><g class="guides"><path class="guide line" d="M479.346154 0.000000 v540.000000" /><text class="" x="479.3461538461538" y="555.0">2555</text></g><g class="guides"><path class="guide line" d="M556.910256 0.000000 v540.000000" /><text class="" x="556.9102564102565" y="555.0">2556</text></g><g class="guides"><path class="guide line" d="M634.474359 0.000000 v540.000000" /><text class="" x="634.474358974359" y="555.0">2557</text></g><g class="guides"><path class="guide line" d="M712.038462 0.000000 v540.000000" /><text class="" x="712.0384615384615" y="555.0">2558</text></g></g><g class="series serie-0 color-0"><path class="line reactive" d="M13.961538 540.000000 L13.961538 529.615385 14.271795 529.428813 14.582051 529.242246 14.892308 529.055686 15.202564 528.869139 15.512821 528.682607 15.823077 528.496095 16.133333 528.309607 16.443590 528.123147 16.753846 527.936719 17.064103 527.750326 17.374359 527.563974 17.684615 527.377665 17.994872 527.191403 18.305128 527.005194 18.615385 526.819040 18.925641 526.632946 19.235897 526.446915 19.546154 526.260952 19.856410 526.075061 20.166667 525.889245 20.476923 525.703509 20.787179 525.517856 21.097436 525.332291 21.407692 525.146818 21.717949 524.961439 22.028205 524.776160 22.338462 524.590985 22.648718 524.405917 22.958974 524.220960 23.269231 524.036119 23.579487 523.851397 23.889744 523.666798 24.200000 523.482327 24.510256 523.297987 24.820513 523.113782 25.130769 522.929716 25.441026 522.745794 25.751282 522.562018 26.061538 522.378394 26.371795 522.194925 26.682051 522.011615 26.992308 521.828468 27.302564 521.645488 27.612821 521.462680 27.923077 521.280046 28.233333 521.097591 28.543590 520.915319 28.853846 520.733234 29.164103 520.551340 29.474359 520.369641 29.784615 520.188141 30.094872 520.006843 30.405128 519.825753 30.715385 519.644873 31.025641 519.464208 31.335897 519.283761 31.646154 519.103538 31.956410 518.923541 32.266667 518.743775 32.576923 518.564244 32.887179 518.384951 33.197436 518.205900 33.507692 518.027097 33.817949 517.848544 34.128205 517.670245 34.438462 517.492205 34.748718 517.314428 35.058974 517.136917 35.369231 516.959677 35.679487 516.782711 35.989744 516.606023 36.300000 516.429618 36.610256 516.253499 36.920513 516.077670 37.230769 515.902136 37.541026 515.726900 37.851282 515.551967 38.161538 515.377339 38.471795 515.203022 38.782051 515.029019 39.092308 514.855335 39.402564 514.681972 39.712821 514.508936 40.023077 514.336230 40.333333 514.163858 40.643590 513.991823 40.953846 513.820131 41.264103 513.648786 41.574359 513.477790 41.884615 513.307148 42.194872 513.136864 42.505128 512.966942 42.815385 512.797385 43.125641 512.628199 43.435897 512.459387 43.746154 512.290952 44.056410 512.122900 44.366667 511.955233 44.676923 511.787956 44.987179 511.621072 45.297436 511.454587 45.607692 511.288503 45.917949 511.122825 46.228205 510.957556 46.538462 510.792701 46.848718 510.628264 47.158974 510.464249 47.469231 510.300659 47.779487 510.137498 48.089744 509.974771 48.400000 509.812482 48.710256 509.650634 49.020513 509.489231 49.330769 509.328278 49.641026 509.167779 49.951282 509.007736 50.261538 508.848156 50.571795 508.689040 50.882051 508.530394 51.192308 508.372221 51.502564 508.214526 51.812821 508.057312 52.123077 507.900582 52.433333 507.744343 52.743590 507.588596 53.053846 507.433347 53.364103 507.278598 53.674359 507.124355 53.984615 506.970621 54.294872 506.817400 54.605128 506.664696 54.915385 506.512514 55.225641 506.360856 55.535897 506.209727 55.846154 506.059131 56.156410 505.909072 56.466667 505.759554 56.776923 505.610581 57.087179 505.462157 57.397436 505.314286 57.707692 505.166971 58.017949 505.020217 58.328205 504.874028 58.638462 504.728408 58.948718 504.583361 59.258974 504.438890 59.569231 504.295000 59.879487 504.151695 60.189744 504.008978 60.500000 503.866854 60.810256 503.725327 61.120513 503.584400 61.430769 503.444078 61.741026 503.304364 62.051282 503.165263 62.361538 503.026778 62.671795 502.888914 62.982051 502.751675 63.292308 502.615063 63.602564 502.479084 63.912821 502.343742 64.223077 502.209040 64.533333 502.074982 64.843590 501.941572 65.153846 501.808815 65.464103 501.676714 65.774359 501.545273 66.084615 501.414497 66.394872 501.284389 66.705128 501.154953 67.015385 501.026193 67.325641 500.898113 67.635897 500.770717 67.946154 500.644010 68.256410 500.517994 68.566667 500.392675 68.876923 500.268055 69.187179 500.144140 69.497436 500.020932 69.807692 499.898437 70.117949 499.776657 70.428205 499.655598 70.738462 499.535262 71.048718 499.415654 71.358974 499.296778 71.669231 499.178638 71.979487 499.061237 72.289744 498.944580 72.600000 498.828671 72.910256 498.713514 73.220513 498.599113 73.530769 498.485471 73.841026 498.372593 74.151282 498.260482 74.461538 498.149143 74.771795 498.038580 75.082051 497.928796 75.392308 497.819796 75.702564 497.711584 76.012821 497.604162 76.323077 497.497537 76.633333 497.391710 76.943590 497.286688 77.253846 497.182472 77.564103 497.079068 77.874359 496.976480 78.184615 496.874710 78.494872 496.773764 78.805128 496.673646 79.115385 496.574358 79.425641 496.475906 79.735897 496.378293 80.046154 496.281524 80.356410 496.185601 80.666667 496.090530 80.976923 495.996314 81.287179 495.902957 81.597436 495.810463 81.907692 495.718836 82.217949 495.628080 82.528205 495.538199 82.838462 495.449197 83.148718 495.361079 83.458974 495.273847 83.769231 495.187506 84.079487 495.102060 84.389744 495.017513 84.700000 494.933868 85.010256 494.851131 85.320513 494.769304 85.630769 494.688393 85.941026 494.608400 86.251282 494.529329 86.561538 494.451186 86.871795 494.373973 87.182051 494.297695 87.492308 494.222356 87.802564 494.147959 88.112821 494.074509 88.423077 494.002009 88.733333 493.930464 89.043590 493.859878 89.353846 493.790254 89.664103 493.721596 89.974359 493.653909 90.284615 493.587197 90.594872 493.521463 90.905128 493.456711 91.215385 493.392946 91.525641 493.330171 91.835897 493.268389 92.146154 493.207591 92.456410 493.147769 92.766667 493.088914 93.076923 493.031015 93.387179 492.974064 93.697436 492.918052 94.007692 492.862968 94.317949 492.808804 94.628205 492.755551 94.938462 492.703199 95.248718 492.651738 95.558974 492.601160 95.869231 492.551455 96.179487 492.502613 96.489744 492.454626 96.800000 492.407484 97.110256 492.361178 97.420513 492.315698 97.730769 492.271035 98.041026 492.227181 98.351282 492.184124 98.661538 492.141857 98.971795 492.100369 99.282051 492.059652 99.592308 492.019695 99.902564 491.980491 100.212821 491.942029 100.523077 491.904300 100.833333 491.867295 101.143590 491.831005 101.453846 491.795419 101.764103 491.760529 102.074359 491.726326 102.384615 491.692800 102.694872 491.659942 103.005128 491.627742 103.315385 491.596191 103.625641 491.565280 103.935897 491.535000 104.246154 491.505341 104.556410 491.476293 104.866667 491.447848 105.176923 491.419996 105.487179 491.392729 105.797436 491.366035 106.107692 491.339907 106.417949 491.314334 106.728205 491.289308 107.038462 491.264820 107.348718 491.240859 107.658974 491.217416 107.969231 491.194483 108.279487 491.172050 108.589744 491.150107 108.900000 491.128646 109.210256 491.107656 109.520513 491.087129 109.830769 491.067055 110.141026 491.047425 110.451282 491.028229 110.761538 491.009459 111.071795 490.991105 111.382051 490.973157 111.692308 490.955606 112.002564 490.938443 112.312821 490.921659 112.623077 490.905244 112.933333 490.889189 113.243590 490.873485 113.553846 490.858122 113.864103 490.843091 114.174359 490.828382 114.484615 490.813987 114.794872 490.799895 115.105128 490.786098 115.415385 490.772587 115.725641 490.759351 116.035897 490.746382 116.346154 490.733670 116.656410 490.721206 116.966667 490.708981 117.276923 490.696985 117.587179 490.685210 117.897436 490.673644 118.207692 490.662280 118.517949 490.651108 118.828205 490.640119 119.138462 490.629303 119.448718 490.618651 119.758974 490.608153 120.069231 490.597801 120.379487 490.587585 120.689744 490.577496 121.000000 490.567524 121.310256 490.557659 121.620513 490.547894 121.930769 490.538218 122.241026 490.528622 122.551282 490.519096 122.861538 490.509632 123.171795 490.500220 123.482051 490.490851 123.792308 490.481515 124.102564 490.472203 124.412821 490.462906 124.723077 490.453614 125.033333 490.444318 125.343590 490.435009 125.653846 490.425677 125.964103 490.416314 126.274359 490.406909 126.584615 490.397453 126.894872 490.387938 127.205128 490.378353 127.515385 490.368690 127.825641 490.358938 128.135897 490.349090 128.446154 490.339135 128.756410 490.329064 129.066667 490.318867 129.376923 490.308536 129.687179 490.298062 129.997436 490.287434 130.307692 490.276643 130.617949 490.265681 130.928205 490.254537 131.238462 490.243203 131.548718 490.231668 131.858974 490.219925 132.169231 490.207963 132.479487 490.195773 132.789744 490.183346 133.100000 490.170673 133.410256 490.157743 133.720513 490.144549 134.030769 490.131080 134.341026 490.117327 134.651282 490.103280 134.961538 490.088932 135.271795 490.074271 135.582051 490.059289 135.892308 490.043977 136.202564 490.028325 136.512821 490.012324 136.823077 489.995964 137.133333 489.979237 137.443590 489.962132 137.753846 489.944641 138.064103 489.926754 138.374359 489.908462 138.684615 489.889755 138.994872 489.870624 139.305128 489.851061 139.615385 489.831055 139.925641 489.810597 140.235897 489.789678 140.546154 489.768289 140.856410 489.746419 141.166667 489.724061 141.476923 489.701204 141.787179 489.677840 142.097436 489.653958 142.407692 489.629550 142.717949 489.604606 143.028205 489.579117 143.338462 489.553074 143.648718 489.526466 143.958974 489.499286 144.269231 489.471524 144.579487 489.443169 144.889744 489.414214 145.200000 489.384648 145.510256 489.354462 145.820513 489.323648 146.130769 489.292194 146.441026 489.260094 146.751282 489.227336 147.061538 489.193911 147.371795 489.159812 147.682051 489.125026 147.992308 489.089547 148.302564 489.053364 148.612821 489.016468 148.923077 488.978849 149.233333 488.940499 149.543590 488.901408 149.853846 488.861566 150.164103 488.820965 150.474359 488.779595 150.784615 488.737446 151.094872 488.694510 151.405128 488.650777 151.715385 488.606237 152.025641 488.560882 152.335897 488.514701 152.646154 488.467687 152.956410 488.419828 153.266667 488.371117 153.576923 488.321543 153.887179 488.271098 154.197436 488.219772 154.507692 488.167555 154.817949 488.114439 155.128205 488.060414 155.438462 488.005471 155.748718 487.949600 156.058974 487.892792 156.369231 487.835037 156.679487 487.776327 156.989744 487.716653 157.300000 487.656003 157.610256 487.594371 157.920513 487.531745 158.230769 487.468117 158.541026 487.403478 158.851282 487.337817 159.161538 487.271126 159.471795 487.203396 159.782051 487.134617 160.092308 487.064779 160.402564 486.993874 160.712821 486.921892 161.023077 486.848824 161.333333 486.774660 161.643590 486.699392 161.953846 486.623009 162.264103 486.545503 162.574359 486.466863 162.884615 486.387082 163.194872 486.306149 163.505128 486.224055 163.815385 486.140791 164.125641 486.056347 164.435897 485.970714 164.746154 485.883884 165.056410 485.795845 165.366667 485.706590 165.676923 485.616109 165.987179 485.524392 166.297436 485.431430 166.607692 485.337214 166.917949 485.241735 167.228205 485.144983 167.538462 485.046948 167.848718 484.947623 168.158974 484.846996 168.469231 484.745059 168.779487 484.641803 169.089744 484.537218 169.400000 484.431297 169.710256 484.324043 170.020513 484.215462 170.330769 484.105559 170.641026 483.994338 170.951282 483.881806 171.261538 483.767968 171.571795 483.652829 171.882051 483.536395 172.192308 483.418670 172.502564 483.299660 172.812821 483.179370 173.123077 483.057806 173.433333 482.934973 173.743590 482.810877 174.053846 482.685521 174.364103 482.558913 174.674359 482.431057 174.984615 482.301959 175.294872 482.171623 175.605128 482.040056 175.915385 481.907262 176.225641 481.773246 176.535897 481.638015 176.846154 481.501574 177.156410 481.363927 177.466667 481.225080 177.776923 481.085039 178.087179 480.943808 178.397436 480.801393 178.707692 480.657800 179.017949 480.513033 179.328205 480.367098 179.638462 480.220001 179.948718 480.071746 180.258974 479.922339 180.569231 479.771785 180.879487 479.620090 181.189744 479.467258 181.500000 479.313296 181.810256 479.158208 182.120513 479.002000 182.430769 478.844677 182.741026 478.686245 183.051282 478.526708 183.361538 478.366073 183.671795 478.204343 183.982051 478.041526 184.292308 477.877625 184.602564 477.712647 184.912821 477.546596 185.223077 477.379479 185.533333 477.211299 185.843590 477.042064 186.153846 476.871777 186.464103 476.700444 186.774359 476.528071 187.084615 476.354663 187.394872 476.180225 187.705128 476.004762 188.015385 475.828280 188.325641 475.650785 188.635897 475.472280 188.946154 475.292773 189.256410 475.112267 189.566667 474.930769 189.876923 474.748284 190.187179 474.564816 190.497436 474.380372 190.807692 474.194957 191.117949 474.008575 191.428205 473.821233 191.738462 473.632936 192.048718 473.443688 192.358974 473.253495 192.669231 473.062363 192.979487 472.870297 193.289744 472.677302 193.600000 472.483384 193.910256 472.288547 194.220513 472.092798 194.530769 471.896140 194.841026 471.698581 195.151282 471.500125 195.461538 471.300777 195.771795 471.100542 196.082051 470.899427 196.392308 470.697436 196.702564 470.494575 197.012821 470.290848 197.323077 470.086262 197.633333 469.880822 197.943590 469.674532 198.253846 469.467399 198.564103 469.259427 198.874359 469.050622 199.184615 468.840989 199.494872 468.630534 199.805128 468.419261 200.115385 468.207177 200.425641 467.994286 200.735897 467.780593 201.046154 467.566105 201.356410 467.350826 201.666667 467.134762 201.976923 466.917918 202.287179 466.700299 202.597436 466.481911 202.907692 466.262758 203.217949 466.042847 203.528205 465.822183 203.838462 465.600770 204.148718 465.378615 204.458974 465.155722 204.769231 464.932097 205.079487 464.707746 205.389744 464.482672 205.700000 464.256883 206.010256 464.030382 206.320513 463.803176 206.630769 463.575270 206.941026 463.346669 207.251282 463.117378 207.561538 462.887403 207.871795 462.656749 208.182051 462.425421 208.492308 462.193425 208.802564 461.960766 209.112821 461.727449 209.423077 461.493479 209.733333 461.258863 210.043590 461.023605 210.353846 460.787710 210.664103 460.551184 210.974359 460.314032 211.284615 460.076260 211.594872 459.837873 211.905128 459.598875 212.215385 459.359273 212.525641 459.119072 212.835897 458.878277 213.146154 458.636893 213.456410 458.394926 213.766667 458.152381 214.076923 457.909263 214.387179 457.665578 214.697436 457.421331 215.007692 457.176527 215.317949 456.931172 215.628205 456.685270 215.938462 456.438828 216.248718 456.191850 216.558974 455.944342 216.869231 455.696310 217.179487 455.447758 217.489744 455.198691 217.800000 454.949116 218.110256 454.699037 218.420513 454.448460 218.730769 454.197390 219.041026 453.945832 219.351282 453.693792 219.661538 453.441275 219.971795 453.188286 220.282051 452.934831 220.592308 452.680915 220.902564 452.426543 221.212821 452.171720 221.523077 451.916453 221.833333 451.660746 222.143590 451.404604 222.453846 451.148033 222.764103 450.891038 223.074359 450.633625 223.384615 450.375799 223.694872 450.117564 224.005128 449.858927 224.315385 449.599893 224.625641 449.340467 224.935897 449.080654 225.246154 448.820460 225.556410 448.559890 225.866667 448.298949 226.176923 448.037643 226.487179 447.775977 226.797436 447.513956 227.107692 447.251585 227.417949 446.988871 227.728205 446.725818 228.038462 446.462431 228.348718 446.198716 228.658974 445.934678 228.969231 445.670323 229.279487 445.405656 229.589744 445.140681 229.900000 444.875405 230.210256 444.609833 230.520513 444.343970 230.830769 444.077821 231.141026 443.811392 231.451282 443.544688 231.761538 443.277714 232.071795 443.010476 232.382051 442.742978 232.692308 442.475227 233.002564 442.207228 233.312821 441.938985 233.623077 441.670505 233.933333 441.401792 234.243590 441.132852 234.553846 440.863690 234.864103 440.594312 235.174359 440.324722 235.484615 440.054927 235.794872 439.784931 236.105128 439.514740 236.415385 439.244358 236.725641 438.973792 237.035897 438.703047 237.346154 438.432128 237.656410 438.161040 237.966667 437.889789 238.276923 437.618379 238.587179 437.346817 238.897436 437.075108 239.207692 436.803256 239.517949 436.531268 239.828205 436.259148 240.138462 435.986902 240.448718 435.714535 240.758974 435.442052 241.069231 435.169460 241.379487 434.896762 241.689744 434.623965 242.000000 434.351074 242.310256 434.078093 242.620513 433.805029 242.930769 433.531887 243.241026 433.258671 243.551282 432.985388 243.861538 432.712043 244.171795 432.438641 244.482051 432.165186 244.792308 431.891686 245.102564 431.618144 245.412821 431.344566 245.723077 431.070958 246.033333 430.797325 246.343590 430.523672 246.653846 430.250005 246.964103 429.976328 247.274359 429.702650 247.584615 429.428978 247.894872 429.155320 248.205128 428.881683 248.515385 428.608075 248.825641 428.334503 249.135897 428.060976 249.446154 427.787501 249.756410 427.514085 250.066667 427.240736 250.376923 426.967461 250.687179 426.694269 250.997436 426.421167 251.307692 426.148163 251.617949 425.875264 251.928205 425.602477 252.238462 425.329811 252.548718 425.057274 252.858974 424.784872 253.169231 424.512613 253.479487 424.240505 253.789744 423.968556 254.100000 423.696773 254.410256 423.425164 254.720513 423.153737 255.030769 422.882499 255.341026 422.611457 255.651282 422.340620 255.961538 422.069995 256.271795 421.799589 256.582051 421.529411 256.892308 421.259468 257.202564 420.989767 257.512821 420.720316 257.823077 420.451124 258.133333 420.182196 258.443590 419.913542 258.753846 419.645168 259.064103 419.377083 259.374359 419.109293 259.684615 418.841808 259.994872 418.574633 260.305128 418.307777 260.615385 418.041248 260.925641 417.775052 261.235897 417.509199 261.546154 417.243695 261.856410 416.978547 262.166667 416.713765 262.476923 416.449354 262.787179 416.185324 263.097436 415.921681 263.407692 415.658433 263.717949 415.395588 264.028205 415.133153 264.338462 414.871136 264.648718 414.609545 264.958974 414.348387 265.269231 414.087670 265.579487 413.827401 265.889744 413.567589 266.200000 413.308240 266.510256 413.049363 266.820513 412.790965 267.130769 412.533053 267.441026 412.275636 267.751282 412.018721 268.061538 411.762315 268.371795 411.506426 268.682051 411.251063 268.992308 410.996231 269.302564 410.741940 269.612821 410.488196 269.923077 410.235008 270.233333 409.982383 270.543590 409.730328 270.853846 409.478852 271.164103 409.227961 271.474359 408.977664 271.784615 408.727968 272.094872 408.478880 272.405128 408.230409 272.715385 407.982562 273.025641 407.735347 273.335897 407.488771 273.646154 407.242841 273.956410 406.997566 274.266667 406.752954 274.576923 406.509011 274.887179 406.265745 275.197436 406.023165 275.507692 405.781277 275.817949 405.540089 276.128205 405.299609 276.438462 405.059845 276.748718 404.820804 277.058974 404.582494 277.369231 404.344922 277.679487 404.108096 277.989744 403.872024 278.300000 403.636713 278.610256 403.402171 278.920513 403.168406 279.230769 402.935425 279.541026 402.703236 279.851282 402.471846 280.161538 402.241263 280.471795 402.011495 280.782051 401.782549 281.092308 401.554434 281.402564 401.327155 281.712821 401.100722 282.023077 400.875142 282.333333 400.650423 282.643590 400.426571 282.953846 400.203595 283.264103 399.981503 283.574359 399.760302 283.884615 399.539999 284.194872 399.320602 284.505128 399.102120 284.815385 398.884558 285.125641 398.667926 285.435897 398.452231 285.746154 398.237480 286.056410 398.023682 286.366667 397.810842 286.676923 397.598971 286.987179 397.388074 287.297436 397.178159 287.607692 396.969235 287.917949 396.761308 288.228205 396.554387 288.538462 396.348480 288.848718 396.143592 289.158974 395.939733 289.469231 395.736910 289.779487 395.535131 290.089744 395.334403 290.400000 395.134733 290.710256 394.936130 291.020513 394.738602 291.330769 394.542154 291.641026 394.346797 291.951282 394.152536 292.261538 393.959380 292.571795 393.767336 292.882051 393.576412 293.192308 393.386615 293.502564 393.197953 293.812821 393.010435 294.123077 392.824066 294.433333 392.638856 294.743590 392.454811 295.053846 392.271940 295.364103 392.090249 295.674359 391.909747 295.984615 391.730441 296.294872 391.552339 296.605128 391.375449 296.915385 391.199777 297.225641 391.025332 297.535897 390.852121 297.846154 390.680153 298.156410 390.509433 298.466667 390.339971 298.776923 390.171774 299.087179 390.004850 299.397436 389.839205 299.707692 389.674848 300.017949 389.511786 300.328205 389.350028 300.638462 389.189579 300.948718 389.030450 301.258974 388.872645 301.569231 388.716175 301.879487 388.561045 302.189744 388.407265 302.500000 388.254840 302.810256 388.103780 303.120513 387.954091 303.430769 387.805782 303.741026 387.658859 304.051282 387.513331 304.361538 387.369205 304.671795 387.226489 304.982051 387.085190 305.292308 386.945316 305.602564 386.806875 305.912821 386.669874 306.223077 386.534321 306.533333 386.400223 306.843590 386.267589 307.153846 386.136425 307.464103 386.006740 307.774359 385.878541 308.084615 385.751836 308.394872 385.626632 308.705128 385.502937 309.015385 385.380758 309.325641 385.260104 309.635897 385.140982 309.946154 385.023398 310.256410 384.907362 310.566667 384.792881 310.876923 384.679962 311.187179 384.568613 311.497436 384.458842 311.807692 384.350656 312.117949 384.244063 312.428205 384.139070 312.738462 384.035685 313.048718 383.933916 313.358974 383.833771 313.669231 383.735256 313.979487 383.638380 314.289744 383.543151 314.600000 383.449575 314.910256 383.357661 315.220513 383.267415 315.530769 383.178847 315.841026 383.091963 316.151282 383.006771 316.461538 382.923279 316.771795 382.841494 317.082051 382.761424 317.392308 382.683077 317.702564 382.606459 318.012821 382.531580 318.323077 382.458446 318.633333 382.387065 318.943590 382.317445 319.253846 382.249593 319.564103 382.183517 319.874359 382.119224 320.184615 382.056723 320.494872 381.996020 320.805128 381.937125 321.115385 381.880043 321.425641 381.824783 321.735897 381.771352 322.046154 381.719758 322.356410 381.670009 322.666667 381.622112 322.976923 381.576075 323.287179 381.531905 323.597436 381.489611 323.907692 381.449199 324.217949 381.410678 324.528205 381.374050 324.838462 381.339296 325.148718 381.306392 325.458974 381.275316 325.769231 381.246044 326.079487 381.218552 326.389744 381.192816 326.700000 381.168813 327.010256 381.146519 327.320513 381.125911 327.630769 381.106965 327.941026 381.089657 328.251282 381.073964 328.561538 381.059863 328.871795 381.047329 329.182051 381.036339 329.492308 381.026870 329.802564 381.018897 330.112821 381.012398 330.423077 381.007348 330.733333 381.003725 331.043590 381.001504 331.353846 381.000662 331.664103 381.001176 331.974359 381.003021 332.284615 381.006174 332.594872 381.010611 332.905128 381.016310 333.215385 381.023246 333.525641 381.031395 333.835897 381.040735 334.146154 381.051241 334.456410 381.062891 334.766667 381.075659 335.076923 381.089524 335.387179 381.104460 335.697436 381.120445 336.007692 381.137455 336.317949 381.155466 336.628205 381.174455 336.938462 381.194399 337.248718 381.215273 337.558974 381.237053 337.869231 381.259718 338.179487 381.283241 338.489744 381.307602 338.800000 381.332774 339.110256 381.358736 339.420513 381.385463 339.730769 381.412932 340.041026 381.441119 340.351282 381.470001 340.661538 381.499554 340.971795 381.529754 341.282051 381.560578 341.592308 381.592002 341.902564 381.624003 342.212821 381.656557 342.523077 381.689641 342.833333 381.723230 343.143590 381.757301 343.453846 381.791831 343.764103 381.826796 344.074359 381.862173 344.384615 381.897938 344.694872 381.934066 345.005128 381.970536 345.315385 382.007322 345.625641 382.044402 345.935897 382.081752 346.246154 382.119348 346.556410 382.157167 346.866667 382.195185 347.176923 382.233378 347.487179 382.271723 347.797436 382.310197 348.107692 382.348775 348.417949 382.387435 348.728205 382.426152 349.038462 382.464902 349.348718 382.503664 349.658974 382.542411 349.969231 382.581123 350.279487 382.619773 350.589744 382.658340 350.900000 382.696798 351.210256 382.735126 351.520513 382.773299 351.830769 382.811293 352.141026 382.849085 352.451282 382.886652 352.761538 382.923969 353.071795 382.961014 353.382051 382.997762 353.692308 383.034190 354.002564 383.070274 354.312821 383.105992 354.623077 383.141318 354.933333 383.176230 355.243590 383.210704 355.553846 383.244717 355.864103 383.278244 356.174359 383.311262 356.484615 383.343748 356.794872 383.375679 357.105128 383.407029 357.415385 383.437776 357.725641 383.467897 358.035897 383.497367 358.346154 383.526163 358.656410 383.554262 358.966667 383.581639 359.276923 383.608272 359.587179 383.634137 359.897436 383.659209 360.207692 383.683466 360.517949 383.706884 360.828205 383.729439 361.138462 383.751107 361.448718 383.771866 361.758974 383.791691 362.069231 383.810560 362.379487 383.828447 362.689744 383.845330 363.000000 383.861185 363.310256 383.875989 363.620513 383.889718 363.930769 383.902347 364.241026 383.913855 364.551282 383.924217 364.861538 383.933409 365.171795 383.941408 365.482051 383.948191 365.792308 383.953733 366.102564 383.958011 366.412821 383.961002 366.723077 383.962682 367.033333 383.963027 367.343590 383.962014 367.653846 383.959619 367.964103 383.955819 368.274359 383.950589 368.584615 383.943907 368.894872 383.935749 369.205128 383.926091 369.515385 383.914909 369.825641 383.902180 370.135897 383.887881 370.446154 383.871988 370.756410 383.854477 371.066667 383.835324 371.376923 383.814506 371.687179 383.792000 371.997436 383.767782 372.307692 383.741827 372.617949 383.714114 372.928205 383.684617 373.238462 383.653314 373.548718 383.620181 373.858974 383.585194 374.169231 383.548329 374.479487 383.509564 374.789744 383.468874 375.100000 383.426235 375.410256 383.381626 375.720513 383.335020 376.030769 383.286396 376.341026 383.235729 376.651282 383.182996 376.961538 383.128174 377.271795 383.071238 377.582051 383.012165 377.892308 382.950932 378.202564 382.887514 378.512821 382.821889 378.823077 382.754032 379.133333 382.683921 379.443590 382.611531 379.753846 382.536839 380.064103 382.459821 380.374359 382.380454 380.684615 382.298714 380.994872 382.214578 381.305128 382.128021 381.615385 382.039021 381.925641 381.947554 382.235897 381.853595 382.546154 381.757122 382.856410 381.658112 383.166667 381.556539 383.476923 381.452381 383.787179 381.345615 384.097436 381.236216 384.407692 381.124161 384.717949 381.009426 385.028205 380.891988 385.338462 380.771823 385.648718 380.648908 385.958974 380.523219 386.269231 380.394732 386.579487 380.263424 386.889744 380.129271 387.200000 379.992250 387.510256 379.852337 387.820513 379.709508 388.130769 379.563740 388.441026 379.415009 388.751282 379.263291 389.061538 379.108564 389.371795 378.950803 389.682051 378.789985 389.992308 378.626087 390.302564 378.459084 390.612821 378.288953 390.923077 378.115670 391.233333 377.939212 391.543590 377.759556 391.853846 377.576677 392.164103 377.390552 392.474359 377.201157 392.784615 377.008470 393.094872 376.812466 393.405128 376.613121 393.715385 376.410413 394.025641 376.204317 394.335897 375.994809 394.646154 375.781868 394.956410 375.565467 395.266667 375.345585 395.576923 375.122198 395.887179 374.895281 396.197436 374.664812 396.507692 374.430766 396.817949 374.193120 397.128205 373.951851 397.438462 373.706935 397.748718 373.458349 398.058974 373.206068 398.369231 372.950069 398.679487 372.690328 398.989744 372.426823 399.300000 372.159529 399.610256 371.888422 399.920513 371.613480 400.230769 371.334679 400.541026 371.051994 400.851282 370.765403 401.161538 370.474881 401.471795 370.180406 401.782051 369.881953 402.092308 369.579508 402.402564 369.273089 402.712821 368.962724 403.023077 368.648440 403.333333 368.330265 403.643590 368.008226 403.953846 367.682350 404.264103 367.352665 404.574359 367.019199 404.884615 366.681979 405.194872 366.341032 405.505128 365.996385 405.815385 365.648067 406.125641 365.296104 406.435897 364.940524 406.746154 364.581355 407.056410 364.218623 407.366667 363.852357 407.676923 363.482583 407.987179 363.109329 408.297436 362.732623 408.607692 362.352492 408.917949 361.968963 409.228205 361.582063 409.538462 361.191821 409.848718 360.798264 410.158974 360.401419 410.469231 360.001313 410.779487 359.597974 411.089744 359.191429 411.400000 358.781706 411.710256 358.368833 412.020513 357.952836 412.330769 357.533743 412.641026 357.111581 412.951282 356.686379 413.261538 356.258162 413.571795 355.826960 413.882051 355.392798 414.192308 354.955705 414.502564 354.515709 414.812821 354.072835 415.123077 353.627113 415.433333 353.178569 415.743590 352.727230 416.053846 352.273125 416.364103 351.816280 416.674359 351.356723 416.984615 350.894482 417.294872 350.429584 417.605128 349.962055 417.915385 349.491925 418.225641 349.019220 418.535897 348.543967 418.846154 348.066194 419.156410 347.585929 419.466667 347.103198 419.776923 346.618030 420.087179 346.130451 420.397436 345.640490 420.707692 345.148173 421.017949 344.653528 421.328205 344.156582 421.638462 343.657364 421.948718 343.155899 422.258974 342.652216 422.569231 342.146343 422.879487 341.638305 423.189744 341.128132 423.500000 340.615850 423.810256 340.101487 424.120513 339.585070 424.430769 339.066627 424.741026 338.546185 425.051282 338.023771 425.361538 337.499414 425.671795 336.973139 425.982051 336.444976 426.292308 335.914950 426.602564 335.383091 426.912821 334.849424 427.223077 334.313978 427.533333 333.776780 427.843590 333.237857 428.153846 332.697236 428.464103 332.154947 428.774359 331.611014 429.084615 331.065467 429.394872 330.518332 429.705128 329.969637 430.015385 329.419410 430.325641 328.867677 430.635897 328.314466 430.946154 327.759805 431.256410 327.203721 431.566667 326.646241 431.876923 326.087394 432.187179 325.527205 432.497436 324.965703 432.807692 324.402916 433.117949 323.838870 433.428205 323.273593 433.738462 322.707113 434.048718 322.139456 434.358974 321.570651 434.669231 321.000724 434.979487 320.429703 435.289744 319.857616 435.600000 319.284490 435.910256 318.710353 436.220513 318.135231 436.530769 317.559153 436.841026 316.982145 437.151282 316.404235 437.461538 315.825451 437.771795 315.245820 438.082051 314.665370 438.392308 314.084127 438.702564 313.502119 439.012821 312.919374 439.323077 312.335919 439.633333 311.751782 439.943590 311.166990 440.253846 310.581570 440.564103 309.995549 440.874359 309.408956 441.184615 308.821818 441.494872 308.234162 441.805128 307.646015 442.115385 307.057406 442.425641 306.468360 442.735897 305.878907 443.046154 305.289072 443.356410 304.698884 443.666667 304.108371 443.976923 303.517559 444.287179 302.926475 444.597436 302.335148 444.907692 301.743605 445.217949 301.151873 445.528205 300.559980 445.838462 299.967953 446.148718 299.375819 446.458974 298.783606 446.769231 298.191341 447.079487 297.599053 447.389744 297.006767 447.700000 296.414512 448.010256 295.822315 448.320513 295.230203 448.630769 294.638205 448.941026 294.046346 449.251282 293.454656 449.561538 292.863160 449.871795 292.271887 450.182051 291.680865 450.492308 291.090119 450.802564 290.499679 451.112821 289.909570 451.423077 289.319822 451.733333 288.730460 452.043590 288.141514 452.353846 287.553009 452.664103 286.964973 452.974359 286.377435 453.284615 285.790420 453.594872 285.203958 453.905128 284.618074 454.215385 284.032798 454.525641 283.448155 454.835897 282.864173 455.146154 282.280880 455.456410 281.698304 455.766667 281.116471 456.076923 280.535410 456.387179 279.955146 456.697436 279.375709 457.007692 278.797125 457.317949 278.219422 457.628205 277.642628 457.938462 277.066769 458.248718 276.491873 458.558974 275.917967 458.869231 275.345080 459.179487 274.773238 459.489744 274.202468 459.800000 273.632799 460.110256 273.064258 460.420513 272.496871 460.730769 271.930667 461.041026 271.365673 461.351282 270.801917 461.661538 270.239425 461.971795 269.678225 462.282051 269.118345 462.592308 268.559812 462.902564 268.002654 463.212821 267.446897 463.523077 266.892570 463.833333 266.339699 464.143590 265.788313 464.453846 265.238438 464.764103 264.690103 465.074359 264.143334 465.384615 263.598158 465.694872 263.054604 466.005128 262.512699 466.315385 261.972470 466.625641 261.433944 466.935897 260.897150 467.246154 260.362114 467.556410 259.828864 467.866667 259.297427 468.176923 258.767831 468.487179 258.240103 468.797436 257.714270 469.107692 257.190361 469.417949 256.668402 469.728205 256.148421 470.038462 255.630445 470.348718 255.114502 470.658974 254.600619 470.969231 254.088823 471.279487 253.579143 471.589744 253.071605 471.900000 252.566237 472.210256 252.063066 472.520513 251.562119 472.830769 251.063425 473.141026 250.567011 473.451282 250.072903 473.761538 249.581130 474.071795 249.091718 474.382051 248.604696 474.692308 248.120091 475.002564 247.637929 475.312821 247.158239 475.623077 246.681048 475.933333 246.206384 476.243590 245.734273 476.553846 245.264743 476.864103 244.797822 477.174359 244.333538 477.484615 243.871916 477.794872 243.412986 478.105128 242.956774 478.415385 242.503307 478.725641 242.052614 479.035897 241.604722 479.346154 241.159658 479.656410 240.717442 479.966667 240.278066 480.276923 239.841515 480.587179 239.407773 480.897436 238.976826 481.207692 238.548657 481.517949 238.123252 481.828205 237.700594 482.138462 237.280670 482.448718 236.863463 482.758974 236.448958 483.069231 236.037139 483.379487 235.627992 483.689744 235.221501 484.000000 234.817651 484.310256 234.416426 484.620513 234.017811 484.930769 233.621790 485.241026 233.228349 485.551282 232.837472 485.861538 232.449143 486.171795 232.063348 486.482051 231.680071 486.792308 231.299296 487.102564 230.921008 487.412821 230.545192 487.723077 230.171833 488.033333 229.800915 488.343590 229.432423 488.653846 229.066341 488.964103 228.702655 489.274359 228.341348 489.584615 227.982406 489.894872 227.625812 490.205128 227.271553 490.515385 226.919612 490.825641 226.569974 491.135897 226.222624 491.446154 225.877547 491.756410 225.534726 492.066667 225.194147 492.376923 224.855794 492.687179 224.519653 492.997436 224.185707 493.307692 223.853942 493.617949 223.524341 493.928205 223.196890 494.238462 222.871574 494.548718 222.548376 494.858974 222.227282 495.169231 221.908276 495.479487 221.591343 495.789744 221.276468 496.100000 220.963635 496.410256 220.652829 496.720513 220.344035 497.030769 220.037236 497.341026 219.732419 497.651282 219.429567 497.961538 219.128665 498.271795 218.829698 498.582051 218.532651 498.892308 218.237507 499.202564 217.944253 499.512821 217.652871 499.823077 217.363348 500.133333 217.075668 500.443590 216.789815 500.753846 216.505775 501.064103 216.223531 501.374359 215.943068 501.684615 215.664371 501.994872 215.387425 502.305128 215.112215 502.615385 214.838724 502.925641 214.566938 503.235897 214.296842 503.546154 214.028419 503.856410 213.761655 504.166667 213.496534 504.476923 213.233042 504.787179 212.971161 505.097436 212.710878 505.407692 212.452177 505.717949 212.195043 506.028205 211.939460 506.338462 211.685412 506.648718 211.432885 506.958974 211.181864 507.269231 210.932332 507.579487 210.684275 507.889744 210.437676 508.200000 210.192522 508.510256 209.948796 508.820513 209.706483 509.130769 209.465568 509.441026 209.226036 509.751282 208.987870 510.061538 208.751057 510.371795 208.515579 510.682051 208.281423 510.992308 208.048572 511.302564 207.817012 511.612821 207.586727 511.923077 207.357701 512.233333 207.129920 512.543590 206.903368 512.853846 206.678029 513.164103 206.453889 513.474359 206.230932 513.784615 206.009142 514.094872 205.788504 514.405128 205.569004 514.715385 205.350625 515.025641 205.133352 515.335897 204.917170 515.646154 204.702064 515.956410 204.488018 516.266667 204.275017 516.576923 204.063045 516.887179 203.852087 517.197436 203.642128 517.507692 203.433153 517.817949 203.225146 518.128205 203.018092 518.438462 202.811975 518.748718 202.606780 519.058974 202.402492 519.369231 202.199095 519.679487 201.996575 519.989744 201.794915 520.300000 201.594100 520.610256 201.394116 520.920513 201.194946 521.230769 200.996576 521.541026 200.798989 521.851282 200.602171 522.161538 200.406107 522.471795 200.210780 522.782051 200.016176 523.092308 199.822280 523.402564 199.629075 523.712821 199.436547 524.023077 199.244680 524.333333 199.053459 524.643590 198.862869 524.953846 198.672894 525.264103 198.483519 525.574359 198.294728 525.884615 198.106506 526.194872 197.918838 526.505128 197.731709 526.815385 197.545103 527.125641 197.359005 527.435897 197.173399 527.746154 196.988270 528.056410 196.803603 528.366667 196.619383 528.676923 196.435593 528.987179 196.252219 529.297436 196.069246 529.607692 195.886658 529.917949 195.704439 530.228205 195.522575 530.538462 195.341050 530.848718 195.159848 531.158974 194.978955 531.469231 194.798355 531.779487 194.618032 532.089744 194.437972 532.400000 194.258158 532.710256 194.078577 533.020513 193.899211 533.330769 193.720047 533.641026 193.541068 533.951282 193.362259 534.261538 193.183605 534.571795 193.005091 534.882051 192.826700 535.192308 192.648419 535.502564 192.470231 535.812821 192.292122 536.123077 192.114075 536.433333 191.936075 536.743590 191.758108 537.053846 191.580158 537.364103 191.402209 537.674359 191.224246 537.984615 191.046253 538.294872 190.868217 538.605128 190.690120 538.915385 190.511948 539.225641 190.333685 539.535897 190.155317 539.846154 189.976827 540.156410 189.798200 540.466667 189.619422 540.776923 189.440476 541.087179 189.261347 541.397436 189.082020 541.707692 188.902480 542.017949 188.722712 542.328205 188.542699 542.638462 188.362426 542.948718 188.181879 543.258974 188.001042 543.569231 187.819900 543.879487 187.638436 544.189744 187.456637 544.500000 187.274486 544.810256 187.091968 545.120513 186.909068 545.430769 186.725771 545.741026 186.542060 546.051282 186.357922 546.361538 186.173340 546.671795 185.988299 546.982051 185.802783 547.292308 185.616779 547.602564 185.430269 547.912821 185.243239 548.223077 185.055673 548.533333 184.867557 548.843590 184.678874 549.153846 184.489609 549.464103 184.299748 549.774359 184.109274 550.084615 183.918172 550.394872 183.726428 550.705128 183.534025 551.015385 183.340948 551.325641 183.147183 551.635897 182.952712 551.946154 182.757523 552.256410 182.561598 552.566667 182.364922 552.876923 182.167481 553.187179 181.969259 553.497436 181.770240 553.807692 181.570410 554.117949 181.369752 554.428205 181.168252 554.738462 180.965894 555.048718 180.762663 555.358974 180.558543 555.669231 180.353519 555.979487 180.147576 556.289744 179.940699 556.600000 179.732871 556.910256 179.524079 557.220513 179.314309 557.530769 179.103561 557.841026 178.891839 558.151282 178.679145 558.461538 178.465483 558.771795 178.250856 559.082051 178.035267 559.392308 177.818718 559.702564 177.601214 560.012821 177.382756 560.323077 177.163348 560.633333 176.942994 560.943590 176.721695 561.253846 176.499456 561.564103 176.276279 561.874359 176.052168 562.184615 175.827125 562.494872 175.601153 562.805128 175.374256 563.115385 175.146436 563.425641 174.917697 563.735897 174.688042 564.046154 174.457474 564.356410 174.225995 564.666667 173.993610 564.976923 173.760320 565.287179 173.526130 565.597436 173.291041 565.907692 173.055058 566.217949 172.818183 566.528205 172.580419 566.838462 172.341770 567.148718 172.102238 567.458974 171.861826 567.769231 171.620538 568.079487 171.378377 568.389744 171.135345 568.700000 170.891446 569.010256 170.646683 569.320513 170.401059 569.630769 170.154576 569.941026 169.907239 570.251282 169.659050 570.561538 169.410012 570.871795 169.160128 571.182051 168.909401 571.492308 168.657834 571.802564 168.405431 572.112821 168.152194 572.423077 167.898127 572.733333 167.643233 573.043590 167.387514 573.353846 167.130973 573.664103 166.873615 573.974359 166.615441 574.284615 166.356455 574.594872 166.096660 574.905128 165.836059 575.215385 165.574655 575.525641 165.312451 575.835897 165.049451 576.146154 164.785656 576.456410 164.521071 576.766667 164.255699 577.076923 163.989541 577.387179 163.722603 577.697436 163.454885 578.007692 163.186393 578.317949 162.917128 578.628205 162.647094 578.938462 162.376294 579.248718 162.104730 579.558974 161.832407 579.869231 161.559326 580.179487 161.285492 580.489744 161.010907 580.800000 160.735574 581.110256 160.459496 581.420513 160.182677 581.730769 159.905119 582.041026 159.626825 582.351282 159.347799 582.661538 159.068043 582.971795 158.787561 583.282051 158.506356 583.592308 158.224431 583.902564 157.941788 584.212821 157.658432 584.523077 157.374364 584.833333 157.089588 585.143590 156.804107 585.453846 156.517925 585.764103 156.231044 586.074359 155.943467 586.384615 155.655197 586.694872 155.366238 587.005128 155.076592 587.315385 154.786262 587.625641 154.495253 587.935897 154.203566 588.246154 153.911204 588.556410 153.618172 588.866667 153.324471 589.176923 153.030105 589.487179 152.735077 589.797436 152.439390 590.107692 152.143047 590.417949 151.846052 590.728205 151.548406 591.038462 151.250114 591.348718 150.951178 591.658974 150.651602 591.969231 150.351388 592.279487 150.050540 592.589744 149.749060 592.900000 149.446952 593.210256 149.144218 593.520513 148.840863 593.830769 148.536888 594.141026 148.232297 594.451282 147.927093 594.761538 147.621279 595.071795 147.314859 595.382051 147.007834 595.692308 146.700209 596.002564 146.391985 596.312821 146.083168 596.623077 145.773758 596.933333 145.463761 597.243590 145.153177 597.553846 144.842012 597.864103 144.530267 598.174359 144.217945 598.484615 143.905051 598.794872 143.591586 599.105128 143.277554 599.415385 142.962959 599.725641 142.647802 600.035897 142.332087 600.346154 142.015818 600.656410 141.698997 600.966667 141.381627 601.276923 141.063711 601.587179 140.745253 601.897436 140.426256 602.207692 140.106722 602.517949 139.786654 602.828205 139.466056 603.138462 139.144931 603.448718 138.823282 603.758974 138.501112 604.069231 138.178423 604.379487 137.855220 604.689744 137.531505 605.000000 137.207280 605.310256 136.882550 605.620513 136.557317 605.930769 136.231585 606.241026 135.905356 606.551282 135.578633 606.861538 135.251420 607.171795 134.923719 607.482051 134.595534 607.792308 134.266868 608.102564 133.937723 608.412821 133.608103 608.723077 133.278012 609.033333 132.947451 609.343590 132.616424 609.653846 132.284934 609.964103 131.952984 610.274359 131.620577 610.584615 131.287717 610.894872 130.954406 611.205128 130.620648 611.515385 130.286444 611.825641 129.951800 612.135897 129.616717 612.446154 129.281198 612.756410 128.945247 613.066667 128.608867 613.376923 128.272061 613.687179 127.934832 613.997436 127.597183 614.307692 127.259116 614.617949 126.920636 614.928205 126.581745 615.238462 126.242446 615.548718 125.902742 615.858974 125.562637 616.169231 125.222133 616.479487 124.881234 616.789744 124.539942 617.100000 124.198260 617.410256 123.856192 617.720513 123.513741 618.030769 123.170910 618.341026 122.827702 618.651282 122.484119 618.961538 122.140166 619.271795 121.795844 619.582051 121.451158 619.892308 121.106109 620.202564 120.760702 620.512821 120.414939 620.823077 120.068824 621.133333 119.722359 621.443590 119.375547 621.753846 119.028392 622.064103 118.680897 622.374359 118.333064 622.684615 117.984897 622.994872 117.636398 623.305128 117.287572 623.615385 116.938420 623.925641 116.588946 624.235897 116.239154 624.546154 115.889045 624.856410 115.538624 625.166667 115.187893 625.476923 114.836855 625.787179 114.485513 626.097436 114.133871 626.407692 113.781932 626.717949 113.429698 627.028205 113.077172 627.338462 112.724358 627.648718 112.371259 627.958974 112.017878 628.269231 111.664217 628.579487 111.310281 628.889744 110.956071 629.200000 110.601592 629.510256 110.246845 629.820513 109.891835 630.130769 109.536564 630.441026 109.181035 630.751282 108.825252 631.061538 108.469217 631.371795 108.112934 631.682051 107.756405 631.992308 107.399633 632.302564 107.042623 632.612821 106.685376 632.923077 106.327896 633.233333 105.970185 633.543590 105.612248 633.853846 105.254087 634.164103 104.895705 634.474359 104.537104 634.784615 104.178289 635.094872 103.819260 635.405128 103.460017 635.715385 103.100563 636.025641 102.740897 636.335897 102.381020 636.646154 102.020934 636.956410 101.660639 637.266667 101.300136 637.576923 100.939426 637.887179 100.578509 638.197436 100.217388 638.507692 99.856061 638.817949 99.494532 639.128205 99.132799 639.438462 98.770864 639.748718 98.408729 640.058974 98.046393 640.369231 97.683858 640.679487 97.321124 640.989744 96.958193 641.300000 96.595065 641.610256 96.231740 641.920513 95.868221 642.230769 95.504508 642.541026 95.140601 642.851282 94.776502 643.161538 94.412212 643.471795 94.047730 643.782051 93.683059 644.092308 93.318198 644.402564 92.953150 644.712821 92.587914 645.023077 92.222491 645.333333 91.856883 645.643590 91.491090 645.953846 91.125114 646.264103 90.758954 646.574359 90.392612 646.884615 90.026089 647.194872 89.659385 647.505128 89.292502 647.815385 88.925440 648.125641 88.558200 648.435897 88.190783 648.746154 87.823190 649.056410 87.455422 649.366667 87.087479 649.676923 86.719363 649.987179 86.351074 650.297436 85.982613 650.607692 85.613981 650.917949 85.245179 651.228205 84.876208 651.538462 84.507068 651.848718 84.137761 652.158974 83.768287 652.469231 83.398647 652.779487 83.028842 653.089744 82.658873 653.400000 82.288741 653.710256 81.918447 654.020513 81.547991 654.330769 81.177374 654.641026 80.806597 654.951282 80.435661 655.261538 80.064568 655.571795 79.693317 655.882051 79.321909 656.192308 78.950346 656.502564 78.578629 656.812821 78.206757 657.123077 77.834733 657.433333 77.462557 657.743590 77.090229 658.053846 76.717751 658.364103 76.345123 658.674359 75.972347 658.984615 75.599423 659.294872 75.226352 659.605128 74.853135 659.915385 74.479773 660.225641 74.106266 660.535897 73.732616 660.846154 73.358823 661.156410 72.984889 661.466667 72.610813 661.776923 72.236598 662.087179 71.862243 662.397436 71.487750 662.707692 71.113119 663.017949 70.738352 663.328205 70.363449 663.638462 69.988411 663.948718 69.613239 664.258974 69.237934 664.569231 68.862497 664.879487 68.486928 665.189744 68.111228 665.500000 67.735399 665.810256 67.359441 666.120513 66.983354 666.430769 66.607141 666.741026 66.230801 667.051282 65.854336 667.361538 65.477746 667.671795 65.101033 667.982051 64.724196 668.292308 64.347238 668.602564 63.970158 668.912821 63.592959 669.223077 63.215639 669.533333 62.838201 669.843590 62.460646 670.153846 62.082973 670.464103 61.705185 670.774359 61.327281 671.084615 60.949263 671.394872 60.571132 671.705128 60.192888 672.015385 59.814533 672.325641 59.436066 672.635897 59.057490 672.946154 58.678804 673.256410 58.300010 673.566667 57.921109 673.876923 57.542101 674.187179 57.162988 674.497436 56.783769 674.807692 56.404447 675.117949 56.025022 675.428205 55.645494 675.738462 55.265865 676.048718 54.886135 676.358974 54.506306 676.669231 54.126378 676.979487 53.746352 677.289744 53.366229 677.600000 52.986009 677.910256 52.605694 678.220513 52.225285 678.530769 51.844782 678.841026 51.464186 679.151282 51.083499 679.461538 50.702720 679.771795 50.321851 680.082051 49.940892 680.392308 49.559846 680.702564 49.178711 681.012821 48.797490 681.323077 48.416182 681.633333 48.034790 681.943590 47.653314 682.253846 47.271754 682.564103 46.890111 682.874359 46.508387 683.184615 46.126582 683.494872 45.744698 683.805128 45.362734 684.115385 44.980692 684.425641 44.598573 684.735897 44.216377 685.046154 43.834106 685.356410 43.451759 685.666667 43.069339 685.976923 42.686846 686.287179 42.304281 686.597436 41.921644 686.907692 41.538937 687.217949 41.156161 687.528205 40.773315 687.838462 40.390402 688.148718 40.007422 688.458974 39.624375 688.769231 39.241264 689.079487 38.858087 689.389744 38.474848 689.700000 38.091545 690.010256 37.708181 690.320513 37.324755 690.630769 36.941270 690.941026 36.557725 691.251282 36.174121 691.561538 35.790461 691.871795 35.406743 692.182051 35.022970 692.492308 34.639141 692.802564 34.255259 693.112821 33.871323 693.423077 33.487335 693.733333 33.103295 694.043590 32.719204 694.353846 32.335064 694.664103 31.950875 694.974359 31.566637 695.284615 31.182352 695.594872 30.798021 695.905128 30.413645 696.215385 30.029223 696.525641 29.644758 696.835897 29.260250 697.146154 28.875700 697.456410 28.491108 697.766667 28.106476 698.076923 27.721805 698.387179 27.337095 698.697436 26.952347 699.007692 26.567562 699.317949 26.182741 699.628205 25.797885 699.938462 25.412995 700.248718 25.028071 700.558974 24.643114 700.869231 24.258126 701.179487 23.873106 701.489744 23.488057 701.800000 23.102978 702.110256 22.717871 702.420513 22.332737 702.730769 21.947575 703.041026 21.562388 703.351282 21.177177 703.661538 20.791941 703.971795 20.406681 704.282051 20.021400 704.592308 19.636097 704.902564 19.250773 705.212821 18.865430 705.523077 18.480068 705.833333 18.094688 706.143590 17.709290 706.453846 17.323876 706.764103 16.938447 707.074359 16.553003 707.384615 16.167545 707.694872 15.782075 708.005128 15.396592 708.315385 15.011099 708.625641 14.625595 708.935897 14.240081 709.246154 13.854559 709.556410 13.469029 709.866667 13.083493 710.176923 12.697950 710.487179 12.312402 710.797436 11.926850 711.107692 11.541294 711.417949 11.155736 711.728205 10.770176 712.038462 10.384615 712.038462 540.000000" /></g></g><g class="titles" /><g class="plot overlay" transform="translate(54, 20)"><g class="series serie-0 color-0"><g class="dots"><circle class="dot reactive tooltip-trigger" cx="13.96153846153846" cy="529.6153846153846" r="2.5" /><desc class="value">120,306,325(kWh)</desc><desc class="x top">13.96153846153846</desc><desc class="y top">529.6153846153846</desc><desc class="x_label">2549</desc></g><g class="dots"><circle class="dot reactive tooltip-trigger" cx="91.52564102564101" cy="493.3301714422958" r="2.5" /><desc class="value">131,176,657(kWh)</desc><desc class="x top">91.52564102564101</desc><desc class="y top">493.3301714422958</desc><desc class="x_label">2550</desc></g><g class="dots"><circle class="dot reactive tooltip-trigger" cx="169.08974358974356" cy="484.5372176378964" r="2.5" /><desc class="value">133,810,852(kWh)</desc><desc class="x top">169.08974358974356</desc><desc class="y top">484.5372176378964</desc><desc class="x_label">2551</desc></g><g class="dots"><circle class="dot reactive tooltip-trigger" cx="246.65384615384613" cy="430.25000462647375" r="2.5" /><desc class="value">150,074,227(kWh)</desc><desc class="x top">246.65384615384613</desc><desc class="y top">430.25000462647375</desc><desc class="x_label">2552</desc></g><g class="dots"><circle class="dot reactive tooltip-trigger" cx="324.21794871794873" cy="381.4106780669389" r="2.5" /><desc class="value">164,705,523(kWh)</desc><desc class="x top">324.21794871794873</desc><desc class="y top">381.4106780669389</desc><desc class="x_label">2553</desc></g><g class="dots"><circle class="dot reactive tooltip-trigger" cx="401.78205128205127" cy="369.8819528189405" r="2.5" /><desc class="value">168,159,301(kWh)</desc><desc class="x left top">401.78205128205127</desc><desc class="y left top">369.8819528189405</desc><desc class="x_label">2554</desc></g><g class="dots"><circle class="dot reactive tooltip-trigger" cx="479.3461538461538" cy="241.15965761904653" r="2.5" /><desc class="value">206,721,954(kWh)</desc><desc class="x left">479.3461538461538</desc><desc class="y left">241.15965761904653</desc><desc class="x_label">2555</desc></g><g class="dots"><circle class="dot reactive tooltip-trigger" cx="556.9102564102565" cy="179.52407885305752" r="2.5" /><desc class="value">225,186,754(kWh)</desc><desc class="x left">556.9102564102565</desc><desc class="y left">179.52407885305752</desc><desc class="x_label">2556</desc></g><g class="dots"><circle class="dot reactive tooltip-trigger" cx="634.474358974359" cy="104.537104412796" r="2.5" /><desc class="value">247,651,368(kWh)</desc><desc class="x left">634.474358974359</desc><desc class="y left">104.537104412796</desc><desc class="x_label">2557</desc></g><g class="dots"><circle class="dot reactive tooltip-trigger" cx="712.0384615384615" cy="10.384615384615358" r="2.5" /><desc class="value">275,857,591(kWh)</desc><desc class="x left">712.0384615384615</desc><desc class="y left">10.384615384615358</desc><desc class="x_label">2558</desc></g></g></g><g class="plot text-overlay" transform="translate(54, 20)"><g class="series serie-0 color-0" /></g><g class="plot tooltip-overlay" transform="translate(54, 20)"><g class="tooltip" style="opacity: 0" transform="translate(0 0)"><rect class="tooltip-box" height="0" rx="0" ry="0" width="0" /><g class="text" /></g></g></g></svg>