<?xml version='1.0' encoding='utf-8'?>
<svg xmlns:xlink="http://www.w3.org/1999/xlink" class="pygal-chart" id="chart-e7aecc50-eff4-4ba8-b7f1-ed82d8d096cb" viewBox="0 0 800 600" xmlns="http://www.w3.org/2000/svg"><!--Generated with pygal 2.3.0 (etree) ©Kozea 2012-2016 on 2016-12-08--><!--http://pygal.org--><!--http://github.com/Kozea/pygal--><defs><style type="text/css">#chart-e7aecc50-eff4-4ba8-b7f1-ed82d8d096cb{-webkit-user-select:none;-webkit-font-smoothing:antialiased;font-family:Consolas,"Liberation Mono",Menlo,Courier,monospace}#chart-e7aecc50-eff4-4ba8-b7f1-ed82d8d096cb .title{font-family:Consolas,"Liberation Mono",Menlo,Courier,monospace;font-size:16px}#chart-e7aecc50-eff4-4ba8-b7f1-ed82d8d096cb .legends .legend text{font-family:Consolas,"Liberation Mono",Menlo,Courier,monospace;font-size:14px}#chart-e7aecc50-eff4-4ba8-b7f1-ed82d8d096cb .axis text{font-family:Consolas,"Liberation Mono",Menlo,Courier,monospace;font-size:10px}#chart-e7aecc50-eff4-4ba8-b7f1-ed82d8d096cb .axis text.major{font-family:Consolas,"Liberation Mono",Menlo,Courier,monospace;font-size:10px}#chart-e7aecc50-eff4-4ba8-b7f1-ed82d8d096cb .text-overlay text.value{font-family:Consolas,"Liberation Mono",Menlo,Courier,monospace;font-size:16px}#chart-e7aecc50-eff4-4ba8-b7f1-ed82d8d096cb .text-overlay text.label{font-family:Consolas,"Liberation Mono",Menlo,Courier,monospace;font-size:10px}#chart-e7aecc50-eff4-4ba8-b7f1-ed82d8d096cb .tooltip{font-family:Consolas,"Liberation Mono",Menlo,Courier,monospace;font-size:14px}#chart-e7aecc50-eff4-4ba8-b7f1-ed82d8d096cb text.no_data{font-family:Consolas,"Liberation Mono",Menlo,Courier,monospace;font-size:64px}
#chart-e7aecc50-eff4-4ba8-b7f1-ed82d8d096cb{background-color:rgba(249,249,249,1)}#chart-e7aecc50-eff4-4ba8-b7f1-ed82d8d096cb path,#chart-e7aecc50-eff4-4ba8-b7f1-ed82d8d096cb line,#chart-e7aecc50-eff4-4ba8-b7f1-ed82d8d096cb rect,#chart-e7aecc50-eff4-4ba8-b7f1-ed82d8d096cb circle{-webkit-transition:150ms;-moz-transition:150ms;transition:150ms}#chart-e7aecc50-eff4-4ba8-b7f1-ed82d8d096cb .graph &gt; .background{fill:rgba(249,249,249,1)}#chart-e7aecc50-eff4-4ba8-b7f1-ed82d8d096cb .plot &gt; .background{fill:rgba(255,255,255,1)}#chart-e7aecc50-eff4-4ba8-b7f1-ed82d8d096cb .graph{fill:rgba(0,0,0,.87)}#chart-e7aecc50-eff4-4ba8-b7f1-ed82d8d096cb text.no_data{fill:rgba(0,0,0,1)}#chart-e7aecc50-eff4-4ba8-b7f1-ed82d8d096cb .title{fill:rgba(0,0,0,1)}#chart-e7aecc50-eff4-4ba8-b7f1-ed82d8d096cb .legends .legend text{fill:rgba(0,0,0,.87)}#chart-e7aecc50-eff4-4ba8-b7f1-ed82d8d096cb .legends .legend:hover text{fill:rgba(0,0,0,1)}#chart-e7aecc50-eff4-4ba8-b7f1-ed82d8d096cb .axis .line{stroke:rgba(0,0,0,1)}#chart-e7aecc50-eff4-4ba8-b7f1-ed82d8d096cb .axis .guide.line{stroke:rgba(0,0,0,.54)}#chart-e7aecc50-eff4-4ba8-b7f1-ed82d8d096cb .axis .major.line{stroke:rgba(0,0,0,.87)}#chart-e7aecc50-eff4-4ba8-b7f1-ed82d8d096cb .axis text.major{fill:rgba(0,0,0,1)}#chart-e7aecc50-eff4-4ba8-b7f1-ed82d8d096cb .axis.y .guides:hover .guide.line,#chart-e7aecc50-eff4-4ba8-b7f1-ed82d8d096cb .line-graph .axis.x .guides:hover .guide.line,#chart-e7aecc50-eff4-4ba8-b7f1-ed82d8d096cb .stackedline-graph .axis.x .guides:hover .guide.line,#chart-e7aecc50-eff4-4ba8-b7f1-ed82d8d096cb .xy-graph .axis.x .guides:hover .guide.line{stroke:rgba(0,0,0,1)}#chart-e7aecc50-eff4-4ba8-b7f1-ed82d8d096cb .axis .guides:hover text{fill:rgba(0,0,0,1)}#chart-e7aecc50-eff4-4ba8-b7f1-ed82d8d096cb .reactive{fill-opacity:.7;stroke-opacity:.8}#chart-e7aecc50-eff4-4ba8-b7f1-ed82d8d096cb .ci{stroke:rgba(0,0,0,.87)}#chart-e7aecc50-eff4-4ba8-b7f1-ed82d8d096cb .reactive.active,#chart-e7aecc50-eff4-4ba8-b7f1-ed82d8d096cb .active .reactive{fill-opacity:.8;stroke-opacity:.9;stroke-width:4}#chart-e7aecc50-eff4-4ba8-b7f1-ed82d8d096cb .ci .reactive.active{stroke-width:1.5}#chart-e7aecc50-eff4-4ba8-b7f1-ed82d8d096cb .series text{fill:rgba(0,0,0,1)}#chart-e7aecc50-eff4-4ba8-b7f1-ed82d8d096cb .tooltip rect{fill:rgba(255,255,255,1);stroke:rgba(0,0,0,1);-webkit-transition:opacity 150ms;-moz-transition:opacity 150ms;transition:opacity 150ms}#chart-e7aecc50-eff4-4ba8-b7f1-ed82d8d096cb .tooltip .label{fill:rgba(0,0,0,.87)}#chart-e7aecc50-eff4-4ba8-b7f1-ed82d8d096cb .tooltip .label{fill:rgba(0,0,0,.87)}#chart-e7aecc50-eff4-4ba8-b7f1-ed82d8d096cb .tooltip .legend{font-size:.8em;fill:rgba(0,0,0,.54)}#chart-e7aecc50-eff4-4ba8-b7f1-ed82d8d096cb .tooltip .x_label{font-size:.6em;fill:rgba(0,0,0,1)}#chart-e7aecc50-eff4-4ba8-b7f1-ed82d8d096cb .tooltip .xlink{font-size:.5em;text-decoration:underline}#chart-e7aecc50-eff4-4ba8-b7f1-ed82d8d096cb .tooltip .value{font-size:1.5em}#chart-e7aecc50-eff4-4ba8-b7f1-ed82d8d096cb .bound{font-size:.5em}#chart-e7aecc50-eff4-4ba8-b7f1-ed82d8d096cb .max-value{font-size:.75em;fill:rgba(0,0,0,.54)}#chart-e7aecc50-eff4-4ba8-b7f1-ed82d8d096cb .map-element{fill:rgba(255,255,255,1);stroke:rgba(0,0,0,.54) !important}#chart-e7aecc50-eff4-4ba8-b7f1-ed82d8d096cb .map-element .reactive{fill-opacity:inherit;stroke-opacity:inherit}#chart-e7aecc50-eff4-4ba8-b7f1-ed82d8d096cb .color-0,#chart-e7aecc50-eff4-4ba8-b7f1-ed82d8d096cb .color-0 a:visited{stroke:#e86fa0;fill:#e86fa0}#chart-e7aecc50-eff4-4ba8-b7f1-ed82d8d096cb .text-overlay .color-0 text{fill:black}
#chart-e7aecc50-eff4-4ba8-b7f1-ed82d8d096cb text.no_data{text-anchor:middle}#chart-e7aecc50-eff4-4ba8-b7f1-ed82d8d096cb .guide.line{fill:none}#chart-e7aecc50-eff4-4ba8-b7f1-ed82d8d096cb .centered{text-anchor:middle}#chart-e7aecc50-eff4-4ba8-b7f1-ed82d8d096cb .title{text-anchor:middle}#chart-e7aecc50-eff4-4ba8-b7f1-ed82d8d096cb .legends .legend text{fill-opacity:1}#chart-e7aecc50-eff4-4ba8-b7f1-ed82d8d096cb .axis.x text{text-anchor:middle}#chart-e7aecc50-eff4-4ba8-b7f1-ed82d8d096cb .axis.x:not(.web) text[transform]{text-anchor:start}#chart-e7aecc50-eff4-4ba8-b7f1-ed82d8d096cb .axis.x:not(.web) text[transform].backwards{text-anchor:end}#chart-e7aecc50-eff4-4ba8-b7f1-ed82d8d096cb .axis.y text{text-anchor:end}#chart-e7aecc50-eff4-4ba8-b7f1-ed82d8d096cb .axis.y text[transform].backwards{text-anchor:start}#chart-e7aecc50-eff4-4ba8-b7f1-ed82d8d096cb .axis.y2 text{text-anchor:start}#chart-e7aecc50-eff4-4ba8-b7f1-ed82d8d096cb .axis.y2 text[transform].backwards{text-anchor:end}#chart-e7aecc50-eff4-4ba8-b7f1-ed82d8d096cb .axis .guide.line{stroke-dasharray:4,4}#chart-e7aecc50-eff4-4ba8-b7f1-ed82d8d096cb .axis .major.guide.line{stroke-dasharray:6,6}#chart-e7aecc50-eff4-4ba8-b7f1-ed82d8d096cb .horizontal .axis.y .guide.line,#chart-e7aecc50-eff4-4ba8-b7f1-ed82d8d096cb .horizontal .axis.y2 .guide.line,#chart-e7aecc50-eff4-4ba8-b7f1-ed82d8d096cb .vertical .axis.x .guide.line{opacity:0}#chart-e7aecc50-eff4-4ba8-b7f1-ed82d8d096cb .horizontal .axis.always_show .guide.line,#chart-e7aecc50-eff4-4ba8-b7f1-ed82d8d096cb .vertical .axis.always_show .guide.line{opacity:1 !important}#chart-e7aecc50-eff4-4ba8-b7f1-ed82d8d096cb .axis.y .guides:hover .guide.line,#chart-e7aecc50-eff4-4ba8-b7f1-ed82d8d096cb .axis.y2 .guides:hover .guide.line,#chart-e7aecc50-eff4-4ba8-b7f1-ed82d8d096cb .axis.x .guides:hover .guide.line{opacity:1}#chart-e7aecc50-eff4-4ba8-b7f1-ed82d8d096cb .axis .guides:hover text{opacity:1}#chart-e7aecc50-eff4-4ba8-b7f1-ed82d8d096cb .nofill{fill:none}#chart-e7aecc50-eff4-4ba8-b7f1-ed82d8d096cb .subtle-fill{fill-opacity:.2}#chart-e7aecc50-eff4-4ba8-b7f1-ed82d8d096cb .dot{stroke-width:1px;fill-opacity:1}#chart-e7aecc50-eff4-4ba8-b7f1-ed82d8d096cb .dot.active{stroke-width:5px}#chart-e7aecc50-eff4-4ba8-b7f1-ed82d8d096cb .dot.negative{fill:transparent}#chart-e7aecc50-eff4-4ba8-b7f1-ed82d8d096cb text,#chart-e7aecc50-eff4-4ba8-b7f1-ed82d8d096cb tspan{stroke:none !important}#chart-e7aecc50-eff4-4ba8-b7f1-ed82d8d096cb .series text.active{opacity:1}#chart-e7aecc50-eff4-4ba8-b7f1-ed82d8d096cb .tooltip rect{fill-opacity:.95;stroke-width:.5}#chart-e7aecc50-eff4-4ba8-b7f1-ed82d8d096cb .tooltip text{fill-opacity:1}#chart-e7aecc50-eff4-4ba8-b7f1-ed82d8d096cb .showable{visibility:hidden}#chart-e7aecc50-eff4-4ba8-b7f1-ed82d8d096cb .showable.shown{visibility:visible}#chart-e7aecc50-eff4-4ba8-b7f1-ed82d8d096cb .gauge-background{fill:rgba(229,229,229,1);stroke:none}#chart-e7aecc50-eff4-4ba8-b7f1-ed82d8d096cb .bg-lines{stroke:rgba(249,249,249,1);stroke-width:2px}</style><script type="text/javascript">window.pygal = window.pygal || {};window.pygal.config = window.pygal.config || {};window.pygal.config['e7aecc50-eff4-4ba8-b7f1-ed82d8d096cb'] = {"no_data_text": "No data", "no_prefix": false, "xrange": null, "print_values_position": "center", "truncate_label": null, "x_labels": ["2549", "2550", "2551", "2552", "2553", "2554", "2555", "2556", "2557", "2558"], "title": null, "force_uri_protocol": "https", "defs": [], "formatter": null, "classes": ["pygal-chart"], "y_labels": null, "rounded_bars": null, "explicit_size": false, "x_labels_major_every": null, "legend_at_bottom_columns": null, "stroke_style": null, "half_pie": false, "spacing": 10, "tooltip_fancy_mode": true, "inverse_y_axis": false, "width": 800, "inner_radius": 0, "interpolation_parameters": {}, "tooltip_border_radius": 0, "style": {"no_data_font_family": "Consolas, \"Liberation Mono\", Menlo, Courier, monospace", "tooltip_font_size": 14, "tooltip_font_family": "Consolas, \"Liberation Mono\", Menlo, Courier, monospace", "stroke_opacity_hover": ".9", "legend_font_family": "Consolas, \"Liberation Mono\", Menlo, Courier, monospace", "font_family": "Consolas, \"Liberation Mono\", Menlo, Courier, monospace", "title_font_family": "Consolas, \"Liberation Mono\", Menlo, Courier, monospace", "background": "rgba(249, 249, 249, 1)", "stroke_opacity": ".8", "foreground": "rgba(0, 0, 0, .87)", "value_background": "rgba(229, 229, 229, 1)", "guide_stroke_dasharray": "4,4", "foreground_subtle": "rgba(0, 0, 0, .54)", "opacity_hover": ".8", "value_font_family": "Consolas, \"Liberation Mono\", Menlo, Courier, monospace", "value_label_font_size": 10, "plot_background": "rgba(255, 255, 255, 1)", "ci_colors": [], "label_font_size": 10, "major_label_font_size": 10, "title_font_size": 16, "no_data_font_size": 64, "value_font_size": 16, "value_colors": [], "label_font_family": "Consolas, \"Liberation Mono\", Menlo, Courier, monospace", "major_guide_stroke_dasharray": "6,6", "transition": "150ms", "foreground_strong": "rgba(0, 0, 0, 1)", "colors": ["#e86fa0", "#e88f6f", "#e8df6f", "#a0e86f", "#6fe88f", "#6fe8df", "#6fa0e8", "#8f6fe8", "#df6fe8", "#e86fa0"], "opacity": ".7", "legend_font_size": 14, "value_label_font_family": "Consolas, \"Liberation Mono\", Menlo, Courier, monospace", "major_label_font_family": "Consolas, \"Liberation Mono\", Menlo, Courier, monospace"}, "x_labels_major_count": null, "interpolation_precision": 250, "missing_value_fill_truncation": "x", "stack_from_top": false, "truncate_legend": null, "show_minor_x_labels": true, "print_zeroes": true, "css": ["file://style.css", "file://graph.css"], "y_label_rotation": 0, "legend_at_bottom": false, "print_values": false, "margin_top": null, "max_scale": 16, "allow_interruptions": false, "show_x_labels": true, "strict": false, "show_x_guides": false, "stroke": true, "margin_left": null, "dynamic_print_values": false, "print_labels": false, "show_y_labels": true, "x_labels_major": null, "range": null, "x_label_rotation": 0, "margin": 20, "zero": 0, "include_x_axis": false, "height": 600, "show_minor_y_labels": true, "show_dots": true, "interpolate": "cubic", "show_y_guides": true, "y_labels_major": null, "box_mode": "extremes", "margin_bottom": null, "order_min": null, "legend_box_size": 12, "fill": true, "show_only_major_dots": false, "js": ["//kozea.github.io/pygal.js/2.0.x/pygal-tooltips.min.js"], "x_title": null, "y_labels_major_every": null, "y_labels_major_count": null, "disable_xml_declaration": false, "y_title": null, "logarithmic": false, "pretty_print": false, "min_scale": 4, "dots_size": 2.5, "margin_right": null, "legends": [null], "secondary_range": null, "show_legend": false}</script><script type="text/javascript" xlink:href="https://kozea.github.io/pygal.js/2.0.x/pygal-tooltips.min.js" /></defs><title>Pygal</title><g class="graph stackedline-graph vertical"><rect class="background" height="600" width="800" x="0" y="0" /><g class="plot" transform="translate(54, 20)"><rect class="background" height="540" width="726.0" x="0" y="0" /><g class="axis y"><path class="line" d="M0.000000 540.000000 h726.000000" /><g class="guides"><path class="guide line" d="M0.000000 527.139264 h726.000000" /><text class="" x="-5" y="530.6392643526341">360M</text><title>360M</title></g><g class="guides"><path class="guide line" d="M0.000000 493.860583 h726.000000" /><text class="" x="-5" y="497.3605828723346">380M</text><title>380M</title></g><g class="guides"><path class="major guide line" d="M0.000000 460.581901 h726.000000" /><text class="major" x="-5" y="464.0819013920351">400M</text><title>400M</title></g><g class="guides"><path class="guide line" d="M0.000000 427.303220 h726.000000" /><text class="" x="-5" y="430.8032199117356">420M</text><title>420M</title></g><g class="guides"><path class="guide line" d="M0.000000 394.024538 h726.000000" /><text class="" x="-5" y="397.5245384314361">440M</text><title>440M</title></g><g class="guides"><path class="guide line" d="M0.000000 360.745857 h726.000000" /><text class="" x="-5" y="364.2458569511366">460M</text><title>460M</title></g><g class="guides"><path class="guide line" d="M0.000000 327.467175 h726.000000" /><text class="" x="-5" y="330.9671754708371">480M</text><title>480M</title></g><g class="guides"><path class="major guide line" d="M0.000000 294.188494 h726.000000" /><text class="major" x="-5" y="297.6884939905376">500M</text><title>500M</title></g><g class="guides"><path class="guide line" d="M0.000000 260.909813 h726.000000" /><text class="" x="-5" y="264.40981251023805">520M</text><title>520M</title></g><g class="guides"><path class="guide line" d="M0.000000 227.631131 h726.000000" /><text class="" x="-5" y="231.13113102993856">540M</text><title>540M</title></g><g class="guides"><path class="guide line" d="M0.000000 194.352450 h726.000000" /><text class="" x="-5" y="197.85244954963906">560M</text><title>560M</title></g><g class="guides"><path class="guide line" d="M0.000000 161.073768 h726.000000" /><text class="" x="-5" y="164.57376806933956">580M</text><title>580M</title></g><g class="guides"><path class="major guide line" d="M0.000000 127.795087 h726.000000" /><text class="major" x="-5" y="131.29508658904007">600M</text><title>600M</title></g><g class="guides"><path class="guide line" d="M0.000000 94.516405 h726.000000" /><text class="" x="-5" y="98.01640510874063">620M</text><title>620M</title></g><g class="guides"><path class="guide line" d="M0.000000 61.237724 h726.000000" /><text class="" x="-5" y="64.73772362844113">640M</text><title>640M</title></g><g class="guides"><path class="guide line" d="M0.000000 27.959042 h726.000000" /><text class="" x="-5" y="31.459042148141634">660M</text><title>660M</title></g></g><g class="axis x"><g class="guides"><path class="line" d="M13.961538 0.000000 v540.000000" /><text class="" x="13.96153846153846" y="555.0">2549</text></g><g class="guides"><path class="guide line" d="M91.525641 0.000000 v540.000000" /><text class="" x="91.52564102564101" y="555.0">2550</text></g><g class="guides"><path class="guide line" d="M169.089744 0.000000 v540.000000" /><text class="" x="169.08974358974356" y="555.0">2551</text></g><g class="guides"><path class="guide line" d="M246.653846 0.000000 v540.000000" /><text class="" x="246.65384615384613" y="555.0">2552</text></g><g class="guides"><path class="guide line" d="M324.217949 0.000000 v540.000000" /><text class="" x="324.21794871794873" y="555.0">2553</text></g><g class="guides"><path class="guide line" d="M401.782051 0.000000 v540.000000" /><text class="" x="401.78205128205127" y="555.0">2554</text></g><g class="guides"><path class="guide line" d="M479.346154 0.000000 v540.000000" /><text class="" x="479.3461538461538" y="555.0">2555</text></g><g class="guides"><path class="guide line" d="M556.910256 0.000000 v540.000000" /><text class="" x="556.9102564102565" y="555.0">2556</text></g><g class="guides"><path class="guide line" d="M634.474359 0.000000 v540.000000" /><text class="" x="634.474358974359" y="555.0">2557</text></g><g class="guides"><path class="guide line" d="M712.038462 0.000000 v540.000000" /><text class="" x="712.0384615384615" y="555.0">2558</text></g></g><g class="series serie-0 color-0"><path class="line reactive" d="M13.961538 540.000000 L13.961538 529.615385 14.271795 529.356217 14.582051 529.097055 14.892308 528.837901 15.202564 528.578762 15.512821 528.319642 15.823077 528.060545 16.133333 527.801476 16.443590 527.542440 16.753846 527.283442 17.064103 527.024486 17.374359 526.765577 17.684615 526.506720 17.994872 526.247919 18.305128 525.989179 18.615385 525.730505 18.925641 525.471902 19.235897 525.213374 19.546154 524.954925 19.856410 524.696562 20.166667 524.438287 20.476923 524.180107 20.787179 523.922025 21.097436 523.664046 21.407692 523.406176 21.717949 523.148419 22.028205 522.890779 22.338462 522.633261 22.648718 522.375870 22.958974 522.118610 23.269231 521.861487 23.579487 521.604505 23.889744 521.347669 24.200000 521.090983 24.510256 520.834452 24.820513 520.578080 25.130769 520.321874 25.441026 520.065836 25.751282 519.809973 26.061538 519.554288 26.371795 519.298786 26.682051 519.043472 26.992308 518.788351 27.302564 518.533427 27.612821 518.278706 27.923077 518.024191 28.233333 517.769887 28.543590 517.515800 28.853846 517.261934 29.164103 517.008293 29.474359 516.754882 29.784615 516.501707 30.094872 516.248771 30.405128 515.996080 30.715385 515.743637 31.025641 515.491449 31.335897 515.239518 31.646154 514.987851 31.956410 514.736452 32.266667 514.485326 32.576923 514.234477 32.887179 513.983909 33.197436 513.733629 33.507692 513.483639 33.817949 513.233946 34.128205 512.984554 34.438462 512.735467 34.748718 512.486690 35.058974 512.238228 35.369231 511.990086 35.679487 511.742268 35.989744 511.494779 36.300000 511.247623 36.610256 511.000806 36.920513 510.754332 37.230769 510.508206 37.541026 510.262432 37.851282 510.017015 38.161538 509.771961 38.471795 509.527272 38.782051 509.282956 39.092308 509.039015 39.402564 508.795454 39.712821 508.552279 40.023077 508.309494 40.333333 508.067104 40.643590 507.825114 40.953846 507.583527 41.264103 507.342349 41.574359 507.101585 41.884615 506.861239 42.194872 506.621316 42.505128 506.381821 42.815385 506.142758 43.125641 505.904133 43.435897 505.665948 43.746154 505.428211 44.056410 505.190924 44.366667 504.954094 44.676923 504.717724 44.987179 504.481819 45.297436 504.246384 45.607692 504.011424 45.917949 503.776943 46.228205 503.542946 46.538462 503.309438 46.848718 503.076423 47.158974 502.843907 47.469231 502.611893 47.779487 502.380387 48.089744 502.149393 48.400000 501.918916 48.710256 501.688961 49.020513 501.459532 49.330769 501.230634 49.641026 501.002272 49.951282 500.774451 50.261538 500.547174 50.571795 500.320447 50.882051 500.094275 51.192308 499.868662 51.502564 499.643613 51.812821 499.419133 52.123077 499.195226 52.433333 498.971897 52.743590 498.749151 53.053846 498.526992 53.364103 498.305426 53.674359 498.084456 53.984615 497.864088 54.294872 497.644326 54.605128 497.425175 54.915385 497.206639 55.225641 496.988724 55.535897 496.771434 55.846154 496.554774 56.156410 496.338748 56.466667 496.123361 56.776923 495.908618 57.087179 495.694524 57.397436 495.481082 57.707692 495.268299 58.017949 495.056179 58.328205 494.844725 58.638462 494.633944 58.948718 494.423840 59.258974 494.214417 59.569231 494.005680 59.879487 493.797633 60.189744 493.590283 60.500000 493.383632 60.810256 493.177687 61.120513 492.972451 61.430769 492.767930 61.741026 492.564127 62.051282 492.361048 62.361538 492.158698 62.671795 491.957081 62.982051 491.756202 63.292308 491.556065 63.602564 491.356675 63.912821 491.158037 64.223077 490.960156 64.533333 490.763036 64.843590 490.566683 65.153846 490.371100 65.464103 490.176292 65.774359 489.982265 66.084615 489.789022 66.394872 489.596569 66.705128 489.404910 67.015385 489.214050 67.325641 489.023993 67.635897 488.834745 67.946154 488.646310 68.256410 488.458693 68.566667 488.271898 68.876923 488.085930 69.187179 487.900794 69.497436 487.716494 69.807692 487.533036 70.117949 487.350424 70.428205 487.168662 70.738462 486.987756 71.048718 486.807709 71.358974 486.628527 71.669231 486.450215 71.979487 486.272777 72.289744 486.096217 72.600000 485.920541 72.910256 485.745754 73.220513 485.571859 73.530769 485.398862 73.841026 485.226767 74.151282 485.055579 74.461538 484.885303 74.771795 484.715943 75.082051 484.547504 75.392308 484.379991 75.702564 484.213409 76.012821 484.047762 76.323077 483.883055 76.633333 483.719292 76.943590 483.556479 77.253846 483.394619 77.564103 483.233719 77.874359 483.073781 78.184615 482.914812 78.494872 482.756816 78.805128 482.599797 79.115385 482.443760 79.425641 482.288711 79.735897 482.134652 80.046154 481.981591 80.356410 481.829530 80.666667 481.678474 80.976923 481.528430 81.287179 481.379400 81.597436 481.231390 81.907692 481.084405 82.217949 480.938448 82.528205 480.793526 82.838462 480.649642 83.148718 480.506802 83.458974 480.365009 83.769231 480.224270 84.079487 480.084587 84.389744 479.945967 84.700000 479.808414 85.010256 479.671932 85.320513 479.536526 85.630769 479.402201 85.941026 479.268961 86.251282 479.136812 86.561538 479.005758 86.871795 478.875804 87.182051 478.746954 87.492308 478.619213 87.802564 478.492586 88.112821 478.367077 88.423077 478.242692 88.733333 478.119434 89.043590 477.997309 89.353846 477.876321 89.664103 477.756476 89.974359 477.637777 90.284615 477.520229 90.594872 477.403837 90.905128 477.288606 91.215385 477.174541 91.525641 477.061646 91.835897 476.949923 92.146154 476.839364 92.456410 476.729957 92.766667 476.621692 93.076923 476.514558 93.387179 476.408542 93.697436 476.303635 94.007692 476.199825 94.317949 476.097101 94.628205 475.995452 94.938462 475.894866 95.248718 475.795333 95.558974 475.696842 95.869231 475.599380 96.179487 475.502939 96.489744 475.407505 96.800000 475.313068 97.110256 475.219617 97.420513 475.127141 97.730769 475.035628 98.041026 474.945069 98.351282 474.855450 98.661538 474.766762 98.971795 474.678993 99.282051 474.592132 99.592308 474.506168 99.902564 474.421090 100.212821 474.336886 100.523077 474.253546 100.833333 474.171059 101.143590 474.089413 101.453846 474.008597 101.764103 473.928601 102.074359 473.849412 102.384615 473.771021 102.694872 473.693415 103.005128 473.616584 103.315385 473.540516 103.625641 473.465201 103.935897 473.390627 104.246154 473.316783 104.556410 473.243658 104.866667 473.171242 105.176923 473.099522 105.487179 473.028488 105.797436 472.958129 106.107692 472.888433 106.417949 472.819389 106.728205 472.750987 107.038462 472.683215 107.348718 472.616062 107.658974 472.549516 107.969231 472.483568 108.279487 472.418205 108.589744 472.353417 108.900000 472.289192 109.210256 472.225520 109.520513 472.162389 109.830769 472.099788 110.141026 472.037706 110.451282 471.976132 110.761538 471.915054 111.071795 471.854462 111.382051 471.794345 111.692308 471.734691 112.002564 471.675489 112.312821 471.616729 112.623077 471.558398 112.933333 471.500487 113.243590 471.442983 113.553846 471.385876 113.864103 471.329155 114.174359 471.272808 114.484615 471.216824 114.794872 471.161193 115.105128 471.105903 115.415385 471.050942 115.725641 470.996301 116.035897 470.941967 116.346154 470.887930 116.656410 470.834179 116.966667 470.780702 117.276923 470.727488 117.587179 470.674526 117.897436 470.621806 118.207692 470.569315 118.517949 470.517043 118.828205 470.464979 119.138462 470.413112 119.448718 470.361430 119.758974 470.309922 120.069231 470.258578 120.379487 470.207385 120.689744 470.156334 121.000000 470.105413 121.310256 470.054610 121.620513 470.003915 121.930769 469.953317 122.241026 469.902804 122.551282 469.852365 122.861538 469.801990 123.171795 469.751666 123.482051 469.701384 123.792308 469.651131 124.102564 469.600897 124.412821 469.550671 124.723077 469.500441 125.033333 469.450196 125.343590 469.399926 125.653846 469.349619 125.964103 469.299264 126.274359 469.248850 126.584615 469.198366 126.894872 469.147800 127.205128 469.097142 127.515385 469.046380 127.825641 468.995504 128.135897 468.944501 128.446154 468.893362 128.756410 468.842075 129.066667 468.790629 129.376923 468.739012 129.687179 468.687214 129.997436 468.635224 130.307692 468.583030 130.617949 468.530621 130.928205 468.477987 131.238462 468.425115 131.548718 468.371995 131.858974 468.318616 132.169231 468.264967 132.479487 468.211036 132.789744 468.156813 133.100000 468.102286 133.410256 468.047445 133.720513 467.992277 134.030769 467.936773 134.341026 467.880920 134.651282 467.824708 134.961538 467.768126 135.271795 467.711162 135.582051 467.653805 135.892308 467.596045 136.202564 467.537870 136.512821 467.479269 136.823077 467.420231 137.133333 467.360745 137.443590 467.300799 137.753846 467.240384 138.064103 467.179486 138.374359 467.118096 138.684615 467.056202 138.994872 466.993793 139.305128 466.930858 139.615385 466.867386 139.925641 466.803366 140.235897 466.738787 140.546154 466.673637 140.856410 466.607905 141.166667 466.541581 141.476923 466.474653 141.787179 466.407110 142.097436 466.338941 142.407692 466.270134 142.717949 466.200680 143.028205 466.130566 143.338462 466.059781 143.648718 465.988315 143.958974 465.916156 144.269231 465.843293 144.579487 465.769715 144.889744 465.695411 145.200000 465.620370 145.510256 465.544581 145.820513 465.468032 146.130769 465.390712 146.441026 465.312611 146.751282 465.233717 147.061538 465.154019 147.371795 465.073506 147.682051 464.992167 147.992308 464.909990 148.302564 464.826966 148.612821 464.743081 148.923077 464.658326 149.233333 464.572689 149.543590 464.486160 149.853846 464.398726 150.164103 464.310378 150.474359 464.221103 150.784615 464.130890 151.094872 464.039730 151.405128 463.947610 151.715385 463.854519 152.025641 463.760446 152.335897 463.665380 152.646154 463.569311 152.956410 463.472226 153.266667 463.374115 153.576923 463.274966 153.887179 463.174769 154.197436 463.073513 154.507692 462.971185 154.817949 462.867776 155.128205 462.763274 155.438462 462.657668 155.748718 462.550946 156.058974 462.443098 156.369231 462.334113 156.679487 462.223979 156.989744 462.112686 157.300000 462.000222 157.610256 461.886576 157.920513 461.771737 158.230769 461.655693 158.541026 461.538435 158.851282 461.419950 159.161538 461.300227 159.471795 461.179256 159.782051 461.057026 160.092308 460.933524 160.402564 460.808741 160.712821 460.682664 161.023077 460.555283 161.333333 460.426587 161.643590 460.296565 161.953846 460.165205 162.264103 460.032496 162.574359 459.898428 162.884615 459.762988 163.194872 459.626167 163.505128 459.487952 163.815385 459.348334 164.125641 459.207300 164.435897 459.064839 164.746154 458.920941 165.056410 458.775594 165.366667 458.628787 165.676923 458.480510 165.987179 458.330750 166.297436 458.179497 166.607692 458.026740 166.917949 457.872467 167.228205 457.716668 167.538462 457.559331 167.848718 457.400446 168.158974 457.240001 168.469231 457.077984 168.779487 456.914386 169.089744 456.749194 169.400000 456.582400 169.710256 456.414006 170.020513 456.244014 170.330769 456.072429 170.641026 455.899254 170.951282 455.724492 171.261538 455.548147 171.571795 455.370223 171.882051 455.190723 172.192308 455.009651 172.502564 454.827011 172.812821 454.642805 173.123077 454.457038 173.433333 454.269712 173.743590 454.080833 174.053846 453.890402 174.364103 453.698425 174.674359 453.504904 174.984615 453.309842 175.294872 453.113245 175.605128 452.915114 175.915385 452.715454 176.225641 452.514268 176.535897 452.311560 176.846154 452.107333 177.156410 451.901591 177.466667 451.694337 177.776923 451.485576 178.087179 451.275310 178.397436 451.063544 178.707692 450.850280 179.017949 450.635523 179.328205 450.419275 179.638462 450.201541 179.948718 449.982324 180.258974 449.761628 180.569231 449.539455 180.879487 449.315811 181.189744 449.090698 181.500000 448.864119 181.810256 448.636080 182.120513 448.406582 182.430769 448.175630 182.741026 447.943227 183.051282 447.709377 183.361538 447.474083 183.671795 447.237349 183.982051 446.999178 184.292308 446.759575 184.602564 446.518542 184.912821 446.276083 185.223077 446.032202 185.533333 445.786902 185.843590 445.540188 186.153846 445.292061 186.464103 445.042527 186.774359 444.791588 187.084615 444.539249 187.394872 444.285512 187.705128 444.030381 188.015385 443.773861 188.325641 443.515953 188.635897 443.256663 188.946154 442.995994 189.256410 442.733948 189.566667 442.470530 189.876923 442.205744 190.187179 441.939592 190.497436 441.672079 190.807692 441.403208 191.117949 441.132983 191.428205 440.861406 191.738462 440.588482 192.048718 440.314215 192.358974 440.038607 192.669231 439.761663 192.979487 439.483386 193.289744 439.203780 193.600000 438.922847 193.910256 438.640593 194.220513 438.357019 194.530769 438.072131 194.841026 437.785930 195.151282 437.498422 195.461538 437.209610 195.771795 436.919496 196.082051 436.628085 196.392308 436.335381 196.702564 436.041386 197.012821 435.746105 197.323077 435.449541 197.633333 435.151697 197.943590 434.852577 198.253846 434.552186 198.564103 434.250525 198.874359 433.947599 199.184615 433.643412 199.494872 433.337966 199.805128 433.031266 200.115385 432.723316 200.425641 432.414118 200.735897 432.103676 201.046154 431.791994 201.356410 431.479075 201.666667 431.164924 201.976923 430.849543 202.287179 430.532936 202.597436 430.215106 202.907692 429.896058 203.217949 429.575795 203.528205 429.254320 203.838462 428.931637 204.148718 428.607750 204.458974 428.282662 204.769231 427.956376 205.079487 427.628897 205.389744 427.300227 205.700000 426.970371 206.010256 426.639332 206.320513 426.307113 206.630769 425.973719 206.941026 425.639152 207.251282 425.303416 207.561538 424.966515 207.871795 424.628453 208.182051 424.289232 208.492308 423.948857 208.802564 423.607331 209.112821 423.264658 209.423077 422.920841 209.733333 422.575884 210.043590 422.229790 210.353846 421.882563 210.664103 421.534206 210.974359 421.184724 211.284615 420.834119 211.594872 420.482396 211.905128 420.129557 212.215385 419.775607 212.525641 419.420548 212.835897 419.064385 213.146154 418.707121 213.456410 418.348760 213.766667 417.989305 214.076923 417.628760 214.387179 417.267128 214.697436 416.904413 215.007692 416.540618 215.317949 416.175748 215.628205 415.809805 215.938462 415.442794 216.248718 415.074717 216.558974 414.705578 216.869231 414.335382 217.179487 413.964131 217.489744 413.591829 217.800000 413.218479 218.110256 412.844086 218.420513 412.468652 218.730769 412.092182 219.041026 411.714679 219.351282 411.336146 219.661538 410.956588 219.971795 410.576007 220.282051 410.194407 220.592308 409.811792 220.902564 409.428165 221.212821 409.043530 221.523077 408.657891 221.833333 408.271250 222.143590 407.883612 222.453846 407.494981 222.764103 407.105359 223.074359 406.714750 223.384615 406.323159 223.694872 405.930587 224.005128 405.537040 224.315385 405.142521 224.625641 404.747032 224.935897 404.350579 225.246154 403.953163 225.556410 403.554790 225.866667 403.155462 226.176923 402.755183 226.487179 402.353957 226.797436 401.951786 227.107692 401.548676 227.417949 401.144629 227.728205 400.739648 228.038462 400.333738 228.348718 399.926903 228.658974 399.519144 228.969231 399.110467 229.279487 398.700875 229.589744 398.290371 229.900000 397.878958 230.210256 397.466642 230.520513 397.053424 230.830769 396.639309 231.141026 396.224300 231.451282 395.808400 231.761538 395.391614 232.071795 394.973945 232.382051 394.555396 232.692308 394.135971 233.002564 393.715674 233.312821 393.294508 233.623077 392.872477 233.933333 392.449584 234.243590 392.025833 234.553846 391.601227 234.864103 391.175770 235.174359 390.749466 235.484615 390.322318 235.794872 389.894329 236.105128 389.465504 236.415385 389.035846 236.725641 388.605358 237.035897 388.174044 237.346154 387.741908 237.656410 387.308952 237.966667 386.875182 238.276923 386.440600 238.587179 386.005209 238.897436 385.569014 239.207692 385.132018 239.517949 384.694225 239.828205 384.255637 240.138462 383.816260 240.448718 383.376095 240.758974 382.935148 241.069231 382.493420 241.379487 382.050917 241.689744 381.607641 242.000000 381.163597 242.310256 380.718787 242.620513 380.273215 242.930769 379.826885 243.241026 379.379801 243.551282 378.931965 243.861538 378.483382 244.171795 378.034056 244.482051 377.583988 244.792308 377.133184 245.102564 376.681647 245.412821 376.229380 245.723077 375.776388 246.033333 375.322672 246.343590 374.868238 246.653846 374.413089 246.964103 373.957229 247.274359 373.500675 247.584615 373.043441 247.894872 372.585543 248.205128 372.126999 248.515385 371.667825 248.825641 371.208035 249.135897 370.747648 249.446154 370.286678 249.756410 369.825143 250.066667 369.363058 250.376923 368.900439 250.687179 368.437304 250.997436 367.973667 251.307692 367.509546 251.617949 367.044956 251.928205 366.579914 252.238462 366.114436 252.548718 365.648538 252.858974 365.182236 253.169231 364.715547 253.479487 364.248486 253.789744 363.781071 254.100000 363.313316 254.410256 362.845240 254.720513 362.376856 255.030769 361.908183 255.341026 361.439235 255.651282 360.970030 255.961538 360.500584 256.271795 360.030912 256.582051 359.561031 256.892308 359.090957 257.202564 358.620706 257.512821 358.150296 257.823077 357.679740 258.133333 357.209057 258.443590 356.738262 258.753846 356.267372 259.064103 355.796402 259.374359 355.325369 259.684615 354.854289 259.994872 354.383178 260.305128 353.912053 260.615385 353.440929 260.925641 352.969824 261.235897 352.498753 261.546154 352.027732 261.856410 351.556777 262.166667 351.085906 262.476923 350.615133 262.787179 350.144476 263.097436 349.673950 263.407692 349.203572 263.717949 348.733357 264.028205 348.263323 264.338462 347.793485 264.648718 347.323859 264.958974 346.854463 265.269231 346.385311 265.579487 345.916420 265.889744 345.447807 266.200000 344.979488 266.510256 344.511478 266.820513 344.043794 267.130769 343.576453 267.441026 343.109470 267.751282 342.642861 268.061538 342.176644 268.371795 341.710833 268.682051 341.245446 268.992308 340.780499 269.302564 340.316007 269.612821 339.851987 269.923077 339.388456 270.233333 338.925429 270.543590 338.462922 270.853846 338.000953 271.164103 337.539536 271.474359 337.078689 271.784615 336.618427 272.094872 336.158767 272.405128 335.699724 272.715385 335.241316 273.025641 334.783558 273.335897 334.326467 273.646154 333.870059 273.956410 333.414349 274.266667 332.959355 274.576923 332.505092 274.887179 332.051577 275.197436 331.598826 275.507692 331.146854 275.817949 330.695679 276.128205 330.245317 276.438462 329.795783 276.748718 329.347094 277.058974 328.899267 277.369231 328.452316 277.679487 328.006260 277.989744 327.561113 278.300000 327.116892 278.610256 326.673613 278.920513 326.231293 279.230769 325.789947 279.541026 325.349593 279.851282 324.910245 280.161538 324.471921 280.471795 324.034636 280.782051 323.598407 281.092308 323.163250 281.402564 322.729181 281.712821 322.296216 282.023077 321.864372 282.333333 321.433665 282.643590 321.004111 282.953846 320.575726 283.264103 320.148527 283.574359 319.722529 283.884615 319.297749 284.194872 318.874203 284.505128 318.451908 284.815385 318.030879 285.125641 317.611133 285.435897 317.192686 285.746154 316.775554 286.056410 316.359753 286.366667 315.945300 286.676923 315.532211 286.987179 315.120502 287.297436 314.710189 287.607692 314.301289 287.917949 313.893817 288.228205 313.487791 288.538462 313.083225 288.848718 312.680137 289.158974 312.278542 289.469231 311.878457 289.779487 311.479898 290.089744 311.082882 290.400000 310.687424 290.710256 310.293540 291.020513 309.901247 291.330769 309.510561 291.641026 309.121499 291.951282 308.734076 292.261538 308.348309 292.571795 307.964213 292.882051 307.581806 293.192308 307.201104 293.502564 306.822121 293.812821 306.444876 294.123077 306.069383 294.433333 305.695660 294.743590 305.323723 295.053846 304.953586 295.364103 304.585268 295.674359 304.218784 295.984615 303.854150 296.294872 303.491383 296.605128 303.130498 296.915385 302.771513 297.225641 302.414442 297.535897 302.059303 297.846154 301.706112 298.156410 301.354884 298.466667 301.005636 298.776923 300.658385 299.087179 300.313146 299.397436 299.969936 299.707692 299.628770 300.017949 299.289666 300.328205 298.952639 300.638462 298.617706 300.948718 298.284882 301.258974 297.954184 301.569231 297.625629 301.879487 297.299232 302.189744 296.975009 302.500000 296.652977 302.810256 296.333153 303.120513 296.015551 303.430769 295.700190 303.741026 295.387083 304.051282 295.076249 304.361538 294.767703 304.671795 294.461461 304.982051 294.157540 305.292308 293.855955 305.602564 293.556724 305.912821 293.259861 306.223077 292.965384 306.533333 292.673309 306.843590 292.383652 307.153846 292.096428 307.464103 291.811655 307.774359 291.529349 308.084615 291.249525 308.394872 290.972200 308.705128 290.697390 309.015385 290.425112 309.325641 290.155381 309.635897 289.888214 309.946154 289.623627 310.256410 289.361636 310.566667 289.102258 310.876923 288.845508 311.187179 288.591403 311.497436 288.339959 311.807692 288.091193 312.117949 287.845120 312.428205 287.601756 312.738462 287.361119 313.048718 287.123224 313.358974 286.888087 313.669231 286.655725 313.979487 286.426153 314.289744 286.199389 314.600000 285.975448 314.910256 285.754346 315.220513 285.536100 315.530769 285.320726 315.841026 285.108240 316.151282 284.898659 316.461538 284.691997 316.771795 284.488273 317.082051 284.287502 317.392308 284.089699 317.702564 283.894882 318.012821 283.703067 318.323077 283.514270 318.633333 283.328506 318.943590 283.145793 319.253846 282.966147 319.564103 282.789583 319.874359 282.616118 320.184615 282.445768 320.494872 282.278549 320.805128 282.114478 321.115385 281.953571 321.425641 281.795843 321.735897 281.641312 322.046154 281.489994 322.356410 281.341904 322.666667 281.197058 322.976923 281.055474 323.287179 280.917167 323.597436 280.782154 323.907692 280.650450 324.217949 280.522073 324.528205 280.397029 324.838462 280.275298 325.148718 280.156850 325.458974 280.041655 325.769231 279.929682 326.079487 279.820903 326.389744 279.715287 326.700000 279.612804 327.010256 279.513426 327.320513 279.417121 327.630769 279.323861 327.941026 279.233615 328.251282 279.146354 328.561538 279.062048 328.871795 278.980667 329.182051 278.902181 329.492308 278.826561 329.802564 278.753776 330.112821 278.683797 330.423077 278.616595 330.733333 278.552139 331.043590 278.490399 331.353846 278.431347 331.664103 278.374951 331.974359 278.321183 332.284615 278.270011 332.594872 278.221408 332.905128 278.175342 333.215385 278.131785 333.525641 278.090706 333.835897 278.052075 334.146154 278.015863 334.456410 277.982040 334.766667 277.950576 335.076923 277.921441 335.387179 277.894606 335.697436 277.870040 336.007692 277.847715 336.317949 277.827600 336.628205 277.809665 336.938462 277.793880 337.248718 277.780217 337.558974 277.768645 337.869231 277.759133 338.179487 277.751653 338.489744 277.746175 338.800000 277.742669 339.110256 277.741105 339.420513 277.741453 339.730769 277.743684 340.041026 277.747767 340.351282 277.753673 340.661538 277.761372 340.971795 277.770835 341.282051 277.782031 341.592308 277.794932 341.902564 277.809506 342.212821 277.825724 342.523077 277.843556 342.833333 277.862974 343.143590 277.883946 343.453846 277.906443 343.764103 277.930435 344.074359 277.955893 344.384615 277.982786 344.694872 278.011086 345.005128 278.040761 345.315385 278.071783 345.625641 278.104121 345.935897 278.137746 346.246154 278.172628 346.556410 278.208737 346.866667 278.246044 347.176923 278.284518 347.487179 278.324130 347.797436 278.364850 348.107692 278.406648 348.417949 278.449494 348.728205 278.493359 349.038462 278.538213 349.348718 278.584026 349.658974 278.630768 349.969231 278.678410 350.279487 278.726922 350.589744 278.776273 350.900000 278.826434 351.210256 278.877376 351.520513 278.929069 351.830769 278.981482 352.141026 279.034586 352.451282 279.088351 352.761538 279.142747 353.071795 279.197746 353.382051 279.253316 353.692308 279.309428 354.002564 279.366052 354.312821 279.423158 354.623077 279.480718 354.933333 279.538700 355.243590 279.597075 355.553846 279.655814 355.864103 279.714886 356.174359 279.774261 356.484615 279.833911 356.794872 279.893805 357.105128 279.953913 357.415385 280.014206 357.725641 280.074653 358.035897 280.135226 358.346154 280.195893 358.656410 280.256626 358.966667 280.317395 359.276923 280.378169 359.587179 280.438920 359.897436 280.499616 360.207692 280.560230 360.517949 280.620729 360.828205 280.681086 361.138462 280.741270 361.448718 280.801251 361.758974 280.861000 362.069231 280.920486 362.379487 280.979680 362.689744 281.038553 363.000000 281.097074 363.310256 281.155213 363.620513 281.212941 363.930769 281.270228 364.241026 281.327045 364.551282 281.383360 364.861538 281.439146 365.171795 281.494371 365.482051 281.549006 365.792308 281.603022 366.102564 281.656388 366.412821 281.709075 366.723077 281.761052 367.033333 281.812291 367.343590 281.862761 367.653846 281.912433 367.964103 281.961276 368.274359 282.009261 368.584615 282.056359 368.894872 282.102539 369.205128 282.147771 369.515385 282.192026 369.825641 282.235274 370.135897 282.277486 370.446154 282.318631 370.756410 282.358679 371.066667 282.397602 371.376923 282.435368 371.687179 282.471949 371.997436 282.507314 372.307692 282.541434 372.617949 282.574279 372.928205 282.605819 373.238462 282.636024 373.548718 282.664865 373.858974 282.692312 374.169231 282.718334 374.479487 282.742903 374.789744 282.765988 375.100000 282.787560 375.410256 282.807589 375.720513 282.826044 376.030769 282.842897 376.341026 282.858117 376.651282 282.871675 376.961538 282.883541 377.271795 282.893685 377.582051 282.902077 377.892308 282.908688 378.202564 282.913488 378.512821 282.916446 378.823077 282.917534 379.133333 282.916721 379.443590 282.913977 379.753846 282.909273 380.064103 282.902579 380.374359 282.893866 380.684615 282.883103 380.994872 282.870260 381.305128 282.855309 381.615385 282.838218 381.925641 282.818959 382.235897 282.797501 382.546154 282.773814 382.856410 282.747870 383.166667 282.719638 383.476923 282.689088 383.787179 282.656191 384.097436 282.620916 384.407692 282.583234 384.717949 282.543116 385.028205 282.500531 385.338462 282.455449 385.648718 282.407841 385.958974 282.357678 386.269231 282.304928 386.579487 282.249563 386.889744 282.191552 387.200000 282.130867 387.510256 282.067476 387.820513 282.001351 388.130769 281.932461 388.441026 281.860777 388.751282 281.786269 389.061538 281.708907 389.371795 281.628661 389.682051 281.545502 389.992308 281.459399 390.302564 281.370324 390.612821 281.278246 390.923077 281.183135 391.233333 281.084962 391.543590 280.983696 391.853846 280.879309 392.164103 280.771769 392.474359 280.661049 392.784615 280.547117 393.094872 280.429943 393.405128 280.309499 393.715385 280.185754 394.025641 280.058679 394.335897 279.928243 394.646154 279.794418 394.956410 279.657172 395.266667 279.516477 395.576923 279.372302 395.887179 279.224618 396.197436 279.073396 396.507692 278.918604 396.817949 278.760214 397.128205 278.598195 397.438462 278.432518 397.748718 278.263153 398.058974 278.090071 398.369231 277.913241 398.679487 277.732633 398.989744 277.548219 399.300000 277.359967 399.610256 277.167849 399.920513 276.971835 400.230769 276.771894 400.541026 276.567997 400.851282 276.360114 401.161538 276.148216 401.471795 275.932272 401.782051 275.712253 402.092308 275.488139 402.402564 275.259948 402.712821 275.027708 403.023077 274.791447 403.333333 274.551193 403.643590 274.306976 403.953846 274.058821 404.264103 273.806759 404.574359 273.550816 404.884615 273.291020 405.194872 273.027401 405.505128 272.759986 405.815385 272.488803 406.125641 272.213880 406.435897 271.935246 406.746154 271.652928 407.056410 271.366954 407.366667 271.077353 407.676923 270.784153 407.987179 270.487381 408.297436 270.187067 408.607692 269.883237 408.917949 269.575921 409.228205 269.265145 409.538462 268.950939 409.848718 268.633330 410.158974 268.312346 410.469231 267.988017 410.779487 267.660368 411.089744 267.329430 411.400000 266.995229 411.710256 266.657794 412.020513 266.317153 412.330769 265.973334 412.641026 265.626366 412.951282 265.276275 413.261538 264.923091 413.571795 264.566842 413.882051 264.207555 414.192308 263.845258 414.502564 263.479981 414.812821 263.111750 415.123077 262.740594 415.433333 262.366541 415.743590 261.989620 416.053846 261.609857 416.364103 261.227282 416.674359 260.841922 416.984615 260.453806 417.294872 260.062961 417.605128 259.669416 417.915385 259.273199 418.225641 258.874337 418.535897 258.472860 418.846154 258.068794 419.156410 257.662169 419.466667 257.253012 419.776923 256.841351 420.087179 256.427215 420.397436 256.010631 420.707692 255.591628 421.017949 255.170233 421.328205 254.746476 421.638462 254.320383 421.948718 253.891983 422.258974 253.461304 422.569231 253.028375 422.879487 252.593222 423.189744 252.155875 423.500000 251.716362 423.810256 251.274710 424.120513 250.830947 424.430769 250.385103 424.741026 249.937204 425.051282 249.487279 425.361538 249.035356 425.671795 248.581463 425.982051 248.125629 426.292308 247.667881 426.602564 247.208247 426.912821 246.746755 427.223077 246.283434 427.533333 245.818312 427.843590 245.351417 428.153846 244.882776 428.464103 244.412418 428.774359 243.940372 429.084615 243.466664 429.394872 242.991324 429.705128 242.514379 430.015385 242.035858 430.325641 241.555788 430.635897 241.074197 430.946154 240.591114 431.256410 240.106567 431.566667 239.620584 431.876923 239.133193 432.187179 238.644422 432.497436 238.154299 432.807692 237.662853 433.117949 237.170110 433.428205 236.676100 433.738462 236.180851 434.048718 235.684390 434.358974 235.186746 434.669231 234.687947 434.979487 234.188021 435.289744 233.686996 435.600000 233.184899 435.910256 232.681760 436.220513 232.177607 436.530769 231.672466 436.841026 231.166368 437.151282 230.659338 437.461538 230.151407 437.771795 229.642601 438.082051 229.132948 438.392308 228.622478 438.702564 228.111218 439.012821 227.599196 439.323077 227.086440 439.633333 226.572979 439.943590 226.058840 440.253846 225.544051 440.564103 225.028641 440.874359 224.512638 441.184615 223.996069 441.494872 223.478963 441.805128 222.961349 442.115385 222.443253 442.425641 221.924704 442.735897 221.405731 443.046154 220.886361 443.356410 220.366623 443.666667 219.846544 443.976923 219.326152 444.287179 218.805476 444.597436 218.284544 444.907692 217.763384 445.217949 217.242024 445.528205 216.720492 445.838462 216.198817 446.148718 215.677025 446.458974 215.155146 446.769231 214.633207 447.079487 214.111237 447.389744 213.589264 447.700000 213.067315 448.010256 212.545419 448.320513 212.023604 448.630769 211.501898 448.941026 210.980329 449.251282 210.458925 449.561538 209.937715 449.871795 209.416726 450.182051 208.895986 450.492308 208.375524 450.802564 207.855368 451.112821 207.335545 451.423077 206.816085 451.733333 206.297014 452.043590 205.778361 452.353846 205.260155 452.664103 204.742422 452.974359 204.225192 453.284615 203.708493 453.594872 203.192352 453.905128 202.676797 454.215385 202.161857 454.525641 201.647560 454.835897 201.133934 455.146154 200.621007 455.456410 200.108807 455.766667 199.597362 456.076923 199.086700 456.387179 198.576850 456.697436 198.067839 457.007692 197.559696 457.317949 197.052448 457.628205 196.546124 457.938462 196.040752 458.248718 195.536360 458.558974 195.032975 458.869231 194.530627 459.179487 194.029343 459.489744 193.529152 459.800000 193.030080 460.110256 192.532157 460.420513 192.035411 460.730769 191.539869 461.041026 191.045561 461.351282 190.552513 461.661538 190.060753 461.971795 189.570311 462.282051 189.081214 462.592308 188.593491 462.902564 188.107168 463.212821 187.622275 463.523077 187.138840 463.833333 186.656890 464.143590 186.176454 464.453846 185.697559 464.764103 185.220235 465.074359 184.744508 465.384615 184.270407 465.694872 183.797961 466.005128 183.327197 466.315385 182.858143 466.625641 182.390828 466.935897 181.925279 467.246154 181.461524 467.556410 180.999593 467.866667 180.539512 468.176923 180.081310 468.487179 179.625016 468.797436 179.170656 469.107692 178.718259 469.417949 178.267854 469.728205 177.819468 470.038462 177.373129 470.348718 176.928866 470.658974 176.486707 470.969231 176.046680 471.279487 175.608812 471.589744 175.173132 471.900000 174.739668 472.210256 174.308449 472.520513 173.879501 472.830769 173.452854 473.141026 173.028535 473.451282 172.606573 473.761538 172.186995 474.071795 171.769830 474.382051 171.355106 474.692308 170.942851 475.002564 170.533092 475.312821 170.125859 475.623077 169.721179 475.933333 169.319080 476.243590 168.919590 476.553846 168.522738 476.864103 168.128551 477.174359 167.737058 477.484615 167.348286 477.794872 166.962265 478.105128 166.579021 478.415385 166.198583 478.725641 165.820979 479.035897 165.446238 479.346154 165.074386 479.656410 164.705446 479.966667 164.339409 480.276923 163.976258 480.587179 163.615978 480.897436 163.258554 481.207692 162.903970 481.517949 162.552209 481.828205 162.203257 482.138462 161.857097 482.448718 161.513714 482.758974 161.173093 483.069231 160.835216 483.379487 160.500069 483.689744 160.167636 484.000000 159.837901 484.310256 159.510848 484.620513 159.186462 484.930769 158.864727 485.241026 158.545628 485.551282 158.229147 485.861538 157.915271 486.171795 157.603982 486.482051 157.295266 486.792308 156.989106 487.102564 156.685487 487.412821 156.384393 487.723077 156.085809 488.033333 155.789718 488.343590 155.496105 488.653846 155.204954 488.964103 154.916250 489.274359 154.629976 489.584615 154.346118 489.894872 154.064658 490.205128 153.785582 490.515385 153.508874 490.825641 153.234518 491.135897 152.962499 491.446154 152.692799 491.756410 152.425405 492.066667 152.160300 492.376923 151.897468 492.687179 151.636894 492.997436 151.378562 493.307692 151.122456 493.617949 150.868561 493.928205 150.616860 494.238462 150.367338 494.548718 150.119980 494.858974 149.874769 495.169231 149.631690 495.479487 149.390727 495.789744 149.151864 496.100000 148.915087 496.410256 148.680378 496.720513 148.447722 497.030769 148.217103 497.341026 147.988507 497.651282 147.761916 497.961538 147.537315 498.271795 147.314689 498.582051 147.094022 498.892308 146.875298 499.202564 146.658501 499.512821 146.443616 499.823077 146.230627 500.133333 146.019518 500.443590 145.810273 500.753846 145.602877 501.064103 145.397314 501.374359 145.193568 501.684615 144.991623 501.994872 144.791465 502.305128 144.593076 502.615385 144.396442 502.925641 144.201546 503.235897 144.008373 503.546154 143.816907 503.856410 143.627132 504.166667 143.439033 504.476923 143.252594 504.787179 143.067800 505.097436 142.884633 505.407692 142.703080 505.717949 142.523123 506.028205 142.344747 506.338462 142.167938 506.648718 141.992677 506.958974 141.818951 507.269231 141.646744 507.579487 141.476039 507.889744 141.306820 508.200000 141.139073 508.510256 140.972782 508.820513 140.807930 509.130769 140.644502 509.441026 140.482482 509.751282 140.321854 510.061538 140.162604 510.371795 140.004714 510.682051 139.848170 510.992308 139.692955 511.302564 139.539054 511.612821 139.386452 511.923077 139.235131 512.233333 139.085078 512.543590 138.936275 512.853846 138.788707 513.164103 138.642359 513.474359 138.497214 513.784615 138.353258 514.094872 138.210474 514.405128 138.068846 514.715385 137.928359 515.025641 137.788997 515.335897 137.650745 515.646154 137.513586 515.956410 137.377505 516.266667 137.242486 516.576923 137.108514 516.887179 136.975572 517.197436 136.843645 517.507692 136.712717 517.817949 136.582773 518.128205 136.453797 518.438462 136.325773 518.748718 136.198685 519.058974 136.072517 519.369231 135.947255 519.679487 135.822881 519.989744 135.699381 520.300000 135.576739 520.610256 135.454938 520.920513 135.333964 521.230769 135.213800 521.541026 135.094431 521.851282 134.975840 522.161538 134.858013 522.471795 134.740934 522.782051 134.624587 523.092308 134.508955 523.402564 134.394024 523.712821 134.279777 524.023077 134.166200 524.333333 134.053275 524.643590 133.940988 524.953846 133.829323 525.264103 133.718263 525.574359 133.607794 525.884615 133.497899 526.194872 133.388563 526.505128 133.279770 526.815385 133.171505 527.125641 133.063751 527.435897 132.956492 527.746154 132.849714 528.056410 132.743401 528.366667 132.637535 528.676923 132.532103 528.987179 132.427088 529.297436 132.322475 529.607692 132.218247 529.917949 132.114389 530.228205 132.010886 530.538462 131.907721 530.848718 131.804879 531.158974 131.702344 531.469231 131.600100 531.779487 131.498132 532.089744 131.396424 532.400000 131.294960 532.710256 131.193724 533.020513 131.092701 533.330769 130.991875 533.641026 130.891230 533.951282 130.790751 534.261538 130.690422 534.571795 130.590226 534.882051 130.490149 535.192308 130.390175 535.502564 130.290287 535.812821 130.190470 536.123077 130.090709 536.433333 129.990988 536.743590 129.891290 537.053846 129.791601 537.364103 129.691904 537.674359 129.592183 537.984615 129.492424 538.294872 129.392610 538.605128 129.292726 538.915385 129.192755 539.225641 129.092683 539.535897 128.992493 539.846154 128.892169 540.156410 128.791697 540.466667 128.691059 540.776923 128.590241 541.087179 128.489227 541.397436 128.388000 541.707692 128.286546 542.017949 128.184849 542.328205 128.082892 542.638462 127.980660 542.948718 127.878137 543.258974 127.775308 543.569231 127.672157 543.879487 127.568668 544.189744 127.464826 544.500000 127.360614 544.810256 127.256017 545.120513 127.151019 545.430769 127.045605 545.741026 126.939759 546.051282 126.833464 546.361538 126.726706 546.671795 126.619468 546.982051 126.511735 547.292308 126.403491 547.602564 126.294721 547.912821 126.185408 548.223077 126.075537 548.533333 125.965092 548.843590 125.854058 549.153846 125.742419 549.464103 125.630158 549.774359 125.517261 550.084615 125.403711 550.394872 125.289493 550.705128 125.174590 551.015385 125.058989 551.325641 124.942672 551.635897 124.825623 551.946154 124.707828 552.256410 124.589270 552.566667 124.469934 552.876923 124.349804 553.187179 124.228864 553.497436 124.107099 553.807692 123.984492 554.117949 123.861028 554.428205 123.736692 554.738462 123.611467 555.048718 123.485338 555.358974 123.358289 555.669231 123.230304 555.979487 123.101368 556.289744 122.971465 556.600000 122.840579 556.910256 122.708695 557.220513 122.575799 557.530769 122.441894 557.841026 122.306984 558.151282 122.171072 558.461538 122.034165 558.771795 121.896265 559.082051 121.757378 559.392308 121.617508 559.702564 121.476660 560.012821 121.334838 560.323077 121.192046 560.633333 121.048290 560.943590 120.903573 561.253846 120.757900 561.564103 120.611275 561.874359 120.463704 562.184615 120.315190 562.494872 120.165738 562.805128 120.015352 563.115385 119.864037 563.425641 119.711798 563.735897 119.558639 564.046154 119.404564 564.356410 119.249578 564.666667 119.093685 564.976923 118.936891 565.287179 118.779198 565.597436 118.620612 565.907692 118.461138 566.217949 118.300780 566.528205 118.139541 566.838462 117.977428 567.148718 117.814444 567.458974 117.650593 567.769231 117.485881 568.079487 117.320311 568.389744 117.153889 568.700000 116.986618 569.010256 116.818504 569.320513 116.649550 569.630769 116.479761 569.941026 116.309142 570.251282 116.137697 570.561538 115.965431 570.871795 115.792348 571.182051 115.618452 571.492308 115.443749 571.802564 115.268241 572.112821 115.091935 572.423077 114.914835 572.733333 114.736944 573.043590 114.558268 573.353846 114.378811 573.664103 114.198578 573.974359 114.017572 574.284615 113.835799 574.594872 113.653262 574.905128 113.469967 575.215385 113.285918 575.525641 113.101120 575.835897 112.915576 576.146154 112.729291 576.456410 112.542271 576.766667 112.354518 577.076923 112.166039 577.387179 111.976837 577.697436 111.786916 578.007692 111.596282 578.317949 111.404938 578.628205 111.212890 578.938462 111.020142 579.248718 110.826697 579.558974 110.632562 579.869231 110.437739 580.179487 110.242235 580.489744 110.046052 580.800000 109.849196 581.110256 109.651671 581.420513 109.453482 581.730769 109.254633 582.041026 109.055128 582.351282 108.854972 582.661538 108.654170 582.971795 108.452726 583.282051 108.250645 583.592308 108.047931 583.902564 107.844588 584.212821 107.640621 584.523077 107.436034 584.833333 107.230833 585.143590 107.025020 585.453846 106.818602 585.764103 106.611582 586.074359 106.403966 586.384615 106.195756 586.694872 105.986958 587.005128 105.777577 587.315385 105.567617 587.625641 105.357081 587.935897 105.145976 588.246154 104.934305 588.556410 104.722073 588.866667 104.509284 589.176923 104.295942 589.487179 104.082053 589.797436 103.867621 590.107692 103.652650 590.417949 103.437144 590.728205 103.221109 591.038462 103.004549 591.348718 102.787467 591.658974 102.569869 591.969231 102.351760 592.279487 102.133143 592.589744 101.914023 592.900000 101.694404 593.210256 101.474292 593.520513 101.253690 593.830769 101.032604 594.141026 100.811036 594.451282 100.588993 594.761538 100.366479 595.071795 100.143497 595.382051 99.920053 595.692308 99.696150 596.002564 99.471795 596.312821 99.246990 596.623077 99.021740 596.933333 98.796051 597.243590 98.569925 597.553846 98.343369 597.864103 98.116386 598.174359 97.888981 598.484615 97.661158 598.794872 97.432922 599.105128 97.204277 599.415385 96.975228 599.725641 96.745780 600.035897 96.515936 600.346154 96.285701 600.656410 96.055080 600.966667 95.824077 601.276923 95.592697 601.587179 95.360944 601.897436 95.128823 602.207692 94.896338 602.517949 94.663494 602.828205 94.430294 603.138462 94.196745 603.448718 93.962849 603.758974 93.728612 604.069231 93.494038 604.379487 93.259132 604.689744 93.023898 605.000000 92.788340 605.310256 92.552463 605.620513 92.316272 605.930769 92.079771 606.241026 91.842964 606.551282 91.605856 606.861538 91.368452 607.171795 91.130755 607.482051 90.892771 607.792308 90.654504 608.102564 90.415958 608.412821 90.177138 608.723077 89.938049 609.033333 89.698694 609.343590 89.459079 609.653846 89.219207 609.964103 88.979084 610.274359 88.738714 610.584615 88.498100 610.894872 88.257249 611.205128 88.016164 611.515385 87.774849 611.825641 87.533310 612.135897 87.291551 612.446154 87.049575 612.756410 86.807389 613.066667 86.564995 613.376923 86.322399 613.687179 86.079606 613.997436 85.836619 614.307692 85.593443 614.617949 85.350082 614.928205 85.106542 615.238462 84.862826 615.548718 84.618939 615.858974 84.374886 616.169231 84.130671 616.479487 83.886298 616.789744 83.641773 617.100000 83.397099 617.410256 83.152280 617.720513 82.907323 618.030769 82.662230 618.341026 82.417006 618.651282 82.171657 618.961538 81.926186 619.271795 81.680597 619.582051 81.434896 619.892308 81.189087 620.202564 80.943175 620.512821 80.697163 620.823077 80.451056 621.133333 80.204859 621.443590 79.958577 621.753846 79.712213 622.064103 79.465773 622.374359 79.219260 622.684615 78.972679 622.994872 78.726036 623.305128 78.479333 623.615385 78.232576 623.925641 77.985769 624.235897 77.738917 624.546154 77.492024 624.856410 77.245095 625.166667 76.998134 625.476923 76.751145 625.787179 76.504133 626.097436 76.257103 626.407692 76.010059 626.717949 75.763006 627.028205 75.515947 627.338462 75.268889 627.648718 75.021834 627.958974 74.774787 628.269231 74.527754 628.579487 74.280738 628.889744 74.033744 629.200000 73.786776 629.510256 73.539839 629.820513 73.292938 630.130769 73.046077 630.441026 72.799260 630.751282 72.552491 631.061538 72.305776 631.371795 72.059119 631.682051 71.812525 631.992308 71.565997 632.302564 71.319540 632.612821 71.073159 632.923077 70.826858 633.233333 70.580643 633.543590 70.334516 633.853846 70.088483 634.164103 69.842548 634.474359 69.596716 634.784615 69.350990 635.094872 69.105371 635.405128 68.859859 635.715385 68.614452 636.025641 68.369151 636.335897 68.123954 636.646154 67.878863 636.956410 67.633875 637.266667 67.388991 637.576923 67.144211 637.887179 66.899533 638.197436 66.654958 638.507692 66.410485 638.817949 66.166113 639.128205 65.921843 639.438462 65.677673 639.748718 65.433604 640.058974 65.189635 640.369231 64.945765 640.679487 64.701994 640.989744 64.458321 641.300000 64.214747 641.610256 63.971271 641.920513 63.727892 642.230769 63.484609 642.541026 63.241424 642.851282 62.998334 643.161538 62.755340 643.471795 62.512441 643.782051 62.269636 644.092308 62.026926 644.402564 61.784310 644.712821 61.541788 645.023077 61.299358 645.333333 61.057021 645.643590 60.814776 645.953846 60.572623 646.264103 60.330561 646.574359 60.088590 646.884615 59.846710 647.194872 59.604919 647.505128 59.363219 647.815385 59.121607 648.125641 58.880084 648.435897 58.638649 648.746154 58.397303 649.056410 58.156043 649.366667 57.914871 649.676923 57.673785 649.987179 57.432786 650.297436 57.191872 650.607692 56.951043 650.917949 56.710300 651.228205 56.469641 651.538462 56.229066 651.848718 55.988574 652.158974 55.748166 652.469231 55.507840 652.779487 55.267597 653.089744 55.027435 653.400000 54.787355 653.710256 54.547356 654.020513 54.307438 654.330769 54.067600 654.641026 53.827841 654.951282 53.588162 655.261538 53.348562 655.571795 53.109040 655.882051 52.869596 656.192308 52.630230 656.502564 52.390941 656.812821 52.151728 657.123077 51.912592 657.433333 51.673532 657.743590 51.434547 658.053846 51.195637 658.364103 50.956802 658.674359 50.718041 658.984615 50.479354 659.294872 50.240740 659.605128 50.002199 659.915385 49.763731 660.225641 49.525334 660.535897 49.287009 660.846154 49.048755 661.156410 48.810572 661.466667 48.572459 661.776923 48.334416 662.087179 48.096443 662.397436 47.858538 662.707692 47.620703 663.017949 47.382935 663.328205 47.145235 663.638462 46.907602 663.948718 46.670036 664.258974 46.432537 664.569231 46.195104 664.879487 45.957736 665.189744 45.720433 665.500000 45.483196 665.810256 45.246022 666.120513 45.008912 666.430769 44.771866 666.741026 44.534883 667.051282 44.297962 667.361538 44.061104 667.671795 43.824307 667.982051 43.587572 668.292308 43.350897 668.602564 43.114283 668.912821 42.877729 669.223077 42.641234 669.533333 42.404799 669.843590 42.168422 670.153846 41.932104 670.464103 41.695843 670.774359 41.459640 671.084615 41.223494 671.394872 40.987405 671.705128 40.751372 672.015385 40.515394 672.325641 40.279472 672.635897 40.043604 672.946154 39.807792 673.256410 39.572033 673.566667 39.336327 673.876923 39.100675 674.187179 38.865076 674.497436 38.629529 674.807692 38.394033 675.117949 38.158589 675.428205 37.923197 675.738462 37.687854 676.048718 37.452562 676.358974 37.217320 676.669231 36.982127 676.979487 36.746983 677.289744 36.511887 677.600000 36.276839 677.910256 36.041839 678.220513 35.806886 678.530769 35.571980 678.841026 35.337120 679.151282 35.102306 679.461538 34.867537 679.771795 34.632813 680.082051 34.398134 680.392308 34.163500 680.702564 33.928908 681.012821 33.694360 681.323077 33.459855 681.633333 33.225393 681.943590 32.990972 682.253846 32.756593 682.564103 32.522255 682.874359 32.287958 683.184615 32.053701 683.494872 31.819485 683.805128 31.585307 684.115385 31.351169 684.425641 31.117069 684.735897 30.883007 685.046154 30.648983 685.356410 30.414996 685.666667 30.181046 685.976923 29.947133 686.287179 29.713255 686.597436 29.479413 686.907692 29.245607 687.217949 29.011835 687.528205 28.778097 687.838462 28.544393 688.148718 28.310723 688.458974 28.077086 688.769231 27.843481 689.079487 27.609908 689.389744 27.376367 689.700000 27.142858 690.010256 26.909379 690.320513 26.675930 690.630769 26.442512 690.941026 26.209123 691.251282 25.975764 691.561538 25.742433 691.871795 25.509130 692.182051 25.275856 692.492308 25.042608 692.802564 24.809388 693.112821 24.576194 693.423077 24.343027 693.733333 24.109885 694.043590 23.876769 694.353846 23.643677 694.664103 23.410610 694.974359 23.177566 695.284615 22.944547 695.594872 22.711550 695.905128 22.478576 696.215385 22.245625 696.525641 22.012695 696.835897 21.779787 697.146154 21.546900 697.456410 21.314033 697.766667 21.081187 698.076923 20.848360 698.387179 20.615553 698.697436 20.382764 699.007692 20.149994 699.317949 19.917242 699.628205 19.684507 699.938462 19.451790 700.248718 19.219089 700.558974 18.986405 700.869231 18.753736 701.179487 18.521083 701.489744 18.288445 701.800000 18.055821 702.110256 17.823212 702.420513 17.590616 702.730769 17.358034 703.041026 17.125464 703.351282 16.892907 703.661538 16.660362 703.971795 16.427829 704.282051 16.195306 704.592308 15.962795 704.902564 15.730293 705.212821 15.497802 705.523077 15.265320 705.833333 15.032847 706.143590 14.800382 706.453846 14.567926 706.764103 14.335477 707.074359 14.103036 707.384615 13.870601 707.694872 13.638173 708.005128 13.405751 708.315385 13.173335 708.625641 12.940923 708.935897 12.708517 709.246154 12.476114 709.556410 12.243716 709.866667 12.011321 710.176923 11.778929 710.487179 11.546539 710.797436 11.314152 711.107692 11.081766 711.417949 10.849382 711.728205 10.616998 712.038462 10.384615 712.038462 540.000000" /></g></g><g class="titles" /><g class="plot overlay" transform="translate(54, 20)"><g class="series serie-0 color-0"><g class="dots"><circle class="dot reactive tooltip-trigger" cx="13.96153846153846" cy="529.6153846153846" r="2.5" /><desc class="value">358,511,888(kWh)</desc><desc class="x top">13.96153846153846</desc><desc class="y top">529.6153846153846</desc><desc class="x_label">2549</desc></g><g class="dots"><circle class="dot reactive tooltip-trigger" cx="91.52564102564101" cy="477.0616458954757" r="2.5" /><desc class="value">390,095,915(kWh)</desc><desc class="x top">91.52564102564101</desc><desc class="y top">477.0616458954757</desc><desc class="x_label">2550</desc></g><g class="dots"><circle class="dot reactive tooltip-trigger" cx="169.08974358974356" cy="456.7491939820149" r="2.5" /><desc class="value">402,303,401(kWh)</desc><desc class="x top">169.08974358974356</desc><desc class="y top">456.7491939820149</desc><desc class="x_label">2551</desc></g><g class="dots"><circle class="dot reactive tooltip-trigger" cx="246.65384615384613" cy="374.4130886318852" r="2.5" /><desc class="value">451,786,194(kWh)</desc><desc class="x top">246.65384615384613</desc><desc class="y top">374.4130886318852</desc><desc class="x_label">2552</desc></g><g class="dots"><circle class="dot reactive tooltip-trigger" cx="324.21794871794873" cy="280.52207264568295" r="2.5" /><desc class="value">508,213,319(kWh)</desc><desc class="x top">324.21794871794873</desc><desc class="y top">280.52207264568295</desc><desc class="x_label">2553</desc></g><g class="dots"><circle class="dot reactive tooltip-trigger" cx="401.78205128205127" cy="275.712253229379" r="2.5" /><desc class="value">511,103,950(kWh)</desc><desc class="x left top">401.78205128205127</desc><desc class="y left top">275.712253229379</desc><desc class="x_label">2554</desc></g><g class="dots"><circle class="dot reactive tooltip-trigger" cx="479.3461538461538" cy="165.07438639463675" r="2.5" /><desc class="value">577,595,687(kWh)</desc><desc class="x left">479.3461538461538</desc><desc class="y left">165.07438639463675</desc><desc class="x_label">2555</desc></g><g class="dots"><circle class="dot reactive tooltip-trigger" cx="556.9102564102565" cy="122.70869470668964" r="2.5" /><desc class="value">603,056,847(kWh)</desc><desc class="x left">556.9102564102565</desc><desc class="y left">122.70869470668964</desc><desc class="x_label">2556</desc></g><g class="dots"><circle class="dot reactive tooltip-trigger" cx="634.474358974359" cy="69.59671608855308" r="2.5" /><desc class="value">634,976,368(kWh)</desc><desc class="x left">634.474358974359</desc><desc class="y left">69.59671608855308</desc><desc class="x_label">2557</desc></g><g class="dots"><circle class="dot reactive tooltip-trigger" cx="712.0384615384615" cy="10.384615384615472" r="2.5" /><desc class="value">670,561,973(kWh)</desc><desc class="x left">712.0384615384615</desc><desc class="y left">10.384615384615472</desc><desc class="x_label">2558</desc></g></g></g><g class="plot text-overlay" transform="translate(54, 20)"><g class="series serie-0 color-0" /></g><g class="plot tooltip-overlay" transform="translate(54, 20)"><g class="tooltip" style="opacity: 0" transform="translate(0 0)"><rect class="tooltip-box" height="0" rx="0" ry="0" width="0" /><g class="text" /></g></g></g></svg>