<?xml version='1.0' encoding='utf-8'?>
<svg xmlns:xlink="http://www.w3.org/1999/xlink" class="pygal-chart" id="chart-77ccab2a-c838-4e99-a068-b55c7f527573" viewBox="0 0 800 600" xmlns="http://www.w3.org/2000/svg"><!--Generated with pygal 2.3.0 (etree) ©Kozea 2012-2016 on 2016-12-08--><!--http://pygal.org--><!--http://github.com/Kozea/pygal--><defs><style type="text/css">#chart-77ccab2a-c838-4e99-a068-b55c7f527573{-webkit-user-select:none;-webkit-font-smoothing:antialiased;font-family:Consolas,"Liberation Mono",Menlo,Courier,monospace}#chart-77ccab2a-c838-4e99-a068-b55c7f527573 .title{font-family:Consolas,"Liberation Mono",Menlo,Courier,monospace;font-size:16px}#chart-77ccab2a-c838-4e99-a068-b55c7f527573 .legends .legend text{font-family:Consolas,"Liberation Mono",Menlo,Courier,monospace;font-size:14px}#chart-77ccab2a-c838-4e99-a068-b55c7f527573 .axis text{font-family:Consolas,"Liberation Mono",Menlo,Courier,monospace;font-size:10px}#chart-77ccab2a-c838-4e99-a068-b55c7f527573 .axis text.major{font-family:Consolas,"Liberation Mono",Menlo,Courier,monospace;font-size:10px}#chart-77ccab2a-c838-4e99-a068-b55c7f527573 .text-overlay text.value{font-family:Consolas,"Liberation Mono",Menlo,Courier,monospace;font-size:16px}#chart-77ccab2a-c838-4e99-a068-b55c7f527573 .text-overlay text.label{font-family:Consolas,"Liberation Mono",Menlo,Courier,monospace;font-size:10px}#chart-77ccab2a-c838-4e99-a068-b55c7f527573 .tooltip{font-family:Consolas,"Liberation Mono",Menlo,Courier,monospace;font-size:14px}#chart-77ccab2a-c838-4e99-a068-b55c7f527573 text.no_data{font-family:Consolas,"Liberation Mono",Menlo,Courier,monospace;font-size:64px}
#chart-77ccab2a-c838-4e99-a068-b55c7f527573{background-color:rgba(249,249,249,1)}#chart-77ccab2a-c838-4e99-a068-b55c7f527573 path,#chart-77ccab2a-c838-4e99-a068-b55c7f527573 line,#chart-77ccab2a-c838-4e99-a068-b55c7f527573 rect,#chart-77ccab2a-c838-4e99-a068-b55c7f527573 circle{-webkit-transition:150ms;-moz-transition:150ms;transition:150ms}#chart-77ccab2a-c838-4e99-a068-b55c7f527573 .graph &gt; .background{fill:rgba(249,249,249,1)}#chart-77ccab2a-c838-4e99-a068-b55c7f527573 .plot &gt; .background{fill:rgba(255,255,255,1)}#chart-77ccab2a-c838-4e99-a068-b55c7f527573 .graph{fill:rgba(0,0,0,.87)}#chart-77ccab2a-c838-4e99-a068-b55c7f527573 text.no_data{fill:rgba(0,0,0,1)}#chart-77ccab2a-c838-4e99-a068-b55c7f527573 .title{fill:rgba(0,0,0,1)}#chart-77ccab2a-c838-4e99-a068-b55c7f527573 .legends .legend text{fill:rgba(0,0,0,.87)}#chart-77ccab2a-c838-4e99-a068-b55c7f527573 .legends .legend:hover text{fill:rgba(0,0,0,1)}#chart-77ccab2a-c838-4e99-a068-b55c7f527573 .axis .line{stroke:rgba(0,0,0,1)}#chart-77ccab2a-c838-4e99-a068-b55c7f527573 .axis .guide.line{stroke:rgba(0,0,0,.54)}#chart-77ccab2a-c838-4e99-a068-b55c7f527573 .axis .major.line{stroke:rgba(0,0,0,.87)}#chart-77ccab2a-c838-4e99-a068-b55c7f527573 .axis text.major{fill:rgba(0,0,0,1)}#chart-77ccab2a-c838-4e99-a068-b55c7f527573 .axis.y .guides:hover .guide.line,#chart-77ccab2a-c838-4e99-a068-b55c7f527573 .line-graph .axis.x .guides:hover .guide.line,#chart-77ccab2a-c838-4e99-a068-b55c7f527573 .stackedline-graph .axis.x .guides:hover .guide.line,#chart-77ccab2a-c838-4e99-a068-b55c7f527573 .xy-graph .axis.x .guides:hover .guide.line{stroke:rgba(0,0,0,1)}#chart-77ccab2a-c838-4e99-a068-b55c7f527573 .axis .guides:hover text{fill:rgba(0,0,0,1)}#chart-77ccab2a-c838-4e99-a068-b55c7f527573 .reactive{fill-opacity:.7;stroke-opacity:.8}#chart-77ccab2a-c838-4e99-a068-b55c7f527573 .ci{stroke:rgba(0,0,0,.87)}#chart-77ccab2a-c838-4e99-a068-b55c7f527573 .reactive.active,#chart-77ccab2a-c838-4e99-a068-b55c7f527573 .active .reactive{fill-opacity:.8;stroke-opacity:.9;stroke-width:4}#chart-77ccab2a-c838-4e99-a068-b55c7f527573 .ci .reactive.active{stroke-width:1.5}#chart-77ccab2a-c838-4e99-a068-b55c7f527573 .series text{fill:rgba(0,0,0,1)}#chart-77ccab2a-c838-4e99-a068-b55c7f527573 .tooltip rect{fill:rgba(255,255,255,1);stroke:rgba(0,0,0,1);-webkit-transition:opacity 150ms;-moz-transition:opacity 150ms;transition:opacity 150ms}#chart-77ccab2a-c838-4e99-a068-b55c7f527573 .tooltip .label{fill:rgba(0,0,0,.87)}#chart-77ccab2a-c838-4e99-a068-b55c7f527573 .tooltip .label{fill:rgba(0,0,0,.87)}#chart-77ccab2a-c838-4e99-a068-b55c7f527573 .tooltip .legend{font-size:.8em;fill:rgba(0,0,0,.54)}#chart-77ccab2a-c838-4e99-a068-b55c7f527573 .tooltip .x_label{font-size:.6em;fill:rgba(0,0,0,1)}#chart-77ccab2a-c838-4e99-a068-b55c7f527573 .tooltip .xlink{font-size:.5em;text-decoration:underline}#chart-77ccab2a-c838-4e99-a068-b55c7f527573 .tooltip .value{font-size:1.5em}#chart-77ccab2a-c838-4e99-a068-b55c7f527573 .bound{font-size:.5em}#chart-77ccab2a-c838-4e99-a068-b55c7f527573 .max-value{font-size:.75em;fill:rgba(0,0,0,.54)}#chart-77ccab2a-c838-4e99-a068-b55c7f527573 .map-element{fill:rgba(255,255,255,1);stroke:rgba(0,0,0,.54) !important}#chart-77ccab2a-c838-4e99-a068-b55c7f527573 .map-element .reactive{fill-opacity:inherit;stroke-opacity:inherit}#chart-77ccab2a-c838-4e99-a068-b55c7f527573 .color-0,#chart-77ccab2a-c838-4e99-a068-b55c7f527573 .color-0 a:visited{stroke:#e86fa0;fill:#e86fa0}#chart-77ccab2a-c838-4e99-a068-b55c7f527573 .text-overlay .color-0 text{fill:black}
#chart-77ccab2a-c838-4e99-a068-b55c7f527573 text.no_data{text-anchor:middle}#chart-77ccab2a-c838-4e99-a068-b55c7f527573 .guide.line{fill:none}#chart-77ccab2a-c838-4e99-a068-b55c7f527573 .centered{text-anchor:middle}#chart-77ccab2a-c838-4e99-a068-b55c7f527573 .title{text-anchor:middle}#chart-77ccab2a-c838-4e99-a068-b55c7f527573 .legends .legend text{fill-opacity:1}#chart-77ccab2a-c838-4e99-a068-b55c7f527573 .axis.x text{text-anchor:middle}#chart-77ccab2a-c838-4e99-a068-b55c7f527573 .axis.x:not(.web) text[transform]{text-anchor:start}#chart-77ccab2a-c838-4e99-a068-b55c7f527573 .axis.x:not(.web) text[transform].backwards{text-anchor:end}#chart-77ccab2a-c838-4e99-a068-b55c7f527573 .axis.y text{text-anchor:end}#chart-77ccab2a-c838-4e99-a068-b55c7f527573 .axis.y text[transform].backwards{text-anchor:start}#chart-77ccab2a-c838-4e99-a068-b55c7f527573 .axis.y2 text{text-anchor:start}#chart-77ccab2a-c838-4e99-a068-b55c7f527573 .axis.y2 text[transform].backwards{text-anchor:end}#chart-77ccab2a-c838-4e99-a068-b55c7f527573 .axis .guide.line{stroke-dasharray:4,4}#chart-77ccab2a-c838-4e99-a068-b55c7f527573 .axis .major.guide.line{stroke-dasharray:6,6}#chart-77ccab2a-c838-4e99-a068-b55c7f527573 .horizontal .axis.y .guide.line,#chart-77ccab2a-c838-4e99-a068-b55c7f527573 .horizontal .axis.y2 .guide.line,#chart-77ccab2a-c838-4e99-a068-b55c7f527573 .vertical .axis.x .guide.line{opacity:0}#chart-77ccab2a-c838-4e99-a068-b55c7f527573 .horizontal .axis.always_show .guide.line,#chart-77ccab2a-c838-4e99-a068-b55c7f527573 .vertical .axis.always_show .guide.line{opacity:1 !important}#chart-77ccab2a-c838-4e99-a068-b55c7f527573 .axis.y .guides:hover .guide.line,#chart-77ccab2a-c838-4e99-a068-b55c7f527573 .axis.y2 .guides:hover .guide.line,#chart-77ccab2a-c838-4e99-a068-b55c7f527573 .axis.x .guides:hover .guide.line{opacity:1}#chart-77ccab2a-c838-4e99-a068-b55c7f527573 .axis .guides:hover text{opacity:1}#chart-77ccab2a-c838-4e99-a068-b55c7f527573 .nofill{fill:none}#chart-77ccab2a-c838-4e99-a068-b55c7f527573 .subtle-fill{fill-opacity:.2}#chart-77ccab2a-c838-4e99-a068-b55c7f527573 .dot{stroke-width:1px;fill-opacity:1}#chart-77ccab2a-c838-4e99-a068-b55c7f527573 .dot.active{stroke-width:5px}#chart-77ccab2a-c838-4e99-a068-b55c7f527573 .dot.negative{fill:transparent}#chart-77ccab2a-c838-4e99-a068-b55c7f527573 text,#chart-77ccab2a-c838-4e99-a068-b55c7f527573 tspan{stroke:none !important}#chart-77ccab2a-c838-4e99-a068-b55c7f527573 .series text.active{opacity:1}#chart-77ccab2a-c838-4e99-a068-b55c7f527573 .tooltip rect{fill-opacity:.95;stroke-width:.5}#chart-77ccab2a-c838-4e99-a068-b55c7f527573 .tooltip text{fill-opacity:1}#chart-77ccab2a-c838-4e99-a068-b55c7f527573 .showable{visibility:hidden}#chart-77ccab2a-c838-4e99-a068-b55c7f527573 .showable.shown{visibility:visible}#chart-77ccab2a-c838-4e99-a068-b55c7f527573 .gauge-background{fill:rgba(229,229,229,1);stroke:none}#chart-77ccab2a-c838-4e99-a068-b55c7f527573 .bg-lines{stroke:rgba(249,249,249,1);stroke-width:2px}</style><script type="text/javascript">window.pygal = window.pygal || {};window.pygal.config = window.pygal.config || {};window.pygal.config['77ccab2a-c838-4e99-a068-b55c7f527573'] = {"no_data_text": "No data", "no_prefix": false, "xrange": null, "print_values_position": "center", "truncate_label": null, "x_labels": ["2549", "2550", "2551", "2552", "2553", "2554", "2555", "2556", "2557", "2558"], "title": null, "force_uri_protocol": "https", "defs": [], "formatter": null, "classes": ["pygal-chart"], "y_labels": null, "rounded_bars": null, "explicit_size": false, "x_labels_major_every": null, "legend_at_bottom_columns": null, "stroke_style": null, "half_pie": false, "spacing": 10, "tooltip_fancy_mode": true, "inverse_y_axis": false, "width": 800, "inner_radius": 0, "interpolation_parameters": {}, "tooltip_border_radius": 0, "style": {"no_data_font_family": "Consolas, \"Liberation Mono\", Menlo, Courier, monospace", "tooltip_font_size": 14, "tooltip_font_family": "Consolas, \"Liberation Mono\", Menlo, Courier, monospace", "stroke_opacity_hover": ".9", "legend_font_family": "Consolas, \"Liberation Mono\", Menlo, Courier, monospace", "font_family": "Consolas, \"Liberation Mono\", Menlo, Courier, monospace", "title_font_family": "Consolas, \"Liberation Mono\", Menlo, Courier, monospace", "background": "rgba(249, 249, 249, 1)", "stroke_opacity": ".8", "foreground": "rgba(0, 0, 0, .87)", "value_background": "rgba(229, 229, 229, 1)", "guide_stroke_dasharray": "4,4", "foreground_subtle": "rgba(0, 0, 0, .54)", "opacity_hover": ".8", "value_font_family": "Consolas, \"Liberation Mono\", Menlo, Courier, monospace", "value_label_font_size": 10, "plot_background": "rgba(255, 255, 255, 1)", "ci_colors": [], "label_font_size": 10, "major_label_font_size": 10, "title_font_size": 16, "no_data_font_size": 64, "value_font_size": 16, "value_colors": [], "label_font_family": "Consolas, \"Liberation Mono\", Menlo, Courier, monospace", "major_guide_stroke_dasharray": "6,6", "transition": "150ms", "foreground_strong": "rgba(0, 0, 0, 1)", "colors": ["#e86fa0", "#e88f6f", "#e8df6f", "#a0e86f", "#6fe88f", "#6fe8df", "#6fa0e8", "#8f6fe8", "#df6fe8", "#e86fa0"], "opacity": ".7", "legend_font_size": 14, "value_label_font_family": "Consolas, \"Liberation Mono\", Menlo, Courier, monospace", "major_label_font_family": "Consolas, \"Liberation Mono\", Menlo, Courier, monospace"}, "x_labels_major_count": null, "interpolation_precision": 250, "missing_value_fill_truncation": "x", "stack_from_top": false, "truncate_legend": null, "show_minor_x_labels": true, "print_zeroes": true, "css": ["file://style.css", "file://graph.css"], "y_label_rotation": 0, "legend_at_bottom": false, "print_values": false, "margin_top": null, "max_scale": 16, "allow_interruptions": false, "show_x_labels": true, "strict": false, "show_x_guides": false, "stroke": true, "margin_left": null, "dynamic_print_values": false, "print_labels": false, "show_y_labels": true, "x_labels_major": null, "range": null, "x_label_rotation": 0, "margin": 20, "zero": 0, "include_x_axis": false, "height": 600, "show_minor_y_labels": true, "show_dots": true, "interpolate": "cubic", "show_y_guides": true, "y_labels_major": null, "box_mode": "extremes", "margin_bottom": null, "order_min": null, "legend_box_size": 12, "fill": true, "show_only_major_dots": false, "js": ["//kozea.github.io/pygal.js/2.0.x/pygal-tooltips.min.js"], "x_title": null, "y_labels_major_every": null, "y_labels_major_count": null, "disable_xml_declaration": false, "y_title": null, "logarithmic": false, "pretty_print": false, "min_scale": 4, "dots_size": 2.5, "margin_right": null, "legends": [null], "secondary_range": null, "show_legend": false}</script><script type="text/javascript" xlink:href="https://kozea.github.io/pygal.js/2.0.x/pygal-tooltips.min.js" /></defs><title>Pygal</title><g class="graph stackedline-graph vertical"><rect class="background" height="600" width="800" x="0" y="0" /><g class="plot" transform="translate(54, 20)"><rect class="background" height="540" width="726.0" x="0" y="0" /><g class="axis y"><path class="line" d="M0.000000 540.000000 h726.000000" /><g class="guides"><path class="guide line" d="M0.000000 520.133962 h726.000000" /><text class="" x="-5" y="523.6339621611407">180M</text><title>180M</title></g><g class="guides"><path class="guide line" d="M0.000000 481.540325 h726.000000" /><text class="" x="-5" y="485.0403245391132">190M</text><title>190M</title></g><g class="guides"><path class="major guide line" d="M0.000000 442.946687 h726.000000" /><text class="major" x="-5" y="446.4466869170857">200M</text><title>200M</title></g><g class="guides"><path class="guide line" d="M0.000000 404.353049 h726.000000" /><text class="" x="-5" y="407.85304929505816">210M</text><title>210M</title></g><g class="guides"><path class="guide line" d="M0.000000 365.759412 h726.000000" /><text class="" x="-5" y="369.2594116730306">220M</text><title>220M</title></g><g class="guides"><path class="guide line" d="M0.000000 327.165774 h726.000000" /><text class="" x="-5" y="330.6657740510031">230M</text><title>230M</title></g><g class="guides"><path class="guide line" d="M0.000000 288.572136 h726.000000" /><text class="" x="-5" y="292.07213642897557">240M</text><title>240M</title></g><g class="guides"><path class="major guide line" d="M0.000000 249.978499 h726.000000" /><text class="major" x="-5" y="253.47849880694804">250M</text><title>250M</title></g><g class="guides"><path class="guide line" d="M0.000000 211.384861 h726.000000" /><text class="" x="-5" y="214.8848611849205">260M</text><title>260M</title></g><g class="guides"><path class="guide line" d="M0.000000 172.791224 h726.000000" /><text class="" x="-5" y="176.29122356289298">270M</text><title>270M</title></g><g class="guides"><path class="guide line" d="M0.000000 134.197586 h726.000000" /><text class="" x="-5" y="137.69758594086545">280M</text><title>280M</title></g><g class="guides"><path class="guide line" d="M0.000000 95.603948 h726.000000" /><text class="" x="-5" y="99.10394831883792">290M</text><title>290M</title></g><g class="guides"><path class="major guide line" d="M0.000000 57.010311 h726.000000" /><text class="major" x="-5" y="60.510310696810336">300M</text><title>300M</title></g><g class="guides"><path class="guide line" d="M0.000000 18.416673 h726.000000" /><text class="" x="-5" y="21.916673074782807">310M</text><title>310M</title></g></g><g class="axis x"><g class="guides"><path class="line" d="M13.961538 0.000000 v540.000000" /><text class="" x="13.96153846153846" y="555.0">2549</text></g><g class="guides"><path class="guide line" d="M91.525641 0.000000 v540.000000" /><text class="" x="91.52564102564101" y="555.0">2550</text></g><g class="guides"><path class="guide line" d="M169.089744 0.000000 v540.000000" /><text class="" x="169.08974358974356" y="555.0">2551</text></g><g class="guides"><path class="guide line" d="M246.653846 0.000000 v540.000000" /><text class="" x="246.65384615384613" y="555.0">2552</text></g><g class="guides"><path class="guide line" d="M324.217949 0.000000 v540.000000" /><text class="" x="324.21794871794873" y="555.0">2553</text></g><g class="guides"><path class="guide line" d="M401.782051 0.000000 v540.000000" /><text class="" x="401.78205128205127" y="555.0">2554</text></g><g class="guides"><path class="guide line" d="M479.346154 0.000000 v540.000000" /><text class="" x="479.3461538461538" y="555.0">2555</text></g><g class="guides"><path class="guide line" d="M556.910256 0.000000 v540.000000" /><text class="" x="556.9102564102565" y="555.0">2556</text></g><g class="guides"><path class="guide line" d="M634.474359 0.000000 v540.000000" /><text class="" x="634.474358974359" y="555.0">2557</text></g><g class="guides"><path class="guide line" d="M712.038462 0.000000 v540.000000" /><text class="" x="712.0384615384615" y="555.0">2558</text></g></g><g class="series serie-0 color-0"><path class="line reactive" d="M13.961538 540.000000 L13.961538 529.615385 14.271795 529.388183 14.582051 529.160984 14.892308 528.933788 15.202564 528.706598 15.512821 528.479416 15.823077 528.252244 16.133333 528.025083 16.443590 527.797936 16.753846 527.570804 17.064103 527.343690 17.374359 527.116595 17.684615 526.889521 17.994872 526.662470 18.305128 526.435445 18.615385 526.208447 18.925641 525.981478 19.235897 525.754539 19.546154 525.527634 19.856410 525.300763 20.166667 525.073929 20.476923 524.847134 20.787179 524.620380 21.097436 524.393668 21.407692 524.167000 21.717949 523.940379 22.028205 523.713806 22.338462 523.487284 22.648718 523.260814 22.958974 523.034398 23.269231 522.808038 23.579487 522.581736 23.889744 522.355494 24.200000 522.129314 24.510256 521.903198 24.820513 521.677147 25.130769 521.451165 25.441026 521.225251 25.751282 520.999410 26.061538 520.773642 26.371795 520.547949 26.682051 520.322334 26.992308 520.096798 27.302564 519.871344 27.612821 519.645972 27.923077 519.420686 28.233333 519.195487 28.543590 518.970376 28.853846 518.745357 29.164103 518.520431 29.474359 518.295599 29.784615 518.070864 30.094872 517.846227 30.405128 517.621692 30.715385 517.397258 31.025641 517.172930 31.335897 516.948707 31.646154 516.724593 31.956410 516.500589 32.266667 516.276698 32.576923 516.052920 32.887179 515.829259 33.197436 515.605716 33.507692 515.382292 33.817949 515.158991 34.128205 514.935813 34.438462 514.712761 34.748718 514.489836 35.058974 514.267041 35.369231 514.044378 35.679487 513.821848 35.989744 513.599454 36.300000 513.377197 36.610256 513.155079 36.920513 512.933103 37.230769 512.711269 37.541026 512.489581 37.851282 512.268040 38.161538 512.046648 38.471795 511.825406 38.782051 511.604318 39.092308 511.383384 39.402564 511.162607 39.712821 510.941988 40.023077 510.721530 40.333333 510.501234 40.643590 510.281103 40.953846 510.061139 41.264103 509.841342 41.574359 509.621716 41.884615 509.402262 42.194872 509.182982 42.505128 508.963878 42.815385 508.744952 43.125641 508.526206 43.435897 508.307642 43.746154 508.089262 44.056410 507.871067 44.366667 507.653060 44.676923 507.435242 44.987179 507.217616 45.297436 507.000184 45.607692 506.782947 45.917949 506.565907 46.228205 506.349066 46.538462 506.132427 46.848718 505.915990 47.158974 505.699759 47.469231 505.483735 47.779487 505.267919 48.089744 505.052315 48.400000 504.836923 48.710256 504.621746 49.020513 504.406786 49.330769 504.192044 49.641026 503.977523 49.951282 503.763224 50.261538 503.549150 50.571795 503.335302 50.882051 503.121682 51.192308 502.908292 51.502564 502.695135 51.812821 502.482211 52.123077 502.269524 52.433333 502.057074 52.743590 501.844865 53.053846 501.632897 53.364103 501.421173 53.674359 501.209695 53.984615 500.998464 54.294872 500.787483 54.605128 500.576753 54.915385 500.366276 55.225641 500.156055 55.535897 499.946092 55.846154 499.736387 56.156410 499.526944 56.466667 499.317764 56.776923 499.108848 57.087179 498.900200 57.397436 498.691820 57.707692 498.483712 58.017949 498.275876 58.328205 498.068315 58.638462 497.861030 58.948718 497.654024 59.258974 497.447299 59.569231 497.240856 59.879487 497.034697 60.189744 496.828825 60.500000 496.623240 60.810256 496.417946 61.120513 496.212944 61.430769 496.008237 61.741026 495.803825 62.051282 495.599711 62.361538 495.395896 62.671795 495.192384 62.982051 494.989175 63.292308 494.786272 63.602564 494.583677 63.912821 494.381391 64.223077 494.179416 64.533333 493.977755 64.843590 493.776409 65.153846 493.575380 65.464103 493.374671 65.774359 493.174283 66.084615 492.974217 66.394872 492.774477 66.705128 492.575064 67.015385 492.375979 67.325641 492.177225 67.635897 491.978804 67.946154 491.780718 68.256410 491.582968 68.566667 491.385557 68.876923 491.188486 69.187179 490.991758 69.497436 490.795374 69.807692 490.599336 70.117949 490.403646 70.428205 490.208307 70.738462 490.013320 71.048718 489.818686 71.358974 489.624409 71.669231 489.430489 71.979487 489.236929 72.289744 489.043731 72.600000 488.850897 72.910256 488.658428 73.220513 488.466327 73.530769 488.274595 73.841026 488.083235 74.151282 487.892248 74.461538 487.701636 74.771795 487.511401 75.082051 487.321546 75.392308 487.132072 75.702564 486.942981 76.012821 486.754274 76.323077 486.565955 76.633333 486.378024 76.943590 486.190484 77.253846 486.003337 77.564103 485.816585 77.874359 485.630229 78.184615 485.444271 78.494872 485.258714 78.805128 485.073559 79.115385 484.888809 79.425641 484.704465 79.735897 484.520529 80.046154 484.337003 80.356410 484.153889 80.666667 483.971189 80.976923 483.788905 81.287179 483.607039 81.597436 483.425592 81.907692 483.244567 82.217949 483.063966 82.528205 482.883791 82.838462 482.704043 83.148718 482.524724 83.458974 482.345837 83.769231 482.167383 84.079487 481.989365 84.389744 481.811783 84.700000 481.634641 85.010256 481.457940 85.320513 481.281681 85.630769 481.105868 85.941026 480.930501 86.251282 480.755584 86.561538 480.581117 86.871795 480.407102 87.182051 480.233543 87.492308 480.060439 87.802564 479.887795 88.112821 479.715610 88.423077 479.543888 88.733333 479.372630 89.043590 479.201839 89.353846 479.031515 89.664103 478.861662 89.974359 478.692280 90.284615 478.523373 90.594872 478.354941 90.905128 478.186988 91.215385 478.019513 91.525641 477.852521 91.835897 477.686011 92.146154 477.519979 92.456410 477.354420 92.766667 477.189328 93.076923 477.024698 93.387179 476.860525 93.697436 476.696802 94.007692 476.533526 94.317949 476.370689 94.628205 476.208287 94.938462 476.046314 95.248718 475.884765 95.558974 475.723634 95.869231 475.562917 96.179487 475.402607 96.489744 475.242699 96.800000 475.083188 97.110256 474.924068 97.420513 474.765333 97.730769 474.606980 98.041026 474.449001 98.351282 474.291391 98.661538 474.134146 98.971795 473.977259 99.282051 473.820726 99.592308 473.664540 99.902564 473.508696 100.212821 473.353190 100.523077 473.198015 100.833333 473.043166 101.143590 472.888638 101.453846 472.734424 101.764103 472.580521 102.074359 472.426922 102.384615 472.273621 102.694872 472.120614 103.005128 471.967896 103.315385 471.815459 103.625641 471.663300 103.935897 471.511413 104.246154 471.359791 104.556410 471.208431 104.866667 471.057326 105.176923 470.906471 105.487179 470.755860 105.797436 470.605489 106.107692 470.455351 106.417949 470.305442 106.728205 470.155755 107.038462 470.006286 107.348718 469.857028 107.658974 469.707977 107.969231 469.559128 108.279487 469.410473 108.589744 469.262009 108.900000 469.113730 109.210256 468.965630 109.520513 468.817704 109.830769 468.669947 110.141026 468.522352 110.451282 468.374915 110.761538 468.227630 111.071795 468.080492 111.382051 467.933496 111.692308 467.786635 112.002564 467.639904 112.312821 467.493299 112.623077 467.346813 112.933333 467.200441 113.243590 467.054178 113.553846 466.908018 113.864103 466.761956 114.174359 466.615987 114.484615 466.470104 114.794872 466.324303 115.105128 466.178578 115.415385 466.032924 115.725641 465.887335 116.035897 465.741805 116.346154 465.596330 116.656410 465.450904 116.966667 465.305522 117.276923 465.160177 117.587179 465.014865 117.897436 464.869581 118.207692 464.724318 118.517949 464.579071 118.828205 464.433835 119.138462 464.288605 119.448718 464.143375 119.758974 463.998139 120.069231 463.852893 120.379487 463.707630 120.689744 463.562346 121.000000 463.417034 121.310256 463.271690 121.620513 463.126308 121.930769 462.980882 122.241026 462.835408 122.551282 462.689879 122.861538 462.544290 123.171795 462.398637 123.482051 462.252912 123.792308 462.107112 124.102564 461.961230 124.412821 461.815261 124.723077 461.669200 125.033333 461.523041 125.343590 461.376779 125.653846 461.230408 125.964103 461.083924 126.274359 460.937319 126.584615 460.790590 126.894872 460.643730 127.205128 460.496735 127.515385 460.349598 127.825641 460.202315 128.135897 460.054879 128.446154 459.907286 128.756410 459.759530 129.066667 459.611606 129.376923 459.463507 129.687179 459.315230 129.997436 459.166767 130.307692 459.018115 130.617949 458.869267 130.928205 458.720218 131.238462 458.570962 131.548718 458.421495 131.858974 458.271810 132.169231 458.121903 132.479487 457.971767 132.789744 457.821398 133.100000 457.670790 133.410256 457.519937 133.720513 457.368834 134.030769 457.217476 134.341026 457.065857 134.651282 456.913972 134.961538 456.761816 135.271795 456.609382 135.582051 456.456666 135.892308 456.303661 136.202564 456.150364 136.512821 455.996767 136.823077 455.842867 137.133333 455.688656 137.443590 455.534131 137.753846 455.379285 138.064103 455.224113 138.374359 455.068609 138.684615 454.912769 138.994872 454.756586 139.305128 454.600056 139.615385 454.443173 139.925641 454.285930 140.235897 454.128324 140.546154 453.970349 140.856410 453.811998 141.166667 453.653268 141.476923 453.494151 141.787179 453.334644 142.097436 453.174739 142.407692 453.014433 142.717949 452.853719 143.028205 452.692592 143.338462 452.531047 143.648718 452.369078 143.958974 452.206680 144.269231 452.043847 144.579487 451.880575 144.889744 451.716856 145.200000 451.552687 145.510256 451.388061 145.820513 451.222974 146.130769 451.057419 146.441026 450.891391 146.751282 450.724886 147.061538 450.557896 147.371795 450.390418 147.682051 450.222446 147.992308 450.053973 148.302564 449.884995 148.612821 449.715507 148.923077 449.545502 149.233333 449.374976 149.543590 449.203923 149.853846 449.032337 150.164103 448.860214 150.474359 448.687547 150.784615 448.514331 151.094872 448.340561 151.405128 448.166232 151.715385 447.991337 152.025641 447.815872 152.335897 447.639831 152.646154 447.463209 152.956410 447.285999 153.266667 447.108198 153.576923 446.929799 153.887179 446.750797 154.197436 446.571186 154.507692 446.390962 154.817949 446.210118 155.128205 446.028649 155.438462 445.846550 155.748718 445.663815 156.058974 445.480439 156.369231 445.296417 156.679487 445.111742 156.989744 444.926410 157.300000 444.740416 157.610256 444.553753 157.920513 444.366416 158.230769 444.178400 158.541026 443.989699 158.851282 443.800309 159.161538 443.610223 159.471795 443.419436 159.782051 443.227942 160.092308 443.035737 160.402564 442.842815 160.712821 442.649170 161.023077 442.454797 161.333333 442.259691 161.643590 442.063846 161.953846 441.867256 162.264103 441.669916 162.574359 441.471822 162.884615 441.272966 163.194872 441.073345 163.505128 440.872952 163.815385 440.671782 164.125641 440.469829 164.435897 440.267089 164.746154 440.063555 165.056410 439.859223 165.366667 439.654087 165.676923 439.448141 165.987179 439.241380 166.297436 439.033799 166.607692 438.825391 166.917949 438.616153 167.228205 438.406078 167.538462 438.195160 167.848718 437.983395 168.158974 437.770777 168.469231 437.557301 168.779487 437.342960 169.089744 437.127751 169.400000 436.911667 169.710256 436.694710 170.020513 436.476882 170.330769 436.258182 170.641026 436.038613 170.951282 435.818177 171.261538 435.596874 171.571795 435.374706 171.882051 435.151674 172.192308 434.927780 172.502564 434.703024 172.812821 434.477410 173.123077 434.250937 173.433333 434.023607 173.743590 433.795422 174.053846 433.566382 174.364103 433.336490 174.674359 433.105747 174.984615 432.874154 175.294872 432.641712 175.605128 432.408423 175.915385 432.174288 176.225641 431.939309 176.535897 431.703487 176.846154 431.466823 177.156410 431.229319 177.466667 430.990976 177.776923 430.751795 178.087179 430.511779 178.397436 430.270927 178.707692 430.029243 179.017949 429.786726 179.328205 429.543379 179.638462 429.299202 179.948718 429.054198 180.258974 428.808367 180.569231 428.561711 180.879487 428.314231 181.189744 428.065929 181.500000 427.816806 181.810256 427.566864 182.120513 427.316103 182.430769 427.064526 182.741026 426.812133 183.051282 426.558926 183.361538 426.304906 183.671795 426.050075 183.982051 425.794434 184.292308 425.537985 184.602564 425.280728 184.912821 425.022666 185.223077 424.763799 185.533333 424.504130 185.843590 424.243659 186.153846 423.982387 186.464103 423.720317 186.774359 423.457449 187.084615 423.193785 187.394872 422.929326 187.705128 422.664074 188.015385 422.398030 188.325641 422.131195 188.635897 421.863572 188.946154 421.595160 189.256410 421.325962 189.566667 421.055979 189.876923 420.785212 190.187179 420.513663 190.497436 420.241333 190.807692 419.968223 191.117949 419.694335 191.428205 419.419671 191.738462 419.144231 192.048718 418.868017 192.358974 418.591030 192.669231 418.313272 192.979487 418.034745 193.289744 417.755448 193.600000 417.475385 193.910256 417.194556 194.220513 416.912962 194.530769 416.630606 194.841026 416.347488 195.151282 416.063610 195.461538 415.778972 195.771795 415.493578 196.082051 415.207427 196.392308 414.920522 196.702564 414.632863 197.012821 414.344452 197.323077 414.055291 197.633333 413.765381 197.943590 413.474722 198.253846 413.183318 198.564103 412.891168 198.874359 412.598275 199.184615 412.304639 199.494872 412.010263 199.805128 411.715147 200.115385 411.419292 200.425641 411.122702 200.735897 410.825375 201.046154 410.527315 201.356410 410.228522 201.666667 409.928998 201.976923 409.628744 202.287179 409.327761 202.597436 409.026051 202.907692 408.723616 203.217949 408.420456 203.528205 408.116574 203.838462 407.811970 204.148718 407.506645 204.458974 407.200602 204.769231 406.893841 205.079487 406.586364 205.389744 406.278173 205.700000 405.969268 206.010256 405.659651 206.320513 405.349324 206.630769 405.038288 206.941026 404.726544 207.251282 404.414093 207.561538 404.100938 207.871795 403.787078 208.182051 403.472517 208.492308 403.157255 208.802564 402.841293 209.112821 402.524633 209.423077 402.207276 209.733333 401.889224 210.043590 401.570478 210.353846 401.251039 210.664103 400.930909 210.974359 400.610090 211.284615 400.288582 211.594872 399.966386 211.905128 399.643505 212.215385 399.319940 212.525641 398.995692 212.835897 398.670762 213.146154 398.345152 213.456410 398.018863 213.766667 397.691897 214.076923 397.364255 214.387179 397.035938 214.697436 396.706948 215.007692 396.377286 215.317949 396.046953 215.628205 395.715952 215.938462 395.384282 216.248718 395.051946 216.558974 394.718946 216.869231 394.385281 217.179487 394.050955 217.489744 393.715967 217.800000 393.380320 218.110256 393.044015 218.420513 392.707053 218.730769 392.369436 219.041026 392.031165 219.351282 391.692241 219.661538 391.352666 219.971795 391.012441 220.282051 390.671568 220.592308 390.330048 220.902564 389.987882 221.212821 389.645072 221.523077 389.301619 221.833333 388.957524 222.143590 388.612789 222.453846 388.267416 222.764103 387.921405 223.074359 387.574758 223.384615 387.227476 223.694872 386.879561 224.005128 386.531015 224.315385 386.181837 224.625641 385.832031 224.935897 385.481597 225.246154 385.130536 225.556410 384.778851 225.866667 384.426542 226.176923 384.073611 226.487179 383.720059 226.797436 383.365887 227.107692 383.011097 227.417949 382.655691 227.728205 382.299669 228.038462 381.943034 228.348718 381.585786 228.658974 381.227927 228.969231 380.869457 229.279487 380.510380 229.589744 380.150695 229.900000 379.790405 230.210256 379.429511 230.520513 379.068013 230.830769 378.705914 231.141026 378.343215 231.451282 377.979918 231.761538 377.616023 232.071795 377.251531 232.382051 376.886446 232.692308 376.520767 233.002564 376.154496 233.312821 375.787634 233.623077 375.420184 233.933333 375.052146 234.243590 374.683522 234.553846 374.314312 234.864103 373.944519 235.174359 373.574144 235.484615 373.203188 235.794872 372.831653 236.105128 372.459539 236.415385 372.086849 236.725641 371.713583 237.035897 371.339744 237.346154 370.965332 237.656410 370.590349 237.966667 370.214796 238.276923 369.838675 238.587179 369.461987 238.897436 369.084733 239.207692 368.706915 239.517949 368.328534 239.828205 367.949591 240.138462 367.570089 240.448718 367.190028 240.758974 366.809409 241.069231 366.428234 241.379487 366.046505 241.689744 365.664223 242.000000 365.281388 242.310256 364.898004 242.620513 364.514070 242.930769 364.129588 243.241026 363.744560 243.551282 363.358988 243.861538 362.972871 244.171795 362.586213 244.482051 362.199014 244.792308 361.811275 245.102564 361.422998 245.412821 361.034185 245.723077 360.644836 246.033333 360.254954 246.343590 359.864539 246.653846 359.473593 246.964103 359.082118 247.274359 358.690126 247.584615 358.297628 247.894872 357.904636 248.205128 357.511162 248.515385 357.117217 248.825641 356.722814 249.135897 356.327964 249.446154 355.932680 249.756410 355.536973 250.066667 355.140855 250.376923 354.744338 250.687179 354.347433 250.997436 353.950154 251.307692 353.552511 251.617949 353.154517 251.928205 352.756182 252.238462 352.357521 252.548718 351.958543 252.858974 351.559261 253.169231 351.159688 253.479487 350.759834 253.789744 350.359711 254.100000 349.959333 254.410256 349.558710 254.720513 349.157854 255.030769 348.756777 255.341026 348.355491 255.651282 347.954009 255.961538 347.552341 256.271795 347.150500 256.582051 346.748498 256.892308 346.346346 257.202564 345.944056 257.512821 345.541641 257.823077 345.139112 258.133333 344.736481 258.443590 344.333760 258.753846 343.930961 259.064103 343.528095 259.374359 343.125175 259.684615 342.722212 259.994872 342.319219 260.305128 341.916207 260.615385 341.513188 260.925641 341.110174 261.235897 340.707177 261.546154 340.304209 261.856410 339.901282 262.166667 339.498406 262.476923 339.095596 262.787179 338.692861 263.097436 338.290215 263.407692 337.887669 263.717949 337.485235 264.028205 337.082924 264.338462 336.680750 264.648718 336.278723 264.958974 335.876855 265.269231 335.475159 265.579487 335.073646 265.889744 334.672328 266.200000 334.271217 266.510256 333.870325 266.820513 333.469663 267.130769 333.069245 267.441026 332.669081 267.751282 332.269183 268.061538 331.869564 268.371795 331.470235 268.682051 331.071208 268.992308 330.672494 269.302564 330.274107 269.612821 329.876058 269.923077 329.478358 270.233333 329.081019 270.543590 328.684054 270.853846 328.287474 271.164103 327.891291 271.474359 327.495518 271.784615 327.100165 272.094872 326.705245 272.405128 326.310769 272.715385 325.916751 273.025641 325.523200 273.335897 325.130130 273.646154 324.737552 273.956410 324.345478 274.266667 323.953921 274.576923 323.562891 274.887179 323.172400 275.197436 322.782462 275.507692 322.393087 275.817949 322.004287 276.128205 321.616074 276.438462 321.228461 276.748718 320.841459 277.058974 320.455080 277.369231 320.069335 277.679487 319.684237 277.989744 319.299798 278.300000 318.916029 278.610256 318.532942 278.920513 318.150550 279.230769 317.768864 279.541026 317.387895 279.851282 317.007657 280.161538 316.628160 280.471795 316.249417 280.782051 315.871440 281.092308 315.494240 281.402564 315.117829 281.712821 314.742219 282.023077 314.367423 282.333333 313.993451 282.643590 313.620316 282.953846 313.248030 283.264103 312.876604 283.574359 312.506051 283.884615 312.136382 284.194872 311.767610 284.505128 311.399745 284.815385 311.032801 285.125641 310.666788 285.435897 310.301719 285.746154 309.937606 286.056410 309.574460 286.366667 309.212294 286.676923 308.851119 286.987179 308.490947 287.297436 308.131791 287.607692 307.773661 287.917949 307.416570 288.228205 307.060530 288.538462 306.705552 288.848718 306.351649 289.158974 305.998832 289.469231 305.647113 289.779487 305.296505 290.089744 304.947018 290.400000 304.598666 290.710256 304.251459 291.020513 303.905410 291.330769 303.560530 291.641026 303.216832 291.951282 302.874327 292.261538 302.533027 292.571795 302.192945 292.882051 301.854091 293.192308 301.516478 293.502564 301.180118 293.812821 300.845023 294.123077 300.511204 294.433333 300.178673 294.743590 299.847443 295.053846 299.517524 295.364103 299.188930 295.674359 298.861672 295.984615 298.535761 296.294872 298.211211 296.605128 297.888031 296.915385 297.566235 297.225641 297.245835 297.535897 296.926841 297.846154 296.609267 298.156410 296.293124 298.466667 295.978424 298.776923 295.665178 299.087179 295.353399 299.397436 295.043098 299.707692 294.734288 300.017949 294.426980 300.328205 294.121186 300.638462 293.816918 300.948718 293.514189 301.258974 293.213009 301.569231 292.913390 301.879487 292.615346 302.189744 292.318886 302.500000 292.024024 302.810256 291.730771 303.120513 291.439140 303.430769 291.149141 303.741026 290.860787 304.051282 290.574090 304.361538 290.289062 304.671795 290.005714 304.982051 289.724058 305.292308 289.444107 305.602564 289.165872 305.912821 288.889365 306.223077 288.614598 306.533333 288.341583 306.843590 288.070331 307.153846 287.800855 307.464103 287.533166 307.774359 287.267277 308.084615 287.003199 308.394872 286.740944 308.705128 286.480524 309.015385 286.221951 309.325641 285.965237 309.635897 285.710394 309.946154 285.457433 310.256410 285.206366 310.566667 284.957206 310.876923 284.709964 311.187179 284.464651 311.497436 284.221281 311.807692 283.979865 312.117949 283.740414 312.428205 283.502941 312.738462 283.267458 313.048718 283.033976 313.358974 282.802507 313.669231 282.573063 313.979487 282.345656 314.289744 282.120298 314.600000 281.897001 314.910256 281.675777 315.220513 281.456637 315.530769 281.239593 315.841026 281.024658 316.151282 280.811843 316.461538 280.601160 316.771795 280.392621 317.082051 280.186238 317.392308 279.982022 317.702564 279.779987 318.012821 279.580142 318.323077 279.382501 318.633333 279.187076 318.943590 278.993877 319.253846 278.802918 319.564103 278.614209 319.874359 278.427763 320.184615 278.243592 320.494872 278.061708 320.805128 277.882121 321.115385 277.704846 321.425641 277.529892 321.735897 277.357273 322.046154 277.186999 322.356410 277.019083 322.666667 276.853537 322.976923 276.690373 323.287179 276.529602 323.597436 276.371237 323.907692 276.215289 324.217949 276.061770 324.528205 275.910686 324.838462 275.762021 325.148718 275.615754 325.458974 275.471862 325.769231 275.330324 326.079487 275.191118 326.389744 275.054221 326.700000 274.919612 327.010256 274.787268 327.320513 274.657169 327.630769 274.529293 327.941026 274.403616 328.251282 274.280118 328.561538 274.158777 328.871795 274.039570 329.182051 273.922476 329.492308 273.807473 329.802564 273.694539 330.112821 273.583652 330.423077 273.474790 330.733333 273.367932 331.043590 273.263055 331.353846 273.160138 331.664103 273.059159 331.974359 272.960095 332.284615 272.862925 332.594872 272.767628 332.905128 272.674181 333.215385 272.582562 333.525641 272.492749 333.835897 272.404721 334.146154 272.318456 334.456410 272.233931 334.766667 272.151126 335.076923 272.070017 335.387179 271.990584 335.697436 271.912803 336.007692 271.836654 336.317949 271.762115 336.628205 271.689163 336.938462 271.617777 337.248718 271.547935 337.558974 271.479615 337.869231 271.412795 338.179487 271.347453 338.489744 271.283567 338.800000 271.221116 339.110256 271.160077 339.420513 271.100429 339.730769 271.042150 340.041026 270.985218 340.351282 270.929610 340.661538 270.875306 340.971795 270.822283 341.282051 270.770520 341.592308 270.719994 341.902564 270.670683 342.212821 270.622566 342.523077 270.575621 342.833333 270.529826 343.143590 270.485159 343.453846 270.441599 343.764103 270.399122 344.074359 270.357708 344.384615 270.317335 344.694872 270.277980 345.005128 270.239622 345.315385 270.202239 345.625641 270.165809 345.935897 270.130310 346.246154 270.095720 346.556410 270.062017 346.866667 270.029180 347.176923 269.997187 347.487179 269.966015 347.797436 269.935644 348.107692 269.906050 348.417949 269.877212 348.728205 269.849108 349.038462 269.821717 349.348718 269.795016 349.658974 269.768984 349.969231 269.743598 350.279487 269.718837 350.589744 269.694679 350.900000 269.671102 351.210256 269.648084 351.520513 269.625603 351.830769 269.603637 352.141026 269.582165 352.451282 269.561165 352.761538 269.540614 353.071795 269.520492 353.382051 269.500775 353.692308 269.481442 354.002564 269.462471 354.312821 269.443841 354.623077 269.425529 354.933333 269.407513 355.243590 269.389772 355.553846 269.372284 355.864103 269.355027 356.174359 269.337979 356.484615 269.321118 356.794872 269.304422 357.105128 269.287869 357.415385 269.271438 357.725641 269.255107 358.035897 269.238853 358.346154 269.222655 358.656410 269.206491 358.966667 269.190339 359.276923 269.174177 359.587179 269.157984 359.897436 269.141736 360.207692 269.125414 360.517949 269.108994 360.828205 269.092454 361.138462 269.075774 361.448718 269.058930 361.758974 269.041902 362.069231 269.024667 362.379487 269.007203 362.689744 268.989489 363.000000 268.971502 363.310256 268.953221 363.620513 268.934624 363.930769 268.915688 364.241026 268.896393 364.551282 268.876716 364.861538 268.856635 365.171795 268.836129 365.482051 268.815175 365.792308 268.793751 366.102564 268.771837 366.412821 268.749409 366.723077 268.726446 367.033333 268.702926 367.343590 268.678828 367.653846 268.654129 367.964103 268.628807 368.274359 268.602841 368.584615 268.576208 368.894872 268.548888 369.205128 268.520857 369.515385 268.492094 369.825641 268.462577 370.135897 268.432285 370.446154 268.401195 370.756410 268.369286 371.066667 268.336535 371.376923 268.302921 371.687179 268.268421 371.997436 268.233015 372.307692 268.196680 372.617949 268.159394 372.928205 268.121135 373.238462 268.081882 373.548718 268.041612 373.858974 268.000304 374.169231 267.957936 374.479487 267.914486 374.789744 267.869931 375.100000 267.824251 375.410256 267.777423 375.720513 267.729426 376.030769 267.680237 376.341026 267.629834 376.651282 267.578197 376.961538 267.525302 377.271795 267.471128 377.582051 267.415653 377.892308 267.358855 378.202564 267.300713 378.512821 267.241204 378.823077 267.180307 379.133333 267.117999 379.443590 267.054259 379.753846 266.989065 380.064103 266.922395 380.374359 266.854227 380.684615 266.784540 380.994872 266.713310 381.305128 266.640518 381.615385 266.566139 381.925641 266.490154 382.235897 266.412539 382.546154 266.333274 382.856410 266.252335 383.166667 266.169702 383.476923 266.085352 383.787179 265.999263 384.097436 265.911414 384.407692 265.821782 384.717949 265.730347 385.028205 265.637085 385.338462 265.541975 385.648718 265.444995 385.958974 265.346124 386.269231 265.245339 386.579487 265.142618 386.889744 265.037940 387.200000 264.931283 387.510256 264.822624 387.820513 264.711943 388.130769 264.599216 388.441026 264.484423 388.751282 264.367541 389.061538 264.248548 389.371795 264.127423 389.682051 264.004144 389.992308 263.878688 390.302564 263.751034 390.612821 263.621160 390.923077 263.489045 391.233333 263.354665 391.543590 263.218000 391.853846 263.079028 392.164103 262.937726 392.474359 262.794072 392.784615 262.648046 393.094872 262.499624 393.405128 262.348786 393.715385 262.195508 394.025641 262.039770 394.335897 261.881550 394.646154 261.720824 394.956410 261.557573 395.266667 261.391773 395.576923 261.223403 395.887179 261.052441 396.197436 260.878866 396.507692 260.702654 396.817949 260.523785 397.128205 260.342236 397.438462 260.157986 397.748718 259.971013 398.058974 259.781294 398.369231 259.588808 398.679487 259.393534 398.989744 259.195448 399.300000 258.994530 399.610256 258.790757 399.920513 258.584108 400.230769 258.374560 400.541026 258.162092 400.851282 257.946682 401.161538 257.728308 401.471795 257.506948 401.782051 257.282580 402.092308 257.055190 402.402564 256.824794 402.712821 256.591415 403.023077 256.355076 403.333333 256.115801 403.643590 255.873613 403.953846 255.628536 404.264103 255.380592 404.574359 255.129806 404.884615 254.876200 405.194872 254.619798 405.505128 254.360623 405.815385 254.098699 406.125641 253.834049 406.435897 253.566696 406.746154 253.296663 407.056410 253.023975 407.366667 252.748654 407.676923 252.470724 407.987179 252.190208 408.297436 251.907130 408.607692 251.621512 408.917949 251.333378 409.228205 251.042752 409.538462 250.749657 409.848718 250.454115 410.158974 250.156152 410.469231 249.855789 410.779487 249.553051 411.089744 249.247960 411.400000 248.940541 411.710256 248.630815 412.020513 248.318807 412.330769 248.004541 412.641026 247.688039 412.951282 247.369324 413.261538 247.048421 413.571795 246.725352 413.882051 246.400141 414.192308 246.072811 414.502564 245.743386 414.812821 245.411888 415.123077 245.078342 415.433333 244.742771 415.743590 244.405197 416.053846 244.065645 416.364103 243.724137 416.674359 243.380698 416.984615 243.035350 417.294872 242.688116 417.605128 242.339021 417.915385 241.988087 418.225641 241.635338 418.535897 241.280797 418.846154 240.924487 419.156410 240.566433 419.466667 240.206656 419.776923 239.845181 420.087179 239.482032 420.397436 239.117230 420.707692 238.750800 421.017949 238.382765 421.328205 238.013149 421.638462 237.641974 421.948718 237.269264 422.258974 236.895043 422.569231 236.519333 422.879487 236.142158 423.189744 235.763542 423.500000 235.383508 423.810256 235.002079 424.120513 234.619279 424.430769 234.235130 424.741026 233.849657 425.051282 233.462882 425.361538 233.074830 425.671795 232.685522 425.982051 232.294984 426.292308 231.903237 426.602564 231.510306 426.912821 231.116213 427.223077 230.720983 427.533333 230.324638 427.843590 229.927202 428.153846 229.528698 428.464103 229.129149 428.774359 228.728580 429.084615 228.327012 429.394872 227.924471 429.705128 227.520978 430.015385 227.116557 430.325641 226.711232 430.635897 226.305027 430.946154 225.897963 431.256410 225.490065 431.566667 225.081356 431.876923 224.671860 432.187179 224.261600 432.497436 223.850598 432.807692 223.438879 433.117949 223.026466 433.428205 222.613382 433.738462 222.199651 434.048718 221.785296 434.358974 221.370340 434.669231 220.954806 434.979487 220.538719 435.289744 220.122101 435.600000 219.704975 435.910256 219.287366 436.220513 218.869296 436.530769 218.450788 436.841026 218.031867 437.151282 217.612555 437.461538 217.192877 437.771795 216.772854 438.082051 216.352511 438.392308 215.931870 438.702564 215.510956 439.012821 215.089792 439.323077 214.668400 439.633333 214.246805 439.943590 213.825029 440.253846 213.403097 440.564103 212.981031 440.874359 212.558854 441.184615 212.136591 441.494872 211.714264 441.805128 211.291897 442.115385 210.869513 442.425641 210.447135 442.735897 210.024788 443.046154 209.602493 443.356410 209.180275 443.666667 208.758157 443.976923 208.336163 444.287179 207.914315 444.597436 207.492637 444.907692 207.071152 445.217949 206.649884 445.528205 206.228856 445.838462 205.808091 446.148718 205.387613 446.458974 204.967446 446.769231 204.547612 447.079487 204.128134 447.389744 203.709037 447.700000 203.290343 448.010256 202.872077 448.320513 202.454260 448.630769 202.036917 448.941026 201.620071 449.251282 201.203745 449.561538 200.787964 449.871795 200.372749 450.182051 199.958124 450.492308 199.544113 450.802564 199.130739 451.112821 198.718026 451.423077 198.305997 451.733333 197.894674 452.043590 197.484082 452.353846 197.074244 452.664103 196.665184 452.974359 196.256923 453.284615 195.849487 453.594872 195.442898 453.905128 195.037180 454.215385 194.632355 454.525641 194.228448 454.835897 193.825482 455.146154 193.423480 455.456410 193.022465 455.766667 192.622461 456.076923 192.223491 456.387179 191.825579 456.697436 191.428747 457.007692 191.033020 457.317949 190.638420 457.628205 190.244971 457.938462 189.852696 458.248718 189.461619 458.558974 189.071763 458.869231 188.683151 459.179487 188.295807 459.489744 187.909754 459.800000 187.525015 460.110256 187.141614 460.420513 186.759574 460.730769 186.378919 461.041026 185.999671 461.351282 185.621855 461.661538 185.245493 461.971795 184.870609 462.282051 184.497226 462.592308 184.125368 462.902564 183.755058 463.212821 183.386319 463.523077 183.019174 463.833333 182.653648 464.143590 182.289763 464.453846 181.927543 464.764103 181.567010 465.074359 181.208190 465.384615 180.851104 465.694872 180.495776 466.005128 180.142229 466.315385 179.790488 466.625641 179.440574 466.935897 179.092513 467.246154 178.746326 467.556410 178.402037 467.866667 178.059670 468.176923 177.719248 468.487179 177.380794 468.797436 177.044332 469.107692 176.709885 469.417949 176.377477 469.728205 176.047130 470.038462 175.718868 470.348718 175.392715 470.658974 175.068694 470.969231 174.746827 471.279487 174.427140 471.589744 174.109654 471.900000 173.794393 472.210256 173.481381 472.520513 173.170641 472.830769 172.862196 473.141026 172.556070 473.451282 172.252286 473.761538 171.950867 474.071795 171.651837 474.382051 171.355219 474.692308 171.061037 475.002564 170.769313 475.312821 170.480072 475.623077 170.193336 475.933333 169.909128 476.243590 169.627473 476.553846 169.348394 476.864103 169.071913 477.174359 168.798055 477.484615 168.526843 477.794872 168.258299 478.105128 167.992448 478.415385 167.729312 478.725641 167.468915 479.035897 167.211281 479.346154 166.956433 479.656410 166.704386 479.966667 166.455129 480.276923 166.208641 480.587179 165.964902 480.897436 165.723893 481.207692 165.485594 481.517949 165.249984 481.828205 165.017043 482.138462 164.786753 482.448718 164.559092 482.758974 164.334042 483.069231 164.111581 483.379487 163.891691 483.689744 163.674350 484.000000 163.459540 484.310256 163.247241 484.620513 163.037432 484.930769 162.830093 485.241026 162.625206 485.551282 162.422749 485.861538 162.222702 486.171795 162.025047 486.482051 161.829763 486.792308 161.636829 487.102564 161.446227 487.412821 161.257936 487.723077 161.071937 488.033333 160.888209 488.343590 160.706732 488.653846 160.527487 488.964103 160.350454 489.274359 160.175612 489.584615 160.002943 489.894872 159.832425 490.205128 159.664039 490.515385 159.497766 490.825641 159.333584 491.135897 159.171475 491.446154 159.011418 491.756410 158.853394 492.066667 158.697382 492.376923 158.543363 492.687179 158.391316 492.997436 158.241223 493.307692 158.093062 493.617949 157.946814 493.928205 157.802459 494.238462 157.659977 494.548718 157.519349 494.858974 157.380554 495.169231 157.243572 495.479487 157.108384 495.789744 156.974969 496.100000 156.843308 496.410256 156.713381 496.720513 156.585167 497.030769 156.458647 497.341026 156.333802 497.651282 156.210610 497.961538 156.089053 498.271795 155.969109 498.582051 155.850761 498.892308 155.733986 499.202564 155.618766 499.512821 155.505081 499.823077 155.392910 500.133333 155.282234 500.443590 155.173033 500.753846 155.065287 501.064103 154.958976 501.374359 154.854080 501.684615 154.750579 501.994872 154.648453 502.305128 154.547683 502.615385 154.448248 502.925641 154.350129 503.235897 154.253305 503.546154 154.157757 503.856410 154.063465 504.166667 153.970409 504.476923 153.878568 504.787179 153.787924 505.097436 153.698456 505.407692 153.610144 505.717949 153.522968 506.028205 153.436909 506.338462 153.351946 506.648718 153.268059 506.958974 153.185230 507.269231 153.103437 507.579487 153.022661 507.889744 152.942881 508.200000 152.864079 508.510256 152.786234 508.820513 152.709326 509.130769 152.633335 509.441026 152.558241 509.751282 152.484025 510.061538 152.410667 510.371795 152.338146 510.682051 152.266442 510.992308 152.195537 511.302564 152.125409 511.612821 152.056039 511.923077 151.987407 512.233333 151.919493 512.543590 151.852278 512.853846 151.785740 513.164103 151.719861 513.474359 151.654621 513.784615 151.589999 514.094872 151.525975 514.405128 151.462530 514.715385 151.399644 515.025641 151.337297 515.335897 151.275469 515.646154 151.214140 515.956410 151.153290 516.266667 151.092899 516.576923 151.032947 516.887179 150.973415 517.197436 150.914282 517.507692 150.855529 517.817949 150.797136 518.128205 150.739082 518.438462 150.681348 518.748718 150.623914 519.058974 150.566759 519.369231 150.509865 519.679487 150.453211 519.989744 150.396777 520.300000 150.340544 520.610256 150.284491 520.920513 150.228598 521.230769 150.172846 521.541026 150.117215 521.851282 150.061684 522.161538 150.006234 522.471795 149.950845 522.782051 149.895498 523.092308 149.840171 523.402564 149.784845 523.712821 149.729501 524.023077 149.674118 524.333333 149.618676 524.643590 149.563156 524.953846 149.507537 525.264103 149.451800 525.574359 149.395925 525.884615 149.339892 526.194872 149.283681 526.505128 149.227271 526.815385 149.170644 527.125641 149.113779 527.435897 149.056656 527.746154 148.999256 528.056410 148.941558 528.366667 148.883543 528.676923 148.825190 528.987179 148.766480 529.297436 148.707393 529.607692 148.647908 529.917949 148.588007 530.228205 148.527668 530.538462 148.466873 530.848718 148.405601 531.158974 148.343832 531.469231 148.281547 531.779487 148.218725 532.089744 148.155347 532.400000 148.091392 532.710256 148.026841 533.020513 147.961674 533.330769 147.895871 533.641026 147.829412 533.951282 147.762277 534.261538 147.694446 534.571795 147.625899 534.882051 147.556616 535.192308 147.486578 535.502564 147.415765 535.812821 147.344156 536.123077 147.271732 536.433333 147.198472 536.743590 147.124358 537.053846 147.049368 537.364103 146.973483 537.674359 146.896683 537.984615 146.818949 538.294872 146.740260 538.605128 146.660596 538.915385 146.579938 539.225641 146.498265 539.535897 146.415557 539.846154 146.331796 540.156410 146.246960 540.466667 146.161030 540.776923 146.073986 541.087179 145.985808 541.397436 145.896477 541.707692 145.805971 542.017949 145.714272 542.328205 145.621359 542.638462 145.527212 542.948718 145.431813 543.258974 145.335139 543.569231 145.237173 543.879487 145.137893 544.189744 145.037280 544.500000 144.935314 544.810256 144.831976 545.120513 144.727244 545.430769 144.621099 545.741026 144.513522 546.051282 144.404493 546.361538 144.293991 546.671795 144.181996 546.982051 144.068489 547.292308 143.953450 547.602564 143.836858 547.912821 143.718695 548.223077 143.598939 548.533333 143.477572 548.843590 143.354573 549.153846 143.229922 549.464103 143.103599 549.774359 142.975585 550.084615 142.845860 550.394872 142.714403 550.705128 142.581194 551.015385 142.446215 551.325641 142.309444 551.635897 142.170862 551.946154 142.030449 552.256410 141.888186 552.566667 141.744051 552.876923 141.598026 553.187179 141.450091 553.497436 141.300224 553.807692 141.148407 554.117949 140.994620 554.428205 140.838843 554.738462 140.681055 555.048718 140.521238 555.358974 140.359370 555.669231 140.195432 555.979487 140.029404 556.289744 139.861267 556.600000 139.691000 556.910256 139.518583 557.220513 139.344003 557.530769 139.167266 557.841026 138.988386 558.151282 138.807376 558.461538 138.624249 558.771795 138.439019 559.082051 138.251698 559.392308 138.062300 559.702564 137.870839 560.012821 137.677326 560.323077 137.481776 560.633333 137.284202 560.943590 137.084616 561.253846 136.883033 561.564103 136.679465 561.874359 136.473925 562.184615 136.266427 562.494872 136.056984 562.805128 135.845608 563.115385 135.632314 563.425641 135.417115 563.735897 135.200023 564.046154 134.981052 564.356410 134.760215 564.666667 134.537525 564.976923 134.312995 565.287179 134.086639 565.597436 133.858470 565.907692 133.628501 566.217949 133.396745 566.528205 133.163216 566.838462 132.927926 567.148718 132.690889 567.458974 132.452117 567.769231 132.211626 568.079487 131.969426 568.389744 131.725532 568.700000 131.479957 569.010256 131.232714 569.320513 130.983816 569.630769 130.733276 569.941026 130.481108 570.251282 130.227324 570.561538 129.971939 570.871795 129.714965 571.182051 129.456415 571.492308 129.196303 571.802564 128.934641 572.112821 128.671443 572.423077 128.406723 572.733333 128.140493 573.043590 127.872766 573.353846 127.603556 573.664103 127.332876 573.974359 127.060740 574.284615 126.787159 574.594872 126.512148 574.905128 126.235720 575.215385 125.957887 575.525641 125.678664 575.835897 125.398063 576.146154 125.116098 576.456410 124.832781 576.766667 124.548127 577.076923 124.262147 577.387179 123.974855 577.697436 123.686266 578.007692 123.396390 578.317949 123.105243 578.628205 122.812837 578.938462 122.519185 579.248718 122.224300 579.558974 121.928197 579.869231 121.630887 580.179487 121.332384 580.489744 121.032701 580.800000 120.731852 581.110256 120.429850 581.420513 120.126707 581.730769 119.822438 582.041026 119.517055 582.351282 119.210571 582.661538 118.903000 582.971795 118.594354 583.282051 118.284648 583.592308 117.973894 583.902564 117.662105 584.212821 117.349295 584.523077 117.035477 584.833333 116.720664 585.143590 116.404869 585.453846 116.088106 585.764103 115.770387 586.074359 115.451726 586.384615 115.132136 586.694872 114.811630 587.005128 114.490222 587.315385 114.167924 587.625641 113.844750 587.935897 113.520713 588.246154 113.195827 588.556410 112.870103 588.866667 112.543557 589.176923 112.216200 589.487179 111.888046 589.797436 111.559108 590.107692 111.229399 590.417949 110.898934 590.728205 110.567723 591.038462 110.235782 591.348718 109.903123 591.658974 109.569760 591.969231 109.235705 592.279487 108.900972 592.589744 108.565573 592.900000 108.229523 593.210256 107.892835 593.520513 107.555520 593.830769 107.217594 594.141026 106.879068 594.451282 106.539957 594.761538 106.200273 595.071795 105.860029 595.382051 105.519240 595.692308 105.177917 596.002564 104.836074 596.312821 104.493725 596.623077 104.150882 596.933333 103.807559 597.243590 103.463769 597.553846 103.119524 597.864103 102.774840 598.174359 102.429727 598.484615 102.084201 598.794872 101.738273 599.105128 101.391957 599.415385 101.045267 599.725641 100.698215 600.035897 100.350815 600.346154 100.003080 600.656410 99.655023 600.966667 99.306657 601.276923 98.957996 601.587179 98.609052 601.897436 98.259839 602.207692 97.910370 602.517949 97.560659 602.828205 97.210718 603.138462 96.860561 603.448718 96.510200 603.758974 96.159650 604.069231 95.808922 604.379487 95.458032 604.689744 95.106991 605.000000 94.755812 605.310256 94.404510 605.620513 94.053097 605.930769 93.701587 606.241026 93.349992 606.551282 92.998326 606.861538 92.646602 607.171795 92.294833 607.482051 91.943032 607.792308 91.591214 608.102564 91.239390 608.412821 90.887574 608.723077 90.535779 609.033333 90.184019 609.343590 89.832306 609.653846 89.480654 609.964103 89.129076 610.274359 88.777585 610.584615 88.426195 610.894872 88.074918 611.205128 87.723768 611.515385 87.372758 611.825641 87.021902 612.135897 86.671211 612.446154 86.320701 612.756410 85.970382 613.066667 85.620270 613.376923 85.270377 613.687179 84.920717 613.997436 84.571302 614.307692 84.222146 614.617949 83.873262 614.928205 83.524662 615.238462 83.176362 615.548718 82.828372 615.858974 82.480708 616.169231 82.133381 616.479487 81.786406 616.789744 81.439795 617.100000 81.093562 617.410256 80.747719 617.720513 80.402280 618.030769 80.057258 618.341026 79.712667 618.651282 79.368519 618.961538 79.024828 619.271795 78.681607 619.582051 78.338868 619.892308 77.996627 620.202564 77.654894 620.512821 77.313685 620.823077 76.973011 621.133333 76.632886 621.443590 76.293324 621.753846 75.954337 622.064103 75.615939 622.374359 75.278143 622.684615 74.940962 622.994872 74.604409 623.305128 74.268497 623.615385 73.933241 623.925641 73.598652 624.235897 73.264744 624.546154 72.931530 624.856410 72.599024 625.166667 72.267239 625.476923 71.936187 625.787179 71.605883 626.097436 71.276339 626.407692 70.947568 626.717949 70.619584 627.028205 70.292399 627.338462 69.966028 627.648718 69.640483 627.958974 69.315778 628.269231 68.991925 628.579487 68.668938 628.889744 68.346829 629.200000 68.025614 629.510256 67.705303 629.820513 67.385911 630.130769 67.067451 630.441026 66.749936 630.751282 66.433379 631.061538 66.117794 631.371795 65.803193 631.682051 65.489590 631.992308 65.176998 632.302564 64.865430 632.612821 64.554900 632.923077 64.245420 633.233333 63.937004 633.543590 63.629665 633.853846 63.323416 634.164103 63.018271 634.474359 62.714242 634.784615 62.411340 635.094872 62.109563 635.405128 61.808907 635.715385 61.509367 636.025641 61.210939 636.335897 60.913618 636.646154 60.617399 636.956410 60.322279 637.266667 60.028253 637.576923 59.735315 637.887179 59.443462 638.197436 59.152689 638.507692 58.862992 638.817949 58.574366 639.128205 58.286806 639.438462 58.000308 639.748718 57.714868 640.058974 57.430481 640.369231 57.147142 640.679487 56.864847 640.989744 56.583591 641.300000 56.303370 641.610256 56.024180 641.920513 55.746015 642.230769 55.468872 642.541026 55.192745 642.851282 54.917631 643.161538 54.643525 643.471795 54.370422 643.782051 54.098317 644.092308 53.827207 644.402564 53.557086 644.712821 53.287951 645.023077 53.019796 645.333333 52.752617 645.643590 52.486410 645.953846 52.221170 646.264103 51.956893 646.574359 51.693573 646.884615 51.431208 647.194872 51.169791 647.505128 50.909318 647.815385 50.649786 648.125641 50.391189 648.435897 50.133523 648.746154 49.876783 649.056410 49.620966 649.366667 49.366065 649.676923 49.112078 649.987179 48.858999 650.297436 48.606824 650.607692 48.355548 650.917949 48.105166 651.228205 47.855675 651.538462 47.607070 651.848718 47.359346 652.158974 47.112499 652.469231 46.866524 652.779487 46.621416 653.089744 46.377172 653.400000 46.133786 653.710256 45.891255 654.020513 45.649573 654.330769 45.408736 654.641026 45.168740 654.951282 44.929579 655.261538 44.691251 655.571795 44.453749 655.882051 44.217069 656.192308 43.981208 656.502564 43.746160 656.812821 43.511921 657.123077 43.278486 657.433333 43.045852 657.743590 42.814012 658.053846 42.582964 658.364103 42.352701 658.674359 42.123221 658.984615 41.894518 659.294872 41.666587 659.605128 41.439425 659.915385 41.213027 660.225641 40.987388 660.535897 40.762503 660.846154 40.538369 661.156410 40.314980 661.466667 40.092333 661.776923 39.870422 662.087179 39.649243 662.397436 39.428792 662.707692 39.209063 663.017949 38.990054 663.328205 38.771758 663.638462 38.554172 663.948718 38.337291 664.258974 38.121110 664.569231 37.905625 664.879487 37.690832 665.189744 37.476725 665.500000 37.263301 665.810256 37.050555 666.120513 36.838482 666.430769 36.627078 666.741026 36.416338 667.051282 36.206258 667.361538 35.996833 667.671795 35.788059 667.982051 35.579932 668.292308 35.372446 668.602564 35.165597 668.912821 34.959381 669.223077 34.753793 669.533333 34.548828 669.843590 34.344483 670.153846 34.140752 670.464103 33.937632 670.774359 33.735117 671.084615 33.533203 671.394872 33.331885 671.705128 33.131160 672.015385 32.931022 672.325641 32.731467 672.635897 32.532490 672.946154 32.334088 673.256410 32.136255 673.566667 31.938986 673.876923 31.742278 674.187179 31.546126 674.497436 31.350525 674.807692 31.155471 675.117949 30.960960 675.428205 30.766986 675.738462 30.573545 676.048718 30.380633 676.358974 30.188245 676.669231 29.996377 676.979487 29.805024 677.289744 29.614182 677.600000 29.423846 677.910256 29.234012 678.220513 29.044674 678.530769 28.855830 678.841026 28.667473 679.151282 28.479600 679.461538 28.292206 679.771795 28.105286 680.082051 27.918836 680.392308 27.732852 680.702564 27.547329 681.012821 27.362262 681.323077 27.177647 681.633333 26.993480 681.943590 26.809755 682.253846 26.626469 682.564103 26.443616 682.874359 26.261193 683.184615 26.079195 683.494872 25.897617 683.805128 25.716454 684.115385 25.535703 684.425641 25.355359 684.735897 25.175417 685.046154 24.995872 685.356410 24.816721 685.666667 24.637958 685.976923 24.459580 686.287179 24.281581 686.597436 24.103957 686.907692 23.926704 687.217949 23.749816 687.528205 23.573291 687.838462 23.397122 688.148718 23.221306 688.458974 23.045837 688.769231 22.870713 689.079487 22.695927 689.389744 22.521475 689.700000 22.347354 690.010256 22.173557 690.320513 22.000082 690.630769 21.826923 690.941026 21.654076 691.251282 21.481536 691.561538 21.309299 691.871795 21.137360 692.182051 20.965715 692.492308 20.794359 692.802564 20.623288 693.112821 20.452497 693.423077 20.281982 693.733333 20.111737 694.043590 19.941760 694.353846 19.772044 694.664103 19.602586 694.974359 19.433382 695.284615 19.264425 695.594872 19.095713 695.905128 18.927241 696.215385 18.759003 696.525641 18.590996 696.835897 18.423214 697.146154 18.255654 697.456410 18.088311 697.766667 17.921181 698.076923 17.754258 698.387179 17.587539 698.697436 17.421019 699.007692 17.254692 699.317949 17.088556 699.628205 16.922605 699.938462 16.756835 700.248718 16.591241 700.558974 16.425818 700.869231 16.260563 701.179487 16.095471 701.489744 15.930537 701.800000 15.765756 702.110256 15.601124 702.420513 15.436638 702.730769 15.272291 703.041026 15.108080 703.351282 14.943999 703.661538 14.780046 703.971795 14.616214 704.282051 14.452500 704.592308 14.288899 704.902564 14.125406 705.212821 13.962018 705.523077 13.798728 705.833333 13.635534 706.143590 13.472430 706.453846 13.309412 706.764103 13.146475 707.074359 12.983615 707.384615 12.820827 707.694872 12.658107 708.005128 12.495451 708.315385 12.332853 708.625641 12.170309 708.935897 12.007815 709.246154 11.845366 709.556410 11.682958 709.866667 11.520586 710.176923 11.358246 710.487179 11.195933 710.797436 11.033642 711.107692 10.871370 711.417949 10.709111 711.728205 10.546861 712.038462 10.384615 712.038462 540.000000" /></g></g><g class="titles" /><g class="plot overlay" transform="translate(54, 20)"><g class="series serie-0 color-0"><g class="dots"><circle class="dot reactive tooltip-trigger" cx="13.96153846153846" cy="529.6153846153846" r="2.5" /><desc class="value">177,543,268(kWh)</desc><desc class="x top">13.96153846153846</desc><desc class="y top">529.6153846153846</desc><desc class="x_label">2549</desc></g><g class="dots"><circle class="dot reactive tooltip-trigger" cx="91.52564102564101" cy="477.8525210742317" r="2.5" /><desc class="value">190,955,547(kWh)</desc><desc class="x top">91.52564102564101</desc><desc class="y top">477.8525210742317</desc><desc class="x_label">2550</desc></g><g class="dots"><circle class="dot reactive tooltip-trigger" cx="169.08974358974356" cy="437.1277505014433" r="2.5" /><desc class="value">201,507,745(kWh)</desc><desc class="x top">169.08974358974356</desc><desc class="y top">437.1277505014433</desc><desc class="x_label">2551</desc></g><g class="dots"><circle class="dot reactive tooltip-trigger" cx="246.65384615384613" cy="359.4735925856195" r="2.5" /><desc class="value">221,628,719(kWh)</desc><desc class="x top">246.65384615384613</desc><desc class="y top">359.4735925856195</desc><desc class="x_label">2552</desc></g><g class="dots"><circle class="dot reactive tooltip-trigger" cx="324.21794871794873" cy="276.0617695132421" r="2.5" /><desc class="value">243,241,562(kWh)</desc><desc class="x top">324.21794871794873</desc><desc class="y top">276.0617695132421</desc><desc class="x_label">2553</desc></g><g class="dots"><circle class="dot reactive tooltip-trigger" cx="401.78205128205127" cy="257.2825801481062" r="2.5" /><desc class="value">248,107,439(kWh)</desc><desc class="x left">401.78205128205127</desc><desc class="y left">257.2825801481062</desc><desc class="x_label">2554</desc></g><g class="dots"><circle class="dot reactive tooltip-trigger" cx="479.3461538461538" cy="166.95643288091543" r="2.5" /><desc class="value">271,511,853(kWh)</desc><desc class="x left">479.3461538461538</desc><desc class="y left">166.95643288091543</desc><desc class="x_label">2555</desc></g><g class="dots"><circle class="dot reactive tooltip-trigger" cx="556.9102564102565" cy="139.51858338454463" r="2.5" /><desc class="value">278,621,276(kWh)</desc><desc class="x left">556.9102564102565</desc><desc class="y left">139.51858338454463</desc><desc class="x_label">2556</desc></g><g class="dots"><circle class="dot reactive tooltip-trigger" cx="634.474358974359" cy="62.71424193170287" r="2.5" /><desc class="value">298,522,054(kWh)</desc><desc class="x left">634.474358974359</desc><desc class="y left">62.71424193170287</desc><desc class="x_label">2557</desc></g><g class="dots"><circle class="dot reactive tooltip-trigger" cx="712.0384615384615" cy="10.384615384615358" r="2.5" /><desc class="value">312,081,187(kWh)</desc><desc class="x left">712.0384615384615</desc><desc class="y left">10.384615384615358</desc><desc class="x_label">2558</desc></g></g></g><g class="plot text-overlay" transform="translate(54, 20)"><g class="series serie-0 color-0" /></g><g class="plot tooltip-overlay" transform="translate(54, 20)"><g class="tooltip" style="opacity: 0" transform="translate(0 0)"><rect class="tooltip-box" height="0" rx="0" ry="0" width="0" /><g class="text" /></g></g></g></svg>