<?xml version='1.0' encoding='utf-8'?>
<svg xmlns:xlink="http://www.w3.org/1999/xlink" class="pygal-chart" id="chart-1e9581e4-fd98-4499-8d01-1b01423f2002" viewBox="0 0 800 600" xmlns="http://www.w3.org/2000/svg"><!--Generated with pygal 2.3.0 (etree) ©Kozea 2012-2016 on 2016-12-08--><!--http://pygal.org--><!--http://github.com/Kozea/pygal--><defs><style type="text/css">#chart-1e9581e4-fd98-4499-8d01-1b01423f2002{-webkit-user-select:none;-webkit-font-smoothing:antialiased;font-family:Consolas,"Liberation Mono",Menlo,Courier,monospace}#chart-1e9581e4-fd98-4499-8d01-1b01423f2002 .title{font-family:Consolas,"Liberation Mono",Menlo,Courier,monospace;font-size:16px}#chart-1e9581e4-fd98-4499-8d01-1b01423f2002 .legends .legend text{font-family:Consolas,"Liberation Mono",Menlo,Courier,monospace;font-size:14px}#chart-1e9581e4-fd98-4499-8d01-1b01423f2002 .axis text{font-family:Consolas,"Liberation Mono",Menlo,Courier,monospace;font-size:10px}#chart-1e9581e4-fd98-4499-8d01-1b01423f2002 .axis text.major{font-family:Consolas,"Liberation Mono",Menlo,Courier,monospace;font-size:10px}#chart-1e9581e4-fd98-4499-8d01-1b01423f2002 .text-overlay text.value{font-family:Consolas,"Liberation Mono",Menlo,Courier,monospace;font-size:16px}#chart-1e9581e4-fd98-4499-8d01-1b01423f2002 .text-overlay text.label{font-family:Consolas,"Liberation Mono",Menlo,Courier,monospace;font-size:10px}#chart-1e9581e4-fd98-4499-8d01-1b01423f2002 .tooltip{font-family:Consolas,"Liberation Mono",Menlo,Courier,monospace;font-size:14px}#chart-1e9581e4-fd98-4499-8d01-1b01423f2002 text.no_data{font-family:Consolas,"Liberation Mono",Menlo,Courier,monospace;font-size:64px}
#chart-1e9581e4-fd98-4499-8d01-1b01423f2002{background-color:rgba(249,249,249,1)}#chart-1e9581e4-fd98-4499-8d01-1b01423f2002 path,#chart-1e9581e4-fd98-4499-8d01-1b01423f2002 line,#chart-1e9581e4-fd98-4499-8d01-1b01423f2002 rect,#chart-1e9581e4-fd98-4499-8d01-1b01423f2002 circle{-webkit-transition:150ms;-moz-transition:150ms;transition:150ms}#chart-1e9581e4-fd98-4499-8d01-1b01423f2002 .graph &gt; .background{fill:rgba(249,249,249,1)}#chart-1e9581e4-fd98-4499-8d01-1b01423f2002 .plot &gt; .background{fill:rgba(255,255,255,1)}#chart-1e9581e4-fd98-4499-8d01-1b01423f2002 .graph{fill:rgba(0,0,0,.87)}#chart-1e9581e4-fd98-4499-8d01-1b01423f2002 text.no_data{fill:rgba(0,0,0,1)}#chart-1e9581e4-fd98-4499-8d01-1b01423f2002 .title{fill:rgba(0,0,0,1)}#chart-1e9581e4-fd98-4499-8d01-1b01423f2002 .legends .legend text{fill:rgba(0,0,0,.87)}#chart-1e9581e4-fd98-4499-8d01-1b01423f2002 .legends .legend:hover text{fill:rgba(0,0,0,1)}#chart-1e9581e4-fd98-4499-8d01-1b01423f2002 .axis .line{stroke:rgba(0,0,0,1)}#chart-1e9581e4-fd98-4499-8d01-1b01423f2002 .axis .guide.line{stroke:rgba(0,0,0,.54)}#chart-1e9581e4-fd98-4499-8d01-1b01423f2002 .axis .major.line{stroke:rgba(0,0,0,.87)}#chart-1e9581e4-fd98-4499-8d01-1b01423f2002 .axis text.major{fill:rgba(0,0,0,1)}#chart-1e9581e4-fd98-4499-8d01-1b01423f2002 .axis.y .guides:hover .guide.line,#chart-1e9581e4-fd98-4499-8d01-1b01423f2002 .line-graph .axis.x .guides:hover .guide.line,#chart-1e9581e4-fd98-4499-8d01-1b01423f2002 .stackedline-graph .axis.x .guides:hover .guide.line,#chart-1e9581e4-fd98-4499-8d01-1b01423f2002 .xy-graph .axis.x .guides:hover .guide.line{stroke:rgba(0,0,0,1)}#chart-1e9581e4-fd98-4499-8d01-1b01423f2002 .axis .guides:hover text{fill:rgba(0,0,0,1)}#chart-1e9581e4-fd98-4499-8d01-1b01423f2002 .reactive{fill-opacity:.7;stroke-opacity:.8}#chart-1e9581e4-fd98-4499-8d01-1b01423f2002 .ci{stroke:rgba(0,0,0,.87)}#chart-1e9581e4-fd98-4499-8d01-1b01423f2002 .reactive.active,#chart-1e9581e4-fd98-4499-8d01-1b01423f2002 .active .reactive{fill-opacity:.8;stroke-opacity:.9;stroke-width:4}#chart-1e9581e4-fd98-4499-8d01-1b01423f2002 .ci .reactive.active{stroke-width:1.5}#chart-1e9581e4-fd98-4499-8d01-1b01423f2002 .series text{fill:rgba(0,0,0,1)}#chart-1e9581e4-fd98-4499-8d01-1b01423f2002 .tooltip rect{fill:rgba(255,255,255,1);stroke:rgba(0,0,0,1);-webkit-transition:opacity 150ms;-moz-transition:opacity 150ms;transition:opacity 150ms}#chart-1e9581e4-fd98-4499-8d01-1b01423f2002 .tooltip .label{fill:rgba(0,0,0,.87)}#chart-1e9581e4-fd98-4499-8d01-1b01423f2002 .tooltip .label{fill:rgba(0,0,0,.87)}#chart-1e9581e4-fd98-4499-8d01-1b01423f2002 .tooltip .legend{font-size:.8em;fill:rgba(0,0,0,.54)}#chart-1e9581e4-fd98-4499-8d01-1b01423f2002 .tooltip .x_label{font-size:.6em;fill:rgba(0,0,0,1)}#chart-1e9581e4-fd98-4499-8d01-1b01423f2002 .tooltip .xlink{font-size:.5em;text-decoration:underline}#chart-1e9581e4-fd98-4499-8d01-1b01423f2002 .tooltip .value{font-size:1.5em}#chart-1e9581e4-fd98-4499-8d01-1b01423f2002 .bound{font-size:.5em}#chart-1e9581e4-fd98-4499-8d01-1b01423f2002 .max-value{font-size:.75em;fill:rgba(0,0,0,.54)}#chart-1e9581e4-fd98-4499-8d01-1b01423f2002 .map-element{fill:rgba(255,255,255,1);stroke:rgba(0,0,0,.54) !important}#chart-1e9581e4-fd98-4499-8d01-1b01423f2002 .map-element .reactive{fill-opacity:inherit;stroke-opacity:inherit}#chart-1e9581e4-fd98-4499-8d01-1b01423f2002 .color-0,#chart-1e9581e4-fd98-4499-8d01-1b01423f2002 .color-0 a:visited{stroke:#e86fa0;fill:#e86fa0}#chart-1e9581e4-fd98-4499-8d01-1b01423f2002 .text-overlay .color-0 text{fill:black}
#chart-1e9581e4-fd98-4499-8d01-1b01423f2002 text.no_data{text-anchor:middle}#chart-1e9581e4-fd98-4499-8d01-1b01423f2002 .guide.line{fill:none}#chart-1e9581e4-fd98-4499-8d01-1b01423f2002 .centered{text-anchor:middle}#chart-1e9581e4-fd98-4499-8d01-1b01423f2002 .title{text-anchor:middle}#chart-1e9581e4-fd98-4499-8d01-1b01423f2002 .legends .legend text{fill-opacity:1}#chart-1e9581e4-fd98-4499-8d01-1b01423f2002 .axis.x text{text-anchor:middle}#chart-1e9581e4-fd98-4499-8d01-1b01423f2002 .axis.x:not(.web) text[transform]{text-anchor:start}#chart-1e9581e4-fd98-4499-8d01-1b01423f2002 .axis.x:not(.web) text[transform].backwards{text-anchor:end}#chart-1e9581e4-fd98-4499-8d01-1b01423f2002 .axis.y text{text-anchor:end}#chart-1e9581e4-fd98-4499-8d01-1b01423f2002 .axis.y text[transform].backwards{text-anchor:start}#chart-1e9581e4-fd98-4499-8d01-1b01423f2002 .axis.y2 text{text-anchor:start}#chart-1e9581e4-fd98-4499-8d01-1b01423f2002 .axis.y2 text[transform].backwards{text-anchor:end}#chart-1e9581e4-fd98-4499-8d01-1b01423f2002 .axis .guide.line{stroke-dasharray:4,4}#chart-1e9581e4-fd98-4499-8d01-1b01423f2002 .axis .major.guide.line{stroke-dasharray:6,6}#chart-1e9581e4-fd98-4499-8d01-1b01423f2002 .horizontal .axis.y .guide.line,#chart-1e9581e4-fd98-4499-8d01-1b01423f2002 .horizontal .axis.y2 .guide.line,#chart-1e9581e4-fd98-4499-8d01-1b01423f2002 .vertical .axis.x .guide.line{opacity:0}#chart-1e9581e4-fd98-4499-8d01-1b01423f2002 .horizontal .axis.always_show .guide.line,#chart-1e9581e4-fd98-4499-8d01-1b01423f2002 .vertical .axis.always_show .guide.line{opacity:1 !important}#chart-1e9581e4-fd98-4499-8d01-1b01423f2002 .axis.y .guides:hover .guide.line,#chart-1e9581e4-fd98-4499-8d01-1b01423f2002 .axis.y2 .guides:hover .guide.line,#chart-1e9581e4-fd98-4499-8d01-1b01423f2002 .axis.x .guides:hover .guide.line{opacity:1}#chart-1e9581e4-fd98-4499-8d01-1b01423f2002 .axis .guides:hover text{opacity:1}#chart-1e9581e4-fd98-4499-8d01-1b01423f2002 .nofill{fill:none}#chart-1e9581e4-fd98-4499-8d01-1b01423f2002 .subtle-fill{fill-opacity:.2}#chart-1e9581e4-fd98-4499-8d01-1b01423f2002 .dot{stroke-width:1px;fill-opacity:1}#chart-1e9581e4-fd98-4499-8d01-1b01423f2002 .dot.active{stroke-width:5px}#chart-1e9581e4-fd98-4499-8d01-1b01423f2002 .dot.negative{fill:transparent}#chart-1e9581e4-fd98-4499-8d01-1b01423f2002 text,#chart-1e9581e4-fd98-4499-8d01-1b01423f2002 tspan{stroke:none !important}#chart-1e9581e4-fd98-4499-8d01-1b01423f2002 .series text.active{opacity:1}#chart-1e9581e4-fd98-4499-8d01-1b01423f2002 .tooltip rect{fill-opacity:.95;stroke-width:.5}#chart-1e9581e4-fd98-4499-8d01-1b01423f2002 .tooltip text{fill-opacity:1}#chart-1e9581e4-fd98-4499-8d01-1b01423f2002 .showable{visibility:hidden}#chart-1e9581e4-fd98-4499-8d01-1b01423f2002 .showable.shown{visibility:visible}#chart-1e9581e4-fd98-4499-8d01-1b01423f2002 .gauge-background{fill:rgba(229,229,229,1);stroke:none}#chart-1e9581e4-fd98-4499-8d01-1b01423f2002 .bg-lines{stroke:rgba(249,249,249,1);stroke-width:2px}</style><script type="text/javascript">window.pygal = window.pygal || {};window.pygal.config = window.pygal.config || {};window.pygal.config['1e9581e4-fd98-4499-8d01-1b01423f2002'] = {"no_data_text": "No data", "no_prefix": false, "xrange": null, "print_values_position": "center", "truncate_label": null, "x_labels": ["2549", "2550", "2551", "2552", "2553", "2554", "2555", "2556", "2557", "2558"], "title": null, "force_uri_protocol": "https", "defs": [], "formatter": null, "classes": ["pygal-chart"], "y_labels": null, "rounded_bars": null, "explicit_size": false, "x_labels_major_every": null, "legend_at_bottom_columns": null, "stroke_style": null, "half_pie": false, "spacing": 10, "tooltip_fancy_mode": true, "inverse_y_axis": false, "width": 800, "inner_radius": 0, "interpolation_parameters": {}, "tooltip_border_radius": 0, "style": {"no_data_font_family": "Consolas, \"Liberation Mono\", Menlo, Courier, monospace", "tooltip_font_size": 14, "tooltip_font_family": "Consolas, \"Liberation Mono\", Menlo, Courier, monospace", "stroke_opacity_hover": ".9", "legend_font_family": "Consolas, \"Liberation Mono\", Menlo, Courier, monospace", "font_family": "Consolas, \"Liberation Mono\", Menlo, Courier, monospace", "title_font_family": "Consolas, \"Liberation Mono\", Menlo, Courier, monospace", "background": "rgba(249, 249, 249, 1)", "stroke_opacity": ".8", "foreground": "rgba(0, 0, 0, .87)", "value_background": "rgba(229, 229, 229, 1)", "guide_stroke_dasharray": "4,4", "foreground_subtle": "rgba(0, 0, 0, .54)", "opacity_hover": ".8", "value_font_family": "Consolas, \"Liberation Mono\", Menlo, Courier, monospace", "value_label_font_size": 10, "plot_background": "rgba(255, 255, 255, 1)", "ci_colors": [], "label_font_size": 10, "major_label_font_size": 10, "title_font_size": 16, "no_data_font_size": 64, "value_font_size": 16, "value_colors": [], "label_font_family": "Consolas, \"Liberation Mono\", Menlo, Courier, monospace", "major_guide_stroke_dasharray": "6,6", "transition": "150ms", "foreground_strong": "rgba(0, 0, 0, 1)", "colors": ["#e86fa0", "#e88f6f", "#e8df6f", "#a0e86f", "#6fe88f", "#6fe8df", "#6fa0e8", "#8f6fe8", "#df6fe8", "#e86fa0"], "opacity": ".7", "legend_font_size": 14, "value_label_font_family": "Consolas, \"Liberation Mono\", Menlo, Courier, monospace", "major_label_font_family": "Consolas, \"Liberation Mono\", Menlo, Courier, monospace"}, "x_labels_major_count": null, "interpolation_precision": 250, "missing_value_fill_truncation": "x", "stack_from_top": false, "truncate_legend": null, "show_minor_x_labels": true, "print_zeroes": true, "css": ["file://style.css", "file://graph.css"], "y_label_rotation": 0, "legend_at_bottom": false, "print_values": false, "margin_top": null, "max_scale": 16, "allow_interruptions": false, "show_x_labels": true, "strict": false, "show_x_guides": false, "stroke": true, "margin_left": null, "dynamic_print_values": false, "print_labels": false, "show_y_labels": true, "x_labels_major": null, "range": null, "x_label_rotation": 0, "margin": 20, "zero": 0, "include_x_axis": false, "height": 600, "show_minor_y_labels": true, "show_dots": true, "interpolate": "cubic", "show_y_guides": true, "y_labels_major": null, "box_mode": "extremes", "margin_bottom": null, "order_min": null, "legend_box_size": 12, "fill": true, "show_only_major_dots": false, "js": ["//kozea.github.io/pygal.js/2.0.x/pygal-tooltips.min.js"], "x_title": null, "y_labels_major_every": null, "y_labels_major_count": null, "disable_xml_declaration": false, "y_title": null, "logarithmic": false, "pretty_print": false, "min_scale": 4, "dots_size": 2.5, "margin_right": null, "legends": [null], "secondary_range": null, "show_legend": false}</script><script type="text/javascript" xlink:href="https://kozea.github.io/pygal.js/2.0.x/pygal-tooltips.min.js" /></defs><title>Pygal</title><g class="graph stackedline-graph vertical"><rect class="background" height="600" width="800" x="0" y="0" /><g class="plot" transform="translate(54, 20)"><rect class="background" height="540" width="726.0" x="0" y="0" /><g class="axis y"><path class="line" d="M0.000000 540.000000 h726.000000" /><g class="guides"><path class="guide line" d="M0.000000 523.274237 h726.000000" /><text class="" x="-5" y="526.7742369687525">270M</text><title>270M</title></g><g class="guides"><path class="guide line" d="M0.000000 476.971318 h726.000000" /><text class="" x="-5" y="480.47131846589104">280M</text><title>280M</title></g><g class="guides"><path class="guide line" d="M0.000000 430.668400 h726.000000" /><text class="" x="-5" y="434.1683999630295">290M</text><title>290M</title></g><g class="guides"><path class="major guide line" d="M0.000000 384.365481 h726.000000" /><text class="major" x="-5" y="387.86548146016804">300M</text><title>300M</title></g><g class="guides"><path class="guide line" d="M0.000000 338.062563 h726.000000" /><text class="" x="-5" y="341.56256295730657">310M</text><title>310M</title></g><g class="guides"><path class="guide line" d="M0.000000 291.759644 h726.000000" /><text class="" x="-5" y="295.25964445444504">320M</text><title>320M</title></g><g class="guides"><path class="guide line" d="M0.000000 245.456726 h726.000000" /><text class="" x="-5" y="248.95672595158356">330M</text><title>330M</title></g><g class="guides"><path class="guide line" d="M0.000000 199.153807 h726.000000" /><text class="" x="-5" y="202.6538074487221">340M</text><title>340M</title></g><g class="guides"><path class="major guide line" d="M0.000000 152.850889 h726.000000" /><text class="major" x="-5" y="156.35088894586062">350M</text><title>350M</title></g><g class="guides"><path class="guide line" d="M0.000000 106.547970 h726.000000" /><text class="" x="-5" y="110.04797044299914">360M</text><title>360M</title></g><g class="guides"><path class="guide line" d="M0.000000 60.245052 h726.000000" /><text class="" x="-5" y="63.745051940137614">370M</text><title>370M</title></g><g class="guides"><path class="guide line" d="M0.000000 13.942133 h726.000000" /><text class="" x="-5" y="17.442133437276198">380M</text><title>380M</title></g></g><g class="axis x"><g class="guides"><path class="line" d="M13.961538 0.000000 v540.000000" /><text class="" x="13.96153846153846" y="555.0">2549</text></g><g class="guides"><path class="guide line" d="M91.525641 0.000000 v540.000000" /><text class="" x="91.52564102564101" y="555.0">2550</text></g><g class="guides"><path class="guide line" d="M169.089744 0.000000 v540.000000" /><text class="" x="169.08974358974356" y="555.0">2551</text></g><g class="guides"><path class="guide line" d="M246.653846 0.000000 v540.000000" /><text class="" x="246.65384615384613" y="555.0">2552</text></g><g class="guides"><path class="guide line" d="M324.217949 0.000000 v540.000000" /><text class="" x="324.21794871794873" y="555.0">2553</text></g><g class="guides"><path class="guide line" d="M401.782051 0.000000 v540.000000" /><text class="" x="401.78205128205127" y="555.0">2554</text></g><g class="guides"><path class="guide line" d="M479.346154 0.000000 v540.000000" /><text class="" x="479.3461538461538" y="555.0">2555</text></g><g class="guides"><path class="guide line" d="M556.910256 0.000000 v540.000000" /><text class="" x="556.9102564102565" y="555.0">2556</text></g><g class="guides"><path class="guide line" d="M634.474359 0.000000 v540.000000" /><text class="" x="634.474358974359" y="555.0">2557</text></g><g class="guides"><path class="guide line" d="M712.038462 0.000000 v540.000000" /><text class="" x="712.0384615384615" y="555.0">2558</text></g></g><g class="series serie-0 color-0"><path class="line reactive" d="M13.961538 540.000000 L13.961538 529.615385 14.271795 529.500419 14.582051 529.385452 14.892308 529.270486 15.202564 529.155519 15.512821 529.040551 15.823077 528.925583 16.133333 528.810614 16.443590 528.695643 16.753846 528.580672 17.064103 528.465699 17.374359 528.350725 17.684615 528.235749 17.994872 528.120771 18.305128 528.005791 18.615385 527.890810 18.925641 527.775826 19.235897 527.660839 19.546154 527.545850 19.856410 527.430859 20.166667 527.315864 20.476923 527.200867 20.787179 527.085866 21.097436 526.970862 21.407692 526.855855 21.717949 526.740844 22.028205 526.625830 22.338462 526.510811 22.648718 526.395789 22.958974 526.280762 23.269231 526.165731 23.579487 526.050696 23.889744 525.935656 24.200000 525.820611 24.510256 525.705561 24.820513 525.590506 25.130769 525.475446 25.441026 525.360381 25.751282 525.245310 26.061538 525.130233 26.371795 525.015150 26.682051 524.900062 26.992308 524.784967 27.302564 524.669867 27.612821 524.554759 27.923077 524.439646 28.233333 524.324525 28.543590 524.209398 28.853846 524.094263 29.164103 523.979122 29.474359 523.863973 29.784615 523.748817 30.094872 523.633653 30.405128 523.518481 30.715385 523.403301 31.025641 523.288114 31.335897 523.172918 31.646154 523.057714 31.956410 522.942501 32.266667 522.827280 32.576923 522.712049 32.887179 522.596810 33.197436 522.481562 33.507692 522.366305 33.817949 522.251038 34.128205 522.135761 34.438462 522.020475 34.748718 521.905179 35.058974 521.789873 35.369231 521.674557 35.679487 521.559231 35.989744 521.443894 36.300000 521.328547 36.610256 521.213188 36.920513 521.097819 37.230769 520.982439 37.541026 520.867048 37.851282 520.751645 38.161538 520.636231 38.471795 520.520805 38.782051 520.405368 39.092308 520.289918 39.402564 520.174457 39.712821 520.058983 40.023077 519.943497 40.333333 519.827998 40.643590 519.712487 40.953846 519.596963 41.264103 519.481425 41.574359 519.365875 41.884615 519.250311 42.194872 519.134734 42.505128 519.019144 42.815385 518.903539 43.125641 518.787921 43.435897 518.672289 43.746154 518.556643 44.056410 518.440982 44.366667 518.325307 44.676923 518.209617 44.987179 518.093912 45.297436 517.978193 45.607692 517.862458 45.917949 517.746708 46.228205 517.630943 46.538462 517.515162 46.848718 517.399366 47.158974 517.283554 47.469231 517.167726 47.779487 517.051881 48.089744 516.936021 48.400000 516.820144 48.710256 516.704251 49.020513 516.588340 49.330769 516.472413 49.641026 516.356469 49.951282 516.240508 50.261538 516.124530 50.571795 516.008534 50.882051 515.892520 51.192308 515.776489 51.502564 515.660439 51.812821 515.544372 52.123077 515.428287 52.433333 515.312183 52.743590 515.196060 53.053846 515.079919 53.364103 514.963760 53.674359 514.847581 53.984615 514.731383 54.294872 514.615166 54.605128 514.498930 54.915385 514.382674 55.225641 514.266398 55.535897 514.150102 55.846154 514.033787 56.156410 513.917451 56.466667 513.801095 56.776923 513.684719 57.087179 513.568322 57.397436 513.451904 57.707692 513.335465 58.017949 513.219006 58.328205 513.102525 58.638462 512.986023 58.948718 512.869499 59.258974 512.752954 59.569231 512.636386 59.879487 512.519797 60.189744 512.403186 60.500000 512.286553 60.810256 512.169897 61.120513 512.053219 61.430769 511.936518 61.741026 511.819794 62.051282 511.703048 62.361538 511.586278 62.671795 511.469485 62.982051 511.352668 63.292308 511.235828 63.602564 511.118964 63.912821 511.002077 64.223077 510.885165 64.533333 510.768229 64.843590 510.651269 65.153846 510.534284 65.464103 510.417275 65.774359 510.300241 66.084615 510.183182 66.394872 510.066098 66.705128 509.948988 67.015385 509.831854 67.325641 509.714694 67.635897 509.597508 67.946154 509.480296 68.256410 509.363059 68.566667 509.245795 68.876923 509.128505 69.187179 509.011189 69.497436 508.893846 69.807692 508.776476 70.117949 508.659080 70.428205 508.541656 70.738462 508.424206 71.048718 508.306728 71.358974 508.189223 71.669231 508.071690 71.979487 507.954129 72.289744 507.836540 72.600000 507.718924 72.910256 507.601279 73.220513 507.483606 73.530769 507.365904 73.841026 507.248174 74.151282 507.130414 74.461538 507.012626 74.771795 506.894809 75.082051 506.776963 75.392308 506.659087 75.702564 506.541182 76.012821 506.423247 76.323077 506.305282 76.633333 506.187287 76.943590 506.069262 77.253846 505.951207 77.564103 505.833121 77.874359 505.715004 78.184615 505.596857 78.494872 505.478680 78.805128 505.360471 79.115385 505.242230 79.425641 505.123959 79.735897 505.005656 80.046154 504.887321 80.356410 504.768955 80.666667 504.650557 80.976923 504.532126 81.287179 504.413664 81.597436 504.295169 81.907692 504.176641 82.217949 504.058081 82.528205 503.939488 82.838462 503.820862 83.148718 503.702203 83.458974 503.583511 83.769231 503.464785 84.079487 503.346026 84.389744 503.227233 84.700000 503.108406 85.010256 502.989545 85.320513 502.870650 85.630769 502.751720 85.941026 502.632757 86.251282 502.513758 86.561538 502.394725 86.871795 502.275657 87.182051 502.156553 87.492308 502.037415 87.802564 501.918241 88.112821 501.799032 88.423077 501.679787 88.733333 501.560506 89.043590 501.441189 89.353846 501.321837 89.664103 501.202448 89.974359 501.083022 90.284615 500.963560 90.594872 500.844061 90.905128 500.724526 91.215385 500.604953 91.525641 500.485343 91.835897 500.365696 92.146154 500.246010 92.456410 500.126282 92.766667 500.006511 93.076923 499.886695 93.387179 499.766833 93.697436 499.646921 94.007692 499.526959 94.317949 499.406944 94.628205 499.286875 94.938462 499.166749 95.248718 499.046564 95.558974 498.926319 95.869231 498.806012 96.179487 498.685641 96.489744 498.565203 96.800000 498.444698 97.110256 498.324122 97.420513 498.203475 97.730769 498.082754 98.041026 497.961957 98.351282 497.841082 98.661538 497.720128 98.971795 497.599092 99.282051 497.477973 99.592308 497.356769 99.902564 497.235477 100.212821 497.114096 100.523077 496.992624 100.833333 496.871059 101.143590 496.749398 101.453846 496.627641 101.764103 496.505786 102.074359 496.383829 102.384615 496.261770 102.694872 496.139606 103.005128 496.017336 103.315385 495.894957 103.625641 495.772468 103.935897 495.649867 104.246154 495.527151 104.556410 495.404320 104.866667 495.281370 105.176923 495.158300 105.487179 495.035109 105.797436 494.911794 106.107692 494.788353 106.417949 494.664784 106.728205 494.541086 107.038462 494.417256 107.348718 494.293293 107.658974 494.169195 107.969231 494.044959 108.279487 493.920584 108.589744 493.796068 108.900000 493.671409 109.210256 493.546605 109.520513 493.421655 109.830769 493.296555 110.141026 493.171305 110.451282 493.045902 110.761538 492.920344 111.071795 492.794630 111.382051 492.668758 111.692308 492.542725 112.002564 492.416530 112.312821 492.290171 112.623077 492.163646 112.933333 492.036953 113.243590 491.910090 113.553846 491.783055 113.864103 491.655846 114.174359 491.528462 114.484615 491.400900 114.794872 491.273158 115.105128 491.145235 115.415385 491.017129 115.725641 490.888837 116.035897 490.760358 116.346154 490.631690 116.656410 490.502830 116.966667 490.373778 117.276923 490.244531 117.587179 490.115087 117.897436 489.985444 118.207692 489.855601 118.517949 489.725555 118.828205 489.595304 119.138462 489.464847 119.448718 489.334182 119.758974 489.203306 120.069231 489.072218 120.379487 488.940916 120.689744 488.809398 121.000000 488.677661 121.310256 488.545705 121.620513 488.413527 121.930769 488.281126 122.241026 488.148498 122.551282 488.015644 122.861538 487.882559 123.171795 487.749243 123.482051 487.615694 123.792308 487.481909 124.102564 487.347888 124.412821 487.213627 124.723077 487.079125 125.033333 486.944380 125.343590 486.809390 125.653846 486.674153 125.964103 486.538668 126.274359 486.402932 126.584615 486.266943 126.894872 486.130700 127.205128 485.994200 127.515385 485.857443 127.825641 485.720424 128.135897 485.583144 128.446154 485.445599 128.756410 485.307789 129.066667 485.169710 129.376923 485.031362 129.687179 484.892741 129.997436 484.753847 130.307692 484.614678 130.617949 484.475231 130.928205 484.335504 131.238462 484.195496 131.548718 484.055204 131.858974 483.914627 132.169231 483.773763 132.479487 483.632610 132.789744 483.491166 133.100000 483.349429 133.410256 483.207397 133.720513 483.065068 134.030769 482.922441 134.341026 482.779513 134.651282 482.636282 134.961538 482.492747 135.271795 482.348905 135.582051 482.204756 135.892308 482.060295 136.202564 481.915523 136.512821 481.770437 136.823077 481.625034 137.133333 481.479314 137.443590 481.333273 137.753846 481.186911 138.064103 481.040226 138.374359 480.893214 138.684615 480.745875 138.994872 480.598207 139.305128 480.450207 139.615385 480.301874 139.925641 480.153205 140.235897 480.004200 140.546154 479.854855 140.856410 479.705169 141.166667 479.555141 141.476923 479.404767 141.787179 479.254047 142.097436 479.102978 142.407692 478.951559 142.717949 478.799786 143.028205 478.647660 143.338462 478.495177 143.648718 478.342336 143.958974 478.189134 144.269231 478.035570 144.579487 477.881643 144.889744 477.727349 145.200000 477.572687 145.510256 477.417656 145.820513 477.262252 146.130769 477.106475 146.441026 476.950323 146.751282 476.793793 147.061538 476.636883 147.371795 476.479592 147.682051 476.321918 147.992308 476.163858 148.302564 476.005412 148.612821 475.846576 148.923077 475.687349 149.233333 475.527729 149.543590 475.367715 149.853846 475.207304 150.164103 475.046494 150.474359 474.885283 150.784615 474.723670 151.094872 474.561653 151.405128 474.399229 151.715385 474.236397 152.025641 474.073155 152.335897 473.909500 152.646154 473.745432 152.956410 473.580947 153.266667 473.416045 153.576923 473.250723 153.887179 473.084979 154.197436 472.918811 154.507692 472.752218 154.817949 472.585197 155.128205 472.417747 155.438462 472.249865 155.748718 472.081551 156.058974 471.912801 156.369231 471.743613 156.679487 471.573987 156.989744 471.403920 157.300000 471.233410 157.610256 471.062455 157.920513 470.891054 158.230769 470.719203 158.541026 470.546903 158.851282 470.374149 159.161538 470.200941 159.471795 470.027277 159.782051 469.853155 160.092308 469.678572 160.402564 469.503528 160.712821 469.328019 161.023077 469.152044 161.333333 468.975602 161.643590 468.798689 161.953846 468.621305 162.264103 468.443448 162.574359 468.265114 162.884615 468.086304 163.194872 467.907013 163.505128 467.727242 163.815385 467.546987 164.125641 467.366247 164.435897 467.185020 164.746154 467.003304 165.056410 466.821097 165.366667 466.638397 165.676923 466.455202 165.987179 466.271511 166.297436 466.087321 166.607692 465.902630 166.917949 465.717437 167.228205 465.531740 167.538462 465.345536 167.848718 465.158824 168.158974 464.971602 168.469231 464.783867 168.779487 464.595619 169.089744 464.406855 169.400000 464.217573 169.710256 464.027771 170.020513 463.837447 170.330769 463.646598 170.641026 463.455224 170.951282 463.263322 171.261538 463.070889 171.571795 462.877924 171.882051 462.684424 172.192308 462.490388 172.502564 462.295814 172.812821 462.100698 173.123077 461.905040 173.433333 461.708838 173.743590 461.512088 174.053846 461.314790 174.364103 461.116940 174.674359 460.918538 174.984615 460.719580 175.294872 460.520065 175.605128 460.319991 175.915385 460.119356 176.225641 459.918157 176.535897 459.716392 176.846154 459.514060 177.156410 459.311159 177.466667 459.107686 177.776923 458.903639 178.087179 458.699016 178.397436 458.493815 178.707692 458.288034 179.017949 458.081672 179.328205 457.874725 179.638462 457.667192 179.948718 457.459071 180.258974 457.250359 180.569231 457.041055 180.879487 456.831156 181.189744 456.620661 181.500000 456.409568 181.810256 456.197873 182.120513 455.985576 182.430769 455.772674 182.741026 455.559166 183.051282 455.345048 183.361538 455.130319 183.671795 454.914977 183.982051 454.699020 184.292308 454.482446 184.602564 454.265252 184.912821 454.047437 185.223077 453.828999 185.533333 453.609935 185.843590 453.390243 186.153846 453.169922 186.464103 452.948969 186.774359 452.727382 187.084615 452.505159 187.394872 452.282299 187.705128 452.058798 188.015385 451.834655 188.325641 451.609868 188.635897 451.384435 188.946154 451.158354 189.256410 450.931622 189.566667 450.704238 189.876923 450.476199 190.187179 450.247504 190.497436 450.018150 190.807692 449.788135 191.117949 449.557457 191.428205 449.326115 191.738462 449.094106 192.048718 448.861427 192.358974 448.628078 192.669231 448.394055 192.979487 448.159357 193.289744 447.923982 193.600000 447.687928 193.910256 447.451192 194.220513 447.213772 194.530769 446.975667 194.841026 446.736875 195.151282 446.497392 195.461538 446.257218 195.771795 446.016350 196.082051 445.774786 196.392308 445.532525 196.702564 445.289563 197.012821 445.045898 197.323077 444.801530 197.633333 444.556456 197.943590 444.310673 198.253846 444.064179 198.564103 443.816973 198.874359 443.569053 199.184615 443.320416 199.494872 443.071060 199.805128 442.820984 200.115385 442.570184 200.425641 442.318660 200.735897 442.066409 201.046154 441.813428 201.356410 441.559717 201.666667 441.305272 201.976923 441.050092 202.287179 440.794175 202.597436 440.537518 202.907692 440.280120 203.217949 440.021978 203.528205 439.763091 203.838462 439.503456 204.148718 439.243071 204.458974 438.981935 204.769231 438.720044 205.079487 438.457398 205.389744 438.193993 205.700000 437.929829 206.010256 437.664902 206.320513 437.399211 206.630769 437.132753 206.941026 436.865528 207.251282 436.597531 207.561538 436.328762 207.871795 436.059219 208.182051 435.788899 208.492308 435.517800 208.802564 435.245920 209.112821 434.973258 209.423077 434.699810 209.733333 434.425576 210.043590 434.150552 210.353846 433.874737 210.664103 433.598129 210.974359 433.320726 211.284615 433.042525 211.594872 432.763525 211.905128 432.483723 212.215385 432.203118 212.525641 431.921707 212.835897 431.639488 213.146154 431.356460 213.456410 431.072619 213.766667 430.787965 214.076923 430.502494 214.387179 430.216206 214.697436 429.929097 215.007692 429.641166 215.317949 429.352411 215.628205 429.062830 215.938462 428.772420 216.248718 428.481179 216.558974 428.189106 216.869231 427.896198 217.179487 427.602454 217.489744 427.307871 217.800000 427.012447 218.110256 426.716180 218.420513 426.419067 218.730769 426.121108 219.041026 425.822300 219.351282 425.522640 219.661538 425.222128 219.971795 424.920759 220.282051 424.618534 220.592308 424.315449 220.902564 424.011502 221.212821 423.706692 221.523077 423.401016 221.833333 423.094472 222.143590 422.787058 222.453846 422.478773 222.764103 422.169613 223.074359 421.859577 223.384615 421.548664 223.694872 421.236870 224.005128 420.924193 224.315385 420.610633 224.625641 420.296186 224.935897 419.980850 225.246154 419.664624 225.556410 419.347505 225.866667 419.029492 226.176923 418.710582 226.487179 418.390773 226.797436 418.070063 227.107692 417.748450 227.417949 417.425932 227.728205 417.102507 228.038462 416.778172 228.348718 416.452927 228.658974 416.126768 228.969231 415.799694 229.279487 415.471702 229.589744 415.142790 229.900000 414.812958 230.210256 414.482201 230.520513 414.150518 230.830769 413.817908 231.141026 413.484368 231.451282 413.149896 231.761538 412.814490 232.071795 412.478148 232.382051 412.140867 232.692308 411.802646 233.002564 411.463483 233.312821 411.123376 233.623077 410.782322 233.933333 410.440320 234.243590 410.097367 234.553846 409.753461 234.864103 409.408601 235.174359 409.062783 235.484615 408.716007 235.794872 408.368270 236.105128 408.019570 236.415385 407.669905 236.725641 407.319272 237.035897 406.967670 237.346154 406.615098 237.656410 406.261551 237.966667 405.907029 238.276923 405.551530 238.587179 405.195051 238.897436 404.837591 239.207692 404.479146 239.517949 404.119716 239.828205 403.759298 240.138462 403.397890 240.448718 403.035490 240.758974 402.672096 241.069231 402.307706 241.379487 401.942317 241.689744 401.575929 242.000000 401.208538 242.310256 400.840142 242.620513 400.470740 242.930769 400.100329 243.241026 399.728908 243.551282 399.356474 243.861538 398.983025 244.171795 398.608559 244.482051 398.233075 244.792308 397.856569 245.102564 397.479040 245.412821 397.100487 245.723077 396.720906 246.033333 396.340295 246.343590 395.958653 246.653846 395.575978 246.964103 395.192269 247.274359 394.807533 247.584615 394.421777 247.894872 394.035009 248.205128 393.647237 248.515385 393.258470 248.825641 392.868715 249.135897 392.477980 249.446154 392.086273 249.756410 391.693603 250.066667 391.299976 250.376923 390.905401 250.687179 390.509886 250.997436 390.113439 251.307692 389.716068 251.617949 389.317780 251.928205 388.918584 252.238462 388.518488 252.548718 388.117499 252.858974 387.715626 253.169231 387.312877 253.479487 386.909259 253.789744 386.504780 254.100000 386.099448 254.410256 385.693272 254.720513 385.286259 255.030769 384.878417 255.341026 384.469755 255.651282 384.060279 255.961538 383.649999 256.271795 383.238921 256.582051 382.827054 256.892308 382.414407 257.202564 382.000986 257.512821 381.586800 257.823077 381.171856 258.133333 380.756163 258.443590 380.339729 258.753846 379.922562 259.064103 379.504669 259.374359 379.086058 259.684615 378.666738 259.994872 378.246716 260.305128 377.826001 260.615385 377.404600 260.925641 376.982521 261.235897 376.559772 261.546154 376.136361 261.856410 375.712296 262.166667 375.287586 262.476923 374.862237 262.787179 374.436258 263.097436 374.009658 263.407692 373.582442 263.717949 373.154621 264.028205 372.726202 264.338462 372.297192 264.648718 371.867599 264.958974 371.437432 265.269231 371.006699 265.579487 370.575407 265.889744 370.143565 266.200000 369.711180 266.510256 369.278260 266.820513 368.844814 267.130769 368.410848 267.441026 367.976372 267.751282 367.541393 268.061538 367.105919 268.371795 366.669958 268.682051 366.233518 268.992308 365.796607 269.302564 365.359233 269.612821 364.921403 269.923077 364.483126 270.233333 364.044410 270.543590 363.605263 270.853846 363.165692 271.164103 362.725706 271.474359 362.285312 271.784615 361.844519 272.094872 361.403334 272.405128 360.961765 272.715385 360.519821 273.025641 360.077509 273.335897 359.634837 273.646154 359.191813 273.956410 358.748445 274.266667 358.304742 274.576923 357.860710 274.887179 357.416358 275.197436 356.971694 275.507692 356.526726 275.817949 356.081462 276.128205 355.635910 276.438462 355.190077 276.748718 354.743972 277.058974 354.297602 277.369231 353.850976 277.679487 353.404101 277.989744 352.956986 278.300000 352.509638 278.610256 352.062066 278.920513 351.614277 279.230769 351.166279 279.541026 350.718080 279.851282 350.269688 280.161538 349.821111 280.471795 349.372358 280.782051 348.923435 281.092308 348.474351 281.402564 348.025115 281.712821 347.575733 282.023077 347.126213 282.333333 346.676565 282.643590 346.226795 282.953846 345.776912 283.264103 345.326923 283.574359 344.876837 283.884615 344.426661 284.194872 343.976404 284.505128 343.526073 284.815385 343.075676 285.125641 342.625222 285.435897 342.174717 285.746154 341.724171 286.056410 341.273591 286.366667 340.822985 286.676923 340.372362 286.987179 339.921728 287.297436 339.471092 287.607692 339.020462 287.917949 338.569845 288.228205 338.119251 288.538462 337.668686 288.848718 337.218158 289.158974 336.767677 289.469231 336.317249 289.779487 335.866882 290.089744 335.416585 290.400000 334.966365 290.710256 334.516231 291.020513 334.066190 291.330769 333.616250 291.641026 333.166419 291.951282 332.716705 292.261538 332.267117 292.571795 331.817662 292.882051 331.368347 293.192308 330.919182 293.502564 330.470173 293.812821 330.021329 294.123077 329.572658 294.433333 329.124168 294.743590 328.675867 295.053846 328.227762 295.364103 327.779861 295.674359 327.332174 295.984615 326.884706 296.294872 326.437467 296.605128 325.990465 296.915385 325.543707 297.225641 325.097201 297.535897 324.650955 297.846154 324.204978 298.156410 323.759276 298.466667 323.313859 298.776923 322.868734 299.087179 322.423909 299.397436 321.979391 299.707692 321.535190 300.017949 321.091312 300.328205 320.647766 300.638462 320.204560 300.948718 319.761702 301.258974 319.319199 301.569231 318.877059 301.879487 318.435292 302.189744 317.993903 302.500000 317.552902 302.810256 317.112297 303.120513 316.672095 303.430769 316.232304 303.741026 315.792932 304.051282 315.353988 304.361538 314.915478 304.671795 314.477412 304.982051 314.039796 305.292308 313.602640 305.602564 313.165950 305.912821 312.729736 306.223077 312.294004 306.533333 311.858763 306.843590 311.424020 307.153846 310.989785 307.464103 310.556064 307.774359 310.122865 308.084615 309.690197 308.394872 309.258067 308.705128 308.826484 309.015385 308.395455 309.325641 307.964989 309.635897 307.535092 309.946154 307.105774 310.256410 306.677042 310.566667 306.248905 310.876923 305.821369 311.187179 305.394443 311.497436 304.968135 311.807692 304.542453 312.117949 304.117405 312.428205 303.692999 312.738462 303.269242 313.048718 302.846143 313.358974 302.423710 313.669231 302.001950 313.979487 301.580872 314.289744 301.160483 314.600000 300.740792 314.910256 300.321806 315.220513 299.903534 315.530769 299.485983 315.841026 299.069161 316.151282 298.653076 316.461538 298.237736 316.771795 297.823150 317.082051 297.409324 317.392308 296.996268 317.702564 296.583988 318.012821 296.172493 318.323077 295.761792 318.633333 295.351890 318.943590 294.942798 319.253846 294.534522 319.564103 294.127071 319.874359 293.720453 320.184615 293.314675 320.494872 292.909745 320.805128 292.505672 321.115385 292.102463 321.425641 291.700127 321.735897 291.298671 322.046154 290.898103 322.356410 290.498431 322.666667 290.099664 322.976923 289.701808 323.287179 289.304873 323.597436 288.908865 323.907692 288.513793 324.217949 288.119666 324.528205 287.726487 324.838462 287.334255 325.148718 286.942964 325.458974 286.552608 325.769231 286.163181 326.079487 285.774678 326.389744 285.387094 326.700000 285.000422 327.010256 284.614657 327.320513 284.229795 327.630769 283.845828 327.941026 283.462751 328.251282 283.080560 328.561538 282.699248 328.871795 282.318809 329.182051 281.939239 329.492308 281.560531 329.802564 281.182680 330.112821 280.805681 330.423077 280.429527 330.733333 280.054214 331.043590 279.679735 331.353846 279.306086 331.664103 278.933260 331.974359 278.561252 332.284615 278.190056 332.594872 277.819667 332.905128 277.450079 333.215385 277.081287 333.525641 276.713285 333.835897 276.346068 334.146154 275.979629 334.456410 275.613964 334.766667 275.249066 335.076923 274.884931 335.387179 274.521552 335.697436 274.158924 336.007692 273.797042 336.317949 273.435900 336.628205 273.075491 336.938462 272.715812 337.248718 272.356855 337.558974 271.998617 337.869231 271.641090 338.179487 271.284269 338.489744 270.928150 338.800000 270.572725 339.110256 270.217990 339.420513 269.863940 339.730769 269.510567 340.041026 269.157868 340.351282 268.805836 340.661538 268.454466 340.971795 268.103752 341.282051 267.753688 341.592308 267.404270 341.902564 267.055491 342.212821 266.707346 342.523077 266.359829 342.833333 266.012935 343.143590 265.666658 343.453846 265.320993 343.764103 264.975933 344.074359 264.631475 344.384615 264.287610 344.694872 263.944336 345.005128 263.601644 345.315385 263.259531 345.625641 262.917991 345.935897 262.577017 346.246154 262.236605 346.556410 261.896748 346.866667 261.557442 347.176923 261.218680 347.487179 260.880458 347.797436 260.542768 348.107692 260.205607 348.417949 259.868968 348.728205 259.532846 349.038462 259.197235 349.348718 258.862130 349.658974 258.527524 349.969231 258.193413 350.279487 257.859791 350.589744 257.526652 350.900000 257.193991 351.210256 256.861802 351.520513 256.530079 351.830769 256.198818 352.141026 255.868011 352.451282 255.537655 352.761538 255.207743 353.071795 254.878269 353.382051 254.549229 353.692308 254.220616 354.002564 253.892425 354.312821 253.564650 354.623077 253.237286 354.933333 252.910327 355.243590 252.583768 355.553846 252.257603 355.864103 251.931826 356.174359 251.606433 356.484615 251.281416 356.794872 250.956771 357.105128 250.632492 357.415385 250.308574 357.725641 249.985011 358.035897 249.661797 358.346154 249.338928 358.656410 249.016396 358.966667 248.694197 359.276923 248.372325 359.587179 248.050774 359.897436 247.729540 360.207692 247.408616 360.517949 247.087997 360.828205 246.767676 361.138462 246.447650 361.448718 246.127911 361.758974 245.808455 362.069231 245.489276 362.379487 245.170368 362.689744 244.851726 363.000000 244.533344 363.310256 244.215217 363.620513 243.897339 363.930769 243.579704 364.241026 243.262307 364.551282 242.945142 364.861538 242.628204 365.171795 242.311487 365.482051 241.994985 365.792308 241.678694 366.102564 241.362607 366.412821 241.046718 366.723077 240.731023 367.033333 240.415516 367.343590 240.100190 367.653846 239.785041 367.964103 239.470063 368.274359 239.155251 368.584615 238.840598 368.894872 238.526099 369.205128 238.211749 369.515385 237.897542 369.825641 237.583472 370.135897 237.269534 370.446154 236.955723 370.756410 236.642032 371.066667 236.328456 371.376923 236.014990 371.687179 235.701628 371.997436 235.388364 372.307692 235.075193 372.617949 234.762109 372.928205 234.449107 373.238462 234.136181 373.548718 233.823326 373.858974 233.510535 374.169231 233.197804 374.479487 232.885126 374.789744 232.572497 375.100000 232.259911 375.410256 231.947361 375.720513 231.634843 376.030769 231.322351 376.341026 231.009879 376.651282 230.697422 376.961538 230.384974 377.271795 230.072529 377.582051 229.760083 377.892308 229.447629 378.202564 229.135161 378.512821 228.822675 378.823077 228.510165 379.133333 228.197625 379.443590 227.885049 379.753846 227.572433 380.064103 227.259769 380.374359 226.947054 380.684615 226.634281 380.994872 226.321444 381.305128 226.008538 381.615385 225.695558 381.925641 225.382498 382.235897 225.069352 382.546154 224.756115 382.856410 224.442781 383.166667 224.129344 383.476923 223.815800 383.787179 223.502142 384.097436 223.188365 384.407692 222.874463 384.717949 222.560431 385.028205 222.246263 385.338462 221.931954 385.648718 221.617497 385.958974 221.302888 386.269231 220.988121 386.579487 220.673190 386.889744 220.358090 387.200000 220.042814 387.510256 219.727359 387.820513 219.411717 388.130769 219.095883 388.441026 218.779853 388.751282 218.463619 389.061538 218.147177 389.371795 217.830521 389.682051 217.513646 389.992308 217.196545 390.302564 216.879214 390.612821 216.561646 390.923077 216.243837 391.233333 215.925780 391.543590 215.607470 391.853846 215.288902 392.164103 214.970069 392.474359 214.650967 392.784615 214.331589 393.094872 214.011931 393.405128 213.691986 393.715385 213.371749 394.025641 213.051214 394.335897 212.730376 394.646154 212.409229 394.956410 212.087768 395.266667 211.765987 395.576923 211.443881 395.887179 211.121443 396.197436 210.798669 396.507692 210.475552 396.817949 210.152088 397.128205 209.828270 397.438462 209.504093 397.748718 209.179551 398.058974 208.854640 398.369231 208.529353 398.679487 208.203684 398.989744 207.877629 399.300000 207.551181 399.610256 207.224335 399.920513 206.897085 400.230769 206.569426 400.541026 206.241353 400.851282 205.912859 401.161538 205.583939 401.471795 205.254588 401.782051 204.924799 402.092308 204.594570 402.402564 204.263905 402.712821 203.932808 403.023077 203.601288 403.333333 203.269348 403.643590 202.936997 403.953846 202.604239 404.264103 202.271081 404.574359 201.937528 404.884615 201.603588 405.194872 201.269265 405.505128 200.934566 405.815385 200.599497 406.125641 200.264064 406.435897 199.928274 406.746154 199.592131 407.056410 199.255643 407.366667 198.918815 407.676923 198.581653 407.987179 198.244163 408.297436 197.906352 408.607692 197.568226 408.917949 197.229790 409.228205 196.891050 409.538462 196.552013 409.848718 196.212685 410.158974 195.873071 410.469231 195.533179 410.779487 195.193013 411.089744 194.852580 411.400000 194.511886 411.710256 194.170937 412.020513 193.829739 412.330769 193.488298 412.641026 193.146620 412.951282 192.804712 413.261538 192.462579 413.571795 192.120227 413.882051 191.777662 414.192308 191.434891 414.502564 191.091920 414.812821 190.748754 415.123077 190.405399 415.433333 190.061862 415.743590 189.718149 416.053846 189.374266 416.364103 189.030218 416.674359 188.686012 416.984615 188.341654 417.294872 187.997151 417.605128 187.652507 417.915385 187.307729 418.225641 186.962823 418.535897 186.617796 418.846154 186.272652 419.156410 185.927399 419.466667 185.582043 419.776923 185.236589 420.087179 184.891043 420.397436 184.545411 420.707692 184.199701 421.017949 183.853916 421.328205 183.508065 421.638462 183.162152 421.948718 182.816184 422.258974 182.470167 422.569231 182.124106 422.879487 181.778009 423.189744 181.431881 423.500000 181.085727 423.810256 180.739555 424.120513 180.393370 424.430769 180.047178 424.741026 179.700985 425.051282 179.354797 425.361538 179.008621 425.671795 178.662463 425.982051 178.316327 426.292308 177.970222 426.602564 177.624151 426.912821 177.278123 427.223077 176.932142 427.533333 176.586215 427.843590 176.240347 428.153846 175.894546 428.464103 175.548816 428.774359 175.203165 429.084615 174.857597 429.394872 174.512119 429.705128 174.166738 430.015385 173.821458 430.325641 173.476287 430.635897 173.131230 430.946154 172.786293 431.256410 172.441483 431.566667 172.096805 431.876923 171.752266 432.187179 171.407871 432.497436 171.063627 432.807692 170.719539 433.117949 170.375614 433.428205 170.031858 433.738462 169.688277 434.048718 169.344876 434.358974 169.001663 434.669231 168.658642 434.979487 168.315820 435.289744 167.973204 435.600000 167.630798 435.910256 167.288610 436.220513 166.946645 436.530769 166.604909 436.841026 166.263408 437.151282 165.922149 437.461538 165.581138 437.771795 165.240379 438.082051 164.899881 438.392308 164.559648 438.702564 164.219686 439.012821 163.880003 439.323077 163.540603 439.633333 163.201493 439.943590 162.862678 440.253846 162.524166 440.564103 162.185962 440.874359 161.848071 441.184615 161.510501 441.494872 161.173257 441.805128 160.836345 442.115385 160.499771 442.425641 160.163542 442.735897 159.827663 443.046154 159.492140 443.356410 159.156980 443.666667 158.822188 443.976923 158.487771 444.287179 158.153735 444.597436 157.820085 444.907692 157.486828 445.217949 157.153969 445.528205 156.821516 445.838462 156.489473 446.148718 156.157848 446.458974 155.826645 446.769231 155.495871 447.079487 155.165533 447.389744 154.835635 447.700000 154.506185 448.010256 154.177188 448.320513 153.848650 448.630769 153.520578 448.941026 153.192977 449.251282 152.865854 449.561538 152.539214 449.871795 152.213064 450.182051 151.887409 450.492308 151.562256 450.802564 151.237611 451.112821 150.913479 451.423077 150.589868 451.733333 150.266782 452.043590 149.944228 452.353846 149.622212 452.664103 149.300741 452.974359 148.979819 453.284615 148.659454 453.594872 148.339650 453.905128 148.020415 454.215385 147.701755 454.525641 147.383675 454.835897 147.066181 455.146154 146.749280 455.456410 146.432977 455.766667 146.117279 456.076923 145.802191 456.387179 145.487720 456.697436 145.173872 457.007692 144.860653 457.317949 144.548068 457.628205 144.236125 457.938462 143.924828 458.248718 143.614185 458.558974 143.304200 458.869231 142.994881 459.179487 142.686233 459.489744 142.378262 459.800000 142.070975 460.110256 141.764376 460.420513 141.458473 460.730769 141.153272 461.041026 140.848778 461.351282 140.544998 461.661538 140.241937 461.971795 139.939602 462.282051 139.637999 462.592308 139.337133 462.902564 139.037011 463.212821 138.737639 463.523077 138.439023 463.833333 138.141169 464.143590 137.844083 464.453846 137.547771 464.764103 137.252240 465.074359 136.957494 465.384615 136.663541 465.694872 136.370386 466.005128 136.078035 466.315385 135.786495 466.625641 135.495771 466.935897 135.205870 467.246154 134.916798 467.556410 134.628560 467.866667 134.341162 468.176923 134.054612 468.487179 133.768914 468.797436 133.484075 469.107692 133.200101 469.417949 132.916998 469.728205 132.634772 470.038462 132.353428 470.348718 132.072974 470.658974 131.793416 470.969231 131.514758 471.279487 131.237008 471.589744 130.960171 471.900000 130.684253 472.210256 130.409261 472.520513 130.135200 472.830769 129.862077 473.141026 129.589897 473.451282 129.318667 473.761538 129.048393 474.071795 128.779080 474.382051 128.510736 474.692308 128.243365 475.002564 127.976974 475.312821 127.711569 475.623077 127.447156 475.933333 127.183741 476.243590 126.921330 476.553846 126.659930 476.864103 126.399545 477.174359 126.140183 477.484615 125.881849 477.794872 125.624550 478.105128 125.368291 478.415385 125.113079 478.725641 124.858919 479.035897 124.605818 479.346154 124.353781 479.656410 124.102813 479.966667 123.852911 480.276923 123.604071 480.587179 123.356286 480.897436 123.109554 481.207692 122.863868 481.517949 122.619224 481.828205 122.375617 482.138462 122.133043 482.448718 121.891496 482.758974 121.650972 483.069231 121.411467 483.379487 121.172974 483.689744 120.935490 484.000000 120.699010 484.310256 120.463529 484.620513 120.229041 484.930769 119.995544 485.241026 119.763030 485.551282 119.531497 485.861538 119.300939 486.171795 119.071350 486.482051 118.842727 486.792308 118.615065 487.102564 118.388359 487.412821 118.162604 487.723077 117.937795 488.033333 117.713927 488.343590 117.490997 488.653846 117.268998 488.964103 117.047926 489.274359 116.827777 489.584615 116.608545 489.894872 116.390226 490.205128 116.172815 490.515385 115.956308 490.825641 115.740698 491.135897 115.525983 491.446154 115.312156 491.756410 115.099213 492.066667 114.887150 492.376923 114.675961 492.687179 114.465642 492.997436 114.256187 493.307692 114.047593 493.617949 113.839855 493.928205 113.632966 494.238462 113.426924 494.548718 113.221723 494.858974 113.017358 495.169231 112.813824 495.479487 112.611117 495.789744 112.409232 496.100000 112.208163 496.410256 112.007908 496.720513 111.808459 497.030769 111.609814 497.341026 111.411966 497.651282 111.214911 497.961538 111.018645 498.271795 110.823163 498.582051 110.628459 498.892308 110.434529 499.202564 110.241369 499.512821 110.048972 499.823077 109.857336 500.133333 109.666454 500.443590 109.476323 500.753846 109.286937 501.064103 109.098291 501.374359 108.910381 501.684615 108.723202 501.994872 108.536749 502.305128 108.351017 502.615385 108.166002 502.925641 107.981699 503.235897 107.798103 503.546154 107.615209 503.856410 107.433013 504.166667 107.251509 504.476923 107.070693 504.787179 106.890560 505.097436 106.711105 505.407692 106.532324 505.717949 106.354212 506.028205 106.176764 506.338462 105.999974 506.648718 105.823839 506.958974 105.648354 507.269231 105.473514 507.579487 105.299313 507.889744 105.125748 508.200000 104.952813 508.510256 104.780504 508.820513 104.608816 509.130769 104.437743 509.441026 104.267283 509.751282 104.097428 510.061538 103.928175 510.371795 103.759520 510.682051 103.591456 510.992308 103.423980 511.302564 103.257086 511.612821 103.090771 511.923077 102.925028 512.233333 102.759853 512.543590 102.595242 512.853846 102.431190 513.164103 102.267691 513.474359 102.104742 513.784615 101.942336 514.094872 101.780471 514.405128 101.619140 514.715385 101.458339 515.025641 101.298063 515.335897 101.138307 515.646154 100.979067 515.956410 100.820338 516.266667 100.662115 516.576923 100.504394 516.887179 100.347168 517.197436 100.190434 517.507692 100.034188 517.817949 99.878423 518.128205 99.723135 518.438462 99.568320 518.748718 99.413973 519.058974 99.260089 519.369231 99.106663 519.679487 98.953690 519.989744 98.801166 520.300000 98.649086 520.610256 98.497444 520.920513 98.346237 521.230769 98.195460 521.541026 98.045107 521.851282 97.895174 522.161538 97.745656 522.471795 97.596548 522.782051 97.447846 523.092308 97.299544 523.402564 97.151639 523.712821 97.004125 524.023077 96.856997 524.333333 96.710250 524.643590 96.563881 524.953846 96.417883 525.264103 96.272253 525.574359 96.126985 525.884615 95.982075 526.194872 95.837518 526.505128 95.693309 526.815385 95.549443 527.125641 95.405916 527.435897 95.262722 527.746154 95.119857 528.056410 94.977317 528.366667 94.835096 528.676923 94.693189 528.987179 94.551593 529.297436 94.410301 529.607692 94.269310 529.917949 94.128614 530.228205 93.988208 530.538462 93.848089 530.848718 93.708251 531.158974 93.568689 531.469231 93.429398 531.779487 93.290374 532.089744 93.151613 532.400000 93.013108 532.710256 92.874856 533.020513 92.736851 533.330769 92.599089 533.641026 92.461565 533.951282 92.324275 534.261538 92.187213 534.571795 92.050374 534.882051 91.913755 535.192308 91.777349 535.502564 91.641153 535.812821 91.505162 536.123077 91.369370 536.433333 91.233773 536.743590 91.098366 537.053846 90.963145 537.364103 90.828104 537.674359 90.693239 537.984615 90.558545 538.294872 90.424018 538.605128 90.289651 538.915385 90.155442 539.225641 90.021384 539.535897 89.887474 539.846154 89.753706 540.156410 89.620075 540.466667 89.486577 540.776923 89.353207 541.087179 89.219960 541.397436 89.086832 541.707692 88.953817 542.017949 88.820911 542.328205 88.688109 542.638462 88.555406 542.948718 88.422798 543.258974 88.290280 543.569231 88.157846 543.879487 88.025492 544.189744 87.893214 544.500000 87.761006 544.810256 87.628864 545.120513 87.496783 545.430769 87.364758 545.741026 87.232785 546.051282 87.100858 546.361538 86.968973 546.671795 86.837125 546.982051 86.705309 547.292308 86.573521 547.602564 86.441756 547.912821 86.310008 548.223077 86.178273 548.533333 86.046547 548.843590 85.914824 549.153846 85.783100 549.464103 85.651370 549.774359 85.519630 550.084615 85.387873 550.394872 85.256096 550.705128 85.124294 551.015385 84.992462 551.325641 84.860596 551.635897 84.728689 551.946154 84.596739 552.256410 84.464739 552.566667 84.332685 552.876923 84.200573 553.187179 84.068397 553.497436 83.936154 553.807692 83.803837 554.117949 83.671442 554.428205 83.538964 554.738462 83.406400 555.048718 83.273743 555.358974 83.140989 555.669231 83.008133 555.979487 82.875171 556.289744 82.742097 556.600000 82.608908 556.910256 82.475597 557.220513 82.342162 557.530769 82.208601 557.841026 82.074916 558.151282 81.941108 558.461538 81.807175 558.771795 81.673120 559.082051 81.538943 559.392308 81.404644 559.702564 81.270224 560.012821 81.135684 560.323077 81.001023 560.633333 80.866244 560.943590 80.731345 561.253846 80.596329 561.564103 80.461194 561.874359 80.325943 562.184615 80.190575 562.494872 80.055092 562.805128 79.919493 563.115385 79.783779 563.425641 79.647951 563.735897 79.512010 564.046154 79.375955 564.356410 79.239788 564.666667 79.103509 564.976923 78.967119 565.287179 78.830619 565.597436 78.694008 565.907692 78.557287 566.217949 78.420458 566.528205 78.283520 566.838462 78.146475 567.148718 78.009322 567.458974 77.872062 567.769231 77.734697 568.079487 77.597225 568.389744 77.459649 568.700000 77.321969 569.010256 77.184184 569.320513 77.046297 569.630769 76.908307 569.941026 76.770215 570.251282 76.632021 570.561538 76.493726 570.871795 76.355331 571.182051 76.216837 571.492308 76.078243 571.802564 75.939550 572.112821 75.800759 572.423077 75.661871 572.733333 75.522886 573.043590 75.383805 573.353846 75.244628 573.664103 75.105356 573.974359 74.965989 574.284615 74.826529 574.594872 74.686974 574.905128 74.547327 575.215385 74.407588 575.525641 74.267757 575.835897 74.127835 576.146154 73.987822 576.456410 73.847719 576.766667 73.707527 577.076923 73.567246 577.387179 73.426877 577.697436 73.286420 578.007692 73.145876 578.317949 73.005246 578.628205 72.864529 578.938462 72.723728 579.248718 72.582841 579.558974 72.441870 579.869231 72.300816 580.179487 72.159678 580.489744 72.018458 580.800000 71.877156 581.110256 71.735773 581.420513 71.594309 581.730769 71.452764 582.041026 71.311141 582.351282 71.169438 582.661538 71.027656 582.971795 70.885797 583.282051 70.743860 583.592308 70.601847 583.902564 70.459758 584.212821 70.317592 584.523077 70.175352 584.833333 70.033038 585.143590 69.890649 585.453846 69.748188 585.764103 69.605653 586.074359 69.463047 586.384615 69.320369 586.694872 69.177620 587.005128 69.034800 587.315385 68.891911 587.625641 68.748952 587.935897 68.605925 588.246154 68.462830 588.556410 68.319667 588.866667 68.176437 589.176923 68.033141 589.487179 67.889779 589.797436 67.746352 590.107692 67.602860 590.417949 67.459304 590.728205 67.315685 591.038462 67.172002 591.348718 67.028257 591.658974 66.884451 591.969231 66.740583 592.279487 66.596655 592.589744 66.452667 592.900000 66.308619 593.210256 66.164512 593.520513 66.020347 593.830769 65.876124 594.141026 65.731845 594.451282 65.587508 594.761538 65.443116 595.071795 65.298668 595.382051 65.154165 595.692308 65.009608 596.002564 64.864997 596.312821 64.720333 596.623077 64.575616 596.933333 64.430848 597.243590 64.286028 597.553846 64.141157 597.864103 63.996236 598.174359 63.851266 598.484615 63.706246 598.794872 63.561178 599.105128 63.416061 599.415385 63.270898 599.725641 63.125687 600.035897 62.980431 600.346154 62.835128 600.656410 62.689781 600.966667 62.544389 601.276923 62.398953 601.587179 62.253474 601.897436 62.107952 602.207692 61.962388 602.517949 61.816783 602.828205 61.671136 603.138462 61.525448 603.448718 61.379721 603.758974 61.233955 604.069231 61.088150 604.379487 60.942306 604.689744 60.796425 605.000000 60.650507 605.310256 60.504553 605.620513 60.358563 605.930769 60.212537 606.241026 60.066477 606.551282 59.920382 606.861538 59.774254 607.171795 59.628093 607.482051 59.481900 607.792308 59.335675 608.102564 59.189418 608.412821 59.043131 608.723077 58.896814 609.033333 58.750467 609.343590 58.604092 609.653846 58.457687 609.964103 58.311256 610.274359 58.164796 610.584615 58.018311 610.894872 57.871799 611.205128 57.725261 611.515385 57.578699 611.825641 57.432112 612.135897 57.285502 612.446154 57.138868 612.756410 56.992212 613.066667 56.845534 613.376923 56.698834 613.687179 56.552113 613.997436 56.405372 614.307692 56.258612 614.617949 56.111832 614.928205 55.965033 615.238462 55.818217 615.548718 55.671383 615.858974 55.524532 616.169231 55.377665 616.479487 55.230782 616.789744 55.083884 617.100000 54.936972 617.410256 54.790045 617.720513 54.643105 618.030769 54.496153 618.341026 54.349187 618.651282 54.202211 618.961538 54.055223 619.271795 53.908225 619.582051 53.761216 619.892308 53.614199 620.202564 53.467172 620.512821 53.320138 620.823077 53.173095 621.133333 53.026046 621.443590 52.878990 621.753846 52.731928 622.064103 52.584861 622.374359 52.437789 622.684615 52.290713 622.994872 52.143633 623.305128 51.996550 623.615385 51.849465 623.925641 51.702377 624.235897 51.555289 624.546154 51.408199 624.856410 51.261110 625.166667 51.114021 625.476923 50.966933 625.787179 50.819846 626.097436 50.672762 626.407692 50.525680 626.717949 50.378602 627.028205 50.231527 627.338462 50.084457 627.648718 49.937392 627.958974 49.790333 628.269231 49.643279 628.579487 49.496233 628.889744 49.349193 629.200000 49.202162 629.510256 49.055139 629.820513 48.908125 630.130769 48.761121 630.441026 48.614127 630.751282 48.467143 631.061538 48.320171 631.371795 48.173211 631.682051 48.026264 631.992308 47.879329 632.302564 47.732409 632.612821 47.585502 632.923077 47.438610 633.233333 47.291734 633.543590 47.144873 633.853846 46.998029 634.164103 46.851202 634.474359 46.704393 634.784615 46.557602 635.094872 46.410829 635.405128 46.264074 635.715385 46.117338 636.025641 45.970619 636.335897 45.823918 636.646154 45.677235 636.956410 45.530570 637.266667 45.383922 637.576923 45.237292 637.887179 45.090679 638.197436 44.944084 638.507692 44.797507 638.817949 44.650946 639.128205 44.504403 639.438462 44.357877 639.748718 44.211368 640.058974 44.064876 640.369231 43.918401 640.679487 43.771943 640.989744 43.625502 641.300000 43.479077 641.610256 43.332669 641.920513 43.186278 642.230769 43.039903 642.541026 42.893544 642.851282 42.747202 643.161538 42.600877 643.471795 42.454567 643.782051 42.308273 644.092308 42.161996 644.402564 42.015735 644.712821 41.869489 645.023077 41.723259 645.333333 41.577046 645.643590 41.430847 645.953846 41.284665 646.264103 41.138498 646.574359 40.992346 646.884615 40.846210 647.194872 40.700089 647.505128 40.553984 647.815385 40.407893 648.125641 40.261818 648.435897 40.115758 648.746154 39.969713 649.056410 39.823682 649.366667 39.677667 649.676923 39.531666 649.987179 39.385680 650.297436 39.239708 650.607692 39.093751 650.917949 38.947809 651.228205 38.801881 651.538462 38.655967 651.848718 38.510067 652.158974 38.364182 652.469231 38.218311 652.779487 38.072453 653.089744 37.926610 653.400000 37.780780 653.710256 37.634965 654.020513 37.489163 654.330769 37.343374 654.641026 37.197600 654.951282 37.051838 655.261538 36.906091 655.571795 36.760356 655.882051 36.614635 656.192308 36.468927 656.502564 36.323232 656.812821 36.177551 657.123077 36.031882 657.433333 35.886226 657.743590 35.740583 658.053846 35.594953 658.364103 35.449335 658.674359 35.303731 658.984615 35.158138 659.294872 35.012558 659.605128 34.866991 659.915385 34.721436 660.225641 34.575893 660.535897 34.430363 660.846154 34.284844 661.156410 34.139338 661.466667 33.993843 661.776923 33.848361 662.087179 33.702890 662.397436 33.557431 662.707692 33.411984 663.017949 33.266548 663.328205 33.121124 663.638462 32.975711 663.948718 32.830310 664.258974 32.684920 664.569231 32.539541 664.879487 32.394174 665.189744 32.248817 665.500000 32.103472 665.810256 31.958137 666.120513 31.812814 666.430769 31.667501 666.741026 31.522199 667.051282 31.376907 667.361538 31.231626 667.671795 31.086356 667.982051 30.941096 668.292308 30.795847 668.602564 30.650608 668.912821 30.505379 669.223077 30.360160 669.533333 30.214951 669.843590 30.069752 670.153846 29.924563 670.464103 29.779384 670.774359 29.634215 671.084615 29.489056 671.394872 29.343906 671.705128 29.198766 672.015385 29.053635 672.325641 28.908513 672.635897 28.763401 672.946154 28.618299 673.256410 28.473205 673.566667 28.328121 673.876923 28.183045 674.187179 28.037979 674.497436 27.892921 674.807692 27.747873 675.117949 27.602833 675.428205 27.457802 675.738462 27.312779 676.048718 27.167765 676.358974 27.022759 676.669231 26.877762 676.979487 26.732773 677.289744 26.587793 677.600000 26.442820 677.910256 26.297856 678.220513 26.152900 678.530769 26.007951 678.841026 25.863011 679.151282 25.718078 679.461538 25.573153 679.771795 25.428236 680.082051 25.283327 680.392308 25.138424 680.702564 24.993530 681.012821 24.848642 681.323077 24.703762 681.633333 24.558890 681.943590 24.414024 682.253846 24.269166 682.564103 24.124314 682.874359 23.979469 683.184615 23.834632 683.494872 23.689801 683.805128 23.544977 684.115385 23.400159 684.425641 23.255348 684.735897 23.110543 685.046154 22.965745 685.356410 22.820954 685.666667 22.676168 685.976923 22.531389 686.287179 22.386616 686.597436 22.241849 686.907692 22.097088 687.217949 21.952333 687.528205 21.807583 687.838462 21.662840 688.148718 21.518102 688.458974 21.373370 688.769231 21.228643 689.079487 21.083922 689.389744 20.939206 689.700000 20.794495 690.010256 20.649790 690.320513 20.505090 690.630769 20.360395 690.941026 20.215705 691.251282 20.071021 691.561538 19.926340 691.871795 19.781665 692.182051 19.636995 692.492308 19.492329 692.802564 19.347668 693.112821 19.203011 693.423077 19.058359 693.733333 18.913711 694.043590 18.769068 694.353846 18.624428 694.664103 18.479793 694.974359 18.335162 695.284615 18.190535 695.594872 18.045912 695.905128 17.901293 696.215385 17.756677 696.525641 17.612066 696.835897 17.467458 697.146154 17.322853 697.456410 17.178252 697.766667 17.033655 698.076923 16.889061 698.387179 16.744470 698.697436 16.599882 699.007692 16.455298 699.317949 16.310716 699.628205 16.166138 699.938462 16.021562 700.248718 15.876989 700.558974 15.732419 700.869231 15.587852 701.179487 15.443288 701.489744 15.298726 701.800000 15.154166 702.110256 15.009609 702.420513 14.865054 702.730769 14.720502 703.041026 14.575951 703.351282 14.431403 703.661538 14.286857 703.971795 14.142313 704.282051 13.997770 704.592308 13.853230 704.902564 13.708691 705.212821 13.564154 705.523077 13.419618 705.833333 13.275084 706.143590 13.130552 706.453846 12.986021 706.764103 12.841491 707.074359 12.696963 707.384615 12.552435 707.694872 12.407909 708.005128 12.263384 708.315385 12.118859 708.625641 11.974336 708.935897 11.829813 709.246154 11.685292 709.556410 11.540770 709.866667 11.396250 710.176923 11.251730 710.487179 11.107210 710.797436 10.962691 711.107692 10.818171 711.417949 10.673653 711.728205 10.529134 712.038462 10.384615 712.038462 540.000000" /></g></g><g class="titles" /><g class="plot overlay" transform="translate(54, 20)"><g class="series serie-0 color-0"><g class="dots"><circle class="dot reactive tooltip-trigger" cx="13.96153846153846" cy="529.6153846153846" r="2.5" /><desc class="value">268,630,508(kWh)</desc><desc class="x top">13.96153846153846</desc><desc class="y top">529.6153846153846</desc><desc class="x_label">2549</desc></g><g class="dots"><circle class="dot reactive tooltip-trigger" cx="91.52564102564101" cy="500.4853434600747" r="2.5" /><desc class="value">274,921,697(kWh)</desc><desc class="x top">91.52564102564101</desc><desc class="y top">500.4853434600747</desc><desc class="x_label">2550</desc></g><g class="dots"><circle class="dot reactive tooltip-trigger" cx="169.08974358974356" cy="464.40685483963296" r="2.5" /><desc class="value">282,713,536(kWh)</desc><desc class="x top">169.08974358974356</desc><desc class="y top">464.40685483963296</desc><desc class="x_label">2551</desc></g><g class="dots"><circle class="dot reactive tooltip-trigger" cx="246.65384615384613" cy="395.5759782950247" r="2.5" /><desc class="value">297,578,879(kWh)</desc><desc class="x top">246.65384615384613</desc><desc class="y top">395.5759782950247</desc><desc class="x_label">2552</desc></g><g class="dots"><circle class="dot reactive tooltip-trigger" cx="324.21794871794873" cy="288.1196655342226" r="2.5" /><desc class="value">320,786,123(kWh)</desc><desc class="x top">324.21794871794873</desc><desc class="y top">288.1196655342226</desc><desc class="x_label">2553</desc></g><g class="dots"><circle class="dot reactive tooltip-trigger" cx="401.78205128205127" cy="204.92479947807732" r="2.5" /><desc class="value">338,753,644(kWh)</desc><desc class="x left">401.78205128205127</desc><desc class="y left">204.92479947807732</desc><desc class="x_label">2554</desc></g><g class="dots"><circle class="dot reactive tooltip-trigger" cx="479.3461538461538" cy="124.35378090473375" r="2.5" /><desc class="value">356,154,495(kWh)</desc><desc class="x left">479.3461538461538</desc><desc class="y left">124.35378090473375</desc><desc class="x_label">2555</desc></g><g class="dots"><circle class="dot reactive tooltip-trigger" cx="556.9102564102565" cy="82.47559707575681" r="2.5" /><desc class="value">365,198,889(kWh)</desc><desc class="x left">556.9102564102565</desc><desc class="y left">82.47559707575681</desc><desc class="x_label">2556</desc></g><g class="dots"><circle class="dot reactive tooltip-trigger" cx="634.474358974359" cy="46.70439314366746" r="2.5" /><desc class="value">372,924,364(kWh)</desc><desc class="x left">634.474358974359</desc><desc class="y left">46.70439314366746</desc><desc class="x_label">2557</desc></g><g class="dots"><circle class="dot reactive tooltip-trigger" cx="712.0384615384615" cy="10.384615384615358" r="2.5" /><desc class="value">380,768,314(kWh)</desc><desc class="x left">712.0384615384615</desc><desc class="y left">10.384615384615358</desc><desc class="x_label">2558</desc></g></g></g><g class="plot text-overlay" transform="translate(54, 20)"><g class="series serie-0 color-0" /></g><g class="plot tooltip-overlay" transform="translate(54, 20)"><g class="tooltip" style="opacity: 0" transform="translate(0 0)"><rect class="tooltip-box" height="0" rx="0" ry="0" width="0" /><g class="text" /></g></g></g></svg>