<?xml version='1.0' encoding='utf-8'?>
<svg xmlns:xlink="http://www.w3.org/1999/xlink" class="pygal-chart" id="chart-ccba9a89-0325-4d66-a66e-15647c7497ab" viewBox="0 0 800 600" xmlns="http://www.w3.org/2000/svg"><!--Generated with pygal 2.3.0 (etree) ©Kozea 2012-2016 on 2016-12-08--><!--http://pygal.org--><!--http://github.com/Kozea/pygal--><defs><style type="text/css">#chart-ccba9a89-0325-4d66-a66e-15647c7497ab{-webkit-user-select:none;-webkit-font-smoothing:antialiased;font-family:Consolas,"Liberation Mono",Menlo,Courier,monospace}#chart-ccba9a89-0325-4d66-a66e-15647c7497ab .title{font-family:Consolas,"Liberation Mono",Menlo,Courier,monospace;font-size:16px}#chart-ccba9a89-0325-4d66-a66e-15647c7497ab .legends .legend text{font-family:Consolas,"Liberation Mono",Menlo,Courier,monospace;font-size:14px}#chart-ccba9a89-0325-4d66-a66e-15647c7497ab .axis text{font-family:Consolas,"Liberation Mono",Menlo,Courier,monospace;font-size:10px}#chart-ccba9a89-0325-4d66-a66e-15647c7497ab .axis text.major{font-family:Consolas,"Liberation Mono",Menlo,Courier,monospace;font-size:10px}#chart-ccba9a89-0325-4d66-a66e-15647c7497ab .text-overlay text.value{font-family:Consolas,"Liberation Mono",Menlo,Courier,monospace;font-size:16px}#chart-ccba9a89-0325-4d66-a66e-15647c7497ab .text-overlay text.label{font-family:Consolas,"Liberation Mono",Menlo,Courier,monospace;font-size:10px}#chart-ccba9a89-0325-4d66-a66e-15647c7497ab .tooltip{font-family:Consolas,"Liberation Mono",Menlo,Courier,monospace;font-size:14px}#chart-ccba9a89-0325-4d66-a66e-15647c7497ab text.no_data{font-family:Consolas,"Liberation Mono",Menlo,Courier,monospace;font-size:64px}
#chart-ccba9a89-0325-4d66-a66e-15647c7497ab{background-color:rgba(249,249,249,1)}#chart-ccba9a89-0325-4d66-a66e-15647c7497ab path,#chart-ccba9a89-0325-4d66-a66e-15647c7497ab line,#chart-ccba9a89-0325-4d66-a66e-15647c7497ab rect,#chart-ccba9a89-0325-4d66-a66e-15647c7497ab circle{-webkit-transition:150ms;-moz-transition:150ms;transition:150ms}#chart-ccba9a89-0325-4d66-a66e-15647c7497ab .graph &gt; .background{fill:rgba(249,249,249,1)}#chart-ccba9a89-0325-4d66-a66e-15647c7497ab .plot &gt; .background{fill:rgba(255,255,255,1)}#chart-ccba9a89-0325-4d66-a66e-15647c7497ab .graph{fill:rgba(0,0,0,.87)}#chart-ccba9a89-0325-4d66-a66e-15647c7497ab text.no_data{fill:rgba(0,0,0,1)}#chart-ccba9a89-0325-4d66-a66e-15647c7497ab .title{fill:rgba(0,0,0,1)}#chart-ccba9a89-0325-4d66-a66e-15647c7497ab .legends .legend text{fill:rgba(0,0,0,.87)}#chart-ccba9a89-0325-4d66-a66e-15647c7497ab .legends .legend:hover text{fill:rgba(0,0,0,1)}#chart-ccba9a89-0325-4d66-a66e-15647c7497ab .axis .line{stroke:rgba(0,0,0,1)}#chart-ccba9a89-0325-4d66-a66e-15647c7497ab .axis .guide.line{stroke:rgba(0,0,0,.54)}#chart-ccba9a89-0325-4d66-a66e-15647c7497ab .axis .major.line{stroke:rgba(0,0,0,.87)}#chart-ccba9a89-0325-4d66-a66e-15647c7497ab .axis text.major{fill:rgba(0,0,0,1)}#chart-ccba9a89-0325-4d66-a66e-15647c7497ab .axis.y .guides:hover .guide.line,#chart-ccba9a89-0325-4d66-a66e-15647c7497ab .line-graph .axis.x .guides:hover .guide.line,#chart-ccba9a89-0325-4d66-a66e-15647c7497ab .stackedline-graph .axis.x .guides:hover .guide.line,#chart-ccba9a89-0325-4d66-a66e-15647c7497ab .xy-graph .axis.x .guides:hover .guide.line{stroke:rgba(0,0,0,1)}#chart-ccba9a89-0325-4d66-a66e-15647c7497ab .axis .guides:hover text{fill:rgba(0,0,0,1)}#chart-ccba9a89-0325-4d66-a66e-15647c7497ab .reactive{fill-opacity:.7;stroke-opacity:.8}#chart-ccba9a89-0325-4d66-a66e-15647c7497ab .ci{stroke:rgba(0,0,0,.87)}#chart-ccba9a89-0325-4d66-a66e-15647c7497ab .reactive.active,#chart-ccba9a89-0325-4d66-a66e-15647c7497ab .active .reactive{fill-opacity:.8;stroke-opacity:.9;stroke-width:4}#chart-ccba9a89-0325-4d66-a66e-15647c7497ab .ci .reactive.active{stroke-width:1.5}#chart-ccba9a89-0325-4d66-a66e-15647c7497ab .series text{fill:rgba(0,0,0,1)}#chart-ccba9a89-0325-4d66-a66e-15647c7497ab .tooltip rect{fill:rgba(255,255,255,1);stroke:rgba(0,0,0,1);-webkit-transition:opacity 150ms;-moz-transition:opacity 150ms;transition:opacity 150ms}#chart-ccba9a89-0325-4d66-a66e-15647c7497ab .tooltip .label{fill:rgba(0,0,0,.87)}#chart-ccba9a89-0325-4d66-a66e-15647c7497ab .tooltip .label{fill:rgba(0,0,0,.87)}#chart-ccba9a89-0325-4d66-a66e-15647c7497ab .tooltip .legend{font-size:.8em;fill:rgba(0,0,0,.54)}#chart-ccba9a89-0325-4d66-a66e-15647c7497ab .tooltip .x_label{font-size:.6em;fill:rgba(0,0,0,1)}#chart-ccba9a89-0325-4d66-a66e-15647c7497ab .tooltip .xlink{font-size:.5em;text-decoration:underline}#chart-ccba9a89-0325-4d66-a66e-15647c7497ab .tooltip .value{font-size:1.5em}#chart-ccba9a89-0325-4d66-a66e-15647c7497ab .bound{font-size:.5em}#chart-ccba9a89-0325-4d66-a66e-15647c7497ab .max-value{font-size:.75em;fill:rgba(0,0,0,.54)}#chart-ccba9a89-0325-4d66-a66e-15647c7497ab .map-element{fill:rgba(255,255,255,1);stroke:rgba(0,0,0,.54) !important}#chart-ccba9a89-0325-4d66-a66e-15647c7497ab .map-element .reactive{fill-opacity:inherit;stroke-opacity:inherit}#chart-ccba9a89-0325-4d66-a66e-15647c7497ab .color-0,#chart-ccba9a89-0325-4d66-a66e-15647c7497ab .color-0 a:visited{stroke:#e86fa0;fill:#e86fa0}#chart-ccba9a89-0325-4d66-a66e-15647c7497ab .text-overlay .color-0 text{fill:black}
#chart-ccba9a89-0325-4d66-a66e-15647c7497ab text.no_data{text-anchor:middle}#chart-ccba9a89-0325-4d66-a66e-15647c7497ab .guide.line{fill:none}#chart-ccba9a89-0325-4d66-a66e-15647c7497ab .centered{text-anchor:middle}#chart-ccba9a89-0325-4d66-a66e-15647c7497ab .title{text-anchor:middle}#chart-ccba9a89-0325-4d66-a66e-15647c7497ab .legends .legend text{fill-opacity:1}#chart-ccba9a89-0325-4d66-a66e-15647c7497ab .axis.x text{text-anchor:middle}#chart-ccba9a89-0325-4d66-a66e-15647c7497ab .axis.x:not(.web) text[transform]{text-anchor:start}#chart-ccba9a89-0325-4d66-a66e-15647c7497ab .axis.x:not(.web) text[transform].backwards{text-anchor:end}#chart-ccba9a89-0325-4d66-a66e-15647c7497ab .axis.y text{text-anchor:end}#chart-ccba9a89-0325-4d66-a66e-15647c7497ab .axis.y text[transform].backwards{text-anchor:start}#chart-ccba9a89-0325-4d66-a66e-15647c7497ab .axis.y2 text{text-anchor:start}#chart-ccba9a89-0325-4d66-a66e-15647c7497ab .axis.y2 text[transform].backwards{text-anchor:end}#chart-ccba9a89-0325-4d66-a66e-15647c7497ab .axis .guide.line{stroke-dasharray:4,4}#chart-ccba9a89-0325-4d66-a66e-15647c7497ab .axis .major.guide.line{stroke-dasharray:6,6}#chart-ccba9a89-0325-4d66-a66e-15647c7497ab .horizontal .axis.y .guide.line,#chart-ccba9a89-0325-4d66-a66e-15647c7497ab .horizontal .axis.y2 .guide.line,#chart-ccba9a89-0325-4d66-a66e-15647c7497ab .vertical .axis.x .guide.line{opacity:0}#chart-ccba9a89-0325-4d66-a66e-15647c7497ab .horizontal .axis.always_show .guide.line,#chart-ccba9a89-0325-4d66-a66e-15647c7497ab .vertical .axis.always_show .guide.line{opacity:1 !important}#chart-ccba9a89-0325-4d66-a66e-15647c7497ab .axis.y .guides:hover .guide.line,#chart-ccba9a89-0325-4d66-a66e-15647c7497ab .axis.y2 .guides:hover .guide.line,#chart-ccba9a89-0325-4d66-a66e-15647c7497ab .axis.x .guides:hover .guide.line{opacity:1}#chart-ccba9a89-0325-4d66-a66e-15647c7497ab .axis .guides:hover text{opacity:1}#chart-ccba9a89-0325-4d66-a66e-15647c7497ab .nofill{fill:none}#chart-ccba9a89-0325-4d66-a66e-15647c7497ab .subtle-fill{fill-opacity:.2}#chart-ccba9a89-0325-4d66-a66e-15647c7497ab .dot{stroke-width:1px;fill-opacity:1}#chart-ccba9a89-0325-4d66-a66e-15647c7497ab .dot.active{stroke-width:5px}#chart-ccba9a89-0325-4d66-a66e-15647c7497ab .dot.negative{fill:transparent}#chart-ccba9a89-0325-4d66-a66e-15647c7497ab text,#chart-ccba9a89-0325-4d66-a66e-15647c7497ab tspan{stroke:none !important}#chart-ccba9a89-0325-4d66-a66e-15647c7497ab .series text.active{opacity:1}#chart-ccba9a89-0325-4d66-a66e-15647c7497ab .tooltip rect{fill-opacity:.95;stroke-width:.5}#chart-ccba9a89-0325-4d66-a66e-15647c7497ab .tooltip text{fill-opacity:1}#chart-ccba9a89-0325-4d66-a66e-15647c7497ab .showable{visibility:hidden}#chart-ccba9a89-0325-4d66-a66e-15647c7497ab .showable.shown{visibility:visible}#chart-ccba9a89-0325-4d66-a66e-15647c7497ab .gauge-background{fill:rgba(229,229,229,1);stroke:none}#chart-ccba9a89-0325-4d66-a66e-15647c7497ab .bg-lines{stroke:rgba(249,249,249,1);stroke-width:2px}</style><script type="text/javascript">window.pygal = window.pygal || {};window.pygal.config = window.pygal.config || {};window.pygal.config['ccba9a89-0325-4d66-a66e-15647c7497ab'] = {"no_data_text": "No data", "no_prefix": false, "xrange": null, "print_values_position": "center", "truncate_label": null, "x_labels": ["2549", "2550", "2551", "2552", "2553", "2554", "2555", "2556", "2557", "2558"], "title": null, "force_uri_protocol": "https", "defs": [], "formatter": null, "classes": ["pygal-chart"], "y_labels": null, "rounded_bars": null, "explicit_size": false, "x_labels_major_every": null, "legend_at_bottom_columns": null, "stroke_style": null, "half_pie": false, "spacing": 10, "tooltip_fancy_mode": true, "inverse_y_axis": false, "width": 800, "inner_radius": 0, "interpolation_parameters": {}, "tooltip_border_radius": 0, "style": {"no_data_font_family": "Consolas, \"Liberation Mono\", Menlo, Courier, monospace", "tooltip_font_size": 14, "tooltip_font_family": "Consolas, \"Liberation Mono\", Menlo, Courier, monospace", "stroke_opacity_hover": ".9", "legend_font_family": "Consolas, \"Liberation Mono\", Menlo, Courier, monospace", "font_family": "Consolas, \"Liberation Mono\", Menlo, Courier, monospace", "title_font_family": "Consolas, \"Liberation Mono\", Menlo, Courier, monospace", "background": "rgba(249, 249, 249, 1)", "stroke_opacity": ".8", "foreground": "rgba(0, 0, 0, .87)", "value_background": "rgba(229, 229, 229, 1)", "guide_stroke_dasharray": "4,4", "foreground_subtle": "rgba(0, 0, 0, .54)", "opacity_hover": ".8", "value_font_family": "Consolas, \"Liberation Mono\", Menlo, Courier, monospace", "value_label_font_size": 10, "plot_background": "rgba(255, 255, 255, 1)", "ci_colors": [], "label_font_size": 10, "major_label_font_size": 10, "title_font_size": 16, "no_data_font_size": 64, "value_font_size": 16, "value_colors": [], "label_font_family": "Consolas, \"Liberation Mono\", Menlo, Courier, monospace", "major_guide_stroke_dasharray": "6,6", "transition": "150ms", "foreground_strong": "rgba(0, 0, 0, 1)", "colors": ["#e86fa0", "#e88f6f", "#e8df6f", "#a0e86f", "#6fe88f", "#6fe8df", "#6fa0e8", "#8f6fe8", "#df6fe8", "#e86fa0"], "opacity": ".7", "legend_font_size": 14, "value_label_font_family": "Consolas, \"Liberation Mono\", Menlo, Courier, monospace", "major_label_font_family": "Consolas, \"Liberation Mono\", Menlo, Courier, monospace"}, "x_labels_major_count": null, "interpolation_precision": 250, "missing_value_fill_truncation": "x", "stack_from_top": false, "truncate_legend": null, "show_minor_x_labels": true, "print_zeroes": true, "css": ["file://style.css", "file://graph.css"], "y_label_rotation": 0, "legend_at_bottom": false, "print_values": false, "margin_top": null, "max_scale": 16, "allow_interruptions": false, "show_x_labels": true, "strict": false, "show_x_guides": false, "stroke": true, "margin_left": null, "dynamic_print_values": false, "print_labels": false, "show_y_labels": true, "x_labels_major": null, "range": null, "x_label_rotation": 0, "margin": 20, "zero": 0, "include_x_axis": false, "height": 600, "show_minor_y_labels": true, "show_dots": true, "interpolate": "cubic", "show_y_guides": true, "y_labels_major": null, "box_mode": "extremes", "margin_bottom": null, "order_min": null, "legend_box_size": 12, "fill": true, "show_only_major_dots": false, "js": ["//kozea.github.io/pygal.js/2.0.x/pygal-tooltips.min.js"], "x_title": null, "y_labels_major_every": null, "y_labels_major_count": null, "disable_xml_declaration": false, "y_title": null, "logarithmic": false, "pretty_print": false, "min_scale": 4, "dots_size": 2.5, "margin_right": null, "legends": [null], "secondary_range": null, "show_legend": false}</script><script type="text/javascript" xlink:href="https://kozea.github.io/pygal.js/2.0.x/pygal-tooltips.min.js" /></defs><title>Pygal</title><g class="graph stackedline-graph vertical"><rect class="background" height="600" width="800" x="0" y="0" /><g class="plot" transform="translate(60, 20)"><rect class="background" height="540" width="720.0" x="0" y="0" /><g class="axis y"><path class="line" d="M0.000000 540.000000 h720.000000" /><g class="guides"><path class="guide line" d="M0.000000 477.781996 h720.000000" /><text class="" x="-5" y="481.28199637883836">1700M</text><title>1700M</title></g><g class="guides"><path class="guide line" d="M0.000000 420.518009 h720.000000" /><text class="" x="-5" y="424.01800880310026">1800M</text><title>1800M</title></g><g class="guides"><path class="guide line" d="M0.000000 363.254021 h720.000000" /><text class="" x="-5" y="366.75402122736216">1900M</text><title>1900M</title></g><g class="guides"><path class="major guide line" d="M0.000000 305.990034 h720.000000" /><text class="major" x="-5" y="309.49003365162406">2000M</text><title>2000M</title></g><g class="guides"><path class="guide line" d="M0.000000 248.726046 h720.000000" /><text class="" x="-5" y="252.22604607588596">2100M</text><title>2100M</title></g><g class="guides"><path class="guide line" d="M0.000000 191.462059 h720.000000" /><text class="" x="-5" y="194.96205850014786">2200M</text><title>2200M</title></g><g class="guides"><path class="guide line" d="M0.000000 134.198071 h720.000000" /><text class="" x="-5" y="137.69807092440976">2300M</text><title>2300M</title></g><g class="guides"><path class="guide line" d="M0.000000 76.934083 h720.000000" /><text class="" x="-5" y="80.43408334867166">2400M</text><title>2400M</title></g><g class="guides"><path class="major guide line" d="M0.000000 19.670096 h720.000000" /><text class="major" x="-5" y="23.170095772933564">2500M</text><title>2500M</title></g></g><g class="axis x"><g class="guides"><path class="line" d="M13.846154 0.000000 v540.000000" /><text class="" x="13.846153846153847" y="555.0">2549</text></g><g class="guides"><path class="guide line" d="M90.769231 0.000000 v540.000000" /><text class="" x="90.76923076923076" y="555.0">2550</text></g><g class="guides"><path class="guide line" d="M167.692308 0.000000 v540.000000" /><text class="" x="167.69230769230765" y="555.0">2551</text></g><g class="guides"><path class="guide line" d="M244.615385 0.000000 v540.000000" /><text class="" x="244.6153846153846" y="555.0">2552</text></g><g class="guides"><path class="guide line" d="M321.538462 0.000000 v540.000000" /><text class="" x="321.5384615384615" y="555.0">2553</text></g><g class="guides"><path class="guide line" d="M398.461538 0.000000 v540.000000" /><text class="" x="398.46153846153845" y="555.0">2554</text></g><g class="guides"><path class="guide line" d="M475.384615 0.000000 v540.000000" /><text class="" x="475.38461538461536" y="555.0">2555</text></g><g class="guides"><path class="guide line" d="M552.307692 0.000000 v540.000000" /><text class="" x="552.3076923076923" y="555.0">2556</text></g><g class="guides"><path class="guide line" d="M629.230769 0.000000 v540.000000" /><text class="" x="629.2307692307692" y="555.0">2557</text></g><g class="guides"><path class="guide line" d="M706.153846 0.000000 v540.000000" /><text class="" x="706.1538461538461" y="555.0">2558</text></g></g><g class="series serie-0 color-0"><path class="line reactive" d="M13.846154 540.000000 L13.846154 529.615385 14.153846 529.431994 14.461538 529.248608 14.769231 529.065229 15.076923 528.881861 15.384615 528.698507 15.692308 528.515173 16.000000 528.331860 16.307692 528.148573 16.615385 527.965315 16.923077 527.782091 17.230769 527.598904 17.538462 527.415757 17.846154 527.232654 18.153846 527.049600 18.461538 526.866596 18.769231 526.683649 19.076923 526.500760 19.384615 526.317934 19.692308 526.135174 20.000000 525.952484 20.307692 525.769869 20.615385 525.587330 20.923077 525.404873 21.230769 525.222500 21.538462 525.040216 21.846154 524.858024 22.153846 524.675928 22.461538 524.493931 22.769231 524.312038 23.076923 524.130252 23.384615 523.948576 23.692308 523.767015 24.000000 523.585571 24.307692 523.404249 24.615385 523.223053 24.923077 523.041985 25.230769 522.861051 25.538462 522.680253 25.846154 522.499594 26.153846 522.319080 26.461538 522.138713 26.769231 521.958497 27.076923 521.778437 27.384615 521.598534 27.692308 521.418794 28.000000 521.239220 28.307692 521.059815 28.615385 520.880584 28.923077 520.701530 29.230769 520.522656 29.538462 520.343967 29.846154 520.165466 30.153846 519.987156 30.461538 519.809042 30.769231 519.631127 31.076923 519.453414 31.384615 519.275909 31.692308 519.098613 32.000000 518.921531 32.307692 518.744667 32.615385 518.568024 32.923077 518.391606 33.230769 518.215416 33.538462 518.039459 33.846154 517.863738 34.153846 517.688256 34.461538 517.513018 34.769231 517.338026 35.076923 517.163286 35.384615 516.988800 35.692308 516.814572 36.000000 516.640605 36.307692 516.466904 36.615385 516.293473 36.923077 516.120314 37.230769 515.947431 37.538462 515.774829 37.846154 515.602511 38.153846 515.430480 38.461538 515.258741 38.769231 515.087297 39.076923 514.916151 39.384615 514.745307 39.692308 514.574770 40.000000 514.404542 40.307692 514.234628 40.615385 514.065031 40.923077 513.895754 41.230769 513.726802 41.538462 513.558178 41.846154 513.389886 42.153846 513.221929 42.461538 513.054312 42.769231 512.887038 43.076923 512.720110 43.384615 512.553532 43.692308 512.387308 44.000000 512.221442 44.307692 512.055938 44.615385 511.890798 44.923077 511.726027 45.230769 511.561628 45.538462 511.397606 45.846154 511.233963 46.153846 511.070703 46.461538 510.907831 46.769231 510.745350 47.076923 510.583263 47.384615 510.421574 47.692308 510.260287 48.000000 510.099406 48.307692 509.938934 48.615385 509.778875 48.923077 509.619232 49.230769 509.460010 49.538462 509.301212 49.846154 509.142841 50.153846 508.984902 50.461538 508.827398 50.769231 508.670333 51.076923 508.513710 51.384615 508.357533 51.692308 508.201807 52.000000 508.046533 52.307692 507.891717 52.615385 507.737362 52.923077 507.583471 53.230769 507.430048 53.538462 507.277097 53.846154 507.124622 54.153846 506.972627 54.461538 506.821114 54.769231 506.670088 55.076923 506.519552 55.384615 506.369511 55.692308 506.219967 56.000000 506.070924 56.307692 505.922387 56.615385 505.774358 56.923077 505.626842 57.230769 505.479843 57.538462 505.333363 57.846154 505.187406 58.153846 505.041977 58.461538 504.897078 58.769231 504.752715 59.076923 504.608889 59.384615 504.465606 59.692308 504.322868 60.000000 504.180680 60.307692 504.039044 60.615385 503.897966 60.923077 503.757448 61.230769 503.617494 61.538462 503.478107 61.846154 503.339292 62.153846 503.201053 62.461538 503.063392 62.769231 502.926314 63.076923 502.789822 63.384615 502.653920 63.692308 502.518611 64.000000 502.383900 64.307692 502.249789 64.615385 502.116284 64.923077 501.983387 65.230769 501.851101 65.538462 501.719432 65.846154 501.588382 66.153846 501.457955 66.461538 501.328155 66.769231 501.198985 67.076923 501.070449 67.384615 500.942552 67.692308 500.815295 68.000000 500.688684 68.307692 500.562722 68.615385 500.437413 68.923077 500.312760 69.230769 500.188766 69.538462 500.065437 69.846154 499.942775 70.153846 499.820783 70.461538 499.699467 70.769231 499.578829 71.076923 499.458873 71.384615 499.339602 71.692308 499.221022 72.000000 499.103134 72.307692 498.985943 72.615385 498.869453 72.923077 498.753667 73.230769 498.638589 73.538462 498.524222 73.846154 498.410571 74.153846 498.297638 74.461538 498.185429 74.769231 498.073945 75.076923 497.963192 75.384615 497.853172 75.692308 497.743890 76.000000 497.635349 76.307692 497.527552 76.615385 497.420505 76.923077 497.314209 77.230769 497.208669 77.538462 497.103888 77.846154 496.999871 78.153846 496.896621 78.461538 496.794141 78.769231 496.692435 79.076923 496.591508 79.384615 496.491362 79.692308 496.392001 80.000000 496.293429 80.307692 496.195650 80.615385 496.098668 80.923077 496.002485 81.230769 495.907107 81.538462 495.812535 81.846154 495.718775 82.153846 495.625830 82.461538 495.533703 82.769231 495.442398 83.076923 495.351919 83.384615 495.262270 83.692308 495.173454 84.000000 495.085475 84.307692 494.998337 84.615385 494.912043 84.923077 494.826597 85.230769 494.742002 85.538462 494.658263 85.846154 494.575384 86.153846 494.493366 86.461538 494.412216 86.769231 494.331935 87.076923 494.252528 87.384615 494.173999 87.692308 494.096351 88.000000 494.019587 88.307692 493.943713 88.615385 493.868730 88.923077 493.794644 89.230769 493.721457 89.538462 493.649173 89.846154 493.577797 90.153846 493.507331 90.461538 493.437779 90.769231 493.369146 91.076923 493.301433 91.384615 493.234639 91.692308 493.168762 92.000000 493.103798 92.307692 493.039745 92.615385 492.976601 92.923077 492.914362 93.230769 492.853026 93.538462 492.792590 93.846154 492.733052 94.153846 492.674409 94.461538 492.616658 94.769231 492.559796 95.076923 492.503821 95.384615 492.448730 95.692308 492.394521 96.000000 492.341190 96.307692 492.288736 96.615385 492.237155 96.923077 492.186444 97.230769 492.136601 97.538462 492.087624 97.846154 492.039509 98.153846 491.992255 98.461538 491.945857 98.769231 491.900314 99.076923 491.855623 99.384615 491.811781 99.692308 491.768785 100.000000 491.726633 100.307692 491.685323 100.615385 491.644850 100.923077 491.605214 101.230769 491.566410 101.538462 491.528437 101.846154 491.491291 102.153846 491.454971 102.461538 491.419472 102.769231 491.384794 103.076923 491.350932 103.384615 491.317884 103.692308 491.285648 104.000000 491.254221 104.307692 491.223600 104.615385 491.193782 104.923077 491.164765 105.230769 491.136546 105.538462 491.109123 105.846154 491.082492 106.153846 491.056651 106.461538 491.031598 106.769231 491.007329 107.076923 490.983842 107.384615 490.961134 107.692308 490.939203 108.000000 490.918046 108.307692 490.897660 108.615385 490.878043 108.923077 490.859191 109.230769 490.841102 109.538462 490.823774 109.846154 490.807204 110.153846 490.791389 110.461538 490.776326 110.769231 490.762013 111.076923 490.748447 111.384615 490.735625 111.692308 490.723544 112.000000 490.712203 112.307692 490.701598 112.615385 490.691726 112.923077 490.682586 113.230769 490.674173 113.538462 490.666486 113.846154 490.659522 114.153846 490.653278 114.461538 490.647751 114.769231 490.642940 115.076923 490.638840 115.384615 490.635449 115.692308 490.632765 116.000000 490.630786 116.307692 490.629507 116.615385 490.628927 116.923077 490.629043 117.230769 490.629852 117.538462 490.631352 117.846154 490.633540 118.153846 490.636413 118.461538 490.639968 118.769231 490.644203 119.076923 490.649115 119.384615 490.654702 119.692308 490.660960 120.000000 490.667887 120.307692 490.675481 120.615385 490.683738 120.923077 490.692657 121.230769 490.702233 121.538462 490.712465 121.846154 490.723350 122.153846 490.734886 122.461538 490.747069 122.769231 490.759896 123.076923 490.773366 123.384615 490.787475 123.692308 490.802222 124.000000 490.817602 124.307692 490.833613 124.615385 490.850254 124.923077 490.867520 125.230769 490.885410 125.538462 490.903920 125.846154 490.923048 126.153846 490.942792 126.461538 490.963148 126.769231 490.984114 127.076923 491.005687 127.384615 491.027865 127.692308 491.050644 128.000000 491.074023 128.307692 491.097998 128.615385 491.122567 128.923077 491.147727 129.230769 491.173475 129.538462 491.199809 129.846154 491.226726 130.153846 491.254224 130.461538 491.282299 130.769231 491.310949 131.076923 491.340171 131.384615 491.369963 131.692308 491.400322 132.000000 491.431244 132.307692 491.462729 132.615385 491.494772 132.923077 491.527371 133.230769 491.560524 133.538462 491.594228 133.846154 491.628479 134.153846 491.663276 134.461538 491.698616 134.769231 491.734495 135.076923 491.770912 135.384615 491.807864 135.692308 491.845347 136.000000 491.883360 136.307692 491.921899 136.615385 491.960962 136.923077 492.000547 137.230769 492.040650 137.538462 492.081268 137.846154 492.122400 138.153846 492.164042 138.461538 492.206192 138.769231 492.248847 139.076923 492.292004 139.384615 492.335661 139.692308 492.379815 140.000000 492.424463 140.307692 492.469603 140.615385 492.515232 140.923077 492.561347 141.230769 492.607946 141.538462 492.655025 141.846154 492.702583 142.153846 492.750616 142.461538 492.799122 142.769231 492.848097 143.076923 492.897541 143.384615 492.947449 143.692308 492.997819 144.000000 493.048648 144.307692 493.099935 144.615385 493.151675 144.923077 493.203866 145.230769 493.256506 145.538462 493.309592 145.846154 493.363121 146.153846 493.417090 146.461538 493.471498 146.769231 493.526340 147.076923 493.581616 147.384615 493.637320 147.692308 493.693452 148.000000 493.750009 148.307692 493.806987 148.615385 493.864384 148.923077 493.922197 149.230769 493.980424 149.538462 494.039062 149.846154 494.098108 150.153846 494.157560 150.461538 494.217415 150.769231 494.277670 151.076923 494.338322 151.384615 494.399370 151.692308 494.460809 152.000000 494.522638 152.307692 494.584853 152.615385 494.647453 152.923077 494.710434 153.230769 494.773794 153.538462 494.837530 153.846154 494.901639 154.153846 494.966119 154.461538 495.030966 154.769231 495.096179 155.076923 495.161755 155.384615 495.227690 155.692308 495.293983 156.000000 495.360630 156.307692 495.427629 156.615385 495.494977 156.923077 495.562671 157.230769 495.630709 157.538462 495.699089 157.846154 495.767806 158.153846 495.836859 158.461538 495.906246 158.769231 495.975962 159.076923 496.046007 159.384615 496.116376 159.692308 496.187067 160.000000 496.258078 160.307692 496.329406 160.615385 496.401048 160.923077 496.473001 161.230769 496.545264 161.538462 496.617832 161.846154 496.690704 162.153846 496.763876 162.461538 496.837347 162.769231 496.911113 163.076923 496.985172 163.384615 497.059520 163.692308 497.134156 164.000000 497.209077 164.307692 497.284279 164.615385 497.359761 164.923077 497.435519 165.230769 497.511551 165.538462 497.587854 165.846154 497.664426 166.153846 497.741263 166.461538 497.818364 166.769231 497.895725 167.076923 497.973344 167.384615 498.051217 167.692308 498.129343 168.000000 498.207717 168.307692 498.286324 168.615385 498.365149 168.923077 498.444175 169.230769 498.523387 169.538462 498.602768 169.846154 498.682303 170.153846 498.761976 170.461538 498.841769 170.769231 498.921669 171.076923 499.001657 171.384615 499.081719 171.692308 499.161838 172.000000 499.241999 172.307692 499.322185 172.615385 499.402380 172.923077 499.482568 173.230769 499.562734 173.538462 499.642861 173.846154 499.722932 174.153846 499.802933 174.461538 499.882847 174.769231 499.962659 175.076923 500.042351 175.384615 500.121908 175.692308 500.201314 176.000000 500.280553 176.307692 500.359609 176.615385 500.438466 176.923077 500.517108 177.230769 500.595519 177.538462 500.673682 177.846154 500.751582 178.153846 500.829204 178.461538 500.906529 178.769231 500.983544 179.076923 501.060231 179.384615 501.136575 179.692308 501.212559 180.000000 501.288168 180.307692 501.363386 180.615385 501.438196 180.923077 501.512583 181.230769 501.586530 181.538462 501.660022 181.846154 501.733042 182.153846 501.805575 182.461538 501.877604 182.769231 501.949113 183.076923 502.020087 183.384615 502.090508 183.692308 502.160363 184.000000 502.229633 184.307692 502.298304 184.615385 502.366359 184.923077 502.433782 185.230769 502.500557 185.538462 502.566669 185.846154 502.632100 186.153846 502.696835 186.461538 502.760859 186.769231 502.824155 187.076923 502.886706 187.384615 502.948498 187.692308 503.009513 188.000000 503.069736 188.307692 503.129152 188.615385 503.187743 188.923077 503.245494 189.230769 503.302388 189.538462 503.358411 189.846154 503.413545 190.153846 503.467775 190.461538 503.521084 190.769231 503.573458 191.076923 503.624879 191.384615 503.675331 191.692308 503.724799 192.000000 503.773267 192.307692 503.820718 192.615385 503.867137 192.923077 503.912507 193.230769 503.956812 193.538462 504.000037 193.846154 504.042166 194.153846 504.083182 194.461538 504.123069 194.769231 504.161811 195.076923 504.199393 195.384615 504.235798 195.692308 504.271010 196.000000 504.305013 196.307692 504.337792 196.615385 504.369329 196.923077 504.399610 197.230769 504.428618 197.538462 504.456337 197.846154 504.482751 198.153846 504.507844 198.461538 504.531600 198.769231 504.554003 199.076923 504.575037 199.384615 504.594686 199.692308 504.612934 200.000000 504.629764 200.307692 504.645162 200.615385 504.659110 200.923077 504.671593 201.230769 504.682594 201.538462 504.692099 201.846154 504.700090 202.153846 504.706552 202.461538 504.711468 202.769231 504.714823 203.076923 504.716601 203.384615 504.716785 203.692308 504.715359 204.000000 504.712309 204.307692 504.707616 204.615385 504.701266 204.923077 504.693243 205.230769 504.683530 205.538462 504.672111 205.846154 504.658971 206.153846 504.644093 206.461538 504.627461 206.769231 504.609059 207.076923 504.588872 207.384615 504.566883 207.692308 504.543076 208.000000 504.517435 208.307692 504.489944 208.615385 504.460588 208.923077 504.429349 209.230769 504.396213 209.538462 504.361163 209.846154 504.324182 210.153846 504.285256 210.461538 504.244367 210.769231 504.201501 211.076923 504.156640 211.384615 504.109769 211.692308 504.060872 212.000000 504.009933 212.307692 503.956935 212.615385 503.901863 212.923077 503.844701 213.230769 503.785433 213.538462 503.724042 213.846154 503.660513 214.153846 503.594830 214.461538 503.526976 214.769231 503.456936 215.076923 503.384693 215.384615 503.310232 215.692308 503.233536 216.000000 503.154590 216.307692 503.073377 216.615385 502.989881 216.923077 502.904087 217.230769 502.815979 217.538462 502.725539 217.846154 502.632753 218.153846 502.537604 218.461538 502.440076 218.769231 502.340154 219.076923 502.237821 219.384615 502.133060 219.692308 502.025857 220.000000 501.916195 220.307692 501.804059 220.615385 501.689431 220.923077 501.572296 221.230769 501.452638 221.538462 501.330441 221.846154 501.205690 222.153846 501.078367 222.461538 500.948456 222.769231 500.815943 223.076923 500.680811 223.384615 500.543043 223.692308 500.402624 224.000000 500.259538 224.307692 500.113769 224.615385 499.965300 224.923077 499.814116 225.230769 499.660201 225.538462 499.503538 225.846154 499.344112 226.153846 499.181906 226.461538 499.016905 226.769231 498.849093 227.076923 498.678453 227.384615 498.504969 227.692308 498.328626 228.000000 498.149407 228.307692 497.967297 228.615385 497.782279 228.923077 497.594337 229.230769 497.403455 229.538462 497.209618 229.846154 497.012809 230.153846 496.813012 230.461538 496.610212 230.769231 496.404391 231.076923 496.195535 231.384615 495.983627 231.692308 495.768651 232.000000 495.550590 232.307692 495.329430 232.615385 495.105154 232.923077 494.877746 233.230769 494.647190 233.538462 494.413470 233.846154 494.176569 234.153846 493.936473 234.461538 493.693164 234.769231 493.446627 235.076923 493.196846 235.384615 492.943805 235.692308 492.687487 236.000000 492.427877 236.307692 492.164959 236.615385 491.898717 236.923077 491.629134 237.230769 491.356194 237.538462 491.079882 237.846154 490.800182 238.153846 490.517077 238.461538 490.230552 238.769231 489.940590 239.076923 489.647175 239.384615 489.350292 239.692308 489.049925 240.000000 488.746056 240.307692 488.438671 240.615385 488.127754 240.923077 487.813287 241.230769 487.495256 241.538462 487.173644 241.846154 486.848435 242.153846 486.519614 242.461538 486.187163 242.769231 485.851068 243.076923 485.511311 243.384615 485.167878 243.692308 484.820752 244.000000 484.469917 244.307692 484.115356 244.615385 483.757055 244.923077 483.395001 245.230769 483.029202 245.538462 482.659671 245.846154 482.286418 246.153846 481.909457 246.461538 481.528798 246.769231 481.144456 247.076923 480.756440 247.384615 480.364764 247.692308 479.969440 248.000000 479.570479 248.307692 479.167894 248.615385 478.761696 248.923077 478.351899 249.230769 477.938513 249.538462 477.521551 249.846154 477.101026 250.153846 476.676948 250.461538 476.249330 250.769231 475.818185 251.076923 475.383524 251.384615 474.945360 251.692308 474.503703 252.000000 474.058568 252.307692 473.609965 252.615385 473.157906 252.923077 472.702405 253.230769 472.243472 253.538462 471.781119 253.846154 471.315360 254.153846 470.846206 254.461538 470.373669 254.769231 469.897761 255.076923 469.418494 255.384615 468.935881 255.692308 468.449932 256.000000 467.960661 256.307692 467.468080 256.615385 466.972200 256.923077 466.473034 257.230769 465.970594 257.538462 465.464891 257.846154 464.955938 258.153846 464.443747 258.461538 463.928330 258.769231 463.409699 259.076923 462.887866 259.384615 462.362843 259.692308 461.834642 260.000000 461.303276 260.307692 460.768756 260.615385 460.231094 260.923077 459.690303 261.230769 459.146395 261.538462 458.599381 261.846154 458.049274 262.153846 457.496086 262.461538 456.939828 262.769231 456.380514 263.076923 455.818154 263.384615 455.252762 263.692308 454.684349 264.000000 454.112926 264.307692 453.538508 264.615385 452.961104 264.923077 452.380728 265.230769 451.797391 265.538462 451.211106 265.846154 450.621885 266.153846 450.029739 266.461538 449.434681 266.769231 448.836723 267.076923 448.235876 267.384615 447.632154 267.692308 447.025568 268.000000 446.416129 268.307692 445.803851 268.615385 445.188745 268.923077 444.570824 269.230769 443.950099 269.538462 443.326582 269.846154 442.700286 270.153846 442.071222 270.461538 441.439403 270.769231 440.804841 271.076923 440.167547 271.384615 439.527535 271.692308 438.884815 272.000000 438.239400 272.307692 437.591303 272.615385 436.940534 272.923077 436.287107 273.230769 435.631033 273.538462 434.972324 273.846154 434.310993 274.153846 433.647051 274.461538 432.980511 274.769231 432.311384 275.076923 431.639683 275.384615 430.965420 275.692308 430.288606 276.000000 429.609255 276.307692 428.927377 276.615385 428.242986 276.923077 427.556092 277.230769 426.866709 277.538462 426.174848 277.846154 425.480521 278.153846 424.783741 278.461538 424.084519 278.769231 423.382868 279.076923 422.678799 279.384615 421.972325 279.692308 421.263458 280.000000 420.552209 280.307692 419.838591 280.615385 419.122616 280.923077 418.404297 281.230769 417.683644 281.538462 416.960670 281.846154 416.235388 282.153846 415.507809 282.461538 414.777945 282.769231 414.045809 283.076923 413.311412 283.384615 412.574766 283.692308 411.835885 284.000000 411.094779 284.307692 410.351460 284.615385 409.605942 284.923077 408.858235 285.230769 408.108353 285.538462 407.356306 285.846154 406.602108 286.153846 405.845769 286.461538 405.087303 286.769231 404.326722 287.076923 403.564036 287.384615 402.799259 287.692308 402.032403 288.000000 401.263479 288.307692 400.492500 288.615385 399.719478 288.923077 398.944424 289.230769 398.167351 289.538462 397.388272 289.846154 396.607197 290.153846 395.824139 290.461538 395.039110 290.769231 394.252123 291.076923 393.463189 291.384615 392.672320 291.692308 391.879529 292.000000 391.084827 292.307692 390.288227 292.615385 389.489740 292.923077 388.689379 293.230769 387.887156 293.538462 387.083082 293.846154 386.277171 294.153846 385.469433 294.461538 384.659882 294.769231 383.848528 295.076923 383.035385 295.384615 382.220464 295.692308 381.403777 296.000000 380.585337 296.307692 379.765155 296.615385 378.943244 296.923077 378.119615 297.230769 377.294281 297.538462 376.467254 297.846154 375.638545 298.153846 374.808168 298.461538 373.976133 298.769231 373.142453 299.076923 372.307141 299.384615 371.470207 299.692308 370.631665 300.000000 369.791526 300.307692 368.949802 300.615385 368.106506 300.923077 367.261649 301.230769 366.415244 301.538462 365.567303 301.846154 364.717837 302.153846 363.866859 302.461538 363.014380 302.769231 362.160414 303.076923 361.304972 303.384615 360.448065 303.692308 359.589707 304.000000 358.729909 304.307692 357.868683 304.615385 357.006042 304.923077 356.141997 305.230769 355.276560 305.538462 354.409744 305.846154 353.541560 306.153846 352.672022 306.461538 351.801139 306.769231 350.928926 307.076923 350.055394 307.384615 349.180554 307.692308 348.304420 308.000000 347.427002 308.307692 346.548314 308.615385 345.668367 308.923077 344.787173 309.230769 343.904745 309.538462 343.021094 309.846154 342.136232 310.153846 341.250172 310.461538 340.362926 310.769231 339.474505 311.076923 338.584923 311.384615 337.694190 311.692308 336.802318 312.000000 335.909321 312.307692 335.015210 312.615385 334.119997 312.923077 333.223695 313.230769 332.326314 313.538462 331.427868 313.846154 330.528368 314.153846 329.627827 314.461538 328.726256 314.769231 327.823668 315.076923 326.920074 315.384615 326.015487 315.692308 325.109919 316.000000 324.203382 316.307692 323.295888 316.615385 322.387449 316.923077 321.478077 317.230769 320.567784 317.538462 319.656582 317.846154 318.744483 318.153846 317.831500 318.461538 316.917645 318.769231 316.002929 319.076923 315.087364 319.384615 314.170963 319.692308 313.253738 320.000000 312.335700 320.307692 311.416863 320.615385 310.497237 320.923077 309.576835 321.230769 308.655669 321.538462 307.733752 321.846154 306.811096 322.153846 305.887722 322.461538 304.963652 322.769231 304.038908 323.076923 303.113511 323.384615 302.187483 323.692308 301.260845 324.000000 300.333621 324.307692 299.405831 324.615385 298.477498 324.923077 297.548642 325.230769 296.619286 325.538462 295.689452 325.846154 294.759162 326.153846 293.828436 326.461538 292.897298 326.769231 291.965768 327.076923 291.033869 327.384615 290.101622 327.692308 289.169050 328.000000 288.236173 328.307692 287.303015 328.615385 286.369595 328.923077 285.435937 329.230769 284.502062 329.538462 283.567992 329.846154 282.633749 330.153846 281.699354 330.461538 280.764830 330.769231 279.830197 331.076923 278.895478 331.384615 277.960695 331.692308 277.025869 332.000000 276.091023 332.307692 275.156177 332.615385 274.221355 332.923077 273.286576 333.230769 272.351865 333.538462 271.417241 333.846154 270.482727 334.153846 269.548345 334.461538 268.614116 334.769231 267.680063 335.076923 266.746207 335.384615 265.812569 335.692308 264.879172 336.000000 263.946038 336.307692 263.013188 336.615385 262.080644 336.923077 261.148428 337.230769 260.216561 337.538462 259.285066 337.846154 258.353963 338.153846 257.423276 338.461538 256.493026 338.769231 255.563234 339.076923 254.633922 339.384615 253.705113 339.692308 252.776827 340.000000 251.849087 340.307692 250.921915 340.615385 249.995331 340.923077 249.069359 341.230769 248.144020 341.538462 247.219335 341.846154 246.295327 342.153846 245.372017 342.461538 244.449427 342.769231 243.527578 343.076923 242.606493 343.384615 241.686194 343.692308 240.766702 344.000000 239.848038 344.307692 238.930226 344.615385 238.013285 344.923077 237.097240 345.230769 236.182110 345.538462 235.267918 345.846154 234.354686 346.153846 233.442435 346.461538 232.531187 346.769231 231.620964 347.076923 230.711789 347.384615 229.803681 347.692308 228.896665 348.000000 227.990760 348.307692 227.085989 348.615385 226.182374 348.923077 225.279937 349.230769 224.378699 349.538462 223.478682 349.846154 222.579908 350.153846 221.682398 350.461538 220.786175 350.769231 219.891261 351.076923 218.997676 351.384615 218.105443 351.692308 217.214584 352.000000 216.325120 352.307692 215.437074 352.615385 214.550466 352.923077 213.665319 353.230769 212.781655 353.538462 211.899495 353.846154 211.018861 354.153846 210.139776 354.461538 209.262260 354.769231 208.386335 355.076923 207.512024 355.384615 206.639348 355.692308 205.768328 356.000000 204.898987 356.307692 204.031347 356.615385 203.165429 356.923077 202.301255 357.230769 201.438847 357.538462 200.578227 357.846154 199.719415 358.153846 198.862435 358.461538 198.007308 358.769231 197.154056 359.076923 196.302700 359.384615 195.453263 359.692308 194.605765 360.000000 193.760230 360.307692 192.916678 360.615385 192.075132 360.923077 191.235613 361.230769 190.398143 361.538462 189.562744 361.846154 188.729438 362.153846 187.898245 362.461538 187.069190 362.769231 186.242292 363.076923 185.417574 363.384615 184.595057 363.692308 183.774764 364.000000 182.956716 364.307692 182.140935 364.615385 181.327443 364.923077 180.516261 365.230769 179.707411 365.538462 178.900916 365.846154 178.096796 366.153846 177.295074 366.461538 176.495772 366.769231 175.698911 367.076923 174.904512 367.384615 174.112599 367.692308 173.323192 368.000000 172.536314 368.307692 171.751986 368.615385 170.970229 368.923077 170.191067 369.230769 169.414520 369.538462 168.640610 369.846154 167.869360 370.153846 167.100790 370.461538 166.334923 370.769231 165.571781 371.076923 164.811385 371.384615 164.053757 371.692308 163.298918 372.000000 162.546892 372.307692 161.797699 372.615385 161.051361 372.923077 160.307900 373.230769 159.567337 373.538462 158.829696 373.846154 158.094997 374.153846 157.363261 374.461538 156.634512 374.769231 155.908771 375.076923 155.186059 375.384615 154.466398 375.692308 153.749811 376.000000 153.036318 376.307692 152.325942 376.615385 151.618705 376.923077 150.914627 377.230769 150.213732 377.538462 149.516041 377.846154 148.821575 378.153846 148.130356 378.461538 147.442407 378.769231 146.757749 379.076923 146.076403 379.384615 145.398392 379.692308 144.723738 380.000000 144.052461 380.307692 143.384584 380.615385 142.720130 380.923077 142.059118 381.230769 141.401572 381.538462 140.747513 381.846154 140.096963 382.153846 139.449943 382.461538 138.806476 382.769231 138.166583 383.076923 137.530286 383.384615 136.897607 383.692308 136.268567 384.000000 135.643189 384.307692 135.021494 384.615385 134.403504 384.923077 133.789240 385.230769 133.178725 385.538462 132.571981 385.846154 131.969028 386.153846 131.369890 386.461538 130.774587 386.769231 130.183141 387.076923 129.595575 387.384615 129.011910 387.692308 128.432168 388.000000 127.856370 388.307692 127.284539 388.615385 126.716695 388.923077 126.152862 389.230769 125.593061 389.538462 125.037313 389.846154 124.485641 390.153846 123.938065 390.461538 123.394609 390.769231 122.855293 391.076923 122.320140 391.384615 121.789171 391.692308 121.262408 392.000000 120.739873 392.307692 120.221587 392.615385 119.707573 392.923077 119.197852 393.230769 118.692446 393.538462 118.191378 393.846154 117.694667 394.153846 117.202337 394.461538 116.714409 394.769231 116.230905 395.076923 115.751847 395.384615 115.277256 395.692308 114.807155 396.000000 114.341565 396.307692 113.880507 396.615385 113.424005 396.923077 112.972079 397.230769 112.524751 397.538462 112.082043 397.846154 111.643977 398.153846 111.210574 398.461538 110.781857 398.769231 110.357841 399.076923 109.938515 399.384615 109.523863 399.692308 109.113867 400.000000 108.708512 400.307692 108.307781 400.615385 107.911656 400.923077 107.520121 401.230769 107.133160 401.538462 106.750754 401.846154 106.372889 402.153846 105.999547 402.461538 105.630711 402.769231 105.266364 403.076923 104.906490 403.384615 104.551072 403.692308 104.200094 404.000000 103.853538 404.307692 103.511387 404.615385 103.173626 404.923077 102.840237 405.230769 102.511204 405.538462 102.186509 405.846154 101.866137 406.153846 101.550070 406.461538 101.238291 406.769231 100.930784 407.076923 100.627533 407.384615 100.328519 407.692308 100.033727 408.000000 99.743140 408.307692 99.456742 408.615385 99.174514 408.923077 98.896441 409.230769 98.622506 409.538462 98.352692 409.846154 98.086983 410.153846 97.825361 410.461538 97.567810 410.769231 97.314313 411.076923 97.064854 411.384615 96.819415 411.692308 96.577980 412.000000 96.340532 412.307692 96.107055 412.615385 95.877531 412.923077 95.651944 413.230769 95.430278 413.538462 95.212515 413.846154 94.998638 414.153846 94.788632 414.461538 94.582478 414.769231 94.380161 415.076923 94.181664 415.384615 93.986970 415.692308 93.796062 416.000000 93.608924 416.307692 93.425538 416.615385 93.245888 416.923077 93.069958 417.230769 92.897730 417.538462 92.729187 417.846154 92.564314 418.153846 92.403093 418.461538 92.245508 418.769231 92.091541 419.076923 91.941176 419.384615 91.794397 419.692308 91.651186 420.000000 91.511527 420.307692 91.375403 420.615385 91.242797 420.923077 91.113693 421.230769 90.988074 421.538462 90.865923 421.846154 90.747223 422.153846 90.631957 422.461538 90.520110 422.769231 90.411663 423.076923 90.306601 423.384615 90.204907 423.692308 90.106563 424.000000 90.011553 424.307692 89.919861 424.615385 89.831470 424.923077 89.746362 425.230769 89.664521 425.538462 89.585931 425.846154 89.510575 426.153846 89.438435 426.461538 89.369495 426.769231 89.303739 427.076923 89.241150 427.384615 89.181710 427.692308 89.125404 428.000000 89.072214 428.307692 89.022124 428.615385 88.975116 428.923077 88.931175 429.230769 88.890284 429.538462 88.852425 429.846154 88.817582 430.153846 88.785738 430.461538 88.756876 430.769231 88.730981 431.076923 88.708034 431.384615 88.688020 431.692308 88.670921 432.000000 88.656720 432.307692 88.645402 432.615385 88.636949 432.923077 88.631345 433.230769 88.628572 433.538462 88.628614 433.846154 88.631455 434.153846 88.637077 434.461538 88.645464 434.769231 88.656599 435.076923 88.670465 435.384615 88.687046 435.692308 88.706325 436.000000 88.728284 436.307692 88.752908 436.615385 88.780180 436.923077 88.810082 437.230769 88.842598 437.538462 88.877712 437.846154 88.915406 438.153846 88.955665 438.461538 88.998470 438.769231 89.043805 439.076923 89.091655 439.384615 89.142001 439.692308 89.194827 440.000000 89.250116 440.307692 89.307853 440.615385 89.368019 440.923077 89.430598 441.230769 89.495574 441.538462 89.562929 441.846154 89.632647 442.153846 89.704711 442.461538 89.779105 442.769231 89.855811 443.076923 89.934814 443.384615 90.016095 443.692308 90.099639 444.000000 90.185429 444.307692 90.273447 444.615385 90.363678 444.923077 90.456104 445.230769 90.550709 445.538462 90.647476 445.846154 90.746388 446.153846 90.847429 446.461538 90.950581 446.769231 91.055828 447.076923 91.163154 447.384615 91.272541 447.692308 91.383973 448.000000 91.497432 448.307692 91.612903 448.615385 91.730369 448.923077 91.849812 449.230769 91.971217 449.538462 92.094565 449.846154 92.219841 450.153846 92.347028 450.461538 92.476109 450.769231 92.607068 451.076923 92.739887 451.384615 92.874549 451.692308 93.011039 452.000000 93.149339 452.307692 93.289433 452.615385 93.431303 452.923077 93.574934 453.230769 93.720307 453.538462 93.867408 453.846154 94.016218 454.153846 94.166722 454.461538 94.318901 454.769231 94.472741 455.076923 94.628223 455.384615 94.785331 455.692308 94.944049 456.000000 95.104360 456.307692 95.266246 456.615385 95.429691 456.923077 95.594679 457.230769 95.761193 457.538462 95.929215 457.846154 96.098730 458.153846 96.269720 458.461538 96.442169 458.769231 96.616059 459.076923 96.791375 459.384615 96.968099 459.692308 97.146215 460.000000 97.325706 460.307692 97.506555 460.615385 97.688746 460.923077 97.872261 461.230769 98.057084 461.538462 98.243199 461.846154 98.430588 462.153846 98.619234 462.461538 98.809122 462.769231 99.000234 463.076923 99.192554 463.384615 99.386064 463.692308 99.580748 464.000000 99.776589 464.307692 99.973571 464.615385 100.171677 464.923077 100.370890 465.230769 100.571193 465.538462 100.772570 465.846154 100.975003 466.153846 101.178477 466.461538 101.382974 466.769231 101.588477 467.076923 101.794970 467.384615 102.002436 467.692308 102.210859 468.000000 102.420221 468.307692 102.630506 468.615385 102.841697 468.923077 103.053778 469.230769 103.266731 469.538462 103.480540 469.846154 103.695188 470.153846 103.910658 470.461538 104.126934 470.769231 104.343999 471.076923 104.561836 471.384615 104.780429 471.692308 104.999760 472.000000 105.219813 472.307692 105.440571 472.615385 105.662018 472.923077 105.884136 473.230769 106.106909 473.538462 106.330320 473.846154 106.554353 474.153846 106.778990 474.461538 107.004216 474.769231 107.230012 475.076923 107.456363 475.384615 107.683252 475.692308 107.910662 476.000000 108.138574 476.307692 108.366971 476.615385 108.595834 476.923077 108.825146 477.230769 109.054888 477.538462 109.285042 477.846154 109.515590 478.153846 109.746514 478.461538 109.977795 478.769231 110.209416 479.076923 110.441358 479.384615 110.673603 479.692308 110.906133 480.000000 111.138930 480.307692 111.371976 480.615385 111.605252 480.923077 111.838740 481.230769 112.072423 481.538462 112.306282 481.846154 112.540299 482.153846 112.774456 482.461538 113.008734 482.769231 113.243115 483.076923 113.477582 483.384615 113.712117 483.692308 113.946700 484.000000 114.181314 484.307692 114.415941 484.615385 114.650562 484.923077 114.885160 485.230769 115.119716 485.538462 115.354212 485.846154 115.588630 486.153846 115.822952 486.461538 116.057159 486.769231 116.291234 487.076923 116.525159 487.384615 116.758914 487.692308 116.992483 488.000000 117.225846 488.307692 117.458986 488.615385 117.691885 488.923077 117.924525 489.230769 118.156886 489.538462 118.388952 489.846154 118.620703 490.153846 118.852123 490.461538 119.083192 490.769231 119.313893 491.076923 119.544207 491.384615 119.774116 491.692308 120.003603 492.000000 120.232648 492.307692 120.461234 492.615385 120.689343 492.923077 120.916956 493.230769 121.144055 493.538462 121.370623 493.846154 121.596640 494.153846 121.822090 494.461538 122.046953 494.769231 122.271212 495.076923 122.494848 495.384615 122.717843 495.692308 122.940180 496.000000 123.161839 496.307692 123.382803 496.615385 123.603054 496.923077 123.822574 497.230769 124.041343 497.538462 124.259345 497.846154 124.476561 498.153846 124.692973 498.461538 124.908563 498.769231 125.123312 499.076923 125.337202 499.384615 125.550216 499.692308 125.762335 500.000000 125.973541 500.307692 126.183816 500.615385 126.393141 500.923077 126.601499 501.230769 126.808872 501.538462 127.015240 501.846154 127.220587 502.153846 127.424893 502.461538 127.628142 502.769231 127.830314 503.076923 128.031391 503.384615 128.231356 503.692308 128.430190 504.000000 128.627874 504.307692 128.824392 504.615385 129.019724 504.923077 129.213853 505.230769 129.406761 505.538462 129.598428 505.846154 129.788838 506.153846 129.977972 506.461538 130.165811 506.769231 130.352338 507.076923 130.537535 507.384615 130.721382 507.692308 130.903863 508.000000 131.084959 508.307692 131.264652 508.615385 131.442924 508.923077 131.619756 509.230769 131.795131 509.538462 131.969030 509.846154 132.141435 510.153846 132.312328 510.461538 132.481691 510.769231 132.649505 511.076923 132.815753 511.384615 132.980417 511.692308 133.143477 512.000000 133.304917 512.307692 133.464718 512.615385 133.622861 512.923077 133.779329 513.230769 133.934103 513.538462 134.087166 513.846154 134.238499 514.153846 134.388084 514.461538 134.535902 514.769231 134.681937 515.076923 134.826169 515.384615 134.968580 515.692308 135.109152 516.000000 135.247868 516.307692 135.384709 516.615385 135.519656 516.923077 135.652692 517.230769 135.783798 517.538462 135.912957 517.846154 136.040150 518.153846 136.165359 518.461538 136.288566 518.769231 136.409752 519.076923 136.528901 519.384615 136.645992 519.692308 136.761009 520.000000 136.873933 520.307692 136.984746 520.615385 137.093429 520.923077 137.199966 521.230769 137.304337 521.538462 137.406524 521.846154 137.506509 522.153846 137.604275 522.461538 137.699802 522.769231 137.793073 523.076923 137.884070 523.384615 137.972774 523.692308 138.059168 524.000000 138.143232 524.307692 138.224950 524.615385 138.304302 524.923077 138.381271 525.230769 138.455839 525.538462 138.527987 525.846154 138.597697 526.153846 138.664952 526.461538 138.729732 526.769231 138.792020 527.076923 138.851798 527.384615 138.909047 527.692308 138.963749 528.000000 139.015887 528.307692 139.065442 528.615385 139.112395 528.923077 139.156729 529.230769 139.198426 529.538462 139.237467 529.846154 139.273835 530.153846 139.307511 530.461538 139.338476 530.769231 139.366713 531.076923 139.392204 531.384615 139.414931 531.692308 139.434875 532.000000 139.452018 532.307692 139.466342 532.615385 139.477829 532.923077 139.486461 533.230769 139.492219 533.538462 139.495086 533.846154 139.495043 534.153846 139.492072 534.461538 139.486155 534.769231 139.477274 535.076923 139.465411 535.384615 139.450547 535.692308 139.432664 536.000000 139.411745 536.307692 139.387771 536.615385 139.360724 536.923077 139.330585 537.230769 139.297337 537.538462 139.260962 537.846154 139.221441 538.153846 139.178756 538.461538 139.132889 538.769231 139.083822 539.076923 139.031537 539.384615 138.976015 539.692308 138.917239 540.000000 138.855190 540.307692 138.789850 540.615385 138.721201 540.923077 138.649224 541.230769 138.573903 541.538462 138.495218 541.846154 138.413151 542.153846 138.327684 542.461538 138.238800 542.769231 138.146479 543.076923 138.050704 543.384615 137.951457 543.692308 137.848719 544.000000 137.742472 544.307692 137.632699 544.615385 137.519380 544.923077 137.402499 545.230769 137.282036 545.538462 137.157973 545.846154 137.030293 546.153846 136.898977 546.461538 136.764007 546.769231 136.625365 547.076923 136.483033 547.384615 136.336993 547.692308 136.187226 548.000000 136.033714 548.307692 135.876439 548.615385 135.715384 548.923077 135.550529 549.230769 135.381857 549.538462 135.209349 549.846154 135.032988 550.153846 134.852755 550.461538 134.668632 550.769231 134.480601 551.076923 134.288644 551.384615 134.092743 551.692308 133.892879 552.000000 133.689034 552.307692 133.481191 552.615385 133.269338 552.923077 133.053498 553.230769 132.833697 553.538462 132.609965 553.846154 132.382331 554.153846 132.150823 554.461538 131.915470 554.769231 131.676300 555.076923 131.433343 555.384615 131.186626 555.692308 130.936179 556.000000 130.682029 556.307692 130.424206 556.615385 130.162739 556.923077 129.897655 557.230769 129.628984 557.538462 129.356754 557.846154 129.080994 558.153846 128.801732 558.461538 128.518997 558.769231 128.232818 559.076923 127.943223 559.384615 127.650242 559.692308 127.353901 560.000000 127.054232 560.307692 126.751260 560.615385 126.445017 560.923077 126.135529 561.230769 125.822827 561.538462 125.506937 561.846154 125.187890 562.153846 124.865713 562.461538 124.540436 562.769231 124.212086 563.076923 123.880693 563.384615 123.546285 563.692308 123.208892 564.000000 122.868540 564.307692 122.525260 564.615385 122.179079 564.923077 121.830027 565.230769 121.478131 565.538462 121.123421 565.846154 120.765926 566.153846 120.405673 566.461538 120.042692 566.769231 119.677011 567.076923 119.308659 567.384615 118.937664 567.692308 118.564055 568.000000 118.187861 568.307692 117.809110 568.615385 117.427831 568.923077 117.044053 569.230769 116.657804 569.538462 116.269113 569.846154 115.878008 570.153846 115.484518 570.461538 115.088672 570.769231 114.690499 571.076923 114.290026 571.384615 113.887283 571.692308 113.482299 572.000000 113.075101 572.307692 112.665719 572.615385 112.254181 572.923077 111.840516 573.230769 111.424752 573.538462 111.006918 573.846154 110.587043 574.153846 110.165155 574.461538 109.741283 574.769231 109.315456 575.076923 108.887702 575.384615 108.458050 575.692308 108.026529 576.000000 107.593166 576.307692 107.157992 576.615385 106.721033 576.923077 106.282320 577.230769 105.841880 577.538462 105.399743 577.846154 104.955937 578.153846 104.510490 578.461538 104.063431 578.769231 103.614789 579.076923 103.164593 579.384615 102.712871 579.692308 102.259651 580.000000 101.804963 580.307692 101.348835 580.615385 100.891295 580.923077 100.432373 581.230769 99.972097 581.538462 99.510495 581.846154 99.047596 582.153846 98.583429 582.461538 98.118022 582.769231 97.651405 583.076923 97.183605 583.384615 96.714652 583.692308 96.244573 584.000000 95.773398 584.307692 95.301155 584.615385 94.827873 584.923077 94.353581 585.230769 93.878307 585.538462 93.402079 585.846154 92.924927 586.153846 92.446879 586.461538 91.967963 586.769231 91.488209 587.076923 91.007645 587.384615 90.526299 587.692308 90.044200 588.000000 89.561377 588.307692 89.077859 588.615385 88.593674 588.923077 88.108850 589.230769 87.623417 589.538462 87.137403 589.846154 86.650836 590.153846 86.163745 590.461538 85.676160 590.769231 85.188108 591.076923 84.699618 591.384615 84.210719 591.692308 83.721439 592.000000 83.231807 592.307692 82.741852 592.615385 82.251603 592.923077 81.761087 593.230769 81.270334 593.538462 80.779372 593.846154 80.288229 594.153846 79.796936 594.461538 79.305519 594.769231 78.814008 595.076923 78.322432 595.384615 77.830818 595.692308 77.339196 596.000000 76.847594 596.307692 76.356042 596.615385 75.864567 596.923077 75.373197 597.230769 74.881963 597.538462 74.390892 597.846154 73.900014 598.153846 73.409356 598.461538 72.918947 598.769231 72.428816 599.076923 71.938992 599.384615 71.449503 599.692308 70.960378 600.000000 70.471645 600.307692 69.983334 600.615385 69.495472 600.923077 69.008088 601.230769 68.521212 601.538462 68.034871 601.846154 67.549095 602.153846 67.063912 602.461538 66.579350 602.769231 66.095438 603.076923 65.612205 603.384615 65.129680 603.692308 64.647890 604.000000 64.166866 604.307692 63.686634 604.615385 63.207225 604.923077 62.728666 605.230769 62.250987 605.538462 61.774215 605.846154 61.298380 606.153846 60.823510 606.461538 60.349634 606.769231 59.876780 607.076923 59.404978 607.384615 58.934255 607.692308 58.464640 608.000000 57.996162 608.307692 57.528850 608.615385 57.062732 608.923077 56.597837 609.230769 56.134193 609.538462 55.671830 609.846154 55.210775 610.153846 54.751058 610.461538 54.292706 610.769231 53.835749 611.076923 53.380216 611.384615 52.926134 611.692308 52.473533 612.000000 52.022441 612.307692 51.572887 612.615385 51.124900 612.923077 50.678507 613.230769 50.233738 613.538462 49.790622 613.846154 49.349186 614.153846 48.909460 614.461538 48.471473 614.769231 48.035252 615.076923 47.600826 615.384615 47.168225 615.692308 46.737477 616.000000 46.308610 616.307692 45.881653 616.615385 45.456634 616.923077 45.033583 617.230769 44.612528 617.538462 44.193497 617.846154 43.776520 618.153846 43.361625 618.461538 42.948839 618.769231 42.538193 619.076923 42.129715 619.384615 41.723433 619.692308 41.319376 620.000000 40.917573 620.307692 40.518052 620.615385 40.120842 620.923077 39.725971 621.230769 39.333469 621.538462 38.943363 621.846154 38.555683 622.153846 38.170457 622.461538 37.787713 622.769231 37.407481 623.076923 37.029789 623.384615 36.654665 623.692308 36.282139 624.000000 35.912238 624.307692 35.544992 624.615385 35.180429 624.923077 34.818578 625.230769 34.459467 625.538462 34.103125 625.846154 33.749581 626.153846 33.398863 626.461538 33.051000 626.769231 32.706021 627.076923 32.363954 627.384615 32.024827 627.692308 31.688670 628.000000 31.355511 628.307692 31.025379 628.615385 30.698302 628.923077 30.374310 629.230769 30.053429 629.538462 29.735683 629.846154 29.421066 630.153846 29.109565 630.461538 28.801168 630.769231 28.495861 631.076923 28.193633 631.384615 27.894471 631.692308 27.598362 632.000000 27.305294 632.307692 27.015253 632.615385 26.728229 632.923077 26.444207 633.230769 26.163176 633.538462 25.885123 633.846154 25.610036 634.153846 25.337901 634.461538 25.068706 634.769231 24.802439 635.076923 24.539087 635.384615 24.278637 635.692308 24.021077 636.000000 23.766395 636.307692 23.514578 636.615385 23.265612 636.923077 23.019487 637.230769 22.776189 637.538462 22.535705 637.846154 22.298023 638.153846 22.063130 638.461538 21.831015 638.769231 21.601664 639.076923 21.375064 639.384615 21.151204 639.692308 20.930070 640.000000 20.711650 640.307692 20.495932 640.615385 20.282903 640.923077 20.072550 641.230769 19.864860 641.538462 19.659822 641.846154 19.457423 642.153846 19.257650 642.461538 19.060490 642.769231 18.865931 643.076923 18.673960 643.384615 18.484566 643.692308 18.297734 644.000000 18.113454 644.307692 17.931711 644.615385 17.752494 644.923077 17.575790 645.230769 17.401587 645.538462 17.229871 645.846154 17.060630 646.153846 16.893853 646.461538 16.729525 646.769231 16.567635 647.076923 16.408170 647.384615 16.251118 647.692308 16.096466 648.000000 15.944200 648.307692 15.794310 648.615385 15.646782 648.923077 15.501603 649.230769 15.358762 649.538462 15.218245 649.846154 15.080040 650.153846 14.944135 650.461538 14.810516 650.769231 14.679171 651.076923 14.550089 651.384615 14.423255 651.692308 14.298658 652.000000 14.176285 652.307692 14.056123 652.615385 13.938161 652.923077 13.822384 653.230769 13.708781 653.538462 13.597340 653.846154 13.488047 654.153846 13.380890 654.461538 13.275857 654.769231 13.172934 655.076923 13.072110 655.384615 12.973372 655.692308 12.876707 656.000000 12.782102 656.307692 12.689546 656.615385 12.599025 656.923077 12.510527 657.230769 12.424039 657.538462 12.339550 657.846154 12.257045 658.153846 12.176514 658.461538 12.097942 658.769231 12.021318 659.076923 11.946629 659.384615 11.873863 659.692308 11.803006 660.000000 11.734047 660.307692 11.666972 660.615385 11.601770 660.923077 11.538427 661.230769 11.476931 661.538462 11.417270 661.846154 11.359430 662.153846 11.303400 662.461538 11.249167 662.769231 11.196718 663.076923 11.146041 663.384615 11.097123 663.692308 11.049951 664.000000 11.004513 664.307692 10.960797 664.615385 10.918790 664.923077 10.878478 665.230769 10.839851 665.538462 10.802894 665.846154 10.767597 666.153846 10.733945 666.461538 10.701927 666.769231 10.671529 667.076923 10.642740 667.384615 10.615547 667.692308 10.589936 668.000000 10.565897 668.307692 10.543415 668.615385 10.522479 668.923077 10.503076 669.230769 10.485194 669.538462 10.468819 669.846154 10.453939 670.153846 10.440542 670.461538 10.428615 670.769231 10.418146 671.076923 10.409121 671.384615 10.401529 671.692308 10.395357 672.000000 10.390592 672.307692 10.387222 672.615385 10.385234 672.923077 10.384615 673.230769 10.385354 673.538462 10.387437 673.846154 10.390852 674.153846 10.395586 674.461538 10.401627 674.769231 10.408962 675.076923 10.417579 675.384615 10.427465 675.692308 10.438607 676.000000 10.450994 676.307692 10.464611 676.615385 10.479448 676.923077 10.495490 677.230769 10.512727 677.538462 10.531144 677.846154 10.550730 678.153846 10.571472 678.461538 10.593358 678.769231 10.616374 679.076923 10.640509 679.384615 10.665749 679.692308 10.692082 680.000000 10.719496 680.307692 10.747978 680.615385 10.777516 680.923077 10.808096 681.230769 10.839707 681.538462 10.872335 681.846154 10.905969 682.153846 10.940595 682.461538 10.976202 682.769231 11.012776 683.076923 11.050304 683.384615 11.088776 683.692308 11.128177 684.000000 11.168495 684.307692 11.209718 684.615385 11.251833 684.923077 11.294827 685.230769 11.338689 685.538462 11.383405 685.846154 11.428963 686.153846 11.475350 686.461538 11.522554 686.769231 11.570562 687.076923 11.619361 687.384615 11.668940 687.692308 11.719285 688.000000 11.770384 688.307692 11.822224 688.615385 11.874793 688.923077 11.928079 689.230769 11.982068 689.538462 12.036748 689.846154 12.092106 690.153846 12.148131 690.461538 12.204808 690.769231 12.262127 691.076923 12.320074 691.384615 12.378637 691.692308 12.437802 692.000000 12.497559 692.307692 12.557893 692.615385 12.618792 692.923077 12.680245 693.230769 12.742238 693.538462 12.804758 693.846154 12.867794 694.153846 12.931332 694.461538 12.995361 694.769231 13.059867 695.076923 13.124837 695.384615 13.190260 695.692308 13.256123 696.000000 13.322413 696.307692 13.389118 696.615385 13.456225 696.923077 13.523721 697.230769 13.591594 697.538462 13.659832 697.846154 13.728421 698.153846 13.797350 698.461538 13.866605 698.769231 13.936175 699.076923 14.006046 699.384615 14.076206 699.692308 14.146642 700.000000 14.217343 700.307692 14.288294 700.615385 14.359485 700.923077 14.430901 701.230769 14.502531 701.538462 14.574363 701.846154 14.646382 702.153846 14.718578 702.461538 14.790937 702.769231 14.863447 703.076923 14.936094 703.384615 15.008868 703.692308 15.081755 704.000000 15.154742 704.307692 15.227817 704.615385 15.300968 704.923077 15.374181 705.230769 15.447444 705.538462 15.520746 705.846154 15.594072 706.153846 15.667411 706.153846 540.000000" /></g></g><g class="titles" /><g class="plot overlay" transform="translate(60, 20)"><g class="series serie-0 color-0"><g class="dots"><circle class="dot reactive tooltip-trigger" cx="13.846153846153847" cy="529.6153846153846" r="2.5" /><desc class="value">1,609,483,446(kWh)</desc><desc class="x top">13.846153846153847</desc><desc class="y top">529.6153846153846</desc><desc class="x_label">2549</desc></g><g class="dots"><circle class="dot reactive tooltip-trigger" cx="90.76923076923076" cy="493.36914556801776" r="2.5" /><desc class="value">1,672,780,189(kWh)</desc><desc class="x top">90.76923076923076</desc><desc class="y top">493.36914556801776</desc><desc class="x_label">2550</desc></g><g class="dots"><circle class="dot reactive tooltip-trigger" cx="167.69230769230765" cy="498.12934337922303" r="2.5" /><desc class="value">1,664,467,464(kWh)</desc><desc class="x top">167.69230769230765</desc><desc class="y top">498.12934337922303</desc><desc class="x_label">2551</desc></g><g class="dots"><circle class="dot reactive tooltip-trigger" cx="244.6153846153846" cy="483.75705484022177" r="2.5" /><desc class="value">1,689,565,766(kWh)</desc><desc class="x top">244.6153846153846</desc><desc class="y top">483.75705484022177</desc><desc class="x_label">2552</desc></g><g class="dots"><circle class="dot reactive tooltip-trigger" cx="321.5384615384615" cy="307.73375185057887" r="2.5" /><desc class="value">1,996,954,948(kWh)</desc><desc class="x top">321.5384615384615</desc><desc class="y top">307.73375185057887</desc><desc class="x_label">2553</desc></g><g class="dots"><circle class="dot reactive tooltip-trigger" cx="398.46153846153845" cy="110.7818569253808" r="2.5" /><desc class="value">2,340,891,693(kWh)</desc><desc class="x left">398.46153846153845</desc><desc class="y left">110.7818569253808</desc><desc class="x_label">2554</desc></g><g class="dots"><circle class="dot reactive tooltip-trigger" cx="475.38461538461536" cy="107.68325216534856" r="2.5" /><desc class="value">2,346,302,781(kWh)</desc><desc class="x left">475.38461538461536</desc><desc class="y left">107.68325216534856</desc><desc class="x_label">2555</desc></g><g class="dots"><circle class="dot reactive tooltip-trigger" cx="552.3076923076923" cy="133.48119108090737" r="2.5" /><desc class="value">2,301,251,886(kWh)</desc><desc class="x left">552.3076923076923</desc><desc class="y left">133.48119108090737</desc><desc class="x_label">2556</desc></g><g class="dots"><circle class="dot reactive tooltip-trigger" cx="629.2307692307692" cy="30.053429338197077" r="2.5" /><desc class="value">2,481,867,603(kWh)</desc><desc class="x left">629.2307692307692</desc><desc class="y left">30.053429338197077</desc><desc class="x_label">2557</desc></g><g class="dots"><circle class="dot reactive tooltip-trigger" cx="706.1538461538461" cy="15.667411185534661" r="2.5" /><desc class="value">2,506,989,881(kWh)</desc><desc class="x left">706.1538461538461</desc><desc class="y left">15.667411185534661</desc><desc class="x_label">2558</desc></g></g></g><g class="plot text-overlay" transform="translate(60, 20)"><g class="series serie-0 color-0" /></g><g class="plot tooltip-overlay" transform="translate(60, 20)"><g class="tooltip" style="opacity: 0" transform="translate(0 0)"><rect class="tooltip-box" height="0" rx="0" ry="0" width="0" /><g class="text" /></g></g></g></svg>