<?xml version='1.0' encoding='utf-8'?>
<svg xmlns:xlink="http://www.w3.org/1999/xlink" class="pygal-chart" id="chart-3362ae6f-b2e3-462b-9d4e-930973d11be3" viewBox="0 0 800 600" xmlns="http://www.w3.org/2000/svg"><!--Generated with pygal 2.3.0 (etree) ©Kozea 2012-2016 on 2016-12-08--><!--http://pygal.org--><!--http://github.com/Kozea/pygal--><defs><style type="text/css">#chart-3362ae6f-b2e3-462b-9d4e-930973d11be3{-webkit-user-select:none;-webkit-font-smoothing:antialiased;font-family:Consolas,"Liberation Mono",Menlo,Courier,monospace}#chart-3362ae6f-b2e3-462b-9d4e-930973d11be3 .title{font-family:Consolas,"Liberation Mono",Menlo,Courier,monospace;font-size:16px}#chart-3362ae6f-b2e3-462b-9d4e-930973d11be3 .legends .legend text{font-family:Consolas,"Liberation Mono",Menlo,Courier,monospace;font-size:14px}#chart-3362ae6f-b2e3-462b-9d4e-930973d11be3 .axis text{font-family:Consolas,"Liberation Mono",Menlo,Courier,monospace;font-size:10px}#chart-3362ae6f-b2e3-462b-9d4e-930973d11be3 .axis text.major{font-family:Consolas,"Liberation Mono",Menlo,Courier,monospace;font-size:10px}#chart-3362ae6f-b2e3-462b-9d4e-930973d11be3 .text-overlay text.value{font-family:Consolas,"Liberation Mono",Menlo,Courier,monospace;font-size:16px}#chart-3362ae6f-b2e3-462b-9d4e-930973d11be3 .text-overlay text.label{font-family:Consolas,"Liberation Mono",Menlo,Courier,monospace;font-size:10px}#chart-3362ae6f-b2e3-462b-9d4e-930973d11be3 .tooltip{font-family:Consolas,"Liberation Mono",Menlo,Courier,monospace;font-size:14px}#chart-3362ae6f-b2e3-462b-9d4e-930973d11be3 text.no_data{font-family:Consolas,"Liberation Mono",Menlo,Courier,monospace;font-size:64px}
#chart-3362ae6f-b2e3-462b-9d4e-930973d11be3{background-color:rgba(249,249,249,1)}#chart-3362ae6f-b2e3-462b-9d4e-930973d11be3 path,#chart-3362ae6f-b2e3-462b-9d4e-930973d11be3 line,#chart-3362ae6f-b2e3-462b-9d4e-930973d11be3 rect,#chart-3362ae6f-b2e3-462b-9d4e-930973d11be3 circle{-webkit-transition:150ms;-moz-transition:150ms;transition:150ms}#chart-3362ae6f-b2e3-462b-9d4e-930973d11be3 .graph &gt; .background{fill:rgba(249,249,249,1)}#chart-3362ae6f-b2e3-462b-9d4e-930973d11be3 .plot &gt; .background{fill:rgba(255,255,255,1)}#chart-3362ae6f-b2e3-462b-9d4e-930973d11be3 .graph{fill:rgba(0,0,0,.87)}#chart-3362ae6f-b2e3-462b-9d4e-930973d11be3 text.no_data{fill:rgba(0,0,0,1)}#chart-3362ae6f-b2e3-462b-9d4e-930973d11be3 .title{fill:rgba(0,0,0,1)}#chart-3362ae6f-b2e3-462b-9d4e-930973d11be3 .legends .legend text{fill:rgba(0,0,0,.87)}#chart-3362ae6f-b2e3-462b-9d4e-930973d11be3 .legends .legend:hover text{fill:rgba(0,0,0,1)}#chart-3362ae6f-b2e3-462b-9d4e-930973d11be3 .axis .line{stroke:rgba(0,0,0,1)}#chart-3362ae6f-b2e3-462b-9d4e-930973d11be3 .axis .guide.line{stroke:rgba(0,0,0,.54)}#chart-3362ae6f-b2e3-462b-9d4e-930973d11be3 .axis .major.line{stroke:rgba(0,0,0,.87)}#chart-3362ae6f-b2e3-462b-9d4e-930973d11be3 .axis text.major{fill:rgba(0,0,0,1)}#chart-3362ae6f-b2e3-462b-9d4e-930973d11be3 .axis.y .guides:hover .guide.line,#chart-3362ae6f-b2e3-462b-9d4e-930973d11be3 .line-graph .axis.x .guides:hover .guide.line,#chart-3362ae6f-b2e3-462b-9d4e-930973d11be3 .stackedline-graph .axis.x .guides:hover .guide.line,#chart-3362ae6f-b2e3-462b-9d4e-930973d11be3 .xy-graph .axis.x .guides:hover .guide.line{stroke:rgba(0,0,0,1)}#chart-3362ae6f-b2e3-462b-9d4e-930973d11be3 .axis .guides:hover text{fill:rgba(0,0,0,1)}#chart-3362ae6f-b2e3-462b-9d4e-930973d11be3 .reactive{fill-opacity:.7;stroke-opacity:.8}#chart-3362ae6f-b2e3-462b-9d4e-930973d11be3 .ci{stroke:rgba(0,0,0,.87)}#chart-3362ae6f-b2e3-462b-9d4e-930973d11be3 .reactive.active,#chart-3362ae6f-b2e3-462b-9d4e-930973d11be3 .active .reactive{fill-opacity:.8;stroke-opacity:.9;stroke-width:4}#chart-3362ae6f-b2e3-462b-9d4e-930973d11be3 .ci .reactive.active{stroke-width:1.5}#chart-3362ae6f-b2e3-462b-9d4e-930973d11be3 .series text{fill:rgba(0,0,0,1)}#chart-3362ae6f-b2e3-462b-9d4e-930973d11be3 .tooltip rect{fill:rgba(255,255,255,1);stroke:rgba(0,0,0,1);-webkit-transition:opacity 150ms;-moz-transition:opacity 150ms;transition:opacity 150ms}#chart-3362ae6f-b2e3-462b-9d4e-930973d11be3 .tooltip .label{fill:rgba(0,0,0,.87)}#chart-3362ae6f-b2e3-462b-9d4e-930973d11be3 .tooltip .label{fill:rgba(0,0,0,.87)}#chart-3362ae6f-b2e3-462b-9d4e-930973d11be3 .tooltip .legend{font-size:.8em;fill:rgba(0,0,0,.54)}#chart-3362ae6f-b2e3-462b-9d4e-930973d11be3 .tooltip .x_label{font-size:.6em;fill:rgba(0,0,0,1)}#chart-3362ae6f-b2e3-462b-9d4e-930973d11be3 .tooltip .xlink{font-size:.5em;text-decoration:underline}#chart-3362ae6f-b2e3-462b-9d4e-930973d11be3 .tooltip .value{font-size:1.5em}#chart-3362ae6f-b2e3-462b-9d4e-930973d11be3 .bound{font-size:.5em}#chart-3362ae6f-b2e3-462b-9d4e-930973d11be3 .max-value{font-size:.75em;fill:rgba(0,0,0,.54)}#chart-3362ae6f-b2e3-462b-9d4e-930973d11be3 .map-element{fill:rgba(255,255,255,1);stroke:rgba(0,0,0,.54) !important}#chart-3362ae6f-b2e3-462b-9d4e-930973d11be3 .map-element .reactive{fill-opacity:inherit;stroke-opacity:inherit}#chart-3362ae6f-b2e3-462b-9d4e-930973d11be3 .color-0,#chart-3362ae6f-b2e3-462b-9d4e-930973d11be3 .color-0 a:visited{stroke:#e86fa0;fill:#e86fa0}#chart-3362ae6f-b2e3-462b-9d4e-930973d11be3 .text-overlay .color-0 text{fill:black}
#chart-3362ae6f-b2e3-462b-9d4e-930973d11be3 text.no_data{text-anchor:middle}#chart-3362ae6f-b2e3-462b-9d4e-930973d11be3 .guide.line{fill:none}#chart-3362ae6f-b2e3-462b-9d4e-930973d11be3 .centered{text-anchor:middle}#chart-3362ae6f-b2e3-462b-9d4e-930973d11be3 .title{text-anchor:middle}#chart-3362ae6f-b2e3-462b-9d4e-930973d11be3 .legends .legend text{fill-opacity:1}#chart-3362ae6f-b2e3-462b-9d4e-930973d11be3 .axis.x text{text-anchor:middle}#chart-3362ae6f-b2e3-462b-9d4e-930973d11be3 .axis.x:not(.web) text[transform]{text-anchor:start}#chart-3362ae6f-b2e3-462b-9d4e-930973d11be3 .axis.x:not(.web) text[transform].backwards{text-anchor:end}#chart-3362ae6f-b2e3-462b-9d4e-930973d11be3 .axis.y text{text-anchor:end}#chart-3362ae6f-b2e3-462b-9d4e-930973d11be3 .axis.y text[transform].backwards{text-anchor:start}#chart-3362ae6f-b2e3-462b-9d4e-930973d11be3 .axis.y2 text{text-anchor:start}#chart-3362ae6f-b2e3-462b-9d4e-930973d11be3 .axis.y2 text[transform].backwards{text-anchor:end}#chart-3362ae6f-b2e3-462b-9d4e-930973d11be3 .axis .guide.line{stroke-dasharray:4,4}#chart-3362ae6f-b2e3-462b-9d4e-930973d11be3 .axis .major.guide.line{stroke-dasharray:6,6}#chart-3362ae6f-b2e3-462b-9d4e-930973d11be3 .horizontal .axis.y .guide.line,#chart-3362ae6f-b2e3-462b-9d4e-930973d11be3 .horizontal .axis.y2 .guide.line,#chart-3362ae6f-b2e3-462b-9d4e-930973d11be3 .vertical .axis.x .guide.line{opacity:0}#chart-3362ae6f-b2e3-462b-9d4e-930973d11be3 .horizontal .axis.always_show .guide.line,#chart-3362ae6f-b2e3-462b-9d4e-930973d11be3 .vertical .axis.always_show .guide.line{opacity:1 !important}#chart-3362ae6f-b2e3-462b-9d4e-930973d11be3 .axis.y .guides:hover .guide.line,#chart-3362ae6f-b2e3-462b-9d4e-930973d11be3 .axis.y2 .guides:hover .guide.line,#chart-3362ae6f-b2e3-462b-9d4e-930973d11be3 .axis.x .guides:hover .guide.line{opacity:1}#chart-3362ae6f-b2e3-462b-9d4e-930973d11be3 .axis .guides:hover text{opacity:1}#chart-3362ae6f-b2e3-462b-9d4e-930973d11be3 .nofill{fill:none}#chart-3362ae6f-b2e3-462b-9d4e-930973d11be3 .subtle-fill{fill-opacity:.2}#chart-3362ae6f-b2e3-462b-9d4e-930973d11be3 .dot{stroke-width:1px;fill-opacity:1}#chart-3362ae6f-b2e3-462b-9d4e-930973d11be3 .dot.active{stroke-width:5px}#chart-3362ae6f-b2e3-462b-9d4e-930973d11be3 .dot.negative{fill:transparent}#chart-3362ae6f-b2e3-462b-9d4e-930973d11be3 text,#chart-3362ae6f-b2e3-462b-9d4e-930973d11be3 tspan{stroke:none !important}#chart-3362ae6f-b2e3-462b-9d4e-930973d11be3 .series text.active{opacity:1}#chart-3362ae6f-b2e3-462b-9d4e-930973d11be3 .tooltip rect{fill-opacity:.95;stroke-width:.5}#chart-3362ae6f-b2e3-462b-9d4e-930973d11be3 .tooltip text{fill-opacity:1}#chart-3362ae6f-b2e3-462b-9d4e-930973d11be3 .showable{visibility:hidden}#chart-3362ae6f-b2e3-462b-9d4e-930973d11be3 .showable.shown{visibility:visible}#chart-3362ae6f-b2e3-462b-9d4e-930973d11be3 .gauge-background{fill:rgba(229,229,229,1);stroke:none}#chart-3362ae6f-b2e3-462b-9d4e-930973d11be3 .bg-lines{stroke:rgba(249,249,249,1);stroke-width:2px}</style><script type="text/javascript">window.pygal = window.pygal || {};window.pygal.config = window.pygal.config || {};window.pygal.config['3362ae6f-b2e3-462b-9d4e-930973d11be3'] = {"no_data_text": "No data", "no_prefix": false, "xrange": null, "print_values_position": "center", "truncate_label": null, "x_labels": ["2549", "2550", "2551", "2552", "2553", "2554", "2555", "2556", "2557", "2558"], "title": null, "force_uri_protocol": "https", "defs": [], "formatter": null, "classes": ["pygal-chart"], "y_labels": null, "rounded_bars": null, "explicit_size": false, "x_labels_major_every": null, "legend_at_bottom_columns": null, "stroke_style": null, "half_pie": false, "spacing": 10, "tooltip_fancy_mode": true, "inverse_y_axis": false, "width": 800, "inner_radius": 0, "interpolation_parameters": {}, "tooltip_border_radius": 0, "style": {"no_data_font_family": "Consolas, \"Liberation Mono\", Menlo, Courier, monospace", "tooltip_font_size": 14, "tooltip_font_family": "Consolas, \"Liberation Mono\", Menlo, Courier, monospace", "stroke_opacity_hover": ".9", "legend_font_family": "Consolas, \"Liberation Mono\", Menlo, Courier, monospace", "font_family": "Consolas, \"Liberation Mono\", Menlo, Courier, monospace", "title_font_family": "Consolas, \"Liberation Mono\", Menlo, Courier, monospace", "background": "rgba(249, 249, 249, 1)", "stroke_opacity": ".8", "foreground": "rgba(0, 0, 0, .87)", "value_background": "rgba(229, 229, 229, 1)", "guide_stroke_dasharray": "4,4", "foreground_subtle": "rgba(0, 0, 0, .54)", "opacity_hover": ".8", "value_font_family": "Consolas, \"Liberation Mono\", Menlo, Courier, monospace", "value_label_font_size": 10, "plot_background": "rgba(255, 255, 255, 1)", "ci_colors": [], "label_font_size": 10, "major_label_font_size": 10, "title_font_size": 16, "no_data_font_size": 64, "value_font_size": 16, "value_colors": [], "label_font_family": "Consolas, \"Liberation Mono\", Menlo, Courier, monospace", "major_guide_stroke_dasharray": "6,6", "transition": "150ms", "foreground_strong": "rgba(0, 0, 0, 1)", "colors": ["#e86fa0", "#e88f6f", "#e8df6f", "#a0e86f", "#6fe88f", "#6fe8df", "#6fa0e8", "#8f6fe8", "#df6fe8", "#e86fa0"], "opacity": ".7", "legend_font_size": 14, "value_label_font_family": "Consolas, \"Liberation Mono\", Menlo, Courier, monospace", "major_label_font_family": "Consolas, \"Liberation Mono\", Menlo, Courier, monospace"}, "x_labels_major_count": null, "interpolation_precision": 250, "missing_value_fill_truncation": "x", "stack_from_top": false, "truncate_legend": null, "show_minor_x_labels": true, "print_zeroes": true, "css": ["file://style.css", "file://graph.css"], "y_label_rotation": 0, "legend_at_bottom": false, "print_values": false, "margin_top": null, "max_scale": 16, "allow_interruptions": false, "show_x_labels": true, "strict": false, "show_x_guides": false, "stroke": true, "margin_left": null, "dynamic_print_values": false, "print_labels": false, "show_y_labels": true, "x_labels_major": null, "range": null, "x_label_rotation": 0, "margin": 20, "zero": 0, "include_x_axis": false, "height": 600, "show_minor_y_labels": true, "show_dots": true, "interpolate": "cubic", "show_y_guides": true, "y_labels_major": null, "box_mode": "extremes", "margin_bottom": null, "order_min": null, "legend_box_size": 12, "fill": true, "show_only_major_dots": false, "js": ["//kozea.github.io/pygal.js/2.0.x/pygal-tooltips.min.js"], "x_title": null, "y_labels_major_every": null, "y_labels_major_count": null, "disable_xml_declaration": false, "y_title": null, "logarithmic": false, "pretty_print": false, "min_scale": 4, "dots_size": 2.5, "margin_right": null, "legends": [null], "secondary_range": null, "show_legend": false}</script><script type="text/javascript" xlink:href="https://kozea.github.io/pygal.js/2.0.x/pygal-tooltips.min.js" /></defs><title>Pygal</title><g class="graph stackedline-graph vertical"><rect class="background" height="600" width="800" x="0" y="0" /><g class="plot" transform="translate(60, 20)"><rect class="background" height="540" width="720.0" x="0" y="0" /><g class="axis y"><path class="line" d="M0.000000 540.000000 h720.000000" /><g class="guides"><path class="major guide line" d="M0.000000 521.584586 h720.000000" /><text class="major" x="-5" y="525.0845856042497">7000M</text><title>7000M</title></g><g class="guides"><path class="guide line" d="M0.000000 480.854946 h720.000000" /><text class="" x="-5" y="484.354945805534">7200M</text><title>7200M</title></g><g class="guides"><path class="guide line" d="M0.000000 440.125306 h720.000000" /><text class="" x="-5" y="443.6253060068183">7400M</text><title>7400M</title></g><g class="guides"><path class="guide line" d="M0.000000 399.395666 h720.000000" /><text class="" x="-5" y="402.89566620810257">7600M</text><title>7600M</title></g><g class="guides"><path class="guide line" d="M0.000000 358.666026 h720.000000" /><text class="" x="-5" y="362.16602640938686">7800M</text><title>7800M</title></g><g class="guides"><path class="major guide line" d="M0.000000 317.936387 h720.000000" /><text class="major" x="-5" y="321.4363866106712">8000M</text><title>8000M</title></g><g class="guides"><path class="guide line" d="M0.000000 277.206747 h720.000000" /><text class="" x="-5" y="280.7067468119555">8200M</text><title>8200M</title></g><g class="guides"><path class="guide line" d="M0.000000 236.477107 h720.000000" /><text class="" x="-5" y="239.9771070132398">8400M</text><title>8400M</title></g><g class="guides"><path class="guide line" d="M0.000000 195.747467 h720.000000" /><text class="" x="-5" y="199.24746721452408">8600M</text><title>8600M</title></g><g class="guides"><path class="guide line" d="M0.000000 155.017827 h720.000000" /><text class="" x="-5" y="158.51782741580837">8800M</text><title>8800M</title></g><g class="guides"><path class="major guide line" d="M0.000000 114.288188 h720.000000" /><text class="major" x="-5" y="117.78818761709266">9000M</text><title>9000M</title></g><g class="guides"><path class="guide line" d="M0.000000 73.558548 h720.000000" /><text class="" x="-5" y="77.05854781837695">9200M</text><title>9200M</title></g><g class="guides"><path class="guide line" d="M0.000000 32.828908 h720.000000" /><text class="" x="-5" y="36.32890801966124">9400M</text><title>9400M</title></g></g><g class="axis x"><g class="guides"><path class="line" d="M13.846154 0.000000 v540.000000" /><text class="" x="13.846153846153847" y="555.0">2549</text></g><g class="guides"><path class="guide line" d="M90.769231 0.000000 v540.000000" /><text class="" x="90.76923076923076" y="555.0">2550</text></g><g class="guides"><path class="guide line" d="M167.692308 0.000000 v540.000000" /><text class="" x="167.69230769230765" y="555.0">2551</text></g><g class="guides"><path class="guide line" d="M244.615385 0.000000 v540.000000" /><text class="" x="244.6153846153846" y="555.0">2552</text></g><g class="guides"><path class="guide line" d="M321.538462 0.000000 v540.000000" /><text class="" x="321.5384615384615" y="555.0">2553</text></g><g class="guides"><path class="guide line" d="M398.461538 0.000000 v540.000000" /><text class="" x="398.46153846153845" y="555.0">2554</text></g><g class="guides"><path class="guide line" d="M475.384615 0.000000 v540.000000" /><text class="" x="475.38461538461536" y="555.0">2555</text></g><g class="guides"><path class="guide line" d="M552.307692 0.000000 v540.000000" /><text class="" x="552.3076923076923" y="555.0">2556</text></g><g class="guides"><path class="guide line" d="M629.230769 0.000000 v540.000000" /><text class="" x="629.2307692307692" y="555.0">2557</text></g><g class="guides"><path class="guide line" d="M706.153846 0.000000 v540.000000" /><text class="" x="706.1538461538461" y="555.0">2558</text></g></g><g class="series serie-0 color-0"><path class="line reactive" d="M13.846154 540.000000 L13.846154 477.604556 14.153846 477.257695 14.461538 476.910837 14.769231 476.563984 15.076923 476.217140 15.384615 475.870307 15.692308 475.523489 16.000000 475.176687 16.307692 474.829905 16.615385 474.483146 16.923077 474.136412 17.230769 473.789706 17.538462 473.443031 17.846154 473.096390 18.153846 472.749786 18.461538 472.403222 18.769231 472.056700 19.076923 471.710223 19.384615 471.363794 19.692308 471.017415 20.000000 470.671091 20.307692 470.324823 20.615385 469.978614 20.923077 469.632468 21.230769 469.286386 21.538462 468.940372 21.846154 468.594429 22.153846 468.248559 22.461538 467.902765 22.769231 467.557050 23.076923 467.211418 23.384615 466.865870 23.692308 466.520409 24.000000 466.175039 24.307692 465.829762 24.615385 465.484581 24.923077 465.139499 25.230769 464.794519 25.538462 464.449643 25.846154 464.104874 26.153846 463.760216 26.461538 463.415670 26.769231 463.071240 27.076923 462.726929 27.384615 462.382739 27.692308 462.038673 28.000000 461.694735 28.307692 461.350926 28.615385 461.007250 28.923077 460.663710 29.230769 460.320308 29.538462 459.977047 29.846154 459.633930 30.153846 459.290960 30.461538 458.948140 30.769231 458.605472 31.076923 458.262960 31.384615 457.920605 31.692308 457.578412 32.000000 457.236382 32.307692 456.894519 32.615385 456.552825 32.923077 456.211304 33.230769 455.869957 33.538462 455.528789 33.846154 455.187801 34.153846 454.846997 34.461538 454.506379 34.769231 454.165950 35.076923 453.825714 35.384615 453.485672 35.692308 453.145828 36.000000 452.806184 36.307692 452.466743 36.615385 452.127509 36.923077 451.788484 37.230769 451.449670 37.538462 451.111071 37.846154 450.772690 38.153846 450.434529 38.461538 450.096590 38.769231 449.758878 39.076923 449.421394 39.384615 449.084142 39.692308 448.747125 40.000000 448.410344 40.307692 448.073804 40.615385 447.737506 40.923077 447.401454 41.230769 447.065651 41.538462 446.730098 41.846154 446.394800 42.153846 446.059759 42.461538 445.724978 42.769231 445.390459 43.076923 445.056206 43.384615 444.722221 43.692308 444.388507 44.000000 444.055067 44.307692 443.721903 44.615385 443.389019 44.923077 443.056418 45.230769 442.724102 45.538462 442.392073 45.846154 442.060336 46.153846 441.728892 46.461538 441.397745 46.769231 441.066897 47.076923 440.736351 47.384615 440.406110 47.692308 440.076177 48.000000 439.746555 48.307692 439.417246 48.615385 439.088253 48.923077 438.759579 49.230769 438.431227 49.538462 438.103200 49.846154 437.775500 50.153846 437.448131 50.461538 437.121095 50.769231 436.794395 51.076923 436.468034 51.384615 436.142015 51.692308 435.816340 52.000000 435.491012 52.307692 435.166034 52.615385 434.841410 52.923077 434.517141 53.230769 434.193231 53.538462 433.869682 53.846154 433.546497 54.153846 433.223680 54.461538 432.901232 54.769231 432.579158 55.076923 432.257458 55.384615 431.936138 55.692308 431.615198 56.000000 431.294642 56.307692 430.974473 56.615385 430.654694 56.923077 430.335307 57.230769 430.016316 57.538462 429.697723 57.846154 429.379531 58.153846 429.061742 58.461538 428.744360 58.769231 428.427388 59.076923 428.110828 59.384615 427.794683 59.692308 427.478955 60.000000 427.163649 60.307692 426.848766 60.615385 426.534309 60.923077 426.220282 61.230769 425.906687 61.538462 425.593526 61.846154 425.280803 62.153846 424.968521 62.461538 424.656682 62.769231 424.345289 63.076923 424.034345 63.384615 423.723853 63.692308 423.413816 64.000000 423.104236 64.307692 422.795116 64.615385 422.486459 64.923077 422.178268 65.230769 421.870546 65.538462 421.563296 65.846154 421.256520 66.153846 420.950221 66.461538 420.644402 66.769231 420.339066 67.076923 420.034215 67.384615 419.729853 67.692308 419.425983 68.000000 419.122606 68.307692 418.819727 68.615385 418.517347 68.923077 418.215470 69.230769 417.914098 69.538462 417.613235 69.846154 417.312883 70.153846 417.013044 70.461538 416.713723 70.769231 416.414920 71.076923 416.116641 71.384615 415.818886 71.692308 415.521660 72.000000 415.224964 72.307692 414.928802 72.615385 414.633177 72.923077 414.338090 73.230769 414.043546 73.538462 413.749547 73.846154 413.456096 74.153846 413.163196 74.461538 412.870848 74.769231 412.579057 75.076923 412.287826 75.384615 411.997156 75.692308 411.707050 76.000000 411.417513 76.307692 411.128546 76.615385 410.840152 76.923077 410.552334 77.230769 410.265094 77.538462 409.978437 77.846154 409.692364 78.153846 409.406878 78.461538 409.121983 78.769231 408.837680 79.076923 408.553973 79.384615 408.270865 79.692308 407.988359 80.000000 407.706456 80.307692 407.425161 80.615385 407.144475 80.923077 406.864403 81.230769 406.584946 81.538462 406.306107 81.846154 406.027889 82.153846 405.750296 82.461538 405.473329 82.769231 405.196992 83.076923 404.921288 83.384615 404.646219 83.692308 404.371788 84.000000 404.097998 84.307692 403.824851 84.615385 403.552352 84.923077 403.280502 85.230769 403.009304 85.538462 402.738761 85.846154 402.468876 86.153846 402.199652 86.461538 401.931091 86.769231 401.663197 87.076923 401.395972 87.384615 401.129419 87.692308 400.863541 88.000000 400.598341 88.307692 400.333821 88.615385 400.069984 88.923077 399.806834 89.230769 399.544373 89.538462 399.282603 89.846154 399.021528 90.153846 398.761150 90.461538 398.501473 90.769231 398.242499 91.076923 397.984233 91.384615 397.726694 91.692308 397.469900 92.000000 397.213873 92.307692 396.958631 92.615385 396.704195 92.923077 396.450585 93.230769 396.197820 93.538462 395.945922 93.846154 395.694909 94.153846 395.444802 94.461538 395.195621 94.769231 394.947386 95.076923 394.700117 95.384615 394.453833 95.692308 394.208555 96.000000 393.964303 96.307692 393.721097 96.615385 393.478956 96.923077 393.237901 97.230769 392.997952 97.538462 392.759128 97.846154 392.521450 98.153846 392.284938 98.461538 392.049611 98.769231 391.815491 99.076923 391.582595 99.384615 391.350946 99.692308 391.120562 100.000000 390.891463 100.307692 390.663670 100.615385 390.437203 100.923077 390.212082 101.230769 389.988326 101.538462 389.765955 101.846154 389.544990 102.153846 389.325451 102.461538 389.107357 102.769231 388.890729 103.076923 388.675586 103.384615 388.461948 103.692308 388.249836 104.000000 388.039270 104.307692 387.830269 104.615385 387.622854 104.923077 387.417044 105.230769 387.212859 105.538462 387.010320 105.846154 386.809446 106.153846 386.610258 106.461538 386.412775 106.769231 386.217017 107.076923 386.023005 107.384615 385.830758 107.692308 385.640297 108.000000 385.451640 108.307692 385.264810 108.615385 385.079824 108.923077 384.896704 109.230769 384.715469 109.538462 384.536139 109.846154 384.358735 110.153846 384.183276 110.461538 384.009782 110.769231 383.838273 111.076923 383.668770 111.384615 383.501292 111.692308 383.335859 112.000000 383.172491 112.307692 383.011208 112.615385 382.852031 112.923077 382.694979 113.230769 382.540072 113.538462 382.387330 113.846154 382.236773 114.153846 382.088421 114.461538 381.942295 114.769231 381.798413 115.076923 381.656797 115.384615 381.517466 115.692308 381.380439 116.000000 381.245738 116.307692 381.113382 116.615385 380.983391 116.923077 380.855785 117.230769 380.730584 117.538462 380.607808 117.846154 380.487477 118.153846 380.369611 118.461538 380.254230 118.769231 380.141354 119.076923 380.031003 119.384615 379.923197 119.692308 379.817956 120.000000 379.715300 120.307692 379.615248 120.615385 379.517822 120.923077 379.423040 121.230769 379.330924 121.538462 379.241492 121.846154 379.154765 122.153846 379.070763 122.461538 378.989505 122.769231 378.911013 123.076923 378.835305 123.384615 378.762403 123.692308 378.692325 124.000000 378.625091 124.307692 378.560723 124.615385 378.499239 124.923077 378.440660 125.230769 378.385006 125.538462 378.332297 125.846154 378.282552 126.153846 378.235792 126.461538 378.192037 126.769231 378.151306 127.076923 378.113620 127.384615 378.078999 127.692308 378.047463 128.000000 378.019031 128.307692 377.993723 128.615385 377.971561 128.923077 377.952563 129.230769 377.936749 129.538462 377.924140 129.846154 377.914756 130.153846 377.908617 130.461538 377.905741 130.769231 377.906151 131.076923 377.909865 131.384615 377.916903 131.692308 377.927287 132.000000 377.941034 132.307692 377.958166 132.615385 377.978703 132.923077 378.002664 133.230769 378.030069 133.538462 378.060939 133.846154 378.095294 134.153846 378.133153 134.461538 378.174536 134.769231 378.219464 135.076923 378.267956 135.384615 378.320032 135.692308 378.375713 136.000000 378.435018 136.307692 378.497968 136.615385 378.564582 136.923077 378.634881 137.230769 378.708883 137.538462 378.786610 137.846154 378.868082 138.153846 378.953317 138.461538 379.042337 138.769231 379.135161 139.076923 379.231810 139.384615 379.332302 139.692308 379.436659 140.000000 379.544901 140.307692 379.657046 140.615385 379.773116 140.923077 379.893130 141.230769 380.017108 141.538462 380.145070 141.846154 380.277036 142.153846 380.413027 142.461538 380.553062 142.769231 380.697161 143.076923 380.845344 143.384615 380.997631 143.692308 381.154042 144.000000 381.314597 144.307692 381.479317 144.615385 381.648220 144.923077 381.821328 145.230769 381.998660 145.538462 382.180235 145.846154 382.366075 146.153846 382.556199 146.461538 382.750627 146.769231 382.949378 147.076923 383.152474 147.384615 383.359934 147.692308 383.571778 148.000000 383.788025 148.307692 384.008697 148.615385 384.233813 148.923077 384.463392 149.230769 384.697456 149.538462 384.936023 149.846154 385.179114 150.153846 385.426750 150.461538 385.678949 150.769231 385.935731 151.076923 386.197118 151.384615 386.463129 151.692308 386.733783 152.000000 387.009102 152.307692 387.289104 152.615385 387.573810 152.923077 387.863239 153.230769 388.157413 153.538462 388.456350 153.846154 388.760071 154.153846 389.068596 154.461538 389.381944 154.769231 389.700137 155.076923 390.023193 155.384615 390.351132 155.692308 390.683976 156.000000 391.021743 156.307692 391.364453 156.615385 391.712128 156.923077 392.064786 157.230769 392.422448 157.538462 392.785133 157.846154 393.152862 158.153846 393.525655 158.461538 393.903531 158.769231 394.286511 159.076923 394.674614 159.384615 395.067861 159.692308 395.466272 160.000000 395.869866 160.307692 396.278663 160.615385 396.692684 160.923077 397.111949 161.230769 397.536477 161.538462 397.966289 161.846154 398.401404 162.153846 398.841843 162.461538 399.287625 162.769231 399.738770 163.076923 400.195299 163.384615 400.657232 163.692308 401.124588 164.000000 401.597387 164.307692 402.075650 164.615385 402.559396 164.923077 403.048645 165.230769 403.543418 165.538462 404.043734 165.846154 404.549614 166.153846 405.061077 166.461538 405.578143 166.769231 406.100833 167.076923 406.629165 167.384615 407.163162 167.692308 407.702841 168.000000 408.248208 168.307692 408.799201 168.615385 409.355745 168.923077 409.917763 169.230769 410.485179 169.538462 411.057916 169.846154 411.635898 170.153846 412.219048 170.461538 412.807291 170.769231 413.400549 171.076923 413.998747 171.384615 414.601807 171.692308 415.209654 172.000000 415.822211 172.307692 416.439401 172.615385 417.061149 172.923077 417.687378 173.230769 418.318011 173.538462 418.952972 173.846154 419.592185 174.153846 420.235574 174.461538 420.883061 174.769231 421.534571 175.076923 422.190026 175.384615 422.849352 175.692308 423.512470 176.000000 424.179306 176.307692 424.849782 176.615385 425.523822 176.923077 426.201350 177.230769 426.882289 177.538462 427.566564 177.846154 428.254096 178.153846 428.944811 178.461538 429.638631 178.769231 430.335481 179.076923 431.035283 179.384615 431.737962 179.692308 432.443441 180.000000 433.151644 180.307692 433.862494 180.615385 434.575915 180.923077 435.291831 181.230769 436.010164 181.538462 436.730840 181.846154 437.453780 182.153846 438.178910 182.461538 438.906152 182.769231 439.635430 183.076923 440.366668 183.384615 441.099789 183.692308 441.834717 184.000000 442.571375 184.307692 443.309688 184.615385 444.049578 184.923077 444.790970 185.230769 445.533786 185.538462 446.277951 185.846154 447.023388 186.153846 447.770021 186.461538 448.517773 186.769231 449.266568 187.076923 450.016330 187.384615 450.766981 187.692308 451.518447 188.000000 452.270649 188.307692 453.023513 188.615385 453.776961 188.923077 454.530917 189.230769 455.285305 189.538462 456.040048 189.846154 456.795070 190.153846 457.550295 190.461538 458.305645 190.769231 459.061046 191.076923 459.816419 191.384615 460.571690 191.692308 461.326781 192.000000 462.081616 192.307692 462.836119 192.615385 463.590214 192.923077 464.343823 193.230769 465.096870 193.538462 465.849280 193.846154 466.600976 194.153846 467.351881 194.461538 468.101918 194.769231 468.851013 195.076923 469.599087 195.384615 470.346065 195.692308 471.091870 196.000000 471.836427 196.307692 472.579658 196.615385 473.321487 196.923077 474.061837 197.230769 474.800633 197.538462 475.537798 197.846154 476.273256 198.153846 477.006929 198.461538 477.738742 198.769231 478.468619 199.076923 479.196482 199.384615 479.922256 199.692308 480.645865 200.000000 481.367231 200.307692 482.086278 200.615385 482.802930 200.923077 483.517111 201.230769 484.228743 201.538462 484.937752 201.846154 485.644060 202.153846 486.347590 202.461538 487.048268 202.769231 487.746015 203.076923 488.440756 203.384615 489.132415 203.692308 489.820914 204.000000 490.506178 204.307692 491.188130 204.615385 491.866694 204.923077 492.541793 205.230769 493.213351 205.538462 493.881291 205.846154 494.545538 206.153846 495.206015 206.461538 495.862644 206.769231 496.515351 207.076923 497.164058 207.384615 497.808690 207.692308 498.449169 208.000000 499.085419 208.307692 499.717364 208.615385 500.344928 208.923077 500.968034 209.230769 501.586606 209.538462 502.200567 209.846154 502.809841 210.153846 503.414352 210.461538 504.014023 210.769231 504.608777 211.076923 505.198539 211.384615 505.783231 211.692308 506.362779 212.000000 506.937104 212.307692 507.506131 212.615385 508.069784 212.923077 508.627985 213.230769 509.180659 213.538462 509.727729 213.846154 510.269119 214.153846 510.804752 214.461538 511.334552 214.769231 511.858443 215.076923 512.376348 215.384615 512.888190 215.692308 513.393894 216.000000 513.893383 216.307692 514.386581 216.615385 514.873410 216.923077 515.353795 217.230769 515.827660 217.538462 516.294928 217.846154 516.755522 218.153846 517.209366 218.461538 517.656384 218.769231 518.096499 219.076923 518.529636 219.384615 518.955717 219.692308 519.374666 220.000000 519.786407 220.307692 520.190863 220.615385 520.587958 220.923077 520.977615 221.230769 521.359759 221.538462 521.734313 221.846154 522.101200 222.153846 522.460343 222.461538 522.811668 222.769231 523.155096 223.076923 523.490553 223.384615 523.817960 223.692308 524.137243 224.000000 524.448324 224.307692 524.751127 224.615385 525.045577 224.923077 525.331595 225.230769 525.609106 225.538462 525.878034 225.846154 526.138303 226.153846 526.389834 226.461538 526.632554 226.769231 526.866384 227.076923 527.091249 227.384615 527.307072 227.692308 527.513776 228.000000 527.711286 228.307692 527.899525 228.615385 528.078417 228.923077 528.247885 229.230769 528.407852 229.538462 528.558243 229.846154 528.698981 230.153846 528.829989 230.461538 528.951192 230.769231 529.062512 231.076923 529.163874 231.384615 529.255200 231.692308 529.336416 232.000000 529.407443 232.307692 529.468206 232.615385 529.518629 232.923077 529.558634 233.230769 529.588146 233.538462 529.607089 233.846154 529.615385 234.153846 529.612958 234.461538 529.599732 234.769231 529.575631 235.076923 529.540578 235.384615 529.494497 235.692308 529.437311 236.000000 529.368945 236.307692 529.289320 236.615385 529.198362 236.923077 529.095994 237.230769 528.982139 237.538462 528.856721 237.846154 528.719664 238.153846 528.570891 238.461538 528.410326 238.769231 528.237892 239.076923 528.053512 239.384615 527.857112 239.692308 527.648614 240.000000 527.427941 240.307692 527.195018 240.615385 526.949768 240.923077 526.692114 241.230769 526.421981 241.538462 526.139292 241.846154 525.843969 242.153846 525.535938 242.461538 525.215121 242.769231 524.881443 243.076923 524.534826 243.384615 524.175195 243.692308 523.802473 244.000000 523.416583 244.307692 523.017449 244.615385 522.604996 244.923077 522.179176 245.230769 521.740068 245.538462 521.287778 245.846154 520.822416 246.153846 520.344088 246.461538 519.852903 246.769231 519.348968 247.076923 518.832391 247.384615 518.303281 247.692308 517.761744 248.000000 517.207889 248.307692 516.641824 248.615385 516.063656 248.923077 515.473493 249.230769 514.871444 249.538462 514.257615 249.846154 513.632115 250.153846 512.995052 250.461538 512.346533 250.769231 511.686667 251.076923 511.015560 251.384615 510.333321 251.692308 509.640058 252.000000 508.935879 252.307692 508.220891 252.615385 507.495203 252.923077 506.758921 253.230769 506.012155 253.538462 505.255011 253.846154 504.487598 254.153846 503.710023 254.461538 502.922395 254.769231 502.124820 255.076923 501.317408 255.384615 500.500265 255.692308 499.673501 256.000000 498.837221 256.307692 497.991535 256.615385 497.136550 256.923077 496.272374 257.230769 495.399114 257.538462 494.516879 257.846154 493.625777 258.153846 492.725915 258.461538 491.817401 258.769231 490.900344 259.076923 489.974850 259.384615 489.041027 259.692308 488.098984 260.000000 487.148829 260.307692 486.190668 260.615385 485.224611 260.923077 484.250764 261.230769 483.269236 261.538462 482.280134 261.846154 481.283567 262.153846 480.279642 262.461538 479.268467 262.769231 478.250150 263.076923 477.224798 263.384615 476.192520 263.692308 475.153424 264.000000 474.107616 264.307692 473.055206 264.615385 471.996300 264.923077 470.931007 265.230769 469.859434 265.538462 468.781690 265.846154 467.697882 266.153846 466.608118 266.461538 465.512506 266.769231 464.411154 267.076923 463.304169 267.384615 462.191659 267.692308 461.073733 268.000000 459.950497 268.307692 458.822061 268.615385 457.688531 268.923077 456.550016 269.230769 455.406623 269.538462 454.258460 269.846154 453.105636 270.153846 451.948257 270.461538 450.786432 270.769231 449.620268 271.076923 448.449874 271.384615 447.275357 271.692308 446.096825 272.000000 444.914386 272.307692 443.728148 272.615385 442.538218 272.923077 441.344705 273.230769 440.147716 273.538462 438.947359 273.846154 437.743742 274.153846 436.536973 274.461538 435.327159 274.769231 434.114408 275.076923 432.898829 275.384615 431.680529 275.692308 430.459616 276.000000 429.236197 276.307692 428.010381 276.615385 426.782276 276.923077 425.551989 277.230769 424.319628 277.538462 423.085300 277.846154 421.849115 278.153846 420.611179 278.461538 419.371601 278.769231 418.130487 279.076923 416.887947 279.384615 415.644088 279.692308 414.399018 280.000000 413.152844 280.307692 411.905675 280.615385 410.657617 280.923077 409.408780 281.230769 408.159271 281.538462 406.909198 281.846154 405.658669 282.153846 404.407790 282.461538 403.156671 282.769231 401.905420 283.076923 400.654143 283.384615 399.402949 283.692308 398.151945 284.000000 396.901240 284.307692 395.650942 284.615385 394.401157 284.923077 393.151994 285.230769 391.903562 285.538462 390.655966 285.846154 389.409317 286.153846 388.163720 286.461538 386.919285 286.769231 385.676119 287.076923 384.434329 287.384615 383.194025 287.692308 381.955312 288.000000 380.718300 288.307692 379.483096 288.615385 378.249809 288.923077 377.018545 289.230769 375.789412 289.538462 374.562519 289.846154 373.337974 290.153846 372.115883 290.461538 370.896356 290.769231 369.679499 291.076923 368.465421 291.384615 367.254230 291.692308 366.046033 292.000000 364.840938 292.307692 363.639053 292.615385 362.440486 292.923077 361.245345 293.230769 360.053737 293.538462 358.865771 293.846154 357.681553 294.153846 356.501193 294.461538 355.324798 294.769231 354.152475 295.076923 352.984333 295.384615 351.820479 295.692308 350.661021 296.000000 349.506068 296.307692 348.355726 296.615385 347.210104 296.923077 346.069309 297.230769 344.933450 297.538462 343.802634 297.846154 342.676969 298.153846 341.556563 298.461538 340.441524 298.769231 339.331959 299.076923 338.227977 299.384615 337.129685 299.692308 336.037191 300.000000 334.950603 300.307692 333.870028 300.615385 332.795575 300.923077 331.727352 301.230769 330.665466 301.538462 329.610024 301.846154 328.561136 302.153846 327.518909 302.461538 326.483450 302.769231 325.454867 303.076923 324.433269 303.384615 323.418762 303.692308 322.411456 304.000000 321.411457 304.307692 320.418874 304.615385 319.433815 304.923077 318.456387 305.230769 317.486697 305.538462 316.524855 305.846154 315.570967 306.153846 314.625142 306.461538 313.687488 306.769231 312.758112 307.076923 311.837121 307.384615 310.924625 307.692308 310.020731 308.000000 309.125546 308.307692 308.239178 308.615385 307.361736 308.923077 306.493327 309.230769 305.634059 309.538462 304.784040 309.846154 303.943377 310.153846 303.112179 310.461538 302.290553 310.769231 301.478607 311.076923 300.676449 311.384615 299.884187 311.692308 299.101929 312.000000 298.329782 312.307692 297.567854 312.615385 296.816254 312.923077 296.075088 313.230769 295.344465 313.538462 294.624493 313.846154 293.915280 314.153846 293.216932 314.461538 292.529559 314.769231 291.853268 315.076923 291.188166 315.384615 290.534363 315.692308 289.891964 316.000000 289.261080 316.307692 288.641816 316.615385 288.034281 316.923077 287.438583 317.230769 286.854830 317.538462 286.283129 317.846154 285.723588 318.153846 285.176316 318.461538 284.641420 318.769231 284.119007 319.076923 283.609187 319.384615 283.112065 319.692308 282.627751 320.000000 282.156353 320.307692 281.697977 320.615385 281.252732 320.923077 280.820726 321.230769 280.402066 321.538462 279.996861 321.846154 279.605184 322.153846 279.226975 322.461538 278.862138 322.769231 278.510580 323.076923 278.172204 323.384615 277.846918 323.692308 277.534625 324.000000 277.235232 324.307692 276.948644 324.615385 276.674765 324.923077 276.413501 325.230769 276.164758 325.538462 275.928440 325.846154 275.704454 326.153846 275.492704 326.461538 275.293096 326.769231 275.105534 327.076923 274.929925 327.384615 274.766173 327.692308 274.614184 328.000000 274.473864 328.307692 274.345116 328.615385 274.227848 328.923077 274.121963 329.230769 274.027368 329.538462 273.943967 329.846154 273.871666 330.153846 273.810371 330.461538 273.759986 330.769231 273.720416 331.076923 273.691568 331.384615 273.673346 331.692308 273.665656 332.000000 273.668403 332.307692 273.681492 332.615385 273.704829 332.923077 273.738319 333.230769 273.781866 333.538462 273.835378 333.846154 273.898758 334.153846 273.971912 334.461538 274.054745 334.769231 274.147163 335.076923 274.249071 335.384615 274.360374 335.692308 274.480978 336.000000 274.610788 336.307692 274.749709 336.615385 274.897646 336.923077 275.054505 337.230769 275.220191 337.538462 275.394609 337.846154 275.577665 338.153846 275.769264 338.461538 275.969311 338.769231 276.177711 339.076923 276.394371 339.384615 276.619194 339.692308 276.852087 340.000000 277.092954 340.307692 277.341702 340.615385 277.598235 340.923077 277.862458 341.230769 278.134277 341.538462 278.413598 341.846154 278.700325 342.153846 278.994364 342.461538 279.295619 342.769231 279.603997 343.076923 279.919403 343.384615 280.241742 343.692308 280.570919 344.000000 280.906840 344.307692 281.249409 344.615385 281.598533 344.923077 281.954116 345.230769 282.316063 345.538462 282.684281 345.846154 283.058674 346.153846 283.439148 346.461538 283.825608 346.769231 284.217959 347.076923 284.616106 347.384615 285.019955 347.692308 285.429412 348.000000 285.844381 348.307692 286.264767 348.615385 286.690476 348.923077 287.121414 349.230769 287.557486 349.538462 287.998596 349.846154 288.444650 350.153846 288.895554 350.461538 289.351213 350.769231 289.811532 351.076923 290.276416 351.384615 290.745771 351.692308 291.219502 352.000000 291.697514 352.307692 292.179712 352.615385 292.666003 352.923077 293.156291 353.230769 293.650481 353.538462 294.148479 353.846154 294.650189 354.153846 295.155519 354.461538 295.664372 354.769231 296.176653 355.076923 296.692270 355.384615 297.211125 355.692308 297.733126 356.000000 298.258176 356.307692 298.786182 356.615385 299.317049 356.923077 299.850682 357.230769 300.386986 357.538462 300.925866 357.846154 301.467229 358.153846 302.010978 358.461538 302.557021 358.769231 303.105261 359.076923 303.655604 359.384615 304.207955 359.692308 304.762220 360.000000 305.318305 360.307692 305.876113 360.615385 306.435551 360.923077 306.996524 361.230769 307.558937 361.538462 308.122695 361.846154 308.687705 362.153846 309.253870 362.461538 309.821097 362.769231 310.389290 363.076923 310.958355 363.384615 311.528198 363.692308 312.098723 364.000000 312.669836 364.307692 313.241442 364.615385 313.813446 364.923077 314.385755 365.230769 314.958272 365.538462 315.530903 365.846154 316.103554 366.153846 316.676131 366.461538 317.248537 366.769231 317.820679 367.076923 318.392461 367.384615 318.963790 367.692308 319.534570 368.000000 320.104707 368.307692 320.674106 368.615385 321.242672 368.923077 321.810310 369.230769 322.376927 369.538462 322.942426 369.846154 323.506715 370.153846 324.069697 370.461538 324.631278 370.769231 325.191363 371.076923 325.749858 371.384615 326.306668 371.692308 326.861698 372.000000 327.414854 372.307692 327.966041 372.615385 328.515164 372.923077 329.062128 373.230769 329.606839 373.538462 330.149202 373.846154 330.689122 374.153846 331.226505 374.461538 331.761256 374.769231 332.293280 375.076923 332.822483 375.384615 333.348769 375.692308 333.872045 376.000000 334.392215 376.307692 334.909184 376.615385 335.422859 376.923077 335.933144 377.230769 336.439945 377.538462 336.943166 377.846154 337.442714 378.153846 337.938493 378.461538 338.430409 378.769231 338.918367 379.076923 339.402272 379.384615 339.882030 379.692308 340.357546 380.000000 340.828726 380.307692 341.295473 380.615385 341.757695 380.923077 342.215296 381.230769 342.668181 381.538462 343.116256 381.846154 343.559426 382.153846 343.997597 382.461538 344.430673 382.769231 344.858560 383.076923 345.281163 383.384615 345.698388 383.692308 346.110140 384.000000 346.516323 384.307692 346.916844 384.615385 347.311608 384.923077 347.700520 385.230769 348.083485 385.538462 348.460409 385.846154 348.831197 386.153846 349.195754 386.461538 349.553985 386.769231 349.905796 387.076923 350.251093 387.384615 350.589779 387.692308 350.921762 388.000000 351.246945 388.307692 351.565234 388.615385 351.876536 388.923077 352.180754 389.230769 352.477794 389.538462 352.767561 389.846154 353.049962 390.153846 353.324900 390.461538 353.592282 390.769231 353.852013 391.076923 354.103997 391.384615 354.348141 391.692308 354.584349 392.000000 354.812527 392.307692 355.032580 392.615385 355.244414 392.923077 355.447933 393.230769 355.643043 393.538462 355.829650 393.846154 356.007658 394.153846 356.176973 394.461538 356.337501 394.769231 356.489146 395.076923 356.631814 395.384615 356.765409 395.692308 356.889839 396.000000 357.005006 396.307692 357.110818 396.615385 357.207179 396.923077 357.293995 397.230769 357.371171 397.538462 357.438612 397.846154 357.496223 398.153846 357.543910 398.461538 357.581578 398.769231 357.609159 399.076923 357.626688 399.384615 357.634227 399.692308 357.631839 400.000000 357.619584 400.307692 357.597527 400.615385 357.565727 400.923077 357.524248 401.230769 357.473151 401.538462 357.412498 401.846154 357.342351 402.153846 357.262773 402.461538 357.173824 402.769231 357.075568 403.076923 356.968066 403.384615 356.851380 403.692308 356.725572 404.000000 356.590704 404.307692 356.446838 404.615385 356.294037 404.923077 356.132361 405.230769 355.961873 405.538462 355.782636 405.846154 355.594710 406.153846 355.398158 406.461538 355.193043 406.769231 354.979425 407.076923 354.757367 407.384615 354.526931 407.692308 354.288179 408.000000 354.041172 408.307692 353.785974 408.615385 353.522645 408.923077 353.251248 409.230769 352.971845 409.538462 352.684498 409.846154 352.389268 410.153846 352.086219 410.461538 351.775411 410.769231 351.456906 411.076923 351.130768 411.384615 350.797057 411.692308 350.455835 412.000000 350.107166 412.307692 349.751109 412.615385 349.387729 412.923077 349.017086 413.230769 348.639243 413.538462 348.254261 413.846154 347.862203 414.153846 347.463130 414.461538 347.057105 414.769231 346.644189 415.076923 346.224445 415.384615 345.797934 415.692308 345.364719 416.000000 344.924861 416.307692 344.478423 416.615385 344.025466 416.923077 343.566052 417.230769 343.100244 417.538462 342.628103 417.846154 342.149691 418.153846 341.665070 418.461538 341.174303 418.769231 340.677451 419.076923 340.174577 419.384615 339.665741 419.692308 339.151007 420.000000 338.630436 420.307692 338.104091 420.615385 337.572032 420.923077 337.034323 421.230769 336.491024 421.538462 335.942199 421.846154 335.387909 422.153846 334.828216 422.461538 334.263182 422.769231 333.692869 423.076923 333.117340 423.384615 332.536655 423.692308 331.950877 424.000000 331.360068 424.307692 330.764290 424.615385 330.163605 424.923077 329.558076 425.230769 328.947762 425.538462 328.332728 425.846154 327.713035 426.153846 327.088745 426.461538 326.459919 426.769231 325.826620 427.076923 325.188911 427.384615 324.546851 427.692308 323.900505 428.000000 323.249934 428.307692 322.595199 428.615385 321.936363 428.923077 321.273487 429.230769 320.606635 429.538462 319.935867 429.846154 319.261246 430.153846 318.582833 430.461538 317.900691 430.769231 317.214882 431.076923 316.525467 431.384615 315.832509 431.692308 315.136069 432.000000 314.436210 432.307692 313.732993 432.615385 313.026481 432.923077 312.316736 433.230769 311.603819 433.538462 310.887792 433.846154 310.168718 434.153846 309.446658 434.461538 308.721675 434.769231 307.993830 435.076923 307.263185 435.384615 306.529803 435.692308 305.793745 436.000000 305.055074 436.307692 304.313851 436.615385 303.570138 436.923077 302.823997 437.230769 302.075491 437.538462 301.324681 437.846154 300.571629 438.153846 299.816397 438.461538 299.059048 438.769231 298.299642 439.076923 297.538243 439.384615 296.774912 439.692308 296.009711 440.000000 295.242703 440.307692 294.473948 440.615385 293.703510 440.923077 292.931449 441.230769 292.157829 441.538462 291.382710 441.846154 290.606156 442.153846 289.828227 442.461538 289.048987 442.769231 288.268496 443.076923 287.486818 443.384615 286.704013 443.692308 285.920144 444.000000 285.135274 444.307692 284.349463 444.615385 283.562774 444.923077 282.775268 445.230769 281.987009 445.538462 281.198057 445.846154 280.408476 446.153846 279.618326 446.461538 278.827669 446.769231 278.036569 447.076923 277.245086 447.384615 276.453283 447.692308 275.661221 448.000000 274.868964 448.307692 274.076572 448.615385 273.284107 448.923077 272.491632 449.230769 271.699209 449.538462 270.906900 449.846154 270.114765 450.153846 269.322869 450.461538 268.531272 450.769231 267.740037 451.076923 266.949225 451.384615 266.158898 451.692308 265.369119 452.000000 264.579950 452.307692 263.791452 452.615385 263.003687 452.923077 262.216718 453.230769 261.430606 453.538462 260.645414 453.846154 259.861202 454.153846 259.078035 454.461538 258.295972 454.769231 257.515077 455.076923 256.735411 455.384615 255.957037 455.692308 255.180015 456.000000 254.404409 456.307692 253.630280 456.615385 252.857691 456.923077 252.086702 457.230769 251.317377 457.538462 250.549777 457.846154 249.783964 458.153846 249.020000 458.461538 248.257947 458.769231 247.497867 459.076923 246.739823 459.384615 245.983875 459.692308 245.230087 460.000000 244.478519 460.307692 243.729234 460.615385 242.982295 460.923077 242.237762 461.230769 241.495699 461.538462 240.756166 461.846154 240.019226 462.153846 239.284941 462.461538 238.553373 462.769231 237.824584 463.076923 237.098636 463.384615 236.375591 463.692308 235.655510 464.000000 234.938456 464.307692 234.224491 464.615385 233.513677 464.923077 232.806075 465.230769 232.101749 465.538462 231.400759 465.846154 230.703167 466.153846 230.009037 466.461538 229.318429 466.769231 228.631405 467.076923 227.948028 467.384615 227.268360 467.692308 226.592463 468.000000 225.920398 468.307692 225.252228 468.615385 224.588014 468.923077 223.927818 469.230769 223.271704 469.538462 222.619731 469.846154 221.971964 470.153846 221.328462 470.461538 220.689289 470.769231 220.054507 471.076923 219.424177 471.384615 218.798361 471.692308 218.177122 472.000000 217.560521 472.307692 216.948621 472.615385 216.341482 472.923077 215.739169 473.230769 215.141741 473.538462 214.549262 473.846154 213.961793 474.153846 213.379396 474.461538 212.802133 474.769231 212.230067 475.076923 211.663259 475.384615 211.101771 475.692308 210.545650 476.000000 209.994882 476.307692 209.449437 476.615385 208.909287 476.923077 208.374403 477.230769 207.844755 477.538462 207.320313 477.846154 206.801050 478.153846 206.286934 478.461538 205.777938 478.769231 205.274033 479.076923 204.775188 479.384615 204.281374 479.692308 203.792564 480.000000 203.308726 480.307692 202.829833 480.615385 202.355854 480.923077 201.886761 481.230769 201.422524 481.538462 200.963115 481.846154 200.508504 482.153846 200.058661 482.461538 199.613558 482.769231 199.173165 483.076923 198.737454 483.384615 198.306395 483.692308 197.879958 484.000000 197.458115 484.307692 197.040836 484.615385 196.628093 484.923077 196.219855 485.230769 195.816094 485.538462 195.416781 485.846154 195.021886 486.153846 194.631380 486.461538 194.245234 486.769231 193.863418 487.076923 193.485904 487.384615 193.112663 487.692308 192.743664 488.000000 192.378879 488.307692 192.018279 488.615385 191.661835 488.923077 191.309516 489.230769 190.961295 489.538462 190.617142 489.846154 190.277027 490.153846 189.940921 490.461538 189.608796 490.769231 189.280622 491.076923 188.956369 491.384615 188.636009 491.692308 188.319513 492.000000 188.006850 492.307692 187.697993 492.615385 187.392911 492.923077 187.091576 493.230769 186.793958 493.538462 186.500029 493.846154 186.209758 494.153846 185.923117 494.461538 185.640076 494.769231 185.360607 495.076923 185.084680 495.384615 184.812266 495.692308 184.543335 496.000000 184.277859 496.307692 184.015808 496.615385 183.757153 496.923077 183.501865 497.230769 183.249915 497.538462 183.001273 497.846154 182.755910 498.153846 182.513798 498.461538 182.274906 498.769231 182.039206 499.076923 181.806668 499.384615 181.577263 499.692308 181.350962 500.000000 181.127736 500.307692 180.907556 500.615385 180.690392 500.923077 180.476215 501.230769 180.264996 501.538462 180.056706 501.846154 179.851315 502.153846 179.648795 502.461538 179.449116 502.769231 179.252248 503.076923 179.058164 503.384615 178.866833 503.692308 178.678226 504.000000 178.492314 504.307692 178.309068 504.615385 178.128459 504.923077 177.950457 505.230769 177.775033 505.538462 177.602158 505.846154 177.431804 506.153846 177.263940 506.461538 177.098537 506.769231 176.935566 507.076923 176.774999 507.384615 176.616805 507.692308 176.460956 508.000000 176.307422 508.307692 176.156175 508.615385 176.007184 508.923077 175.860421 509.230769 175.715857 509.538462 175.573462 509.846154 175.433207 510.153846 175.295063 510.461538 175.159000 510.769231 175.024991 511.076923 174.893004 511.384615 174.763012 511.692308 174.634984 512.000000 174.508892 512.307692 174.384707 512.615385 174.262399 512.923077 174.141939 513.230769 174.023298 513.538462 173.906446 513.846154 173.791355 514.153846 173.677995 514.461538 173.566337 514.769231 173.456352 515.076923 173.348011 515.384615 173.241284 515.692308 173.136142 516.000000 173.032556 516.307692 172.930497 516.615385 172.829935 516.923077 172.730842 517.230769 172.633188 517.538462 172.536944 517.846154 172.442080 518.153846 172.348569 518.461538 172.256379 518.769231 172.165483 519.076923 172.075850 519.384615 171.987452 519.692308 171.900260 520.000000 171.814244 520.307692 171.729375 520.615385 171.645624 520.923077 171.562961 521.230769 171.481358 521.538462 171.400785 521.846154 171.321214 522.153846 171.242614 522.461538 171.164956 522.769231 171.088212 523.076923 171.012353 523.384615 170.937348 523.692308 170.863169 524.000000 170.789787 524.307692 170.717172 524.615385 170.645295 524.923077 170.574127 525.230769 170.503639 525.538462 170.433802 525.846154 170.364586 526.153846 170.295962 526.461538 170.227900 526.769231 170.160373 527.076923 170.093350 527.384615 170.026803 527.692308 169.960701 528.000000 169.895016 528.307692 169.829720 528.615385 169.764781 528.923077 169.700172 529.230769 169.635863 529.538462 169.571824 529.846154 169.508028 530.153846 169.444443 530.461538 169.381042 530.769231 169.317796 531.076923 169.254673 531.384615 169.191647 531.692308 169.128687 532.000000 169.065764 532.307692 169.002849 532.615385 168.939912 532.923077 168.876926 533.230769 168.813859 533.538462 168.750684 533.846154 168.687371 534.153846 168.623890 534.461538 168.560213 534.769231 168.496311 535.076923 168.432153 535.384615 168.367712 535.692308 168.302957 536.000000 168.237859 536.307692 168.172390 536.615385 168.106520 536.923077 168.040220 537.230769 167.973460 537.538462 167.906212 537.846154 167.838446 538.153846 167.770134 538.461538 167.701245 538.769231 167.631750 539.076923 167.561621 539.384615 167.490828 539.692308 167.419343 540.000000 167.347135 540.307692 167.274175 540.615385 167.200435 540.923077 167.125886 541.230769 167.050497 541.538462 166.974240 541.846154 166.897085 542.153846 166.819004 542.461538 166.739967 542.769231 166.659945 543.076923 166.578908 543.384615 166.496828 543.692308 166.413676 544.000000 166.329421 544.307692 166.244035 544.615385 166.157489 544.923077 166.069754 545.230769 165.980800 545.538462 165.890598 545.846154 165.799118 546.153846 165.706333 546.461538 165.612211 546.769231 165.516725 547.076923 165.419845 547.384615 165.321542 547.692308 165.221786 548.000000 165.120549 548.307692 165.017801 548.615385 164.913513 548.923077 164.807656 549.230769 164.700200 549.538462 164.591117 549.846154 164.480377 550.153846 164.367951 550.461538 164.253809 550.769231 164.137923 551.076923 164.020264 551.384615 163.900801 551.692308 163.779506 552.000000 163.656351 552.307692 163.531304 552.615385 163.404344 552.923077 163.275473 553.230769 163.144699 553.538462 163.012029 553.846154 162.877474 554.153846 162.741040 554.461538 162.602736 554.769231 162.462571 555.076923 162.320552 555.384615 162.176689 555.692308 162.030989 556.000000 161.883461 556.307692 161.734112 556.615385 161.582952 556.923077 161.429989 557.230769 161.275230 557.538462 161.118685 557.846154 160.960361 558.153846 160.800267 558.461538 160.638411 558.769231 160.474801 559.076923 160.309447 559.384615 160.142355 559.692308 159.973535 560.000000 159.802995 560.307692 159.630742 560.615385 159.456786 560.923077 159.281134 561.230769 159.103796 561.538462 158.924778 561.846154 158.744090 562.153846 158.561740 562.461538 158.377737 562.769231 158.192087 563.076923 158.004801 563.384615 157.815885 563.692308 157.625349 564.000000 157.433200 564.307692 157.239448 564.615385 157.044100 564.923077 156.847164 565.230769 156.648650 565.538462 156.448565 565.846154 156.246917 566.153846 156.043715 566.461538 155.838967 566.769231 155.632682 567.076923 155.424867 567.384615 155.215532 567.692308 155.004684 568.000000 154.792332 568.307692 154.578484 568.615385 154.363148 568.923077 154.146333 569.230769 153.928046 569.538462 153.708297 569.846154 153.487094 570.153846 153.264444 570.461538 153.040357 570.769231 152.814840 571.076923 152.587902 571.384615 152.359551 571.692308 152.129795 572.000000 151.898643 572.307692 151.666103 572.615385 151.432184 572.923077 151.196893 573.230769 150.960239 573.538462 150.722230 573.846154 150.482875 574.153846 150.242182 574.461538 150.000159 574.769231 149.756815 575.076923 149.512157 575.384615 149.266194 575.692308 149.018935 576.000000 148.770388 576.307692 148.520560 576.615385 148.269461 576.923077 148.017099 577.230769 147.763482 577.538462 147.508618 577.846154 147.252515 578.153846 146.995183 578.461538 146.736628 578.769231 146.476860 579.076923 146.215887 579.384615 145.953717 579.692308 145.690359 580.000000 145.425820 580.307692 145.160109 580.615385 144.893235 580.923077 144.625205 581.230769 144.356029 581.538462 144.085713 581.846154 143.814267 582.153846 143.541700 582.461538 143.268018 582.769231 142.993231 583.076923 142.717346 583.384615 142.440373 583.692308 142.162320 584.000000 141.883194 584.307692 141.603004 584.615385 141.321758 584.923077 141.039465 585.230769 140.756134 585.538462 140.471771 585.846154 140.186386 586.153846 139.899987 586.461538 139.612582 586.769231 139.324180 587.076923 139.034789 587.384615 138.744416 587.692308 138.453072 588.000000 138.160763 588.307692 137.867498 588.615385 137.573285 588.923077 137.278133 589.230769 136.982050 589.538462 136.685045 589.846154 136.387125 590.153846 136.088299 590.461538 135.788575 590.769231 135.487962 591.076923 135.186468 591.384615 134.884101 591.692308 134.580869 592.000000 134.276781 592.307692 133.971845 592.615385 133.666070 592.923077 133.359463 593.230769 133.052033 593.538462 132.743789 593.846154 132.434738 594.153846 132.124889 594.461538 131.814251 594.769231 131.502831 595.076923 131.190638 595.384615 130.877680 595.692308 130.563965 596.000000 130.249502 596.307692 129.934300 596.615385 129.618366 596.923077 129.301708 597.230769 128.984336 597.538462 128.666257 597.846154 128.347479 598.153846 128.028012 598.461538 127.707863 598.769231 127.387040 599.076923 127.065552 599.384615 126.743407 599.692308 126.420614 600.000000 126.097181 600.307692 125.773116 600.615385 125.448427 600.923077 125.123123 601.230769 124.797212 601.538462 124.470702 601.846154 124.143602 602.153846 123.815920 602.461538 123.487665 602.769231 123.158844 603.076923 122.829465 603.384615 122.499538 603.692308 122.169071 604.000000 121.838071 604.307692 121.506547 604.615385 121.174508 604.923077 120.841962 605.230769 120.508916 605.538462 120.175380 605.846154 119.841362 606.153846 119.506869 606.461538 119.171911 606.769231 118.836496 607.076923 118.500631 607.384615 118.164326 607.692308 117.827588 608.000000 117.490426 608.307692 117.152848 608.615385 116.814862 608.923077 116.476478 609.230769 116.137702 609.538462 115.798544 609.846154 115.459011 610.153846 115.119112 610.461538 114.778856 610.769231 114.438250 611.076923 114.097303 611.384615 113.756024 611.692308 113.414420 612.000000 113.072499 612.307692 112.730271 612.615385 112.387744 612.923077 112.044925 613.230769 111.701823 613.538462 111.358447 613.846154 111.014804 614.153846 110.670903 614.461538 110.326753 614.769231 109.982361 615.076923 109.637736 615.384615 109.292886 615.692308 108.947820 616.000000 108.602546 616.307692 108.257072 616.615385 107.911406 616.923077 107.565558 617.230769 107.219534 617.538462 106.873343 617.846154 106.526995 618.153846 106.180496 618.461538 105.833856 618.769231 105.487082 619.076923 105.140183 619.384615 104.793168 619.692308 104.446044 620.000000 104.098820 620.307692 103.751504 620.615385 103.404104 620.923077 103.056630 621.230769 102.709088 621.538462 102.361488 621.846154 102.013837 622.153846 101.666145 622.461538 101.318419 622.769231 100.970667 623.076923 100.622899 623.384615 100.275121 623.692308 99.927344 624.000000 99.579574 624.307692 99.231820 624.615385 98.884091 624.923077 98.536395 625.230769 98.188739 625.538462 97.841134 625.846154 97.493585 626.153846 97.146103 626.461538 96.798696 626.769231 96.451371 627.076923 96.104136 627.384615 95.757002 627.692308 95.409974 628.000000 95.063063 628.307692 94.716276 628.615385 94.369621 628.923077 94.023107 629.230769 93.676742 629.538462 93.330533 629.846154 92.984481 630.153846 92.638585 630.461538 92.292845 630.769231 91.947260 631.076923 91.601829 631.384615 91.256551 631.692308 90.911427 632.000000 90.566454 632.307692 90.221634 632.615385 89.876965 632.923077 89.532446 633.230769 89.188077 633.538462 88.843858 633.846154 88.499787 634.153846 88.155864 634.461538 87.812088 634.769231 87.468459 635.076923 87.124976 635.384615 86.781639 635.692308 86.438446 636.000000 86.095398 636.307692 85.752493 636.615385 85.409732 636.923077 85.067112 637.230769 84.724634 637.538462 84.382297 637.846154 84.040101 638.153846 83.698045 638.461538 83.356127 638.769231 83.014348 639.076923 82.672707 639.384615 82.331204 639.692308 81.989837 640.000000 81.648606 640.307692 81.307510 640.615385 80.966549 640.923077 80.625723 641.230769 80.285029 641.538462 79.944469 641.846154 79.604041 642.153846 79.263744 642.461538 78.923579 642.769231 78.583544 643.076923 78.243638 643.384615 77.903862 643.692308 77.564214 644.000000 77.224694 644.307692 76.885301 644.615385 76.546035 644.923077 76.206894 645.230769 75.867879 645.538462 75.528989 645.846154 75.190223 646.153846 74.851580 646.461538 74.513060 646.769231 74.174662 647.076923 73.836385 647.384615 73.498230 647.692308 73.160195 648.000000 72.822279 648.307692 72.484483 648.615385 72.146804 648.923077 71.809244 649.230769 71.471801 649.538462 71.134474 649.846154 70.797263 650.153846 70.460167 650.461538 70.123186 650.769231 69.786319 651.076923 69.449565 651.384615 69.112924 651.692308 68.776395 652.000000 68.439978 652.307692 68.103671 652.615385 67.767475 652.923077 67.431388 653.230769 67.095410 653.538462 66.759540 653.846154 66.423778 654.153846 66.088123 654.461538 65.752575 654.769231 65.417132 655.076923 65.081795 655.384615 64.746562 655.692308 64.411432 656.000000 64.076407 656.307692 63.741483 656.615385 63.406662 656.923077 63.071942 657.230769 62.737323 657.538462 62.402804 657.846154 62.068385 658.153846 61.734064 658.461538 61.399842 658.769231 61.065717 659.076923 60.731690 659.384615 60.397758 659.692308 60.063923 660.000000 59.730182 660.307692 59.396536 660.615385 59.062984 660.923077 58.729524 661.230769 58.396158 661.538462 58.062883 661.846154 57.729700 662.153846 57.396607 662.461538 57.063605 662.769231 56.730692 663.076923 56.397867 663.384615 56.065131 663.692308 55.732482 664.000000 55.399921 664.307692 55.067445 664.615385 54.735055 664.923077 54.402750 665.230769 54.070530 665.538462 53.738393 665.846154 53.406339 666.153846 53.074368 666.461538 52.742479 666.769231 52.410671 667.076923 52.078944 667.384615 51.747296 667.692308 51.415728 668.000000 51.084239 668.307692 50.752827 668.615385 50.421494 668.923077 50.090237 669.230769 49.759056 669.538462 49.427950 669.846154 49.096920 670.153846 48.765964 670.461538 48.435082 670.769231 48.104272 671.076923 47.773536 671.384615 47.442870 671.692308 47.112277 672.000000 46.781753 672.307692 46.451300 672.615385 46.120915 672.923077 45.790600 673.230769 45.460352 673.538462 45.130172 673.846154 44.800058 674.153846 44.470011 674.461538 44.140029 674.769231 43.810112 675.076923 43.480259 675.384615 43.150470 675.692308 42.820744 676.000000 42.491080 676.307692 42.161478 676.615385 41.831937 676.923077 41.502456 677.230769 41.173036 677.538462 40.843674 677.846154 40.514371 678.153846 40.185126 678.461538 39.855938 678.769231 39.526807 679.076923 39.197732 679.384615 38.868712 679.692308 38.539747 680.000000 38.210837 680.307692 37.881979 680.615385 37.553175 680.923077 37.224423 681.230769 36.895723 681.538462 36.567073 681.846154 36.238474 682.153846 35.909925 682.461538 35.581425 682.769231 35.252973 683.076923 34.924569 683.384615 34.596213 683.692308 34.267903 684.000000 33.939639 684.307692 33.611420 684.615385 33.283246 684.923077 32.955116 685.230769 32.627030 685.538462 32.298986 685.846154 31.970985 686.153846 31.643025 686.461538 31.315106 686.769231 30.987227 687.076923 30.659388 687.384615 30.331588 687.692308 30.003827 688.000000 29.676103 688.307692 29.348417 688.615385 29.020767 688.923077 28.693152 689.230769 28.365574 689.538462 28.038029 689.846154 27.710519 690.153846 27.383042 690.461538 27.055598 690.769231 26.728186 691.076923 26.400805 691.384615 26.073456 691.692308 25.746136 692.000000 25.418846 692.307692 25.091586 692.615385 24.764353 692.923077 24.437148 693.230769 24.109970 693.538462 23.782819 693.846154 23.455694 694.153846 23.128593 694.461538 22.801518 694.769231 22.474466 695.076923 22.147437 695.384615 21.820431 695.692308 21.493448 696.000000 21.166485 696.307692 20.839544 696.615385 20.512622 696.923077 20.185720 697.230769 19.858837 697.538462 19.531972 697.846154 19.205125 698.153846 18.878295 698.461538 18.551481 698.769231 18.224683 699.076923 17.897900 699.384615 17.571132 699.692308 17.244377 700.000000 16.917636 700.307692 16.590907 700.615385 16.264190 700.923077 15.937485 701.230769 15.610790 701.538462 15.284105 701.846154 14.957430 702.153846 14.630763 702.461538 14.304105 702.769231 13.977454 703.076923 13.650811 703.384615 13.324173 703.692308 12.997541 704.000000 12.670915 704.307692 12.344292 704.615385 12.017674 704.923077 11.691058 705.230769 11.364445 705.538462 11.037834 705.846154 10.711225 706.153846 10.384615 706.153846 540.000000" /></g></g><g class="titles" /><g class="plot overlay" transform="translate(60, 20)"><g class="series serie-0 color-0"><g class="dots"><circle class="dot reactive tooltip-trigger" cx="13.846153846153847" cy="477.6045557982035" r="2.5" /><desc class="value">7,215,960,809(kWh)</desc><desc class="x top">13.846153846153847</desc><desc class="y top">477.6045557982035</desc><desc class="x_label">2549</desc></g><g class="dots"><circle class="dot reactive tooltip-trigger" cx="90.76923076923076" cy="398.24249891348427" r="2.5" /><desc class="value">7,605,662,546(kWh)</desc><desc class="x top">90.76923076923076</desc><desc class="y top">398.24249891348427</desc><desc class="x_label">2550</desc></g><g class="dots"><circle class="dot reactive tooltip-trigger" cx="167.69230769230765" cy="407.702840978975" r="2.5" /><desc class="value">7,559,208,209(kWh)</desc><desc class="x top">167.69230769230765</desc><desc class="y top">407.702840978975</desc><desc class="x_label">2551</desc></g><g class="dots"><circle class="dot reactive tooltip-trigger" cx="244.6153846153846" cy="522.6049956561851" r="2.5" /><desc class="value">6,994,989,349(kWh)</desc><desc class="x top">244.6153846153846</desc><desc class="y top">522.6049956561851</desc><desc class="x_label">2552</desc></g><g class="dots"><circle class="dot reactive tooltip-trigger" cx="321.5384615384615" cy="279.99686093503425" r="2.5" /><desc class="value">8,186,299,343(kWh)</desc><desc class="x top">321.5384615384615</desc><desc class="y top">279.99686093503425</desc><desc class="x_label">2553</desc></g><g class="dots"><circle class="dot reactive tooltip-trigger" cx="398.46153846153845" cy="357.58157816303697" r="2.5" /><desc class="value">7,805,325,106(kWh)</desc><desc class="x left top">398.46153846153845</desc><desc class="y left top">357.58157816303697</desc><desc class="x_label">2554</desc></g><g class="dots"><circle class="dot reactive tooltip-trigger" cx="475.38461538461536" cy="211.1017706102067" r="2.5" /><desc class="value">8,524,603,785(kWh)</desc><desc class="x left">475.38461538461536</desc><desc class="y left">211.1017706102067</desc><desc class="x_label">2555</desc></g><g class="dots"><circle class="dot reactive tooltip-trigger" cx="552.3076923076923" cy="163.53130412535546" r="2.5" /><desc class="value">8,758,195,178(kWh)</desc><desc class="x left">552.3076923076923</desc><desc class="y left">163.53130412535546</desc><desc class="x_label">2556</desc></g><g class="dots"><circle class="dot reactive tooltip-trigger" cx="629.2307692307692" cy="93.67674221377024" r="2.5" /><desc class="value">9,101,211,037(kWh)</desc><desc class="x left">629.2307692307692</desc><desc class="y left">93.67674221377024</desc><desc class="x_label">2557</desc></g><g class="dots"><circle class="dot reactive tooltip-trigger" cx="706.1538461538461" cy="10.384615384615472" r="2.5" /><desc class="value">9,510,211,103(kWh)</desc><desc class="x left">706.1538461538461</desc><desc class="y left">10.384615384615472</desc><desc class="x_label">2558</desc></g></g></g><g class="plot text-overlay" transform="translate(60, 20)"><g class="series serie-0 color-0" /></g><g class="plot tooltip-overlay" transform="translate(60, 20)"><g class="tooltip" style="opacity: 0" transform="translate(0 0)"><rect class="tooltip-box" height="0" rx="0" ry="0" width="0" /><g class="text" /></g></g></g></svg>