<?xml version='1.0' encoding='utf-8'?>
<svg xmlns:xlink="http://www.w3.org/1999/xlink" class="pygal-chart" id="chart-d0f8adad-9572-472c-8553-7dd2bf41a78d" viewBox="0 0 800 600" xmlns="http://www.w3.org/2000/svg"><!--Generated with pygal 2.3.0 (etree) ©Kozea 2012-2016 on 2016-12-08--><!--http://pygal.org--><!--http://github.com/Kozea/pygal--><defs><style type="text/css">#chart-d0f8adad-9572-472c-8553-7dd2bf41a78d{-webkit-user-select:none;-webkit-font-smoothing:antialiased;font-family:Consolas,"Liberation Mono",Menlo,Courier,monospace}#chart-d0f8adad-9572-472c-8553-7dd2bf41a78d .title{font-family:Consolas,"Liberation Mono",Menlo,Courier,monospace;font-size:16px}#chart-d0f8adad-9572-472c-8553-7dd2bf41a78d .legends .legend text{font-family:Consolas,"Liberation Mono",Menlo,Courier,monospace;font-size:14px}#chart-d0f8adad-9572-472c-8553-7dd2bf41a78d .axis text{font-family:Consolas,"Liberation Mono",Menlo,Courier,monospace;font-size:10px}#chart-d0f8adad-9572-472c-8553-7dd2bf41a78d .axis text.major{font-family:Consolas,"Liberation Mono",Menlo,Courier,monospace;font-size:10px}#chart-d0f8adad-9572-472c-8553-7dd2bf41a78d .text-overlay text.value{font-family:Consolas,"Liberation Mono",Menlo,Courier,monospace;font-size:16px}#chart-d0f8adad-9572-472c-8553-7dd2bf41a78d .text-overlay text.label{font-family:Consolas,"Liberation Mono",Menlo,Courier,monospace;font-size:10px}#chart-d0f8adad-9572-472c-8553-7dd2bf41a78d .tooltip{font-family:Consolas,"Liberation Mono",Menlo,Courier,monospace;font-size:14px}#chart-d0f8adad-9572-472c-8553-7dd2bf41a78d text.no_data{font-family:Consolas,"Liberation Mono",Menlo,Courier,monospace;font-size:64px}
#chart-d0f8adad-9572-472c-8553-7dd2bf41a78d{background-color:rgba(249,249,249,1)}#chart-d0f8adad-9572-472c-8553-7dd2bf41a78d path,#chart-d0f8adad-9572-472c-8553-7dd2bf41a78d line,#chart-d0f8adad-9572-472c-8553-7dd2bf41a78d rect,#chart-d0f8adad-9572-472c-8553-7dd2bf41a78d circle{-webkit-transition:150ms;-moz-transition:150ms;transition:150ms}#chart-d0f8adad-9572-472c-8553-7dd2bf41a78d .graph &gt; .background{fill:rgba(249,249,249,1)}#chart-d0f8adad-9572-472c-8553-7dd2bf41a78d .plot &gt; .background{fill:rgba(255,255,255,1)}#chart-d0f8adad-9572-472c-8553-7dd2bf41a78d .graph{fill:rgba(0,0,0,.87)}#chart-d0f8adad-9572-472c-8553-7dd2bf41a78d text.no_data{fill:rgba(0,0,0,1)}#chart-d0f8adad-9572-472c-8553-7dd2bf41a78d .title{fill:rgba(0,0,0,1)}#chart-d0f8adad-9572-472c-8553-7dd2bf41a78d .legends .legend text{fill:rgba(0,0,0,.87)}#chart-d0f8adad-9572-472c-8553-7dd2bf41a78d .legends .legend:hover text{fill:rgba(0,0,0,1)}#chart-d0f8adad-9572-472c-8553-7dd2bf41a78d .axis .line{stroke:rgba(0,0,0,1)}#chart-d0f8adad-9572-472c-8553-7dd2bf41a78d .axis .guide.line{stroke:rgba(0,0,0,.54)}#chart-d0f8adad-9572-472c-8553-7dd2bf41a78d .axis .major.line{stroke:rgba(0,0,0,.87)}#chart-d0f8adad-9572-472c-8553-7dd2bf41a78d .axis text.major{fill:rgba(0,0,0,1)}#chart-d0f8adad-9572-472c-8553-7dd2bf41a78d .axis.y .guides:hover .guide.line,#chart-d0f8adad-9572-472c-8553-7dd2bf41a78d .line-graph .axis.x .guides:hover .guide.line,#chart-d0f8adad-9572-472c-8553-7dd2bf41a78d .stackedline-graph .axis.x .guides:hover .guide.line,#chart-d0f8adad-9572-472c-8553-7dd2bf41a78d .xy-graph .axis.x .guides:hover .guide.line{stroke:rgba(0,0,0,1)}#chart-d0f8adad-9572-472c-8553-7dd2bf41a78d .axis .guides:hover text{fill:rgba(0,0,0,1)}#chart-d0f8adad-9572-472c-8553-7dd2bf41a78d .reactive{fill-opacity:.7;stroke-opacity:.8}#chart-d0f8adad-9572-472c-8553-7dd2bf41a78d .ci{stroke:rgba(0,0,0,.87)}#chart-d0f8adad-9572-472c-8553-7dd2bf41a78d .reactive.active,#chart-d0f8adad-9572-472c-8553-7dd2bf41a78d .active .reactive{fill-opacity:.8;stroke-opacity:.9;stroke-width:4}#chart-d0f8adad-9572-472c-8553-7dd2bf41a78d .ci .reactive.active{stroke-width:1.5}#chart-d0f8adad-9572-472c-8553-7dd2bf41a78d .series text{fill:rgba(0,0,0,1)}#chart-d0f8adad-9572-472c-8553-7dd2bf41a78d .tooltip rect{fill:rgba(255,255,255,1);stroke:rgba(0,0,0,1);-webkit-transition:opacity 150ms;-moz-transition:opacity 150ms;transition:opacity 150ms}#chart-d0f8adad-9572-472c-8553-7dd2bf41a78d .tooltip .label{fill:rgba(0,0,0,.87)}#chart-d0f8adad-9572-472c-8553-7dd2bf41a78d .tooltip .label{fill:rgba(0,0,0,.87)}#chart-d0f8adad-9572-472c-8553-7dd2bf41a78d .tooltip .legend{font-size:.8em;fill:rgba(0,0,0,.54)}#chart-d0f8adad-9572-472c-8553-7dd2bf41a78d .tooltip .x_label{font-size:.6em;fill:rgba(0,0,0,1)}#chart-d0f8adad-9572-472c-8553-7dd2bf41a78d .tooltip .xlink{font-size:.5em;text-decoration:underline}#chart-d0f8adad-9572-472c-8553-7dd2bf41a78d .tooltip .value{font-size:1.5em}#chart-d0f8adad-9572-472c-8553-7dd2bf41a78d .bound{font-size:.5em}#chart-d0f8adad-9572-472c-8553-7dd2bf41a78d .max-value{font-size:.75em;fill:rgba(0,0,0,.54)}#chart-d0f8adad-9572-472c-8553-7dd2bf41a78d .map-element{fill:rgba(255,255,255,1);stroke:rgba(0,0,0,.54) !important}#chart-d0f8adad-9572-472c-8553-7dd2bf41a78d .map-element .reactive{fill-opacity:inherit;stroke-opacity:inherit}#chart-d0f8adad-9572-472c-8553-7dd2bf41a78d .color-0,#chart-d0f8adad-9572-472c-8553-7dd2bf41a78d .color-0 a:visited{stroke:#e86fa0;fill:#e86fa0}#chart-d0f8adad-9572-472c-8553-7dd2bf41a78d .text-overlay .color-0 text{fill:black}
#chart-d0f8adad-9572-472c-8553-7dd2bf41a78d text.no_data{text-anchor:middle}#chart-d0f8adad-9572-472c-8553-7dd2bf41a78d .guide.line{fill:none}#chart-d0f8adad-9572-472c-8553-7dd2bf41a78d .centered{text-anchor:middle}#chart-d0f8adad-9572-472c-8553-7dd2bf41a78d .title{text-anchor:middle}#chart-d0f8adad-9572-472c-8553-7dd2bf41a78d .legends .legend text{fill-opacity:1}#chart-d0f8adad-9572-472c-8553-7dd2bf41a78d .axis.x text{text-anchor:middle}#chart-d0f8adad-9572-472c-8553-7dd2bf41a78d .axis.x:not(.web) text[transform]{text-anchor:start}#chart-d0f8adad-9572-472c-8553-7dd2bf41a78d .axis.x:not(.web) text[transform].backwards{text-anchor:end}#chart-d0f8adad-9572-472c-8553-7dd2bf41a78d .axis.y text{text-anchor:end}#chart-d0f8adad-9572-472c-8553-7dd2bf41a78d .axis.y text[transform].backwards{text-anchor:start}#chart-d0f8adad-9572-472c-8553-7dd2bf41a78d .axis.y2 text{text-anchor:start}#chart-d0f8adad-9572-472c-8553-7dd2bf41a78d .axis.y2 text[transform].backwards{text-anchor:end}#chart-d0f8adad-9572-472c-8553-7dd2bf41a78d .axis .guide.line{stroke-dasharray:4,4}#chart-d0f8adad-9572-472c-8553-7dd2bf41a78d .axis .major.guide.line{stroke-dasharray:6,6}#chart-d0f8adad-9572-472c-8553-7dd2bf41a78d .horizontal .axis.y .guide.line,#chart-d0f8adad-9572-472c-8553-7dd2bf41a78d .horizontal .axis.y2 .guide.line,#chart-d0f8adad-9572-472c-8553-7dd2bf41a78d .vertical .axis.x .guide.line{opacity:0}#chart-d0f8adad-9572-472c-8553-7dd2bf41a78d .horizontal .axis.always_show .guide.line,#chart-d0f8adad-9572-472c-8553-7dd2bf41a78d .vertical .axis.always_show .guide.line{opacity:1 !important}#chart-d0f8adad-9572-472c-8553-7dd2bf41a78d .axis.y .guides:hover .guide.line,#chart-d0f8adad-9572-472c-8553-7dd2bf41a78d .axis.y2 .guides:hover .guide.line,#chart-d0f8adad-9572-472c-8553-7dd2bf41a78d .axis.x .guides:hover .guide.line{opacity:1}#chart-d0f8adad-9572-472c-8553-7dd2bf41a78d .axis .guides:hover text{opacity:1}#chart-d0f8adad-9572-472c-8553-7dd2bf41a78d .nofill{fill:none}#chart-d0f8adad-9572-472c-8553-7dd2bf41a78d .subtle-fill{fill-opacity:.2}#chart-d0f8adad-9572-472c-8553-7dd2bf41a78d .dot{stroke-width:1px;fill-opacity:1}#chart-d0f8adad-9572-472c-8553-7dd2bf41a78d .dot.active{stroke-width:5px}#chart-d0f8adad-9572-472c-8553-7dd2bf41a78d .dot.negative{fill:transparent}#chart-d0f8adad-9572-472c-8553-7dd2bf41a78d text,#chart-d0f8adad-9572-472c-8553-7dd2bf41a78d tspan{stroke:none !important}#chart-d0f8adad-9572-472c-8553-7dd2bf41a78d .series text.active{opacity:1}#chart-d0f8adad-9572-472c-8553-7dd2bf41a78d .tooltip rect{fill-opacity:.95;stroke-width:.5}#chart-d0f8adad-9572-472c-8553-7dd2bf41a78d .tooltip text{fill-opacity:1}#chart-d0f8adad-9572-472c-8553-7dd2bf41a78d .showable{visibility:hidden}#chart-d0f8adad-9572-472c-8553-7dd2bf41a78d .showable.shown{visibility:visible}#chart-d0f8adad-9572-472c-8553-7dd2bf41a78d .gauge-background{fill:rgba(229,229,229,1);stroke:none}#chart-d0f8adad-9572-472c-8553-7dd2bf41a78d .bg-lines{stroke:rgba(249,249,249,1);stroke-width:2px}</style><script type="text/javascript">window.pygal = window.pygal || {};window.pygal.config = window.pygal.config || {};window.pygal.config['d0f8adad-9572-472c-8553-7dd2bf41a78d'] = {"no_data_text": "No data", "no_prefix": false, "xrange": null, "print_values_position": "center", "truncate_label": null, "x_labels": ["2549", "2550", "2551", "2552", "2553", "2554", "2555", "2556", "2557", "2558"], "title": null, "force_uri_protocol": "https", "defs": [], "formatter": null, "classes": ["pygal-chart"], "y_labels": null, "rounded_bars": null, "explicit_size": false, "x_labels_major_every": null, "legend_at_bottom_columns": null, "stroke_style": null, "half_pie": false, "spacing": 10, "tooltip_fancy_mode": true, "inverse_y_axis": false, "width": 800, "inner_radius": 0, "interpolation_parameters": {}, "tooltip_border_radius": 0, "style": {"no_data_font_family": "Consolas, \"Liberation Mono\", Menlo, Courier, monospace", "tooltip_font_size": 14, "tooltip_font_family": "Consolas, \"Liberation Mono\", Menlo, Courier, monospace", "stroke_opacity_hover": ".9", "legend_font_family": "Consolas, \"Liberation Mono\", Menlo, Courier, monospace", "font_family": "Consolas, \"Liberation Mono\", Menlo, Courier, monospace", "title_font_family": "Consolas, \"Liberation Mono\", Menlo, Courier, monospace", "background": "rgba(249, 249, 249, 1)", "stroke_opacity": ".8", "foreground": "rgba(0, 0, 0, .87)", "value_background": "rgba(229, 229, 229, 1)", "guide_stroke_dasharray": "4,4", "foreground_subtle": "rgba(0, 0, 0, .54)", "opacity_hover": ".8", "value_font_family": "Consolas, \"Liberation Mono\", Menlo, Courier, monospace", "value_label_font_size": 10, "plot_background": "rgba(255, 255, 255, 1)", "ci_colors": [], "label_font_size": 10, "major_label_font_size": 10, "title_font_size": 16, "no_data_font_size": 64, "value_font_size": 16, "value_colors": [], "label_font_family": "Consolas, \"Liberation Mono\", Menlo, Courier, monospace", "major_guide_stroke_dasharray": "6,6", "transition": "150ms", "foreground_strong": "rgba(0, 0, 0, 1)", "colors": ["#e86fa0", "#e88f6f", "#e8df6f", "#a0e86f", "#6fe88f", "#6fe8df", "#6fa0e8", "#8f6fe8", "#df6fe8", "#e86fa0"], "opacity": ".7", "legend_font_size": 14, "value_label_font_family": "Consolas, \"Liberation Mono\", Menlo, Courier, monospace", "major_label_font_family": "Consolas, \"Liberation Mono\", Menlo, Courier, monospace"}, "x_labels_major_count": null, "interpolation_precision": 250, "missing_value_fill_truncation": "x", "stack_from_top": false, "truncate_legend": null, "show_minor_x_labels": true, "print_zeroes": true, "css": ["file://style.css", "file://graph.css"], "y_label_rotation": 0, "legend_at_bottom": false, "print_values": false, "margin_top": null, "max_scale": 16, "allow_interruptions": false, "show_x_labels": true, "strict": false, "show_x_guides": false, "stroke": true, "margin_left": null, "dynamic_print_values": false, "print_labels": false, "show_y_labels": true, "x_labels_major": null, "range": null, "x_label_rotation": 0, "margin": 20, "zero": 0, "include_x_axis": false, "height": 600, "show_minor_y_labels": true, "show_dots": true, "interpolate": "cubic", "show_y_guides": true, "y_labels_major": null, "box_mode": "extremes", "margin_bottom": null, "order_min": null, "legend_box_size": 12, "fill": true, "show_only_major_dots": false, "js": ["//kozea.github.io/pygal.js/2.0.x/pygal-tooltips.min.js"], "x_title": null, "y_labels_major_every": null, "y_labels_major_count": null, "disable_xml_declaration": false, "y_title": null, "logarithmic": false, "pretty_print": false, "min_scale": 4, "dots_size": 2.5, "margin_right": null, "legends": [null], "secondary_range": null, "show_legend": false}</script><script type="text/javascript" xlink:href="https://kozea.github.io/pygal.js/2.0.x/pygal-tooltips.min.js" /></defs><title>Pygal</title><g class="graph stackedline-graph vertical"><rect class="background" height="600" width="800" x="0" y="0" /><g class="plot" transform="translate(60, 20)"><rect class="background" height="540" width="720.0" x="0" y="0" /><g class="axis y"><path class="line" d="M0.000000 540.000000 h720.000000" /><g class="guides"><path class="guide line" d="M0.000000 527.646694 h720.000000" /><text class="" x="-5" y="531.1466943956677">920M</text><title>920M</title></g><g class="guides"><path class="guide line" d="M0.000000 491.620745 h720.000000" /><text class="" x="-5" y="495.1207454142259">940M</text><title>940M</title></g><g class="guides"><path class="guide line" d="M0.000000 455.594796 h720.000000" /><text class="" x="-5" y="459.09479643278416">960M</text><title>960M</title></g><g class="guides"><path class="guide line" d="M0.000000 419.568847 h720.000000" /><text class="" x="-5" y="423.0688474513424">980M</text><title>980M</title></g><g class="guides"><path class="major guide line" d="M0.000000 383.542898 h720.000000" /><text class="major" x="-5" y="387.0428984699006">1000M</text><title>1000M</title></g><g class="guides"><path class="guide line" d="M0.000000 347.516949 h720.000000" /><text class="" x="-5" y="351.01694948845886">1020M</text><title>1020M</title></g><g class="guides"><path class="guide line" d="M0.000000 311.491001 h720.000000" /><text class="" x="-5" y="314.9910005070171">1040M</text><title>1040M</title></g><g class="guides"><path class="guide line" d="M0.000000 275.465052 h720.000000" /><text class="" x="-5" y="278.96505152557535">1060M</text><title>1060M</title></g><g class="guides"><path class="guide line" d="M0.000000 239.439103 h720.000000" /><text class="" x="-5" y="242.93910254413356">1080M</text><title>1080M</title></g><g class="guides"><path class="major guide line" d="M0.000000 203.413154 h720.000000" /><text class="major" x="-5" y="206.91315356269178">1100M</text><title>1100M</title></g><g class="guides"><path class="guide line" d="M0.000000 167.387205 h720.000000" /><text class="" x="-5" y="170.88720458125005">1120M</text><title>1120M</title></g><g class="guides"><path class="guide line" d="M0.000000 131.361256 h720.000000" /><text class="" x="-5" y="134.86125559980826">1140M</text><title>1140M</title></g><g class="guides"><path class="guide line" d="M0.000000 95.335307 h720.000000" /><text class="" x="-5" y="98.83530661836647">1160M</text><title>1160M</title></g><g class="guides"><path class="guide line" d="M0.000000 59.309358 h720.000000" /><text class="" x="-5" y="62.809357636924744">1180M</text><title>1180M</title></g><g class="guides"><path class="major guide line" d="M0.000000 23.283409 h720.000000" /><text class="major" x="-5" y="26.78340865548296">1200M</text><title>1200M</title></g></g><g class="axis x"><g class="guides"><path class="line" d="M13.846154 0.000000 v540.000000" /><text class="" x="13.846153846153847" y="555.0">2549</text></g><g class="guides"><path class="guide line" d="M90.769231 0.000000 v540.000000" /><text class="" x="90.76923076923076" y="555.0">2550</text></g><g class="guides"><path class="guide line" d="M167.692308 0.000000 v540.000000" /><text class="" x="167.69230769230765" y="555.0">2551</text></g><g class="guides"><path class="guide line" d="M244.615385 0.000000 v540.000000" /><text class="" x="244.6153846153846" y="555.0">2552</text></g><g class="guides"><path class="guide line" d="M321.538462 0.000000 v540.000000" /><text class="" x="321.5384615384615" y="555.0">2553</text></g><g class="guides"><path class="guide line" d="M398.461538 0.000000 v540.000000" /><text class="" x="398.46153846153845" y="555.0">2554</text></g><g class="guides"><path class="guide line" d="M475.384615 0.000000 v540.000000" /><text class="" x="475.38461538461536" y="555.0">2555</text></g><g class="guides"><path class="guide line" d="M552.307692 0.000000 v540.000000" /><text class="" x="552.3076923076923" y="555.0">2556</text></g><g class="guides"><path class="guide line" d="M629.230769 0.000000 v540.000000" /><text class="" x="629.2307692307692" y="555.0">2557</text></g><g class="guides"><path class="guide line" d="M706.153846 0.000000 v540.000000" /><text class="" x="706.1538461538461" y="555.0">2558</text></g></g><g class="series serie-0 color-0"><path class="line reactive" d="M13.846154 540.000000 L13.846154 529.615385 14.153846 529.152183 14.461538 528.688974 14.769231 528.225754 15.076923 527.762514 15.384615 527.299250 15.692308 526.835954 16.000000 526.372620 16.307692 525.909243 16.615385 525.445816 16.923077 524.982333 17.230769 524.518787 17.538462 524.055172 17.846154 523.591483 18.153846 523.127712 18.461538 522.663853 18.769231 522.199901 19.076923 521.735848 19.384615 521.271690 19.692308 520.807418 20.000000 520.343028 20.307692 519.878513 20.615385 519.413867 20.923077 518.949083 21.230769 518.484155 21.538462 518.019077 21.846154 517.553843 22.153846 517.088446 22.461538 516.622881 22.769231 516.157140 23.076923 515.691218 23.384615 515.225109 23.692308 514.758806 24.000000 514.292302 24.307692 513.825592 24.615385 513.358670 24.923077 512.891529 25.230769 512.424162 25.538462 511.956565 25.846154 511.488729 26.153846 511.020650 26.461538 510.552321 26.769231 510.083735 27.076923 509.614887 27.384615 509.145770 27.692308 508.676378 28.000000 508.206704 28.307692 507.736743 28.615385 507.266488 28.923077 506.795933 29.230769 506.325071 29.538462 505.853897 29.846154 505.382404 30.153846 504.910586 30.461538 504.438436 30.769231 503.965949 31.076923 503.493118 31.384615 503.019936 31.692308 502.546399 32.000000 502.072498 32.307692 501.598229 32.615385 501.123584 32.923077 500.648559 33.230769 500.173145 33.538462 499.697337 33.846154 499.221130 34.153846 498.744516 34.461538 498.267489 34.769231 497.790043 35.076923 497.312172 35.384615 496.833870 35.692308 496.355130 36.000000 495.875946 36.307692 495.396312 36.615385 494.916221 36.923077 494.435668 37.230769 493.954646 37.538462 493.473148 37.846154 492.991170 38.153846 492.508703 38.461538 492.025742 38.769231 491.542282 39.076923 491.058314 39.384615 490.573834 39.692308 490.088835 40.000000 489.603311 40.307692 489.117255 40.615385 488.630662 40.923077 488.143525 41.230769 487.655837 41.538462 487.167593 41.846154 486.678786 42.153846 486.189410 42.461538 485.699459 42.769231 485.208926 43.076923 484.717806 43.384615 484.226092 43.692308 483.733777 44.000000 483.240856 44.307692 482.747322 44.615385 482.253169 44.923077 481.758391 45.230769 481.262981 45.538462 480.766933 45.846154 480.270242 46.153846 479.772900 46.461538 479.274902 46.769231 478.776241 47.076923 478.276910 47.384615 477.776905 47.692308 477.276218 48.000000 476.774843 48.307692 476.272774 48.615385 475.770005 48.923077 475.266529 49.230769 474.762341 49.538462 474.257433 49.846154 473.751800 50.153846 473.245436 50.461538 472.738333 50.769231 472.230487 51.076923 471.721890 51.384615 471.212537 51.692308 470.702421 52.000000 470.191536 52.307692 469.679875 52.615385 469.167433 52.923077 468.654203 53.230769 468.140179 53.538462 467.625355 53.846154 467.109724 54.153846 466.593280 54.461538 466.076017 54.769231 465.557928 55.076923 465.039008 55.384615 464.519251 55.692308 463.998649 56.000000 463.477196 56.307692 462.954887 56.615385 462.431716 56.923077 461.907675 57.230769 461.382758 57.538462 460.856961 57.846154 460.330275 58.153846 459.802695 58.461538 459.274214 58.769231 458.744827 59.076923 458.214528 59.384615 457.683309 59.692308 457.151164 60.000000 456.618088 60.307692 456.084074 60.615385 455.549116 60.923077 455.013207 61.230769 454.476342 61.538462 453.938514 61.846154 453.399717 62.153846 452.859944 62.461538 452.319189 62.769231 451.777447 63.076923 451.234711 63.384615 450.690974 63.692308 450.146230 64.000000 449.600473 64.307692 449.053698 64.615385 448.505896 64.923077 447.957063 65.230769 447.407193 65.538462 446.856277 65.846154 446.304312 66.153846 445.751290 66.461538 445.197204 66.769231 444.642050 67.076923 444.085820 67.384615 443.528509 67.692308 442.970109 68.000000 442.410615 68.307692 441.850021 68.615385 441.288320 68.923077 440.725506 69.230769 440.161573 69.538462 439.596514 69.846154 439.030323 70.153846 438.462995 70.461538 437.894522 70.769231 437.324899 71.076923 436.754119 71.384615 436.182176 71.692308 435.609064 72.000000 435.034776 72.307692 434.459307 72.615385 433.882649 72.923077 433.304798 73.230769 432.725745 73.538462 432.145486 73.846154 431.564014 74.153846 430.981323 74.461538 430.397406 74.769231 429.812257 75.076923 429.225870 75.384615 428.638239 75.692308 428.049358 76.000000 427.459219 76.307692 426.867818 76.615385 426.275147 76.923077 425.681201 77.230769 425.085973 77.538462 424.489457 77.846154 423.891647 78.153846 423.292536 78.461538 422.692118 78.769231 422.090387 79.076923 421.487337 79.384615 420.882961 79.692308 420.277253 80.000000 419.670208 80.307692 419.061817 80.615385 418.452077 80.923077 417.840979 81.230769 417.228519 81.538462 416.614689 81.846154 415.999484 82.153846 415.382896 82.461538 414.764921 82.769231 414.145551 83.076923 413.524781 83.384615 412.902603 83.692308 412.279013 84.000000 411.654003 84.307692 411.027568 84.615385 410.399701 84.923077 409.770395 85.230769 409.139646 85.538462 408.507445 85.846154 407.873788 86.153846 407.238668 86.461538 406.602078 86.769231 405.964012 87.076923 405.324465 87.384615 404.683430 87.692308 404.040900 88.000000 403.396869 88.307692 402.751332 88.615385 402.104281 88.923077 401.455711 89.230769 400.805616 89.538462 400.153988 89.846154 399.500823 90.153846 398.846112 90.461538 398.189852 90.769231 397.532034 91.076923 396.872661 91.384615 396.211769 91.692308 395.549399 92.000000 394.885596 92.307692 394.220403 92.615385 393.553862 92.923077 392.886018 93.230769 392.216913 93.538462 391.546590 93.846154 390.875093 94.153846 390.202465 94.461538 389.528748 94.769231 388.853988 95.076923 388.178225 95.384615 387.501504 95.692308 386.823869 96.000000 386.145361 96.307692 385.466024 96.615385 384.785902 96.923077 384.105038 97.230769 383.423475 97.538462 382.741256 97.846154 382.058424 98.153846 381.375022 98.461538 380.691095 98.769231 380.006684 99.076923 379.321833 99.384615 378.636586 99.692308 377.950985 100.000000 377.265074 100.307692 376.578896 100.615385 375.892494 100.923077 375.205911 101.230769 374.519191 101.538462 373.832377 101.846154 373.145512 102.153846 372.458639 102.461538 371.771801 102.769231 371.085042 103.076923 370.398404 103.384615 369.711932 103.692308 369.025668 104.000000 368.339655 104.307692 367.653937 104.615385 366.968556 104.923077 366.283557 105.230769 365.598982 105.538462 364.914874 105.846154 364.231277 106.153846 363.548234 106.461538 362.865787 106.769231 362.183981 107.076923 361.502859 107.384615 360.822463 107.692308 360.142837 108.000000 359.464024 108.307692 358.786067 108.615385 358.109009 108.923077 357.432895 109.230769 356.757766 109.538462 356.083666 109.846154 355.410639 110.153846 354.738727 110.461538 354.067973 110.769231 353.398422 111.076923 352.730116 111.384615 352.063097 111.692308 351.397411 112.000000 350.733099 112.307692 350.070205 112.615385 349.408772 112.923077 348.748844 113.230769 348.090463 113.538462 347.433673 113.846154 346.778516 114.153846 346.125037 114.461538 345.473278 114.769231 344.823283 115.076923 344.175094 115.384615 343.528756 115.692308 342.884310 116.000000 342.241801 116.307692 341.601272 116.615385 340.962765 116.923077 340.326324 117.230769 339.691992 117.538462 339.059813 117.846154 338.429830 118.153846 337.802085 118.461538 337.176622 118.769231 336.553484 119.076923 335.932715 119.384615 335.314357 119.692308 334.698454 120.000000 334.085049 120.307692 333.474186 120.615385 332.865906 120.923077 332.260255 121.230769 331.657274 121.538462 331.057007 121.846154 330.459498 122.153846 329.864789 122.461538 329.272923 122.769231 328.683945 123.076923 328.097896 123.384615 327.514821 123.692308 326.934762 124.000000 326.357763 124.307692 325.783867 124.615385 325.213117 124.923077 324.645556 125.230769 324.081227 125.538462 323.520175 125.846154 322.962441 126.153846 322.408069 126.461538 321.857103 126.769231 321.309585 127.076923 320.765558 127.384615 320.225067 127.692308 319.688154 128.000000 319.154862 128.307692 318.625235 128.615385 318.099315 128.923077 317.577146 129.230769 317.058772 129.538462 316.544235 129.846154 316.033578 130.153846 315.526845 130.461538 315.024079 130.769231 314.525323 131.076923 314.030621 131.384615 313.540015 131.692308 313.053549 132.000000 312.571266 132.307692 312.093209 132.615385 311.619421 132.923077 311.149946 133.230769 310.684827 133.538462 310.224107 133.846154 309.767829 134.153846 309.316036 134.461538 308.868772 134.769231 308.426080 135.076923 307.988003 135.384615 307.554584 135.692308 307.125867 136.000000 306.701894 136.307692 306.282709 136.615385 305.868355 136.923077 305.458875 137.230769 305.054312 137.538462 304.654711 137.846154 304.260113 138.153846 303.870562 138.461538 303.486102 138.769231 303.106775 139.076923 302.732624 139.384615 302.363694 139.692308 302.000026 140.000000 301.641665 140.307692 301.288654 140.615385 300.941035 140.923077 300.598852 141.230769 300.262148 141.538462 299.930966 141.846154 299.605350 142.153846 299.285343 142.461538 298.970987 142.769231 298.662327 143.076923 298.359405 143.384615 298.062264 143.692308 297.770948 144.000000 297.485500 144.307692 297.205964 144.615385 296.932381 144.923077 296.664796 145.230769 296.403252 145.538462 296.147792 145.846154 295.898459 146.153846 295.655297 146.461538 295.418348 146.769231 295.187655 147.076923 294.963263 147.384615 294.745214 147.692308 294.533551 148.000000 294.328318 148.307692 294.129558 148.615385 293.937314 148.923077 293.751628 149.230769 293.572546 149.538462 293.400109 149.846154 293.234360 150.153846 293.075344 150.461538 292.923103 150.769231 292.777681 151.076923 292.639120 151.384615 292.507463 151.692308 292.382755 152.000000 292.265038 152.307692 292.154356 152.615385 292.050751 152.923077 291.954267 153.230769 291.864948 153.538462 291.782835 153.846154 291.707973 154.153846 291.640405 154.461538 291.580173 154.769231 291.527322 155.076923 291.481893 155.384615 291.443932 155.692308 291.413480 156.000000 291.390581 156.307692 291.375278 156.615385 291.367614 156.923077 291.367633 157.230769 291.375377 157.538462 291.390891 157.846154 291.414217 158.153846 291.445397 158.461538 291.484477 158.769231 291.531498 159.076923 291.586504 159.384615 291.649539 159.692308 291.720644 160.000000 291.799864 160.307692 291.887242 160.615385 291.982821 160.923077 292.086644 161.230769 292.198755 161.538462 292.319196 161.846154 292.448011 162.153846 292.585242 162.461538 292.730934 162.769231 292.885130 163.076923 293.047872 163.384615 293.219203 163.692308 293.399168 164.000000 293.587809 164.307692 293.785170 164.615385 293.991292 164.923077 294.206221 165.230769 294.429999 165.538462 294.662669 165.846154 294.904275 166.153846 295.154859 166.461538 295.414465 166.769231 295.683136 167.076923 295.960915 167.384615 296.247846 167.692308 296.543971 168.000000 296.849312 168.307692 297.163797 168.615385 297.487334 168.923077 297.819831 169.230769 298.161193 169.538462 298.511328 169.846154 298.870143 170.153846 299.237545 170.461538 299.613441 170.769231 299.997738 171.076923 300.390343 171.384615 300.791164 171.692308 301.200106 172.000000 301.617077 172.307692 302.041985 172.615385 302.474735 172.923077 302.915236 173.230769 303.363394 173.538462 303.819116 173.846154 304.282309 174.153846 304.752881 174.461538 305.230737 174.769231 305.715786 175.076923 306.207935 175.384615 306.707089 175.692308 307.213157 176.000000 307.726045 176.307692 308.245661 176.615385 308.771910 176.923077 309.304702 177.230769 309.843941 177.538462 310.389536 177.846154 310.941394 178.153846 311.499421 178.461538 312.063524 178.769231 312.633611 179.076923 313.209588 179.384615 313.791363 179.692308 314.378842 180.000000 314.971933 180.307692 315.570543 180.615385 316.174578 180.923077 316.783945 181.230769 317.398553 181.538462 318.018307 181.846154 318.643114 182.153846 319.272883 182.461538 319.907519 182.769231 320.546929 183.076923 321.191022 183.384615 321.839703 183.692308 322.492880 184.000000 323.150459 184.307692 323.812349 184.615385 324.478455 184.923077 325.148685 185.230769 325.822946 185.538462 326.501145 185.846154 327.183189 186.153846 327.868985 186.461538 328.558439 186.769231 329.251460 187.076923 329.947953 187.384615 330.647827 187.692308 331.350987 188.000000 332.057341 188.307692 332.766797 188.615385 333.479260 188.923077 334.194639 189.230769 334.912840 189.538462 335.633770 189.846154 336.357335 190.153846 337.083444 190.461538 337.812004 190.769231 338.542920 191.076923 339.276100 191.384615 340.011452 191.692308 340.748882 192.000000 341.488297 192.307692 342.229605 192.615385 342.972712 192.923077 343.717525 193.230769 344.463951 193.538462 345.211898 193.846154 345.961272 194.153846 346.711980 194.461538 347.463930 194.769231 348.217028 195.076923 348.971181 195.384615 349.726297 195.692308 350.482283 196.000000 351.239045 196.307692 351.996490 196.615385 352.754526 196.923077 353.513060 197.230769 354.271998 197.538462 355.031247 197.846154 355.790715 198.153846 356.550309 198.461538 357.309935 198.769231 358.069501 199.076923 358.828914 199.384615 359.588080 199.692308 360.346907 200.000000 361.105302 200.307692 361.863171 200.615385 362.620422 200.923077 363.376962 201.230769 364.132698 201.538462 364.887536 201.846154 365.641384 202.153846 366.394149 202.461538 367.145738 202.769231 367.896058 203.076923 368.645015 203.384615 369.392518 203.692308 370.138472 204.000000 370.882786 204.307692 371.625365 204.615385 372.366117 204.923077 373.104950 205.230769 373.841769 205.538462 374.576482 205.846154 375.308996 206.153846 376.039219 206.461538 376.767056 206.769231 377.492416 207.076923 378.215204 207.384615 378.935329 207.692308 379.652697 208.000000 380.367215 208.307692 381.078790 208.615385 381.787330 208.923077 382.492740 209.230769 383.194929 209.538462 383.893803 209.846154 384.589270 210.153846 385.281235 210.461538 385.969607 210.769231 386.654292 211.076923 387.335198 211.384615 388.012231 211.692308 388.685298 212.000000 389.354307 212.307692 390.019164 212.615385 390.679777 212.923077 391.336052 213.230769 391.987896 213.538462 392.635217 213.846154 393.277922 214.153846 393.915917 214.461538 394.549109 214.769231 395.177406 215.076923 395.800715 215.384615 396.418942 215.692308 397.031995 216.000000 397.639780 216.307692 398.242205 216.615385 398.839177 216.923077 399.430602 217.230769 400.016388 217.538462 400.596442 217.846154 401.170670 218.153846 401.738980 218.461538 402.301279 218.769231 402.857474 219.076923 403.407472 219.384615 403.951179 219.692308 404.488503 220.000000 405.019351 220.307692 405.543630 220.615385 406.061247 220.923077 406.572109 221.230769 407.076122 221.538462 407.573195 221.846154 408.063233 222.153846 408.546145 222.461538 409.021836 222.769231 409.490215 223.076923 409.951187 223.384615 410.404661 223.692308 410.850542 224.000000 411.288739 224.307692 411.719158 224.615385 412.141706 224.923077 412.556290 225.230769 412.962817 225.538462 413.361194 225.846154 413.751329 226.153846 414.133128 226.461538 414.506498 226.769231 414.871346 227.076923 415.227579 227.384615 415.575105 227.692308 415.913830 228.000000 416.243661 228.307692 416.564506 228.615385 416.876271 228.923077 417.178863 229.230769 417.472190 229.538462 417.756158 229.846154 418.030675 230.153846 418.295647 230.461538 418.550981 230.769231 418.796585 231.076923 419.032365 231.384615 419.258229 231.692308 419.474084 232.000000 419.679835 232.307692 419.875392 232.615385 420.060660 232.923077 420.235547 233.230769 420.399959 233.538462 420.553804 233.846154 420.696988 234.153846 420.829419 234.461538 420.951004 234.769231 421.061650 235.076923 421.161263 235.384615 421.249751 235.692308 421.327021 236.000000 421.392980 236.307692 421.447534 236.615385 421.490591 236.923077 421.522058 237.230769 421.541842 237.538462 421.549849 237.846154 421.545988 238.153846 421.530164 238.461538 421.502286 238.769231 421.462259 239.076923 421.409991 239.384615 421.345389 239.692308 421.268360 240.000000 421.178811 240.307692 421.076649 240.615385 420.961782 240.923077 420.834115 241.230769 420.693556 241.538462 420.540013 241.846154 420.373391 242.153846 420.193599 242.461538 420.000542 242.769231 419.794129 243.076923 419.574266 243.384615 419.340861 243.692308 419.093819 244.000000 418.833049 244.307692 418.558457 244.615385 418.269950 244.923077 417.967468 245.230769 417.651083 245.538462 417.320898 245.846154 416.977018 246.153846 416.619546 246.461538 416.248587 246.769231 415.864245 247.076923 415.466624 247.384615 415.055828 247.692308 414.631962 248.000000 414.195128 248.307692 413.745432 248.615385 413.282977 248.923077 412.807868 249.230769 412.320208 249.538462 411.820102 249.846154 411.307654 250.153846 410.782967 250.461538 410.246147 250.769231 409.697297 251.076923 409.136521 251.384615 408.563923 251.692308 407.979608 252.000000 407.383679 252.307692 406.776241 252.615385 406.157397 252.923077 405.527253 253.230769 404.885911 253.538462 404.233476 253.846154 403.570052 254.153846 402.895743 254.461538 402.210653 254.769231 401.514887 255.076923 400.808548 255.384615 400.091741 255.692308 399.364569 256.000000 398.627138 256.307692 397.879550 256.615385 397.121909 256.923077 396.354321 257.230769 395.576889 257.538462 394.789717 257.846154 393.992910 258.153846 393.186571 258.461538 392.370804 258.769231 391.545714 259.076923 390.711405 259.384615 389.867980 259.692308 389.015544 260.000000 388.154201 260.307692 387.284056 260.615385 386.405211 260.923077 385.517772 261.230769 384.621842 261.538462 383.717525 261.846154 382.804926 262.153846 381.884149 262.461538 380.955297 262.769231 380.018475 263.076923 379.073788 263.384615 378.121338 263.692308 377.161230 264.000000 376.193568 264.307692 375.218457 264.615385 374.236000 264.923077 373.246302 265.230769 372.249466 265.538462 371.245597 265.846154 370.234799 266.153846 369.217176 266.461538 368.192831 266.769231 367.161870 267.076923 366.124396 267.384615 365.080513 267.692308 364.030325 268.000000 362.973937 268.307692 361.911453 268.615385 360.842976 268.923077 359.768610 269.230769 358.688461 269.538462 357.602632 269.846154 356.511226 270.153846 355.414349 270.461538 354.312104 270.769231 353.204595 271.076923 352.091927 271.384615 350.974203 271.692308 349.851528 272.000000 348.724005 272.307692 347.591740 272.615385 346.454835 272.923077 345.313395 273.230769 344.167524 273.538462 343.017326 273.846154 341.862906 274.153846 340.704367 274.461538 339.541814 274.769231 338.375350 275.076923 337.205079 275.384615 336.031107 275.692308 334.853536 276.000000 333.672471 276.307692 332.488016 276.615385 331.300276 276.923077 330.109353 277.230769 328.915353 277.538462 327.718380 277.846154 326.518537 278.153846 325.315928 278.461538 324.110658 278.769231 322.902831 279.076923 321.692551 279.384615 320.479922 279.692308 319.265048 280.000000 318.048033 280.307692 316.828981 280.615385 315.607997 280.923077 314.385184 281.230769 313.160647 281.538462 311.934489 281.846154 310.706816 282.153846 309.477730 282.461538 308.247336 282.769231 307.015738 283.076923 305.783040 283.384615 304.549346 283.692308 303.314761 284.000000 302.079388 284.307692 300.843332 284.615385 299.606696 284.923077 298.369585 285.230769 297.132103 285.538462 295.894354 285.846154 294.656442 286.153846 293.418470 286.461538 292.180544 286.769231 290.942768 287.076923 289.705244 287.384615 288.468079 287.692308 287.231374 288.000000 285.995236 288.307692 284.759767 288.615385 283.525072 288.923077 282.291255 289.230769 281.058420 289.538462 279.826671 289.846154 278.596112 290.153846 277.366848 290.461538 276.138982 290.769231 274.912619 291.076923 273.687862 291.384615 272.464816 291.692308 271.243585 292.000000 270.024273 292.307692 268.806984 292.615385 267.591822 292.923077 266.378891 293.230769 265.168295 293.538462 263.960139 293.846154 262.754526 294.153846 261.551561 294.461538 260.351347 294.769231 259.153990 295.076923 257.959592 295.384615 256.768258 295.692308 255.580092 296.000000 254.395198 296.307692 253.213681 296.615385 252.035644 296.923077 250.861191 297.230769 249.690427 297.538462 248.523456 297.846154 247.360381 298.153846 246.201307 298.461538 245.046338 298.769231 243.895578 299.076923 242.749131 299.384615 241.607101 299.692308 240.469593 300.000000 239.336710 300.307692 238.208557 300.615385 237.085237 300.923077 235.966854 301.230769 234.853514 301.538462 233.745319 301.846154 232.642375 302.153846 231.544784 302.461538 230.452652 302.769231 229.366082 303.076923 228.285178 303.384615 227.210045 303.692308 226.140786 304.000000 225.077506 304.307692 224.020309 304.615385 222.969298 304.923077 221.924578 305.230769 220.886254 305.538462 219.854428 305.846154 218.829206 306.153846 217.810691 306.461538 216.798988 306.769231 215.794199 307.076923 214.796431 307.384615 213.805786 307.692308 212.822369 308.000000 211.846284 308.307692 210.877635 308.615385 209.916526 308.923077 208.963061 309.230769 208.017345 309.538462 207.079480 309.846154 206.149573 310.153846 205.227725 310.461538 204.314043 310.769231 203.408629 311.076923 202.511588 311.384615 201.623024 311.692308 200.743041 312.000000 199.871743 312.307692 199.009234 312.615385 198.155619 312.923077 197.311001 313.230769 196.475484 313.538462 195.649174 313.846154 194.832172 314.153846 194.024585 314.461538 193.226516 314.769231 192.438068 315.076923 191.659347 315.384615 190.890456 315.692308 190.131499 316.000000 189.382580 316.307692 188.643804 316.615385 187.915274 316.923077 187.197095 317.230769 186.489371 317.538462 185.792206 317.846154 185.105704 318.153846 184.429968 318.461538 183.765104 318.769231 183.111215 319.076923 182.468406 319.384615 181.836780 319.692308 181.216441 320.000000 180.607494 320.307692 180.010042 320.615385 179.424191 320.923077 178.850043 321.230769 178.287704 321.538462 177.737276 321.846154 177.198835 322.153846 176.672335 322.461538 176.157700 322.769231 175.654857 323.076923 175.163730 323.384615 174.684243 323.692308 174.216323 324.000000 173.759892 324.307692 173.314877 324.615385 172.881203 324.923077 172.458794 325.230769 172.047575 325.538462 171.647472 325.846154 171.258408 326.153846 170.880310 326.461538 170.513102 326.769231 170.156708 327.076923 169.811054 327.384615 169.476065 327.692308 169.151665 328.000000 168.837780 328.307692 168.534334 328.615385 168.241253 328.923077 167.958461 329.230769 167.685883 329.538462 167.423444 329.846154 167.171070 330.153846 166.928684 330.461538 166.696212 330.769231 166.473579 331.076923 166.260709 331.384615 166.057528 331.692308 165.863961 332.000000 165.679931 332.307692 165.505366 332.615385 165.340188 332.923077 165.184324 333.230769 165.037698 333.538462 164.900235 333.846154 164.771859 334.153846 164.652497 334.461538 164.542072 334.769231 164.440510 335.076923 164.347736 335.384615 164.263674 335.692308 164.188250 336.000000 164.121387 336.307692 164.063013 336.615385 164.013050 336.923077 163.971424 337.230769 163.938061 337.538462 163.912884 337.846154 163.895819 338.153846 163.886791 338.461538 163.885724 338.769231 163.892544 339.076923 163.907176 339.384615 163.929544 339.692308 163.959573 340.000000 163.997189 340.307692 164.042316 340.615385 164.094879 340.923077 164.154803 341.230769 164.222012 341.538462 164.296433 341.846154 164.377989 342.153846 164.466606 342.461538 164.562209 342.769231 164.664722 343.076923 164.774070 343.384615 164.890179 343.692308 165.012973 344.000000 165.142377 344.307692 165.278317 344.615385 165.420716 344.923077 165.569500 345.230769 165.724594 345.538462 165.885923 345.846154 166.053411 346.153846 166.226984 346.461538 166.406567 346.769231 166.592084 347.076923 166.783460 347.384615 166.980621 347.692308 167.183490 348.000000 167.391994 348.307692 167.606056 348.615385 167.825603 348.923077 168.050558 349.230769 168.280848 349.538462 168.516395 349.846154 168.757127 350.153846 169.002967 350.461538 169.253840 350.769231 169.509671 351.076923 169.770386 351.384615 170.035909 351.692308 170.306165 352.000000 170.581079 352.307692 170.860576 352.615385 171.144581 352.923077 171.433018 353.230769 171.725813 353.538462 172.022891 353.846154 172.324176 354.153846 172.629594 354.461538 172.939069 354.769231 173.252526 355.076923 173.569890 355.384615 173.891086 355.692308 174.216040 356.000000 174.544675 356.307692 174.876917 356.615385 175.212691 356.923077 175.551921 357.230769 175.894533 357.538462 176.240451 357.846154 176.589601 358.153846 176.941907 358.461538 177.297294 358.769231 177.655688 359.076923 178.017013 359.384615 178.381193 359.692308 178.748154 360.000000 179.117822 360.307692 179.490120 360.615385 179.864973 360.923077 180.242307 361.230769 180.622047 361.538462 181.004117 361.846154 181.388442 362.153846 181.774948 362.461538 182.163558 362.769231 182.554199 363.076923 182.946795 363.384615 183.341270 363.692308 183.737551 364.000000 184.135561 364.307692 184.535226 364.615385 184.936470 364.923077 185.339219 365.230769 185.743397 365.538462 186.148929 365.846154 186.555741 366.153846 186.963757 366.461538 187.372902 366.769231 187.783100 367.076923 188.194278 367.384615 188.606360 367.692308 189.019270 368.000000 189.432934 368.307692 189.847276 368.615385 190.262222 368.923077 190.677696 369.230769 191.093624 369.538462 191.509930 369.846154 191.926538 370.153846 192.343375 370.461538 192.760365 370.769231 193.177433 371.076923 193.594504 371.384615 194.011502 371.692308 194.428353 372.000000 194.844981 372.307692 195.261312 372.615385 195.677270 372.923077 196.092781 373.230769 196.507769 373.538462 196.922159 373.846154 197.335876 374.153846 197.748845 374.461538 198.160990 374.769231 198.572238 375.076923 198.982512 375.384615 199.391738 375.692308 199.799841 376.000000 200.206744 376.307692 200.612375 376.615385 201.016656 376.923077 201.419514 377.230769 201.820873 377.538462 202.220658 377.846154 202.618794 378.153846 203.015206 378.461538 203.409818 378.769231 203.802556 379.076923 204.193345 379.384615 204.582110 379.692308 204.968774 380.000000 205.353265 380.307692 205.735505 380.615385 206.115421 380.923077 206.492937 381.230769 206.867977 381.538462 207.240468 381.846154 207.610334 382.153846 207.977499 382.461538 208.341890 382.769231 208.703429 383.076923 209.062044 383.384615 209.417657 383.692308 209.770195 384.000000 210.119583 384.307692 210.465744 384.615385 210.808605 384.923077 211.148090 385.230769 211.484123 385.538462 211.816631 385.846154 212.145537 386.153846 212.470767 386.461538 212.792246 386.769231 213.109898 387.076923 213.423649 387.384615 213.733422 387.692308 214.039145 388.000000 214.340740 388.307692 214.638134 388.615385 214.931250 388.923077 215.220015 389.230769 215.504352 389.538462 215.784187 389.846154 216.059445 390.153846 216.330050 390.461538 216.595928 390.769231 216.857004 391.076923 217.113201 391.384615 217.364446 391.692308 217.610663 392.000000 217.851778 392.307692 218.087714 392.615385 218.318397 392.923077 218.543752 393.230769 218.763704 393.538462 218.978178 393.846154 219.187098 394.153846 219.390389 394.461538 219.587978 394.769231 219.779787 395.076923 219.965743 395.384615 220.145770 395.692308 220.319793 396.000000 220.487737 396.307692 220.649527 396.615385 220.805087 396.923077 220.954344 397.230769 221.097221 397.538462 221.233644 397.846154 221.363537 398.153846 221.486826 398.461538 221.603435 398.769231 221.713309 399.076923 221.816471 399.384615 221.912962 399.692308 222.002825 400.000000 222.086103 400.307692 222.162838 400.615385 222.233071 400.923077 222.296846 401.230769 222.354205 401.538462 222.405189 401.846154 222.449841 402.153846 222.488204 402.461538 222.520320 402.769231 222.546230 403.076923 222.565978 403.384615 222.579605 403.692308 222.587155 404.000000 222.588668 404.307692 222.584188 404.615385 222.573756 404.923077 222.557416 405.230769 222.535209 405.538462 222.507177 405.846154 222.473364 406.153846 222.433810 406.461538 222.388559 406.769231 222.337653 407.076923 222.281134 407.384615 222.219044 407.692308 222.151425 408.000000 222.078321 408.307692 221.999773 408.615385 221.915823 408.923077 221.826514 409.230769 221.731888 409.538462 221.631987 409.846154 221.526854 410.153846 221.416531 410.461538 221.301060 410.769231 221.180483 411.076923 221.054844 411.384615 220.924183 411.692308 220.788544 412.000000 220.647968 412.307692 220.502498 412.615385 220.352176 412.923077 220.197045 413.230769 220.037147 413.538462 219.872524 413.846154 219.703218 414.153846 219.529272 414.461538 219.350727 414.769231 219.167627 415.076923 218.980014 415.384615 218.787929 415.692308 218.591415 416.000000 218.390515 416.307692 218.185270 416.615385 217.975723 416.923077 217.761917 417.230769 217.543893 417.538462 217.321693 417.846154 217.095361 418.153846 216.864939 418.461538 216.630467 418.769231 216.391990 419.076923 216.149550 419.384615 215.903187 419.692308 215.652946 420.000000 215.398867 420.307692 215.140994 420.615385 214.879369 420.923077 214.614033 421.230769 214.345030 421.538462 214.072402 421.846154 213.796190 422.153846 213.516437 422.461538 213.233186 422.769231 212.946479 423.076923 212.656357 423.384615 212.362864 423.692308 212.066041 424.000000 211.765931 424.307692 211.462577 424.615385 211.156019 424.923077 210.846302 425.230769 210.533466 425.538462 210.217555 425.846154 209.898610 426.153846 209.576674 426.461538 209.251789 426.769231 208.923998 427.076923 208.593342 427.384615 208.259865 427.692308 207.923608 428.000000 207.584613 428.307692 207.242923 428.615385 206.898580 428.923077 206.551627 429.230769 206.202106 429.538462 205.850058 429.846154 205.495527 430.153846 205.138554 430.461538 204.779183 430.769231 204.417454 431.076923 204.053411 431.384615 203.687096 431.692308 203.318551 432.000000 202.947818 432.307692 202.574939 432.615385 202.199958 432.923077 201.822916 433.230769 201.443855 433.538462 201.062818 433.846154 200.679847 434.153846 200.294984 434.461538 199.908272 434.769231 199.519753 435.076923 199.129469 435.384615 198.737463 435.692308 198.343776 436.000000 197.948452 436.307692 197.551531 436.615385 197.153058 436.923077 196.753073 437.230769 196.351620 437.538462 195.948740 437.846154 195.544475 438.153846 195.138869 438.461538 194.731964 438.769231 194.323800 439.076923 193.914422 439.384615 193.503871 439.692308 193.092190 440.000000 192.679420 440.307692 192.265605 440.615385 191.850786 440.923077 191.435005 441.230769 191.018306 441.538462 190.600729 441.846154 190.182319 442.153846 189.763116 442.461538 189.343163 442.769231 188.922502 443.076923 188.501176 443.384615 188.079228 443.692308 187.656698 444.000000 187.233630 444.307692 186.810066 444.615385 186.386048 444.923077 185.961618 445.230769 185.536819 445.538462 185.111693 445.846154 184.686282 446.153846 184.260629 446.461538 183.834775 446.769231 183.408764 447.076923 182.982637 447.384615 182.556437 447.692308 182.130206 448.000000 181.703986 448.307692 181.277820 448.615385 180.851749 448.923077 180.425817 449.230769 180.000065 449.538462 179.574536 449.846154 179.149272 450.153846 178.724315 450.461538 178.299708 450.769231 177.875492 451.076923 177.451711 451.384615 177.028406 451.692308 176.605620 452.000000 176.183395 452.307692 175.761773 452.615385 175.340797 452.923077 174.920508 453.230769 174.500950 453.538462 174.082165 453.846154 173.664194 454.153846 173.247080 454.461538 172.830865 454.769231 172.415592 455.076923 172.001303 455.384615 171.588040 455.692308 171.175845 456.000000 170.764762 456.307692 170.354831 456.615385 169.946096 456.923077 169.538598 457.230769 169.132380 457.538462 168.727484 457.846154 168.323953 458.153846 167.921829 458.461538 167.521154 458.769231 167.121970 459.076923 166.724319 459.384615 166.328245 459.692308 165.933789 460.000000 165.540993 460.307692 165.149900 460.615385 164.760552 460.923077 164.372991 461.230769 163.987261 461.538462 163.603402 461.846154 163.221457 462.153846 162.841469 462.461538 162.463479 462.769231 162.087531 463.076923 161.713666 463.384615 161.341926 463.692308 160.972355 464.000000 160.604994 464.307692 160.239885 464.615385 159.877071 464.923077 159.516595 465.230769 159.158497 465.538462 158.802822 465.846154 158.449610 466.153846 158.098904 466.461538 157.750747 466.769231 157.405181 467.076923 157.062248 467.384615 156.721991 467.692308 156.384451 468.000000 156.049671 468.307692 155.717693 468.615385 155.388560 468.923077 155.062314 469.230769 154.738996 469.538462 154.418651 469.846154 154.101318 470.153846 153.787042 470.461538 153.475864 470.769231 153.167827 471.076923 152.862973 471.384615 152.561343 471.692308 152.262982 472.000000 151.967929 472.307692 151.676229 472.615385 151.387923 472.923077 151.103054 473.230769 150.821663 473.538462 150.543794 473.846154 150.269488 474.153846 149.998788 474.461538 149.731736 474.769231 149.468374 475.076923 149.208745 475.384615 148.952890 475.692308 148.700841 476.000000 148.452579 476.307692 148.208073 476.615385 147.967293 476.923077 147.730209 477.230769 147.496791 477.538462 147.267008 477.846154 147.040830 478.153846 146.818227 478.461538 146.599168 478.769231 146.383623 479.076923 146.171562 479.384615 145.962954 479.692308 145.757769 480.000000 145.555977 480.307692 145.357548 480.615385 145.162451 480.923077 144.970655 481.230769 144.782131 481.538462 144.596849 481.846154 144.414777 482.153846 144.235886 482.461538 144.060145 482.769231 143.887524 483.076923 143.717993 483.384615 143.551521 483.692308 143.388079 484.000000 143.227634 484.307692 143.070159 484.615385 142.915621 484.923077 142.763992 485.230769 142.615239 485.538462 142.469334 485.846154 142.326246 486.153846 142.185944 486.461538 142.048399 486.769231 141.913579 487.076923 141.781455 487.384615 141.651996 487.692308 141.525173 488.000000 141.400954 488.307692 141.279309 488.615385 141.160208 488.923077 141.043622 489.230769 140.929518 489.538462 140.817868 489.846154 140.708640 490.153846 140.601805 490.461538 140.497332 490.769231 140.395191 491.076923 140.295351 491.384615 140.197783 491.692308 140.102456 492.000000 140.009339 492.307692 139.918403 492.615385 139.829616 492.923077 139.742949 493.230769 139.658372 493.538462 139.575853 493.846154 139.495364 494.153846 139.416872 494.461538 139.340349 494.769231 139.265764 495.076923 139.193086 495.384615 139.122285 495.692308 139.053331 496.000000 138.986194 496.307692 138.920843 496.615385 138.857248 496.923077 138.795378 497.230769 138.735204 497.538462 138.676695 497.846154 138.619820 498.153846 138.564550 498.461538 138.510854 498.769231 138.458701 499.076923 138.408062 499.384615 138.358906 499.692308 138.311203 500.000000 138.264923 500.307692 138.220034 500.615385 138.176508 500.923077 138.134313 501.230769 138.093419 501.538462 138.053796 501.846154 138.015414 502.153846 137.978242 502.461538 137.942250 502.769231 137.907407 503.076923 137.873684 503.384615 137.841050 503.692308 137.809475 504.000000 137.778929 504.307692 137.749380 504.615385 137.720799 504.923077 137.693156 505.230769 137.666420 505.538462 137.640560 505.846154 137.615548 506.153846 137.591351 506.461538 137.567941 506.769231 137.545286 507.076923 137.523356 507.384615 137.502121 507.692308 137.481551 508.000000 137.461616 508.307692 137.442284 508.615385 137.423526 508.923077 137.405312 509.230769 137.387611 509.538462 137.370392 509.846154 137.353626 510.153846 137.337282 510.461538 137.321330 510.769231 137.305740 511.076923 137.290481 511.384615 137.275523 511.692308 137.260835 512.000000 137.246388 512.307692 137.232150 512.615385 137.218093 512.923077 137.204185 513.230769 137.190395 513.538462 137.176695 513.846154 137.163053 514.153846 137.149439 514.461538 137.135823 514.769231 137.122174 515.076923 137.108463 515.384615 137.094658 515.692308 137.080730 516.000000 137.066649 516.307692 137.052383 516.615385 137.037903 516.923077 137.023178 517.230769 137.008178 517.538462 136.992873 517.846154 136.977232 518.153846 136.961225 518.461538 136.944822 518.769231 136.927992 519.076923 136.910706 519.384615 136.892932 519.692308 136.874641 520.000000 136.855802 520.307692 136.836385 520.615385 136.816359 520.923077 136.795695 521.230769 136.774362 521.538462 136.752329 521.846154 136.729566 522.153846 136.706044 522.461538 136.681731 522.769231 136.656598 523.076923 136.630614 523.384615 136.603748 523.692308 136.575971 524.000000 136.547252 524.307692 136.517561 524.615385 136.486867 524.923077 136.455140 525.230769 136.422351 525.538462 136.388468 525.846154 136.353461 526.153846 136.317300 526.461538 136.279955 526.769231 136.241395 527.076923 136.201590 527.384615 136.160509 527.692308 136.118124 528.000000 136.074402 528.307692 136.029314 528.615385 135.982829 528.923077 135.934917 529.230769 135.885549 529.538462 135.834693 529.846154 135.782319 530.153846 135.728396 530.461538 135.672896 530.769231 135.615787 531.076923 135.557038 531.384615 135.496620 531.692308 135.434503 532.000000 135.370656 532.307692 135.305048 532.615385 135.237650 532.923077 135.168430 533.230769 135.097360 533.538462 135.024408 533.846154 134.949544 534.153846 134.872737 534.461538 134.793959 534.769231 134.713177 535.076923 134.630363 535.384615 134.545485 535.692308 134.458513 536.000000 134.369417 536.307692 134.278167 536.615385 134.184732 536.923077 134.089082 537.230769 133.991187 537.538462 133.891016 537.846154 133.788540 538.153846 133.683727 538.461538 133.576547 538.769231 133.466971 539.076923 133.354967 539.384615 133.240506 539.692308 133.123557 540.000000 133.004090 540.307692 132.882075 540.615385 132.757481 540.923077 132.630278 541.230769 132.500435 541.538462 132.367923 541.846154 132.232711 542.153846 132.094768 542.461538 131.954065 542.769231 131.810571 543.076923 131.664256 543.384615 131.515089 543.692308 131.363040 544.000000 131.208079 544.307692 131.050176 544.615385 130.889299 544.923077 130.725420 545.230769 130.558507 545.538462 130.388531 545.846154 130.215460 546.153846 130.039265 546.461538 129.859916 546.769231 129.677381 547.076923 129.491631 547.384615 129.302636 547.692308 129.110364 548.000000 128.914787 548.307692 128.715872 548.615385 128.513591 548.923077 128.307913 549.230769 128.098807 549.538462 127.886244 549.846154 127.670192 550.153846 127.450622 550.461538 127.227503 550.769231 127.000806 551.076923 126.770498 551.384615 126.536551 551.692308 126.298935 552.000000 126.057617 552.307692 125.812570 552.615385 125.563771 552.923077 125.311240 553.230769 125.055007 553.538462 124.795101 553.846154 124.531550 554.153846 124.264385 554.461538 123.993633 554.769231 123.719325 555.076923 123.441490 555.384615 123.160156 555.692308 122.875354 556.000000 122.587112 556.307692 122.295458 556.615385 122.000424 556.923077 121.702037 557.230769 121.400327 557.538462 121.095324 557.846154 120.787055 558.153846 120.475552 558.461538 120.160841 558.769231 119.842954 559.076923 119.521919 559.384615 119.197765 559.692308 118.870521 560.000000 118.540218 560.307692 118.206883 560.615385 117.870546 560.923077 117.531236 561.230769 117.188982 561.538462 116.843815 561.846154 116.495762 562.153846 116.144853 562.461538 115.791117 562.769231 115.434583 563.076923 115.075281 563.384615 114.713240 563.692308 114.348489 564.000000 113.981057 564.307692 113.610973 564.615385 113.238267 564.923077 112.862967 565.230769 112.485103 565.538462 112.104705 565.846154 111.721800 566.153846 111.336419 566.461538 110.948591 566.769231 110.558344 567.076923 110.165709 567.384615 109.770714 567.692308 109.373388 568.000000 108.973760 568.307692 108.571861 568.615385 108.167718 568.923077 107.761362 569.230769 107.352821 569.538462 106.942125 569.846154 106.529302 570.153846 106.114382 570.461538 105.697394 570.769231 105.278368 571.076923 104.857332 571.384615 104.434316 571.692308 104.009349 572.000000 103.582460 572.307692 103.153678 572.615385 102.723032 572.923077 102.290552 573.230769 101.856267 573.538462 101.420206 573.846154 100.982398 574.153846 100.542873 574.461538 100.101659 574.769231 99.658786 575.076923 99.214283 575.384615 98.768179 575.692308 98.320503 576.000000 97.871285 576.307692 97.420554 576.615385 96.968339 576.923077 96.514669 577.230769 96.059573 577.538462 95.603080 577.846154 95.145220 578.153846 94.686022 578.461538 94.225516 578.769231 93.763729 579.076923 93.300692 579.384615 92.836433 579.692308 92.370983 580.000000 91.904369 580.307692 91.436622 580.615385 90.967770 580.923077 90.497842 581.230769 90.026869 581.538462 89.554878 581.846154 89.081899 582.153846 88.607962 582.461538 88.133096 582.769231 87.657329 583.076923 87.180691 583.384615 86.703211 583.692308 86.224918 584.000000 85.745842 584.307692 85.266012 584.615385 84.785456 584.923077 84.304205 585.230769 83.822286 585.538462 83.339731 585.846154 82.856566 586.153846 82.372823 586.461538 81.888530 586.769231 81.403716 587.076923 80.918410 587.384615 80.432642 587.692308 79.946441 588.000000 79.459835 588.307692 78.972855 588.615385 78.485529 588.923077 77.997887 589.230769 77.509957 589.538462 77.021769 589.846154 76.533353 590.153846 76.044737 590.461538 75.555950 590.769231 75.067022 591.076923 74.577981 591.384615 74.088858 591.692308 73.599681 592.000000 73.110480 592.307692 72.621283 592.615385 72.132120 592.923077 71.643020 593.230769 71.154012 593.538462 70.665126 593.846154 70.176390 594.153846 69.687834 594.461538 69.199487 594.769231 68.711378 595.076923 68.223536 595.384615 67.735991 595.692308 67.248771 596.000000 66.761907 596.307692 66.275427 596.615385 65.789360 596.923077 65.303735 597.230769 64.818582 597.538462 64.333930 597.846154 63.849808 598.153846 63.366246 598.461538 62.883271 598.769231 62.400915 599.076923 61.919205 599.384615 61.438171 599.692308 60.957842 600.000000 60.478248 600.307692 59.999417 600.615385 59.521380 600.923077 59.044164 601.230769 58.567799 601.538462 58.092314 601.846154 57.617740 602.153846 57.144103 602.461538 56.671435 602.769231 56.199764 603.076923 55.729119 603.384615 55.259530 603.692308 54.791025 604.000000 54.323634 604.307692 53.857386 604.615385 53.392311 604.923077 52.928437 605.230769 52.465793 605.538462 52.004410 605.846154 51.544315 606.153846 51.085538 606.461538 50.628109 606.769231 50.172057 607.076923 49.717410 607.384615 49.264198 607.692308 48.812451 608.000000 48.362196 608.307692 47.913465 608.615385 47.466285 608.923077 47.020686 609.230769 46.576697 609.538462 46.134347 609.846154 45.693666 610.153846 45.254682 610.461538 44.817425 610.769231 44.381925 611.076923 43.948209 611.384615 43.516308 611.692308 43.086251 612.000000 42.658066 612.307692 42.231784 612.615385 41.807432 612.923077 41.385041 613.230769 40.964640 613.538462 40.546257 613.846154 40.129923 614.153846 39.715665 614.461538 39.303514 614.769231 38.893498 615.076923 38.485647 615.384615 38.079990 615.692308 37.676556 616.000000 37.275374 616.307692 36.876474 616.615385 36.479885 616.923077 36.085635 617.230769 35.693754 617.538462 35.304272 617.846154 34.917217 618.153846 34.532619 618.461538 34.150506 618.769231 33.770909 619.076923 33.393855 619.384615 33.019375 619.692308 32.647498 620.000000 32.278252 620.307692 31.911668 620.615385 31.547773 620.923077 31.186598 621.230769 30.828171 621.538462 30.472522 621.846154 30.119680 622.153846 29.769674 622.461538 29.422534 622.769231 29.078288 623.076923 28.736965 623.384615 28.398595 623.692308 28.063208 624.000000 27.730831 624.307692 27.401495 624.615385 27.075229 624.923077 26.752062 625.230769 26.432022 625.538462 26.115140 625.846154 25.801444 626.153846 25.490963 626.461538 25.183728 626.769231 24.879766 627.076923 24.579107 627.384615 24.281781 627.692308 23.987816 628.000000 23.697242 628.307692 23.410088 628.615385 23.126383 628.923077 22.846157 629.230769 22.569437 629.538462 22.296248 629.846154 22.026580 630.153846 21.760421 630.461538 21.497757 630.769231 21.238572 631.076923 20.982853 631.384615 20.730586 631.692308 20.481757 632.000000 20.236351 632.307692 19.994355 632.615385 19.755754 632.923077 19.520534 633.230769 19.288680 633.538462 19.060180 633.846154 18.835018 634.153846 18.613180 634.461538 18.394653 634.769231 18.179422 635.076923 17.967473 635.384615 17.758792 635.692308 17.553365 636.000000 17.351177 636.307692 17.152215 636.615385 16.956464 636.923077 16.763910 637.230769 16.574539 637.538462 16.388337 637.846154 16.205289 638.153846 16.025383 638.461538 15.848602 638.769231 15.674934 639.076923 15.504364 639.384615 15.336878 639.692308 15.172462 640.000000 15.011101 640.307692 14.852782 640.615385 14.697491 640.923077 14.545212 641.230769 14.395933 641.538462 14.249639 641.846154 14.106315 642.153846 13.965948 642.461538 13.828524 642.769231 13.694028 643.076923 13.562446 643.384615 13.433764 643.692308 13.307968 644.000000 13.185044 644.307692 13.064978 644.615385 12.947755 644.923077 12.833361 645.230769 12.721783 645.538462 12.613005 645.846154 12.507015 646.153846 12.403797 646.461538 12.303338 646.769231 12.205623 647.076923 12.110638 647.384615 12.018370 647.692308 11.928804 648.000000 11.841925 648.307692 11.757721 648.615385 11.676176 648.923077 11.597276 649.230769 11.521008 649.538462 11.447356 649.846154 11.376308 650.153846 11.307848 650.461538 11.241964 650.769231 11.178639 651.076923 11.117862 651.384615 11.059616 651.692308 11.003888 652.000000 10.950665 652.307692 10.899931 652.615385 10.851673 652.923077 10.805877 653.230769 10.762527 653.538462 10.721611 653.846154 10.683115 654.153846 10.647023 654.461538 10.613321 654.769231 10.581997 655.076923 10.553035 655.384615 10.526421 655.692308 10.502142 656.000000 10.480182 656.307692 10.460529 656.615385 10.443167 656.923077 10.428083 657.230769 10.415262 657.538462 10.404691 657.846154 10.396354 658.153846 10.390239 658.461538 10.386331 658.769231 10.384615 659.076923 10.385078 659.384615 10.387706 659.692308 10.392484 660.000000 10.399397 660.307692 10.408433 660.615385 10.419577 660.923077 10.432814 661.230769 10.448131 661.538462 10.465514 661.846154 10.484947 662.153846 10.506418 662.461538 10.529912 662.769231 10.555415 663.076923 10.582912 663.384615 10.612390 663.692308 10.643834 664.000000 10.677230 664.307692 10.712565 664.615385 10.749823 664.923077 10.788991 665.230769 10.830055 665.538462 10.873001 665.846154 10.917813 666.153846 10.964479 666.461538 11.012984 666.769231 11.063314 667.076923 11.115455 667.384615 11.169392 667.692308 11.225112 668.000000 11.282600 668.307692 11.341843 668.615385 11.402825 668.923077 11.465533 669.230769 11.529953 669.538462 11.596071 669.846154 11.663872 670.153846 11.733342 670.461538 11.804468 670.769231 11.877234 671.076923 11.951628 671.384615 12.027634 671.692308 12.105239 672.000000 12.184428 672.307692 12.265187 672.615385 12.347503 672.923077 12.431360 673.230769 12.516745 673.538462 12.603644 673.846154 12.692043 674.153846 12.781927 674.461538 12.873282 674.769231 12.966095 675.076923 13.060350 675.384615 13.156034 675.692308 13.253133 676.000000 13.351632 676.307692 13.451518 676.615385 13.552776 676.923077 13.655392 677.230769 13.759351 677.538462 13.864641 677.846154 13.971246 678.153846 14.079153 678.461538 14.188347 678.769231 14.298815 679.076923 14.410541 679.384615 14.523513 679.692308 14.637715 680.000000 14.753133 680.307692 14.869754 680.615385 14.987564 680.923077 15.106548 681.230769 15.226691 681.538462 15.347981 681.846154 15.470402 682.153846 15.593941 682.461538 15.718583 682.769231 15.844315 683.076923 15.971121 683.384615 16.098989 683.692308 16.227904 684.000000 16.357851 684.307692 16.488817 684.615385 16.620787 684.923077 16.753748 685.230769 16.887684 685.538462 17.022583 685.846154 17.158429 686.153846 17.295210 686.461538 17.432909 686.769231 17.571514 687.076923 17.711011 687.384615 17.851384 687.692308 17.992620 688.000000 18.134705 688.307692 18.277625 688.615385 18.421365 688.923077 18.565912 689.230769 18.711251 689.538462 18.857368 689.846154 19.004249 690.153846 19.151879 690.461538 19.300245 690.769231 19.449333 691.076923 19.599128 691.384615 19.749616 691.692308 19.900784 692.000000 20.052616 692.307692 20.205099 692.615385 20.358218 692.923077 20.511960 693.230769 20.666311 693.538462 20.821255 693.846154 20.976779 694.153846 21.132870 694.461538 21.289512 694.769231 21.446691 695.076923 21.604394 695.384615 21.762607 695.692308 21.921314 696.000000 22.080502 696.307692 22.240158 696.615385 22.400266 696.923077 22.560812 697.230769 22.721783 697.538462 22.883164 697.846154 23.044941 698.153846 23.207101 698.461538 23.369628 698.769231 23.532508 699.076923 23.695729 699.384615 23.859274 699.692308 24.023131 700.000000 24.187285 700.307692 24.351722 700.615385 24.516427 700.923077 24.681388 701.230769 24.846588 701.538462 25.012015 701.846154 25.177655 702.153846 25.343492 702.461538 25.509513 702.769231 25.675704 703.076923 25.842051 703.384615 26.008539 703.692308 26.175155 704.000000 26.341883 704.307692 26.508711 704.615385 26.675623 704.923077 26.842606 705.230769 27.009646 705.538462 27.176728 705.846154 27.343839 706.153846 27.510964 706.153846 540.000000" /></g></g><g class="titles" /><g class="plot overlay" transform="translate(60, 20)"><g class="series serie-0 color-0"><g class="dots"><circle class="dot reactive tooltip-trigger" cx="13.846153846153847" cy="529.6153846153846" r="2.5" /><desc class="value">918,907,071(kWh)</desc><desc class="x top">13.846153846153847</desc><desc class="y top">529.6153846153846</desc><desc class="x_label">2549</desc></g><g class="dots"><circle class="dot reactive tooltip-trigger" cx="90.76923076923076" cy="397.53203384622714" r="2.5" /><desc class="value">992,233,856(kWh)</desc><desc class="x top">90.76923076923076</desc><desc class="y top">397.53203384622714</desc><desc class="x_label">2550</desc></g><g class="dots"><circle class="dot reactive tooltip-trigger" cx="167.69230769230765" cy="296.54397117322304" r="2.5" /><desc class="value">1,048,297,924(kWh)</desc><desc class="x top">167.69230769230765</desc><desc class="y top">296.54397117322304</desc><desc class="x_label">2551</desc></g><g class="dots"><circle class="dot reactive tooltip-trigger" cx="244.6153846153846" cy="418.269949873791" r="2.5" /><desc class="value">980,721,090(kWh)</desc><desc class="x top">244.6153846153846</desc><desc class="y top">418.269949873791</desc><desc class="x_label">2552</desc></g><g class="dots"><circle class="dot reactive tooltip-trigger" cx="321.5384615384615" cy="177.7372759912784" r="2.5" /><desc class="value">1,114,254,102(kWh)</desc><desc class="x ">321.5384615384615</desc><desc class="y ">177.7372759912784</desc><desc class="x_label">2553</desc></g><g class="dots"><circle class="dot reactive tooltip-trigger" cx="398.46153846153845" cy="221.6034351652172" r="2.5" /><desc class="value">1,089,901,567(kWh)</desc><desc class="x left">398.46153846153845</desc><desc class="y left">221.6034351652172</desc><desc class="x_label">2554</desc></g><g class="dots"><circle class="dot reactive tooltip-trigger" cx="475.38461538461536" cy="148.95289040551415" r="2.5" /><desc class="value">1,130,233,909(kWh)</desc><desc class="x left">475.38461538461536</desc><desc class="y left">148.95289040551415</desc><desc class="x_label">2555</desc></g><g class="dots"><circle class="dot reactive tooltip-trigger" cx="552.3076923076923" cy="125.81256955974322" r="2.5" /><desc class="value">1,143,080,383(kWh)</desc><desc class="x left">552.3076923076923</desc><desc class="y left">125.81256955974322</desc><desc class="x_label">2556</desc></g><g class="dots"><circle class="dot reactive tooltip-trigger" cx="629.2307692307692" cy="22.569437392081454" r="2.5" /><desc class="value">1,200,396,365(kWh)</desc><desc class="x left">629.2307692307692</desc><desc class="y left">22.569437392081454</desc><desc class="x_label">2557</desc></g><g class="dots"><circle class="dot reactive tooltip-trigger" cx="706.1538461538461" cy="27.51096370358266" r="2.5" /><desc class="value">1,197,653,050(kWh)</desc><desc class="x left">706.1538461538461</desc><desc class="y left">27.51096370358266</desc><desc class="x_label">2558</desc></g></g></g><g class="plot text-overlay" transform="translate(60, 20)"><g class="series serie-0 color-0" /></g><g class="plot tooltip-overlay" transform="translate(60, 20)"><g class="tooltip" style="opacity: 0" transform="translate(0 0)"><rect class="tooltip-box" height="0" rx="0" ry="0" width="0" /><g class="text" /></g></g></g></svg>