<?xml version='1.0' encoding='utf-8'?>
<svg xmlns:xlink="http://www.w3.org/1999/xlink" class="pygal-chart" id="chart-3137d4ee-d184-4894-87d4-e881f54aa4b6" viewBox="0 0 800 600" xmlns="http://www.w3.org/2000/svg"><!--Generated with pygal 2.3.0 (etree) ©Kozea 2012-2016 on 2016-12-08--><!--http://pygal.org--><!--http://github.com/Kozea/pygal--><defs><style type="text/css">#chart-3137d4ee-d184-4894-87d4-e881f54aa4b6{-webkit-user-select:none;-webkit-font-smoothing:antialiased;font-family:Consolas,"Liberation Mono",Menlo,Courier,monospace}#chart-3137d4ee-d184-4894-87d4-e881f54aa4b6 .title{font-family:Consolas,"Liberation Mono",Menlo,Courier,monospace;font-size:16px}#chart-3137d4ee-d184-4894-87d4-e881f54aa4b6 .legends .legend text{font-family:Consolas,"Liberation Mono",Menlo,Courier,monospace;font-size:14px}#chart-3137d4ee-d184-4894-87d4-e881f54aa4b6 .axis text{font-family:Consolas,"Liberation Mono",Menlo,Courier,monospace;font-size:10px}#chart-3137d4ee-d184-4894-87d4-e881f54aa4b6 .axis text.major{font-family:Consolas,"Liberation Mono",Menlo,Courier,monospace;font-size:10px}#chart-3137d4ee-d184-4894-87d4-e881f54aa4b6 .text-overlay text.value{font-family:Consolas,"Liberation Mono",Menlo,Courier,monospace;font-size:16px}#chart-3137d4ee-d184-4894-87d4-e881f54aa4b6 .text-overlay text.label{font-family:Consolas,"Liberation Mono",Menlo,Courier,monospace;font-size:10px}#chart-3137d4ee-d184-4894-87d4-e881f54aa4b6 .tooltip{font-family:Consolas,"Liberation Mono",Menlo,Courier,monospace;font-size:14px}#chart-3137d4ee-d184-4894-87d4-e881f54aa4b6 text.no_data{font-family:Consolas,"Liberation Mono",Menlo,Courier,monospace;font-size:64px}
#chart-3137d4ee-d184-4894-87d4-e881f54aa4b6{background-color:rgba(249,249,249,1)}#chart-3137d4ee-d184-4894-87d4-e881f54aa4b6 path,#chart-3137d4ee-d184-4894-87d4-e881f54aa4b6 line,#chart-3137d4ee-d184-4894-87d4-e881f54aa4b6 rect,#chart-3137d4ee-d184-4894-87d4-e881f54aa4b6 circle{-webkit-transition:150ms;-moz-transition:150ms;transition:150ms}#chart-3137d4ee-d184-4894-87d4-e881f54aa4b6 .graph &gt; .background{fill:rgba(249,249,249,1)}#chart-3137d4ee-d184-4894-87d4-e881f54aa4b6 .plot &gt; .background{fill:rgba(255,255,255,1)}#chart-3137d4ee-d184-4894-87d4-e881f54aa4b6 .graph{fill:rgba(0,0,0,.87)}#chart-3137d4ee-d184-4894-87d4-e881f54aa4b6 text.no_data{fill:rgba(0,0,0,1)}#chart-3137d4ee-d184-4894-87d4-e881f54aa4b6 .title{fill:rgba(0,0,0,1)}#chart-3137d4ee-d184-4894-87d4-e881f54aa4b6 .legends .legend text{fill:rgba(0,0,0,.87)}#chart-3137d4ee-d184-4894-87d4-e881f54aa4b6 .legends .legend:hover text{fill:rgba(0,0,0,1)}#chart-3137d4ee-d184-4894-87d4-e881f54aa4b6 .axis .line{stroke:rgba(0,0,0,1)}#chart-3137d4ee-d184-4894-87d4-e881f54aa4b6 .axis .guide.line{stroke:rgba(0,0,0,.54)}#chart-3137d4ee-d184-4894-87d4-e881f54aa4b6 .axis .major.line{stroke:rgba(0,0,0,.87)}#chart-3137d4ee-d184-4894-87d4-e881f54aa4b6 .axis text.major{fill:rgba(0,0,0,1)}#chart-3137d4ee-d184-4894-87d4-e881f54aa4b6 .axis.y .guides:hover .guide.line,#chart-3137d4ee-d184-4894-87d4-e881f54aa4b6 .line-graph .axis.x .guides:hover .guide.line,#chart-3137d4ee-d184-4894-87d4-e881f54aa4b6 .stackedline-graph .axis.x .guides:hover .guide.line,#chart-3137d4ee-d184-4894-87d4-e881f54aa4b6 .xy-graph .axis.x .guides:hover .guide.line{stroke:rgba(0,0,0,1)}#chart-3137d4ee-d184-4894-87d4-e881f54aa4b6 .axis .guides:hover text{fill:rgba(0,0,0,1)}#chart-3137d4ee-d184-4894-87d4-e881f54aa4b6 .reactive{fill-opacity:.7;stroke-opacity:.8}#chart-3137d4ee-d184-4894-87d4-e881f54aa4b6 .ci{stroke:rgba(0,0,0,.87)}#chart-3137d4ee-d184-4894-87d4-e881f54aa4b6 .reactive.active,#chart-3137d4ee-d184-4894-87d4-e881f54aa4b6 .active .reactive{fill-opacity:.8;stroke-opacity:.9;stroke-width:4}#chart-3137d4ee-d184-4894-87d4-e881f54aa4b6 .ci .reactive.active{stroke-width:1.5}#chart-3137d4ee-d184-4894-87d4-e881f54aa4b6 .series text{fill:rgba(0,0,0,1)}#chart-3137d4ee-d184-4894-87d4-e881f54aa4b6 .tooltip rect{fill:rgba(255,255,255,1);stroke:rgba(0,0,0,1);-webkit-transition:opacity 150ms;-moz-transition:opacity 150ms;transition:opacity 150ms}#chart-3137d4ee-d184-4894-87d4-e881f54aa4b6 .tooltip .label{fill:rgba(0,0,0,.87)}#chart-3137d4ee-d184-4894-87d4-e881f54aa4b6 .tooltip .label{fill:rgba(0,0,0,.87)}#chart-3137d4ee-d184-4894-87d4-e881f54aa4b6 .tooltip .legend{font-size:.8em;fill:rgba(0,0,0,.54)}#chart-3137d4ee-d184-4894-87d4-e881f54aa4b6 .tooltip .x_label{font-size:.6em;fill:rgba(0,0,0,1)}#chart-3137d4ee-d184-4894-87d4-e881f54aa4b6 .tooltip .xlink{font-size:.5em;text-decoration:underline}#chart-3137d4ee-d184-4894-87d4-e881f54aa4b6 .tooltip .value{font-size:1.5em}#chart-3137d4ee-d184-4894-87d4-e881f54aa4b6 .bound{font-size:.5em}#chart-3137d4ee-d184-4894-87d4-e881f54aa4b6 .max-value{font-size:.75em;fill:rgba(0,0,0,.54)}#chart-3137d4ee-d184-4894-87d4-e881f54aa4b6 .map-element{fill:rgba(255,255,255,1);stroke:rgba(0,0,0,.54) !important}#chart-3137d4ee-d184-4894-87d4-e881f54aa4b6 .map-element .reactive{fill-opacity:inherit;stroke-opacity:inherit}#chart-3137d4ee-d184-4894-87d4-e881f54aa4b6 .color-0,#chart-3137d4ee-d184-4894-87d4-e881f54aa4b6 .color-0 a:visited{stroke:#e86fa0;fill:#e86fa0}#chart-3137d4ee-d184-4894-87d4-e881f54aa4b6 .text-overlay .color-0 text{fill:black}
#chart-3137d4ee-d184-4894-87d4-e881f54aa4b6 text.no_data{text-anchor:middle}#chart-3137d4ee-d184-4894-87d4-e881f54aa4b6 .guide.line{fill:none}#chart-3137d4ee-d184-4894-87d4-e881f54aa4b6 .centered{text-anchor:middle}#chart-3137d4ee-d184-4894-87d4-e881f54aa4b6 .title{text-anchor:middle}#chart-3137d4ee-d184-4894-87d4-e881f54aa4b6 .legends .legend text{fill-opacity:1}#chart-3137d4ee-d184-4894-87d4-e881f54aa4b6 .axis.x text{text-anchor:middle}#chart-3137d4ee-d184-4894-87d4-e881f54aa4b6 .axis.x:not(.web) text[transform]{text-anchor:start}#chart-3137d4ee-d184-4894-87d4-e881f54aa4b6 .axis.x:not(.web) text[transform].backwards{text-anchor:end}#chart-3137d4ee-d184-4894-87d4-e881f54aa4b6 .axis.y text{text-anchor:end}#chart-3137d4ee-d184-4894-87d4-e881f54aa4b6 .axis.y text[transform].backwards{text-anchor:start}#chart-3137d4ee-d184-4894-87d4-e881f54aa4b6 .axis.y2 text{text-anchor:start}#chart-3137d4ee-d184-4894-87d4-e881f54aa4b6 .axis.y2 text[transform].backwards{text-anchor:end}#chart-3137d4ee-d184-4894-87d4-e881f54aa4b6 .axis .guide.line{stroke-dasharray:4,4}#chart-3137d4ee-d184-4894-87d4-e881f54aa4b6 .axis .major.guide.line{stroke-dasharray:6,6}#chart-3137d4ee-d184-4894-87d4-e881f54aa4b6 .horizontal .axis.y .guide.line,#chart-3137d4ee-d184-4894-87d4-e881f54aa4b6 .horizontal .axis.y2 .guide.line,#chart-3137d4ee-d184-4894-87d4-e881f54aa4b6 .vertical .axis.x .guide.line{opacity:0}#chart-3137d4ee-d184-4894-87d4-e881f54aa4b6 .horizontal .axis.always_show .guide.line,#chart-3137d4ee-d184-4894-87d4-e881f54aa4b6 .vertical .axis.always_show .guide.line{opacity:1 !important}#chart-3137d4ee-d184-4894-87d4-e881f54aa4b6 .axis.y .guides:hover .guide.line,#chart-3137d4ee-d184-4894-87d4-e881f54aa4b6 .axis.y2 .guides:hover .guide.line,#chart-3137d4ee-d184-4894-87d4-e881f54aa4b6 .axis.x .guides:hover .guide.line{opacity:1}#chart-3137d4ee-d184-4894-87d4-e881f54aa4b6 .axis .guides:hover text{opacity:1}#chart-3137d4ee-d184-4894-87d4-e881f54aa4b6 .nofill{fill:none}#chart-3137d4ee-d184-4894-87d4-e881f54aa4b6 .subtle-fill{fill-opacity:.2}#chart-3137d4ee-d184-4894-87d4-e881f54aa4b6 .dot{stroke-width:1px;fill-opacity:1}#chart-3137d4ee-d184-4894-87d4-e881f54aa4b6 .dot.active{stroke-width:5px}#chart-3137d4ee-d184-4894-87d4-e881f54aa4b6 .dot.negative{fill:transparent}#chart-3137d4ee-d184-4894-87d4-e881f54aa4b6 text,#chart-3137d4ee-d184-4894-87d4-e881f54aa4b6 tspan{stroke:none !important}#chart-3137d4ee-d184-4894-87d4-e881f54aa4b6 .series text.active{opacity:1}#chart-3137d4ee-d184-4894-87d4-e881f54aa4b6 .tooltip rect{fill-opacity:.95;stroke-width:.5}#chart-3137d4ee-d184-4894-87d4-e881f54aa4b6 .tooltip text{fill-opacity:1}#chart-3137d4ee-d184-4894-87d4-e881f54aa4b6 .showable{visibility:hidden}#chart-3137d4ee-d184-4894-87d4-e881f54aa4b6 .showable.shown{visibility:visible}#chart-3137d4ee-d184-4894-87d4-e881f54aa4b6 .gauge-background{fill:rgba(229,229,229,1);stroke:none}#chart-3137d4ee-d184-4894-87d4-e881f54aa4b6 .bg-lines{stroke:rgba(249,249,249,1);stroke-width:2px}</style><script type="text/javascript">window.pygal = window.pygal || {};window.pygal.config = window.pygal.config || {};window.pygal.config['3137d4ee-d184-4894-87d4-e881f54aa4b6'] = {"no_data_text": "No data", "no_prefix": false, "xrange": null, "print_values_position": "center", "truncate_label": null, "x_labels": ["2549", "2550", "2551", "2552", "2553", "2554", "2555", "2556", "2557", "2558"], "title": null, "force_uri_protocol": "https", "defs": [], "formatter": null, "classes": ["pygal-chart"], "y_labels": null, "rounded_bars": null, "explicit_size": false, "x_labels_major_every": null, "legend_at_bottom_columns": null, "stroke_style": null, "half_pie": false, "spacing": 10, "tooltip_fancy_mode": true, "inverse_y_axis": false, "width": 800, "inner_radius": 0, "interpolation_parameters": {}, "tooltip_border_radius": 0, "style": {"no_data_font_family": "Consolas, \"Liberation Mono\", Menlo, Courier, monospace", "tooltip_font_size": 14, "tooltip_font_family": "Consolas, \"Liberation Mono\", Menlo, Courier, monospace", "stroke_opacity_hover": ".9", "legend_font_family": "Consolas, \"Liberation Mono\", Menlo, Courier, monospace", "font_family": "Consolas, \"Liberation Mono\", Menlo, Courier, monospace", "title_font_family": "Consolas, \"Liberation Mono\", Menlo, Courier, monospace", "background": "rgba(249, 249, 249, 1)", "stroke_opacity": ".8", "foreground": "rgba(0, 0, 0, .87)", "value_background": "rgba(229, 229, 229, 1)", "guide_stroke_dasharray": "4,4", "foreground_subtle": "rgba(0, 0, 0, .54)", "opacity_hover": ".8", "value_font_family": "Consolas, \"Liberation Mono\", Menlo, Courier, monospace", "value_label_font_size": 10, "plot_background": "rgba(255, 255, 255, 1)", "ci_colors": [], "label_font_size": 10, "major_label_font_size": 10, "title_font_size": 16, "no_data_font_size": 64, "value_font_size": 16, "value_colors": [], "label_font_family": "Consolas, \"Liberation Mono\", Menlo, Courier, monospace", "major_guide_stroke_dasharray": "6,6", "transition": "150ms", "foreground_strong": "rgba(0, 0, 0, 1)", "colors": ["#e86fa0", "#e88f6f", "#e8df6f", "#a0e86f", "#6fe88f", "#6fe8df", "#6fa0e8", "#8f6fe8", "#df6fe8", "#e86fa0"], "opacity": ".7", "legend_font_size": 14, "value_label_font_family": "Consolas, \"Liberation Mono\", Menlo, Courier, monospace", "major_label_font_family": "Consolas, \"Liberation Mono\", Menlo, Courier, monospace"}, "x_labels_major_count": null, "interpolation_precision": 250, "missing_value_fill_truncation": "x", "stack_from_top": false, "truncate_legend": null, "show_minor_x_labels": true, "print_zeroes": true, "css": ["file://style.css", "file://graph.css"], "y_label_rotation": 0, "legend_at_bottom": false, "print_values": false, "margin_top": null, "max_scale": 16, "allow_interruptions": false, "show_x_labels": true, "strict": false, "show_x_guides": false, "stroke": true, "margin_left": null, "dynamic_print_values": false, "print_labels": false, "show_y_labels": true, "x_labels_major": null, "range": null, "x_label_rotation": 0, "margin": 20, "zero": 0, "include_x_axis": false, "height": 600, "show_minor_y_labels": true, "show_dots": true, "interpolate": "cubic", "show_y_guides": true, "y_labels_major": null, "box_mode": "extremes", "margin_bottom": null, "order_min": null, "legend_box_size": 12, "fill": true, "show_only_major_dots": false, "js": ["//kozea.github.io/pygal.js/2.0.x/pygal-tooltips.min.js"], "x_title": null, "y_labels_major_every": null, "y_labels_major_count": null, "disable_xml_declaration": false, "y_title": null, "logarithmic": false, "pretty_print": false, "min_scale": 4, "dots_size": 2.5, "margin_right": null, "legends": [null], "secondary_range": null, "show_legend": false}</script><script type="text/javascript" xlink:href="https://kozea.github.io/pygal.js/2.0.x/pygal-tooltips.min.js" /></defs><title>Pygal</title><g class="graph stackedline-graph vertical"><rect class="background" height="600" width="800" x="0" y="0" /><g class="plot" transform="translate(54, 20)"><rect class="background" height="540" width="726.0" x="0" y="0" /><g class="axis y"><path class="line" d="M0.000000 540.000000 h726.000000" /><g class="guides"><path class="guide line" d="M0.000000 524.147168 h726.000000" /><text class="" x="-5" y="527.6471682275733">640M</text><title>640M</title></g><g class="guides"><path class="guide line" d="M0.000000 485.144059 h726.000000" /><text class="" x="-5" y="488.64405917360796">660M</text><title>660M</title></g><g class="guides"><path class="guide line" d="M0.000000 446.140950 h726.000000" /><text class="" x="-5" y="449.6409501196427">680M</text><title>680M</title></g><g class="guides"><path class="major guide line" d="M0.000000 407.137841 h726.000000" /><text class="major" x="-5" y="410.63784106567743">700M</text><title>700M</title></g><g class="guides"><path class="guide line" d="M0.000000 368.134732 h726.000000" /><text class="" x="-5" y="371.6347320117121">720M</text><title>720M</title></g><g class="guides"><path class="guide line" d="M0.000000 329.131623 h726.000000" /><text class="" x="-5" y="332.6316229577468">740M</text><title>740M</title></g><g class="guides"><path class="guide line" d="M0.000000 290.128514 h726.000000" /><text class="" x="-5" y="293.62851390378154">760M</text><title>760M</title></g><g class="guides"><path class="guide line" d="M0.000000 251.125405 h726.000000" /><text class="" x="-5" y="254.62540484981622">780M</text><title>780M</title></g><g class="guides"><path class="major guide line" d="M0.000000 212.122296 h726.000000" /><text class="major" x="-5" y="215.62229579585096">800M</text><title>800M</title></g><g class="guides"><path class="guide line" d="M0.000000 173.119187 h726.000000" /><text class="" x="-5" y="176.61918674188564">820M</text><title>820M</title></g><g class="guides"><path class="guide line" d="M0.000000 134.116078 h726.000000" /><text class="" x="-5" y="137.61607768792038">840M</text><title>840M</title></g><g class="guides"><path class="guide line" d="M0.000000 95.112969 h726.000000" /><text class="" x="-5" y="98.61296863395506">860M</text><title>860M</title></g><g class="guides"><path class="guide line" d="M0.000000 56.109860 h726.000000" /><text class="" x="-5" y="59.6098595799898">880M</text><title>880M</title></g><g class="guides"><path class="major guide line" d="M0.000000 17.106751 h726.000000" /><text class="major" x="-5" y="20.606750526024484">900M</text><title>900M</title></g></g><g class="axis x"><g class="guides"><path class="line" d="M13.961538 0.000000 v540.000000" /><text class="" x="13.96153846153846" y="555.0">2549</text></g><g class="guides"><path class="guide line" d="M91.525641 0.000000 v540.000000" /><text class="" x="91.52564102564101" y="555.0">2550</text></g><g class="guides"><path class="guide line" d="M169.089744 0.000000 v540.000000" /><text class="" x="169.08974358974356" y="555.0">2551</text></g><g class="guides"><path class="guide line" d="M246.653846 0.000000 v540.000000" /><text class="" x="246.65384615384613" y="555.0">2552</text></g><g class="guides"><path class="guide line" d="M324.217949 0.000000 v540.000000" /><text class="" x="324.21794871794873" y="555.0">2553</text></g><g class="guides"><path class="guide line" d="M401.782051 0.000000 v540.000000" /><text class="" x="401.78205128205127" y="555.0">2554</text></g><g class="guides"><path class="guide line" d="M479.346154 0.000000 v540.000000" /><text class="" x="479.3461538461538" y="555.0">2555</text></g><g class="guides"><path class="guide line" d="M556.910256 0.000000 v540.000000" /><text class="" x="556.9102564102565" y="555.0">2556</text></g><g class="guides"><path class="guide line" d="M634.474359 0.000000 v540.000000" /><text class="" x="634.474358974359" y="555.0">2557</text></g><g class="guides"><path class="guide line" d="M712.038462 0.000000 v540.000000" /><text class="" x="712.0384615384615" y="555.0">2558</text></g></g><g class="series serie-0 color-0"><path class="line reactive" d="M13.961538 540.000000 L13.961538 529.615385 14.271795 529.366890 14.582051 529.118405 14.892308 528.869940 15.202564 528.621503 15.512821 528.373107 15.823077 528.124759 16.133333 527.876469 16.443590 527.628248 16.753846 527.380106 17.064103 527.132051 17.374359 526.884094 17.684615 526.636245 17.994872 526.388513 18.305128 526.140908 18.615385 525.893440 18.925641 525.646119 19.235897 525.398954 19.546154 525.151955 19.856410 524.905133 20.166667 524.658496 20.476923 524.412055 20.787179 524.165819 21.097436 523.919799 21.407692 523.674003 21.717949 523.428442 22.028205 523.183126 22.338462 522.938063 22.648718 522.693265 22.958974 522.448741 23.269231 522.204500 23.579487 521.960553 23.889744 521.716908 24.200000 521.473577 24.510256 521.230568 24.820513 520.987892 25.130769 520.745558 25.441026 520.503576 25.751282 520.261956 26.061538 520.020708 26.371795 519.779841 26.682051 519.539365 26.992308 519.299290 27.302564 519.059626 27.612821 518.820382 27.923077 518.581569 28.233333 518.343196 28.543590 518.105272 28.853846 517.867808 29.164103 517.630814 29.474359 517.394299 29.784615 517.158272 30.094872 516.922745 30.405128 516.687726 30.715385 516.453225 31.025641 516.219252 31.335897 515.985817 31.646154 515.752930 31.956410 515.520600 32.266667 515.288837 32.576923 515.057652 32.887179 514.827053 33.197436 514.597051 33.507692 514.367654 33.817949 514.138874 34.128205 513.910720 34.438462 513.683202 34.748718 513.456329 35.058974 513.230111 35.369231 513.004558 35.679487 512.779680 35.989744 512.555486 36.300000 512.331987 36.610256 512.109192 36.920513 511.887110 37.230769 511.665753 37.541026 511.445129 37.851282 511.225248 38.161538 511.006120 38.471795 510.787754 38.782051 510.570162 39.092308 510.353351 39.402564 510.137333 39.712821 509.922117 40.023077 509.707712 40.333333 509.494129 40.643590 509.281377 40.953846 509.069466 41.264103 508.858406 41.574359 508.648206 41.884615 508.438877 42.194872 508.230427 42.505128 508.022868 42.815385 507.816209 43.125641 507.610458 43.435897 507.405627 43.746154 507.201726 44.056410 506.998762 44.366667 506.796748 44.676923 506.595692 44.987179 506.395604 45.297436 506.196494 45.607692 505.998371 45.917949 505.801246 46.228205 505.605129 46.538462 505.410028 46.848718 505.215954 47.158974 505.022917 47.469231 504.830926 47.779487 504.639991 48.089744 504.450122 48.400000 504.261329 48.710256 504.073621 49.020513 503.887009 49.330769 503.701502 49.641026 503.517109 49.951282 503.333841 50.261538 503.151708 50.571795 502.970718 50.882051 502.790883 51.192308 502.612211 51.502564 502.434713 51.812821 502.258398 52.123077 502.083276 52.433333 501.909357 52.743590 501.736650 53.053846 501.565166 53.364103 501.394914 53.674359 501.225904 53.984615 501.058146 54.294872 500.891649 54.605128 500.726424 54.915385 500.562480 55.225641 500.399826 55.535897 500.238473 55.846154 500.078431 56.156410 499.919708 56.466667 499.762316 56.776923 499.606263 57.087179 499.451560 57.397436 499.298216 57.707692 499.146242 58.017949 498.995646 58.328205 498.846439 58.638462 498.698630 58.948718 498.552229 59.258974 498.407247 59.569231 498.263692 59.879487 498.121574 60.189744 497.980904 60.500000 497.841691 60.810256 497.703945 61.120513 497.567676 61.430769 497.432893 61.741026 497.299606 62.051282 497.167825 62.361538 497.037560 62.671795 496.908821 62.982051 496.781616 63.292308 496.655957 63.602564 496.531853 63.912821 496.409314 64.223077 496.288348 64.533333 496.168968 64.843590 496.051181 65.153846 495.934998 65.464103 495.820428 65.774359 495.707482 66.084615 495.596169 66.394872 495.486499 66.705128 495.378481 67.015385 495.272126 67.325641 495.167443 67.635897 495.064442 67.946154 494.963133 68.256410 494.863526 68.566667 494.765630 68.876923 494.669455 69.187179 494.575010 69.497436 494.482307 69.807692 494.391354 70.117949 494.302161 70.428205 494.214739 70.738462 494.129096 71.048718 494.045243 71.358974 493.963189 71.669231 493.882944 71.979487 493.804518 72.289744 493.727921 72.600000 493.653162 72.910256 493.580252 73.220513 493.509199 73.530769 493.440014 73.841026 493.372707 74.151282 493.307288 74.461538 493.243765 74.771795 493.182150 75.082051 493.122451 75.392308 493.064679 75.702564 493.008842 76.012821 492.954952 76.323077 492.903018 76.633333 492.853050 76.943590 492.805056 77.253846 492.759048 77.564103 492.715035 77.874359 492.673027 78.184615 492.633033 78.494872 492.595063 78.805128 492.559128 79.115385 492.525236 79.425641 492.493398 79.735897 492.463623 80.046154 492.435921 80.356410 492.410303 80.666667 492.386777 80.976923 492.365354 81.287179 492.346043 81.597436 492.328854 81.907692 492.313797 82.217949 492.300881 82.528205 492.290117 82.838462 492.281514 83.148718 492.275082 83.458974 492.270831 83.769231 492.268770 84.079487 492.268910 84.389744 492.271260 84.700000 492.275829 85.010256 492.282628 85.320513 492.291667 85.630769 492.302955 85.941026 492.316502 86.251282 492.332317 86.561538 492.350411 86.871795 492.370794 87.182051 492.393474 87.492308 492.418463 87.802564 492.445769 88.112821 492.475402 88.423077 492.507373 88.733333 492.541691 89.043590 492.578365 89.353846 492.617406 89.664103 492.658824 89.974359 492.702627 90.284615 492.748826 90.594872 492.797431 90.905128 492.848452 91.215385 492.901898 91.525641 492.957778 91.835897 493.016098 92.146154 493.076838 92.456410 493.139972 92.766667 493.205478 93.076923 493.273328 93.387179 493.343500 93.697436 493.415967 94.007692 493.490706 94.317949 493.567690 94.628205 493.646897 94.938462 493.728300 95.248718 493.811875 95.558974 493.897596 95.869231 493.985441 96.179487 494.075382 96.489744 494.167396 96.800000 494.261458 97.110256 494.357543 97.420513 494.455627 97.730769 494.555683 98.041026 494.657689 98.351282 494.761618 98.661538 494.867446 98.971795 494.975148 99.282051 495.084699 99.592308 495.196075 99.902564 495.309251 100.212821 495.424201 100.523077 495.540902 100.833333 495.659328 101.143590 495.779455 101.453846 495.901257 101.764103 496.024710 102.074359 496.149789 102.384615 496.276469 102.694872 496.404726 103.005128 496.534534 103.315385 496.665869 103.625641 496.798707 103.935897 496.933021 104.246154 497.068788 104.556410 497.205982 104.866667 497.344579 105.176923 497.484554 105.487179 497.625882 105.797436 497.768539 106.107692 497.912499 106.417949 498.057738 106.728205 498.204230 107.038462 498.351952 107.348718 498.500878 107.658974 498.650983 107.969231 498.802243 108.279487 498.954633 108.589744 499.108128 108.900000 499.262704 109.210256 499.418334 109.520513 499.574995 109.830769 499.732663 110.141026 499.891311 110.451282 500.050915 110.761538 500.211450 111.071795 500.372893 111.382051 500.535216 111.692308 500.698397 112.002564 500.862410 112.312821 501.027231 112.623077 501.192833 112.933333 501.359194 113.243590 501.526287 113.553846 501.694089 113.864103 501.862573 114.174359 502.031717 114.484615 502.201493 114.794872 502.371879 115.105128 502.542849 115.415385 502.714378 115.725641 502.886441 116.035897 503.059014 116.346154 503.232072 116.656410 503.405589 116.966667 503.579542 117.276923 503.753905 117.587179 503.928654 117.897436 504.103764 118.207692 504.279209 118.517949 504.454966 118.828205 504.631008 119.138462 504.807313 119.448718 504.983854 119.758974 505.160607 120.069231 505.337547 120.379487 505.514649 120.689744 505.691888 121.000000 505.869241 121.310256 506.046681 121.620513 506.224184 121.930769 506.401725 122.241026 506.579280 122.551282 506.756824 122.861538 506.934331 123.171795 507.111777 123.482051 507.289137 123.792308 507.466387 124.102564 507.643501 124.412821 507.820455 124.723077 507.997223 125.033333 508.173782 125.343590 508.350106 125.653846 508.526171 125.964103 508.701951 126.274359 508.877422 126.584615 509.052560 126.894872 509.227338 127.205128 509.401733 127.515385 509.575720 127.825641 509.749273 128.135897 509.922368 128.446154 510.094981 128.756410 510.267086 129.066667 510.438658 129.376923 510.609674 129.687179 510.780107 129.997436 510.949933 130.307692 511.119128 130.617949 511.287666 130.928205 511.455523 131.238462 511.622674 131.548718 511.789094 131.858974 511.954758 132.169231 512.119642 132.479487 512.283720 132.789744 512.446969 133.100000 512.609362 133.410256 512.770876 133.720513 512.931484 134.030769 513.091164 134.341026 513.249889 134.651282 513.407636 134.961538 513.564378 135.271795 513.720092 135.582051 513.874753 135.892308 514.028335 136.202564 514.180814 136.512821 514.332165 136.823077 514.482364 137.133333 514.631385 137.443590 514.779204 137.753846 514.925796 138.064103 515.071135 138.374359 515.215199 138.684615 515.357960 138.994872 515.499395 139.305128 515.639479 139.615385 515.778187 139.925641 515.915495 140.235897 516.051377 140.546154 516.185808 140.856410 516.318764 141.166667 516.450220 141.476923 516.580151 141.787179 516.708533 142.097436 516.835340 142.407692 516.960548 142.717949 517.084132 143.028205 517.206067 143.338462 517.326328 143.648718 517.444891 143.958974 517.561730 144.269231 517.676822 144.579487 517.790140 144.889744 517.901661 145.200000 518.011359 145.510256 518.119210 145.820513 518.225189 146.130769 518.329270 146.441026 518.431430 146.751282 518.531643 147.061538 518.629885 147.371795 518.726131 147.682051 518.820355 147.992308 518.912534 148.302564 519.002642 148.612821 519.090655 148.923077 519.176547 149.233333 519.260295 149.543590 519.341872 149.853846 519.421255 150.164103 519.498418 150.474359 519.573337 150.784615 519.645987 151.094872 519.716342 151.405128 519.784379 151.715385 519.850073 152.025641 519.913398 152.335897 519.974330 152.646154 520.032844 152.956410 520.088915 153.266667 520.142519 153.576923 520.193630 153.887179 520.242224 154.197436 520.288276 154.507692 520.331761 154.817949 520.372654 155.128205 520.410931 155.438462 520.446567 155.748718 520.479536 156.058974 520.509815 156.369231 520.537378 156.679487 520.562200 156.989744 520.584257 157.300000 520.603524 157.610256 520.619976 157.920513 520.633588 158.230769 520.644336 158.541026 520.652194 158.851282 520.657138 159.161538 520.659143 159.471795 520.658184 159.782051 520.654237 160.092308 520.647276 160.402564 520.637277 160.712821 520.624215 161.023077 520.608065 161.333333 520.588802 161.643590 520.566402 161.953846 520.540840 162.264103 520.512090 162.574359 520.480129 162.884615 520.444931 163.194872 520.406471 163.505128 520.364725 163.815385 520.319668 164.125641 520.271275 164.435897 520.219521 164.746154 520.164382 165.056410 520.105832 165.366667 520.043847 165.676923 519.978401 165.987179 519.909472 166.297436 519.837032 166.607692 519.761058 166.917949 519.681525 167.228205 519.598407 167.538462 519.511681 167.848718 519.421321 168.158974 519.327303 168.469231 519.229601 168.779487 519.128192 169.089744 519.023049 169.400000 518.914155 169.710256 518.801519 170.020513 518.685155 170.330769 518.565080 170.641026 518.441307 170.951282 518.313853 171.261538 518.182733 171.571795 518.047961 171.882051 517.909553 172.192308 517.767525 172.502564 517.621891 172.812821 517.472667 173.123077 517.319868 173.433333 517.163509 173.743590 517.003605 174.053846 516.840172 174.364103 516.673224 174.674359 516.502778 174.984615 516.328848 175.294872 516.151450 175.605128 515.970598 175.915385 515.786308 176.225641 515.598595 176.535897 515.407475 176.846154 515.212962 177.156410 515.015072 177.466667 514.813820 177.776923 514.609221 178.087179 514.401291 178.397436 514.190044 178.707692 513.975497 179.017949 513.757663 179.328205 513.536559 179.638462 513.312200 179.948718 513.084600 180.258974 512.853775 180.569231 512.619741 180.879487 512.382512 181.189744 512.142104 181.500000 511.898531 181.810256 511.651810 182.120513 511.401955 182.430769 511.148982 182.741026 510.892905 183.051282 510.633741 183.361538 510.371504 183.671795 510.106209 183.982051 509.837872 184.292308 509.566508 184.602564 509.292132 184.912821 509.014759 185.223077 508.734405 185.533333 508.451085 185.843590 508.164814 186.153846 507.875607 186.464103 507.583479 186.774359 507.288447 187.084615 506.990524 187.394872 506.689726 187.705128 506.386068 188.015385 506.079567 188.325641 505.770236 188.635897 505.458091 188.946154 505.143147 189.256410 504.825419 189.566667 504.504924 189.876923 504.181675 190.187179 503.855688 190.497436 503.526979 190.807692 503.195562 191.117949 502.861453 191.428205 502.524668 191.738462 502.185220 192.048718 501.843126 192.358974 501.498400 192.669231 501.151059 192.979487 500.801116 193.289744 500.448588 193.600000 500.093489 193.910256 499.735836 194.220513 499.375642 194.530769 499.012923 194.841026 498.647695 195.151282 498.279973 195.461538 497.909771 195.771795 497.537106 196.082051 497.161992 196.392308 496.784444 196.702564 496.404479 197.012821 496.022110 197.323077 495.637353 197.633333 495.250224 197.943590 494.860738 198.253846 494.468910 198.564103 494.074754 198.874359 493.678287 199.184615 493.279524 199.494872 492.878479 199.805128 492.475169 200.115385 492.069607 200.425641 491.661810 200.735897 491.251793 201.046154 490.839570 201.356410 490.425158 201.666667 490.008571 201.976923 489.589825 202.287179 489.168934 202.597436 488.745914 202.907692 488.320781 203.217949 487.893549 203.528205 487.464234 203.838462 487.032850 204.148718 486.599414 204.458974 486.163940 204.769231 485.726444 205.079487 485.286940 205.389744 484.845444 205.700000 484.401972 206.010256 483.956538 206.320513 483.509157 206.630769 483.059846 206.941026 482.608619 207.251282 482.155491 207.561538 481.700477 207.871795 481.243593 208.182051 480.784855 208.492308 480.324276 208.802564 479.861873 209.112821 479.397661 209.423077 478.931654 209.733333 478.463869 210.043590 477.994320 210.353846 477.523022 210.664103 477.049991 210.974359 476.575242 211.284615 476.098791 211.594872 475.620652 211.905128 475.140840 212.215385 474.659371 212.525641 474.176261 212.835897 473.691524 213.146154 473.205175 213.456410 472.717230 213.766667 472.227704 214.076923 471.736612 214.387179 471.243970 214.697436 470.749792 215.007692 470.254095 215.317949 469.756892 215.628205 469.258200 215.938462 468.758033 216.248718 468.256407 216.558974 467.753337 216.869231 467.248838 217.179487 466.742925 217.489744 466.235614 217.800000 465.726921 218.110256 465.216859 218.420513 464.705444 218.730769 464.192692 219.041026 463.678618 219.351282 463.163237 219.661538 462.646563 219.971795 462.128614 220.282051 461.609403 220.592308 461.088946 220.902564 460.567258 221.212821 460.044354 221.523077 459.520249 221.833333 458.994960 222.143590 458.468500 222.453846 457.940886 222.764103 457.412132 223.074359 456.882254 223.384615 456.351267 223.694872 455.819185 224.005128 455.286025 224.315385 454.751802 224.625641 454.216530 224.935897 453.680225 225.246154 453.142903 225.556410 452.604577 225.866667 452.065265 226.176923 451.524980 226.487179 450.983739 226.797436 450.441555 227.107692 449.898446 227.417949 449.354425 227.728205 448.809507 228.038462 448.263710 228.348718 447.717046 228.658974 447.169532 228.969231 446.621183 229.279487 446.072014 229.589744 445.522041 229.900000 444.971278 230.210256 444.419740 230.520513 443.867444 230.830769 443.314404 231.141026 442.760635 231.451282 442.206153 231.761538 441.650972 232.071795 441.095109 232.382051 440.538578 232.692308 439.981395 233.002564 439.423574 233.312821 438.865131 233.623077 438.306082 233.933333 437.746440 234.243590 437.186223 234.553846 436.625444 234.864103 436.064120 235.174359 435.502264 235.484615 434.939893 235.794872 434.377022 236.105128 433.813666 236.415385 433.249840 236.725641 432.685559 237.035897 432.120840 237.346154 431.555695 237.656410 430.990142 237.966667 430.424196 238.276923 429.857870 238.587179 429.291182 238.897436 428.724145 239.207692 428.156776 239.517949 427.589089 239.828205 427.021099 240.138462 426.452823 240.448718 425.884274 240.758974 425.315469 241.069231 424.746422 241.379487 424.177149 241.689744 423.607665 242.000000 423.037985 242.310256 422.468125 242.620513 421.898099 242.930769 421.327923 243.241026 420.757612 243.551282 420.187181 243.861538 419.616646 244.171795 419.046021 244.482051 418.475323 244.792308 417.904566 245.102564 417.333765 245.412821 416.762935 245.723077 416.192093 246.033333 415.621252 246.343590 415.050429 246.653846 414.479638 246.964103 413.908895 247.274359 413.338214 247.584615 412.767609 247.894872 412.197095 248.205128 411.626685 248.515385 411.056395 248.825641 410.486238 249.135897 409.916229 249.446154 409.346381 249.756410 408.776711 250.066667 408.207230 250.376923 407.637955 250.687179 407.068898 250.997436 406.500075 251.307692 405.931500 251.617949 405.363187 251.928205 404.795150 252.238462 404.227404 252.548718 403.659962 252.858974 403.092840 253.169231 402.526051 253.479487 401.959609 253.789744 401.393530 254.100000 400.827827 254.410256 400.262514 254.720513 399.697607 255.030769 399.133118 255.341026 398.569063 255.651282 398.005456 255.961538 397.442310 256.271795 396.879641 256.582051 396.317462 256.892308 395.755789 257.202564 395.194634 257.512821 394.634013 257.823077 394.073939 258.133333 393.514427 258.443590 392.955492 258.753846 392.397147 259.064103 391.839407 259.374359 391.282286 259.684615 390.725799 259.994872 390.169959 260.305128 389.614781 260.615385 389.060279 260.925641 388.506468 261.235897 387.953362 261.546154 387.400975 261.856410 386.849321 262.166667 386.298415 262.476923 385.748271 262.787179 385.198903 263.097436 384.650326 263.407692 384.102553 263.717949 383.555600 264.028205 383.009480 264.338462 382.464208 264.648718 381.919797 264.958974 381.376263 265.269231 380.833619 265.579487 380.291881 265.889744 379.751061 266.200000 379.211175 266.510256 378.672236 266.820513 378.134259 267.130769 377.597259 267.441026 377.061249 267.751282 376.526243 268.061538 375.992257 268.371795 375.459305 268.682051 374.927400 268.992308 374.396556 269.302564 373.866790 269.612821 373.338113 269.923077 372.810542 270.233333 372.284089 270.543590 371.758770 270.853846 371.234598 271.164103 370.711589 271.474359 370.189756 271.784615 369.669113 272.094872 369.149675 272.405128 368.631456 272.715385 368.114470 273.025641 367.598732 273.335897 367.084256 273.646154 366.571057 273.956410 366.059147 274.266667 365.548543 274.576923 365.039257 274.887179 364.531305 275.197436 364.024701 275.507692 363.519458 275.817949 363.015592 276.128205 362.513116 276.438462 362.012045 276.748718 361.512393 277.058974 361.014175 277.369231 360.517404 277.679487 360.022095 277.989744 359.528262 278.300000 359.035919 278.610256 358.545082 278.920513 358.055763 279.230769 357.567978 279.541026 357.081741 279.851282 356.597065 280.161538 356.113965 280.471795 355.632457 280.782051 355.152552 281.092308 354.674267 281.402564 354.197615 281.712821 353.722611 282.023077 353.249269 282.333333 352.777603 282.643590 352.307627 282.953846 351.839356 283.264103 351.372805 283.574359 350.907986 283.884615 350.444915 284.194872 349.983606 284.505128 349.524074 284.815385 349.066331 285.125641 348.610394 285.435897 348.156275 285.746154 347.703990 286.056410 347.253553 286.366667 346.804977 286.676923 346.358278 286.987179 345.913469 287.297436 345.470564 287.607692 345.029579 287.917949 344.590527 288.228205 344.153423 288.538462 343.718281 288.848718 343.285114 289.158974 342.853939 289.469231 342.424768 289.779487 341.997616 290.089744 341.572497 290.400000 341.149426 290.710256 340.728417 291.020513 340.309484 291.330769 339.892641 291.641026 339.477903 291.951282 339.065284 292.261538 338.654799 292.571795 338.246461 292.882051 337.840285 293.192308 337.436285 293.502564 337.034476 293.812821 336.634871 294.123077 336.237485 294.433333 335.842333 294.743590 335.449428 295.053846 335.058785 295.364103 334.670419 295.674359 334.284342 295.984615 333.900571 296.294872 333.519118 296.605128 333.139999 296.915385 332.763227 297.225641 332.388817 297.535897 332.016784 297.846154 331.647141 298.156410 331.279902 298.466667 330.915083 298.776923 330.552696 299.087179 330.192758 299.397436 329.835281 299.707692 329.480280 300.017949 329.127770 300.328205 328.777765 300.638462 328.430278 300.948718 328.085325 301.258974 327.742919 301.569231 327.403076 301.879487 327.065808 302.189744 326.731131 302.500000 326.399058 302.810256 326.069605 303.120513 325.742784 303.430769 325.418612 303.741026 325.097101 304.051282 324.778266 304.361538 324.462122 304.671795 324.148682 304.982051 323.837962 305.292308 323.529975 305.602564 323.224735 305.912821 322.922257 306.223077 322.622555 306.533333 322.325644 306.843590 322.031537 307.153846 321.740250 307.464103 321.451795 307.774359 321.166188 308.084615 320.883443 308.394872 320.603574 308.705128 320.326596 309.015385 320.052522 309.325641 319.781367 309.635897 319.513146 309.946154 319.247872 310.256410 318.985559 310.566667 318.726223 310.876923 318.469878 311.187179 318.216537 311.497436 317.966215 311.807692 317.718926 312.117949 317.474685 312.428205 317.233505 312.738462 316.995402 313.048718 316.760389 313.358974 316.528481 313.669231 316.299692 313.979487 316.074036 314.289744 315.851527 314.600000 315.632181 314.910256 315.416010 315.220513 315.203030 315.530769 314.993255 315.841026 314.786698 316.151282 314.583375 316.461538 314.383299 316.771795 314.186485 317.082051 313.992947 317.392308 313.802700 317.702564 313.615757 318.012821 313.432133 318.323077 313.251843 318.633333 313.074900 318.943590 312.901318 319.253846 312.731113 319.564103 312.564298 319.874359 312.400888 320.184615 312.240897 320.494872 312.084339 320.805128 311.931229 321.115385 311.781580 321.425641 311.635408 321.735897 311.492725 322.046154 311.353548 322.356410 311.217889 322.666667 311.085764 322.976923 310.957186 323.287179 310.832170 323.597436 310.710730 323.907692 310.592881 324.217949 310.478636 324.528205 310.368002 324.838462 310.260954 325.148718 310.157460 325.458974 310.057487 325.769231 309.961003 326.079487 309.867974 326.389744 309.778368 326.700000 309.692152 327.010256 309.609294 327.320513 309.529761 327.630769 309.453521 327.941026 309.380540 328.251282 309.310786 328.561538 309.244227 328.871795 309.180829 329.182051 309.120561 329.492308 309.063389 329.802564 309.009281 330.112821 308.958203 330.423077 308.910125 330.733333 308.865012 331.043590 308.822832 331.353846 308.783553 331.664103 308.747142 331.974359 308.713566 332.284615 308.682792 332.594872 308.654789 332.905128 308.629522 333.215385 308.606960 333.525641 308.587070 333.835897 308.569820 334.146154 308.555176 334.456410 308.543106 334.766667 308.533577 335.076923 308.526557 335.387179 308.522013 335.697436 308.519912 336.007692 308.520222 336.317949 308.522909 336.628205 308.527943 336.938462 308.535289 337.248718 308.544915 337.558974 308.556788 337.869231 308.570876 338.179487 308.587146 338.489744 308.605566 338.800000 308.626102 339.110256 308.648723 339.420513 308.673395 339.730769 308.700086 340.041026 308.728763 340.351282 308.759393 340.661538 308.791945 340.971795 308.826384 341.282051 308.862679 341.592308 308.900797 341.902564 308.940705 342.212821 308.982371 342.523077 309.025761 342.833333 309.070844 343.143590 309.117587 343.453846 309.165956 343.764103 309.215920 344.074359 309.267445 344.384615 309.320499 344.694872 309.375050 345.005128 309.431064 345.315385 309.488509 345.625641 309.547353 345.935897 309.607562 346.246154 309.669104 346.556410 309.731947 346.866667 309.796058 347.176923 309.861403 347.487179 309.927951 347.797436 309.995669 348.107692 310.064523 348.417949 310.134483 348.728205 310.205514 349.038462 310.277584 349.348718 310.350661 349.658974 310.424711 349.969231 310.499703 350.279487 310.575603 350.589744 310.652379 350.900000 310.729998 351.210256 310.808428 351.520513 310.887636 351.830769 310.967589 352.141026 311.048254 352.451282 311.129599 352.761538 311.211592 353.071795 311.294199 353.382051 311.377389 353.692308 311.461127 354.002564 311.545382 354.312821 311.630122 354.623077 311.715312 354.933333 311.800921 355.243590 311.886917 355.553846 311.973265 355.864103 312.059935 356.174359 312.146892 356.484615 312.234105 356.794872 312.321540 357.105128 312.409166 357.415385 312.496949 357.725641 312.584857 358.035897 312.672857 358.346154 312.760916 358.656410 312.849003 358.966667 312.937083 359.276923 313.025125 359.587179 313.113096 359.897436 313.200963 360.207692 313.288693 360.517949 313.376254 360.828205 313.463614 361.138462 313.550739 361.448718 313.637597 361.758974 313.724156 362.069231 313.810381 362.379487 313.896242 362.689744 313.981705 363.000000 314.066738 363.310256 314.151308 363.620513 314.235382 363.930769 314.318928 364.241026 314.401913 364.551282 314.484304 364.861538 314.566069 365.171795 314.647174 365.482051 314.727589 365.792308 314.807279 366.102564 314.886212 366.412821 314.964355 366.723077 315.041676 367.033333 315.118143 367.343590 315.193722 367.653846 315.268380 367.964103 315.342086 368.274359 315.414806 368.584615 315.486508 368.894872 315.557160 369.205128 315.626727 369.515385 315.695179 369.825641 315.762482 370.135897 315.828603 370.446154 315.893511 370.756410 315.957171 371.066667 316.019552 371.376923 316.080621 371.687179 316.140346 371.997436 316.198693 372.307692 316.255629 372.617949 316.311124 372.928205 316.365143 373.238462 316.417653 373.548718 316.468624 373.858974 316.518021 374.169231 316.565811 374.479487 316.611964 374.789744 316.656445 375.100000 316.699222 375.410256 316.740262 375.720513 316.779534 376.030769 316.817003 376.341026 316.852638 376.651282 316.886405 376.961538 316.918273 377.271795 316.948208 377.582051 316.976178 377.892308 317.002150 378.202564 317.026092 378.512821 317.047970 378.823077 317.067753 379.133333 317.085407 379.443590 317.100900 379.753846 317.114200 380.064103 317.125273 380.374359 317.134087 380.684615 317.140609 380.994872 317.144806 381.305128 317.146647 381.615385 317.146098 381.925641 317.143127 382.235897 317.137700 382.546154 317.129786 382.856410 317.119352 383.166667 317.106364 383.476923 317.090791 383.787179 317.072600 384.097436 317.051758 384.407692 317.028232 384.717949 317.001989 385.028205 316.972998 385.338462 316.941226 385.648718 316.906639 385.958974 316.869205 386.269231 316.828892 386.579487 316.785666 386.889744 316.739496 387.200000 316.690348 387.510256 316.638190 387.820513 316.582989 388.130769 316.524713 388.441026 316.463328 388.751282 316.398803 389.061538 316.331104 389.371795 316.260200 389.682051 316.186056 389.992308 316.108641 390.302564 316.027922 390.612821 315.943866 390.923077 315.856441 391.233333 315.765614 391.543590 315.671352 391.853846 315.573623 392.164103 315.472394 392.474359 315.367632 392.784615 315.259305 393.094872 315.147380 393.405128 315.031824 393.715385 314.912605 394.025641 314.789690 394.335897 314.663047 394.646154 314.532642 394.956410 314.398443 395.266667 314.260418 395.576923 314.118534 395.887179 313.972757 396.197436 313.823057 396.507692 313.669399 396.817949 313.511751 397.128205 313.350080 397.438462 313.184355 397.748718 313.014542 398.058974 312.840608 398.369231 312.662521 398.679487 312.480249 398.989744 312.293758 399.300000 312.103015 399.610256 311.907990 399.920513 311.708647 400.230769 311.504956 400.541026 311.296883 400.851282 311.084396 401.161538 310.867462 401.471795 310.646048 401.782051 310.420121 402.092308 310.189661 402.402564 309.954686 402.712821 309.715227 403.023077 309.471316 403.333333 309.222984 403.643590 308.970260 403.953846 308.713176 404.264103 308.451763 404.574359 308.186052 404.884615 307.916072 405.194872 307.641856 405.505128 307.363433 405.815385 307.080835 406.125641 306.794092 406.435897 306.503236 406.746154 306.208297 407.056410 305.909305 407.366667 305.606292 407.676923 305.299289 407.987179 304.988325 408.297436 304.673433 408.607692 304.354643 408.917949 304.031985 409.228205 303.705491 409.538462 303.375191 409.848718 303.041116 410.158974 302.703297 410.469231 302.361764 410.779487 302.016549 411.089744 301.667682 411.400000 301.315194 411.710256 300.959116 412.020513 300.599479 412.330769 300.236313 412.641026 299.869649 412.951282 299.499519 413.261538 299.125952 413.571795 298.748980 413.882051 298.368633 414.192308 297.984942 414.502564 297.597939 414.812821 297.207653 415.123077 296.814116 415.433333 296.417359 415.743590 296.017412 416.053846 295.614306 416.364103 295.208071 416.674359 294.798739 416.984615 294.386341 417.294872 293.970907 417.605128 293.552468 417.915385 293.131055 418.225641 292.706699 418.535897 292.279430 418.846154 291.849279 419.156410 291.416277 419.466667 290.980455 419.776923 290.541844 420.087179 290.100474 420.397436 289.656377 420.707692 289.209582 421.017949 288.760122 421.328205 288.308026 421.638462 287.853325 421.948718 287.396051 422.258974 286.936234 422.569231 286.473905 422.879487 286.009094 423.189744 285.541833 423.500000 285.072152 423.810256 284.600082 424.120513 284.125654 424.430769 283.648899 424.741026 283.169847 425.051282 282.688529 425.361538 282.204977 425.671795 281.719220 425.982051 281.231290 426.292308 280.741217 426.602564 280.249033 426.912821 279.754768 427.223077 279.258452 427.533333 278.760118 427.843590 278.259794 428.153846 277.757513 428.464103 277.253306 428.774359 276.747201 429.084615 276.239232 429.394872 275.729428 429.705128 275.217821 430.015385 274.704440 430.325641 274.189317 430.635897 273.672483 430.946154 273.153969 431.256410 272.633805 431.566667 272.112021 431.876923 271.588650 432.187179 271.063721 432.497436 270.537266 432.807692 270.009315 433.117949 269.479900 433.428205 268.949050 433.738462 268.416796 434.048718 267.883171 434.358974 267.348203 434.669231 266.811925 434.979487 266.274366 435.289744 265.735558 435.600000 265.195532 435.910256 264.654318 436.220513 264.111947 436.530769 263.568450 436.841026 263.023857 437.151282 262.478201 437.461538 261.931510 437.771795 261.383816 438.082051 260.835151 438.392308 260.285544 438.702564 259.735026 439.012821 259.183629 439.323077 258.631383 439.633333 258.078318 439.943590 257.524467 440.253846 256.969859 440.564103 256.414525 440.874359 255.858496 441.184615 255.301804 441.494872 254.744477 441.805128 254.186549 442.115385 253.628049 442.425641 253.069007 442.735897 252.509456 443.046154 251.949425 443.356410 251.388946 443.666667 250.828049 443.976923 250.266766 444.287179 249.705126 444.597436 249.143161 444.907692 248.580901 445.217949 248.018378 445.528205 247.455621 445.838462 246.892663 446.148718 246.329533 446.458974 245.766263 446.769231 245.202883 447.079487 244.639425 447.389744 244.075918 447.700000 243.512394 448.010256 242.948883 448.320513 242.385417 448.630769 241.822026 448.941026 241.258740 449.251282 240.695592 449.561538 240.132611 449.871795 239.569828 450.182051 239.007274 450.492308 238.444980 450.802564 237.882977 451.112821 237.321296 451.423077 236.759966 451.733333 236.199020 452.043590 235.638488 452.353846 235.078401 452.664103 234.518789 452.974359 233.959683 453.284615 233.401114 453.594872 232.843114 453.905128 232.285712 454.215385 231.728939 454.525641 231.172827 454.835897 230.617406 455.146154 230.062707 455.456410 229.508761 455.766667 228.955598 456.076923 228.403249 456.387179 227.851746 456.697436 227.301119 457.007692 226.751398 457.317949 226.202615 457.628205 225.654800 457.938462 225.107984 458.248718 224.562198 458.558974 224.017473 458.869231 223.473839 459.179487 222.931328 459.489744 222.389970 459.800000 221.849796 460.110256 221.310836 460.420513 220.773122 460.730769 220.236684 461.041026 219.701554 461.351282 219.167761 461.661538 218.635337 461.971795 218.104313 462.282051 217.574719 462.592308 217.046586 462.902564 216.519945 463.212821 215.994827 463.523077 215.471262 463.833333 214.949282 464.143590 214.428917 464.453846 213.910197 464.764103 213.393155 465.074359 212.877820 465.384615 212.364223 465.694872 211.852396 466.005128 211.342368 466.315385 210.834171 466.625641 210.327836 466.935897 209.823393 467.246154 209.320873 467.556410 208.820307 467.866667 208.321726 468.176923 207.825160 468.487179 207.330641 468.797436 206.838199 469.107692 206.347865 469.417949 205.859669 469.728205 205.373643 470.038462 204.889818 470.348718 204.408223 470.658974 203.928891 470.969231 203.451851 471.279487 202.977135 471.589744 202.504773 471.900000 202.034796 472.210256 201.567236 472.520513 201.102122 472.830769 200.639485 473.141026 200.179357 473.451282 199.721768 473.761538 199.266749 474.071795 198.814331 474.382051 198.364544 474.692308 197.917420 475.002564 197.472989 475.312821 197.031281 475.623077 196.592329 475.933333 196.156162 476.243590 195.722811 476.553846 195.292308 476.864103 194.864683 477.174359 194.439966 477.484615 194.018189 477.794872 193.599382 478.105128 193.183576 478.415385 192.770803 478.725641 192.361092 479.035897 191.954475 479.346154 191.550982 479.656410 191.150636 479.966667 190.753428 480.276923 190.359342 480.587179 189.968360 480.897436 189.580466 481.207692 189.195643 481.517949 188.813873 481.828205 188.435140 482.138462 188.059427 482.448718 187.686717 482.758974 187.316993 483.069231 186.950239 483.379487 186.586436 483.689744 186.225570 484.000000 185.867621 484.310256 185.512575 484.620513 185.160412 484.930769 184.811118 485.241026 184.464675 485.551282 184.121066 485.861538 183.780273 486.171795 183.442281 486.482051 183.107073 486.792308 182.774630 487.102564 182.444937 487.412821 182.117977 487.723077 181.793732 488.033333 181.472186 488.343590 181.153322 488.653846 180.837123 488.964103 180.523572 489.274359 180.212653 489.584615 179.904347 489.894872 179.598639 490.205128 179.295511 490.515385 178.994947 490.825641 178.696929 491.135897 178.401441 491.446154 178.108466 491.756410 177.817987 492.066667 177.529987 492.376923 177.244449 492.687179 176.961357 492.997436 176.680692 493.307692 176.402439 493.617949 176.126581 493.928205 175.853100 494.238462 175.581980 494.548718 175.313203 494.858974 175.046754 495.169231 174.782614 495.479487 174.520768 495.789744 174.261198 496.100000 174.003887 496.410256 173.748818 496.720513 173.495975 497.030769 173.245341 497.341026 172.996898 497.651282 172.750630 497.961538 172.506520 498.271795 172.264550 498.582051 172.024705 498.892308 171.786967 499.202564 171.551319 499.512821 171.317745 499.823077 171.086227 500.133333 170.856749 500.443590 170.629293 500.753846 170.403843 501.064103 170.180381 501.374359 169.958892 501.684615 169.739358 501.994872 169.521762 502.305128 169.306087 502.615385 169.092316 502.925641 168.880433 503.235897 168.670420 503.546154 168.462261 503.856410 168.255938 504.166667 168.051436 504.476923 167.848736 504.787179 167.647822 505.097436 167.448677 505.407692 167.251285 505.717949 167.055627 506.028205 166.861689 506.338462 166.669451 506.648718 166.478898 506.958974 166.290013 507.269231 166.102779 507.579487 165.917178 507.889744 165.733195 508.200000 165.550811 508.510256 165.370011 508.820513 165.190776 509.130769 165.013092 509.441026 164.836939 509.751282 164.662302 510.061538 164.489164 510.371795 164.317508 510.682051 164.147316 510.992308 163.978572 511.302564 163.811260 511.612821 163.645361 511.923077 163.480859 512.233333 163.317738 512.543590 163.155981 512.853846 162.995569 513.164103 162.836488 513.474359 162.678719 513.784615 162.522246 514.094872 162.367052 514.405128 162.213119 514.715385 162.060432 515.025641 161.908973 515.335897 161.758725 515.646154 161.609672 515.956410 161.461796 516.266667 161.315081 516.576923 161.169509 516.887179 161.025064 517.197436 160.881729 517.507692 160.739487 517.817949 160.598321 518.128205 160.458214 518.438462 160.319149 518.748718 160.181110 519.058974 160.044079 519.369231 159.908040 519.679487 159.772975 519.989744 159.638868 520.300000 159.505701 520.610256 159.373459 520.920513 159.242124 521.230769 159.111679 521.541026 158.982107 521.851282 158.853391 522.161538 158.725515 522.471795 158.598461 522.782051 158.472213 523.092308 158.346753 523.402564 158.222065 523.712821 158.098132 524.023077 157.974938 524.333333 157.852464 524.643590 157.730694 524.953846 157.609612 525.264103 157.489200 525.574359 157.369441 525.884615 157.250319 526.194872 157.131817 526.505128 157.013917 526.815385 156.896604 527.125641 156.779859 527.435897 156.663666 527.746154 156.548008 528.056410 156.432869 528.366667 156.318231 528.676923 156.204077 528.987179 156.090391 529.297436 155.977156 529.607692 155.864354 529.917949 155.751969 530.228205 155.639984 530.538462 155.528382 530.848718 155.417146 531.158974 155.306259 531.469231 155.195705 531.779487 155.085466 532.089744 154.975525 532.400000 154.865866 532.710256 154.756472 533.020513 154.647325 533.330769 154.538410 533.641026 154.429708 533.951282 154.321203 534.261538 154.212879 534.571795 154.104718 534.882051 153.996703 535.192308 153.888818 535.502564 153.781045 535.812821 153.673368 536.123077 153.565769 536.433333 153.458233 536.743590 153.350741 537.053846 153.243277 537.364103 153.135825 537.674359 153.028367 537.984615 152.920886 538.294872 152.813365 538.605128 152.705788 538.915385 152.598138 539.225641 152.490397 539.535897 152.382549 539.846154 152.274577 540.156410 152.166464 540.466667 152.058194 540.776923 151.949748 541.087179 151.841111 541.397436 151.732265 541.707692 151.623193 542.017949 151.513879 542.328205 151.404306 542.638462 151.294457 542.948718 151.184314 543.258974 151.073861 543.569231 150.963082 543.879487 150.851958 544.189744 150.740474 544.500000 150.628613 544.810256 150.516356 545.120513 150.403688 545.430769 150.290592 545.741026 150.177051 546.051282 150.063047 546.361538 149.948565 546.671795 149.833586 546.982051 149.718095 547.292308 149.602073 547.602564 149.485505 547.912821 149.368374 548.223077 149.250662 548.533333 149.132353 548.843590 149.013429 549.153846 148.893874 549.464103 148.773671 549.774359 148.652803 550.084615 148.531253 550.394872 148.409004 550.705128 148.286040 551.015385 148.162343 551.325641 148.037896 551.635897 147.912683 551.946154 147.786687 552.256410 147.659891 552.566667 147.532277 552.876923 147.403829 553.187179 147.274530 553.497436 147.144364 553.807692 147.013313 554.117949 146.881360 554.428205 146.748488 554.738462 146.614681 555.048718 146.479922 555.358974 146.344194 555.669231 146.207479 555.979487 146.069761 556.289744 145.931023 556.600000 145.791249 556.910256 145.650420 557.220513 145.508525 557.530769 145.365562 557.841026 145.221536 558.151282 145.076451 558.461538 144.930310 558.771795 144.783116 559.082051 144.634874 559.392308 144.485588 559.702564 144.335261 560.012821 144.183896 560.323077 144.031498 560.633333 143.878071 560.943590 143.723617 561.253846 143.568140 561.564103 143.411646 561.874359 143.254136 562.184615 143.095615 562.494872 142.936086 562.805128 142.775554 563.115385 142.614022 563.425641 142.451493 563.735897 142.287972 564.046154 142.123462 564.356410 141.957967 564.666667 141.791490 564.976923 141.624036 565.287179 141.455608 565.597436 141.286209 565.907692 141.115844 566.217949 140.944516 566.528205 140.772228 566.838462 140.598986 567.148718 140.424791 567.458974 140.249649 567.769231 140.073562 568.079487 139.896535 568.389744 139.718571 568.700000 139.539674 569.010256 139.359848 569.320513 139.179095 569.630769 138.997421 569.941026 138.814829 570.251282 138.631322 570.561538 138.446904 570.871795 138.261580 571.182051 138.075351 571.492308 137.888224 571.802564 137.700200 572.112821 137.511284 572.423077 137.321480 572.733333 137.130790 573.043590 136.939220 573.353846 136.746773 573.664103 136.553451 573.974359 136.359260 574.284615 136.164203 574.594872 135.968283 574.905128 135.771505 575.215385 135.573871 575.525641 135.375386 575.835897 135.176054 576.146154 134.975878 576.456410 134.774861 576.766667 134.573008 577.076923 134.370323 577.387179 134.166808 577.697436 133.962468 578.007692 133.757307 578.317949 133.551327 578.628205 133.344534 578.938462 133.136930 579.248718 132.928520 579.558974 132.719306 579.869231 132.509293 580.179487 132.298485 580.489744 132.086885 580.800000 131.874497 581.110256 131.661324 581.420513 131.447371 581.730769 131.232641 582.041026 131.017137 582.351282 130.800864 582.661538 130.583826 582.971795 130.366025 583.282051 130.147466 583.592308 129.928152 583.902564 129.708087 584.212821 129.487275 584.523077 129.265720 584.833333 129.043425 585.143590 128.820394 585.453846 128.596630 585.764103 128.372138 586.074359 128.146921 586.384615 127.920983 586.694872 127.694327 587.005128 127.466958 587.315385 127.238878 587.625641 127.010093 587.935897 126.780604 588.246154 126.550417 588.556410 126.319535 588.866667 126.087961 589.176923 125.855700 589.487179 125.622754 589.797436 125.389129 590.107692 125.154827 590.417949 124.919851 590.728205 124.684207 591.038462 124.447898 591.348718 124.210926 591.658974 123.973297 591.969231 123.735014 592.279487 123.496080 592.589744 123.256499 592.900000 123.016275 593.210256 122.775412 593.520513 122.533913 593.830769 122.291782 594.141026 122.049023 594.451282 121.805639 594.761538 121.561635 595.071795 121.317014 595.382051 121.071779 595.692308 120.825935 596.002564 120.579484 596.312821 120.332432 596.623077 120.084781 596.933333 119.836535 597.243590 119.587699 597.553846 119.338275 597.864103 119.088267 598.174359 118.837679 598.484615 118.586516 598.794872 118.334780 599.105128 118.082475 599.415385 117.829605 599.725641 117.576174 600.035897 117.322185 600.346154 117.067643 600.656410 116.812550 600.966667 116.556911 601.276923 116.300729 601.587179 116.044008 601.897436 115.786752 602.207692 115.528965 602.517949 115.270649 602.828205 115.011810 603.138462 114.752450 603.448718 114.492573 603.758974 114.232184 604.069231 113.971285 604.379487 113.709881 604.689744 113.447975 605.000000 113.185571 605.310256 112.922672 605.620513 112.659283 605.930769 112.395407 606.241026 112.131048 606.551282 111.866209 606.861538 111.600895 607.171795 111.335108 607.482051 111.068853 607.792308 110.802134 608.102564 110.534953 608.412821 110.267316 608.723077 109.999225 609.033333 109.730684 609.343590 109.461697 609.653846 109.192268 609.964103 108.922400 610.274359 108.652098 610.584615 108.381364 610.894872 108.110203 611.205128 107.838618 611.515385 107.566613 611.825641 107.294192 612.135897 107.021358 612.446154 106.748116 612.756410 106.474468 613.066667 106.200419 613.376923 105.925973 613.687179 105.651132 613.997436 105.375901 614.307692 105.100283 614.617949 104.824283 614.928205 104.547904 615.238462 104.271149 615.548718 103.994023 615.858974 103.716528 616.169231 103.438670 616.479487 103.160451 616.789744 102.881875 617.100000 102.602946 617.410256 102.323667 617.720513 102.044044 618.030769 101.764078 618.341026 101.483774 618.651282 101.203135 618.961538 100.922166 619.271795 100.640870 619.582051 100.359250 619.892308 100.077311 620.202564 99.795056 620.512821 99.512488 620.823077 99.229613 621.133333 98.946432 621.443590 98.662951 621.753846 98.379172 622.064103 98.095100 622.374359 97.810738 622.684615 97.526089 622.994872 97.241159 623.305128 96.955949 623.615385 96.670465 623.925641 96.384709 624.235897 96.098686 624.546154 95.812399 624.856410 95.525852 625.166667 95.239048 625.476923 94.951992 625.787179 94.664687 626.097436 94.377136 626.407692 94.089344 626.717949 93.801314 627.028205 93.513051 627.338462 93.224556 627.648718 92.935835 627.958974 92.646892 628.269231 92.357729 628.579487 92.068350 628.889744 91.778760 629.200000 91.488962 629.510256 91.198959 629.820513 90.908756 630.130769 90.618356 630.441026 90.327762 630.751282 90.036979 631.061538 89.746011 631.371795 89.454860 631.682051 89.163531 631.992308 88.872028 632.302564 88.580353 632.612821 88.288512 632.923077 87.996507 633.233333 87.704342 633.543590 87.412022 633.853846 87.119549 634.164103 86.826927 634.474359 86.534161 634.784615 86.241253 635.094872 85.948204 635.405128 85.655015 635.715385 85.361687 636.025641 85.068221 636.335897 84.774615 636.646154 84.480872 636.956410 84.186992 637.266667 83.892976 637.576923 83.598823 637.887179 83.304535 638.197436 83.010111 638.507692 82.715554 638.817949 82.420863 639.128205 82.126038 639.438462 81.831081 639.748718 81.535992 640.058974 81.240771 640.369231 80.945419 640.679487 80.649937 640.989744 80.354325 641.300000 80.058583 641.610256 79.762713 641.920513 79.466715 642.230769 79.170590 642.541026 78.874337 642.851282 78.577958 643.161538 78.281453 643.471795 77.984822 643.782051 77.688067 644.092308 77.391188 644.402564 77.094185 644.712821 76.797059 645.023077 76.499810 645.333333 76.202440 645.643590 75.904948 645.953846 75.607335 646.264103 75.309602 646.574359 75.011750 646.884615 74.713778 647.194872 74.415688 647.505128 74.117479 647.815385 73.819154 648.125641 73.520711 648.435897 73.222153 648.746154 72.923478 649.056410 72.624688 649.366667 72.325784 649.676923 72.026766 649.987179 71.727634 650.297436 71.428389 650.607692 71.129033 650.917949 70.829564 651.228205 70.529984 651.538462 70.230293 651.848718 69.930492 652.158974 69.630582 652.469231 69.330563 652.779487 69.030436 653.089744 68.730200 653.400000 68.429858 653.710256 68.129408 654.020513 67.828853 654.330769 67.528192 654.641026 67.227426 654.951282 66.926555 655.261538 66.625581 655.571795 66.324503 655.882051 66.023323 656.192308 65.722041 656.502564 65.420656 656.812821 65.119171 657.123077 64.817586 657.433333 64.515900 657.743590 64.214115 658.053846 63.912231 658.364103 63.610249 658.674359 63.308170 658.984615 63.005993 659.294872 62.703720 659.605128 62.401351 659.915385 62.098886 660.225641 61.796326 660.535897 61.493673 660.846154 61.190925 661.156410 60.888085 661.466667 60.585152 661.776923 60.282126 662.087179 59.979010 662.397436 59.675802 662.707692 59.372504 663.017949 59.069117 663.328205 58.765640 663.638462 58.462075 663.948718 58.158421 664.258974 57.854680 664.569231 57.550852 664.879487 57.246938 665.189744 56.942938 665.500000 56.638853 665.810256 56.334683 666.120513 56.030428 666.430769 55.726091 666.741026 55.421670 667.051282 55.117167 667.361538 54.812582 667.671795 54.507916 667.982051 54.203169 668.292308 53.898342 668.602564 53.593435 668.912821 53.288450 669.223077 52.983385 669.533333 52.678243 669.843590 52.373024 670.153846 52.067728 670.464103 51.762355 670.774359 51.456907 671.084615 51.151384 671.394872 50.845786 671.705128 50.540115 672.015385 50.234370 672.325641 49.928552 672.635897 49.622662 672.946154 49.316700 673.256410 49.010667 673.566667 48.704564 673.876923 48.398390 674.187179 48.092148 674.497436 47.785836 674.807692 47.479456 675.117949 47.173008 675.428205 46.866493 675.738462 46.559911 676.048718 46.253264 676.358974 45.946551 676.669231 45.639773 676.979487 45.332930 677.289744 45.026024 677.600000 44.719055 677.910256 44.412023 678.220513 44.104928 678.530769 43.797773 678.841026 43.490556 679.151282 43.183279 679.461538 42.875942 679.771795 42.568546 680.082051 42.261091 680.392308 41.953578 680.702564 41.646007 681.012821 41.338380 681.323077 41.030696 681.633333 40.722956 681.943590 40.415160 682.253846 40.107310 682.564103 39.799406 682.874359 39.491448 683.184615 39.183437 683.494872 38.875374 683.805128 38.567259 684.115385 38.259092 684.425641 37.950874 684.735897 37.642607 685.046154 37.334289 685.356410 37.025923 685.666667 36.717507 685.976923 36.409044 686.287179 36.100534 686.597436 35.791976 686.907692 35.483373 687.217949 35.174723 687.528205 34.866029 687.838462 34.557290 688.148718 34.248507 688.458974 33.939680 688.769231 33.630810 689.079487 33.321898 689.389744 33.012945 689.700000 32.703950 690.010256 32.394914 690.320513 32.085839 690.630769 31.776724 690.941026 31.467570 691.251282 31.158377 691.561538 30.849147 691.871795 30.539879 692.182051 30.230575 692.492308 29.921235 692.802564 29.611859 693.112821 29.302448 693.423077 28.993003 693.733333 28.683523 694.043590 28.374011 694.353846 28.064466 694.664103 27.754888 694.974359 27.445279 695.284615 27.135639 695.594872 26.825968 695.905128 26.516268 696.215385 26.206538 696.525641 25.896779 696.835897 25.586993 697.146154 25.277178 697.456410 24.967336 697.766667 24.657468 698.076923 24.347574 698.387179 24.037655 698.697436 23.727710 699.007692 23.417742 699.317949 23.107749 699.628205 22.797734 699.938462 22.487696 700.248718 22.177636 700.558974 21.867554 700.869231 21.557452 701.179487 21.247329 701.489744 20.937186 701.800000 20.627025 702.110256 20.316844 702.420513 20.006646 702.730769 19.696430 703.041026 19.386197 703.351282 19.075948 703.661538 18.765683 703.971795 18.455403 704.282051 18.145108 704.592308 17.834799 704.902564 17.524476 705.212821 17.214140 705.523077 16.903792 705.833333 16.593433 706.143590 16.283061 706.453846 15.972680 706.764103 15.662288 707.074359 15.351886 707.384615 15.041475 707.694872 14.731056 708.005128 14.420629 708.315385 14.110195 708.625641 13.799754 708.935897 13.489306 709.246154 13.178853 709.556410 12.868395 709.866667 12.557933 710.176923 12.247466 710.487179 11.936996 710.797436 11.626523 711.107692 11.316048 711.417949 11.005572 711.728205 10.695094 712.038462 10.384615 712.038462 540.000000" /></g></g><g class="titles" /><g class="plot overlay" transform="translate(54, 20)"><g class="series serie-0 color-0"><g class="dots"><circle class="dot reactive tooltip-trigger" cx="13.96153846153846" cy="529.6153846153846" r="2.5" /><desc class="value">637,196,010(kWh)</desc><desc class="x top">13.96153846153846</desc><desc class="y top">529.6153846153846</desc><desc class="x_label">2549</desc></g><g class="dots"><circle class="dot reactive tooltip-trigger" cx="91.52564102564101" cy="492.9577782284214" r="2.5" /><desc class="value">655,993,284(kWh)</desc><desc class="x top">91.52564102564101</desc><desc class="y top">492.9577782284214</desc><desc class="x_label">2550</desc></g><g class="dots"><circle class="dot reactive tooltip-trigger" cx="169.08974358974356" cy="519.0230489687686" r="2.5" /><desc class="value">642,627,544(kWh)</desc><desc class="x top">169.08974358974356</desc><desc class="y top">519.0230489687686</desc><desc class="x_label">2551</desc></g><g class="dots"><circle class="dot reactive tooltip-trigger" cx="246.65384615384613" cy="414.4796381021814" r="2.5" /><desc class="value">696,235,276(kWh)</desc><desc class="x top">246.65384615384613</desc><desc class="y top">414.4796381021814</desc><desc class="x_label">2552</desc></g><g class="dots"><circle class="dot reactive tooltip-trigger" cx="324.21794871794873" cy="310.4786356725858" r="2.5" /><desc class="value">749,564,872(kWh)</desc><desc class="x top">324.21794871794873</desc><desc class="y top">310.4786356725858</desc><desc class="x_label">2553</desc></g><g class="dots"><circle class="dot reactive tooltip-trigger" cx="401.78205128205127" cy="310.42012125822765" r="2.5" /><desc class="value">749,594,877(kWh)</desc><desc class="x left top">401.78205128205127</desc><desc class="y left top">310.42012125822765</desc><desc class="x_label">2554</desc></g><g class="dots"><circle class="dot reactive tooltip-trigger" cx="479.3461538461538" cy="191.5509815451352" r="2.5" /><desc class="value">810,548,551(kWh)</desc><desc class="x left">479.3461538461538</desc><desc class="y left">191.5509815451352</desc><desc class="x_label">2555</desc></g><g class="dots"><circle class="dot reactive tooltip-trigger" cx="556.9102564102565" cy="145.65042032471865" r="2.5" /><desc class="value">834,085,424(kWh)</desc><desc class="x left">556.9102564102565</desc><desc class="y left">145.65042032471865</desc><desc class="x_label">2556</desc></g><g class="dots"><circle class="dot reactive tooltip-trigger" cx="634.474358974359" cy="86.53416069162819" r="2.5" /><desc class="value">864,399,038(kWh)</desc><desc class="x left">634.474358974359</desc><desc class="y left">86.53416069162819</desc><desc class="x_label">2557</desc></g><g class="dots"><circle class="dot reactive tooltip-trigger" cx="712.0384615384615" cy="10.384615384615358" r="2.5" /><desc class="value">903,446,974(kWh)</desc><desc class="x left">712.0384615384615</desc><desc class="y left">10.384615384615358</desc><desc class="x_label">2558</desc></g></g></g><g class="plot text-overlay" transform="translate(54, 20)"><g class="series serie-0 color-0" /></g><g class="plot tooltip-overlay" transform="translate(54, 20)"><g class="tooltip" style="opacity: 0" transform="translate(0 0)"><rect class="tooltip-box" height="0" rx="0" ry="0" width="0" /><g class="text" /></g></g></g></svg>