<?xml version='1.0' encoding='utf-8'?>
<svg xmlns:xlink="http://www.w3.org/1999/xlink" class="pygal-chart" id="chart-649eec24-1624-4cbd-8091-5623c8449a80" viewBox="0 0 800 600" xmlns="http://www.w3.org/2000/svg"><!--Generated with pygal 2.3.0 (etree) ©Kozea 2012-2016 on 2016-12-08--><!--http://pygal.org--><!--http://github.com/Kozea/pygal--><defs><style type="text/css">#chart-649eec24-1624-4cbd-8091-5623c8449a80{-webkit-user-select:none;-webkit-font-smoothing:antialiased;font-family:Consolas,"Liberation Mono",Menlo,Courier,monospace}#chart-649eec24-1624-4cbd-8091-5623c8449a80 .title{font-family:Consolas,"Liberation Mono",Menlo,Courier,monospace;font-size:16px}#chart-649eec24-1624-4cbd-8091-5623c8449a80 .legends .legend text{font-family:Consolas,"Liberation Mono",Menlo,Courier,monospace;font-size:14px}#chart-649eec24-1624-4cbd-8091-5623c8449a80 .axis text{font-family:Consolas,"Liberation Mono",Menlo,Courier,monospace;font-size:10px}#chart-649eec24-1624-4cbd-8091-5623c8449a80 .axis text.major{font-family:Consolas,"Liberation Mono",Menlo,Courier,monospace;font-size:10px}#chart-649eec24-1624-4cbd-8091-5623c8449a80 .text-overlay text.value{font-family:Consolas,"Liberation Mono",Menlo,Courier,monospace;font-size:16px}#chart-649eec24-1624-4cbd-8091-5623c8449a80 .text-overlay text.label{font-family:Consolas,"Liberation Mono",Menlo,Courier,monospace;font-size:10px}#chart-649eec24-1624-4cbd-8091-5623c8449a80 .tooltip{font-family:Consolas,"Liberation Mono",Menlo,Courier,monospace;font-size:14px}#chart-649eec24-1624-4cbd-8091-5623c8449a80 text.no_data{font-family:Consolas,"Liberation Mono",Menlo,Courier,monospace;font-size:64px}
#chart-649eec24-1624-4cbd-8091-5623c8449a80{background-color:rgba(249,249,249,1)}#chart-649eec24-1624-4cbd-8091-5623c8449a80 path,#chart-649eec24-1624-4cbd-8091-5623c8449a80 line,#chart-649eec24-1624-4cbd-8091-5623c8449a80 rect,#chart-649eec24-1624-4cbd-8091-5623c8449a80 circle{-webkit-transition:150ms;-moz-transition:150ms;transition:150ms}#chart-649eec24-1624-4cbd-8091-5623c8449a80 .graph &gt; .background{fill:rgba(249,249,249,1)}#chart-649eec24-1624-4cbd-8091-5623c8449a80 .plot &gt; .background{fill:rgba(255,255,255,1)}#chart-649eec24-1624-4cbd-8091-5623c8449a80 .graph{fill:rgba(0,0,0,.87)}#chart-649eec24-1624-4cbd-8091-5623c8449a80 text.no_data{fill:rgba(0,0,0,1)}#chart-649eec24-1624-4cbd-8091-5623c8449a80 .title{fill:rgba(0,0,0,1)}#chart-649eec24-1624-4cbd-8091-5623c8449a80 .legends .legend text{fill:rgba(0,0,0,.87)}#chart-649eec24-1624-4cbd-8091-5623c8449a80 .legends .legend:hover text{fill:rgba(0,0,0,1)}#chart-649eec24-1624-4cbd-8091-5623c8449a80 .axis .line{stroke:rgba(0,0,0,1)}#chart-649eec24-1624-4cbd-8091-5623c8449a80 .axis .guide.line{stroke:rgba(0,0,0,.54)}#chart-649eec24-1624-4cbd-8091-5623c8449a80 .axis .major.line{stroke:rgba(0,0,0,.87)}#chart-649eec24-1624-4cbd-8091-5623c8449a80 .axis text.major{fill:rgba(0,0,0,1)}#chart-649eec24-1624-4cbd-8091-5623c8449a80 .axis.y .guides:hover .guide.line,#chart-649eec24-1624-4cbd-8091-5623c8449a80 .line-graph .axis.x .guides:hover .guide.line,#chart-649eec24-1624-4cbd-8091-5623c8449a80 .stackedline-graph .axis.x .guides:hover .guide.line,#chart-649eec24-1624-4cbd-8091-5623c8449a80 .xy-graph .axis.x .guides:hover .guide.line{stroke:rgba(0,0,0,1)}#chart-649eec24-1624-4cbd-8091-5623c8449a80 .axis .guides:hover text{fill:rgba(0,0,0,1)}#chart-649eec24-1624-4cbd-8091-5623c8449a80 .reactive{fill-opacity:.7;stroke-opacity:.8}#chart-649eec24-1624-4cbd-8091-5623c8449a80 .ci{stroke:rgba(0,0,0,.87)}#chart-649eec24-1624-4cbd-8091-5623c8449a80 .reactive.active,#chart-649eec24-1624-4cbd-8091-5623c8449a80 .active .reactive{fill-opacity:.8;stroke-opacity:.9;stroke-width:4}#chart-649eec24-1624-4cbd-8091-5623c8449a80 .ci .reactive.active{stroke-width:1.5}#chart-649eec24-1624-4cbd-8091-5623c8449a80 .series text{fill:rgba(0,0,0,1)}#chart-649eec24-1624-4cbd-8091-5623c8449a80 .tooltip rect{fill:rgba(255,255,255,1);stroke:rgba(0,0,0,1);-webkit-transition:opacity 150ms;-moz-transition:opacity 150ms;transition:opacity 150ms}#chart-649eec24-1624-4cbd-8091-5623c8449a80 .tooltip .label{fill:rgba(0,0,0,.87)}#chart-649eec24-1624-4cbd-8091-5623c8449a80 .tooltip .label{fill:rgba(0,0,0,.87)}#chart-649eec24-1624-4cbd-8091-5623c8449a80 .tooltip .legend{font-size:.8em;fill:rgba(0,0,0,.54)}#chart-649eec24-1624-4cbd-8091-5623c8449a80 .tooltip .x_label{font-size:.6em;fill:rgba(0,0,0,1)}#chart-649eec24-1624-4cbd-8091-5623c8449a80 .tooltip .xlink{font-size:.5em;text-decoration:underline}#chart-649eec24-1624-4cbd-8091-5623c8449a80 .tooltip .value{font-size:1.5em}#chart-649eec24-1624-4cbd-8091-5623c8449a80 .bound{font-size:.5em}#chart-649eec24-1624-4cbd-8091-5623c8449a80 .max-value{font-size:.75em;fill:rgba(0,0,0,.54)}#chart-649eec24-1624-4cbd-8091-5623c8449a80 .map-element{fill:rgba(255,255,255,1);stroke:rgba(0,0,0,.54) !important}#chart-649eec24-1624-4cbd-8091-5623c8449a80 .map-element .reactive{fill-opacity:inherit;stroke-opacity:inherit}#chart-649eec24-1624-4cbd-8091-5623c8449a80 .color-0,#chart-649eec24-1624-4cbd-8091-5623c8449a80 .color-0 a:visited{stroke:#e86fa0;fill:#e86fa0}#chart-649eec24-1624-4cbd-8091-5623c8449a80 .text-overlay .color-0 text{fill:black}
#chart-649eec24-1624-4cbd-8091-5623c8449a80 text.no_data{text-anchor:middle}#chart-649eec24-1624-4cbd-8091-5623c8449a80 .guide.line{fill:none}#chart-649eec24-1624-4cbd-8091-5623c8449a80 .centered{text-anchor:middle}#chart-649eec24-1624-4cbd-8091-5623c8449a80 .title{text-anchor:middle}#chart-649eec24-1624-4cbd-8091-5623c8449a80 .legends .legend text{fill-opacity:1}#chart-649eec24-1624-4cbd-8091-5623c8449a80 .axis.x text{text-anchor:middle}#chart-649eec24-1624-4cbd-8091-5623c8449a80 .axis.x:not(.web) text[transform]{text-anchor:start}#chart-649eec24-1624-4cbd-8091-5623c8449a80 .axis.x:not(.web) text[transform].backwards{text-anchor:end}#chart-649eec24-1624-4cbd-8091-5623c8449a80 .axis.y text{text-anchor:end}#chart-649eec24-1624-4cbd-8091-5623c8449a80 .axis.y text[transform].backwards{text-anchor:start}#chart-649eec24-1624-4cbd-8091-5623c8449a80 .axis.y2 text{text-anchor:start}#chart-649eec24-1624-4cbd-8091-5623c8449a80 .axis.y2 text[transform].backwards{text-anchor:end}#chart-649eec24-1624-4cbd-8091-5623c8449a80 .axis .guide.line{stroke-dasharray:4,4}#chart-649eec24-1624-4cbd-8091-5623c8449a80 .axis .major.guide.line{stroke-dasharray:6,6}#chart-649eec24-1624-4cbd-8091-5623c8449a80 .horizontal .axis.y .guide.line,#chart-649eec24-1624-4cbd-8091-5623c8449a80 .horizontal .axis.y2 .guide.line,#chart-649eec24-1624-4cbd-8091-5623c8449a80 .vertical .axis.x .guide.line{opacity:0}#chart-649eec24-1624-4cbd-8091-5623c8449a80 .horizontal .axis.always_show .guide.line,#chart-649eec24-1624-4cbd-8091-5623c8449a80 .vertical .axis.always_show .guide.line{opacity:1 !important}#chart-649eec24-1624-4cbd-8091-5623c8449a80 .axis.y .guides:hover .guide.line,#chart-649eec24-1624-4cbd-8091-5623c8449a80 .axis.y2 .guides:hover .guide.line,#chart-649eec24-1624-4cbd-8091-5623c8449a80 .axis.x .guides:hover .guide.line{opacity:1}#chart-649eec24-1624-4cbd-8091-5623c8449a80 .axis .guides:hover text{opacity:1}#chart-649eec24-1624-4cbd-8091-5623c8449a80 .nofill{fill:none}#chart-649eec24-1624-4cbd-8091-5623c8449a80 .subtle-fill{fill-opacity:.2}#chart-649eec24-1624-4cbd-8091-5623c8449a80 .dot{stroke-width:1px;fill-opacity:1}#chart-649eec24-1624-4cbd-8091-5623c8449a80 .dot.active{stroke-width:5px}#chart-649eec24-1624-4cbd-8091-5623c8449a80 .dot.negative{fill:transparent}#chart-649eec24-1624-4cbd-8091-5623c8449a80 text,#chart-649eec24-1624-4cbd-8091-5623c8449a80 tspan{stroke:none !important}#chart-649eec24-1624-4cbd-8091-5623c8449a80 .series text.active{opacity:1}#chart-649eec24-1624-4cbd-8091-5623c8449a80 .tooltip rect{fill-opacity:.95;stroke-width:.5}#chart-649eec24-1624-4cbd-8091-5623c8449a80 .tooltip text{fill-opacity:1}#chart-649eec24-1624-4cbd-8091-5623c8449a80 .showable{visibility:hidden}#chart-649eec24-1624-4cbd-8091-5623c8449a80 .showable.shown{visibility:visible}#chart-649eec24-1624-4cbd-8091-5623c8449a80 .gauge-background{fill:rgba(229,229,229,1);stroke:none}#chart-649eec24-1624-4cbd-8091-5623c8449a80 .bg-lines{stroke:rgba(249,249,249,1);stroke-width:2px}</style><script type="text/javascript">window.pygal = window.pygal || {};window.pygal.config = window.pygal.config || {};window.pygal.config['649eec24-1624-4cbd-8091-5623c8449a80'] = {"no_data_text": "No data", "no_prefix": false, "xrange": null, "print_values_position": "center", "truncate_label": null, "x_labels": ["2549", "2550", "2551", "2552", "2553", "2554", "2555", "2556", "2557", "2558"], "title": null, "force_uri_protocol": "https", "defs": [], "formatter": null, "classes": ["pygal-chart"], "y_labels": null, "rounded_bars": null, "explicit_size": false, "x_labels_major_every": null, "legend_at_bottom_columns": null, "stroke_style": null, "half_pie": false, "spacing": 10, "tooltip_fancy_mode": true, "inverse_y_axis": false, "width": 800, "inner_radius": 0, "interpolation_parameters": {}, "tooltip_border_radius": 0, "style": {"no_data_font_family": "Consolas, \"Liberation Mono\", Menlo, Courier, monospace", "tooltip_font_size": 14, "tooltip_font_family": "Consolas, \"Liberation Mono\", Menlo, Courier, monospace", "stroke_opacity_hover": ".9", "legend_font_family": "Consolas, \"Liberation Mono\", Menlo, Courier, monospace", "font_family": "Consolas, \"Liberation Mono\", Menlo, Courier, monospace", "title_font_family": "Consolas, \"Liberation Mono\", Menlo, Courier, monospace", "background": "rgba(249, 249, 249, 1)", "stroke_opacity": ".8", "foreground": "rgba(0, 0, 0, .87)", "value_background": "rgba(229, 229, 229, 1)", "guide_stroke_dasharray": "4,4", "foreground_subtle": "rgba(0, 0, 0, .54)", "opacity_hover": ".8", "value_font_family": "Consolas, \"Liberation Mono\", Menlo, Courier, monospace", "value_label_font_size": 10, "plot_background": "rgba(255, 255, 255, 1)", "ci_colors": [], "label_font_size": 10, "major_label_font_size": 10, "title_font_size": 16, "no_data_font_size": 64, "value_font_size": 16, "value_colors": [], "label_font_family": "Consolas, \"Liberation Mono\", Menlo, Courier, monospace", "major_guide_stroke_dasharray": "6,6", "transition": "150ms", "foreground_strong": "rgba(0, 0, 0, 1)", "colors": ["#e86fa0", "#e88f6f", "#e8df6f", "#a0e86f", "#6fe88f", "#6fe8df", "#6fa0e8", "#8f6fe8", "#df6fe8", "#e86fa0"], "opacity": ".7", "legend_font_size": 14, "value_label_font_family": "Consolas, \"Liberation Mono\", Menlo, Courier, monospace", "major_label_font_family": "Consolas, \"Liberation Mono\", Menlo, Courier, monospace"}, "x_labels_major_count": null, "interpolation_precision": 250, "missing_value_fill_truncation": "x", "stack_from_top": false, "truncate_legend": null, "show_minor_x_labels": true, "print_zeroes": true, "css": ["file://style.css", "file://graph.css"], "y_label_rotation": 0, "legend_at_bottom": false, "print_values": false, "margin_top": null, "max_scale": 16, "allow_interruptions": false, "show_x_labels": true, "strict": false, "show_x_guides": false, "stroke": true, "margin_left": null, "dynamic_print_values": false, "print_labels": false, "show_y_labels": true, "x_labels_major": null, "range": null, "x_label_rotation": 0, "margin": 20, "zero": 0, "include_x_axis": false, "height": 600, "show_minor_y_labels": true, "show_dots": true, "interpolate": "cubic", "show_y_guides": true, "y_labels_major": null, "box_mode": "extremes", "margin_bottom": null, "order_min": null, "legend_box_size": 12, "fill": true, "show_only_major_dots": false, "js": ["//kozea.github.io/pygal.js/2.0.x/pygal-tooltips.min.js"], "x_title": null, "y_labels_major_every": null, "y_labels_major_count": null, "disable_xml_declaration": false, "y_title": null, "logarithmic": false, "pretty_print": false, "min_scale": 4, "dots_size": 2.5, "margin_right": null, "legends": [null], "secondary_range": null, "show_legend": false}</script><script type="text/javascript" xlink:href="https://kozea.github.io/pygal.js/2.0.x/pygal-tooltips.min.js" /></defs><title>Pygal</title><g class="graph stackedline-graph vertical"><rect class="background" height="600" width="800" x="0" y="0" /><g class="plot" transform="translate(54, 20)"><rect class="background" height="540" width="726.0" x="0" y="0" /><g class="axis y"><path class="line" d="M0.000000 540.000000 h726.000000" /><g class="guides"><path class="guide line" d="M0.000000 479.495617 h726.000000" /><text class="" x="-5" y="482.99561669431444">400M</text><title>400M</title></g><g class="guides"><path class="guide line" d="M0.000000 422.002962 h726.000000" /><text class="" x="-5" y="425.5029619872878">440M</text><title>440M</title></g><g class="guides"><path class="guide line" d="M0.000000 364.510307 h726.000000" /><text class="" x="-5" y="368.01030728026126">480M</text><title>480M</title></g><g class="guides"><path class="guide line" d="M0.000000 307.017653 h726.000000" /><text class="" x="-5" y="310.5176525732346">520M</text><title>520M</title></g><g class="guides"><path class="guide line" d="M0.000000 249.524998 h726.000000" /><text class="" x="-5" y="253.02499786620803">560M</text><title>560M</title></g><g class="guides"><path class="guide line" d="M0.000000 192.032343 h726.000000" /><text class="" x="-5" y="195.53234315918144">600M</text><title>600M</title></g><g class="guides"><path class="guide line" d="M0.000000 134.539688 h726.000000" /><text class="" x="-5" y="138.03968845215485">640M</text><title>640M</title></g><g class="guides"><path class="guide line" d="M0.000000 77.047034 h726.000000" /><text class="" x="-5" y="80.54703374512826">680M</text><title>680M</title></g><g class="guides"><path class="guide line" d="M0.000000 19.554379 h726.000000" /><text class="" x="-5" y="23.054379038101615">720M</text><title>720M</title></g></g><g class="axis x"><g class="guides"><path class="line" d="M13.961538 0.000000 v540.000000" /><text class="" x="13.96153846153846" y="555.0">2549</text></g><g class="guides"><path class="guide line" d="M91.525641 0.000000 v540.000000" /><text class="" x="91.52564102564101" y="555.0">2550</text></g><g class="guides"><path class="guide line" d="M169.089744 0.000000 v540.000000" /><text class="" x="169.08974358974356" y="555.0">2551</text></g><g class="guides"><path class="guide line" d="M246.653846 0.000000 v540.000000" /><text class="" x="246.65384615384613" y="555.0">2552</text></g><g class="guides"><path class="guide line" d="M324.217949 0.000000 v540.000000" /><text class="" x="324.21794871794873" y="555.0">2553</text></g><g class="guides"><path class="guide line" d="M401.782051 0.000000 v540.000000" /><text class="" x="401.78205128205127" y="555.0">2554</text></g><g class="guides"><path class="guide line" d="M479.346154 0.000000 v540.000000" /><text class="" x="479.3461538461538" y="555.0">2555</text></g><g class="guides"><path class="guide line" d="M556.910256 0.000000 v540.000000" /><text class="" x="556.9102564102565" y="555.0">2556</text></g><g class="guides"><path class="guide line" d="M634.474359 0.000000 v540.000000" /><text class="" x="634.474358974359" y="555.0">2557</text></g><g class="guides"><path class="guide line" d="M712.038462 0.000000 v540.000000" /><text class="" x="712.0384615384615" y="555.0">2558</text></g></g><g class="series serie-0 color-0"><path class="line reactive" d="M13.961538 540.000000 L13.961538 529.615385 14.271795 529.367375 14.582051 529.119368 14.892308 528.871369 15.202564 528.623381 15.512821 528.375406 15.823077 528.127449 16.133333 527.879513 16.443590 527.631602 16.753846 527.383719 17.064103 527.135868 17.374359 526.888053 17.684615 526.640276 17.994872 526.392541 18.305128 526.144852 18.615385 525.897213 18.925641 525.649626 19.235897 525.402096 19.546154 525.154626 19.856410 524.907219 20.166667 524.659880 20.476923 524.412611 20.787179 524.165416 21.097436 523.918299 21.407692 523.671262 21.717949 523.424311 22.028205 523.177448 22.338462 522.930676 22.648718 522.684000 22.958974 522.437422 23.269231 522.190947 23.579487 521.944578 23.889744 521.698317 24.200000 521.452170 24.510256 521.206140 24.820513 520.960229 25.130769 520.714441 25.441026 520.468781 25.751282 520.223251 26.061538 519.977855 26.371795 519.732597 26.682051 519.487480 26.992308 519.242508 27.302564 518.997684 27.612821 518.753011 27.923077 518.508494 28.233333 518.264135 28.543590 518.019939 28.853846 517.775908 29.164103 517.532047 29.474359 517.288359 29.784615 517.044847 30.094872 516.801515 30.405128 516.558366 30.715385 516.315405 31.025641 516.072634 31.335897 515.830056 31.646154 515.587677 31.956410 515.345498 32.266667 515.103525 32.576923 514.861759 32.887179 514.620205 33.197436 514.378866 33.507692 514.137746 33.817949 513.896848 34.128205 513.656176 34.438462 513.415733 34.748718 513.175523 35.058974 512.935550 35.369231 512.695816 35.679487 512.456326 35.989744 512.217083 36.300000 511.978090 36.610256 511.739351 36.920513 511.500869 37.230769 511.262649 37.541026 511.024693 37.851282 510.787006 38.161538 510.549590 38.471795 510.312449 38.782051 510.075587 39.092308 509.839007 39.402564 509.602713 39.712821 509.366708 40.023077 509.130996 40.333333 508.895581 40.643590 508.660465 40.953846 508.425652 41.264103 508.191147 41.574359 507.956952 41.884615 507.723070 42.194872 507.489507 42.505128 507.256264 42.815385 507.023346 43.125641 506.790756 43.435897 506.558498 43.746154 506.326575 44.056410 506.094990 44.366667 505.863748 44.676923 505.632851 44.987179 505.402304 45.297436 505.172109 45.607692 504.942271 45.917949 504.712792 46.228205 504.483677 46.538462 504.254929 46.848718 504.026551 47.158974 503.798547 47.469231 503.570921 47.779487 503.343676 48.089744 503.116815 48.400000 502.890342 48.710256 502.664261 49.020513 502.438575 49.330769 502.213287 49.641026 501.988402 49.951282 501.763922 50.261538 501.539852 50.571795 501.316194 50.882051 501.092953 51.192308 500.870131 51.502564 500.647733 51.812821 500.425762 52.123077 500.204221 52.433333 499.983113 52.743590 499.762444 53.053846 499.542215 53.364103 499.322431 53.674359 499.103095 53.984615 498.884210 54.294872 498.665781 54.605128 498.447810 54.915385 498.230301 55.225641 498.013258 55.535897 497.796684 55.846154 497.580583 56.156410 497.364958 56.466667 497.149813 56.776923 496.935151 57.087179 496.720976 57.397436 496.507291 57.707692 496.294101 58.017949 496.081407 58.328205 495.869215 58.638462 495.657527 58.948718 495.446347 59.258974 495.235679 59.569231 495.025525 59.879487 494.815890 60.189744 494.606778 60.500000 494.398191 60.810256 494.190133 61.120513 493.982608 61.430769 493.775619 61.741026 493.569169 62.051282 493.363264 62.361538 493.157904 62.671795 492.953096 62.982051 492.748841 63.292308 492.545143 63.602564 492.342007 63.912821 492.139434 64.223077 491.937430 64.533333 491.735997 64.843590 491.535140 65.153846 491.334861 65.464103 491.135164 65.774359 490.936052 66.084615 490.737530 66.394872 490.539600 66.705128 490.342267 67.015385 490.145533 67.325641 489.949402 67.635897 489.753879 67.946154 489.558965 68.256410 489.364666 68.566667 489.170984 68.876923 488.977922 69.187179 488.785485 69.497436 488.593676 69.807692 488.402499 70.117949 488.211956 70.428205 488.022052 70.738462 487.832790 71.048718 487.644174 71.358974 487.456207 71.669231 487.268892 71.979487 487.082234 72.289744 486.896235 72.600000 486.710900 72.910256 486.526231 73.220513 486.342232 73.530769 486.158908 73.841026 485.976260 74.151282 485.794294 74.461538 485.613012 74.771795 485.432418 75.082051 485.252515 75.392308 485.073307 75.702564 484.894798 76.012821 484.716990 76.323077 484.539889 76.633333 484.363496 76.943590 484.187816 77.253846 484.012852 77.564103 483.838608 77.874359 483.665087 78.184615 483.492293 78.494872 483.320229 78.805128 483.148898 79.115385 482.978305 79.425641 482.808453 79.735897 482.639345 80.046154 482.470986 80.356410 482.303377 80.666667 482.136524 80.976923 481.970428 81.287179 481.805095 81.597436 481.640528 81.907692 481.476729 82.217949 481.313703 82.528205 481.151454 82.838462 480.989983 83.148718 480.829296 83.458974 480.669396 83.769231 480.510286 84.079487 480.351970 84.389744 480.194451 84.700000 480.037732 85.010256 479.881818 85.320513 479.726712 85.630769 479.572418 85.941026 479.418938 86.251282 479.266277 86.561538 479.114437 86.871795 478.963423 87.182051 478.813239 87.492308 478.663886 87.802564 478.515370 88.112821 478.367693 88.423077 478.220860 88.733333 478.074873 89.043590 477.929737 89.353846 477.785454 89.664103 477.642028 89.974359 477.499463 90.284615 477.357763 90.594872 477.216930 90.905128 477.076969 91.215385 476.937882 91.525641 476.799674 91.835897 476.662346 92.146154 476.525891 92.456410 476.390300 92.766667 476.255565 93.076923 476.121676 93.387179 475.988626 93.697436 475.856404 94.007692 475.725003 94.317949 475.594413 94.628205 475.464625 94.938462 475.335632 95.248718 475.207424 95.558974 475.079991 95.869231 474.953326 96.179487 474.827420 96.489744 474.702264 96.800000 474.577848 97.110256 474.454164 97.420513 474.331204 97.730769 474.208959 98.041026 474.087419 98.351282 473.966575 98.661538 473.846420 98.971795 473.726945 99.282051 473.608139 99.592308 473.489995 99.902564 473.372504 100.212821 473.255658 100.523077 473.139446 100.833333 473.023860 101.143590 472.908893 101.453846 472.794534 101.764103 472.680775 102.074359 472.567607 102.384615 472.455021 102.694872 472.343009 103.005128 472.231561 103.315385 472.120670 103.625641 472.010325 103.935897 471.900519 104.246154 471.791242 104.556410 471.682486 104.866667 471.574241 105.176923 471.466500 105.487179 471.359253 105.797436 471.252491 106.107692 471.146205 106.417949 471.040388 106.728205 470.935029 107.038462 470.830121 107.348718 470.725653 107.658974 470.621619 107.969231 470.518008 108.279487 470.414812 108.589744 470.312022 108.900000 470.209629 109.210256 470.107624 109.520513 470.006000 109.830769 469.904746 110.141026 469.803854 110.451282 469.703315 110.761538 469.603120 111.071795 469.503262 111.382051 469.403729 111.692308 469.304515 112.002564 469.205610 112.312821 469.107005 112.623077 469.008692 112.933333 468.910662 113.243590 468.812905 113.553846 468.715413 113.864103 468.618178 114.174359 468.521190 114.484615 468.424441 114.794872 468.327921 115.105128 468.231623 115.415385 468.135536 115.725641 468.039653 116.035897 467.943965 116.346154 467.848462 116.656410 467.753136 116.966667 467.657979 117.276923 467.562980 117.587179 467.468133 117.897436 467.373426 118.207692 467.278853 118.517949 467.184404 118.828205 467.090070 119.138462 466.995842 119.448718 466.901712 119.758974 466.807671 120.069231 466.713710 120.379487 466.619820 120.689744 466.525993 121.000000 466.432219 121.310256 466.338489 121.620513 466.244796 121.930769 466.151130 122.241026 466.057482 122.551282 465.963843 122.861538 465.870205 123.171795 465.776560 123.482051 465.682897 123.792308 465.589208 124.102564 465.495485 124.412821 465.401718 124.723077 465.307900 125.033333 465.214020 125.343590 465.120070 125.653846 465.026042 125.964103 464.931926 126.274359 464.837714 126.584615 464.743397 126.894872 464.648966 127.205128 464.554413 127.515385 464.459728 127.825641 464.364902 128.135897 464.269928 128.446154 464.174795 128.756410 464.079496 129.066667 463.984021 129.376923 463.888362 129.687179 463.792509 129.997436 463.696455 130.307692 463.600190 130.617949 463.503705 130.928205 463.406991 131.238462 463.310041 131.548718 463.212844 131.858974 463.115392 132.169231 463.017677 132.479487 462.919689 132.789744 462.821420 133.100000 462.722861 133.410256 462.624003 133.720513 462.524837 134.030769 462.425354 134.341026 462.325546 134.651282 462.225404 134.961538 462.124919 135.271795 462.024082 135.582051 461.922884 135.892308 461.821317 136.202564 461.719372 136.512821 461.617040 136.823077 461.514311 137.133333 461.411178 137.443590 461.307632 137.753846 461.203663 138.064103 461.099263 138.374359 460.994423 138.684615 460.889134 138.994872 460.783388 139.305128 460.677175 139.615385 460.570487 139.925641 460.463316 140.235897 460.355651 140.546154 460.247484 140.856410 460.138808 141.166667 460.029612 141.476923 459.919887 141.787179 459.809626 142.097436 459.698820 142.407692 459.587458 142.717949 459.475534 143.028205 459.363037 143.338462 459.249959 143.648718 459.136292 143.958974 459.022026 144.269231 458.907152 144.579487 458.791663 144.889744 458.675548 145.200000 458.558800 145.510256 458.441408 145.820513 458.323366 146.130769 458.204663 146.441026 458.085291 146.751282 457.965241 147.061538 457.844505 147.371795 457.723073 147.682051 457.600936 147.992308 457.478087 148.302564 457.354515 148.612821 457.230213 148.923077 457.105171 149.233333 456.979381 149.543590 456.852833 149.853846 456.725520 150.164103 456.597432 150.474359 456.468560 150.784615 456.338895 151.094872 456.208430 151.405128 456.077154 151.715385 455.945059 152.025641 455.812137 152.335897 455.678378 152.646154 455.543774 152.956410 455.408315 153.266667 455.271994 153.576923 455.134801 153.887179 454.996727 154.197436 454.857764 154.507692 454.717903 154.817949 454.577135 155.128205 454.435450 155.438462 454.292842 155.748718 454.149299 156.058974 454.004815 156.369231 453.859379 156.679487 453.712984 156.989744 453.565620 157.300000 453.417278 157.610256 453.267950 157.920513 453.117627 158.230769 452.966299 158.541026 452.813959 158.851282 452.660598 159.161538 452.506206 159.471795 452.350775 159.782051 452.194296 160.092308 452.036760 160.402564 451.878158 160.712821 451.718482 161.023077 451.557722 161.333333 451.395871 161.643590 451.232919 161.953846 451.068856 162.264103 450.903676 162.574359 450.737368 162.884615 450.569924 163.194872 450.401335 163.505128 450.231592 163.815385 450.060686 164.125641 449.888610 164.435897 449.715353 164.746154 449.540906 165.056410 449.365263 165.366667 449.188412 165.676923 449.010346 165.987179 448.831056 166.297436 448.650532 166.607692 448.468767 166.917949 448.285751 167.228205 448.101475 167.538462 447.915931 167.848718 447.729110 168.158974 447.541003 168.469231 447.351602 168.779487 447.160896 169.089744 446.968879 169.400000 446.775542 169.710256 446.580887 170.020513 446.384917 170.330769 446.187637 170.641026 445.989048 170.951282 445.789156 171.261538 445.587962 171.571795 445.385470 171.882051 445.181683 172.192308 444.976606 172.502564 444.770241 172.812821 444.562591 173.123077 444.353661 173.433333 444.143452 173.743590 443.931969 174.053846 443.719216 174.364103 443.505194 174.674359 443.289908 174.984615 443.073361 175.294872 442.855557 175.605128 442.636498 175.915385 442.416188 176.225641 442.194630 176.535897 441.971828 176.846154 441.747786 177.156410 441.522505 177.466667 441.295991 177.776923 441.068245 178.087179 440.839272 178.397436 440.609075 178.707692 440.377657 179.017949 440.145021 179.328205 439.911171 179.638462 439.676110 179.948718 439.439842 180.258974 439.202370 180.569231 438.963696 180.879487 438.723826 181.189744 438.482761 181.500000 438.240505 181.810256 437.997062 182.120513 437.752435 182.430769 437.506627 182.741026 437.259642 183.051282 437.011483 183.361538 436.762153 183.671795 436.511656 183.982051 436.259994 184.292308 436.007172 184.602564 435.753193 184.912821 435.498059 185.223077 435.241775 185.533333 434.984344 185.843590 434.725769 186.153846 434.466053 186.464103 434.205200 186.774359 433.943213 187.084615 433.680095 187.394872 433.415850 187.705128 433.150482 188.015385 432.883992 188.325641 432.616386 188.635897 432.347666 188.946154 432.077835 189.256410 431.806897 189.566667 431.534855 189.876923 431.261713 190.187179 430.987473 190.497436 430.712140 190.807692 430.435717 191.117949 430.158206 191.428205 429.879611 191.738462 429.599937 192.048718 429.319185 192.358974 429.037359 192.669231 428.754463 192.979487 428.470500 193.289744 428.185473 193.600000 427.899386 193.910256 427.612242 194.220513 427.324045 194.530769 427.034797 194.841026 426.744502 195.151282 426.453163 195.461538 426.160784 195.771795 425.867369 196.082051 425.572919 196.392308 425.277440 196.702564 424.980933 197.012821 424.683403 197.323077 424.384853 197.633333 424.085286 197.943590 423.784706 198.253846 423.483115 198.564103 423.180517 198.874359 422.876916 199.184615 422.572315 199.494872 422.266717 199.805128 421.960126 200.115385 421.652544 200.425641 421.343976 200.735897 421.034425 201.046154 420.723893 201.356410 420.412384 201.666667 420.099903 201.976923 419.786451 202.287179 419.472032 202.597436 419.156650 202.907692 418.840309 203.217949 418.523010 203.528205 418.204758 203.838462 417.885556 204.148718 417.565408 204.458974 417.244316 204.769231 416.922285 205.079487 416.599317 205.389744 416.275415 205.700000 415.950584 206.010256 415.624826 206.320513 415.298145 206.630769 414.970544 206.941026 414.642026 207.251282 414.312596 207.561538 413.982255 207.871795 413.651008 208.182051 413.318858 208.492308 412.985808 208.802564 412.651862 209.112821 412.317023 209.423077 411.981293 209.733333 411.644678 210.043590 411.307179 210.353846 410.968801 210.664103 410.629546 210.974359 410.289418 211.284615 409.948420 211.594872 409.606557 211.905128 409.263830 212.215385 408.920243 212.525641 408.575800 212.835897 408.230505 213.146154 407.884359 213.456410 407.537367 213.766667 407.189533 214.076923 406.840858 214.387179 406.491348 214.697436 406.141005 215.007692 405.789832 215.317949 405.437832 215.628205 405.085010 215.938462 404.731369 216.248718 404.376911 216.558974 404.021640 216.869231 403.665560 217.179487 403.308674 217.489744 402.950985 217.800000 402.592497 218.110256 402.233212 218.420513 401.873135 218.730769 401.512268 219.041026 401.150615 219.351282 400.788180 219.661538 400.424965 219.971795 400.060974 220.282051 399.696210 220.592308 399.330677 220.902564 398.964378 221.212821 398.597316 221.523077 398.229495 221.833333 397.860918 222.143590 397.491588 222.453846 397.121509 222.764103 396.750684 223.074359 396.379117 223.384615 396.006810 223.694872 395.633767 224.005128 395.259992 224.315385 394.885488 224.625641 394.510258 224.935897 394.134305 225.246154 393.757633 225.556410 393.380245 225.866667 393.002144 226.176923 392.623335 226.487179 392.243820 226.797436 391.863602 227.107692 391.482685 227.417949 391.101072 227.728205 390.718767 228.038462 390.335773 228.348718 389.952093 228.658974 389.567731 228.969231 389.182689 229.279487 388.796972 229.589744 388.410583 229.900000 388.023524 230.210256 387.635800 230.520513 387.247414 230.830769 386.858368 231.141026 386.468667 231.451282 386.078314 231.761538 385.687312 232.071795 385.295664 232.382051 384.903374 232.692308 384.510444 233.002564 384.116880 233.312821 383.722683 233.623077 383.327857 233.933333 382.932406 234.243590 382.536332 234.553846 382.139640 234.864103 381.742332 235.174359 381.344412 235.484615 380.945883 235.794872 380.546749 236.105128 380.147013 236.415385 379.746677 236.725641 379.345747 237.035897 378.944224 237.346154 378.542113 237.656410 378.139416 237.966667 377.736137 238.276923 377.332279 238.587179 376.927846 238.897436 376.522841 239.207692 376.117268 239.517949 375.711129 239.828205 375.304428 240.138462 374.897168 240.448718 374.489353 240.758974 374.080986 241.069231 373.672071 241.379487 373.262610 241.689744 372.852607 242.000000 372.442066 242.310256 372.030989 242.620513 371.619381 242.930769 371.207244 243.241026 370.794582 243.551282 370.381398 243.861538 369.967695 244.171795 369.553478 244.482051 369.138748 244.792308 368.723510 245.102564 368.307767 245.412821 367.891522 245.723077 367.474779 246.033333 367.057541 246.343590 366.639811 246.653846 366.221592 246.964103 365.802890 247.274359 365.383714 247.584615 364.964077 247.894872 364.543989 248.205128 364.123463 248.515385 363.702510 248.825641 363.281142 249.135897 362.859370 249.446154 362.437206 249.756410 362.014662 250.066667 361.591749 250.376923 361.168480 250.687179 360.744864 250.997436 360.320915 251.307692 359.896644 251.617949 359.472063 251.928205 359.047183 252.238462 358.622015 252.548718 358.196572 252.858974 357.770865 253.169231 357.344905 253.479487 356.918705 253.789744 356.492276 254.100000 356.065630 254.410256 355.638778 254.720513 355.211732 255.030769 354.784503 255.341026 354.357103 255.651282 353.929545 255.961538 353.501838 256.271795 353.073996 256.582051 352.646030 256.892308 352.217951 257.202564 351.789771 257.512821 351.361501 257.823077 350.933154 258.133333 350.504741 258.443590 350.076274 258.753846 349.647763 259.064103 349.219222 259.374359 348.790661 259.684615 348.362092 259.994872 347.933527 260.305128 347.504977 260.615385 347.076454 260.925641 346.647970 261.235897 346.219536 261.546154 345.791165 261.856410 345.362866 262.166667 344.934654 262.476923 344.506537 262.787179 344.078530 263.097436 343.650642 263.407692 343.222887 263.717949 342.795275 264.028205 342.367817 264.338462 341.940527 264.648718 341.513415 264.958974 341.086493 265.269231 340.659772 265.579487 340.233265 265.889744 339.806983 266.200000 339.380937 266.510256 338.955139 266.820513 338.529601 267.130769 338.104335 267.441026 337.679352 267.751282 337.254663 268.061538 336.830281 268.371795 336.406217 268.682051 335.982482 268.992308 335.559089 269.302564 335.136049 269.612821 334.713373 269.923077 334.291073 270.233333 333.869161 270.543590 333.447649 270.853846 333.026548 271.164103 332.605870 271.474359 332.185626 271.784615 331.765828 272.094872 331.346487 272.405128 330.927616 272.715385 330.509226 273.025641 330.091329 273.335897 329.673935 273.646154 329.257058 273.956410 328.840708 274.266667 328.424897 274.576923 328.009637 274.887179 327.594940 275.197436 327.180816 275.507692 326.767278 275.817949 326.354338 276.128205 325.942006 276.438462 325.530295 276.748718 325.119217 277.058974 324.708782 277.369231 324.299003 277.679487 323.889891 277.989744 323.481457 278.300000 323.073715 278.610256 322.666674 278.920513 322.260347 279.230769 321.854745 279.541026 321.449880 279.851282 321.045764 280.161538 320.642408 280.471795 320.239825 280.782051 319.838024 281.092308 319.437019 281.402564 319.036821 281.712821 318.637441 282.023077 318.238891 282.333333 317.841183 282.643590 317.444329 282.953846 317.048339 283.264103 316.653226 283.574359 316.259002 283.884615 315.865677 284.194872 315.473264 284.505128 315.081774 284.815385 314.691219 285.125641 314.301610 285.435897 313.912960 285.746154 313.525279 286.056410 313.138580 286.366667 312.752874 286.676923 312.368172 286.987179 311.984487 287.297436 311.601830 287.607692 311.220212 287.917949 310.839646 288.228205 310.460142 288.538462 310.081713 288.848718 309.704370 289.158974 309.328125 289.469231 308.952990 289.779487 308.578975 290.089744 308.206093 290.400000 307.834356 290.710256 307.463774 291.020513 307.094360 291.330769 306.726126 291.641026 306.359082 291.951282 305.993241 292.261538 305.628614 292.571795 305.265213 292.882051 304.903049 293.192308 304.542134 293.502564 304.182481 293.812821 303.824099 294.123077 303.467002 294.433333 303.111200 294.743590 302.756705 295.053846 302.403529 295.364103 302.051684 295.674359 301.701182 295.984615 301.352033 296.294872 301.004249 296.605128 300.657843 296.915385 300.312825 297.225641 299.969208 297.535897 299.627003 297.846154 299.286221 298.156410 298.946875 298.466667 298.608976 298.776923 298.272535 299.087179 297.937564 299.397436 297.604076 299.707692 297.272081 300.017949 296.941591 300.328205 296.612618 300.638462 296.285173 300.948718 295.959268 301.258974 295.634915 301.569231 295.312126 301.879487 294.990911 302.189744 294.671283 302.500000 294.353254 302.810256 294.036834 303.120513 293.722035 303.430769 293.408870 303.741026 293.097350 304.051282 292.787486 304.361538 292.479290 304.671795 292.172774 304.982051 291.867949 305.292308 291.564828 305.602564 291.263421 305.912821 290.963740 306.223077 290.665797 306.533333 290.369604 306.843590 290.075172 307.153846 289.782512 307.464103 289.491637 307.774359 289.202559 308.084615 288.915288 308.394872 288.629836 308.705128 288.346216 309.015385 288.064438 309.325641 287.784514 309.635897 287.506457 309.946154 287.230277 310.256410 286.955986 310.566667 286.683596 310.876923 286.413119 311.187179 286.144565 311.497436 285.877948 311.807692 285.613278 312.117949 285.350567 312.428205 285.089826 312.738462 284.831068 313.048718 284.574304 313.358974 284.319546 313.669231 284.066805 313.979487 283.816092 314.289744 283.567420 314.600000 283.320801 314.910256 283.076245 315.220513 282.833765 315.530769 282.593371 315.841026 282.355077 316.151282 282.118893 316.461538 281.884830 316.771795 281.652902 317.082051 281.423118 317.392308 281.195492 317.702564 280.970034 318.012821 280.746756 318.323077 280.525671 318.633333 280.306788 318.943590 280.090121 319.253846 279.875680 319.564103 279.663478 319.874359 279.453526 320.184615 279.245836 320.494872 279.040418 320.805128 278.837286 321.115385 278.636450 321.425641 278.437923 321.735897 278.241715 322.046154 278.047839 322.356410 277.856306 322.666667 277.667128 322.976923 277.480316 323.287179 277.295882 323.597436 277.113838 323.907692 276.934196 324.217949 276.756966 324.528205 276.582155 324.838462 276.409748 325.148718 276.239725 325.458974 276.072063 325.769231 275.906744 326.079487 275.743745 326.389744 275.583046 326.700000 275.424626 327.010256 275.268465 327.320513 275.114542 327.630769 274.962836 327.941026 274.813326 328.251282 274.665991 328.561538 274.520812 328.871795 274.377766 329.182051 274.236833 329.492308 274.097994 329.802564 273.961225 330.112821 273.826508 330.423077 273.693821 330.733333 273.563143 331.043590 273.434455 331.353846 273.307734 331.664103 273.182960 331.974359 273.060113 332.284615 272.939171 332.594872 272.820114 332.905128 272.702922 333.215385 272.587573 333.525641 272.474046 333.835897 272.362321 334.146154 272.252378 334.456410 272.144195 334.766667 272.037751 335.076923 271.933027 335.387179 271.830000 335.697436 271.728651 336.007692 271.628958 336.317949 271.530902 336.628205 271.434460 336.938462 271.339613 337.248718 271.246339 337.558974 271.154618 337.869231 271.064429 338.179487 270.975751 338.489744 270.888564 338.800000 270.802847 339.110256 270.718579 339.420513 270.635739 339.730769 270.554306 340.041026 270.474260 340.351282 270.395580 340.661538 270.318246 340.971795 270.242236 341.282051 270.167529 341.592308 270.094106 341.902564 270.021945 342.212821 269.951025 342.523077 269.881326 342.833333 269.812827 343.143590 269.745507 343.453846 269.679345 343.764103 269.614322 344.074359 269.550415 344.384615 269.487604 344.694872 269.425868 345.005128 269.365188 345.315385 269.305541 345.625641 269.246907 345.935897 269.189266 346.246154 269.132596 346.556410 269.076877 346.866667 269.022088 347.176923 268.968209 347.487179 268.915218 347.797436 268.863095 348.107692 268.811818 348.417949 268.761369 348.728205 268.711725 349.038462 268.662865 349.348718 268.614770 349.658974 268.567418 349.969231 268.520788 350.279487 268.474861 350.589744 268.429614 350.900000 268.385027 351.210256 268.341080 351.520513 268.297752 351.830769 268.255022 352.141026 268.212869 352.451282 268.171272 352.761538 268.130211 353.071795 268.089665 353.382051 268.049614 353.692308 268.010035 354.002564 267.970910 354.312821 267.932216 354.623077 267.893934 354.933333 267.856042 355.243590 267.818519 355.553846 267.781346 355.864103 267.744500 356.174359 267.707962 356.484615 267.671711 356.794872 267.635725 357.105128 267.599985 357.415385 267.564469 357.725641 267.529156 358.035897 267.494027 358.346154 267.459059 358.656410 267.424233 358.966667 267.389528 359.276923 267.354922 359.587179 267.320395 359.897436 267.285927 360.207692 267.251496 360.517949 267.217082 360.828205 267.182664 361.138462 267.148221 361.448718 267.113732 361.758974 267.079178 362.069231 267.044536 362.379487 267.009787 362.689744 266.974909 363.000000 266.939882 363.310256 266.904685 363.620513 266.869297 363.930769 266.833698 364.241026 266.797866 364.551282 266.761781 364.861538 266.725423 365.171795 266.688770 365.482051 266.651801 365.792308 266.614497 366.102564 266.576835 366.412821 266.538796 366.723077 266.500359 367.033333 266.461502 367.343590 266.422206 367.653846 266.382449 367.964103 266.342211 368.274359 266.301470 368.584615 266.260207 368.894872 266.218400 369.205128 266.176028 369.515385 266.133072 369.825641 266.089509 370.135897 266.045320 370.446154 266.000483 370.756410 265.954979 371.066667 265.908785 371.376923 265.861881 371.687179 265.814247 371.997436 265.765862 372.307692 265.716705 372.617949 265.666755 372.928205 265.615992 373.238462 265.564394 373.548718 265.511941 373.858974 265.458613 374.169231 265.404388 374.479487 265.349246 374.789744 265.293165 375.100000 265.236126 375.410256 265.178108 375.720513 265.119089 376.030769 265.059049 376.341026 264.997967 376.651282 264.935823 376.961538 264.872595 377.271795 264.808263 377.582051 264.742806 377.892308 264.676204 378.202564 264.608436 378.512821 264.539480 378.823077 264.469316 379.133333 264.397924 379.443590 264.325282 379.753846 264.251370 380.064103 264.176168 380.374359 264.099653 380.684615 264.021807 380.994872 263.942607 381.305128 263.862033 381.615385 263.780064 381.925641 263.696680 382.235897 263.611860 382.546154 263.525583 382.856410 263.437828 383.166667 263.348574 383.476923 263.257802 383.787179 263.165489 384.097436 263.071616 384.407692 262.976161 384.717949 262.879104 385.028205 262.780423 385.338462 262.680100 385.648718 262.578111 385.958974 262.474437 386.269231 262.369058 386.579487 262.261951 386.889744 262.153097 387.200000 262.042474 387.510256 261.930063 387.820513 261.815841 388.130769 261.699789 388.441026 261.581886 388.751282 261.462111 389.061538 261.340442 389.371795 261.216861 389.682051 261.091344 389.992308 260.963873 390.302564 260.834426 390.612821 260.702982 390.923077 260.569520 391.233333 260.434021 391.543590 260.296462 391.853846 260.156824 392.164103 260.015086 392.474359 259.871226 392.784615 259.725225 393.094872 259.577060 393.405128 259.426712 393.715385 259.274160 394.025641 259.119384 394.335897 258.962361 394.646154 258.803072 394.956410 258.641495 395.266667 258.477611 395.576923 258.311398 395.887179 258.142835 396.197436 257.971902 396.507692 257.798578 396.817949 257.622842 397.128205 257.444674 397.438462 257.264052 397.748718 257.080957 398.058974 256.895366 398.369231 256.707260 398.679487 256.516618 398.989744 256.323418 399.300000 256.127641 399.610256 255.929265 399.920513 255.728270 400.230769 255.524634 400.541026 255.318338 400.851282 255.109360 401.161538 254.897680 401.471795 254.683277 401.782051 254.466129 402.092308 254.246224 402.402564 254.023573 402.712821 253.798196 403.023077 253.570111 403.333333 253.339339 403.643590 253.105897 403.953846 252.869805 404.264103 252.631083 404.574359 252.389749 404.884615 252.145822 405.194872 251.899322 405.505128 251.650267 405.815385 251.398677 406.125641 251.144571 406.435897 250.887968 406.746154 250.628888 407.056410 250.367348 407.366667 250.103369 407.676923 249.836969 407.987179 249.568168 408.297436 249.296985 408.607692 249.023439 408.917949 248.747548 409.228205 248.469333 409.538462 248.188812 409.848718 247.906004 410.158974 247.620929 410.469231 247.333605 410.779487 247.044052 411.089744 246.752289 411.400000 246.458334 411.710256 246.162208 412.020513 245.863929 412.330769 245.563516 412.641026 245.260989 412.951282 244.956366 413.261538 244.649667 413.571795 244.340910 413.882051 244.030116 414.192308 243.717302 414.502564 243.402489 414.812821 243.085695 415.123077 242.766939 415.433333 242.446241 415.743590 242.123619 416.053846 241.799093 416.364103 241.472682 416.674359 241.144405 416.984615 240.814280 417.294872 240.482329 417.605128 240.148568 417.915385 239.813018 418.225641 239.475697 418.535897 239.136625 418.846154 238.795821 419.156410 238.453304 419.466667 238.109093 419.776923 237.763207 420.087179 237.415665 420.397436 237.066487 420.707692 236.715691 421.017949 236.363297 421.328205 236.009324 421.638462 235.653790 421.948718 235.296716 422.258974 234.938120 422.569231 234.578020 422.879487 234.216438 423.189744 233.853390 423.500000 233.488898 423.810256 233.122979 424.120513 232.755653 424.430769 232.386938 424.741026 232.016855 425.051282 231.645422 425.361538 231.272659 425.671795 230.898583 425.982051 230.523216 426.292308 230.146575 426.602564 229.768680 426.912821 229.389549 427.223077 229.009203 427.533333 228.627660 427.843590 228.244939 428.153846 227.861060 428.464103 227.476041 428.774359 227.089901 429.084615 226.702661 429.394872 226.314338 429.705128 225.924952 430.015385 225.534523 430.325641 225.143068 430.635897 224.750608 430.946154 224.357162 431.256410 223.962748 431.566667 223.567385 431.876923 223.171094 432.187179 222.773892 432.497436 222.375800 432.807692 221.976835 433.117949 221.577018 433.428205 221.176368 433.738462 220.774903 434.048718 220.372642 434.358974 219.969606 434.669231 219.565812 434.979487 219.161280 435.289744 218.756030 435.600000 218.350080 435.910256 217.943449 436.220513 217.536156 436.530769 217.128221 436.841026 216.719663 437.151282 216.310501 437.461538 215.900754 437.771795 215.490441 438.082051 215.079581 438.392308 214.668193 438.702564 214.256297 439.012821 213.843911 439.323077 213.431055 439.633333 213.017748 439.943590 212.604009 440.253846 212.189857 440.564103 211.775311 440.874359 211.360390 441.184615 210.945114 441.494872 210.529501 441.805128 210.113571 442.115385 209.697343 442.425641 209.280835 442.735897 208.864068 443.046154 208.447060 443.356410 208.029830 443.666667 207.612397 443.976923 207.194781 444.287179 206.777000 444.597436 206.359074 444.907692 205.941022 445.217949 205.522863 445.528205 205.104616 445.838462 204.686300 446.148718 204.267935 446.458974 203.849539 446.769231 203.431131 447.079487 203.012731 447.389744 202.594358 447.700000 202.176031 448.010256 201.757769 448.320513 201.339591 448.630769 200.921517 448.941026 200.503565 449.251282 200.085754 449.561538 199.668104 449.871795 199.250633 450.182051 198.833362 450.492308 198.416309 450.802564 197.999492 451.112821 197.582932 451.423077 197.166647 451.733333 196.750657 452.043590 196.334980 452.353846 195.919636 452.664103 195.504644 452.974359 195.090023 453.284615 194.675792 453.594872 194.261970 453.905128 193.848576 454.215385 193.435630 454.525641 193.023150 454.835897 192.611157 455.146154 192.199667 455.456410 191.788702 455.766667 191.378280 456.076923 190.968420 456.387179 190.559141 456.697436 190.150462 457.007692 189.742403 457.317949 189.334983 457.628205 188.928220 457.938462 188.522135 458.248718 188.116745 458.558974 187.712070 458.869231 187.308130 459.179487 186.904943 459.489744 186.502528 459.800000 186.100905 460.110256 185.700092 460.420513 185.300110 460.730769 184.900976 461.041026 184.502711 461.351282 184.105332 461.661538 183.708860 461.971795 183.313314 462.282051 182.918712 462.592308 182.525073 462.902564 182.132417 463.212821 181.740764 463.523077 181.350131 463.833333 180.960538 464.143590 180.572005 464.453846 180.184550 464.764103 179.798192 465.074359 179.412951 465.384615 179.028846 465.694872 178.645896 466.005128 178.264119 466.315385 177.883536 466.625641 177.504165 466.935897 177.126025 467.246154 176.749136 467.556410 176.373516 467.866667 175.999185 468.176923 175.626162 468.487179 175.254466 468.797436 174.884115 469.107692 174.515130 469.417949 174.147529 469.728205 173.781332 470.038462 173.416557 470.348718 173.053224 470.658974 172.691351 470.969231 172.330959 471.279487 171.972065 471.589744 171.614690 471.900000 171.258851 472.210256 170.904570 472.520513 170.551863 472.830769 170.200751 473.141026 169.851253 473.451282 169.503388 473.761538 169.157175 474.071795 168.812633 474.382051 168.469781 474.692308 168.128638 475.002564 167.789224 475.312821 167.451557 475.623077 167.115657 475.933333 166.781543 476.243590 166.449233 476.553846 166.118748 476.864103 165.790106 477.174359 165.463326 477.484615 165.138428 477.794872 164.815430 478.105128 164.494351 478.415385 164.175212 478.725641 163.858030 479.035897 163.542826 479.346154 163.229617 479.656410 162.918419 479.966667 162.609227 480.276923 162.302031 480.587179 161.996824 480.897436 161.693594 481.207692 161.392333 481.517949 161.093032 481.828205 160.795682 482.138462 160.500273 482.448718 160.206796 482.758974 159.915241 483.069231 159.625601 483.379487 159.337864 483.689744 159.052022 484.000000 158.768067 484.310256 158.485987 484.620513 158.205776 484.930769 157.927422 485.241026 157.650917 485.551282 157.376251 485.861538 157.103416 486.171795 156.832401 486.482051 156.563199 486.792308 156.295799 487.102564 156.030193 487.412821 155.766370 487.723077 155.504323 488.033333 155.244040 488.343590 154.985515 488.653846 154.728736 488.964103 154.473695 489.274359 154.220383 489.584615 153.968790 489.894872 153.718907 490.205128 153.470725 490.515385 153.224235 490.825641 152.979427 491.135897 152.736292 491.446154 152.494821 491.756410 152.255004 492.066667 152.016833 492.376923 151.780298 492.687179 151.545390 492.997436 151.312100 493.307692 151.080418 493.617949 150.850335 493.928205 150.621842 494.238462 150.394930 494.548718 150.169588 494.858974 149.945810 495.169231 149.723584 495.479487 149.502901 495.789744 149.283754 496.100000 149.066131 496.410256 148.850024 496.720513 148.635424 497.030769 148.422321 497.341026 148.210707 497.651282 148.000571 497.961538 147.791905 498.271795 147.584700 498.582051 147.378945 498.892308 147.174633 499.202564 146.971753 499.512821 146.770297 499.823077 146.570255 500.133333 146.371618 500.443590 146.174377 500.753846 145.978522 501.064103 145.784044 501.374359 145.590935 501.684615 145.399184 501.994872 145.208782 502.305128 145.019721 502.615385 144.831991 502.925641 144.645582 503.235897 144.460486 503.546154 144.276693 503.856410 144.094195 504.166667 143.912980 504.476923 143.733042 504.787179 143.554370 505.097436 143.376954 505.407692 143.200787 505.717949 143.025858 506.028205 142.852158 506.338462 142.679679 506.648718 142.508410 506.958974 142.338342 507.269231 142.169467 507.579487 142.001775 507.889744 141.835257 508.200000 141.669903 508.510256 141.505705 508.820513 141.342653 509.130769 141.180737 509.441026 141.019949 509.751282 140.860280 510.061538 140.701719 510.371795 140.544258 510.682051 140.387888 510.992308 140.232599 511.302564 140.078383 511.612821 139.925229 511.923077 139.773128 512.233333 139.622072 512.543590 139.472051 512.853846 139.323056 513.164103 139.175078 513.474359 139.028107 513.784615 138.882134 514.094872 138.737150 514.405128 138.593145 514.715385 138.450111 515.025641 138.308038 515.335897 138.166917 515.646154 138.026738 515.956410 137.887493 516.266667 137.749172 516.576923 137.611766 516.887179 137.475266 517.197436 137.339662 517.507692 137.204945 517.817949 137.071106 518.128205 136.938136 518.438462 136.806025 518.748718 136.674764 519.058974 136.544344 519.369231 136.414756 519.679487 136.285990 519.989744 136.158038 520.300000 136.030889 520.610256 135.904535 520.920513 135.778967 521.230769 135.654174 521.541026 135.530149 521.851282 135.406881 522.161538 135.284362 522.471795 135.162582 522.782051 135.041532 523.092308 134.921203 523.402564 134.801585 523.712821 134.682669 524.023077 134.564447 524.333333 134.446908 524.643590 134.330043 524.953846 134.213844 525.264103 134.098301 525.574359 133.983404 525.884615 133.869145 526.194872 133.755515 526.505128 133.642503 526.815385 133.530101 527.125641 133.418299 527.435897 133.307089 527.746154 133.196461 528.056410 133.086405 528.366667 132.976914 528.676923 132.867976 528.987179 132.759583 529.297436 132.651726 529.607692 132.544396 529.917949 132.437583 530.228205 132.331278 530.538462 132.225472 530.848718 132.120155 531.158974 132.015319 531.469231 131.910954 531.779487 131.807050 532.089744 131.703600 532.400000 131.600592 532.710256 131.498019 533.020513 131.395870 533.330769 131.294137 533.641026 131.192810 533.951282 131.091880 534.261538 130.991339 534.571795 130.891175 534.882051 130.791381 535.192308 130.691948 535.502564 130.592865 535.812821 130.494123 536.123077 130.395714 536.433333 130.297629 536.743590 130.199857 537.053846 130.102389 537.364103 130.005217 537.674359 129.908331 537.984615 129.811722 538.294872 129.715381 538.605128 129.619298 538.915385 129.523464 539.225641 129.427870 539.535897 129.332507 539.846154 129.237365 540.156410 129.142435 540.466667 129.047708 540.776923 128.953175 541.087179 128.858826 541.397436 128.764653 541.707692 128.670645 542.017949 128.576794 542.328205 128.483091 542.638462 128.389525 542.948718 128.296089 543.258974 128.202772 543.569231 128.109566 543.879487 128.016460 544.189744 127.923447 544.500000 127.830517 544.810256 127.737660 545.120513 127.644867 545.430769 127.552129 545.741026 127.459437 546.051282 127.366781 546.361538 127.274153 546.671795 127.181542 546.982051 127.088941 547.292308 126.996338 547.602564 126.903726 547.912821 126.811095 548.223077 126.718436 548.533333 126.625739 548.843590 126.532996 549.153846 126.440196 549.464103 126.347331 549.774359 126.254392 550.084615 126.161369 550.394872 126.068253 550.705128 125.975035 551.015385 125.881705 551.325641 125.788255 551.635897 125.694675 551.946154 125.600955 552.256410 125.507087 552.566667 125.413061 552.876923 125.318868 553.187179 125.224499 553.497436 125.129945 553.807692 125.035196 554.117949 124.940243 554.428205 124.845077 554.738462 124.749688 555.048718 124.654068 555.358974 124.558207 555.669231 124.462095 555.979487 124.365725 556.289744 124.269085 556.600000 124.172168 556.910256 124.074963 557.220513 123.977463 557.530769 123.879665 557.841026 123.781567 558.151282 123.683166 558.461538 123.584461 558.771795 123.485449 559.082051 123.386129 559.392308 123.286499 559.702564 123.186556 560.012821 123.086299 560.323077 122.985726 560.633333 122.884835 560.943590 122.783623 561.253846 122.682089 561.564103 122.580231 561.874359 122.478047 562.184615 122.375535 562.494872 122.272692 562.805128 122.169517 563.115385 122.066008 563.425641 121.962163 563.735897 121.857979 564.046154 121.753456 564.356410 121.648590 564.666667 121.543381 564.976923 121.437825 565.287179 121.331921 565.597436 121.225667 565.907692 121.119061 566.217949 121.012101 566.528205 120.904785 566.838462 120.797111 567.148718 120.689077 567.458974 120.580681 567.769231 120.471921 568.079487 120.362795 568.389744 120.253301 568.700000 120.143437 569.010256 120.033201 569.320513 119.922592 569.630769 119.811606 569.941026 119.700243 570.251282 119.588499 570.561538 119.476374 570.871795 119.363865 571.182051 119.250970 571.492308 119.137688 571.802564 119.024015 572.112821 118.909951 572.423077 118.795493 572.733333 118.680639 573.043590 118.565387 573.353846 118.449736 573.664103 118.333683 573.974359 118.217226 574.284615 118.100363 574.594872 117.983093 574.905128 117.865413 575.215385 117.747322 575.525641 117.628817 575.835897 117.509896 576.146154 117.390557 576.456410 117.270799 576.766667 117.150619 577.076923 117.030016 577.387179 116.908987 577.697436 116.787531 578.007692 116.665645 578.317949 116.543327 578.628205 116.420576 578.938462 116.297389 579.248718 116.173765 579.558974 116.049702 579.869231 115.925197 580.179487 115.800248 580.489744 115.674854 580.800000 115.549013 581.110256 115.422722 581.420513 115.295979 581.730769 115.168784 582.041026 115.041133 582.351282 114.913024 582.661538 114.784456 582.971795 114.655427 583.282051 114.525935 583.592308 114.395977 583.902564 114.265552 584.212821 114.134657 584.523077 114.003292 584.833333 113.871453 585.143590 113.739138 585.453846 113.606347 585.764103 113.473076 586.074359 113.339324 586.384615 113.205089 586.694872 113.070368 587.005128 112.935161 587.315385 112.799464 587.625641 112.663276 587.935897 112.526595 588.246154 112.389419 588.556410 112.251745 588.866667 112.113573 589.176923 111.974899 589.487179 111.835723 589.797436 111.696041 590.107692 111.555852 590.417949 111.415155 590.728205 111.273946 591.038462 111.132224 591.348718 110.989987 591.658974 110.847233 591.969231 110.703960 592.279487 110.560166 592.589744 110.415850 592.900000 110.271008 593.210256 110.125639 593.520513 109.979742 593.830769 109.833313 594.141026 109.686352 594.451282 109.538856 594.761538 109.390822 595.071795 109.242250 595.382051 109.093138 595.692308 108.943482 596.002564 108.793282 596.312821 108.642534 596.623077 108.491238 596.933333 108.339391 597.243590 108.186992 597.553846 108.034037 597.864103 107.880526 598.174359 107.726456 598.484615 107.571826 598.794872 107.416632 599.105128 107.260874 599.415385 107.104550 599.725641 106.947657 600.035897 106.790193 600.346154 106.632156 600.656410 106.473545 600.966667 106.314357 601.276923 106.154590 601.587179 105.994243 601.897436 105.833314 602.207692 105.671800 602.517949 105.509699 602.828205 105.347010 603.138462 105.183730 603.448718 105.019857 603.758974 104.855391 604.069231 104.690327 604.379487 104.524666 604.689744 104.358403 605.000000 104.191539 605.310256 104.024070 605.620513 103.855994 605.930769 103.687310 606.241026 103.518016 606.551282 103.348109 606.861538 103.177588 607.171795 103.006450 607.482051 102.834694 607.792308 102.662318 608.102564 102.489320 608.412821 102.315697 608.723077 102.141448 609.033333 101.966570 609.343590 101.791063 609.653846 101.614923 609.964103 101.438149 610.274359 101.260738 610.584615 101.082690 610.894872 100.904001 611.205128 100.724670 611.515385 100.544695 611.825641 100.364073 612.135897 100.182804 612.446154 100.000884 612.756410 99.818312 613.066667 99.635086 613.376923 99.451204 613.687179 99.266664 613.997436 99.081464 614.307692 98.895602 614.617949 98.709075 614.928205 98.521883 615.238462 98.334022 615.548718 98.145492 615.858974 97.956290 616.169231 97.766413 616.479487 97.575861 616.789744 97.384630 617.100000 97.192720 617.410256 97.000128 617.720513 96.806852 618.030769 96.612889 618.341026 96.418239 618.651282 96.222899 618.961538 96.026868 619.271795 95.830142 619.582051 95.632720 619.892308 95.434601 620.202564 95.235782 620.512821 95.036261 620.823077 94.836036 621.133333 94.635106 621.443590 94.433467 621.753846 94.231119 622.064103 94.028059 622.374359 93.824286 622.684615 93.619796 622.994872 93.414589 623.305128 93.208662 623.615385 93.002014 623.925641 92.794642 624.235897 92.586544 624.546154 92.377719 624.856410 92.168163 625.166667 91.957877 625.476923 91.746856 625.787179 91.535101 626.097436 91.322607 626.407692 91.109374 626.717949 90.895399 627.028205 90.680681 627.338462 90.465217 627.648718 90.249006 627.958974 90.032045 628.269231 89.814333 628.579487 89.595867 628.889744 89.376646 629.200000 89.156668 629.510256 88.935929 629.820513 88.714430 630.130769 88.492167 630.441026 88.269139 630.751282 88.045343 631.061538 87.820778 631.371795 87.595441 631.682051 87.369331 631.992308 87.142446 632.302564 86.914783 632.612821 86.686341 632.923077 86.457118 633.233333 86.227112 633.543590 85.996320 633.853846 85.764741 634.164103 85.532373 634.474359 85.299213 634.784615 85.065261 635.094872 84.830519 635.405128 84.594990 635.715385 84.358678 636.025641 84.121585 636.335897 83.883714 636.646154 83.645070 636.956410 83.405654 637.266667 83.165470 637.576923 82.924522 637.887179 82.682813 638.197436 82.440345 638.507692 82.197121 638.817949 81.953146 639.128205 81.708422 639.438462 81.462953 639.748718 81.216740 640.058974 80.969789 640.369231 80.722102 640.679487 80.473681 640.989744 80.224531 641.300000 79.974654 641.610256 79.724054 641.920513 79.472733 642.230769 79.220696 642.541026 78.967944 642.851282 78.714482 643.161538 78.460312 643.471795 78.205438 643.782051 77.949863 644.092308 77.693589 644.402564 77.436621 644.712821 77.178961 645.023077 76.920613 645.333333 76.661579 645.643590 76.401863 645.953846 76.141468 646.264103 75.880397 646.574359 75.618653 646.884615 75.356240 647.194872 75.093161 647.505128 74.829418 647.815385 74.565016 648.125641 74.299957 648.435897 74.034244 648.746154 73.767881 649.056410 73.500870 649.366667 73.233215 649.676923 72.964920 649.987179 72.695986 650.297436 72.426418 650.607692 72.156219 650.917949 71.885391 651.228205 71.613939 651.538462 71.341864 651.848718 71.069171 652.158974 70.795862 652.469231 70.521941 652.779487 70.247410 653.089744 69.972274 653.400000 69.696534 653.710256 69.420195 654.020513 69.143260 654.330769 68.865731 654.641026 68.587612 654.951282 68.308906 655.261538 68.029616 655.571795 67.749746 655.882051 67.469298 656.192308 67.188276 656.502564 66.906682 656.812821 66.624521 657.123077 66.341795 657.433333 66.058507 657.743590 65.774661 658.053846 65.490260 658.364103 65.205306 658.674359 64.919804 658.984615 64.633756 659.294872 64.347165 659.605128 64.060035 659.915385 63.772369 660.225641 63.484169 660.535897 63.195440 660.846154 62.906184 661.156410 62.616404 661.466667 62.326105 661.776923 62.035288 662.087179 61.743957 662.397436 61.452115 662.707692 61.159765 663.017949 60.866911 663.328205 60.573556 663.638462 60.279702 663.948718 59.985354 664.258974 59.690513 664.569231 59.395184 664.879487 59.099370 665.189744 58.803073 665.500000 58.506298 665.810256 58.209046 666.120513 57.911321 666.430769 57.613127 666.741026 57.314467 667.051282 57.015343 667.361538 56.715759 667.671795 56.415718 667.982051 56.115224 668.292308 55.814279 668.602564 55.512887 668.912821 55.211050 669.223077 54.908772 669.533333 54.606057 669.843590 54.302907 670.153846 53.999325 670.464103 53.695315 670.774359 53.390880 671.084615 53.086022 671.394872 52.780746 671.705128 52.475055 672.015385 52.168950 672.325641 51.862437 672.635897 51.555517 672.946154 51.248195 673.256410 50.940472 673.566667 50.632353 673.876923 50.323841 674.187179 50.014938 674.497436 49.705648 674.807692 49.395975 675.117949 49.085920 675.428205 48.775488 675.738462 48.464682 676.048718 48.153504 676.358974 47.841958 676.669231 47.530048 676.979487 47.217775 677.289744 46.905144 677.600000 46.592158 677.910256 46.278820 678.220513 45.965132 678.530769 45.651099 678.841026 45.336723 679.151282 45.022007 679.461538 44.706956 679.771795 44.391571 680.082051 44.075856 680.392308 43.759814 680.702564 43.443448 681.012821 43.126763 681.323077 42.809759 681.633333 42.492442 681.943590 42.174814 682.253846 41.856878 682.564103 41.538637 682.874359 41.220095 683.184615 40.901255 683.494872 40.582119 683.805128 40.262692 684.115385 39.942976 684.425641 39.622975 684.735897 39.302691 685.046154 38.982127 685.356410 38.661288 685.666667 38.340176 685.976923 38.018794 686.287179 37.697146 686.597436 37.375234 686.907692 37.053062 687.217949 36.730633 687.528205 36.407951 687.838462 36.085017 688.148718 35.761836 688.458974 35.438411 688.769231 35.114745 689.079487 34.790841 689.389744 34.466702 689.700000 34.142331 690.010256 33.817732 690.320513 33.492907 690.630769 33.167861 690.941026 32.842595 691.251282 32.517114 691.561538 32.191420 691.871795 31.865517 692.182051 31.539408 692.492308 31.213095 692.802564 30.886583 693.112821 30.559873 693.423077 30.232971 693.733333 29.905878 694.043590 29.578597 694.353846 29.251133 694.664103 28.923488 694.974359 28.595665 695.284615 28.267668 695.594872 27.939499 695.905128 27.611162 696.215385 27.282660 696.525641 26.953997 696.835897 26.625174 697.146154 26.296197 697.456410 25.967066 697.766667 25.637787 698.076923 25.308362 698.387179 24.978794 698.697436 24.649087 699.007692 24.319243 699.317949 23.989265 699.628205 23.659158 699.938462 23.328924 700.248718 22.998566 700.558974 22.668087 700.869231 22.337491 701.179487 22.006781 701.489744 21.675960 701.800000 21.345031 702.110256 21.013997 702.420513 20.682861 702.730769 20.351628 703.041026 20.020299 703.351282 19.688878 703.661538 19.357368 703.971795 19.025772 704.282051 18.694094 704.592308 18.362337 704.902564 18.030504 705.212821 17.698597 705.523077 17.366621 705.833333 17.034578 706.143590 16.702472 706.453846 16.370305 706.764103 16.038082 707.074359 15.705804 707.384615 15.373476 707.694872 15.041100 708.005128 14.708679 708.315385 14.376218 708.625641 14.043718 708.935897 13.711183 709.246154 13.378617 709.556410 13.046022 709.866667 12.713402 710.176923 12.380759 710.487179 12.048098 710.797436 11.715420 711.107692 11.382730 711.417949 11.050031 711.728205 10.717325 712.038462 10.384615 712.038462 540.000000" /></g></g><g class="titles" /><g class="plot overlay" transform="translate(54, 20)"><g class="series serie-0 color-0"><g class="dots"><circle class="dot reactive tooltip-trigger" cx="13.96153846153846" cy="529.6153846153845" r="2.5" /><desc class="value">365,129,620(kWh)</desc><desc class="x top">13.96153846153846</desc><desc class="y top">529.6153846153845</desc><desc class="x_label">2549</desc></g><g class="dots"><circle class="dot reactive tooltip-trigger" cx="91.52564102564101" cy="476.79967400442524" r="2.5" /><desc class="value">401,875,678(kWh)</desc><desc class="x top">91.52564102564101</desc><desc class="y top">476.79967400442524</desc><desc class="x_label">2550</desc></g><g class="dots"><circle class="dot reactive tooltip-trigger" cx="169.08974358974356" cy="446.9688785156534" r="2.5" /><desc class="value">422,630,187(kWh)</desc><desc class="x top">169.08974358974356</desc><desc class="y top">446.9688785156534</desc><desc class="x_label">2551</desc></g><g class="dots"><circle class="dot reactive tooltip-trigger" cx="246.65384615384613" cy="366.2215919580959" r="2.5" /><desc class="value">478,809,389(kWh)</desc><desc class="x top">246.65384615384613</desc><desc class="y top">366.2215919580959</desc><desc class="x_label">2552</desc></g><g class="dots"><circle class="dot reactive tooltip-trigger" cx="324.21794871794873" cy="276.7569658201055" r="2.5" /><desc class="value">541,053,602(kWh)</desc><desc class="x top">324.21794871794873</desc><desc class="y top">276.7569658201055</desc><desc class="x_label">2553</desc></g><g class="dots"><circle class="dot reactive tooltip-trigger" cx="401.78205128205127" cy="254.4661293345523" r="2.5" /><desc class="value">556,562,252(kWh)</desc><desc class="x left">401.78205128205127</desc><desc class="y left">254.4661293345523</desc><desc class="x_label">2554</desc></g><g class="dots"><circle class="dot reactive tooltip-trigger" cx="479.3461538461538" cy="163.2296169487169" r="2.5" /><desc class="value">620,039,239(kWh)</desc><desc class="x left">479.3461538461538</desc><desc class="y left">163.2296169487169</desc><desc class="x_label">2555</desc></g><g class="dots"><circle class="dot reactive tooltip-trigger" cx="556.9102564102565" cy="124.07496311868027" r="2.5" /><desc class="value">647,280,739(kWh)</desc><desc class="x left">556.9102564102565</desc><desc class="y left">124.07496311868027</desc><desc class="x_label">2556</desc></g><g class="dots"><circle class="dot reactive tooltip-trigger" cx="634.474358974359" cy="85.29921319217397" r="2.5" /><desc class="value">674,258,620(kWh)</desc><desc class="x left">634.474358974359</desc><desc class="y left">85.29921319217397</desc><desc class="x_label">2557</desc></g><g class="dots"><circle class="dot reactive tooltip-trigger" cx="712.0384615384615" cy="10.384615384615472" r="2.5" /><desc class="value">726,379,781(kWh)</desc><desc class="x left">712.0384615384615</desc><desc class="y left">10.384615384615472</desc><desc class="x_label">2558</desc></g></g></g><g class="plot text-overlay" transform="translate(54, 20)"><g class="series serie-0 color-0" /></g><g class="plot tooltip-overlay" transform="translate(54, 20)"><g class="tooltip" style="opacity: 0" transform="translate(0 0)"><rect class="tooltip-box" height="0" rx="0" ry="0" width="0" /><g class="text" /></g></g></g></svg>