<?xml version='1.0' encoding='utf-8'?>
<svg xmlns:xlink="http://www.w3.org/1999/xlink" class="pygal-chart" id="chart-0e01528b-c8aa-41ef-a722-7e1c2f28e4e6" viewBox="0 0 800 600" xmlns="http://www.w3.org/2000/svg"><!--Generated with pygal 2.3.0 (etree) ©Kozea 2012-2016 on 2016-12-08--><!--http://pygal.org--><!--http://github.com/Kozea/pygal--><defs><style type="text/css">#chart-0e01528b-c8aa-41ef-a722-7e1c2f28e4e6{-webkit-user-select:none;-webkit-font-smoothing:antialiased;font-family:Consolas,"Liberation Mono",Menlo,Courier,monospace}#chart-0e01528b-c8aa-41ef-a722-7e1c2f28e4e6 .title{font-family:Consolas,"Liberation Mono",Menlo,Courier,monospace;font-size:16px}#chart-0e01528b-c8aa-41ef-a722-7e1c2f28e4e6 .legends .legend text{font-family:Consolas,"Liberation Mono",Menlo,Courier,monospace;font-size:14px}#chart-0e01528b-c8aa-41ef-a722-7e1c2f28e4e6 .axis text{font-family:Consolas,"Liberation Mono",Menlo,Courier,monospace;font-size:10px}#chart-0e01528b-c8aa-41ef-a722-7e1c2f28e4e6 .axis text.major{font-family:Consolas,"Liberation Mono",Menlo,Courier,monospace;font-size:10px}#chart-0e01528b-c8aa-41ef-a722-7e1c2f28e4e6 .text-overlay text.value{font-family:Consolas,"Liberation Mono",Menlo,Courier,monospace;font-size:16px}#chart-0e01528b-c8aa-41ef-a722-7e1c2f28e4e6 .text-overlay text.label{font-family:Consolas,"Liberation Mono",Menlo,Courier,monospace;font-size:10px}#chart-0e01528b-c8aa-41ef-a722-7e1c2f28e4e6 .tooltip{font-family:Consolas,"Liberation Mono",Menlo,Courier,monospace;font-size:14px}#chart-0e01528b-c8aa-41ef-a722-7e1c2f28e4e6 text.no_data{font-family:Consolas,"Liberation Mono",Menlo,Courier,monospace;font-size:64px}
#chart-0e01528b-c8aa-41ef-a722-7e1c2f28e4e6{background-color:rgba(249,249,249,1)}#chart-0e01528b-c8aa-41ef-a722-7e1c2f28e4e6 path,#chart-0e01528b-c8aa-41ef-a722-7e1c2f28e4e6 line,#chart-0e01528b-c8aa-41ef-a722-7e1c2f28e4e6 rect,#chart-0e01528b-c8aa-41ef-a722-7e1c2f28e4e6 circle{-webkit-transition:150ms;-moz-transition:150ms;transition:150ms}#chart-0e01528b-c8aa-41ef-a722-7e1c2f28e4e6 .graph &gt; .background{fill:rgba(249,249,249,1)}#chart-0e01528b-c8aa-41ef-a722-7e1c2f28e4e6 .plot &gt; .background{fill:rgba(255,255,255,1)}#chart-0e01528b-c8aa-41ef-a722-7e1c2f28e4e6 .graph{fill:rgba(0,0,0,.87)}#chart-0e01528b-c8aa-41ef-a722-7e1c2f28e4e6 text.no_data{fill:rgba(0,0,0,1)}#chart-0e01528b-c8aa-41ef-a722-7e1c2f28e4e6 .title{fill:rgba(0,0,0,1)}#chart-0e01528b-c8aa-41ef-a722-7e1c2f28e4e6 .legends .legend text{fill:rgba(0,0,0,.87)}#chart-0e01528b-c8aa-41ef-a722-7e1c2f28e4e6 .legends .legend:hover text{fill:rgba(0,0,0,1)}#chart-0e01528b-c8aa-41ef-a722-7e1c2f28e4e6 .axis .line{stroke:rgba(0,0,0,1)}#chart-0e01528b-c8aa-41ef-a722-7e1c2f28e4e6 .axis .guide.line{stroke:rgba(0,0,0,.54)}#chart-0e01528b-c8aa-41ef-a722-7e1c2f28e4e6 .axis .major.line{stroke:rgba(0,0,0,.87)}#chart-0e01528b-c8aa-41ef-a722-7e1c2f28e4e6 .axis text.major{fill:rgba(0,0,0,1)}#chart-0e01528b-c8aa-41ef-a722-7e1c2f28e4e6 .axis.y .guides:hover .guide.line,#chart-0e01528b-c8aa-41ef-a722-7e1c2f28e4e6 .line-graph .axis.x .guides:hover .guide.line,#chart-0e01528b-c8aa-41ef-a722-7e1c2f28e4e6 .stackedline-graph .axis.x .guides:hover .guide.line,#chart-0e01528b-c8aa-41ef-a722-7e1c2f28e4e6 .xy-graph .axis.x .guides:hover .guide.line{stroke:rgba(0,0,0,1)}#chart-0e01528b-c8aa-41ef-a722-7e1c2f28e4e6 .axis .guides:hover text{fill:rgba(0,0,0,1)}#chart-0e01528b-c8aa-41ef-a722-7e1c2f28e4e6 .reactive{fill-opacity:.7;stroke-opacity:.8}#chart-0e01528b-c8aa-41ef-a722-7e1c2f28e4e6 .ci{stroke:rgba(0,0,0,.87)}#chart-0e01528b-c8aa-41ef-a722-7e1c2f28e4e6 .reactive.active,#chart-0e01528b-c8aa-41ef-a722-7e1c2f28e4e6 .active .reactive{fill-opacity:.8;stroke-opacity:.9;stroke-width:4}#chart-0e01528b-c8aa-41ef-a722-7e1c2f28e4e6 .ci .reactive.active{stroke-width:1.5}#chart-0e01528b-c8aa-41ef-a722-7e1c2f28e4e6 .series text{fill:rgba(0,0,0,1)}#chart-0e01528b-c8aa-41ef-a722-7e1c2f28e4e6 .tooltip rect{fill:rgba(255,255,255,1);stroke:rgba(0,0,0,1);-webkit-transition:opacity 150ms;-moz-transition:opacity 150ms;transition:opacity 150ms}#chart-0e01528b-c8aa-41ef-a722-7e1c2f28e4e6 .tooltip .label{fill:rgba(0,0,0,.87)}#chart-0e01528b-c8aa-41ef-a722-7e1c2f28e4e6 .tooltip .label{fill:rgba(0,0,0,.87)}#chart-0e01528b-c8aa-41ef-a722-7e1c2f28e4e6 .tooltip .legend{font-size:.8em;fill:rgba(0,0,0,.54)}#chart-0e01528b-c8aa-41ef-a722-7e1c2f28e4e6 .tooltip .x_label{font-size:.6em;fill:rgba(0,0,0,1)}#chart-0e01528b-c8aa-41ef-a722-7e1c2f28e4e6 .tooltip .xlink{font-size:.5em;text-decoration:underline}#chart-0e01528b-c8aa-41ef-a722-7e1c2f28e4e6 .tooltip .value{font-size:1.5em}#chart-0e01528b-c8aa-41ef-a722-7e1c2f28e4e6 .bound{font-size:.5em}#chart-0e01528b-c8aa-41ef-a722-7e1c2f28e4e6 .max-value{font-size:.75em;fill:rgba(0,0,0,.54)}#chart-0e01528b-c8aa-41ef-a722-7e1c2f28e4e6 .map-element{fill:rgba(255,255,255,1);stroke:rgba(0,0,0,.54) !important}#chart-0e01528b-c8aa-41ef-a722-7e1c2f28e4e6 .map-element .reactive{fill-opacity:inherit;stroke-opacity:inherit}#chart-0e01528b-c8aa-41ef-a722-7e1c2f28e4e6 .color-0,#chart-0e01528b-c8aa-41ef-a722-7e1c2f28e4e6 .color-0 a:visited{stroke:#e86fa0;fill:#e86fa0}#chart-0e01528b-c8aa-41ef-a722-7e1c2f28e4e6 .text-overlay .color-0 text{fill:black}
#chart-0e01528b-c8aa-41ef-a722-7e1c2f28e4e6 text.no_data{text-anchor:middle}#chart-0e01528b-c8aa-41ef-a722-7e1c2f28e4e6 .guide.line{fill:none}#chart-0e01528b-c8aa-41ef-a722-7e1c2f28e4e6 .centered{text-anchor:middle}#chart-0e01528b-c8aa-41ef-a722-7e1c2f28e4e6 .title{text-anchor:middle}#chart-0e01528b-c8aa-41ef-a722-7e1c2f28e4e6 .legends .legend text{fill-opacity:1}#chart-0e01528b-c8aa-41ef-a722-7e1c2f28e4e6 .axis.x text{text-anchor:middle}#chart-0e01528b-c8aa-41ef-a722-7e1c2f28e4e6 .axis.x:not(.web) text[transform]{text-anchor:start}#chart-0e01528b-c8aa-41ef-a722-7e1c2f28e4e6 .axis.x:not(.web) text[transform].backwards{text-anchor:end}#chart-0e01528b-c8aa-41ef-a722-7e1c2f28e4e6 .axis.y text{text-anchor:end}#chart-0e01528b-c8aa-41ef-a722-7e1c2f28e4e6 .axis.y text[transform].backwards{text-anchor:start}#chart-0e01528b-c8aa-41ef-a722-7e1c2f28e4e6 .axis.y2 text{text-anchor:start}#chart-0e01528b-c8aa-41ef-a722-7e1c2f28e4e6 .axis.y2 text[transform].backwards{text-anchor:end}#chart-0e01528b-c8aa-41ef-a722-7e1c2f28e4e6 .axis .guide.line{stroke-dasharray:4,4}#chart-0e01528b-c8aa-41ef-a722-7e1c2f28e4e6 .axis .major.guide.line{stroke-dasharray:6,6}#chart-0e01528b-c8aa-41ef-a722-7e1c2f28e4e6 .horizontal .axis.y .guide.line,#chart-0e01528b-c8aa-41ef-a722-7e1c2f28e4e6 .horizontal .axis.y2 .guide.line,#chart-0e01528b-c8aa-41ef-a722-7e1c2f28e4e6 .vertical .axis.x .guide.line{opacity:0}#chart-0e01528b-c8aa-41ef-a722-7e1c2f28e4e6 .horizontal .axis.always_show .guide.line,#chart-0e01528b-c8aa-41ef-a722-7e1c2f28e4e6 .vertical .axis.always_show .guide.line{opacity:1 !important}#chart-0e01528b-c8aa-41ef-a722-7e1c2f28e4e6 .axis.y .guides:hover .guide.line,#chart-0e01528b-c8aa-41ef-a722-7e1c2f28e4e6 .axis.y2 .guides:hover .guide.line,#chart-0e01528b-c8aa-41ef-a722-7e1c2f28e4e6 .axis.x .guides:hover .guide.line{opacity:1}#chart-0e01528b-c8aa-41ef-a722-7e1c2f28e4e6 .axis .guides:hover text{opacity:1}#chart-0e01528b-c8aa-41ef-a722-7e1c2f28e4e6 .nofill{fill:none}#chart-0e01528b-c8aa-41ef-a722-7e1c2f28e4e6 .subtle-fill{fill-opacity:.2}#chart-0e01528b-c8aa-41ef-a722-7e1c2f28e4e6 .dot{stroke-width:1px;fill-opacity:1}#chart-0e01528b-c8aa-41ef-a722-7e1c2f28e4e6 .dot.active{stroke-width:5px}#chart-0e01528b-c8aa-41ef-a722-7e1c2f28e4e6 .dot.negative{fill:transparent}#chart-0e01528b-c8aa-41ef-a722-7e1c2f28e4e6 text,#chart-0e01528b-c8aa-41ef-a722-7e1c2f28e4e6 tspan{stroke:none !important}#chart-0e01528b-c8aa-41ef-a722-7e1c2f28e4e6 .series text.active{opacity:1}#chart-0e01528b-c8aa-41ef-a722-7e1c2f28e4e6 .tooltip rect{fill-opacity:.95;stroke-width:.5}#chart-0e01528b-c8aa-41ef-a722-7e1c2f28e4e6 .tooltip text{fill-opacity:1}#chart-0e01528b-c8aa-41ef-a722-7e1c2f28e4e6 .showable{visibility:hidden}#chart-0e01528b-c8aa-41ef-a722-7e1c2f28e4e6 .showable.shown{visibility:visible}#chart-0e01528b-c8aa-41ef-a722-7e1c2f28e4e6 .gauge-background{fill:rgba(229,229,229,1);stroke:none}#chart-0e01528b-c8aa-41ef-a722-7e1c2f28e4e6 .bg-lines{stroke:rgba(249,249,249,1);stroke-width:2px}</style><script type="text/javascript">window.pygal = window.pygal || {};window.pygal.config = window.pygal.config || {};window.pygal.config['0e01528b-c8aa-41ef-a722-7e1c2f28e4e6'] = {"no_data_text": "No data", "no_prefix": false, "xrange": null, "print_values_position": "center", "truncate_label": null, "x_labels": ["2549", "2550", "2551", "2552", "2553", "2554", "2555", "2556", "2557", "2558"], "title": null, "force_uri_protocol": "https", "defs": [], "formatter": null, "classes": ["pygal-chart"], "y_labels": null, "rounded_bars": null, "explicit_size": false, "x_labels_major_every": null, "legend_at_bottom_columns": null, "stroke_style": null, "half_pie": false, "spacing": 10, "tooltip_fancy_mode": true, "inverse_y_axis": false, "width": 800, "inner_radius": 0, "interpolation_parameters": {}, "tooltip_border_radius": 0, "style": {"no_data_font_family": "Consolas, \"Liberation Mono\", Menlo, Courier, monospace", "tooltip_font_size": 14, "tooltip_font_family": "Consolas, \"Liberation Mono\", Menlo, Courier, monospace", "stroke_opacity_hover": ".9", "legend_font_family": "Consolas, \"Liberation Mono\", Menlo, Courier, monospace", "font_family": "Consolas, \"Liberation Mono\", Menlo, Courier, monospace", "title_font_family": "Consolas, \"Liberation Mono\", Menlo, Courier, monospace", "background": "rgba(249, 249, 249, 1)", "stroke_opacity": ".8", "foreground": "rgba(0, 0, 0, .87)", "value_background": "rgba(229, 229, 229, 1)", "guide_stroke_dasharray": "4,4", "foreground_subtle": "rgba(0, 0, 0, .54)", "opacity_hover": ".8", "value_font_family": "Consolas, \"Liberation Mono\", Menlo, Courier, monospace", "value_label_font_size": 10, "plot_background": "rgba(255, 255, 255, 1)", "ci_colors": [], "label_font_size": 10, "major_label_font_size": 10, "title_font_size": 16, "no_data_font_size": 64, "value_font_size": 16, "value_colors": [], "label_font_family": "Consolas, \"Liberation Mono\", Menlo, Courier, monospace", "major_guide_stroke_dasharray": "6,6", "transition": "150ms", "foreground_strong": "rgba(0, 0, 0, 1)", "colors": ["#e86fa0", "#e88f6f", "#e8df6f", "#a0e86f", "#6fe88f", "#6fe8df", "#6fa0e8", "#8f6fe8", "#df6fe8", "#e86fa0"], "opacity": ".7", "legend_font_size": 14, "value_label_font_family": "Consolas, \"Liberation Mono\", Menlo, Courier, monospace", "major_label_font_family": "Consolas, \"Liberation Mono\", Menlo, Courier, monospace"}, "x_labels_major_count": null, "interpolation_precision": 250, "missing_value_fill_truncation": "x", "stack_from_top": false, "truncate_legend": null, "show_minor_x_labels": true, "print_zeroes": true, "css": ["file://style.css", "file://graph.css"], "y_label_rotation": 0, "legend_at_bottom": false, "print_values": false, "margin_top": null, "max_scale": 16, "allow_interruptions": false, "show_x_labels": true, "strict": false, "show_x_guides": false, "stroke": true, "margin_left": null, "dynamic_print_values": false, "print_labels": false, "show_y_labels": true, "x_labels_major": null, "range": null, "x_label_rotation": 0, "margin": 20, "zero": 0, "include_x_axis": false, "height": 600, "show_minor_y_labels": true, "show_dots": true, "interpolate": "cubic", "show_y_guides": true, "y_labels_major": null, "box_mode": "extremes", "margin_bottom": null, "order_min": null, "legend_box_size": 12, "fill": true, "show_only_major_dots": false, "js": ["//kozea.github.io/pygal.js/2.0.x/pygal-tooltips.min.js"], "x_title": null, "y_labels_major_every": null, "y_labels_major_count": null, "disable_xml_declaration": false, "y_title": null, "logarithmic": false, "pretty_print": false, "min_scale": 4, "dots_size": 2.5, "margin_right": null, "legends": [null], "secondary_range": null, "show_legend": false}</script><script type="text/javascript" xlink:href="https://kozea.github.io/pygal.js/2.0.x/pygal-tooltips.min.js" /></defs><title>Pygal</title><g class="graph stackedline-graph vertical"><rect class="background" height="600" width="800" x="0" y="0" /><g class="plot" transform="translate(60, 20)"><rect class="background" height="540" width="720.0" x="0" y="0" /><g class="axis y"><path class="line" d="M0.000000 540.000000 h720.000000" /><g class="guides"><path class="guide line" d="M0.000000 500.828515 h720.000000" /><text class="" x="-5" y="504.32851501270596">800M</text><title>800M</title></g><g class="guides"><path class="guide line" d="M0.000000 393.613734 h720.000000" /><text class="" x="-5" y="397.11373388824404">900M</text><title>900M</title></g><g class="guides"><path class="major guide line" d="M0.000000 286.398953 h720.000000" /><text class="major" x="-5" y="289.8989527637822">1000M</text><title>1000M</title></g><g class="guides"><path class="guide line" d="M0.000000 179.184172 h720.000000" /><text class="" x="-5" y="182.68417163932025">1100M</text><title>1100M</title></g><g class="guides"><path class="guide line" d="M0.000000 71.969391 h720.000000" /><text class="" x="-5" y="75.46939051485833">1200M</text><title>1200M</title></g></g><g class="axis x"><g class="guides"><path class="line" d="M13.846154 0.000000 v540.000000" /><text class="" x="13.846153846153847" y="555.0">2549</text></g><g class="guides"><path class="guide line" d="M90.769231 0.000000 v540.000000" /><text class="" x="90.76923076923076" y="555.0">2550</text></g><g class="guides"><path class="guide line" d="M167.692308 0.000000 v540.000000" /><text class="" x="167.69230769230765" y="555.0">2551</text></g><g class="guides"><path class="guide line" d="M244.615385 0.000000 v540.000000" /><text class="" x="244.6153846153846" y="555.0">2552</text></g><g class="guides"><path class="guide line" d="M321.538462 0.000000 v540.000000" /><text class="" x="321.5384615384615" y="555.0">2553</text></g><g class="guides"><path class="guide line" d="M398.461538 0.000000 v540.000000" /><text class="" x="398.46153846153845" y="555.0">2554</text></g><g class="guides"><path class="guide line" d="M475.384615 0.000000 v540.000000" /><text class="" x="475.38461538461536" y="555.0">2555</text></g><g class="guides"><path class="guide line" d="M552.307692 0.000000 v540.000000" /><text class="" x="552.3076923076923" y="555.0">2556</text></g><g class="guides"><path class="guide line" d="M629.230769 0.000000 v540.000000" /><text class="" x="629.2307692307692" y="555.0">2557</text></g><g class="guides"><path class="guide line" d="M706.153846 0.000000 v540.000000" /><text class="" x="706.1538461538461" y="555.0">2558</text></g></g><g class="series serie-0 color-0"><path class="line reactive" d="M13.846154 540.000000 L13.846154 529.615385 14.153846 529.307082 14.461538 528.998784 14.769231 528.690497 15.076923 528.382225 15.384615 528.073974 15.692308 527.765749 16.000000 527.457555 16.307692 527.149397 16.615385 526.841280 16.923077 526.533210 17.230769 526.225192 17.538462 525.917230 17.846154 525.609331 18.153846 525.301499 18.461538 524.993739 18.769231 524.686057 19.076923 524.378457 19.384615 524.070945 19.692308 523.763527 20.000000 523.456207 20.307692 523.148990 20.615385 522.841882 20.923077 522.534887 21.230769 522.228012 21.538462 521.921260 21.846154 521.614638 22.153846 521.308150 22.461538 521.001802 22.769231 520.695599 23.076923 520.389546 23.384615 520.083647 23.692308 519.777909 24.000000 519.472337 24.307692 519.166935 24.615385 518.861709 24.923077 518.556664 25.230769 518.251805 25.538462 517.947138 25.846154 517.642667 26.153846 517.338398 26.461538 517.034335 26.769231 516.730485 27.076923 516.426851 27.384615 516.123441 27.692308 515.820257 28.000000 515.517307 28.307692 515.214594 28.615385 514.912124 28.923077 514.609902 29.230769 514.307934 29.538462 514.006225 29.846154 513.704779 30.153846 513.403602 30.461538 513.102699 30.769231 512.802075 31.076923 512.501736 31.384615 512.201686 31.692308 511.901931 32.000000 511.602476 32.307692 511.303326 32.615385 511.004487 32.923077 510.705962 33.230769 510.407759 33.538462 510.109881 33.846154 509.812334 34.153846 509.515123 34.461538 509.218254 34.769231 508.921731 35.076923 508.625560 35.384615 508.329745 35.692308 508.034293 36.000000 507.739207 36.307692 507.444494 36.615385 507.150158 36.923077 506.856205 37.230769 506.562640 37.538462 506.269468 37.846154 505.976694 38.153846 505.684324 38.461538 505.392362 38.769231 505.100813 39.076923 504.809684 39.384615 504.518978 39.692308 504.228702 40.000000 503.938860 40.307692 503.649458 40.615385 503.360500 40.923077 503.071992 41.230769 502.783939 41.538462 502.496347 41.846154 502.209220 42.153846 501.922563 42.461538 501.636383 42.769231 501.350683 43.076923 501.065469 43.384615 500.780746 43.692308 500.496520 44.000000 500.212796 44.307692 499.929578 44.615385 499.646872 44.923077 499.364684 45.230769 499.083017 45.538462 498.801878 45.846154 498.521272 46.153846 498.241204 46.461538 497.961678 46.769231 497.682701 47.076923 497.404276 47.384615 497.126411 47.692308 496.849109 48.000000 496.572376 48.307692 496.296216 48.615385 496.020636 48.923077 495.745641 49.230769 495.471235 49.538462 495.197423 49.846154 494.924212 50.153846 494.651605 50.461538 494.379609 50.769231 494.108227 51.076923 493.837467 51.384615 493.567332 51.692308 493.297828 52.000000 493.028960 52.307692 492.760734 52.615385 492.493153 52.923077 492.226225 53.230769 491.959953 53.538462 491.694342 53.846154 491.429399 54.153846 491.165129 54.461538 490.901535 54.769231 490.638624 55.076923 490.376401 55.384615 490.114871 55.692308 489.854039 56.000000 489.593911 56.307692 489.334490 56.615385 489.075784 56.923077 488.817796 57.230769 488.560532 57.538462 488.303997 57.846154 488.048196 58.153846 487.793135 58.461538 487.538819 58.769231 487.285252 59.076923 487.032441 59.384615 486.780389 59.692308 486.529103 60.000000 486.278588 60.307692 486.028848 60.615385 485.779888 60.923077 485.531715 61.230769 485.284333 61.538462 485.037748 61.846154 484.791964 62.153846 484.546986 62.461538 484.302821 62.769231 484.059472 63.076923 483.816946 63.384615 483.575247 63.692308 483.334381 64.000000 483.094352 64.307692 482.855166 64.615385 482.616829 64.923077 482.379344 65.230769 482.142718 65.538462 481.906956 65.846154 481.672062 66.153846 481.438042 66.461538 481.204902 66.769231 480.972645 67.076923 480.741278 67.384615 480.510806 67.692308 480.281233 68.000000 480.052565 68.307692 479.824808 68.615385 479.597965 68.923077 479.372044 69.230769 479.147047 69.538462 478.922982 69.846154 478.699853 70.153846 478.477664 70.461538 478.256422 70.769231 478.036132 71.076923 477.816798 71.384615 477.598426 71.692308 477.381021 72.000000 477.164588 72.307692 476.949132 72.615385 476.734659 72.923077 476.521174 73.230769 476.308682 73.538462 476.097187 73.846154 475.886696 74.153846 475.677213 74.461538 475.468744 74.769231 475.261293 75.076923 475.054866 75.384615 474.849468 75.692308 474.645105 76.000000 474.441781 76.307692 474.239501 76.615385 474.038272 76.923077 473.838097 77.230769 473.638982 77.538462 473.440932 77.846154 473.243953 78.153846 473.048050 78.461538 472.853227 78.769231 472.659490 79.076923 472.466844 79.384615 472.275295 79.692308 472.084847 80.000000 471.895505 80.307692 471.707275 80.615385 471.520163 80.923077 471.334172 81.230769 471.149309 81.538462 470.965578 81.846154 470.782985 82.153846 470.601535 82.461538 470.421232 82.769231 470.242083 83.076923 470.064092 83.384615 469.887265 83.692308 469.711606 84.000000 469.537122 84.307692 469.363816 84.615385 469.191694 84.923077 469.020762 85.230769 468.851024 85.538462 468.682486 85.846154 468.515153 86.153846 468.349030 86.461538 468.184122 86.769231 468.020434 87.076923 467.857972 87.384615 467.696741 87.692308 467.536746 88.000000 467.377991 88.307692 467.220483 88.615385 467.064226 88.923077 466.909226 89.230769 466.755488 89.538462 466.603017 89.846154 466.451817 90.153846 466.301895 90.461538 466.153256 90.769231 466.005904 91.076923 465.859841 91.384615 465.715060 91.692308 465.571547 92.000000 465.429291 92.307692 465.288279 92.615385 465.148499 92.923077 465.009939 93.230769 464.872588 93.538462 464.736432 93.846154 464.601461 94.153846 464.467661 94.461538 464.335020 94.769231 464.203528 95.076923 464.073171 95.384615 463.943937 95.692308 463.815814 96.000000 463.688791 96.307692 463.562854 96.615385 463.437993 96.923077 463.314194 97.230769 463.191447 97.538462 463.069737 97.846154 462.949055 98.153846 462.829387 98.461538 462.710721 98.769231 462.593046 99.076923 462.476348 99.384615 462.360617 99.692308 462.245840 100.000000 462.132004 100.307692 462.019098 100.615385 461.907110 100.923077 461.796028 101.230769 461.685839 101.538462 461.576531 101.846154 461.468092 102.153846 461.360511 102.461538 461.253775 102.769231 461.147871 103.076923 461.042789 103.384615 460.938515 103.692308 460.835038 104.000000 460.732345 104.307692 460.630425 104.615385 460.529265 104.923077 460.428853 105.230769 460.329178 105.538462 460.230226 105.846154 460.131987 106.153846 460.034447 106.461538 459.937595 106.769231 459.841419 107.076923 459.745906 107.384615 459.651045 107.692308 459.556823 108.000000 459.463228 108.307692 459.370248 108.615385 459.277871 108.923077 459.186086 109.230769 459.094879 109.538462 459.004239 109.846154 458.914153 110.153846 458.824610 110.461538 458.735597 110.769231 458.647103 111.076923 458.559115 111.384615 458.471621 111.692308 458.384609 112.000000 458.298067 112.307692 458.211983 112.615385 458.126344 112.923077 458.041139 113.230769 457.956356 113.538462 457.871982 113.846154 457.788005 114.153846 457.704413 114.461538 457.621195 114.769231 457.538338 115.076923 457.455829 115.384615 457.373657 115.692308 457.291810 116.000000 457.210276 116.307692 457.129042 116.615385 457.048097 116.923077 456.967428 117.230769 456.887023 117.538462 456.806870 117.846154 456.726957 118.153846 456.647272 118.461538 456.567803 118.769231 456.488537 119.076923 456.409463 119.384615 456.330569 119.692308 456.251842 120.000000 456.173270 120.307692 456.094841 120.615385 456.016544 120.923077 455.938366 121.230769 455.860294 121.538462 455.782317 121.846154 455.704423 122.153846 455.626600 122.461538 455.548834 122.769231 455.471116 123.076923 455.393431 123.384615 455.315769 123.692308 455.238117 124.000000 455.160463 124.307692 455.082795 124.615385 455.005100 124.923077 454.927367 125.230769 454.849584 125.538462 454.771738 125.846154 454.693818 126.153846 454.615811 126.461538 454.537705 126.769231 454.459488 127.076923 454.381148 127.384615 454.302673 127.692308 454.224050 128.000000 454.145269 128.307692 454.066316 128.615385 453.987179 128.923077 453.907847 129.230769 453.828307 129.538462 453.748547 129.846154 453.668555 130.153846 453.588320 130.461538 453.507828 130.769231 453.427067 131.076923 453.346027 131.384615 453.264694 131.692308 453.183056 132.000000 453.101102 132.307692 453.018819 132.615385 452.936196 132.923077 452.853219 133.230769 452.769877 133.538462 452.686158 133.846154 452.602050 134.153846 452.517540 134.461538 452.432617 134.769231 452.347269 135.076923 452.261483 135.384615 452.175247 135.692308 452.088549 136.000000 452.001377 136.307692 451.913719 136.615385 451.825563 136.923077 451.736897 137.230769 451.647709 137.538462 451.557986 137.846154 451.467716 138.153846 451.376888 138.461538 451.285489 138.769231 451.193507 139.076923 451.100930 139.384615 451.007746 139.692308 450.913943 140.000000 450.819508 140.307692 450.724430 140.615385 450.628697 140.923077 450.532296 141.230769 450.435216 141.538462 450.337443 141.846154 450.238967 142.153846 450.139775 142.461538 450.039855 142.769231 449.939195 143.076923 449.837782 143.384615 449.735605 143.692308 449.632651 144.000000 449.528909 144.307692 449.424366 144.615385 449.319011 144.923077 449.212830 145.230769 449.105813 145.538462 448.997946 145.846154 448.889219 146.153846 448.779618 146.461538 448.669131 146.769231 448.557747 147.076923 448.445454 147.384615 448.332239 147.692308 448.218090 148.000000 448.102995 148.307692 447.986942 148.615385 447.869919 148.923077 447.751914 149.230769 447.632914 149.538462 447.512908 149.846154 447.391884 150.153846 447.269829 150.461538 447.146731 150.769231 447.022579 151.076923 446.897359 151.384615 446.771061 151.692308 446.643672 152.000000 446.515179 152.307692 446.385571 152.615385 446.254835 152.923077 446.122961 153.230769 445.989934 153.538462 445.855744 153.846154 445.720378 154.153846 445.583824 154.461538 445.446070 154.769231 445.307104 155.076923 445.166913 155.384615 445.025487 155.692308 444.882812 156.000000 444.738876 156.307692 444.593668 156.615385 444.447175 156.923077 444.299385 157.230769 444.150286 157.538462 443.999867 157.846154 443.848114 158.153846 443.695016 158.461538 443.540560 158.769231 443.384736 159.076923 443.227529 159.384615 443.068929 159.692308 442.908924 160.000000 442.747500 160.307692 442.584647 160.615385 442.420351 160.923077 442.254602 161.230769 442.087386 161.538462 441.918692 161.846154 441.748507 162.153846 441.576820 162.461538 441.403618 162.769231 441.228889 163.076923 441.052622 163.384615 440.874804 163.692308 440.695422 164.000000 440.514466 164.307692 440.331922 164.615385 440.147779 164.923077 439.962024 165.230769 439.774646 165.538462 439.585633 165.846154 439.394971 166.153846 439.202650 166.461538 439.008657 166.769231 438.812979 167.076923 438.615606 167.384615 438.416524 167.692308 438.215722 168.000000 438.013190 168.307692 437.808933 168.615385 437.602956 168.923077 437.395266 169.230769 437.185870 169.538462 436.974774 169.846154 436.761984 170.153846 436.547507 170.461538 436.331350 170.769231 436.113519 171.076923 435.894020 171.384615 435.672861 171.692308 435.450046 172.000000 435.225584 172.307692 434.999481 172.615385 434.771742 172.923077 434.542375 173.230769 434.311386 173.538462 434.078781 173.846154 433.844568 174.153846 433.608752 174.461538 433.371340 174.769231 433.132338 175.076923 432.891753 175.384615 432.649592 175.692308 432.405861 176.000000 432.160567 176.307692 431.913715 176.615385 431.665313 176.923077 431.415367 177.230769 431.163883 177.538462 430.910868 177.846154 430.656329 178.153846 430.400271 178.461538 430.142702 178.769231 429.883629 179.076923 429.623056 179.384615 429.360992 179.692308 429.097442 180.000000 428.832412 180.307692 428.565911 180.615385 428.297943 180.923077 428.028516 181.230769 427.757635 181.538462 427.485309 181.846154 427.211542 182.153846 426.936341 182.461538 426.659714 182.769231 426.381665 183.076923 426.102203 183.384615 425.821333 183.692308 425.539062 184.000000 425.255397 184.307692 424.970343 184.615385 424.683908 184.923077 424.396098 185.230769 424.106919 185.538462 423.816378 185.846154 423.524482 186.153846 423.231236 186.461538 422.936648 186.769231 422.640724 187.076923 422.343470 187.384615 422.044893 187.692308 421.744999 188.000000 421.443796 188.307692 421.141288 188.615385 420.837484 188.923077 420.532389 189.230769 420.226010 189.538462 419.918353 189.846154 419.609425 190.153846 419.299232 190.461538 418.987782 190.769231 418.675079 191.076923 418.361132 191.384615 418.045946 191.692308 417.729527 192.000000 417.411883 192.307692 417.093020 192.615385 416.772945 192.923077 416.451663 193.230769 416.129181 193.538462 415.805507 193.846154 415.480645 194.153846 415.154604 194.461538 414.827389 194.769231 414.499007 195.076923 414.169464 195.384615 413.838766 195.692308 413.506922 196.000000 413.173936 196.307692 412.839815 196.615385 412.504566 196.923077 412.168196 197.230769 411.830710 197.538462 411.492116 197.846154 411.152419 198.153846 410.811627 198.461538 410.469745 198.769231 410.126781 199.076923 409.782741 199.384615 409.437631 199.692308 409.091458 200.000000 408.744228 200.307692 408.395948 200.615385 408.046624 200.923077 407.696263 201.230769 407.344871 201.538462 406.992455 201.846154 406.639021 202.153846 406.284576 202.461538 405.929126 202.769231 405.572679 203.076923 405.215239 203.384615 404.856814 203.692308 404.497410 204.000000 404.137035 204.307692 403.775693 204.615385 403.413392 204.923077 403.050139 205.230769 402.685939 205.538462 402.320799 205.846154 401.954726 206.153846 401.587727 206.461538 401.219807 206.769231 400.850974 207.076923 400.481233 207.384615 400.110591 207.692308 399.739055 208.000000 399.366632 208.307692 398.993327 208.615385 398.619147 208.923077 398.244099 209.230769 397.868189 209.538462 397.491424 209.846154 397.113811 210.153846 396.735355 210.461538 396.356063 210.769231 395.975942 211.076923 395.594998 211.384615 395.213237 211.692308 394.830667 212.000000 394.447294 212.307692 394.063124 212.615385 393.678163 212.923077 393.292419 213.230769 392.905898 213.538462 392.518605 213.846154 392.130549 214.153846 391.741734 214.461538 391.352168 214.769231 390.961858 215.076923 390.570809 215.384615 390.179028 215.692308 389.786522 216.000000 389.393297 216.307692 388.999360 216.615385 388.604717 216.923077 388.209374 217.230769 387.813339 217.538462 387.416617 217.846154 387.019216 218.153846 386.621141 218.461538 386.222399 218.769231 385.822997 219.076923 385.422941 219.384615 385.022238 219.692308 384.620894 220.000000 384.218916 220.307692 383.816309 220.615385 383.413082 220.923077 383.009239 221.230769 382.604788 221.538462 382.199736 221.846154 381.794087 222.153846 381.387850 222.461538 380.981031 222.769231 380.573636 223.076923 380.165671 223.384615 379.757143 223.692308 379.348059 224.000000 378.938426 224.307692 378.528248 224.615385 378.117534 224.923077 377.706290 225.230769 377.294521 225.538462 376.882235 225.846154 376.469439 226.153846 376.056137 226.461538 375.642338 226.769231 375.228048 227.076923 374.813272 227.384615 374.398019 227.692308 373.982293 228.000000 373.566102 228.307692 373.149452 228.615385 372.732349 228.923077 372.314801 229.230769 371.896813 229.538462 371.478392 229.846154 371.059545 230.153846 370.640277 230.461538 370.220597 230.769231 369.800509 231.076923 369.380021 231.384615 368.959139 231.692308 368.537870 232.000000 368.116219 232.307692 367.694194 232.615385 367.271802 232.923077 366.849047 233.230769 366.425938 233.538462 366.002480 233.846154 365.578681 234.153846 365.154546 234.461538 364.730081 234.769231 364.305295 235.076923 363.880192 235.384615 363.454780 235.692308 363.029065 236.000000 362.603054 236.307692 362.176752 236.615385 361.750167 236.923077 361.323305 237.230769 360.896173 237.538462 360.468776 237.846154 360.041122 238.153846 359.613217 238.461538 359.185068 238.769231 358.756680 239.076923 358.328061 239.384615 357.899217 239.692308 357.470155 240.000000 357.040880 240.307692 356.611400 240.615385 356.181721 240.923077 355.751849 241.230769 355.321791 241.538462 354.891554 241.846154 354.461144 242.153846 354.030567 242.461538 353.599831 242.769231 353.168940 243.076923 352.737903 243.384615 352.306725 243.692308 351.875413 244.000000 351.443973 244.307692 351.012413 244.615385 350.580738 244.923077 350.148955 245.230769 349.717076 245.538462 349.285110 245.846154 348.853069 246.153846 348.420964 246.461538 347.988806 246.769231 347.556605 247.076923 347.124373 247.384615 346.692120 247.692308 346.259858 248.000000 345.827597 248.307692 345.395348 248.615385 344.963123 248.923077 344.530933 249.230769 344.098787 249.538462 343.666698 249.846154 343.234676 250.153846 342.802731 250.461538 342.370876 250.769231 341.939121 251.076923 341.507477 251.384615 341.075955 251.692308 340.644565 252.000000 340.213320 252.307692 339.782229 252.615385 339.351303 252.923077 338.920555 253.230769 338.489994 253.538462 338.059631 253.846154 337.629478 254.153846 337.199545 254.461538 336.769844 254.769231 336.340385 255.076923 335.911179 255.384615 335.482238 255.692308 335.053572 256.000000 334.625191 256.307692 334.197108 256.615385 333.769333 256.923077 333.341877 257.230769 332.914751 257.538462 332.487965 257.846154 332.061532 258.153846 331.635461 258.461538 331.209764 258.769231 330.784452 259.076923 330.359535 259.384615 329.935025 259.692308 329.510932 260.000000 329.087268 260.307692 328.664043 260.615385 328.241268 260.923077 327.818955 261.230769 327.397114 261.538462 326.975757 261.846154 326.554893 262.153846 326.134535 262.461538 325.714692 262.769231 325.295377 263.076923 324.876599 263.384615 324.458371 263.692308 324.040702 264.000000 323.623604 264.307692 323.207088 264.615385 322.791165 264.923077 322.375845 265.230769 321.961140 265.538462 321.547060 265.846154 321.133617 266.153846 320.720822 266.461538 320.308684 266.769231 319.897216 267.076923 319.486429 267.384615 319.076332 267.692308 318.666938 268.000000 318.258257 268.307692 317.850300 268.615385 317.443078 268.923077 317.036602 269.230769 316.630883 269.538462 316.225932 269.846154 315.821760 270.153846 315.418377 270.461538 315.015796 270.769231 314.614026 271.076923 314.213078 271.384615 313.812964 271.692308 313.413695 272.000000 313.015281 272.307692 312.617734 272.615385 312.221064 272.923077 311.825282 273.230769 311.430400 273.538462 311.036428 273.846154 310.643377 274.153846 310.251258 274.461538 309.860082 274.769231 309.469860 275.076923 309.080604 275.384615 308.692323 275.692308 308.305029 276.000000 307.918733 276.307692 307.533445 276.615385 307.149178 276.923077 306.765941 277.230769 306.383745 277.538462 306.002603 277.846154 305.622523 278.153846 305.243519 278.461538 304.865599 278.769231 304.488776 279.076923 304.113061 279.384615 303.738463 279.692308 303.364995 280.000000 302.992667 280.307692 302.621490 280.615385 302.251475 280.923077 301.882633 281.230769 301.514975 281.538462 301.148513 281.846154 300.783255 282.153846 300.419215 282.461538 300.056403 282.769231 299.694829 283.076923 299.334505 283.384615 298.975441 283.692308 298.617649 284.000000 298.261140 284.307692 297.905924 284.615385 297.552012 284.923077 297.199416 285.230769 296.848146 285.538462 296.498213 285.846154 296.149629 286.153846 295.802403 286.461538 295.456548 286.769231 295.112074 287.076923 294.768992 287.384615 294.427312 287.692308 294.087047 288.000000 293.748207 288.307692 293.410802 288.615385 293.074844 288.923077 292.740344 289.230769 292.407312 289.538462 292.075760 289.846154 291.745699 290.153846 291.417139 290.461538 291.090091 290.769231 290.764567 291.076923 290.440577 291.384615 290.118133 291.692308 289.797244 292.000000 289.477923 292.307692 289.160180 292.615385 288.844027 292.923077 288.529473 293.230769 288.216530 293.538462 287.905209 293.846154 287.595521 294.153846 287.287477 294.461538 286.981087 294.769231 286.676364 295.076923 286.373317 295.384615 286.071957 295.692308 285.772297 296.000000 285.474345 296.307692 285.178115 296.615385 284.883615 296.923077 284.590858 297.230769 284.299855 297.538462 284.010616 297.846154 283.723151 298.153846 283.437473 298.461538 283.153593 298.769231 282.871520 299.076923 282.591266 299.384615 282.312842 299.692308 282.036260 300.000000 281.761529 300.307692 281.488661 300.615385 281.217666 300.923077 280.948557 301.230769 280.681343 301.538462 280.416035 301.846154 280.152645 302.153846 279.891184 302.461538 279.631662 302.769231 279.374091 303.076923 279.118481 303.384615 278.864843 303.692308 278.613189 304.000000 278.363529 304.307692 278.115874 304.615385 277.870235 304.923077 277.626623 305.230769 277.385049 305.538462 277.145524 305.846154 276.908059 306.153846 276.672665 306.461538 276.439352 306.769231 276.208133 307.076923 275.979017 307.384615 275.752016 307.692308 275.527140 308.000000 275.304401 308.307692 275.083809 308.615385 274.865376 308.923077 274.649112 309.230769 274.435029 309.538462 274.223137 309.846154 274.013447 310.153846 273.805971 310.461538 273.600718 310.769231 273.397701 311.076923 273.196929 311.384615 272.998415 311.692308 272.802169 312.000000 272.608201 312.307692 272.416523 312.615385 272.227147 312.923077 272.040081 313.230769 271.855339 313.538462 271.672930 313.846154 271.492866 314.153846 271.315157 314.461538 271.139815 314.769231 270.966851 315.076923 270.796274 315.384615 270.628097 315.692308 270.462330 316.000000 270.298985 316.307692 270.138072 316.615385 269.979602 316.923077 269.823585 317.230769 269.670034 317.538462 269.518959 317.846154 269.370371 318.153846 269.224281 318.461538 269.080700 318.769231 268.939638 319.076923 268.801107 319.384615 268.665118 319.692308 268.531681 320.000000 268.400808 320.307692 268.272510 320.615385 268.146797 320.923077 268.023680 321.230769 267.903171 321.538462 267.785280 321.846154 267.670012 322.153846 267.557345 322.461538 267.447251 322.769231 267.339703 323.076923 267.234671 323.384615 267.132129 323.692308 267.032047 324.000000 266.934399 324.307692 266.839155 324.615385 266.746289 324.923077 266.655771 325.230769 266.567574 325.538462 266.481670 325.846154 266.398030 326.153846 266.316627 326.461538 266.237433 326.769231 266.160419 327.076923 266.085558 327.384615 266.012822 327.692308 265.942181 328.000000 265.873610 328.307692 265.807078 328.615385 265.742559 328.923077 265.680024 329.230769 265.619446 329.538462 265.560795 329.846154 265.504045 330.153846 265.449167 330.461538 265.396132 330.769231 265.344914 331.076923 265.295484 331.384615 265.247814 331.692308 265.201876 332.000000 265.157641 332.307692 265.115082 332.615385 265.074171 332.923077 265.034880 333.230769 264.997181 333.538462 264.961045 333.846154 264.926444 334.153846 264.893351 334.461538 264.861738 334.769231 264.831576 335.076923 264.802838 335.384615 264.775495 335.692308 264.749519 336.000000 264.724882 336.307692 264.701557 336.615385 264.679515 336.923077 264.658728 337.230769 264.639168 337.538462 264.620807 337.846154 264.603617 338.153846 264.587570 338.461538 264.572638 338.769231 264.558793 339.076923 264.546007 339.384615 264.534252 339.692308 264.523499 340.000000 264.513721 340.307692 264.504890 340.615385 264.496977 340.923077 264.489955 341.230769 264.483796 341.538462 264.478471 341.846154 264.473952 342.153846 264.470212 342.461538 264.467222 342.769231 264.464955 343.076923 264.463381 343.384615 264.462474 343.692308 264.462205 344.000000 264.462547 344.307692 264.463470 344.615385 264.464948 344.923077 264.466951 345.230769 264.469453 345.538462 264.472424 345.846154 264.475837 346.153846 264.479665 346.461538 264.483877 346.769231 264.488448 347.076923 264.493348 347.384615 264.498551 347.692308 264.504026 348.000000 264.509747 348.307692 264.515686 348.615385 264.521815 348.923077 264.528104 349.230769 264.534527 349.538462 264.541056 349.846154 264.547662 350.153846 264.554317 350.461538 264.560993 350.769231 264.567663 351.076923 264.574297 351.384615 264.580869 351.692308 264.587350 352.000000 264.593712 352.307692 264.599927 352.615385 264.605966 352.923077 264.611803 353.230769 264.617408 353.538462 264.622755 353.846154 264.627814 354.153846 264.632557 354.461538 264.636958 354.769231 264.640987 355.076923 264.644616 355.384615 264.647819 355.692308 264.650565 356.000000 264.652828 356.307692 264.654580 356.615385 264.655792 356.923077 264.656436 357.230769 264.656484 357.538462 264.655909 357.846154 264.654682 358.153846 264.652775 358.461538 264.650160 358.769231 264.646809 359.076923 264.642694 359.384615 264.637788 359.692308 264.632061 360.000000 264.625486 360.307692 264.618034 360.615385 264.609679 360.923077 264.600391 361.230769 264.590144 361.538462 264.578907 361.846154 264.566655 362.153846 264.553358 362.461538 264.538988 362.769231 264.523518 363.076923 264.506920 363.384615 264.489164 363.692308 264.470225 364.000000 264.450072 364.307692 264.428679 364.615385 264.406017 364.923077 264.382058 365.230769 264.356775 365.538462 264.330138 365.846154 264.302121 366.153846 264.272694 366.461538 264.241831 366.769231 264.209502 367.076923 264.175681 367.384615 264.140338 367.692308 264.103446 368.000000 264.064977 368.307692 264.024902 368.615385 263.983194 368.923077 263.939825 369.230769 263.894766 369.538462 263.847990 369.846154 263.799469 370.153846 263.749174 370.461538 263.697077 370.769231 263.643150 371.076923 263.587366 371.384615 263.529696 371.692308 263.470113 372.000000 263.408588 372.307692 263.345092 372.615385 263.279599 372.923077 263.212080 373.230769 263.142507 373.538462 263.070852 373.846154 262.997087 374.153846 262.921184 374.461538 262.843114 374.769231 262.762851 375.076923 262.680365 375.384615 262.595629 375.692308 262.508614 376.000000 262.419293 376.307692 262.327638 376.615385 262.233620 376.923077 262.137212 377.230769 262.038385 377.538462 261.937112 377.846154 261.833364 378.153846 261.727113 378.461538 261.618332 378.769231 261.506992 379.076923 261.393065 379.384615 261.276523 379.692308 261.157338 380.000000 261.035483 380.307692 260.910928 380.615385 260.783646 380.923077 260.653610 381.230769 260.520790 381.538462 260.385159 381.846154 260.246689 382.153846 260.105351 382.461538 259.961118 382.769231 259.813962 383.076923 259.663855 383.384615 259.510768 383.692308 259.354674 384.000000 259.195544 384.307692 259.033351 384.615385 258.868066 384.923077 258.699661 385.230769 258.528109 385.538462 258.353381 385.846154 258.175449 386.153846 257.994286 386.461538 257.809862 386.769231 257.622151 387.076923 257.431124 387.384615 257.236753 387.692308 257.039009 388.000000 256.837866 388.307692 256.633295 388.615385 256.425267 388.923077 256.213755 389.230769 255.998731 389.538462 255.780167 389.846154 255.558034 390.153846 255.332305 390.461538 255.102952 390.769231 254.869946 391.076923 254.633260 391.384615 254.392865 391.692308 254.148733 392.000000 253.900837 392.307692 253.649148 392.615385 253.393639 392.923077 253.134281 393.230769 252.871045 393.538462 252.603905 393.846154 252.332833 394.153846 252.057799 394.461538 251.778776 394.769231 251.495736 395.076923 251.208651 395.384615 250.917493 395.692308 250.622234 396.000000 250.322846 396.307692 250.019300 396.615385 249.711570 396.923077 249.399625 397.230769 249.083440 397.538462 248.762985 397.846154 248.438232 398.153846 248.109155 398.461538 247.775723 398.769231 247.437920 399.076923 247.095771 399.384615 246.749309 399.692308 246.398569 400.000000 246.043585 400.307692 245.684393 400.615385 245.321027 400.923077 244.953521 401.230769 244.581909 401.538462 244.206228 401.846154 243.826510 402.153846 243.442790 402.461538 243.055104 402.769231 242.663486 403.076923 242.267970 403.384615 241.868590 403.692308 241.465382 404.000000 241.058380 404.307692 240.647618 404.615385 240.233131 404.923077 239.814954 405.230769 239.393121 405.538462 238.967667 405.846154 238.538625 406.153846 238.106032 406.461538 237.669921 406.769231 237.230327 407.076923 236.787285 407.384615 236.340828 407.692308 235.890992 408.000000 235.437812 408.307692 234.981320 408.615385 234.521554 408.923077 234.058546 409.230769 233.592331 409.538462 233.122945 409.846154 232.650421 410.153846 232.174794 410.461538 231.696098 410.769231 231.214369 411.076923 230.729640 411.384615 230.241947 411.692308 229.751324 412.000000 229.257805 412.307692 228.761425 412.615385 228.262218 412.923077 227.760220 413.230769 227.255464 413.538462 226.747986 413.846154 226.237819 414.153846 225.724999 414.461538 225.209559 414.769231 224.691535 415.076923 224.170961 415.384615 223.647871 415.692308 223.122301 416.000000 222.594284 416.307692 222.063855 416.615385 221.531050 416.923077 220.995901 417.230769 220.458445 417.538462 219.918715 417.846154 219.376745 418.153846 218.832572 418.461538 218.286229 418.769231 217.737750 419.076923 217.187170 419.384615 216.634525 419.692308 216.079848 420.000000 215.523173 420.307692 214.964536 420.615385 214.403972 420.923077 213.841513 421.230769 213.277196 421.538462 212.711055 421.846154 212.143124 422.153846 211.573438 422.461538 211.002031 422.769231 210.428938 423.076923 209.854193 423.384615 209.277832 423.692308 208.699888 424.000000 208.120397 424.307692 207.539392 424.615385 206.956908 424.923077 206.372981 425.230769 205.787643 425.538462 205.200931 425.846154 204.612878 426.153846 204.023520 426.461538 203.432889 426.769231 202.841023 427.076923 202.247954 427.384615 201.653717 427.692308 201.058347 428.000000 200.461878 428.307692 199.864346 428.615385 199.265784 428.923077 198.666227 429.230769 198.065710 429.538462 197.464267 429.846154 196.861933 430.153846 196.258742 430.461538 195.654729 430.769231 195.049929 431.076923 194.444376 431.384615 193.838104 431.692308 193.231148 432.000000 192.623543 432.307692 192.015323 432.615385 191.406523 432.923077 190.797178 433.230769 190.187321 433.538462 189.576988 433.846154 188.966212 434.153846 188.355030 434.461538 187.743475 434.769231 187.131581 435.076923 186.519383 435.384615 185.906917 435.692308 185.294216 436.000000 184.681314 436.307692 184.068248 436.615385 183.455050 436.923077 182.841756 437.230769 182.228400 437.538462 181.615017 437.846154 181.001641 438.153846 180.388307 438.461538 179.775049 438.769231 179.161902 439.076923 178.548901 439.384615 177.936080 439.692308 177.323474 440.000000 176.711117 440.307692 176.099043 440.615385 175.487288 440.923077 174.875886 441.230769 174.264871 441.538462 173.654278 441.846154 173.044142 442.153846 172.434497 442.461538 171.825377 442.769231 171.216818 443.076923 170.608854 443.384615 170.001518 443.692308 169.394847 444.000000 168.788874 444.307692 168.183635 444.615385 167.579162 444.923077 166.975492 445.230769 166.372659 445.538462 165.770697 445.846154 165.169641 446.153846 164.569525 446.461538 163.970384 446.769231 163.372252 447.076923 162.775164 447.384615 162.179156 447.692308 161.584260 448.000000 160.990512 448.307692 160.397946 448.615385 159.806597 448.923077 159.216499 449.230769 158.627688 449.538462 158.040197 449.846154 157.454061 450.153846 156.869314 450.461538 156.285992 450.769231 155.704128 451.076923 155.123758 451.384615 154.544916 451.692308 153.967636 452.000000 153.391953 452.307692 152.817901 452.615385 152.245516 452.923077 151.674831 453.230769 151.105881 453.538462 150.538702 453.846154 149.973326 454.153846 149.409790 454.461538 148.848126 454.769231 148.288371 455.076923 147.730559 455.384615 147.174723 455.692308 146.620899 456.000000 146.069122 456.307692 145.519425 456.615385 144.971843 456.923077 144.426412 457.230769 143.883164 457.538462 143.342136 457.846154 142.803362 458.153846 142.266875 458.461538 141.732712 458.769231 141.200905 459.076923 140.671490 459.384615 140.144502 459.692308 139.619975 460.000000 139.097943 460.307692 138.578441 460.615385 138.061504 460.923077 137.547165 461.230769 137.035461 461.538462 136.526425 461.846154 136.020091 462.153846 135.516495 462.461538 135.015671 462.769231 134.517654 463.076923 134.022478 463.384615 133.530177 463.692308 133.040786 464.000000 132.554340 464.307692 132.070874 464.615385 131.590421 464.923077 131.113016 465.230769 130.638695 465.538462 130.167491 465.846154 129.699439 466.153846 129.234574 466.461538 128.772930 466.769231 128.314542 467.076923 127.859444 467.384615 127.407671 467.692308 126.959258 468.000000 126.514238 468.307692 126.072647 468.615385 125.634519 468.923077 125.199889 469.230769 124.768791 469.538462 124.341260 469.846154 123.917330 470.153846 123.497036 470.461538 123.080412 470.769231 122.667494 471.076923 122.258315 471.384615 121.852910 471.692308 121.451314 472.000000 121.053561 472.307692 120.659686 472.615385 120.269723 472.923077 119.883708 473.230769 119.501673 473.538462 119.123655 473.846154 118.749687 474.153846 118.379805 474.461538 118.014042 474.769231 117.652433 475.076923 117.295014 475.384615 116.941817 475.692308 116.592868 476.000000 116.248149 476.307692 115.907632 476.615385 115.571287 476.923077 115.239088 477.230769 114.911005 477.538462 114.587011 477.846154 114.267077 478.153846 113.951175 478.461538 113.639277 478.769231 113.331355 479.076923 113.027379 479.384615 112.727323 479.692308 112.431158 480.000000 112.138855 480.307692 111.850387 480.615385 111.565725 480.923077 111.284841 481.230769 111.007706 481.538462 110.734293 481.846154 110.464573 482.153846 110.198519 482.461538 109.936100 482.769231 109.677291 483.076923 109.422061 483.384615 109.170383 483.692308 108.922230 484.000000 108.677571 484.307692 108.436380 484.615385 108.198629 484.923077 107.964287 485.230769 107.733329 485.538462 107.505725 485.846154 107.281447 486.153846 107.060466 486.461538 106.842756 486.769231 106.628287 487.076923 106.417030 487.384615 106.208959 487.692308 106.004045 488.000000 105.802259 488.307692 105.603573 488.615385 105.407959 488.923077 105.215389 489.230769 105.025834 489.538462 104.839266 489.846154 104.655658 490.153846 104.474980 490.461538 104.297205 490.769231 104.122304 491.076923 103.950249 491.384615 103.781012 491.692308 103.614565 492.000000 103.450879 492.307692 103.289926 492.615385 103.131678 492.923077 102.976106 493.230769 102.823183 493.538462 102.672880 493.846154 102.525169 494.153846 102.380021 494.461538 102.237410 494.769231 102.097305 495.076923 101.959679 495.384615 101.824504 495.692308 101.691751 496.000000 101.561393 496.307692 101.433401 496.615385 101.307746 496.923077 101.184401 497.230769 101.063338 497.538462 100.944527 497.846154 100.827941 498.153846 100.713552 498.461538 100.601331 498.769231 100.491250 499.076923 100.383281 499.384615 100.277396 499.692308 100.173566 500.000000 100.071763 500.307692 99.971960 500.615385 99.874126 500.923077 99.778236 501.230769 99.684259 501.538462 99.592169 501.846154 99.501936 502.153846 99.413533 502.461538 99.326931 502.769231 99.242102 503.076923 99.159018 503.384615 99.077650 503.692308 98.997970 504.000000 98.919951 504.307692 98.843564 504.615385 98.768780 504.923077 98.695571 505.230769 98.623910 505.538462 98.553767 505.846154 98.485115 506.153846 98.417926 506.461538 98.352171 506.769231 98.287821 507.076923 98.224849 507.384615 98.163227 507.692308 98.102926 508.000000 98.043918 508.307692 97.986175 508.615385 97.929668 508.923077 97.874369 509.230769 97.820251 509.538462 97.767284 509.846154 97.715441 510.153846 97.664693 510.461538 97.615012 510.769231 97.566370 511.076923 97.518738 511.384615 97.472089 511.692308 97.426394 512.000000 97.381625 512.307692 97.337754 512.615385 97.294752 512.923077 97.252591 513.230769 97.211243 513.538462 97.170680 513.846154 97.130873 514.153846 97.091794 514.461538 97.053416 514.769231 97.015709 515.076923 96.978646 515.384615 96.942198 515.692308 96.906337 516.000000 96.871035 516.307692 96.836263 516.615385 96.801993 516.923077 96.768198 517.230769 96.734849 517.538462 96.701917 517.846154 96.669374 518.153846 96.637193 518.461538 96.605345 518.769231 96.573801 519.076923 96.542533 519.384615 96.511514 519.692308 96.480715 520.000000 96.450107 520.307692 96.419663 520.615385 96.389354 520.923077 96.359153 521.230769 96.329029 521.538462 96.298957 521.846154 96.268906 522.153846 96.238850 522.461538 96.208759 522.769231 96.178607 523.076923 96.148363 523.384615 96.118000 523.692308 96.087491 524.000000 96.056805 524.307692 96.025917 524.615385 95.994796 524.923077 95.963415 525.230769 95.931746 525.538462 95.899761 525.846154 95.867430 526.153846 95.834727 526.461538 95.801622 526.769231 95.768088 527.076923 95.734096 527.384615 95.699617 527.692308 95.664625 528.000000 95.629090 528.307692 95.592985 528.615385 95.556280 528.923077 95.518948 529.230769 95.480961 529.538462 95.442290 529.846154 95.402908 530.153846 95.362785 530.461538 95.321894 530.769231 95.280206 531.076923 95.237693 531.384615 95.194327 531.692308 95.150080 532.000000 95.104923 532.307692 95.058829 532.615385 95.011768 532.923077 94.963713 533.230769 94.914636 533.538462 94.864507 533.846154 94.813300 534.153846 94.760986 534.461538 94.707536 534.769231 94.652922 535.076923 94.597117 535.384615 94.540091 535.692308 94.481817 536.000000 94.422266 536.307692 94.361410 536.615385 94.299221 536.923077 94.235671 537.230769 94.170731 537.538462 94.104373 537.846154 94.036569 538.153846 93.967291 538.461538 93.896510 538.769231 93.824199 539.076923 93.750328 539.384615 93.674870 539.692308 93.597797 540.000000 93.519080 540.307692 93.438691 540.615385 93.356601 540.923077 93.272783 541.230769 93.187209 541.538462 93.099849 541.846154 93.010677 542.153846 92.919662 542.461538 92.826779 542.769231 92.731997 543.076923 92.635289 543.384615 92.536627 543.692308 92.435982 544.000000 92.333327 544.307692 92.228632 544.615385 92.121870 544.923077 92.013012 545.230769 91.902031 545.538462 91.788897 545.846154 91.673584 546.153846 91.556061 546.461538 91.436302 546.769231 91.314278 547.076923 91.189961 547.384615 91.063322 547.692308 90.934334 548.000000 90.802968 548.307692 90.669195 548.615385 90.532988 548.923077 90.394319 549.230769 90.253158 549.538462 90.109479 549.846154 89.963252 550.153846 89.814449 550.461538 89.663043 550.769231 89.509004 551.076923 89.352305 551.384615 89.192918 551.692308 89.030814 552.000000 88.865965 552.307692 88.698342 552.615385 88.527927 552.923077 88.354732 553.230769 88.178780 553.538462 88.000093 553.846154 87.818693 554.153846 87.634603 554.461538 87.447844 554.769231 87.258439 555.076923 87.066410 555.384615 86.871779 555.692308 86.674568 556.000000 86.474800 556.307692 86.272496 556.615385 86.067679 556.923077 85.860372 557.230769 85.650595 557.538462 85.438372 557.846154 85.223725 558.153846 85.006675 558.461538 84.787245 558.769231 84.565457 559.076923 84.341334 559.384615 84.114897 559.692308 83.886168 560.000000 83.655171 560.307692 83.421926 560.615385 83.186457 560.923077 82.948785 561.230769 82.708933 561.538462 82.466922 561.846154 82.222775 562.153846 81.976514 562.461538 81.728162 562.769231 81.477740 563.076923 81.225271 563.384615 80.970776 563.692308 80.714279 564.000000 80.455800 564.307692 80.195363 564.615385 79.932990 564.923077 79.668702 565.230769 79.402523 565.538462 79.134473 565.846154 78.864575 566.153846 78.592852 566.461538 78.319326 566.769231 78.044018 567.076923 77.766952 567.384615 77.488148 567.692308 77.207630 568.000000 76.925420 568.307692 76.641539 568.615385 76.356010 568.923077 76.068855 569.230769 75.780096 569.538462 75.489756 569.846154 75.197856 570.153846 74.904420 570.461538 74.609468 570.769231 74.313023 571.076923 74.015108 571.384615 73.715744 571.692308 73.414954 572.000000 73.112759 572.307692 72.809183 572.615385 72.504247 572.923077 72.197974 573.230769 71.890385 573.538462 71.581502 573.846154 71.271349 574.153846 70.959947 574.461538 70.647318 574.769231 70.333485 575.076923 70.018469 575.384615 69.702294 575.692308 69.384980 576.000000 69.066551 576.307692 68.747028 576.615385 68.426433 576.923077 68.104789 577.230769 67.782119 577.538462 67.458443 577.846154 67.133785 578.153846 66.808166 578.461538 66.481609 578.769231 66.154135 579.076923 65.825768 579.384615 65.496529 579.692308 65.166440 580.000000 64.835524 580.307692 64.503803 580.615385 64.171298 580.923077 63.838033 581.230769 63.504029 581.538462 63.169309 581.846154 62.833894 582.153846 62.497807 582.461538 62.161070 582.769231 61.823705 583.076923 61.485734 583.384615 61.147181 583.692308 60.808065 584.000000 60.468411 584.307692 60.128240 584.615385 59.787574 584.923077 59.446436 585.230769 59.104847 585.538462 58.762830 585.846154 58.420407 586.153846 58.077601 586.461538 57.734432 586.769231 57.390924 587.076923 57.047099 587.384615 56.702979 587.692308 56.358586 588.000000 56.013942 588.307692 55.669070 588.615385 55.323991 588.923077 54.978728 589.230769 54.633304 589.538462 54.287739 589.846154 53.942056 590.153846 53.596279 590.461538 53.250428 590.769231 52.904525 591.076923 52.558594 591.384615 52.212656 591.692308 51.866734 592.000000 51.520849 592.307692 51.175024 592.615385 50.829281 592.923077 50.483642 593.230769 50.138129 593.538462 49.792765 593.846154 49.447572 594.153846 49.102572 594.461538 48.757786 594.769231 48.413238 595.076923 48.068949 595.384615 47.724942 595.692308 47.381239 596.000000 47.037862 596.307692 46.694832 596.615385 46.352174 596.923077 46.009907 597.230769 45.668056 597.538462 45.326641 597.846154 44.985685 598.153846 44.645211 598.461538 44.305239 598.769231 43.965794 599.076923 43.626896 599.384615 43.288568 599.692308 42.950833 600.000000 42.613712 600.307692 42.277227 600.615385 41.941401 600.923077 41.606255 601.230769 41.271813 601.538462 40.938096 601.846154 40.605126 602.153846 40.272926 602.461538 39.941518 602.769231 39.610924 603.076923 39.281166 603.384615 38.952266 603.692308 38.624246 604.000000 38.297130 604.307692 37.970938 604.615385 37.645693 604.923077 37.321417 605.230769 36.998133 605.538462 36.675862 605.846154 36.354627 606.153846 36.034450 606.461538 35.715353 606.769231 35.397359 607.076923 35.080488 607.384615 34.764765 607.692308 34.450210 608.000000 34.136847 608.307692 33.824696 608.615385 33.513781 608.923077 33.204123 609.230769 32.895746 609.538462 32.588670 609.846154 32.282918 610.153846 31.978513 610.461538 31.675476 610.769231 31.373829 611.076923 31.073596 611.384615 30.774797 611.692308 30.477456 612.000000 30.181594 612.307692 29.887233 612.615385 29.594396 612.923077 29.303106 613.230769 29.013383 613.538462 28.725250 613.846154 28.438730 614.153846 28.153845 614.461538 27.870616 614.769231 27.589067 615.076923 27.309218 615.384615 27.031093 615.692308 26.754713 616.000000 26.480102 616.307692 26.207280 616.615385 25.936270 616.923077 25.667094 617.230769 25.399775 617.538462 25.134334 617.846154 24.870795 618.153846 24.609178 618.461538 24.349506 618.769231 24.091802 619.076923 23.836087 619.384615 23.582384 619.692308 23.330715 620.000000 23.081101 620.307692 22.833567 620.615385 22.588132 620.923077 22.344820 621.230769 22.103653 621.538462 21.864653 621.846154 21.627842 622.153846 21.393242 622.461538 21.160876 622.769231 20.930766 623.076923 20.702933 623.384615 20.477400 623.692308 20.254190 624.000000 20.033324 624.307692 19.814825 624.615385 19.598714 624.923077 19.385015 625.230769 19.173748 625.538462 18.964937 625.846154 18.758603 626.153846 18.554769 626.461538 18.353457 626.769231 18.154689 627.076923 17.958487 627.384615 17.764874 627.692308 17.573871 628.000000 17.385501 628.307692 17.199785 628.615385 17.016747 628.923077 16.836409 629.230769 16.658791 629.538462 16.483912 629.846154 16.311766 630.153846 16.142341 630.461538 15.975627 630.769231 15.811613 631.076923 15.650287 631.384615 15.491639 631.692308 15.335659 632.000000 15.182334 632.307692 15.031654 632.615385 14.883607 632.923077 14.738184 633.230769 14.595373 633.538462 14.455163 633.846154 14.317542 634.153846 14.182501 634.461538 14.050028 634.769231 13.920112 635.076923 13.792742 635.384615 13.667907 635.692308 13.545597 636.000000 13.425799 636.307692 13.308504 636.615385 13.193700 636.923077 13.081376 637.230769 12.971522 637.538462 12.864126 637.846154 12.759177 638.153846 12.656665 638.461538 12.556578 638.769231 12.458906 639.076923 12.363636 639.384615 12.270760 639.692308 12.180265 640.000000 12.092140 640.307692 12.006375 640.615385 11.922959 640.923077 11.841880 641.230769 11.763128 641.538462 11.686691 641.846154 11.612559 642.153846 11.540721 642.461538 11.471165 642.769231 11.403882 643.076923 11.338859 643.384615 11.276086 643.692308 11.215551 644.000000 11.157245 644.307692 11.101155 644.615385 11.047272 644.923077 10.995583 645.230769 10.946078 645.538462 10.898746 645.846154 10.853576 646.153846 10.810558 646.461538 10.769679 646.769231 10.730929 647.076923 10.694298 647.384615 10.659773 647.692308 10.627345 648.000000 10.597002 648.307692 10.568733 648.615385 10.542528 648.923077 10.518374 649.230769 10.496262 649.538462 10.476180 649.846154 10.458118 650.153846 10.442064 650.461538 10.428007 650.769231 10.415937 651.076923 10.405842 651.384615 10.397712 651.692308 10.391535 652.000000 10.387300 652.307692 10.384998 652.615385 10.384615 652.923077 10.386143 653.230769 10.389569 653.538462 10.394882 653.846154 10.402072 654.153846 10.411128 654.461538 10.422039 654.769231 10.434793 655.076923 10.449381 655.384615 10.465790 655.692308 10.484009 656.000000 10.504029 656.307692 10.525837 656.615385 10.549424 656.923077 10.574777 657.230769 10.601886 657.538462 10.630740 657.846154 10.661329 658.153846 10.693640 658.461538 10.727663 658.769231 10.763387 659.076923 10.800802 659.384615 10.839895 659.692308 10.880657 660.000000 10.923076 660.307692 10.967141 660.615385 11.012841 660.923077 11.060166 661.230769 11.109104 661.538462 11.159644 661.846154 11.211775 662.153846 11.265487 662.461538 11.320768 662.769231 11.377608 663.076923 11.435995 663.384615 11.495918 663.692308 11.557367 664.000000 11.620330 664.307692 11.684797 664.615385 11.750757 664.923077 11.818198 665.230769 11.887109 665.538462 11.957481 665.846154 12.029301 666.153846 12.102558 666.461538 12.177243 666.769231 12.253343 667.076923 12.330847 667.384615 12.409746 667.692308 12.490027 668.000000 12.571681 668.307692 12.654695 668.615385 12.739059 668.923077 12.824762 669.230769 12.911792 669.538462 13.000140 669.846154 13.089794 670.153846 13.180743 670.461538 13.272975 670.769231 13.366481 671.076923 13.461249 671.384615 13.557268 671.692308 13.654527 672.000000 13.753016 672.307692 13.852722 672.615385 13.953636 672.923077 14.055746 673.230769 14.159041 673.538462 14.263511 673.846154 14.369144 674.153846 14.475929 674.461538 14.583855 674.769231 14.692912 675.076923 14.803089 675.384615 14.914373 675.692308 15.026756 676.000000 15.140224 676.307692 15.254769 676.615385 15.370377 676.923077 15.487040 677.230769 15.604745 677.538462 15.723481 677.846154 15.843238 678.153846 15.964005 678.461538 16.085771 678.769231 16.208524 679.076923 16.332254 679.384615 16.456950 679.692308 16.582601 680.000000 16.709195 680.307692 16.836722 680.615385 16.965171 680.923077 17.094531 681.230769 17.224791 681.538462 17.355940 681.846154 17.487967 682.153846 17.620861 682.461538 17.754611 682.769231 17.889206 683.076923 18.024635 683.384615 18.160887 683.692308 18.297951 684.000000 18.435816 684.307692 18.574472 684.615385 18.713907 684.923077 18.854110 685.230769 18.995070 685.538462 19.136776 685.846154 19.279218 686.153846 19.422384 686.461538 19.566264 686.769231 19.710846 687.076923 19.856119 687.384615 20.002073 687.692308 20.148696 688.000000 20.295977 688.307692 20.443907 688.615385 20.592472 688.923077 20.741663 689.230769 20.891469 689.538462 21.041879 689.846154 21.192881 690.153846 21.344464 690.461538 21.496619 690.769231 21.649333 691.076923 21.802596 691.384615 21.956396 691.692308 22.110723 692.000000 22.265567 692.307692 22.420915 692.615385 22.576756 692.923077 22.733081 693.230769 22.889878 693.538462 23.047135 693.846154 23.204843 694.153846 23.362989 694.461538 23.521564 694.769231 23.680556 695.076923 23.839953 695.384615 23.999746 695.692308 24.159923 696.000000 24.320473 696.307692 24.481385 696.615385 24.642648 696.923077 24.804252 697.230769 24.966185 697.538462 25.128436 697.846154 25.290994 698.153846 25.453849 698.461538 25.616989 698.769231 25.780403 699.076923 25.944081 699.384615 26.108011 699.692308 26.272182 700.000000 26.436585 700.307692 26.601206 700.615385 26.766036 700.923077 26.931064 701.230769 27.096278 701.538462 27.261668 701.846154 27.427222 702.153846 27.592930 702.461538 27.758781 702.769231 27.924763 703.076923 28.090867 703.384615 28.257079 703.692308 28.423391 704.000000 28.589791 704.307692 28.756267 704.615385 28.922809 704.923077 29.089406 705.230769 29.256047 705.538462 29.422721 705.846154 29.589416 706.153846 29.756123 706.153846 540.000000" /></g></g><g class="titles" /><g class="plot overlay" transform="translate(60, 20)"><g class="series serie-0 color-0"><g class="dots"><circle class="dot reactive tooltip-trigger" cx="13.846153846153847" cy="529.6153846153846" r="2.5" /><desc class="value">773,150,279(kWh)</desc><desc class="x top">13.846153846153847</desc><desc class="y top">529.6153846153846</desc><desc class="x_label">2549</desc></g><g class="dots"><circle class="dot reactive tooltip-trigger" cx="90.76923076923076" cy="466.0059035348008" r="2.5" /><desc class="value">832,479,301(kWh)</desc><desc class="x top">90.76923076923076</desc><desc class="y top">466.0059035348008</desc><desc class="x_label">2550</desc></g><g class="dots"><circle class="dot reactive tooltip-trigger" cx="167.69230769230765" cy="438.2157218361157" r="2.5" /><desc class="value">858,399,404(kWh)</desc><desc class="x top">167.69230769230765</desc><desc class="y top">438.2157218361157</desc><desc class="x_label">2551</desc></g><g class="dots"><circle class="dot reactive tooltip-trigger" cx="244.6153846153846" cy="350.5807377688259" r="2.5" /><desc class="value">940,137,186(kWh)</desc><desc class="x top">244.6153846153846</desc><desc class="y top">350.5807377688259</desc><desc class="x_label">2552</desc></g><g class="dots"><circle class="dot reactive tooltip-trigger" cx="321.5384615384615" cy="267.7852798929485" r="2.5" /><desc class="value">1,017,361,107(kWh)</desc><desc class="x ">321.5384615384615</desc><desc class="y ">267.7852798929485</desc><desc class="x_label">2553</desc></g><g class="dots"><circle class="dot reactive tooltip-trigger" cx="398.46153846153845" cy="247.77572310711713" r="2.5" /><desc class="value">1,036,024,165(kWh)</desc><desc class="x left">398.46153846153845</desc><desc class="y left">247.77572310711713</desc><desc class="x_label">2554</desc></g><g class="dots"><circle class="dot reactive tooltip-trigger" cx="475.38461538461536" cy="116.94181732514096" r="2.5" /><desc class="value">1,158,053,893(kWh)</desc><desc class="x left">475.38461538461536</desc><desc class="y left">116.94181732514096</desc><desc class="x_label">2555</desc></g><g class="dots"><circle class="dot reactive tooltip-trigger" cx="552.3076923076923" cy="88.69834225333972" r="2.5" /><desc class="value">1,184,396,786(kWh)</desc><desc class="x left">552.3076923076923</desc><desc class="y left">88.69834225333972</desc><desc class="x_label">2556</desc></g><g class="dots"><circle class="dot reactive tooltip-trigger" cx="629.2307692307692" cy="16.658791300423218" r="2.5" /><desc class="value">1,251,588,595(kWh)</desc><desc class="x left">629.2307692307692</desc><desc class="y left">16.658791300423218</desc><desc class="x_label">2557</desc></g><g class="dots"><circle class="dot reactive tooltip-trigger" cx="706.1538461538461" cy="29.75612323104002" r="2.5" /><desc class="value">1,239,372,619(kWh)</desc><desc class="x left">706.1538461538461</desc><desc class="y left">29.75612323104002</desc><desc class="x_label">2558</desc></g></g></g><g class="plot text-overlay" transform="translate(60, 20)"><g class="series serie-0 color-0" /></g><g class="plot tooltip-overlay" transform="translate(60, 20)"><g class="tooltip" style="opacity: 0" transform="translate(0 0)"><rect class="tooltip-box" height="0" rx="0" ry="0" width="0" /><g class="text" /></g></g></g></svg>