<?xml version='1.0' encoding='utf-8'?>
<svg xmlns:xlink="http://www.w3.org/1999/xlink" class="pygal-chart" id="chart-db12267a-efb6-4a6a-8d0f-bd131d4d56db" viewBox="0 0 800 600" xmlns="http://www.w3.org/2000/svg"><!--Generated with pygal 2.3.0 (etree) ©Kozea 2012-2016 on 2016-12-08--><!--http://pygal.org--><!--http://github.com/Kozea/pygal--><defs><style type="text/css">#chart-db12267a-efb6-4a6a-8d0f-bd131d4d56db{-webkit-user-select:none;-webkit-font-smoothing:antialiased;font-family:Consolas,"Liberation Mono",Menlo,Courier,monospace}#chart-db12267a-efb6-4a6a-8d0f-bd131d4d56db .title{font-family:Consolas,"Liberation Mono",Menlo,Courier,monospace;font-size:16px}#chart-db12267a-efb6-4a6a-8d0f-bd131d4d56db .legends .legend text{font-family:Consolas,"Liberation Mono",Menlo,Courier,monospace;font-size:14px}#chart-db12267a-efb6-4a6a-8d0f-bd131d4d56db .axis text{font-family:Consolas,"Liberation Mono",Menlo,Courier,monospace;font-size:10px}#chart-db12267a-efb6-4a6a-8d0f-bd131d4d56db .axis text.major{font-family:Consolas,"Liberation Mono",Menlo,Courier,monospace;font-size:10px}#chart-db12267a-efb6-4a6a-8d0f-bd131d4d56db .text-overlay text.value{font-family:Consolas,"Liberation Mono",Menlo,Courier,monospace;font-size:16px}#chart-db12267a-efb6-4a6a-8d0f-bd131d4d56db .text-overlay text.label{font-family:Consolas,"Liberation Mono",Menlo,Courier,monospace;font-size:10px}#chart-db12267a-efb6-4a6a-8d0f-bd131d4d56db .tooltip{font-family:Consolas,"Liberation Mono",Menlo,Courier,monospace;font-size:14px}#chart-db12267a-efb6-4a6a-8d0f-bd131d4d56db text.no_data{font-family:Consolas,"Liberation Mono",Menlo,Courier,monospace;font-size:64px}
#chart-db12267a-efb6-4a6a-8d0f-bd131d4d56db{background-color:rgba(249,249,249,1)}#chart-db12267a-efb6-4a6a-8d0f-bd131d4d56db path,#chart-db12267a-efb6-4a6a-8d0f-bd131d4d56db line,#chart-db12267a-efb6-4a6a-8d0f-bd131d4d56db rect,#chart-db12267a-efb6-4a6a-8d0f-bd131d4d56db circle{-webkit-transition:150ms;-moz-transition:150ms;transition:150ms}#chart-db12267a-efb6-4a6a-8d0f-bd131d4d56db .graph &gt; .background{fill:rgba(249,249,249,1)}#chart-db12267a-efb6-4a6a-8d0f-bd131d4d56db .plot &gt; .background{fill:rgba(255,255,255,1)}#chart-db12267a-efb6-4a6a-8d0f-bd131d4d56db .graph{fill:rgba(0,0,0,.87)}#chart-db12267a-efb6-4a6a-8d0f-bd131d4d56db text.no_data{fill:rgba(0,0,0,1)}#chart-db12267a-efb6-4a6a-8d0f-bd131d4d56db .title{fill:rgba(0,0,0,1)}#chart-db12267a-efb6-4a6a-8d0f-bd131d4d56db .legends .legend text{fill:rgba(0,0,0,.87)}#chart-db12267a-efb6-4a6a-8d0f-bd131d4d56db .legends .legend:hover text{fill:rgba(0,0,0,1)}#chart-db12267a-efb6-4a6a-8d0f-bd131d4d56db .axis .line{stroke:rgba(0,0,0,1)}#chart-db12267a-efb6-4a6a-8d0f-bd131d4d56db .axis .guide.line{stroke:rgba(0,0,0,.54)}#chart-db12267a-efb6-4a6a-8d0f-bd131d4d56db .axis .major.line{stroke:rgba(0,0,0,.87)}#chart-db12267a-efb6-4a6a-8d0f-bd131d4d56db .axis text.major{fill:rgba(0,0,0,1)}#chart-db12267a-efb6-4a6a-8d0f-bd131d4d56db .axis.y .guides:hover .guide.line,#chart-db12267a-efb6-4a6a-8d0f-bd131d4d56db .line-graph .axis.x .guides:hover .guide.line,#chart-db12267a-efb6-4a6a-8d0f-bd131d4d56db .stackedline-graph .axis.x .guides:hover .guide.line,#chart-db12267a-efb6-4a6a-8d0f-bd131d4d56db .xy-graph .axis.x .guides:hover .guide.line{stroke:rgba(0,0,0,1)}#chart-db12267a-efb6-4a6a-8d0f-bd131d4d56db .axis .guides:hover text{fill:rgba(0,0,0,1)}#chart-db12267a-efb6-4a6a-8d0f-bd131d4d56db .reactive{fill-opacity:.7;stroke-opacity:.8}#chart-db12267a-efb6-4a6a-8d0f-bd131d4d56db .ci{stroke:rgba(0,0,0,.87)}#chart-db12267a-efb6-4a6a-8d0f-bd131d4d56db .reactive.active,#chart-db12267a-efb6-4a6a-8d0f-bd131d4d56db .active .reactive{fill-opacity:.8;stroke-opacity:.9;stroke-width:4}#chart-db12267a-efb6-4a6a-8d0f-bd131d4d56db .ci .reactive.active{stroke-width:1.5}#chart-db12267a-efb6-4a6a-8d0f-bd131d4d56db .series text{fill:rgba(0,0,0,1)}#chart-db12267a-efb6-4a6a-8d0f-bd131d4d56db .tooltip rect{fill:rgba(255,255,255,1);stroke:rgba(0,0,0,1);-webkit-transition:opacity 150ms;-moz-transition:opacity 150ms;transition:opacity 150ms}#chart-db12267a-efb6-4a6a-8d0f-bd131d4d56db .tooltip .label{fill:rgba(0,0,0,.87)}#chart-db12267a-efb6-4a6a-8d0f-bd131d4d56db .tooltip .label{fill:rgba(0,0,0,.87)}#chart-db12267a-efb6-4a6a-8d0f-bd131d4d56db .tooltip .legend{font-size:.8em;fill:rgba(0,0,0,.54)}#chart-db12267a-efb6-4a6a-8d0f-bd131d4d56db .tooltip .x_label{font-size:.6em;fill:rgba(0,0,0,1)}#chart-db12267a-efb6-4a6a-8d0f-bd131d4d56db .tooltip .xlink{font-size:.5em;text-decoration:underline}#chart-db12267a-efb6-4a6a-8d0f-bd131d4d56db .tooltip .value{font-size:1.5em}#chart-db12267a-efb6-4a6a-8d0f-bd131d4d56db .bound{font-size:.5em}#chart-db12267a-efb6-4a6a-8d0f-bd131d4d56db .max-value{font-size:.75em;fill:rgba(0,0,0,.54)}#chart-db12267a-efb6-4a6a-8d0f-bd131d4d56db .map-element{fill:rgba(255,255,255,1);stroke:rgba(0,0,0,.54) !important}#chart-db12267a-efb6-4a6a-8d0f-bd131d4d56db .map-element .reactive{fill-opacity:inherit;stroke-opacity:inherit}#chart-db12267a-efb6-4a6a-8d0f-bd131d4d56db .color-0,#chart-db12267a-efb6-4a6a-8d0f-bd131d4d56db .color-0 a:visited{stroke:#e86fa0;fill:#e86fa0}#chart-db12267a-efb6-4a6a-8d0f-bd131d4d56db .text-overlay .color-0 text{fill:black}
#chart-db12267a-efb6-4a6a-8d0f-bd131d4d56db text.no_data{text-anchor:middle}#chart-db12267a-efb6-4a6a-8d0f-bd131d4d56db .guide.line{fill:none}#chart-db12267a-efb6-4a6a-8d0f-bd131d4d56db .centered{text-anchor:middle}#chart-db12267a-efb6-4a6a-8d0f-bd131d4d56db .title{text-anchor:middle}#chart-db12267a-efb6-4a6a-8d0f-bd131d4d56db .legends .legend text{fill-opacity:1}#chart-db12267a-efb6-4a6a-8d0f-bd131d4d56db .axis.x text{text-anchor:middle}#chart-db12267a-efb6-4a6a-8d0f-bd131d4d56db .axis.x:not(.web) text[transform]{text-anchor:start}#chart-db12267a-efb6-4a6a-8d0f-bd131d4d56db .axis.x:not(.web) text[transform].backwards{text-anchor:end}#chart-db12267a-efb6-4a6a-8d0f-bd131d4d56db .axis.y text{text-anchor:end}#chart-db12267a-efb6-4a6a-8d0f-bd131d4d56db .axis.y text[transform].backwards{text-anchor:start}#chart-db12267a-efb6-4a6a-8d0f-bd131d4d56db .axis.y2 text{text-anchor:start}#chart-db12267a-efb6-4a6a-8d0f-bd131d4d56db .axis.y2 text[transform].backwards{text-anchor:end}#chart-db12267a-efb6-4a6a-8d0f-bd131d4d56db .axis .guide.line{stroke-dasharray:4,4}#chart-db12267a-efb6-4a6a-8d0f-bd131d4d56db .axis .major.guide.line{stroke-dasharray:6,6}#chart-db12267a-efb6-4a6a-8d0f-bd131d4d56db .horizontal .axis.y .guide.line,#chart-db12267a-efb6-4a6a-8d0f-bd131d4d56db .horizontal .axis.y2 .guide.line,#chart-db12267a-efb6-4a6a-8d0f-bd131d4d56db .vertical .axis.x .guide.line{opacity:0}#chart-db12267a-efb6-4a6a-8d0f-bd131d4d56db .horizontal .axis.always_show .guide.line,#chart-db12267a-efb6-4a6a-8d0f-bd131d4d56db .vertical .axis.always_show .guide.line{opacity:1 !important}#chart-db12267a-efb6-4a6a-8d0f-bd131d4d56db .axis.y .guides:hover .guide.line,#chart-db12267a-efb6-4a6a-8d0f-bd131d4d56db .axis.y2 .guides:hover .guide.line,#chart-db12267a-efb6-4a6a-8d0f-bd131d4d56db .axis.x .guides:hover .guide.line{opacity:1}#chart-db12267a-efb6-4a6a-8d0f-bd131d4d56db .axis .guides:hover text{opacity:1}#chart-db12267a-efb6-4a6a-8d0f-bd131d4d56db .nofill{fill:none}#chart-db12267a-efb6-4a6a-8d0f-bd131d4d56db .subtle-fill{fill-opacity:.2}#chart-db12267a-efb6-4a6a-8d0f-bd131d4d56db .dot{stroke-width:1px;fill-opacity:1}#chart-db12267a-efb6-4a6a-8d0f-bd131d4d56db .dot.active{stroke-width:5px}#chart-db12267a-efb6-4a6a-8d0f-bd131d4d56db .dot.negative{fill:transparent}#chart-db12267a-efb6-4a6a-8d0f-bd131d4d56db text,#chart-db12267a-efb6-4a6a-8d0f-bd131d4d56db tspan{stroke:none !important}#chart-db12267a-efb6-4a6a-8d0f-bd131d4d56db .series text.active{opacity:1}#chart-db12267a-efb6-4a6a-8d0f-bd131d4d56db .tooltip rect{fill-opacity:.95;stroke-width:.5}#chart-db12267a-efb6-4a6a-8d0f-bd131d4d56db .tooltip text{fill-opacity:1}#chart-db12267a-efb6-4a6a-8d0f-bd131d4d56db .showable{visibility:hidden}#chart-db12267a-efb6-4a6a-8d0f-bd131d4d56db .showable.shown{visibility:visible}#chart-db12267a-efb6-4a6a-8d0f-bd131d4d56db .gauge-background{fill:rgba(229,229,229,1);stroke:none}#chart-db12267a-efb6-4a6a-8d0f-bd131d4d56db .bg-lines{stroke:rgba(249,249,249,1);stroke-width:2px}</style><script type="text/javascript">window.pygal = window.pygal || {};window.pygal.config = window.pygal.config || {};window.pygal.config['db12267a-efb6-4a6a-8d0f-bd131d4d56db'] = {"no_data_text": "No data", "no_prefix": false, "xrange": null, "print_values_position": "center", "truncate_label": null, "x_labels": ["2549", "2550", "2551", "2552", "2553", "2554", "2555", "2556", "2557", "2558"], "title": null, "force_uri_protocol": "https", "defs": [], "formatter": null, "classes": ["pygal-chart"], "y_labels": null, "rounded_bars": null, "explicit_size": false, "x_labels_major_every": null, "legend_at_bottom_columns": null, "stroke_style": null, "half_pie": false, "spacing": 10, "tooltip_fancy_mode": true, "inverse_y_axis": false, "width": 800, "inner_radius": 0, "interpolation_parameters": {}, "tooltip_border_radius": 0, "style": {"no_data_font_family": "Consolas, \"Liberation Mono\", Menlo, Courier, monospace", "tooltip_font_size": 14, "tooltip_font_family": "Consolas, \"Liberation Mono\", Menlo, Courier, monospace", "stroke_opacity_hover": ".9", "legend_font_family": "Consolas, \"Liberation Mono\", Menlo, Courier, monospace", "font_family": "Consolas, \"Liberation Mono\", Menlo, Courier, monospace", "title_font_family": "Consolas, \"Liberation Mono\", Menlo, Courier, monospace", "background": "rgba(249, 249, 249, 1)", "stroke_opacity": ".8", "foreground": "rgba(0, 0, 0, .87)", "value_background": "rgba(229, 229, 229, 1)", "guide_stroke_dasharray": "4,4", "foreground_subtle": "rgba(0, 0, 0, .54)", "opacity_hover": ".8", "value_font_family": "Consolas, \"Liberation Mono\", Menlo, Courier, monospace", "value_label_font_size": 10, "plot_background": "rgba(255, 255, 255, 1)", "ci_colors": [], "label_font_size": 10, "major_label_font_size": 10, "title_font_size": 16, "no_data_font_size": 64, "value_font_size": 16, "value_colors": [], "label_font_family": "Consolas, \"Liberation Mono\", Menlo, Courier, monospace", "major_guide_stroke_dasharray": "6,6", "transition": "150ms", "foreground_strong": "rgba(0, 0, 0, 1)", "colors": ["#e86fa0", "#e88f6f", "#e8df6f", "#a0e86f", "#6fe88f", "#6fe8df", "#6fa0e8", "#8f6fe8", "#df6fe8", "#e86fa0"], "opacity": ".7", "legend_font_size": 14, "value_label_font_family": "Consolas, \"Liberation Mono\", Menlo, Courier, monospace", "major_label_font_family": "Consolas, \"Liberation Mono\", Menlo, Courier, monospace"}, "x_labels_major_count": null, "interpolation_precision": 250, "missing_value_fill_truncation": "x", "stack_from_top": false, "truncate_legend": null, "show_minor_x_labels": true, "print_zeroes": true, "css": ["file://style.css", "file://graph.css"], "y_label_rotation": 0, "legend_at_bottom": false, "print_values": false, "margin_top": null, "max_scale": 16, "allow_interruptions": false, "show_x_labels": true, "strict": false, "show_x_guides": false, "stroke": true, "margin_left": null, "dynamic_print_values": false, "print_labels": false, "show_y_labels": true, "x_labels_major": null, "range": null, "x_label_rotation": 0, "margin": 20, "zero": 0, "include_x_axis": false, "height": 600, "show_minor_y_labels": true, "show_dots": true, "interpolate": "cubic", "show_y_guides": true, "y_labels_major": null, "box_mode": "extremes", "margin_bottom": null, "order_min": null, "legend_box_size": 12, "fill": true, "show_only_major_dots": false, "js": ["//kozea.github.io/pygal.js/2.0.x/pygal-tooltips.min.js"], "x_title": null, "y_labels_major_every": null, "y_labels_major_count": null, "disable_xml_declaration": false, "y_title": null, "logarithmic": false, "pretty_print": false, "min_scale": 4, "dots_size": 2.5, "margin_right": null, "legends": [null], "secondary_range": null, "show_legend": false}</script><script type="text/javascript" xlink:href="https://kozea.github.io/pygal.js/2.0.x/pygal-tooltips.min.js" /></defs><title>Pygal</title><g class="graph stackedline-graph vertical"><rect class="background" height="600" width="800" x="0" y="0" /><g class="plot" transform="translate(54, 20)"><rect class="background" height="540" width="726.0" x="0" y="0" /><g class="axis y"><path class="line" d="M0.000000 540.000000 h726.000000" /><g class="guides"><path class="guide line" d="M0.000000 477.036592 h726.000000" /><text class="" x="-5" y="480.5365922254879">480M</text><title>480M</title></g><g class="guides"><path class="guide line" d="M0.000000 419.197994 h726.000000" /><text class="" x="-5" y="422.6979938482931">520M</text><title>520M</title></g><g class="guides"><path class="guide line" d="M0.000000 361.359395 h726.000000" /><text class="" x="-5" y="364.8593954710983">560M</text><title>560M</title></g><g class="guides"><path class="guide line" d="M0.000000 303.520797 h726.000000" /><text class="" x="-5" y="307.02079709390347">600M</text><title>600M</title></g><g class="guides"><path class="guide line" d="M0.000000 245.682199 h726.000000" /><text class="" x="-5" y="249.18219871670868">640M</text><title>640M</title></g><g class="guides"><path class="guide line" d="M0.000000 187.843600 h726.000000" /><text class="" x="-5" y="191.34360033951384">680M</text><title>680M</title></g><g class="guides"><path class="guide line" d="M0.000000 130.005002 h726.000000" /><text class="" x="-5" y="133.5050019623191">720M</text><title>720M</title></g><g class="guides"><path class="guide line" d="M0.000000 72.166404 h726.000000" /><text class="" x="-5" y="75.66640358512427">760M</text><title>760M</title></g><g class="guides"><path class="guide line" d="M0.000000 14.327805 h726.000000" /><text class="" x="-5" y="17.827805207929487">800M</text><title>800M</title></g></g><g class="axis x"><g class="guides"><path class="line" d="M13.961538 0.000000 v540.000000" /><text class="" x="13.96153846153846" y="555.0">2549</text></g><g class="guides"><path class="guide line" d="M91.525641 0.000000 v540.000000" /><text class="" x="91.52564102564101" y="555.0">2550</text></g><g class="guides"><path class="guide line" d="M169.089744 0.000000 v540.000000" /><text class="" x="169.08974358974356" y="555.0">2551</text></g><g class="guides"><path class="guide line" d="M246.653846 0.000000 v540.000000" /><text class="" x="246.65384615384613" y="555.0">2552</text></g><g class="guides"><path class="guide line" d="M324.217949 0.000000 v540.000000" /><text class="" x="324.21794871794873" y="555.0">2553</text></g><g class="guides"><path class="guide line" d="M401.782051 0.000000 v540.000000" /><text class="" x="401.78205128205127" y="555.0">2554</text></g><g class="guides"><path class="guide line" d="M479.346154 0.000000 v540.000000" /><text class="" x="479.3461538461538" y="555.0">2555</text></g><g class="guides"><path class="guide line" d="M556.910256 0.000000 v540.000000" /><text class="" x="556.9102564102565" y="555.0">2556</text></g><g class="guides"><path class="guide line" d="M634.474359 0.000000 v540.000000" /><text class="" x="634.474358974359" y="555.0">2557</text></g><g class="guides"><path class="guide line" d="M712.038462 0.000000 v540.000000" /><text class="" x="712.0384615384615" y="555.0">2558</text></g></g><g class="series serie-0 color-0"><path class="line reactive" d="M13.961538 540.000000 L13.961538 529.615385 14.271795 529.358466 14.582051 529.101552 14.892308 528.844648 15.202564 528.587760 15.512821 528.330893 15.823077 528.074051 16.133333 527.817240 16.443590 527.560465 16.753846 527.303732 17.064103 527.047044 17.374359 526.790408 17.684615 526.533829 17.994872 526.277311 18.305128 526.020860 18.615385 525.764482 18.925641 525.508180 19.235897 525.251961 19.546154 524.995829 19.856410 524.739790 20.166667 524.483848 20.476923 524.228010 20.787179 523.972279 21.097436 523.716662 21.407692 523.461163 21.717949 523.205787 22.028205 522.950540 22.338462 522.695427 22.648718 522.440453 22.958974 522.185623 23.269231 521.930942 23.579487 521.676415 23.889744 521.422048 24.200000 521.167845 24.510256 520.913812 24.820513 520.659954 25.130769 520.406276 25.441026 520.152784 25.751282 519.899481 26.061538 519.646375 26.371795 519.393468 26.682051 519.140768 26.992308 518.888278 27.302564 518.636005 27.612821 518.383953 27.923077 518.132127 28.233333 517.880533 28.543590 517.629175 28.853846 517.378059 29.164103 517.127190 29.474359 516.876573 29.784615 516.626214 30.094872 516.376116 30.405128 516.126287 30.715385 515.876729 31.025641 515.627450 31.335897 515.378454 31.646154 515.129745 31.956410 514.881330 32.266667 514.633214 32.576923 514.385401 32.887179 514.137896 33.197436 513.890706 33.507692 513.643834 33.817949 513.397286 34.128205 513.151068 34.438462 512.905184 34.748718 512.659640 35.058974 512.414440 35.369231 512.169590 35.679487 511.925095 35.989744 511.680961 36.300000 511.437191 36.610256 511.193792 36.920513 510.950768 37.230769 510.708125 37.541026 510.465868 37.851282 510.224002 38.161538 509.982532 38.471795 509.741464 38.782051 509.500802 39.092308 509.260551 39.402564 509.020717 39.712821 508.781305 40.023077 508.542320 40.333333 508.303767 40.643590 508.065651 40.953846 507.827978 41.264103 507.590752 41.574359 507.353979 41.884615 507.117664 42.194872 506.881812 42.505128 506.646428 42.815385 506.411517 43.125641 506.177085 43.435897 505.943136 43.746154 505.709677 44.056410 505.476710 44.366667 505.244243 44.676923 505.012281 44.987179 504.780827 45.297436 504.549888 45.607692 504.319469 45.917949 504.089574 46.228205 503.860209 46.538462 503.631379 46.848718 503.403089 47.158974 503.175345 47.469231 502.948151 47.779487 502.721513 48.089744 502.495435 48.400000 502.269924 48.710256 502.044983 49.020513 501.820619 49.330769 501.596836 49.641026 501.373639 49.951282 501.151034 50.261538 500.929026 50.571795 500.707620 50.882051 500.486821 51.192308 500.266634 51.502564 500.047064 51.812821 499.828117 52.123077 499.609797 52.433333 499.392110 52.743590 499.175061 53.053846 498.958656 53.364103 498.742898 53.674359 498.527794 53.984615 498.313348 54.294872 498.099566 54.605128 497.886453 54.915385 497.674013 55.225641 497.462253 55.535897 497.251177 55.846154 497.040790 56.156410 496.831098 56.466667 496.622105 56.776923 496.413818 57.087179 496.206240 57.397436 495.999377 57.707692 495.793235 58.017949 495.587817 58.328205 495.383131 58.638462 495.179180 58.948718 494.975970 59.258974 494.773506 59.569231 494.571793 59.879487 494.370836 60.189744 494.170640 60.500000 493.971211 60.810256 493.772554 61.120513 493.574674 61.430769 493.377575 61.741026 493.181264 62.051282 492.985745 62.361538 492.791023 62.671795 492.597104 62.982051 492.403993 63.292308 492.211694 63.602564 492.020214 63.912821 491.829556 64.223077 491.639727 64.533333 491.450731 64.843590 491.262574 65.153846 491.075260 65.464103 490.888796 65.774359 490.703185 66.084615 490.518433 66.394872 490.334546 66.705128 490.151528 67.015385 489.969385 67.325641 489.788121 67.635897 489.607743 67.946154 489.428254 68.256410 489.249660 68.566667 489.071967 68.876923 488.895179 69.187179 488.719302 69.497436 488.544340 69.807692 488.370300 70.117949 488.197185 70.428205 488.025002 70.738462 487.853754 71.048718 487.683449 71.358974 487.514090 71.669231 487.345682 71.979487 487.178232 72.289744 487.011743 72.600000 486.846222 72.910256 486.681673 73.220513 486.518101 73.530769 486.355512 73.841026 486.193911 74.151282 486.033303 74.461538 485.873692 74.771795 485.715085 75.082051 485.557486 75.392308 485.400901 75.702564 485.245334 76.012821 485.090791 76.323077 484.937277 76.633333 484.784797 76.943590 484.633357 77.253846 484.482960 77.564103 484.333613 77.874359 484.185321 78.184615 484.038088 78.494872 483.891921 78.805128 483.746823 79.115385 483.602801 79.425641 483.459859 79.735897 483.318002 80.046154 483.177236 80.356410 483.037566 80.666667 482.898997 80.976923 482.761534 81.287179 482.625182 81.597436 482.489946 81.907692 482.355832 82.217949 482.222845 82.528205 482.090989 82.838462 481.960271 83.148718 481.830694 83.458974 481.702265 83.769231 481.574988 84.079487 481.448868 84.389744 481.323912 84.700000 481.200123 85.010256 481.077507 85.320513 480.956069 85.630769 480.835814 85.941026 480.716748 86.251282 480.598875 86.561538 480.482201 86.871795 480.366730 87.182051 480.252469 87.492308 480.139422 87.802564 480.027594 88.112821 479.916990 88.423077 479.807616 88.733333 479.699477 89.043590 479.592577 89.353846 479.486923 89.664103 479.382518 89.974359 479.279369 90.284615 479.177481 90.594872 479.076857 90.905128 478.977505 91.215385 478.879428 91.525641 478.782633 91.835897 478.687120 92.146154 478.592882 92.456410 478.499907 92.766667 478.408182 93.076923 478.317696 93.387179 478.228438 93.697436 478.140395 94.007692 478.053555 94.317949 477.967907 94.628205 477.883440 94.938462 477.800140 95.248718 477.717997 95.558974 477.636999 95.869231 477.557134 96.179487 477.478389 96.489744 477.400754 96.800000 477.324217 97.110256 477.248765 97.420513 477.174387 97.730769 477.101072 98.041026 477.028806 98.351282 476.957580 98.661538 476.887380 98.971795 476.818195 99.282051 476.750013 99.592308 476.682823 99.902564 476.616612 100.212821 476.551369 100.523077 476.487083 100.833333 476.423740 101.143590 476.361330 101.453846 476.299841 101.764103 476.239261 102.074359 476.179577 102.384615 476.120780 102.694872 476.062855 103.005128 476.005793 103.315385 475.949580 103.625641 475.894205 103.935897 475.839657 104.246154 475.785924 104.556410 475.732993 104.866667 475.680854 105.176923 475.629493 105.487179 475.578900 105.797436 475.529063 106.107692 475.479970 106.417949 475.431608 106.728205 475.383967 107.038462 475.337035 107.348718 475.290799 107.658974 475.245248 107.969231 475.200370 108.279487 475.156154 108.589744 475.112587 108.900000 475.069658 109.210256 475.027355 109.520513 474.985666 109.830769 474.944580 110.141026 474.904084 110.451282 474.864167 110.761538 474.824817 111.071795 474.786023 111.382051 474.747771 111.692308 474.710052 112.002564 474.672852 112.312821 474.636161 112.623077 474.599966 112.933333 474.564255 113.243590 474.529017 113.553846 474.494240 113.864103 474.459913 114.174359 474.426022 114.484615 474.392557 114.794872 474.359506 115.105128 474.326858 115.415385 474.294599 115.725641 474.262718 116.035897 474.231205 116.346154 474.200046 116.656410 474.169230 116.966667 474.138746 117.276923 474.108581 117.587179 474.078724 117.897436 474.049163 118.207692 474.019885 118.517949 473.990881 118.828205 473.962136 119.138462 473.933641 119.448718 473.905382 119.758974 473.877349 120.069231 473.849529 120.379487 473.821911 120.689744 473.794482 121.000000 473.767232 121.310256 473.740148 121.620513 473.713218 121.930769 473.686431 122.241026 473.659775 122.551282 473.633238 122.861538 473.606808 123.171795 473.580474 123.482051 473.554223 123.792308 473.528045 124.102564 473.501927 124.412821 473.475857 124.723077 473.449823 125.033333 473.423815 125.343590 473.397819 125.653846 473.371824 125.964103 473.345820 126.274359 473.319792 126.584615 473.293731 126.894872 473.267623 127.205128 473.241458 127.515385 473.215223 127.825641 473.188907 128.135897 473.162498 128.446154 473.135985 128.756410 473.109354 129.066667 473.082595 129.376923 473.055696 129.687179 473.028644 129.997436 473.001429 130.307692 472.974038 130.617949 472.946460 130.928205 472.918683 131.238462 472.890695 131.548718 472.862484 131.858974 472.834038 132.169231 472.805346 132.479487 472.776396 132.789744 472.747176 133.100000 472.717674 133.410256 472.687879 133.720513 472.657779 134.030769 472.627361 134.341026 472.596615 134.651282 472.565528 134.961538 472.534088 135.271795 472.502285 135.582051 472.470105 135.892308 472.437538 136.202564 472.404571 136.512821 472.371192 136.823077 472.337391 137.133333 472.303154 137.443590 472.268471 137.753846 472.233329 138.064103 472.197717 138.374359 472.161623 138.684615 472.125035 138.994872 472.087941 139.305128 472.050330 139.615385 472.012190 139.925641 471.973508 140.235897 471.934274 140.546154 471.894475 140.856410 471.854100 141.166667 471.813136 141.476923 471.771572 141.787179 471.729397 142.097436 471.686598 142.407692 471.643164 142.717949 471.599083 143.028205 471.554343 143.338462 471.508932 143.648718 471.462838 143.958974 471.416050 144.269231 471.368557 144.579487 471.320345 144.889744 471.271404 145.200000 471.221721 145.510256 471.171285 145.820513 471.120084 146.130769 471.068106 146.441026 471.015340 146.751282 470.961773 147.061538 470.907394 147.371795 470.852191 147.682051 470.796152 147.992308 470.739266 148.302564 470.681520 148.612821 470.622904 148.923077 470.563404 149.233333 470.503010 149.543590 470.441709 149.853846 470.379490 150.164103 470.316341 150.474359 470.252250 150.784615 470.187206 151.094872 470.121196 151.405128 470.054209 151.715385 469.986233 152.025641 469.917256 152.335897 469.847267 152.646154 469.776253 152.956410 469.704203 153.266667 469.631105 153.576923 469.556947 153.887179 469.481718 154.197436 469.405406 154.507692 469.327998 154.817949 469.249484 155.128205 469.169851 155.438462 469.089088 155.748718 469.007182 156.058974 468.924122 156.369231 468.839897 156.679487 468.754493 156.989744 468.667901 157.300000 468.580107 157.610256 468.491100 157.920513 468.400869 158.230769 468.309401 158.541026 468.216685 158.851282 468.122708 159.161538 468.027460 159.471795 467.930928 159.782051 467.833100 160.092308 467.733965 160.402564 467.633511 160.712821 467.531727 161.023077 467.428599 161.333333 467.324118 161.643590 467.218270 161.953846 467.111044 162.264103 467.002428 162.574359 466.892410 162.884615 466.780980 163.194872 466.668124 163.505128 466.553831 163.815385 466.438089 164.125641 466.320887 164.435897 466.202213 164.746154 466.082054 165.056410 465.960400 165.366667 465.837238 165.676923 465.712556 165.987179 465.586343 166.297436 465.458588 166.607692 465.329277 166.917949 465.198400 167.228205 465.065944 167.538462 464.931898 167.848718 464.796250 168.158974 464.658989 168.469231 464.520102 168.779487 464.379577 169.089744 464.237403 169.400000 464.093572 169.710256 463.948084 170.020513 463.800944 170.330769 463.652157 170.641026 463.501727 170.951282 463.349660 171.261538 463.195959 171.571795 463.040629 171.882051 462.883676 172.192308 462.725102 172.502564 462.564914 172.812821 462.403116 173.123077 462.239711 173.433333 462.074706 173.743590 461.908104 174.053846 461.739910 174.364103 461.570128 174.674359 461.398764 174.984615 461.225821 175.294872 461.051305 175.605128 460.875220 175.915385 460.697571 176.225641 460.518362 176.535897 460.337597 176.846154 460.155282 177.156410 459.971421 177.466667 459.786019 177.776923 459.599080 178.087179 459.410608 178.397436 459.220609 178.707692 459.029087 179.017949 458.836046 179.328205 458.641492 179.638462 458.445428 179.948718 458.247860 180.258974 458.048792 180.569231 457.848228 180.879487 457.646173 181.189744 457.442632 181.500000 457.237609 181.810256 457.031110 182.120513 456.823138 182.430769 456.613698 182.741026 456.402794 183.051282 456.190432 183.361538 455.976616 183.671795 455.761351 183.982051 455.544640 184.292308 455.326489 184.602564 455.106903 184.912821 454.885885 185.223077 454.663441 185.533333 454.439575 185.843590 454.214292 186.153846 453.987596 186.464103 453.759491 186.774359 453.529984 187.084615 453.299077 187.394872 453.066776 187.705128 452.833085 188.015385 452.598009 188.325641 452.361553 188.635897 452.123721 188.946154 451.884517 189.256410 451.643946 189.566667 451.402014 189.876923 451.158723 190.187179 450.914080 190.497436 450.668089 190.807692 450.420753 191.117949 450.172079 191.428205 449.922070 191.738462 449.670731 192.048718 449.418066 192.358974 449.164081 192.669231 448.908779 192.979487 448.652166 193.289744 448.394246 193.600000 448.135023 193.910256 447.874503 194.220513 447.612689 194.530769 447.349587 194.841026 447.085201 195.151282 446.819535 195.461538 446.552595 195.771795 446.284384 196.082051 446.014908 196.392308 445.744170 196.702564 445.472176 197.012821 445.198931 197.323077 444.924438 197.633333 444.648702 197.943590 444.371728 198.253846 444.093521 198.564103 443.814085 198.874359 443.533425 199.184615 443.251545 199.494872 442.968450 199.805128 442.684144 200.115385 442.398632 200.425641 442.111920 200.735897 441.824010 201.046154 441.534909 201.356410 441.244619 201.666667 440.953147 201.976923 440.660497 202.287179 440.366673 202.597436 440.071680 202.907692 439.775522 203.217949 439.478205 203.528205 439.179732 203.838462 438.880108 204.148718 438.579338 204.458974 438.277427 204.769231 437.974378 205.079487 437.670198 205.389744 437.364889 205.700000 437.058458 206.010256 436.750908 206.320513 436.442243 206.630769 436.132470 206.941026 435.821592 207.251282 435.509613 207.561538 435.196539 207.871795 434.882374 208.182051 434.567123 208.492308 434.250790 208.802564 433.933379 209.112821 433.614896 209.423077 433.295345 209.733333 432.974731 210.043590 432.653058 210.353846 432.330330 210.664103 432.006553 210.974359 431.681731 211.284615 431.355868 211.594872 431.028970 211.905128 430.701040 212.215385 430.372084 212.525641 430.042106 212.835897 429.711110 213.146154 429.379102 213.456410 429.046085 213.766667 428.712064 214.076923 428.377045 214.387179 428.041031 214.697436 427.704027 215.007692 427.366038 215.317949 427.027068 215.628205 426.687122 215.938462 426.346205 216.248718 426.004321 216.558974 425.661474 216.869231 425.317670 217.179487 424.972912 217.489744 424.627206 217.800000 424.280557 218.110256 423.932968 218.420513 423.584444 218.730769 423.234990 219.041026 422.884610 219.351282 422.533310 219.661538 422.181093 219.971795 421.827965 220.282051 421.473929 220.592308 421.118991 220.902564 420.763155 221.212821 420.406426 221.523077 420.048808 221.833333 419.690305 222.143590 419.330924 222.453846 418.970667 222.764103 418.609540 223.074359 418.247547 223.384615 417.884693 223.694872 417.520982 224.005128 417.156419 224.315385 416.791009 224.625641 416.424756 224.935897 416.057665 225.246154 415.689740 225.556410 415.320987 225.866667 414.951409 226.176923 414.581011 226.487179 414.209798 226.797436 413.837774 227.107692 413.464944 227.417949 413.091313 227.728205 412.716885 228.038462 412.341665 228.348718 411.965657 228.658974 411.588866 228.969231 411.211297 229.279487 410.832954 229.589744 410.453841 229.900000 410.073964 230.210256 409.693327 230.520513 409.311935 230.830769 408.929791 231.141026 408.546902 231.451282 408.163270 231.761538 407.778902 232.071795 407.393801 232.382051 407.007972 232.692308 406.621420 233.002564 406.234149 233.312821 405.846164 233.623077 405.457470 233.933333 405.068070 234.243590 404.677971 234.553846 404.287175 234.864103 403.895689 235.174359 403.503516 235.484615 403.110661 235.794872 402.717129 236.105128 402.322924 236.415385 401.928051 236.725641 401.532514 237.035897 401.136319 237.346154 400.739469 237.656410 400.341969 237.966667 399.943825 238.276923 399.545039 238.587179 399.145618 238.897436 398.745565 239.207692 398.344886 239.517949 397.943584 239.828205 397.541665 240.138462 397.139133 240.448718 396.735993 240.758974 396.332248 241.069231 395.927905 241.379487 395.522967 241.689744 395.117439 242.000000 394.711325 242.310256 394.304631 242.620513 393.897360 242.930769 393.489518 243.241026 393.081109 243.551282 392.672138 243.861538 392.262608 244.171795 391.852526 244.482051 391.441894 244.792308 391.030719 245.102564 390.619004 245.412821 390.206755 245.723077 389.793975 246.033333 389.380670 246.343590 388.966843 246.653846 388.552500 246.964103 388.137647 247.274359 387.722292 247.584615 387.306448 247.894872 386.890125 248.205128 386.473335 248.515385 386.056089 248.825641 385.638397 249.135897 385.220272 249.446154 384.801723 249.756410 384.382763 250.066667 383.963402 250.376923 383.543651 250.687179 383.123521 250.997436 382.703025 251.307692 382.282172 251.617949 381.860973 251.928205 381.439441 252.238462 381.017586 252.548718 380.595419 252.858974 380.172951 253.169231 379.750193 253.479487 379.327157 253.789744 378.903854 254.100000 378.480294 254.410256 378.056489 254.720513 377.632450 255.030769 377.208188 255.341026 376.783714 255.651282 376.359040 255.961538 375.934175 256.271795 375.509133 256.582051 375.083922 256.892308 374.658556 257.202564 374.233044 257.512821 373.807399 257.823077 373.381630 258.133333 372.955750 258.443590 372.529768 258.753846 372.103697 259.064103 371.677548 259.374359 371.251331 259.684615 370.825058 259.994872 370.398740 260.305128 369.972388 260.615385 369.546012 260.925641 369.119625 261.235897 368.693237 261.546154 368.266860 261.856410 367.840504 262.166667 367.414180 262.476923 366.987901 262.787179 366.561676 263.097436 366.135517 263.407692 365.709435 263.717949 365.283441 264.028205 364.857547 264.338462 364.431763 264.648718 364.006100 264.958974 363.580570 265.269231 363.155184 265.579487 362.729952 265.889744 362.304887 266.200000 361.879998 266.510256 361.455298 266.820513 361.030797 267.130769 360.606506 267.441026 360.182437 267.751282 359.758600 268.061538 359.335008 268.371795 358.911670 268.682051 358.488597 268.992308 358.065802 269.302564 357.643295 269.612821 357.221088 269.923077 356.799191 270.233333 356.377615 270.543590 355.956372 270.853846 355.535472 271.164103 355.114928 271.474359 354.694749 271.784615 354.274947 272.094872 353.855534 272.405128 353.436520 272.715385 353.017916 273.025641 352.599734 273.335897 352.181984 273.646154 351.764678 273.956410 351.347827 274.266667 350.931442 274.576923 350.515534 274.887179 350.100114 275.197436 349.685193 275.507692 349.270783 275.817949 348.856894 276.128205 348.443538 276.438462 348.030725 276.748718 347.618468 277.058974 347.206776 277.369231 346.795661 277.679487 346.385135 277.989744 345.975208 278.300000 345.565891 278.610256 345.157196 278.920513 344.749133 279.230769 344.341714 279.541026 343.934950 279.851282 343.528852 280.161538 343.123431 280.471795 342.718698 280.782051 342.314664 281.092308 341.911341 281.402564 341.508739 281.712821 341.106870 282.023077 340.705744 282.333333 340.305374 282.643590 339.905769 282.953846 339.506942 283.264103 339.108902 283.574359 338.711662 283.884615 338.315233 284.194872 337.919624 284.505128 337.524849 284.815385 337.130917 285.125641 336.737840 285.435897 336.345629 285.746154 335.954295 286.056410 335.563849 286.366667 335.174303 286.676923 334.785667 286.987179 334.397952 287.297436 334.011170 287.607692 333.625332 287.917949 333.240448 288.228205 332.856531 288.538462 332.473590 288.848718 332.091638 289.158974 331.710685 289.469231 331.330743 289.779487 330.951822 290.089744 330.573933 290.400000 330.197089 290.710256 329.821299 291.020513 329.446575 291.330769 329.072928 291.641026 328.700370 291.951282 328.328911 292.261538 327.958562 292.571795 327.589334 292.882051 327.221240 293.192308 326.854289 293.502564 326.488492 293.812821 326.123862 294.123077 325.760409 294.433333 325.398144 294.743590 325.037078 295.053846 324.677223 295.364103 324.318590 295.674359 323.961188 295.984615 323.605031 296.294872 323.250129 296.605128 322.896492 296.915385 322.544133 297.225641 322.193061 297.535897 321.843289 297.846154 321.494828 298.156410 321.147688 298.466667 320.801880 298.776923 320.457417 299.087179 320.114308 299.397436 319.772565 299.707692 319.432199 300.017949 319.093222 300.328205 318.755643 300.638462 318.419476 300.948718 318.084729 301.258974 317.751416 301.569231 317.419546 301.879487 317.089130 302.189744 316.760181 302.500000 316.432709 302.810256 316.106725 303.120513 315.782241 303.430769 315.459267 303.741026 315.137814 304.051282 314.817894 304.361538 314.499518 304.671795 314.182697 304.982051 313.867441 305.292308 313.553763 305.602564 313.241673 305.912821 312.931182 306.223077 312.622302 306.533333 312.315043 306.843590 312.009416 307.153846 311.705434 307.464103 311.403106 307.774359 311.102445 308.084615 310.803460 308.394872 310.506164 308.705128 310.210567 309.015385 309.916680 309.325641 309.624515 309.635897 309.334083 309.946154 309.045394 310.256410 308.758460 310.566667 308.473292 310.876923 308.189901 311.187179 307.908299 311.497436 307.628496 311.807692 307.350503 312.117949 307.074331 312.428205 306.799993 312.738462 306.527498 313.048718 306.256858 313.358974 305.988084 313.669231 305.721187 313.979487 305.456178 314.289744 305.193069 314.600000 304.931870 314.910256 304.672592 315.220513 304.415247 315.530769 304.159846 315.841026 303.906400 316.151282 303.654920 316.461538 303.405417 316.771795 303.157902 317.082051 302.912386 317.392308 302.668881 317.702564 302.427397 318.012821 302.187946 318.323077 301.950539 318.633333 301.715187 318.943590 301.481900 319.253846 301.250691 319.564103 301.021570 319.874359 300.794548 320.184615 300.569637 320.494872 300.346847 320.805128 300.126190 321.115385 299.907677 321.425641 299.691318 321.735897 299.477126 322.046154 299.265110 322.356410 299.055283 322.666667 298.847655 322.976923 298.642238 323.287179 298.439042 323.597436 298.238079 323.907692 298.039359 324.217949 297.842895 324.528205 297.648691 324.838462 297.456731 325.148718 297.266995 325.458974 297.079461 325.769231 296.894106 326.079487 296.710911 326.389744 296.529854 326.700000 296.350912 327.010256 296.174066 327.320513 295.999292 327.630769 295.826571 327.941026 295.655880 328.251282 295.487198 328.561538 295.320504 328.871795 295.155777 329.182051 294.992994 329.492308 294.832135 329.802564 294.673178 330.112821 294.516101 330.423077 294.360884 330.733333 294.207505 331.043590 294.055942 331.353846 293.906174 331.664103 293.758180 331.974359 293.611939 332.284615 293.467428 332.594872 293.324626 332.905128 293.183513 333.215385 293.044066 333.525641 292.906265 333.835897 292.770087 334.146154 292.635512 334.456410 292.502518 334.766667 292.371084 335.076923 292.241187 335.387179 292.112808 335.697436 291.985924 336.007692 291.860514 336.317949 291.736557 336.628205 291.614030 336.938462 291.492914 337.248718 291.373186 337.558974 291.254825 337.869231 291.137809 338.179487 291.022118 338.489744 290.907730 338.800000 290.794622 339.110256 290.682775 339.420513 290.572167 339.730769 290.462775 340.041026 290.354579 340.351282 290.247558 340.661538 290.141690 340.971795 290.036953 341.282051 289.933326 341.592308 289.830788 341.902564 289.729317 342.212821 289.628892 342.523077 289.529492 342.833333 289.431095 343.143590 289.333679 343.453846 289.237224 343.764103 289.141708 344.074359 289.047109 344.384615 288.953406 344.694872 288.860578 345.005128 288.768603 345.315385 288.677460 345.625641 288.587127 345.935897 288.497584 346.246154 288.408808 346.556410 288.320779 346.866667 288.233474 347.176923 288.146872 347.487179 288.060953 347.797436 287.975695 348.107692 287.891075 348.417949 287.807074 348.728205 287.723668 349.038462 287.640838 349.348718 287.558562 349.658974 287.476817 349.969231 287.395583 350.279487 287.314839 350.589744 287.234563 350.900000 287.154733 351.210256 287.075329 351.520513 286.996328 351.830769 286.917710 352.141026 286.839452 352.451282 286.761534 352.761538 286.683935 353.071795 286.606632 353.382051 286.529604 353.692308 286.452830 354.002564 286.376289 354.312821 286.299959 354.623077 286.223819 354.933333 286.147847 355.243590 286.072022 355.553846 285.996322 355.864103 285.920727 356.174359 285.845214 356.484615 285.769762 356.794872 285.694351 357.105128 285.618957 357.415385 285.543561 357.725641 285.468141 358.035897 285.392675 358.346154 285.317141 358.656410 285.241519 358.966667 285.165788 359.276923 285.089925 359.587179 285.013909 359.897436 284.937718 360.207692 284.861333 360.517949 284.784730 360.828205 284.707889 361.138462 284.630788 361.448718 284.553406 361.758974 284.475722 362.069231 284.397713 362.379487 284.319359 362.689744 284.240638 363.000000 284.161529 363.310256 284.082011 363.620513 284.002061 363.930769 283.921659 364.241026 283.840783 364.551282 283.759412 364.861538 283.677524 365.171795 283.595098 365.482051 283.512113 365.792308 283.428547 366.102564 283.344378 366.412821 283.259586 366.723077 283.174149 367.033333 283.088046 367.343590 283.001254 367.653846 282.913753 367.964103 282.825522 368.274359 282.736538 368.584615 282.646781 368.894872 282.556229 369.205128 282.464861 369.515385 282.372655 369.825641 282.279590 370.135897 282.185644 370.446154 282.090796 370.756410 281.995025 371.066667 281.898310 371.376923 281.800628 371.687179 281.701958 371.997436 281.602280 372.307692 281.501571 372.617949 281.399811 372.928205 281.296977 373.238462 281.193049 373.548718 281.088005 373.858974 280.981823 374.169231 280.874483 374.479487 280.765962 374.789744 280.656240 375.100000 280.545295 375.410256 280.433106 375.720513 280.319650 376.030769 280.204908 376.341026 280.088856 376.651282 279.971475 376.961538 279.852742 377.271795 279.732637 377.582051 279.611137 377.892308 279.488222 378.202564 279.363869 378.512821 279.238058 378.823077 279.110768 379.133333 278.981976 379.443590 278.851661 379.753846 278.719802 380.064103 278.586378 380.374359 278.451367 380.684615 278.314747 380.994872 278.176498 381.305128 278.036598 381.615385 277.895025 381.925641 277.751758 382.235897 277.606776 382.546154 277.460058 382.856410 277.311581 383.166667 277.161324 383.476923 277.009267 383.787179 276.855387 384.097436 276.699664 384.407692 276.542075 384.717949 276.382600 385.028205 276.221217 385.338462 276.057905 385.648718 275.892642 385.958974 275.725406 386.269231 275.556177 386.579487 275.384933 386.889744 275.211653 387.200000 275.036315 387.510256 274.858898 387.820513 274.679380 388.130769 274.497740 388.441026 274.313957 388.751282 274.128008 389.061538 273.939874 389.371795 273.749532 389.682051 273.556961 389.992308 273.362139 390.302564 273.165046 390.612821 272.965660 390.923077 272.763958 391.233333 272.559921 391.543590 272.353526 391.853846 272.144753 392.164103 271.933579 392.474359 271.719983 392.784615 271.503945 393.094872 271.285442 393.405128 271.064453 393.715385 270.840956 394.025641 270.614931 394.335897 270.386356 394.646154 270.155209 394.956410 269.921470 395.266667 269.685116 395.576923 269.446126 395.887179 269.204480 396.197436 268.960154 396.507692 268.713129 396.817949 268.463383 397.128205 268.210893 397.438462 267.955640 397.748718 267.697601 398.058974 267.436755 398.369231 267.173081 398.679487 266.906557 398.989744 266.637161 399.300000 266.364873 399.610256 266.089672 399.920513 265.811534 400.230769 265.530440 400.541026 265.246368 400.851282 264.959296 401.161538 264.669203 401.471795 264.376068 401.782051 264.079869 402.092308 263.780592 402.402564 263.478255 402.712821 263.172883 403.023077 262.864501 403.333333 262.553133 403.643590 262.238805 403.953846 261.921542 404.264103 261.601369 404.574359 261.278310 404.884615 260.952391 405.194872 260.623637 405.505128 260.292072 405.815385 259.957722 406.125641 259.620612 406.435897 259.280767 406.746154 258.938211 407.056410 258.592969 407.366667 258.245068 407.676923 257.894531 407.987179 257.541384 408.297436 257.185651 408.607692 256.827358 408.917949 256.466529 409.228205 256.103191 409.538462 255.737366 409.848718 255.369082 410.158974 254.998362 410.469231 254.625231 410.779487 254.249715 411.089744 253.871839 411.400000 253.491627 411.710256 253.109105 412.020513 252.724297 412.330769 252.337229 412.641026 251.947926 412.951282 251.556411 413.261538 251.162712 413.571795 250.766852 413.882051 250.368856 414.192308 249.968750 414.502564 249.566559 414.812821 249.162306 415.123077 248.756019 415.433333 248.347721 415.743590 247.937437 416.053846 247.525193 416.364103 247.111013 416.674359 246.694922 416.984615 246.276946 417.294872 245.857110 417.605128 245.435438 417.915385 245.011955 418.225641 244.586687 418.535897 244.159658 418.846154 243.730893 419.156410 243.300418 419.466667 242.868257 419.776923 242.434436 420.087179 241.998979 420.397436 241.561911 420.707692 241.123258 421.017949 240.683044 421.328205 240.241294 421.638462 239.798033 421.948718 239.353287 422.258974 238.907081 422.569231 238.459438 422.879487 238.010385 423.189744 237.559946 423.500000 237.108146 423.810256 236.655011 424.120513 236.200565 424.430769 235.744833 424.741026 235.287841 425.051282 234.829612 425.361538 234.370173 425.671795 233.909548 425.982051 233.447763 426.292308 232.984841 426.602564 232.520809 426.912821 232.055691 427.223077 231.589512 427.533333 231.122297 427.843590 230.654072 428.153846 230.184861 428.464103 229.714689 428.774359 229.243581 429.084615 228.771562 429.394872 228.298657 429.705128 227.824891 430.015385 227.350290 430.325641 226.874878 430.635897 226.398680 430.946154 225.921720 431.256410 225.444025 431.566667 224.965620 431.876923 224.486528 432.187179 224.006775 432.497436 223.526386 432.807692 223.045387 433.117949 222.563801 433.428205 222.081655 433.738462 221.598972 434.048718 221.115779 434.358974 220.632100 434.669231 220.147959 434.979487 219.663383 435.289744 219.178395 435.600000 218.693022 435.910256 218.207288 436.220513 217.721217 436.530769 217.234836 436.841026 216.748169 437.151282 216.261240 437.461538 215.774076 437.771795 215.286700 438.082051 214.799138 438.392308 214.311416 438.702564 213.823557 439.012821 213.335587 439.323077 212.847531 439.633333 212.359414 439.943590 211.871261 440.253846 211.383097 440.564103 210.894947 440.874359 210.406835 441.184615 209.918788 441.494872 209.430829 441.805128 208.942984 442.115385 208.455278 442.425641 207.967736 442.735897 207.480382 443.046154 206.993243 443.356410 206.506342 443.666667 206.019705 443.976923 205.533357 444.287179 205.047323 444.597436 204.561628 444.907692 204.076296 445.217949 203.591353 445.528205 203.106824 445.838462 202.622733 446.148718 202.139107 446.458974 201.655969 446.769231 201.173345 447.079487 200.691259 447.389744 200.209738 447.700000 199.728805 448.010256 199.248485 448.320513 198.768805 448.630769 198.289788 448.941026 197.811460 449.251282 197.333845 449.561538 196.856970 449.871795 196.380858 450.182051 195.905534 450.492308 195.431024 450.802564 194.957353 451.112821 194.484546 451.423077 194.012627 451.733333 193.541622 452.043590 193.071555 452.353846 192.602452 452.664103 192.134337 452.974359 191.667237 453.284615 191.201174 453.594872 190.736176 453.905128 190.272266 454.215385 189.809469 454.525641 189.347811 454.835897 188.887317 455.146154 188.428011 455.456410 187.969919 455.766667 187.513065 456.076923 187.057475 456.387179 186.603173 456.697436 186.150185 457.007692 185.698535 457.317949 185.248249 457.628205 184.799351 457.938462 184.351867 458.248718 183.905821 458.558974 183.461239 458.869231 183.018145 459.179487 182.576565 459.489744 182.136523 459.800000 181.698045 460.110256 181.261155 460.420513 180.825878 460.730769 180.392240 461.041026 179.960265 461.351282 179.529979 461.661538 179.101406 461.971795 178.674571 462.282051 178.249500 462.592308 177.826217 462.902564 177.404748 463.212821 176.985117 463.523077 176.567349 463.833333 176.151470 464.143590 175.737504 464.453846 175.325476 464.764103 174.915411 465.074359 174.507335 465.384615 174.101273 465.694872 173.697248 466.005128 173.295287 466.315385 172.895414 466.625641 172.497655 466.935897 172.102033 467.246154 171.708575 467.556410 171.317306 467.866667 170.928249 468.176923 170.541431 468.487179 170.156876 468.797436 169.774609 469.107692 169.394655 469.417949 169.017040 469.728205 168.641788 470.038462 168.268924 470.348718 167.898473 470.658974 167.530461 470.969231 167.164911 471.279487 166.801850 471.589744 166.441302 471.900000 166.083292 472.210256 165.727846 472.520513 165.374987 472.830769 165.024742 473.141026 164.677134 473.451282 164.332190 473.761538 163.989934 474.071795 163.650391 474.382051 163.313587 474.692308 162.979545 475.002564 162.648291 475.312821 162.319851 475.623077 161.994248 475.933333 161.671509 476.243590 161.351658 476.553846 161.034719 476.864103 160.720719 477.174359 160.409682 477.484615 160.101633 477.794872 159.796597 478.105128 159.494598 478.415385 159.195663 478.725641 158.899816 479.035897 158.607082 479.346154 158.317486 479.656410 158.031046 479.966667 157.747749 480.276923 157.467578 480.587179 157.190513 480.897436 156.916535 481.207692 156.645625 481.517949 156.377765 481.828205 156.112935 482.138462 155.851117 482.448718 155.592291 482.758974 155.336439 483.069231 155.083542 483.379487 154.833580 483.689744 154.586536 484.000000 154.342389 484.310256 154.101121 484.620513 153.862713 484.930769 153.627146 485.241026 153.394401 485.551282 153.164460 485.861538 152.937302 486.171795 152.712911 486.482051 152.491265 486.792308 152.272347 487.102564 152.056138 487.412821 151.842618 487.723077 151.631768 488.033333 151.423571 488.343590 151.218006 488.653846 151.015055 488.964103 150.814699 489.274359 150.616919 489.584615 150.421696 489.894872 150.229012 490.205128 150.038846 490.515385 149.851181 490.825641 149.665997 491.135897 149.483275 491.446154 149.302997 491.756410 149.125143 492.066667 148.949695 492.376923 148.776633 492.687179 148.605939 492.997436 148.437594 493.307692 148.271579 493.617949 148.107874 493.928205 147.946462 494.238462 147.787322 494.548718 147.630437 494.858974 147.475787 495.169231 147.323353 495.479487 147.173116 495.789744 147.025058 496.100000 146.879159 496.410256 146.735400 496.720513 146.593763 497.030769 146.454229 497.341026 146.316778 497.651282 146.181392 497.961538 146.048052 498.271795 145.916739 498.582051 145.787433 498.892308 145.660117 499.202564 145.534770 499.512821 145.411375 499.823077 145.289912 500.133333 145.170362 500.443590 145.052707 500.753846 144.936926 501.064103 144.823003 501.374359 144.710916 501.684615 144.600649 501.994872 144.492181 502.305128 144.385493 502.615385 144.280568 502.925641 144.177385 503.235897 144.075926 503.546154 143.976172 503.856410 143.878104 504.166667 143.781703 504.476923 143.686951 504.787179 143.593827 505.097436 143.502314 505.407692 143.412392 505.717949 143.324043 506.028205 143.237247 506.338462 143.151985 506.648718 143.068240 506.958974 142.985990 507.269231 142.905219 507.579487 142.825906 507.889744 142.748033 508.200000 142.671582 508.510256 142.596532 508.820513 142.522865 509.130769 142.450562 509.441026 142.379604 509.751282 142.309973 510.061538 142.241649 510.371795 142.174614 510.682051 142.108847 510.992308 142.044332 511.302564 141.981048 511.612821 141.918976 511.923077 141.858098 512.233333 141.798395 512.543590 141.739848 512.853846 141.682438 513.164103 141.626145 513.474359 141.570952 513.784615 141.516839 514.094872 141.463787 514.405128 141.411777 514.715385 141.360790 515.025641 141.310808 515.335897 141.261811 515.646154 141.213781 515.956410 141.166698 516.266667 141.120543 516.576923 141.075299 516.887179 141.030945 517.197436 140.987463 517.507692 140.944834 517.817949 140.903038 518.128205 140.862058 518.438462 140.821874 518.748718 140.782467 519.058974 140.743818 519.369231 140.705908 519.679487 140.668718 519.989744 140.632230 520.300000 140.596425 520.610256 140.561283 520.920513 140.526785 521.230769 140.492913 521.541026 140.459648 521.851282 140.426971 522.161538 140.394862 522.471795 140.363303 522.782051 140.332276 523.092308 140.301760 523.402564 140.271737 523.712821 140.242189 524.023077 140.213095 524.333333 140.184438 524.643590 140.156199 524.953846 140.128357 525.264103 140.100896 525.574359 140.073794 525.884615 140.047035 526.194872 140.020598 526.505128 139.994464 526.815385 139.968616 527.125641 139.943033 527.435897 139.917698 527.746154 139.892590 528.056410 139.867691 528.366667 139.842983 528.676923 139.818445 528.987179 139.794060 529.297436 139.769808 529.607692 139.745671 529.917949 139.721629 530.228205 139.697664 530.538462 139.673756 530.848718 139.649886 531.158974 139.626037 531.469231 139.602188 531.779487 139.578321 532.089744 139.554417 532.400000 139.530457 532.710256 139.506422 533.020513 139.482293 533.330769 139.458051 533.641026 139.433677 533.951282 139.409153 534.261538 139.384459 534.571795 139.359576 534.882051 139.334486 535.192308 139.309169 535.502564 139.283607 535.812821 139.257781 536.123077 139.231671 536.433333 139.205259 536.743590 139.178526 537.053846 139.151453 537.364103 139.124021 537.674359 139.096211 537.984615 139.068004 538.294872 139.039382 538.605128 139.010324 538.915385 138.980813 539.225641 138.950829 539.535897 138.920354 539.846154 138.889368 540.156410 138.857853 540.466667 138.825789 540.776923 138.793158 541.087179 138.759941 541.397436 138.726119 541.707692 138.691672 542.017949 138.656583 542.328205 138.620832 542.638462 138.584399 542.948718 138.547267 543.258974 138.509416 543.569231 138.470827 543.879487 138.431482 544.189744 138.391361 544.500000 138.350445 544.810256 138.308716 545.120513 138.266155 545.430769 138.222742 545.741026 138.178459 546.051282 138.133287 546.361538 138.087207 546.671795 138.040200 546.982051 137.992246 547.292308 137.943328 547.602564 137.893426 547.912821 137.842521 548.223077 137.790594 548.533333 137.737626 548.843590 137.683599 549.153846 137.628494 549.464103 137.572290 549.774359 137.514971 550.084615 137.456516 550.394872 137.396907 550.705128 137.336124 551.015385 137.274150 551.325641 137.210964 551.635897 137.146548 551.946154 137.080883 552.256410 137.013951 552.566667 136.945731 552.876923 136.876206 553.187179 136.805356 553.497436 136.733162 553.807692 136.659606 554.117949 136.584668 554.428205 136.508330 554.738462 136.430572 555.048718 136.351376 555.358974 136.270723 555.669231 136.188593 555.979487 136.104969 556.289744 136.019830 556.600000 135.933158 556.910256 135.844935 557.220513 135.755145 557.530769 135.663790 557.841026 135.570877 558.151282 135.476412 558.461538 135.380401 558.771795 135.282852 559.082051 135.183769 559.392308 135.083160 559.702564 134.981031 560.012821 134.877388 560.323077 134.772238 560.633333 134.665586 560.943590 134.557440 561.253846 134.447805 561.564103 134.336688 561.874359 134.224095 562.184615 134.110033 562.494872 133.994507 562.805128 133.877525 563.115385 133.759092 563.425641 133.639215 563.735897 133.517901 564.046154 133.395155 564.356410 133.270984 564.666667 133.145394 564.976923 133.018392 565.287179 132.889983 565.597436 132.760175 565.907692 132.628974 566.217949 132.496385 566.528205 132.362416 566.838462 132.227072 567.148718 132.090360 567.458974 131.952287 567.769231 131.812858 568.079487 131.672080 568.389744 131.529960 568.700000 131.386503 569.010256 131.241716 569.320513 131.095606 569.630769 130.948178 569.941026 130.799439 570.251282 130.649395 570.561538 130.498053 570.871795 130.345419 571.182051 130.191500 571.492308 130.036301 571.802564 129.879829 572.112821 129.722091 572.423077 129.563092 572.733333 129.402840 573.043590 129.241339 573.353846 129.078598 573.664103 128.914621 573.974359 128.749416 574.284615 128.582989 574.594872 128.415345 574.905128 128.246493 575.215385 128.076436 575.525641 127.905183 575.835897 127.732740 576.146154 127.559112 576.456410 127.384306 576.766667 127.208329 577.076923 127.031186 577.387179 126.852885 577.697436 126.673431 578.007692 126.492831 578.317949 126.311091 578.628205 126.128218 578.938462 125.944217 579.248718 125.759095 579.558974 125.572859 579.869231 125.385515 580.179487 125.197069 580.489744 125.007528 580.800000 124.816897 581.110256 124.625184 581.420513 124.432394 581.730769 124.238534 582.041026 124.043610 582.351282 123.847628 582.661538 123.650596 582.971795 123.452519 583.282051 123.253403 583.592308 123.053255 583.902564 122.852081 584.212821 122.649888 584.523077 122.446682 584.833333 122.242470 585.143590 122.037256 585.453846 121.831049 585.764103 121.623854 586.074359 121.415677 586.384615 121.206526 586.694872 120.996406 587.005128 120.785323 587.315385 120.573284 587.625641 120.360296 587.935897 120.146364 588.246154 119.931495 588.556410 119.715696 588.866667 119.498972 589.176923 119.281330 589.487179 119.062777 589.797436 118.843318 590.107692 118.622960 590.417949 118.401710 590.728205 118.179573 591.038462 117.956556 591.348718 117.732666 591.658974 117.507908 591.969231 117.282289 592.279487 117.055816 592.589744 116.828494 592.900000 116.600331 593.210256 116.371331 593.520513 116.141503 593.830769 115.910851 594.141026 115.679383 594.451282 115.447105 594.761538 115.214023 595.071795 114.980143 595.382051 114.745472 595.692308 114.510016 596.002564 114.273782 596.312821 114.036775 596.623077 113.799003 596.933333 113.560471 597.243590 113.321185 597.553846 113.081153 597.864103 112.840380 598.174359 112.598873 598.484615 112.356638 598.794872 112.113682 599.105128 111.870011 599.415385 111.625630 599.725641 111.380547 600.035897 111.134768 600.346154 110.888300 600.656410 110.641147 600.966667 110.393318 601.276923 110.144817 601.587179 109.895653 601.897436 109.645830 602.207692 109.395355 602.517949 109.144235 602.828205 108.892476 603.138462 108.640084 603.448718 108.387065 603.758974 108.133427 604.069231 107.879174 604.379487 107.624314 604.689744 107.368853 605.000000 107.112798 605.310256 106.856154 605.620513 106.598928 605.930769 106.341126 606.241026 106.082755 606.551282 105.823820 606.861538 105.564329 607.171795 105.304288 607.482051 105.043703 607.792308 104.782579 608.102564 104.520925 608.412821 104.258745 608.723077 103.996047 609.033333 103.732837 609.343590 103.469120 609.653846 103.204904 609.964103 102.940194 610.274359 102.674998 610.584615 102.409321 610.894872 102.143169 611.205128 101.876550 611.515385 101.609468 611.825641 101.341932 612.135897 101.073947 612.446154 100.805519 612.756410 100.536654 613.066667 100.267360 613.376923 99.997642 613.687179 99.727507 613.997436 99.456961 614.307692 99.186010 614.617949 98.914661 614.928205 98.642920 615.238462 98.370794 615.548718 98.098288 615.858974 97.825410 616.169231 97.552165 616.479487 97.278559 616.789744 97.004600 617.100000 96.730293 617.410256 96.455645 617.720513 96.180662 618.030769 95.905351 618.341026 95.629718 618.651282 95.353768 618.961538 95.077509 619.271795 94.800947 619.582051 94.524088 619.892308 94.246939 620.202564 93.969505 620.512821 93.691794 620.823077 93.413811 621.133333 93.135563 621.443590 92.857056 621.753846 92.578296 622.064103 92.299291 622.374359 92.020046 622.684615 91.740567 622.994872 91.460861 623.305128 91.180934 623.615385 90.900793 623.925641 90.620444 624.235897 90.339893 624.546154 90.059147 624.856410 89.778211 625.166667 89.497093 625.476923 89.215799 625.787179 88.934334 626.097436 88.652706 626.407692 88.370920 626.717949 88.088983 627.028205 87.806902 627.338462 87.524682 627.648718 87.242330 627.958974 86.959852 628.269231 86.677255 628.579487 86.394545 628.889744 86.111728 629.200000 85.828811 629.510256 85.545800 629.820513 85.262701 630.130769 84.979521 630.441026 84.696266 630.751282 84.412943 631.061538 84.129557 631.371795 83.846115 631.682051 83.562623 631.992308 83.279088 632.302564 82.995516 632.612821 82.711914 632.923077 82.428287 633.233333 82.144642 633.543590 81.860986 633.853846 81.577324 634.164103 81.293664 634.474359 81.010011 634.784615 80.726370 635.094872 80.442743 635.405128 80.159130 635.715385 79.875531 636.025641 79.591945 636.335897 79.308372 636.646154 79.024813 636.956410 78.741267 637.266667 78.457735 637.576923 78.174216 637.887179 77.890710 638.197436 77.607217 638.507692 77.323737 638.817949 77.040271 639.128205 76.756817 639.438462 76.473376 639.748718 76.189948 640.058974 75.906533 640.369231 75.623131 640.679487 75.339741 640.989744 75.056364 641.300000 74.773000 641.610256 74.489648 641.920513 74.206308 642.230769 73.922981 642.541026 73.639667 642.851282 73.356364 643.161538 73.073074 643.471795 72.789797 643.782051 72.506531 644.092308 72.223277 644.402564 71.940036 644.712821 71.656806 645.023077 71.373589 645.333333 71.090383 645.643590 70.807189 645.953846 70.524007 646.264103 70.240837 646.574359 69.957678 646.884615 69.674531 647.194872 69.391395 647.505128 69.108271 647.815385 68.825158 648.125641 68.542057 648.435897 68.258967 648.746154 67.975889 649.056410 67.692821 649.366667 67.409765 649.676923 67.126720 649.987179 66.843686 650.297436 66.560662 650.607692 66.277650 650.917949 65.994649 651.228205 65.711659 651.538462 65.428679 651.848718 65.145710 652.158974 64.862752 652.469231 64.579804 652.779487 64.296867 653.089744 64.013940 653.400000 63.731024 653.710256 63.448118 654.020513 63.165223 654.330769 62.882338 654.641026 62.599463 654.951282 62.316598 655.261538 62.033743 655.571795 61.750899 655.882051 61.468064 656.192308 61.185240 656.502564 60.902425 656.812821 60.619620 657.123077 60.336825 657.433333 60.054040 657.743590 59.771264 658.053846 59.488498 658.364103 59.205742 658.674359 58.922995 658.984615 58.640257 659.294872 58.357529 659.605128 58.074811 659.915385 57.792101 660.225641 57.509401 660.535897 57.226710 660.846154 56.944028 661.156410 56.661355 661.466667 56.378691 661.776923 56.096037 662.087179 55.813391 662.397436 55.530754 662.707692 55.248125 663.017949 54.965506 663.328205 54.682895 663.638462 54.400293 663.948718 54.117699 664.258974 53.835114 664.569231 53.552537 664.879487 53.269969 665.189744 52.987409 665.500000 52.704858 665.810256 52.422315 666.120513 52.139779 666.430769 51.857253 666.741026 51.574734 667.051282 51.292223 667.361538 51.009720 667.671795 50.727225 667.982051 50.444738 668.292308 50.162259 668.602564 49.879787 668.912821 49.597323 669.223077 49.314867 669.533333 49.032418 669.843590 48.749977 670.153846 48.467544 670.464103 48.185118 670.774359 47.902699 671.084615 47.620287 671.394872 47.337883 671.705128 47.055486 672.015385 46.773096 672.325641 46.490714 672.635897 46.208338 672.946154 45.925969 673.256410 45.643607 673.566667 45.361252 673.876923 45.078904 674.187179 44.796563 674.497436 44.514228 674.807692 44.231900 675.117949 43.949579 675.428205 43.667264 675.738462 43.384956 676.048718 43.102654 676.358974 42.820358 676.669231 42.538069 676.979487 42.255786 677.289744 41.973509 677.600000 41.691239 677.910256 41.408974 678.220513 41.126716 678.530769 40.844463 678.841026 40.562217 679.151282 40.279976 679.461538 39.997742 679.771795 39.715513 680.082051 39.433289 680.392308 39.151072 680.702564 38.868860 681.012821 38.586653 681.323077 38.304452 681.633333 38.022257 681.943590 37.740067 682.253846 37.457882 682.564103 37.175702 682.874359 36.893528 683.184615 36.611359 683.494872 36.329195 683.805128 36.047036 684.115385 35.764882 684.425641 35.482733 684.735897 35.200589 685.046154 34.918450 685.356410 34.636315 685.666667 34.354186 685.976923 34.072060 686.287179 33.789940 686.597436 33.507824 686.907692 33.225713 687.217949 32.943606 687.528205 32.661503 687.838462 32.379405 688.148718 32.097311 688.458974 31.815222 688.769231 31.533136 689.079487 31.251055 689.389744 30.968978 689.700000 30.686904 690.010256 30.404835 690.320513 30.122770 690.630769 29.840708 690.941026 29.558650 691.251282 29.276596 691.561538 28.994546 691.871795 28.712499 692.182051 28.430456 692.492308 28.148417 692.802564 27.866380 693.112821 27.584348 693.423077 27.302318 693.733333 27.020292 694.043590 26.738270 694.353846 26.456250 694.664103 26.174233 694.974359 25.892220 695.284615 25.610210 695.594872 25.328202 695.905128 25.046198 696.215385 24.764196 696.525641 24.482197 696.835897 24.200201 697.146154 23.918208 697.456410 23.636217 697.766667 23.354229 698.076923 23.072243 698.387179 22.790260 698.697436 22.508279 699.007692 22.226301 699.317949 21.944325 699.628205 21.662351 699.938462 21.380379 700.248718 21.098410 700.558974 20.816442 700.869231 20.534477 701.179487 20.252514 701.489744 19.970552 701.800000 19.688593 702.110256 19.406635 702.420513 19.124679 702.730769 18.842724 703.041026 18.560772 703.351282 18.278821 703.661538 17.996871 703.971795 17.714923 704.282051 17.432977 704.592308 17.151031 704.902564 16.869087 705.212821 16.587145 705.523077 16.305203 705.833333 16.023263 706.143590 15.741324 706.453846 15.459386 706.764103 15.177449 707.074359 14.895512 707.384615 14.613577 707.694872 14.331643 708.005128 14.049709 708.315385 13.767776 708.625641 13.485844 708.935897 13.203912 709.246154 12.921981 709.556410 12.640050 709.866667 12.358120 710.176923 12.076190 710.487179 11.794260 710.797436 11.512331 711.107692 11.230402 711.417949 10.948473 711.728205 10.666544 712.038462 10.384615 712.038462 540.000000" /></g></g><g class="titles" /><g class="plot overlay" transform="translate(54, 20)"><g class="series serie-0 color-0"><g class="dots"><circle class="dot reactive tooltip-trigger" cx="13.96153846153846" cy="529.6153846153845" r="2.5" /><desc class="value">443,637,575(kWh)</desc><desc class="x top">13.96153846153846</desc><desc class="y top">529.6153846153845</desc><desc class="x_label">2549</desc></g><g class="dots"><circle class="dot reactive tooltip-trigger" cx="91.52564102564101" cy="478.7826325090884" r="2.5" /><desc class="value">478,792,474(kWh)</desc><desc class="x top">91.52564102564101</desc><desc class="y top">478.7826325090884</desc><desc class="x_label">2550</desc></g><g class="dots"><circle class="dot reactive tooltip-trigger" cx="169.08974358974356" cy="464.23740347866584" r="2.5" /><desc class="value">488,851,659(kWh)</desc><desc class="x top">169.08974358974356</desc><desc class="y top">464.23740347866584</desc><desc class="x_label">2551</desc></g><g class="dots"><circle class="dot reactive tooltip-trigger" cx="246.65384615384613" cy="388.55250024516334" r="2.5" /><desc class="value">541,193,801(kWh)</desc><desc class="x top">246.65384615384613</desc><desc class="y top">388.55250024516334</desc><desc class="x_label">2552</desc></g><g class="dots"><circle class="dot reactive tooltip-trigger" cx="324.21794871794873" cy="297.8428946764811" r="2.5" /><desc class="value">603,926,722(kWh)</desc><desc class="x top">324.21794871794873</desc><desc class="y top">297.8428946764811</desc><desc class="x_label">2553</desc></g><g class="dots"><circle class="dot reactive tooltip-trigger" cx="401.78205128205127" cy="264.07986880959146" r="2.5" /><desc class="value">627,276,545(kWh)</desc><desc class="x left">401.78205128205127</desc><desc class="y left">264.07986880959146</desc><desc class="x_label">2554</desc></g><g class="dots"><circle class="dot reactive tooltip-trigger" cx="479.3461538461538" cy="158.3174860500772" r="2.5" /><desc class="value">700,419,661(kWh)</desc><desc class="x left">479.3461538461538</desc><desc class="y left">158.3174860500772</desc><desc class="x_label">2555</desc></g><g class="dots"><circle class="dot reactive tooltip-trigger" cx="556.9102564102565" cy="135.8449348752003" r="2.5" /><desc class="value">715,961,221(kWh)</desc><desc class="x left">556.9102564102565</desc><desc class="y left">135.8449348752003</desc><desc class="x_label">2556</desc></g><g class="dots"><circle class="dot reactive tooltip-trigger" cx="634.474358974359" cy="81.01001058892996" r="2.5" /><desc class="value">753,883,941(kWh)</desc><desc class="x left">634.474358974359</desc><desc class="y left">81.01001058892996</desc><desc class="x_label">2557</desc></g><g class="dots"><circle class="dot reactive tooltip-trigger" cx="712.0384615384615" cy="10.384615384615472" r="2.5" /><desc class="value">802,727,030(kWh)</desc><desc class="x left">712.0384615384615</desc><desc class="y left">10.384615384615472</desc><desc class="x_label">2558</desc></g></g></g><g class="plot text-overlay" transform="translate(54, 20)"><g class="series serie-0 color-0" /></g><g class="plot tooltip-overlay" transform="translate(54, 20)"><g class="tooltip" style="opacity: 0" transform="translate(0 0)"><rect class="tooltip-box" height="0" rx="0" ry="0" width="0" /><g class="text" /></g></g></g></svg>