<?xml version='1.0' encoding='utf-8'?>
<svg xmlns:xlink="http://www.w3.org/1999/xlink" class="pygal-chart" id="chart-846d8b94-3aa5-484a-973c-dee89a993ab5" viewBox="0 0 800 600" xmlns="http://www.w3.org/2000/svg"><!--Generated with pygal 2.3.0 (etree) ©Kozea 2012-2016 on 2016-12-08--><!--http://pygal.org--><!--http://github.com/Kozea/pygal--><defs><style type="text/css">#chart-846d8b94-3aa5-484a-973c-dee89a993ab5{-webkit-user-select:none;-webkit-font-smoothing:antialiased;font-family:Consolas,"Liberation Mono",Menlo,Courier,monospace}#chart-846d8b94-3aa5-484a-973c-dee89a993ab5 .title{font-family:Consolas,"Liberation Mono",Menlo,Courier,monospace;font-size:16px}#chart-846d8b94-3aa5-484a-973c-dee89a993ab5 .legends .legend text{font-family:Consolas,"Liberation Mono",Menlo,Courier,monospace;font-size:14px}#chart-846d8b94-3aa5-484a-973c-dee89a993ab5 .axis text{font-family:Consolas,"Liberation Mono",Menlo,Courier,monospace;font-size:10px}#chart-846d8b94-3aa5-484a-973c-dee89a993ab5 .axis text.major{font-family:Consolas,"Liberation Mono",Menlo,Courier,monospace;font-size:10px}#chart-846d8b94-3aa5-484a-973c-dee89a993ab5 .text-overlay text.value{font-family:Consolas,"Liberation Mono",Menlo,Courier,monospace;font-size:16px}#chart-846d8b94-3aa5-484a-973c-dee89a993ab5 .text-overlay text.label{font-family:Consolas,"Liberation Mono",Menlo,Courier,monospace;font-size:10px}#chart-846d8b94-3aa5-484a-973c-dee89a993ab5 .tooltip{font-family:Consolas,"Liberation Mono",Menlo,Courier,monospace;font-size:14px}#chart-846d8b94-3aa5-484a-973c-dee89a993ab5 text.no_data{font-family:Consolas,"Liberation Mono",Menlo,Courier,monospace;font-size:64px}
#chart-846d8b94-3aa5-484a-973c-dee89a993ab5{background-color:rgba(249,249,249,1)}#chart-846d8b94-3aa5-484a-973c-dee89a993ab5 path,#chart-846d8b94-3aa5-484a-973c-dee89a993ab5 line,#chart-846d8b94-3aa5-484a-973c-dee89a993ab5 rect,#chart-846d8b94-3aa5-484a-973c-dee89a993ab5 circle{-webkit-transition:150ms;-moz-transition:150ms;transition:150ms}#chart-846d8b94-3aa5-484a-973c-dee89a993ab5 .graph &gt; .background{fill:rgba(249,249,249,1)}#chart-846d8b94-3aa5-484a-973c-dee89a993ab5 .plot &gt; .background{fill:rgba(255,255,255,1)}#chart-846d8b94-3aa5-484a-973c-dee89a993ab5 .graph{fill:rgba(0,0,0,.87)}#chart-846d8b94-3aa5-484a-973c-dee89a993ab5 text.no_data{fill:rgba(0,0,0,1)}#chart-846d8b94-3aa5-484a-973c-dee89a993ab5 .title{fill:rgba(0,0,0,1)}#chart-846d8b94-3aa5-484a-973c-dee89a993ab5 .legends .legend text{fill:rgba(0,0,0,.87)}#chart-846d8b94-3aa5-484a-973c-dee89a993ab5 .legends .legend:hover text{fill:rgba(0,0,0,1)}#chart-846d8b94-3aa5-484a-973c-dee89a993ab5 .axis .line{stroke:rgba(0,0,0,1)}#chart-846d8b94-3aa5-484a-973c-dee89a993ab5 .axis .guide.line{stroke:rgba(0,0,0,.54)}#chart-846d8b94-3aa5-484a-973c-dee89a993ab5 .axis .major.line{stroke:rgba(0,0,0,.87)}#chart-846d8b94-3aa5-484a-973c-dee89a993ab5 .axis text.major{fill:rgba(0,0,0,1)}#chart-846d8b94-3aa5-484a-973c-dee89a993ab5 .axis.y .guides:hover .guide.line,#chart-846d8b94-3aa5-484a-973c-dee89a993ab5 .line-graph .axis.x .guides:hover .guide.line,#chart-846d8b94-3aa5-484a-973c-dee89a993ab5 .stackedline-graph .axis.x .guides:hover .guide.line,#chart-846d8b94-3aa5-484a-973c-dee89a993ab5 .xy-graph .axis.x .guides:hover .guide.line{stroke:rgba(0,0,0,1)}#chart-846d8b94-3aa5-484a-973c-dee89a993ab5 .axis .guides:hover text{fill:rgba(0,0,0,1)}#chart-846d8b94-3aa5-484a-973c-dee89a993ab5 .reactive{fill-opacity:.7;stroke-opacity:.8}#chart-846d8b94-3aa5-484a-973c-dee89a993ab5 .ci{stroke:rgba(0,0,0,.87)}#chart-846d8b94-3aa5-484a-973c-dee89a993ab5 .reactive.active,#chart-846d8b94-3aa5-484a-973c-dee89a993ab5 .active .reactive{fill-opacity:.8;stroke-opacity:.9;stroke-width:4}#chart-846d8b94-3aa5-484a-973c-dee89a993ab5 .ci .reactive.active{stroke-width:1.5}#chart-846d8b94-3aa5-484a-973c-dee89a993ab5 .series text{fill:rgba(0,0,0,1)}#chart-846d8b94-3aa5-484a-973c-dee89a993ab5 .tooltip rect{fill:rgba(255,255,255,1);stroke:rgba(0,0,0,1);-webkit-transition:opacity 150ms;-moz-transition:opacity 150ms;transition:opacity 150ms}#chart-846d8b94-3aa5-484a-973c-dee89a993ab5 .tooltip .label{fill:rgba(0,0,0,.87)}#chart-846d8b94-3aa5-484a-973c-dee89a993ab5 .tooltip .label{fill:rgba(0,0,0,.87)}#chart-846d8b94-3aa5-484a-973c-dee89a993ab5 .tooltip .legend{font-size:.8em;fill:rgba(0,0,0,.54)}#chart-846d8b94-3aa5-484a-973c-dee89a993ab5 .tooltip .x_label{font-size:.6em;fill:rgba(0,0,0,1)}#chart-846d8b94-3aa5-484a-973c-dee89a993ab5 .tooltip .xlink{font-size:.5em;text-decoration:underline}#chart-846d8b94-3aa5-484a-973c-dee89a993ab5 .tooltip .value{font-size:1.5em}#chart-846d8b94-3aa5-484a-973c-dee89a993ab5 .bound{font-size:.5em}#chart-846d8b94-3aa5-484a-973c-dee89a993ab5 .max-value{font-size:.75em;fill:rgba(0,0,0,.54)}#chart-846d8b94-3aa5-484a-973c-dee89a993ab5 .map-element{fill:rgba(255,255,255,1);stroke:rgba(0,0,0,.54) !important}#chart-846d8b94-3aa5-484a-973c-dee89a993ab5 .map-element .reactive{fill-opacity:inherit;stroke-opacity:inherit}#chart-846d8b94-3aa5-484a-973c-dee89a993ab5 .color-0,#chart-846d8b94-3aa5-484a-973c-dee89a993ab5 .color-0 a:visited{stroke:#e86fa0;fill:#e86fa0}#chart-846d8b94-3aa5-484a-973c-dee89a993ab5 .text-overlay .color-0 text{fill:black}
#chart-846d8b94-3aa5-484a-973c-dee89a993ab5 text.no_data{text-anchor:middle}#chart-846d8b94-3aa5-484a-973c-dee89a993ab5 .guide.line{fill:none}#chart-846d8b94-3aa5-484a-973c-dee89a993ab5 .centered{text-anchor:middle}#chart-846d8b94-3aa5-484a-973c-dee89a993ab5 .title{text-anchor:middle}#chart-846d8b94-3aa5-484a-973c-dee89a993ab5 .legends .legend text{fill-opacity:1}#chart-846d8b94-3aa5-484a-973c-dee89a993ab5 .axis.x text{text-anchor:middle}#chart-846d8b94-3aa5-484a-973c-dee89a993ab5 .axis.x:not(.web) text[transform]{text-anchor:start}#chart-846d8b94-3aa5-484a-973c-dee89a993ab5 .axis.x:not(.web) text[transform].backwards{text-anchor:end}#chart-846d8b94-3aa5-484a-973c-dee89a993ab5 .axis.y text{text-anchor:end}#chart-846d8b94-3aa5-484a-973c-dee89a993ab5 .axis.y text[transform].backwards{text-anchor:start}#chart-846d8b94-3aa5-484a-973c-dee89a993ab5 .axis.y2 text{text-anchor:start}#chart-846d8b94-3aa5-484a-973c-dee89a993ab5 .axis.y2 text[transform].backwards{text-anchor:end}#chart-846d8b94-3aa5-484a-973c-dee89a993ab5 .axis .guide.line{stroke-dasharray:4,4}#chart-846d8b94-3aa5-484a-973c-dee89a993ab5 .axis .major.guide.line{stroke-dasharray:6,6}#chart-846d8b94-3aa5-484a-973c-dee89a993ab5 .horizontal .axis.y .guide.line,#chart-846d8b94-3aa5-484a-973c-dee89a993ab5 .horizontal .axis.y2 .guide.line,#chart-846d8b94-3aa5-484a-973c-dee89a993ab5 .vertical .axis.x .guide.line{opacity:0}#chart-846d8b94-3aa5-484a-973c-dee89a993ab5 .horizontal .axis.always_show .guide.line,#chart-846d8b94-3aa5-484a-973c-dee89a993ab5 .vertical .axis.always_show .guide.line{opacity:1 !important}#chart-846d8b94-3aa5-484a-973c-dee89a993ab5 .axis.y .guides:hover .guide.line,#chart-846d8b94-3aa5-484a-973c-dee89a993ab5 .axis.y2 .guides:hover .guide.line,#chart-846d8b94-3aa5-484a-973c-dee89a993ab5 .axis.x .guides:hover .guide.line{opacity:1}#chart-846d8b94-3aa5-484a-973c-dee89a993ab5 .axis .guides:hover text{opacity:1}#chart-846d8b94-3aa5-484a-973c-dee89a993ab5 .nofill{fill:none}#chart-846d8b94-3aa5-484a-973c-dee89a993ab5 .subtle-fill{fill-opacity:.2}#chart-846d8b94-3aa5-484a-973c-dee89a993ab5 .dot{stroke-width:1px;fill-opacity:1}#chart-846d8b94-3aa5-484a-973c-dee89a993ab5 .dot.active{stroke-width:5px}#chart-846d8b94-3aa5-484a-973c-dee89a993ab5 .dot.negative{fill:transparent}#chart-846d8b94-3aa5-484a-973c-dee89a993ab5 text,#chart-846d8b94-3aa5-484a-973c-dee89a993ab5 tspan{stroke:none !important}#chart-846d8b94-3aa5-484a-973c-dee89a993ab5 .series text.active{opacity:1}#chart-846d8b94-3aa5-484a-973c-dee89a993ab5 .tooltip rect{fill-opacity:.95;stroke-width:.5}#chart-846d8b94-3aa5-484a-973c-dee89a993ab5 .tooltip text{fill-opacity:1}#chart-846d8b94-3aa5-484a-973c-dee89a993ab5 .showable{visibility:hidden}#chart-846d8b94-3aa5-484a-973c-dee89a993ab5 .showable.shown{visibility:visible}#chart-846d8b94-3aa5-484a-973c-dee89a993ab5 .gauge-background{fill:rgba(229,229,229,1);stroke:none}#chart-846d8b94-3aa5-484a-973c-dee89a993ab5 .bg-lines{stroke:rgba(249,249,249,1);stroke-width:2px}</style><script type="text/javascript">window.pygal = window.pygal || {};window.pygal.config = window.pygal.config || {};window.pygal.config['846d8b94-3aa5-484a-973c-dee89a993ab5'] = {"no_data_text": "No data", "no_prefix": false, "xrange": null, "print_values_position": "center", "truncate_label": null, "x_labels": ["2549", "2550", "2551", "2552", "2553", "2554", "2555", "2556", "2557", "2558"], "title": null, "force_uri_protocol": "https", "defs": [], "formatter": null, "classes": ["pygal-chart"], "y_labels": null, "rounded_bars": null, "explicit_size": false, "x_labels_major_every": null, "legend_at_bottom_columns": null, "stroke_style": null, "half_pie": false, "spacing": 10, "tooltip_fancy_mode": true, "inverse_y_axis": false, "width": 800, "inner_radius": 0, "interpolation_parameters": {}, "tooltip_border_radius": 0, "style": {"no_data_font_family": "Consolas, \"Liberation Mono\", Menlo, Courier, monospace", "tooltip_font_size": 14, "tooltip_font_family": "Consolas, \"Liberation Mono\", Menlo, Courier, monospace", "stroke_opacity_hover": ".9", "legend_font_family": "Consolas, \"Liberation Mono\", Menlo, Courier, monospace", "font_family": "Consolas, \"Liberation Mono\", Menlo, Courier, monospace", "title_font_family": "Consolas, \"Liberation Mono\", Menlo, Courier, monospace", "background": "rgba(249, 249, 249, 1)", "stroke_opacity": ".8", "foreground": "rgba(0, 0, 0, .87)", "value_background": "rgba(229, 229, 229, 1)", "guide_stroke_dasharray": "4,4", "foreground_subtle": "rgba(0, 0, 0, .54)", "opacity_hover": ".8", "value_font_family": "Consolas, \"Liberation Mono\", Menlo, Courier, monospace", "value_label_font_size": 10, "plot_background": "rgba(255, 255, 255, 1)", "ci_colors": [], "label_font_size": 10, "major_label_font_size": 10, "title_font_size": 16, "no_data_font_size": 64, "value_font_size": 16, "value_colors": [], "label_font_family": "Consolas, \"Liberation Mono\", Menlo, Courier, monospace", "major_guide_stroke_dasharray": "6,6", "transition": "150ms", "foreground_strong": "rgba(0, 0, 0, 1)", "colors": ["#e86fa0", "#e88f6f", "#e8df6f", "#a0e86f", "#6fe88f", "#6fe8df", "#6fa0e8", "#8f6fe8", "#df6fe8", "#e86fa0"], "opacity": ".7", "legend_font_size": 14, "value_label_font_family": "Consolas, \"Liberation Mono\", Menlo, Courier, monospace", "major_label_font_family": "Consolas, \"Liberation Mono\", Menlo, Courier, monospace"}, "x_labels_major_count": null, "interpolation_precision": 250, "missing_value_fill_truncation": "x", "stack_from_top": false, "truncate_legend": null, "show_minor_x_labels": true, "print_zeroes": true, "css": ["file://style.css", "file://graph.css"], "y_label_rotation": 0, "legend_at_bottom": false, "print_values": false, "margin_top": null, "max_scale": 16, "allow_interruptions": false, "show_x_labels": true, "strict": false, "show_x_guides": false, "stroke": true, "margin_left": null, "dynamic_print_values": false, "print_labels": false, "show_y_labels": true, "x_labels_major": null, "range": null, "x_label_rotation": 0, "margin": 20, "zero": 0, "include_x_axis": false, "height": 600, "show_minor_y_labels": true, "show_dots": true, "interpolate": "cubic", "show_y_guides": true, "y_labels_major": null, "box_mode": "extremes", "margin_bottom": null, "order_min": null, "legend_box_size": 12, "fill": true, "show_only_major_dots": false, "js": ["//kozea.github.io/pygal.js/2.0.x/pygal-tooltips.min.js"], "x_title": null, "y_labels_major_every": null, "y_labels_major_count": null, "disable_xml_declaration": false, "y_title": null, "logarithmic": false, "pretty_print": false, "min_scale": 4, "dots_size": 2.5, "margin_right": null, "legends": [null], "secondary_range": null, "show_legend": false}</script><script type="text/javascript" xlink:href="https://kozea.github.io/pygal.js/2.0.x/pygal-tooltips.min.js" /></defs><title>Pygal</title><g class="graph stackedline-graph vertical"><rect class="background" height="600" width="800" x="0" y="0" /><g class="plot" transform="translate(60, 20)"><rect class="background" height="540" width="720.0" x="0" y="0" /><g class="axis y"><path class="line" d="M0.000000 540.000000 h720.000000" /><g class="guides"><path class="guide line" d="M0.000000 502.681058 h720.000000" /><text class="" x="-5" y="506.18105791495833">2400M</text><title>2400M</title></g><g class="guides"><path class="major guide line" d="M0.000000 441.419002 h720.000000" /><text class="major" x="-5" y="444.91900185522456">2500M</text><title>2500M</title></g><g class="guides"><path class="guide line" d="M0.000000 380.156946 h720.000000" /><text class="" x="-5" y="383.65694579549086">2600M</text><title>2600M</title></g><g class="guides"><path class="guide line" d="M0.000000 318.894890 h720.000000" /><text class="" x="-5" y="322.3948897357571">2700M</text><title>2700M</title></g><g class="guides"><path class="guide line" d="M0.000000 257.632834 h720.000000" /><text class="" x="-5" y="261.1328336760233">2800M</text><title>2800M</title></g><g class="guides"><path class="guide line" d="M0.000000 196.370778 h720.000000" /><text class="" x="-5" y="199.87077761628962">2900M</text><title>2900M</title></g><g class="guides"><path class="major guide line" d="M0.000000 135.108722 h720.000000" /><text class="major" x="-5" y="138.60872155655585">3000M</text><title>3000M</title></g><g class="guides"><path class="guide line" d="M0.000000 73.846665 h720.000000" /><text class="" x="-5" y="77.34666549682208">3100M</text><title>3100M</title></g><g class="guides"><path class="guide line" d="M0.000000 12.584609 h720.000000" /><text class="" x="-5" y="16.084609437088375">3200M</text><title>3200M</title></g></g><g class="axis x"><g class="guides"><path class="line" d="M13.846154 0.000000 v540.000000" /><text class="" x="13.846153846153847" y="555.0">2549</text></g><g class="guides"><path class="guide line" d="M90.769231 0.000000 v540.000000" /><text class="" x="90.76923076923076" y="555.0">2550</text></g><g class="guides"><path class="guide line" d="M167.692308 0.000000 v540.000000" /><text class="" x="167.69230769230765" y="555.0">2551</text></g><g class="guides"><path class="guide line" d="M244.615385 0.000000 v540.000000" /><text class="" x="244.6153846153846" y="555.0">2552</text></g><g class="guides"><path class="guide line" d="M321.538462 0.000000 v540.000000" /><text class="" x="321.5384615384615" y="555.0">2553</text></g><g class="guides"><path class="guide line" d="M398.461538 0.000000 v540.000000" /><text class="" x="398.46153846153845" y="555.0">2554</text></g><g class="guides"><path class="guide line" d="M475.384615 0.000000 v540.000000" /><text class="" x="475.38461538461536" y="555.0">2555</text></g><g class="guides"><path class="guide line" d="M552.307692 0.000000 v540.000000" /><text class="" x="552.3076923076923" y="555.0">2556</text></g><g class="guides"><path class="guide line" d="M629.230769 0.000000 v540.000000" /><text class="" x="629.2307692307692" y="555.0">2557</text></g><g class="guides"><path class="guide line" d="M706.153846 0.000000 v540.000000" /><text class="" x="706.1538461538461" y="555.0">2558</text></g></g><g class="series serie-0 color-0"><path class="line reactive" d="M13.846154 540.000000 L13.846154 529.615385 14.153846 529.110853 14.461538 528.606333 14.769231 528.101837 15.076923 527.597377 15.384615 527.092966 15.692308 526.588614 16.000000 526.084335 16.307692 525.580139 16.615385 525.076040 16.923077 524.572048 17.230769 524.068177 17.538462 523.564438 17.846154 523.060843 18.153846 522.557405 18.461538 522.054134 18.769231 521.551044 19.076923 521.048146 19.384615 520.545452 19.692308 520.042974 20.000000 519.540724 20.307692 519.038715 20.615385 518.536958 20.923077 518.035465 21.230769 517.534249 21.538462 517.033321 21.846154 516.532693 22.153846 516.032377 22.461538 515.532386 22.769231 515.032731 23.076923 514.533424 23.384615 514.034478 23.692308 513.535904 24.000000 513.037715 24.307692 512.539922 24.615385 512.042537 24.923077 511.545573 25.230769 511.049041 25.538462 510.552953 25.846154 510.057323 26.153846 509.562160 26.461538 509.067478 26.769231 508.573289 27.076923 508.079604 27.384615 507.586435 27.692308 507.093795 28.000000 506.601696 28.307692 506.110149 28.615385 505.619167 28.923077 505.128761 29.230769 504.638944 29.538462 504.149728 29.846154 503.661124 30.153846 503.173144 30.461538 502.685802 30.769231 502.199108 31.076923 501.713074 31.384615 501.227714 31.692308 500.743038 32.000000 500.259059 32.307692 499.775788 32.615385 499.293238 32.923077 498.811421 33.230769 498.330349 33.538462 497.850033 33.846154 497.370486 34.153846 496.891720 34.461538 496.413747 34.769231 495.936578 35.076923 495.460227 35.384615 494.984704 35.692308 494.510022 36.000000 494.036193 36.307692 493.563229 36.615385 493.091141 36.923077 492.619943 37.230769 492.149645 37.538462 491.680260 37.846154 491.211801 38.153846 490.744278 38.461538 490.277704 38.769231 489.812091 39.076923 489.347451 39.384615 488.883796 39.692308 488.421138 40.000000 487.959489 40.307692 487.498861 40.615385 487.039266 40.923077 486.580717 41.230769 486.123224 41.538462 485.666800 41.846154 485.211457 42.153846 484.757208 42.461538 484.304063 42.769231 483.852036 43.076923 483.401138 43.384615 482.951381 43.692308 482.502777 44.000000 482.055338 44.307692 481.609077 44.615385 481.164004 44.923077 480.720133 45.230769 480.277475 45.538462 479.836042 45.846154 479.395847 46.153846 478.956900 46.461538 478.519215 46.769231 478.082804 47.076923 477.647677 47.384615 477.213848 47.692308 476.781328 48.000000 476.350130 48.307692 475.920265 48.615385 475.491745 48.923077 475.064582 49.230769 474.638789 49.538462 474.214377 49.846154 473.791359 50.153846 473.369746 50.461538 472.949551 50.769231 472.530784 51.076923 472.113460 51.384615 471.697589 51.692308 471.283183 52.000000 470.870255 52.307692 470.458816 52.615385 470.048879 52.923077 469.640455 53.230769 469.233557 53.538462 468.828196 53.846154 468.424385 54.153846 468.022135 54.461538 467.621459 54.769231 467.222369 55.076923 466.824876 55.384615 466.428993 55.692308 466.034731 56.000000 465.642103 56.307692 465.251121 56.615385 464.861796 56.923077 464.474141 57.230769 464.088168 57.538462 463.703888 57.846154 463.321314 58.153846 462.940458 58.461538 462.561332 58.769231 462.183947 59.076923 461.808316 59.384615 461.434451 59.692308 461.062363 60.000000 460.692066 60.307692 460.323570 60.615385 459.956888 60.923077 459.592031 61.230769 459.229013 61.538462 458.867845 61.846154 458.508538 62.153846 458.151105 62.461538 457.795558 62.769231 457.441909 63.076923 457.090170 63.384615 456.740353 63.692308 456.392470 64.000000 456.046532 64.307692 455.702553 64.615385 455.360544 64.923077 455.020516 65.230769 454.682483 65.538462 454.346455 65.846154 454.012446 66.153846 453.680467 66.461538 453.350529 66.769231 453.022646 67.076923 452.696829 67.384615 452.373090 67.692308 452.051441 68.000000 451.731894 68.307692 451.414461 68.615385 451.099154 68.923077 450.785986 69.230769 450.474967 69.538462 450.166111 69.846154 449.859429 70.153846 449.554933 70.461538 449.252635 70.769231 448.952548 71.076923 448.654683 71.384615 448.359052 71.692308 448.065667 72.000000 447.774540 72.307692 447.485684 72.615385 447.199110 72.923077 446.914830 73.230769 446.632857 73.538462 446.353202 73.846154 446.075877 74.153846 445.800895 74.461538 445.528267 74.769231 445.258005 75.076923 444.990122 75.384615 444.724629 75.692308 444.461538 76.000000 444.200862 76.307692 443.942613 76.615385 443.686801 76.923077 443.433441 77.230769 443.182542 77.538462 442.934118 77.846154 442.688181 78.153846 442.444742 78.461538 442.203814 78.769231 441.965408 79.076923 441.729537 79.384615 441.496212 79.692308 441.265446 80.000000 441.037250 80.307692 440.811637 80.615385 440.588619 80.923077 440.368207 81.230769 440.150414 81.538462 439.935251 81.846154 439.722731 82.153846 439.512866 82.461538 439.305667 82.769231 439.101147 83.076923 438.899318 83.384615 438.700191 83.692308 438.503779 84.000000 438.310094 84.307692 438.119148 84.615385 437.930952 84.923077 437.745519 85.230769 437.562861 85.538462 437.382990 85.846154 437.205917 86.153846 437.031656 86.461538 436.860217 86.769231 436.691613 87.076923 436.525855 87.384615 436.362957 87.692308 436.202930 88.000000 436.045785 88.307692 435.891535 88.615385 435.740192 88.923077 435.591768 89.230769 435.446275 89.538462 435.303725 89.846154 435.164130 90.153846 435.027502 90.461538 434.893853 90.769231 434.763195 91.076923 434.635535 91.384615 434.510857 91.692308 434.389143 92.000000 434.270373 92.307692 434.154526 92.615385 434.041582 92.923077 433.931523 93.230769 433.824327 93.538462 433.719976 93.846154 433.618449 94.153846 433.519726 94.461538 433.423788 94.769231 433.330614 95.076923 433.240186 95.384615 433.152482 95.692308 433.067484 96.000000 432.985170 96.307692 432.905522 96.615385 432.828520 96.923077 432.754143 97.230769 432.682373 97.538462 432.613188 97.846154 432.546569 98.153846 432.482496 98.461538 432.420950 98.769231 432.361910 99.076923 432.305357 99.384615 432.251271 99.692308 432.199632 100.000000 432.150420 100.307692 432.103615 100.615385 432.059197 100.923077 432.017147 101.230769 431.977445 101.538462 431.940070 101.846154 431.905004 102.153846 431.872225 102.461538 431.841715 102.769231 431.813453 103.076923 431.787419 103.384615 431.763594 103.692308 431.741958 104.000000 431.722491 104.307692 431.705173 104.615385 431.689984 104.923077 431.676904 105.230769 431.665914 105.538462 431.656993 105.846154 431.650123 106.153846 431.645282 106.461538 431.642451 106.769231 431.641610 107.076923 431.642740 107.384615 431.645820 107.692308 431.650831 108.000000 431.657753 108.307692 431.666565 108.615385 431.677248 108.923077 431.689783 109.230769 431.704149 109.538462 431.720326 109.846154 431.738295 110.153846 431.758036 110.461538 431.779528 110.769231 431.802753 111.076923 431.827690 111.384615 431.854319 111.692308 431.882620 112.000000 431.912574 112.307692 431.944161 112.615385 431.977361 112.923077 432.012153 113.230769 432.048519 113.538462 432.086438 113.846154 432.125891 114.153846 432.166857 114.461538 432.209317 114.769231 432.253250 115.076923 432.298638 115.384615 432.345459 115.692308 432.393695 116.000000 432.443326 116.307692 432.494331 116.615385 432.546690 116.923077 432.600385 117.230769 432.655394 117.538462 432.711699 117.846154 432.769279 118.153846 432.828114 118.461538 432.888185 118.769231 432.949471 119.076923 433.011953 119.384615 433.075612 119.692308 433.140426 120.000000 433.206376 120.307692 433.273443 120.615385 433.341607 120.923077 433.410847 121.230769 433.481144 121.538462 433.552478 121.846154 433.624829 122.153846 433.698177 122.461538 433.772502 122.769231 433.847785 123.076923 433.924006 123.384615 434.001145 123.692308 434.079181 124.000000 434.158096 124.307692 434.237868 124.615385 434.318479 124.923077 434.399909 125.230769 434.482137 125.538462 434.565144 125.846154 434.648910 126.153846 434.733415 126.461538 434.818639 126.769231 434.904562 127.076923 434.991165 127.384615 435.078428 127.692308 435.166330 128.000000 435.254852 128.307692 435.343975 128.615385 435.433677 128.923077 435.523940 129.230769 435.614743 129.538462 435.706067 129.846154 435.797892 130.153846 435.890197 130.461538 435.982964 130.769231 436.076172 131.076923 436.169801 131.384615 436.263831 131.692308 436.358243 132.000000 436.453017 132.307692 436.548133 132.615385 436.643570 132.923077 436.739310 133.230769 436.835332 133.538462 436.931617 133.846154 437.028144 134.153846 437.124894 134.461538 437.221847 134.769231 437.318982 135.076923 437.416281 135.384615 437.513723 135.692308 437.611289 136.000000 437.708958 136.307692 437.806711 136.615385 437.904528 136.923077 438.002388 137.230769 438.100273 137.538462 438.198162 137.846154 438.296036 138.153846 438.393874 138.461538 438.491657 138.769231 438.589364 139.076923 438.686977 139.384615 438.784474 139.692308 438.881837 140.000000 438.979046 140.307692 439.076079 140.615385 439.172919 140.923077 439.269544 141.230769 439.365936 141.538462 439.462073 141.846154 439.557937 142.153846 439.653507 142.461538 439.748763 142.769231 439.843686 143.076923 439.938256 143.384615 440.032453 143.692308 440.126257 144.000000 440.219649 144.307692 440.312607 144.615385 440.405113 144.923077 440.497147 145.230769 440.588689 145.538462 440.679718 145.846154 440.770216 146.153846 440.860162 146.461538 440.949536 146.769231 441.038319 147.076923 441.126490 147.384615 441.214030 147.692308 441.300919 148.000000 441.387137 148.307692 441.472664 148.615385 441.557481 148.923077 441.641567 149.230769 441.724902 149.538462 441.807468 149.846154 441.889243 150.153846 441.970209 150.461538 442.050344 150.769231 442.129630 151.076923 442.208046 151.384615 442.285573 151.692308 442.362191 152.000000 442.437880 152.307692 442.512619 152.615385 442.586390 152.923077 442.659172 153.230769 442.730946 153.538462 442.801691 153.846154 442.871388 154.153846 442.940017 154.461538 443.007557 154.769231 443.073990 155.076923 443.139296 155.384615 443.203453 155.692308 443.266444 156.000000 443.328247 156.307692 443.388842 156.615385 443.448211 156.923077 443.506333 157.230769 443.563189 157.538462 443.618757 157.846154 443.673019 158.153846 443.725955 158.461538 443.777545 158.769231 443.827769 159.076923 443.876607 159.384615 443.924039 159.692308 443.970046 160.000000 444.014607 160.307692 444.057703 160.615385 444.099313 160.923077 444.139419 161.230769 444.178000 161.538462 444.215036 161.846154 444.250507 162.153846 444.284394 162.461538 444.316677 162.769231 444.347335 163.076923 444.376350 163.384615 444.403700 163.692308 444.429367 164.000000 444.453330 164.307692 444.475570 164.615385 444.496066 164.923077 444.514799 165.230769 444.531749 165.538462 444.546896 165.846154 444.560221 166.153846 444.571702 166.461538 444.581322 166.769231 444.589059 167.076923 444.594893 167.384615 444.598806 167.692308 444.600777 168.000000 444.600789 168.307692 444.598840 168.615385 444.594930 168.923077 444.589060 169.230769 444.581231 169.538462 444.571442 169.846154 444.559695 170.153846 444.545989 170.461538 444.530326 170.769231 444.512706 171.076923 444.493129 171.384615 444.471597 171.692308 444.448109 172.000000 444.422665 172.307692 444.395268 172.615385 444.365917 172.923077 444.334612 173.230769 444.301354 173.538462 444.266144 173.846154 444.228982 174.153846 444.189869 174.461538 444.148806 174.769231 444.105792 175.076923 444.060828 175.384615 444.013915 175.692308 443.965054 176.000000 443.914244 176.307692 443.861487 176.615385 443.806782 176.923077 443.750132 177.230769 443.691535 177.538462 443.630993 177.846154 443.568505 178.153846 443.504074 178.461538 443.437698 178.769231 443.369379 179.076923 443.299117 179.384615 443.226913 179.692308 443.152767 180.000000 443.076680 180.307692 442.998652 180.615385 442.918683 180.923077 442.836775 181.230769 442.752928 181.538462 442.667142 181.846154 442.579418 182.153846 442.489757 182.461538 442.398158 182.769231 442.304623 183.076923 442.209152 183.384615 442.111745 183.692308 442.012403 184.000000 441.911127 184.307692 441.807917 184.615385 441.702774 184.923077 441.595698 185.230769 441.486689 185.538462 441.375749 185.846154 441.262877 186.153846 441.148074 186.461538 441.031341 186.769231 440.912679 187.076923 440.792087 187.384615 440.669567 187.692308 440.545119 188.000000 440.418743 188.307692 440.290439 188.615385 440.160210 188.923077 440.028054 189.230769 439.893973 189.538462 439.757966 189.846154 439.620036 190.153846 439.480181 190.461538 439.338403 190.769231 439.194702 191.076923 439.049079 191.384615 438.901534 191.692308 438.752067 192.000000 438.600680 192.307692 438.447373 192.615385 438.292146 192.923077 438.134999 193.230769 437.975934 193.538462 437.814951 193.846154 437.652050 194.153846 437.487232 194.461538 437.320498 194.769231 437.151847 195.076923 436.981281 195.384615 436.808800 195.692308 436.634405 196.000000 436.458095 196.307692 436.279873 196.615385 436.099737 196.923077 435.917689 197.230769 435.733729 197.538462 435.547858 197.846154 435.360076 198.153846 435.170383 198.461538 434.978781 198.769231 434.785270 199.076923 434.589850 199.384615 434.392522 199.692308 434.193286 200.000000 433.992143 200.307692 433.789094 200.615385 433.584139 200.923077 433.377278 201.230769 433.168512 201.538462 432.957841 201.846154 432.745267 202.153846 432.530789 202.461538 432.314408 202.769231 432.096125 203.076923 431.875940 203.384615 431.653854 203.692308 431.429867 204.000000 431.203979 204.307692 430.976192 204.615385 430.746506 204.923077 430.514921 205.230769 430.281438 205.538462 430.046057 205.846154 429.808779 206.153846 429.569604 206.461538 429.328534 206.769231 429.085568 207.076923 428.840707 207.384615 428.593951 207.692308 428.345301 208.000000 428.094758 208.307692 427.842322 208.615385 427.587994 208.923077 427.331774 209.230769 427.073662 209.538462 426.813660 209.846154 426.551767 210.153846 426.287985 210.461538 426.022313 210.769231 425.754753 211.076923 425.485305 211.384615 425.213969 211.692308 424.940745 212.000000 424.665635 212.307692 424.388640 212.615385 424.109758 212.923077 423.828992 213.230769 423.546341 213.538462 423.261806 213.846154 422.975387 214.153846 422.687086 214.461538 422.396902 214.769231 422.104836 215.076923 421.810890 215.384615 421.515062 215.692308 421.217354 216.000000 420.917766 216.307692 420.616299 216.615385 420.312953 216.923077 420.007729 217.230769 419.700627 217.538462 419.391649 217.846154 419.080793 218.153846 418.768062 218.461538 418.453455 218.769231 418.136973 219.076923 417.818616 219.384615 417.498386 219.692308 417.176282 220.000000 416.852305 220.307692 416.526455 220.615385 416.198734 220.923077 415.869142 221.230769 415.537678 221.538462 415.204345 221.846154 414.869141 222.153846 414.532068 222.461538 414.193127 222.769231 413.852317 223.076923 413.509640 223.384615 413.165095 223.692308 412.818684 224.000000 412.470407 224.307692 412.120264 224.615385 411.768257 224.923077 411.414384 225.230769 411.058648 225.538462 410.701048 225.846154 410.341586 226.153846 409.980260 226.461538 409.617073 226.769231 409.252025 227.076923 408.885116 227.384615 408.516346 227.692308 408.145717 228.000000 407.773228 228.307692 407.398881 228.615385 407.022675 228.923077 406.644612 229.230769 406.264692 229.538462 405.882915 229.846154 405.499282 230.153846 405.113793 230.461538 404.726449 230.769231 404.337251 231.076923 403.946199 231.384615 403.553293 231.692308 403.158534 232.000000 402.761923 232.307692 402.363460 232.615385 401.963146 232.923077 401.560981 233.230769 401.156965 233.538462 400.751100 233.846154 400.343385 234.153846 399.933822 234.461538 399.522410 234.769231 399.109151 235.076923 398.694044 235.384615 398.277091 235.692308 397.858292 236.000000 397.437647 236.307692 397.015157 236.615385 396.590823 236.923077 396.164645 237.230769 395.736623 237.538462 395.306758 237.846154 394.875050 238.153846 394.441501 238.461538 394.006111 238.769231 393.568879 239.076923 393.129807 239.384615 392.688896 239.692308 392.246145 240.000000 391.801555 240.307692 391.355127 240.615385 390.906862 240.923077 390.456759 241.230769 390.004820 241.538462 389.551044 241.846154 389.095433 242.153846 388.637987 242.461538 388.178706 242.769231 387.717591 243.076923 387.254643 243.384615 386.789862 243.692308 386.323248 244.000000 385.854803 244.307692 385.384526 244.615385 384.912418 244.923077 384.438482 245.230769 383.962734 245.538462 383.485191 245.846154 383.005870 246.153846 382.524788 246.461538 382.041964 246.769231 381.557415 247.076923 381.071158 247.384615 380.583211 247.692308 380.093592 248.000000 379.602317 248.307692 379.109405 248.615385 378.614874 248.923077 378.118739 249.230769 377.621020 249.538462 377.121734 249.846154 376.620897 250.153846 376.118529 250.461538 375.614646 250.769231 375.109265 251.076923 374.602405 251.384615 374.094083 251.692308 373.584316 252.000000 373.073122 252.307692 372.560518 252.615385 372.046523 252.923077 371.531153 253.230769 371.014426 253.538462 370.496360 253.846154 369.976972 254.153846 369.456279 254.461538 368.934300 254.769231 368.411051 255.076923 367.886551 255.384615 367.360816 255.692308 366.833865 256.000000 366.305715 256.307692 365.776383 256.615385 365.245887 256.923077 364.714245 257.230769 364.181473 257.538462 363.647590 257.846154 363.112614 258.153846 362.576560 258.461538 362.039448 258.769231 361.501295 259.076923 360.962118 259.384615 360.421934 259.692308 359.880762 260.000000 359.338618 260.307692 358.795521 260.615385 358.251488 260.923077 357.706536 261.230769 357.160684 261.538462 356.613947 261.846154 356.066345 262.153846 355.517894 262.461538 354.968612 262.769231 354.418517 263.076923 353.867626 263.384615 353.315957 263.692308 352.763527 264.000000 352.210354 264.307692 351.656455 264.615385 351.101847 264.923077 350.546549 265.230769 349.990578 265.538462 349.433952 265.846154 348.876687 266.153846 348.318802 266.461538 347.760314 266.769231 347.201240 267.076923 346.641599 267.384615 346.081407 267.692308 345.520682 268.000000 344.959442 268.307692 344.397704 268.615385 343.835486 268.923077 343.272805 269.230769 342.709679 269.538462 342.146126 269.846154 341.582162 270.153846 341.017805 270.461538 340.453074 270.769231 339.887985 271.076923 339.322556 271.384615 338.756805 271.692308 338.190749 272.000000 337.624405 272.307692 337.057792 272.615385 336.490926 272.923077 335.923825 273.230769 335.356507 273.538462 334.788990 273.846154 334.221290 274.153846 333.653426 274.461538 333.085414 274.769231 332.517273 275.076923 331.949020 275.384615 331.380673 275.692308 330.812248 276.000000 330.243764 276.307692 329.675238 276.615385 329.106688 276.923077 328.538131 277.230769 327.969585 277.538462 327.401066 277.846154 326.832594 278.153846 326.264185 278.461538 325.695857 278.769231 325.127627 279.076923 324.559513 279.384615 323.991532 279.692308 323.423702 280.000000 322.856041 280.307692 322.288566 280.615385 321.721295 280.923077 321.154244 281.230769 320.587432 281.538462 320.020877 281.846154 319.454595 282.153846 318.888604 282.461538 318.322922 282.769231 317.757566 283.076923 317.192555 283.384615 316.627904 283.692308 316.063633 284.000000 315.499757 284.307692 314.936296 284.615385 314.373267 284.923077 313.810686 285.230769 313.248572 285.538462 312.686942 285.846154 312.125814 286.153846 311.565205 286.461538 311.005132 286.769231 310.445614 287.076923 309.886668 287.384615 309.328311 287.692308 308.770560 288.000000 308.213434 288.307692 307.656950 288.615385 307.101126 288.923077 306.545978 289.230769 305.991525 289.538462 305.437784 289.846154 304.884773 290.153846 304.332508 290.461538 303.781009 290.769231 303.230291 291.076923 302.680373 291.384615 302.131273 291.692308 301.583007 292.000000 301.035593 292.307692 300.489050 292.615385 299.943394 292.923077 299.398642 293.230769 298.854813 293.538462 298.311924 293.846154 297.769993 294.153846 297.229037 294.461538 296.689073 294.769231 296.150119 295.076923 295.612193 295.384615 295.075312 295.692308 294.539494 296.000000 294.004756 296.307692 293.471116 296.615385 292.938591 296.923077 292.407199 297.230769 291.876958 297.538462 291.347884 297.846154 290.819996 298.153846 290.293311 298.461538 289.767846 298.769231 289.243620 299.076923 288.720649 299.384615 288.198951 299.692308 287.678543 300.000000 287.159444 300.307692 286.641671 300.615385 286.125241 300.923077 285.610171 301.230769 285.096480 301.538462 284.584185 301.846154 284.073304 302.153846 283.563853 302.461538 283.055850 302.769231 282.549314 303.076923 282.044261 303.384615 281.540709 303.692308 281.038676 304.000000 280.538179 304.307692 280.039235 304.615385 279.541863 304.923077 279.046080 305.230769 278.551902 305.538462 278.059349 305.846154 277.568437 306.153846 277.079184 306.461538 276.591607 306.769231 276.105724 307.076923 275.621552 307.384615 275.139110 307.692308 274.658414 308.000000 274.179482 308.307692 273.702332 308.615385 273.226980 308.923077 272.753446 309.230769 272.281745 309.538462 271.811897 309.846154 271.343918 310.153846 270.877825 310.461538 270.413637 310.769231 269.951370 311.076923 269.491043 311.384615 269.032673 311.692308 268.576278 312.000000 268.121874 312.307692 267.669480 312.615385 267.219113 312.923077 266.770791 313.230769 266.324531 313.538462 265.880350 313.846154 265.438267 314.153846 264.998298 314.461538 264.560462 314.769231 264.124776 315.076923 263.691256 315.384615 263.259922 315.692308 262.830790 316.000000 262.403878 316.307692 261.979204 316.615385 261.556784 316.923077 261.136637 317.230769 260.718780 317.538462 260.303231 317.846154 259.890007 318.153846 259.479125 318.461538 259.070604 318.769231 258.664461 319.076923 258.260712 319.384615 257.859377 319.692308 257.460472 320.000000 257.064015 320.307692 256.670023 320.615385 256.278514 320.923077 255.889506 321.230769 255.503015 321.538462 255.119060 321.846154 254.737652 322.153846 254.358776 322.461538 253.982410 322.769231 253.608534 323.076923 253.237127 323.384615 252.868167 323.692308 252.501633 324.000000 252.137504 324.307692 251.775759 324.615385 251.416377 324.923077 251.059336 325.230769 250.704615 325.538462 250.352194 325.846154 250.002051 326.153846 249.654165 326.461538 249.308515 326.769231 248.965079 327.076923 248.623837 327.384615 248.284767 327.692308 247.947848 328.000000 247.613059 328.307692 247.280380 328.615385 246.949787 328.923077 246.621262 329.230769 246.294782 329.538462 245.970326 329.846154 245.647873 330.153846 245.327402 330.461538 245.008892 330.769231 244.692322 331.076923 244.377670 331.384615 244.064916 331.692308 243.754038 332.000000 243.445014 332.307692 243.137825 332.615385 242.832448 332.923077 242.528863 333.230769 242.227049 333.538462 241.926983 333.846154 241.628646 334.153846 241.332016 334.461538 241.037072 334.769231 240.743792 335.076923 240.452156 335.384615 240.162142 335.692308 239.873729 336.000000 239.586896 336.307692 239.301623 336.615385 239.017887 336.923077 238.735668 337.230769 238.454944 337.538462 238.175694 337.846154 237.897898 338.153846 237.621533 338.461538 237.346580 338.769231 237.073016 339.076923 236.800820 339.384615 236.529972 339.692308 236.260450 340.000000 235.992234 340.307692 235.725301 340.615385 235.459631 340.923077 235.195202 341.230769 234.931994 341.538462 234.669986 341.846154 234.409155 342.153846 234.149482 342.461538 233.890944 342.769231 233.633521 343.076923 233.377192 343.384615 233.121935 343.692308 232.867729 344.000000 232.614554 344.307692 232.362387 344.615385 232.111208 344.923077 231.860996 345.230769 231.611729 345.538462 231.363386 345.846154 231.115947 346.153846 230.869390 346.461538 230.623693 346.769231 230.378837 347.076923 230.134799 347.384615 229.891558 347.692308 229.649093 348.000000 229.407384 348.307692 229.166409 348.615385 228.926146 348.923077 228.686575 349.230769 228.447675 349.538462 228.209423 349.846154 227.971801 350.153846 227.734785 350.461538 227.498355 350.769231 227.262489 351.076923 227.027168 351.384615 226.792368 351.692308 226.558071 352.000000 226.324253 352.307692 226.090894 352.615385 225.857973 352.923077 225.625468 353.230769 225.393359 353.538462 225.161625 353.846154 224.930244 354.153846 224.699194 354.461538 224.468456 354.769231 224.238007 355.076923 224.007827 355.384615 223.777895 355.692308 223.548188 356.000000 223.318687 356.307692 223.089370 356.615385 222.860216 356.923077 222.631203 357.230769 222.402311 357.538462 222.173518 357.846154 221.944804 358.153846 221.716146 358.461538 221.487525 358.769231 221.258918 359.076923 221.030305 359.384615 220.801664 359.692308 220.572975 360.000000 220.344215 360.307692 220.115365 360.615385 219.886403 360.923077 219.657307 361.230769 219.428057 361.538462 219.198631 361.846154 218.969009 362.153846 218.739168 362.461538 218.509089 362.769231 218.278749 363.076923 218.048128 363.384615 217.817205 363.692308 217.585957 364.000000 217.354365 364.307692 217.122407 364.615385 216.890062 364.923077 216.657308 365.230769 216.424125 365.538462 216.190492 365.846154 215.956387 366.153846 215.721788 366.461538 215.486676 366.769231 215.251029 367.076923 215.014825 367.384615 214.778044 367.692308 214.540664 368.000000 214.302664 368.307692 214.064023 368.615385 213.824720 368.923077 213.584734 369.230769 213.344044 369.538462 213.102628 369.846154 212.860465 370.153846 212.617534 370.461538 212.373814 370.769231 212.129284 371.076923 211.883923 371.384615 211.637709 371.692308 211.390622 372.000000 211.142640 372.307692 210.893741 372.615385 210.643906 372.923077 210.393113 373.230769 210.141340 373.538462 209.888566 373.846154 209.634771 374.153846 209.379933 374.461538 209.124031 374.769231 208.867044 375.076923 208.608950 375.384615 208.349729 375.692308 208.089359 376.000000 207.827820 376.307692 207.565089 376.615385 207.301147 376.923077 207.035971 377.230769 206.769541 377.538462 206.501835 377.846154 206.232833 378.153846 205.962513 378.461538 205.690854 378.769231 205.417834 379.076923 205.143434 379.384615 204.867631 379.692308 204.590404 380.000000 204.311732 380.307692 204.031595 380.615385 203.749970 380.923077 203.466838 381.230769 203.182176 381.538462 202.895963 381.846154 202.608179 382.153846 202.318802 382.461538 202.027811 382.769231 201.735184 383.076923 201.440902 383.384615 201.144942 383.692308 200.847283 384.000000 200.547905 384.307692 200.246786 384.615385 199.943904 384.923077 199.639240 385.230769 199.332771 385.538462 199.024477 385.846154 198.714336 386.153846 198.402327 386.461538 198.088429 386.769231 197.772621 387.076923 197.454882 387.384615 197.135190 387.692308 196.813525 388.000000 196.489865 388.307692 196.164190 388.615385 195.836477 388.923077 195.506706 389.230769 195.174855 389.538462 194.840904 389.846154 194.504832 390.153846 194.166617 390.461538 193.826237 390.769231 193.483673 391.076923 193.138902 391.384615 192.791904 391.692308 192.442658 392.000000 192.091141 392.307692 191.737334 392.615385 191.381215 392.923077 191.022762 393.230769 190.661956 393.538462 190.298773 393.846154 189.933195 394.153846 189.565198 394.461538 189.194762 394.769231 188.821867 395.076923 188.446490 395.384615 188.068611 395.692308 187.688208 396.000000 187.305260 396.307692 186.919747 396.615385 186.531647 396.923077 186.140938 397.230769 185.747600 397.538462 185.351612 397.846154 184.952952 398.153846 184.551599 398.461538 184.147533 398.769231 183.740739 399.076923 183.331237 399.384615 182.919055 399.692308 182.504219 400.000000 182.086756 400.307692 181.666694 400.615385 181.244060 400.923077 180.818881 401.230769 180.391183 401.538462 179.960995 401.846154 179.528343 402.153846 179.093254 402.461538 178.655756 402.769231 178.215876 403.076923 177.773640 403.384615 177.329076 403.692308 176.882211 404.000000 176.433073 404.307692 175.981688 404.615385 175.528083 404.923077 175.072286 405.230769 174.614323 405.538462 174.154222 405.846154 173.692011 406.153846 173.227715 406.461538 172.761363 406.769231 172.292981 407.076923 171.822597 407.384615 171.350237 407.692308 170.875929 408.000000 170.399700 408.307692 169.921577 408.615385 169.441587 408.923077 168.959758 409.230769 168.476116 409.538462 167.990688 409.846154 167.503503 410.153846 167.014586 410.461538 166.523965 410.769231 166.031667 411.076923 165.537719 411.384615 165.042149 411.692308 164.544984 412.000000 164.046250 412.307692 163.545974 412.615385 163.044185 412.923077 162.540909 413.230769 162.036172 413.538462 161.530004 413.846154 161.022429 414.153846 160.513476 414.461538 160.003172 414.769231 159.491544 415.076923 158.978619 415.384615 158.464424 415.692308 157.948986 416.000000 157.432332 416.307692 156.914490 416.615385 156.395486 416.923077 155.875349 417.230769 155.354104 417.538462 154.831779 417.846154 154.308402 418.153846 153.783998 418.461538 153.258597 418.769231 152.732223 419.076923 152.204906 419.384615 151.676671 419.692308 151.147546 420.000000 150.617559 420.307692 150.086735 420.615385 149.555103 420.923077 149.022689 421.230769 148.489522 421.538462 147.955626 421.846154 147.421031 422.153846 146.885763 422.461538 146.349849 422.769231 145.813316 423.076923 145.276192 423.384615 144.738503 423.692308 144.200277 424.000000 143.661540 424.307692 143.122321 424.615385 142.582646 424.923077 142.042542 425.230769 141.502036 425.538462 140.961156 425.846154 140.419928 426.153846 139.878381 426.461538 139.336540 426.769231 138.794433 427.076923 138.252087 427.384615 137.709530 427.692308 137.166788 428.000000 136.623888 428.307692 136.080858 428.615385 135.537725 428.923077 134.994516 429.230769 134.451259 429.538462 133.907979 429.846154 133.364705 430.153846 132.821463 430.461538 132.278280 430.769231 131.735185 431.076923 131.192203 431.384615 130.649363 431.692308 130.106690 432.000000 129.564213 432.307692 129.021958 432.615385 128.479953 432.923077 127.938225 433.230769 127.396800 433.538462 126.855706 433.846154 126.314971 434.153846 125.774620 434.461538 125.234682 434.769231 124.695184 435.076923 124.156151 435.384615 123.617613 435.692308 123.079596 436.000000 122.542126 436.307692 122.005232 436.615385 121.468940 436.923077 120.933278 437.230769 120.398272 437.538462 119.863949 437.846154 119.330338 438.153846 118.797464 438.461538 118.265356 438.769231 117.734039 439.076923 117.203543 439.384615 116.673892 439.692308 116.145115 440.000000 115.617239 440.307692 115.090291 440.615385 114.564297 440.923077 114.039286 441.230769 113.515284 441.538462 112.992319 441.846154 112.470417 442.153846 111.949606 442.461538 111.429912 442.769231 110.911364 443.076923 110.393987 443.384615 109.877810 443.692308 109.362859 444.000000 108.849162 444.307692 108.336745 444.615385 107.825636 444.923077 107.315862 445.230769 106.807449 445.538462 106.300426 445.846154 105.794819 446.153846 105.290656 446.461538 104.787963 446.769231 104.286768 447.076923 103.787097 447.384615 103.288979 447.692308 102.792439 448.000000 102.297506 448.307692 101.804206 448.615385 101.312567 448.923077 100.822615 449.230769 100.334377 449.538462 99.847882 449.846154 99.363156 450.153846 98.880226 450.461538 98.399119 450.769231 97.919862 451.076923 97.442483 451.384615 96.967009 451.692308 96.493466 452.000000 96.021883 452.307692 95.552285 452.615385 95.084700 452.923077 94.619156 453.230769 94.155680 453.538462 93.694298 453.846154 93.235037 454.153846 92.777926 454.461538 92.322990 454.769231 91.870258 455.076923 91.419756 455.384615 90.971511 455.692308 90.525551 456.000000 90.081902 456.307692 89.640593 456.615385 89.201649 456.923077 88.765098 457.230769 88.330967 457.538462 87.899284 457.846154 87.470075 458.153846 87.043368 458.461538 86.619189 458.769231 86.197567 459.076923 85.778527 459.384615 85.362097 459.692308 84.948305 460.000000 84.537177 460.307692 84.128740 460.615385 83.723022 460.923077 83.320050 461.230769 82.919851 461.538462 82.522452 461.846154 82.127880 462.153846 81.736162 462.461538 81.347326 462.769231 80.961399 463.076923 80.578407 463.384615 80.198378 463.692308 79.821339 464.000000 79.447317 464.307692 79.076339 464.615385 78.708432 464.923077 78.343624 465.230769 77.981942 465.538462 77.623413 465.846154 77.268063 466.153846 76.915921 466.461538 76.567012 466.769231 76.221365 467.076923 75.879007 467.384615 75.539964 467.692308 75.204263 468.000000 74.871933 468.307692 74.542999 468.615385 74.217490 468.923077 73.895432 469.230769 73.576852 469.538462 73.261777 469.846154 72.950236 470.153846 72.642254 470.461538 72.337859 470.769231 72.037078 471.076923 71.739938 471.384615 71.446466 471.692308 71.156690 472.000000 70.870637 472.307692 70.588333 472.615385 70.309806 472.923077 70.035083 473.230769 69.764191 473.538462 69.497157 473.846154 69.234008 474.153846 68.974773 474.461538 68.719476 474.769231 68.468147 475.076923 68.220811 475.384615 67.977496 475.692308 67.738221 476.000000 67.502968 476.307692 67.271711 476.615385 67.044424 476.923077 66.821081 477.230769 66.601656 477.538462 66.386122 477.846154 66.174455 478.153846 65.966628 478.461538 65.762614 478.769231 65.562388 479.076923 65.365924 479.384615 65.173196 479.692308 64.984177 480.000000 64.798842 480.307692 64.617164 480.615385 64.439118 480.923077 64.264677 481.230769 64.093816 481.538462 63.926509 481.846154 63.762728 482.153846 63.602449 482.461538 63.445646 482.769231 63.292291 483.076923 63.142360 483.384615 62.995826 483.692308 62.852663 484.000000 62.712845 484.307692 62.576347 484.615385 62.443141 484.923077 62.313202 485.230769 62.186505 485.538462 62.063022 485.846154 61.942728 486.153846 61.825597 486.461538 61.711603 486.769231 61.600719 487.076923 61.492920 487.384615 61.388180 487.692308 61.286473 488.000000 61.187772 488.307692 61.092052 488.615385 60.999286 488.923077 60.909449 489.230769 60.822514 489.538462 60.738455 489.846154 60.657247 490.153846 60.578863 490.461538 60.503278 490.769231 60.430465 491.076923 60.360398 491.384615 60.293051 491.692308 60.228398 492.000000 60.166414 492.307692 60.107071 492.615385 60.050345 492.923077 59.996208 493.230769 59.944636 493.538462 59.895601 493.846154 59.849078 494.153846 59.805041 494.461538 59.763464 494.769231 59.724321 495.076923 59.687585 495.384615 59.653231 495.692308 59.621232 496.000000 59.591563 496.307692 59.564198 496.615385 59.539110 496.923077 59.516274 497.230769 59.495663 497.538462 59.477252 497.846154 59.461014 498.153846 59.446923 498.461538 59.434953 498.769231 59.425079 499.076923 59.417274 499.384615 59.411512 499.692308 59.407767 500.000000 59.406014 500.307692 59.406225 500.615385 59.408375 500.923077 59.412439 501.230769 59.418389 501.538462 59.426200 501.846154 59.435846 502.153846 59.447301 502.461538 59.460539 502.769231 59.475533 503.076923 59.492258 503.384615 59.510688 503.692308 59.530796 504.000000 59.552557 504.307692 59.575944 504.615385 59.600932 504.923077 59.627495 505.230769 59.655606 505.538462 59.685239 505.846154 59.716368 506.153846 59.748968 506.461538 59.783012 506.769231 59.818475 507.076923 59.855329 507.384615 59.893550 507.692308 59.933111 508.000000 59.973986 508.307692 60.016149 508.615385 60.059574 508.923077 60.104235 509.230769 60.150105 509.538462 60.197160 509.846154 60.245373 510.153846 60.294717 510.461538 60.345167 510.769231 60.396697 511.076923 60.449281 511.384615 60.502892 511.692308 60.557505 512.000000 60.613093 512.307692 60.669631 512.615385 60.727092 512.923077 60.785451 513.230769 60.844681 513.538462 60.904757 513.846154 60.965652 514.153846 61.027340 514.461538 61.089796 514.769231 61.152993 515.076923 61.216905 515.384615 61.281506 515.692308 61.346770 516.000000 61.412671 516.307692 61.479183 516.615385 61.546281 516.923077 61.613937 517.230769 61.682126 517.538462 61.750822 517.846154 61.819999 518.153846 61.889630 518.461538 61.959691 518.769231 62.030154 519.076923 62.100994 519.384615 62.172184 519.692308 62.243699 520.000000 62.315513 520.307692 62.387599 520.615385 62.459931 520.923077 62.532484 521.230769 62.605232 521.538462 62.678148 521.846154 62.751206 522.153846 62.824380 522.461538 62.897645 522.769231 62.970974 523.076923 63.044341 523.384615 63.117720 523.692308 63.191085 524.000000 63.264410 524.307692 63.337670 524.615385 63.410837 524.923077 63.483886 525.230769 63.556791 525.538462 63.629526 525.846154 63.702065 526.153846 63.774382 526.461538 63.846450 526.769231 63.918244 527.076923 63.989738 527.384615 64.060905 527.692308 64.131720 528.000000 64.202157 528.307692 64.272189 528.615385 64.341790 528.923077 64.410935 529.230769 64.479597 529.538462 64.547751 529.846154 64.615370 530.153846 64.682428 530.461538 64.748899 530.769231 64.814758 531.076923 64.879978 531.384615 64.944533 531.692308 65.008397 532.000000 65.071544 532.307692 65.133948 532.615385 65.195583 532.923077 65.256423 533.230769 65.316442 533.538462 65.375614 533.846154 65.433912 534.153846 65.491312 534.461538 65.547786 534.769231 65.603308 535.076923 65.657854 535.384615 65.711396 535.692308 65.763908 536.000000 65.815365 536.307692 65.865741 536.615385 65.915009 536.923077 65.963144 537.230769 66.010118 537.538462 66.055908 537.846154 66.100485 538.153846 66.143825 538.461538 66.185901 538.769231 66.226687 539.076923 66.266158 539.384615 66.304286 539.692308 66.341047 540.000000 66.376413 540.307692 66.410360 540.615385 66.442860 540.923077 66.473889 541.230769 66.503419 541.538462 66.531425 541.846154 66.557881 542.153846 66.582761 542.461538 66.606038 542.769231 66.627687 543.076923 66.647682 543.384615 66.665997 543.692308 66.682605 544.000000 66.697480 544.307692 66.710597 544.615385 66.721929 544.923077 66.731451 545.230769 66.739136 545.538462 66.744959 545.846154 66.748893 546.153846 66.750912 546.461538 66.750990 546.769231 66.749102 547.076923 66.745220 547.384615 66.739320 547.692308 66.731375 548.000000 66.721358 548.307692 66.709245 548.615385 66.695009 548.923077 66.678624 549.230769 66.660063 549.538462 66.639301 549.846154 66.616312 550.153846 66.591070 550.461538 66.563549 550.769231 66.533722 551.076923 66.501564 551.384615 66.467049 551.692308 66.430150 552.000000 66.390841 552.307692 66.349097 552.615385 66.304899 552.923077 66.258255 553.230769 66.209181 553.538462 66.157694 553.846154 66.103809 554.153846 66.047542 554.461538 65.988910 554.769231 65.927929 555.076923 65.864614 555.384615 65.798981 555.692308 65.731046 556.000000 65.660826 556.307692 65.588337 556.615385 65.513593 556.923077 65.436612 557.230769 65.357410 557.538462 65.276002 557.846154 65.192404 558.153846 65.106632 558.461538 65.018703 558.769231 64.928632 559.076923 64.836436 559.384615 64.742129 559.692308 64.645730 560.000000 64.547252 560.307692 64.446713 560.615385 64.344128 560.923077 64.239513 561.230769 64.132885 561.538462 64.024259 561.846154 63.913651 562.153846 63.801077 562.461538 63.686554 562.769231 63.570097 563.076923 63.451723 563.384615 63.331446 563.692308 63.209284 564.000000 63.085252 564.307692 62.959366 564.615385 62.831643 564.923077 62.702097 565.230769 62.570746 565.538462 62.437606 565.846154 62.302691 566.153846 62.166019 566.461538 62.027604 566.769231 61.887464 567.076923 61.745615 567.384615 61.602071 567.692308 61.456849 568.000000 61.309966 568.307692 61.161437 568.615385 61.011278 568.923077 60.859505 569.230769 60.706135 569.538462 60.551182 569.846154 60.394664 570.153846 60.236596 570.461538 60.076994 570.769231 59.915874 571.076923 59.753252 571.384615 59.589145 571.692308 59.423567 572.000000 59.256536 572.307692 59.088066 572.615385 58.918175 572.923077 58.746878 573.230769 58.574191 573.538462 58.400130 573.846154 58.224711 574.153846 58.047950 574.461538 57.869863 574.769231 57.690467 575.076923 57.509776 575.384615 57.327808 575.692308 57.144577 576.000000 56.960100 576.307692 56.774394 576.615385 56.587474 576.923077 56.399355 577.230769 56.210055 577.538462 56.019588 577.846154 55.827972 578.153846 55.635222 578.461538 55.441353 578.769231 55.246383 579.076923 55.050327 579.384615 54.853200 579.692308 54.655020 580.000000 54.455801 580.307692 54.255561 580.615385 54.054314 580.923077 53.852078 581.230769 53.648867 581.538462 53.444698 581.846154 53.239588 582.153846 53.033551 582.461538 52.826604 582.769231 52.618763 583.076923 52.410044 583.384615 52.200463 583.692308 51.990036 584.000000 51.778778 584.307692 51.566707 584.615385 51.353838 584.923077 51.140186 585.230769 50.925768 585.538462 50.710600 585.846154 50.494698 586.153846 50.278078 586.461538 50.060756 586.769231 49.842748 587.076923 49.624069 587.384615 49.404736 587.692308 49.184766 588.000000 48.964173 588.307692 48.742973 588.615385 48.521184 588.923077 48.298820 589.230769 48.075899 589.538462 47.852435 589.846154 47.628445 590.153846 47.403944 590.461538 47.178950 590.769231 46.953477 591.076923 46.727542 591.384615 46.501161 591.692308 46.274350 592.000000 46.047124 592.307692 45.819500 592.615385 45.591494 592.923077 45.363122 593.230769 45.134399 593.538462 44.905342 593.846154 44.675967 594.153846 44.446290 594.461538 44.216326 594.769231 43.986092 595.076923 43.755604 595.384615 43.524877 595.692308 43.293928 596.000000 43.062773 596.307692 42.831428 596.615385 42.599908 596.923077 42.368230 597.230769 42.136410 597.538462 41.904463 597.846154 41.672406 598.153846 41.440254 598.461538 41.208025 598.769231 40.975733 599.076923 40.743394 599.384615 40.511025 599.692308 40.278642 600.000000 40.046261 600.307692 39.813897 600.615385 39.581566 600.923077 39.349286 601.230769 39.117071 601.538462 38.884937 601.846154 38.652901 602.153846 38.420979 602.461538 38.189187 602.769231 37.957539 603.076923 37.726054 603.384615 37.494746 603.692308 37.263632 604.000000 37.032727 604.307692 36.802048 604.615385 36.571610 604.923077 36.341430 605.230769 36.111523 605.538462 35.881906 605.846154 35.652595 606.153846 35.423605 606.461538 35.194952 606.769231 34.966653 607.076923 34.738724 607.384615 34.511180 607.692308 34.284037 608.000000 34.057312 608.307692 33.831021 608.615385 33.605179 608.923077 33.379802 609.230769 33.154907 609.538462 32.930510 609.846154 32.706626 610.153846 32.483271 610.461538 32.260462 610.769231 32.038214 611.076923 31.816544 611.384615 31.595467 611.692308 31.375000 612.000000 31.155158 612.307692 30.935957 612.615385 30.717414 612.923077 30.499544 613.230769 30.282364 613.538462 30.065889 613.846154 29.850135 614.153846 29.635119 614.461538 29.420856 614.769231 29.207363 615.076923 28.994655 615.384615 28.782748 615.692308 28.571659 616.000000 28.361403 616.307692 28.151996 616.615385 27.943455 616.923077 27.735795 617.230769 27.529033 617.538462 27.323183 617.846154 27.118263 618.153846 26.914289 618.461538 26.711276 618.769231 26.509240 619.076923 26.308197 619.384615 26.108164 619.692308 25.909155 620.000000 25.711189 620.307692 25.514279 620.615385 25.318443 620.923077 25.123696 621.230769 24.930054 621.538462 24.737534 621.846154 24.546151 622.153846 24.355921 622.461538 24.166860 622.769231 23.978985 623.076923 23.792311 623.384615 23.606854 623.692308 23.422630 624.000000 23.239656 624.307692 23.057946 624.615385 22.877518 624.923077 22.698388 625.230769 22.520570 625.538462 22.344081 625.846154 22.168938 626.153846 21.995156 626.461538 21.822751 626.769231 21.651740 627.076923 21.482137 627.384615 21.313960 627.692308 21.147223 628.000000 20.981944 628.307692 20.818138 628.615385 20.655822 628.923077 20.495010 629.230769 20.335719 629.538462 20.177962 629.846154 20.021736 630.153846 19.867035 630.461538 19.713852 630.769231 19.562182 631.076923 19.412019 631.384615 19.263355 631.692308 19.116186 632.000000 18.970504 632.307692 18.826305 632.615385 18.683581 632.923077 18.542326 633.230769 18.402535 633.538462 18.264201 633.846154 18.127318 634.153846 17.991880 634.461538 17.857881 634.769231 17.725315 635.076923 17.594174 635.384615 17.464454 635.692308 17.336149 636.000000 17.209251 636.307692 17.083755 636.615385 16.959655 636.923077 16.836944 637.230769 16.715617 637.538462 16.595667 637.846154 16.477089 638.153846 16.359875 638.461538 16.244020 638.769231 16.129517 639.076923 16.016362 639.384615 15.904546 639.692308 15.794065 640.000000 15.684912 640.307692 15.577081 640.615385 15.470565 640.923077 15.365360 641.230769 15.261457 641.538462 15.158852 641.846154 15.057538 642.153846 14.957510 642.461538 14.858760 642.769231 14.761283 643.076923 14.665072 643.384615 14.570122 643.692308 14.476426 644.000000 14.383979 644.307692 14.292773 644.615385 14.202803 644.923077 14.114063 645.230769 14.026547 645.538462 13.940248 645.846154 13.855160 646.153846 13.771277 646.461538 13.688593 646.769231 13.607102 647.076923 13.526798 647.384615 13.447674 647.692308 13.369725 648.000000 13.292944 648.307692 13.217324 648.615385 13.142861 648.923077 13.069548 649.230769 12.997378 649.538462 12.926345 649.846154 12.856444 650.153846 12.787669 650.461538 12.720012 650.769231 12.653468 651.076923 12.588031 651.384615 12.523694 651.692308 12.460452 652.000000 12.398298 652.307692 12.337226 652.615385 12.277230 652.923077 12.218304 653.230769 12.160442 653.538462 12.103637 653.846154 12.047884 654.153846 11.993176 654.461538 11.939507 654.769231 11.886871 655.076923 11.835262 655.384615 11.784673 655.692308 11.735099 656.000000 11.686533 656.307692 11.638970 656.615385 11.592402 656.923077 11.546825 657.230769 11.502231 657.538462 11.458615 657.846154 11.415970 658.153846 11.374291 658.461538 11.333570 658.769231 11.293803 659.076923 11.254983 659.384615 11.217103 659.692308 11.180158 660.000000 11.144142 660.307692 11.109047 660.615385 11.074869 660.923077 11.041601 661.230769 11.009236 661.538462 10.977770 661.846154 10.947194 662.153846 10.917505 662.461538 10.888694 662.769231 10.860757 663.076923 10.833686 663.384615 10.807476 663.692308 10.782121 664.000000 10.757615 664.307692 10.733950 664.615385 10.711122 664.923077 10.689124 665.230769 10.667950 665.538462 10.647594 665.846154 10.628049 666.153846 10.609310 666.461538 10.591370 666.769231 10.574223 667.076923 10.557863 667.384615 10.542284 667.692308 10.527480 668.000000 10.513444 668.307692 10.500171 668.615385 10.487654 668.923077 10.475887 669.230769 10.464864 669.538462 10.454579 669.846154 10.445025 670.153846 10.436198 670.461538 10.428089 670.769231 10.420694 671.076923 10.414005 671.384615 10.408018 671.692308 10.402726 672.000000 10.398122 672.307692 10.394200 672.615385 10.390955 672.923077 10.388380 673.230769 10.386470 673.538462 10.385217 673.846154 10.384615 674.153846 10.384660 674.461538 10.385344 674.769231 10.386661 675.076923 10.388605 675.384615 10.391170 675.692308 10.394350 676.000000 10.398139 676.307692 10.402531 676.615385 10.407518 676.923077 10.413096 677.230769 10.419259 677.538462 10.425999 677.846154 10.433311 678.153846 10.441188 678.461538 10.449625 678.769231 10.458616 679.076923 10.468153 679.384615 10.478232 679.692308 10.488846 680.000000 10.499988 680.307692 10.511653 680.615385 10.523835 680.923077 10.536527 681.230769 10.549723 681.538462 10.563417 681.846154 10.577603 682.153846 10.592275 682.461538 10.607426 682.769231 10.623051 683.076923 10.639142 683.384615 10.655696 683.692308 10.672704 684.000000 10.690161 684.307692 10.708060 684.615385 10.726397 684.923077 10.745163 685.230769 10.764354 685.538462 10.783963 685.846154 10.803984 686.153846 10.824411 686.461538 10.845237 686.769231 10.866457 687.076923 10.888064 687.384615 10.910052 687.692308 10.932416 688.000000 10.955148 688.307692 10.978243 688.615385 11.001695 688.923077 11.025497 689.230769 11.049644 689.538462 11.074129 689.846154 11.098945 690.153846 11.124088 690.461538 11.149550 690.769231 11.175326 691.076923 11.201409 691.384615 11.227794 691.692308 11.254474 692.000000 11.281442 692.307692 11.308694 692.615385 11.336222 692.923077 11.364021 693.230769 11.392084 693.538462 11.420405 693.846154 11.448979 694.153846 11.477798 694.461538 11.506857 694.769231 11.536150 695.076923 11.565671 695.384615 11.595412 695.692308 11.625369 696.000000 11.655535 696.307692 11.685904 696.615385 11.716470 696.923077 11.747226 697.230769 11.778166 697.538462 11.809285 697.846154 11.840576 698.153846 11.872034 698.461538 11.903650 698.769231 11.935421 699.076923 11.967339 699.384615 11.999399 699.692308 12.031594 700.000000 12.063918 700.307692 12.096365 700.615385 12.128929 700.923077 12.161603 701.230769 12.194383 701.538462 12.227260 701.846154 12.260230 702.153846 12.293285 702.461538 12.326421 702.769231 12.359630 703.076923 12.392907 703.384615 12.426246 703.692308 12.459640 704.000000 12.493083 704.307692 12.526569 704.615385 12.560092 704.923077 12.593646 705.230769 12.627224 705.538462 12.660821 705.846154 12.694430 706.153846 12.728045 706.153846 540.000000" /></g></g><g class="titles" /><g class="plot overlay" transform="translate(60, 20)"><g class="series serie-0 color-0"><g class="dots"><circle class="dot reactive tooltip-trigger" cx="13.846153846153847" cy="529.6153846153846" r="2.5" /><desc class="value">2,356,034,243(kWh)</desc><desc class="x top">13.846153846153847</desc><desc class="y top">529.6153846153846</desc><desc class="x_label">2549</desc></g><g class="dots"><circle class="dot reactive tooltip-trigger" cx="90.76923076923076" cy="434.76319496392324" r="2.5" /><desc class="value">2,510,864,485(kWh)</desc><desc class="x top">90.76923076923076</desc><desc class="y top">434.76319496392324</desc><desc class="x_label">2550</desc></g><g class="dots"><circle class="dot reactive tooltip-trigger" cx="167.69230769230765" cy="444.6007766122457" r="2.5" /><desc class="value">2,494,806,288(kWh)</desc><desc class="x top">167.69230769230765</desc><desc class="y top">444.6007766122457</desc><desc class="x_label">2551</desc></g><g class="dots"><circle class="dot reactive tooltip-trigger" cx="244.6153846153846" cy="384.9124177980922" r="2.5" /><desc class="value">2,592,237,492(kWh)</desc><desc class="x top">244.6153846153846</desc><desc class="y top">384.9124177980922</desc><desc class="x_label">2552</desc></g><g class="dots"><circle class="dot reactive tooltip-trigger" cx="321.5384615384615" cy="255.11906037827754" r="2.5" /><desc class="value">2,804,103,312(kWh)</desc><desc class="x ">321.5384615384615</desc><desc class="y ">255.11906037827754</desc><desc class="x_label">2553</desc></g><g class="dots"><circle class="dot reactive tooltip-trigger" cx="398.46153846153845" cy="184.14753265661233" r="2.5" /><desc class="value">2,919,952,391(kWh)</desc><desc class="x left">398.46153846153845</desc><desc class="y left">184.14753265661233</desc><desc class="x_label">2554</desc></g><g class="dots"><circle class="dot reactive tooltip-trigger" cx="475.38461538461536" cy="67.97749648683799" r="2.5" /><desc class="value">3,109,580,431(kWh)</desc><desc class="x left">475.38461538461536</desc><desc class="y left">67.97749648683799</desc><desc class="x_label">2555</desc></g><g class="dots"><circle class="dot reactive tooltip-trigger" cx="552.3076923076923" cy="66.34909712616093" r="2.5" /><desc class="value">3,112,238,519(kWh)</desc><desc class="x left">552.3076923076923</desc><desc class="y left">66.34909712616093</desc><desc class="x_label">2556</desc></g><g class="dots"><circle class="dot reactive tooltip-trigger" cx="629.2307692307692" cy="20.33571940344052" r="2.5" /><desc class="value">3,187,347,617(kWh)</desc><desc class="x left">629.2307692307692</desc><desc class="y left">20.33571940344052</desc><desc class="x_label">2557</desc></g><g class="dots"><circle class="dot reactive tooltip-trigger" cx="706.1538461538461" cy="12.72804535204375" r="2.5" /><desc class="value">3,199,765,865(kWh)</desc><desc class="x left">706.1538461538461</desc><desc class="y left">12.72804535204375</desc><desc class="x_label">2558</desc></g></g></g><g class="plot text-overlay" transform="translate(60, 20)"><g class="series serie-0 color-0" /></g><g class="plot tooltip-overlay" transform="translate(60, 20)"><g class="tooltip" style="opacity: 0" transform="translate(0 0)"><rect class="tooltip-box" height="0" rx="0" ry="0" width="0" /><g class="text" /></g></g></g></svg>