<?xml version='1.0' encoding='utf-8'?>
<svg xmlns:xlink="http://www.w3.org/1999/xlink" class="pygal-chart" id="chart-c5f69bd5-f08c-4bc0-b16a-da61ffca2db0" viewBox="0 0 800 600" xmlns="http://www.w3.org/2000/svg"><!--Generated with pygal 2.3.0 (etree) ©Kozea 2012-2016 on 2016-12-08--><!--http://pygal.org--><!--http://github.com/Kozea/pygal--><defs><style type="text/css">#chart-c5f69bd5-f08c-4bc0-b16a-da61ffca2db0{-webkit-user-select:none;-webkit-font-smoothing:antialiased;font-family:Consolas,"Liberation Mono",Menlo,Courier,monospace}#chart-c5f69bd5-f08c-4bc0-b16a-da61ffca2db0 .title{font-family:Consolas,"Liberation Mono",Menlo,Courier,monospace;font-size:16px}#chart-c5f69bd5-f08c-4bc0-b16a-da61ffca2db0 .legends .legend text{font-family:Consolas,"Liberation Mono",Menlo,Courier,monospace;font-size:14px}#chart-c5f69bd5-f08c-4bc0-b16a-da61ffca2db0 .axis text{font-family:Consolas,"Liberation Mono",Menlo,Courier,monospace;font-size:10px}#chart-c5f69bd5-f08c-4bc0-b16a-da61ffca2db0 .axis text.major{font-family:Consolas,"Liberation Mono",Menlo,Courier,monospace;font-size:10px}#chart-c5f69bd5-f08c-4bc0-b16a-da61ffca2db0 .text-overlay text.value{font-family:Consolas,"Liberation Mono",Menlo,Courier,monospace;font-size:16px}#chart-c5f69bd5-f08c-4bc0-b16a-da61ffca2db0 .text-overlay text.label{font-family:Consolas,"Liberation Mono",Menlo,Courier,monospace;font-size:10px}#chart-c5f69bd5-f08c-4bc0-b16a-da61ffca2db0 .tooltip{font-family:Consolas,"Liberation Mono",Menlo,Courier,monospace;font-size:14px}#chart-c5f69bd5-f08c-4bc0-b16a-da61ffca2db0 text.no_data{font-family:Consolas,"Liberation Mono",Menlo,Courier,monospace;font-size:64px}
#chart-c5f69bd5-f08c-4bc0-b16a-da61ffca2db0{background-color:rgba(249,249,249,1)}#chart-c5f69bd5-f08c-4bc0-b16a-da61ffca2db0 path,#chart-c5f69bd5-f08c-4bc0-b16a-da61ffca2db0 line,#chart-c5f69bd5-f08c-4bc0-b16a-da61ffca2db0 rect,#chart-c5f69bd5-f08c-4bc0-b16a-da61ffca2db0 circle{-webkit-transition:150ms;-moz-transition:150ms;transition:150ms}#chart-c5f69bd5-f08c-4bc0-b16a-da61ffca2db0 .graph &gt; .background{fill:rgba(249,249,249,1)}#chart-c5f69bd5-f08c-4bc0-b16a-da61ffca2db0 .plot &gt; .background{fill:rgba(255,255,255,1)}#chart-c5f69bd5-f08c-4bc0-b16a-da61ffca2db0 .graph{fill:rgba(0,0,0,.87)}#chart-c5f69bd5-f08c-4bc0-b16a-da61ffca2db0 text.no_data{fill:rgba(0,0,0,1)}#chart-c5f69bd5-f08c-4bc0-b16a-da61ffca2db0 .title{fill:rgba(0,0,0,1)}#chart-c5f69bd5-f08c-4bc0-b16a-da61ffca2db0 .legends .legend text{fill:rgba(0,0,0,.87)}#chart-c5f69bd5-f08c-4bc0-b16a-da61ffca2db0 .legends .legend:hover text{fill:rgba(0,0,0,1)}#chart-c5f69bd5-f08c-4bc0-b16a-da61ffca2db0 .axis .line{stroke:rgba(0,0,0,1)}#chart-c5f69bd5-f08c-4bc0-b16a-da61ffca2db0 .axis .guide.line{stroke:rgba(0,0,0,.54)}#chart-c5f69bd5-f08c-4bc0-b16a-da61ffca2db0 .axis .major.line{stroke:rgba(0,0,0,.87)}#chart-c5f69bd5-f08c-4bc0-b16a-da61ffca2db0 .axis text.major{fill:rgba(0,0,0,1)}#chart-c5f69bd5-f08c-4bc0-b16a-da61ffca2db0 .axis.y .guides:hover .guide.line,#chart-c5f69bd5-f08c-4bc0-b16a-da61ffca2db0 .line-graph .axis.x .guides:hover .guide.line,#chart-c5f69bd5-f08c-4bc0-b16a-da61ffca2db0 .stackedline-graph .axis.x .guides:hover .guide.line,#chart-c5f69bd5-f08c-4bc0-b16a-da61ffca2db0 .xy-graph .axis.x .guides:hover .guide.line{stroke:rgba(0,0,0,1)}#chart-c5f69bd5-f08c-4bc0-b16a-da61ffca2db0 .axis .guides:hover text{fill:rgba(0,0,0,1)}#chart-c5f69bd5-f08c-4bc0-b16a-da61ffca2db0 .reactive{fill-opacity:.7;stroke-opacity:.8}#chart-c5f69bd5-f08c-4bc0-b16a-da61ffca2db0 .ci{stroke:rgba(0,0,0,.87)}#chart-c5f69bd5-f08c-4bc0-b16a-da61ffca2db0 .reactive.active,#chart-c5f69bd5-f08c-4bc0-b16a-da61ffca2db0 .active .reactive{fill-opacity:.8;stroke-opacity:.9;stroke-width:4}#chart-c5f69bd5-f08c-4bc0-b16a-da61ffca2db0 .ci .reactive.active{stroke-width:1.5}#chart-c5f69bd5-f08c-4bc0-b16a-da61ffca2db0 .series text{fill:rgba(0,0,0,1)}#chart-c5f69bd5-f08c-4bc0-b16a-da61ffca2db0 .tooltip rect{fill:rgba(255,255,255,1);stroke:rgba(0,0,0,1);-webkit-transition:opacity 150ms;-moz-transition:opacity 150ms;transition:opacity 150ms}#chart-c5f69bd5-f08c-4bc0-b16a-da61ffca2db0 .tooltip .label{fill:rgba(0,0,0,.87)}#chart-c5f69bd5-f08c-4bc0-b16a-da61ffca2db0 .tooltip .label{fill:rgba(0,0,0,.87)}#chart-c5f69bd5-f08c-4bc0-b16a-da61ffca2db0 .tooltip .legend{font-size:.8em;fill:rgba(0,0,0,.54)}#chart-c5f69bd5-f08c-4bc0-b16a-da61ffca2db0 .tooltip .x_label{font-size:.6em;fill:rgba(0,0,0,1)}#chart-c5f69bd5-f08c-4bc0-b16a-da61ffca2db0 .tooltip .xlink{font-size:.5em;text-decoration:underline}#chart-c5f69bd5-f08c-4bc0-b16a-da61ffca2db0 .tooltip .value{font-size:1.5em}#chart-c5f69bd5-f08c-4bc0-b16a-da61ffca2db0 .bound{font-size:.5em}#chart-c5f69bd5-f08c-4bc0-b16a-da61ffca2db0 .max-value{font-size:.75em;fill:rgba(0,0,0,.54)}#chart-c5f69bd5-f08c-4bc0-b16a-da61ffca2db0 .map-element{fill:rgba(255,255,255,1);stroke:rgba(0,0,0,.54) !important}#chart-c5f69bd5-f08c-4bc0-b16a-da61ffca2db0 .map-element .reactive{fill-opacity:inherit;stroke-opacity:inherit}#chart-c5f69bd5-f08c-4bc0-b16a-da61ffca2db0 .color-0,#chart-c5f69bd5-f08c-4bc0-b16a-da61ffca2db0 .color-0 a:visited{stroke:#e86fa0;fill:#e86fa0}#chart-c5f69bd5-f08c-4bc0-b16a-da61ffca2db0 .text-overlay .color-0 text{fill:black}
#chart-c5f69bd5-f08c-4bc0-b16a-da61ffca2db0 text.no_data{text-anchor:middle}#chart-c5f69bd5-f08c-4bc0-b16a-da61ffca2db0 .guide.line{fill:none}#chart-c5f69bd5-f08c-4bc0-b16a-da61ffca2db0 .centered{text-anchor:middle}#chart-c5f69bd5-f08c-4bc0-b16a-da61ffca2db0 .title{text-anchor:middle}#chart-c5f69bd5-f08c-4bc0-b16a-da61ffca2db0 .legends .legend text{fill-opacity:1}#chart-c5f69bd5-f08c-4bc0-b16a-da61ffca2db0 .axis.x text{text-anchor:middle}#chart-c5f69bd5-f08c-4bc0-b16a-da61ffca2db0 .axis.x:not(.web) text[transform]{text-anchor:start}#chart-c5f69bd5-f08c-4bc0-b16a-da61ffca2db0 .axis.x:not(.web) text[transform].backwards{text-anchor:end}#chart-c5f69bd5-f08c-4bc0-b16a-da61ffca2db0 .axis.y text{text-anchor:end}#chart-c5f69bd5-f08c-4bc0-b16a-da61ffca2db0 .axis.y text[transform].backwards{text-anchor:start}#chart-c5f69bd5-f08c-4bc0-b16a-da61ffca2db0 .axis.y2 text{text-anchor:start}#chart-c5f69bd5-f08c-4bc0-b16a-da61ffca2db0 .axis.y2 text[transform].backwards{text-anchor:end}#chart-c5f69bd5-f08c-4bc0-b16a-da61ffca2db0 .axis .guide.line{stroke-dasharray:4,4}#chart-c5f69bd5-f08c-4bc0-b16a-da61ffca2db0 .axis .major.guide.line{stroke-dasharray:6,6}#chart-c5f69bd5-f08c-4bc0-b16a-da61ffca2db0 .horizontal .axis.y .guide.line,#chart-c5f69bd5-f08c-4bc0-b16a-da61ffca2db0 .horizontal .axis.y2 .guide.line,#chart-c5f69bd5-f08c-4bc0-b16a-da61ffca2db0 .vertical .axis.x .guide.line{opacity:0}#chart-c5f69bd5-f08c-4bc0-b16a-da61ffca2db0 .horizontal .axis.always_show .guide.line,#chart-c5f69bd5-f08c-4bc0-b16a-da61ffca2db0 .vertical .axis.always_show .guide.line{opacity:1 !important}#chart-c5f69bd5-f08c-4bc0-b16a-da61ffca2db0 .axis.y .guides:hover .guide.line,#chart-c5f69bd5-f08c-4bc0-b16a-da61ffca2db0 .axis.y2 .guides:hover .guide.line,#chart-c5f69bd5-f08c-4bc0-b16a-da61ffca2db0 .axis.x .guides:hover .guide.line{opacity:1}#chart-c5f69bd5-f08c-4bc0-b16a-da61ffca2db0 .axis .guides:hover text{opacity:1}#chart-c5f69bd5-f08c-4bc0-b16a-da61ffca2db0 .nofill{fill:none}#chart-c5f69bd5-f08c-4bc0-b16a-da61ffca2db0 .subtle-fill{fill-opacity:.2}#chart-c5f69bd5-f08c-4bc0-b16a-da61ffca2db0 .dot{stroke-width:1px;fill-opacity:1}#chart-c5f69bd5-f08c-4bc0-b16a-da61ffca2db0 .dot.active{stroke-width:5px}#chart-c5f69bd5-f08c-4bc0-b16a-da61ffca2db0 .dot.negative{fill:transparent}#chart-c5f69bd5-f08c-4bc0-b16a-da61ffca2db0 text,#chart-c5f69bd5-f08c-4bc0-b16a-da61ffca2db0 tspan{stroke:none !important}#chart-c5f69bd5-f08c-4bc0-b16a-da61ffca2db0 .series text.active{opacity:1}#chart-c5f69bd5-f08c-4bc0-b16a-da61ffca2db0 .tooltip rect{fill-opacity:.95;stroke-width:.5}#chart-c5f69bd5-f08c-4bc0-b16a-da61ffca2db0 .tooltip text{fill-opacity:1}#chart-c5f69bd5-f08c-4bc0-b16a-da61ffca2db0 .showable{visibility:hidden}#chart-c5f69bd5-f08c-4bc0-b16a-da61ffca2db0 .showable.shown{visibility:visible}#chart-c5f69bd5-f08c-4bc0-b16a-da61ffca2db0 .gauge-background{fill:rgba(229,229,229,1);stroke:none}#chart-c5f69bd5-f08c-4bc0-b16a-da61ffca2db0 .bg-lines{stroke:rgba(249,249,249,1);stroke-width:2px}</style><script type="text/javascript">window.pygal = window.pygal || {};window.pygal.config = window.pygal.config || {};window.pygal.config['c5f69bd5-f08c-4bc0-b16a-da61ffca2db0'] = {"no_data_text": "No data", "no_prefix": false, "xrange": null, "print_values_position": "center", "truncate_label": null, "x_labels": ["2549", "2550", "2551", "2552", "2553", "2554", "2555", "2556", "2557", "2558"], "title": null, "force_uri_protocol": "https", "defs": [], "formatter": null, "classes": ["pygal-chart"], "y_labels": null, "rounded_bars": null, "explicit_size": false, "x_labels_major_every": null, "legend_at_bottom_columns": null, "stroke_style": null, "half_pie": false, "spacing": 10, "tooltip_fancy_mode": true, "inverse_y_axis": false, "width": 800, "inner_radius": 0, "interpolation_parameters": {}, "tooltip_border_radius": 0, "style": {"no_data_font_family": "Consolas, \"Liberation Mono\", Menlo, Courier, monospace", "tooltip_font_size": 14, "tooltip_font_family": "Consolas, \"Liberation Mono\", Menlo, Courier, monospace", "stroke_opacity_hover": ".9", "legend_font_family": "Consolas, \"Liberation Mono\", Menlo, Courier, monospace", "font_family": "Consolas, \"Liberation Mono\", Menlo, Courier, monospace", "title_font_family": "Consolas, \"Liberation Mono\", Menlo, Courier, monospace", "background": "rgba(249, 249, 249, 1)", "stroke_opacity": ".8", "foreground": "rgba(0, 0, 0, .87)", "value_background": "rgba(229, 229, 229, 1)", "guide_stroke_dasharray": "4,4", "foreground_subtle": "rgba(0, 0, 0, .54)", "opacity_hover": ".8", "value_font_family": "Consolas, \"Liberation Mono\", Menlo, Courier, monospace", "value_label_font_size": 10, "plot_background": "rgba(255, 255, 255, 1)", "ci_colors": [], "label_font_size": 10, "major_label_font_size": 10, "title_font_size": 16, "no_data_font_size": 64, "value_font_size": 16, "value_colors": [], "label_font_family": "Consolas, \"Liberation Mono\", Menlo, Courier, monospace", "major_guide_stroke_dasharray": "6,6", "transition": "150ms", "foreground_strong": "rgba(0, 0, 0, 1)", "colors": ["#e86fa0", "#e88f6f", "#e8df6f", "#a0e86f", "#6fe88f", "#6fe8df", "#6fa0e8", "#8f6fe8", "#df6fe8", "#e86fa0"], "opacity": ".7", "legend_font_size": 14, "value_label_font_family": "Consolas, \"Liberation Mono\", Menlo, Courier, monospace", "major_label_font_family": "Consolas, \"Liberation Mono\", Menlo, Courier, monospace"}, "x_labels_major_count": null, "interpolation_precision": 250, "missing_value_fill_truncation": "x", "stack_from_top": false, "truncate_legend": null, "show_minor_x_labels": true, "print_zeroes": true, "css": ["file://style.css", "file://graph.css"], "y_label_rotation": 0, "legend_at_bottom": false, "print_values": false, "margin_top": null, "max_scale": 16, "allow_interruptions": false, "show_x_labels": true, "strict": false, "show_x_guides": false, "stroke": true, "margin_left": null, "dynamic_print_values": false, "print_labels": false, "show_y_labels": true, "x_labels_major": null, "range": null, "x_label_rotation": 0, "margin": 20, "zero": 0, "include_x_axis": false, "height": 600, "show_minor_y_labels": true, "show_dots": true, "interpolate": "cubic", "show_y_guides": true, "y_labels_major": null, "box_mode": "extremes", "margin_bottom": null, "order_min": null, "legend_box_size": 12, "fill": true, "show_only_major_dots": false, "js": ["//kozea.github.io/pygal.js/2.0.x/pygal-tooltips.min.js"], "x_title": null, "y_labels_major_every": null, "y_labels_major_count": null, "disable_xml_declaration": false, "y_title": null, "logarithmic": false, "pretty_print": false, "min_scale": 4, "dots_size": 2.5, "margin_right": null, "legends": [null], "secondary_range": null, "show_legend": false}</script><script type="text/javascript" xlink:href="https://kozea.github.io/pygal.js/2.0.x/pygal-tooltips.min.js" /></defs><title>Pygal</title><g class="graph stackedline-graph vertical"><rect class="background" height="600" width="800" x="0" y="0" /><g class="plot" transform="translate(60, 20)"><rect class="background" height="540" width="720.0" x="0" y="0" /><g class="axis y"><path class="line" d="M0.000000 540.000000 h720.000000" /><g class="guides"><path class="major guide line" d="M0.000000 493.993223 h720.000000" /><text class="major" x="-5" y="497.493223272924">6000M</text><title>6000M</title></g><g class="guides"><path class="guide line" d="M0.000000 435.219145 h720.000000" /><text class="" x="-5" y="438.7191449058271">6200M</text><title>6200M</title></g><g class="guides"><path class="guide line" d="M0.000000 376.445067 h720.000000" /><text class="" x="-5" y="379.9450665387302">6400M</text><title>6400M</title></g><g class="guides"><path class="guide line" d="M0.000000 317.670988 h720.000000" /><text class="" x="-5" y="321.17098817163327">6600M</text><title>6600M</title></g><g class="guides"><path class="guide line" d="M0.000000 258.896910 h720.000000" /><text class="" x="-5" y="262.39690980453634">6800M</text><title>6800M</title></g><g class="guides"><path class="major guide line" d="M0.000000 200.122831 h720.000000" /><text class="major" x="-5" y="203.6228314374394">7000M</text><title>7000M</title></g><g class="guides"><path class="guide line" d="M0.000000 141.348753 h720.000000" /><text class="" x="-5" y="144.84875307034247">7200M</text><title>7200M</title></g><g class="guides"><path class="guide line" d="M0.000000 82.574675 h720.000000" /><text class="" x="-5" y="86.07467470324553">7400M</text><title>7400M</title></g><g class="guides"><path class="guide line" d="M0.000000 23.800596 h720.000000" /><text class="" x="-5" y="27.3005963361486">7600M</text><title>7600M</title></g></g><g class="axis x"><g class="guides"><path class="line" d="M13.846154 0.000000 v540.000000" /><text class="" x="13.846153846153847" y="555.0">2549</text></g><g class="guides"><path class="guide line" d="M90.769231 0.000000 v540.000000" /><text class="" x="90.76923076923076" y="555.0">2550</text></g><g class="guides"><path class="guide line" d="M167.692308 0.000000 v540.000000" /><text class="" x="167.69230769230765" y="555.0">2551</text></g><g class="guides"><path class="guide line" d="M244.615385 0.000000 v540.000000" /><text class="" x="244.6153846153846" y="555.0">2552</text></g><g class="guides"><path class="guide line" d="M321.538462 0.000000 v540.000000" /><text class="" x="321.5384615384615" y="555.0">2553</text></g><g class="guides"><path class="guide line" d="M398.461538 0.000000 v540.000000" /><text class="" x="398.46153846153845" y="555.0">2554</text></g><g class="guides"><path class="guide line" d="M475.384615 0.000000 v540.000000" /><text class="" x="475.38461538461536" y="555.0">2555</text></g><g class="guides"><path class="guide line" d="M552.307692 0.000000 v540.000000" /><text class="" x="552.3076923076923" y="555.0">2556</text></g><g class="guides"><path class="guide line" d="M629.230769 0.000000 v540.000000" /><text class="" x="629.2307692307692" y="555.0">2557</text></g><g class="guides"><path class="guide line" d="M706.153846 0.000000 v540.000000" /><text class="" x="706.1538461538461" y="555.0">2558</text></g></g><g class="series serie-0 color-0"><path class="line reactive" d="M13.846154 540.000000 L13.846154 529.615385 14.153846 529.293855 14.461538 528.972325 14.769231 528.650793 15.076923 528.329260 15.384615 528.007725 15.692308 527.686187 16.000000 527.364646 16.307692 527.043100 16.615385 526.721551 16.923077 526.399996 17.230769 526.078436 17.538462 525.756870 17.846154 525.435297 18.153846 525.113716 18.461538 524.792129 18.769231 524.470532 19.076923 524.148927 19.384615 523.827313 19.692308 523.505688 20.000000 523.184053 20.307692 522.862407 20.615385 522.540749 20.923077 522.219079 21.230769 521.897397 21.538462 521.575701 21.846154 521.253991 22.153846 520.932267 22.461538 520.610527 22.769231 520.288773 23.076923 519.967002 23.384615 519.645214 23.692308 519.323410 24.000000 519.001587 24.307692 518.679747 24.615385 518.357887 24.923077 518.036008 25.230769 517.714109 25.538462 517.392190 25.846154 517.070249 26.153846 516.748287 26.461538 516.426303 26.769231 516.104296 27.076923 515.782266 27.384615 515.460212 27.692308 515.138133 28.000000 514.816030 28.307692 514.493901 28.615385 514.171746 28.923077 513.849564 29.230769 513.527356 29.538462 513.205119 29.846154 512.882855 30.153846 512.560561 30.461538 512.238238 30.769231 511.915885 31.076923 511.593502 31.384615 511.271087 31.692308 510.948642 32.000000 510.626163 32.307692 510.303653 32.615385 509.981108 32.923077 509.658531 33.230769 509.335918 33.538462 509.013271 33.846154 508.690588 34.153846 508.367870 34.461538 508.045114 34.769231 507.722322 35.076923 507.399492 35.384615 507.076624 35.692308 506.753716 36.000000 506.430770 36.307692 506.107783 36.615385 505.784757 36.923077 505.461689 37.230769 505.138579 37.538462 504.815428 37.846154 504.492233 38.153846 504.168996 38.461538 503.845714 38.769231 503.522389 39.076923 503.199018 39.384615 502.875602 39.692308 502.552140 40.000000 502.228632 40.307692 501.905076 40.615385 501.581472 40.923077 501.257821 41.230769 500.934120 41.538462 500.610371 41.846154 500.286571 42.153846 499.962721 42.461538 499.638820 42.769231 499.314868 43.076923 498.990863 43.384615 498.666805 43.692308 498.342695 44.000000 498.018531 44.307692 497.694312 44.615385 497.370038 44.923077 497.045709 45.230769 496.721324 45.538462 496.396883 45.846154 496.072384 46.153846 495.747828 46.461538 495.423214 46.769231 495.098541 47.076923 494.773808 47.384615 494.449016 47.692308 494.124163 48.000000 493.799249 48.307692 493.474274 48.615385 493.149237 48.923077 492.824137 49.230769 492.498973 49.538462 492.173746 49.846154 491.848455 50.153846 491.523099 50.461538 491.197678 50.769231 490.872190 51.076923 490.546636 51.384615 490.221015 51.692308 489.895326 52.000000 489.569570 52.307692 489.243744 52.615385 488.917849 52.923077 488.591884 53.230769 488.265849 53.538462 487.939743 53.846154 487.613566 54.153846 487.287316 54.461538 486.960994 54.769231 486.634598 55.076923 486.308129 55.384615 485.981586 55.692308 485.654967 56.000000 485.328274 56.307692 485.001504 56.615385 484.674658 56.923077 484.347735 57.230769 484.020734 57.538462 483.693655 57.846154 483.366498 58.153846 483.039261 58.461538 482.711944 58.769231 482.384547 59.076923 482.057069 59.384615 481.729510 59.692308 481.401868 60.000000 481.074144 60.307692 480.746337 60.615385 480.418446 60.923077 480.090471 61.230769 479.762411 61.538462 479.434266 61.846154 479.106034 62.153846 478.777716 62.461538 478.449312 62.769231 478.120819 63.076923 477.792239 63.384615 477.463570 63.692308 477.134811 64.000000 476.805963 64.307692 476.477024 64.615385 476.147995 64.923077 475.818874 65.230769 475.489661 65.538462 475.160355 65.846154 474.830957 66.153846 474.501464 66.461538 474.171878 66.769231 473.842197 67.076923 473.512420 67.384615 473.182547 67.692308 472.852578 68.000000 472.522512 68.307692 472.192349 68.615385 471.862087 68.923077 471.531727 69.230769 471.201267 69.538462 470.870708 69.846154 470.540048 70.153846 470.209287 70.461538 469.878425 70.769231 469.547461 71.076923 469.216395 71.384615 468.885225 71.692308 468.553952 72.000000 468.222574 72.307692 467.891092 72.615385 467.559504 72.923077 467.227811 73.230769 466.896011 73.538462 466.564104 73.846154 466.232089 74.153846 465.899967 74.461538 465.567736 74.769231 465.235395 75.076923 464.902945 75.384615 464.570385 75.692308 464.237714 76.000000 463.904931 76.307692 463.572036 76.615385 463.239029 76.923077 462.905909 77.230769 462.572675 77.538462 462.239327 77.846154 461.905864 78.153846 461.572286 78.461538 461.238592 78.769231 460.904781 79.076923 460.570854 79.384615 460.236809 79.692308 459.902646 80.000000 459.568365 80.307692 459.233964 80.615385 458.899444 80.923077 458.564803 81.230769 458.230041 81.538462 457.895158 81.846154 457.560153 82.153846 457.225026 82.461538 456.889775 82.769231 456.554401 83.076923 456.218903 83.384615 455.883280 83.692308 455.547532 84.000000 455.211658 84.307692 454.875657 84.615385 454.539530 84.923077 454.203275 85.230769 453.866892 85.538462 453.530381 85.846154 453.193740 86.153846 452.856969 86.461538 452.520069 86.769231 452.183037 87.076923 451.845875 87.384615 451.508580 87.692308 451.171153 88.000000 450.833592 88.307692 450.495898 88.615385 450.158070 88.923077 449.820108 89.230769 449.482010 89.538462 449.143776 89.846154 448.805406 90.153846 448.466899 90.461538 448.128254 90.769231 447.789472 91.076923 447.450553 91.384615 447.111511 91.692308 446.772361 92.000000 446.433116 92.307692 446.093794 92.615385 445.754408 92.923077 445.414973 93.230769 445.075505 93.538462 444.736018 93.846154 444.396528 94.153846 444.057050 94.461538 443.717598 94.769231 443.378188 95.076923 443.038834 95.384615 442.699552 95.692308 442.360357 96.000000 442.021264 96.307692 441.682287 96.615385 441.343441 96.923077 441.004743 97.230769 440.666206 97.538462 440.327846 97.846154 439.989678 98.153846 439.651717 98.461538 439.313977 98.769231 438.976474 99.076923 438.639223 99.384615 438.302239 99.692308 437.965537 100.000000 437.629131 100.307692 437.293038 100.615385 436.957271 100.923077 436.621847 101.230769 436.286779 101.538462 435.952083 101.846154 435.617775 102.153846 435.283868 102.461538 434.950378 102.769231 434.617320 103.076923 434.284710 103.384615 433.952561 103.692308 433.620889 104.000000 433.289710 104.307692 432.959037 104.615385 432.628887 104.923077 432.299274 105.230769 431.970213 105.538462 431.641719 105.846154 431.313807 106.153846 430.986493 106.461538 430.659791 106.769231 430.333716 107.076923 430.008283 107.384615 429.683507 107.692308 429.359404 108.000000 429.035988 108.307692 428.713274 108.615385 428.391278 108.923077 428.070014 109.230769 427.749497 109.538462 427.429743 109.846154 427.110766 110.153846 426.792582 110.461538 426.475205 110.769231 426.158650 111.076923 425.842933 111.384615 425.528068 111.692308 425.214071 112.000000 424.900956 112.307692 424.588739 112.615385 424.277434 112.923077 423.967057 113.230769 423.657622 113.538462 423.349145 113.846154 423.041641 114.153846 422.735124 114.461538 422.429609 114.769231 422.125113 115.076923 421.821649 115.384615 421.519233 115.692308 421.217879 116.000000 420.917603 116.307692 420.618420 116.615385 420.320344 116.923077 420.023392 117.230769 419.727577 117.538462 419.432914 117.846154 419.139420 118.153846 418.847108 118.461538 418.555995 118.769231 418.266094 119.076923 417.977421 119.384615 417.689991 119.692308 417.403818 120.000000 417.118919 120.307692 416.835307 120.615385 416.552999 120.923077 416.272008 121.230769 415.992351 121.538462 415.714041 121.846154 415.437094 122.153846 415.161526 122.461538 414.887350 122.769231 414.614583 123.076923 414.343238 123.384615 414.073332 123.692308 413.804878 124.000000 413.537893 124.307692 413.272391 124.615385 413.008387 124.923077 412.745896 125.230769 412.484934 125.538462 412.225514 125.846154 411.967653 126.153846 411.711365 126.461538 411.456665 126.769231 411.203569 127.076923 410.952091 127.384615 410.702246 127.692308 410.454049 128.000000 410.207516 128.307692 409.962661 128.615385 409.719499 128.923077 409.478046 129.230769 409.238316 129.538462 409.000324 129.846154 408.764086 130.153846 408.529616 130.461538 408.296930 130.769231 408.066042 131.076923 407.836968 131.384615 407.609722 131.692308 407.384320 132.000000 407.160776 132.307692 406.939105 132.615385 406.719324 132.923077 406.501445 133.230769 406.285486 133.538462 406.071460 133.846154 405.859382 134.153846 405.649269 134.461538 405.441133 134.769231 405.234992 135.076923 405.030859 135.384615 404.828750 135.692308 404.628680 136.000000 404.430663 136.307692 404.234715 136.615385 404.040851 136.923077 403.849085 137.230769 403.659434 137.538462 403.471911 137.846154 403.286532 138.153846 403.103312 138.461538 402.922266 138.769231 402.743408 139.076923 402.566754 139.384615 402.392320 139.692308 402.220119 140.000000 402.050167 140.307692 401.882479 140.615385 401.717070 140.923077 401.553955 141.230769 401.393149 141.538462 401.234667 141.846154 401.078525 142.153846 400.924736 142.461538 400.773316 142.769231 400.624280 143.076923 400.477643 143.384615 400.333421 143.692308 400.191627 144.000000 400.052278 144.307692 399.915388 144.615385 399.780972 144.923077 399.649045 145.230769 399.519622 145.538462 399.392719 145.846154 399.268349 146.153846 399.146530 146.461538 399.027274 146.769231 398.910597 147.076923 398.796515 147.384615 398.685042 147.692308 398.576194 148.000000 398.469985 148.307692 398.366430 148.615385 398.265544 148.923077 398.167343 149.230769 398.071842 149.538462 397.979054 149.846154 397.888997 150.153846 397.801683 150.461538 397.717129 150.769231 397.635350 151.076923 397.556360 151.384615 397.480174 151.692308 397.406808 152.000000 397.336277 152.307692 397.268595 152.615385 397.203778 152.923077 397.141840 153.230769 397.082797 153.538462 397.026664 153.846154 396.973455 154.153846 396.923186 154.461538 396.875872 154.769231 396.831527 155.076923 396.790167 155.384615 396.751806 155.692308 396.716461 156.000000 396.684145 156.307692 396.654874 156.615385 396.628662 156.923077 396.605526 157.230769 396.585479 157.538462 396.568537 157.846154 396.554715 158.153846 396.544028 158.461538 396.536491 158.769231 396.532118 159.076923 396.530926 159.384615 396.532928 159.692308 396.538140 160.000000 396.546578 160.307692 396.558255 160.615385 396.573187 160.923077 396.591389 161.230769 396.612877 161.538462 396.637664 161.846154 396.665766 162.153846 396.697198 162.461538 396.731976 162.769231 396.770113 163.076923 396.811626 163.384615 396.856529 163.692308 396.904837 164.000000 396.956565 164.307692 397.011728 164.615385 397.070342 164.923077 397.132420 165.230769 397.197979 165.538462 397.267033 165.846154 397.339597 166.153846 397.415687 166.461538 397.495317 166.769231 397.578502 167.076923 397.665258 167.384615 397.755599 167.692308 397.849540 168.000000 397.947086 168.307692 398.048198 168.615385 398.152828 168.923077 398.260926 169.230769 398.372444 169.538462 398.487333 169.846154 398.605544 170.153846 398.727027 170.461538 398.851734 170.769231 398.979617 171.076923 399.110625 171.384615 399.244711 171.692308 399.381824 172.000000 399.521918 172.307692 399.664941 172.615385 399.810846 172.923077 399.959583 173.230769 400.111104 173.538462 400.265360 173.846154 400.422301 174.153846 400.581879 174.461538 400.744045 174.769231 400.908750 175.076923 401.075945 175.384615 401.245581 175.692308 401.417609 176.000000 401.591981 176.307692 401.768646 176.615385 401.947557 176.923077 402.128665 177.230769 402.311920 177.538462 402.497273 177.846154 402.684677 178.153846 402.874080 178.461538 403.065436 178.769231 403.258695 179.076923 403.453807 179.384615 403.650725 179.692308 403.849398 180.000000 404.049779 180.307692 404.251818 180.615385 404.455466 180.923077 404.660675 181.230769 404.867395 181.538462 405.075577 181.846154 405.285174 182.153846 405.496134 182.461538 405.708411 182.769231 405.921954 183.076923 406.136715 183.384615 406.352645 183.692308 406.569695 184.000000 406.787817 184.307692 407.006960 184.615385 407.227076 184.923077 407.448117 185.230769 407.670033 185.538462 407.892776 185.846154 408.116296 186.153846 408.340545 186.461538 408.565473 186.769231 408.791032 187.076923 409.017173 187.384615 409.243847 187.692308 409.471005 188.000000 409.698597 188.307692 409.926576 188.615385 410.154892 188.923077 410.383496 189.230769 410.612340 189.538462 410.841373 189.846154 411.070549 190.153846 411.299816 190.461538 411.529128 190.769231 411.758434 191.076923 411.987685 191.384615 412.216834 191.692308 412.445830 192.000000 412.674625 192.307692 412.903171 192.615385 413.131417 192.923077 413.359316 193.230769 413.586817 193.538462 413.813873 193.846154 414.040435 194.153846 414.266453 194.461538 414.491878 194.769231 414.716662 195.076923 414.940755 195.384615 415.164110 195.692308 415.386676 196.000000 415.608405 196.307692 415.829248 196.615385 416.049156 196.923077 416.268080 197.230769 416.485971 197.538462 416.702780 197.846154 416.918459 198.153846 417.132958 198.461538 417.346228 198.769231 417.558221 199.076923 417.768888 199.384615 417.978179 199.692308 418.186046 200.000000 418.392439 200.307692 418.597311 200.615385 418.800611 200.923077 419.002292 201.230769 419.202304 201.538462 419.400597 201.846154 419.597124 202.153846 419.791836 202.461538 419.984682 202.769231 420.175615 203.076923 420.364586 203.384615 420.551545 203.692308 420.736444 204.000000 420.919233 204.307692 421.099865 204.615385 421.278289 204.923077 421.454457 205.230769 421.628320 205.538462 421.799829 205.846154 421.968936 206.153846 422.135590 206.461538 422.299744 206.769231 422.461348 207.076923 422.620354 207.384615 422.776712 207.692308 422.930374 208.000000 423.081291 208.307692 423.229413 208.615385 423.374692 208.923077 423.517079 209.230769 423.656524 209.538462 423.792980 209.846154 423.926397 210.153846 424.056726 210.461538 424.183918 210.769231 424.307925 211.076923 424.428697 211.384615 424.546185 211.692308 424.660341 212.000000 424.771115 212.307692 424.878459 212.615385 424.982324 212.923077 425.082661 213.230769 425.179420 213.538462 425.272554 213.846154 425.362012 214.153846 425.447746 214.461538 425.529708 214.769231 425.607848 215.076923 425.682117 215.384615 425.752467 215.692308 425.818848 216.000000 425.881211 216.307692 425.939508 216.615385 425.993690 216.923077 426.043707 217.230769 426.089512 217.538462 426.131054 217.846154 426.168285 218.153846 426.201156 218.461538 426.229618 218.769231 426.253622 219.076923 426.273120 219.384615 426.288062 219.692308 426.298399 220.000000 426.304082 220.307692 426.305064 220.615385 426.301293 220.923077 426.292723 221.230769 426.279303 221.538462 426.260985 221.846154 426.237719 222.153846 426.209458 222.461538 426.176152 222.769231 426.137752 223.076923 426.094209 223.384615 426.045474 223.692308 425.991498 224.000000 425.932233 224.307692 425.867629 224.615385 425.797638 224.923077 425.722211 225.230769 425.641298 225.538462 425.554850 225.846154 425.462820 226.153846 425.365157 226.461538 425.261814 226.769231 425.152740 227.076923 425.037888 227.384615 424.917207 227.692308 424.790650 228.000000 424.658167 228.307692 424.519710 228.615385 424.375229 228.923077 424.224675 229.230769 424.068000 229.538462 423.905155 229.846154 423.736090 230.153846 423.560758 230.461538 423.379108 230.769231 423.191092 231.076923 422.996661 231.384615 422.795766 231.692308 422.588358 232.000000 422.374389 232.307692 422.153809 232.615385 421.926569 232.923077 421.692621 233.230769 421.451915 233.538462 421.204402 233.846154 420.950035 234.153846 420.688763 234.461538 420.420538 234.769231 420.145311 235.076923 419.863032 235.384615 419.573654 235.692308 419.277127 236.000000 418.973402 236.307692 418.662430 236.615385 418.344163 236.923077 418.018551 237.230769 417.685545 237.538462 417.345097 237.846154 416.997157 238.153846 416.641677 238.461538 416.278608 238.769231 415.907901 239.076923 415.529506 239.384615 415.143375 239.692308 414.749460 240.000000 414.347710 240.307692 413.938078 240.615385 413.520514 240.923077 413.094969 241.230769 412.661395 241.538462 412.219742 241.846154 411.769961 242.153846 411.312004 242.461538 410.845822 242.769231 410.371366 243.076923 409.888586 243.384615 409.397434 243.692308 408.897861 244.000000 408.389818 244.307692 407.873257 244.615385 407.348127 244.923077 406.814401 245.230769 406.272131 245.538462 405.721392 245.846154 405.162255 246.153846 404.594795 246.461538 404.019085 246.769231 403.435197 247.076923 402.843206 247.384615 402.243184 247.692308 401.635206 248.000000 401.019343 248.307692 400.395670 248.615385 399.764260 248.923077 399.125186 249.230769 398.478521 249.538462 397.824339 249.846154 397.162712 250.153846 396.493715 250.461538 395.817421 250.769231 395.133902 251.076923 394.443233 251.384615 393.745486 251.692308 393.040735 252.000000 392.329052 252.307692 391.610512 252.615385 390.885188 252.923077 390.153152 253.230769 389.414479 253.538462 388.669241 253.846154 387.917512 254.153846 387.159365 254.461538 386.394874 254.769231 385.624111 255.076923 384.847150 255.384615 384.064065 255.692308 383.274928 256.000000 382.479812 256.307692 381.678792 256.615385 380.871941 256.923077 380.059331 257.230769 379.241036 257.538462 378.417130 257.846154 377.587685 258.153846 376.752775 258.461538 375.912473 258.769231 375.066853 259.076923 374.215987 259.384615 373.359950 259.692308 372.498814 260.000000 371.632653 260.307692 370.761540 260.615385 369.885548 260.923077 369.004750 261.230769 368.119221 261.538462 367.229033 261.846154 366.334259 262.153846 365.434973 262.461538 364.531248 262.769231 363.623157 263.076923 362.710774 263.384615 361.794172 263.692308 360.873424 264.000000 359.948604 264.307692 359.019784 264.615385 358.087039 264.923077 357.150441 265.230769 356.210063 265.538462 355.265980 265.846154 354.318264 266.153846 353.366989 266.461538 352.412227 266.769231 351.454053 267.076923 350.492539 267.384615 349.527759 267.692308 348.559786 268.000000 347.588694 268.307692 346.614555 268.615385 345.637443 268.923077 344.657431 269.230769 343.674593 269.538462 342.689002 269.846154 341.700731 270.153846 340.709853 270.461538 339.716442 270.769231 338.720571 271.076923 337.722313 271.384615 336.721742 271.692308 335.718931 272.000000 334.713953 272.307692 333.706882 272.615385 332.697790 272.923077 331.686752 273.230769 330.673839 273.538462 329.659127 273.846154 328.642687 274.153846 327.624594 274.461538 326.604921 274.769231 325.583740 275.076923 324.561125 275.384615 323.537150 275.692308 322.511888 276.000000 321.485411 276.307692 320.457794 276.615385 319.429110 276.923077 318.399431 277.230769 317.368832 277.538462 316.337385 277.846154 315.305164 278.153846 314.272242 278.461538 313.238693 278.769231 312.204589 279.076923 311.170005 279.384615 310.135012 279.692308 309.099685 280.000000 308.064097 280.307692 307.028322 280.615385 305.992431 280.923077 304.956500 281.230769 303.920600 281.538462 302.884806 281.846154 301.849191 282.153846 300.813827 282.461538 299.778789 282.769231 298.744149 283.076923 297.709981 283.384615 296.676358 283.692308 295.643354 284.000000 294.611041 284.307692 293.579494 284.615385 292.548784 284.923077 291.518987 285.230769 290.490174 285.538462 289.462419 285.846154 288.435796 286.153846 287.410378 286.461538 286.386237 286.769231 285.363449 287.076923 284.342084 287.384615 283.322218 287.692308 282.303923 288.000000 281.287273 288.307692 280.272340 288.615385 279.259199 288.923077 278.247922 289.230769 277.238582 289.538462 276.231254 289.846154 275.226010 290.153846 274.222924 290.461538 273.222068 290.769231 272.223517 291.076923 271.227344 291.384615 270.233621 291.692308 269.242422 292.000000 268.253821 292.307692 267.267890 292.615385 266.284703 292.923077 265.304334 293.230769 264.326855 293.538462 263.352340 293.846154 262.380862 294.153846 261.412495 294.461538 260.447311 294.769231 259.485385 295.076923 258.526789 295.384615 257.571596 295.692308 256.619881 296.000000 255.671715 296.307692 254.727173 296.615385 253.786328 296.923077 252.849253 297.230769 251.916022 297.538462 250.986707 297.846154 250.061382 298.153846 249.140121 298.461538 248.222996 298.769231 247.310081 299.076923 246.401449 299.384615 245.497174 299.692308 244.597328 300.000000 243.701985 300.307692 242.811219 300.615385 241.925103 300.923077 241.043709 301.230769 240.167112 301.538462 239.295384 301.846154 238.428599 302.153846 237.566831 302.461538 236.710151 302.769231 235.858635 303.076923 235.012354 303.384615 234.171383 303.692308 233.335794 304.000000 232.505661 304.307692 231.681058 304.615385 230.862057 304.923077 230.048731 305.230769 229.241155 305.538462 228.439401 305.846154 227.643543 306.153846 226.853654 306.461538 226.069807 306.769231 225.292076 307.076923 224.520533 307.384615 223.755253 307.692308 222.996308 308.000000 222.243772 308.307692 221.497718 308.615385 220.758219 308.923077 220.025349 309.230769 219.299181 309.538462 218.579788 309.846154 217.867243 310.153846 217.161621 310.461538 216.462993 310.769231 215.771434 311.076923 215.087017 311.384615 214.409814 311.692308 213.739900 312.000000 213.077347 312.307692 212.422230 312.615385 211.774620 312.923077 211.134592 313.230769 210.502219 313.538462 209.877573 313.846154 209.260730 314.153846 208.651760 314.461538 208.050739 314.769231 207.457739 315.076923 206.872833 315.384615 206.296096 315.692308 205.727599 316.000000 205.167417 316.307692 204.615622 316.615385 204.072289 316.923077 203.537490 317.230769 203.011298 317.538462 202.493788 317.846154 201.985031 318.153846 201.485102 318.461538 200.994074 318.769231 200.512020 319.076923 200.039013 319.384615 199.575127 319.692308 199.120435 320.000000 198.675010 320.307692 198.238926 320.615385 197.812255 320.923077 197.395072 321.230769 196.987449 321.538462 196.589460 321.846154 196.201154 322.153846 195.822485 322.461538 195.453383 322.769231 195.093778 323.076923 194.743601 323.384615 194.402780 323.692308 194.071247 324.000000 193.748932 324.307692 193.435763 324.615385 193.131673 324.923077 192.836589 325.230769 192.550443 325.538462 192.273165 325.846154 192.004684 326.153846 191.744931 326.461538 191.493835 326.769231 191.251327 327.076923 191.017337 327.384615 190.791795 327.692308 190.574630 328.000000 190.365773 328.307692 190.165155 328.615385 189.972704 328.923077 189.788351 329.230769 189.612026 329.538462 189.443659 329.846154 189.283181 330.153846 189.130520 330.461538 188.985608 330.769231 188.848374 331.076923 188.718748 331.384615 188.596661 331.692308 188.482042 332.000000 188.374821 332.307692 188.274929 332.615385 188.182295 332.923077 188.096850 333.230769 188.018523 333.538462 187.947245 333.846154 187.882946 334.153846 187.825555 334.461538 187.775003 334.769231 187.731220 335.076923 187.694136 335.384615 187.663680 335.692308 187.639784 336.000000 187.622376 336.307692 187.611388 336.615385 187.606748 336.923077 187.608388 337.230769 187.616236 337.538462 187.630224 337.846154 187.650281 338.153846 187.676337 338.461538 187.708323 338.769231 187.746168 339.076923 187.789802 339.384615 187.839156 339.692308 187.894159 340.000000 187.954742 340.307692 188.020834 340.615385 188.092365 340.923077 188.169267 341.230769 188.251468 341.538462 188.338898 341.846154 188.431489 342.153846 188.529169 342.461538 188.631869 342.769231 188.739519 343.076923 188.852049 343.384615 188.969389 343.692308 189.091468 344.000000 189.218218 344.307692 189.349568 344.615385 189.485448 344.923077 189.625788 345.230769 189.770519 345.538462 189.919570 345.846154 190.072870 346.153846 190.230352 346.461538 190.391943 346.769231 190.557575 347.076923 190.727178 347.384615 190.900681 347.692308 191.078015 348.000000 191.259109 348.307692 191.443893 348.615385 191.632299 348.923077 191.824255 349.230769 192.019692 349.538462 192.218539 349.846154 192.420728 350.153846 192.626187 350.461538 192.834848 350.769231 193.046639 351.076923 193.261491 351.384615 193.479334 351.692308 193.700099 352.000000 193.923714 352.307692 194.150111 352.615385 194.379219 352.923077 194.610968 353.230769 194.845288 353.538462 195.082110 353.846154 195.321363 354.153846 195.562978 354.461538 195.806884 354.769231 196.053011 355.076923 196.301290 355.384615 196.551651 355.692308 196.804023 356.000000 197.058337 356.307692 197.314523 356.615385 197.572510 356.923077 197.832229 357.230769 198.093610 357.538462 198.356583 357.846154 198.621078 358.153846 198.887025 358.461538 199.154354 358.769231 199.422995 359.076923 199.692878 359.384615 199.963933 359.692308 200.236090 360.000000 200.509279 360.307692 200.783431 360.615385 201.058475 360.923077 201.334341 361.230769 201.610960 361.538462 201.888261 361.846154 202.166175 362.153846 202.444631 362.461538 202.723559 362.769231 203.002891 363.076923 203.282554 363.384615 203.562481 363.692308 203.842600 364.000000 204.122842 364.307692 204.403137 364.615385 204.683415 364.923077 204.963605 365.230769 205.243639 365.538462 205.523445 365.846154 205.802955 366.153846 206.082097 366.461538 206.360803 366.769231 206.639001 367.076923 206.916623 367.384615 207.193598 367.692308 207.469856 368.000000 207.745328 368.307692 208.019943 368.615385 208.293631 368.923077 208.566323 369.230769 208.837949 369.538462 209.108437 369.846154 209.377720 370.153846 209.645726 370.461538 209.912385 370.769231 210.177628 371.076923 210.441385 371.384615 210.703586 371.692308 210.964160 372.000000 211.223039 372.307692 211.480151 372.615385 211.735427 372.923077 211.988797 373.230769 212.240191 373.538462 212.489540 373.846154 212.736772 374.153846 212.981818 374.461538 213.224609 374.769231 213.465074 375.076923 213.703143 375.384615 213.938746 375.692308 214.171814 376.000000 214.402276 376.307692 214.630062 376.615385 214.855103 376.923077 215.077329 377.230769 215.296669 377.538462 215.513054 377.846154 215.726413 378.153846 215.936677 378.461538 216.143776 378.769231 216.347639 379.076923 216.548198 379.384615 216.745381 379.692308 216.939119 380.000000 217.129342 380.307692 217.315980 380.615385 217.498962 380.923077 217.678220 381.230769 217.853684 381.538462 218.025282 381.846154 218.192945 382.153846 218.356604 382.461538 218.516188 382.769231 218.671627 383.076923 218.822851 383.384615 218.969791 383.692308 219.112377 384.000000 219.250538 384.307692 219.384204 384.615385 219.513306 384.923077 219.637773 385.230769 219.757537 385.538462 219.872525 385.846154 219.982670 386.153846 220.087900 386.461538 220.188147 386.769231 220.283339 387.076923 220.373406 387.384615 220.458280 387.692308 220.537890 388.000000 220.612166 388.307692 220.681038 388.615385 220.744436 388.923077 220.802290 389.230769 220.854530 389.538462 220.901087 389.846154 220.941889 390.153846 220.976869 390.461538 221.005954 390.769231 221.029076 391.076923 221.046164 391.384615 221.057149 391.692308 221.061960 392.000000 221.060528 392.307692 221.052783 392.615385 221.038654 392.923077 221.018072 393.230769 220.990966 393.538462 220.957267 393.846154 220.916905 394.153846 220.869810 394.461538 220.815912 394.769231 220.755141 395.076923 220.687427 395.384615 220.612700 395.692308 220.530890 396.000000 220.441926 396.307692 220.345741 396.615385 220.242262 396.923077 220.131420 397.230769 220.013146 397.538462 219.887369 397.846154 219.754020 398.153846 219.613028 398.461538 219.464323 398.769231 219.307857 399.076923 219.143666 399.384615 218.971809 399.692308 218.792341 400.000000 218.605322 400.307692 218.410810 400.615385 218.208861 400.923077 217.999533 401.230769 217.782885 401.538462 217.558973 401.846154 217.327856 402.153846 217.089592 402.461538 216.844237 402.769231 216.591851 403.076923 216.332490 403.384615 216.066212 403.692308 215.793074 404.000000 215.513136 404.307692 215.226454 404.615385 214.933086 404.923077 214.633089 405.230769 214.326523 405.538462 214.013443 405.846154 213.693908 406.153846 213.367976 406.461538 213.035704 406.769231 212.697151 407.076923 212.352373 407.384615 212.001428 407.692308 211.644375 408.000000 211.281271 408.307692 210.912173 408.615385 210.537139 408.923077 210.156228 409.230769 209.769496 409.538462 209.377002 409.846154 208.978803 410.153846 208.574957 410.461538 208.165522 410.769231 207.750555 411.076923 207.330114 411.384615 206.904257 411.692308 206.473041 412.000000 206.036524 412.307692 205.594764 412.615385 205.147819 412.923077 204.695747 413.230769 204.238604 413.538462 203.776449 413.846154 203.309340 414.153846 202.837333 414.461538 202.360488 414.769231 201.878861 415.076923 201.392511 415.384615 200.901495 415.692308 200.405870 416.000000 199.905695 416.307692 199.401027 416.615385 198.891924 416.923077 198.378444 417.230769 197.860644 417.538462 197.338582 417.846154 196.812315 418.153846 196.281903 418.461538 195.747401 418.769231 195.208868 419.076923 194.666362 419.384615 194.119941 419.692308 193.569661 420.000000 193.015581 420.307692 192.457759 420.615385 191.896251 420.923077 191.331117 421.230769 190.762413 421.538462 190.190198 421.846154 189.614529 422.153846 189.035463 422.461538 188.453059 422.769231 187.867374 423.076923 187.278466 423.384615 186.686393 423.692308 186.091212 424.000000 185.492981 424.307692 184.891757 424.615385 184.287599 424.923077 183.680565 425.230769 183.070711 425.538462 182.458096 425.846154 181.842777 426.153846 181.224813 426.461538 180.604260 426.769231 179.981176 427.076923 179.355620 427.384615 178.727649 427.692308 178.097320 428.000000 177.464691 428.307692 176.829821 428.615385 176.192766 428.923077 175.553585 429.230769 174.912335 429.538462 174.269074 429.846154 173.623860 430.153846 172.976750 430.461538 172.327802 430.769231 171.677073 431.076923 171.024623 431.384615 170.370507 431.692308 169.714784 432.000000 169.057512 432.307692 168.398748 432.615385 167.738550 432.923077 167.076977 433.230769 166.414084 433.538462 165.749931 433.846154 165.084574 434.153846 164.418072 434.461538 163.750483 434.769231 163.081863 435.076923 162.412272 435.384615 161.741765 435.692308 161.070402 436.000000 160.398240 436.307692 159.725337 436.615385 159.051750 436.923077 158.377536 437.230769 157.702755 437.538462 157.027463 437.846154 156.351718 438.153846 155.675579 438.461538 154.999101 438.769231 154.322344 439.076923 153.645366 439.384615 152.968222 439.692308 152.290973 440.000000 151.613674 440.307692 150.936385 440.615385 150.259162 440.923077 149.582063 441.230769 148.905147 441.538462 148.228470 441.846154 147.552091 442.153846 146.876066 442.461538 146.200455 442.769231 145.525315 443.076923 144.850702 443.384615 144.176676 443.692308 143.503293 444.000000 142.830612 444.307692 142.158690 444.615385 141.487586 444.923077 140.817355 445.230769 140.148057 445.538462 139.479749 445.846154 138.812489 446.153846 138.146334 446.461538 137.481343 446.769231 136.817572 447.076923 136.155080 447.384615 135.493924 447.692308 134.834162 448.000000 134.175852 448.307692 133.519052 448.615385 132.863819 448.923077 132.210210 449.230769 131.558284 449.538462 130.908099 449.846154 130.259711 450.153846 129.613180 450.461538 128.968561 450.769231 128.325914 451.076923 127.685296 451.384615 127.046765 451.692308 126.410378 452.000000 125.776192 452.307692 125.144267 452.615385 124.514659 452.923077 123.887426 453.230769 123.262626 453.538462 122.640317 453.846154 122.020556 454.153846 121.403401 454.461538 120.788910 454.769231 120.177140 455.076923 119.568150 455.384615 118.961996 455.692308 118.358737 456.000000 117.758431 456.307692 117.161134 456.615385 116.566905 456.923077 115.975802 457.230769 115.387882 457.538462 114.803202 457.846154 114.221821 458.153846 113.643797 458.461538 113.069187 458.769231 112.498048 459.076923 111.930439 459.384615 111.366417 459.692308 110.806040 460.000000 110.249365 460.307692 109.696451 460.615385 109.147355 460.923077 108.602135 461.230769 108.060848 461.538462 107.523552 461.846154 106.990305 462.153846 106.461165 462.461538 105.936189 462.769231 105.415435 463.076923 104.898961 463.384615 104.386824 463.692308 103.879083 464.000000 103.375794 464.307692 102.877016 464.615385 102.382807 464.923077 101.893223 465.230769 101.408323 465.538462 100.928165 465.846154 100.452806 466.153846 99.982303 466.461538 99.516715 466.769231 99.056100 467.076923 98.600515 467.384615 98.150017 467.692308 97.704665 468.000000 97.264516 468.307692 96.829628 468.615385 96.400058 468.923077 95.975865 469.230769 95.557106 469.538462 95.143839 469.846154 94.736121 470.153846 94.334010 470.461538 93.937564 470.769231 93.546841 471.076923 93.161898 471.384615 92.782793 471.692308 92.409584 472.000000 92.042328 472.307692 91.681084 472.615385 91.325908 472.923077 90.976859 473.230769 90.633994 473.538462 90.297372 473.846154 89.967049 474.153846 89.643083 474.461538 89.325533 474.769231 89.014455 475.076923 88.709909 475.384615 88.411950 475.692308 88.120621 476.000000 87.835899 476.307692 87.557743 476.615385 87.286113 476.923077 87.020971 477.230769 86.762275 477.538462 86.509987 477.846154 86.264066 478.153846 86.024473 478.461538 85.791167 478.769231 85.564110 479.076923 85.343261 479.384615 85.128580 479.692308 84.920027 480.000000 84.717564 480.307692 84.521150 480.615385 84.330744 480.923077 84.146309 481.230769 83.967802 481.538462 83.795186 481.846154 83.628420 482.153846 83.467463 482.461538 83.312278 482.769231 83.162822 483.076923 83.019058 483.384615 82.880944 483.692308 82.748442 484.000000 82.621511 484.307692 82.500112 484.615385 82.384205 484.923077 82.273749 485.230769 82.168706 485.538462 82.069035 485.846154 81.974696 486.153846 81.885651 486.461538 81.801858 486.769231 81.723279 487.076923 81.649873 487.384615 81.581600 487.692308 81.518421 488.000000 81.460296 488.307692 81.407186 488.615385 81.359050 488.923077 81.315848 489.230769 81.277541 489.538462 81.244089 489.846154 81.215452 490.153846 81.191591 490.461538 81.172465 490.769231 81.158035 491.076923 81.148260 491.384615 81.143102 491.692308 81.142521 492.000000 81.146475 492.307692 81.154927 492.615385 81.167835 492.923077 81.185161 493.230769 81.206864 493.538462 81.232904 493.846154 81.263243 494.153846 81.297839 494.461538 81.336653 494.769231 81.379646 495.076923 81.426777 495.384615 81.478007 495.692308 81.533296 496.000000 81.592604 496.307692 81.655891 496.615385 81.723118 496.923077 81.794244 497.230769 81.869230 497.538462 81.948037 497.846154 82.030624 498.153846 82.116951 498.461538 82.206979 498.769231 82.300668 499.076923 82.397978 499.384615 82.498869 499.692308 82.603302 500.000000 82.711237 500.307692 82.822633 500.615385 82.937452 500.923077 83.055653 501.230769 83.177196 501.538462 83.302042 501.846154 83.430151 502.153846 83.561483 502.461538 83.695998 502.769231 83.833657 503.076923 83.974420 503.384615 84.118246 503.692308 84.265096 504.000000 84.414931 504.307692 84.567710 504.615385 84.723394 504.923077 84.881943 505.230769 85.043317 505.538462 85.207476 505.846154 85.374380 506.153846 85.543990 506.461538 85.716267 506.769231 85.891169 507.076923 86.068657 507.384615 86.248692 507.692308 86.431233 508.000000 86.616242 508.307692 86.803677 508.615385 86.993500 508.923077 87.185670 509.230769 87.380148 509.538462 87.576893 509.846154 87.775867 510.153846 87.977029 510.461538 88.180339 510.769231 88.385758 511.076923 88.593246 511.384615 88.802763 511.692308 89.014269 512.000000 89.227725 512.307692 89.443090 512.615385 89.660325 512.923077 89.879390 513.230769 90.100245 513.538462 90.322851 513.846154 90.547167 514.153846 90.773155 514.461538 91.000773 514.769231 91.229982 515.076923 91.460743 515.384615 91.693015 515.692308 91.926760 516.000000 92.161936 516.307692 92.398504 516.615385 92.636425 516.923077 92.875659 517.230769 93.116165 517.538462 93.357904 517.846154 93.600837 518.153846 93.844923 518.461538 94.090122 518.769231 94.336396 519.076923 94.583703 519.384615 94.832004 519.692308 95.081260 520.000000 95.331431 520.307692 95.582476 520.615385 95.834356 520.923077 96.087032 521.230769 96.340463 521.538462 96.594609 521.846154 96.849431 522.153846 97.104889 522.461538 97.360944 522.769231 97.617555 523.076923 97.874682 523.384615 98.132286 523.692308 98.390327 524.000000 98.648765 524.307692 98.907561 524.615385 99.166674 524.923077 99.426065 525.230769 99.685694 525.538462 99.945521 525.846154 100.205506 526.153846 100.465610 526.461538 100.725793 526.769231 100.986015 527.076923 101.246235 527.384615 101.506416 527.692308 101.766515 528.000000 102.026495 528.307692 102.286314 528.615385 102.545934 528.923077 102.805314 529.230769 103.064414 529.538462 103.323195 529.846154 103.581617 530.153846 103.839641 530.461538 104.097225 530.769231 104.354331 531.076923 104.610919 531.384615 104.866949 531.692308 105.122381 532.000000 105.377175 532.307692 105.631292 532.615385 105.884692 532.923077 106.137334 533.230769 106.389180 533.538462 106.640188 533.846154 106.890321 534.153846 107.139537 534.461538 107.387797 534.769231 107.635061 535.076923 107.881289 535.384615 108.126442 535.692308 108.370480 536.000000 108.613362 536.307692 108.855050 536.615385 109.095503 536.923077 109.334682 537.230769 109.572546 537.538462 109.809056 537.846154 110.044172 538.153846 110.277854 538.461538 110.510063 538.769231 110.740759 539.076923 110.969901 539.384615 111.197451 539.692308 111.423368 540.000000 111.647612 540.307692 111.870144 540.615385 112.090924 540.923077 112.309912 541.230769 112.527068 541.538462 112.742353 541.846154 112.955726 542.153846 113.167149 542.461538 113.376580 542.769231 113.583981 543.076923 113.789311 543.384615 113.992531 543.692308 114.193600 544.000000 114.392480 544.307692 114.589130 544.615385 114.783510 544.923077 114.975581 545.230769 115.165303 545.538462 115.352636 545.846154 115.537540 546.153846 115.719976 546.461538 115.899903 546.769231 116.077282 547.076923 116.252074 547.384615 116.424237 547.692308 116.593733 548.000000 116.760521 548.307692 116.924563 548.615385 117.085817 548.923077 117.244245 549.230769 117.399806 549.538462 117.552461 549.846154 117.702169 550.153846 117.848892 550.461538 117.992588 550.769231 118.133220 551.076923 118.270745 551.384615 118.405126 551.692308 118.536322 552.000000 118.664293 552.307692 118.788999 552.615385 118.910410 552.923077 119.028530 553.230769 119.143372 553.538462 119.254949 553.846154 119.363276 554.153846 119.468365 554.461538 119.570230 554.769231 119.668884 555.076923 119.764341 555.384615 119.856613 555.692308 119.945715 556.000000 120.031659 556.307692 120.114459 556.615385 120.194128 556.923077 120.270680 557.230769 120.344127 557.538462 120.414484 557.846154 120.481764 558.153846 120.545980 558.461538 120.607145 558.769231 120.665273 559.076923 120.720377 559.384615 120.772470 559.692308 120.821567 560.000000 120.867679 560.307692 120.910821 560.615385 120.951006 560.923077 120.988247 561.230769 121.022558 561.538462 121.053951 561.846154 121.082441 562.153846 121.108041 562.461538 121.130763 562.769231 121.150622 563.076923 121.167631 563.384615 121.181803 563.692308 121.193151 564.000000 121.201689 564.307692 121.207430 564.615385 121.210388 564.923077 121.210575 565.230769 121.208006 565.538462 121.202693 565.846154 121.194651 566.153846 121.183891 566.461538 121.170429 566.769231 121.154276 567.076923 121.135446 567.384615 121.113954 567.692308 121.089811 568.000000 121.063032 568.307692 121.033630 568.615385 121.001617 568.923077 120.967009 569.230769 120.929817 569.538462 120.890055 569.846154 120.847737 570.153846 120.802876 570.461538 120.755485 570.769231 120.705578 571.076923 120.653167 571.384615 120.598267 571.692308 120.540891 572.000000 120.481052 572.307692 120.418763 572.615385 120.354038 572.923077 120.286891 573.230769 120.217333 573.538462 120.145380 573.846154 120.071044 574.153846 119.994338 574.461538 119.915276 574.769231 119.833872 575.076923 119.750138 575.384615 119.664088 575.692308 119.575735 576.000000 119.485093 576.307692 119.392175 576.615385 119.296995 576.923077 119.199565 577.230769 119.099900 577.538462 118.998012 577.846154 118.893915 578.153846 118.787621 578.461538 118.679146 578.769231 118.568501 579.076923 118.455701 579.384615 118.340758 579.692308 118.223687 580.000000 118.104499 580.307692 117.983209 580.615385 117.859831 580.923077 117.734377 581.230769 117.606860 581.538462 117.477295 581.846154 117.345694 582.153846 117.212070 582.461538 117.076439 582.769231 116.938811 583.076923 116.799202 583.384615 116.657623 583.692308 116.514090 584.000000 116.368614 584.307692 116.221209 584.615385 116.071890 584.923077 115.920668 585.230769 115.767558 585.538462 115.612572 585.846154 115.455725 586.153846 115.297029 586.461538 115.136498 586.769231 114.974144 587.076923 114.809983 587.384615 114.644026 587.692308 114.476288 588.000000 114.306781 588.307692 114.135519 588.615385 113.962516 588.923077 113.787784 589.230769 113.611337 589.538462 113.433189 589.846154 113.253352 590.153846 113.071840 590.461538 112.888667 590.769231 112.703845 591.076923 112.517389 591.384615 112.329311 591.692308 112.139626 592.000000 111.948345 592.307692 111.755483 592.615385 111.561053 592.923077 111.365068 593.230769 111.167542 593.538462 110.968487 593.846154 110.767919 594.153846 110.565849 594.461538 110.362291 594.769231 110.157258 595.076923 109.950764 595.384615 109.742822 595.692308 109.533446 596.000000 109.322649 596.307692 109.110444 596.615385 108.896844 596.923077 108.681864 597.230769 108.465515 597.538462 108.247813 597.846154 108.028769 598.153846 107.808398 598.461538 107.586712 598.769231 107.363726 599.076923 107.139452 599.384615 106.913903 599.692308 106.687094 600.000000 106.459037 600.307692 106.229746 600.615385 105.999235 600.923077 105.767516 601.230769 105.534602 601.538462 105.300508 601.846154 105.065247 602.153846 104.828832 602.461538 104.591276 602.769231 104.352593 603.076923 104.112795 603.384615 103.871898 603.692308 103.629913 604.000000 103.386854 604.307692 103.142734 604.615385 102.897568 604.923077 102.651367 605.230769 102.404146 605.538462 102.155918 605.846154 101.906697 606.153846 101.656495 606.461538 101.405325 606.769231 101.153203 607.076923 100.900140 607.384615 100.646149 607.692308 100.391246 608.000000 100.135442 608.307692 99.878751 608.615385 99.621187 608.923077 99.362762 609.230769 99.103491 609.538462 98.843386 609.846154 98.582461 610.153846 98.320730 610.461538 98.058205 610.769231 97.794900 611.076923 97.530828 611.384615 97.266003 611.692308 97.000438 612.000000 96.734146 612.307692 96.467141 612.615385 96.199436 612.923077 95.931045 613.230769 95.661980 613.538462 95.392256 613.846154 95.121885 614.153846 94.850881 614.461538 94.579257 614.769231 94.307027 615.076923 94.034204 615.384615 93.760801 615.692308 93.486832 616.000000 93.212310 616.307692 92.937248 616.615385 92.661660 616.923077 92.385559 617.230769 92.108958 617.538462 91.831872 617.846154 91.554312 618.153846 91.276293 618.461538 90.997828 618.769231 90.718930 619.076923 90.439612 619.384615 90.159889 619.692308 89.879773 620.000000 89.599277 620.307692 89.318416 620.615385 89.037202 620.923077 88.755648 621.230769 88.473769 621.538462 88.191577 621.846154 87.909086 622.153846 87.626309 622.461538 87.343259 622.769231 87.059951 623.076923 86.776396 623.384615 86.492609 623.692308 86.208604 624.000000 85.924392 624.307692 85.639988 624.615385 85.355405 624.923077 85.070656 625.230769 84.785756 625.538462 84.500716 625.846154 84.215550 626.153846 83.930273 626.461538 83.644896 626.769231 83.359434 627.076923 83.073900 627.384615 82.788307 627.692308 82.502669 628.000000 82.216998 628.307692 81.931309 628.615385 81.645614 628.923077 81.359928 629.230769 81.074262 629.538462 80.788630 629.846154 80.503031 630.153846 80.217468 630.461538 79.931938 630.769231 79.646443 631.076923 79.360981 631.384615 79.075554 631.692308 78.790160 632.000000 78.504800 632.307692 78.219473 632.615385 77.934179 632.923077 77.648919 633.230769 77.363692 633.538462 77.078498 633.846154 76.793336 634.153846 76.508207 634.461538 76.223110 634.769231 75.938046 635.076923 75.653014 635.384615 75.368014 635.692308 75.083046 636.000000 74.798110 636.307692 74.513206 636.615385 74.228333 636.923077 73.943491 637.230769 73.658681 637.538462 73.373901 637.846154 73.089153 638.153846 72.804435 638.461538 72.519748 638.769231 72.235092 639.076923 71.950466 639.384615 71.665870 639.692308 71.381304 640.000000 71.096769 640.307692 70.812263 640.615385 70.527787 640.923077 70.243340 641.230769 69.958923 641.538462 69.674535 641.846154 69.390177 642.153846 69.105847 642.461538 68.821546 642.769231 68.537274 643.076923 68.253031 643.384615 67.968816 643.692308 67.684629 644.000000 67.400471 644.307692 67.116340 644.615385 66.832237 644.923077 66.548163 645.230769 66.264115 645.538462 65.980096 645.846154 65.696103 646.153846 65.412138 646.461538 65.128200 646.769231 64.844289 647.076923 64.560404 647.384615 64.276547 647.692308 63.992715 648.000000 63.708910 648.307692 63.425132 648.615385 63.141379 648.923077 62.857653 649.230769 62.573952 649.538462 62.290277 649.846154 62.006627 650.153846 61.723003 650.461538 61.439404 650.769231 61.155830 651.076923 60.872281 651.384615 60.588757 651.692308 60.305258 652.000000 60.021783 652.307692 59.738333 652.615385 59.454907 652.923077 59.171505 653.230769 58.888128 653.538462 58.604774 653.846154 58.321443 654.153846 58.038137 654.461538 57.754854 654.769231 57.471594 655.076923 57.188357 655.384615 56.905143 655.692308 56.621953 656.000000 56.338785 656.307692 56.055639 656.615385 55.772517 656.923077 55.489416 657.230769 55.206338 657.538462 54.923282 657.846154 54.640247 658.153846 54.357235 658.461538 54.074244 658.769231 53.791275 659.076923 53.508327 659.384615 53.225400 659.692308 52.942494 660.000000 52.659609 660.307692 52.376746 660.615385 52.093902 660.923077 51.811080 661.230769 51.528278 661.538462 51.245496 661.846154 50.962734 662.153846 50.679992 662.461538 50.397270 662.769231 50.114568 663.076923 49.831885 663.384615 49.549222 663.692308 49.266577 664.000000 48.983953 664.307692 48.701347 664.615385 48.418760 664.923077 48.136192 665.230769 47.853642 665.538462 47.571111 665.846154 47.288598 666.153846 47.006103 666.461538 46.723627 666.769231 46.441168 667.076923 46.158727 667.384615 45.876304 667.692308 45.593898 668.000000 45.311509 668.307692 45.029138 668.615385 44.746784 668.923077 44.464447 669.230769 44.182126 669.538462 43.899822 669.846154 43.617535 670.153846 43.335264 670.461538 43.053009 670.769231 42.770771 671.076923 42.488548 671.384615 42.206341 671.692308 41.924150 672.000000 41.641974 672.307692 41.359814 672.615385 41.077669 672.923077 40.795540 673.230769 40.513425 673.538462 40.231325 673.846154 39.949240 674.153846 39.667169 674.461538 39.385113 674.769231 39.103071 675.076923 38.821043 675.384615 38.539029 675.692308 38.257029 676.000000 37.975043 676.307692 37.693071 676.615385 37.411112 676.923077 37.129166 677.230769 36.847233 677.538462 36.565314 677.846154 36.283407 678.153846 36.001514 678.461538 35.719632 678.769231 35.437764 679.076923 35.155907 679.384615 34.874063 679.692308 34.592231 680.000000 34.310411 680.307692 34.028603 680.615385 33.746806 680.923077 33.465021 681.230769 33.183247 681.538462 32.901484 681.846154 32.619733 682.153846 32.337993 682.461538 32.056263 682.769231 31.774544 683.076923 31.492836 683.384615 31.211138 683.692308 30.929450 684.000000 30.647772 684.307692 30.366105 684.615385 30.084447 684.923077 29.802799 685.230769 29.521160 685.538462 29.239531 685.846154 28.957912 686.153846 28.676301 686.461538 28.394700 686.769231 28.113107 687.076923 27.831523 687.384615 27.549948 687.692308 27.268381 688.000000 26.986822 688.307692 26.705272 688.615385 26.423730 688.923077 26.142195 689.230769 25.860669 689.538462 25.579150 689.846154 25.297639 690.153846 25.016134 690.461538 24.734638 690.769231 24.453148 691.076923 24.171665 691.384615 23.890189 691.692308 23.608719 692.000000 23.327257 692.307692 23.045800 692.615385 22.764350 692.923077 22.482906 693.230769 22.201467 693.538462 21.920035 693.846154 21.638608 694.153846 21.357187 694.461538 21.075772 694.769231 20.794361 695.076923 20.512956 695.384615 20.231556 695.692308 19.950160 696.000000 19.668770 696.307692 19.387384 696.615385 19.106002 696.923077 18.824624 697.230769 18.543251 697.538462 18.261882 697.846154 17.980517 698.153846 17.699155 698.461538 17.417797 698.769231 17.136443 699.076923 16.855092 699.384615 16.573744 699.692308 16.292399 700.000000 16.011057 700.307692 15.729718 700.615385 15.448381 700.923077 15.167047 701.230769 14.885715 701.538462 14.604386 701.846154 14.323058 702.153846 14.041733 702.461538 13.760409 702.769231 13.479087 703.076923 13.197767 703.384615 12.916448 703.692308 12.635130 704.000000 12.353813 704.307692 12.072497 704.615385 11.791182 704.923077 11.509868 705.230769 11.228554 705.538462 10.947241 705.846154 10.665928 706.153846 10.384615 706.153846 540.000000" /></g></g><g class="titles" /><g class="plot overlay" transform="translate(60, 20)"><g class="series serie-0 color-0"><g class="dots"><circle class="dot reactive tooltip-trigger" cx="13.846153846153847" cy="529.6153846153848" r="2.5" /><desc class="value">5,878,782,748(kWh)</desc><desc class="x top">13.846153846153847</desc><desc class="y top">529.6153846153848</desc><desc class="x_label">2549</desc></g><g class="dots"><circle class="dot reactive tooltip-trigger" cx="90.76923076923076" cy="447.78947178138776" r="2.5" /><desc class="value">6,157,224,929(kWh)</desc><desc class="x top">90.76923076923076</desc><desc class="y top">447.78947178138776</desc><desc class="x_label">2550</desc></g><g class="dots"><circle class="dot reactive tooltip-trigger" cx="167.69230769230765" cy="397.8495397014319" r="2.5" /><desc class="value">6,327,163,560(kWh)</desc><desc class="x top">167.69230769230765</desc><desc class="y top">397.8495397014319</desc><desc class="x_label">2551</desc></g><g class="dots"><circle class="dot reactive tooltip-trigger" cx="244.6153846153846" cy="407.34812694451307" r="2.5" /><desc class="value">6,294,841,191(kWh)</desc><desc class="x top">244.6153846153846</desc><desc class="y top">407.34812694451307</desc><desc class="x_label">2552</desc></g><g class="dots"><circle class="dot reactive tooltip-trigger" cx="321.5384615384615" cy="196.58945962253722" r="2.5" /><desc class="value">7,012,023,572(kWh)</desc><desc class="x ">321.5384615384615</desc><desc class="y ">196.58945962253722</desc><desc class="x_label">2553</desc></g><g class="dots"><circle class="dot reactive tooltip-trigger" cx="398.46153846153845" cy="219.4643229885108" r="2.5" /><desc class="value">6,934,183,599(kWh)</desc><desc class="x left">398.46153846153845</desc><desc class="y left">219.4643229885108</desc><desc class="x_label">2554</desc></g><g class="dots"><circle class="dot reactive tooltip-trigger" cx="475.38461538461536" cy="88.41195012989425" r="2.5" /><desc class="value">7,380,136,565(kWh)</desc><desc class="x left">475.38461538461536</desc><desc class="y left">88.41195012989425</desc><desc class="x_label">2555</desc></g><g class="dots"><circle class="dot reactive tooltip-trigger" cx="552.3076923076923" cy="118.78899899103357" r="2.5" /><desc class="value">7,276,767,700(kWh)</desc><desc class="x left">552.3076923076923</desc><desc class="y left">118.78899899103357</desc><desc class="x_label">2556</desc></g><g class="dots"><circle class="dot reactive tooltip-trigger" cx="629.2307692307692" cy="81.07426240687346" r="2.5" /><desc class="value">7,405,105,694(kWh)</desc><desc class="x left">629.2307692307692</desc><desc class="y left">81.07426240687346</desc><desc class="x_label">2557</desc></g><g class="dots"><circle class="dot reactive tooltip-trigger" cx="706.1538461538461" cy="10.384615384615358" r="2.5" /><desc class="value">7,645,652,714(kWh)</desc><desc class="x left">706.1538461538461</desc><desc class="y left">10.384615384615358</desc><desc class="x_label">2558</desc></g></g></g><g class="plot text-overlay" transform="translate(60, 20)"><g class="series serie-0 color-0" /></g><g class="plot tooltip-overlay" transform="translate(60, 20)"><g class="tooltip" style="opacity: 0" transform="translate(0 0)"><rect class="tooltip-box" height="0" rx="0" ry="0" width="0" /><g class="text" /></g></g></g></svg>