<?xml version='1.0' encoding='utf-8'?>
<svg xmlns:xlink="http://www.w3.org/1999/xlink" class="pygal-chart" id="chart-cd1e0746-f2c0-40c7-b40b-0a4d08dc0312" viewBox="0 0 800 600" xmlns="http://www.w3.org/2000/svg"><!--Generated with pygal 2.3.0 (etree) ©Kozea 2012-2016 on 2016-12-08--><!--http://pygal.org--><!--http://github.com/Kozea/pygal--><defs><style type="text/css">#chart-cd1e0746-f2c0-40c7-b40b-0a4d08dc0312{-webkit-user-select:none;-webkit-font-smoothing:antialiased;font-family:Consolas,"Liberation Mono",Menlo,Courier,monospace}#chart-cd1e0746-f2c0-40c7-b40b-0a4d08dc0312 .title{font-family:Consolas,"Liberation Mono",Menlo,Courier,monospace;font-size:16px}#chart-cd1e0746-f2c0-40c7-b40b-0a4d08dc0312 .legends .legend text{font-family:Consolas,"Liberation Mono",Menlo,Courier,monospace;font-size:14px}#chart-cd1e0746-f2c0-40c7-b40b-0a4d08dc0312 .axis text{font-family:Consolas,"Liberation Mono",Menlo,Courier,monospace;font-size:10px}#chart-cd1e0746-f2c0-40c7-b40b-0a4d08dc0312 .axis text.major{font-family:Consolas,"Liberation Mono",Menlo,Courier,monospace;font-size:10px}#chart-cd1e0746-f2c0-40c7-b40b-0a4d08dc0312 .text-overlay text.value{font-family:Consolas,"Liberation Mono",Menlo,Courier,monospace;font-size:16px}#chart-cd1e0746-f2c0-40c7-b40b-0a4d08dc0312 .text-overlay text.label{font-family:Consolas,"Liberation Mono",Menlo,Courier,monospace;font-size:10px}#chart-cd1e0746-f2c0-40c7-b40b-0a4d08dc0312 .tooltip{font-family:Consolas,"Liberation Mono",Menlo,Courier,monospace;font-size:14px}#chart-cd1e0746-f2c0-40c7-b40b-0a4d08dc0312 text.no_data{font-family:Consolas,"Liberation Mono",Menlo,Courier,monospace;font-size:64px}
#chart-cd1e0746-f2c0-40c7-b40b-0a4d08dc0312{background-color:rgba(249,249,249,1)}#chart-cd1e0746-f2c0-40c7-b40b-0a4d08dc0312 path,#chart-cd1e0746-f2c0-40c7-b40b-0a4d08dc0312 line,#chart-cd1e0746-f2c0-40c7-b40b-0a4d08dc0312 rect,#chart-cd1e0746-f2c0-40c7-b40b-0a4d08dc0312 circle{-webkit-transition:150ms;-moz-transition:150ms;transition:150ms}#chart-cd1e0746-f2c0-40c7-b40b-0a4d08dc0312 .graph &gt; .background{fill:rgba(249,249,249,1)}#chart-cd1e0746-f2c0-40c7-b40b-0a4d08dc0312 .plot &gt; .background{fill:rgba(255,255,255,1)}#chart-cd1e0746-f2c0-40c7-b40b-0a4d08dc0312 .graph{fill:rgba(0,0,0,.87)}#chart-cd1e0746-f2c0-40c7-b40b-0a4d08dc0312 text.no_data{fill:rgba(0,0,0,1)}#chart-cd1e0746-f2c0-40c7-b40b-0a4d08dc0312 .title{fill:rgba(0,0,0,1)}#chart-cd1e0746-f2c0-40c7-b40b-0a4d08dc0312 .legends .legend text{fill:rgba(0,0,0,.87)}#chart-cd1e0746-f2c0-40c7-b40b-0a4d08dc0312 .legends .legend:hover text{fill:rgba(0,0,0,1)}#chart-cd1e0746-f2c0-40c7-b40b-0a4d08dc0312 .axis .line{stroke:rgba(0,0,0,1)}#chart-cd1e0746-f2c0-40c7-b40b-0a4d08dc0312 .axis .guide.line{stroke:rgba(0,0,0,.54)}#chart-cd1e0746-f2c0-40c7-b40b-0a4d08dc0312 .axis .major.line{stroke:rgba(0,0,0,.87)}#chart-cd1e0746-f2c0-40c7-b40b-0a4d08dc0312 .axis text.major{fill:rgba(0,0,0,1)}#chart-cd1e0746-f2c0-40c7-b40b-0a4d08dc0312 .axis.y .guides:hover .guide.line,#chart-cd1e0746-f2c0-40c7-b40b-0a4d08dc0312 .line-graph .axis.x .guides:hover .guide.line,#chart-cd1e0746-f2c0-40c7-b40b-0a4d08dc0312 .stackedline-graph .axis.x .guides:hover .guide.line,#chart-cd1e0746-f2c0-40c7-b40b-0a4d08dc0312 .xy-graph .axis.x .guides:hover .guide.line{stroke:rgba(0,0,0,1)}#chart-cd1e0746-f2c0-40c7-b40b-0a4d08dc0312 .axis .guides:hover text{fill:rgba(0,0,0,1)}#chart-cd1e0746-f2c0-40c7-b40b-0a4d08dc0312 .reactive{fill-opacity:.7;stroke-opacity:.8}#chart-cd1e0746-f2c0-40c7-b40b-0a4d08dc0312 .ci{stroke:rgba(0,0,0,.87)}#chart-cd1e0746-f2c0-40c7-b40b-0a4d08dc0312 .reactive.active,#chart-cd1e0746-f2c0-40c7-b40b-0a4d08dc0312 .active .reactive{fill-opacity:.8;stroke-opacity:.9;stroke-width:4}#chart-cd1e0746-f2c0-40c7-b40b-0a4d08dc0312 .ci .reactive.active{stroke-width:1.5}#chart-cd1e0746-f2c0-40c7-b40b-0a4d08dc0312 .series text{fill:rgba(0,0,0,1)}#chart-cd1e0746-f2c0-40c7-b40b-0a4d08dc0312 .tooltip rect{fill:rgba(255,255,255,1);stroke:rgba(0,0,0,1);-webkit-transition:opacity 150ms;-moz-transition:opacity 150ms;transition:opacity 150ms}#chart-cd1e0746-f2c0-40c7-b40b-0a4d08dc0312 .tooltip .label{fill:rgba(0,0,0,.87)}#chart-cd1e0746-f2c0-40c7-b40b-0a4d08dc0312 .tooltip .label{fill:rgba(0,0,0,.87)}#chart-cd1e0746-f2c0-40c7-b40b-0a4d08dc0312 .tooltip .legend{font-size:.8em;fill:rgba(0,0,0,.54)}#chart-cd1e0746-f2c0-40c7-b40b-0a4d08dc0312 .tooltip .x_label{font-size:.6em;fill:rgba(0,0,0,1)}#chart-cd1e0746-f2c0-40c7-b40b-0a4d08dc0312 .tooltip .xlink{font-size:.5em;text-decoration:underline}#chart-cd1e0746-f2c0-40c7-b40b-0a4d08dc0312 .tooltip .value{font-size:1.5em}#chart-cd1e0746-f2c0-40c7-b40b-0a4d08dc0312 .bound{font-size:.5em}#chart-cd1e0746-f2c0-40c7-b40b-0a4d08dc0312 .max-value{font-size:.75em;fill:rgba(0,0,0,.54)}#chart-cd1e0746-f2c0-40c7-b40b-0a4d08dc0312 .map-element{fill:rgba(255,255,255,1);stroke:rgba(0,0,0,.54) !important}#chart-cd1e0746-f2c0-40c7-b40b-0a4d08dc0312 .map-element .reactive{fill-opacity:inherit;stroke-opacity:inherit}#chart-cd1e0746-f2c0-40c7-b40b-0a4d08dc0312 .color-0,#chart-cd1e0746-f2c0-40c7-b40b-0a4d08dc0312 .color-0 a:visited{stroke:#e86fa0;fill:#e86fa0}#chart-cd1e0746-f2c0-40c7-b40b-0a4d08dc0312 .text-overlay .color-0 text{fill:black}
#chart-cd1e0746-f2c0-40c7-b40b-0a4d08dc0312 text.no_data{text-anchor:middle}#chart-cd1e0746-f2c0-40c7-b40b-0a4d08dc0312 .guide.line{fill:none}#chart-cd1e0746-f2c0-40c7-b40b-0a4d08dc0312 .centered{text-anchor:middle}#chart-cd1e0746-f2c0-40c7-b40b-0a4d08dc0312 .title{text-anchor:middle}#chart-cd1e0746-f2c0-40c7-b40b-0a4d08dc0312 .legends .legend text{fill-opacity:1}#chart-cd1e0746-f2c0-40c7-b40b-0a4d08dc0312 .axis.x text{text-anchor:middle}#chart-cd1e0746-f2c0-40c7-b40b-0a4d08dc0312 .axis.x:not(.web) text[transform]{text-anchor:start}#chart-cd1e0746-f2c0-40c7-b40b-0a4d08dc0312 .axis.x:not(.web) text[transform].backwards{text-anchor:end}#chart-cd1e0746-f2c0-40c7-b40b-0a4d08dc0312 .axis.y text{text-anchor:end}#chart-cd1e0746-f2c0-40c7-b40b-0a4d08dc0312 .axis.y text[transform].backwards{text-anchor:start}#chart-cd1e0746-f2c0-40c7-b40b-0a4d08dc0312 .axis.y2 text{text-anchor:start}#chart-cd1e0746-f2c0-40c7-b40b-0a4d08dc0312 .axis.y2 text[transform].backwards{text-anchor:end}#chart-cd1e0746-f2c0-40c7-b40b-0a4d08dc0312 .axis .guide.line{stroke-dasharray:4,4}#chart-cd1e0746-f2c0-40c7-b40b-0a4d08dc0312 .axis .major.guide.line{stroke-dasharray:6,6}#chart-cd1e0746-f2c0-40c7-b40b-0a4d08dc0312 .horizontal .axis.y .guide.line,#chart-cd1e0746-f2c0-40c7-b40b-0a4d08dc0312 .horizontal .axis.y2 .guide.line,#chart-cd1e0746-f2c0-40c7-b40b-0a4d08dc0312 .vertical .axis.x .guide.line{opacity:0}#chart-cd1e0746-f2c0-40c7-b40b-0a4d08dc0312 .horizontal .axis.always_show .guide.line,#chart-cd1e0746-f2c0-40c7-b40b-0a4d08dc0312 .vertical .axis.always_show .guide.line{opacity:1 !important}#chart-cd1e0746-f2c0-40c7-b40b-0a4d08dc0312 .axis.y .guides:hover .guide.line,#chart-cd1e0746-f2c0-40c7-b40b-0a4d08dc0312 .axis.y2 .guides:hover .guide.line,#chart-cd1e0746-f2c0-40c7-b40b-0a4d08dc0312 .axis.x .guides:hover .guide.line{opacity:1}#chart-cd1e0746-f2c0-40c7-b40b-0a4d08dc0312 .axis .guides:hover text{opacity:1}#chart-cd1e0746-f2c0-40c7-b40b-0a4d08dc0312 .nofill{fill:none}#chart-cd1e0746-f2c0-40c7-b40b-0a4d08dc0312 .subtle-fill{fill-opacity:.2}#chart-cd1e0746-f2c0-40c7-b40b-0a4d08dc0312 .dot{stroke-width:1px;fill-opacity:1}#chart-cd1e0746-f2c0-40c7-b40b-0a4d08dc0312 .dot.active{stroke-width:5px}#chart-cd1e0746-f2c0-40c7-b40b-0a4d08dc0312 .dot.negative{fill:transparent}#chart-cd1e0746-f2c0-40c7-b40b-0a4d08dc0312 text,#chart-cd1e0746-f2c0-40c7-b40b-0a4d08dc0312 tspan{stroke:none !important}#chart-cd1e0746-f2c0-40c7-b40b-0a4d08dc0312 .series text.active{opacity:1}#chart-cd1e0746-f2c0-40c7-b40b-0a4d08dc0312 .tooltip rect{fill-opacity:.95;stroke-width:.5}#chart-cd1e0746-f2c0-40c7-b40b-0a4d08dc0312 .tooltip text{fill-opacity:1}#chart-cd1e0746-f2c0-40c7-b40b-0a4d08dc0312 .showable{visibility:hidden}#chart-cd1e0746-f2c0-40c7-b40b-0a4d08dc0312 .showable.shown{visibility:visible}#chart-cd1e0746-f2c0-40c7-b40b-0a4d08dc0312 .gauge-background{fill:rgba(229,229,229,1);stroke:none}#chart-cd1e0746-f2c0-40c7-b40b-0a4d08dc0312 .bg-lines{stroke:rgba(249,249,249,1);stroke-width:2px}</style><script type="text/javascript">window.pygal = window.pygal || {};window.pygal.config = window.pygal.config || {};window.pygal.config['cd1e0746-f2c0-40c7-b40b-0a4d08dc0312'] = {"no_data_text": "No data", "no_prefix": false, "xrange": null, "print_values_position": "center", "truncate_label": null, "x_labels": ["2549", "2550", "2551", "2552", "2553", "2554", "2555", "2556", "2557", "2558"], "title": null, "force_uri_protocol": "https", "defs": [], "formatter": null, "classes": ["pygal-chart"], "y_labels": null, "rounded_bars": null, "explicit_size": false, "x_labels_major_every": null, "legend_at_bottom_columns": null, "stroke_style": null, "half_pie": false, "spacing": 10, "tooltip_fancy_mode": true, "inverse_y_axis": false, "width": 800, "inner_radius": 0, "interpolation_parameters": {}, "tooltip_border_radius": 0, "style": {"no_data_font_family": "Consolas, \"Liberation Mono\", Menlo, Courier, monospace", "tooltip_font_size": 14, "tooltip_font_family": "Consolas, \"Liberation Mono\", Menlo, Courier, monospace", "stroke_opacity_hover": ".9", "legend_font_family": "Consolas, \"Liberation Mono\", Menlo, Courier, monospace", "font_family": "Consolas, \"Liberation Mono\", Menlo, Courier, monospace", "title_font_family": "Consolas, \"Liberation Mono\", Menlo, Courier, monospace", "background": "rgba(249, 249, 249, 1)", "stroke_opacity": ".8", "foreground": "rgba(0, 0, 0, .87)", "value_background": "rgba(229, 229, 229, 1)", "guide_stroke_dasharray": "4,4", "foreground_subtle": "rgba(0, 0, 0, .54)", "opacity_hover": ".8", "value_font_family": "Consolas, \"Liberation Mono\", Menlo, Courier, monospace", "value_label_font_size": 10, "plot_background": "rgba(255, 255, 255, 1)", "ci_colors": [], "label_font_size": 10, "major_label_font_size": 10, "title_font_size": 16, "no_data_font_size": 64, "value_font_size": 16, "value_colors": [], "label_font_family": "Consolas, \"Liberation Mono\", Menlo, Courier, monospace", "major_guide_stroke_dasharray": "6,6", "transition": "150ms", "foreground_strong": "rgba(0, 0, 0, 1)", "colors": ["#e86fa0", "#e88f6f", "#e8df6f", "#a0e86f", "#6fe88f", "#6fe8df", "#6fa0e8", "#8f6fe8", "#df6fe8", "#e86fa0"], "opacity": ".7", "legend_font_size": 14, "value_label_font_family": "Consolas, \"Liberation Mono\", Menlo, Courier, monospace", "major_label_font_family": "Consolas, \"Liberation Mono\", Menlo, Courier, monospace"}, "x_labels_major_count": null, "interpolation_precision": 250, "missing_value_fill_truncation": "x", "stack_from_top": false, "truncate_legend": null, "show_minor_x_labels": true, "print_zeroes": true, "css": ["file://style.css", "file://graph.css"], "y_label_rotation": 0, "legend_at_bottom": false, "print_values": false, "margin_top": null, "max_scale": 16, "allow_interruptions": false, "show_x_labels": true, "strict": false, "show_x_guides": false, "stroke": true, "margin_left": null, "dynamic_print_values": false, "print_labels": false, "show_y_labels": true, "x_labels_major": null, "range": null, "x_label_rotation": 0, "margin": 20, "zero": 0, "include_x_axis": false, "height": 600, "show_minor_y_labels": true, "show_dots": true, "interpolate": "cubic", "show_y_guides": true, "y_labels_major": null, "box_mode": "extremes", "margin_bottom": null, "order_min": null, "legend_box_size": 12, "fill": true, "show_only_major_dots": false, "js": ["//kozea.github.io/pygal.js/2.0.x/pygal-tooltips.min.js"], "x_title": null, "y_labels_major_every": null, "y_labels_major_count": null, "disable_xml_declaration": false, "y_title": null, "logarithmic": false, "pretty_print": false, "min_scale": 4, "dots_size": 2.5, "margin_right": null, "legends": [null], "secondary_range": null, "show_legend": false}</script><script type="text/javascript" xlink:href="https://kozea.github.io/pygal.js/2.0.x/pygal-tooltips.min.js" /></defs><title>Pygal</title><g class="graph stackedline-graph vertical"><rect class="background" height="600" width="800" x="0" y="0" /><g class="plot" transform="translate(54, 20)"><rect class="background" height="540" width="726.0" x="0" y="0" /><g class="axis y"><path class="line" d="M0.000000 540.000000 h726.000000" /><g class="guides"><path class="major guide line" d="M0.000000 515.567805 h726.000000" /><text class="major" x="-5" y="519.0678047236837">300M</text><title>300M</title></g><g class="guides"><path class="guide line" d="M0.000000 466.698753 h726.000000" /><text class="" x="-5" y="470.1987532363963">320M</text><title>320M</title></g><g class="guides"><path class="guide line" d="M0.000000 417.829702 h726.000000" /><text class="" x="-5" y="421.32970174910906">340M</text><title>340M</title></g><g class="guides"><path class="guide line" d="M0.000000 368.960650 h726.000000" /><text class="" x="-5" y="372.4606502618218">360M</text><title>360M</title></g><g class="guides"><path class="guide line" d="M0.000000 320.091599 h726.000000" /><text class="" x="-5" y="323.5915987745345">380M</text><title>380M</title></g><g class="guides"><path class="major guide line" d="M0.000000 271.222547 h726.000000" /><text class="major" x="-5" y="274.72254728724715">400M</text><title>400M</title></g><g class="guides"><path class="guide line" d="M0.000000 222.353496 h726.000000" /><text class="" x="-5" y="225.8534957999599">420M</text><title>420M</title></g><g class="guides"><path class="guide line" d="M0.000000 173.484444 h726.000000" /><text class="" x="-5" y="176.98444431267257">440M</text><title>440M</title></g><g class="guides"><path class="guide line" d="M0.000000 124.615393 h726.000000" /><text class="" x="-5" y="128.1153928253853">460M</text><title>460M</title></g><g class="guides"><path class="guide line" d="M0.000000 75.746341 h726.000000" /><text class="" x="-5" y="79.24634133809798">480M</text><title>480M</title></g><g class="guides"><path class="major guide line" d="M0.000000 26.877290 h726.000000" /><text class="major" x="-5" y="30.377289850810712">500M</text><title>500M</title></g></g><g class="axis x"><g class="guides"><path class="line" d="M13.961538 0.000000 v540.000000" /><text class="" x="13.96153846153846" y="555.0">2549</text></g><g class="guides"><path class="guide line" d="M91.525641 0.000000 v540.000000" /><text class="" x="91.52564102564101" y="555.0">2550</text></g><g class="guides"><path class="guide line" d="M169.089744 0.000000 v540.000000" /><text class="" x="169.08974358974356" y="555.0">2551</text></g><g class="guides"><path class="guide line" d="M246.653846 0.000000 v540.000000" /><text class="" x="246.65384615384613" y="555.0">2552</text></g><g class="guides"><path class="guide line" d="M324.217949 0.000000 v540.000000" /><text class="" x="324.21794871794873" y="555.0">2553</text></g><g class="guides"><path class="guide line" d="M401.782051 0.000000 v540.000000" /><text class="" x="401.78205128205127" y="555.0">2554</text></g><g class="guides"><path class="guide line" d="M479.346154 0.000000 v540.000000" /><text class="" x="479.3461538461538" y="555.0">2555</text></g><g class="guides"><path class="guide line" d="M556.910256 0.000000 v540.000000" /><text class="" x="556.9102564102565" y="555.0">2556</text></g><g class="guides"><path class="guide line" d="M634.474359 0.000000 v540.000000" /><text class="" x="634.474358974359" y="555.0">2557</text></g><g class="guides"><path class="guide line" d="M712.038462 0.000000 v540.000000" /><text class="" x="712.0384615384615" y="555.0">2558</text></g></g><g class="series serie-0 color-0"><path class="line reactive" d="M13.961538 540.000000 L13.961538 529.615385 14.271795 529.434197 14.582051 529.253011 14.892308 529.071826 15.202564 528.890645 15.512821 528.709468 15.823077 528.528296 16.133333 528.347130 16.443590 528.165972 16.753846 527.984821 17.064103 527.803681 17.374359 527.622550 17.684615 527.441431 17.994872 527.260324 18.305128 527.079231 18.615385 526.898152 18.925641 526.717089 19.235897 526.536043 19.546154 526.355014 19.856410 526.174004 20.166667 525.993013 20.476923 525.812043 20.787179 525.631095 21.097436 525.450170 21.407692 525.269268 21.717949 525.088392 22.028205 524.907541 22.338462 524.726718 22.648718 524.545922 22.958974 524.365155 23.269231 524.184419 23.579487 524.003713 23.889744 523.823040 24.200000 523.642399 24.510256 523.461793 24.820513 523.281223 25.130769 523.100688 25.441026 522.920191 25.751282 522.739732 26.061538 522.559313 26.371795 522.378934 26.682051 522.198596 26.992308 522.018301 27.302564 521.838049 27.612821 521.657842 27.923077 521.477681 28.233333 521.297566 28.543590 521.117499 28.853846 520.937481 29.164103 520.757512 29.474359 520.577595 29.784615 520.397729 30.094872 520.217916 30.405128 520.038156 30.715385 519.858452 31.025641 519.678804 31.335897 519.499213 31.646154 519.319679 31.956410 519.140205 32.266667 518.960791 32.576923 518.781438 32.887179 518.602148 33.197436 518.422920 33.507692 518.243757 33.817949 518.064659 34.128205 517.885627 34.438462 517.706663 34.748718 517.527767 35.058974 517.348941 35.369231 517.170185 35.679487 516.991501 35.989744 516.812889 36.300000 516.634351 36.610256 516.455887 36.920513 516.277499 37.230769 516.099188 37.541026 515.920955 37.851282 515.742800 38.161538 515.564725 38.471795 515.386731 38.782051 515.208819 39.092308 515.030990 39.402564 514.853245 39.712821 514.675584 40.023077 514.498010 40.333333 514.320523 40.643590 514.143124 40.953846 513.965814 41.264103 513.788594 41.574359 513.611466 41.884615 513.434429 42.194872 513.257486 42.505128 513.080638 42.815385 512.903884 43.125641 512.727227 43.435897 512.550668 43.746154 512.374207 44.056410 512.197845 44.366667 512.021584 44.676923 511.845425 44.987179 511.669368 45.297436 511.493415 45.607692 511.317567 45.917949 511.141824 46.228205 510.966188 46.538462 510.790660 46.848718 510.615241 47.158974 510.439931 47.469231 510.264732 47.779487 510.089646 48.089744 509.914672 48.400000 509.739813 48.710256 509.565068 49.020513 509.390440 49.330769 509.215928 49.641026 509.041535 49.951282 508.867261 50.261538 508.693107 50.571795 508.519075 50.882051 508.345165 51.192308 508.171378 51.502564 507.997715 51.812821 507.824178 52.123077 507.650768 52.433333 507.477485 52.743590 507.304330 53.053846 507.131305 53.364103 506.958411 53.674359 506.785648 53.984615 506.613018 54.294872 506.440522 54.605128 506.268160 54.915385 506.095934 55.225641 505.923845 55.535897 505.751894 55.846154 505.580082 56.156410 505.408409 56.466667 505.236878 56.776923 505.065488 57.087179 504.894242 57.397436 504.723140 57.707692 504.552183 58.017949 504.381372 58.328205 504.210708 58.638462 504.040192 58.948718 503.869826 59.258974 503.699610 59.569231 503.529545 59.879487 503.359633 60.189744 503.189874 60.500000 503.020269 60.810256 502.850820 61.120513 502.681528 61.430769 502.512393 61.741026 502.343416 62.051282 502.174600 62.361538 502.005944 62.671795 501.837449 62.982051 501.669117 63.292308 501.500950 63.602564 501.332946 63.912821 501.165109 64.223077 500.997439 64.533333 500.829936 64.843590 500.662603 65.153846 500.495439 65.464103 500.328447 65.774359 500.161626 66.084615 499.994979 66.394872 499.828506 66.705128 499.662208 67.015385 499.496086 67.325641 499.330141 67.635897 499.164375 67.946154 498.998788 68.256410 498.833381 68.566667 498.668156 68.876923 498.503113 69.187179 498.338254 69.497436 498.173579 69.807692 498.009090 70.117949 497.844787 70.428205 497.680672 70.738462 497.516745 71.048718 497.353008 71.358974 497.189462 71.669231 497.026108 71.979487 496.862946 72.289744 496.699979 72.600000 496.537206 72.910256 496.374629 73.220513 496.212249 73.530769 496.050067 73.841026 495.888083 74.151282 495.726300 74.461538 495.564719 74.771795 495.403339 75.082051 495.242162 75.392308 495.081190 75.702564 494.920422 76.012821 494.759861 76.323077 494.599508 76.633333 494.439362 76.943590 494.279426 77.253846 494.119701 77.564103 493.960187 77.874359 493.800885 78.184615 493.641797 78.494872 493.482924 78.805128 493.324266 79.115385 493.165824 79.425641 493.007601 79.735897 492.849596 80.046154 492.691811 80.356410 492.534246 80.666667 492.376904 80.976923 492.219784 81.287179 492.062888 81.597436 491.906217 81.907692 491.749772 82.217949 491.593554 82.528205 491.437564 82.838462 491.281803 83.148718 491.126272 83.458974 490.970973 83.769231 490.815905 84.079487 490.661071 84.389744 490.506471 84.700000 490.352106 85.010256 490.197978 85.320513 490.044087 85.630769 489.890434 85.941026 489.737021 86.251282 489.583848 86.561538 489.430917 86.871795 489.278228 87.182051 489.125783 87.492308 488.973583 87.802564 488.821628 88.112821 488.669920 88.423077 488.518459 88.733333 488.367248 89.043590 488.216286 89.353846 488.065575 89.664103 487.915116 89.974359 487.764910 90.284615 487.614957 90.594872 487.465260 90.905128 487.315819 91.215385 487.166634 91.525641 487.017708 91.835897 486.869041 92.146154 486.720631 92.456410 486.572479 92.766667 486.424582 93.076923 486.276939 93.387179 486.129549 93.697436 485.982412 94.007692 485.835525 94.317949 485.688888 94.628205 485.542499 94.938462 485.396357 95.248718 485.250462 95.558974 485.104811 95.869231 484.959404 96.179487 484.814240 96.489744 484.669317 96.800000 484.524633 97.110256 484.380189 97.420513 484.235983 97.730769 484.092013 98.041026 483.948278 98.351282 483.804778 98.661538 483.661510 98.971795 483.518475 99.282051 483.375669 99.592308 483.233094 99.902564 483.090746 100.212821 482.948626 100.523077 482.806731 100.833333 482.665061 101.143590 482.523614 101.453846 482.382390 101.764103 482.241387 102.074359 482.100603 102.384615 481.960038 102.694872 481.819691 103.005128 481.679560 103.315385 481.539645 103.625641 481.399943 103.935897 481.260454 104.246154 481.121176 104.556410 480.982109 104.866667 480.843251 105.176923 480.704601 105.487179 480.566158 105.797436 480.427920 106.107692 480.289887 106.417949 480.152057 106.728205 480.014429 107.038462 479.877002 107.348718 479.739774 107.658974 479.602745 107.969231 479.465914 108.279487 479.329278 108.589744 479.192837 108.900000 479.056590 109.210256 478.920536 109.520513 478.784673 109.830769 478.649000 110.141026 478.513516 110.451282 478.378220 110.761538 478.243110 111.071795 478.108186 111.382051 477.973446 111.692308 477.838889 112.002564 477.704513 112.312821 477.570319 112.623077 477.436304 112.933333 477.302467 113.243590 477.168807 113.553846 477.035323 113.864103 476.902014 114.174359 476.768878 114.484615 476.635914 114.794872 476.503122 115.105128 476.370499 115.415385 476.238046 115.725641 476.105760 116.035897 475.973640 116.346154 475.841685 116.656410 475.709894 116.966667 475.578267 117.276923 475.446800 117.587179 475.315494 117.897436 475.184348 118.207692 475.053359 118.517949 474.922527 118.828205 474.791851 119.138462 474.661330 119.448718 474.530961 119.758974 474.400745 120.069231 474.270680 120.379487 474.140764 120.689744 474.010997 121.000000 473.881377 121.310256 473.751903 121.620513 473.622575 121.930769 473.493390 122.241026 473.364347 122.551282 473.235446 122.861538 473.106686 123.171795 472.978064 123.482051 472.849580 123.792308 472.721232 124.102564 472.593020 124.412821 472.464943 124.723077 472.336998 125.033333 472.209185 125.343590 472.081503 125.653846 471.953951 125.964103 471.826526 126.274359 471.699229 126.584615 471.572058 126.894872 471.445011 127.205128 471.318088 127.515385 471.191288 127.825641 471.064608 128.135897 470.938049 128.446154 470.811608 128.756410 470.685285 129.066667 470.559078 129.376923 470.432987 129.687179 470.307009 129.997436 470.181145 130.307692 470.055392 130.617949 469.929749 130.928205 469.804216 131.238462 469.678791 131.548718 469.553473 131.858974 469.428260 132.169231 469.303152 132.479487 469.178147 132.789744 469.053245 133.100000 468.928443 133.410256 468.803741 133.720513 468.679138 134.030769 468.554632 134.341026 468.430222 134.651282 468.305907 134.961538 468.181686 135.271795 468.057558 135.582051 467.933521 135.892308 467.809575 136.202564 467.685717 136.512821 467.561947 136.823077 467.438264 137.133333 467.314667 137.443590 467.191153 137.753846 467.067723 138.064103 466.944375 138.374359 466.821107 138.684615 466.697919 138.994872 466.574810 139.305128 466.451777 139.615385 466.328821 139.925641 466.205939 140.235897 466.083131 140.546154 465.960395 140.856410 465.837730 141.166667 465.715136 141.476923 465.592610 141.787179 465.470152 142.097436 465.347761 142.407692 465.225434 142.717949 465.103172 143.028205 464.980973 143.338462 464.858835 143.648718 464.736758 143.958974 464.614740 144.269231 464.492780 144.579487 464.370877 144.889744 464.249030 145.200000 464.127238 145.510256 464.005499 145.820513 463.883812 146.130769 463.762176 146.441026 463.640590 146.751282 463.519052 147.061538 463.397562 147.371795 463.276119 147.682051 463.154720 147.992308 463.033365 148.302564 462.912053 148.612821 462.790782 148.923077 462.669551 149.233333 462.548360 149.543590 462.427206 149.853846 462.306090 150.164103 462.185008 150.474359 462.063962 150.784615 461.942948 151.094872 461.821966 151.405128 461.701015 151.715385 461.580094 152.025641 461.459201 152.335897 461.338335 152.646154 461.217495 152.956410 461.096680 153.266667 460.975889 153.576923 460.855120 153.887179 460.734372 154.197436 460.613645 154.507692 460.492936 154.817949 460.372245 155.128205 460.251571 155.438462 460.130911 155.748718 460.010266 156.058974 459.889634 156.369231 459.769014 156.679487 459.648404 156.989744 459.527804 157.300000 459.407211 157.610256 459.286626 157.920513 459.166047 158.230769 459.045472 158.541026 458.924900 158.851282 458.804331 159.161538 458.683763 159.471795 458.563195 159.782051 458.442625 160.092308 458.322053 160.402564 458.201477 160.712821 458.080896 161.023077 457.960309 161.333333 457.839715 161.643590 457.719112 161.953846 457.598500 162.264103 457.477877 162.574359 457.357242 162.884615 457.236593 163.194872 457.115930 163.505128 456.995252 163.815385 456.874557 164.125641 456.753843 164.435897 456.633111 164.746154 456.512358 165.056410 456.391584 165.366667 456.270787 165.676923 456.149966 165.987179 456.029119 166.297436 455.908247 166.607692 455.787347 166.917949 455.666418 167.228205 455.545460 167.538462 455.424470 167.848718 455.303448 168.158974 455.182393 168.469231 455.061303 168.779487 454.940177 169.089744 454.819014 169.400000 454.697812 169.710256 454.576563 170.020513 454.455259 170.330769 454.333890 170.641026 454.212450 170.951282 454.090928 171.261538 453.969317 171.571795 453.847607 171.882051 453.725791 172.192308 453.603860 172.502564 453.481804 172.812821 453.359617 173.123077 453.237288 173.433333 453.114810 173.743590 452.992174 174.053846 452.869371 174.364103 452.746393 174.674359 452.623232 174.984615 452.499878 175.294872 452.376323 175.605128 452.252558 175.915385 452.128576 176.225641 452.004367 176.535897 451.879923 176.846154 451.755236 177.156410 451.630296 177.466667 451.505095 177.776923 451.379625 178.087179 451.253877 178.397436 451.127842 178.707692 451.001513 179.017949 450.874879 179.328205 450.747934 179.638462 450.620668 179.948718 450.493073 180.258974 450.365139 180.569231 450.236860 180.879487 450.108225 181.189744 449.979227 181.500000 449.849856 181.810256 449.720105 182.120513 449.589965 182.430769 449.459427 182.741026 449.328483 183.051282 449.197124 183.361538 449.065341 183.671795 448.933126 183.982051 448.800471 184.292308 448.667366 184.602564 448.533804 184.912821 448.399775 185.223077 448.265272 185.533333 448.130285 185.843590 447.994807 186.153846 447.858827 186.464103 447.722339 186.774359 447.585333 187.084615 447.447801 187.394872 447.309734 187.705128 447.171123 188.015385 447.031961 188.325641 446.892238 188.635897 446.751947 188.946154 446.611077 189.256410 446.469622 189.566667 446.327572 189.876923 446.184918 190.187179 446.041653 190.497436 445.897768 190.807692 445.753253 191.117949 445.608101 191.428205 445.462303 191.738462 445.315850 192.048718 445.168734 192.358974 445.020946 192.669231 444.872478 192.979487 444.723321 193.289744 444.573467 193.600000 444.422906 193.910256 444.271631 194.220513 444.119633 194.530769 443.966904 194.841026 443.813434 195.151282 443.659215 195.461538 443.504239 195.771795 443.348496 196.082051 443.191980 196.392308 443.034680 196.702564 442.876589 197.012821 442.717697 197.323077 442.557997 197.633333 442.397479 197.943590 442.236136 198.253846 442.073958 198.564103 441.910937 198.874359 441.747065 199.184615 441.582333 199.494872 441.416731 199.805128 441.250253 200.115385 441.082889 200.425641 440.914630 200.735897 440.745469 201.046154 440.575396 201.356410 440.404403 201.666667 440.232481 201.976923 440.059623 202.287179 439.885818 202.597436 439.711059 202.907692 439.535338 203.217949 439.358645 203.528205 439.180972 203.838462 439.002310 204.148718 438.822652 204.458974 438.641987 204.769231 438.460309 205.079487 438.277608 205.389744 438.093875 205.700000 437.909102 206.010256 437.723282 206.320513 437.536404 206.630769 437.348460 206.941026 437.159442 207.251282 436.969342 207.561538 436.778150 207.871795 436.585858 208.182051 436.392459 208.492308 436.197942 208.802564 436.002299 209.112821 435.805523 209.423077 435.607604 209.733333 435.408533 210.043590 435.208303 210.353846 435.006905 210.664103 434.804329 210.974359 434.600569 211.284615 434.395614 211.594872 434.189457 211.905128 433.982088 212.215385 433.773500 212.525641 433.563684 212.835897 433.352630 213.146154 433.140332 213.456410 432.926779 213.766667 432.711964 214.076923 432.495878 214.387179 432.278512 214.697436 432.059858 215.007692 431.839908 215.317949 431.618652 215.628205 431.396082 215.938462 431.172189 216.248718 430.946966 216.558974 430.720403 216.869231 430.492492 217.179487 430.263225 217.489744 430.032592 217.800000 429.800585 218.110256 429.567196 218.420513 429.332416 218.730769 429.096237 219.041026 428.858649 219.351282 428.619645 219.661538 428.379216 219.971795 428.137353 220.282051 427.894048 220.592308 427.649292 220.902564 427.403076 221.212821 427.155393 221.523077 426.906232 221.833333 426.655587 222.143590 426.403448 222.453846 426.149807 222.764103 425.894656 223.074359 425.637984 223.384615 425.379785 223.694872 425.120050 224.005128 424.858769 224.315385 424.595935 224.625641 424.331539 224.935897 424.065572 225.246154 423.798025 225.556410 423.528891 225.866667 423.258161 226.176923 422.985825 226.487179 422.711876 226.797436 422.436305 227.107692 422.159103 227.417949 421.880262 227.728205 421.599773 228.038462 421.317628 228.348718 421.033818 228.658974 420.748335 228.969231 420.461169 229.279487 420.172313 229.589744 419.881758 229.900000 419.589495 230.210256 419.295516 230.520513 418.999812 230.830769 418.702375 231.141026 418.403196 231.451282 418.102266 231.761538 417.799577 232.071795 417.495121 232.382051 417.188888 232.692308 416.880871 233.002564 416.571060 233.312821 416.259447 233.623077 415.946024 233.933333 415.630782 234.243590 415.313713 234.553846 414.994807 234.864103 414.674057 235.174359 414.351453 235.484615 414.026988 235.794872 413.700652 236.105128 413.372437 236.415385 413.042335 236.725641 412.710336 237.035897 412.376434 237.346154 412.040617 237.656410 411.702880 237.966667 411.363212 238.276923 411.021605 238.587179 410.678050 238.897436 410.332540 239.207692 409.985065 239.517949 409.635617 239.828205 409.284187 240.138462 408.930767 240.448718 408.575349 240.758974 408.217923 241.069231 407.858481 241.379487 407.497014 241.689744 407.133515 242.000000 406.767974 242.310256 406.400382 242.620513 406.030732 242.930769 405.659015 243.241026 405.285222 243.551282 404.909345 243.861538 404.531374 244.171795 404.151302 244.482051 403.769120 244.792308 403.384819 245.102564 402.998392 245.412821 402.609828 245.723077 402.219120 246.033333 401.826259 246.343590 401.431236 246.653846 401.034044 246.964103 400.634679 247.274359 400.233161 247.584615 399.829518 247.894872 399.423775 248.205128 399.015959 248.515385 398.606096 248.825641 398.194212 249.135897 397.780334 249.446154 397.364488 249.756410 396.946700 250.066667 396.526997 250.376923 396.105406 250.687179 395.681951 250.997436 395.256660 251.307692 394.829559 251.617949 394.400675 251.928205 393.970033 252.238462 393.537661 252.548718 393.103583 252.858974 392.667827 253.169231 392.230420 253.479487 391.791386 253.789744 391.350753 254.100000 390.908548 254.410256 390.464795 254.720513 390.019522 255.030769 389.572755 255.341026 389.124521 255.651282 388.674845 255.961538 388.223754 256.271795 387.771274 256.582051 387.317432 256.892308 386.862254 257.202564 386.405766 257.512821 385.947994 257.823077 385.488966 258.133333 385.028707 258.443590 384.567243 258.753846 384.104602 259.064103 383.640808 259.374359 383.175889 259.684615 382.709871 259.994872 382.242781 260.305128 381.774644 260.615385 381.305486 260.925641 380.835335 261.235897 380.364217 261.546154 379.892157 261.856410 379.419183 262.166667 378.945320 262.476923 378.470595 262.787179 377.995034 263.097436 377.518663 263.407692 377.041510 263.717949 376.563599 264.028205 376.084959 264.338462 375.605614 264.648718 375.125591 264.958974 374.644916 265.269231 374.163617 265.579487 373.681718 265.889744 373.199247 266.200000 372.716230 266.510256 372.232693 266.820513 371.748663 267.130769 371.264165 267.441026 370.779226 267.751282 370.293873 268.061538 369.808131 268.371795 369.322028 268.682051 368.835589 268.992308 368.348841 269.302564 367.861810 269.612821 367.374522 269.923077 366.887004 270.233333 366.399283 270.543590 365.911383 270.853846 365.423333 271.164103 364.935157 271.474359 364.446883 271.784615 363.958536 272.094872 363.470144 272.405128 362.981732 272.715385 362.493326 273.025641 362.004954 273.335897 361.516641 273.646154 361.028414 273.956410 360.540298 274.266667 360.052321 274.576923 359.564509 274.887179 359.076888 275.197436 358.589484 275.507692 358.102324 275.817949 357.615434 276.128205 357.128840 276.438462 356.642568 276.748718 356.156646 277.058974 355.671099 277.369231 355.185954 277.679487 354.701236 277.989744 354.216973 278.300000 353.733191 278.610256 353.249915 278.920513 352.767173 279.230769 352.284990 279.541026 351.803394 279.851282 351.322409 280.161538 350.842063 280.471795 350.362382 280.782051 349.883393 281.092308 349.405121 281.402564 348.927593 281.712821 348.450835 282.023077 347.974873 282.333333 347.499735 282.643590 347.025446 282.953846 346.552032 283.264103 346.079520 283.574359 345.607936 283.884615 345.137307 284.194872 344.667659 284.505128 344.199018 284.815385 343.731411 285.125641 343.264863 285.435897 342.799402 285.746154 342.335053 286.056410 341.871843 286.366667 341.409798 286.676923 340.948945 286.987179 340.489309 287.297436 340.030918 287.607692 339.573797 287.917949 339.117973 288.228205 338.663472 288.538462 338.210320 288.848718 337.758544 289.158974 337.308171 289.469231 336.859226 289.779487 336.411735 290.089744 335.965726 290.400000 335.521224 290.710256 335.078256 291.020513 334.636849 291.330769 334.197027 291.641026 333.758818 291.951282 333.322249 292.261538 332.887345 292.571795 332.454132 292.882051 332.022638 293.192308 331.592888 293.502564 331.164909 293.812821 330.738726 294.123077 330.314368 294.433333 329.891859 294.743590 329.471225 295.053846 329.052495 295.364103 328.635693 295.674359 328.220846 295.984615 327.807980 296.294872 327.397123 296.605128 326.988299 296.915385 326.581535 297.225641 326.176858 297.535897 325.774295 297.846154 325.373870 298.156410 324.975611 298.466667 324.579544 298.776923 324.185696 299.087179 323.794092 299.397436 323.404759 299.707692 323.017724 300.017949 322.633012 300.328205 322.250650 300.638462 321.870664 300.948718 321.493081 301.258974 321.117927 301.569231 320.745228 301.879487 320.375011 302.189744 320.007302 302.500000 319.642127 302.810256 319.279512 303.120513 318.919485 303.430769 318.562070 303.741026 318.207296 304.051282 317.855187 304.361538 317.505770 304.671795 317.159072 304.982051 316.815119 305.292308 316.473938 305.602564 316.135553 305.912821 315.799993 306.223077 315.467283 306.533333 315.137449 306.843590 314.810518 307.153846 314.486517 307.464103 314.165471 307.774359 313.847406 308.084615 313.532350 308.394872 313.220329 308.705128 312.911368 309.015385 312.605495 309.325641 312.302735 309.635897 312.003114 309.946154 311.706660 310.256410 311.413399 310.566667 311.123356 310.876923 310.836559 311.187179 310.553032 311.497436 310.272804 311.807692 309.995900 312.117949 309.722346 312.428205 309.452169 312.738462 309.185395 313.048718 308.922051 313.358974 308.662162 313.669231 308.405756 313.979487 308.152858 314.289744 307.903494 314.600000 307.657692 314.910256 307.415477 315.220513 307.176876 315.530769 306.941915 315.841026 306.710621 316.151282 306.483019 316.461538 306.259136 316.771795 306.038998 317.082051 305.822633 317.392308 305.610065 317.702564 305.401322 318.012821 305.196429 318.323077 304.995414 318.633333 304.798301 318.943590 304.605119 319.253846 304.415892 319.564103 304.230648 319.874359 304.049413 320.184615 303.872212 320.494872 303.699073 320.805128 303.530022 321.115385 303.365084 321.425641 303.204287 321.735897 303.047656 322.046154 302.895219 322.356410 302.747001 322.666667 302.603028 322.976923 302.463327 323.287179 302.327925 323.597436 302.196847 323.907692 302.070121 324.217949 301.947771 324.528205 301.829815 324.838462 301.716226 325.148718 301.606970 325.458974 301.502009 325.769231 301.401309 326.079487 301.304833 326.389744 301.212545 326.700000 301.124410 327.010256 301.040392 327.320513 300.960454 327.630769 300.884562 327.941026 300.812679 328.251282 300.744769 328.561538 300.680797 328.871795 300.620726 329.182051 300.564521 329.492308 300.512146 329.802564 300.463565 330.112821 300.418742 330.423077 300.377641 330.733333 300.340227 331.043590 300.306464 331.353846 300.276315 331.664103 300.249745 331.974359 300.226719 332.284615 300.207199 332.594872 300.191151 332.905128 300.178538 333.215385 300.169325 333.525641 300.163476 333.835897 300.160954 334.146154 300.161725 334.456410 300.165752 334.766667 300.172999 335.076923 300.183430 335.387179 300.197010 335.697436 300.213703 336.007692 300.233473 336.317949 300.256284 336.628205 300.282100 336.938462 300.310886 337.248718 300.342605 337.558974 300.377221 337.869231 300.414699 338.179487 300.455004 338.489744 300.498098 338.800000 300.543946 339.110256 300.592513 339.420513 300.643762 339.730769 300.697658 340.041026 300.754165 340.351282 300.813246 340.661538 300.874867 340.971795 300.938991 341.282051 301.005582 341.592308 301.074605 341.902564 301.146023 342.212821 301.219801 342.523077 301.295903 342.833333 301.374293 343.143590 301.454935 343.453846 301.537794 343.764103 301.622833 344.074359 301.710016 344.384615 301.799309 344.694872 301.890674 345.005128 301.984076 345.315385 302.079480 345.625641 302.176849 345.935897 302.276147 346.246154 302.377340 346.556410 302.480389 346.866667 302.585261 347.176923 302.691919 347.487179 302.800327 347.797436 302.910449 348.107692 303.022250 348.417949 303.135694 348.728205 303.250744 349.038462 303.367365 349.348718 303.485521 349.658974 303.605177 349.969231 303.726296 350.279487 303.848842 350.589744 303.972780 350.900000 304.098074 351.210256 304.224687 351.520513 304.352585 351.830769 304.481731 352.141026 304.612089 352.451282 304.743624 352.761538 304.876299 353.071795 305.010079 353.382051 305.144929 353.692308 305.280811 354.002564 305.417690 354.312821 305.555531 354.623077 305.694297 354.933333 305.833953 355.243590 305.974463 355.553846 306.115790 355.864103 306.257900 356.174359 306.400756 356.484615 306.544322 356.794872 306.688563 357.105128 306.833442 357.415385 306.978924 357.725641 307.124973 358.035897 307.271554 358.346154 307.418629 358.656410 307.566164 358.966667 307.714122 359.276923 307.862468 359.587179 308.011165 359.897436 308.160179 360.207692 308.309473 360.517949 308.459011 360.828205 308.608757 361.138462 308.758676 361.448718 308.908731 361.758974 309.058887 362.069231 309.209108 362.379487 309.359359 362.689744 309.509602 363.000000 309.659803 363.310256 309.809925 363.620513 309.959933 363.930769 310.109791 364.241026 310.259463 364.551282 310.408912 364.861538 310.558104 365.171795 310.707003 365.482051 310.855572 365.792308 311.003775 366.102564 311.151578 366.412821 311.298943 366.723077 311.445835 367.033333 311.592219 367.343590 311.738058 367.653846 311.883316 367.964103 312.027958 368.274359 312.171948 368.584615 312.315250 368.894872 312.457828 369.205128 312.599646 369.515385 312.740669 369.825641 312.880860 370.135897 313.020183 370.446154 313.158604 370.756410 313.296085 371.066667 313.432592 371.376923 313.568088 371.687179 313.702537 371.997436 313.835903 372.307692 313.968152 372.617949 314.099246 372.928205 314.229150 373.238462 314.357828 373.548718 314.485245 373.858974 314.611363 374.169231 314.736149 374.479487 314.859565 374.789744 314.981575 375.100000 315.102145 375.410256 315.221238 375.720513 315.338818 376.030769 315.454849 376.341026 315.569296 376.651282 315.682123 376.961538 315.793293 377.271795 315.902772 377.582051 316.010522 377.892308 316.116509 378.202564 316.220696 378.512821 316.323048 378.823077 316.423528 379.133333 316.522101 379.443590 316.618731 379.753846 316.713382 380.064103 316.806018 380.374359 316.896604 380.684615 316.985103 380.994872 317.071480 381.305128 317.155699 381.615385 317.237724 381.925641 317.317519 382.235897 317.395048 382.546154 317.470275 382.856410 317.543165 383.166667 317.613682 383.476923 317.681789 383.787179 317.747452 384.097436 317.810633 384.407692 317.871298 384.717949 317.929410 385.028205 317.984934 385.338462 318.037833 385.648718 318.088073 385.958974 318.135616 386.269231 318.180427 386.579487 318.222471 386.889744 318.261710 387.200000 318.298111 387.510256 318.331636 387.820513 318.362250 388.130769 318.389917 388.441026 318.414601 388.751282 318.436266 389.061538 318.454877 389.371795 318.470397 389.682051 318.482791 389.992308 318.492023 390.302564 318.498056 390.612821 318.500856 390.923077 318.500386 391.233333 318.496610 391.543590 318.489493 391.853846 318.478999 392.164103 318.465091 392.474359 318.447735 392.784615 318.426893 393.094872 318.402531 393.405128 318.374612 393.715385 318.343101 394.025641 318.307962 394.335897 318.269158 394.646154 318.226654 394.956410 318.180414 395.266667 318.130403 395.576923 318.076584 395.887179 318.018922 396.197436 317.957380 396.507692 317.891923 396.817949 317.822515 397.128205 317.749120 397.438462 317.671702 397.748718 317.590226 398.058974 317.504656 398.369231 317.414955 398.679487 317.321088 398.989744 317.223018 399.300000 317.120711 399.610256 317.014131 399.920513 316.903240 400.230769 316.788004 400.541026 316.668387 400.851282 316.544353 401.161538 316.415866 401.471795 316.282890 401.782051 316.145389 402.092308 316.003338 402.402564 315.856756 402.712821 315.705671 403.023077 315.550113 403.333333 315.390110 403.643590 315.225692 403.953846 315.056887 404.264103 314.883726 404.574359 314.706235 404.884615 314.524446 405.194872 314.338386 405.505128 314.148086 405.815385 313.953573 406.125641 313.754876 406.435897 313.552026 406.746154 313.345051 407.056410 313.133979 407.366667 312.918841 407.676923 312.699665 407.987179 312.476480 408.297436 312.249315 408.607692 312.018199 408.917949 311.783161 409.228205 311.544231 409.538462 311.301436 409.848718 311.054807 410.158974 310.804373 410.469231 310.550162 410.779487 310.292203 411.089744 310.030525 411.400000 309.765158 411.710256 309.496131 412.020513 309.223472 412.330769 308.947211 412.641026 308.667376 412.951282 308.383997 413.261538 308.097103 413.571795 307.806722 413.882051 307.512884 414.192308 307.215618 414.502564 306.914953 414.812821 306.610918 415.123077 306.303541 415.433333 305.992853 415.743590 305.678881 416.053846 305.361656 416.364103 305.041205 416.674359 304.717559 416.984615 304.390745 417.294872 304.060794 417.605128 303.727734 417.915385 303.391594 418.225641 303.052404 418.535897 302.710192 418.846154 302.364987 419.156410 302.016818 419.466667 301.665715 419.776923 301.311706 420.087179 300.954821 420.397436 300.595088 420.707692 300.232537 421.017949 299.867197 421.328205 299.499096 421.638462 299.128263 421.948718 298.754728 422.258974 298.378521 422.569231 297.999668 422.879487 297.618201 423.189744 297.234147 423.500000 296.847537 423.810256 296.458398 424.120513 296.066760 424.430769 295.672652 424.741026 295.276103 425.051282 294.877142 425.361538 294.475798 425.671795 294.072100 425.982051 293.666078 426.292308 293.257759 426.602564 292.847174 426.912821 292.434351 427.223077 292.019320 427.533333 291.602108 427.843590 291.182746 428.153846 290.761263 428.464103 290.337686 428.774359 289.912047 429.084615 289.484372 429.394872 289.054693 429.705128 288.623037 430.015385 288.189433 430.325641 287.753911 430.635897 287.316500 430.946154 286.877229 431.256410 286.436126 431.566667 285.993221 431.876923 285.548543 432.187179 285.102121 432.497436 284.653983 432.807692 284.204160 433.117949 283.752679 433.428205 283.299571 433.738462 282.844863 434.048718 282.388586 434.358974 281.930768 434.669231 281.471437 434.979487 281.010624 435.289744 280.548358 435.600000 280.084666 435.910256 279.619579 436.220513 279.153125 436.530769 278.685333 436.841026 278.216233 437.151282 277.745853 437.461538 277.274223 437.771795 276.801371 438.082051 276.327327 438.392308 275.852119 438.702564 275.375777 439.012821 274.898329 439.323077 274.419805 439.633333 273.940234 439.943590 273.459645 440.253846 272.978066 440.564103 272.495527 440.874359 272.012057 441.184615 271.527685 441.494872 271.042440 441.805128 270.556351 442.115385 270.069447 442.425641 269.581757 442.735897 269.093309 443.046154 268.604134 443.356410 268.114260 443.666667 267.623717 443.976923 267.132532 444.287179 266.640736 444.597436 266.148357 444.907692 265.655424 445.217949 265.161967 445.528205 264.668014 445.838462 264.173594 446.148718 263.678737 446.458974 263.183471 446.769231 262.687826 447.079487 262.191831 447.389744 261.695514 447.700000 261.198904 448.010256 260.702032 448.320513 260.204925 448.630769 259.707613 448.941026 259.210124 449.251282 258.712489 449.561538 258.214735 449.871795 257.716892 450.182051 257.218989 450.492308 256.721055 450.802564 256.223119 451.112821 255.725210 451.423077 255.227356 451.733333 254.729589 452.043590 254.231935 452.353846 253.734424 452.664103 253.237086 452.974359 252.739948 453.284615 252.243042 453.594872 251.746394 453.905128 251.250035 454.215385 250.753993 454.525641 250.258297 454.835897 249.762977 455.146154 249.268062 455.456410 248.773579 455.766667 248.279560 456.076923 247.786032 456.387179 247.293025 456.697436 246.800567 457.007692 246.308688 457.317949 245.817417 457.628205 245.326783 457.938462 244.836814 458.248718 244.347540 458.558974 243.858990 458.869231 243.371193 459.179487 242.884178 459.489744 242.397974 459.800000 241.912610 460.110256 241.428115 460.420513 240.944518 460.730769 240.461848 461.041026 239.980134 461.351282 239.499406 461.661538 239.019691 461.971795 238.541020 462.282051 238.063422 462.592308 237.586924 462.902564 237.111557 463.212821 236.637350 463.523077 236.164331 463.833333 235.692529 464.143590 235.221974 464.453846 234.752694 464.764103 234.284719 465.074359 233.818078 465.384615 233.352799 465.694872 232.888912 466.005128 232.426445 466.315385 231.965429 466.625641 231.505891 466.935897 231.047861 467.246154 230.591368 467.556410 230.136441 467.866667 229.683108 468.176923 229.231400 468.487179 228.781345 468.797436 228.332972 469.107692 227.886310 469.417949 227.441387 469.728205 226.998235 470.038462 226.556880 470.348718 226.117352 470.658974 225.679681 470.969231 225.243895 471.279487 224.810024 471.589744 224.378095 471.900000 223.948140 472.210256 223.520185 472.520513 223.094261 472.830769 222.670397 473.141026 222.248621 473.451282 221.828963 473.761538 221.411451 474.071795 220.996115 474.382051 220.582983 474.692308 220.172086 475.002564 219.763451 475.312821 219.357108 475.623077 218.953085 475.933333 218.551413 476.243590 218.152119 476.553846 217.755234 476.864103 217.360785 477.174359 216.968803 477.484615 216.579315 477.794872 216.192352 478.105128 215.807941 478.415385 215.426113 478.725641 215.046896 479.035897 214.670319 479.346154 214.296411 479.656410 213.925195 479.966667 213.556662 480.276923 213.190798 480.587179 212.827590 480.897436 212.467021 481.207692 212.109078 481.517949 211.753747 481.828205 211.401012 482.138462 211.050859 482.448718 210.703275 482.758974 210.358243 483.069231 210.015750 483.379487 209.675781 483.689744 209.338322 484.000000 209.003358 484.310256 208.670875 484.620513 208.340858 484.930769 208.013292 485.241026 207.688164 485.551282 207.365459 485.861538 207.045161 486.171795 206.727257 486.482051 206.411732 486.792308 206.098572 487.102564 205.787762 487.412821 205.479287 487.723077 205.173134 488.033333 204.869287 488.343590 204.567732 488.653846 204.268455 488.964103 203.971441 489.274359 203.676675 489.584615 203.384144 489.894872 203.093831 490.205128 202.805724 490.515385 202.519808 490.825641 202.236067 491.135897 201.954488 491.446154 201.675056 491.756410 201.397756 492.066667 201.122575 492.376923 200.849496 492.687179 200.578507 492.997436 200.309592 493.307692 200.042737 493.617949 199.777928 493.928205 199.515149 494.238462 199.254387 494.548718 198.995627 494.858974 198.738854 495.169231 198.484054 495.479487 198.231212 495.789744 197.980315 496.100000 197.731346 496.410256 197.484293 496.720513 197.239139 497.030769 196.995872 497.341026 196.754476 497.651282 196.514937 497.961538 196.277240 498.271795 196.041371 498.582051 195.807315 498.892308 195.575058 499.202564 195.344585 499.512821 195.115882 499.823077 194.888935 500.133333 194.663728 500.443590 194.440247 500.753846 194.218478 501.064103 193.998407 501.374359 193.780018 501.684615 193.563297 501.994872 193.348230 502.305128 193.134802 502.615385 192.922999 502.925641 192.712806 503.235897 192.504208 503.546154 192.297192 503.856410 192.091743 504.166667 191.887845 504.476923 191.685486 504.787179 191.484649 505.097436 191.285321 505.407692 191.087488 505.717949 190.891133 506.028205 190.696244 506.338462 190.502806 506.648718 190.310803 506.958974 190.120222 507.269231 189.931049 507.579487 189.743268 507.889744 189.556864 508.200000 189.371825 508.510256 189.188134 508.820513 189.005778 509.130769 188.824742 509.441026 188.645012 509.751282 188.466572 510.061538 188.289409 510.371795 188.113508 510.682051 187.938855 510.992308 187.765434 511.302564 187.593232 511.612821 187.422234 511.923077 187.252425 512.233333 187.083792 512.543590 186.916318 512.853846 186.749991 513.164103 186.584795 513.474359 186.420716 513.784615 186.257739 514.094872 186.095851 514.405128 185.935035 514.715385 185.775279 515.025641 185.616567 515.335897 185.458885 515.646154 185.302218 515.956410 185.146552 516.266667 184.991872 516.576923 184.838164 516.887179 184.685414 517.197436 184.533606 517.507692 184.382726 517.817949 184.232761 518.128205 184.083694 518.438462 183.935513 518.748718 183.788202 519.058974 183.641746 519.369231 183.496132 519.679487 183.351344 519.989744 183.207369 520.300000 183.064191 520.610256 182.921797 520.920513 182.780172 521.230769 182.639300 521.541026 182.499168 521.851282 182.359762 522.161538 182.221066 522.471795 182.083067 522.782051 181.945749 523.092308 181.809098 523.402564 181.673100 523.712821 181.537740 524.023077 181.403003 524.333333 181.268876 524.643590 181.135343 524.953846 181.002391 525.264103 180.870004 525.574359 180.738168 525.884615 180.606869 526.194872 180.476092 526.505128 180.345822 526.815385 180.216046 527.125641 180.086748 527.435897 179.957914 527.746154 179.829529 528.056410 179.701580 528.366667 179.574051 528.676923 179.446929 528.987179 179.320197 529.297436 179.193843 529.607692 179.067851 529.917949 178.942207 530.228205 178.816897 530.538462 178.691906 530.848718 178.567219 531.158974 178.442822 531.469231 178.318700 531.779487 178.194840 532.089744 178.071226 532.400000 177.947843 532.710256 177.824678 533.020513 177.701717 533.330769 177.578943 533.641026 177.456343 533.951282 177.333903 534.261538 177.211608 534.571795 177.089443 534.882051 176.967394 535.192308 176.845446 535.502564 176.723585 535.812821 176.601796 536.123077 176.480065 536.433333 176.358378 536.743590 176.236719 537.053846 176.115075 537.364103 175.993430 537.674359 175.871771 537.984615 175.750082 538.294872 175.628350 538.605128 175.506559 538.915385 175.384696 539.225641 175.262746 539.535897 175.140693 539.846154 175.018525 540.156410 174.896225 540.466667 174.773781 540.776923 174.651176 541.087179 174.528397 541.397436 174.405430 541.707692 174.282259 542.017949 174.158870 542.328205 174.035249 542.638462 173.911381 542.948718 173.787252 543.258974 173.662847 543.569231 173.538151 543.879487 173.413151 544.189744 173.287831 544.500000 173.162178 544.810256 173.036175 545.120513 172.909810 545.430769 172.783068 545.741026 172.655934 546.051282 172.528393 546.361538 172.400431 546.671795 172.272034 546.982051 172.143187 547.292308 172.013876 547.602564 171.884085 547.912821 171.753801 548.223077 171.623009 548.533333 171.491694 548.843590 171.359843 549.153846 171.227440 549.464103 171.094471 549.774359 170.960921 550.084615 170.826777 550.394872 170.692022 550.705128 170.556644 551.015385 170.420627 551.325641 170.283957 551.635897 170.146620 551.946154 170.008600 552.256410 169.869884 552.566667 169.730457 552.876923 169.590304 553.187179 169.449411 553.497436 169.307764 553.807692 169.165347 554.117949 169.022146 554.428205 168.878148 554.738462 168.733337 555.048718 168.587698 555.358974 168.441218 555.669231 168.293882 555.979487 168.145675 556.289744 167.996583 556.600000 167.846591 556.910256 167.695685 557.220513 167.543853 557.530769 167.391094 557.841026 167.237409 558.151282 167.082800 558.461538 166.927269 558.771795 166.770817 559.082051 166.613446 559.392308 166.455158 559.702564 166.295953 560.012821 166.135834 560.323077 165.974802 560.633333 165.812858 560.943590 165.650005 561.253846 165.486244 561.564103 165.321576 561.874359 165.156004 562.184615 164.989528 562.494872 164.822150 562.805128 164.653872 563.115385 164.484696 563.425641 164.314623 563.735897 164.143654 564.046154 163.971791 564.356410 163.799036 564.666667 163.625391 564.976923 163.450856 565.287179 163.275434 565.597436 163.099126 565.907692 162.921934 566.217949 162.743859 566.528205 162.564903 566.838462 162.385067 567.148718 162.204354 567.458974 162.022764 567.769231 161.840299 568.079487 161.656961 568.389744 161.472752 568.700000 161.287672 569.010256 161.101724 569.320513 160.914909 569.630769 160.727229 569.941026 160.538685 570.251282 160.349279 570.561538 160.159013 570.871795 159.967888 571.182051 159.775905 571.492308 159.583067 571.802564 159.389374 572.112821 159.194829 572.423077 158.999433 572.733333 158.803187 573.043590 158.606094 573.353846 158.408154 573.664103 158.209370 573.974359 158.009743 574.284615 157.809274 574.594872 157.607966 574.905128 157.405819 575.215385 157.202835 575.525641 156.999017 575.835897 156.794364 576.146154 156.588880 576.456410 156.382566 576.766667 156.175422 577.076923 155.967452 577.387179 155.758656 577.697436 155.549036 578.007692 155.338593 578.317949 155.127330 578.628205 154.915247 578.938462 154.702347 579.248718 154.488630 579.558974 154.274099 579.869231 154.058756 580.179487 153.842601 580.489744 153.625636 580.800000 153.407863 581.110256 153.189283 581.420513 152.969899 581.730769 152.749711 582.041026 152.528721 582.351282 152.306931 582.661538 152.084342 582.971795 151.860957 583.282051 151.636776 583.592308 151.411801 583.902564 151.186033 584.212821 150.959475 584.523077 150.732128 584.833333 150.503994 585.143590 150.275073 585.453846 150.045368 585.764103 149.814881 586.074359 149.583612 586.384615 149.351564 586.694872 149.118737 587.005128 148.885134 587.315385 148.650757 587.625641 148.415606 587.935897 148.179683 588.246154 147.942991 588.556410 147.705529 588.866667 147.467301 589.176923 147.228308 589.487179 146.988551 589.797436 146.748032 590.107692 146.506752 590.417949 146.264713 590.728205 146.021917 591.038462 145.778365 591.348718 145.534059 591.658974 145.289000 591.969231 145.043191 592.279487 144.796631 592.589744 144.549324 592.900000 144.301271 593.210256 144.052473 593.520513 143.802932 593.830769 143.552649 594.141026 143.301627 594.451282 143.049866 594.761538 142.797368 595.071795 142.544135 595.382051 142.290169 595.692308 142.035470 596.002564 141.780041 596.312821 141.523884 596.623077 141.266999 596.933333 141.009388 597.243590 140.751054 597.553846 140.491997 597.864103 140.232219 598.174359 139.971721 598.484615 139.710506 598.794872 139.448575 599.105128 139.185929 599.415385 138.922571 599.725641 138.658501 600.035897 138.393721 600.346154 138.128233 600.656410 137.862038 600.966667 137.595139 601.276923 137.327535 601.587179 137.059231 601.897436 136.790225 602.207692 136.520521 602.517949 136.250120 602.828205 135.979024 603.138462 135.707234 603.448718 135.434751 603.758974 135.161577 604.069231 134.887715 604.379487 134.613164 604.689744 134.337928 605.000000 134.062008 605.310256 133.785404 605.620513 133.508119 605.930769 133.230155 606.241026 132.951513 606.551282 132.672194 606.861538 132.392200 607.171795 132.111533 607.482051 131.830195 607.792308 131.548186 608.102564 131.265508 608.412821 130.982164 608.723077 130.698154 609.033333 130.413481 609.343590 130.128145 609.653846 129.842149 609.964103 129.555494 610.274359 129.268181 610.584615 128.980212 610.894872 128.691590 611.205128 128.402314 611.515385 128.112388 611.825641 127.821812 612.135897 127.530588 612.446154 127.238717 612.756410 126.946202 613.066667 126.653044 613.376923 126.359244 613.687179 126.064805 613.997436 125.769726 614.307692 125.474011 614.617949 125.177661 614.928205 124.880678 615.238462 124.583062 615.548718 124.284815 615.858974 123.985940 616.169231 123.686438 616.479487 123.386310 616.789744 123.085557 617.100000 122.784183 617.410256 122.482187 617.720513 122.179572 618.030769 121.876339 618.341026 121.572490 618.651282 121.268026 618.961538 120.962950 619.271795 120.657262 619.582051 120.350964 619.892308 120.044057 620.202564 119.736545 620.512821 119.428427 620.823077 119.119705 621.133333 118.810382 621.443590 118.500459 621.753846 118.189936 622.064103 117.878817 622.374359 117.567102 622.684615 117.254793 622.994872 116.941891 623.305128 116.628399 623.615385 116.314318 623.925641 115.999649 624.235897 115.684394 624.546154 115.368554 624.856410 115.052132 625.166667 114.735128 625.476923 114.417545 625.787179 114.099383 626.097436 113.780646 626.407692 113.461333 626.717949 113.141446 627.028205 112.820988 627.338462 112.499960 627.648718 112.178363 627.958974 111.856200 628.269231 111.533471 628.579487 111.210178 628.889744 110.886322 629.200000 110.561906 629.510256 110.236932 629.820513 109.911399 630.130769 109.585311 630.441026 109.258668 630.751282 108.931473 631.061538 108.603726 631.371795 108.275430 631.682051 107.946586 631.992308 107.617196 632.302564 107.287261 632.612821 106.956782 632.923077 106.625762 633.233333 106.294202 633.543590 105.962104 633.853846 105.629469 634.164103 105.296298 634.474359 104.962594 634.784615 104.628358 635.094872 104.293591 635.405128 103.958297 635.715385 103.622477 636.025641 103.286134 636.335897 102.949269 636.646154 102.611885 636.956410 102.273984 637.266667 101.935567 637.576923 101.596638 637.887179 101.257198 638.197436 100.917249 638.507692 100.576794 638.817949 100.235834 639.128205 99.894372 639.438462 99.552409 639.748718 99.209949 640.058974 98.866993 640.369231 98.523543 640.679487 98.179601 640.989744 97.835170 641.300000 97.490251 641.610256 97.144847 641.920513 96.798960 642.230769 96.452592 642.541026 96.105745 642.851282 95.758422 643.161538 95.410623 643.471795 95.062352 643.782051 94.713611 644.092308 94.364402 644.402564 94.014726 644.712821 93.664587 645.023077 93.313985 645.333333 92.962924 645.643590 92.611405 645.953846 92.259431 646.264103 91.907004 646.574359 91.554125 646.884615 91.200797 647.194872 90.847022 647.505128 90.492802 647.815385 90.138140 648.125641 89.783037 648.435897 89.427496 648.746154 89.071518 649.056410 88.715106 649.366667 88.358262 649.676923 88.000988 649.987179 87.643287 650.297436 87.285159 650.607692 86.926608 650.917949 86.567636 651.228205 86.208244 651.538462 85.848436 651.848718 85.488212 652.158974 85.127575 652.469231 84.766527 652.779487 84.405071 653.089744 84.043209 653.400000 83.680941 653.710256 83.318272 654.020513 82.955203 654.330769 82.591735 654.641026 82.227872 654.951282 81.863615 655.261538 81.498966 655.571795 81.133928 655.882051 80.768502 656.192308 80.402691 656.502564 80.036497 656.812821 79.669922 657.123077 79.302969 657.433333 78.935638 657.743590 78.567933 658.053846 78.199855 658.364103 77.831407 658.674359 77.462591 658.984615 77.093409 659.294872 76.723863 659.605128 76.353955 659.915385 75.983687 660.225641 75.613062 660.535897 75.242081 660.846154 74.870747 661.156410 74.499062 661.466667 74.127028 661.776923 73.754647 662.087179 73.381921 662.397436 73.008852 662.707692 72.635443 663.017949 72.261695 663.328205 71.887611 663.638462 71.513193 663.948718 71.138443 664.258974 70.763363 664.569231 70.387956 664.879487 70.012222 665.189744 69.636165 665.500000 69.259787 665.810256 68.883090 666.120513 68.506075 666.430769 68.128745 666.741026 67.751103 667.051282 67.373149 667.361538 66.994888 667.671795 66.616319 667.982051 66.237446 668.292308 65.858271 668.602564 65.478796 668.912821 65.099023 669.223077 64.718954 669.533333 64.338592 669.843590 63.957938 670.153846 63.576994 670.464103 63.195763 670.774359 62.814247 671.084615 62.432447 671.394872 62.050367 671.705128 61.668008 672.015385 61.285372 672.325641 60.902462 672.635897 60.519279 672.946154 60.135826 673.256410 59.752105 673.566667 59.368118 673.876923 58.983867 674.187179 58.599354 674.497436 58.214581 674.807692 57.829551 675.117949 57.444266 675.428205 57.058727 675.738462 56.672937 676.048718 56.286898 676.358974 55.900612 676.669231 55.514081 676.979487 55.127308 677.289744 54.740294 677.600000 54.353042 677.910256 53.965553 678.220513 53.577831 678.530769 53.189876 678.841026 52.801692 679.151282 52.413280 679.461538 52.024642 679.771795 51.635781 680.082051 51.246698 680.392308 50.857396 680.702564 50.467877 681.012821 50.078143 681.323077 49.688197 681.633333 49.298039 681.943590 48.907673 682.253846 48.517101 682.564103 48.126324 682.874359 47.735345 683.184615 47.344166 683.494872 46.952789 683.805128 46.561216 684.115385 46.169449 684.425641 45.777491 684.735897 45.385344 685.046154 44.993009 685.356410 44.600489 685.666667 44.207786 685.976923 43.814902 686.287179 43.421840 686.597436 43.028600 686.907692 42.635186 687.217949 42.241600 687.528205 41.847844 687.838462 41.453919 688.148718 41.059828 688.458974 40.665574 688.769231 40.271157 689.079487 39.876581 689.389744 39.481848 689.700000 39.086959 690.010256 38.691917 690.320513 38.296724 690.630769 37.901382 690.941026 37.505893 691.251282 37.110259 691.561538 36.714482 691.871795 36.318566 692.182051 35.922510 692.492308 35.526319 692.802564 35.129994 693.112821 34.733536 693.423077 34.336949 693.733333 33.940234 694.043590 33.543393 694.353846 33.146429 694.664103 32.749344 694.974359 32.352139 695.284615 31.954818 695.594872 31.557381 695.905128 31.159832 696.215385 30.762172 696.525641 30.364403 696.835897 29.966528 697.146154 29.568549 697.456410 29.170468 697.766667 28.772286 698.076923 28.374007 698.387179 27.975632 698.697436 27.577163 699.007692 27.178603 699.317949 26.779953 699.628205 26.381216 699.938462 25.982394 700.248718 25.583489 700.558974 25.184503 700.869231 24.785438 701.179487 24.386297 701.489744 23.987081 701.800000 23.587793 702.110256 23.188434 702.420513 22.789008 702.730769 22.389515 703.041026 21.989959 703.351282 21.590341 703.661538 21.190663 703.971795 20.790928 704.282051 20.391137 704.592308 19.991294 704.902564 19.591399 705.212821 19.191455 705.523077 18.791465 705.833333 18.391429 706.143590 17.991351 706.453846 17.591233 706.764103 17.191077 707.074359 16.790884 707.384615 16.390657 707.694872 15.990398 708.005128 15.590110 708.315385 15.189793 708.625641 14.789452 708.935897 14.389087 709.246154 13.988700 709.556410 13.588294 709.866667 13.187872 710.176923 12.787434 710.487179 12.386984 710.797436 11.986523 711.107692 11.586054 711.417949 11.185578 711.728205 10.785098 712.038462 10.384615 712.038462 540.000000" /></g></g><g class="titles" /><g class="plot overlay" transform="translate(54, 20)"><g class="series serie-0 color-0"><g class="dots"><circle class="dot reactive tooltip-trigger" cx="13.96153846153846" cy="529.6153846153846" r="2.5" /><desc class="value">294,250,930(kWh)</desc><desc class="x top">13.96153846153846</desc><desc class="y top">529.6153846153846</desc><desc class="x_label">2549</desc></g><g class="dots"><circle class="dot reactive tooltip-trigger" cx="91.52564102564101" cy="487.0177082792712" r="2.5" /><desc class="value">311,684,326(kWh)</desc><desc class="x top">91.52564102564101</desc><desc class="y top">487.0177082792712</desc><desc class="x_label">2550</desc></g><g class="dots"><circle class="dot reactive tooltip-trigger" cx="169.08974358974356" cy="454.8190142424818" r="2.5" /><desc class="value">324,861,866(kWh)</desc><desc class="x top">169.08974358974356</desc><desc class="y top">454.8190142424818</desc><desc class="x_label">2551</desc></g><g class="dots"><circle class="dot reactive tooltip-trigger" cx="246.65384615384613" cy="401.03404405059774" r="2.5" /><desc class="value">346,873,740(kWh)</desc><desc class="x top">246.65384615384613</desc><desc class="y top">401.03404405059774</desc><desc class="x_label">2552</desc></g><g class="dots"><circle class="dot reactive tooltip-trigger" cx="324.21794871794873" cy="301.9477710050228" r="2.5" /><desc class="value">387,425,488(kWh)</desc><desc class="x top">324.21794871794873</desc><desc class="y top">301.9477710050228</desc><desc class="x_label">2553</desc></g><g class="dots"><circle class="dot reactive tooltip-trigger" cx="401.78205128205127" cy="316.1453886586" r="2.5" /><desc class="value">381,615,014(kWh)</desc><desc class="x left top">401.78205128205127</desc><desc class="y left top">316.1453886586</desc><desc class="x_label">2554</desc></g><g class="dots"><circle class="dot reactive tooltip-trigger" cx="479.3461538461538" cy="214.29641129910448" r="2.5" /><desc class="value">423,297,418(kWh)</desc><desc class="x left">479.3461538461538</desc><desc class="y left">214.29641129910448</desc><desc class="x_label">2555</desc></g><g class="dots"><circle class="dot reactive tooltip-trigger" cx="556.9102564102565" cy="167.69568525327168" r="2.5" /><desc class="value">442,369,090(kWh)</desc><desc class="x left">556.9102564102565</desc><desc class="y left">167.69568525327168</desc><desc class="x_label">2556</desc></g><g class="dots"><circle class="dot reactive tooltip-trigger" cx="634.474358974359" cy="104.96259381440683" r="2.5" /><desc class="value">468,043,045(kWh)</desc><desc class="x left">634.474358974359</desc><desc class="y left">104.96259381440683</desc><desc class="x_label">2557</desc></g><g class="dots"><circle class="dot reactive tooltip-trigger" cx="712.0384615384615" cy="10.384615384615358" r="2.5" /><desc class="value">506,749,742(kWh)</desc><desc class="x left">712.0384615384615</desc><desc class="y left">10.384615384615358</desc><desc class="x_label">2558</desc></g></g></g><g class="plot text-overlay" transform="translate(54, 20)"><g class="series serie-0 color-0" /></g><g class="plot tooltip-overlay" transform="translate(54, 20)"><g class="tooltip" style="opacity: 0" transform="translate(0 0)"><rect class="tooltip-box" height="0" rx="0" ry="0" width="0" /><g class="text" /></g></g></g></svg>