<?xml version='1.0' encoding='utf-8'?>
<svg xmlns:xlink="http://www.w3.org/1999/xlink" class="pygal-chart" id="chart-ce2e993c-dfc9-40a5-904a-91dd4ed70ffa" viewBox="0 0 800 600" xmlns="http://www.w3.org/2000/svg"><!--Generated with pygal 2.3.0 (etree) ©Kozea 2012-2016 on 2016-12-08--><!--http://pygal.org--><!--http://github.com/Kozea/pygal--><defs><style type="text/css">#chart-ce2e993c-dfc9-40a5-904a-91dd4ed70ffa{-webkit-user-select:none;-webkit-font-smoothing:antialiased;font-family:Consolas,"Liberation Mono",Menlo,Courier,monospace}#chart-ce2e993c-dfc9-40a5-904a-91dd4ed70ffa .title{font-family:Consolas,"Liberation Mono",Menlo,Courier,monospace;font-size:16px}#chart-ce2e993c-dfc9-40a5-904a-91dd4ed70ffa .legends .legend text{font-family:Consolas,"Liberation Mono",Menlo,Courier,monospace;font-size:14px}#chart-ce2e993c-dfc9-40a5-904a-91dd4ed70ffa .axis text{font-family:Consolas,"Liberation Mono",Menlo,Courier,monospace;font-size:10px}#chart-ce2e993c-dfc9-40a5-904a-91dd4ed70ffa .axis text.major{font-family:Consolas,"Liberation Mono",Menlo,Courier,monospace;font-size:10px}#chart-ce2e993c-dfc9-40a5-904a-91dd4ed70ffa .text-overlay text.value{font-family:Consolas,"Liberation Mono",Menlo,Courier,monospace;font-size:16px}#chart-ce2e993c-dfc9-40a5-904a-91dd4ed70ffa .text-overlay text.label{font-family:Consolas,"Liberation Mono",Menlo,Courier,monospace;font-size:10px}#chart-ce2e993c-dfc9-40a5-904a-91dd4ed70ffa .tooltip{font-family:Consolas,"Liberation Mono",Menlo,Courier,monospace;font-size:14px}#chart-ce2e993c-dfc9-40a5-904a-91dd4ed70ffa text.no_data{font-family:Consolas,"Liberation Mono",Menlo,Courier,monospace;font-size:64px}
#chart-ce2e993c-dfc9-40a5-904a-91dd4ed70ffa{background-color:rgba(249,249,249,1)}#chart-ce2e993c-dfc9-40a5-904a-91dd4ed70ffa path,#chart-ce2e993c-dfc9-40a5-904a-91dd4ed70ffa line,#chart-ce2e993c-dfc9-40a5-904a-91dd4ed70ffa rect,#chart-ce2e993c-dfc9-40a5-904a-91dd4ed70ffa circle{-webkit-transition:150ms;-moz-transition:150ms;transition:150ms}#chart-ce2e993c-dfc9-40a5-904a-91dd4ed70ffa .graph &gt; .background{fill:rgba(249,249,249,1)}#chart-ce2e993c-dfc9-40a5-904a-91dd4ed70ffa .plot &gt; .background{fill:rgba(255,255,255,1)}#chart-ce2e993c-dfc9-40a5-904a-91dd4ed70ffa .graph{fill:rgba(0,0,0,.87)}#chart-ce2e993c-dfc9-40a5-904a-91dd4ed70ffa text.no_data{fill:rgba(0,0,0,1)}#chart-ce2e993c-dfc9-40a5-904a-91dd4ed70ffa .title{fill:rgba(0,0,0,1)}#chart-ce2e993c-dfc9-40a5-904a-91dd4ed70ffa .legends .legend text{fill:rgba(0,0,0,.87)}#chart-ce2e993c-dfc9-40a5-904a-91dd4ed70ffa .legends .legend:hover text{fill:rgba(0,0,0,1)}#chart-ce2e993c-dfc9-40a5-904a-91dd4ed70ffa .axis .line{stroke:rgba(0,0,0,1)}#chart-ce2e993c-dfc9-40a5-904a-91dd4ed70ffa .axis .guide.line{stroke:rgba(0,0,0,.54)}#chart-ce2e993c-dfc9-40a5-904a-91dd4ed70ffa .axis .major.line{stroke:rgba(0,0,0,.87)}#chart-ce2e993c-dfc9-40a5-904a-91dd4ed70ffa .axis text.major{fill:rgba(0,0,0,1)}#chart-ce2e993c-dfc9-40a5-904a-91dd4ed70ffa .axis.y .guides:hover .guide.line,#chart-ce2e993c-dfc9-40a5-904a-91dd4ed70ffa .line-graph .axis.x .guides:hover .guide.line,#chart-ce2e993c-dfc9-40a5-904a-91dd4ed70ffa .stackedline-graph .axis.x .guides:hover .guide.line,#chart-ce2e993c-dfc9-40a5-904a-91dd4ed70ffa .xy-graph .axis.x .guides:hover .guide.line{stroke:rgba(0,0,0,1)}#chart-ce2e993c-dfc9-40a5-904a-91dd4ed70ffa .axis .guides:hover text{fill:rgba(0,0,0,1)}#chart-ce2e993c-dfc9-40a5-904a-91dd4ed70ffa .reactive{fill-opacity:.7;stroke-opacity:.8}#chart-ce2e993c-dfc9-40a5-904a-91dd4ed70ffa .ci{stroke:rgba(0,0,0,.87)}#chart-ce2e993c-dfc9-40a5-904a-91dd4ed70ffa .reactive.active,#chart-ce2e993c-dfc9-40a5-904a-91dd4ed70ffa .active .reactive{fill-opacity:.8;stroke-opacity:.9;stroke-width:4}#chart-ce2e993c-dfc9-40a5-904a-91dd4ed70ffa .ci .reactive.active{stroke-width:1.5}#chart-ce2e993c-dfc9-40a5-904a-91dd4ed70ffa .series text{fill:rgba(0,0,0,1)}#chart-ce2e993c-dfc9-40a5-904a-91dd4ed70ffa .tooltip rect{fill:rgba(255,255,255,1);stroke:rgba(0,0,0,1);-webkit-transition:opacity 150ms;-moz-transition:opacity 150ms;transition:opacity 150ms}#chart-ce2e993c-dfc9-40a5-904a-91dd4ed70ffa .tooltip .label{fill:rgba(0,0,0,.87)}#chart-ce2e993c-dfc9-40a5-904a-91dd4ed70ffa .tooltip .label{fill:rgba(0,0,0,.87)}#chart-ce2e993c-dfc9-40a5-904a-91dd4ed70ffa .tooltip .legend{font-size:.8em;fill:rgba(0,0,0,.54)}#chart-ce2e993c-dfc9-40a5-904a-91dd4ed70ffa .tooltip .x_label{font-size:.6em;fill:rgba(0,0,0,1)}#chart-ce2e993c-dfc9-40a5-904a-91dd4ed70ffa .tooltip .xlink{font-size:.5em;text-decoration:underline}#chart-ce2e993c-dfc9-40a5-904a-91dd4ed70ffa .tooltip .value{font-size:1.5em}#chart-ce2e993c-dfc9-40a5-904a-91dd4ed70ffa .bound{font-size:.5em}#chart-ce2e993c-dfc9-40a5-904a-91dd4ed70ffa .max-value{font-size:.75em;fill:rgba(0,0,0,.54)}#chart-ce2e993c-dfc9-40a5-904a-91dd4ed70ffa .map-element{fill:rgba(255,255,255,1);stroke:rgba(0,0,0,.54) !important}#chart-ce2e993c-dfc9-40a5-904a-91dd4ed70ffa .map-element .reactive{fill-opacity:inherit;stroke-opacity:inherit}#chart-ce2e993c-dfc9-40a5-904a-91dd4ed70ffa .color-0,#chart-ce2e993c-dfc9-40a5-904a-91dd4ed70ffa .color-0 a:visited{stroke:#e86fa0;fill:#e86fa0}#chart-ce2e993c-dfc9-40a5-904a-91dd4ed70ffa .text-overlay .color-0 text{fill:black}
#chart-ce2e993c-dfc9-40a5-904a-91dd4ed70ffa text.no_data{text-anchor:middle}#chart-ce2e993c-dfc9-40a5-904a-91dd4ed70ffa .guide.line{fill:none}#chart-ce2e993c-dfc9-40a5-904a-91dd4ed70ffa .centered{text-anchor:middle}#chart-ce2e993c-dfc9-40a5-904a-91dd4ed70ffa .title{text-anchor:middle}#chart-ce2e993c-dfc9-40a5-904a-91dd4ed70ffa .legends .legend text{fill-opacity:1}#chart-ce2e993c-dfc9-40a5-904a-91dd4ed70ffa .axis.x text{text-anchor:middle}#chart-ce2e993c-dfc9-40a5-904a-91dd4ed70ffa .axis.x:not(.web) text[transform]{text-anchor:start}#chart-ce2e993c-dfc9-40a5-904a-91dd4ed70ffa .axis.x:not(.web) text[transform].backwards{text-anchor:end}#chart-ce2e993c-dfc9-40a5-904a-91dd4ed70ffa .axis.y text{text-anchor:end}#chart-ce2e993c-dfc9-40a5-904a-91dd4ed70ffa .axis.y text[transform].backwards{text-anchor:start}#chart-ce2e993c-dfc9-40a5-904a-91dd4ed70ffa .axis.y2 text{text-anchor:start}#chart-ce2e993c-dfc9-40a5-904a-91dd4ed70ffa .axis.y2 text[transform].backwards{text-anchor:end}#chart-ce2e993c-dfc9-40a5-904a-91dd4ed70ffa .axis .guide.line{stroke-dasharray:4,4}#chart-ce2e993c-dfc9-40a5-904a-91dd4ed70ffa .axis .major.guide.line{stroke-dasharray:6,6}#chart-ce2e993c-dfc9-40a5-904a-91dd4ed70ffa .horizontal .axis.y .guide.line,#chart-ce2e993c-dfc9-40a5-904a-91dd4ed70ffa .horizontal .axis.y2 .guide.line,#chart-ce2e993c-dfc9-40a5-904a-91dd4ed70ffa .vertical .axis.x .guide.line{opacity:0}#chart-ce2e993c-dfc9-40a5-904a-91dd4ed70ffa .horizontal .axis.always_show .guide.line,#chart-ce2e993c-dfc9-40a5-904a-91dd4ed70ffa .vertical .axis.always_show .guide.line{opacity:1 !important}#chart-ce2e993c-dfc9-40a5-904a-91dd4ed70ffa .axis.y .guides:hover .guide.line,#chart-ce2e993c-dfc9-40a5-904a-91dd4ed70ffa .axis.y2 .guides:hover .guide.line,#chart-ce2e993c-dfc9-40a5-904a-91dd4ed70ffa .axis.x .guides:hover .guide.line{opacity:1}#chart-ce2e993c-dfc9-40a5-904a-91dd4ed70ffa .axis .guides:hover text{opacity:1}#chart-ce2e993c-dfc9-40a5-904a-91dd4ed70ffa .nofill{fill:none}#chart-ce2e993c-dfc9-40a5-904a-91dd4ed70ffa .subtle-fill{fill-opacity:.2}#chart-ce2e993c-dfc9-40a5-904a-91dd4ed70ffa .dot{stroke-width:1px;fill-opacity:1}#chart-ce2e993c-dfc9-40a5-904a-91dd4ed70ffa .dot.active{stroke-width:5px}#chart-ce2e993c-dfc9-40a5-904a-91dd4ed70ffa .dot.negative{fill:transparent}#chart-ce2e993c-dfc9-40a5-904a-91dd4ed70ffa text,#chart-ce2e993c-dfc9-40a5-904a-91dd4ed70ffa tspan{stroke:none !important}#chart-ce2e993c-dfc9-40a5-904a-91dd4ed70ffa .series text.active{opacity:1}#chart-ce2e993c-dfc9-40a5-904a-91dd4ed70ffa .tooltip rect{fill-opacity:.95;stroke-width:.5}#chart-ce2e993c-dfc9-40a5-904a-91dd4ed70ffa .tooltip text{fill-opacity:1}#chart-ce2e993c-dfc9-40a5-904a-91dd4ed70ffa .showable{visibility:hidden}#chart-ce2e993c-dfc9-40a5-904a-91dd4ed70ffa .showable.shown{visibility:visible}#chart-ce2e993c-dfc9-40a5-904a-91dd4ed70ffa .gauge-background{fill:rgba(229,229,229,1);stroke:none}#chart-ce2e993c-dfc9-40a5-904a-91dd4ed70ffa .bg-lines{stroke:rgba(249,249,249,1);stroke-width:2px}</style><script type="text/javascript">window.pygal = window.pygal || {};window.pygal.config = window.pygal.config || {};window.pygal.config['ce2e993c-dfc9-40a5-904a-91dd4ed70ffa'] = {"no_data_text": "No data", "no_prefix": false, "xrange": null, "print_values_position": "center", "truncate_label": null, "x_labels": ["2549", "2550", "2551", "2552", "2553", "2554", "2555", "2556", "2557", "2558"], "title": null, "force_uri_protocol": "https", "defs": [], "formatter": null, "classes": ["pygal-chart"], "y_labels": null, "rounded_bars": null, "explicit_size": false, "x_labels_major_every": null, "legend_at_bottom_columns": null, "stroke_style": null, "half_pie": false, "spacing": 10, "tooltip_fancy_mode": true, "inverse_y_axis": false, "width": 800, "inner_radius": 0, "interpolation_parameters": {}, "tooltip_border_radius": 0, "style": {"no_data_font_family": "Consolas, \"Liberation Mono\", Menlo, Courier, monospace", "tooltip_font_size": 14, "tooltip_font_family": "Consolas, \"Liberation Mono\", Menlo, Courier, monospace", "stroke_opacity_hover": ".9", "legend_font_family": "Consolas, \"Liberation Mono\", Menlo, Courier, monospace", "font_family": "Consolas, \"Liberation Mono\", Menlo, Courier, monospace", "title_font_family": "Consolas, \"Liberation Mono\", Menlo, Courier, monospace", "background": "rgba(249, 249, 249, 1)", "stroke_opacity": ".8", "foreground": "rgba(0, 0, 0, .87)", "value_background": "rgba(229, 229, 229, 1)", "guide_stroke_dasharray": "4,4", "foreground_subtle": "rgba(0, 0, 0, .54)", "opacity_hover": ".8", "value_font_family": "Consolas, \"Liberation Mono\", Menlo, Courier, monospace", "value_label_font_size": 10, "plot_background": "rgba(255, 255, 255, 1)", "ci_colors": [], "label_font_size": 10, "major_label_font_size": 10, "title_font_size": 16, "no_data_font_size": 64, "value_font_size": 16, "value_colors": [], "label_font_family": "Consolas, \"Liberation Mono\", Menlo, Courier, monospace", "major_guide_stroke_dasharray": "6,6", "transition": "150ms", "foreground_strong": "rgba(0, 0, 0, 1)", "colors": ["#e86fa0", "#e88f6f", "#e8df6f", "#a0e86f", "#6fe88f", "#6fe8df", "#6fa0e8", "#8f6fe8", "#df6fe8", "#e86fa0"], "opacity": ".7", "legend_font_size": 14, "value_label_font_family": "Consolas, \"Liberation Mono\", Menlo, Courier, monospace", "major_label_font_family": "Consolas, \"Liberation Mono\", Menlo, Courier, monospace"}, "x_labels_major_count": null, "interpolation_precision": 250, "missing_value_fill_truncation": "x", "stack_from_top": false, "truncate_legend": null, "show_minor_x_labels": true, "print_zeroes": true, "css": ["file://style.css", "file://graph.css"], "y_label_rotation": 0, "legend_at_bottom": false, "print_values": false, "margin_top": null, "max_scale": 16, "allow_interruptions": false, "show_x_labels": true, "strict": false, "show_x_guides": false, "stroke": true, "margin_left": null, "dynamic_print_values": false, "print_labels": false, "show_y_labels": true, "x_labels_major": null, "range": null, "x_label_rotation": 0, "margin": 20, "zero": 0, "include_x_axis": false, "height": 600, "show_minor_y_labels": true, "show_dots": true, "interpolate": "cubic", "show_y_guides": true, "y_labels_major": null, "box_mode": "extremes", "margin_bottom": null, "order_min": null, "legend_box_size": 12, "fill": true, "show_only_major_dots": false, "js": ["//kozea.github.io/pygal.js/2.0.x/pygal-tooltips.min.js"], "x_title": null, "y_labels_major_every": null, "y_labels_major_count": null, "disable_xml_declaration": false, "y_title": null, "logarithmic": false, "pretty_print": false, "min_scale": 4, "dots_size": 2.5, "margin_right": null, "legends": [null], "secondary_range": null, "show_legend": false}</script><script type="text/javascript" xlink:href="https://kozea.github.io/pygal.js/2.0.x/pygal-tooltips.min.js" /></defs><title>Pygal</title><g class="graph stackedline-graph vertical"><rect class="background" height="600" width="800" x="0" y="0" /><g class="plot" transform="translate(60, 20)"><rect class="background" height="540" width="720.0" x="0" y="0" /><g class="axis y"><path class="line" d="M0.000000 540.000000 h720.000000" /><g class="guides"><path class="major guide line" d="M0.000000 529.089648 h720.000000" /><text class="major" x="-5" y="532.5896478369074">5500M</text><title>5500M</title></g><g class="guides"><path class="guide line" d="M0.000000 475.001735 h720.000000" /><text class="" x="-5" y="478.50173465119997">5600M</text><title>5600M</title></g><g class="guides"><path class="guide line" d="M0.000000 420.913821 h720.000000" /><text class="" x="-5" y="424.4138214654926">5700M</text><title>5700M</title></g><g class="guides"><path class="guide line" d="M0.000000 366.825908 h720.000000" /><text class="" x="-5" y="370.32590827978527">5800M</text><title>5800M</title></g><g class="guides"><path class="guide line" d="M0.000000 312.737995 h720.000000" /><text class="" x="-5" y="316.23799509407786">5900M</text><title>5900M</title></g><g class="guides"><path class="major guide line" d="M0.000000 258.650082 h720.000000" /><text class="major" x="-5" y="262.15008190837057">6000M</text><title>6000M</title></g><g class="guides"><path class="guide line" d="M0.000000 204.562169 h720.000000" /><text class="" x="-5" y="208.06216872266322">6100M</text><title>6100M</title></g><g class="guides"><path class="guide line" d="M0.000000 150.474256 h720.000000" /><text class="" x="-5" y="153.9742555369558">6200M</text><title>6200M</title></g><g class="guides"><path class="guide line" d="M0.000000 96.386342 h720.000000" /><text class="" x="-5" y="99.88634235124846">6300M</text><title>6300M</title></g><g class="guides"><path class="guide line" d="M0.000000 42.298429 h720.000000" /><text class="" x="-5" y="45.79842916554111">6400M</text><title>6400M</title></g></g><g class="axis x"><g class="guides"><path class="line" d="M13.846154 0.000000 v540.000000" /><text class="" x="13.846153846153847" y="555.0">2549</text></g><g class="guides"><path class="guide line" d="M90.769231 0.000000 v540.000000" /><text class="" x="90.76923076923076" y="555.0">2550</text></g><g class="guides"><path class="guide line" d="M167.692308 0.000000 v540.000000" /><text class="" x="167.69230769230765" y="555.0">2551</text></g><g class="guides"><path class="guide line" d="M244.615385 0.000000 v540.000000" /><text class="" x="244.6153846153846" y="555.0">2552</text></g><g class="guides"><path class="guide line" d="M321.538462 0.000000 v540.000000" /><text class="" x="321.5384615384615" y="555.0">2553</text></g><g class="guides"><path class="guide line" d="M398.461538 0.000000 v540.000000" /><text class="" x="398.46153846153845" y="555.0">2554</text></g><g class="guides"><path class="guide line" d="M475.384615 0.000000 v540.000000" /><text class="" x="475.38461538461536" y="555.0">2555</text></g><g class="guides"><path class="guide line" d="M552.307692 0.000000 v540.000000" /><text class="" x="552.3076923076923" y="555.0">2556</text></g><g class="guides"><path class="guide line" d="M629.230769 0.000000 v540.000000" /><text class="" x="629.2307692307692" y="555.0">2557</text></g><g class="guides"><path class="guide line" d="M706.153846 0.000000 v540.000000" /><text class="" x="706.1538461538461" y="555.0">2558</text></g></g><g class="series serie-0 color-0"><path class="line reactive" d="M13.846154 540.000000 L13.846154 270.168132 14.153846 270.017541 14.461538 269.866966 14.769231 269.716420 15.076923 269.565918 15.384615 269.415475 15.692308 269.265107 16.000000 269.114828 16.307692 268.964652 16.615385 268.814594 16.923077 268.664670 17.230769 268.514894 17.538462 268.365281 17.846154 268.215846 18.153846 268.066603 18.461538 267.917567 18.769231 267.768753 19.076923 267.620177 19.384615 267.471852 19.692308 267.323794 20.000000 267.176017 20.307692 267.028536 20.615385 266.881366 20.923077 266.734522 21.230769 266.588018 21.538462 266.441870 21.846154 266.296092 22.153846 266.150699 22.461538 266.005706 22.769231 265.861128 23.076923 265.716979 23.384615 265.573274 23.692308 265.430028 24.000000 265.287256 24.307692 265.144973 24.615385 265.003193 24.923077 264.861931 25.230769 264.721203 25.538462 264.581022 25.846154 264.441404 26.153846 264.302364 26.461538 264.163916 26.769231 264.026075 27.076923 263.888856 27.384615 263.752274 27.692308 263.616343 28.000000 263.481079 28.307692 263.346495 28.615385 263.212608 28.923077 263.079432 29.230769 262.946981 29.538462 262.815270 29.846154 262.684315 30.153846 262.554129 30.461538 262.424729 30.769231 262.296128 31.076923 262.168342 31.384615 262.041384 31.692308 261.915271 32.000000 261.790017 32.307692 261.665636 32.615385 261.542144 32.923077 261.419555 33.230769 261.297884 33.538462 261.177146 33.846154 261.057356 34.153846 260.938528 34.461538 260.820678 34.769231 260.703820 35.076923 260.587968 35.384615 260.473139 35.692308 260.359346 36.000000 260.246604 36.307692 260.134928 36.615385 260.024334 36.923077 259.914835 37.230769 259.806447 37.538462 259.699184 37.846154 259.593061 38.153846 259.488093 38.461538 259.384296 38.769231 259.281682 39.076923 259.180269 39.384615 259.080069 39.692308 258.981099 40.000000 258.883372 40.307692 258.786904 40.615385 258.691710 40.923077 258.597803 41.230769 258.505200 41.538462 258.413915 41.846154 258.323963 42.153846 258.235358 42.461538 258.148115 42.769231 258.062249 43.076923 257.977776 43.384615 257.894709 43.692308 257.813063 44.000000 257.732854 44.307692 257.654097 44.615385 257.576805 44.923077 257.500994 45.230769 257.426678 45.538462 257.353873 45.846154 257.282593 46.153846 257.212853 46.461538 257.144668 46.769231 257.078053 47.076923 257.013022 47.384615 256.949590 47.692308 256.887772 48.000000 256.827583 48.307692 256.769038 48.615385 256.712152 48.923077 256.656938 49.230769 256.603413 49.538462 256.551590 49.846154 256.501486 50.153846 256.453113 50.461538 256.406488 50.769231 256.361626 51.076923 256.318540 51.384615 256.277246 51.692308 256.237758 52.000000 256.200092 52.307692 256.164262 52.615385 256.130283 52.923077 256.098170 53.230769 256.067937 53.538462 256.039600 53.846154 256.013173 54.153846 255.988671 54.461538 255.966108 54.769231 255.945501 55.076923 255.926863 55.384615 255.910209 55.692308 255.895554 56.000000 255.882913 56.307692 255.872301 56.615385 255.863732 56.923077 255.857221 57.230769 255.852784 57.538462 255.850434 57.846154 255.850187 58.153846 255.852058 58.461538 255.856061 58.769231 255.862211 59.076923 255.870523 59.384615 255.881012 59.692308 255.893692 60.000000 255.908579 60.307692 255.925687 60.615385 255.945031 60.923077 255.966625 61.230769 255.990485 61.538462 256.016626 61.846154 256.045062 62.153846 256.075808 62.461538 256.108878 62.769231 256.144289 63.076923 256.182053 63.384615 256.222187 63.692308 256.264706 64.000000 256.309622 64.307692 256.356953 64.615385 256.406712 64.923077 256.458914 65.230769 256.513575 65.538462 256.570708 65.846154 256.630329 66.153846 256.692453 66.461538 256.757094 66.769231 256.824267 67.076923 256.893987 67.384615 256.966269 67.692308 257.041127 68.000000 257.118577 68.307692 257.198632 68.615385 257.281309 68.923077 257.366622 69.230769 257.454585 69.538462 257.545214 69.846154 257.638522 70.153846 257.734526 70.461538 257.833240 70.769231 257.934678 71.076923 258.038856 71.384615 258.145788 71.692308 258.255489 72.000000 258.367974 72.307692 258.483257 72.615385 258.601355 72.923077 258.722280 73.230769 258.846048 73.538462 258.972675 73.846154 259.102174 74.153846 259.234560 74.461538 259.369849 74.769231 259.508055 75.076923 259.649193 75.384615 259.793278 75.692308 259.940324 76.000000 260.090347 76.307692 260.243361 76.615385 260.399381 76.923077 260.558422 77.230769 260.720498 77.538462 260.885624 77.846154 261.053816 78.153846 261.225088 78.461538 261.399455 78.769231 261.576931 79.076923 261.757532 79.384615 261.941272 79.692308 262.128166 80.000000 262.318229 80.307692 262.511476 80.615385 262.707921 80.923077 262.907579 81.230769 263.110466 81.538462 263.316595 81.846154 263.525983 82.153846 263.738642 82.461538 263.954589 82.769231 264.173838 83.076923 264.396404 83.384615 264.622302 83.692308 264.851547 84.000000 265.084153 84.307692 265.320135 84.615385 265.559507 84.923077 265.802286 85.230769 266.048486 85.538462 266.298120 85.846154 266.551205 86.153846 266.807755 86.461538 267.067785 86.769231 267.331310 87.076923 267.598344 87.384615 267.868902 87.692308 268.142999 88.000000 268.420650 88.307692 268.701870 88.615385 268.986673 88.923077 269.275075 89.230769 269.567089 89.538462 269.862732 89.846154 270.162017 90.153846 270.464960 90.461538 270.771575 90.769231 271.081878 91.076923 271.395877 91.384615 271.713561 91.692308 272.034914 92.000000 272.359918 92.307692 272.688558 92.615385 273.020816 92.923077 273.356675 93.230769 273.696120 93.538462 274.039133 93.846154 274.385697 94.153846 274.735796 94.461538 275.089413 94.769231 275.446531 95.076923 275.807134 95.384615 276.171204 95.692308 276.538726 96.000000 276.909682 96.307692 277.284056 96.615385 277.661831 96.923077 278.042991 97.230769 278.427517 97.538462 278.815395 97.846154 279.206607 98.153846 279.601136 98.461538 279.998965 98.769231 280.400079 99.076923 280.804460 99.384615 281.212091 99.692308 281.622956 100.000000 282.037039 100.307692 282.454321 100.615385 282.874787 100.923077 283.298421 101.230769 283.725204 101.538462 284.155121 101.846154 284.588154 102.153846 285.024287 102.461538 285.463504 102.769231 285.905788 103.076923 286.351121 103.384615 286.799487 103.692308 287.250870 104.000000 287.705252 104.307692 288.162618 104.615385 288.622950 104.923077 289.086231 105.230769 289.552445 105.538462 290.021575 105.846154 290.493605 106.153846 290.968517 106.461538 291.446295 106.769231 291.926922 107.076923 292.410382 107.384615 292.896658 107.692308 293.385732 108.000000 293.877589 108.307692 294.372212 108.615385 294.869583 108.923077 295.369687 109.230769 295.872506 109.538462 296.378024 109.846154 296.886224 110.153846 297.397089 110.461538 297.910602 110.769231 298.426748 111.076923 298.945509 111.384615 299.466868 111.692308 299.990809 112.000000 300.517314 112.307692 301.046368 112.615385 301.577954 112.923077 302.112054 113.230769 302.648652 113.538462 303.187732 113.846154 303.729277 114.153846 304.273269 114.461538 304.819693 114.769231 305.368531 115.076923 305.919766 115.384615 306.473383 115.692308 307.029364 116.000000 307.587693 116.307692 308.148353 116.615385 308.711327 116.923077 309.276598 117.230769 309.844150 117.538462 310.413966 117.846154 310.986029 118.153846 311.560323 118.461538 312.136831 118.769231 312.715536 119.076923 313.296421 119.384615 313.879470 119.692308 314.464665 120.000000 315.051992 120.307692 315.641431 120.615385 316.232968 120.923077 316.826584 121.230769 317.422264 121.538462 318.019990 121.846154 318.619747 122.153846 319.221516 122.461538 319.825282 122.769231 320.431028 123.076923 321.038737 123.384615 321.648392 123.692308 322.259977 124.000000 322.873475 124.307692 323.488868 124.615385 324.106142 124.923077 324.725278 125.230769 325.346259 125.538462 325.969071 125.846154 326.593694 126.153846 327.220114 126.461538 327.848313 126.769231 328.478274 127.076923 329.109981 127.384615 329.743416 127.692308 330.378564 128.000000 331.015408 128.307692 331.653930 128.615385 332.294114 128.923077 332.935944 129.230769 333.579402 129.538462 334.224473 129.846154 334.871138 130.153846 335.519382 130.461538 336.169188 130.769231 336.820538 131.076923 337.473417 131.384615 338.127808 131.692308 338.783693 132.000000 339.441057 132.307692 340.099882 132.615385 340.760151 132.923077 341.421849 133.230769 342.084958 133.538462 342.749461 133.846154 343.415343 134.153846 344.082585 134.461538 344.751172 134.769231 345.421086 135.076923 346.092312 135.384615 346.764832 135.692308 347.438629 136.000000 348.113687 136.307692 348.789989 136.615385 349.467518 136.923077 350.146258 137.230769 350.826192 137.538462 351.507303 137.846154 352.189574 138.153846 352.872989 138.461538 353.557532 138.769231 354.243184 139.076923 354.929930 139.384615 355.617753 139.692308 356.306637 140.000000 356.996563 140.307692 357.687516 140.615385 358.379480 140.923077 359.072436 141.230769 359.766369 141.538462 360.461262 141.846154 361.157098 142.153846 361.853860 142.461538 362.551532 142.769231 363.250097 143.076923 363.949538 143.384615 364.649839 143.692308 365.350982 144.000000 366.052952 144.307692 366.755730 144.615385 367.459302 144.923077 368.163649 145.230769 368.868755 145.538462 369.574604 145.846154 370.281179 146.153846 370.988463 146.461538 371.696439 146.769231 372.405090 147.076923 373.114400 147.384615 373.824353 147.692308 374.534931 148.000000 375.246117 148.307692 375.957896 148.615385 376.670250 148.923077 377.383162 149.230769 378.096616 149.538462 378.810596 149.846154 379.525083 150.153846 380.240062 150.461538 380.955517 150.769231 381.671429 151.076923 382.387783 151.384615 383.104562 151.692308 383.821748 152.000000 384.539326 152.307692 385.257279 152.615385 385.975589 152.923077 386.694241 153.230769 387.413217 153.538462 388.132501 153.846154 388.852076 154.153846 389.571925 154.461538 390.292032 154.769231 391.012379 155.076923 391.732951 155.384615 392.453730 155.692308 393.174700 156.000000 393.895843 156.307692 394.617144 156.615385 395.338586 156.923077 396.060151 157.230769 396.781823 157.538462 397.503586 157.846154 398.225422 158.153846 398.947316 158.461538 399.669249 158.769231 400.391206 159.076923 401.113170 159.384615 401.835123 159.692308 402.557050 160.000000 403.278934 160.307692 404.000758 160.615385 404.722504 160.923077 405.444157 161.230769 406.165700 161.538462 406.887116 161.846154 407.608388 162.153846 408.329500 162.461538 409.050434 162.769231 409.771175 163.076923 410.491705 163.384615 411.212008 163.692308 411.932066 164.000000 412.651864 164.307692 413.371385 164.615385 414.090611 164.923077 414.809526 165.230769 415.528114 165.538462 416.246357 165.846154 416.964239 166.153846 417.681743 166.461538 418.398853 166.769231 419.115552 167.076923 419.831822 167.384615 420.547648 167.692308 421.263012 168.000000 421.977898 168.307692 422.692284 168.615385 423.406149 168.923077 424.119471 169.230769 424.832229 169.538462 425.544401 169.846154 426.255966 170.153846 426.966903 170.461538 427.677190 170.769231 428.386804 171.076923 429.095726 171.384615 429.803933 171.692308 430.511404 172.000000 431.218117 172.307692 431.924051 172.615385 432.629184 172.923077 433.333496 173.230769 434.036963 173.538462 434.739566 173.846154 435.441281 174.153846 436.142089 174.461538 436.841967 174.769231 437.540894 175.076923 438.238848 175.384615 438.935808 175.692308 439.631752 176.000000 440.326659 176.307692 441.020508 176.615385 441.713276 176.923077 442.404942 177.230769 443.095486 177.538462 443.784885 177.846154 444.473117 178.153846 445.160162 178.461538 445.845998 178.769231 446.530603 179.076923 447.213955 179.384615 447.896034 179.692308 448.576818 180.000000 449.256286 180.307692 449.934415 180.615385 450.611184 180.923077 451.286572 181.230769 451.960558 181.538462 452.633119 181.846154 453.304234 182.153846 453.973883 182.461538 454.642042 182.769231 455.308692 183.076923 455.973810 183.384615 456.637374 183.692308 457.299364 184.000000 457.959758 184.307692 458.618533 184.615385 459.275670 184.923077 459.931146 185.230769 460.584940 185.538462 461.237030 185.846154 461.887395 186.153846 462.536013 186.461538 463.182863 186.769231 463.827923 187.076923 464.471172 187.384615 465.112588 187.692308 465.752150 188.000000 466.389836 188.307692 467.025625 188.615385 467.659495 188.923077 468.291425 189.230769 468.921394 189.538462 469.549379 189.846154 470.175359 190.153846 470.799313 190.461538 471.421219 190.769231 472.041056 191.076923 472.658803 191.384615 473.274437 191.692308 473.887937 192.000000 474.499282 192.307692 475.108450 192.615385 475.715421 192.923077 476.320171 193.230769 476.922680 193.538462 477.522926 193.846154 478.120888 194.153846 478.716545 194.461538 479.309874 194.769231 479.900854 195.076923 480.489464 195.384615 481.075682 195.692308 481.659487 196.000000 482.240857 196.307692 482.819771 196.615385 483.396207 196.923077 483.970144 197.230769 484.541560 197.538462 485.110434 197.846154 485.676744 198.153846 486.240469 198.461538 486.801587 198.769231 487.360076 199.076923 487.915916 199.384615 488.469085 199.692308 489.019560 200.000000 489.567322 200.307692 490.112348 200.615385 490.654616 200.923077 491.194106 201.230769 491.730795 201.538462 492.264663 201.846154 492.795687 202.153846 493.323846 202.461538 493.849119 202.769231 494.371485 203.076923 494.890921 203.384615 495.407406 203.692308 495.920919 204.000000 496.431438 204.307692 496.938942 204.615385 497.443409 204.923077 497.944817 205.230769 498.443146 205.538462 498.938374 205.846154 499.430478 206.153846 499.919439 206.461538 500.405233 206.769231 500.887840 207.076923 501.367239 207.384615 501.843407 207.692308 502.316323 208.000000 502.785966 208.307692 503.252314 208.615385 503.715346 208.923077 504.175040 209.230769 504.631374 209.538462 505.084328 209.846154 505.533879 210.153846 505.980007 210.461538 506.422689 210.769231 506.861904 211.076923 507.297631 211.384615 507.729849 211.692308 508.158534 212.000000 508.583667 212.307692 509.005226 212.615385 509.423189 212.923077 509.837534 213.230769 510.248241 213.538462 510.655287 213.846154 511.058651 214.153846 511.458312 214.461538 511.854248 214.769231 512.246438 215.076923 512.634860 215.384615 513.019492 215.692308 513.400314 216.000000 513.777303 216.307692 514.150438 216.615385 514.519698 216.923077 514.885062 217.230769 515.246506 217.538462 515.604011 217.846154 515.957555 218.153846 516.307115 218.461538 516.652672 218.769231 516.994202 219.076923 517.331685 219.384615 517.665099 219.692308 517.994423 220.000000 518.319634 220.307692 518.640713 220.615385 518.957636 220.923077 519.270383 221.230769 519.578933 221.538462 519.883262 221.846154 520.183351 222.153846 520.479178 222.461538 520.770720 222.769231 521.057958 223.076923 521.340868 223.384615 521.619430 223.692308 521.893622 224.000000 522.163422 224.307692 522.428810 224.615385 522.689763 224.923077 522.946260 225.230769 523.198280 225.538462 523.445801 225.846154 523.688802 226.153846 523.927261 226.461538 524.161156 226.769231 524.390466 227.076923 524.615170 227.384615 524.835246 227.692308 525.050672 228.000000 525.261428 228.307692 525.467491 228.615385 525.668840 228.923077 525.865454 229.230769 526.057311 229.538462 526.244389 229.846154 526.426668 230.153846 526.604125 230.461538 526.776739 230.769231 526.944489 231.076923 527.107352 231.384615 527.265308 231.692308 527.418336 232.000000 527.566413 232.307692 527.709517 232.615385 527.847629 232.923077 527.980725 233.230769 528.108785 233.538462 528.231787 233.846154 528.349710 234.153846 528.462532 234.461538 528.570231 234.769231 528.672786 235.076923 528.770176 235.384615 528.862379 235.692308 528.949373 236.000000 529.031137 236.307692 529.107650 236.615385 529.178890 236.923077 529.244835 237.230769 529.305465 237.538462 529.360757 237.846154 529.410690 238.153846 529.455242 238.461538 529.494393 238.769231 529.528120 239.076923 529.556402 239.384615 529.579217 239.692308 529.596545 240.000000 529.608363 240.307692 529.614650 240.615385 529.615385 240.923077 529.610545 241.230769 529.600110 241.538462 529.584058 241.846154 529.562368 242.153846 529.535018 242.461538 529.501986 242.769231 529.463251 243.076923 529.418791 243.384615 529.368586 243.692308 529.312613 244.000000 529.250851 244.307692 529.183278 244.615385 529.109874 244.923077 529.030627 245.230769 528.945574 245.538462 528.854761 245.846154 528.758234 246.153846 528.656041 246.461538 528.548228 246.769231 528.434842 247.076923 528.315930 247.384615 528.191539 247.692308 528.061715 248.000000 527.926504 248.307692 527.785955 248.615385 527.640113 248.923077 527.489026 249.230769 527.332740 249.538462 527.171301 249.846154 527.004757 250.153846 526.833155 250.461538 526.656540 250.769231 526.474961 251.076923 526.288463 251.384615 526.097093 251.692308 525.900899 252.000000 525.699926 252.307692 525.494222 252.615385 525.283834 252.923077 525.068808 253.230769 524.849190 253.538462 524.625029 253.846154 524.396369 254.153846 524.163259 254.461538 523.925745 254.769231 523.683874 255.076923 523.437692 255.384615 523.187246 255.692308 522.932584 256.000000 522.673751 256.307692 522.410794 256.615385 522.143761 256.923077 521.872698 257.230769 521.597652 257.538462 521.318669 257.846154 521.035796 258.153846 520.749081 258.461538 520.458569 258.769231 520.164308 259.076923 519.866344 259.384615 519.564724 259.692308 519.259495 260.000000 518.950704 260.307692 518.638397 260.615385 518.322621 260.923077 518.003423 261.230769 517.680849 261.538462 517.354947 261.846154 517.025763 262.153846 516.693344 262.461538 516.357737 262.769231 516.018988 263.076923 515.677144 263.384615 515.332252 263.692308 514.984358 264.000000 514.633510 264.307692 514.279755 264.615385 513.923138 264.923077 513.563707 265.230769 513.201508 265.538462 512.836589 265.846154 512.468995 266.153846 512.098775 266.461538 511.725974 266.769231 511.350639 267.076923 510.972817 267.384615 510.592554 267.692308 510.209899 268.000000 509.824896 268.307692 509.437594 268.615385 509.048038 268.923077 508.656276 269.230769 508.262354 269.538462 507.866320 269.846154 507.468219 270.153846 507.068098 270.461538 506.666005 270.769231 506.261986 271.076923 505.856088 271.384615 505.448358 271.692308 505.038842 272.000000 504.627587 272.307692 504.214639 272.615385 503.800047 272.923077 503.383856 273.230769 502.966113 273.538462 502.546865 273.846154 502.126158 274.153846 501.704040 274.461538 501.280557 274.769231 500.855756 275.076923 500.429684 275.384615 500.002387 275.692308 499.573913 276.000000 499.144307 276.307692 498.713617 276.615385 498.281890 276.923077 497.849171 277.230769 497.415509 277.538462 496.980949 277.846154 496.545539 278.153846 496.109326 278.461538 495.672355 278.769231 495.234674 279.076923 494.796329 279.384615 494.357368 279.692308 493.917837 280.000000 493.477783 280.307692 493.037252 280.615385 492.596292 280.923077 492.154948 281.230769 491.713269 281.538462 491.271300 281.846154 490.829088 282.153846 490.386680 282.461538 489.944124 282.769231 489.501465 283.076923 489.058750 283.384615 488.616026 283.692308 488.173341 284.000000 487.730740 284.307692 487.288270 284.615385 486.845978 284.923077 486.403912 285.230769 485.962117 285.538462 485.520640 285.846154 485.079529 286.153846 484.638830 286.461538 484.198589 286.769231 483.758854 287.076923 483.319671 287.384615 482.881087 287.692308 482.443149 288.000000 482.005903 288.307692 481.569396 288.615385 481.133676 288.923077 480.698788 289.230769 480.264779 289.538462 479.831697 289.846154 479.399588 290.153846 478.968499 290.461538 478.538476 290.769231 478.109567 291.076923 477.681818 291.384615 477.255275 291.692308 476.829986 292.000000 476.405998 292.307692 475.983356 292.615385 475.562108 292.923077 475.142301 293.230769 474.723982 293.538462 474.307196 293.846154 473.891991 294.153846 473.478414 294.461538 473.066511 294.769231 472.656330 295.076923 472.247916 295.384615 471.841317 295.692308 471.436579 296.000000 471.033750 296.307692 470.632875 296.615385 470.234002 296.923077 469.837178 297.230769 469.442449 297.538462 469.049861 297.846154 468.659463 298.153846 468.271300 298.461538 467.885419 298.769231 467.501867 299.076923 467.120691 299.384615 466.741937 299.692308 466.365653 300.000000 465.991885 300.307692 465.620679 300.615385 465.252083 300.923077 464.886143 301.230769 464.522906 301.538462 464.162419 301.846154 463.804729 302.153846 463.449882 302.461538 463.097925 302.769231 462.748905 303.076923 462.402868 303.384615 462.059862 303.692308 461.719933 304.000000 461.383128 304.307692 461.049493 304.615385 460.719076 304.923077 460.391922 305.230769 460.068080 305.538462 459.747595 305.846154 459.430515 306.153846 459.116886 306.461538 458.806755 306.769231 458.500168 307.076923 458.197173 307.384615 457.897816 307.692308 457.602144 308.000000 457.310204 308.307692 457.022042 308.615385 456.737706 308.923077 456.457241 309.230769 456.180695 309.538462 455.908115 309.846154 455.639546 310.153846 455.375037 310.461538 455.114634 310.769231 454.858383 311.076923 454.606331 311.384615 454.358526 311.692308 454.115013 312.000000 453.875840 312.307692 453.641053 312.615385 453.410699 312.923077 453.184824 313.230769 452.963477 313.538462 452.746703 313.846154 452.534549 314.153846 452.327061 314.461538 452.124288 314.769231 451.926274 315.076923 451.733068 315.384615 451.544716 315.692308 451.361264 316.000000 451.182759 316.307692 451.009249 316.615385 450.840780 316.923077 450.677398 317.230769 450.519151 317.538462 450.366085 317.846154 450.218247 318.153846 450.075683 318.461538 449.938441 318.769231 449.806567 319.076923 449.680109 319.384615 449.559111 319.692308 449.443623 320.000000 449.333689 320.307692 449.229358 320.615385 449.130675 320.923077 449.037688 321.230769 448.950443 321.538462 448.868987 321.846154 448.793347 322.153846 448.723474 322.461538 448.659299 322.769231 448.600751 323.076923 448.547763 323.384615 448.500264 323.692308 448.458186 324.000000 448.421460 324.307692 448.390016 324.615385 448.363784 324.923077 448.342697 325.230769 448.326684 325.538462 448.315677 325.846154 448.309605 326.153846 448.308401 326.461538 448.311995 326.769231 448.320318 327.076923 448.333300 327.384615 448.350872 327.692308 448.372965 328.000000 448.399510 328.307692 448.430438 328.615385 448.465680 328.923077 448.505165 329.230769 448.548826 329.538462 448.596593 329.846154 448.648397 330.153846 448.704168 330.461538 448.763837 330.769231 448.827336 331.076923 448.894594 331.384615 448.965543 331.692308 449.040114 332.000000 449.118238 332.307692 449.199844 332.615385 449.284864 332.923077 449.373230 333.230769 449.464870 333.538462 449.559718 333.846154 449.657702 334.153846 449.758755 334.461538 449.862806 334.769231 449.969787 335.076923 450.079628 335.384615 450.192261 335.692308 450.307616 336.000000 450.425623 336.307692 450.546215 336.615385 450.669320 336.923077 450.794871 337.230769 450.922798 337.538462 451.053032 337.846154 451.185504 338.153846 451.320144 338.461538 451.456884 338.769231 451.595653 339.076923 451.736384 339.384615 451.879006 339.692308 452.023451 340.000000 452.169649 340.307692 452.317532 340.615385 452.467029 340.923077 452.618072 341.230769 452.770591 341.538462 452.924518 341.846154 453.079784 342.153846 453.236318 342.461538 453.394052 342.769231 453.552916 343.076923 453.712842 343.384615 453.873761 343.692308 454.035602 344.000000 454.198297 344.307692 454.361776 344.615385 454.525972 344.923077 454.690813 345.230769 454.856231 345.538462 455.022158 345.846154 455.188523 346.153846 455.355257 346.461538 455.522292 346.769231 455.689558 347.076923 455.856985 347.384615 456.024506 347.692308 456.192049 348.000000 456.359548 348.307692 456.526931 348.615385 456.694130 348.923077 456.861076 349.230769 457.027700 349.538462 457.193932 349.846154 457.359703 350.153846 457.524944 350.461538 457.689585 350.769231 457.853559 351.076923 458.016794 351.384615 458.179223 351.692308 458.340776 352.000000 458.501383 352.307692 458.660977 352.615385 458.819486 352.923077 458.976843 353.230769 459.132978 353.538462 459.287822 353.846154 459.441305 354.153846 459.593359 354.461538 459.743914 354.769231 459.892901 355.076923 460.040251 355.384615 460.185894 355.692308 460.329762 356.000000 460.471786 356.307692 460.611895 356.615385 460.750022 356.923077 460.886096 357.230769 461.020048 357.538462 461.151810 357.846154 461.281312 358.153846 461.408485 358.461538 461.533259 358.769231 461.655566 359.076923 461.775337 359.384615 461.892501 359.692308 462.006991 360.000000 462.118736 360.307692 462.227668 360.615385 462.333717 360.923077 462.436815 361.230769 462.536891 361.538462 462.633877 361.846154 462.727704 362.153846 462.818302 362.461538 462.905603 362.769231 462.989536 363.076923 463.070034 363.384615 463.147025 363.692308 463.220443 364.000000 463.290216 364.307692 463.356277 364.615385 463.418555 364.923077 463.476983 365.230769 463.531489 365.538462 463.582006 365.846154 463.628464 366.153846 463.670794 366.461538 463.708926 366.769231 463.742792 367.076923 463.772323 367.384615 463.797448 367.692308 463.818100 368.000000 463.834208 368.307692 463.845703 368.615385 463.852517 368.923077 463.854580 369.230769 463.851824 369.538462 463.844177 369.846154 463.831573 370.153846 463.813941 370.461538 463.791211 370.769231 463.763316 371.076923 463.730186 371.384615 463.691751 371.692308 463.647943 372.000000 463.598692 372.307692 463.543929 372.615385 463.483585 372.923077 463.417590 373.230769 463.345876 373.538462 463.268373 373.846154 463.185012 374.153846 463.095724 374.461538 463.000440 374.769231 462.899090 375.076923 462.791605 375.384615 462.677917 375.692308 462.557955 376.000000 462.431651 376.307692 462.298935 376.615385 462.159739 376.923077 462.013993 377.230769 461.861628 377.538462 461.702575 377.846154 461.536764 378.153846 461.364126 378.461538 461.184593 378.769231 460.998094 379.076923 460.804561 379.384615 460.603925 379.692308 460.396116 380.000000 460.181066 380.307692 459.958704 380.615385 459.728962 380.923077 459.491771 381.230769 459.247061 381.538462 458.994763 381.846154 458.734809 382.153846 458.467128 382.461538 458.191652 382.769231 457.908311 383.076923 457.617036 383.384615 457.317759 383.692308 457.010409 384.000000 456.694918 384.307692 456.371217 384.615385 456.039236 384.923077 455.698905 385.230769 455.350157 385.538462 454.992922 385.846154 454.627129 386.153846 454.252712 386.461538 453.869599 386.769231 453.477722 387.076923 453.077012 387.384615 452.667400 387.692308 452.248815 388.000000 451.821190 388.307692 451.384455 388.615385 450.938541 388.923077 450.483378 389.230769 450.018898 389.538462 449.545030 389.846154 449.061707 390.153846 448.568858 390.461538 448.066416 390.769231 447.554309 391.076923 447.032470 391.384615 446.500828 391.692308 445.959316 392.000000 445.407863 392.307692 444.846401 392.615385 444.274859 392.923077 443.693170 393.230769 443.101264 393.538462 442.499071 393.846154 441.886523 394.153846 441.263550 394.461538 440.630083 394.769231 439.986053 395.076923 439.331391 395.384615 438.666027 395.692308 437.989893 396.000000 437.302918 396.307692 436.605035 396.615385 435.896173 396.923077 435.176264 397.230769 434.445238 397.538462 433.703026 397.846154 432.949559 398.153846 432.184768 398.461538 431.408584 398.769231 430.620965 399.076923 429.821984 399.384615 429.011741 399.692308 428.190337 400.000000 427.357871 400.307692 426.514446 400.615385 425.660160 400.923077 424.795115 401.230769 423.919410 401.538462 423.033146 401.846154 422.136425 402.153846 421.229345 402.461538 420.312008 402.769231 419.384513 403.076923 418.446962 403.384615 417.499455 403.692308 416.542092 404.000000 415.574974 404.307692 414.598200 404.615385 413.611873 404.923077 412.616091 405.230769 411.610955 405.538462 410.596566 405.846154 409.573024 406.153846 408.540430 406.461538 407.498884 406.769231 406.448487 407.076923 405.389338 407.384615 404.321539 407.692308 403.245189 408.000000 402.160389 408.307692 401.067241 408.615385 399.965843 408.923077 398.856296 409.230769 397.738702 409.538462 396.613160 409.846154 395.479770 410.153846 394.338634 410.461538 393.189851 410.769231 392.033522 411.076923 390.869748 411.384615 389.698629 411.692308 388.520265 412.000000 387.334756 412.307692 386.142204 412.615385 384.942708 412.923077 383.736370 413.230769 382.523288 413.538462 381.303565 413.846154 380.077300 414.153846 378.844594 414.461538 377.605546 414.769231 376.360259 415.076923 375.108831 415.384615 373.851364 415.692308 372.587957 416.000000 371.318712 416.307692 370.043729 416.615385 368.763107 416.923077 367.476949 417.230769 366.185353 417.538462 364.888420 417.846154 363.586252 418.153846 362.278948 418.461538 360.966608 418.769231 359.649334 419.076923 358.327225 419.384615 357.000382 419.692308 355.668905 420.000000 354.332895 420.307692 352.992453 420.615385 351.647678 420.923077 350.298671 421.230769 348.945533 421.538462 347.588364 421.846154 346.227264 422.153846 344.862334 422.461538 343.493674 422.769231 342.121385 423.076923 340.745567 423.384615 339.366321 423.692308 337.983746 424.000000 336.597944 424.307692 335.209014 424.615385 333.817058 424.923077 332.422176 425.230769 331.024467 425.538462 329.624033 425.846154 328.220974 426.153846 326.815391 426.461538 325.407383 426.769231 323.997051 427.076923 322.584496 427.384615 321.169819 427.692308 319.753118 428.000000 318.334496 428.307692 316.914052 428.615385 315.491886 428.923077 314.068100 429.230769 312.642794 429.538462 311.216067 429.846154 309.788021 430.153846 308.358756 430.461538 306.928372 430.769231 305.496970 431.076923 304.064651 431.384615 302.631514 431.692308 301.197660 432.000000 299.763189 432.307692 298.328202 432.615385 296.892800 432.923077 295.457082 433.230769 294.021150 433.538462 292.585103 433.846154 291.149042 434.153846 289.713068 434.461538 288.277280 434.769231 286.841780 435.076923 285.406668 435.384615 283.972044 435.692308 282.538008 436.000000 281.104662 436.307692 279.672104 436.615385 278.240437 436.923077 276.809760 437.230769 275.380174 437.538462 273.951779 437.846154 272.524676 438.153846 271.098964 438.461538 269.674745 438.769231 268.252119 439.076923 266.831186 439.384615 265.412047 439.692308 263.994802 440.000000 262.579552 440.307692 261.166396 440.615385 259.755436 440.923077 258.346772 441.230769 256.940504 441.538462 255.536733 441.846154 254.135559 442.153846 252.737083 442.461538 251.341405 442.769231 249.948625 443.076923 248.558843 443.384615 247.172162 443.692308 245.788679 444.000000 244.408497 444.307692 243.031716 444.615385 241.658435 444.923077 240.288756 445.230769 238.922779 445.538462 237.560604 445.846154 236.202332 446.153846 234.848062 446.461538 233.497897 446.769231 232.151935 447.076923 230.810278 447.384615 229.473025 447.692308 228.140278 448.000000 226.812137 448.307692 225.488701 448.615385 224.170072 448.923077 222.856350 449.230769 221.547636 449.538462 220.244029 449.846154 218.945630 450.153846 217.652540 450.461538 216.364860 450.769231 215.082688 451.076923 213.806127 451.384615 212.535276 451.692308 211.270236 452.000000 210.011107 452.307692 208.757990 452.615385 207.510985 452.923077 206.270192 453.230769 205.035713 453.538462 203.807646 453.846154 202.586094 454.153846 201.371155 454.461538 200.162932 454.769231 198.961523 455.076923 197.767030 455.384615 196.579553 455.692308 195.399192 456.000000 194.226048 456.307692 193.060221 456.615385 191.901812 456.923077 190.750920 457.230769 189.607648 457.538462 188.472094 457.846154 187.344359 458.153846 186.224545 458.461538 185.112750 458.769231 184.009076 459.076923 182.913624 459.384615 181.826492 459.692308 180.747783 460.000000 179.677596 460.307692 178.616031 460.615385 177.563190 460.923077 176.519173 461.230769 175.484079 461.538462 174.458010 461.846154 173.441066 462.153846 172.433347 462.461538 171.434954 462.769231 170.445987 463.076923 169.466547 463.384615 168.496733 463.692308 167.536648 464.000000 166.586390 464.307692 165.646060 464.615385 164.715759 464.923077 163.795587 465.230769 162.885645 465.538462 161.986033 465.846154 161.096851 466.153846 160.218200 466.461538 159.350181 466.769231 158.492893 467.076923 157.646437 467.384615 156.810914 467.692308 155.986424 468.000000 155.173067 468.307692 154.370944 468.615385 153.580156 468.923077 152.800802 469.230769 152.032983 469.538462 151.276800 469.846154 150.532353 470.153846 149.799742 470.461538 149.079068 470.769231 148.370432 471.076923 147.673933 471.384615 146.989672 471.692308 146.317750 472.000000 145.658266 472.307692 145.011323 472.615385 144.377019 472.923077 143.755455 473.230769 143.146732 473.538462 142.550950 473.846154 141.968209 474.153846 141.398611 474.461538 140.842255 474.769231 140.299242 475.076923 139.769672 475.384615 139.253645 475.692308 138.751233 476.000000 138.262383 476.307692 137.787014 476.615385 137.325045 476.923077 136.876394 477.230769 136.440980 477.538462 136.018721 477.846154 135.609536 478.153846 135.213343 478.461538 134.830061 478.769231 134.459608 479.076923 134.101902 479.384615 133.756863 479.692308 133.424409 480.000000 133.104459 480.307692 132.796930 480.615385 132.501741 480.923077 132.218812 481.230769 131.948060 481.538462 131.689403 481.846154 131.442762 482.153846 131.208053 482.461538 130.985196 482.769231 130.774108 483.076923 130.574710 483.384615 130.386918 483.692308 130.210652 484.000000 130.045830 484.307692 129.892370 484.615385 129.750192 484.923077 129.619213 485.230769 129.499353 485.538462 129.390529 485.846154 129.292660 486.153846 129.205665 486.461538 129.129462 486.769231 129.063970 487.076923 129.009107 487.384615 128.964792 487.692308 128.930943 488.000000 128.907479 488.307692 128.894319 488.615385 128.891380 488.923077 128.898581 489.230769 128.915842 489.538462 128.943080 489.846154 128.980213 490.153846 129.027161 490.461538 129.083843 490.769231 129.150175 491.076923 129.226078 491.384615 129.311469 491.692308 129.406267 492.000000 129.510390 492.307692 129.623758 492.615385 129.746288 492.923077 129.877899 493.230769 130.018510 493.538462 130.168039 493.846154 130.326405 494.153846 130.493526 494.461538 130.669320 494.769231 130.853707 495.076923 131.046604 495.384615 131.247931 495.692308 131.457605 496.000000 131.675546 496.307692 131.901671 496.615385 132.135900 496.923077 132.378150 497.230769 132.628341 497.538462 132.886391 497.846154 133.152218 498.153846 133.425741 498.461538 133.706878 498.769231 133.995548 499.076923 134.291670 499.384615 134.595162 499.692308 134.905942 500.000000 135.223929 500.307692 135.549042 500.615385 135.881198 500.923077 136.220317 501.230769 136.566318 501.538462 136.919117 501.846154 137.278635 502.153846 137.644790 502.461538 138.017499 502.769231 138.396683 503.076923 138.782258 503.384615 139.174144 503.692308 139.572259 504.000000 139.976522 504.307692 140.386852 504.615385 140.803166 504.923077 141.225383 505.230769 141.653422 505.538462 142.087201 505.846154 142.526640 506.153846 142.971655 506.461538 143.422167 506.769231 143.878092 507.076923 144.339351 507.384615 144.805861 507.692308 145.277541 508.000000 145.754309 508.307692 146.236085 508.615385 146.722786 508.923077 147.214331 509.230769 147.710638 509.538462 148.211626 509.846154 148.717214 510.153846 149.227320 510.461538 149.741863 510.769231 150.260761 511.076923 150.783932 511.384615 151.311296 511.692308 151.842770 512.000000 152.378273 512.307692 152.917724 512.615385 153.461041 512.923077 154.008143 513.230769 154.558948 513.538462 155.113375 513.846154 155.671342 514.153846 156.232768 514.461538 156.797572 514.769231 157.365671 515.076923 157.936984 515.384615 158.511431 515.692308 159.088928 516.000000 159.669396 516.307692 160.252752 516.615385 160.838915 516.923077 161.427803 517.230769 162.019336 517.538462 162.613431 517.846154 163.210007 518.153846 163.808982 518.461538 164.410275 518.769231 165.013805 519.076923 165.619491 519.384615 166.227249 519.692308 166.837000 520.000000 167.448661 520.307692 168.062152 520.615385 168.677390 520.923077 169.294295 521.230769 169.912784 521.538462 170.532776 521.846154 171.154190 522.153846 171.776944 522.461538 172.400957 522.769231 173.026148 523.076923 173.652434 523.384615 174.279734 523.692308 174.907968 524.000000 175.537052 524.307692 176.166907 524.615385 176.797450 524.923077 177.428600 525.230769 178.060275 525.538462 178.692394 525.846154 179.324876 526.153846 179.957638 526.461538 180.590601 526.769231 181.223681 527.076923 181.856797 527.384615 182.489869 527.692308 183.122814 528.000000 183.755552 528.307692 184.388000 528.615385 185.020077 528.923077 185.651702 529.230769 186.282792 529.538462 186.913268 529.846154 187.543047 530.153846 188.172047 530.461538 188.800188 530.769231 189.427387 531.076923 190.053564 531.384615 190.678636 531.692308 191.302523 532.000000 191.925143 532.307692 192.546414 532.615385 193.166254 532.923077 193.784583 533.230769 194.401319 533.538462 195.016381 533.846154 195.629686 534.153846 196.241154 534.461538 196.850702 534.769231 197.458251 535.076923 198.063717 535.384615 198.667019 535.692308 199.268077 536.000000 199.866808 536.307692 200.463131 536.615385 201.056965 536.923077 201.648228 537.230769 202.236839 537.538462 202.822715 537.846154 203.405776 538.153846 203.985941 538.461538 204.563127 538.769231 205.137253 539.076923 205.708238 539.384615 206.276001 539.692308 206.840459 540.000000 207.401531 540.307692 207.959136 540.615385 208.513192 540.923077 209.063619 541.230769 209.610333 541.538462 210.153254 541.846154 210.692301 542.153846 211.227392 542.461538 211.758445 542.769231 212.285379 543.076923 212.808112 543.384615 213.326564 543.692308 213.840651 544.000000 214.350294 544.307692 214.855411 544.615385 215.355919 544.923077 215.851738 545.230769 216.342786 545.538462 216.828981 545.846154 217.310243 546.153846 217.786489 546.461538 218.257639 546.769231 218.723610 547.076923 219.184321 547.384615 219.639691 547.692308 220.089638 548.000000 220.534081 548.307692 220.972938 548.615385 221.406128 548.923077 221.833569 549.230769 222.255180 549.538462 222.670879 549.846154 223.080585 550.153846 223.484217 550.461538 223.881692 550.769231 224.272930 551.076923 224.657848 551.384615 225.036366 551.692308 225.408402 552.000000 225.773874 552.307692 226.132702 552.615385 226.484820 552.923077 226.830236 553.230769 227.168974 553.538462 227.501058 553.846154 227.826511 554.153846 228.145359 554.461538 228.457626 554.769231 228.763334 555.076923 229.062510 555.384615 229.355176 555.692308 229.641357 556.000000 229.921078 556.307692 230.194361 556.615385 230.461232 556.923077 230.721714 557.230769 230.975832 557.538462 231.223610 557.846154 231.465072 558.153846 231.700242 558.461538 231.929144 558.769231 232.151802 559.076923 232.368241 559.384615 232.578485 559.692308 232.782557 560.000000 232.980483 560.307692 233.172285 560.615385 233.357989 560.923077 233.537618 561.230769 233.711197 561.538462 233.878749 561.846154 234.040299 562.153846 234.195872 562.461538 234.345490 562.769231 234.489178 563.076923 234.626961 563.384615 234.758863 563.692308 234.884907 564.000000 235.005118 564.307692 235.119520 564.615385 235.228137 564.923077 235.330993 565.230769 235.428113 565.538462 235.519521 565.846154 235.605240 566.153846 235.685294 566.461538 235.759709 566.769231 235.828508 567.076923 235.891716 567.384615 235.949355 567.692308 236.001452 568.000000 236.048029 568.307692 236.089111 568.615385 236.124721 568.923077 236.154886 569.230769 236.179627 569.538462 236.198970 569.846154 236.212938 570.153846 236.221556 570.461538 236.224848 570.769231 236.222838 571.076923 236.215550 571.384615 236.203009 571.692308 236.185237 572.000000 236.162261 572.307692 236.134103 572.615385 236.100788 572.923077 236.062340 573.230769 236.018784 573.538462 235.970142 573.846154 235.916440 574.153846 235.857702 574.461538 235.793952 574.769231 235.725213 575.076923 235.651510 575.384615 235.572868 575.692308 235.489310 576.000000 235.400860 576.307692 235.307543 576.615385 235.209383 576.923077 235.106404 577.230769 234.998629 577.538462 234.886084 577.846154 234.768793 578.153846 234.646778 578.461538 234.520066 578.769231 234.388679 579.076923 234.252642 579.384615 234.111979 579.692308 233.966714 580.000000 233.816872 580.307692 233.662476 580.615385 233.503551 580.923077 233.340121 581.230769 233.172210 581.538462 232.999841 581.846154 232.823040 582.153846 232.641830 582.461538 232.456236 582.769231 232.266282 583.076923 232.071991 583.384615 231.873388 583.692308 231.670497 584.000000 231.463343 584.307692 231.251949 584.615385 231.036339 584.923077 230.816538 585.230769 230.592570 585.538462 230.364459 585.846154 230.132229 586.153846 229.895904 586.461538 229.655509 586.769231 229.411067 587.076923 229.162603 587.384615 228.910140 587.692308 228.653704 588.000000 228.393318 588.307692 228.129006 588.615385 227.860792 588.923077 227.588701 589.230769 227.312757 589.538462 227.032983 589.846154 226.749405 590.153846 226.462045 590.461538 226.170929 590.769231 225.876080 591.076923 225.577523 591.384615 225.275282 591.692308 224.969380 592.000000 224.659843 592.307692 224.346693 592.615385 224.029956 592.923077 223.709655 593.230769 223.385815 593.538462 223.058460 593.846154 222.727613 594.153846 222.393299 594.461538 222.055543 594.769231 221.714368 595.076923 221.369798 595.384615 221.021858 595.692308 220.670572 596.000000 220.315963 596.307692 219.958057 596.615385 219.596876 596.923077 219.232446 597.230769 218.864791 597.538462 218.493934 597.846154 218.119900 598.153846 217.742712 598.461538 217.362396 598.769231 216.978975 599.076923 216.592473 599.384615 216.202915 599.692308 215.810324 600.000000 215.414725 600.307692 215.016142 600.615385 214.614599 600.923077 214.210120 601.230769 213.802730 601.538462 213.392452 601.846154 212.979311 602.153846 212.563330 602.461538 212.144534 602.769231 211.722948 603.076923 211.298594 603.384615 210.871498 603.692308 210.441683 604.000000 210.009175 604.307692 209.573995 604.615385 209.136170 604.923077 208.695723 605.230769 208.252678 605.538462 207.807059 605.846154 207.358891 606.153846 206.908198 606.461538 206.455003 606.769231 205.999331 607.076923 205.541207 607.384615 205.080653 607.692308 204.617695 608.000000 204.152357 608.307692 203.684662 608.615385 203.214635 608.923077 202.742300 609.230769 202.267681 609.538462 201.790802 609.846154 201.311687 610.153846 200.830361 610.461538 200.346848 610.769231 199.861172 611.076923 199.373356 611.384615 198.883426 611.692308 198.391405 612.000000 197.897317 612.307692 197.401187 612.615385 196.903039 612.923077 196.402896 613.230769 195.900784 613.538462 195.396725 613.846154 194.890745 614.153846 194.382867 614.461538 193.873116 614.769231 193.361515 615.076923 192.848089 615.384615 192.332862 615.692308 191.815859 616.000000 191.297102 616.307692 190.776617 616.615385 190.254428 616.923077 189.730558 617.230769 189.205033 617.538462 188.677875 617.846154 188.149109 618.153846 187.618760 618.461538 187.086851 618.769231 186.553406 619.076923 186.018451 619.384615 185.482008 619.692308 184.944102 620.000000 184.404758 620.307692 183.863998 620.615385 183.321848 620.923077 182.778332 621.230769 182.233473 621.538462 181.687297 621.846154 181.139826 622.153846 180.591086 622.461538 180.041099 622.769231 179.489892 623.076923 178.937487 623.384615 178.383908 623.692308 177.829181 624.000000 177.273328 624.307692 176.716375 624.615385 176.158345 624.923077 175.599263 625.230769 175.039152 625.538462 174.478037 625.846154 173.915942 626.153846 173.352890 626.461538 172.788908 626.769231 172.224017 627.076923 171.658243 627.384615 171.091609 627.692308 170.524141 628.000000 169.955861 628.307692 169.386794 628.615385 168.816964 628.923077 168.246396 629.230769 167.675114 629.538462 167.103137 629.846154 166.530473 630.153846 165.957124 630.461538 165.383093 630.769231 164.808382 631.076923 164.232995 631.384615 163.656934 631.692308 163.080202 632.000000 162.502802 632.307692 161.924737 632.615385 161.346008 632.923077 160.766620 633.230769 160.186574 633.538462 159.605874 633.846154 159.024523 634.153846 158.442522 634.461538 157.859875 634.769231 157.276585 635.076923 156.692654 635.384615 156.108085 635.692308 155.522881 636.000000 154.937045 636.307692 154.350579 636.615385 153.763486 636.923077 153.175769 637.230769 152.587431 637.538462 151.998474 637.846154 151.408902 638.153846 150.818716 638.461538 150.227920 638.769231 149.636517 639.076923 149.044509 639.384615 148.451899 639.692308 147.858689 640.000000 147.264884 640.307692 146.670484 640.615385 146.075493 640.923077 145.479915 641.230769 144.883751 641.538462 144.287004 641.846154 143.689677 642.153846 143.091773 642.461538 142.493295 642.769231 141.894245 643.076923 141.294627 643.384615 140.694442 643.692308 140.093694 644.000000 139.492385 644.307692 138.890519 644.615385 138.288097 644.923077 137.685123 645.230769 137.081600 645.538462 136.477530 645.846154 135.872916 646.153846 135.267760 646.461538 134.662066 646.769231 134.055837 647.076923 133.449074 647.384615 132.841782 647.692308 132.233961 648.000000 131.625616 648.307692 131.016750 648.615385 130.407364 648.923077 129.797462 649.230769 129.187046 649.538462 128.576119 649.846154 127.964684 650.153846 127.352744 650.461538 126.740301 650.769231 126.127358 651.076923 125.513918 651.384615 124.899984 651.692308 124.285559 652.000000 123.670645 652.307692 123.055244 652.615385 122.439361 652.923077 121.822997 653.230769 121.206155 653.538462 120.588838 653.846154 119.971049 654.153846 119.352791 654.461538 118.734065 654.769231 118.114876 655.076923 117.495226 655.384615 116.875118 655.692308 116.254553 656.000000 115.633536 656.307692 115.012069 656.615385 114.390154 656.923077 113.767795 657.230769 113.144994 657.538462 112.521754 657.846154 111.898078 658.153846 111.273968 658.461538 110.649427 658.769231 110.024458 659.076923 109.399064 659.384615 108.773248 659.692308 108.147012 660.000000 107.520358 660.307692 106.893291 660.615385 106.265812 660.923077 105.637925 661.230769 105.009631 661.538462 104.380934 661.846154 103.751837 662.153846 103.122343 662.461538 102.492453 662.769231 101.862171 663.076923 101.231500 663.384615 100.600442 663.692308 99.969001 664.000000 99.337178 664.307692 98.704977 664.615385 98.072401 664.923077 97.439451 665.230769 96.806132 665.538462 96.172445 665.846154 95.538394 666.153846 94.903981 666.461538 94.269209 666.769231 93.634081 667.076923 92.998600 667.384615 92.362768 667.692308 91.726587 668.000000 91.090062 668.307692 90.453194 668.615385 89.815987 668.923077 89.178442 669.230769 88.540564 669.538462 87.902354 669.846154 87.263815 670.153846 86.624951 670.461538 85.985764 670.769231 85.346256 671.076923 84.706431 671.384615 84.066291 671.692308 83.425838 672.000000 82.785077 672.307692 82.144009 672.615385 81.502637 672.923077 80.860965 673.230769 80.218994 673.538462 79.576727 673.846154 78.934168 674.153846 78.291319 674.461538 77.648183 674.769231 77.004762 675.076923 76.361060 675.384615 75.717078 675.692308 75.072821 676.000000 74.428290 676.307692 73.783489 676.615385 73.138419 676.923077 72.493085 677.230769 71.847488 677.538462 71.201632 677.846154 70.555519 678.153846 69.909152 678.461538 69.262533 678.769231 68.615666 679.076923 67.968553 679.384615 67.321198 679.692308 66.673602 680.000000 66.025768 680.307692 65.377700 680.615385 64.729400 680.923077 64.080870 681.230769 63.432115 681.538462 62.783135 681.846154 62.133935 682.153846 61.484516 682.461538 60.834882 682.769231 60.185036 683.076923 59.534979 683.384615 58.884715 683.692308 58.234248 684.000000 57.583578 684.307692 56.932710 684.615385 56.281645 684.923077 55.630388 685.230769 54.978939 685.538462 54.327303 685.846154 53.675482 686.153846 53.023479 686.461538 52.371296 686.769231 51.718937 687.076923 51.066403 687.384615 50.413699 687.692308 49.760826 688.000000 49.107787 688.307692 48.454585 688.615385 47.801223 688.923077 47.147704 689.230769 46.494030 689.538462 45.840204 689.846154 45.186229 690.153846 44.532108 690.461538 43.877843 690.769231 43.223437 691.076923 42.568893 691.384615 41.914214 691.692308 41.259403 692.000000 40.604461 692.307692 39.949393 692.615385 39.294200 692.923077 38.638886 693.230769 37.983453 693.538462 37.327904 693.846154 36.672241 694.153846 36.016469 694.461538 35.360588 694.769231 34.704603 695.076923 34.048516 695.384615 33.392329 695.692308 32.736045 696.000000 32.079668 696.307692 31.423199 696.615385 30.766642 696.923077 30.110000 697.230769 29.453275 697.538462 28.796469 697.846154 28.139586 698.153846 27.482629 698.461538 26.825600 698.769231 26.168502 699.076923 25.511337 699.384615 24.854110 699.692308 24.196821 700.000000 23.539474 700.307692 22.882072 700.615385 22.224618 700.923077 21.567114 701.230769 20.909563 701.538462 20.251968 701.846154 19.594331 702.153846 18.936656 702.461538 18.278945 702.769231 17.621200 703.076923 16.963426 703.384615 16.305623 703.692308 15.647796 704.000000 14.989947 704.307692 14.332078 704.615385 13.674193 704.923077 13.016294 705.230769 12.358384 705.538462 11.700466 705.846154 11.042542 706.153846 10.384615 706.153846 540.000000" /></g></g><g class="titles" /><g class="plot overlay" transform="translate(60, 20)"><g class="series serie-0 color-0"><g class="dots"><circle class="dot reactive tooltip-trigger" cx="13.846153846153847" cy="270.16813168786086" r="2.5" /><desc class="value">5,978,704,947(kWh)</desc><desc class="x top">13.846153846153847</desc><desc class="y top">270.16813168786086</desc><desc class="x_label">2549</desc></g><g class="dots"><circle class="dot reactive tooltip-trigger" cx="90.76923076923076" cy="271.08187774860454" r="2.5" /><desc class="value">5,977,015,575(kWh)</desc><desc class="x top">90.76923076923076</desc><desc class="y top">271.08187774860454</desc><desc class="x_label">2550</desc></g><g class="dots"><circle class="dot reactive tooltip-trigger" cx="167.69230769230765" cy="421.2630124921404" r="2.5" /><desc class="value">5,699,354,401(kWh)</desc><desc class="x top">167.69230769230765</desc><desc class="y top">421.2630124921404</desc><desc class="x_label">2551</desc></g><g class="dots"><circle class="dot reactive tooltip-trigger" cx="244.6153846153846" cy="529.1098740120431" r="2.5" /><desc class="value">5,499,962,605(kWh)</desc><desc class="x top">244.6153846153846</desc><desc class="y top">529.1098740120431</desc><desc class="x_label">2552</desc></g><g class="dots"><circle class="dot reactive tooltip-trigger" cx="321.5384615384615" cy="448.86898685508237" r="2.5" /><desc class="value">5,648,315,319(kWh)</desc><desc class="x top">321.5384615384615</desc><desc class="y top">448.86898685508237</desc><desc class="x_label">2553</desc></g><g class="dots"><circle class="dot reactive tooltip-trigger" cx="398.46153846153845" cy="431.40858363805995" r="2.5" /><desc class="value">5,680,596,844(kWh)</desc><desc class="x left top">398.46153846153845</desc><desc class="y left top">431.40858363805995</desc><desc class="x_label">2554</desc></g><g class="dots"><circle class="dot reactive tooltip-trigger" cx="475.38461538461536" cy="139.25364546877717" r="2.5" /><desc class="value">6,220,745,134(kWh)</desc><desc class="x left">475.38461538461536</desc><desc class="y left">139.25364546877717</desc><desc class="x_label">2555</desc></g><g class="dots"><circle class="dot reactive tooltip-trigger" cx="552.3076923076923" cy="226.13270164508486" r="2.5" /><desc class="value">6,060,119,495(kWh)</desc><desc class="x left">552.3076923076923</desc><desc class="y left">226.13270164508486</desc><desc class="x_label">2556</desc></g><g class="dots"><circle class="dot reactive tooltip-trigger" cx="629.2307692307692" cy="167.6751135755236" r="2.5" /><desc class="value">6,168,198,333(kWh)</desc><desc class="x left">629.2307692307692</desc><desc class="y left">167.6751135755236</desc><desc class="x_label">2557</desc></g><g class="dots"><circle class="dot reactive tooltip-trigger" cx="706.1538461538461" cy="10.384615384615586" r="2.5" /><desc class="value">6,459,003,596(kWh)</desc><desc class="x left">706.1538461538461</desc><desc class="y left">10.384615384615586</desc><desc class="x_label">2558</desc></g></g></g><g class="plot text-overlay" transform="translate(60, 20)"><g class="series serie-0 color-0" /></g><g class="plot tooltip-overlay" transform="translate(60, 20)"><g class="tooltip" style="opacity: 0" transform="translate(0 0)"><rect class="tooltip-box" height="0" rx="0" ry="0" width="0" /><g class="text" /></g></g></g></svg>