<?xml version='1.0' encoding='utf-8'?>
<svg xmlns:xlink="http://www.w3.org/1999/xlink" class="pygal-chart" id="chart-e1018146-7360-4a9f-84d0-986e60cf354c" viewBox="0 0 800 600" xmlns="http://www.w3.org/2000/svg"><!--Generated with pygal 2.3.0 (etree) ©Kozea 2012-2016 on 2016-12-08--><!--http://pygal.org--><!--http://github.com/Kozea/pygal--><defs><style type="text/css">#chart-e1018146-7360-4a9f-84d0-986e60cf354c{-webkit-user-select:none;-webkit-font-smoothing:antialiased;font-family:Consolas,"Liberation Mono",Menlo,Courier,monospace}#chart-e1018146-7360-4a9f-84d0-986e60cf354c .title{font-family:Consolas,"Liberation Mono",Menlo,Courier,monospace;font-size:16px}#chart-e1018146-7360-4a9f-84d0-986e60cf354c .legends .legend text{font-family:Consolas,"Liberation Mono",Menlo,Courier,monospace;font-size:14px}#chart-e1018146-7360-4a9f-84d0-986e60cf354c .axis text{font-family:Consolas,"Liberation Mono",Menlo,Courier,monospace;font-size:10px}#chart-e1018146-7360-4a9f-84d0-986e60cf354c .axis text.major{font-family:Consolas,"Liberation Mono",Menlo,Courier,monospace;font-size:10px}#chart-e1018146-7360-4a9f-84d0-986e60cf354c .text-overlay text.value{font-family:Consolas,"Liberation Mono",Menlo,Courier,monospace;font-size:16px}#chart-e1018146-7360-4a9f-84d0-986e60cf354c .text-overlay text.label{font-family:Consolas,"Liberation Mono",Menlo,Courier,monospace;font-size:10px}#chart-e1018146-7360-4a9f-84d0-986e60cf354c .tooltip{font-family:Consolas,"Liberation Mono",Menlo,Courier,monospace;font-size:14px}#chart-e1018146-7360-4a9f-84d0-986e60cf354c text.no_data{font-family:Consolas,"Liberation Mono",Menlo,Courier,monospace;font-size:64px}
#chart-e1018146-7360-4a9f-84d0-986e60cf354c{background-color:rgba(249,249,249,1)}#chart-e1018146-7360-4a9f-84d0-986e60cf354c path,#chart-e1018146-7360-4a9f-84d0-986e60cf354c line,#chart-e1018146-7360-4a9f-84d0-986e60cf354c rect,#chart-e1018146-7360-4a9f-84d0-986e60cf354c circle{-webkit-transition:150ms;-moz-transition:150ms;transition:150ms}#chart-e1018146-7360-4a9f-84d0-986e60cf354c .graph &gt; .background{fill:rgba(249,249,249,1)}#chart-e1018146-7360-4a9f-84d0-986e60cf354c .plot &gt; .background{fill:rgba(255,255,255,1)}#chart-e1018146-7360-4a9f-84d0-986e60cf354c .graph{fill:rgba(0,0,0,.87)}#chart-e1018146-7360-4a9f-84d0-986e60cf354c text.no_data{fill:rgba(0,0,0,1)}#chart-e1018146-7360-4a9f-84d0-986e60cf354c .title{fill:rgba(0,0,0,1)}#chart-e1018146-7360-4a9f-84d0-986e60cf354c .legends .legend text{fill:rgba(0,0,0,.87)}#chart-e1018146-7360-4a9f-84d0-986e60cf354c .legends .legend:hover text{fill:rgba(0,0,0,1)}#chart-e1018146-7360-4a9f-84d0-986e60cf354c .axis .line{stroke:rgba(0,0,0,1)}#chart-e1018146-7360-4a9f-84d0-986e60cf354c .axis .guide.line{stroke:rgba(0,0,0,.54)}#chart-e1018146-7360-4a9f-84d0-986e60cf354c .axis .major.line{stroke:rgba(0,0,0,.87)}#chart-e1018146-7360-4a9f-84d0-986e60cf354c .axis text.major{fill:rgba(0,0,0,1)}#chart-e1018146-7360-4a9f-84d0-986e60cf354c .axis.y .guides:hover .guide.line,#chart-e1018146-7360-4a9f-84d0-986e60cf354c .line-graph .axis.x .guides:hover .guide.line,#chart-e1018146-7360-4a9f-84d0-986e60cf354c .stackedline-graph .axis.x .guides:hover .guide.line,#chart-e1018146-7360-4a9f-84d0-986e60cf354c .xy-graph .axis.x .guides:hover .guide.line{stroke:rgba(0,0,0,1)}#chart-e1018146-7360-4a9f-84d0-986e60cf354c .axis .guides:hover text{fill:rgba(0,0,0,1)}#chart-e1018146-7360-4a9f-84d0-986e60cf354c .reactive{fill-opacity:.7;stroke-opacity:.8}#chart-e1018146-7360-4a9f-84d0-986e60cf354c .ci{stroke:rgba(0,0,0,.87)}#chart-e1018146-7360-4a9f-84d0-986e60cf354c .reactive.active,#chart-e1018146-7360-4a9f-84d0-986e60cf354c .active .reactive{fill-opacity:.8;stroke-opacity:.9;stroke-width:4}#chart-e1018146-7360-4a9f-84d0-986e60cf354c .ci .reactive.active{stroke-width:1.5}#chart-e1018146-7360-4a9f-84d0-986e60cf354c .series text{fill:rgba(0,0,0,1)}#chart-e1018146-7360-4a9f-84d0-986e60cf354c .tooltip rect{fill:rgba(255,255,255,1);stroke:rgba(0,0,0,1);-webkit-transition:opacity 150ms;-moz-transition:opacity 150ms;transition:opacity 150ms}#chart-e1018146-7360-4a9f-84d0-986e60cf354c .tooltip .label{fill:rgba(0,0,0,.87)}#chart-e1018146-7360-4a9f-84d0-986e60cf354c .tooltip .label{fill:rgba(0,0,0,.87)}#chart-e1018146-7360-4a9f-84d0-986e60cf354c .tooltip .legend{font-size:.8em;fill:rgba(0,0,0,.54)}#chart-e1018146-7360-4a9f-84d0-986e60cf354c .tooltip .x_label{font-size:.6em;fill:rgba(0,0,0,1)}#chart-e1018146-7360-4a9f-84d0-986e60cf354c .tooltip .xlink{font-size:.5em;text-decoration:underline}#chart-e1018146-7360-4a9f-84d0-986e60cf354c .tooltip .value{font-size:1.5em}#chart-e1018146-7360-4a9f-84d0-986e60cf354c .bound{font-size:.5em}#chart-e1018146-7360-4a9f-84d0-986e60cf354c .max-value{font-size:.75em;fill:rgba(0,0,0,.54)}#chart-e1018146-7360-4a9f-84d0-986e60cf354c .map-element{fill:rgba(255,255,255,1);stroke:rgba(0,0,0,.54) !important}#chart-e1018146-7360-4a9f-84d0-986e60cf354c .map-element .reactive{fill-opacity:inherit;stroke-opacity:inherit}#chart-e1018146-7360-4a9f-84d0-986e60cf354c .color-0,#chart-e1018146-7360-4a9f-84d0-986e60cf354c .color-0 a:visited{stroke:#e86fa0;fill:#e86fa0}#chart-e1018146-7360-4a9f-84d0-986e60cf354c .text-overlay .color-0 text{fill:black}
#chart-e1018146-7360-4a9f-84d0-986e60cf354c text.no_data{text-anchor:middle}#chart-e1018146-7360-4a9f-84d0-986e60cf354c .guide.line{fill:none}#chart-e1018146-7360-4a9f-84d0-986e60cf354c .centered{text-anchor:middle}#chart-e1018146-7360-4a9f-84d0-986e60cf354c .title{text-anchor:middle}#chart-e1018146-7360-4a9f-84d0-986e60cf354c .legends .legend text{fill-opacity:1}#chart-e1018146-7360-4a9f-84d0-986e60cf354c .axis.x text{text-anchor:middle}#chart-e1018146-7360-4a9f-84d0-986e60cf354c .axis.x:not(.web) text[transform]{text-anchor:start}#chart-e1018146-7360-4a9f-84d0-986e60cf354c .axis.x:not(.web) text[transform].backwards{text-anchor:end}#chart-e1018146-7360-4a9f-84d0-986e60cf354c .axis.y text{text-anchor:end}#chart-e1018146-7360-4a9f-84d0-986e60cf354c .axis.y text[transform].backwards{text-anchor:start}#chart-e1018146-7360-4a9f-84d0-986e60cf354c .axis.y2 text{text-anchor:start}#chart-e1018146-7360-4a9f-84d0-986e60cf354c .axis.y2 text[transform].backwards{text-anchor:end}#chart-e1018146-7360-4a9f-84d0-986e60cf354c .axis .guide.line{stroke-dasharray:4,4}#chart-e1018146-7360-4a9f-84d0-986e60cf354c .axis .major.guide.line{stroke-dasharray:6,6}#chart-e1018146-7360-4a9f-84d0-986e60cf354c .horizontal .axis.y .guide.line,#chart-e1018146-7360-4a9f-84d0-986e60cf354c .horizontal .axis.y2 .guide.line,#chart-e1018146-7360-4a9f-84d0-986e60cf354c .vertical .axis.x .guide.line{opacity:0}#chart-e1018146-7360-4a9f-84d0-986e60cf354c .horizontal .axis.always_show .guide.line,#chart-e1018146-7360-4a9f-84d0-986e60cf354c .vertical .axis.always_show .guide.line{opacity:1 !important}#chart-e1018146-7360-4a9f-84d0-986e60cf354c .axis.y .guides:hover .guide.line,#chart-e1018146-7360-4a9f-84d0-986e60cf354c .axis.y2 .guides:hover .guide.line,#chart-e1018146-7360-4a9f-84d0-986e60cf354c .axis.x .guides:hover .guide.line{opacity:1}#chart-e1018146-7360-4a9f-84d0-986e60cf354c .axis .guides:hover text{opacity:1}#chart-e1018146-7360-4a9f-84d0-986e60cf354c .nofill{fill:none}#chart-e1018146-7360-4a9f-84d0-986e60cf354c .subtle-fill{fill-opacity:.2}#chart-e1018146-7360-4a9f-84d0-986e60cf354c .dot{stroke-width:1px;fill-opacity:1}#chart-e1018146-7360-4a9f-84d0-986e60cf354c .dot.active{stroke-width:5px}#chart-e1018146-7360-4a9f-84d0-986e60cf354c .dot.negative{fill:transparent}#chart-e1018146-7360-4a9f-84d0-986e60cf354c text,#chart-e1018146-7360-4a9f-84d0-986e60cf354c tspan{stroke:none !important}#chart-e1018146-7360-4a9f-84d0-986e60cf354c .series text.active{opacity:1}#chart-e1018146-7360-4a9f-84d0-986e60cf354c .tooltip rect{fill-opacity:.95;stroke-width:.5}#chart-e1018146-7360-4a9f-84d0-986e60cf354c .tooltip text{fill-opacity:1}#chart-e1018146-7360-4a9f-84d0-986e60cf354c .showable{visibility:hidden}#chart-e1018146-7360-4a9f-84d0-986e60cf354c .showable.shown{visibility:visible}#chart-e1018146-7360-4a9f-84d0-986e60cf354c .gauge-background{fill:rgba(229,229,229,1);stroke:none}#chart-e1018146-7360-4a9f-84d0-986e60cf354c .bg-lines{stroke:rgba(249,249,249,1);stroke-width:2px}</style><script type="text/javascript">window.pygal = window.pygal || {};window.pygal.config = window.pygal.config || {};window.pygal.config['e1018146-7360-4a9f-84d0-986e60cf354c'] = {"no_data_text": "No data", "no_prefix": false, "xrange": null, "print_values_position": "center", "truncate_label": null, "x_labels": ["2549", "2550", "2551", "2552", "2553", "2554", "2555", "2556", "2557", "2558"], "title": null, "force_uri_protocol": "https", "defs": [], "formatter": null, "classes": ["pygal-chart"], "y_labels": null, "rounded_bars": null, "explicit_size": false, "x_labels_major_every": null, "legend_at_bottom_columns": null, "stroke_style": null, "half_pie": false, "spacing": 10, "tooltip_fancy_mode": true, "inverse_y_axis": false, "width": 800, "inner_radius": 0, "interpolation_parameters": {}, "tooltip_border_radius": 0, "style": {"no_data_font_family": "Consolas, \"Liberation Mono\", Menlo, Courier, monospace", "tooltip_font_size": 14, "tooltip_font_family": "Consolas, \"Liberation Mono\", Menlo, Courier, monospace", "stroke_opacity_hover": ".9", "legend_font_family": "Consolas, \"Liberation Mono\", Menlo, Courier, monospace", "font_family": "Consolas, \"Liberation Mono\", Menlo, Courier, monospace", "title_font_family": "Consolas, \"Liberation Mono\", Menlo, Courier, monospace", "background": "rgba(249, 249, 249, 1)", "stroke_opacity": ".8", "foreground": "rgba(0, 0, 0, .87)", "value_background": "rgba(229, 229, 229, 1)", "guide_stroke_dasharray": "4,4", "foreground_subtle": "rgba(0, 0, 0, .54)", "opacity_hover": ".8", "value_font_family": "Consolas, \"Liberation Mono\", Menlo, Courier, monospace", "value_label_font_size": 10, "plot_background": "rgba(255, 255, 255, 1)", "ci_colors": [], "label_font_size": 10, "major_label_font_size": 10, "title_font_size": 16, "no_data_font_size": 64, "value_font_size": 16, "value_colors": [], "label_font_family": "Consolas, \"Liberation Mono\", Menlo, Courier, monospace", "major_guide_stroke_dasharray": "6,6", "transition": "150ms", "foreground_strong": "rgba(0, 0, 0, 1)", "colors": ["#e86fa0", "#e88f6f", "#e8df6f", "#a0e86f", "#6fe88f", "#6fe8df", "#6fa0e8", "#8f6fe8", "#df6fe8", "#e86fa0"], "opacity": ".7", "legend_font_size": 14, "value_label_font_family": "Consolas, \"Liberation Mono\", Menlo, Courier, monospace", "major_label_font_family": "Consolas, \"Liberation Mono\", Menlo, Courier, monospace"}, "x_labels_major_count": null, "interpolation_precision": 250, "missing_value_fill_truncation": "x", "stack_from_top": false, "truncate_legend": null, "show_minor_x_labels": true, "print_zeroes": true, "css": ["file://style.css", "file://graph.css"], "y_label_rotation": 0, "legend_at_bottom": false, "print_values": false, "margin_top": null, "max_scale": 16, "allow_interruptions": false, "show_x_labels": true, "strict": false, "show_x_guides": false, "stroke": true, "margin_left": null, "dynamic_print_values": false, "print_labels": false, "show_y_labels": true, "x_labels_major": null, "range": null, "x_label_rotation": 0, "margin": 20, "zero": 0, "include_x_axis": false, "height": 600, "show_minor_y_labels": true, "show_dots": true, "interpolate": "cubic", "show_y_guides": true, "y_labels_major": null, "box_mode": "extremes", "margin_bottom": null, "order_min": null, "legend_box_size": 12, "fill": true, "show_only_major_dots": false, "js": ["//kozea.github.io/pygal.js/2.0.x/pygal-tooltips.min.js"], "x_title": null, "y_labels_major_every": null, "y_labels_major_count": null, "disable_xml_declaration": false, "y_title": null, "logarithmic": false, "pretty_print": false, "min_scale": 4, "dots_size": 2.5, "margin_right": null, "legends": [null], "secondary_range": null, "show_legend": false}</script><script type="text/javascript" xlink:href="https://kozea.github.io/pygal.js/2.0.x/pygal-tooltips.min.js" /></defs><title>Pygal</title><g class="graph stackedline-graph vertical"><rect class="background" height="600" width="800" x="0" y="0" /><g class="plot" transform="translate(54, 20)"><rect class="background" height="540" width="726.0" x="0" y="0" /><g class="axis y"><path class="line" d="M0.000000 540.000000 h726.000000" /><g class="guides"><path class="guide line" d="M0.000000 494.836513 h726.000000" /><text class="" x="-5" y="498.33651312376486">520M</text><title>520M</title></g><g class="guides"><path class="guide line" d="M0.000000 450.190236 h726.000000" /><text class="" x="-5" y="453.69023628049797">540M</text><title>540M</title></g><g class="guides"><path class="guide line" d="M0.000000 405.543959 h726.000000" /><text class="" x="-5" y="409.04395943723114">560M</text><title>560M</title></g><g class="guides"><path class="guide line" d="M0.000000 360.897683 h726.000000" /><text class="" x="-5" y="364.3976825939643">580M</text><title>580M</title></g><g class="guides"><path class="major guide line" d="M0.000000 316.251406 h726.000000" /><text class="major" x="-5" y="319.7514057506974">600M</text><title>600M</title></g><g class="guides"><path class="guide line" d="M0.000000 271.605129 h726.000000" /><text class="" x="-5" y="275.1051289074306">620M</text><title>620M</title></g><g class="guides"><path class="guide line" d="M0.000000 226.958852 h726.000000" /><text class="" x="-5" y="230.45885206416375">640M</text><title>640M</title></g><g class="guides"><path class="guide line" d="M0.000000 182.312575 h726.000000" /><text class="" x="-5" y="185.81257522089692">660M</text><title>660M</title></g><g class="guides"><path class="guide line" d="M0.000000 137.666298 h726.000000" /><text class="" x="-5" y="141.16629837763003">680M</text><title>680M</title></g><g class="guides"><path class="major guide line" d="M0.000000 93.020022 h726.000000" /><text class="major" x="-5" y="96.5200215343632">700M</text><title>700M</title></g><g class="guides"><path class="guide line" d="M0.000000 48.373745 h726.000000" /><text class="" x="-5" y="51.87374469109636">720M</text><title>720M</title></g></g><g class="axis x"><g class="guides"><path class="line" d="M13.961538 0.000000 v540.000000" /><text class="" x="13.96153846153846" y="555.0">2549</text></g><g class="guides"><path class="guide line" d="M91.525641 0.000000 v540.000000" /><text class="" x="91.52564102564101" y="555.0">2550</text></g><g class="guides"><path class="guide line" d="M169.089744 0.000000 v540.000000" /><text class="" x="169.08974358974356" y="555.0">2551</text></g><g class="guides"><path class="guide line" d="M246.653846 0.000000 v540.000000" /><text class="" x="246.65384615384613" y="555.0">2552</text></g><g class="guides"><path class="guide line" d="M324.217949 0.000000 v540.000000" /><text class="" x="324.21794871794873" y="555.0">2553</text></g><g class="guides"><path class="guide line" d="M401.782051 0.000000 v540.000000" /><text class="" x="401.78205128205127" y="555.0">2554</text></g><g class="guides"><path class="guide line" d="M479.346154 0.000000 v540.000000" /><text class="" x="479.3461538461538" y="555.0">2555</text></g><g class="guides"><path class="guide line" d="M556.910256 0.000000 v540.000000" /><text class="" x="556.9102564102565" y="555.0">2556</text></g><g class="guides"><path class="guide line" d="M634.474359 0.000000 v540.000000" /><text class="" x="634.474358974359" y="555.0">2557</text></g><g class="guides"><path class="guide line" d="M712.038462 0.000000 v540.000000" /><text class="" x="712.0384615384615" y="555.0">2558</text></g></g><g class="series serie-0 color-0"><path class="line reactive" d="M13.961538 540.000000 L13.961538 529.615385 14.271795 529.331131 14.582051 529.046875 14.892308 528.762616 15.202564 528.478352 15.512821 528.194081 15.823077 527.909801 16.133333 527.625510 16.443590 527.341207 16.753846 527.056890 17.064103 526.772557 17.374359 526.488206 17.684615 526.203836 17.994872 525.919445 18.305128 525.635032 18.615385 525.350593 18.925641 525.066128 19.235897 524.781635 19.546154 524.497112 19.856410 524.212557 20.166667 523.927969 20.476923 523.643346 20.787179 523.358685 21.097436 523.073986 21.407692 522.789247 21.717949 522.504465 22.028205 522.219639 22.338462 521.934767 22.648718 521.649848 22.958974 521.364880 23.269231 521.079861 23.579487 520.794788 23.889744 520.509661 24.200000 520.224478 24.510256 519.939237 24.820513 519.653936 25.130769 519.368573 25.441026 519.083147 25.751282 518.797656 26.061538 518.512098 26.371795 518.226471 26.682051 517.940774 26.992308 517.655005 27.302564 517.369162 27.612821 517.083243 27.923077 516.797247 28.233333 516.511171 28.543590 516.225014 28.853846 515.938775 29.164103 515.652451 29.474359 515.366041 29.784615 515.079543 30.094872 514.792956 30.405128 514.506276 30.715385 514.219504 31.025641 513.932636 31.335897 513.645671 31.646154 513.358608 31.956410 513.071445 32.266667 512.784180 32.576923 512.496810 32.887179 512.209335 33.197436 511.921753 33.507692 511.634061 33.817949 511.346259 34.128205 511.058344 34.438462 510.770315 34.748718 510.482169 35.058974 510.193906 35.369231 509.905522 35.679487 509.617018 35.989744 509.328390 36.300000 509.039637 36.610256 508.750757 36.920513 508.461749 37.230769 508.172611 37.541026 507.883340 37.851282 507.593936 38.161538 507.304396 38.471795 507.014719 38.782051 506.724903 39.092308 506.434947 39.402564 506.144847 39.712821 505.854603 40.023077 505.564213 40.333333 505.273676 40.643590 504.982988 40.953846 504.692149 41.264103 504.401158 41.574359 504.110011 41.884615 503.818707 42.194872 503.527245 42.505128 503.235623 42.815385 502.943839 43.125641 502.651892 43.435897 502.359779 43.746154 502.067498 44.056410 501.775049 44.366667 501.482429 44.676923 501.189636 44.987179 500.896669 45.297436 500.603526 45.607692 500.310206 45.917949 500.016705 46.228205 499.723024 46.538462 499.429159 46.848718 499.135110 47.158974 498.840874 47.469231 498.546449 47.779487 498.251835 48.089744 497.957029 48.400000 497.662029 48.710256 497.366833 49.020513 497.071441 49.330769 496.775850 49.641026 496.480057 49.951282 496.184063 50.261538 495.887864 50.571795 495.591460 50.882051 495.294847 51.192308 494.998026 51.502564 494.700993 51.812821 494.403747 52.123077 494.106286 52.433333 493.808609 52.743590 493.510713 53.053846 493.212598 53.364103 492.914260 53.674359 492.615699 53.984615 492.316913 54.294872 492.017900 54.605128 491.718658 54.915385 491.419185 55.225641 491.119480 55.535897 490.819541 55.846154 490.519366 56.156410 490.218953 56.466667 489.918301 56.776923 489.617408 57.087179 489.316272 57.397436 489.014891 57.707692 488.713264 58.017949 488.411388 58.328205 488.109263 58.638462 487.806886 58.948718 487.504255 59.258974 487.201370 59.569231 486.898227 59.879487 486.594825 60.189744 486.291163 60.500000 485.987239 60.810256 485.683051 61.120513 485.378596 61.430769 485.073875 61.741026 484.768884 62.051282 484.463622 62.361538 484.158087 62.671795 483.852277 62.982051 483.546191 63.292308 483.239827 63.602564 482.933183 63.912821 482.626258 64.223077 482.319049 64.533333 482.011555 64.843590 481.703774 65.153846 481.395704 65.464103 481.087344 65.774359 480.778692 66.084615 480.469745 66.394872 480.160503 66.705128 479.850964 67.015385 479.541125 67.325641 479.230986 67.635897 478.920543 67.946154 478.609796 68.256410 478.298743 68.566667 477.987382 68.876923 477.675710 69.187179 477.363728 69.497436 477.051432 69.807692 476.738821 70.117949 476.425893 70.428205 476.112646 70.738462 475.799079 71.048718 475.485190 71.358974 475.170978 71.669231 474.856439 71.979487 474.541573 72.289744 474.226378 72.600000 473.910852 72.910256 473.594993 73.220513 473.278800 73.530769 472.962271 73.841026 472.645404 74.151282 472.328197 74.461538 472.010648 74.771795 471.692756 75.082051 471.374519 75.392308 471.055936 75.702564 470.737004 76.012821 470.417722 76.323077 470.098087 76.633333 469.778099 76.943590 469.457755 77.253846 469.137054 77.564103 468.815994 77.874359 468.494573 78.184615 468.172789 78.494872 467.850641 78.805128 467.528127 79.115385 467.205245 79.425641 466.881993 79.735897 466.558370 80.046154 466.234374 80.356410 465.910003 80.666667 465.585255 80.976923 465.260129 81.287179 464.934622 81.597436 464.608734 81.907692 464.282461 82.217949 463.955804 82.528205 463.628759 82.838462 463.301325 83.148718 462.973500 83.458974 462.645283 83.769231 462.316671 84.079487 461.987664 84.389744 461.658258 84.700000 461.328453 85.010256 460.998247 85.320513 460.667637 85.630769 460.336623 85.941026 460.005202 86.251282 459.673373 86.561538 459.341133 86.871795 459.008482 87.182051 458.675417 87.492308 458.341937 87.802564 458.008039 88.112821 457.673723 88.423077 457.338986 88.733333 457.003826 89.043590 456.668242 89.353846 456.332232 89.664103 455.995795 89.974359 455.658928 90.284615 455.321629 90.594872 454.983898 90.905128 454.645732 91.215385 454.307129 91.525641 453.968088 91.835897 453.628608 92.146154 453.288694 92.456410 452.948351 92.766667 452.607585 93.076923 452.266401 93.387179 451.924804 93.697436 451.582802 94.007692 451.240398 94.317949 450.897599 94.628205 450.554411 94.938462 450.210838 95.248718 449.866887 95.558974 449.522563 95.869231 449.177872 96.179487 448.832818 96.489744 448.487409 96.800000 448.141649 97.110256 447.795545 97.420513 447.449101 97.730769 447.102323 98.041026 446.755217 98.351282 446.407788 98.661538 446.060043 98.971795 445.711986 99.282051 445.363623 99.592308 445.014960 99.902564 444.666003 100.212821 444.316756 100.523077 443.967226 100.833333 443.617419 101.143590 443.267339 101.453846 442.916992 101.764103 442.566385 102.074359 442.215522 102.384615 441.864409 102.694872 441.513052 103.005128 441.161457 103.315385 440.809628 103.625641 440.457572 103.935897 440.105294 104.246154 439.752800 104.556410 439.400095 104.866667 439.047185 105.176923 438.694075 105.487179 438.340772 105.797436 437.987280 106.107692 437.633606 106.417949 437.279755 106.728205 436.925732 107.038462 436.571543 107.348718 436.217194 107.658974 435.862690 107.969231 435.508037 108.279487 435.153241 108.589744 434.798306 108.900000 434.443239 109.210256 434.088046 109.520513 433.732731 109.830769 433.377301 110.141026 433.021761 110.451282 432.666117 110.761538 432.310373 111.071795 431.954537 111.382051 431.598613 111.692308 431.242607 112.002564 430.886525 112.312821 430.530371 112.623077 430.174153 112.933333 429.817875 113.243590 429.461543 113.553846 429.105163 113.864103 428.748740 114.174359 428.392279 114.484615 428.035787 114.794872 427.679269 115.105128 427.322731 115.415385 426.966177 115.725641 426.609615 116.035897 426.253049 116.346154 425.896484 116.656410 425.539928 116.966667 425.183384 117.276923 424.826859 117.587179 424.470358 117.897436 424.113888 118.207692 423.757453 118.517949 423.401059 118.828205 423.044711 119.138462 422.688416 119.448718 422.332179 119.758974 421.976006 120.069231 421.619901 120.379487 421.263871 120.689744 420.907922 121.000000 420.552058 121.310256 420.196286 121.620513 419.840610 121.930769 419.485038 122.241026 419.129574 122.551282 418.774223 122.861538 418.418992 123.171795 418.063886 123.482051 417.708911 123.792308 417.354072 124.102564 416.999374 124.412821 416.644824 124.723077 416.290428 125.033333 415.936189 125.343590 415.582115 125.653846 415.228211 125.964103 414.874482 126.274359 414.520934 126.584615 414.167573 126.894872 413.814403 127.205128 413.461432 127.515385 413.108664 127.825641 412.756105 128.135897 412.403760 128.446154 412.051636 128.756410 411.699737 129.066667 411.348070 129.376923 410.996640 129.687179 410.645452 129.997436 410.294512 130.307692 409.943826 130.617949 409.593399 130.928205 409.243238 131.238462 408.893346 131.548718 408.543731 131.858974 408.194398 132.169231 407.845351 132.479487 407.496598 132.789744 407.148143 133.100000 406.799992 133.410256 406.452151 133.720513 406.104625 134.030769 405.757421 134.341026 405.410542 134.651282 405.063995 134.961538 404.717787 135.271795 404.371921 135.582051 404.026404 135.892308 403.681242 136.202564 403.336440 136.512821 402.992003 136.823077 402.647937 137.133333 402.304249 137.443590 401.960942 137.753846 401.618024 138.064103 401.275499 138.374359 400.933374 138.684615 400.591653 138.994872 400.250343 139.305128 399.909448 139.615385 399.568975 139.925641 399.228930 140.235897 398.889317 140.546154 398.550142 140.856410 398.211412 141.166667 397.873131 141.476923 397.535305 141.787179 397.197940 142.097436 396.861041 142.407692 396.524614 142.717949 396.188664 143.028205 395.853198 143.338462 395.518220 143.648718 395.183737 143.958974 394.849754 144.269231 394.516276 144.579487 394.183309 144.889744 393.850859 145.200000 393.518931 145.510256 393.187531 145.820513 392.856664 146.130769 392.526337 146.441026 392.196554 146.751282 391.867321 147.061538 391.538645 147.371795 391.210529 147.682051 390.882981 147.992308 390.556005 148.302564 390.229608 148.612821 389.903794 148.923077 389.578570 149.233333 389.253941 149.543590 388.929912 149.853846 388.606490 150.164103 388.283680 150.474359 387.961486 150.784615 387.639916 151.094872 387.318975 151.405128 386.998667 151.715385 386.679000 152.025641 386.359977 152.335897 386.041606 152.646154 385.723891 152.956410 385.406838 153.266667 385.090454 153.576923 384.774742 153.887179 384.459709 154.197436 384.145361 154.507692 383.831703 154.817949 383.518741 155.128205 383.206480 155.438462 382.894926 155.748718 382.584085 156.058974 382.273961 156.369231 381.964562 156.679487 381.655891 156.989744 381.347956 157.300000 381.040761 157.610256 380.734312 157.920513 380.428614 158.230769 380.123674 158.541026 379.819497 158.851282 379.516088 159.161538 379.213454 159.471795 378.911599 159.782051 378.610529 160.092308 378.310250 160.402564 378.010767 160.712821 377.712087 161.023077 377.414214 161.333333 377.117154 161.643590 376.820913 161.953846 376.525497 162.264103 376.230910 162.574359 375.937159 162.884615 375.644250 163.194872 375.352187 163.505128 375.060976 163.815385 374.770624 164.125641 374.481135 164.435897 374.192515 164.746154 373.904770 165.056410 373.617905 165.366667 373.331926 165.676923 373.046839 165.987179 372.762649 166.297436 372.479362 166.607692 372.196983 166.917949 371.915518 167.228205 371.634972 167.538462 371.355352 167.848718 371.076662 168.158974 370.798908 168.469231 370.522097 168.779487 370.246233 169.089744 369.971322 169.400000 369.697365 169.710256 369.424349 170.020513 369.152255 170.330769 368.881065 170.641026 368.610759 170.951282 368.341320 171.261538 368.072729 171.571795 367.804967 171.882051 367.538017 172.192308 367.271860 172.502564 367.006478 172.812821 366.741851 173.123077 366.477963 173.433333 366.214793 173.743590 365.952324 174.053846 365.690538 174.364103 365.429415 174.674359 365.168939 174.984615 364.909089 175.294872 364.649848 175.605128 364.391197 175.915385 364.133118 176.225641 363.875593 176.535897 363.618603 176.846154 363.362129 177.156410 363.106153 177.466667 362.850658 177.776923 362.595623 178.087179 362.341032 178.397436 362.086865 178.707692 361.833104 179.017949 361.579731 179.328205 361.326727 179.638462 361.074074 179.948718 360.821754 180.258974 360.569747 180.569231 360.318036 180.879487 360.066602 181.189744 359.815427 181.500000 359.564492 181.810256 359.313779 182.120513 359.063270 182.430769 358.812946 182.741026 358.562788 183.051282 358.312779 183.361538 358.062899 183.671795 357.813131 183.982051 357.563456 184.292308 357.313855 184.602564 357.064310 184.912821 356.814804 185.223077 356.565316 185.533333 356.315829 185.843590 356.066325 186.153846 355.816785 186.464103 355.567190 186.774359 355.317523 187.084615 355.067764 187.394872 354.817896 187.705128 354.567900 188.015385 354.317757 188.325641 354.067450 188.635897 353.816959 188.946154 353.566266 189.256410 353.315353 189.566667 353.064201 189.876923 352.812793 190.187179 352.561109 190.497436 352.309131 190.807692 352.056842 191.117949 351.804221 191.428205 351.551251 191.738462 351.297914 192.048718 351.044191 192.358974 350.790063 192.669231 350.535513 192.979487 350.280522 193.289744 350.025070 193.600000 349.769141 193.910256 349.512716 194.220513 349.255775 194.530769 348.998302 194.841026 348.740276 195.151282 348.481681 195.461538 348.222497 195.771795 347.962706 196.082051 347.702289 196.392308 347.441229 196.702564 347.179506 197.012821 346.917103 197.323077 346.654001 197.633333 346.390182 197.943590 346.125626 198.253846 345.860316 198.564103 345.594234 198.874359 345.327360 199.184615 345.059677 199.494872 344.791165 199.805128 344.521807 200.115385 344.251585 200.425641 343.980479 200.735897 343.708472 201.046154 343.435544 201.356410 343.161678 201.666667 342.886855 201.976923 342.611056 202.287179 342.334264 202.597436 342.056460 202.907692 341.777625 203.217949 341.497741 203.528205 341.216790 203.838462 340.934752 204.148718 340.651611 204.458974 340.367346 204.769231 340.081941 205.079487 339.795376 205.389744 339.507633 205.700000 339.218694 206.010256 338.928540 206.320513 338.637152 206.630769 338.344513 206.941026 338.050604 207.251282 337.755407 207.561538 337.458902 207.871795 337.161073 208.182051 336.861899 208.492308 336.561363 208.802564 336.259447 209.112821 335.956132 209.423077 335.651399 209.733333 335.345231 210.043590 335.037608 210.353846 334.728513 210.664103 334.417926 210.974359 334.105830 211.284615 333.792206 211.594872 333.477036 211.905128 333.160301 212.215385 332.841983 212.525641 332.522063 212.835897 332.200523 213.146154 331.877345 213.456410 331.552509 213.766667 331.225999 214.076923 330.897795 214.387179 330.567878 214.697436 330.236232 215.007692 329.902836 215.317949 329.567673 215.628205 329.230723 215.938462 328.891970 216.248718 328.551394 216.558974 328.208977 216.869231 327.864701 217.179487 327.518547 217.489744 327.170496 217.800000 326.820531 218.110256 326.468632 218.420513 326.114782 218.730769 325.758962 219.041026 325.401153 219.351282 325.041338 219.661538 324.679497 219.971795 324.315613 220.282051 323.949667 220.592308 323.581640 220.902564 323.211514 221.212821 322.839271 221.523077 322.464892 221.833333 322.088358 222.143590 321.709653 222.453846 321.328756 222.764103 320.945650 223.074359 320.560315 223.384615 320.172735 223.694872 319.782890 224.005128 319.390762 224.315385 318.996332 224.625641 318.599582 224.935897 318.200494 225.246154 317.799049 225.556410 317.395229 225.866667 316.989015 226.176923 316.580389 226.487179 316.169333 226.797436 315.755828 227.107692 315.339855 227.417949 314.921397 227.728205 314.500434 228.038462 314.076949 228.348718 313.650923 228.658974 313.222338 228.969231 312.791174 229.279487 312.357415 229.589744 311.921040 229.900000 311.482033 230.210256 311.040374 230.520513 310.596046 230.830769 310.149028 231.141026 309.699304 231.451282 309.246855 231.761538 308.791663 232.071795 308.333708 232.382051 307.872973 232.692308 307.409439 233.002564 306.943087 233.312821 306.473900 233.623077 306.001859 233.933333 305.526945 234.243590 305.049141 234.553846 304.568427 234.864103 304.084785 235.174359 303.598197 235.484615 303.108644 235.794872 302.616108 236.105128 302.120571 236.415385 301.622013 236.725641 301.120418 237.035897 300.615766 237.346154 300.108038 237.656410 299.597217 237.966667 299.083284 238.276923 298.566221 238.587179 298.046009 238.897436 297.522629 239.207692 296.996064 239.517949 296.466295 239.828205 295.933303 240.138462 295.397070 240.448718 294.857578 240.758974 294.314808 241.069231 293.768742 241.379487 293.219361 241.689744 292.666648 242.000000 292.110583 242.310256 291.551148 242.620513 290.988324 242.930769 290.422094 243.241026 289.852439 243.551282 289.279340 243.861538 288.702780 244.171795 288.122739 244.482051 287.539199 244.792308 286.952142 245.102564 286.361549 245.412821 285.767402 245.723077 285.169683 246.033333 284.568373 246.343590 283.963453 246.653846 283.354906 246.964103 282.742723 247.274359 282.126940 247.584615 281.507600 247.894872 280.884751 248.205128 280.258436 248.515385 279.628701 248.825641 278.995592 249.135897 278.359153 249.446154 277.719430 249.756410 277.076468 250.066667 276.430313 250.376923 275.781009 250.687179 275.128602 250.997436 274.473138 251.307692 273.814661 251.617949 273.153216 251.928205 272.488849 252.238462 271.821606 252.548718 271.151531 252.858974 270.478670 253.169231 269.803067 253.479487 269.124769 253.789744 268.443820 254.100000 267.760266 254.410256 267.074152 254.720513 266.385523 255.030769 265.694425 255.341026 265.000903 255.651282 264.305001 255.961538 263.606766 256.271795 262.906242 256.582051 262.203475 256.892308 261.498509 257.202564 260.791392 257.512821 260.082166 257.823077 259.370879 258.133333 258.657574 258.443590 257.942298 258.753846 257.225095 259.064103 256.506011 259.374359 255.785091 259.684615 255.062381 259.994872 254.337925 260.305128 253.611769 260.615385 252.883958 260.925641 252.154537 261.235897 251.423552 261.546154 250.691047 261.856410 249.957069 262.166667 249.221662 262.476923 248.484872 262.787179 247.746743 263.097436 247.007322 263.407692 246.266653 263.717949 245.524782 264.028205 244.781753 264.338462 244.037613 264.648718 243.292406 264.958974 242.546178 265.269231 241.798973 265.579487 241.050838 265.889744 240.301817 266.200000 239.551956 266.510256 238.801300 266.820513 238.049894 267.130769 237.297783 267.441026 236.545013 267.751282 235.791629 268.061538 235.037676 268.371795 234.283200 268.682051 233.528245 268.992308 232.772858 269.302564 232.017082 269.612821 231.260964 269.923077 230.504549 270.233333 229.747882 270.543590 228.991008 270.853846 228.233972 271.164103 227.476820 271.474359 226.719598 271.784615 225.962349 272.094872 225.205120 272.405128 224.447956 272.715385 223.690902 273.025641 222.934003 273.335897 222.177304 273.646154 221.420852 273.956410 220.664690 274.266667 219.908865 274.576923 219.153421 274.887179 218.398405 275.197436 217.643860 275.507692 216.889832 275.817949 216.136368 276.128205 215.383510 276.438462 214.631307 276.748718 213.879801 277.058974 213.129039 277.369231 212.379066 277.679487 211.629927 277.989744 210.881667 278.300000 210.134332 278.610256 209.387967 278.920513 208.642617 279.230769 207.898327 279.541026 207.155143 279.851282 206.413110 280.161538 205.672273 280.471795 204.932678 280.782051 204.194369 281.092308 203.457392 281.402564 202.721792 281.712821 201.987615 282.023077 201.254905 282.333333 200.523709 282.643590 199.794070 282.953846 199.066035 283.264103 198.339649 283.574359 197.614956 283.884615 196.892003 284.194872 196.170834 284.505128 195.451495 284.815385 194.734031 285.125641 194.018488 285.435897 193.304909 285.746154 192.593342 286.056410 191.883830 286.366667 191.176420 286.676923 190.471156 286.987179 189.768085 287.297436 189.067250 287.607692 188.368697 287.917949 187.672472 288.228205 186.978620 288.538462 186.287185 288.848718 185.598214 289.158974 184.911752 289.469231 184.227843 289.779487 183.546534 290.089744 182.867869 290.400000 182.191893 290.710256 181.518652 291.020513 180.848192 291.330769 180.180556 291.641026 179.515791 291.951282 178.853943 292.261538 178.195055 292.571795 177.539173 292.882051 176.886343 293.192308 176.236611 293.502564 175.590020 293.812821 174.946616 294.123077 174.306446 294.433333 173.669553 294.743590 173.035983 295.053846 172.405782 295.364103 171.778994 295.674359 171.155665 295.984615 170.535841 296.294872 169.919566 296.605128 169.306885 296.915385 168.697845 297.225641 168.092489 297.535897 167.490865 297.846154 166.893015 298.156410 166.298987 298.466667 165.708825 298.776923 165.122575 299.087179 164.540281 299.397436 163.961989 299.707692 163.387745 300.017949 162.817593 300.328205 162.251578 300.638462 161.689747 300.948718 161.132144 301.258974 160.578814 301.569231 160.029804 301.879487 159.485157 302.189744 158.944919 302.500000 158.409136 302.810256 157.877853 303.120513 157.351115 303.430769 156.828967 303.741026 156.311455 304.051282 155.798624 304.361538 155.290518 304.671795 154.787184 304.982051 154.288667 305.292308 153.795011 305.602564 153.306263 305.912821 152.822467 306.223077 152.343668 306.533333 151.869912 306.843590 151.401245 307.153846 150.937710 307.464103 150.479355 307.774359 150.026223 308.084615 149.578360 308.394872 149.135812 308.705128 148.698623 309.015385 148.266840 309.325641 147.840506 309.635897 147.419668 309.946154 147.004370 310.256410 146.594659 310.566667 146.190578 310.876923 145.792174 311.187179 145.399492 311.497436 145.012577 311.807692 144.631473 312.117949 144.256228 312.428205 143.886885 312.738462 143.523490 313.048718 143.166088 313.358974 142.814724 313.669231 142.469445 313.979487 142.130294 314.289744 141.797317 314.600000 141.470560 314.910256 141.150068 315.220513 140.835886 315.530769 140.528059 315.841026 140.226633 316.151282 139.931652 316.461538 139.643162 316.771795 139.361209 317.082051 139.085837 317.392308 138.817092 317.702564 138.555019 318.012821 138.299663 318.323077 138.051070 318.633333 137.809285 318.943590 137.574353 319.253846 137.346319 319.564103 137.125228 319.874359 136.911127 320.184615 136.704059 320.494872 136.504071 320.805128 136.311207 321.115385 136.125514 321.425641 135.947035 321.735897 135.775817 322.046154 135.611904 322.356410 135.455343 322.666667 135.306177 322.976923 135.164453 323.287179 135.030215 323.597436 134.903510 323.907692 134.784381 324.217949 134.672875 324.528205 134.569019 324.838462 134.472768 325.148718 134.384062 325.458974 134.302837 325.769231 134.229033 326.079487 134.162587 326.389744 134.103438 326.700000 134.051523 327.010256 134.006782 327.320513 133.969151 327.630769 133.938570 327.941026 133.914975 328.251282 133.898307 328.561538 133.888502 328.871795 133.885498 329.182051 133.889235 329.492308 133.899649 329.802564 133.916680 330.112821 133.940265 330.423077 133.970343 330.733333 134.006851 331.043590 134.049728 331.353846 134.098912 331.664103 134.154341 331.974359 134.215954 332.284615 134.283688 332.594872 134.357481 332.905128 134.437272 333.215385 134.522999 333.525641 134.614600 333.835897 134.712013 334.146154 134.815176 334.456410 134.924028 334.766667 135.038507 335.076923 135.158550 335.387179 135.284096 335.697436 135.415083 336.007692 135.551449 336.317949 135.693133 336.628205 135.840072 336.938462 135.992205 337.248718 136.149470 337.558974 136.311804 337.869231 136.479147 338.179487 136.651436 338.489744 136.828609 338.800000 137.010605 339.110256 137.197361 339.420513 137.388817 339.730769 137.584909 340.041026 137.785577 340.351282 137.990757 340.661538 138.200390 340.971795 138.414412 341.282051 138.632761 341.592308 138.855377 341.902564 139.082196 342.212821 139.313158 342.523077 139.548200 342.833333 139.787261 343.143590 140.030278 343.453846 140.277190 343.764103 140.527935 344.074359 140.782451 344.384615 141.040676 344.694872 141.302549 345.005128 141.568007 345.315385 141.836989 345.625641 142.109432 345.935897 142.385276 346.246154 142.664458 346.556410 142.946916 346.866667 143.232589 347.176923 143.521414 347.487179 143.813330 347.797436 144.108274 348.107692 144.406186 348.417949 144.707003 348.728205 145.010664 349.038462 145.317105 349.348718 145.626267 349.658974 145.938086 349.969231 146.252501 350.279487 146.569451 350.589744 146.888872 350.900000 147.210704 351.210256 147.534884 351.520513 147.861352 351.830769 148.190043 352.141026 148.520898 352.451282 148.853854 352.761538 149.188850 353.071795 149.525822 353.382051 149.864711 353.692308 150.205453 354.002564 150.547987 354.312821 150.892251 354.623077 151.238183 354.933333 151.585722 355.243590 151.934804 355.553846 152.285370 355.864103 152.637356 356.174359 152.990702 356.484615 153.345344 356.794872 153.701222 357.105128 154.058273 357.415385 154.416435 357.725641 154.775648 358.035897 155.135848 358.346154 155.496974 358.656410 155.858964 358.966667 156.221756 359.276923 156.585289 359.587179 156.949500 359.897436 157.314328 360.207692 157.679711 360.517949 158.045587 360.828205 158.411895 361.138462 158.778571 361.448718 159.145555 361.758974 159.512785 362.069231 159.880198 362.379487 160.247734 362.689744 160.615329 363.000000 160.982923 363.310256 161.350453 363.620513 161.717857 363.930769 162.085074 364.241026 162.452042 364.551282 162.818699 364.861538 163.184983 365.171795 163.550833 365.482051 163.916185 365.792308 164.280980 366.102564 164.645154 366.412821 165.008646 366.723077 165.371394 367.033333 165.733336 367.343590 166.094410 367.653846 166.454555 367.964103 166.813709 368.274359 167.171809 368.584615 167.528794 368.894872 167.884603 369.205128 168.239172 369.515385 168.592441 369.825641 168.944347 370.135897 169.294829 370.446154 169.643825 370.756410 169.991273 371.066667 170.337111 371.376923 170.681277 371.687179 171.023710 371.997436 171.364347 372.307692 171.703127 372.617949 172.039988 372.928205 172.374867 373.238462 172.707704 373.548718 173.038436 373.858974 173.367002 374.169231 173.693339 374.479487 174.017386 374.789744 174.339081 375.100000 174.658362 375.410256 174.975168 375.720513 175.289435 376.030769 175.601103 376.341026 175.910110 376.651282 176.216394 376.961538 176.519892 377.271795 176.820544 377.582051 177.118287 377.892308 177.413059 378.202564 177.704799 378.512821 177.993445 378.823077 178.278934 379.133333 178.561206 379.443590 178.840197 379.753846 179.115847 380.064103 179.388093 380.374359 179.656874 380.684615 179.922128 380.994872 180.183793 381.305128 180.441806 381.615385 180.696107 381.925641 180.946634 382.235897 181.193323 382.546154 181.436115 382.856410 181.674946 383.166667 181.909755 383.476923 182.140480 383.787179 182.367060 384.097436 182.589432 384.407692 182.807534 384.717949 183.021305 385.028205 183.230683 385.338462 183.435606 385.648718 183.636012 385.958974 183.831840 386.269231 184.023027 386.579487 184.209511 386.889744 184.391231 387.200000 184.568126 387.510256 184.740132 387.820513 184.907188 388.130769 185.069233 388.441026 185.226204 388.751282 185.378040 389.061538 185.524679 389.371795 185.666058 389.682051 185.802117 389.992308 185.932793 390.302564 186.058024 390.612821 186.177749 390.923077 186.291906 391.233333 186.400432 391.543590 186.503267 391.853846 186.600347 392.164103 186.691612 392.474359 186.777000 392.784615 186.856448 393.094872 186.929894 393.405128 186.997278 393.715385 187.058536 394.025641 187.113608 394.335897 187.162431 394.646154 187.204944 394.956410 187.241084 395.266667 187.270790 395.576923 187.294000 395.887179 187.310652 396.197436 187.320685 396.507692 187.324035 396.817949 187.320642 397.128205 187.310444 397.438462 187.293379 397.748718 187.269385 398.058974 187.238400 398.369231 187.200362 398.679487 187.155210 398.989744 187.102881 399.300000 187.043314 399.610256 186.976447 399.920513 186.902218 400.230769 186.820565 400.541026 186.731426 400.851282 186.634740 401.161538 186.530444 401.471795 186.418478 401.782051 186.298778 402.092308 186.171302 402.402564 186.036081 402.712821 185.893166 403.023077 185.742606 403.333333 185.584451 403.643590 185.418753 403.953846 185.245560 404.264103 185.064923 404.574359 184.876893 404.884615 184.681519 405.194872 184.478851 405.505128 184.268940 405.815385 184.051835 406.125641 183.827588 406.435897 183.596247 406.746154 183.357864 407.056410 183.112487 407.366667 182.860169 407.676923 182.600957 407.987179 182.334904 408.297436 182.062058 408.607692 181.782470 408.917949 181.496190 409.228205 181.203268 409.538462 180.903755 409.848718 180.597700 410.158974 180.285154 410.469231 179.966166 410.779487 179.640788 411.089744 179.309068 411.400000 178.971058 411.710256 178.626806 412.020513 178.276365 412.330769 177.919782 412.641026 177.557110 412.951282 177.188397 413.261538 176.813695 413.571795 176.433052 413.882051 176.046520 414.192308 175.654148 414.502564 175.255986 414.812821 174.852085 415.123077 174.442495 415.433333 174.027266 415.743590 173.606448 416.053846 173.180091 416.364103 172.748246 416.674359 172.310961 416.984615 171.868289 417.294872 171.420278 417.605128 170.966979 417.915385 170.508442 418.225641 170.044717 418.535897 169.575855 418.846154 169.101905 419.156410 168.622917 419.466667 168.138942 419.776923 167.650030 420.087179 167.156231 420.397436 166.657595 420.707692 166.154172 421.017949 165.646012 421.328205 165.133166 421.638462 164.615684 421.948718 164.093615 422.258974 163.567011 422.569231 163.035920 422.879487 162.500393 423.189744 161.960481 423.500000 161.416233 423.810256 160.867700 424.120513 160.314932 424.430769 159.757978 424.741026 159.196889 425.051282 158.631716 425.361538 158.062508 425.671795 157.489315 425.982051 156.912187 426.292308 156.331175 426.602564 155.746330 426.912821 155.157700 427.223077 154.565336 427.533333 153.969288 427.843590 153.369607 428.153846 152.766342 428.464103 152.159543 428.774359 151.549262 429.084615 150.935547 429.394872 150.318449 429.705128 149.698019 430.015385 149.074306 430.325641 148.447360 430.635897 147.817232 430.946154 147.183971 431.256410 146.547628 431.566667 145.908254 431.876923 145.265897 432.187179 144.620609 432.497436 143.972438 432.807692 143.321437 433.117949 142.667654 433.428205 142.011140 433.738462 141.351945 434.048718 140.690119 434.358974 140.025712 434.669231 139.358774 434.979487 138.689356 435.289744 138.017507 435.600000 137.343278 435.910256 136.666719 436.220513 135.987880 436.530769 135.306811 436.841026 134.623563 437.151282 133.938185 437.461538 133.250727 437.771795 132.561240 438.082051 131.869774 438.392308 131.176379 438.702564 130.481104 439.012821 129.784002 439.323077 129.085120 439.633333 128.384510 439.943590 127.682222 440.253846 126.978305 440.564103 126.272810 440.874359 125.565787 441.184615 124.857287 441.494872 124.147358 441.805128 123.436053 442.115385 122.723419 442.425641 122.009509 442.735897 121.294371 443.046154 120.578056 443.356410 119.860615 443.666667 119.142096 443.976923 118.422551 444.287179 117.702030 444.597436 116.980582 444.907692 116.258258 445.217949 115.535108 445.528205 114.811182 445.838462 114.086530 446.148718 113.361203 446.458974 112.635250 446.769231 111.908722 447.079487 111.181668 447.389744 110.454139 447.700000 109.726186 448.010256 108.997857 448.320513 108.269204 448.630769 107.540276 448.941026 106.811124 449.251282 106.081797 449.561538 105.352346 449.871795 104.622822 450.182051 103.893273 450.492308 103.163750 450.802564 102.434304 451.112821 101.704985 451.423077 100.975842 451.733333 100.246926 452.043590 99.518286 452.353846 98.789974 452.664103 98.062039 452.974359 97.334531 453.284615 96.607501 453.594872 95.880998 453.905128 95.155074 454.215385 94.429777 454.525641 93.705157 454.835897 92.981267 455.146154 92.258154 455.456410 91.535870 455.766667 90.814464 456.076923 90.093987 456.387179 89.374489 456.697436 88.656019 457.007692 87.938629 457.317949 87.222368 457.628205 86.507287 457.938462 85.793435 458.248718 85.080862 458.558974 84.369619 458.869231 83.659757 459.179487 82.951324 459.489744 82.244371 459.800000 81.538949 460.110256 80.835107 460.420513 80.132896 460.730769 79.432365 461.041026 78.733565 461.351282 78.036546 461.661538 77.341359 461.971795 76.648052 462.282051 75.956677 462.592308 75.267284 462.902564 74.579922 463.212821 73.894642 463.523077 73.211494 463.833333 72.530528 464.143590 71.851794 464.453846 71.175343 464.764103 70.501224 465.074359 69.829487 465.384615 69.160184 465.694872 68.493363 466.005128 67.829075 466.315385 67.167370 466.625641 66.508299 466.935897 65.851911 467.246154 65.198257 467.556410 64.547386 467.866667 63.899349 468.176923 63.254197 468.487179 62.611978 468.797436 61.972743 469.107692 61.336543 469.417949 60.703428 469.728205 60.073447 470.038462 59.446650 470.348718 58.823089 470.658974 58.202813 470.969231 57.585872 471.279487 56.972316 471.589744 56.362196 471.900000 55.755561 472.210256 55.152462 472.520513 54.552949 472.830769 53.957072 473.141026 53.364881 473.451282 52.776426 473.761538 52.191758 474.071795 51.610926 474.382051 51.033981 474.692308 50.460973 475.002564 49.891951 475.312821 49.326967 475.623077 48.766070 475.933333 48.209311 476.243590 47.656738 476.553846 47.108404 476.864103 46.564357 477.174359 46.024648 477.484615 45.489327 477.794872 44.958445 478.105128 44.432050 478.415385 43.910194 478.725641 43.392927 479.035897 42.880298 479.346154 42.372359 479.656410 41.869147 479.966667 41.370657 480.276923 40.876873 480.587179 40.387778 480.897436 39.903355 481.207692 39.423587 481.517949 38.948458 481.828205 38.477951 482.138462 38.012049 482.448718 37.550736 482.758974 37.093995 483.069231 36.641809 483.379487 36.194162 483.689744 35.751036 484.000000 35.312415 484.310256 34.878283 484.620513 34.448622 484.930769 34.023416 485.241026 33.602649 485.551282 33.186303 485.861538 32.774361 486.171795 32.366808 486.482051 31.963626 486.792308 31.564799 487.102564 31.170310 487.412821 30.780142 487.723077 30.394279 488.033333 30.012703 488.343590 29.635398 488.653846 29.262348 488.964103 28.893536 489.274359 28.528945 489.584615 28.168558 489.894872 27.812358 490.205128 27.460329 490.515385 27.112455 490.825641 26.768718 491.135897 26.429101 491.446154 26.093589 491.756410 25.762164 492.066667 25.434810 492.376923 25.111509 492.687179 24.792246 492.997436 24.477003 493.307692 24.165764 493.617949 23.858512 493.928205 23.555230 494.238462 23.255902 494.548718 22.960511 494.858974 22.669040 495.169231 22.381473 495.479487 22.097792 495.789744 21.817982 496.100000 21.542025 496.410256 21.269904 496.720513 21.001604 497.030769 20.737106 497.341026 20.476396 497.651282 20.219455 497.961538 19.966267 498.271795 19.716816 498.582051 19.471084 498.892308 19.229056 499.202564 18.990713 499.512821 18.756041 499.823077 18.525021 500.133333 18.297637 500.443590 18.073873 500.753846 17.853711 501.064103 17.637136 501.374359 17.424130 501.684615 17.214676 501.994872 17.008758 502.305128 16.806360 502.615385 16.607464 502.925641 16.412054 503.235897 16.220113 503.546154 16.031624 503.856410 15.846571 504.166667 15.664936 504.476923 15.486704 504.787179 15.311858 505.097436 15.140380 505.407692 14.972255 505.717949 14.807465 506.028205 14.645993 506.338462 14.487824 506.648718 14.332939 506.958974 14.181324 507.269231 14.032960 507.579487 13.887831 507.889744 13.745921 508.200000 13.607212 508.510256 13.471689 508.820513 13.339333 509.130769 13.210130 509.441026 13.084061 509.751282 12.961110 510.061538 12.841261 510.371795 12.724496 510.682051 12.610800 510.992308 12.500155 511.302564 12.392544 511.612821 12.287952 511.923077 12.186360 512.233333 12.087754 512.543590 11.992114 512.853846 11.899426 513.164103 11.809673 513.474359 11.722837 513.784615 11.638902 514.094872 11.557851 514.405128 11.479667 514.715385 11.404335 515.025641 11.331837 515.335897 11.262156 515.646154 11.195275 515.956410 11.131179 516.266667 11.069850 516.576923 11.011271 516.887179 10.955427 517.197436 10.902299 517.507692 10.851872 517.817949 10.804129 518.128205 10.759052 518.438462 10.716626 518.748718 10.676834 519.058974 10.639658 519.369231 10.605083 519.679487 10.573091 519.989744 10.543666 520.300000 10.516791 520.610256 10.492449 520.920513 10.470624 521.230769 10.451298 521.541026 10.434456 521.851282 10.420081 522.161538 10.408155 522.471795 10.398662 522.782051 10.391586 523.092308 10.386909 523.402564 10.384615 523.712821 10.384688 524.023077 10.387110 524.333333 10.391865 524.643590 10.398936 524.953846 10.408306 525.264103 10.419959 525.574359 10.433878 525.884615 10.450047 526.194872 10.468448 526.505128 10.489064 526.815385 10.511880 527.125641 10.536879 527.435897 10.564043 527.746154 10.593356 528.056410 10.624801 528.366667 10.658362 528.676923 10.694022 528.987179 10.731764 529.297436 10.771572 529.607692 10.813428 529.917949 10.857316 530.228205 10.903220 530.538462 10.951122 530.848718 11.001007 531.158974 11.052856 531.469231 11.106654 531.779487 11.162384 532.089744 11.220029 532.400000 11.279572 532.710256 11.340997 533.020513 11.404287 533.330769 11.469425 533.641026 11.536394 533.951282 11.605179 534.261538 11.675761 534.571795 11.748125 534.882051 11.822254 535.192308 11.898131 535.502564 11.975739 535.812821 12.055061 536.123077 12.136082 536.433333 12.218783 536.743590 12.303149 537.053846 12.389163 537.364103 12.476808 537.674359 12.566067 537.984615 12.656923 538.294872 12.749361 538.605128 12.843363 538.915385 12.938912 539.225641 13.035992 539.535897 13.134586 539.846154 13.234678 540.156410 13.336250 540.466667 13.439286 540.776923 13.543769 541.087179 13.649682 541.397436 13.757010 541.707692 13.865735 542.017949 13.975840 542.328205 14.087308 542.638462 14.200124 542.948718 14.314270 543.258974 14.429729 543.569231 14.546486 543.879487 14.664522 544.189744 14.783822 544.500000 14.904368 544.810256 15.026145 545.120513 15.149135 545.430769 15.273321 545.741026 15.398687 546.051282 15.525217 546.361538 15.652893 546.671795 15.781698 546.982051 15.911617 547.292308 16.042632 547.602564 16.174727 547.912821 16.307884 548.223077 16.442088 548.533333 16.577321 548.843590 16.713567 549.153846 16.850809 549.464103 16.989030 549.774359 17.128214 550.084615 17.268344 550.394872 17.409403 550.705128 17.551375 551.015385 17.694243 551.325641 17.837989 551.635897 17.982598 551.946154 18.128053 552.256410 18.274337 552.566667 18.421432 552.876923 18.569324 553.187179 18.717994 553.497436 18.867427 553.807692 19.017605 554.117949 19.168511 554.428205 19.320130 554.738462 19.472444 555.048718 19.625436 555.358974 19.779090 555.669231 19.933390 555.979487 20.088318 556.289744 20.243858 556.600000 20.399992 556.910256 20.556706 557.220513 20.713982 557.530769 20.871812 557.841026 21.030190 558.151282 21.189107 558.461538 21.348556 558.771795 21.508530 559.082051 21.669022 559.392308 21.830024 559.702564 21.991529 560.012821 22.153530 560.323077 22.316018 560.633333 22.478987 560.943590 22.642430 561.253846 22.806339 561.564103 22.970707 561.874359 23.135527 562.184615 23.300790 562.494872 23.466490 562.805128 23.632620 563.115385 23.799172 563.425641 23.966138 563.735897 24.133512 564.046154 24.301286 564.356410 24.469453 564.666667 24.638005 564.976923 24.806935 565.287179 24.976235 565.597436 25.145899 565.907692 25.315919 566.217949 25.486288 566.528205 25.656998 566.838462 25.828042 567.148718 25.999412 567.458974 26.171102 567.769231 26.343104 568.079487 26.515410 568.389744 26.688014 568.700000 26.860907 569.010256 27.034083 569.320513 27.207535 569.630769 27.381254 569.941026 27.555233 570.251282 27.729466 570.561538 27.903945 570.871795 28.078662 571.182051 28.253610 571.492308 28.428782 571.802564 28.604171 572.112821 28.779768 572.423077 28.955568 572.733333 29.131562 573.043590 29.307742 573.353846 29.484103 573.664103 29.660636 573.974359 29.837334 574.284615 30.014190 574.594872 30.191196 574.905128 30.368345 575.215385 30.545630 575.525641 30.723043 575.835897 30.900578 576.146154 31.078225 576.456410 31.255979 576.766667 31.433833 577.076923 31.611777 577.387179 31.789806 577.697436 31.967912 578.007692 32.146087 578.317949 32.324325 578.628205 32.502618 578.938462 32.680958 579.248718 32.859338 579.558974 33.037751 579.869231 33.216190 580.179487 33.394647 580.489744 33.573114 580.800000 33.751586 581.110256 33.930053 581.420513 34.108509 581.730769 34.286947 582.041026 34.465358 582.351282 34.643737 582.661538 34.822074 582.971795 35.000364 583.282051 35.178599 583.592308 35.356771 583.902564 35.534873 584.212821 35.712898 584.523077 35.890838 584.833333 36.068686 585.143590 36.246435 585.453846 36.424077 585.764103 36.601605 586.074359 36.779012 586.384615 36.956290 586.694872 37.133432 587.005128 37.310431 587.315385 37.487279 587.625641 37.663968 587.935897 37.840493 588.246154 38.016844 588.556410 38.193016 588.866667 38.369000 589.176923 38.544789 589.487179 38.720376 589.797436 38.895754 590.107692 39.070915 590.417949 39.245851 590.728205 39.420556 591.038462 39.595022 591.348718 39.769242 591.658974 39.943209 591.969231 40.116914 592.279487 40.290352 592.589744 40.463513 592.900000 40.636392 593.210256 40.808981 593.520513 40.981272 593.830769 41.153257 594.141026 41.324931 594.451282 41.496285 594.761538 41.667312 595.071795 41.838005 595.382051 42.008356 595.692308 42.178358 596.002564 42.348003 596.312821 42.517285 596.623077 42.686196 596.933333 42.854728 597.243590 43.022875 597.553846 43.190628 597.864103 43.357982 598.174359 43.524927 598.484615 43.691457 598.794872 43.857565 599.105128 44.023243 599.415385 44.188484 599.725641 44.353280 600.035897 44.517625 600.346154 44.681510 600.656410 44.844929 600.966667 45.007874 601.276923 45.170337 601.587179 45.332312 601.897436 45.493792 602.207692 45.654768 602.517949 45.815233 602.828205 45.975181 603.138462 46.134603 603.448718 46.293492 603.758974 46.451842 604.069231 46.609644 604.379487 46.766892 604.689744 46.923578 605.000000 47.079694 605.310256 47.235233 605.620513 47.390189 605.930769 47.544553 606.241026 47.698319 606.551282 47.851478 606.861538 48.004024 607.171795 48.155950 607.482051 48.307247 607.792308 48.457908 608.102564 48.607927 608.412821 48.757296 608.723077 48.906008 609.033333 49.054054 609.343590 49.201429 609.653846 49.348124 609.964103 49.494132 610.274359 49.639446 610.584615 49.784058 610.894872 49.927961 611.205128 50.071149 611.515385 50.213612 611.825641 50.355345 612.135897 50.496340 612.446154 50.636589 612.756410 50.776085 613.066667 50.914820 613.376923 51.052788 613.687179 51.189982 613.997436 51.326392 614.307692 51.462013 614.617949 51.596838 614.928205 51.730857 615.238462 51.864066 615.548718 51.996455 615.858974 52.128017 616.169231 52.258746 616.479487 52.388634 616.789744 52.517674 617.100000 52.645857 617.410256 52.773178 617.720513 52.899628 618.030769 53.025201 618.341026 53.149888 618.651282 53.273683 618.961538 53.396578 619.271795 53.518566 619.582051 53.639639 619.892308 53.759791 620.202564 53.879013 620.512821 53.997299 620.823077 54.114640 621.133333 54.231031 621.443590 54.346463 621.753846 54.460929 622.064103 54.574422 622.374359 54.686935 622.684615 54.798459 622.994872 54.908988 623.305128 55.018515 623.615385 55.127031 623.925641 55.234530 624.235897 55.341005 624.546154 55.446447 624.856410 55.550850 625.166667 55.654207 625.476923 55.756509 625.787179 55.857750 626.097436 55.957922 626.407692 56.057019 626.717949 56.155031 627.028205 56.251954 627.338462 56.347777 627.648718 56.442496 627.958974 56.536102 628.269231 56.628587 628.579487 56.719945 628.889744 56.810169 629.200000 56.899250 629.510256 56.987181 629.820513 57.073956 630.130769 57.159567 630.441026 57.244006 630.751282 57.327266 631.061538 57.409340 631.371795 57.490220 631.682051 57.569899 631.992308 57.648370 632.302564 57.725626 632.612821 57.801659 632.923077 57.876461 633.233333 57.950026 633.543590 58.022345 633.853846 58.093413 634.164103 58.163220 634.474359 58.231761 634.784615 58.299029 635.094872 58.365028 635.405128 58.429763 635.715385 58.493239 636.025641 58.555461 636.335897 58.616434 636.646154 58.676164 636.956410 58.734654 637.266667 58.791911 637.576923 58.847940 637.887179 58.902745 638.197436 58.956332 638.507692 59.008706 638.817949 59.059871 639.128205 59.109834 639.438462 59.158599 639.748718 59.206171 640.058974 59.252555 640.369231 59.297756 640.679487 59.341781 640.989744 59.384632 641.300000 59.426317 641.610256 59.466839 641.920513 59.506204 642.230769 59.544417 642.541026 59.581483 642.851282 59.617407 643.161538 59.652195 643.471795 59.685851 643.782051 59.718380 644.092308 59.749788 644.402564 59.780080 644.712821 59.809261 645.023077 59.837335 645.333333 59.864308 645.643590 59.890185 645.953846 59.914972 646.264103 59.938672 646.574359 59.961292 646.884615 59.982837 647.194872 60.003311 647.505128 60.022720 647.815385 60.041068 648.125641 60.058361 648.435897 60.074604 648.746154 60.089803 649.056410 60.103961 649.366667 60.117084 649.676923 60.129178 649.987179 60.140248 650.297436 60.150297 650.607692 60.159333 650.917949 60.167359 651.228205 60.174381 651.538462 60.180404 651.848718 60.185432 652.158974 60.189472 652.469231 60.192528 652.779487 60.194606 653.089744 60.195710 653.400000 60.195845 653.710256 60.195017 654.020513 60.193230 654.330769 60.190491 654.641026 60.186803 654.951282 60.182172 655.261538 60.176603 655.571795 60.170102 655.882051 60.162673 656.192308 60.154321 656.502564 60.145051 656.812821 60.134869 657.123077 60.123780 657.433333 60.111789 657.743590 60.098900 658.053846 60.085119 658.364103 60.070452 658.674359 60.054902 658.984615 60.038476 659.294872 60.021178 659.605128 60.003014 659.915385 59.983988 660.225641 59.964105 660.535897 59.943372 660.846154 59.921792 661.156410 59.899371 661.466667 59.876115 661.776923 59.852027 662.087179 59.827113 662.397436 59.801379 662.707692 59.774830 663.017949 59.747469 663.328205 59.719304 663.638462 59.690338 663.948718 59.660577 664.258974 59.630025 664.569231 59.598689 664.879487 59.566573 665.189744 59.533682 665.500000 59.500022 665.810256 59.465596 666.120513 59.430412 666.430769 59.394472 666.741026 59.357784 667.051282 59.320351 667.361538 59.282179 667.671795 59.243273 667.982051 59.203639 668.292308 59.163280 668.602564 59.122203 668.912821 59.080411 669.223077 59.037912 669.533333 58.994709 669.843590 58.950808 670.153846 58.906213 670.464103 58.860930 670.774359 58.814964 671.084615 58.768321 671.394872 58.721004 671.705128 58.673020 672.015385 58.624372 672.325641 58.575068 672.635897 58.525111 672.946154 58.474506 673.256410 58.423259 673.566667 58.371376 673.876923 58.318860 674.187179 58.265717 674.497436 58.211952 674.807692 58.157570 675.117949 58.102577 675.428205 58.046977 675.738462 57.990775 676.048718 57.933977 676.358974 57.876588 676.669231 57.818613 676.979487 57.760056 677.289744 57.700924 677.600000 57.641221 677.910256 57.580951 678.220513 57.520121 678.530769 57.458736 678.841026 57.396800 679.151282 57.334318 679.461538 57.271297 679.771795 57.207740 680.082051 57.143652 680.392308 57.079040 680.702564 57.013908 681.012821 56.948261 681.323077 56.882104 681.633333 56.815443 681.943590 56.748282 682.253846 56.680627 682.564103 56.612482 682.874359 56.543853 683.184615 56.474745 683.494872 56.405163 683.805128 56.335111 684.115385 56.264596 684.425641 56.193623 684.735897 56.122195 685.046154 56.050319 685.356410 55.978000 685.666667 55.905242 685.976923 55.832051 686.287179 55.758431 686.597436 55.684389 686.907692 55.609928 687.217949 55.535055 687.528205 55.459774 687.838462 55.384090 688.148718 55.308009 688.458974 55.231535 688.769231 55.154674 689.079487 55.077430 689.389744 54.999809 689.700000 54.921816 690.010256 54.843456 690.320513 54.764734 690.630769 54.685656 690.941026 54.606225 691.251282 54.526448 691.561538 54.446330 691.871795 54.365875 692.182051 54.285088 692.492308 54.203976 692.802564 54.122542 693.112821 54.040792 693.423077 53.958731 693.733333 53.876365 694.043590 53.793698 694.353846 53.710735 694.664103 53.627481 694.974359 53.543942 695.284615 53.460123 695.594872 53.376028 695.905128 53.291664 696.215385 53.207034 696.525641 53.122144 696.835897 53.037000 697.146154 52.951605 697.456410 52.865966 697.766667 52.780087 698.076923 52.693974 698.387179 52.607632 698.697436 52.521065 699.007692 52.434279 699.317949 52.347279 699.628205 52.260070 699.938462 52.172657 700.248718 52.085045 700.558974 51.997239 700.869231 51.909245 701.179487 51.821068 701.489744 51.732712 701.800000 51.644182 702.110256 51.555485 702.420513 51.466624 702.730769 51.377606 703.041026 51.288434 703.351282 51.199115 703.661538 51.109652 703.971795 51.020053 704.282051 50.930320 704.592308 50.840461 704.902564 50.750478 705.212821 50.660379 705.523077 50.570168 705.833333 50.479849 706.143590 50.389429 706.453846 50.298911 706.764103 50.208302 707.074359 50.117607 707.384615 50.026829 707.694872 49.935975 708.005128 49.845050 708.315385 49.754059 708.625641 49.663006 708.935897 49.571898 709.246154 49.480738 709.556410 49.389533 709.866667 49.298287 710.176923 49.207005 710.487179 49.115692 710.797436 49.024354 711.107692 48.932996 711.417949 48.841622 711.728205 48.750238 712.038462 48.658849 712.038462 540.000000" /></g></g><g class="titles" /><g class="plot overlay" transform="translate(54, 20)"><g class="series serie-0 color-0"><g class="dots"><circle class="dot reactive tooltip-trigger" cx="13.96153846153846" cy="529.6153846153846" r="2.5" /><desc class="value">504,420,259(kWh)</desc><desc class="x top">13.96153846153846</desc><desc class="y top">529.6153846153846</desc><desc class="x_label">2549</desc></g><g class="dots"><circle class="dot reactive tooltip-trigger" cx="91.52564102564101" cy="453.9680881466554" r="2.5" /><desc class="value">538,307,652(kWh)</desc><desc class="x top">91.52564102564101</desc><desc class="y top">453.9680881466554</desc><desc class="x_label">2550</desc></g><g class="dots"><circle class="dot reactive tooltip-trigger" cx="169.08974358974356" cy="369.97132178961493" r="2.5" /><desc class="value">575,935,321(kWh)</desc><desc class="x top">169.08974358974356</desc><desc class="y top">369.97132178961493</desc><desc class="x_label">2551</desc></g><g class="dots"><circle class="dot reactive tooltip-trigger" cx="246.65384615384613" cy="283.3549061187158" r="2.5" /><desc class="value">614,736,503(kWh)</desc><desc class="x top">246.65384615384613</desc><desc class="y top">283.3549061187158</desc><desc class="x_label">2552</desc></g><g class="dots"><circle class="dot reactive tooltip-trigger" cx="324.21794871794873" cy="134.67287489866726" r="2.5" /><desc class="value">681,340,951(kWh)</desc><desc class="x ">324.21794871794873</desc><desc class="y ">134.67287489866726</desc><desc class="x_label">2553</desc></g><g class="dots"><circle class="dot reactive tooltip-trigger" cx="401.78205128205127" cy="186.29877786719885" r="2.5" /><desc class="value">658,214,318(kWh)</desc><desc class="x left">401.78205128205127</desc><desc class="y left">186.29877786719885</desc><desc class="x_label">2554</desc></g><g class="dots"><circle class="dot reactive tooltip-trigger" cx="479.3461538461538" cy="42.372358673116764" r="2.5" /><desc class="value">722,688,415(kWh)</desc><desc class="x left">479.3461538461538</desc><desc class="y left">42.372358673116764</desc><desc class="x_label">2555</desc></g><g class="dots"><circle class="dot reactive tooltip-trigger" cx="556.9102564102565" cy="20.556705551105438" r="2.5" /><desc class="value">732,461,079(kWh)</desc><desc class="x left">556.9102564102565</desc><desc class="y left">20.556705551105438</desc><desc class="x_label">2556</desc></g><g class="dots"><circle class="dot reactive tooltip-trigger" cx="634.474358974359" cy="58.23176093072328" r="2.5" /><desc class="value">715,583,947(kWh)</desc><desc class="x left">634.474358974359</desc><desc class="y left">58.23176093072328</desc><desc class="x_label">2557</desc></g><g class="dots"><circle class="dot reactive tooltip-trigger" cx="712.0384615384615" cy="48.65884911807592" r="2.5" /><desc class="value">719,872,283(kWh)</desc><desc class="x left">712.0384615384615</desc><desc class="y left">48.65884911807592</desc><desc class="x_label">2558</desc></g></g></g><g class="plot text-overlay" transform="translate(54, 20)"><g class="series serie-0 color-0" /></g><g class="plot tooltip-overlay" transform="translate(54, 20)"><g class="tooltip" style="opacity: 0" transform="translate(0 0)"><rect class="tooltip-box" height="0" rx="0" ry="0" width="0" /><g class="text" /></g></g></g></svg>