<?xml version='1.0' encoding='utf-8'?>
<svg xmlns:xlink="http://www.w3.org/1999/xlink" class="pygal-chart" id="chart-8ab2464f-44d3-41d2-ab7e-cab053211ec9" viewBox="0 0 800 600" xmlns="http://www.w3.org/2000/svg"><!--Generated with pygal 2.3.0 (etree) ©Kozea 2012-2016 on 2016-12-08--><!--http://pygal.org--><!--http://github.com/Kozea/pygal--><defs><style type="text/css">#chart-8ab2464f-44d3-41d2-ab7e-cab053211ec9{-webkit-user-select:none;-webkit-font-smoothing:antialiased;font-family:Consolas,"Liberation Mono",Menlo,Courier,monospace}#chart-8ab2464f-44d3-41d2-ab7e-cab053211ec9 .title{font-family:Consolas,"Liberation Mono",Menlo,Courier,monospace;font-size:16px}#chart-8ab2464f-44d3-41d2-ab7e-cab053211ec9 .legends .legend text{font-family:Consolas,"Liberation Mono",Menlo,Courier,monospace;font-size:14px}#chart-8ab2464f-44d3-41d2-ab7e-cab053211ec9 .axis text{font-family:Consolas,"Liberation Mono",Menlo,Courier,monospace;font-size:10px}#chart-8ab2464f-44d3-41d2-ab7e-cab053211ec9 .axis text.major{font-family:Consolas,"Liberation Mono",Menlo,Courier,monospace;font-size:10px}#chart-8ab2464f-44d3-41d2-ab7e-cab053211ec9 .text-overlay text.value{font-family:Consolas,"Liberation Mono",Menlo,Courier,monospace;font-size:16px}#chart-8ab2464f-44d3-41d2-ab7e-cab053211ec9 .text-overlay text.label{font-family:Consolas,"Liberation Mono",Menlo,Courier,monospace;font-size:10px}#chart-8ab2464f-44d3-41d2-ab7e-cab053211ec9 .tooltip{font-family:Consolas,"Liberation Mono",Menlo,Courier,monospace;font-size:14px}#chart-8ab2464f-44d3-41d2-ab7e-cab053211ec9 text.no_data{font-family:Consolas,"Liberation Mono",Menlo,Courier,monospace;font-size:64px}
#chart-8ab2464f-44d3-41d2-ab7e-cab053211ec9{background-color:rgba(249,249,249,1)}#chart-8ab2464f-44d3-41d2-ab7e-cab053211ec9 path,#chart-8ab2464f-44d3-41d2-ab7e-cab053211ec9 line,#chart-8ab2464f-44d3-41d2-ab7e-cab053211ec9 rect,#chart-8ab2464f-44d3-41d2-ab7e-cab053211ec9 circle{-webkit-transition:150ms;-moz-transition:150ms;transition:150ms}#chart-8ab2464f-44d3-41d2-ab7e-cab053211ec9 .graph &gt; .background{fill:rgba(249,249,249,1)}#chart-8ab2464f-44d3-41d2-ab7e-cab053211ec9 .plot &gt; .background{fill:rgba(255,255,255,1)}#chart-8ab2464f-44d3-41d2-ab7e-cab053211ec9 .graph{fill:rgba(0,0,0,.87)}#chart-8ab2464f-44d3-41d2-ab7e-cab053211ec9 text.no_data{fill:rgba(0,0,0,1)}#chart-8ab2464f-44d3-41d2-ab7e-cab053211ec9 .title{fill:rgba(0,0,0,1)}#chart-8ab2464f-44d3-41d2-ab7e-cab053211ec9 .legends .legend text{fill:rgba(0,0,0,.87)}#chart-8ab2464f-44d3-41d2-ab7e-cab053211ec9 .legends .legend:hover text{fill:rgba(0,0,0,1)}#chart-8ab2464f-44d3-41d2-ab7e-cab053211ec9 .axis .line{stroke:rgba(0,0,0,1)}#chart-8ab2464f-44d3-41d2-ab7e-cab053211ec9 .axis .guide.line{stroke:rgba(0,0,0,.54)}#chart-8ab2464f-44d3-41d2-ab7e-cab053211ec9 .axis .major.line{stroke:rgba(0,0,0,.87)}#chart-8ab2464f-44d3-41d2-ab7e-cab053211ec9 .axis text.major{fill:rgba(0,0,0,1)}#chart-8ab2464f-44d3-41d2-ab7e-cab053211ec9 .axis.y .guides:hover .guide.line,#chart-8ab2464f-44d3-41d2-ab7e-cab053211ec9 .line-graph .axis.x .guides:hover .guide.line,#chart-8ab2464f-44d3-41d2-ab7e-cab053211ec9 .stackedline-graph .axis.x .guides:hover .guide.line,#chart-8ab2464f-44d3-41d2-ab7e-cab053211ec9 .xy-graph .axis.x .guides:hover .guide.line{stroke:rgba(0,0,0,1)}#chart-8ab2464f-44d3-41d2-ab7e-cab053211ec9 .axis .guides:hover text{fill:rgba(0,0,0,1)}#chart-8ab2464f-44d3-41d2-ab7e-cab053211ec9 .reactive{fill-opacity:.7;stroke-opacity:.8}#chart-8ab2464f-44d3-41d2-ab7e-cab053211ec9 .ci{stroke:rgba(0,0,0,.87)}#chart-8ab2464f-44d3-41d2-ab7e-cab053211ec9 .reactive.active,#chart-8ab2464f-44d3-41d2-ab7e-cab053211ec9 .active .reactive{fill-opacity:.8;stroke-opacity:.9;stroke-width:4}#chart-8ab2464f-44d3-41d2-ab7e-cab053211ec9 .ci .reactive.active{stroke-width:1.5}#chart-8ab2464f-44d3-41d2-ab7e-cab053211ec9 .series text{fill:rgba(0,0,0,1)}#chart-8ab2464f-44d3-41d2-ab7e-cab053211ec9 .tooltip rect{fill:rgba(255,255,255,1);stroke:rgba(0,0,0,1);-webkit-transition:opacity 150ms;-moz-transition:opacity 150ms;transition:opacity 150ms}#chart-8ab2464f-44d3-41d2-ab7e-cab053211ec9 .tooltip .label{fill:rgba(0,0,0,.87)}#chart-8ab2464f-44d3-41d2-ab7e-cab053211ec9 .tooltip .label{fill:rgba(0,0,0,.87)}#chart-8ab2464f-44d3-41d2-ab7e-cab053211ec9 .tooltip .legend{font-size:.8em;fill:rgba(0,0,0,.54)}#chart-8ab2464f-44d3-41d2-ab7e-cab053211ec9 .tooltip .x_label{font-size:.6em;fill:rgba(0,0,0,1)}#chart-8ab2464f-44d3-41d2-ab7e-cab053211ec9 .tooltip .xlink{font-size:.5em;text-decoration:underline}#chart-8ab2464f-44d3-41d2-ab7e-cab053211ec9 .tooltip .value{font-size:1.5em}#chart-8ab2464f-44d3-41d2-ab7e-cab053211ec9 .bound{font-size:.5em}#chart-8ab2464f-44d3-41d2-ab7e-cab053211ec9 .max-value{font-size:.75em;fill:rgba(0,0,0,.54)}#chart-8ab2464f-44d3-41d2-ab7e-cab053211ec9 .map-element{fill:rgba(255,255,255,1);stroke:rgba(0,0,0,.54) !important}#chart-8ab2464f-44d3-41d2-ab7e-cab053211ec9 .map-element .reactive{fill-opacity:inherit;stroke-opacity:inherit}#chart-8ab2464f-44d3-41d2-ab7e-cab053211ec9 .color-0,#chart-8ab2464f-44d3-41d2-ab7e-cab053211ec9 .color-0 a:visited{stroke:#e86fa0;fill:#e86fa0}#chart-8ab2464f-44d3-41d2-ab7e-cab053211ec9 .text-overlay .color-0 text{fill:black}
#chart-8ab2464f-44d3-41d2-ab7e-cab053211ec9 text.no_data{text-anchor:middle}#chart-8ab2464f-44d3-41d2-ab7e-cab053211ec9 .guide.line{fill:none}#chart-8ab2464f-44d3-41d2-ab7e-cab053211ec9 .centered{text-anchor:middle}#chart-8ab2464f-44d3-41d2-ab7e-cab053211ec9 .title{text-anchor:middle}#chart-8ab2464f-44d3-41d2-ab7e-cab053211ec9 .legends .legend text{fill-opacity:1}#chart-8ab2464f-44d3-41d2-ab7e-cab053211ec9 .axis.x text{text-anchor:middle}#chart-8ab2464f-44d3-41d2-ab7e-cab053211ec9 .axis.x:not(.web) text[transform]{text-anchor:start}#chart-8ab2464f-44d3-41d2-ab7e-cab053211ec9 .axis.x:not(.web) text[transform].backwards{text-anchor:end}#chart-8ab2464f-44d3-41d2-ab7e-cab053211ec9 .axis.y text{text-anchor:end}#chart-8ab2464f-44d3-41d2-ab7e-cab053211ec9 .axis.y text[transform].backwards{text-anchor:start}#chart-8ab2464f-44d3-41d2-ab7e-cab053211ec9 .axis.y2 text{text-anchor:start}#chart-8ab2464f-44d3-41d2-ab7e-cab053211ec9 .axis.y2 text[transform].backwards{text-anchor:end}#chart-8ab2464f-44d3-41d2-ab7e-cab053211ec9 .axis .guide.line{stroke-dasharray:4,4}#chart-8ab2464f-44d3-41d2-ab7e-cab053211ec9 .axis .major.guide.line{stroke-dasharray:6,6}#chart-8ab2464f-44d3-41d2-ab7e-cab053211ec9 .horizontal .axis.y .guide.line,#chart-8ab2464f-44d3-41d2-ab7e-cab053211ec9 .horizontal .axis.y2 .guide.line,#chart-8ab2464f-44d3-41d2-ab7e-cab053211ec9 .vertical .axis.x .guide.line{opacity:0}#chart-8ab2464f-44d3-41d2-ab7e-cab053211ec9 .horizontal .axis.always_show .guide.line,#chart-8ab2464f-44d3-41d2-ab7e-cab053211ec9 .vertical .axis.always_show .guide.line{opacity:1 !important}#chart-8ab2464f-44d3-41d2-ab7e-cab053211ec9 .axis.y .guides:hover .guide.line,#chart-8ab2464f-44d3-41d2-ab7e-cab053211ec9 .axis.y2 .guides:hover .guide.line,#chart-8ab2464f-44d3-41d2-ab7e-cab053211ec9 .axis.x .guides:hover .guide.line{opacity:1}#chart-8ab2464f-44d3-41d2-ab7e-cab053211ec9 .axis .guides:hover text{opacity:1}#chart-8ab2464f-44d3-41d2-ab7e-cab053211ec9 .nofill{fill:none}#chart-8ab2464f-44d3-41d2-ab7e-cab053211ec9 .subtle-fill{fill-opacity:.2}#chart-8ab2464f-44d3-41d2-ab7e-cab053211ec9 .dot{stroke-width:1px;fill-opacity:1}#chart-8ab2464f-44d3-41d2-ab7e-cab053211ec9 .dot.active{stroke-width:5px}#chart-8ab2464f-44d3-41d2-ab7e-cab053211ec9 .dot.negative{fill:transparent}#chart-8ab2464f-44d3-41d2-ab7e-cab053211ec9 text,#chart-8ab2464f-44d3-41d2-ab7e-cab053211ec9 tspan{stroke:none !important}#chart-8ab2464f-44d3-41d2-ab7e-cab053211ec9 .series text.active{opacity:1}#chart-8ab2464f-44d3-41d2-ab7e-cab053211ec9 .tooltip rect{fill-opacity:.95;stroke-width:.5}#chart-8ab2464f-44d3-41d2-ab7e-cab053211ec9 .tooltip text{fill-opacity:1}#chart-8ab2464f-44d3-41d2-ab7e-cab053211ec9 .showable{visibility:hidden}#chart-8ab2464f-44d3-41d2-ab7e-cab053211ec9 .showable.shown{visibility:visible}#chart-8ab2464f-44d3-41d2-ab7e-cab053211ec9 .gauge-background{fill:rgba(229,229,229,1);stroke:none}#chart-8ab2464f-44d3-41d2-ab7e-cab053211ec9 .bg-lines{stroke:rgba(249,249,249,1);stroke-width:2px}</style><script type="text/javascript">window.pygal = window.pygal || {};window.pygal.config = window.pygal.config || {};window.pygal.config['8ab2464f-44d3-41d2-ab7e-cab053211ec9'] = {"no_data_text": "No data", "no_prefix": false, "xrange": null, "print_values_position": "center", "truncate_label": null, "x_labels": ["2549", "2550", "2551", "2552", "2553", "2554", "2555", "2556", "2557", "2558"], "title": null, "force_uri_protocol": "https", "defs": [], "formatter": null, "classes": ["pygal-chart"], "y_labels": null, "rounded_bars": null, "explicit_size": false, "x_labels_major_every": null, "legend_at_bottom_columns": null, "stroke_style": null, "half_pie": false, "spacing": 10, "tooltip_fancy_mode": true, "inverse_y_axis": false, "width": 800, "inner_radius": 0, "interpolation_parameters": {}, "tooltip_border_radius": 0, "style": {"no_data_font_family": "Consolas, \"Liberation Mono\", Menlo, Courier, monospace", "tooltip_font_size": 14, "tooltip_font_family": "Consolas, \"Liberation Mono\", Menlo, Courier, monospace", "stroke_opacity_hover": ".9", "legend_font_family": "Consolas, \"Liberation Mono\", Menlo, Courier, monospace", "font_family": "Consolas, \"Liberation Mono\", Menlo, Courier, monospace", "title_font_family": "Consolas, \"Liberation Mono\", Menlo, Courier, monospace", "background": "rgba(249, 249, 249, 1)", "stroke_opacity": ".8", "foreground": "rgba(0, 0, 0, .87)", "value_background": "rgba(229, 229, 229, 1)", "guide_stroke_dasharray": "4,4", "foreground_subtle": "rgba(0, 0, 0, .54)", "opacity_hover": ".8", "value_font_family": "Consolas, \"Liberation Mono\", Menlo, Courier, monospace", "value_label_font_size": 10, "plot_background": "rgba(255, 255, 255, 1)", "ci_colors": [], "label_font_size": 10, "major_label_font_size": 10, "title_font_size": 16, "no_data_font_size": 64, "value_font_size": 16, "value_colors": [], "label_font_family": "Consolas, \"Liberation Mono\", Menlo, Courier, monospace", "major_guide_stroke_dasharray": "6,6", "transition": "150ms", "foreground_strong": "rgba(0, 0, 0, 1)", "colors": ["#e86fa0", "#e88f6f", "#e8df6f", "#a0e86f", "#6fe88f", "#6fe8df", "#6fa0e8", "#8f6fe8", "#df6fe8", "#e86fa0"], "opacity": ".7", "legend_font_size": 14, "value_label_font_family": "Consolas, \"Liberation Mono\", Menlo, Courier, monospace", "major_label_font_family": "Consolas, \"Liberation Mono\", Menlo, Courier, monospace"}, "x_labels_major_count": null, "interpolation_precision": 250, "missing_value_fill_truncation": "x", "stack_from_top": false, "truncate_legend": null, "show_minor_x_labels": true, "print_zeroes": true, "css": ["file://style.css", "file://graph.css"], "y_label_rotation": 0, "legend_at_bottom": false, "print_values": false, "margin_top": null, "max_scale": 16, "allow_interruptions": false, "show_x_labels": true, "strict": false, "show_x_guides": false, "stroke": true, "margin_left": null, "dynamic_print_values": false, "print_labels": false, "show_y_labels": true, "x_labels_major": null, "range": null, "x_label_rotation": 0, "margin": 20, "zero": 0, "include_x_axis": false, "height": 600, "show_minor_y_labels": true, "show_dots": true, "interpolate": "cubic", "show_y_guides": true, "y_labels_major": null, "box_mode": "extremes", "margin_bottom": null, "order_min": null, "legend_box_size": 12, "fill": true, "show_only_major_dots": false, "js": ["//kozea.github.io/pygal.js/2.0.x/pygal-tooltips.min.js"], "x_title": null, "y_labels_major_every": null, "y_labels_major_count": null, "disable_xml_declaration": false, "y_title": null, "logarithmic": false, "pretty_print": false, "min_scale": 4, "dots_size": 2.5, "margin_right": null, "legends": [null], "secondary_range": null, "show_legend": false}</script><script type="text/javascript" xlink:href="https://kozea.github.io/pygal.js/2.0.x/pygal-tooltips.min.js" /></defs><title>Pygal</title><g class="graph stackedline-graph vertical"><rect class="background" height="600" width="800" x="0" y="0" /><g class="plot" transform="translate(60, 20)"><rect class="background" height="540" width="720.0" x="0" y="0" /><g class="axis y"><path class="line" d="M0.000000 540.000000 h720.000000" /><g class="guides"><path class="major guide line" d="M0.000000 526.621068 h720.000000" /><text class="major" x="-5" y="530.1210677986206">1500M</text><title>1500M</title></g><g class="guides"><path class="guide line" d="M0.000000 481.138442 h720.000000" /><text class="" x="-5" y="484.63844222556844">1600M</text><title>1600M</title></g><g class="guides"><path class="guide line" d="M0.000000 435.655817 h720.000000" /><text class="" x="-5" y="439.15581665251625">1700M</text><title>1700M</title></g><g class="guides"><path class="guide line" d="M0.000000 390.173191 h720.000000" /><text class="" x="-5" y="393.673191079464">1800M</text><title>1800M</title></g><g class="guides"><path class="guide line" d="M0.000000 344.690566 h720.000000" /><text class="" x="-5" y="348.1905655064119">1900M</text><title>1900M</title></g><g class="guides"><path class="major guide line" d="M0.000000 299.207940 h720.000000" /><text class="major" x="-5" y="302.7079399333596">2000M</text><title>2000M</title></g><g class="guides"><path class="guide line" d="M0.000000 253.725314 h720.000000" /><text class="" x="-5" y="257.22531436030744">2100M</text><title>2100M</title></g><g class="guides"><path class="guide line" d="M0.000000 208.242689 h720.000000" /><text class="" x="-5" y="211.7426887872552">2200M</text><title>2200M</title></g><g class="guides"><path class="guide line" d="M0.000000 162.760063 h720.000000" /><text class="" x="-5" y="166.260063214203">2300M</text><title>2300M</title></g><g class="guides"><path class="guide line" d="M0.000000 117.277438 h720.000000" /><text class="" x="-5" y="120.77743764115081">2400M</text><title>2400M</title></g><g class="guides"><path class="major guide line" d="M0.000000 71.794812 h720.000000" /><text class="major" x="-5" y="75.29481206809857">2500M</text><title>2500M</title></g><g class="guides"><path class="guide line" d="M0.000000 26.312186 h720.000000" /><text class="" x="-5" y="29.812186495046376">2600M</text><title>2600M</title></g></g><g class="axis x"><g class="guides"><path class="line" d="M13.846154 0.000000 v540.000000" /><text class="" x="13.846153846153847" y="555.0">2549</text></g><g class="guides"><path class="guide line" d="M90.769231 0.000000 v540.000000" /><text class="" x="90.76923076923076" y="555.0">2550</text></g><g class="guides"><path class="guide line" d="M167.692308 0.000000 v540.000000" /><text class="" x="167.69230769230765" y="555.0">2551</text></g><g class="guides"><path class="guide line" d="M244.615385 0.000000 v540.000000" /><text class="" x="244.6153846153846" y="555.0">2552</text></g><g class="guides"><path class="guide line" d="M321.538462 0.000000 v540.000000" /><text class="" x="321.5384615384615" y="555.0">2553</text></g><g class="guides"><path class="guide line" d="M398.461538 0.000000 v540.000000" /><text class="" x="398.46153846153845" y="555.0">2554</text></g><g class="guides"><path class="guide line" d="M475.384615 0.000000 v540.000000" /><text class="" x="475.38461538461536" y="555.0">2555</text></g><g class="guides"><path class="guide line" d="M552.307692 0.000000 v540.000000" /><text class="" x="552.3076923076923" y="555.0">2556</text></g><g class="guides"><path class="guide line" d="M629.230769 0.000000 v540.000000" /><text class="" x="629.2307692307692" y="555.0">2557</text></g><g class="guides"><path class="guide line" d="M706.153846 0.000000 v540.000000" /><text class="" x="706.1538461538461" y="555.0">2558</text></g></g><g class="series serie-0 color-0"><path class="line reactive" d="M13.846154 540.000000 L13.846154 529.615385 14.153846 529.191927 14.461538 528.768474 14.769231 528.345031 15.076923 527.921603 15.384615 527.498194 15.692308 527.074809 16.000000 526.651453 16.307692 526.228132 16.615385 525.804849 16.923077 525.381611 17.230769 524.958421 17.538462 524.535284 17.846154 524.112206 18.153846 523.689191 18.461538 523.266244 18.769231 522.843370 19.076923 522.420574 19.384615 521.997861 19.692308 521.575235 20.000000 521.152701 20.307692 520.730265 20.615385 520.307931 20.923077 519.885705 21.230769 519.463589 21.538462 519.041591 21.846154 518.619715 22.153846 518.197964 22.461538 517.776346 22.769231 517.354863 23.076923 516.933521 23.384615 516.512326 23.692308 516.091281 24.000000 515.670392 24.307692 515.249663 24.615385 514.829100 24.923077 514.408707 25.230769 513.988489 25.538462 513.568451 25.846154 513.148598 26.153846 512.728935 26.461538 512.309467 26.769231 511.890197 27.076923 511.471132 27.384615 511.052277 27.692308 510.633635 28.000000 510.215212 28.307692 509.797013 28.615385 509.379043 28.923077 508.961306 29.230769 508.543808 29.538462 508.126552 29.846154 507.709545 30.153846 507.292791 30.461538 506.876295 30.769231 506.460061 31.076923 506.044095 31.384615 505.628401 31.692308 505.212985 32.000000 504.797850 32.307692 504.383003 32.615385 503.968448 32.923077 503.554189 33.230769 503.140232 33.538462 502.726581 33.846154 502.313242 34.153846 501.900219 34.461538 501.487517 34.769231 501.075141 35.076923 500.663096 35.384615 500.251386 35.692308 499.840017 36.000000 499.428994 36.307692 499.018320 36.615385 498.608002 36.923077 498.198044 37.230769 497.788450 37.538462 497.379226 37.846154 496.970377 38.153846 496.561907 38.461538 496.153822 38.769231 495.746126 39.076923 495.338823 39.384615 494.931920 39.692308 494.525420 40.000000 494.119330 40.307692 493.713652 40.615385 493.308393 40.923077 492.903557 41.230769 492.499149 41.538462 492.095175 41.846154 491.691637 42.153846 491.288543 42.461538 490.885896 42.769231 490.483702 43.076923 490.081965 43.384615 489.680690 43.692308 489.279882 44.000000 488.879546 44.307692 488.479687 44.615385 488.080309 44.923077 487.681417 45.230769 487.283017 45.538462 486.885114 45.846154 486.487711 46.153846 486.090814 46.461538 485.694428 46.769231 485.298558 47.076923 484.903208 47.384615 484.508383 47.692308 484.114089 48.000000 483.720330 48.307692 483.327111 48.615385 482.934437 48.923077 482.542312 49.230769 482.150742 49.538462 481.759731 49.846154 481.369285 50.153846 480.979408 50.461538 480.590105 50.769231 480.201381 51.076923 479.813240 51.384615 479.425688 51.692308 479.038730 52.000000 478.652370 52.307692 478.266613 52.615385 477.881464 52.923077 477.496929 53.230769 477.113011 53.538462 476.729715 53.846154 476.347047 54.153846 475.965012 54.461538 475.583614 54.769231 475.202858 55.076923 474.822749 55.384615 474.443292 55.692308 474.064492 56.000000 473.686353 56.307692 473.308880 56.615385 472.932079 56.923077 472.555954 57.230769 472.180511 57.538462 471.805753 57.846154 471.431686 58.153846 471.058314 58.461538 470.685643 58.769231 470.313678 59.076923 469.942422 59.384615 469.571882 59.692308 469.202062 60.000000 468.832966 60.307692 468.464600 60.615385 468.096969 60.923077 467.730077 61.230769 467.363930 61.538462 466.998532 61.846154 466.633887 62.153846 466.270002 62.461538 465.906880 62.769231 465.544527 63.076923 465.182947 63.384615 464.822146 63.692308 464.462128 64.000000 464.102898 64.307692 463.744461 64.615385 463.386822 64.923077 463.029985 65.230769 462.673956 65.538462 462.318739 65.846154 461.964340 66.153846 461.610763 66.461538 461.258012 66.769231 460.906094 67.076923 460.555012 67.384615 460.204772 67.692308 459.855378 68.000000 459.506836 68.307692 459.159149 68.615385 458.812324 68.923077 458.466365 69.230769 458.121276 69.538462 457.777063 69.846154 457.433731 70.153846 457.091284 70.461538 456.749727 70.769231 456.409065 71.076923 456.069304 71.384615 455.730447 71.692308 455.392499 72.000000 455.055467 72.307692 454.719353 72.615385 454.384164 72.923077 454.049904 73.230769 453.716579 73.538462 453.384192 73.846154 453.052748 74.153846 452.722254 74.461538 452.392712 74.769231 452.064130 75.076923 451.736510 75.384615 451.409858 75.692308 451.084180 76.000000 450.759479 76.307692 450.435760 76.615385 450.113030 76.923077 449.791291 77.230769 449.470550 77.538462 449.150811 77.846154 448.832079 78.153846 448.514359 78.461538 448.197656 78.769231 447.881974 79.076923 447.567318 79.384615 447.253694 79.692308 446.941106 80.000000 446.629559 80.307692 446.319058 80.615385 446.009608 80.923077 445.701213 81.230769 445.393879 81.538462 445.087610 81.846154 444.782412 82.153846 444.478288 82.461538 444.175244 82.769231 443.873286 83.076923 443.572417 83.384615 443.272642 83.692308 442.973967 84.000000 442.676396 84.307692 442.379934 84.615385 442.084586 84.923077 441.790358 85.230769 441.497252 85.538462 441.205276 85.846154 440.914433 86.153846 440.624728 86.461538 440.336166 86.769231 440.048753 87.076923 439.762492 87.384615 439.477389 87.692308 439.193449 88.000000 438.910676 88.307692 438.629076 88.615385 438.348653 88.923077 438.069412 89.230769 437.791358 89.538462 437.514496 89.846154 437.238830 90.153846 436.964367 90.461538 436.691109 90.769231 436.419063 91.076923 436.148231 91.384615 435.878613 91.692308 435.610204 92.000000 435.343002 92.307692 435.077003 92.615385 434.812203 92.923077 434.548601 93.230769 434.286192 93.538462 434.024973 93.846154 433.764941 94.153846 433.506093 94.461538 433.248425 94.769231 432.991935 95.076923 432.736618 95.384615 432.482472 95.692308 432.229494 96.000000 431.977680 96.307692 431.727027 96.615385 431.477532 96.923077 431.229192 97.230769 430.982002 97.538462 430.735961 97.846154 430.491065 98.153846 430.247310 98.461538 430.004693 98.769231 429.763212 99.076923 429.522862 99.384615 429.283641 99.692308 429.045546 100.000000 428.808572 100.307692 428.572717 100.615385 428.337978 100.923077 428.104352 101.230769 427.871834 101.538462 427.640423 101.846154 427.410114 102.153846 427.180904 102.461538 426.952791 102.769231 426.725770 103.076923 426.499839 103.384615 426.274995 103.692308 426.051234 104.000000 425.828553 104.307692 425.606948 104.615385 425.386417 104.923077 425.166956 105.230769 424.948562 105.538462 424.731232 105.846154 424.514963 106.153846 424.299750 106.461538 424.085592 106.769231 423.872484 107.076923 423.660424 107.384615 423.449408 107.692308 423.239434 108.000000 423.030497 108.307692 422.822594 108.615385 422.615723 108.923077 422.409880 109.230769 422.205062 109.538462 422.001265 109.846154 421.798487 110.153846 421.596724 110.461538 421.395972 110.769231 421.196230 111.076923 420.997492 111.384615 420.799757 111.692308 420.603021 112.000000 420.407280 112.307692 420.212532 112.615385 420.018772 112.923077 419.825999 113.230769 419.634208 113.538462 419.443397 113.846154 419.253562 114.153846 419.064700 114.461538 418.876808 114.769231 418.689882 115.076923 418.503919 115.384615 418.318916 115.692308 418.134870 116.000000 417.951777 116.307692 417.769635 116.615385 417.588440 116.923077 417.408188 117.230769 417.228877 117.538462 417.050503 117.846154 416.873063 118.153846 416.696554 118.461538 416.520972 118.769231 416.346315 119.076923 416.172579 119.384615 415.999761 119.692308 415.827857 120.000000 415.656864 120.307692 415.486780 120.615385 415.317600 120.923077 415.149322 121.230769 414.981942 121.538462 414.815458 121.846154 414.649865 122.153846 414.485161 122.461538 414.321342 122.769231 414.158406 123.076923 413.996348 123.384615 413.835166 123.692308 413.674856 124.000000 413.515416 124.307692 413.356841 124.615385 413.199129 124.923077 413.042277 125.230769 412.886280 125.538462 412.731137 125.846154 412.576843 126.153846 412.423396 126.461538 412.270792 126.769231 412.119028 127.076923 411.968101 127.384615 411.818007 127.692308 411.668743 128.000000 411.520307 128.307692 411.372694 128.615385 411.225902 128.923077 411.079927 129.230769 410.934766 129.538462 410.790416 129.846154 410.646873 130.153846 410.504135 130.461538 410.362197 130.769231 410.221058 131.076923 410.080713 131.384615 409.941159 131.692308 409.802394 132.000000 409.664413 132.307692 409.527214 132.615385 409.390793 132.923077 409.255148 133.230769 409.120274 133.538462 408.986169 133.846154 408.852829 134.153846 408.720252 134.461538 408.588433 134.769231 408.457370 135.076923 408.327060 135.384615 408.197498 135.692308 408.068683 136.000000 407.940610 136.307692 407.813276 136.615385 407.686679 136.923077 407.560815 137.230769 407.435680 137.538462 407.311272 137.846154 407.187588 138.153846 407.064623 138.461538 406.942375 138.769231 406.820840 139.076923 406.700016 139.384615 406.579898 139.692308 406.460485 140.000000 406.341772 140.307692 406.223756 140.615385 406.106434 140.923077 405.989803 141.230769 405.873860 141.538462 405.758601 141.846154 405.644023 142.153846 405.530123 142.461538 405.416897 142.769231 405.304343 143.076923 405.192457 143.384615 405.081235 143.692308 404.970676 144.000000 404.860774 144.307692 404.751528 144.615385 404.642934 144.923077 404.534988 145.230769 404.427688 145.538462 404.321030 145.846154 404.215011 146.153846 404.109627 146.461538 404.004876 146.769231 403.900754 147.076923 403.797258 147.384615 403.694384 147.692308 403.592131 148.000000 403.490493 148.307692 403.389468 148.615385 403.289053 148.923077 403.189245 149.230769 403.090039 149.538462 402.991434 149.846154 402.893426 150.153846 402.796011 150.461538 402.699186 150.769231 402.602948 151.076923 402.507294 151.384615 402.412221 151.692308 402.317725 152.000000 402.223802 152.307692 402.130451 152.615385 402.037667 152.923077 401.945448 153.230769 401.853790 153.538462 401.762689 153.846154 401.672143 154.153846 401.582149 154.461538 401.492702 154.769231 401.403801 155.076923 401.315441 155.384615 401.227619 155.692308 401.140333 156.000000 401.053578 156.307692 400.967352 156.615385 400.881652 156.923077 400.796474 157.230769 400.711814 157.538462 400.627670 157.846154 400.544039 158.153846 400.460917 158.461538 400.378301 158.769231 400.296187 159.076923 400.214573 159.384615 400.133455 159.692308 400.052831 160.000000 399.972696 160.307692 399.893047 160.615385 399.813882 160.923077 399.735196 161.230769 399.656988 161.538462 399.579253 161.846154 399.501988 162.153846 399.425190 162.461538 399.348856 162.769231 399.272983 163.076923 399.197567 163.384615 399.122604 163.692308 399.048093 164.000000 398.974030 164.307692 398.900410 164.615385 398.827232 164.923077 398.754492 165.230769 398.682186 165.538462 398.610311 165.846154 398.538865 166.153846 398.467843 166.461538 398.397244 166.769231 398.327062 167.076923 398.257296 167.384615 398.187942 167.692308 398.118996 168.000000 398.050454 168.307692 397.982305 168.615385 397.914535 168.923077 397.847133 169.230769 397.780085 169.538462 397.713378 169.846154 397.647000 170.153846 397.580938 170.461538 397.515179 170.769231 397.449711 171.076923 397.384520 171.384615 397.319593 171.692308 397.254919 172.000000 397.190484 172.307692 397.126276 172.615385 397.062281 172.923077 396.998486 173.230769 396.934880 173.538462 396.871450 173.846154 396.808181 174.153846 396.745063 174.461538 396.682081 174.769231 396.619223 175.076923 396.556477 175.384615 396.493829 175.692308 396.431267 176.000000 396.368779 176.307692 396.306350 176.615385 396.243968 176.923077 396.181622 177.230769 396.119297 177.538462 396.056981 177.846154 395.994662 178.153846 395.932326 178.461538 395.869960 178.769231 395.807553 179.076923 395.745091 179.384615 395.682561 179.692308 395.619950 180.000000 395.557247 180.307692 395.494437 180.615385 395.431509 180.923077 395.368449 181.230769 395.305244 181.538462 395.241883 181.846154 395.178351 182.153846 395.114637 182.461538 395.050727 182.769231 394.986609 183.076923 394.922270 183.384615 394.857697 183.692308 394.792877 184.000000 394.727798 184.307692 394.662447 184.615385 394.596811 184.923077 394.530876 185.230769 394.464632 185.538462 394.398064 185.846154 394.331159 186.153846 394.263906 186.461538 394.196291 186.769231 394.128302 187.076923 394.059925 187.384615 393.991148 187.692308 393.921958 188.000000 393.852343 188.307692 393.782289 188.615385 393.711784 188.923077 393.640815 189.230769 393.569369 189.538462 393.497434 189.846154 393.424996 190.153846 393.352043 190.461538 393.278562 190.769231 393.204540 191.076923 393.129965 191.384615 393.054824 191.692308 392.979103 192.000000 392.902791 192.307692 392.825874 192.615385 392.748339 192.923077 392.670174 193.230769 392.591366 193.538462 392.511903 193.846154 392.431771 194.153846 392.350957 194.461538 392.269449 194.769231 392.187235 195.076923 392.104300 195.384615 392.020633 195.692308 391.936221 196.000000 391.851051 196.307692 391.765110 196.615385 391.678385 196.923077 391.590863 197.230769 391.502533 197.538462 391.413380 197.846154 391.323393 198.153846 391.232558 198.461538 391.140863 198.769231 391.048294 199.076923 390.954840 199.384615 390.860487 199.692308 390.765222 200.000000 390.669033 200.307692 390.571907 200.615385 390.473831 200.923077 390.374793 201.230769 390.274779 201.538462 390.173776 201.846154 390.071773 202.153846 389.968756 202.461538 389.864712 202.769231 389.759629 203.076923 389.653494 203.384615 389.546294 203.692308 389.438016 204.000000 389.328648 204.307692 389.218176 204.615385 389.106588 204.923077 388.993871 205.230769 388.880013 205.538462 388.765000 205.846154 388.648820 206.153846 388.531460 206.461538 388.412907 206.769231 388.293149 207.076923 388.172172 207.384615 388.049964 207.692308 387.926512 208.000000 387.801804 208.307692 387.675826 208.615385 387.548565 208.923077 387.420009 209.230769 387.290146 209.538462 387.158962 209.846154 387.026444 210.153846 386.892581 210.461538 386.757358 210.769231 386.620763 211.076923 386.482784 211.384615 386.343407 211.692308 386.202621 212.000000 386.060411 212.307692 385.916766 212.615385 385.771672 212.923077 385.625116 213.230769 385.477087 213.538462 385.327571 213.846154 385.176555 214.153846 385.024027 214.461538 384.869973 214.769231 384.714382 215.076923 384.557239 215.384615 384.398533 215.692308 384.238251 216.000000 384.076380 216.307692 383.912906 216.615385 383.747818 216.923077 383.581102 217.230769 383.412746 217.538462 383.242737 217.846154 383.071062 218.153846 382.897708 218.461538 382.722663 218.769231 382.545914 219.076923 382.367448 219.384615 382.187252 219.692308 382.005313 220.000000 381.821619 220.307692 381.636156 220.615385 381.448913 220.923077 381.259876 221.230769 381.069033 221.538462 380.876370 221.846154 380.681875 222.153846 380.485535 222.461538 380.287338 222.769231 380.087270 223.076923 379.885319 223.384615 379.681472 223.692308 379.475716 224.000000 379.268038 224.307692 379.058426 224.615385 378.846867 224.923077 378.633348 225.230769 378.417857 225.538462 378.200379 225.846154 377.980904 226.153846 377.759417 226.461538 377.535907 226.769231 377.310359 227.076923 377.082763 227.384615 376.853104 227.692308 376.621370 228.000000 376.387548 228.307692 376.151626 228.615385 375.913590 228.923077 375.673428 229.230769 375.431128 229.538462 375.186675 229.846154 374.940058 230.153846 374.691264 230.461538 374.440279 230.769231 374.187092 231.076923 373.931689 231.384615 373.674057 231.692308 373.414185 232.000000 373.152058 232.307692 372.887664 232.615385 372.620991 232.923077 372.352026 233.230769 372.080755 233.538462 371.807166 233.846154 371.531247 234.153846 371.252984 234.461538 370.972365 234.769231 370.689377 235.076923 370.404007 235.384615 370.116242 235.692308 369.826070 236.000000 369.533477 236.307692 369.238452 236.615385 368.940980 236.923077 368.641050 237.230769 368.338649 237.538462 368.033764 237.846154 367.726381 238.153846 367.416489 238.461538 367.104074 238.769231 366.789124 239.076923 366.471626 239.384615 366.151567 239.692308 365.828935 240.000000 365.503716 240.307692 365.175897 240.615385 364.845467 240.923077 364.512412 241.230769 364.176719 241.538462 363.838376 241.846154 363.497370 242.153846 363.153687 242.461538 362.807316 242.769231 362.458244 243.076923 362.106457 243.384615 361.751943 243.692308 361.394689 244.000000 361.034683 244.307692 360.671911 244.615385 360.306361 244.923077 359.938026 245.230769 359.566926 245.538462 359.193087 245.846154 358.816533 246.153846 358.437292 246.461538 358.055388 246.769231 357.670847 247.076923 357.283695 247.384615 356.893958 247.692308 356.501662 248.000000 356.106832 248.307692 355.709494 248.615385 355.309674 248.923077 354.907397 249.230769 354.502689 249.538462 354.095576 249.846154 353.686083 250.153846 353.274237 250.461538 352.860063 250.769231 352.443586 251.076923 352.024834 251.384615 351.603830 251.692308 351.180601 252.000000 350.755173 252.307692 350.327571 252.615385 349.897822 252.923077 349.465950 253.230769 349.031982 253.538462 348.595943 253.846154 348.157859 254.153846 347.717756 254.461538 347.275659 254.769231 346.831595 255.076923 346.385588 255.384615 345.937665 255.692308 345.487852 256.000000 345.036173 256.307692 344.582656 256.615385 344.127325 256.923077 343.670206 257.230769 343.211325 257.538462 342.750708 257.846154 342.288380 258.153846 341.824367 258.461538 341.358696 258.769231 340.891391 259.076923 340.422478 259.384615 339.951983 259.692308 339.479933 260.000000 339.006351 260.307692 338.531265 260.615385 338.054700 260.923077 337.576682 261.230769 337.097236 261.538462 336.616388 261.846154 336.134164 262.153846 335.650590 262.461538 335.165691 262.769231 334.679493 263.076923 334.192022 263.384615 333.703303 263.692308 333.213362 264.000000 332.722226 264.307692 332.229919 264.615385 331.736468 264.923077 331.241897 265.230769 330.746234 265.538462 330.249503 265.846154 329.751730 266.153846 329.252942 266.461538 328.753163 266.769231 328.252420 267.076923 327.750737 267.384615 327.248142 267.692308 326.744660 268.000000 326.240316 268.307692 325.735135 268.615385 325.229145 268.923077 324.722371 269.230769 324.214837 269.538462 323.706571 269.846154 323.197597 270.153846 322.687942 270.461538 322.177631 270.769231 321.666690 271.076923 321.155144 271.384615 320.643020 271.692308 320.130343 272.000000 319.617139 272.307692 319.103433 272.615385 318.589252 272.923077 318.074620 273.230769 317.559565 273.538462 317.044110 273.846154 316.528283 274.153846 316.012109 274.461538 315.495613 274.769231 314.978822 275.076923 314.461761 275.384615 313.944455 275.692308 313.426932 276.000000 312.909215 276.307692 312.391331 276.615385 311.873306 276.923077 311.355165 277.230769 310.836935 277.538462 310.318640 277.846154 309.800307 278.153846 309.281962 278.461538 308.763629 278.769231 308.245335 279.076923 307.727106 279.384615 307.208967 279.692308 306.690943 280.000000 306.173062 280.307692 305.655348 280.615385 305.137827 280.923077 304.620524 281.230769 304.103467 281.538462 303.586679 281.846154 303.070188 282.153846 302.554019 282.461538 302.038196 282.769231 301.522748 283.076923 301.007698 283.384615 300.493072 283.692308 299.978897 284.000000 299.465198 284.307692 298.952001 284.615385 298.439332 284.923077 297.927216 285.230769 297.415679 285.538462 296.904746 285.846154 296.394444 286.153846 295.884798 286.461538 295.375834 286.769231 294.867578 287.076923 294.360055 287.384615 293.853291 287.692308 293.347312 288.000000 292.842143 288.307692 292.337811 288.615385 291.834341 288.923077 291.331758 289.230769 290.830089 289.538462 290.329359 289.846154 289.829594 290.153846 289.330819 290.461538 288.833061 290.769231 288.336345 291.076923 287.840697 291.384615 287.346142 291.692308 286.852706 292.000000 286.360416 292.307692 285.869296 292.615385 285.379372 292.923077 284.890671 293.230769 284.403217 293.538462 283.917037 293.846154 283.432156 294.153846 282.948601 294.461538 282.466396 294.769231 281.985567 295.076923 281.506141 295.384615 281.028143 295.692308 280.551599 296.000000 280.076533 296.307692 279.602973 296.615385 279.130944 296.923077 278.660471 297.230769 278.191581 297.538462 277.724299 297.846154 277.258650 298.153846 276.794661 298.461538 276.332357 298.769231 275.871764 299.076923 275.412907 299.384615 274.955813 299.692308 274.500508 300.000000 274.047015 300.307692 273.595363 300.615385 273.145576 300.923077 272.697679 301.230769 272.251700 301.538462 271.807663 301.846154 271.365594 302.153846 270.925518 302.461538 270.487463 302.769231 270.051453 303.076923 269.617514 303.384615 269.185672 303.692308 268.755952 304.000000 268.328380 304.307692 267.902983 304.615385 267.479785 304.923077 267.058813 305.230769 266.640092 305.538462 266.223647 305.846154 265.809506 306.153846 265.397692 306.461538 264.988233 306.769231 264.581153 307.076923 264.176479 307.384615 263.774236 307.692308 263.374450 308.000000 262.977147 308.307692 262.582352 308.615385 262.190092 308.923077 261.800391 309.230769 261.413276 309.538462 261.028772 309.846154 260.646905 310.153846 260.267701 310.461538 259.891185 310.769231 259.517383 311.076923 259.146322 311.384615 258.778026 311.692308 258.412521 312.000000 258.049834 312.307692 257.689990 312.615385 257.333014 312.923077 256.978932 313.230769 256.627770 313.538462 256.279554 313.846154 255.934310 314.153846 255.592062 314.461538 255.252838 314.769231 254.916662 315.076923 254.583561 315.384615 254.253559 315.692308 253.926684 316.000000 253.602960 316.307692 253.282413 316.615385 252.965070 316.923077 252.650955 317.230769 252.340094 317.538462 252.032514 317.846154 251.728239 318.153846 251.427296 318.461538 251.129711 318.769231 250.835508 319.076923 250.544714 319.384615 250.257355 319.692308 249.973456 320.000000 249.693043 320.307692 249.416142 320.615385 249.142778 320.923077 248.872978 321.230769 248.606766 321.538462 248.344169 321.846154 248.085203 322.153846 247.829850 322.461538 247.578082 322.769231 247.329872 323.076923 247.085192 323.384615 246.844014 323.692308 246.606312 324.000000 246.372057 324.307692 246.141222 324.615385 245.913779 324.923077 245.689702 325.230769 245.468961 325.538462 245.251531 325.846154 245.037382 326.153846 244.826488 326.461538 244.618821 326.769231 244.414354 327.076923 244.213059 327.384615 244.014908 327.692308 243.819874 328.000000 243.627930 328.307692 243.439047 328.615385 243.253199 328.923077 243.070357 329.230769 242.890494 329.538462 242.713583 329.846154 242.539596 330.153846 242.368506 330.461538 242.200285 330.769231 242.034905 331.076923 241.872338 331.384615 241.712559 331.692308 241.555538 332.000000 241.401248 332.307692 241.249662 332.615385 241.100752 332.923077 240.954490 333.230769 240.810850 333.538462 240.669803 333.846154 240.531322 334.153846 240.395380 334.461538 240.261948 334.769231 240.131000 335.076923 240.002507 335.384615 239.876443 335.692308 239.752779 336.000000 239.631488 336.307692 239.512543 336.615385 239.395916 336.923077 239.281579 337.230769 239.169505 337.538462 239.059667 337.846154 238.952036 338.153846 238.846586 338.461538 238.743288 338.769231 238.642116 339.076923 238.543041 339.384615 238.446036 339.692308 238.351074 340.000000 238.258127 340.307692 238.167167 340.615385 238.078167 340.923077 237.991099 341.230769 237.905936 341.538462 237.822651 341.846154 237.741215 342.153846 237.661601 342.461538 237.583782 342.769231 237.507729 343.076923 237.433417 343.384615 237.360816 343.692308 237.289900 344.000000 237.220640 344.307692 237.153010 344.615385 237.086981 344.923077 237.022527 345.230769 236.959620 345.538462 236.898231 345.846154 236.838334 346.153846 236.779901 346.461538 236.722905 346.769231 236.667317 347.076923 236.613111 347.384615 236.560259 347.692308 236.508733 348.000000 236.458505 348.307692 236.409549 348.615385 236.361836 348.923077 236.315340 349.230769 236.270032 349.538462 236.225885 349.846154 236.182871 350.153846 236.140964 350.461538 236.100134 350.769231 236.060356 351.076923 236.021600 351.384615 235.983841 351.692308 235.947049 352.000000 235.911198 352.307692 235.876260 352.615385 235.842208 352.923077 235.809014 353.230769 235.776650 353.538462 235.745088 353.846154 235.714303 354.153846 235.684264 354.461538 235.654946 354.769231 235.626321 355.076923 235.598361 355.384615 235.571039 355.692308 235.544326 356.000000 235.518196 356.307692 235.492621 356.615385 235.467573 356.923077 235.443025 357.230769 235.418949 357.538462 235.395318 357.846154 235.372104 358.153846 235.349280 358.461538 235.326818 358.769231 235.304690 359.076923 235.282870 359.384615 235.261329 359.692308 235.240039 360.000000 235.218974 360.307692 235.198106 360.615385 235.177407 360.923077 235.156850 361.230769 235.136407 361.538462 235.116051 361.846154 235.095753 362.153846 235.075487 362.461538 235.055225 362.769231 235.034940 363.076923 235.014603 363.384615 234.994188 363.692308 234.973666 364.000000 234.953011 364.307692 234.932194 364.615385 234.911188 364.923077 234.889966 365.230769 234.868500 365.538462 234.846762 365.846154 234.824726 366.153846 234.802362 366.461538 234.779645 366.769231 234.756546 367.076923 234.733037 367.384615 234.709092 367.692308 234.684682 368.000000 234.659781 368.307692 234.634360 368.615385 234.608392 368.923077 234.581849 369.230769 234.554704 369.538462 234.526930 369.846154 234.498498 370.153846 234.469382 370.461538 234.439553 370.769231 234.408985 371.076923 234.377649 371.384615 234.345518 371.692308 234.312565 372.000000 234.278761 372.307692 234.244080 372.615385 234.208494 372.923077 234.171976 373.230769 234.134497 373.538462 234.096030 373.846154 234.056548 374.153846 234.016023 374.461538 233.974427 374.769231 233.931734 375.076923 233.887915 375.384615 233.842943 375.692308 233.796790 376.000000 233.749429 376.307692 233.700833 376.615385 233.650973 376.923077 233.599822 377.230769 233.547353 377.538462 233.493538 377.846154 233.438350 378.153846 233.381761 378.461538 233.323743 378.769231 233.264269 379.076923 233.203311 379.384615 233.140842 379.692308 233.076835 380.000000 233.011261 380.307692 232.944093 380.615385 232.875304 380.923077 232.804866 381.230769 232.732751 381.538462 232.658932 381.846154 232.583382 382.153846 232.506073 382.461538 232.426977 382.769231 232.346066 383.076923 232.263314 383.384615 232.178693 383.692308 232.092175 384.000000 232.003732 384.307692 231.913337 384.615385 231.820963 384.923077 231.726582 385.230769 231.630166 385.538462 231.531688 385.846154 231.431120 386.153846 231.328435 386.461538 231.223606 386.769231 231.116603 387.076923 231.007401 387.384615 230.895972 387.692308 230.782287 388.000000 230.666320 388.307692 230.548043 388.615385 230.427428 388.923077 230.304448 389.230769 230.179075 389.538462 230.051282 389.846154 229.921041 390.153846 229.788325 390.461538 229.653106 390.769231 229.515356 391.076923 229.375048 391.384615 229.232155 391.692308 229.086648 392.000000 228.938501 392.307692 228.787686 392.615385 228.634175 392.923077 228.477940 393.230769 228.318955 393.538462 228.157191 393.846154 227.992621 394.153846 227.825218 394.461538 227.654954 394.769231 227.481801 395.076923 227.305732 395.384615 227.126719 395.692308 226.944735 396.000000 226.759752 396.307692 226.571743 396.615385 226.380680 396.923077 226.186535 397.230769 225.989282 397.538462 225.788891 397.846154 225.585337 398.153846 225.378591 398.461538 225.168626 398.769231 224.955423 399.076923 224.738997 399.384615 224.519371 399.692308 224.296569 400.000000 224.070614 400.307692 223.841531 400.615385 223.609343 400.923077 223.374072 401.230769 223.135744 401.538462 222.894382 401.846154 222.650008 402.153846 222.402647 402.461538 222.152323 402.769231 221.899058 403.076923 221.642877 403.384615 221.383803 403.692308 221.121859 404.000000 220.857070 404.307692 220.589458 404.615385 220.319048 404.923077 220.045863 405.230769 219.769926 405.538462 219.491261 405.846154 219.209892 406.153846 218.925843 406.461538 218.639136 406.769231 218.349796 407.076923 218.057846 407.384615 217.763309 407.692308 217.466210 408.000000 217.166571 408.307692 216.864417 408.615385 216.559771 408.923077 216.252656 409.230769 215.943096 409.538462 215.631116 409.846154 215.316737 410.153846 214.999985 410.461538 214.680882 410.769231 214.359452 411.076923 214.035718 411.384615 213.709705 411.692308 213.381436 412.000000 213.050934 412.307692 212.718223 412.615385 212.383326 412.923077 212.046268 413.230769 211.707072 413.538462 211.365761 413.846154 211.022358 414.153846 210.676889 414.461538 210.329375 414.769231 209.979841 415.076923 209.628310 415.384615 209.274806 415.692308 208.919353 416.000000 208.561974 416.307692 208.202692 416.615385 207.841531 416.923077 207.478515 417.230769 207.113667 417.538462 206.747012 417.846154 206.378572 418.153846 206.008371 418.461538 205.636432 418.769231 205.262780 419.076923 204.887438 419.384615 204.510429 419.692308 204.131777 420.000000 203.751506 420.307692 203.369639 420.615385 202.986200 420.923077 202.601212 421.230769 202.214699 421.538462 201.826685 421.846154 201.437193 422.153846 201.046246 422.461538 200.653869 422.769231 200.260084 423.076923 199.864916 423.384615 199.468389 423.692308 199.070524 424.000000 198.671347 424.307692 198.270881 424.615385 197.869149 424.923077 197.466175 425.230769 197.061983 425.538462 196.656596 425.846154 196.250037 426.153846 195.842331 426.461538 195.433500 426.769231 195.023570 427.076923 194.612562 427.384615 194.200501 427.692308 193.787410 428.000000 193.373313 428.307692 192.958233 428.615385 192.542194 428.923077 192.125220 429.230769 191.707334 429.538462 191.288560 429.846154 190.868921 430.153846 190.448441 430.461538 190.027143 430.769231 189.605051 431.076923 189.182190 431.384615 188.758581 431.692308 188.334249 432.000000 187.909218 432.307692 187.483510 432.615385 187.057151 432.923077 186.630162 433.230769 186.202568 433.538462 185.774393 433.846154 185.345659 434.153846 184.916391 434.461538 184.486612 434.769231 184.056346 435.076923 183.625616 435.384615 183.194445 435.692308 182.762858 436.000000 182.330879 436.307692 181.898529 436.615385 181.465834 436.923077 181.032817 437.230769 180.599501 437.538462 180.165910 437.846154 179.732068 438.153846 179.297998 438.461538 178.863723 438.769231 178.429268 439.076923 177.994655 439.384615 177.559909 439.692308 177.125053 440.000000 176.690111 440.307692 176.255106 440.615385 175.820061 440.923077 175.385001 441.230769 174.949949 441.538462 174.514929 441.846154 174.079963 442.153846 173.645076 442.461538 173.210292 442.769231 172.775634 443.076923 172.341124 443.384615 171.906788 443.692308 171.472649 444.000000 171.038730 444.307692 170.605055 444.615385 170.171647 444.923077 169.738530 445.230769 169.305727 445.538462 168.873263 445.846154 168.441160 446.153846 168.009443 446.461538 167.578135 446.769231 167.147259 447.076923 166.716839 447.384615 166.286899 447.692308 165.857462 448.000000 165.428552 448.307692 165.000192 448.615385 164.572406 448.923077 164.145218 449.230769 163.718651 449.538462 163.292729 449.846154 162.867475 450.153846 162.442913 450.461538 162.019067 450.769231 161.595959 451.076923 161.173614 451.384615 160.752056 451.692308 160.331307 452.000000 159.911392 452.307692 159.492334 452.615385 159.074156 452.923077 158.656883 453.230769 158.240537 453.538462 157.825143 453.846154 157.410723 454.153846 156.997302 454.461538 156.584903 454.769231 156.173550 455.076923 155.763266 455.384615 155.354075 455.692308 154.946001 456.000000 154.539066 456.307692 154.133295 456.615385 153.728712 456.923077 153.325339 457.230769 152.923200 457.538462 152.522319 457.846154 152.122720 458.153846 151.724426 458.461538 151.327461 458.769231 150.931848 459.076923 150.537611 459.384615 150.144773 459.692308 149.753358 460.000000 149.363390 460.307692 148.974893 460.615385 148.587889 460.923077 148.202402 461.230769 147.818456 461.538462 147.436075 461.846154 147.055282 462.153846 146.676101 462.461538 146.298555 462.769231 145.922668 463.076923 145.548463 463.384615 145.175965 463.692308 144.805196 464.000000 144.436180 464.307692 144.068941 464.615385 143.703503 464.923077 143.339888 465.230769 142.978121 465.538462 142.618225 465.846154 142.260224 466.153846 141.904142 466.461538 141.550001 466.769231 141.197825 467.076923 140.847639 467.384615 140.499466 467.692308 140.153328 468.000000 139.809251 468.307692 139.467257 468.615385 139.127369 468.923077 138.789613 469.230769 138.454011 469.538462 138.120586 469.846154 137.789363 470.153846 137.460364 470.461538 137.133614 470.769231 136.809137 471.076923 136.486955 471.384615 136.167092 471.692308 135.849572 472.000000 135.534418 472.307692 135.221655 472.615385 134.911305 472.923077 134.603392 473.230769 134.297940 473.538462 133.994973 473.846154 133.694513 474.153846 133.396585 474.461538 133.101212 474.769231 132.808417 475.076923 132.518225 475.384615 132.230659 475.692308 131.945736 476.000000 131.663445 476.307692 131.383770 476.615385 131.106695 476.923077 130.832203 477.230769 130.560277 477.538462 130.290901 477.846154 130.024057 478.153846 129.759729 478.461538 129.497902 478.769231 129.238557 479.076923 128.981678 479.384615 128.727249 479.692308 128.475253 480.000000 128.225673 480.307692 127.978493 480.615385 127.733696 480.923077 127.491265 481.230769 127.251184 481.538462 127.013436 481.846154 126.778004 482.153846 126.544872 482.461538 126.314023 482.769231 126.085440 483.076923 125.859108 483.384615 125.635008 483.692308 125.413125 484.000000 125.193441 484.307692 124.975941 484.615385 124.760607 484.923077 124.547423 485.230769 124.336373 485.538462 124.127439 485.846154 123.920604 486.153846 123.715853 486.461538 123.513169 486.769231 123.312534 487.076923 123.113933 487.384615 122.917348 487.692308 122.722764 488.000000 122.530162 488.307692 122.339528 488.615385 122.150843 488.923077 121.964091 489.230769 121.779257 489.538462 121.596322 489.846154 121.415271 490.153846 121.236086 490.461538 121.058752 490.769231 120.883251 491.076923 120.709567 491.384615 120.537683 491.692308 120.367582 492.000000 120.199248 492.307692 120.032664 492.615385 119.867814 492.923077 119.704681 493.230769 119.543248 493.538462 119.383498 493.846154 119.225416 494.153846 119.068983 494.461538 118.914185 494.769231 118.761003 495.076923 118.609421 495.384615 118.459423 495.692308 118.310992 496.000000 118.164111 496.307692 118.018764 496.615385 117.874934 496.923077 117.732605 497.230769 117.591759 497.538462 117.452380 497.846154 117.314451 498.153846 117.177957 498.461538 117.042879 498.769231 116.909202 499.076923 116.776909 499.384615 116.645982 499.692308 116.516406 500.000000 116.388164 500.307692 116.261240 500.615385 116.135615 500.923077 116.011275 501.230769 115.888202 501.538462 115.766379 501.846154 115.645790 502.153846 115.526419 502.461538 115.408248 502.769231 115.291261 503.076923 115.175441 503.384615 115.060772 503.692308 114.947237 504.000000 114.834820 504.307692 114.723503 504.615385 114.613270 504.923077 114.504104 505.230769 114.395989 505.538462 114.288908 505.846154 114.182845 506.153846 114.077782 506.461538 113.973704 506.769231 113.870593 507.076923 113.768432 507.384615 113.667206 507.692308 113.566897 508.000000 113.467490 508.307692 113.368966 508.615385 113.271310 508.923077 113.174505 509.230769 113.078534 509.538462 112.983380 509.846154 112.889028 510.153846 112.795459 510.461538 112.702659 510.769231 112.610609 511.076923 112.519293 511.384615 112.428696 511.692308 112.338799 512.000000 112.249587 512.307692 112.161042 512.615385 112.073148 512.923077 111.985889 513.230769 111.899247 513.538462 111.813207 513.846154 111.727751 514.153846 111.642862 514.461538 111.558525 514.769231 111.474722 515.076923 111.391437 515.384615 111.308654 515.692308 111.226354 516.000000 111.144523 516.307692 111.063143 516.615385 110.982197 516.923077 110.901669 517.230769 110.821542 517.538462 110.741800 517.846154 110.662426 518.153846 110.583404 518.461538 110.504715 518.769231 110.426345 519.076923 110.348276 519.384615 110.270492 519.692308 110.192976 520.000000 110.115711 520.307692 110.038681 520.615385 109.961869 520.923077 109.885258 521.230769 109.808832 521.538462 109.732574 521.846154 109.656467 522.153846 109.580496 522.461538 109.504642 522.769231 109.428890 523.076923 109.353223 523.384615 109.277624 523.692308 109.202076 524.000000 109.126563 524.307692 109.051069 524.615385 108.975576 524.923077 108.900068 525.230769 108.824528 525.538462 108.748940 525.846154 108.673286 526.153846 108.597551 526.461538 108.521718 526.769231 108.445769 527.076923 108.369689 527.384615 108.293461 527.692308 108.217067 528.000000 108.140492 528.307692 108.063719 528.615385 107.986731 528.923077 107.909511 529.230769 107.832043 529.538462 107.754310 529.846154 107.676295 530.153846 107.597982 530.461538 107.519355 530.769231 107.440395 531.076923 107.361088 531.384615 107.281416 531.692308 107.201362 532.000000 107.120910 532.307692 107.040044 532.615385 106.958746 532.923077 106.877000 533.230769 106.794789 533.538462 106.712097 533.846154 106.628906 534.153846 106.545201 534.461538 106.460965 534.769231 106.376181 535.076923 106.290831 535.384615 106.204901 535.692308 106.118373 536.000000 106.031230 536.307692 105.943456 536.615385 105.855033 536.923077 105.765947 537.230769 105.676179 537.538462 105.585713 537.846154 105.494532 538.153846 105.402621 538.461538 105.309961 538.769231 105.216537 539.076923 105.122332 539.384615 105.027329 539.692308 104.931512 540.000000 104.834863 540.307692 104.737367 540.615385 104.639006 540.923077 104.539764 541.230769 104.439625 541.538462 104.338571 541.846154 104.236586 542.153846 104.133653 542.461538 104.029756 542.769231 103.924878 543.076923 103.819002 543.384615 103.712112 543.692308 103.604191 544.000000 103.495223 544.307692 103.385190 544.615385 103.274076 544.923077 103.161865 545.230769 103.048539 545.538462 102.934083 545.846154 102.818479 546.153846 102.701711 546.461538 102.583762 546.769231 102.464615 547.076923 102.344254 547.384615 102.222663 547.692308 102.099824 548.000000 101.975721 548.307692 101.850337 548.615385 101.723656 548.923077 101.595661 549.230769 101.466335 549.538462 101.335661 549.846154 101.203624 550.153846 101.070206 550.461538 100.935390 550.769231 100.799161 551.076923 100.661501 551.384615 100.522394 551.692308 100.381822 552.000000 100.239770 552.307692 100.096221 552.615385 99.951163 552.923077 99.804600 553.230769 99.656543 553.538462 99.507003 553.846154 99.355988 554.153846 99.203510 554.461538 99.049577 554.769231 98.894201 555.076923 98.737390 555.384615 98.579155 555.692308 98.419506 556.000000 98.258453 556.307692 98.096006 556.615385 97.932174 556.923077 97.766969 557.230769 97.600399 557.538462 97.432475 557.846154 97.263206 558.153846 97.092603 558.461538 96.920676 558.769231 96.747435 559.076923 96.572889 559.384615 96.397049 559.692308 96.219924 560.000000 96.041525 560.307692 95.861862 560.615385 95.680944 560.923077 95.498781 561.230769 95.315384 561.538462 95.130762 561.846154 94.944926 562.153846 94.757886 562.461538 94.569650 562.769231 94.380230 563.076923 94.189636 563.384615 93.997876 563.692308 93.804963 564.000000 93.610904 564.307692 93.415710 564.615385 93.219392 564.923077 93.021959 565.230769 92.823421 565.538462 92.623789 565.846154 92.423071 566.153846 92.221279 566.461538 92.018422 566.769231 91.814510 567.076923 91.609553 567.384615 91.403561 567.692308 91.196544 568.000000 90.988512 568.307692 90.779474 568.615385 90.569442 568.923077 90.358425 569.230769 90.146433 569.538462 89.933476 569.846154 89.719563 570.153846 89.504706 570.461538 89.288913 570.769231 89.072195 571.076923 88.854561 571.384615 88.636023 571.692308 88.416589 572.000000 88.196270 572.307692 87.975076 572.615385 87.753016 572.923077 87.530101 573.230769 87.306341 573.538462 87.081745 573.846154 86.856324 574.153846 86.630087 574.461538 86.403045 574.769231 86.175207 575.076923 85.946584 575.384615 85.717186 575.692308 85.487022 576.000000 85.256102 576.307692 85.024437 576.615385 84.792036 576.923077 84.558909 577.230769 84.325067 577.538462 84.090519 577.846154 83.855275 578.153846 83.619346 578.461538 83.382741 578.769231 83.145470 579.076923 82.907543 579.384615 82.668971 579.692308 82.429763 580.000000 82.189929 580.307692 81.949479 580.615385 81.708423 580.923077 81.466771 581.230769 81.224533 581.538462 80.981719 581.846154 80.738340 582.153846 80.494404 582.461538 80.249922 582.769231 80.004905 583.076923 79.759361 583.384615 79.513301 583.692308 79.266735 584.000000 79.019673 584.307692 78.772124 584.615385 78.524100 584.923077 78.275609 585.230769 78.026662 585.538462 77.777269 585.846154 77.527439 586.153846 77.277184 586.461538 77.026511 586.769231 76.775433 587.076923 76.523958 587.384615 76.272097 587.692308 76.019860 588.000000 75.767256 588.307692 75.514295 588.615385 75.260988 588.923077 75.007345 589.230769 74.753375 589.538462 74.499089 589.846154 74.244496 590.153846 73.989606 590.461538 73.734430 590.769231 73.478978 591.076923 73.223258 591.384615 72.967282 591.692308 72.711059 592.000000 72.454600 592.307692 72.197914 592.615385 71.941011 592.923077 71.683901 593.230769 71.426595 593.538462 71.169102 593.846154 70.911432 594.153846 70.653595 594.461538 70.395601 594.769231 70.137460 595.076923 69.879182 595.384615 69.620778 595.692308 69.362256 596.000000 69.103628 596.307692 68.844902 596.615385 68.586090 596.923077 68.327200 597.230769 68.068243 597.538462 67.809229 597.846154 67.550168 598.153846 67.291070 598.461538 67.031945 598.769231 66.772803 599.076923 66.513653 599.384615 66.254506 599.692308 65.995372 600.000000 65.736261 600.307692 65.477182 600.615385 65.218146 600.923077 64.959163 601.230769 64.700242 601.538462 64.441394 601.846154 64.182629 602.153846 63.923956 602.461538 63.665385 602.769231 63.406928 603.076923 63.148592 603.384615 62.890389 603.692308 62.632329 604.000000 62.374421 604.307692 62.116676 604.615385 61.859103 604.923077 61.601712 605.230769 61.344514 605.538462 61.087518 605.846154 60.830734 606.153846 60.574173 606.461538 60.317843 606.769231 60.061757 607.076923 59.805922 607.384615 59.550349 607.692308 59.295049 608.000000 59.040031 608.307692 58.785305 608.615385 58.530881 608.923077 58.276770 609.230769 58.022980 609.538462 57.769522 609.846154 57.516407 610.153846 57.263643 610.461538 57.011242 610.769231 56.759212 611.076923 56.507564 611.384615 56.256308 611.692308 56.005455 612.000000 55.755013 612.307692 55.504992 612.615385 55.255404 612.923077 55.006258 613.230769 54.757563 613.538462 54.509330 613.846154 54.261569 614.153846 54.014289 614.461538 53.767502 614.769231 53.521216 615.076923 53.275441 615.384615 53.030188 615.692308 52.785467 616.000000 52.541288 616.307692 52.297660 616.615385 52.054593 616.923077 51.812098 617.230769 51.570185 617.538462 51.328863 617.846154 51.088143 618.153846 50.848034 618.461538 50.608546 618.769231 50.369690 619.076923 50.131475 619.384615 49.893911 619.692308 49.657009 620.000000 49.420778 620.307692 49.185229 620.615385 48.950371 620.923077 48.716214 621.230769 48.482768 621.538462 48.250043 621.846154 48.018050 622.153846 47.786797 622.461538 47.556296 622.769231 47.326556 623.076923 47.097587 623.384615 46.869400 623.692308 46.642003 624.000000 46.415407 624.307692 46.189622 624.615385 45.964658 624.923077 45.740525 625.230769 45.517234 625.538462 45.294793 625.846154 45.073213 626.153846 44.852503 626.461538 44.632675 626.769231 44.413737 627.076923 44.195701 627.384615 43.978575 627.692308 43.762370 628.000000 43.547095 628.307692 43.332761 628.615385 43.119378 628.923077 42.906956 629.230769 42.695504 629.538462 42.485031 629.846154 42.275534 630.153846 42.067011 630.461538 41.859456 630.769231 41.652866 631.076923 41.447236 631.384615 41.242565 631.692308 41.038846 632.000000 40.836076 632.307692 40.634252 632.615385 40.433369 632.923077 40.233424 633.230769 40.034412 633.538462 39.836330 633.846154 39.639174 634.153846 39.442939 634.461538 39.247623 634.769231 39.053220 635.076923 38.859727 635.384615 38.667141 635.692308 38.475456 636.000000 38.284670 636.307692 38.094778 636.615385 37.905777 636.923077 37.717662 637.230769 37.530430 637.538462 37.344076 637.846154 37.158597 638.153846 36.973989 638.461538 36.790247 638.769231 36.607369 639.076923 36.425350 639.384615 36.244186 639.692308 36.063873 640.000000 35.884407 640.307692 35.705785 640.615385 35.528002 640.923077 35.351054 641.230769 35.174938 641.538462 34.999650 641.846154 34.825186 642.153846 34.651541 642.461538 34.478712 642.769231 34.306695 643.076923 34.135486 643.384615 33.965082 643.692308 33.795477 644.000000 33.626669 644.307692 33.458653 644.615385 33.291426 644.923077 33.124983 645.230769 32.959321 645.538462 32.794435 645.846154 32.630322 646.153846 32.466978 646.461538 32.304399 646.769231 32.142580 647.076923 31.981519 647.384615 31.821211 647.692308 31.661652 648.000000 31.502839 648.307692 31.344766 648.615385 31.187432 648.923077 31.030830 649.230769 30.874959 649.538462 30.719813 649.846154 30.565388 650.153846 30.411682 650.461538 30.258689 650.769231 30.106407 651.076923 29.954830 651.384615 29.803956 651.692308 29.653780 652.000000 29.504298 652.307692 29.355506 652.615385 29.207401 652.923077 29.059979 653.230769 28.913235 653.538462 28.767166 653.846154 28.621767 654.153846 28.477035 654.461538 28.332967 654.769231 28.189557 655.076923 28.046802 655.384615 27.904699 655.692308 27.763242 656.000000 27.622429 656.307692 27.482255 656.615385 27.342717 656.923077 27.203810 657.230769 27.065531 657.538462 26.927876 657.846154 26.790840 658.153846 26.654420 658.461538 26.518613 658.769231 26.383413 659.076923 26.248817 659.384615 26.114821 659.692308 25.981422 660.000000 25.848614 660.307692 25.716396 660.615385 25.584761 660.923077 25.453707 661.230769 25.323230 661.538462 25.193326 661.846154 25.063990 662.153846 24.935219 662.461538 24.807009 662.769231 24.679356 663.076923 24.552256 663.384615 24.425706 663.692308 24.299700 664.000000 24.174236 664.307692 24.049309 664.615385 23.924916 664.923077 23.801052 665.230769 23.677714 665.538462 23.554897 665.846154 23.432599 666.153846 23.310814 666.461538 23.189539 666.769231 23.068770 667.076923 22.948503 667.384615 22.828734 667.692308 22.709460 668.000000 22.590676 668.307692 22.472378 668.615385 22.354563 668.923077 22.237226 669.230769 22.120364 669.538462 22.003973 669.846154 21.888048 670.153846 21.772586 670.461538 21.657584 670.769231 21.543036 671.076923 21.428939 671.384615 21.315290 671.692308 21.202083 672.000000 21.089316 672.307692 20.976985 672.615385 20.865085 672.923077 20.753612 673.230769 20.642563 673.538462 20.531934 673.846154 20.421721 674.153846 20.311919 674.461538 20.202526 674.769231 20.093536 675.076923 19.984947 675.384615 19.876753 675.692308 19.768952 676.000000 19.661540 676.307692 19.554511 676.615385 19.447864 676.923077 19.341592 677.230769 19.235694 677.538462 19.130164 677.846154 19.024999 678.153846 18.920195 678.461538 18.815747 678.769231 18.711653 679.076923 18.607908 679.384615 18.504508 679.692308 18.401449 680.000000 18.298728 680.307692 18.196340 680.615385 18.094282 680.923077 17.992549 681.230769 17.891138 681.538462 17.790044 681.846154 17.689264 682.153846 17.588795 682.461538 17.488631 682.769231 17.388769 683.076923 17.289205 683.384615 17.189936 683.692308 17.090957 684.000000 16.992264 684.307692 16.893853 684.615385 16.795721 684.923077 16.697864 685.230769 16.600277 685.538462 16.502957 685.846154 16.405900 686.153846 16.309102 686.461538 16.212558 686.769231 16.116266 687.076923 16.020221 687.384615 15.924419 687.692308 15.828856 688.000000 15.733529 688.307692 15.638433 688.615385 15.543564 688.923077 15.448919 689.230769 15.354494 689.538462 15.260285 689.846154 15.166287 690.153846 15.072497 690.461538 14.978912 690.769231 14.885526 691.076923 14.792336 691.384615 14.699339 691.692308 14.606530 692.000000 14.513905 692.307692 14.421461 692.615385 14.329193 692.923077 14.237098 693.230769 14.145171 693.538462 14.053410 693.846154 13.961809 694.153846 13.870365 694.461538 13.779074 694.769231 13.687932 695.076923 13.596935 695.384615 13.506079 695.692308 13.415361 696.000000 13.324776 696.307692 13.234320 696.615385 13.143990 696.923077 13.053781 697.230769 12.963691 697.538462 12.873714 697.846154 12.783846 698.153846 12.694085 698.461538 12.604426 698.769231 12.514865 699.076923 12.425398 699.384615 12.336021 699.692308 12.246730 700.000000 12.157522 700.307692 12.068392 700.615385 11.979337 700.923077 11.890352 701.230769 11.801434 701.538462 11.712579 701.846154 11.623783 702.153846 11.535041 702.461538 11.446351 702.769231 11.357708 703.076923 11.269107 703.384615 11.180546 703.692308 11.092021 704.000000 11.003526 704.307692 10.915060 704.615385 10.826616 704.923077 10.738193 705.230769 10.649785 705.538462 10.561388 705.846154 10.473000 706.153846 10.384615 706.153846 540.000000" /></g></g><g class="titles" /><g class="plot overlay" transform="translate(60, 20)"><g class="series serie-0 color-0"><g class="dots"><circle class="dot reactive tooltip-trigger" cx="13.846153846153847" cy="529.6153846153846" r="2.5" /><desc class="value">1,493,416,570(kWh)</desc><desc class="x top">13.846153846153847</desc><desc class="y top">529.6153846153846</desc><desc class="x_label">2549</desc></g><g class="dots"><circle class="dot reactive tooltip-trigger" cx="90.76923076923076" cy="436.4190628663889" r="2.5" /><desc class="value">1,698,321,895(kWh)</desc><desc class="x top">90.76923076923076</desc><desc class="y top">436.4190628663889</desc><desc class="x_label">2550</desc></g><g class="dots"><circle class="dot reactive tooltip-trigger" cx="167.69230769230765" cy="398.11899576089866" r="2.5" /><desc class="value">1,782,530,022(kWh)</desc><desc class="x top">167.69230769230765</desc><desc class="y top">398.11899576089866</desc><desc class="x_label">2551</desc></g><g class="dots"><circle class="dot reactive tooltip-trigger" cx="244.6153846153846" cy="360.30636095058594" r="2.5" /><desc class="value">1,865,666,460(kWh)</desc><desc class="x top">244.6153846153846</desc><desc class="y top">360.30636095058594</desc><desc class="x_label">2552</desc></g><g class="dots"><circle class="dot reactive tooltip-trigger" cx="321.5384615384615" cy="248.34416850559342" r="2.5" /><desc class="value">2,111,831,212(kWh)</desc><desc class="x ">321.5384615384615</desc><desc class="y ">248.34416850559342</desc><desc class="x_label">2553</desc></g><g class="dots"><circle class="dot reactive tooltip-trigger" cx="398.46153846153845" cy="225.16862627032754" r="2.5" /><desc class="value">2,162,785,927(kWh)</desc><desc class="x left">398.46153846153845</desc><desc class="y left">225.16862627032754</desc><desc class="x_label">2554</desc></g><g class="dots"><circle class="dot reactive tooltip-trigger" cx="475.38461538461536" cy="132.23065902454817" r="2.5" /><desc class="value">2,367,123,223(kWh)</desc><desc class="x left">475.38461538461536</desc><desc class="y left">132.23065902454817</desc><desc class="x_label">2555</desc></g><g class="dots"><circle class="dot reactive tooltip-trigger" cx="552.3076923076923" cy="100.0962211900034" r="2.5" /><desc class="value">2,437,775,340(kWh)</desc><desc class="x left">552.3076923076923</desc><desc class="y left">100.0962211900034</desc><desc class="x_label">2556</desc></g><g class="dots"><circle class="dot reactive tooltip-trigger" cx="629.2307692307692" cy="42.69550442954949" r="2.5" /><desc class="value">2,563,978,953(kWh)</desc><desc class="x left">629.2307692307692</desc><desc class="y left">42.69550442954949</desc><desc class="x_label">2557</desc></g><g class="dots"><circle class="dot reactive tooltip-trigger" cx="706.1538461538461" cy="10.384615384615358" r="2.5" /><desc class="value">2,635,019,023(kWh)</desc><desc class="x left">706.1538461538461</desc><desc class="y left">10.384615384615358</desc><desc class="x_label">2558</desc></g></g></g><g class="plot text-overlay" transform="translate(60, 20)"><g class="series serie-0 color-0" /></g><g class="plot tooltip-overlay" transform="translate(60, 20)"><g class="tooltip" style="opacity: 0" transform="translate(0 0)"><rect class="tooltip-box" height="0" rx="0" ry="0" width="0" /><g class="text" /></g></g></g></svg>