<?xml version='1.0' encoding='utf-8'?>
<svg xmlns:xlink="http://www.w3.org/1999/xlink" class="pygal-chart" id="chart-62c3e393-2ce3-4a0a-93b1-25b2a8a35aad" viewBox="0 0 800 600" xmlns="http://www.w3.org/2000/svg"><!--Generated with pygal 2.3.0 (etree) ©Kozea 2012-2016 on 2016-12-08--><!--http://pygal.org--><!--http://github.com/Kozea/pygal--><defs><style type="text/css">#chart-62c3e393-2ce3-4a0a-93b1-25b2a8a35aad{-webkit-user-select:none;-webkit-font-smoothing:antialiased;font-family:Consolas,"Liberation Mono",Menlo,Courier,monospace}#chart-62c3e393-2ce3-4a0a-93b1-25b2a8a35aad .title{font-family:Consolas,"Liberation Mono",Menlo,Courier,monospace;font-size:16px}#chart-62c3e393-2ce3-4a0a-93b1-25b2a8a35aad .legends .legend text{font-family:Consolas,"Liberation Mono",Menlo,Courier,monospace;font-size:14px}#chart-62c3e393-2ce3-4a0a-93b1-25b2a8a35aad .axis text{font-family:Consolas,"Liberation Mono",Menlo,Courier,monospace;font-size:10px}#chart-62c3e393-2ce3-4a0a-93b1-25b2a8a35aad .axis text.major{font-family:Consolas,"Liberation Mono",Menlo,Courier,monospace;font-size:10px}#chart-62c3e393-2ce3-4a0a-93b1-25b2a8a35aad .text-overlay text.value{font-family:Consolas,"Liberation Mono",Menlo,Courier,monospace;font-size:16px}#chart-62c3e393-2ce3-4a0a-93b1-25b2a8a35aad .text-overlay text.label{font-family:Consolas,"Liberation Mono",Menlo,Courier,monospace;font-size:10px}#chart-62c3e393-2ce3-4a0a-93b1-25b2a8a35aad .tooltip{font-family:Consolas,"Liberation Mono",Menlo,Courier,monospace;font-size:14px}#chart-62c3e393-2ce3-4a0a-93b1-25b2a8a35aad text.no_data{font-family:Consolas,"Liberation Mono",Menlo,Courier,monospace;font-size:64px}
#chart-62c3e393-2ce3-4a0a-93b1-25b2a8a35aad{background-color:rgba(249,249,249,1)}#chart-62c3e393-2ce3-4a0a-93b1-25b2a8a35aad path,#chart-62c3e393-2ce3-4a0a-93b1-25b2a8a35aad line,#chart-62c3e393-2ce3-4a0a-93b1-25b2a8a35aad rect,#chart-62c3e393-2ce3-4a0a-93b1-25b2a8a35aad circle{-webkit-transition:150ms;-moz-transition:150ms;transition:150ms}#chart-62c3e393-2ce3-4a0a-93b1-25b2a8a35aad .graph &gt; .background{fill:rgba(249,249,249,1)}#chart-62c3e393-2ce3-4a0a-93b1-25b2a8a35aad .plot &gt; .background{fill:rgba(255,255,255,1)}#chart-62c3e393-2ce3-4a0a-93b1-25b2a8a35aad .graph{fill:rgba(0,0,0,.87)}#chart-62c3e393-2ce3-4a0a-93b1-25b2a8a35aad text.no_data{fill:rgba(0,0,0,1)}#chart-62c3e393-2ce3-4a0a-93b1-25b2a8a35aad .title{fill:rgba(0,0,0,1)}#chart-62c3e393-2ce3-4a0a-93b1-25b2a8a35aad .legends .legend text{fill:rgba(0,0,0,.87)}#chart-62c3e393-2ce3-4a0a-93b1-25b2a8a35aad .legends .legend:hover text{fill:rgba(0,0,0,1)}#chart-62c3e393-2ce3-4a0a-93b1-25b2a8a35aad .axis .line{stroke:rgba(0,0,0,1)}#chart-62c3e393-2ce3-4a0a-93b1-25b2a8a35aad .axis .guide.line{stroke:rgba(0,0,0,.54)}#chart-62c3e393-2ce3-4a0a-93b1-25b2a8a35aad .axis .major.line{stroke:rgba(0,0,0,.87)}#chart-62c3e393-2ce3-4a0a-93b1-25b2a8a35aad .axis text.major{fill:rgba(0,0,0,1)}#chart-62c3e393-2ce3-4a0a-93b1-25b2a8a35aad .axis.y .guides:hover .guide.line,#chart-62c3e393-2ce3-4a0a-93b1-25b2a8a35aad .line-graph .axis.x .guides:hover .guide.line,#chart-62c3e393-2ce3-4a0a-93b1-25b2a8a35aad .stackedline-graph .axis.x .guides:hover .guide.line,#chart-62c3e393-2ce3-4a0a-93b1-25b2a8a35aad .xy-graph .axis.x .guides:hover .guide.line{stroke:rgba(0,0,0,1)}#chart-62c3e393-2ce3-4a0a-93b1-25b2a8a35aad .axis .guides:hover text{fill:rgba(0,0,0,1)}#chart-62c3e393-2ce3-4a0a-93b1-25b2a8a35aad .reactive{fill-opacity:.7;stroke-opacity:.8}#chart-62c3e393-2ce3-4a0a-93b1-25b2a8a35aad .ci{stroke:rgba(0,0,0,.87)}#chart-62c3e393-2ce3-4a0a-93b1-25b2a8a35aad .reactive.active,#chart-62c3e393-2ce3-4a0a-93b1-25b2a8a35aad .active .reactive{fill-opacity:.8;stroke-opacity:.9;stroke-width:4}#chart-62c3e393-2ce3-4a0a-93b1-25b2a8a35aad .ci .reactive.active{stroke-width:1.5}#chart-62c3e393-2ce3-4a0a-93b1-25b2a8a35aad .series text{fill:rgba(0,0,0,1)}#chart-62c3e393-2ce3-4a0a-93b1-25b2a8a35aad .tooltip rect{fill:rgba(255,255,255,1);stroke:rgba(0,0,0,1);-webkit-transition:opacity 150ms;-moz-transition:opacity 150ms;transition:opacity 150ms}#chart-62c3e393-2ce3-4a0a-93b1-25b2a8a35aad .tooltip .label{fill:rgba(0,0,0,.87)}#chart-62c3e393-2ce3-4a0a-93b1-25b2a8a35aad .tooltip .label{fill:rgba(0,0,0,.87)}#chart-62c3e393-2ce3-4a0a-93b1-25b2a8a35aad .tooltip .legend{font-size:.8em;fill:rgba(0,0,0,.54)}#chart-62c3e393-2ce3-4a0a-93b1-25b2a8a35aad .tooltip .x_label{font-size:.6em;fill:rgba(0,0,0,1)}#chart-62c3e393-2ce3-4a0a-93b1-25b2a8a35aad .tooltip .xlink{font-size:.5em;text-decoration:underline}#chart-62c3e393-2ce3-4a0a-93b1-25b2a8a35aad .tooltip .value{font-size:1.5em}#chart-62c3e393-2ce3-4a0a-93b1-25b2a8a35aad .bound{font-size:.5em}#chart-62c3e393-2ce3-4a0a-93b1-25b2a8a35aad .max-value{font-size:.75em;fill:rgba(0,0,0,.54)}#chart-62c3e393-2ce3-4a0a-93b1-25b2a8a35aad .map-element{fill:rgba(255,255,255,1);stroke:rgba(0,0,0,.54) !important}#chart-62c3e393-2ce3-4a0a-93b1-25b2a8a35aad .map-element .reactive{fill-opacity:inherit;stroke-opacity:inherit}#chart-62c3e393-2ce3-4a0a-93b1-25b2a8a35aad .color-0,#chart-62c3e393-2ce3-4a0a-93b1-25b2a8a35aad .color-0 a:visited{stroke:#e86fa0;fill:#e86fa0}#chart-62c3e393-2ce3-4a0a-93b1-25b2a8a35aad .text-overlay .color-0 text{fill:black}
#chart-62c3e393-2ce3-4a0a-93b1-25b2a8a35aad text.no_data{text-anchor:middle}#chart-62c3e393-2ce3-4a0a-93b1-25b2a8a35aad .guide.line{fill:none}#chart-62c3e393-2ce3-4a0a-93b1-25b2a8a35aad .centered{text-anchor:middle}#chart-62c3e393-2ce3-4a0a-93b1-25b2a8a35aad .title{text-anchor:middle}#chart-62c3e393-2ce3-4a0a-93b1-25b2a8a35aad .legends .legend text{fill-opacity:1}#chart-62c3e393-2ce3-4a0a-93b1-25b2a8a35aad .axis.x text{text-anchor:middle}#chart-62c3e393-2ce3-4a0a-93b1-25b2a8a35aad .axis.x:not(.web) text[transform]{text-anchor:start}#chart-62c3e393-2ce3-4a0a-93b1-25b2a8a35aad .axis.x:not(.web) text[transform].backwards{text-anchor:end}#chart-62c3e393-2ce3-4a0a-93b1-25b2a8a35aad .axis.y text{text-anchor:end}#chart-62c3e393-2ce3-4a0a-93b1-25b2a8a35aad .axis.y text[transform].backwards{text-anchor:start}#chart-62c3e393-2ce3-4a0a-93b1-25b2a8a35aad .axis.y2 text{text-anchor:start}#chart-62c3e393-2ce3-4a0a-93b1-25b2a8a35aad .axis.y2 text[transform].backwards{text-anchor:end}#chart-62c3e393-2ce3-4a0a-93b1-25b2a8a35aad .axis .guide.line{stroke-dasharray:4,4}#chart-62c3e393-2ce3-4a0a-93b1-25b2a8a35aad .axis .major.guide.line{stroke-dasharray:6,6}#chart-62c3e393-2ce3-4a0a-93b1-25b2a8a35aad .horizontal .axis.y .guide.line,#chart-62c3e393-2ce3-4a0a-93b1-25b2a8a35aad .horizontal .axis.y2 .guide.line,#chart-62c3e393-2ce3-4a0a-93b1-25b2a8a35aad .vertical .axis.x .guide.line{opacity:0}#chart-62c3e393-2ce3-4a0a-93b1-25b2a8a35aad .horizontal .axis.always_show .guide.line,#chart-62c3e393-2ce3-4a0a-93b1-25b2a8a35aad .vertical .axis.always_show .guide.line{opacity:1 !important}#chart-62c3e393-2ce3-4a0a-93b1-25b2a8a35aad .axis.y .guides:hover .guide.line,#chart-62c3e393-2ce3-4a0a-93b1-25b2a8a35aad .axis.y2 .guides:hover .guide.line,#chart-62c3e393-2ce3-4a0a-93b1-25b2a8a35aad .axis.x .guides:hover .guide.line{opacity:1}#chart-62c3e393-2ce3-4a0a-93b1-25b2a8a35aad .axis .guides:hover text{opacity:1}#chart-62c3e393-2ce3-4a0a-93b1-25b2a8a35aad .nofill{fill:none}#chart-62c3e393-2ce3-4a0a-93b1-25b2a8a35aad .subtle-fill{fill-opacity:.2}#chart-62c3e393-2ce3-4a0a-93b1-25b2a8a35aad .dot{stroke-width:1px;fill-opacity:1}#chart-62c3e393-2ce3-4a0a-93b1-25b2a8a35aad .dot.active{stroke-width:5px}#chart-62c3e393-2ce3-4a0a-93b1-25b2a8a35aad .dot.negative{fill:transparent}#chart-62c3e393-2ce3-4a0a-93b1-25b2a8a35aad text,#chart-62c3e393-2ce3-4a0a-93b1-25b2a8a35aad tspan{stroke:none !important}#chart-62c3e393-2ce3-4a0a-93b1-25b2a8a35aad .series text.active{opacity:1}#chart-62c3e393-2ce3-4a0a-93b1-25b2a8a35aad .tooltip rect{fill-opacity:.95;stroke-width:.5}#chart-62c3e393-2ce3-4a0a-93b1-25b2a8a35aad .tooltip text{fill-opacity:1}#chart-62c3e393-2ce3-4a0a-93b1-25b2a8a35aad .showable{visibility:hidden}#chart-62c3e393-2ce3-4a0a-93b1-25b2a8a35aad .showable.shown{visibility:visible}#chart-62c3e393-2ce3-4a0a-93b1-25b2a8a35aad .gauge-background{fill:rgba(229,229,229,1);stroke:none}#chart-62c3e393-2ce3-4a0a-93b1-25b2a8a35aad .bg-lines{stroke:rgba(249,249,249,1);stroke-width:2px}</style><script type="text/javascript">window.pygal = window.pygal || {};window.pygal.config = window.pygal.config || {};window.pygal.config['62c3e393-2ce3-4a0a-93b1-25b2a8a35aad'] = {"no_data_text": "No data", "no_prefix": false, "xrange": null, "print_values_position": "center", "truncate_label": null, "x_labels": ["2549", "2550", "2551", "2552", "2553", "2554", "2555", "2556", "2557", "2558"], "title": null, "force_uri_protocol": "https", "defs": [], "formatter": null, "classes": ["pygal-chart"], "y_labels": null, "rounded_bars": null, "explicit_size": false, "x_labels_major_every": null, "legend_at_bottom_columns": null, "stroke_style": null, "half_pie": false, "spacing": 10, "tooltip_fancy_mode": true, "inverse_y_axis": false, "width": 800, "inner_radius": 0, "interpolation_parameters": {}, "tooltip_border_radius": 0, "style": {"no_data_font_family": "Consolas, \"Liberation Mono\", Menlo, Courier, monospace", "tooltip_font_size": 14, "tooltip_font_family": "Consolas, \"Liberation Mono\", Menlo, Courier, monospace", "stroke_opacity_hover": ".9", "legend_font_family": "Consolas, \"Liberation Mono\", Menlo, Courier, monospace", "font_family": "Consolas, \"Liberation Mono\", Menlo, Courier, monospace", "title_font_family": "Consolas, \"Liberation Mono\", Menlo, Courier, monospace", "background": "rgba(249, 249, 249, 1)", "stroke_opacity": ".8", "foreground": "rgba(0, 0, 0, .87)", "value_background": "rgba(229, 229, 229, 1)", "guide_stroke_dasharray": "4,4", "foreground_subtle": "rgba(0, 0, 0, .54)", "opacity_hover": ".8", "value_font_family": "Consolas, \"Liberation Mono\", Menlo, Courier, monospace", "value_label_font_size": 10, "plot_background": "rgba(255, 255, 255, 1)", "ci_colors": [], "label_font_size": 10, "major_label_font_size": 10, "title_font_size": 16, "no_data_font_size": 64, "value_font_size": 16, "value_colors": [], "label_font_family": "Consolas, \"Liberation Mono\", Menlo, Courier, monospace", "major_guide_stroke_dasharray": "6,6", "transition": "150ms", "foreground_strong": "rgba(0, 0, 0, 1)", "colors": ["#e86fa0", "#e88f6f", "#e8df6f", "#a0e86f", "#6fe88f", "#6fe8df", "#6fa0e8", "#8f6fe8", "#df6fe8", "#e86fa0"], "opacity": ".7", "legend_font_size": 14, "value_label_font_family": "Consolas, \"Liberation Mono\", Menlo, Courier, monospace", "major_label_font_family": "Consolas, \"Liberation Mono\", Menlo, Courier, monospace"}, "x_labels_major_count": null, "interpolation_precision": 250, "missing_value_fill_truncation": "x", "stack_from_top": false, "truncate_legend": null, "show_minor_x_labels": true, "print_zeroes": true, "css": ["file://style.css", "file://graph.css"], "y_label_rotation": 0, "legend_at_bottom": false, "print_values": false, "margin_top": null, "max_scale": 16, "allow_interruptions": false, "show_x_labels": true, "strict": false, "show_x_guides": false, "stroke": true, "margin_left": null, "dynamic_print_values": false, "print_labels": false, "show_y_labels": true, "x_labels_major": null, "range": null, "x_label_rotation": 0, "margin": 20, "zero": 0, "include_x_axis": false, "height": 600, "show_minor_y_labels": true, "show_dots": true, "interpolate": "cubic", "show_y_guides": true, "y_labels_major": null, "box_mode": "extremes", "margin_bottom": null, "order_min": null, "legend_box_size": 12, "fill": true, "show_only_major_dots": false, "js": ["//kozea.github.io/pygal.js/2.0.x/pygal-tooltips.min.js"], "x_title": null, "y_labels_major_every": null, "y_labels_major_count": null, "disable_xml_declaration": false, "y_title": null, "logarithmic": false, "pretty_print": false, "min_scale": 4, "dots_size": 2.5, "margin_right": null, "legends": [null], "secondary_range": null, "show_legend": false}</script><script type="text/javascript" xlink:href="https://kozea.github.io/pygal.js/2.0.x/pygal-tooltips.min.js" /></defs><title>Pygal</title><g class="graph stackedline-graph vertical"><rect class="background" height="600" width="800" x="0" y="0" /><g class="plot" transform="translate(54, 20)"><rect class="background" height="540" width="726.0" x="0" y="0" /><g class="axis y"><path class="line" d="M0.000000 540.000000 h726.000000" /><g class="guides"><path class="guide line" d="M0.000000 498.440460 h726.000000" /><text class="" x="-5" y="501.94045973730044">360M</text><title>360M</title></g><g class="guides"><path class="guide line" d="M0.000000 459.048854 h726.000000" /><text class="" x="-5" y="462.54885350156684">380M</text><title>380M</title></g><g class="guides"><path class="major guide line" d="M0.000000 419.657247 h726.000000" /><text class="major" x="-5" y="423.15724726583323">400M</text><title>400M</title></g><g class="guides"><path class="guide line" d="M0.000000 380.265641 h726.000000" /><text class="" x="-5" y="383.7656410300996">420M</text><title>420M</title></g><g class="guides"><path class="guide line" d="M0.000000 340.874035 h726.000000" /><text class="" x="-5" y="344.3740347943659">440M</text><title>440M</title></g><g class="guides"><path class="guide line" d="M0.000000 301.482429 h726.000000" /><text class="" x="-5" y="304.9824285586323">460M</text><title>460M</title></g><g class="guides"><path class="guide line" d="M0.000000 262.090822 h726.000000" /><text class="" x="-5" y="265.59082232289865">480M</text><title>480M</title></g><g class="guides"><path class="major guide line" d="M0.000000 222.699216 h726.000000" /><text class="major" x="-5" y="226.19921608716504">500M</text><title>500M</title></g><g class="guides"><path class="guide line" d="M0.000000 183.307610 h726.000000" /><text class="" x="-5" y="186.80760985143138">520M</text><title>520M</title></g><g class="guides"><path class="guide line" d="M0.000000 143.916004 h726.000000" /><text class="" x="-5" y="147.41600361569778">540M</text><title>540M</title></g><g class="guides"><path class="guide line" d="M0.000000 104.524397 h726.000000" /><text class="" x="-5" y="108.02439737996411">560M</text><title>560M</title></g><g class="guides"><path class="guide line" d="M0.000000 65.132791 h726.000000" /><text class="" x="-5" y="68.63279114423051">580M</text><title>580M</title></g><g class="guides"><path class="major guide line" d="M0.000000 25.741185 h726.000000" /><text class="major" x="-5" y="29.24118490849696">600M</text><title>600M</title></g></g><g class="axis x"><g class="guides"><path class="line" d="M13.961538 0.000000 v540.000000" /><text class="" x="13.96153846153846" y="555.0">2549</text></g><g class="guides"><path class="guide line" d="M91.525641 0.000000 v540.000000" /><text class="" x="91.52564102564101" y="555.0">2550</text></g><g class="guides"><path class="guide line" d="M169.089744 0.000000 v540.000000" /><text class="" x="169.08974358974356" y="555.0">2551</text></g><g class="guides"><path class="guide line" d="M246.653846 0.000000 v540.000000" /><text class="" x="246.65384615384613" y="555.0">2552</text></g><g class="guides"><path class="guide line" d="M324.217949 0.000000 v540.000000" /><text class="" x="324.21794871794873" y="555.0">2553</text></g><g class="guides"><path class="guide line" d="M401.782051 0.000000 v540.000000" /><text class="" x="401.78205128205127" y="555.0">2554</text></g><g class="guides"><path class="guide line" d="M479.346154 0.000000 v540.000000" /><text class="" x="479.3461538461538" y="555.0">2555</text></g><g class="guides"><path class="guide line" d="M556.910256 0.000000 v540.000000" /><text class="" x="556.9102564102565" y="555.0">2556</text></g><g class="guides"><path class="guide line" d="M634.474359 0.000000 v540.000000" /><text class="" x="634.474358974359" y="555.0">2557</text></g><g class="guides"><path class="guide line" d="M712.038462 0.000000 v540.000000" /><text class="" x="712.0384615384615" y="555.0">2558</text></g></g><g class="series serie-0 color-0"><path class="line reactive" d="M13.961538 540.000000 L13.961538 529.615385 14.271795 529.317595 14.582051 529.019812 14.892308 528.722044 15.202564 528.424296 15.512821 528.126577 15.823077 527.828894 16.133333 527.531254 16.443590 527.233663 16.753846 526.936128 17.064103 526.638658 17.374359 526.341259 17.684615 526.043938 17.994872 525.746702 18.305128 525.449559 18.615385 525.152515 18.925641 524.855577 19.235897 524.558754 19.546154 524.262051 19.856410 523.965475 20.166667 523.669035 20.476923 523.372737 20.787179 523.076588 21.097436 522.780595 21.407692 522.484766 21.717949 522.189107 22.028205 521.893626 22.338462 521.598329 22.648718 521.303224 22.958974 521.008318 23.269231 520.713618 23.579487 520.419132 23.889744 520.124865 24.200000 519.830826 24.510256 519.537021 24.820513 519.243457 25.130769 518.950143 25.441026 518.657083 25.751282 518.364287 26.061538 518.071761 26.371795 517.779512 26.682051 517.487546 26.992308 517.195872 27.302564 516.904497 27.612821 516.613427 27.923077 516.322669 28.233333 516.032231 28.543590 515.742120 28.853846 515.452342 29.164103 515.162906 29.474359 514.873817 29.784615 514.585084 30.094872 514.296713 30.405128 514.008712 30.715385 513.721087 31.025641 513.433845 31.335897 513.146994 31.646154 512.860541 31.956410 512.574493 32.266667 512.288857 32.576923 512.003640 32.887179 511.718849 33.197436 511.434491 33.507692 511.150574 33.817949 510.867104 34.128205 510.584089 34.438462 510.301535 34.748718 510.019451 35.058974 509.737842 35.369231 509.456717 35.679487 509.176081 35.989744 508.895943 36.300000 508.616309 36.610256 508.337186 36.920513 508.058582 37.230769 507.780504 37.541026 507.502958 37.851282 507.225952 38.161538 506.949493 38.471795 506.673589 38.782051 506.398245 39.092308 506.123470 39.402564 505.849270 39.712821 505.575652 40.023077 505.302624 40.333333 505.030193 40.643590 504.758365 40.953846 504.487149 41.264103 504.216550 41.574359 503.946576 41.884615 503.677235 42.194872 503.408533 42.505128 503.140477 42.815385 502.873075 43.125641 502.606333 43.435897 502.340259 43.746154 502.074860 44.056410 501.810143 44.366667 501.546115 44.676923 501.282783 44.987179 501.020154 45.297436 500.758235 45.607692 500.497034 45.917949 500.236558 46.228205 499.976813 46.538462 499.717807 46.848718 499.459546 47.158974 499.202039 47.469231 498.945291 47.779487 498.689311 48.089744 498.434105 48.400000 498.179681 48.710256 497.926044 49.020513 497.673204 49.330769 497.421166 49.641026 497.169938 49.951282 496.919526 50.261538 496.669939 50.571795 496.421183 50.882051 496.173265 51.192308 495.926192 51.502564 495.679972 51.812821 495.434611 52.123077 495.190116 52.433333 494.946496 52.743590 494.703756 53.053846 494.461904 53.364103 494.220947 53.674359 493.980892 53.984615 493.741747 54.294872 493.503517 54.605128 493.266212 54.915385 493.029836 55.225641 492.794399 55.535897 492.559906 55.846154 492.326364 56.156410 492.093782 56.466667 491.862166 56.776923 491.631523 57.087179 491.401860 57.397436 491.173185 57.707692 490.945504 58.017949 490.718825 58.328205 490.493154 58.638462 490.268499 58.948718 490.044867 59.258974 489.822264 59.569231 489.600699 59.879487 489.380178 60.189744 489.160709 60.500000 488.942298 60.810256 488.724952 61.120513 488.508679 61.430769 488.293485 61.741026 488.079378 62.051282 487.866366 62.361538 487.654454 62.671795 487.443650 62.982051 487.233962 63.292308 487.025395 63.602564 486.817959 63.912821 486.611658 64.223077 486.406502 64.533333 486.202496 64.843590 485.999648 65.153846 485.797965 65.464103 485.597454 65.774359 485.398122 66.084615 485.199976 66.394872 485.003023 66.705128 484.807272 67.015385 484.612727 67.325641 484.419397 67.635897 484.227289 67.946154 484.036410 68.256410 483.846767 68.566667 483.658367 68.876923 483.471217 69.187179 483.285324 69.497436 483.100696 69.807692 482.917339 70.117949 482.735261 70.428205 482.554468 70.738462 482.374969 71.048718 482.196769 71.358974 482.019876 71.669231 481.844297 71.979487 481.670039 72.289744 481.497110 72.600000 481.325516 72.910256 481.155265 73.220513 480.986363 73.530769 480.818818 73.841026 480.652637 74.151282 480.487827 74.461538 480.324394 74.771795 480.162347 75.082051 480.001692 75.392308 479.842437 75.702564 479.684588 76.012821 479.528152 76.323077 479.373137 76.633333 479.219550 76.943590 479.067398 77.253846 478.916687 77.564103 478.767426 77.874359 478.619621 78.184615 478.473279 78.494872 478.328407 78.805128 478.185013 79.115385 478.043104 79.425641 477.902686 79.735897 477.763767 80.046154 477.626354 80.356410 477.490454 80.666667 477.356074 80.976923 477.223221 81.287179 477.091902 81.597436 476.962125 81.907692 476.833896 82.217949 476.707223 82.528205 476.582113 82.838462 476.458572 83.148718 476.336609 83.458974 476.216229 83.769231 476.097441 84.079487 475.980251 84.389744 475.864666 84.700000 475.750693 85.010256 475.638340 85.320513 475.527614 85.630769 475.418521 85.941026 475.311070 86.251282 475.205266 86.561538 475.101117 86.871795 474.998631 87.182051 474.897813 87.492308 474.798672 87.802564 474.701215 88.112821 474.605448 88.423077 474.511379 88.733333 474.419014 89.043590 474.328362 89.353846 474.239428 89.664103 474.152221 89.974359 474.066746 90.284615 473.983012 90.594872 473.901026 90.905128 473.820793 91.215385 473.742323 91.525641 473.665621 91.835897 473.590691 92.146154 473.517520 92.456410 473.446092 92.766667 473.376389 93.076923 473.308395 93.387179 473.242093 93.697436 473.177466 94.007692 473.114499 94.317949 473.053173 94.628205 472.993473 94.938462 472.935381 95.248718 472.878881 95.558974 472.823956 95.869231 472.770590 96.179487 472.718765 96.489744 472.668465 96.800000 472.619673 97.110256 472.572373 97.420513 472.526548 97.730769 472.482180 98.041026 472.439254 98.351282 472.397753 98.661538 472.357659 98.971795 472.318956 99.282051 472.281628 99.592308 472.245658 99.902564 472.211028 100.212821 472.177723 100.523077 472.145726 100.833333 472.115019 101.143590 472.085586 101.453846 472.057410 101.764103 472.030475 102.074359 472.004764 102.384615 471.980260 102.694872 471.956947 103.005128 471.934807 103.315385 471.913824 103.625641 471.893982 103.935897 471.875263 104.246154 471.857651 104.556410 471.841129 104.866667 471.825680 105.176923 471.811288 105.487179 471.797936 105.797436 471.785607 106.107692 471.774284 106.417949 471.763951 106.728205 471.754592 107.038462 471.746188 107.348718 471.738724 107.658974 471.732183 107.969231 471.726548 108.279487 471.721802 108.589744 471.717930 108.900000 471.714913 109.210256 471.712735 109.520513 471.711379 109.830769 471.710830 110.141026 471.711069 110.451282 471.712081 110.761538 471.713849 111.071795 471.716355 111.382051 471.719583 111.692308 471.723517 112.002564 471.728140 112.312821 471.733434 112.623077 471.739384 112.933333 471.745972 113.243590 471.753182 113.553846 471.760997 113.864103 471.769400 114.174359 471.778375 114.484615 471.787905 114.794872 471.797973 115.105128 471.808563 115.415385 471.819657 115.725641 471.831239 116.035897 471.843292 116.346154 471.855800 116.656410 471.868746 116.966667 471.882113 117.276923 471.895884 117.587179 471.910043 117.897436 471.924573 118.207692 471.939457 118.517949 471.954678 118.828205 471.970221 119.138462 471.986067 119.448718 472.002200 119.758974 472.018604 120.069231 472.035262 120.379487 472.052157 120.689744 472.069273 121.000000 472.086592 121.310256 472.104098 121.620513 472.121774 121.930769 472.139604 122.241026 472.157570 122.551282 472.175657 122.861538 472.193846 123.171795 472.212123 123.482051 472.230469 123.792308 472.248868 124.102564 472.267304 124.412821 472.285760 124.723077 472.304218 125.033333 472.322663 125.343590 472.341077 125.653846 472.359444 125.964103 472.377747 126.274359 472.395970 126.584615 472.414095 126.894872 472.432106 127.205128 472.449986 127.515385 472.467718 127.825641 472.485287 128.135897 472.502674 128.446154 472.519863 128.756410 472.536838 129.066667 472.553582 129.376923 472.570078 129.687179 472.586309 129.997436 472.602259 130.307692 472.617911 130.617949 472.633248 130.928205 472.648254 131.238462 472.662911 131.548718 472.677203 131.858974 472.691114 132.169231 472.704626 132.479487 472.717723 132.789744 472.730388 133.100000 472.742605 133.410256 472.754356 133.720513 472.765625 134.030769 472.776395 134.341026 472.786650 134.651282 472.796373 134.961538 472.805546 135.271795 472.814154 135.582051 472.822180 135.892308 472.829606 136.202564 472.836416 136.512821 472.842594 136.823077 472.848123 137.133333 472.852986 137.443590 472.857165 137.753846 472.860646 138.064103 472.863410 138.374359 472.865441 138.684615 472.866723 138.994872 472.867238 139.305128 472.866970 139.615385 472.865902 139.925641 472.864018 140.235897 472.861300 140.546154 472.857733 140.856410 472.853298 141.166667 472.847981 141.476923 472.841763 141.787179 472.834628 142.097436 472.826559 142.407692 472.817540 142.717949 472.807554 143.028205 472.796585 143.338462 472.784614 143.648718 472.771627 143.958974 472.757605 144.269231 472.742533 144.579487 472.726393 144.889744 472.709170 145.200000 472.690845 145.510256 472.671403 145.820513 472.650826 146.130769 472.629098 146.441026 472.606203 146.751282 472.582123 147.061538 472.556842 147.371795 472.530342 147.682051 472.502609 147.992308 472.473623 148.302564 472.443370 148.612821 472.411832 148.923077 472.378992 149.233333 472.344834 149.543590 472.309341 149.853846 472.272496 150.164103 472.234282 150.474359 472.194684 150.784615 472.153683 151.094872 472.111264 151.405128 472.067409 151.715385 472.022103 152.025641 471.975327 152.335897 471.927066 152.646154 471.877303 152.956410 471.826020 153.266667 471.773202 153.576923 471.718832 153.887179 471.662892 154.197436 471.605367 154.507692 471.546238 154.817949 471.485491 155.128205 471.423107 155.438462 471.359071 155.748718 471.293365 156.058974 471.225972 156.369231 471.156877 156.679487 471.086062 156.989744 471.013511 157.300000 470.939206 157.610256 470.863132 157.920513 470.785271 158.230769 470.705607 158.541026 470.624122 158.851282 470.540801 159.161538 470.455626 159.471795 470.368581 159.782051 470.279650 160.092308 470.188814 160.402564 470.096058 160.712821 470.001365 161.023077 469.904718 161.333333 469.806101 161.643590 469.705496 161.953846 469.602887 162.264103 469.498258 162.574359 469.391591 162.884615 469.282869 163.194872 469.172077 163.505128 469.059197 163.815385 468.944213 164.125641 468.827108 164.435897 468.707865 164.746154 468.586467 165.056410 468.462898 165.366667 468.337141 165.676923 468.209179 165.987179 468.078996 166.297436 467.946575 166.607692 467.811899 166.917949 467.674951 167.228205 467.535715 167.538462 467.394173 167.848718 467.250310 168.158974 467.104109 168.469231 466.955552 168.779487 466.804623 169.089744 466.651305 169.400000 466.495587 169.710256 466.337475 170.020513 466.176979 170.330769 466.014113 170.641026 465.848885 170.951282 465.681309 171.261538 465.511395 171.571795 465.339155 171.882051 465.164599 172.192308 464.987740 172.502564 464.808588 172.812821 464.627154 173.123077 464.443451 173.433333 464.257488 173.743590 464.069279 174.053846 463.878833 174.364103 463.686162 174.674359 463.491277 174.984615 463.294190 175.294872 463.094912 175.605128 462.893454 175.915385 462.689828 176.225641 462.484044 176.535897 462.276115 176.846154 462.066051 177.156410 461.853863 177.466667 461.639563 177.776923 461.423163 178.087179 461.204672 178.397436 460.984104 178.707692 460.761468 179.017949 460.536777 179.328205 460.310041 179.638462 460.081273 179.948718 459.850482 180.258974 459.617681 180.569231 459.382880 180.879487 459.146091 181.189744 458.907326 181.500000 458.666595 181.810256 458.423910 182.120513 458.179282 182.430769 457.932722 182.741026 457.684242 183.051282 457.433853 183.361538 457.181567 183.671795 456.927393 183.982051 456.671345 184.292308 456.413432 184.602564 456.153667 184.912821 455.892060 185.223077 455.628624 185.533333 455.363368 185.843590 455.096305 186.153846 454.827446 186.464103 454.556802 186.774359 454.284384 187.084615 454.010203 187.394872 453.734272 187.705128 453.456600 188.015385 453.177200 188.325641 452.896083 188.635897 452.613260 188.946154 452.328741 189.256410 452.042540 189.566667 451.754666 189.876923 451.465132 190.187179 451.173948 190.497436 450.881125 190.807692 450.586675 191.117949 450.290610 191.428205 449.992940 191.738462 449.693677 192.048718 449.392832 192.358974 449.090417 192.669231 448.786442 192.979487 448.480919 193.289744 448.173859 193.600000 447.865273 193.910256 447.555174 194.220513 447.243571 194.530769 446.930477 194.841026 446.615902 195.151282 446.299858 195.461538 445.982357 195.771795 445.663408 196.082051 445.343025 196.392308 445.021218 196.702564 444.697997 197.012821 444.373376 197.323077 444.047364 197.633333 443.719973 197.943590 443.391215 198.253846 443.061100 198.564103 442.729641 198.874359 442.396847 199.184615 442.062732 199.494872 441.727305 199.805128 441.390578 200.115385 441.052562 200.425641 440.713269 200.735897 440.372710 201.046154 440.030897 201.356410 439.687839 201.666667 439.343550 201.976923 438.998039 202.287179 438.651319 202.597436 438.303401 202.907692 437.954295 203.217949 437.604014 203.528205 437.252568 203.838462 436.899969 204.148718 436.546228 204.458974 436.191356 204.769231 435.835365 205.079487 435.478265 205.389744 435.120069 205.700000 434.760787 206.010256 434.400431 206.320513 434.039012 206.630769 433.676541 206.941026 433.313030 207.251282 432.948489 207.561538 432.582931 207.871795 432.216366 208.182051 431.848806 208.492308 431.480261 208.802564 431.110744 209.112821 430.740265 209.423077 430.368837 209.733333 429.996469 210.043590 429.623173 210.353846 429.248962 210.664103 428.873845 210.974359 428.497834 211.284615 428.120941 211.594872 427.743177 211.905128 427.364552 212.215385 426.985079 212.525641 426.604769 212.835897 426.223632 213.146154 425.841681 213.456410 425.458926 213.766667 425.075379 214.076923 424.691051 214.387179 424.305953 214.697436 423.920097 215.007692 423.533493 215.317949 423.146154 215.628205 422.758090 215.938462 422.369313 216.248718 421.979833 216.558974 421.589663 216.869231 421.198814 217.179487 420.807296 217.489744 420.415122 217.800000 420.022301 218.110256 419.628847 218.420513 419.234769 218.730769 418.840080 219.041026 418.444790 219.351282 418.048911 219.661538 417.652454 219.971795 417.255430 220.282051 416.857851 220.592308 416.459728 220.902564 416.061072 221.212821 415.661895 221.523077 415.262207 221.833333 414.862020 222.143590 414.461346 222.453846 414.060195 222.764103 413.658579 223.074359 413.256509 223.384615 412.853997 223.694872 412.451053 224.005128 412.047689 224.315385 411.643917 224.625641 411.239747 224.935897 410.835191 225.246154 410.430260 225.556410 410.024966 225.866667 409.619319 226.176923 409.213331 226.487179 408.807013 226.797436 408.400377 227.107692 407.993434 227.417949 407.586195 227.728205 407.178671 228.038462 406.770874 228.348718 406.362814 228.658974 405.954504 228.969231 405.545955 229.279487 405.137177 229.589744 404.728182 229.900000 404.318981 230.210256 403.909587 230.520513 403.500009 230.830769 403.090259 231.141026 402.680349 231.451282 402.270289 231.761538 401.860091 232.071795 401.449767 232.382051 401.039327 232.692308 400.628783 233.002564 400.218147 233.312821 399.807428 233.623077 399.396640 233.933333 398.985792 234.243590 398.574897 234.553846 398.163965 234.864103 397.753008 235.174359 397.342037 235.484615 396.931063 235.794872 396.520098 236.105128 396.109153 236.415385 395.698240 236.725641 395.287369 237.035897 394.876551 237.346154 394.465799 237.656410 394.055123 237.966667 393.644534 238.276923 393.234045 238.587179 392.823666 238.897436 392.413408 239.207692 392.003283 239.517949 391.593302 239.828205 391.183476 240.138462 390.773817 240.448718 390.364336 240.758974 389.955043 241.069231 389.545952 241.379487 389.137072 241.689744 388.728415 242.000000 388.319992 242.310256 387.911815 242.620513 387.503895 242.930769 387.096243 243.241026 386.688870 243.551282 386.281788 243.861538 385.875008 244.171795 385.468541 244.482051 385.062399 244.792308 384.656592 245.102564 384.251133 245.412821 383.846032 245.723077 383.441300 246.033333 383.036950 246.343590 382.632991 246.653846 382.229437 246.964103 381.826296 247.274359 381.423576 247.584615 381.021283 247.894872 380.619423 248.205128 380.218003 248.515385 379.817028 248.825641 379.416504 249.135897 379.016438 249.446154 378.616836 249.756410 378.217704 250.066667 377.819048 250.376923 377.420874 250.687179 377.023189 250.997436 376.625998 251.307692 376.229307 251.617949 375.833123 251.928205 375.437453 252.238462 375.042301 252.548718 374.647674 252.858974 374.253578 253.169231 373.860020 253.479487 373.467005 253.789744 373.074540 254.100000 372.682631 254.410256 372.291284 254.720513 371.900504 255.030769 371.510299 255.341026 371.120674 255.651282 370.731635 255.961538 370.343189 256.271795 369.955342 256.582051 369.568099 256.892308 369.181467 257.202564 368.795453 257.512821 368.410061 257.823077 368.025299 258.133333 367.641173 258.443590 367.257687 258.753846 366.874850 259.064103 366.492666 259.374359 366.111143 259.684615 365.730285 259.994872 365.350100 260.305128 364.970593 260.615385 364.591770 260.925641 364.213639 261.235897 363.836203 261.546154 363.459471 261.856410 363.083448 262.166667 362.708140 262.476923 362.333553 262.787179 361.959693 263.097436 361.586567 263.407692 361.214181 263.717949 360.842541 264.028205 360.471652 264.338462 360.101521 264.648718 359.732155 264.958974 359.363559 265.269231 358.995739 265.579487 358.628702 265.889744 358.262454 266.200000 357.897000 266.510256 357.532347 266.820513 357.168502 267.130769 356.805469 267.441026 356.443256 267.751282 356.081868 268.061538 355.721312 268.371795 355.361594 268.682051 355.002720 268.992308 354.644695 269.302564 354.287527 269.612821 353.931221 269.923077 353.575783 270.233333 353.221220 270.543590 352.867537 270.853846 352.514741 271.164103 352.162838 271.474359 351.811835 271.784615 351.461736 272.094872 351.112548 272.405128 350.764278 272.715385 350.416932 273.025641 350.070515 273.335897 349.725034 273.646154 349.380495 273.956410 349.036904 274.266667 348.694267 274.576923 348.352590 274.887179 348.011880 275.197436 347.672142 275.507692 347.333384 275.817949 346.995610 276.128205 346.658827 276.438462 346.323041 276.748718 345.988258 277.058974 345.654485 277.369231 345.321727 277.679487 344.989991 277.989744 344.659282 278.300000 344.329608 278.610256 344.000973 278.920513 343.673385 279.230769 343.346848 279.541026 343.021371 279.851282 342.696957 280.161538 342.373615 280.471795 342.051349 280.782051 341.730166 281.092308 341.410072 281.402564 341.091073 281.712821 340.773176 282.023077 340.456386 282.333333 340.140710 282.643590 339.826153 282.953846 339.512722 283.264103 339.200423 283.574359 338.889262 283.884615 338.579246 284.194872 338.270379 284.505128 337.962669 284.815385 337.656122 285.125641 337.350744 285.435897 337.046540 285.746154 336.743518 286.056410 336.441682 286.366667 336.141040 286.676923 335.841597 286.987179 335.543360 287.297436 335.246334 287.607692 334.950526 287.917949 334.655942 288.228205 334.362588 288.538462 334.070470 288.848718 333.779594 289.158974 333.489967 289.469231 333.201594 289.779487 332.914483 290.089744 332.628637 290.400000 332.344065 290.710256 332.060772 291.020513 331.778764 291.330769 331.498048 291.641026 331.218628 291.951282 330.940513 292.261538 330.663707 292.571795 330.388217 292.882051 330.114049 293.192308 329.841209 293.502564 329.569703 293.812821 329.299538 294.123077 329.030719 294.433333 328.763253 294.743590 328.497145 295.053846 328.232403 295.364103 327.969031 295.674359 327.707037 295.984615 327.446426 296.294872 327.187204 296.605128 326.929378 296.915385 326.672953 297.225641 326.417937 297.535897 326.164334 297.846154 325.912151 298.156410 325.661394 298.466667 325.412070 298.776923 325.164184 299.087179 324.917743 299.397436 324.672752 299.707692 324.429219 300.017949 324.187148 300.328205 323.946546 300.638462 323.707420 300.948718 323.469775 301.258974 323.233617 301.569231 322.998953 301.879487 322.765789 302.189744 322.534130 302.500000 322.303984 302.810256 322.075355 303.120513 321.848251 303.430769 321.622678 303.741026 321.398641 304.051282 321.176146 304.361538 320.955200 304.671795 320.735809 304.982051 320.517980 305.292308 320.301717 305.602564 320.087028 305.912821 319.873918 306.223077 319.662394 306.533333 319.452461 306.843590 319.244126 307.153846 319.037395 307.464103 318.832274 307.774359 318.628770 308.084615 318.426887 308.394872 318.226634 308.705128 318.028014 309.015385 317.831036 309.325641 317.635704 309.635897 317.442026 309.946154 317.250006 310.256410 317.059652 310.566667 316.870969 310.876923 316.683963 311.187179 316.498641 311.497436 316.315009 311.807692 316.133073 312.117949 315.952839 312.428205 315.774313 312.738462 315.597501 313.048718 315.422410 313.358974 315.249045 313.669231 315.077413 313.979487 314.907520 314.289744 314.739372 314.600000 314.572974 314.910256 314.408334 315.220513 314.245457 315.530769 314.084350 315.841026 313.925018 316.151282 313.767468 316.461538 313.611706 316.771795 313.457738 317.082051 313.305569 317.392308 313.155207 317.702564 313.006658 318.012821 312.859927 318.323077 312.715020 318.633333 312.571945 318.943590 312.430706 319.253846 312.291310 319.564103 312.153763 319.874359 312.018072 320.184615 311.884242 320.494872 311.752279 320.805128 311.622190 321.115385 311.493981 321.425641 311.367658 321.735897 311.243227 322.046154 311.120694 322.356410 311.000065 322.666667 310.881347 322.976923 310.764545 323.287179 310.649666 323.597436 310.536716 323.907692 310.425701 324.217949 310.316627 324.528205 310.209495 324.838462 310.104291 325.148718 310.000993 325.458974 309.899581 325.769231 309.800034 326.079487 309.702333 326.389744 309.606457 326.700000 309.512386 327.010256 309.420099 327.320513 309.329575 327.630769 309.240795 327.941026 309.153739 328.251282 309.068384 328.561538 308.984713 328.871795 308.902703 329.182051 308.822334 329.492308 308.743587 329.802564 308.666441 330.112821 308.590875 330.423077 308.516869 330.733333 308.444403 331.043590 308.373456 331.353846 308.304008 331.664103 308.236038 331.974359 308.169527 332.284615 308.104454 332.594872 308.040798 332.905128 307.978539 333.215385 307.917657 333.525641 307.858131 333.835897 307.799940 334.146154 307.743066 334.456410 307.687487 334.766667 307.633182 335.076923 307.580132 335.387179 307.528316 335.697436 307.477713 336.007692 307.428304 336.317949 307.380068 336.628205 307.332984 336.938462 307.287032 337.248718 307.242192 337.558974 307.198444 337.869231 307.155767 338.179487 307.114140 338.489744 307.073543 338.800000 307.033957 339.110256 306.995360 339.420513 306.957732 339.730769 306.921052 340.041026 306.885302 340.351282 306.850459 340.661538 306.816504 340.971795 306.783416 341.282051 306.751175 341.592308 306.719760 341.902564 306.689152 342.212821 306.659329 342.523077 306.630272 342.833333 306.601960 343.143590 306.574372 343.453846 306.547489 343.764103 306.521289 344.074359 306.495753 344.384615 306.470860 344.694872 306.446590 345.005128 306.422923 345.315385 306.399837 345.625641 306.377313 345.935897 306.355330 346.246154 306.333867 346.556410 306.312906 346.866667 306.292424 347.176923 306.272403 347.487179 306.252820 347.797436 306.233657 348.107692 306.214892 348.417949 306.196505 348.728205 306.178477 349.038462 306.160785 349.348718 306.143411 349.658974 306.126334 349.969231 306.109532 350.279487 306.092987 350.589744 306.076678 350.900000 306.060583 351.210256 306.044684 351.520513 306.028959 351.830769 306.013388 352.141026 305.997950 352.451282 305.982626 352.761538 305.967395 353.071795 305.952237 353.382051 305.937131 353.692308 305.922056 354.002564 305.906993 354.312821 305.891921 354.623077 305.876820 354.933333 305.861669 355.243590 305.846448 355.553846 305.831137 355.864103 305.815715 356.174359 305.800162 356.484615 305.784457 356.794872 305.768580 357.105128 305.752511 357.415385 305.736229 357.725641 305.719714 358.035897 305.702945 358.346154 305.685903 358.656410 305.668567 358.966667 305.650916 359.276923 305.632930 359.587179 305.614588 359.897436 305.595872 360.207692 305.576758 360.517949 305.557229 360.828205 305.537263 361.138462 305.516839 361.448718 305.495938 361.758974 305.474539 362.069231 305.452621 362.379487 305.430165 362.689744 305.407150 363.000000 305.383555 363.310256 305.359361 363.620513 305.334546 363.930769 305.309090 364.241026 305.282974 364.551282 305.256176 364.861538 305.228677 365.171795 305.200455 365.482051 305.171491 365.792308 305.141764 366.102564 305.111254 366.412821 305.079940 366.723077 305.047803 367.033333 305.014821 367.343590 304.980974 367.653846 304.946242 367.964103 304.910604 368.274359 304.874041 368.584615 304.836532 368.894872 304.798055 369.205128 304.758592 369.515385 304.718122 369.825641 304.676623 370.135897 304.634077 370.446154 304.590462 370.756410 304.545758 371.066667 304.499945 371.376923 304.453003 371.687179 304.404910 371.997436 304.355647 372.307692 304.305193 372.617949 304.253528 372.928205 304.200631 373.238462 304.146483 373.548718 304.091062 373.858974 304.034349 374.169231 303.976323 374.479487 303.916963 374.789744 303.856249 375.100000 303.794162 375.410256 303.730679 375.720513 303.665782 376.030769 303.599450 376.341026 303.531662 376.651282 303.462398 376.961538 303.391637 377.271795 303.319360 377.582051 303.245546 377.892308 303.170174 378.202564 303.093224 378.512821 303.014676 378.823077 302.934509 379.133333 302.852703 379.443590 302.769238 379.753846 302.684093 380.064103 302.597247 380.374359 302.508682 380.684615 302.418375 380.994872 302.326307 381.305128 302.232457 381.615385 302.136805 381.925641 302.039331 382.235897 301.940014 382.546154 301.838834 382.856410 301.735770 383.166667 301.630802 383.476923 301.523910 383.787179 301.415073 384.097436 301.304272 384.407692 301.191484 384.717949 301.076691 385.028205 300.959872 385.338462 300.841006 385.648718 300.720074 385.958974 300.597053 386.269231 300.471926 386.579487 300.344670 386.889744 300.215265 387.200000 300.083692 387.510256 299.949930 387.820513 299.813958 388.130769 299.675756 388.441026 299.535304 388.751282 299.392581 389.061538 299.247567 389.371795 299.100241 389.682051 298.950584 389.992308 298.798574 390.302564 298.644192 390.612821 298.487417 390.923077 298.328228 391.233333 298.166606 391.543590 298.002529 391.853846 297.835979 392.164103 297.666933 392.474359 297.495372 392.784615 297.321275 393.094872 297.144623 393.405128 296.965394 393.715385 296.783568 394.025641 296.599126 394.335897 296.412045 394.646154 296.222307 394.956410 296.029891 395.266667 295.834776 395.576923 295.636942 395.887179 295.436369 396.197436 295.233036 396.507692 295.026923 396.817949 294.818009 397.128205 294.606274 397.438462 294.391698 397.748718 294.174261 398.058974 293.953941 398.369231 293.730720 398.679487 293.504575 398.989744 293.275487 399.300000 293.043436 399.610256 292.808401 399.920513 292.570361 400.230769 292.329297 400.541026 292.085188 400.851282 291.838014 401.161538 291.587753 401.471795 291.334387 401.782051 291.077894 402.092308 290.818261 402.402564 290.555505 402.712821 290.289647 403.023077 290.020712 403.333333 289.748721 403.643590 289.473698 403.953846 289.195666 404.264103 288.914648 404.574359 288.630666 404.884615 288.343744 405.194872 288.053905 405.505128 287.761171 405.815385 287.465565 406.125641 287.167111 406.435897 286.865832 406.746154 286.561750 407.056410 286.254888 407.366667 285.945269 407.676923 285.632917 407.987179 285.317853 408.297436 285.000102 408.607692 284.679686 408.917949 284.356628 409.228205 284.030950 409.538462 283.702677 409.848718 283.371830 410.158974 283.038434 410.469231 282.702510 410.779487 282.364081 411.089744 282.023172 411.400000 281.679803 411.710256 281.334000 412.020513 280.985784 412.330769 280.635178 412.641026 280.282206 412.951282 279.926890 413.261538 279.569253 413.571795 279.209319 413.882051 278.847110 414.192308 278.482649 414.502564 278.115959 414.812821 277.747063 415.123077 277.375984 415.433333 277.002745 415.743590 276.627368 416.053846 276.249878 416.364103 275.870296 416.674359 275.488647 416.984615 275.104951 417.294872 274.719234 417.605128 274.331517 417.915385 273.941823 418.225641 273.550177 418.535897 273.156599 418.846154 272.761114 419.156410 272.363744 419.466667 271.964512 419.776923 271.563442 420.087179 271.160556 420.397436 270.755877 420.707692 270.349428 421.017949 269.941232 421.328205 269.531312 421.638462 269.119691 421.948718 268.706392 422.258974 268.291438 422.569231 267.874851 422.879487 267.456655 423.189744 267.036873 423.500000 266.615528 423.810256 266.192642 424.120513 265.768238 424.430769 265.342340 424.741026 264.914971 425.051282 264.486153 425.361538 264.055909 425.671795 263.624262 425.982051 263.191236 426.292308 262.756853 426.602564 262.321136 426.912821 261.884108 427.223077 261.445792 427.533333 261.006210 427.843590 260.565387 428.153846 260.123345 428.464103 259.680107 428.774359 259.235695 429.084615 258.790133 429.394872 258.343444 429.705128 257.895650 430.015385 257.446775 430.325641 256.996841 430.635897 256.545872 430.946154 256.093891 431.256410 255.640919 431.566667 255.186981 431.876923 254.732099 432.187179 254.276297 432.497436 253.819596 432.807692 253.362021 433.117949 252.903594 433.428205 252.444338 433.738462 251.984275 434.048718 251.523430 434.358974 251.061824 434.669231 250.599482 434.979487 250.136425 435.289744 249.672677 435.600000 249.208260 435.910256 248.743198 436.220513 248.277514 436.530769 247.811230 436.841026 247.344369 437.151282 246.876955 437.461538 246.409010 437.771795 245.940558 438.082051 245.471621 438.392308 245.002222 438.702564 244.532384 439.012821 244.062131 439.323077 243.591484 439.633333 243.120467 439.943590 242.649104 440.253846 242.177416 440.564103 241.705427 440.874359 241.233160 441.184615 240.760637 441.494872 240.287883 441.805128 239.814919 442.115385 239.341768 442.425641 238.868454 442.735897 238.395000 443.046154 237.921428 443.356410 237.447762 443.666667 236.974023 443.976923 236.500237 444.287179 236.026424 444.597436 235.552608 444.907692 235.078813 445.217949 234.605061 445.528205 234.131375 445.838462 233.657778 446.148718 233.184292 446.458974 232.710942 446.769231 232.237750 447.079487 231.764738 447.389744 231.291930 447.700000 230.819349 448.010256 230.347017 448.320513 229.874958 448.630769 229.403195 448.941026 228.931750 449.251282 228.460646 449.561538 227.989907 449.871795 227.519555 450.182051 227.049614 450.492308 226.580105 450.802564 226.111053 451.112821 225.642480 451.423077 225.174409 451.733333 224.706863 452.043590 224.239866 452.353846 223.773439 452.664103 223.307606 452.974359 222.842389 453.284615 222.377813 453.594872 221.913899 453.905128 221.450671 454.215385 220.988152 454.525641 220.526364 454.835897 220.065331 455.146154 219.605075 455.456410 219.145620 455.766667 218.686988 456.076923 218.229202 456.387179 217.772286 456.697436 217.316262 457.007692 216.861153 457.317949 216.406982 457.628205 215.953772 457.938462 215.501547 458.248718 215.050328 458.558974 214.600139 458.869231 214.151003 459.179487 213.702943 459.489744 213.255982 459.800000 212.810143 460.110256 212.365448 460.420513 211.921920 460.730769 211.479584 461.041026 211.038461 461.351282 210.598574 461.661538 210.159947 461.971795 209.722602 462.282051 209.286562 462.592308 208.851851 462.902564 208.418491 463.212821 207.986505 463.523077 207.555916 463.833333 207.126748 464.143590 206.699022 464.453846 206.272762 464.764103 205.847991 465.074359 205.424732 465.384615 205.003008 465.694872 204.582842 466.005128 204.164256 466.315385 203.747275 466.625641 203.331919 466.935897 202.918214 467.246154 202.506180 467.556410 202.095843 467.866667 201.687223 468.176923 201.280345 468.487179 200.875232 468.797436 200.471905 469.107692 200.070389 469.417949 199.670706 469.728205 199.272879 470.038462 198.876931 470.348718 198.482886 470.658974 198.090765 470.969231 197.700592 471.279487 197.312390 471.589744 196.926181 471.900000 196.541990 472.210256 196.159838 472.520513 195.779749 472.830769 195.401746 473.141026 195.025851 473.451282 194.652087 473.761538 194.280478 474.071795 193.911047 474.382051 193.543815 474.692308 193.178807 475.002564 192.816046 475.312821 192.455553 475.623077 192.097353 475.933333 191.741468 476.243590 191.387921 476.553846 191.036735 476.864103 190.687933 477.174359 190.341537 477.484615 189.997572 477.794872 189.656059 478.105128 189.317023 478.415385 188.980484 478.725641 188.646468 479.035897 188.314996 479.346154 187.986092 479.656410 187.659772 479.966667 187.336027 480.276923 187.014843 480.587179 186.696204 480.897436 186.380095 481.207692 186.066501 481.517949 185.755407 481.828205 185.446798 482.138462 185.140660 482.448718 184.836976 482.758974 184.535731 483.069231 184.236912 483.379487 183.940502 483.689744 183.646487 484.000000 183.354851 484.310256 183.065579 484.620513 182.778657 484.930769 182.494069 485.241026 182.211800 485.551282 181.931835 485.861538 181.654159 486.171795 181.378757 486.482051 181.105614 486.792308 180.834715 487.102564 180.566044 487.412821 180.299588 487.723077 180.035329 488.033333 179.773254 488.343590 179.513348 488.653846 179.255595 488.964103 178.999980 489.274359 178.746488 489.584615 178.495105 489.894872 178.245814 490.205128 177.998601 490.515385 177.753452 490.825641 177.510350 491.135897 177.269281 491.446154 177.030229 491.756410 176.793180 492.066667 176.558119 492.376923 176.325030 492.687179 176.093898 492.997436 175.864709 493.307692 175.637447 493.617949 175.412097 493.928205 175.188644 494.238462 174.967073 494.548718 174.747369 494.858974 174.529516 495.169231 174.313501 495.479487 174.099307 495.789744 173.886920 496.100000 173.676324 496.410256 173.467505 496.720513 173.260447 497.030769 173.055136 497.341026 172.851556 497.651282 172.649692 497.961538 172.449529 498.271795 172.251052 498.582051 172.054246 498.892308 171.859095 499.202564 171.665586 499.512821 171.473702 499.823077 171.283429 500.133333 171.094752 500.443590 170.907655 500.753846 170.722123 501.064103 170.538142 501.374359 170.355696 501.684615 170.174770 501.994872 169.995349 502.305128 169.817418 502.615385 169.640963 502.925641 169.465967 503.235897 169.292416 503.546154 169.120295 503.856410 168.949588 504.166667 168.780281 504.476923 168.612358 504.787179 168.445805 505.097436 168.280607 505.407692 168.116747 505.717949 167.954212 506.028205 167.792986 506.338462 167.633054 506.648718 167.474401 506.958974 167.317012 507.269231 167.160871 507.579487 167.005965 507.889744 166.852277 508.200000 166.699793 508.510256 166.548497 508.820513 166.398375 509.130769 166.249411 509.441026 166.101591 509.751282 165.954898 510.061538 165.809319 510.371795 165.664838 510.682051 165.521440 510.992308 165.379110 511.302564 165.237833 511.612821 165.097594 511.923077 164.958377 512.233333 164.820168 512.543590 164.682951 512.853846 164.546712 513.164103 164.411436 513.474359 164.277107 513.784615 164.143710 514.094872 164.011230 514.405128 163.879652 514.715385 163.748962 515.025641 163.619143 515.335897 163.490181 515.646154 163.362061 515.956410 163.234768 516.266667 163.108286 516.576923 162.982602 516.887179 162.857698 517.197436 162.733561 517.507692 162.610176 517.817949 162.487526 518.128205 162.365598 518.438462 162.244376 518.748718 162.123845 519.058974 162.003990 519.369231 161.884796 519.679487 161.766248 519.989744 161.648331 520.300000 161.531029 520.610256 161.414328 520.920513 161.298213 521.230769 161.182668 521.541026 161.067678 521.851282 160.953229 522.161538 160.839304 522.471795 160.725890 522.782051 160.612972 523.092308 160.500533 523.402564 160.388559 523.712821 160.277035 524.023077 160.165946 524.333333 160.055276 524.643590 159.945011 524.953846 159.835136 525.264103 159.725635 525.574359 159.616494 525.884615 159.507697 526.194872 159.399229 526.505128 159.291076 526.815385 159.183221 527.125641 159.075651 527.435897 158.968350 527.746154 158.861302 528.056410 158.754493 528.366667 158.647909 528.676923 158.541532 528.987179 158.435350 529.297436 158.329345 529.607692 158.223505 529.917949 158.117812 530.228205 158.012253 530.538462 157.906813 530.848718 157.801475 531.158974 157.696225 531.469231 157.591049 531.779487 157.485930 532.089744 157.380854 532.400000 157.275806 532.710256 157.170771 533.020513 157.065733 533.330769 156.960678 533.641026 156.855590 533.951282 156.750455 534.261538 156.645257 534.571795 156.539981 534.882051 156.434613 535.192308 156.329136 535.502564 156.223537 535.812821 156.117799 536.123077 156.011909 536.433333 155.905850 536.743590 155.799608 537.053846 155.693167 537.364103 155.586514 537.674359 155.479631 537.984615 155.372505 538.294872 155.265121 538.605128 155.157462 538.915385 155.049515 539.225641 154.941264 539.535897 154.832694 539.846154 154.723790 540.156410 154.614537 540.466667 154.504920 540.776923 154.394924 541.087179 154.284533 541.397436 154.173733 541.707692 154.062508 542.017949 153.950844 542.328205 153.838725 542.638462 153.726136 542.948718 153.613063 543.258974 153.499490 543.569231 153.385402 543.879487 153.270784 544.189744 153.155621 544.500000 153.039897 544.810256 152.923599 545.120513 152.806710 545.430769 152.689216 545.741026 152.571101 546.051282 152.452351 546.361538 152.332950 546.671795 152.212884 546.982051 152.092137 547.292308 151.970694 547.602564 151.848540 547.912821 151.725660 548.223077 151.602039 548.533333 151.477662 548.843590 151.352514 549.153846 151.226579 549.464103 151.099843 549.774359 150.972291 550.084615 150.843907 550.394872 150.714677 550.705128 150.584585 551.015385 150.453616 551.325641 150.321756 551.635897 150.188989 551.946154 150.055299 552.256410 149.920673 552.566667 149.785095 552.876923 149.648549 553.187179 149.511021 553.497436 149.372496 553.807692 149.232958 554.117949 149.092393 554.428205 148.950786 554.738462 148.808121 555.048718 148.664383 555.358974 148.519557 555.669231 148.373629 555.979487 148.226582 556.289744 148.078403 556.600000 147.929076 556.910256 147.778585 557.220513 147.626919 557.530769 147.474080 557.841026 147.320073 558.151282 147.164900 558.461538 147.008569 558.771795 146.851082 559.082051 146.692446 559.392308 146.532664 559.702564 146.371741 560.012821 146.209682 560.323077 146.046492 560.633333 145.882175 560.943590 145.716736 561.253846 145.550180 561.564103 145.382511 561.874359 145.213734 562.184615 145.043854 562.494872 144.872875 562.805128 144.700802 563.115385 144.527640 563.425641 144.353393 563.735897 144.178066 564.046154 144.001664 564.356410 143.824192 564.666667 143.645654 564.976923 143.466054 565.287179 143.285398 565.597436 143.103691 565.907692 142.920936 566.217949 142.737138 566.528205 142.552303 566.838462 142.366435 567.148718 142.179538 567.458974 141.991618 567.769231 141.802678 568.079487 141.612725 568.389744 141.421761 568.700000 141.229793 569.010256 141.036824 569.320513 140.842860 569.630769 140.647904 569.941026 140.451963 570.251282 140.255039 570.561538 140.057139 570.871795 139.858267 571.182051 139.658427 571.492308 139.457624 571.802564 139.255863 572.112821 139.053149 572.423077 138.849485 572.733333 138.644878 573.043590 138.439331 573.353846 138.232849 573.664103 138.025437 573.974359 137.817100 574.284615 137.607842 574.594872 137.397668 574.905128 137.186583 575.215385 136.974591 575.525641 136.761697 575.835897 136.547905 576.146154 136.333221 576.456410 136.117649 576.766667 135.901194 577.076923 135.683860 577.387179 135.465652 577.697436 135.246575 578.007692 135.026634 578.317949 134.805832 578.628205 134.584176 578.938462 134.361669 579.248718 134.138316 579.558974 133.914121 579.869231 133.689091 580.179487 133.463228 580.489744 133.236539 580.800000 133.009027 581.110256 132.780697 581.420513 132.551555 581.730769 132.321603 582.041026 132.090849 582.351282 131.859295 582.661538 131.626947 582.971795 131.393809 583.282051 131.159886 583.592308 130.925183 583.902564 130.689704 584.212821 130.453455 584.523077 130.216439 584.833333 129.978662 585.143590 129.740127 585.453846 129.500841 585.764103 129.260807 586.074359 129.020030 586.384615 128.778515 586.694872 128.536267 587.005128 128.293289 587.315385 128.049588 587.625641 127.805167 587.935897 127.560032 588.246154 127.314186 588.556410 127.067635 588.866667 126.820383 589.176923 126.572436 589.487179 126.323797 589.797436 126.074471 590.107692 125.824463 590.417949 125.573778 590.728205 125.322421 591.038462 125.070395 591.348718 124.817706 591.658974 124.564359 591.969231 124.310358 592.279487 124.055707 592.589744 123.800412 592.900000 123.544478 593.210256 123.287908 593.520513 123.030707 593.830769 122.772881 594.141026 122.514434 594.451282 122.255370 594.761538 121.995694 595.071795 121.735412 595.382051 121.474527 595.692308 121.213044 596.002564 120.950968 596.312821 120.688304 596.623077 120.425056 596.933333 120.161230 597.243590 119.896828 597.553846 119.631858 597.864103 119.366322 598.174359 119.100226 598.484615 118.833575 598.794872 118.566373 599.105128 118.298624 599.415385 118.030334 599.725641 117.761507 600.035897 117.492148 600.346154 117.222261 600.656410 116.951852 600.966667 116.680924 601.276923 116.409483 601.587179 116.137534 601.897436 115.865080 602.207692 115.592127 602.517949 115.318679 602.828205 115.044741 603.138462 114.770318 603.448718 114.495414 603.758974 114.220034 604.069231 113.944183 604.379487 113.667865 604.689744 113.391085 605.000000 113.113848 605.310256 112.836158 605.620513 112.558020 605.930769 112.279440 606.241026 112.000420 606.551282 111.720967 606.861538 111.441085 607.171795 111.160778 607.482051 110.880051 607.792308 110.598909 608.102564 110.317357 608.412821 110.035399 608.723077 109.753040 609.033333 109.470285 609.343590 109.187137 609.653846 108.903603 609.964103 108.619686 610.274359 108.335392 610.584615 108.050725 610.894872 107.765689 611.205128 107.480290 611.515385 107.194532 611.825641 106.908419 612.135897 106.621957 612.446154 106.335150 612.756410 106.048003 613.066667 105.760520 613.376923 105.472707 613.687179 105.184567 613.997436 104.896106 614.307692 104.607327 614.617949 104.318237 614.928205 104.028840 615.238462 103.739139 615.548718 103.449141 615.858974 103.158849 616.169231 102.868268 616.479487 102.577403 616.789744 102.286259 617.100000 101.994840 617.410256 101.703151 617.720513 101.411197 618.030769 101.118982 618.341026 100.826512 618.651282 100.533790 618.961538 100.240821 619.271795 99.947611 619.582051 99.654163 619.892308 99.360483 620.202564 99.066574 620.512821 98.772443 620.823077 98.478093 621.133333 98.183530 621.443590 97.888757 621.753846 97.593779 622.064103 97.298602 622.374359 97.003230 622.684615 96.707668 622.994872 96.411919 623.305128 96.115990 623.615385 95.819884 623.925641 95.523607 624.235897 95.227162 624.546154 94.930556 624.856410 94.633791 625.166667 94.336874 625.476923 94.039808 625.787179 93.742599 626.097436 93.445251 626.407692 93.147768 626.717949 92.850156 627.028205 92.552419 627.338462 92.254562 627.648718 91.956590 627.958974 91.658506 628.269231 91.360317 628.579487 91.062026 628.889744 90.763638 629.200000 90.465158 629.510256 90.166591 629.820513 89.867941 630.130769 89.569212 630.441026 89.270411 630.751282 88.971541 631.061538 88.672606 631.371795 88.373613 631.682051 88.074565 631.992308 87.775466 632.302564 87.476323 632.612821 87.177139 632.923077 86.877919 633.233333 86.578668 633.543590 86.279390 633.853846 85.980090 634.164103 85.680773 634.474359 85.381444 634.784615 85.082106 635.094872 84.782760 635.405128 84.483406 635.715385 84.184045 636.025641 83.884676 636.335897 83.585299 636.646154 83.285914 636.956410 82.986522 637.266667 82.687123 637.576923 82.387716 637.887179 82.088301 638.197436 81.788879 638.507692 81.489449 638.817949 81.190012 639.128205 80.890567 639.438462 80.591116 639.748718 80.291656 640.058974 79.992190 640.369231 79.692716 640.679487 79.393235 640.989744 79.093747 641.300000 78.794251 641.610256 78.494749 641.920513 78.195239 642.230769 77.895722 642.541026 77.596199 642.851282 77.296668 643.161538 76.997130 643.471795 76.697585 643.782051 76.398033 644.092308 76.098475 644.402564 75.798909 644.712821 75.499337 645.023077 75.199758 645.333333 74.900172 645.643590 74.600579 645.953846 74.300980 646.264103 74.001374 646.574359 73.701761 646.884615 73.402142 647.194872 73.102516 647.505128 72.802884 647.815385 72.503245 648.125641 72.203599 648.435897 71.903948 648.746154 71.604289 649.056410 71.304625 649.366667 71.004953 649.676923 70.705276 649.987179 70.405592 650.297436 70.105902 650.607692 69.806206 650.917949 69.506504 651.228205 69.206795 651.538462 68.907080 651.848718 68.607360 652.158974 68.307633 652.469231 68.007900 652.779487 67.708161 653.089744 67.408416 653.400000 67.108665 653.710256 66.808908 654.020513 66.509145 654.330769 66.209376 654.641026 65.909602 654.951282 65.609822 655.261538 65.310035 655.571795 65.010244 655.882051 64.710446 656.192308 64.410643 656.502564 64.110834 656.812821 63.811020 657.123077 63.511200 657.433333 63.211374 657.743590 62.911543 658.053846 62.611707 658.364103 62.311865 658.674359 62.012017 658.984615 61.712164 659.294872 61.412306 659.605128 61.112443 659.915385 60.812574 660.225641 60.512700 660.535897 60.212820 660.846154 59.912936 661.156410 59.613046 661.466667 59.313151 661.776923 59.013251 662.087179 58.713346 662.397436 58.413436 662.707692 58.113521 663.017949 57.813601 663.328205 57.513676 663.638462 57.213746 663.948718 56.913811 664.258974 56.613872 664.569231 56.313927 664.879487 56.013978 665.189744 55.714024 665.500000 55.414065 665.810256 55.114101 666.120513 54.814133 666.430769 54.514160 666.741026 54.214183 667.051282 53.914201 667.361538 53.614214 667.671795 53.314223 667.982051 53.014228 668.292308 52.714228 668.602564 52.414223 668.912821 52.114214 669.223077 51.814201 669.533333 51.514184 669.843590 51.214162 670.153846 50.914136 670.464103 50.614105 670.774359 50.314071 671.084615 50.014032 671.394872 49.713989 671.705128 49.413942 672.015385 49.113891 672.325641 48.813836 672.635897 48.513777 672.946154 48.213714 673.256410 47.913647 673.566667 47.613576 673.876923 47.313501 674.187179 47.013423 674.497436 46.713340 674.807692 46.413254 675.117949 46.113164 675.428205 45.813070 675.738462 45.512973 676.048718 45.212872 676.358974 44.912767 676.669231 44.612658 676.979487 44.312547 677.289744 44.012431 677.600000 43.712312 677.910256 43.412190 678.220513 43.112064 678.530769 42.811934 678.841026 42.511801 679.151282 42.211665 679.461538 41.911526 679.771795 41.611383 680.082051 41.311237 680.392308 41.011088 680.702564 40.710936 681.012821 40.410780 681.323077 40.110621 681.633333 39.810460 681.943590 39.510295 682.253846 39.210127 682.564103 38.909956 682.874359 38.609782 683.184615 38.309605 683.494872 38.009425 683.805128 37.709243 684.115385 37.409057 684.425641 37.108869 684.735897 36.808678 685.046154 36.508484 685.356410 36.208287 685.666667 35.908088 685.976923 35.607886 686.287179 35.307681 686.597436 35.007474 686.907692 34.707264 687.217949 34.407052 687.528205 34.106837 687.838462 33.806620 688.148718 33.506400 688.458974 33.206178 688.769231 32.905954 689.079487 32.605727 689.389744 32.305497 689.700000 32.005266 690.010256 31.705032 690.320513 31.404796 690.630769 31.104558 690.941026 30.804318 691.251282 30.504075 691.561538 30.203831 691.871795 29.903584 692.182051 29.603335 692.492308 29.303085 692.802564 29.002832 693.112821 28.702577 693.423077 28.402321 693.733333 28.102062 694.043590 27.801802 694.353846 27.501540 694.664103 27.201276 694.974359 26.901011 695.284615 26.600743 695.594872 26.300474 695.905128 26.000204 696.215385 25.699931 696.525641 25.399657 696.835897 25.099382 697.146154 24.799105 697.456410 24.498826 697.766667 24.198546 698.076923 23.898265 698.387179 23.597982 698.697436 23.297698 699.007692 22.997412 699.317949 22.697125 699.628205 22.396837 699.938462 22.096548 700.248718 21.796257 700.558974 21.495965 700.869231 21.195672 701.179487 20.895378 701.489744 20.595083 701.800000 20.294786 702.110256 19.994489 702.420513 19.694191 702.730769 19.393891 703.041026 19.093591 703.351282 18.793290 703.661538 18.492988 703.971795 18.192685 704.282051 17.892381 704.592308 17.592077 704.902564 17.291772 705.212821 16.991466 705.523077 16.691159 705.833333 16.390852 706.143590 16.090544 706.453846 15.790235 706.764103 15.489926 707.074359 15.189616 707.384615 14.889306 707.694872 14.588996 708.005128 14.288685 708.315385 13.988373 708.625641 13.688061 708.935897 13.387749 709.246154 13.087437 709.556410 12.787124 709.866667 12.486811 710.176923 12.186498 710.487179 11.886184 710.797436 11.585871 711.107692 11.285557 711.417949 10.985243 711.728205 10.684929 712.038462 10.384615 712.038462 540.000000" /></g></g><g class="titles" /><g class="plot overlay" transform="translate(54, 20)"><g class="series serie-0 color-0"><g class="dots"><circle class="dot reactive tooltip-trigger" cx="13.96153846153846" cy="529.6153846153846" r="2.5" /><desc class="value">344,171,793(kWh)</desc><desc class="x top">13.96153846153846</desc><desc class="y top">529.6153846153846</desc><desc class="x_label">2549</desc></g><g class="dots"><circle class="dot reactive tooltip-trigger" cx="91.52564102564101" cy="473.66562108621685" r="2.5" /><desc class="value">372,578,740(kWh)</desc><desc class="x top">91.52564102564101</desc><desc class="y top">473.66562108621685</desc><desc class="x_label">2550</desc></g><g class="dots"><circle class="dot reactive tooltip-trigger" cx="169.08974358974356" cy="466.65130548234316" r="2.5" /><desc class="value">376,140,065(kWh)</desc><desc class="x top">169.08974358974356</desc><desc class="y top">466.65130548234316</desc><desc class="x_label">2551</desc></g><g class="dots"><circle class="dot reactive tooltip-trigger" cx="246.65384615384613" cy="382.2294366845105" r="2.5" /><desc class="value">419,002,937(kWh)</desc><desc class="x top">246.65384615384613</desc><desc class="y top">382.2294366845105</desc><desc class="x_label">2552</desc></g><g class="dots"><circle class="dot reactive tooltip-trigger" cx="324.21794871794873" cy="310.31662652269534" r="2.5" /><desc class="value">455,514,680(kWh)</desc><desc class="x top">324.21794871794873</desc><desc class="y top">310.31662652269534</desc><desc class="x_label">2553</desc></g><g class="dots"><circle class="dot reactive tooltip-trigger" cx="401.78205128205127" cy="291.0778940598833" r="2.5" /><desc class="value">465,282,615(kWh)</desc><desc class="x left top">401.78205128205127</desc><desc class="y left top">291.0778940598833</desc><desc class="x_label">2554</desc></g><g class="dots"><circle class="dot reactive tooltip-trigger" cx="479.3461538461538" cy="187.98609183664013" r="2.5" /><desc class="value">517,624,630(kWh)</desc><desc class="x left">479.3461538461538</desc><desc class="y left">187.98609183664013</desc><desc class="x_label">2555</desc></g><g class="dots"><circle class="dot reactive tooltip-trigger" cx="556.9102564102565" cy="147.77858498716853" r="2.5" /><desc class="value">538,038,881(kWh)</desc><desc class="x left">556.9102564102565</desc><desc class="y left">147.77858498716853</desc><desc class="x_label">2556</desc></g><g class="dots"><circle class="dot reactive tooltip-trigger" cx="634.474358974359" cy="85.38144363813399" r="2.5" /><desc class="value">569,719,306(kWh)</desc><desc class="x left">634.474358974359</desc><desc class="y left">85.38144363813399</desc><desc class="x_label">2557</desc></g><g class="dots"><circle class="dot reactive tooltip-trigger" cx="712.0384615384615" cy="10.384615384615472" r="2.5" /><desc class="value">607,796,874(kWh)</desc><desc class="x left">712.0384615384615</desc><desc class="y left">10.384615384615472</desc><desc class="x_label">2558</desc></g></g></g><g class="plot text-overlay" transform="translate(54, 20)"><g class="series serie-0 color-0" /></g><g class="plot tooltip-overlay" transform="translate(54, 20)"><g class="tooltip" style="opacity: 0" transform="translate(0 0)"><rect class="tooltip-box" height="0" rx="0" ry="0" width="0" /><g class="text" /></g></g></g></svg>