<?xml version='1.0' encoding='utf-8'?>
<svg xmlns:xlink="http://www.w3.org/1999/xlink" class="pygal-chart" id="chart-01665e37-6ae6-4893-a113-4b3f8b152595" viewBox="0 0 800 600" xmlns="http://www.w3.org/2000/svg"><!--Generated with pygal 2.3.0 (etree) ©Kozea 2012-2016 on 2016-12-08--><!--http://pygal.org--><!--http://github.com/Kozea/pygal--><defs><style type="text/css">#chart-01665e37-6ae6-4893-a113-4b3f8b152595{-webkit-user-select:none;-webkit-font-smoothing:antialiased;font-family:Consolas,"Liberation Mono",Menlo,Courier,monospace}#chart-01665e37-6ae6-4893-a113-4b3f8b152595 .title{font-family:Consolas,"Liberation Mono",Menlo,Courier,monospace;font-size:16px}#chart-01665e37-6ae6-4893-a113-4b3f8b152595 .legends .legend text{font-family:Consolas,"Liberation Mono",Menlo,Courier,monospace;font-size:14px}#chart-01665e37-6ae6-4893-a113-4b3f8b152595 .axis text{font-family:Consolas,"Liberation Mono",Menlo,Courier,monospace;font-size:10px}#chart-01665e37-6ae6-4893-a113-4b3f8b152595 .axis text.major{font-family:Consolas,"Liberation Mono",Menlo,Courier,monospace;font-size:10px}#chart-01665e37-6ae6-4893-a113-4b3f8b152595 .text-overlay text.value{font-family:Consolas,"Liberation Mono",Menlo,Courier,monospace;font-size:16px}#chart-01665e37-6ae6-4893-a113-4b3f8b152595 .text-overlay text.label{font-family:Consolas,"Liberation Mono",Menlo,Courier,monospace;font-size:10px}#chart-01665e37-6ae6-4893-a113-4b3f8b152595 .tooltip{font-family:Consolas,"Liberation Mono",Menlo,Courier,monospace;font-size:14px}#chart-01665e37-6ae6-4893-a113-4b3f8b152595 text.no_data{font-family:Consolas,"Liberation Mono",Menlo,Courier,monospace;font-size:64px}
#chart-01665e37-6ae6-4893-a113-4b3f8b152595{background-color:rgba(249,249,249,1)}#chart-01665e37-6ae6-4893-a113-4b3f8b152595 path,#chart-01665e37-6ae6-4893-a113-4b3f8b152595 line,#chart-01665e37-6ae6-4893-a113-4b3f8b152595 rect,#chart-01665e37-6ae6-4893-a113-4b3f8b152595 circle{-webkit-transition:150ms;-moz-transition:150ms;transition:150ms}#chart-01665e37-6ae6-4893-a113-4b3f8b152595 .graph &gt; .background{fill:rgba(249,249,249,1)}#chart-01665e37-6ae6-4893-a113-4b3f8b152595 .plot &gt; .background{fill:rgba(255,255,255,1)}#chart-01665e37-6ae6-4893-a113-4b3f8b152595 .graph{fill:rgba(0,0,0,.87)}#chart-01665e37-6ae6-4893-a113-4b3f8b152595 text.no_data{fill:rgba(0,0,0,1)}#chart-01665e37-6ae6-4893-a113-4b3f8b152595 .title{fill:rgba(0,0,0,1)}#chart-01665e37-6ae6-4893-a113-4b3f8b152595 .legends .legend text{fill:rgba(0,0,0,.87)}#chart-01665e37-6ae6-4893-a113-4b3f8b152595 .legends .legend:hover text{fill:rgba(0,0,0,1)}#chart-01665e37-6ae6-4893-a113-4b3f8b152595 .axis .line{stroke:rgba(0,0,0,1)}#chart-01665e37-6ae6-4893-a113-4b3f8b152595 .axis .guide.line{stroke:rgba(0,0,0,.54)}#chart-01665e37-6ae6-4893-a113-4b3f8b152595 .axis .major.line{stroke:rgba(0,0,0,.87)}#chart-01665e37-6ae6-4893-a113-4b3f8b152595 .axis text.major{fill:rgba(0,0,0,1)}#chart-01665e37-6ae6-4893-a113-4b3f8b152595 .axis.y .guides:hover .guide.line,#chart-01665e37-6ae6-4893-a113-4b3f8b152595 .line-graph .axis.x .guides:hover .guide.line,#chart-01665e37-6ae6-4893-a113-4b3f8b152595 .stackedline-graph .axis.x .guides:hover .guide.line,#chart-01665e37-6ae6-4893-a113-4b3f8b152595 .xy-graph .axis.x .guides:hover .guide.line{stroke:rgba(0,0,0,1)}#chart-01665e37-6ae6-4893-a113-4b3f8b152595 .axis .guides:hover text{fill:rgba(0,0,0,1)}#chart-01665e37-6ae6-4893-a113-4b3f8b152595 .reactive{fill-opacity:.7;stroke-opacity:.8}#chart-01665e37-6ae6-4893-a113-4b3f8b152595 .ci{stroke:rgba(0,0,0,.87)}#chart-01665e37-6ae6-4893-a113-4b3f8b152595 .reactive.active,#chart-01665e37-6ae6-4893-a113-4b3f8b152595 .active .reactive{fill-opacity:.8;stroke-opacity:.9;stroke-width:4}#chart-01665e37-6ae6-4893-a113-4b3f8b152595 .ci .reactive.active{stroke-width:1.5}#chart-01665e37-6ae6-4893-a113-4b3f8b152595 .series text{fill:rgba(0,0,0,1)}#chart-01665e37-6ae6-4893-a113-4b3f8b152595 .tooltip rect{fill:rgba(255,255,255,1);stroke:rgba(0,0,0,1);-webkit-transition:opacity 150ms;-moz-transition:opacity 150ms;transition:opacity 150ms}#chart-01665e37-6ae6-4893-a113-4b3f8b152595 .tooltip .label{fill:rgba(0,0,0,.87)}#chart-01665e37-6ae6-4893-a113-4b3f8b152595 .tooltip .label{fill:rgba(0,0,0,.87)}#chart-01665e37-6ae6-4893-a113-4b3f8b152595 .tooltip .legend{font-size:.8em;fill:rgba(0,0,0,.54)}#chart-01665e37-6ae6-4893-a113-4b3f8b152595 .tooltip .x_label{font-size:.6em;fill:rgba(0,0,0,1)}#chart-01665e37-6ae6-4893-a113-4b3f8b152595 .tooltip .xlink{font-size:.5em;text-decoration:underline}#chart-01665e37-6ae6-4893-a113-4b3f8b152595 .tooltip .value{font-size:1.5em}#chart-01665e37-6ae6-4893-a113-4b3f8b152595 .bound{font-size:.5em}#chart-01665e37-6ae6-4893-a113-4b3f8b152595 .max-value{font-size:.75em;fill:rgba(0,0,0,.54)}#chart-01665e37-6ae6-4893-a113-4b3f8b152595 .map-element{fill:rgba(255,255,255,1);stroke:rgba(0,0,0,.54) !important}#chart-01665e37-6ae6-4893-a113-4b3f8b152595 .map-element .reactive{fill-opacity:inherit;stroke-opacity:inherit}#chart-01665e37-6ae6-4893-a113-4b3f8b152595 .color-0,#chart-01665e37-6ae6-4893-a113-4b3f8b152595 .color-0 a:visited{stroke:#e86fa0;fill:#e86fa0}#chart-01665e37-6ae6-4893-a113-4b3f8b152595 .text-overlay .color-0 text{fill:black}
#chart-01665e37-6ae6-4893-a113-4b3f8b152595 text.no_data{text-anchor:middle}#chart-01665e37-6ae6-4893-a113-4b3f8b152595 .guide.line{fill:none}#chart-01665e37-6ae6-4893-a113-4b3f8b152595 .centered{text-anchor:middle}#chart-01665e37-6ae6-4893-a113-4b3f8b152595 .title{text-anchor:middle}#chart-01665e37-6ae6-4893-a113-4b3f8b152595 .legends .legend text{fill-opacity:1}#chart-01665e37-6ae6-4893-a113-4b3f8b152595 .axis.x text{text-anchor:middle}#chart-01665e37-6ae6-4893-a113-4b3f8b152595 .axis.x:not(.web) text[transform]{text-anchor:start}#chart-01665e37-6ae6-4893-a113-4b3f8b152595 .axis.x:not(.web) text[transform].backwards{text-anchor:end}#chart-01665e37-6ae6-4893-a113-4b3f8b152595 .axis.y text{text-anchor:end}#chart-01665e37-6ae6-4893-a113-4b3f8b152595 .axis.y text[transform].backwards{text-anchor:start}#chart-01665e37-6ae6-4893-a113-4b3f8b152595 .axis.y2 text{text-anchor:start}#chart-01665e37-6ae6-4893-a113-4b3f8b152595 .axis.y2 text[transform].backwards{text-anchor:end}#chart-01665e37-6ae6-4893-a113-4b3f8b152595 .axis .guide.line{stroke-dasharray:4,4}#chart-01665e37-6ae6-4893-a113-4b3f8b152595 .axis .major.guide.line{stroke-dasharray:6,6}#chart-01665e37-6ae6-4893-a113-4b3f8b152595 .horizontal .axis.y .guide.line,#chart-01665e37-6ae6-4893-a113-4b3f8b152595 .horizontal .axis.y2 .guide.line,#chart-01665e37-6ae6-4893-a113-4b3f8b152595 .vertical .axis.x .guide.line{opacity:0}#chart-01665e37-6ae6-4893-a113-4b3f8b152595 .horizontal .axis.always_show .guide.line,#chart-01665e37-6ae6-4893-a113-4b3f8b152595 .vertical .axis.always_show .guide.line{opacity:1 !important}#chart-01665e37-6ae6-4893-a113-4b3f8b152595 .axis.y .guides:hover .guide.line,#chart-01665e37-6ae6-4893-a113-4b3f8b152595 .axis.y2 .guides:hover .guide.line,#chart-01665e37-6ae6-4893-a113-4b3f8b152595 .axis.x .guides:hover .guide.line{opacity:1}#chart-01665e37-6ae6-4893-a113-4b3f8b152595 .axis .guides:hover text{opacity:1}#chart-01665e37-6ae6-4893-a113-4b3f8b152595 .nofill{fill:none}#chart-01665e37-6ae6-4893-a113-4b3f8b152595 .subtle-fill{fill-opacity:.2}#chart-01665e37-6ae6-4893-a113-4b3f8b152595 .dot{stroke-width:1px;fill-opacity:1}#chart-01665e37-6ae6-4893-a113-4b3f8b152595 .dot.active{stroke-width:5px}#chart-01665e37-6ae6-4893-a113-4b3f8b152595 .dot.negative{fill:transparent}#chart-01665e37-6ae6-4893-a113-4b3f8b152595 text,#chart-01665e37-6ae6-4893-a113-4b3f8b152595 tspan{stroke:none !important}#chart-01665e37-6ae6-4893-a113-4b3f8b152595 .series text.active{opacity:1}#chart-01665e37-6ae6-4893-a113-4b3f8b152595 .tooltip rect{fill-opacity:.95;stroke-width:.5}#chart-01665e37-6ae6-4893-a113-4b3f8b152595 .tooltip text{fill-opacity:1}#chart-01665e37-6ae6-4893-a113-4b3f8b152595 .showable{visibility:hidden}#chart-01665e37-6ae6-4893-a113-4b3f8b152595 .showable.shown{visibility:visible}#chart-01665e37-6ae6-4893-a113-4b3f8b152595 .gauge-background{fill:rgba(229,229,229,1);stroke:none}#chart-01665e37-6ae6-4893-a113-4b3f8b152595 .bg-lines{stroke:rgba(249,249,249,1);stroke-width:2px}</style><script type="text/javascript">window.pygal = window.pygal || {};window.pygal.config = window.pygal.config || {};window.pygal.config['01665e37-6ae6-4893-a113-4b3f8b152595'] = {"no_data_text": "No data", "no_prefix": false, "xrange": null, "print_values_position": "center", "truncate_label": null, "x_labels": ["2549", "2550", "2551", "2552", "2553", "2554", "2555", "2556", "2557", "2558"], "title": null, "force_uri_protocol": "https", "defs": [], "formatter": null, "classes": ["pygal-chart"], "y_labels": null, "rounded_bars": null, "explicit_size": false, "x_labels_major_every": null, "legend_at_bottom_columns": null, "stroke_style": null, "half_pie": false, "spacing": 10, "tooltip_fancy_mode": true, "inverse_y_axis": false, "width": 800, "inner_radius": 0, "interpolation_parameters": {}, "tooltip_border_radius": 0, "style": {"no_data_font_family": "Consolas, \"Liberation Mono\", Menlo, Courier, monospace", "tooltip_font_size": 14, "tooltip_font_family": "Consolas, \"Liberation Mono\", Menlo, Courier, monospace", "stroke_opacity_hover": ".9", "legend_font_family": "Consolas, \"Liberation Mono\", Menlo, Courier, monospace", "font_family": "Consolas, \"Liberation Mono\", Menlo, Courier, monospace", "title_font_family": "Consolas, \"Liberation Mono\", Menlo, Courier, monospace", "background": "rgba(249, 249, 249, 1)", "stroke_opacity": ".8", "foreground": "rgba(0, 0, 0, .87)", "value_background": "rgba(229, 229, 229, 1)", "guide_stroke_dasharray": "4,4", "foreground_subtle": "rgba(0, 0, 0, .54)", "opacity_hover": ".8", "value_font_family": "Consolas, \"Liberation Mono\", Menlo, Courier, monospace", "value_label_font_size": 10, "plot_background": "rgba(255, 255, 255, 1)", "ci_colors": [], "label_font_size": 10, "major_label_font_size": 10, "title_font_size": 16, "no_data_font_size": 64, "value_font_size": 16, "value_colors": [], "label_font_family": "Consolas, \"Liberation Mono\", Menlo, Courier, monospace", "major_guide_stroke_dasharray": "6,6", "transition": "150ms", "foreground_strong": "rgba(0, 0, 0, 1)", "colors": ["#e86fa0", "#e88f6f", "#e8df6f", "#a0e86f", "#6fe88f", "#6fe8df", "#6fa0e8", "#8f6fe8", "#df6fe8", "#e86fa0"], "opacity": ".7", "legend_font_size": 14, "value_label_font_family": "Consolas, \"Liberation Mono\", Menlo, Courier, monospace", "major_label_font_family": "Consolas, \"Liberation Mono\", Menlo, Courier, monospace"}, "x_labels_major_count": null, "interpolation_precision": 250, "missing_value_fill_truncation": "x", "stack_from_top": false, "truncate_legend": null, "show_minor_x_labels": true, "print_zeroes": true, "css": ["file://style.css", "file://graph.css"], "y_label_rotation": 0, "legend_at_bottom": false, "print_values": false, "margin_top": null, "max_scale": 16, "allow_interruptions": false, "show_x_labels": true, "strict": false, "show_x_guides": false, "stroke": true, "margin_left": null, "dynamic_print_values": false, "print_labels": false, "show_y_labels": true, "x_labels_major": null, "range": null, "x_label_rotation": 0, "margin": 20, "zero": 0, "include_x_axis": false, "height": 600, "show_minor_y_labels": true, "show_dots": true, "interpolate": "cubic", "show_y_guides": true, "y_labels_major": null, "box_mode": "extremes", "margin_bottom": null, "order_min": null, "legend_box_size": 12, "fill": true, "show_only_major_dots": false, "js": ["//kozea.github.io/pygal.js/2.0.x/pygal-tooltips.min.js"], "x_title": null, "y_labels_major_every": null, "y_labels_major_count": null, "disable_xml_declaration": false, "y_title": null, "logarithmic": false, "pretty_print": false, "min_scale": 4, "dots_size": 2.5, "margin_right": null, "legends": [null], "secondary_range": null, "show_legend": false}</script><script type="text/javascript" xlink:href="https://kozea.github.io/pygal.js/2.0.x/pygal-tooltips.min.js" /></defs><title>Pygal</title><g class="graph stackedline-graph vertical"><rect class="background" height="600" width="800" x="0" y="0" /><g class="plot" transform="translate(54, 20)"><rect class="background" height="540" width="726.0" x="0" y="0" /><g class="axis y"><path class="line" d="M0.000000 540.000000 h726.000000" /><g class="guides"><path class="major guide line" d="M0.000000 490.193030 h726.000000" /><text class="major" x="-5" y="493.69303047466167">150M</text><title>150M</title></g><g class="guides"><path class="guide line" d="M0.000000 444.738197 h726.000000" /><text class="" x="-5" y="448.23819723133363">160M</text><title>160M</title></g><g class="guides"><path class="guide line" d="M0.000000 399.283364 h726.000000" /><text class="" x="-5" y="402.7833639880056">170M</text><title>170M</title></g><g class="guides"><path class="guide line" d="M0.000000 353.828531 h726.000000" /><text class="" x="-5" y="357.32853074467755">180M</text><title>180M</title></g><g class="guides"><path class="guide line" d="M0.000000 308.373698 h726.000000" /><text class="" x="-5" y="311.87369750134945">190M</text><title>190M</title></g><g class="guides"><path class="major guide line" d="M0.000000 262.918864 h726.000000" /><text class="major" x="-5" y="266.4188642580214">200M</text><title>200M</title></g><g class="guides"><path class="guide line" d="M0.000000 217.464031 h726.000000" /><text class="" x="-5" y="220.96403101469332">210M</text><title>210M</title></g><g class="guides"><path class="guide line" d="M0.000000 172.009198 h726.000000" /><text class="" x="-5" y="175.50919777136522">220M</text><title>220M</title></g><g class="guides"><path class="guide line" d="M0.000000 126.554365 h726.000000" /><text class="" x="-5" y="130.05436452803718">230M</text><title>230M</title></g><g class="guides"><path class="guide line" d="M0.000000 81.099531 h726.000000" /><text class="" x="-5" y="84.59953128470914">240M</text><title>240M</title></g><g class="guides"><path class="major guide line" d="M0.000000 35.644698 h726.000000" /><text class="major" x="-5" y="39.14469804138105">250M</text><title>250M</title></g></g><g class="axis x"><g class="guides"><path class="line" d="M13.961538 0.000000 v540.000000" /><text class="" x="13.96153846153846" y="555.0">2549</text></g><g class="guides"><path class="guide line" d="M91.525641 0.000000 v540.000000" /><text class="" x="91.52564102564101" y="555.0">2550</text></g><g class="guides"><path class="guide line" d="M169.089744 0.000000 v540.000000" /><text class="" x="169.08974358974356" y="555.0">2551</text></g><g class="guides"><path class="guide line" d="M246.653846 0.000000 v540.000000" /><text class="" x="246.65384615384613" y="555.0">2552</text></g><g class="guides"><path class="guide line" d="M324.217949 0.000000 v540.000000" /><text class="" x="324.21794871794873" y="555.0">2553</text></g><g class="guides"><path class="guide line" d="M401.782051 0.000000 v540.000000" /><text class="" x="401.78205128205127" y="555.0">2554</text></g><g class="guides"><path class="guide line" d="M479.346154 0.000000 v540.000000" /><text class="" x="479.3461538461538" y="555.0">2555</text></g><g class="guides"><path class="guide line" d="M556.910256 0.000000 v540.000000" /><text class="" x="556.9102564102565" y="555.0">2556</text></g><g class="guides"><path class="guide line" d="M634.474359 0.000000 v540.000000" /><text class="" x="634.474358974359" y="555.0">2557</text></g><g class="guides"><path class="guide line" d="M712.038462 0.000000 v540.000000" /><text class="" x="712.0384615384615" y="555.0">2558</text></g></g><g class="series serie-0 color-0"><path class="line reactive" d="M13.961538 540.000000 L13.961538 529.615385 14.271795 529.255614 14.582051 528.895852 14.892308 528.536106 15.202564 528.176384 15.512821 527.816696 15.823077 527.457048 16.133333 527.097450 16.443590 526.737909 16.753846 526.378434 17.064103 526.019033 17.374359 525.659714 17.684615 525.300485 17.994872 524.941355 18.305128 524.582331 18.615385 524.223422 18.925641 523.864637 19.235897 523.505982 19.546154 523.147468 19.856410 522.789101 20.166667 522.430890 20.476923 522.072843 20.787179 521.714968 21.097436 521.357274 21.407692 520.999769 21.717949 520.642461 22.028205 520.285358 22.338462 519.928468 22.648718 519.571800 22.958974 519.215362 23.269231 518.859162 23.579487 518.503208 23.889744 518.147509 24.200000 517.792072 24.510256 517.436906 24.820513 517.082019 25.130769 516.727420 25.441026 516.373116 25.751282 516.019115 26.061538 515.665427 26.371795 515.312058 26.682051 514.959018 26.992308 514.606315 27.302564 514.253956 27.612821 513.901950 27.923077 513.550306 28.233333 513.199030 28.543590 512.848132 28.853846 512.497620 29.164103 512.147502 29.474359 511.797787 29.784615 511.448481 30.094872 511.099594 30.405128 510.751134 30.715385 510.403110 31.025641 510.055528 31.335897 509.708397 31.646154 509.361727 31.956410 509.015524 32.266667 508.669797 32.576923 508.324555 32.887179 507.979805 33.197436 507.635556 33.507692 507.291815 33.817949 506.948592 34.128205 506.605894 34.438462 506.263729 34.748718 505.922107 35.058974 505.581034 35.369231 505.240519 35.679487 504.900571 35.989744 504.561197 36.300000 504.222406 36.610256 503.884206 36.920513 503.546605 37.230769 503.209612 37.541026 502.873234 37.851282 502.537480 38.161538 502.202358 38.471795 501.867876 38.782051 501.534043 39.092308 501.200866 39.402564 500.868354 39.712821 500.536515 40.023077 500.205358 40.333333 499.874890 40.643590 499.545119 40.953846 499.216055 41.264103 498.887704 41.574359 498.560076 41.884615 498.233178 42.194872 497.907019 42.505128 497.581607 42.815385 497.256951 43.125641 496.933057 43.435897 496.609935 43.746154 496.287593 44.056410 495.966039 44.366667 495.645281 44.676923 495.325327 44.987179 495.006186 45.297436 494.687866 45.607692 494.370374 45.917949 494.053720 46.228205 493.737912 46.538462 493.422956 46.848718 493.108863 47.158974 492.795640 47.469231 492.483295 47.779487 492.171837 48.089744 491.861273 48.400000 491.551612 48.710256 491.242862 49.020513 490.935032 49.330769 490.628129 49.641026 490.322162 49.951282 490.017138 50.261538 489.713067 50.571795 489.409956 50.882051 489.107814 51.192308 488.806648 51.502564 488.506467 51.812821 488.207280 52.123077 487.909094 52.433333 487.611917 52.743590 487.315758 53.053846 487.020626 53.364103 486.726527 53.674359 486.433471 53.984615 486.141465 54.294872 485.850519 54.605128 485.560639 54.915385 485.271835 55.225641 484.984114 55.535897 484.697484 55.846154 484.411955 56.156410 484.127534 56.466667 483.844229 56.776923 483.562048 57.087179 483.281000 57.397436 483.001093 57.707692 482.722335 58.017949 482.444735 58.328205 482.168300 58.638462 481.893039 58.948718 481.618959 59.258974 481.346070 59.569231 481.074379 59.879487 480.803895 60.189744 480.534626 60.500000 480.266579 60.810256 479.999764 61.120513 479.734188 61.430769 479.469860 61.741026 479.206787 62.051282 478.944979 62.361538 478.684443 62.671795 478.425187 62.982051 478.167220 63.292308 477.910550 63.602564 477.655185 63.912821 477.401133 64.223077 477.148403 64.533333 476.897002 64.843590 476.646939 65.153846 476.398223 65.464103 476.150860 65.774359 475.904860 66.084615 475.660231 66.394872 475.416981 66.705128 475.175118 67.015385 474.934651 67.325641 474.695587 67.635897 474.457934 67.946154 474.221702 68.256410 473.986898 68.566667 473.753530 68.876923 473.521607 69.187179 473.291137 69.497436 473.062127 69.807692 472.834587 70.117949 472.608525 70.428205 472.383948 70.738462 472.160864 71.048718 471.939283 71.358974 471.719213 71.669231 471.500660 71.979487 471.283635 72.289744 471.068144 72.600000 470.854196 72.910256 470.641800 73.220513 470.430963 73.530769 470.221694 73.841026 470.014001 74.151282 469.807892 74.461538 469.603375 74.771795 469.400459 75.082051 469.199151 75.392308 468.999461 75.702564 468.801396 76.012821 468.604964 76.323077 468.410174 76.633333 468.217033 76.943590 468.025551 77.253846 467.835735 77.564103 467.647593 77.874359 467.461134 78.184615 467.276365 78.494872 467.093296 78.805128 466.911934 79.115385 466.732287 79.425641 466.554365 79.735897 466.378174 80.046154 466.203723 80.356410 466.031020 80.666667 465.860074 80.976923 465.690893 81.287179 465.523484 81.597436 465.357857 81.907692 465.194019 82.217949 465.031979 82.528205 464.871744 82.838462 464.713323 83.148718 464.556725 83.458974 464.401957 83.769231 464.249027 84.079487 464.097944 84.389744 463.948716 84.700000 463.801352 85.010256 463.655859 85.320513 463.512245 85.630769 463.370520 85.941026 463.230690 86.251282 463.092765 86.561538 462.956752 86.871795 462.822659 87.182051 462.690496 87.492308 462.560270 87.802564 462.431989 88.112821 462.305661 88.423077 462.181295 88.733333 462.058899 89.043590 461.938482 89.353846 461.820050 89.664103 461.703613 89.974359 461.589179 90.284615 461.476756 90.594872 461.366352 90.905128 461.257975 91.215385 461.151634 91.525641 461.047337 91.835897 460.945087 92.146154 460.844872 92.456410 460.746673 92.766667 460.650473 93.076923 460.556254 93.387179 460.463999 93.697436 460.373689 94.007692 460.285307 94.317949 460.198836 94.628205 460.114256 94.938462 460.031552 95.248718 459.950705 95.558974 459.871697 95.869231 459.794511 96.179487 459.719129 96.489744 459.645533 96.800000 459.573705 97.110256 459.503628 97.420513 459.435284 97.730769 459.368656 98.041026 459.303725 98.351282 459.240474 98.661538 459.178885 98.971795 459.118940 99.282051 459.060623 99.592308 459.003914 99.902564 458.948796 100.212821 458.895253 100.523077 458.843264 100.833333 458.792815 101.143590 458.743885 101.453846 458.696458 101.764103 458.650516 102.074359 458.606042 102.384615 458.563016 102.694872 458.521423 103.005128 458.481244 103.315385 458.442461 103.625641 458.405057 103.935897 458.369013 104.246154 458.334313 104.556410 458.300938 104.866667 458.268871 105.176923 458.238095 105.487179 458.208590 105.797436 458.180340 106.107692 458.153327 106.417949 458.127533 106.728205 458.102941 107.038462 458.079532 107.348718 458.057289 107.658974 458.036195 107.969231 458.016231 108.279487 457.997380 108.589744 457.979624 108.900000 457.962945 109.210256 457.947326 109.520513 457.932749 109.830769 457.919197 110.141026 457.906650 110.451282 457.895093 110.761538 457.884507 111.071795 457.874874 111.382051 457.866177 111.692308 457.858397 112.002564 457.851518 112.312821 457.845522 112.623077 457.840390 112.933333 457.836105 113.243590 457.832649 113.553846 457.830005 113.864103 457.828155 114.174359 457.827082 114.484615 457.826766 114.794872 457.827191 115.105128 457.828340 115.415385 457.830193 115.725641 457.832734 116.035897 457.835945 116.346154 457.839809 116.656410 457.844306 116.966667 457.849420 117.276923 457.855133 117.587179 457.861428 117.897436 457.868286 118.207692 457.875689 118.517949 457.883621 118.828205 457.892064 119.138462 457.900998 119.448718 457.910408 119.758974 457.920275 120.069231 457.930582 120.379487 457.941310 120.689744 457.952442 121.000000 457.963961 121.310256 457.975848 121.620513 457.988086 121.930769 458.000657 122.241026 458.013544 122.551282 458.026728 122.861538 458.040193 123.171795 458.053919 123.482051 458.067891 123.792308 458.082089 124.102564 458.096496 124.412821 458.111095 124.723077 458.125867 125.033333 458.140796 125.343590 458.155862 125.653846 458.171049 125.964103 458.186339 126.274359 458.201714 126.584615 458.217156 126.894872 458.232648 127.205128 458.248172 127.515385 458.263711 127.825641 458.279245 128.135897 458.294759 128.446154 458.310233 128.756410 458.325651 129.066667 458.340994 129.376923 458.356246 129.687179 458.371387 129.997436 458.386401 130.307692 458.401270 130.617949 458.415975 130.928205 458.430500 131.238462 458.444827 131.548718 458.458937 131.858974 458.472814 132.169231 458.486438 132.479487 458.499794 132.789744 458.512863 133.100000 458.525626 133.410256 458.538068 133.720513 458.550169 134.030769 458.561912 134.341026 458.573280 134.651282 458.584254 134.961538 458.594817 135.271795 458.604952 135.582051 458.614640 135.892308 458.623863 136.202564 458.632605 136.512821 458.640847 136.823077 458.648572 137.133333 458.655761 137.443590 458.662398 137.753846 458.668464 138.064103 458.673942 138.374359 458.678814 138.684615 458.683063 138.994872 458.686669 139.305128 458.689617 139.615385 458.691888 139.925641 458.693464 140.235897 458.694328 140.546154 458.694462 140.856410 458.693848 141.166667 458.692469 141.476923 458.690306 141.787179 458.687343 142.097436 458.683561 142.407692 458.678942 142.717949 458.673470 143.028205 458.667126 143.338462 458.659892 143.648718 458.651751 143.958974 458.642685 144.269231 458.632676 144.579487 458.621708 144.889744 458.609760 145.200000 458.596818 145.510256 458.582861 145.820513 458.567873 146.130769 458.551837 146.441026 458.534733 146.751282 458.516546 147.061538 458.497256 147.371795 458.476846 147.682051 458.455298 147.992308 458.432596 148.302564 458.408720 148.612821 458.383654 148.923077 458.357379 149.233333 458.329878 149.543590 458.301133 149.853846 458.271126 150.164103 458.239840 150.474359 458.207257 150.784615 458.173359 151.094872 458.138129 151.405128 458.101548 151.715385 458.063600 152.025641 458.024266 152.335897 457.983528 152.646154 457.941370 152.956410 457.897772 153.266667 457.852718 153.576923 457.806190 153.887179 457.758170 154.197436 457.708640 154.507692 457.657582 154.817949 457.604980 155.128205 457.550815 155.438462 457.495069 155.748718 457.437725 156.058974 457.378764 156.369231 457.318170 156.679487 457.255925 156.989744 457.192010 157.300000 457.126409 157.610256 457.059103 157.920513 456.990074 158.230769 456.919306 158.541026 456.846779 158.851282 456.772478 159.161538 456.696383 159.471795 456.618477 159.782051 456.538742 160.092308 456.457161 160.402564 456.373716 160.712821 456.288389 161.023077 456.201163 161.333333 456.112019 161.643590 456.020940 161.953846 455.927909 162.264103 455.832907 162.574359 455.735917 162.884615 455.636921 163.194872 455.535902 163.505128 455.432841 163.815385 455.327722 164.125641 455.220525 164.435897 455.111234 164.746154 454.999831 165.056410 454.886298 165.366667 454.770618 165.676923 454.652772 165.987179 454.532743 166.297436 454.410513 166.607692 454.286065 166.917949 454.159381 167.228205 454.030442 167.538462 453.899232 167.848718 453.765733 168.158974 453.629926 168.469231 453.491795 168.779487 453.351321 169.089744 453.208487 169.400000 453.063280 169.710256 452.915706 170.020513 452.765776 170.330769 452.613502 170.641026 452.458894 170.951282 452.301963 171.261538 452.142722 171.571795 451.981180 171.882051 451.817350 172.192308 451.651242 172.502564 451.482866 172.812821 451.312236 173.123077 451.139361 173.433333 450.964252 173.743590 450.786921 174.053846 450.607379 174.364103 450.425638 174.674359 450.241707 174.984615 450.055599 175.294872 449.867324 175.605128 449.676893 175.915385 449.484318 176.225641 449.289610 176.535897 449.092780 176.846154 448.893839 177.156410 448.692798 177.466667 448.489669 177.776923 448.284462 178.087179 448.077188 178.397436 447.867859 178.707692 447.656486 179.017949 447.443079 179.328205 447.227651 179.638462 447.010212 179.948718 446.790773 180.258974 446.569345 180.569231 446.345940 180.879487 446.120569 181.189744 445.893243 181.500000 445.663972 181.810256 445.432768 182.120513 445.199643 182.430769 444.964607 182.741026 444.727671 183.051282 444.488847 183.361538 444.248146 183.671795 444.005578 183.982051 443.761155 184.292308 443.514888 184.602564 443.266789 184.912821 443.016867 185.223077 442.765135 185.533333 442.511604 185.843590 442.256284 186.153846 441.999187 186.464103 441.740324 186.774359 441.479706 187.084615 441.217344 187.394872 440.953250 187.705128 440.687434 188.015385 440.419907 188.325641 440.150681 188.635897 439.879767 188.946154 439.607176 189.256410 439.332919 189.566667 439.057006 189.876923 438.779451 190.187179 438.500262 190.497436 438.219453 190.807692 437.937032 191.117949 437.653013 191.428205 437.367406 191.738462 437.080221 192.048718 436.791471 192.358974 436.501166 192.669231 436.209318 192.979487 435.915937 193.289744 435.621034 193.600000 435.324622 193.910256 435.026710 194.220513 434.727310 194.530769 434.426434 194.841026 434.124092 195.151282 433.820295 195.461538 433.515055 195.771795 433.208382 196.082051 432.900289 196.392308 432.590785 196.702564 432.279882 197.012821 431.967592 197.323077 431.653924 197.633333 431.338891 197.943590 431.022504 198.253846 430.704773 198.564103 430.385711 198.874359 430.065327 199.184615 429.743633 199.494872 429.420640 199.805128 429.096359 200.115385 428.770802 200.425641 428.443980 200.735897 428.115903 201.046154 427.786583 201.356410 427.456031 201.666667 427.124258 201.976923 426.791275 202.287179 426.457093 202.597436 426.121724 202.907692 425.785179 203.217949 425.447468 203.528205 425.108602 203.838462 424.768594 204.148718 424.427454 204.458974 424.085193 204.769231 423.741822 205.079487 423.397353 205.389744 423.051796 205.700000 422.705163 206.010256 422.357465 206.320513 422.008712 206.630769 421.658917 206.941026 421.308090 207.251282 420.956242 207.561538 420.603384 207.871795 420.249529 208.182051 419.894685 208.492308 419.538866 208.802564 419.182081 209.112821 418.824343 209.423077 418.465662 209.733333 418.106049 210.043590 417.745515 210.353846 417.384072 210.664103 417.021731 210.974359 416.658502 211.284615 416.294398 211.594872 415.929428 211.905128 415.563605 212.215385 415.196939 212.525641 414.829441 212.835897 414.461123 213.146154 414.091995 213.456410 413.722070 213.766667 413.351357 214.076923 412.979869 214.387179 412.607615 214.697436 412.234608 215.007692 411.860858 215.317949 411.486377 215.628205 411.111175 215.938462 410.735265 216.248718 410.358656 216.558974 409.981360 216.869231 409.603389 217.179487 409.224752 217.489744 408.845463 217.800000 408.465530 218.110256 408.084967 218.420513 407.703783 218.730769 407.321990 219.041026 406.939599 219.351282 406.556622 219.661538 406.173068 219.971795 405.788950 220.282051 405.404279 220.592308 405.019065 220.902564 404.633321 221.212821 404.247056 221.523077 403.860282 221.833333 403.473010 222.143590 403.085252 222.453846 402.697018 222.764103 402.308319 223.074359 401.919168 223.384615 401.529574 223.694872 401.139549 224.005128 400.749104 224.315385 400.358250 224.625641 399.966999 224.935897 399.575361 225.246154 399.183347 225.556410 398.790969 225.866667 398.398238 226.176923 398.005165 226.487179 397.611762 226.797436 397.218038 227.107692 396.824005 227.417949 396.429675 227.728205 396.035059 228.038462 395.640167 228.348718 395.245011 228.658974 394.849602 228.969231 394.453951 229.279487 394.058069 229.589744 393.661968 229.900000 393.265658 230.210256 392.869150 230.520513 392.472456 230.830769 392.075587 231.141026 391.678554 231.451282 391.281368 231.761538 390.884040 232.071795 390.486582 232.382051 390.089004 232.692308 389.691317 233.002564 389.293534 233.312821 388.895664 233.623077 388.497719 233.933333 388.099710 234.243590 387.701648 234.553846 387.303544 234.864103 386.905410 235.174359 386.507257 235.484615 386.109095 235.794872 385.710936 236.105128 385.312791 236.415385 384.914671 236.725641 384.516587 237.035897 384.118550 237.346154 383.720572 237.656410 383.322664 237.966667 382.924836 238.276923 382.527100 238.587179 382.129467 238.897436 381.731948 239.207692 381.334554 239.517949 380.937297 239.828205 380.540187 240.138462 380.143235 240.448718 379.746454 240.758974 379.349853 241.069231 378.953444 241.379487 378.557238 241.689744 378.161246 242.000000 377.765479 242.310256 377.369949 242.620513 376.974667 242.930769 376.579643 243.241026 376.184889 243.551282 375.790416 243.861538 375.396235 244.171795 375.002358 244.482051 374.608794 244.792308 374.215556 245.102564 373.822655 245.412821 373.430101 245.723077 373.037906 246.033333 372.646081 246.343590 372.254638 246.653846 371.863586 246.964103 371.472937 247.274359 371.082697 247.584615 370.692872 247.894872 370.303467 248.205128 369.914490 248.515385 369.525945 248.825641 369.137839 249.135897 368.750177 249.446154 368.362966 249.756410 367.976210 250.066667 367.589917 250.376923 367.204091 250.687179 366.818739 250.997436 366.433866 251.307692 366.049479 251.617949 365.665583 251.928205 365.282184 252.238462 364.899289 252.548718 364.516902 252.858974 364.135029 253.169231 363.753678 253.479487 363.372852 253.789744 362.992559 254.100000 362.612805 254.410256 362.233594 254.720513 361.854933 255.030769 361.476828 255.341026 361.099284 255.651282 360.722308 255.961538 360.345906 256.271795 359.970082 256.582051 359.594844 256.892308 359.220196 257.202564 358.846145 257.512821 358.472697 257.823077 358.099858 258.133333 357.727632 258.443590 357.356028 258.753846 356.985049 259.064103 356.614702 259.374359 356.244993 259.684615 355.875927 259.994872 355.507511 260.305128 355.139751 260.615385 354.772652 260.925641 354.406220 261.235897 354.040461 261.546154 353.675381 261.856410 353.310985 262.166667 352.947280 262.476923 352.584272 262.787179 352.221966 263.097436 351.860368 263.407692 351.499484 263.717949 351.139320 264.028205 350.779882 264.338462 350.421175 264.648718 350.063206 264.958974 349.705981 265.269231 349.349504 265.579487 348.993783 265.889744 348.638822 266.200000 348.284628 266.510256 347.931207 266.820513 347.578565 267.130769 347.226707 267.441026 346.875639 267.751282 346.525367 268.061538 346.175897 268.371795 345.827235 268.682051 345.479387 268.992308 345.132359 269.302564 344.786155 269.612821 344.440783 269.923077 344.096249 270.233333 343.752557 270.543590 343.409714 270.853846 343.067726 271.164103 342.726598 271.474359 342.386337 271.784615 342.046948 272.094872 341.708438 272.405128 341.370811 272.715385 341.034075 273.025641 340.698234 273.335897 340.363295 273.646154 340.029263 273.956410 339.696145 274.266667 339.363946 274.576923 339.032672 274.887179 338.702329 275.197436 338.372923 275.507692 338.044459 275.817949 337.716944 276.128205 337.390384 276.438462 337.064783 276.748718 336.740149 277.058974 336.416487 277.369231 336.093803 277.679487 335.772102 277.989744 335.451391 278.300000 335.131676 278.610256 334.812961 278.920513 334.495254 279.230769 334.178560 279.541026 333.862885 279.851282 333.548235 280.161538 333.234615 280.471795 332.922032 280.782051 332.610491 281.092308 332.299998 281.402564 331.990559 281.712821 331.682181 282.023077 331.374868 282.333333 331.068626 282.643590 330.763463 282.953846 330.459382 283.264103 330.156391 283.574359 329.854495 283.884615 329.553700 284.194872 329.254012 284.505128 328.955436 284.815385 328.657979 285.125641 328.361647 285.435897 328.066445 285.746154 327.772379 286.056410 327.479454 286.366667 327.187678 286.676923 326.897056 286.987179 326.607593 287.297436 326.319296 287.607692 326.032169 287.917949 325.746221 288.228205 325.461455 288.538462 325.177878 288.848718 324.895496 289.158974 324.614314 289.469231 324.334339 289.779487 324.055576 290.089744 323.778032 290.400000 323.501711 290.710256 323.226621 291.020513 322.952766 291.330769 322.680154 291.641026 322.408788 291.951282 322.138676 292.261538 321.869823 292.571795 321.602236 292.882051 321.335919 293.192308 321.070879 293.502564 320.807122 293.812821 320.544654 294.123077 320.283480 294.433333 320.023606 294.743590 319.765039 295.053846 319.507783 295.364103 319.251845 295.674359 318.997231 295.984615 318.743947 296.294872 318.491998 296.605128 318.241391 296.915385 317.992131 297.225641 317.744223 297.535897 317.497675 297.846154 317.252492 298.156410 317.008679 298.466667 316.766243 298.776923 316.525189 299.087179 316.285523 299.397436 316.047251 299.707692 315.810380 300.017949 315.574914 300.328205 315.340860 300.638462 315.108223 300.948718 314.877010 301.258974 314.647226 301.569231 314.418877 301.879487 314.191970 302.189744 313.966509 302.500000 313.742501 302.810256 313.519951 303.120513 313.298866 303.430769 313.079251 303.741026 312.861113 304.051282 312.644456 304.361538 312.429288 304.671795 312.215613 304.982051 312.003438 305.292308 311.792768 305.602564 311.583609 305.912821 311.375968 306.223077 311.169850 306.533333 310.965261 306.843590 310.762207 307.153846 310.560693 307.464103 310.360726 307.774359 310.162311 308.084615 309.965455 308.394872 309.770162 308.705128 309.576440 309.015385 309.384293 309.325641 309.193729 309.635897 309.004751 309.946154 308.817368 310.256410 308.631583 310.566667 308.447404 310.876923 308.264835 311.187179 308.083884 311.497436 307.904555 311.807692 307.726855 312.117949 307.550789 312.428205 307.376364 312.738462 307.203585 313.048718 307.032458 313.358974 306.862989 313.669231 306.695183 313.979487 306.529048 314.289744 306.364587 314.600000 306.201809 314.910256 306.040717 315.220513 305.881319 315.530769 305.723619 315.841026 305.567624 316.151282 305.413340 316.461538 305.260773 316.771795 305.109928 317.082051 304.960811 317.392308 304.813428 317.702564 304.667786 318.012821 304.523889 318.323077 304.381744 318.633333 304.241356 318.943590 304.102732 319.253846 303.965877 319.564103 303.830798 319.874359 303.697499 320.184615 303.565988 320.494872 303.436269 320.805128 303.308349 321.115385 303.182233 321.425641 303.057927 321.735897 302.935438 322.046154 302.814771 322.356410 302.695932 322.666667 302.578927 322.976923 302.463761 323.287179 302.350441 323.597436 302.238972 323.907692 302.129360 324.217949 302.021612 324.528205 301.915728 324.838462 301.811693 325.148718 301.709487 325.458974 301.609090 325.769231 301.510482 326.079487 301.413643 326.389744 301.318552 326.700000 301.225190 327.010256 301.133537 327.320513 301.043573 327.630769 300.955277 327.941026 300.868630 328.251282 300.783612 328.561538 300.700202 328.871795 300.618380 329.182051 300.538127 329.492308 300.459423 329.802564 300.382247 330.112821 300.306580 330.423077 300.232400 330.733333 300.159690 331.043590 300.088427 331.353846 300.018593 331.664103 299.950167 331.974359 299.883130 332.284615 299.817460 332.594872 299.753139 332.905128 299.690146 333.215385 299.628461 333.525641 299.568064 333.835897 299.508935 334.146154 299.451054 334.456410 299.394401 334.766667 299.338956 335.076923 299.284699 335.387179 299.231610 335.697436 299.179669 336.007692 299.128856 336.317949 299.079150 336.628205 299.030532 336.938462 298.982982 337.248718 298.936480 337.558974 298.891005 337.869231 298.846538 338.179487 298.803058 338.489744 298.760547 338.800000 298.718982 339.110256 298.678345 339.420513 298.638616 339.730769 298.599774 340.041026 298.561800 340.351282 298.524673 340.661538 298.488373 340.971795 298.452881 341.282051 298.418176 341.592308 298.384238 341.902564 298.351048 342.212821 298.318585 342.523077 298.286828 342.833333 298.255760 343.143590 298.225358 343.453846 298.195603 343.764103 298.166475 344.074359 298.137955 344.384615 298.110021 344.694872 298.082654 345.005128 298.055835 345.315385 298.029542 345.625641 298.003756 345.935897 297.978457 346.246154 297.953625 346.556410 297.929239 346.866667 297.905280 347.176923 297.881728 347.487179 297.858563 347.797436 297.835764 348.107692 297.813312 348.417949 297.791187 348.728205 297.769368 349.038462 297.747835 349.348718 297.726570 349.658974 297.705550 349.969231 297.684757 350.279487 297.664171 350.589744 297.643771 350.900000 297.623537 351.210256 297.603449 351.520513 297.583488 351.830769 297.563633 352.141026 297.543864 352.451282 297.524162 352.761538 297.504505 353.071795 297.484875 353.382051 297.465251 353.692308 297.445613 354.002564 297.425941 354.312821 297.406215 354.623077 297.386415 354.933333 297.366521 355.243590 297.346513 355.553846 297.326370 355.864103 297.306074 356.174359 297.285603 356.484615 297.264938 356.794872 297.244059 357.105128 297.222946 357.415385 297.201578 357.725641 297.179936 358.035897 297.158000 358.346154 297.135749 358.656410 297.113164 358.966667 297.090225 359.276923 297.066910 359.587179 297.043202 359.897436 297.019079 360.207692 296.994521 360.517949 296.969509 360.828205 296.944022 361.138462 296.918040 361.448718 296.891544 361.758974 296.864513 362.069231 296.836927 362.379487 296.808766 362.689744 296.780011 363.000000 296.750640 363.310256 296.720635 363.620513 296.689975 363.930769 296.658640 364.241026 296.626610 364.551282 296.593865 364.861538 296.560384 365.171795 296.526149 365.482051 296.491139 365.792308 296.455334 366.102564 296.418713 366.412821 296.381257 366.723077 296.342946 367.033333 296.303760 367.343590 296.263678 367.653846 296.222681 367.964103 296.180749 368.274359 296.137861 368.584615 296.093998 368.894872 296.049140 369.205128 296.003266 369.515385 295.956356 369.825641 295.908391 370.135897 295.859351 370.446154 295.809215 370.756410 295.757963 371.066667 295.705575 371.376923 295.652032 371.687179 295.597313 371.997436 295.541399 372.307692 295.484268 372.617949 295.425902 372.928205 295.366280 373.238462 295.305382 373.548718 295.243188 373.858974 295.179678 374.169231 295.114833 374.479487 295.048631 374.789744 294.981053 375.100000 294.912079 375.410256 294.841689 375.720513 294.769863 376.030769 294.696581 376.341026 294.621823 376.651282 294.545568 376.961538 294.467797 377.271795 294.388490 377.582051 294.307626 377.892308 294.225187 378.202564 294.141150 378.512821 294.055498 378.823077 293.968209 379.133333 293.879263 379.443590 293.788641 379.753846 293.696323 380.064103 293.602288 380.374359 293.506516 380.684615 293.408988 380.994872 293.309683 381.305128 293.208581 381.615385 293.105663 381.925641 293.000908 382.235897 292.894296 382.546154 292.785807 382.856410 292.675422 383.166667 292.563120 383.476923 292.448880 383.787179 292.332684 384.097436 292.214511 384.407692 292.094341 384.717949 291.972154 385.028205 291.847930 385.338462 291.721648 385.648718 291.593290 385.958974 291.462835 386.269231 291.330262 386.579487 291.195552 386.889744 291.058685 387.200000 290.919640 387.510256 290.778399 387.820513 290.634940 388.130769 290.489243 388.441026 290.341290 388.751282 290.191058 389.061538 290.038530 389.371795 289.883684 389.682051 289.726500 389.992308 289.566959 390.302564 289.405040 390.612821 289.240723 390.923077 289.073989 391.233333 288.904818 391.543590 288.733188 391.853846 288.559081 392.164103 288.382476 392.474359 288.203354 392.784615 288.021693 393.094872 287.837475 393.405128 287.650679 393.715385 287.461284 394.025641 287.269272 394.335897 287.074622 394.646154 286.877314 394.956410 286.677328 395.266667 286.474644 395.576923 286.269241 395.887179 286.061101 396.197436 285.850202 396.507692 285.636525 396.817949 285.420050 397.128205 285.200757 397.438462 284.978626 397.748718 284.753636 398.058974 284.525767 398.369231 284.295001 398.679487 284.061316 398.989744 283.824692 399.300000 283.585110 399.610256 283.342550 399.920513 283.096991 400.230769 282.848413 400.541026 282.596797 400.851282 282.342122 401.161538 282.084369 401.471795 281.823517 401.782051 281.559546 402.092308 281.292443 402.402564 281.022224 402.712821 280.748910 403.023077 280.472523 403.333333 280.193085 403.643590 279.910618 403.953846 279.625144 404.264103 279.336685 404.574359 279.045263 404.884615 278.750900 405.194872 278.453618 405.505128 278.153438 405.815385 277.850384 406.125641 277.544476 406.435897 277.235737 406.746154 276.924189 407.056410 276.609853 407.366667 276.292752 407.676923 275.972907 407.987179 275.650341 408.297436 275.325076 408.607692 274.997133 408.917949 274.666534 409.228205 274.333302 409.538462 273.997458 409.848718 273.659024 410.158974 273.318023 410.469231 272.974476 410.779487 272.628405 411.089744 272.279832 411.400000 271.928780 411.710256 271.575269 412.020513 271.219323 412.330769 270.860962 412.641026 270.500210 412.951282 270.137087 413.261538 269.771617 413.571795 269.403820 413.882051 269.033719 414.192308 268.661336 414.502564 268.286692 414.812821 267.909811 415.123077 267.530713 415.433333 267.149420 415.743590 266.765955 416.053846 266.380340 416.364103 265.992596 416.674359 265.602746 416.984615 265.210811 417.294872 264.816814 417.605128 264.420776 417.915385 264.022719 418.225641 263.622666 418.535897 263.220638 418.846154 262.816657 419.156410 262.410745 419.466667 262.002925 419.776923 261.593217 420.087179 261.181645 420.397436 260.768230 420.707692 260.352993 421.017949 259.935958 421.328205 259.517145 421.638462 259.096578 421.948718 258.674277 422.258974 258.250265 422.569231 257.824564 422.879487 257.397196 423.189744 256.968182 423.500000 256.537545 423.810256 256.105307 424.120513 255.671489 424.430769 255.236114 424.741026 254.799203 425.051282 254.360778 425.361538 253.920863 425.671795 253.479477 425.982051 253.036644 426.292308 252.592385 426.602564 252.146723 426.912821 251.699679 427.223077 251.251275 427.533333 250.801533 427.843590 250.350475 428.153846 249.898123 428.464103 249.444500 428.774359 248.989626 429.084615 248.533525 429.394872 248.076217 429.705128 247.617725 430.015385 247.158072 430.325641 246.697278 430.635897 246.235365 430.946154 245.772357 431.256410 245.308274 431.566667 244.843139 431.876923 244.376974 432.187179 243.909800 432.497436 243.441640 432.807692 242.972515 433.117949 242.502448 433.428205 242.031460 433.738462 241.559574 434.048718 241.086811 434.358974 240.613194 434.669231 240.138743 434.979487 239.663482 435.289744 239.187433 435.600000 238.710616 435.910256 238.233055 436.220513 237.754771 436.530769 237.275785 436.841026 236.796121 437.151282 236.315800 437.461538 235.834844 437.771795 235.353275 438.082051 234.871115 438.392308 234.388385 438.702564 233.905109 439.012821 233.421307 439.323077 232.937002 439.633333 232.452215 439.943590 231.966970 440.253846 231.481287 440.564103 230.995188 440.874359 230.508696 441.184615 230.021833 441.494872 229.534620 441.805128 229.047080 442.115385 228.559234 442.425641 228.071104 442.735897 227.582713 443.046154 227.094082 443.356410 226.605233 443.666667 226.116188 443.976923 225.626970 444.287179 225.137600 444.597436 224.648100 444.907692 224.158492 445.217949 223.668798 445.528205 223.179040 445.838462 222.689240 446.148718 222.199419 446.458974 221.709601 446.769231 221.219807 447.079487 220.730058 447.389744 220.240377 447.700000 219.750786 448.010256 219.261307 448.320513 218.771961 448.630769 218.282771 448.941026 217.793759 449.251282 217.304946 449.561538 216.816354 449.871795 216.328006 450.182051 215.839924 450.492308 215.352129 450.802564 214.864643 451.112821 214.377489 451.423077 213.890687 451.733333 213.404261 452.043590 212.918233 452.353846 212.432623 452.664103 211.947455 452.974359 211.462749 453.284615 210.978529 453.594872 210.494816 453.905128 210.011632 454.215385 209.528999 454.525641 209.046938 454.835897 208.565473 455.146154 208.084624 455.456410 207.604414 455.766667 207.124865 456.076923 206.645999 456.387179 206.167837 456.697436 205.690402 457.007692 205.213715 457.317949 204.737800 457.628205 204.262676 457.938462 203.788367 458.248718 203.314895 458.558974 202.842281 458.869231 202.370547 459.179487 201.899716 459.489744 201.429809 459.800000 200.960849 460.110256 200.492856 460.420513 200.025854 460.730769 199.559864 461.041026 199.094908 461.351282 198.631008 461.661538 198.168186 461.971795 197.706465 462.282051 197.245865 462.592308 196.786409 462.902564 196.328119 463.212821 195.871017 463.523077 195.415124 463.833333 194.960464 464.143590 194.507057 464.453846 194.054926 464.764103 193.604093 465.074359 193.154579 465.384615 192.706407 465.694872 192.259598 466.005128 191.814175 466.315385 191.370160 466.625641 190.927573 466.935897 190.486439 467.246154 190.046777 467.556410 189.608611 467.866667 189.171963 468.176923 188.736853 468.487179 188.303305 468.797436 187.871340 469.107692 187.440980 469.417949 187.012247 469.728205 186.585163 470.038462 186.159751 470.348718 185.736031 470.658974 185.314026 470.969231 184.893758 471.279487 184.475250 471.589744 184.058521 471.900000 183.643596 472.210256 183.230496 472.520513 182.819242 472.830769 182.409857 473.141026 182.002362 473.451282 181.596781 473.761538 181.193133 474.071795 180.791443 474.382051 180.391731 474.692308 179.994019 475.002564 179.598330 475.312821 179.204685 475.623077 178.813106 475.933333 178.423616 476.243590 178.036236 476.553846 177.650989 476.864103 177.267895 477.174359 176.886978 477.484615 176.508259 477.794872 176.131760 478.105128 175.757503 478.415385 175.385510 478.725641 175.015803 479.035897 174.648404 479.346154 174.283335 479.656410 173.920612 479.966667 173.560231 480.276923 173.202181 480.587179 172.846451 480.897436 172.493031 481.207692 172.141911 481.517949 171.793080 481.828205 171.446527 482.138462 171.102243 482.448718 170.760217 482.758974 170.420437 483.069231 170.082895 483.379487 169.747579 483.689744 169.414478 484.000000 169.083583 484.310256 168.754883 484.620513 168.428368 484.930769 168.104026 485.241026 167.781848 485.551282 167.461824 485.861538 167.143941 486.171795 166.828191 486.482051 166.514563 486.792308 166.203046 487.102564 165.893630 487.412821 165.586304 487.723077 165.281057 488.033333 164.977881 488.343590 164.676763 488.653846 164.377694 488.964103 164.080662 489.274359 163.785659 489.584615 163.492672 489.894872 163.201692 490.205128 162.912708 490.515385 162.625710 490.825641 162.340687 491.135897 162.057629 491.446154 161.776525 491.756410 161.497365 492.066667 161.220138 492.376923 160.944835 492.687179 160.671444 492.997436 160.399954 493.307692 160.130357 493.617949 159.862640 493.928205 159.596794 494.238462 159.332808 494.548718 159.070672 494.858974 158.810376 495.169231 158.551907 495.479487 158.295258 495.789744 158.040416 496.100000 157.787371 496.410256 157.536114 496.720513 157.286632 497.030769 157.038917 497.341026 156.792958 497.651282 156.548743 497.961538 156.306263 498.271795 156.065507 498.582051 155.826465 498.892308 155.589127 499.202564 155.353480 499.512821 155.119517 499.823077 154.887225 500.133333 154.656594 500.443590 154.427615 500.753846 154.200275 501.064103 153.974566 501.374359 153.750477 501.684615 153.527996 501.994872 153.307114 502.305128 153.087820 502.615385 152.870104 502.925641 152.653955 503.235897 152.439363 503.546154 152.226317 503.856410 152.014807 504.166667 151.804822 504.476923 151.596353 504.787179 151.389387 505.097436 151.183916 505.407692 150.979928 505.717949 150.777414 506.028205 150.576361 506.338462 150.376761 506.648718 150.178603 506.958974 149.981876 507.269231 149.786570 507.579487 149.592674 507.889744 149.400178 508.200000 149.209071 508.510256 149.019343 508.820513 148.830983 509.130769 148.643982 509.441026 148.458328 509.751282 148.274011 510.061538 148.091021 510.371795 147.909346 510.682051 147.728978 510.992308 147.549905 511.302564 147.372116 511.612821 147.195602 511.923077 147.020351 512.233333 146.846354 512.543590 146.673600 512.853846 146.502078 513.164103 146.331778 513.474359 146.162690 513.784615 145.994803 514.094872 145.828106 514.405128 145.662590 514.715385 145.498243 515.025641 145.335055 515.335897 145.173017 515.646154 145.012116 515.956410 144.852343 516.266667 144.693688 516.576923 144.536139 516.887179 144.379687 517.197436 144.224321 517.507692 144.070030 517.817949 143.916805 518.128205 143.764634 518.438462 143.613507 518.748718 143.463414 519.058974 143.314344 519.369231 143.166286 519.679487 143.019231 519.989744 142.873168 520.300000 142.728086 520.610256 142.583975 520.920513 142.440825 521.230769 142.298624 521.541026 142.157363 521.851282 142.017031 522.161538 141.877618 522.471795 141.739113 522.782051 141.601505 523.092308 141.464784 523.402564 141.328941 523.712821 141.193963 524.023077 141.059842 524.333333 140.926565 524.643590 140.794124 524.953846 140.662507 525.264103 140.531704 525.574359 140.401704 525.884615 140.272498 526.194872 140.144074 526.505128 140.016422 526.815385 139.889532 527.125641 139.763393 527.435897 139.637994 527.746154 139.513326 528.056410 139.389378 528.366667 139.266139 528.676923 139.143599 528.987179 139.021748 529.297436 138.900574 529.607692 138.780068 529.917949 138.660219 530.228205 138.541016 530.538462 138.422450 530.848718 138.304509 531.158974 138.187183 531.469231 138.070462 531.779487 137.954336 532.089744 137.838793 532.400000 137.723823 532.710256 137.609417 533.020513 137.495562 533.330769 137.382250 533.641026 137.269469 533.951282 137.157209 534.261538 137.045460 534.571795 136.934211 534.882051 136.823451 535.192308 136.713171 535.502564 136.603360 535.812821 136.494006 536.123077 136.385101 536.433333 136.276632 536.743590 136.168591 537.053846 136.060966 537.364103 135.953747 537.674359 135.846923 537.984615 135.740485 538.294872 135.634421 538.605128 135.528721 538.915385 135.423375 539.225641 135.318371 539.535897 135.213701 539.846154 135.109353 540.156410 135.005317 540.466667 134.901582 540.776923 134.798137 541.087179 134.694974 541.397436 134.592080 541.707692 134.489445 542.017949 134.387060 542.328205 134.284913 542.638462 134.182994 542.948718 134.081293 543.258974 133.979799 543.569231 133.878502 543.879487 133.777391 544.189744 133.676456 544.500000 133.575686 544.810256 133.475071 545.120513 133.374600 545.430769 133.274263 545.741026 133.174050 546.051282 133.073950 546.361538 132.973952 546.671795 132.874046 546.982051 132.774222 547.292308 132.674469 547.602564 132.574777 547.912821 132.475135 548.223077 132.375533 548.533333 132.275960 548.843590 132.176406 549.153846 132.076860 549.464103 131.977313 549.774359 131.877752 550.084615 131.778169 550.394872 131.678552 550.705128 131.578892 551.015385 131.479177 551.325641 131.379397 551.635897 131.279542 551.946154 131.179601 552.256410 131.079563 552.566667 130.979419 552.876923 130.879158 553.187179 130.778770 553.497436 130.678243 553.807692 130.577568 554.117949 130.476733 554.428205 130.375729 554.738462 130.274546 555.048718 130.173172 555.358974 130.071597 555.669231 129.969810 555.979487 129.867802 556.289744 129.765562 556.600000 129.663079 556.910256 129.560343 557.220513 129.457344 557.530769 129.354080 557.841026 129.250547 558.151282 129.146743 558.461538 129.042666 558.771795 128.938313 559.082051 128.833683 559.392308 128.728771 559.702564 128.623578 560.012821 128.518098 560.323077 128.412331 560.633333 128.306274 560.943590 128.199925 561.253846 128.093281 561.564103 127.986339 561.874359 127.879098 562.184615 127.771555 562.494872 127.663707 562.805128 127.555553 563.115385 127.447089 563.425641 127.338313 563.735897 127.229224 564.046154 127.119818 564.356410 127.010093 564.666667 126.900047 564.976923 126.789677 565.287179 126.678981 565.597436 126.567956 565.907692 126.456601 566.217949 126.344912 566.528205 126.232888 566.838462 126.120525 567.148718 126.007823 567.458974 125.894777 567.769231 125.781386 568.079487 125.667647 568.389744 125.553558 568.700000 125.439116 569.010256 125.324320 569.320513 125.209166 569.630769 125.093653 569.941026 124.977777 570.251282 124.861537 570.561538 124.744930 570.871795 124.627954 571.182051 124.510606 571.492308 124.392884 571.802564 124.274785 572.112821 124.156307 572.423077 124.037448 572.733333 123.918205 573.043590 123.798577 573.353846 123.678559 573.664103 123.558151 573.974359 123.437349 574.284615 123.316152 574.594872 123.194556 574.905128 123.072560 575.215385 122.950161 575.525641 122.827356 575.835897 122.704144 576.146154 122.580521 576.456410 122.456486 576.766667 122.332037 577.076923 122.207169 577.387179 122.081882 577.697436 121.956173 578.007692 121.830039 578.317949 121.703478 578.628205 121.576488 578.938462 121.449066 579.248718 121.321210 579.558974 121.192917 579.869231 121.064185 580.179487 120.935012 580.489744 120.805395 580.800000 120.675332 581.110256 120.544820 581.420513 120.413857 581.730769 120.282441 582.041026 120.150569 582.351282 120.018239 582.661538 119.885448 582.971795 119.752194 583.282051 119.618475 583.592308 119.484288 583.902564 119.349631 584.212821 119.214501 584.523077 119.078896 584.833333 118.942813 585.143590 118.806251 585.453846 118.669207 585.764103 118.531678 586.074359 118.393662 586.384615 118.255156 586.694872 118.116159 587.005128 117.976667 587.315385 117.836679 587.625641 117.696191 587.935897 117.555203 588.246154 117.413710 588.556410 117.271711 588.866667 117.129204 589.176923 116.986185 589.487179 116.842653 589.797436 116.698605 590.107692 116.554039 590.417949 116.408952 590.728205 116.263342 591.038462 116.117207 591.348718 115.970543 591.658974 115.823350 591.969231 115.675624 592.279487 115.527362 592.589744 115.378563 592.900000 115.229225 593.210256 115.079344 593.520513 114.928918 593.830769 114.777945 594.141026 114.626423 594.451282 114.474349 594.761538 114.321720 595.071795 114.168535 595.382051 114.014791 595.692308 113.860485 596.002564 113.705615 596.312821 113.550179 596.623077 113.394175 596.933333 113.237599 597.243590 113.080450 597.553846 112.922724 597.864103 112.764421 598.174359 112.605536 598.484615 112.446069 598.794872 112.286016 599.105128 112.125375 599.415385 111.964144 599.725641 111.802320 600.035897 111.639901 600.346154 111.476884 600.656410 111.313267 600.966667 111.149048 601.276923 110.984225 601.587179 110.818794 601.897436 110.652753 602.207692 110.486101 602.517949 110.318834 602.828205 110.150951 603.138462 109.982448 603.448718 109.813324 603.758974 109.643576 604.069231 109.473201 604.379487 109.302198 604.689744 109.130563 605.000000 108.958295 605.310256 108.785391 605.620513 108.611849 605.930769 108.437666 606.241026 108.262839 606.551282 108.087367 606.861538 107.911247 607.171795 107.734477 607.482051 107.557054 607.792308 107.378976 608.102564 107.200240 608.412821 107.020844 608.723077 106.840785 609.033333 106.660062 609.343590 106.478672 609.653846 106.296612 609.964103 106.113880 610.274359 105.930474 610.584615 105.746390 610.894872 105.561628 611.205128 105.376184 611.515385 105.190056 611.825641 105.003241 612.135897 104.815738 612.446154 104.627544 612.756410 104.438655 613.066667 104.249071 613.376923 104.058789 613.687179 103.867805 613.997436 103.676118 614.307692 103.483726 614.617949 103.290626 614.928205 103.096815 615.238462 102.902291 615.548718 102.707052 615.858974 102.511095 616.169231 102.314419 616.479487 102.117020 616.789744 101.918896 617.100000 101.720044 617.410256 101.520464 617.720513 101.320151 618.030769 101.119103 618.341026 100.917319 618.651282 100.714795 618.961538 100.511530 619.271795 100.307521 619.582051 100.102765 619.892308 99.897260 620.202564 99.691004 620.512821 99.483994 620.823077 99.276228 621.133333 99.067704 621.443590 98.858419 621.753846 98.648371 622.064103 98.437556 622.374359 98.225974 622.684615 98.013621 622.994872 97.800496 623.305128 97.586595 623.615385 97.371916 623.925641 97.156457 624.235897 96.940216 624.546154 96.723190 624.856410 96.505376 625.166667 96.286773 625.476923 96.067377 625.787179 95.847187 626.097436 95.626200 626.407692 95.404414 626.717949 95.181826 627.028205 94.958434 627.338462 94.734236 627.648718 94.509228 627.958974 94.283409 628.269231 94.056777 628.579487 93.829328 628.889744 93.601060 629.200000 93.371972 629.510256 93.142061 629.820513 92.911323 630.130769 92.679758 630.441026 92.447361 630.751282 92.214132 631.061538 91.980068 631.371795 91.745166 631.682051 91.509423 631.992308 91.272838 632.302564 91.035409 632.612821 90.797131 632.923077 90.558004 633.233333 90.318025 633.543590 90.077191 633.853846 89.835500 634.164103 89.592950 634.474359 89.349538 634.784615 89.105263 635.094872 88.860127 635.405128 88.614134 635.715385 88.367287 636.025641 88.119589 636.335897 87.871045 636.646154 87.621657 636.956410 87.371429 637.266667 87.120365 637.576923 86.868468 637.887179 86.615741 638.197436 86.362187 638.507692 86.107812 638.817949 85.852616 639.128205 85.596605 639.438462 85.339782 639.748718 85.082150 640.058974 84.823712 640.369231 84.564473 640.679487 84.304435 640.989744 84.043602 641.300000 83.781977 641.610256 83.519564 641.920513 83.256367 642.230769 82.992388 642.541026 82.727631 642.851282 82.462100 643.161538 82.195799 643.471795 81.928729 643.782051 81.660896 644.092308 81.392303 644.402564 81.122952 644.712821 80.852848 645.023077 80.581994 645.333333 80.310393 645.643590 80.038049 645.953846 79.764965 646.264103 79.491144 646.574359 79.216591 646.884615 78.941309 647.194872 78.665301 647.505128 78.388570 647.815385 78.111120 648.125641 77.832955 648.435897 77.554077 648.746154 77.274491 649.056410 76.994200 649.366667 76.713207 649.676923 76.431515 649.987179 76.149129 650.297436 75.866052 650.607692 75.582287 650.917949 75.297837 651.228205 75.012706 651.538462 74.726898 651.848718 74.440415 652.158974 74.153263 652.469231 73.865442 652.779487 73.576959 653.089744 73.287815 653.400000 72.998014 653.710256 72.707560 654.020513 72.416455 654.330769 72.124705 654.641026 71.832312 654.951282 71.539279 655.261538 71.245610 655.571795 70.951308 655.882051 70.656377 656.192308 70.360821 656.502564 70.064642 656.812821 69.767845 657.123077 69.470432 657.433333 69.172408 657.743590 68.873775 658.053846 68.574537 658.364103 68.274698 658.674359 67.974261 658.984615 67.673229 659.294872 67.371606 659.605128 67.069395 659.915385 66.766600 660.225641 66.463225 660.535897 66.159272 660.846154 65.854745 661.156410 65.549648 661.466667 65.243984 661.776923 64.937757 662.087179 64.630969 662.397436 64.323625 662.707692 64.015728 663.017949 63.707282 663.328205 63.398289 663.638462 63.088753 663.948718 62.778679 664.258974 62.468068 664.569231 62.156925 664.879487 61.845253 665.189744 61.533056 665.500000 61.220337 665.810256 60.907099 666.120513 60.593346 666.430769 60.279082 666.741026 59.964309 667.051282 59.649032 667.361538 59.333254 667.671795 59.016977 667.982051 58.700207 668.292308 58.382946 668.602564 58.065197 668.912821 57.746964 669.223077 57.428251 669.533333 57.109060 669.843590 56.789397 670.153846 56.469263 670.464103 56.148662 670.774359 55.827598 671.084615 55.506074 671.394872 55.184095 671.705128 54.861662 672.015385 54.538780 672.325641 54.215452 672.635897 53.891681 672.946154 53.567472 673.256410 53.242827 673.566667 52.917749 673.876923 52.592244 674.187179 52.266313 674.497436 51.939960 674.807692 51.613189 675.117949 51.286003 675.428205 50.958406 675.738462 50.630401 676.048718 50.301991 676.358974 49.973181 676.669231 49.643973 676.979487 49.314371 677.289744 48.984378 677.600000 48.653998 677.910256 48.323235 678.220513 47.992091 678.530769 47.660570 678.841026 47.328677 679.151282 46.996413 679.461538 46.663783 679.771795 46.330789 680.082051 45.997437 680.392308 45.663728 680.702564 45.329667 681.012821 44.995256 681.323077 44.660500 681.633333 44.325402 681.943590 43.989965 682.253846 43.654192 682.564103 43.318088 682.874359 42.981655 683.184615 42.644898 683.494872 42.307819 683.805128 41.970422 684.115385 41.632710 684.425641 41.294687 684.735897 40.956357 685.046154 40.617722 685.356410 40.278787 685.666667 39.939554 685.976923 39.600028 686.287179 39.260211 686.597436 38.920107 686.907692 38.579720 687.217949 38.239053 687.528205 37.898109 687.838462 37.556892 688.148718 37.215406 688.458974 36.873653 688.769231 36.531638 689.079487 36.189363 689.389744 35.846833 689.700000 35.504050 690.010256 35.161019 690.320513 34.817742 690.630769 34.474223 690.941026 34.130465 691.251282 33.786473 691.561538 33.442248 691.871795 33.097796 692.182051 32.753119 692.492308 32.408221 692.802564 32.063105 693.112821 31.717774 693.423077 31.372233 693.733333 31.026484 694.043590 30.680532 694.353846 30.334379 694.664103 29.988029 694.974359 29.641485 695.284615 29.294751 695.594872 28.947831 695.905128 28.600727 696.215385 28.253444 696.525641 27.905984 696.835897 27.558351 697.146154 27.210549 697.456410 26.862581 697.766667 26.514451 698.076923 26.166162 698.387179 25.817717 698.697436 25.469120 699.007692 25.120374 699.317949 24.771483 699.628205 24.422451 699.938462 24.073280 700.248718 23.723974 700.558974 23.374537 700.869231 23.024972 701.179487 22.675283 701.489744 22.325473 701.800000 21.975545 702.110256 21.625503 702.420513 21.275350 702.730769 20.925091 703.041026 20.574727 703.351282 20.224264 703.661538 19.873703 703.971795 19.523049 704.282051 19.172306 704.592308 18.821476 704.902564 18.470562 705.212821 18.119570 705.523077 17.768501 705.833333 17.417360 706.143590 17.066150 706.453846 16.714874 706.764103 16.363536 707.074359 16.012139 707.384615 15.660686 707.694872 15.309182 708.005128 14.957630 708.315385 14.606032 708.625641 14.254393 708.935897 13.902716 709.246154 13.551005 709.556410 13.199262 709.866667 12.847492 710.176923 12.495697 710.487179 12.143882 710.797436 11.792049 711.107692 11.440203 711.417949 11.088346 711.728205 10.736482 712.038462 10.384615 712.038462 540.000000" /></g></g><g class="titles" /><g class="plot overlay" transform="translate(54, 20)"><g class="series serie-0 color-0"><g class="dots"><circle class="dot reactive tooltip-trigger" cx="13.96153846153846" cy="529.6153846153846" r="2.5" /><desc class="value">141,327,137(kWh)</desc><desc class="x top">13.96153846153846</desc><desc class="y top">529.6153846153846</desc><desc class="x_label">2549</desc></g><g class="dots"><circle class="dot reactive tooltip-trigger" cx="91.52564102564101" cy="461.0473368532398" r="2.5" /><desc class="value">156,412,012(kWh)</desc><desc class="x top">91.52564102564101</desc><desc class="y top">461.0473368532398</desc><desc class="x_label">2550</desc></g><g class="dots"><circle class="dot reactive tooltip-trigger" cx="169.08974358974356" cy="453.2084872230282" r="2.5" /><desc class="value">158,136,548(kWh)</desc><desc class="x top">169.08974358974356</desc><desc class="y top">453.2084872230282</desc><desc class="x_label">2551</desc></g><g class="dots"><circle class="dot reactive tooltip-trigger" cx="246.65384615384613" cy="371.8635858393496" r="2.5" /><desc class="value">176,032,313(kWh)</desc><desc class="x top">246.65384615384613</desc><desc class="y top">371.8635858393496</desc><desc class="x_label">2552</desc></g><g class="dots"><circle class="dot reactive tooltip-trigger" cx="324.21794871794873" cy="302.02161182976056" r="2.5" /><desc class="value">191,397,450(kWh)</desc><desc class="x top">324.21794871794873</desc><desc class="y top">302.02161182976056</desc><desc class="x_label">2553</desc></g><g class="dots"><circle class="dot reactive tooltip-trigger" cx="401.78205128205127" cy="281.55954591437757" r="2.5" /><desc class="value">195,899,076(kWh)</desc><desc class="x left top">401.78205128205127</desc><desc class="y left top">281.55954591437757</desc><desc class="x_label">2554</desc></g><g class="dots"><circle class="dot reactive tooltip-trigger" cx="479.3461538461538" cy="174.2833348969122" r="2.5" /><desc class="value">219,499,693(kWh)</desc><desc class="x left">479.3461538461538</desc><desc class="y left">174.2833348969122</desc><desc class="x_label">2555</desc></g><g class="dots"><circle class="dot reactive tooltip-trigger" cx="556.9102564102565" cy="129.56034265073504" r="2.5" /><desc class="value">229,338,689(kWh)</desc><desc class="x left">556.9102564102565</desc><desc class="y left">129.56034265073504</desc><desc class="x_label">2556</desc></g><g class="dots"><circle class="dot reactive tooltip-trigger" cx="634.474358974359" cy="89.34953806353991" r="2.5" /><desc class="value">238,185,010(kWh)</desc><desc class="x left">634.474358974359</desc><desc class="y left">89.34953806353991</desc><desc class="x_label">2557</desc></g><g class="dots"><circle class="dot reactive tooltip-trigger" cx="712.0384615384615" cy="10.384615384615358" r="2.5" /><desc class="value">255,557,183(kWh)</desc><desc class="x left">712.0384615384615</desc><desc class="y left">10.384615384615358</desc><desc class="x_label">2558</desc></g></g></g><g class="plot text-overlay" transform="translate(54, 20)"><g class="series serie-0 color-0" /></g><g class="plot tooltip-overlay" transform="translate(54, 20)"><g class="tooltip" style="opacity: 0" transform="translate(0 0)"><rect class="tooltip-box" height="0" rx="0" ry="0" width="0" /><g class="text" /></g></g></g></svg>