<?xml version='1.0' encoding='utf-8'?>
<svg xmlns:xlink="http://www.w3.org/1999/xlink" class="pygal-chart" id="chart-728876d6-aa15-4e08-9902-e6d68fac1af9" viewBox="0 0 800 600" xmlns="http://www.w3.org/2000/svg"><!--Generated with pygal 2.3.0 (etree) ©Kozea 2012-2016 on 2016-12-08--><!--http://pygal.org--><!--http://github.com/Kozea/pygal--><defs><style type="text/css">#chart-728876d6-aa15-4e08-9902-e6d68fac1af9{-webkit-user-select:none;-webkit-font-smoothing:antialiased;font-family:Consolas,"Liberation Mono",Menlo,Courier,monospace}#chart-728876d6-aa15-4e08-9902-e6d68fac1af9 .title{font-family:Consolas,"Liberation Mono",Menlo,Courier,monospace;font-size:16px}#chart-728876d6-aa15-4e08-9902-e6d68fac1af9 .legends .legend text{font-family:Consolas,"Liberation Mono",Menlo,Courier,monospace;font-size:14px}#chart-728876d6-aa15-4e08-9902-e6d68fac1af9 .axis text{font-family:Consolas,"Liberation Mono",Menlo,Courier,monospace;font-size:10px}#chart-728876d6-aa15-4e08-9902-e6d68fac1af9 .axis text.major{font-family:Consolas,"Liberation Mono",Menlo,Courier,monospace;font-size:10px}#chart-728876d6-aa15-4e08-9902-e6d68fac1af9 .text-overlay text.value{font-family:Consolas,"Liberation Mono",Menlo,Courier,monospace;font-size:16px}#chart-728876d6-aa15-4e08-9902-e6d68fac1af9 .text-overlay text.label{font-family:Consolas,"Liberation Mono",Menlo,Courier,monospace;font-size:10px}#chart-728876d6-aa15-4e08-9902-e6d68fac1af9 .tooltip{font-family:Consolas,"Liberation Mono",Menlo,Courier,monospace;font-size:14px}#chart-728876d6-aa15-4e08-9902-e6d68fac1af9 text.no_data{font-family:Consolas,"Liberation Mono",Menlo,Courier,monospace;font-size:64px}
#chart-728876d6-aa15-4e08-9902-e6d68fac1af9{background-color:rgba(249,249,249,1)}#chart-728876d6-aa15-4e08-9902-e6d68fac1af9 path,#chart-728876d6-aa15-4e08-9902-e6d68fac1af9 line,#chart-728876d6-aa15-4e08-9902-e6d68fac1af9 rect,#chart-728876d6-aa15-4e08-9902-e6d68fac1af9 circle{-webkit-transition:150ms;-moz-transition:150ms;transition:150ms}#chart-728876d6-aa15-4e08-9902-e6d68fac1af9 .graph &gt; .background{fill:rgba(249,249,249,1)}#chart-728876d6-aa15-4e08-9902-e6d68fac1af9 .plot &gt; .background{fill:rgba(255,255,255,1)}#chart-728876d6-aa15-4e08-9902-e6d68fac1af9 .graph{fill:rgba(0,0,0,.87)}#chart-728876d6-aa15-4e08-9902-e6d68fac1af9 text.no_data{fill:rgba(0,0,0,1)}#chart-728876d6-aa15-4e08-9902-e6d68fac1af9 .title{fill:rgba(0,0,0,1)}#chart-728876d6-aa15-4e08-9902-e6d68fac1af9 .legends .legend text{fill:rgba(0,0,0,.87)}#chart-728876d6-aa15-4e08-9902-e6d68fac1af9 .legends .legend:hover text{fill:rgba(0,0,0,1)}#chart-728876d6-aa15-4e08-9902-e6d68fac1af9 .axis .line{stroke:rgba(0,0,0,1)}#chart-728876d6-aa15-4e08-9902-e6d68fac1af9 .axis .guide.line{stroke:rgba(0,0,0,.54)}#chart-728876d6-aa15-4e08-9902-e6d68fac1af9 .axis .major.line{stroke:rgba(0,0,0,.87)}#chart-728876d6-aa15-4e08-9902-e6d68fac1af9 .axis text.major{fill:rgba(0,0,0,1)}#chart-728876d6-aa15-4e08-9902-e6d68fac1af9 .axis.y .guides:hover .guide.line,#chart-728876d6-aa15-4e08-9902-e6d68fac1af9 .line-graph .axis.x .guides:hover .guide.line,#chart-728876d6-aa15-4e08-9902-e6d68fac1af9 .stackedline-graph .axis.x .guides:hover .guide.line,#chart-728876d6-aa15-4e08-9902-e6d68fac1af9 .xy-graph .axis.x .guides:hover .guide.line{stroke:rgba(0,0,0,1)}#chart-728876d6-aa15-4e08-9902-e6d68fac1af9 .axis .guides:hover text{fill:rgba(0,0,0,1)}#chart-728876d6-aa15-4e08-9902-e6d68fac1af9 .reactive{fill-opacity:.7;stroke-opacity:.8}#chart-728876d6-aa15-4e08-9902-e6d68fac1af9 .ci{stroke:rgba(0,0,0,.87)}#chart-728876d6-aa15-4e08-9902-e6d68fac1af9 .reactive.active,#chart-728876d6-aa15-4e08-9902-e6d68fac1af9 .active .reactive{fill-opacity:.8;stroke-opacity:.9;stroke-width:4}#chart-728876d6-aa15-4e08-9902-e6d68fac1af9 .ci .reactive.active{stroke-width:1.5}#chart-728876d6-aa15-4e08-9902-e6d68fac1af9 .series text{fill:rgba(0,0,0,1)}#chart-728876d6-aa15-4e08-9902-e6d68fac1af9 .tooltip rect{fill:rgba(255,255,255,1);stroke:rgba(0,0,0,1);-webkit-transition:opacity 150ms;-moz-transition:opacity 150ms;transition:opacity 150ms}#chart-728876d6-aa15-4e08-9902-e6d68fac1af9 .tooltip .label{fill:rgba(0,0,0,.87)}#chart-728876d6-aa15-4e08-9902-e6d68fac1af9 .tooltip .label{fill:rgba(0,0,0,.87)}#chart-728876d6-aa15-4e08-9902-e6d68fac1af9 .tooltip .legend{font-size:.8em;fill:rgba(0,0,0,.54)}#chart-728876d6-aa15-4e08-9902-e6d68fac1af9 .tooltip .x_label{font-size:.6em;fill:rgba(0,0,0,1)}#chart-728876d6-aa15-4e08-9902-e6d68fac1af9 .tooltip .xlink{font-size:.5em;text-decoration:underline}#chart-728876d6-aa15-4e08-9902-e6d68fac1af9 .tooltip .value{font-size:1.5em}#chart-728876d6-aa15-4e08-9902-e6d68fac1af9 .bound{font-size:.5em}#chart-728876d6-aa15-4e08-9902-e6d68fac1af9 .max-value{font-size:.75em;fill:rgba(0,0,0,.54)}#chart-728876d6-aa15-4e08-9902-e6d68fac1af9 .map-element{fill:rgba(255,255,255,1);stroke:rgba(0,0,0,.54) !important}#chart-728876d6-aa15-4e08-9902-e6d68fac1af9 .map-element .reactive{fill-opacity:inherit;stroke-opacity:inherit}#chart-728876d6-aa15-4e08-9902-e6d68fac1af9 .color-0,#chart-728876d6-aa15-4e08-9902-e6d68fac1af9 .color-0 a:visited{stroke:#e86fa0;fill:#e86fa0}#chart-728876d6-aa15-4e08-9902-e6d68fac1af9 .text-overlay .color-0 text{fill:black}
#chart-728876d6-aa15-4e08-9902-e6d68fac1af9 text.no_data{text-anchor:middle}#chart-728876d6-aa15-4e08-9902-e6d68fac1af9 .guide.line{fill:none}#chart-728876d6-aa15-4e08-9902-e6d68fac1af9 .centered{text-anchor:middle}#chart-728876d6-aa15-4e08-9902-e6d68fac1af9 .title{text-anchor:middle}#chart-728876d6-aa15-4e08-9902-e6d68fac1af9 .legends .legend text{fill-opacity:1}#chart-728876d6-aa15-4e08-9902-e6d68fac1af9 .axis.x text{text-anchor:middle}#chart-728876d6-aa15-4e08-9902-e6d68fac1af9 .axis.x:not(.web) text[transform]{text-anchor:start}#chart-728876d6-aa15-4e08-9902-e6d68fac1af9 .axis.x:not(.web) text[transform].backwards{text-anchor:end}#chart-728876d6-aa15-4e08-9902-e6d68fac1af9 .axis.y text{text-anchor:end}#chart-728876d6-aa15-4e08-9902-e6d68fac1af9 .axis.y text[transform].backwards{text-anchor:start}#chart-728876d6-aa15-4e08-9902-e6d68fac1af9 .axis.y2 text{text-anchor:start}#chart-728876d6-aa15-4e08-9902-e6d68fac1af9 .axis.y2 text[transform].backwards{text-anchor:end}#chart-728876d6-aa15-4e08-9902-e6d68fac1af9 .axis .guide.line{stroke-dasharray:4,4}#chart-728876d6-aa15-4e08-9902-e6d68fac1af9 .axis .major.guide.line{stroke-dasharray:6,6}#chart-728876d6-aa15-4e08-9902-e6d68fac1af9 .horizontal .axis.y .guide.line,#chart-728876d6-aa15-4e08-9902-e6d68fac1af9 .horizontal .axis.y2 .guide.line,#chart-728876d6-aa15-4e08-9902-e6d68fac1af9 .vertical .axis.x .guide.line{opacity:0}#chart-728876d6-aa15-4e08-9902-e6d68fac1af9 .horizontal .axis.always_show .guide.line,#chart-728876d6-aa15-4e08-9902-e6d68fac1af9 .vertical .axis.always_show .guide.line{opacity:1 !important}#chart-728876d6-aa15-4e08-9902-e6d68fac1af9 .axis.y .guides:hover .guide.line,#chart-728876d6-aa15-4e08-9902-e6d68fac1af9 .axis.y2 .guides:hover .guide.line,#chart-728876d6-aa15-4e08-9902-e6d68fac1af9 .axis.x .guides:hover .guide.line{opacity:1}#chart-728876d6-aa15-4e08-9902-e6d68fac1af9 .axis .guides:hover text{opacity:1}#chart-728876d6-aa15-4e08-9902-e6d68fac1af9 .nofill{fill:none}#chart-728876d6-aa15-4e08-9902-e6d68fac1af9 .subtle-fill{fill-opacity:.2}#chart-728876d6-aa15-4e08-9902-e6d68fac1af9 .dot{stroke-width:1px;fill-opacity:1}#chart-728876d6-aa15-4e08-9902-e6d68fac1af9 .dot.active{stroke-width:5px}#chart-728876d6-aa15-4e08-9902-e6d68fac1af9 .dot.negative{fill:transparent}#chart-728876d6-aa15-4e08-9902-e6d68fac1af9 text,#chart-728876d6-aa15-4e08-9902-e6d68fac1af9 tspan{stroke:none !important}#chart-728876d6-aa15-4e08-9902-e6d68fac1af9 .series text.active{opacity:1}#chart-728876d6-aa15-4e08-9902-e6d68fac1af9 .tooltip rect{fill-opacity:.95;stroke-width:.5}#chart-728876d6-aa15-4e08-9902-e6d68fac1af9 .tooltip text{fill-opacity:1}#chart-728876d6-aa15-4e08-9902-e6d68fac1af9 .showable{visibility:hidden}#chart-728876d6-aa15-4e08-9902-e6d68fac1af9 .showable.shown{visibility:visible}#chart-728876d6-aa15-4e08-9902-e6d68fac1af9 .gauge-background{fill:rgba(229,229,229,1);stroke:none}#chart-728876d6-aa15-4e08-9902-e6d68fac1af9 .bg-lines{stroke:rgba(249,249,249,1);stroke-width:2px}</style><script type="text/javascript">window.pygal = window.pygal || {};window.pygal.config = window.pygal.config || {};window.pygal.config['728876d6-aa15-4e08-9902-e6d68fac1af9'] = {"no_data_text": "No data", "no_prefix": false, "xrange": null, "print_values_position": "center", "truncate_label": null, "x_labels": ["2549", "2550", "2551", "2552", "2553", "2554", "2555", "2556", "2557", "2558"], "title": null, "force_uri_protocol": "https", "defs": [], "formatter": null, "classes": ["pygal-chart"], "y_labels": null, "rounded_bars": null, "explicit_size": false, "x_labels_major_every": null, "legend_at_bottom_columns": null, "stroke_style": null, "half_pie": false, "spacing": 10, "tooltip_fancy_mode": true, "inverse_y_axis": false, "width": 800, "inner_radius": 0, "interpolation_parameters": {}, "tooltip_border_radius": 0, "style": {"no_data_font_family": "Consolas, \"Liberation Mono\", Menlo, Courier, monospace", "tooltip_font_size": 14, "tooltip_font_family": "Consolas, \"Liberation Mono\", Menlo, Courier, monospace", "stroke_opacity_hover": ".9", "legend_font_family": "Consolas, \"Liberation Mono\", Menlo, Courier, monospace", "font_family": "Consolas, \"Liberation Mono\", Menlo, Courier, monospace", "title_font_family": "Consolas, \"Liberation Mono\", Menlo, Courier, monospace", "background": "rgba(249, 249, 249, 1)", "stroke_opacity": ".8", "foreground": "rgba(0, 0, 0, .87)", "value_background": "rgba(229, 229, 229, 1)", "guide_stroke_dasharray": "4,4", "foreground_subtle": "rgba(0, 0, 0, .54)", "opacity_hover": ".8", "value_font_family": "Consolas, \"Liberation Mono\", Menlo, Courier, monospace", "value_label_font_size": 10, "plot_background": "rgba(255, 255, 255, 1)", "ci_colors": [], "label_font_size": 10, "major_label_font_size": 10, "title_font_size": 16, "no_data_font_size": 64, "value_font_size": 16, "value_colors": [], "label_font_family": "Consolas, \"Liberation Mono\", Menlo, Courier, monospace", "major_guide_stroke_dasharray": "6,6", "transition": "150ms", "foreground_strong": "rgba(0, 0, 0, 1)", "colors": ["#e86fa0", "#e88f6f", "#e8df6f", "#a0e86f", "#6fe88f", "#6fe8df", "#6fa0e8", "#8f6fe8", "#df6fe8", "#e86fa0"], "opacity": ".7", "legend_font_size": 14, "value_label_font_family": "Consolas, \"Liberation Mono\", Menlo, Courier, monospace", "major_label_font_family": "Consolas, \"Liberation Mono\", Menlo, Courier, monospace"}, "x_labels_major_count": null, "interpolation_precision": 250, "missing_value_fill_truncation": "x", "stack_from_top": false, "truncate_legend": null, "show_minor_x_labels": true, "print_zeroes": true, "css": ["file://style.css", "file://graph.css"], "y_label_rotation": 0, "legend_at_bottom": false, "print_values": false, "margin_top": null, "max_scale": 16, "allow_interruptions": false, "show_x_labels": true, "strict": false, "show_x_guides": false, "stroke": true, "margin_left": null, "dynamic_print_values": false, "print_labels": false, "show_y_labels": true, "x_labels_major": null, "range": null, "x_label_rotation": 0, "margin": 20, "zero": 0, "include_x_axis": false, "height": 600, "show_minor_y_labels": true, "show_dots": true, "interpolate": "cubic", "show_y_guides": true, "y_labels_major": null, "box_mode": "extremes", "margin_bottom": null, "order_min": null, "legend_box_size": 12, "fill": true, "show_only_major_dots": false, "js": ["//kozea.github.io/pygal.js/2.0.x/pygal-tooltips.min.js"], "x_title": null, "y_labels_major_every": null, "y_labels_major_count": null, "disable_xml_declaration": false, "y_title": null, "logarithmic": false, "pretty_print": false, "min_scale": 4, "dots_size": 2.5, "margin_right": null, "legends": [null], "secondary_range": null, "show_legend": false}</script><script type="text/javascript" xlink:href="https://kozea.github.io/pygal.js/2.0.x/pygal-tooltips.min.js" /></defs><title>Pygal</title><g class="graph stackedline-graph vertical"><rect class="background" height="600" width="800" x="0" y="0" /><g class="plot" transform="translate(54, 20)"><rect class="background" height="540" width="726.0" x="0" y="0" /><g class="axis y"><path class="line" d="M0.000000 540.000000 h726.000000" /><g class="guides"><path class="guide line" d="M0.000000 527.293091 h726.000000" /><text class="" x="-5" y="530.7930905754743">310M</text><title>310M</title></g><g class="guides"><path class="guide line" d="M0.000000 487.571652 h726.000000" /><text class="" x="-5" y="491.07165209724815">320M</text><title>320M</title></g><g class="guides"><path class="guide line" d="M0.000000 447.850214 h726.000000" /><text class="" x="-5" y="451.35021361902204">330M</text><title>330M</title></g><g class="guides"><path class="guide line" d="M0.000000 408.128775 h726.000000" /><text class="" x="-5" y="411.62877514079594">340M</text><title>340M</title></g><g class="guides"><path class="major guide line" d="M0.000000 368.407337 h726.000000" /><text class="major" x="-5" y="371.9073366625698">350M</text><title>350M</title></g><g class="guides"><path class="guide line" d="M0.000000 328.685898 h726.000000" /><text class="" x="-5" y="332.1858981843436">360M</text><title>360M</title></g><g class="guides"><path class="guide line" d="M0.000000 288.964460 h726.000000" /><text class="" x="-5" y="292.4644597061175">370M</text><title>370M</title></g><g class="guides"><path class="guide line" d="M0.000000 249.243021 h726.000000" /><text class="" x="-5" y="252.74302122789135">380M</text><title>380M</title></g><g class="guides"><path class="guide line" d="M0.000000 209.521583 h726.000000" /><text class="" x="-5" y="213.02158274966524">390M</text><title>390M</title></g><g class="guides"><path class="major guide line" d="M0.000000 169.800144 h726.000000" /><text class="major" x="-5" y="173.30014427143914">400M</text><title>400M</title></g><g class="guides"><path class="guide line" d="M0.000000 130.078706 h726.000000" /><text class="" x="-5" y="133.57870579321298">410M</text><title>410M</title></g><g class="guides"><path class="guide line" d="M0.000000 90.357267 h726.000000" /><text class="" x="-5" y="93.85726731498687">420M</text><title>420M</title></g><g class="guides"><path class="guide line" d="M0.000000 50.635829 h726.000000" /><text class="" x="-5" y="54.13582883676071">430M</text><title>430M</title></g><g class="guides"><path class="guide line" d="M0.000000 10.914390 h726.000000" /><text class="" x="-5" y="14.41439035853466">440M</text><title>440M</title></g></g><g class="axis x"><g class="guides"><path class="line" d="M13.961538 0.000000 v540.000000" /><text class="" x="13.96153846153846" y="555.0">2549</text></g><g class="guides"><path class="guide line" d="M91.525641 0.000000 v540.000000" /><text class="" x="91.52564102564101" y="555.0">2550</text></g><g class="guides"><path class="guide line" d="M169.089744 0.000000 v540.000000" /><text class="" x="169.08974358974356" y="555.0">2551</text></g><g class="guides"><path class="guide line" d="M246.653846 0.000000 v540.000000" /><text class="" x="246.65384615384613" y="555.0">2552</text></g><g class="guides"><path class="guide line" d="M324.217949 0.000000 v540.000000" /><text class="" x="324.21794871794873" y="555.0">2553</text></g><g class="guides"><path class="guide line" d="M401.782051 0.000000 v540.000000" /><text class="" x="401.78205128205127" y="555.0">2554</text></g><g class="guides"><path class="guide line" d="M479.346154 0.000000 v540.000000" /><text class="" x="479.3461538461538" y="555.0">2555</text></g><g class="guides"><path class="guide line" d="M556.910256 0.000000 v540.000000" /><text class="" x="556.9102564102565" y="555.0">2556</text></g><g class="guides"><path class="guide line" d="M634.474359 0.000000 v540.000000" /><text class="" x="634.474358974359" y="555.0">2557</text></g><g class="guides"><path class="guide line" d="M712.038462 0.000000 v540.000000" /><text class="" x="712.0384615384615" y="555.0">2558</text></g></g><g class="series serie-0 color-0"><path class="line reactive" d="M13.961538 540.000000 L13.961538 529.615385 14.271795 528.898440 14.582051 528.181507 14.892308 527.464597 15.202564 526.747722 15.512821 526.030894 15.823077 525.314124 16.133333 524.597424 16.443590 523.880806 16.753846 523.164280 17.064103 522.447860 17.374359 521.731556 17.684615 521.015380 17.994872 520.299343 18.305128 519.583458 18.615385 518.867737 18.925641 518.152190 19.235897 517.436829 19.546154 516.721666 19.856410 516.006713 20.166667 515.291981 20.476923 514.577482 20.787179 513.863228 21.097436 513.149230 21.407692 512.435500 21.717949 511.722049 22.028205 511.008889 22.338462 510.296032 22.648718 509.583490 22.958974 508.871274 23.269231 508.159395 23.579487 507.447866 23.889744 506.736698 24.200000 506.025903 24.510256 505.315492 24.820513 504.605477 25.130769 503.895870 25.441026 503.186681 25.751282 502.477924 26.061538 501.769610 26.371795 501.061749 26.682051 500.354354 26.992308 499.647437 27.302564 498.941009 27.612821 498.235082 27.923077 497.529668 28.233333 496.824777 28.543590 496.120422 28.853846 495.416615 29.164103 494.713366 29.474359 494.010688 29.784615 493.308593 30.094872 492.607091 30.405128 491.906196 30.715385 491.205917 31.025641 490.506267 31.335897 489.807258 31.646154 489.108901 31.956410 488.411208 32.266667 487.714190 32.576923 487.017860 32.887179 486.322228 33.197436 485.627307 33.507692 484.933108 33.817949 484.239642 34.128205 483.546922 34.438462 482.854959 34.748718 482.163765 35.058974 481.473351 35.369231 480.783728 35.679487 480.094910 35.989744 479.406907 36.300000 478.719730 36.610256 478.033392 36.920513 477.347905 37.230769 476.663279 37.541026 475.979527 37.851282 475.296659 38.161538 474.614689 38.471795 473.933627 38.782051 473.253485 39.092308 472.574275 39.402564 471.896008 39.712821 471.218696 40.023077 470.542351 40.333333 469.866984 40.643590 469.192607 40.953846 468.519231 41.264103 467.846869 41.574359 467.175532 41.884615 466.505231 42.194872 465.835979 42.505128 465.167786 42.815385 464.500665 43.125641 463.834627 43.435897 463.169683 43.746154 462.505846 44.056410 461.843128 44.366667 461.181538 44.676923 460.521091 44.987179 459.861796 45.297436 459.203665 45.607692 458.546712 45.917949 457.890946 46.228205 457.236379 46.538462 456.583024 46.848718 455.930892 47.158974 455.279994 47.469231 454.630342 47.779487 453.981949 48.089744 453.334824 48.400000 452.688981 48.710256 452.044431 49.020513 451.401185 49.330769 450.759255 49.641026 450.118652 49.951282 449.479389 50.261538 448.841477 50.571795 448.204928 50.882051 447.569753 51.192308 446.935964 51.502564 446.303572 51.812821 445.672590 52.123077 445.043028 52.433333 444.414899 52.743590 443.788214 53.053846 443.162985 53.364103 442.539224 53.674359 441.916941 53.984615 441.296149 54.294872 440.676860 54.605128 440.059085 54.915385 439.442835 55.225641 438.828123 55.535897 438.214959 55.846154 437.603357 56.156410 436.993326 56.466667 436.384880 56.776923 435.778029 57.087179 435.172785 57.397436 434.569160 57.707692 433.967166 58.017949 433.366813 58.328205 432.768115 58.638462 432.171082 58.948718 431.575726 59.258974 430.982059 59.569231 430.390092 59.879487 429.799837 60.189744 429.211306 60.500000 428.624510 60.810256 428.039461 61.120513 427.456171 61.430769 426.874651 61.741026 426.294913 62.051282 425.716968 62.361538 425.140829 62.671795 424.566506 62.982051 423.994012 63.292308 423.423359 63.602564 422.854556 63.912821 422.287618 64.223077 421.722554 64.533333 421.159377 64.843590 420.598099 65.153846 420.038730 65.464103 419.481283 65.774359 418.925770 66.084615 418.372201 66.394872 417.820589 66.705128 417.270946 67.015385 416.723282 67.325641 416.177610 67.635897 415.633940 67.946154 415.092286 68.256410 414.552658 68.566667 414.015069 68.876923 413.479529 69.187179 412.946050 69.497436 412.414645 69.807692 411.885324 70.117949 411.358100 70.428205 410.832984 70.738462 410.309987 71.048718 409.789121 71.358974 409.270399 71.669231 408.753831 71.979487 408.239430 72.289744 407.727206 72.600000 407.217172 72.910256 406.709338 73.220513 406.203718 73.530769 405.700323 73.841026 405.199163 74.151282 404.700251 74.461538 404.203599 74.771795 403.709217 75.082051 403.217118 75.392308 402.727314 75.702564 402.239816 76.012821 401.754635 76.323077 401.271783 76.633333 400.791273 76.943590 400.313115 77.253846 399.837321 77.564103 399.363903 77.874359 398.892873 78.184615 398.424242 78.494872 397.958022 78.805128 397.494224 79.115385 397.032860 79.425641 396.573942 79.735897 396.117481 80.046154 395.663490 80.356410 395.211979 80.666667 394.762960 80.976923 394.316445 81.287179 393.872446 81.597436 393.430975 81.907692 392.992042 82.217949 392.555660 82.528205 392.121840 82.838462 391.690594 83.148718 391.261933 83.458974 390.835870 83.769231 390.412415 84.079487 389.991581 84.389744 389.573379 84.700000 389.157820 85.010256 388.744917 85.320513 388.334681 85.630769 387.927124 85.941026 387.522257 86.251282 387.120092 86.561538 386.720640 86.871795 386.323914 87.182051 385.929925 87.492308 385.538684 87.802564 385.150204 88.112821 384.764495 88.423077 384.381570 88.733333 384.001440 89.043590 383.624117 89.353846 383.249612 89.664103 382.877938 89.974359 382.509105 90.284615 382.143125 90.594872 381.780011 90.905128 381.419773 91.215385 381.062423 91.525641 380.707974 91.835897 380.356431 92.146154 380.007779 92.456410 379.661998 92.766667 379.319069 93.076923 378.978970 93.387179 378.641682 93.697436 378.307185 94.007692 377.975458 94.317949 377.646481 94.628205 377.320234 94.938462 376.996698 95.248718 376.675851 95.558974 376.357673 95.869231 376.042145 96.179487 375.729246 96.489744 375.418955 96.800000 375.111254 97.110256 374.806121 97.420513 374.503537 97.730769 374.203481 98.041026 373.905933 98.351282 373.610874 98.661538 373.318281 98.971795 373.028137 99.282051 372.740420 99.592308 372.455110 99.902564 372.172187 100.212821 371.891631 100.523077 371.613422 100.833333 371.337539 101.143590 371.063963 101.453846 370.792673 101.764103 370.523649 102.074359 370.256871 102.384615 369.992318 102.694872 369.729971 103.005128 369.469809 103.315385 369.211813 103.625641 368.955961 103.935897 368.702234 104.246154 368.450612 104.556410 368.201074 104.866667 367.953601 105.176923 367.708171 105.487179 367.464766 105.797436 367.223364 106.107692 366.983946 106.417949 366.746491 106.728205 366.510980 107.038462 366.277391 107.348718 366.045705 107.658974 365.815903 107.969231 365.587962 108.279487 365.361864 108.589744 365.137588 108.900000 364.915114 109.210256 364.694422 109.520513 364.475492 109.830769 364.258303 110.141026 364.042835 110.451282 363.829069 110.761538 363.616983 111.071795 363.406559 111.382051 363.197775 111.692308 362.990611 112.002564 362.785047 112.312821 362.581064 112.623077 362.378640 112.933333 362.177757 113.243590 361.978393 113.553846 361.780528 113.864103 361.584142 114.174359 361.389216 114.484615 361.195728 114.794872 361.003659 115.105128 360.812988 115.415385 360.623696 115.725641 360.435762 116.035897 360.249166 116.346154 360.063888 116.656410 359.879907 116.966667 359.697204 117.276923 359.515758 117.587179 359.335549 117.897436 359.156558 118.207692 358.978763 118.517949 358.802144 118.828205 358.626682 119.138462 358.452356 119.448718 358.279146 119.758974 358.107033 120.069231 357.935994 120.379487 357.766012 120.689744 357.597065 121.000000 357.429132 121.310256 357.262195 121.620513 357.096233 121.930769 356.931226 122.241026 356.767153 122.551282 356.603994 122.861538 356.441729 123.171795 356.280339 123.482051 356.119802 123.792308 355.960099 124.102564 355.801209 124.412821 355.643112 124.723077 355.485789 125.033333 355.329218 125.343590 355.173381 125.653846 355.018255 125.964103 354.863823 126.274359 354.710062 126.584615 354.556954 126.894872 354.404477 127.205128 354.252612 127.515385 354.101339 127.825641 353.950636 128.135897 353.800486 128.446154 353.650866 128.756410 353.501757 129.066667 353.353138 129.376923 353.204990 129.687179 353.057292 129.997436 352.910025 130.307692 352.763167 130.617949 352.616699 130.928205 352.470601 131.238462 352.324852 131.548718 352.179433 131.858974 352.034322 132.169231 351.889501 132.479487 351.744948 132.789744 351.600644 133.100000 351.456568 133.410256 351.312700 133.720513 351.169020 134.030769 351.025509 134.341026 350.882144 134.651282 350.738908 134.961538 350.595779 135.271795 350.452736 135.582051 350.309761 135.892308 350.166833 136.202564 350.023931 136.512821 349.881036 136.823077 349.738127 137.133333 349.595184 137.443590 349.452187 137.753846 349.309116 138.064103 349.165950 138.374359 349.022670 138.684615 348.879255 138.994872 348.735685 139.305128 348.591940 139.615385 348.448000 139.925641 348.303844 140.235897 348.159452 140.546154 348.014805 140.856410 347.869882 141.166667 347.724663 141.476923 347.579127 141.787179 347.433255 142.097436 347.287026 142.407692 347.140420 142.717949 346.993417 143.028205 346.845997 143.338462 346.698140 143.648718 346.549825 143.958974 346.401032 144.269231 346.251741 144.579487 346.101932 144.889744 345.951585 145.200000 345.800680 145.510256 345.649196 145.820513 345.497113 146.130769 345.344411 146.441026 345.191071 146.751282 345.037070 147.061538 344.882391 147.371795 344.727011 147.682051 344.570912 147.992308 344.414073 148.302564 344.256474 148.612821 344.098094 148.923077 343.938914 149.233333 343.778913 149.543590 343.618071 149.853846 343.456368 150.164103 343.293784 150.474359 343.130298 150.784615 342.965891 151.094872 342.800543 151.405128 342.634232 151.715385 342.466939 152.025641 342.298644 152.335897 342.129326 152.646154 341.958966 152.956410 341.787543 153.266667 341.615037 153.576923 341.441428 153.887179 341.266695 154.197436 341.090819 154.507692 340.913780 154.817949 340.735556 155.128205 340.556129 155.438462 340.375477 155.748718 340.193581 156.058974 340.010420 156.369231 339.825975 156.679487 339.640225 156.989744 339.453149 157.300000 339.264729 157.610256 339.074943 157.920513 338.883771 158.230769 338.691194 158.541026 338.497191 158.851282 338.301741 159.161538 338.104825 159.471795 337.906423 159.782051 337.706514 160.092308 337.505079 160.402564 337.302096 160.712821 337.097546 161.023077 336.891409 161.333333 336.683665 161.643590 336.474292 161.953846 336.263272 162.264103 336.050584 162.574359 335.836207 162.884615 335.620122 163.194872 335.402309 163.505128 335.182747 163.815385 334.961416 164.125641 334.738296 164.435897 334.513366 164.746154 334.286607 165.056410 334.057999 165.366667 333.827521 165.676923 333.595152 165.987179 333.360874 166.297436 333.124665 166.607692 332.886506 166.917949 332.646376 167.228205 332.404256 167.538462 332.160124 167.848718 331.913961 168.158974 331.665747 168.469231 331.415461 168.779487 331.163084 169.089744 330.908595 169.400000 330.651976 169.710256 330.393218 170.020513 330.132314 170.330769 329.869259 170.641026 329.604044 170.951282 329.336664 171.261538 329.067112 171.571795 328.795380 171.882051 328.521463 172.192308 328.245353 172.502564 327.967044 172.812821 327.686529 173.123077 327.403801 173.433333 327.118854 173.743590 326.831681 174.053846 326.542275 174.364103 326.250630 174.674359 325.956739 174.984615 325.660594 175.294872 325.362190 175.605128 325.061520 175.915385 324.758576 176.225641 324.453353 176.535897 324.145843 176.846154 323.836040 177.156410 323.523937 177.466667 323.209527 177.776923 322.892804 178.087179 322.573761 178.397436 322.252391 178.707692 321.928688 179.017949 321.602644 179.328205 321.274254 179.638462 320.943509 179.948718 320.610405 180.258974 320.274933 180.569231 319.937088 180.879487 319.596862 181.189744 319.254248 181.500000 318.909241 181.810256 318.561833 182.120513 318.212018 182.430769 317.859789 182.741026 317.505139 183.051282 317.148061 183.361538 316.788549 183.671795 316.426596 183.982051 316.062196 184.292308 315.695341 184.602564 315.326025 184.912821 314.954241 185.223077 314.579983 185.533333 314.203243 185.843590 313.824015 186.153846 313.442293 186.464103 313.058070 186.774359 312.671338 187.084615 312.282091 187.394872 311.890323 187.705128 311.496027 188.015385 311.099196 188.325641 310.699823 188.635897 310.297901 188.946154 309.893425 189.256410 309.486386 189.566667 309.076779 189.876923 308.664597 190.187179 308.249833 190.497436 307.832480 190.807692 307.412532 191.117949 306.989982 191.428205 306.564823 191.738462 306.137048 192.048718 305.706651 192.358974 305.273625 192.669231 304.837963 192.979487 304.399659 193.289744 303.958706 193.600000 303.515097 193.910256 303.068825 194.220513 302.619885 194.530769 302.168268 194.841026 301.713968 195.151282 301.256979 195.461538 300.797294 195.771795 300.334906 196.082051 299.869809 196.392308 299.401995 196.702564 298.931458 197.012821 298.458192 197.323077 297.982189 197.633333 297.503443 197.943590 297.021947 198.253846 296.537694 198.564103 296.050679 198.874359 295.560893 199.184615 295.068331 199.494872 294.572985 199.805128 294.074849 200.115385 293.573916 200.425641 293.070179 200.735897 292.563633 201.046154 292.054269 201.356410 291.542081 201.666667 291.027063 201.976923 290.509208 202.287179 289.988509 202.597436 289.464960 202.907692 288.938553 203.217949 288.409282 203.528205 287.877141 203.838462 287.342122 204.148718 286.804219 204.458974 286.263425 204.769231 285.719733 205.079487 285.173137 205.389744 284.623630 205.700000 284.071206 206.010256 283.515857 206.320513 282.957576 206.630769 282.396358 206.941026 281.832195 207.251282 281.265081 207.561538 280.695009 207.871795 280.121973 208.182051 279.545964 208.492308 278.966978 208.802564 278.385007 209.112821 277.800044 209.423077 277.212082 209.733333 276.621116 210.043590 276.027138 210.353846 275.430142 210.664103 274.830120 210.974359 274.227067 211.284615 273.620975 211.594872 273.011837 211.905128 272.399648 212.215385 271.784399 212.525641 271.166086 212.835897 270.544700 213.146154 269.920235 213.456410 269.292685 213.766667 268.662042 214.076923 268.028300 214.387179 267.391453 214.697436 266.751493 215.007692 266.108414 215.317949 265.462209 215.628205 264.812871 215.938462 264.160394 216.248718 263.504771 216.558974 262.845995 216.869231 262.184060 217.179487 261.518958 217.489744 260.850684 217.800000 260.179230 218.110256 259.504589 218.420513 258.826756 218.730769 258.145723 219.041026 257.461483 219.351282 256.774030 219.661538 256.083357 219.971795 255.389458 220.282051 254.692325 220.592308 253.991952 220.902564 253.288333 221.212821 252.581460 221.523077 251.871326 221.833333 251.157926 222.143590 250.441252 222.453846 249.721298 222.764103 248.998057 223.074359 248.271522 223.384615 247.541686 223.694872 246.808543 224.005128 246.072087 224.315385 245.332309 224.625641 244.589205 224.935897 243.842766 225.246154 243.092986 225.556410 242.339859 225.866667 241.583378 226.176923 240.823536 226.487179 240.060326 226.797436 239.293742 227.107692 238.523776 227.417949 237.750423 227.728205 236.973676 228.038462 236.193527 228.348718 235.409970 228.658974 234.622999 228.969231 233.832606 229.279487 233.038785 229.589744 232.241529 229.900000 231.440832 230.210256 230.636687 230.520513 229.829086 230.830769 229.018024 231.141026 228.203494 231.451282 227.385488 231.761538 226.564001 232.071795 225.739025 232.382051 224.910554 232.692308 224.078581 233.002564 223.243099 233.312821 222.404102 233.623077 221.561583 233.933333 220.715535 234.243590 219.865952 234.553846 219.012826 234.864103 218.156151 235.174359 217.295921 235.484615 216.432128 235.794872 215.564766 236.105128 214.693828 236.415385 213.819308 236.725641 212.941199 237.035897 212.059493 237.346154 211.174185 237.656410 210.285267 237.966667 209.392734 238.276923 208.496577 238.587179 207.596791 238.897436 206.693369 239.207692 205.786304 239.517949 204.875589 239.828205 203.961218 240.138462 203.043183 240.448718 202.121479 240.758974 201.196098 241.069231 200.267034 241.379487 199.334280 241.689744 198.397829 242.000000 197.457675 242.310256 196.513811 242.620513 195.566230 242.930769 194.614925 243.241026 193.659890 243.551282 192.701118 243.861538 191.738603 244.171795 190.772337 244.482051 189.802314 244.792308 188.828527 245.102564 187.850969 245.412821 186.869634 245.723077 185.884515 246.033333 184.895606 246.343590 183.902899 246.653846 182.906388 246.964103 181.906080 247.274359 180.902040 247.584615 179.894347 247.894872 178.883078 248.205128 177.868313 248.515385 176.850130 248.825641 175.828608 249.135897 174.803826 249.446154 173.775862 249.756410 172.744794 250.066667 171.710701 250.376923 170.673663 250.687179 169.633757 250.997436 168.591062 251.307692 167.545657 251.617949 166.497620 251.928205 165.447030 252.238462 164.393966 252.548718 163.338506 252.858974 162.280729 253.169231 161.220713 253.479487 160.158537 253.789744 159.094280 254.100000 158.028020 254.410256 156.959836 254.720513 155.889807 255.030769 154.818011 255.341026 153.744526 255.651282 152.669432 255.961538 151.592807 256.271795 150.514729 256.582051 149.435277 256.892308 148.354530 257.202564 147.272567 257.512821 146.189466 257.823077 145.105305 258.133333 144.020164 258.443590 142.934120 258.753846 141.847253 259.064103 140.759641 259.374359 139.671363 259.684615 138.582497 259.994872 137.493122 260.305128 136.403316 260.615385 135.313159 260.925641 134.222729 261.235897 133.132103 261.546154 132.041362 261.856410 130.950584 262.166667 129.859847 262.476923 128.769229 262.787179 127.678810 263.097436 126.588668 263.407692 125.498882 263.717949 124.409530 264.028205 123.320691 264.338462 122.232444 264.648718 121.144866 264.958974 120.058038 265.269231 118.972037 265.579487 117.886941 265.889744 116.802831 266.200000 115.719783 266.510256 114.637878 266.820513 113.557193 267.130769 112.477807 267.441026 111.399798 267.751282 110.323246 268.061538 109.248229 268.371795 108.174825 268.682051 107.103114 268.992308 106.033173 269.302564 104.965081 269.612821 103.898918 269.923077 102.834761 270.233333 101.772689 270.543590 100.712781 270.853846 99.655116 271.164103 98.599771 271.474359 97.546827 271.784615 96.496360 272.094872 95.448450 272.405128 94.403176 272.715385 93.360616 273.025641 92.320849 273.335897 91.283953 273.646154 90.250007 273.956410 89.219089 274.266667 88.191279 274.576923 87.166654 274.887179 86.145294 275.197436 85.127277 275.507692 84.112682 275.817949 83.101587 276.128205 82.094070 276.438462 81.090211 276.748718 80.090089 277.058974 79.093780 277.369231 78.101366 277.679487 77.112923 277.989744 76.128531 278.300000 75.148267 278.610256 74.172212 278.920513 73.200443 279.230769 72.233039 279.541026 71.270079 279.851282 70.311641 280.161538 69.357803 280.471795 68.408645 280.782051 67.464246 281.092308 66.524682 281.402564 65.590035 281.712821 64.660381 282.023077 63.735799 282.333333 62.816369 282.643590 61.902169 282.953846 60.993277 283.264103 60.089772 283.574359 59.191732 283.884615 58.299237 284.194872 57.412364 284.505128 56.531193 284.815385 55.655802 285.125641 54.786270 285.435897 53.922675 285.746154 53.065096 286.056410 52.213611 286.366667 51.368299 286.676923 50.529240 286.987179 49.696510 287.297436 48.870190 287.607692 48.050357 287.917949 47.237090 288.228205 46.430468 288.538462 45.630570 288.848718 44.837473 289.158974 44.051257 289.469231 43.272001 289.779487 42.499782 290.089744 41.734680 290.400000 40.976773 290.710256 40.226139 291.020513 39.482858 291.330769 38.747008 291.641026 38.018668 291.951282 37.297915 292.261538 36.584830 292.571795 35.879489 292.882051 35.181973 293.192308 34.492360 293.502564 33.810727 293.812821 33.137155 294.123077 32.471721 294.433333 31.814504 294.743590 31.165583 295.053846 30.525036 295.364103 29.892942 295.674359 29.269380 295.984615 28.654427 296.294872 28.048164 296.605128 27.450668 296.915385 26.862017 297.225641 26.282292 297.535897 25.711570 297.846154 25.149929 298.156410 24.597449 298.466667 24.054208 298.776923 23.520285 299.087179 22.995758 299.397436 22.480706 299.707692 21.975207 300.017949 21.479341 300.328205 20.993185 300.638462 20.516819 300.948718 20.050320 301.258974 19.593769 301.569231 19.147242 301.879487 18.710819 302.189744 18.284579 302.500000 17.868600 302.810256 17.462960 303.120513 17.067739 303.430769 16.683015 303.741026 16.308866 304.051282 15.945371 304.361538 15.592609 304.671795 15.250658 304.982051 14.919597 305.292308 14.599505 305.602564 14.290460 305.912821 13.992541 306.223077 13.705826 306.533333 13.430394 306.843590 13.166324 307.153846 12.913694 307.464103 12.672583 307.774359 12.443070 308.084615 12.225232 308.394872 12.019149 308.705128 11.824900 309.015385 11.642563 309.325641 11.472216 309.635897 11.313938 309.946154 11.167808 310.256410 11.033904 310.566667 10.912306 310.876923 10.803091 311.187179 10.706338 311.497436 10.622126 311.807692 10.550534 312.117949 10.491640 312.428205 10.445522 312.738462 10.412260 313.048718 10.391931 313.358974 10.384615 313.669231 10.390391 313.979487 10.409336 314.289744 10.441529 314.600000 10.487050 314.910256 10.545976 315.220513 10.618386 315.530769 10.704359 315.841026 10.803973 316.151282 10.917308 316.461538 11.044441 316.771795 11.185452 317.082051 11.340418 317.392308 11.509419 317.702564 11.692533 318.012821 11.889839 318.323077 12.101415 318.633333 12.327340 318.943590 12.567693 319.253846 12.822552 319.564103 13.091996 319.874359 13.376103 320.184615 13.674952 320.494872 13.988622 320.805128 14.317191 321.115385 14.660738 321.425641 15.019342 321.735897 15.393080 322.046154 15.782033 322.356410 16.186277 322.666667 16.605893 322.976923 17.040958 323.287179 17.491551 323.597436 17.957752 323.907692 18.439637 324.217949 18.937287 324.528205 19.450749 324.838462 19.979949 325.148718 20.524784 325.458974 21.085150 325.769231 21.660943 326.079487 22.252058 326.389744 22.858393 326.700000 23.479842 327.010256 24.116302 327.320513 24.767669 327.630769 25.433839 327.941026 26.114708 328.251282 26.810172 328.561538 27.520127 328.871795 28.244470 329.182051 28.983095 329.492308 29.735900 329.802564 30.502779 330.112821 31.283630 330.423077 32.078349 330.733333 32.886830 331.043590 33.708971 331.353846 34.544668 331.664103 35.393815 331.974359 36.256311 332.284615 37.132049 332.594872 38.020928 332.905128 38.922841 333.215385 39.837687 333.525641 40.765360 333.835897 41.705756 334.146154 42.658772 334.456410 43.624305 334.766667 44.602248 335.076923 45.592500 335.387179 46.594955 335.697436 47.609510 336.007692 48.636061 336.317949 49.674505 336.628205 50.724736 336.938462 51.786650 337.248718 52.860145 337.558974 53.945117 337.869231 55.041460 338.179487 56.149071 338.489744 57.267846 338.800000 58.397682 339.110256 59.538474 339.420513 60.690118 339.730769 61.852510 340.041026 63.025547 340.351282 64.209124 340.661538 65.403138 340.971795 66.607483 341.282051 67.822058 341.592308 69.046757 341.902564 70.281476 342.212821 71.526112 342.523077 72.780561 342.833333 74.044718 343.143590 75.318480 343.453846 76.601742 343.764103 77.894401 344.074359 79.196353 344.384615 80.507494 344.694872 81.827720 345.005128 83.156926 345.315385 84.495010 345.625641 85.841866 345.935897 87.197392 346.246154 88.561482 346.556410 89.934033 346.866667 91.314942 347.176923 92.704103 347.487179 94.101414 347.797436 95.506770 348.107692 96.920067 348.417949 98.341201 348.728205 99.770069 349.038462 101.206566 349.348718 102.650588 349.658974 104.102032 349.969231 105.560793 350.279487 107.026767 350.589744 108.499851 350.900000 109.979941 351.210256 111.466932 351.520513 112.960720 351.830769 114.461202 352.141026 115.968274 352.451282 117.481832 352.761538 119.001771 353.071795 120.527988 353.382051 122.060379 353.692308 123.598839 354.002564 125.143266 354.312821 126.693554 354.623077 128.249600 354.933333 129.811300 355.243590 131.378550 355.553846 132.951247 355.864103 134.529285 356.174359 136.112561 356.484615 137.700972 356.794872 139.294412 357.105128 140.892779 357.415385 142.495968 357.725641 144.103875 358.035897 145.716397 358.346154 147.333428 358.656410 148.954867 358.966667 150.580607 359.276923 152.210546 359.587179 153.844580 359.897436 155.482604 360.207692 157.124514 360.517949 158.770207 360.828205 160.419579 361.138462 162.072525 361.448718 163.728942 361.758974 165.388726 362.069231 167.051772 362.379487 168.717977 362.689744 170.387237 363.000000 172.059448 363.310256 173.734505 363.620513 175.412306 363.930769 177.092745 364.241026 178.775720 364.551282 180.461125 364.861538 182.148858 365.171795 183.838813 365.482051 185.530888 365.792308 187.224977 366.102564 188.920978 366.412821 190.618786 366.723077 192.318298 367.033333 194.019408 367.343590 195.722014 367.653846 197.426011 367.964103 199.131296 368.274359 200.837764 368.584615 202.545311 368.894872 204.253834 369.205128 205.963229 369.515385 207.673391 369.825641 209.384216 370.135897 211.095601 370.446154 212.807442 370.756410 214.519635 371.066667 216.232075 371.376923 217.944659 371.687179 219.657282 371.997436 221.369842 372.307692 223.082233 372.617949 224.794353 372.928205 226.506096 373.238462 228.217359 373.548718 229.928038 373.858974 231.638029 374.169231 233.347228 374.479487 235.055531 374.789744 236.762834 375.100000 238.469034 375.410256 240.174026 375.720513 241.877705 376.030769 243.579970 376.341026 245.280714 376.651282 246.979835 376.961538 248.677228 377.271795 250.372789 377.582051 252.066415 377.892308 253.758001 378.202564 255.447444 378.512821 257.134639 378.823077 258.819483 379.133333 260.501872 379.443590 262.181701 379.753846 263.858867 380.064103 265.533265 380.374359 267.204792 380.684615 268.873344 380.994872 270.538817 381.305128 272.201106 381.615385 273.860109 381.925641 275.515720 382.235897 277.167836 382.546154 278.816353 382.856410 280.461167 383.166667 282.102175 383.476923 283.739271 383.787179 285.372352 384.097436 287.001315 384.407692 288.626054 384.717949 290.246467 385.028205 291.862449 385.338462 293.473897 385.648718 295.080705 385.958974 296.682771 386.269231 298.279990 386.579487 299.872259 386.889744 301.459473 387.200000 303.041529 387.510256 304.618322 387.820513 306.189749 388.130769 307.755705 388.441026 309.316087 388.751282 310.870790 389.061538 312.419711 389.371795 313.962746 389.682051 315.499791 389.992308 317.030741 390.302564 318.555493 390.612821 320.073943 390.923077 321.585987 391.233333 323.091521 391.543590 324.590441 391.853846 326.082642 392.164103 327.568022 392.474359 329.046476 392.784615 330.517899 393.094872 331.982189 393.405128 333.439241 393.715385 334.888952 394.025641 336.331216 394.335897 337.765931 394.646154 339.192992 394.956410 340.612295 395.266667 342.023737 395.576923 343.427213 395.887179 344.822619 396.197436 346.209852 396.507692 347.588807 396.817949 348.959381 397.128205 350.321470 397.438462 351.674969 397.748718 353.019774 398.058974 354.355783 398.369231 355.682890 398.679487 357.000991 398.989744 358.309984 399.300000 359.609763 399.610256 360.900225 399.920513 362.181266 400.230769 363.452782 400.541026 364.714668 400.851282 365.966822 401.161538 367.209139 401.471795 368.441514 401.782051 369.663845 402.092308 370.876050 402.402564 372.078145 402.712821 373.270168 403.023077 374.452156 403.333333 375.624148 403.643590 376.786183 403.953846 377.938298 404.264103 379.080532 404.574359 380.212923 404.884615 381.335510 405.194872 382.448329 405.505128 383.551421 405.815385 384.644823 406.125641 385.728573 406.435897 386.802709 406.746154 387.867271 407.056410 388.922295 407.366667 389.967821 407.676923 391.003886 407.987179 392.030528 408.297436 393.047787 408.607692 394.055700 408.917949 395.054306 409.228205 396.043642 409.538462 397.023747 409.848718 397.994660 410.158974 398.956418 410.469231 399.909059 410.779487 400.852623 411.089744 401.787147 411.400000 402.712669 411.710256 403.629228 412.020513 404.536862 412.330769 405.435609 412.641026 406.325507 412.951282 407.206595 413.261538 408.078911 413.571795 408.942493 413.882051 409.797380 414.192308 410.643609 414.502564 411.481219 414.812821 412.310249 415.123077 413.130735 415.433333 413.942718 415.743590 414.746234 416.053846 415.541322 416.364103 416.328021 416.674359 417.106368 416.984615 417.876402 417.294872 418.638161 417.605128 419.391684 417.915385 420.137008 418.225641 420.874172 418.535897 421.603214 418.846154 422.324173 419.156410 423.037086 419.466667 423.741992 419.776923 424.438928 420.087179 425.127935 420.397436 425.809048 420.707692 426.482308 421.017949 427.147751 421.328205 427.805417 421.638462 428.455344 421.948718 429.097569 422.258974 429.732131 422.569231 430.359069 422.879487 430.978420 423.189744 431.590222 423.500000 432.194515 423.810256 432.791336 424.120513 433.380724 424.430769 433.962716 424.741026 434.537351 425.051282 435.104667 425.361538 435.664703 425.671795 436.217497 425.982051 436.763087 426.292308 437.301511 426.602564 437.832807 426.912821 438.357014 427.223077 438.874170 427.533333 439.384313 427.843590 439.887481 428.153846 440.383714 428.464103 440.873048 428.774359 441.355522 429.084615 441.831175 429.394872 442.300044 429.705128 442.762169 430.015385 443.217586 430.325641 443.666335 430.635897 444.108454 430.946154 444.543980 431.256410 444.972953 431.566667 445.395409 431.876923 445.811389 432.187179 446.220929 432.497436 446.624069 432.807692 447.020846 433.117949 447.411298 433.428205 447.795465 433.738462 448.173383 434.048718 448.545092 434.358974 448.910629 434.669231 449.270033 434.979487 449.623343 435.289744 449.970595 435.600000 450.311829 435.910256 450.647083 436.220513 450.976395 436.530769 451.299804 436.841026 451.617346 437.151282 451.929062 437.461538 452.234989 437.771795 452.535165 438.082051 452.829628 438.392308 453.118418 438.702564 453.401571 439.012821 453.679126 439.323077 453.951122 439.633333 454.217597 439.943590 454.478589 440.253846 454.734136 440.564103 454.984277 440.874359 455.229049 441.184615 455.468491 441.494872 455.702641 441.805128 455.931538 442.115385 456.155220 442.425641 456.373725 442.735897 456.587090 443.046154 456.795356 443.356410 456.998559 443.666667 457.196737 443.976923 457.389931 444.287179 457.578176 444.597436 457.761512 444.907692 457.939977 445.217949 458.113609 445.528205 458.282447 445.838462 458.446528 446.148718 458.605892 446.458974 458.760575 446.769231 458.910617 447.079487 459.056055 447.389744 459.196928 447.700000 459.333275 448.010256 459.465133 448.320513 459.592540 448.630769 459.715535 448.941026 459.834156 449.251282 459.948442 449.561538 460.058430 449.871795 460.164160 450.182051 460.265668 450.492308 460.362993 450.802564 460.456174 451.112821 460.545249 451.423077 460.630256 451.733333 460.711234 452.043590 460.788220 452.353846 460.861252 452.664103 460.930370 452.974359 460.995611 453.284615 461.057013 453.594872 461.114616 453.905128 461.168456 454.215385 461.218573 454.525641 461.265004 454.835897 461.307788 455.146154 461.346963 455.456410 461.382567 455.766667 461.414639 456.076923 461.443216 456.387179 461.468338 456.697436 461.490041 457.007692 461.508365 457.317949 461.523348 457.628205 461.535028 457.938462 461.543443 458.248718 461.548631 458.558974 461.550632 458.869231 461.549482 459.179487 461.545220 459.489744 461.537885 459.800000 461.527514 460.110256 461.514147 460.420513 461.497820 460.730769 461.478573 461.041026 461.456444 461.351282 461.431471 461.661538 461.403691 461.971795 461.373144 462.282051 461.339868 462.592308 461.303901 462.902564 461.265281 463.212821 461.224046 463.523077 461.180235 463.833333 461.133885 464.143590 461.085036 464.453846 461.033725 464.764103 460.979991 465.074359 460.923872 465.384615 460.865405 465.694872 460.804631 466.005128 460.741585 466.315385 460.676308 466.625641 460.608836 466.935897 460.539209 467.246154 460.467465 467.556410 460.393641 467.866667 460.317776 468.176923 460.239909 468.487179 460.160077 468.797436 460.078319 469.107692 459.994673 469.417949 459.909177 469.728205 459.821870 470.038462 459.732790 470.348718 459.641974 470.658974 459.549462 470.969231 459.455292 471.279487 459.359501 471.589744 459.262128 471.900000 459.163211 472.210256 459.062789 472.520513 458.960900 472.830769 458.857581 473.141026 458.752872 473.451282 458.646811 473.761538 458.539435 474.071795 458.430783 474.382051 458.320893 474.692308 458.209803 475.002564 458.097553 475.312821 457.984179 475.623077 457.869721 475.933333 457.754215 476.243590 457.637702 476.553846 457.520219 476.864103 457.401803 477.174359 457.282494 477.484615 457.162330 477.794872 457.041349 478.105128 456.919588 478.415385 456.797088 478.725641 456.673884 479.035897 456.550017 479.346154 456.425524 479.656410 456.300437 479.966667 456.174760 480.276923 456.048492 480.587179 455.921632 480.897436 455.794178 481.207692 455.666127 481.517949 455.537480 481.828205 455.408233 482.138462 455.278385 482.448718 455.147935 482.758974 455.016881 483.069231 454.885221 483.379487 454.752954 483.689744 454.620078 484.000000 454.486591 484.310256 454.352492 484.620513 454.217779 484.930769 454.082450 485.241026 453.946504 485.551282 453.809940 485.861538 453.672755 486.171795 453.534947 486.482051 453.396516 486.792308 453.257459 487.102564 453.117776 487.412821 452.977463 487.723077 452.836521 488.033333 452.694946 488.343590 452.552737 488.653846 452.409894 488.964103 452.266413 489.274359 452.122294 489.584615 451.977534 489.894872 451.832133 490.205128 451.686088 490.515385 451.539398 490.825641 451.392061 491.135897 451.244075 491.446154 451.095440 491.756410 450.946153 492.066667 450.796212 492.376923 450.645616 492.687179 450.494364 492.997436 450.342453 493.307692 450.189883 493.617949 450.036651 493.928205 449.882755 494.238462 449.728195 494.548718 449.572968 494.858974 449.417073 495.169231 449.260508 495.479487 449.103271 495.789744 448.945362 496.100000 448.786778 496.410256 448.627517 496.720513 448.467578 497.030769 448.306960 497.341026 448.145660 497.651282 447.983677 497.961538 447.821010 498.271795 447.657656 498.582051 447.493615 498.892308 447.328884 499.202564 447.163461 499.512821 446.997346 499.823077 446.830537 500.133333 446.663031 500.443590 446.494827 500.753846 446.325924 501.064103 446.156320 501.374359 445.986013 501.684615 445.815002 501.994872 445.643285 502.305128 445.470861 502.615385 445.297727 502.925641 445.123882 503.235897 444.949324 503.546154 444.774052 503.856410 444.598065 504.166667 444.421360 504.476923 444.243935 504.787179 444.065790 505.097436 443.886923 505.407692 443.707331 505.717949 443.527014 506.028205 443.345969 506.338462 443.164195 506.648718 442.981691 506.958974 442.798454 507.269231 442.614484 507.579487 442.429777 507.889744 442.244334 508.200000 442.058152 508.510256 441.871229 508.820513 441.683564 509.130769 441.495155 509.441026 441.306001 509.751282 441.116099 510.061538 440.925449 510.371795 440.734049 510.682051 440.541896 510.992308 440.348990 511.302564 440.155328 511.612821 439.960910 511.923077 439.765733 512.233333 439.569795 512.543590 439.373096 512.853846 439.175633 513.164103 438.977405 513.474359 438.778411 513.784615 438.578647 514.094872 438.378114 514.405128 438.176809 514.715385 437.974730 515.025641 437.771877 515.335897 437.568246 515.646154 437.363838 515.956410 437.158649 516.266667 436.952679 516.576923 436.745925 516.887179 436.538387 517.197436 436.330062 517.507692 436.120949 517.817949 435.911046 518.128205 435.700351 518.438462 435.488863 518.748718 435.276581 519.058974 435.063502 519.369231 434.849625 519.679487 434.634948 519.989744 434.419470 520.300000 434.203189 520.610256 433.986104 520.920513 433.768212 521.230769 433.549512 521.541026 433.330003 521.851282 433.109682 522.161538 432.888548 522.471795 432.666600 522.782051 432.443836 523.092308 432.220254 523.402564 431.995853 523.712821 431.770631 524.023077 431.544585 524.333333 431.317716 524.643590 431.090020 524.953846 430.861497 525.264103 430.632144 525.574359 430.401961 525.884615 430.170945 526.194872 429.939094 526.505128 429.706408 526.815385 429.472885 527.125641 429.238522 527.435897 429.003318 527.746154 428.767272 528.056410 428.530382 528.366667 428.292646 528.676923 428.054062 528.987179 427.814630 529.297436 427.574347 529.607692 427.333211 529.917949 427.091222 530.228205 426.848377 530.538462 426.604675 530.848718 426.360113 531.158974 426.114692 531.469231 425.868408 531.779487 425.621260 532.089744 425.373247 532.400000 425.124367 532.710256 424.874618 533.020513 424.623998 533.330769 424.372507 533.641026 424.120142 533.951282 423.866901 534.261538 423.612784 534.571795 423.357788 534.882051 423.101911 535.192308 422.845153 535.502564 422.587511 535.812821 422.328984 536.123077 422.069570 536.433333 421.809268 536.743590 421.548075 537.053846 421.285991 537.364103 421.023013 537.674359 420.759140 537.984615 420.494371 538.294872 420.228703 538.605128 419.962135 538.915385 419.694666 539.225641 419.426293 539.535897 419.157015 539.846154 418.886831 540.156410 418.615738 540.466667 418.343736 540.776923 418.070822 541.087179 417.796995 541.397436 417.522253 541.707692 417.246595 542.017949 416.970019 542.328205 416.692523 542.638462 416.414105 542.948718 416.134765 543.258974 415.854500 543.569231 415.573308 543.879487 415.291189 544.189744 415.008140 544.500000 414.724160 544.810256 414.439247 545.120513 414.153399 545.430769 413.866615 545.741026 413.578894 546.051282 413.290233 546.361538 413.000631 546.671795 412.710086 546.982051 412.418597 547.292308 412.126161 547.602564 411.832778 547.912821 411.538446 548.223077 411.243163 548.533333 410.946927 548.843590 410.649737 549.153846 410.351591 549.464103 410.052488 549.774359 409.752425 550.084615 409.451401 550.394872 409.149415 550.705128 408.846465 551.015385 408.542549 551.325641 408.237666 551.635897 407.931814 551.946154 407.624991 552.256410 407.317195 552.566667 407.008426 552.876923 406.698681 553.187179 406.387959 553.497436 406.076258 553.807692 405.763576 554.117949 405.449912 554.428205 405.135264 554.738462 404.819631 555.048718 404.503011 555.358974 404.185402 555.669231 403.866802 555.979487 403.547210 556.289744 403.226625 556.600000 402.905044 556.910256 402.582467 557.220513 402.258891 557.530769 401.934322 557.841026 401.608762 558.151282 401.282216 558.461538 400.954689 558.771795 400.626184 559.082051 400.296707 559.392308 399.966261 559.702564 399.634850 560.012821 399.302479 560.323077 398.969152 560.633333 398.634873 560.943590 398.299647 561.253846 397.963478 561.564103 397.626370 561.874359 397.288327 562.184615 396.949354 562.494872 396.609455 562.805128 396.268635 563.115385 395.926896 563.425641 395.584245 563.735897 395.240684 564.046154 394.896219 564.356410 394.550853 564.666667 394.204591 564.976923 393.857437 565.287179 393.509396 565.597436 393.160471 565.907692 392.810667 566.217949 392.459988 566.528205 392.108439 566.838462 391.756023 567.148718 391.402745 567.458974 391.048610 567.769231 390.693621 568.079487 390.337783 568.389744 389.981099 568.700000 389.623576 569.010256 389.265215 569.320513 388.906023 569.630769 388.546003 569.941026 388.185159 570.251282 387.823496 570.561538 387.461018 570.871795 387.097729 571.182051 386.733633 571.492308 386.368735 571.802564 386.003040 572.112821 385.636550 572.423077 385.269271 572.733333 384.901207 573.043590 384.532362 573.353846 384.162740 573.664103 383.792346 573.974359 383.421184 574.284615 383.049258 574.594872 382.676573 574.905128 382.303132 575.215385 381.928940 575.525641 381.554001 575.835897 381.178320 576.146154 380.801901 576.456410 380.424748 576.766667 380.046865 577.076923 379.668256 577.387179 379.288927 577.697436 378.908880 578.007692 378.528121 578.317949 378.146654 578.628205 377.764483 578.938462 377.381612 579.248718 376.998045 579.558974 376.613787 579.869231 376.228842 580.179487 375.843214 580.489744 375.456908 580.800000 375.069928 581.110256 374.682278 581.420513 374.293962 581.730769 373.904985 582.041026 373.515350 582.351282 373.125063 582.661538 372.734128 582.971795 372.342548 583.282051 371.950327 583.592308 371.557472 583.902564 371.163984 584.212821 370.769870 584.523077 370.375132 584.833333 369.979776 585.143590 369.583806 585.453846 369.187225 585.764103 368.790039 586.074359 368.392250 586.384615 367.993865 586.694872 367.594886 587.005128 367.195319 587.315385 366.795167 587.625641 366.394435 587.935897 365.993127 588.246154 365.591247 588.556410 365.188800 588.866667 364.785789 589.176923 364.382220 589.487179 363.978096 589.797436 363.573422 590.107692 363.168201 590.417949 362.762439 590.728205 362.356139 591.038462 361.949306 591.348718 361.541944 591.658974 361.134057 591.969231 360.725649 592.279487 360.316725 592.589744 359.907290 592.900000 359.497347 593.210256 359.086900 593.520513 358.675954 593.830769 358.264513 594.141026 357.852582 594.451282 357.440164 594.761538 357.027265 595.071795 356.613887 595.382051 356.200036 595.692308 355.785716 596.002564 355.370931 596.312821 354.955685 596.623077 354.539982 596.933333 354.123827 597.243590 353.707225 597.553846 353.290179 597.864103 352.872693 598.174359 352.454772 598.484615 352.036421 598.794872 351.617643 599.105128 351.198443 599.415385 350.778824 599.725641 350.358792 600.035897 349.938350 600.346154 349.517504 600.656410 349.096256 600.966667 348.674611 601.276923 348.252575 601.587179 347.830150 601.897436 347.407341 602.207692 346.984152 602.517949 346.560588 602.828205 346.136653 603.138462 345.712352 603.448718 345.287688 603.758974 344.862665 604.069231 344.437289 604.379487 344.011562 604.689744 343.585491 605.000000 343.159078 605.310256 342.732328 605.620513 342.305246 605.930769 341.877835 606.241026 341.450100 606.551282 341.022046 606.861538 340.593676 607.171795 340.164994 607.482051 339.736005 607.792308 339.306714 608.102564 338.877124 608.412821 338.447240 608.723077 338.017066 609.033333 337.586607 609.343590 337.155866 609.653846 336.724848 609.964103 336.293556 610.274359 335.861997 610.584615 335.430173 610.894872 334.998089 611.205128 334.565749 611.515385 334.133158 611.825641 333.700319 612.135897 333.267237 612.446154 332.833917 612.756410 332.400362 613.066667 331.966577 613.376923 331.532566 613.687179 331.098334 613.997436 330.663884 614.307692 330.229221 614.617949 329.794349 614.928205 329.359273 615.238462 328.923996 615.548718 328.488523 615.858974 328.052859 616.169231 327.617007 616.479487 327.180972 616.789744 326.744757 617.100000 326.308369 617.410256 325.871809 617.720513 325.435084 618.030769 324.998197 618.341026 324.561152 618.651282 324.123954 618.961538 323.686607 619.271795 323.249115 619.582051 322.811482 619.892308 322.373713 620.202564 321.935812 620.512821 321.497784 620.823077 321.059632 621.133333 320.621361 621.443590 320.182975 621.753846 319.744478 622.064103 319.305875 622.374359 318.867170 622.684615 318.428367 622.994872 317.989470 623.305128 317.550484 623.615385 317.111413 623.925641 316.672262 624.235897 316.233034 624.546154 315.793733 624.856410 315.354365 625.166667 314.914933 625.476923 314.475442 625.787179 314.035895 626.097436 313.596298 626.407692 313.156654 626.717949 312.716967 627.028205 312.277243 627.338462 311.837485 627.648718 311.397697 627.958974 310.957884 628.269231 310.518050 628.579487 310.078199 628.889744 309.638336 629.200000 309.198465 629.510256 308.758590 629.820513 308.318715 630.130769 307.878845 630.441026 307.438983 630.751282 306.999135 631.061538 306.559304 631.371795 306.119495 631.682051 305.679712 631.992308 305.239959 632.302564 304.800241 632.612821 304.360562 632.923077 303.920925 633.233333 303.481336 633.543590 303.041798 633.853846 302.602317 634.164103 302.162895 634.474359 301.723538 634.784615 301.284249 635.094872 300.845028 635.405128 300.405875 635.715385 299.966790 636.025641 299.527773 636.335897 299.088823 636.646154 298.649940 636.956410 298.211123 637.266667 297.772373 637.576923 297.333690 637.887179 296.895072 638.197436 296.456520 638.507692 296.018033 638.817949 295.579612 639.128205 295.141255 639.438462 294.702963 639.748718 294.264735 640.058974 293.826571 640.369231 293.388470 640.679487 292.950434 640.989744 292.512460 641.300000 292.074549 641.610256 291.636701 641.920513 291.198915 642.230769 290.761192 642.541026 290.323530 642.851282 289.885930 643.161538 289.448390 643.471795 289.010912 643.782051 288.573495 644.092308 288.136138 644.402564 287.698841 644.712821 287.261604 645.023077 286.824427 645.333333 286.387309 645.643590 285.950250 645.953846 285.513249 646.264103 285.076308 646.574359 284.639424 646.884615 284.202599 647.194872 283.765831 647.505128 283.329120 647.815385 282.892467 648.125641 282.455871 648.435897 282.019331 648.746154 281.582847 649.056410 281.146420 649.366667 280.710048 649.676923 280.273732 649.987179 279.837470 650.297436 279.401264 650.607692 278.965113 650.917949 278.529016 651.228205 278.092973 651.538462 277.656984 651.848718 277.221048 652.158974 276.785166 652.469231 276.349336 652.779487 275.913560 653.089744 275.477836 653.400000 275.042164 653.710256 274.606544 654.020513 274.170975 654.330769 273.735458 654.641026 273.299992 654.951282 272.864577 655.261538 272.429213 655.571795 271.993898 655.882051 271.558634 656.192308 271.123419 656.502564 270.688254 656.812821 270.253138 657.123077 269.818071 657.433333 269.383053 657.743590 268.948082 658.053846 268.513160 658.364103 268.078286 658.674359 267.643459 658.984615 267.208680 659.294872 266.773947 659.605128 266.339261 659.915385 265.904622 660.225641 265.470028 660.535897 265.035481 660.846154 264.600979 661.156410 264.166523 661.466667 263.732111 661.776923 263.297744 662.087179 262.863422 662.397436 262.429144 662.707692 261.994910 663.017949 261.560720 663.328205 261.126573 663.638462 260.692469 663.948718 260.258408 664.258974 259.824389 664.569231 259.390413 664.879487 258.956479 665.189744 258.522587 665.500000 258.088736 665.810256 257.654926 666.120513 257.221157 666.430769 256.787429 666.741026 256.353741 667.051282 255.920094 667.361538 255.486486 667.671795 255.052918 667.982051 254.619389 668.292308 254.185899 668.602564 253.752447 668.912821 253.319035 669.223077 252.885660 669.533333 252.452323 669.843590 252.019024 670.153846 251.585762 670.464103 251.152538 670.774359 250.719350 671.084615 250.286199 671.394872 249.853084 671.705128 249.420004 672.015385 248.986961 672.325641 248.553953 672.635897 248.120980 672.946154 247.688042 673.256410 247.255139 673.566667 246.822270 673.876923 246.389435 674.187179 245.956634 674.497436 245.523866 674.807692 245.091132 675.117949 244.658431 675.428205 244.225762 675.738462 243.793126 676.048718 243.360521 676.358974 242.927949 676.669231 242.495408 676.979487 242.062899 677.289744 241.630420 677.600000 241.197973 677.910256 240.765556 678.220513 240.333169 678.530769 239.900812 678.841026 239.468484 679.151282 239.036186 679.461538 238.603918 679.771795 238.171678 680.082051 237.739466 680.392308 237.307283 680.702564 236.875128 681.012821 236.443001 681.323077 236.010901 681.633333 235.578828 681.943590 235.146782 682.253846 234.714763 682.564103 234.282770 682.874359 233.850804 683.184615 233.418863 683.494872 232.986947 683.805128 232.555057 684.115385 232.123192 684.425641 231.691352 684.735897 231.259536 685.046154 230.827744 685.356410 230.395976 685.666667 229.964232 685.976923 229.532511 686.287179 229.100813 686.597436 228.669138 686.907692 228.237486 687.217949 227.805856 687.528205 227.374247 687.838462 226.942661 688.148718 226.511096 688.458974 226.079552 688.769231 225.648029 689.079487 225.216526 689.389744 224.785044 689.700000 224.353582 690.010256 223.922139 690.320513 223.490717 690.630769 223.059313 690.941026 222.627928 691.251282 222.196562 691.561538 221.765215 691.871795 221.333885 692.182051 220.902574 692.492308 220.471280 692.802564 220.040003 693.112821 219.608743 693.423077 219.177500 693.733333 218.746274 694.043590 218.315063 694.353846 217.883869 694.664103 217.452690 694.974359 217.021527 695.284615 216.590379 695.594872 216.159246 695.905128 215.728127 696.215385 215.297022 696.525641 214.865932 696.835897 214.434855 697.146154 214.003792 697.456410 213.572741 697.766667 213.141704 698.076923 212.710680 698.387179 212.279667 698.697436 211.848667 699.007692 211.417679 699.317949 210.986702 699.628205 210.555737 699.938462 210.124782 700.248718 209.693838 700.558974 209.262905 700.869231 208.831982 701.179487 208.401068 701.489744 207.970164 701.800000 207.539270 702.110256 207.108385 702.420513 206.677508 702.730769 206.246640 703.041026 205.815780 703.351282 205.384928 703.661538 204.954084 703.971795 204.523248 704.282051 204.092418 704.592308 203.661595 704.902564 203.230779 705.212821 202.799969 705.523077 202.369166 705.833333 201.938368 706.143590 201.507575 706.453846 201.076788 706.764103 200.646006 707.074359 200.215228 707.384615 199.784455 707.694872 199.353685 708.005128 198.922920 708.315385 198.492158 708.625641 198.061400 708.935897 197.630645 709.246154 197.199892 709.556410 196.769142 709.866667 196.338394 710.176923 195.907648 710.487179 195.476903 710.797436 195.046160 711.107692 194.615418 711.417949 194.184677 711.728205 193.753936 712.038462 193.323196 712.038462 540.000000" /></g></g><g class="titles" /><g class="plot overlay" transform="translate(54, 20)"><g class="series serie-0 color-0"><g class="dots"><circle class="dot reactive tooltip-trigger" cx="13.96153846153846" cy="529.6153846153845" r="2.5" /><desc class="value">309,415,355(kWh)</desc><desc class="x top">13.96153846153846</desc><desc class="y top">529.6153846153845</desc><desc class="x_label">2549</desc></g><g class="dots"><circle class="dot reactive tooltip-trigger" cx="91.52564102564101" cy="380.7079738197183" r="2.5" /><desc class="value">346,903,275(kWh)</desc><desc class="x top">91.52564102564101</desc><desc class="y top">380.7079738197183</desc><desc class="x_label">2550</desc></g><g class="dots"><circle class="dot reactive tooltip-trigger" cx="169.08974358974356" cy="330.9085946894136" r="2.5" /><desc class="value">359,440,429(kWh)</desc><desc class="x top">169.08974358974356</desc><desc class="y top">330.9085946894136</desc><desc class="x_label">2551</desc></g><g class="dots"><circle class="dot reactive tooltip-trigger" cx="246.65384615384613" cy="182.90638781093986" r="2.5" /><desc class="value">396,700,461(kWh)</desc><desc class="x ">246.65384615384613</desc><desc class="y ">182.90638781093986</desc><desc class="x_label">2552</desc></g><g class="dots"><circle class="dot reactive tooltip-trigger" cx="324.21794871794873" cy="18.937286780928275" r="2.5" /><desc class="value">437,980,210(kWh)</desc><desc class="x ">324.21794871794873</desc><desc class="y ">18.937286780928275</desc><desc class="x_label">2553</desc></g><g class="dots"><circle class="dot reactive tooltip-trigger" cx="401.78205128205127" cy="369.6638449259515" r="2.5" /><desc class="value">349,683,670(kWh)</desc><desc class="x left top">401.78205128205127</desc><desc class="y left top">369.6638449259515</desc><desc class="x_label">2554</desc></g><g class="dots"><circle class="dot reactive tooltip-trigger" cx="479.3461538461538" cy="456.42552403062007" r="2.5" /><desc class="value">327,841,138(kWh)</desc><desc class="x left top">479.3461538461538</desc><desc class="y left top">456.42552403062007</desc><desc class="x_label">2555</desc></g><g class="dots"><circle class="dot reactive tooltip-trigger" cx="556.9102564102565" cy="402.5824667139374" r="2.5" /><desc class="value">341,396,301(kWh)</desc><desc class="x left top">556.9102564102565</desc><desc class="y left top">402.5824667139374</desc><desc class="x_label">2556</desc></g><g class="dots"><circle class="dot reactive tooltip-trigger" cx="634.474358974359" cy="301.7235378733186" r="2.5" /><desc class="value">366,787,861(kWh)</desc><desc class="x left top">634.474358974359</desc><desc class="y left top">301.7235378733186</desc><desc class="x_label">2557</desc></g><g class="dots"><circle class="dot reactive tooltip-trigger" cx="712.0384615384615" cy="193.32319602682003" r="2.5" /><desc class="value">394,077,996(kWh)</desc><desc class="x left">712.0384615384615</desc><desc class="y left">193.32319602682003</desc><desc class="x_label">2558</desc></g></g></g><g class="plot text-overlay" transform="translate(54, 20)"><g class="series serie-0 color-0" /></g><g class="plot tooltip-overlay" transform="translate(54, 20)"><g class="tooltip" style="opacity: 0" transform="translate(0 0)"><rect class="tooltip-box" height="0" rx="0" ry="0" width="0" /><g class="text" /></g></g></g></svg>