<?xml version='1.0' encoding='utf-8'?>
<svg xmlns:xlink="http://www.w3.org/1999/xlink" class="pygal-chart" id="chart-fd79b95e-24e2-4f1c-af5e-e0f0499f8d38" viewBox="0 0 800 600" xmlns="http://www.w3.org/2000/svg"><!--Generated with pygal 2.3.0 (etree) ©Kozea 2012-2016 on 2016-12-08--><!--http://pygal.org--><!--http://github.com/Kozea/pygal--><defs><style type="text/css">#chart-fd79b95e-24e2-4f1c-af5e-e0f0499f8d38{-webkit-user-select:none;-webkit-font-smoothing:antialiased;font-family:Consolas,"Liberation Mono",Menlo,Courier,monospace}#chart-fd79b95e-24e2-4f1c-af5e-e0f0499f8d38 .title{font-family:Consolas,"Liberation Mono",Menlo,Courier,monospace;font-size:16px}#chart-fd79b95e-24e2-4f1c-af5e-e0f0499f8d38 .legends .legend text{font-family:Consolas,"Liberation Mono",Menlo,Courier,monospace;font-size:14px}#chart-fd79b95e-24e2-4f1c-af5e-e0f0499f8d38 .axis text{font-family:Consolas,"Liberation Mono",Menlo,Courier,monospace;font-size:10px}#chart-fd79b95e-24e2-4f1c-af5e-e0f0499f8d38 .axis text.major{font-family:Consolas,"Liberation Mono",Menlo,Courier,monospace;font-size:10px}#chart-fd79b95e-24e2-4f1c-af5e-e0f0499f8d38 .text-overlay text.value{font-family:Consolas,"Liberation Mono",Menlo,Courier,monospace;font-size:16px}#chart-fd79b95e-24e2-4f1c-af5e-e0f0499f8d38 .text-overlay text.label{font-family:Consolas,"Liberation Mono",Menlo,Courier,monospace;font-size:10px}#chart-fd79b95e-24e2-4f1c-af5e-e0f0499f8d38 .tooltip{font-family:Consolas,"Liberation Mono",Menlo,Courier,monospace;font-size:14px}#chart-fd79b95e-24e2-4f1c-af5e-e0f0499f8d38 text.no_data{font-family:Consolas,"Liberation Mono",Menlo,Courier,monospace;font-size:64px}
#chart-fd79b95e-24e2-4f1c-af5e-e0f0499f8d38{background-color:rgba(249,249,249,1)}#chart-fd79b95e-24e2-4f1c-af5e-e0f0499f8d38 path,#chart-fd79b95e-24e2-4f1c-af5e-e0f0499f8d38 line,#chart-fd79b95e-24e2-4f1c-af5e-e0f0499f8d38 rect,#chart-fd79b95e-24e2-4f1c-af5e-e0f0499f8d38 circle{-webkit-transition:150ms;-moz-transition:150ms;transition:150ms}#chart-fd79b95e-24e2-4f1c-af5e-e0f0499f8d38 .graph &gt; .background{fill:rgba(249,249,249,1)}#chart-fd79b95e-24e2-4f1c-af5e-e0f0499f8d38 .plot &gt; .background{fill:rgba(255,255,255,1)}#chart-fd79b95e-24e2-4f1c-af5e-e0f0499f8d38 .graph{fill:rgba(0,0,0,.87)}#chart-fd79b95e-24e2-4f1c-af5e-e0f0499f8d38 text.no_data{fill:rgba(0,0,0,1)}#chart-fd79b95e-24e2-4f1c-af5e-e0f0499f8d38 .title{fill:rgba(0,0,0,1)}#chart-fd79b95e-24e2-4f1c-af5e-e0f0499f8d38 .legends .legend text{fill:rgba(0,0,0,.87)}#chart-fd79b95e-24e2-4f1c-af5e-e0f0499f8d38 .legends .legend:hover text{fill:rgba(0,0,0,1)}#chart-fd79b95e-24e2-4f1c-af5e-e0f0499f8d38 .axis .line{stroke:rgba(0,0,0,1)}#chart-fd79b95e-24e2-4f1c-af5e-e0f0499f8d38 .axis .guide.line{stroke:rgba(0,0,0,.54)}#chart-fd79b95e-24e2-4f1c-af5e-e0f0499f8d38 .axis .major.line{stroke:rgba(0,0,0,.87)}#chart-fd79b95e-24e2-4f1c-af5e-e0f0499f8d38 .axis text.major{fill:rgba(0,0,0,1)}#chart-fd79b95e-24e2-4f1c-af5e-e0f0499f8d38 .axis.y .guides:hover .guide.line,#chart-fd79b95e-24e2-4f1c-af5e-e0f0499f8d38 .line-graph .axis.x .guides:hover .guide.line,#chart-fd79b95e-24e2-4f1c-af5e-e0f0499f8d38 .stackedline-graph .axis.x .guides:hover .guide.line,#chart-fd79b95e-24e2-4f1c-af5e-e0f0499f8d38 .xy-graph .axis.x .guides:hover .guide.line{stroke:rgba(0,0,0,1)}#chart-fd79b95e-24e2-4f1c-af5e-e0f0499f8d38 .axis .guides:hover text{fill:rgba(0,0,0,1)}#chart-fd79b95e-24e2-4f1c-af5e-e0f0499f8d38 .reactive{fill-opacity:.7;stroke-opacity:.8}#chart-fd79b95e-24e2-4f1c-af5e-e0f0499f8d38 .ci{stroke:rgba(0,0,0,.87)}#chart-fd79b95e-24e2-4f1c-af5e-e0f0499f8d38 .reactive.active,#chart-fd79b95e-24e2-4f1c-af5e-e0f0499f8d38 .active .reactive{fill-opacity:.8;stroke-opacity:.9;stroke-width:4}#chart-fd79b95e-24e2-4f1c-af5e-e0f0499f8d38 .ci .reactive.active{stroke-width:1.5}#chart-fd79b95e-24e2-4f1c-af5e-e0f0499f8d38 .series text{fill:rgba(0,0,0,1)}#chart-fd79b95e-24e2-4f1c-af5e-e0f0499f8d38 .tooltip rect{fill:rgba(255,255,255,1);stroke:rgba(0,0,0,1);-webkit-transition:opacity 150ms;-moz-transition:opacity 150ms;transition:opacity 150ms}#chart-fd79b95e-24e2-4f1c-af5e-e0f0499f8d38 .tooltip .label{fill:rgba(0,0,0,.87)}#chart-fd79b95e-24e2-4f1c-af5e-e0f0499f8d38 .tooltip .label{fill:rgba(0,0,0,.87)}#chart-fd79b95e-24e2-4f1c-af5e-e0f0499f8d38 .tooltip .legend{font-size:.8em;fill:rgba(0,0,0,.54)}#chart-fd79b95e-24e2-4f1c-af5e-e0f0499f8d38 .tooltip .x_label{font-size:.6em;fill:rgba(0,0,0,1)}#chart-fd79b95e-24e2-4f1c-af5e-e0f0499f8d38 .tooltip .xlink{font-size:.5em;text-decoration:underline}#chart-fd79b95e-24e2-4f1c-af5e-e0f0499f8d38 .tooltip .value{font-size:1.5em}#chart-fd79b95e-24e2-4f1c-af5e-e0f0499f8d38 .bound{font-size:.5em}#chart-fd79b95e-24e2-4f1c-af5e-e0f0499f8d38 .max-value{font-size:.75em;fill:rgba(0,0,0,.54)}#chart-fd79b95e-24e2-4f1c-af5e-e0f0499f8d38 .map-element{fill:rgba(255,255,255,1);stroke:rgba(0,0,0,.54) !important}#chart-fd79b95e-24e2-4f1c-af5e-e0f0499f8d38 .map-element .reactive{fill-opacity:inherit;stroke-opacity:inherit}#chart-fd79b95e-24e2-4f1c-af5e-e0f0499f8d38 .color-0,#chart-fd79b95e-24e2-4f1c-af5e-e0f0499f8d38 .color-0 a:visited{stroke:#e86fa0;fill:#e86fa0}#chart-fd79b95e-24e2-4f1c-af5e-e0f0499f8d38 .text-overlay .color-0 text{fill:black}
#chart-fd79b95e-24e2-4f1c-af5e-e0f0499f8d38 text.no_data{text-anchor:middle}#chart-fd79b95e-24e2-4f1c-af5e-e0f0499f8d38 .guide.line{fill:none}#chart-fd79b95e-24e2-4f1c-af5e-e0f0499f8d38 .centered{text-anchor:middle}#chart-fd79b95e-24e2-4f1c-af5e-e0f0499f8d38 .title{text-anchor:middle}#chart-fd79b95e-24e2-4f1c-af5e-e0f0499f8d38 .legends .legend text{fill-opacity:1}#chart-fd79b95e-24e2-4f1c-af5e-e0f0499f8d38 .axis.x text{text-anchor:middle}#chart-fd79b95e-24e2-4f1c-af5e-e0f0499f8d38 .axis.x:not(.web) text[transform]{text-anchor:start}#chart-fd79b95e-24e2-4f1c-af5e-e0f0499f8d38 .axis.x:not(.web) text[transform].backwards{text-anchor:end}#chart-fd79b95e-24e2-4f1c-af5e-e0f0499f8d38 .axis.y text{text-anchor:end}#chart-fd79b95e-24e2-4f1c-af5e-e0f0499f8d38 .axis.y text[transform].backwards{text-anchor:start}#chart-fd79b95e-24e2-4f1c-af5e-e0f0499f8d38 .axis.y2 text{text-anchor:start}#chart-fd79b95e-24e2-4f1c-af5e-e0f0499f8d38 .axis.y2 text[transform].backwards{text-anchor:end}#chart-fd79b95e-24e2-4f1c-af5e-e0f0499f8d38 .axis .guide.line{stroke-dasharray:4,4}#chart-fd79b95e-24e2-4f1c-af5e-e0f0499f8d38 .axis .major.guide.line{stroke-dasharray:6,6}#chart-fd79b95e-24e2-4f1c-af5e-e0f0499f8d38 .horizontal .axis.y .guide.line,#chart-fd79b95e-24e2-4f1c-af5e-e0f0499f8d38 .horizontal .axis.y2 .guide.line,#chart-fd79b95e-24e2-4f1c-af5e-e0f0499f8d38 .vertical .axis.x .guide.line{opacity:0}#chart-fd79b95e-24e2-4f1c-af5e-e0f0499f8d38 .horizontal .axis.always_show .guide.line,#chart-fd79b95e-24e2-4f1c-af5e-e0f0499f8d38 .vertical .axis.always_show .guide.line{opacity:1 !important}#chart-fd79b95e-24e2-4f1c-af5e-e0f0499f8d38 .axis.y .guides:hover .guide.line,#chart-fd79b95e-24e2-4f1c-af5e-e0f0499f8d38 .axis.y2 .guides:hover .guide.line,#chart-fd79b95e-24e2-4f1c-af5e-e0f0499f8d38 .axis.x .guides:hover .guide.line{opacity:1}#chart-fd79b95e-24e2-4f1c-af5e-e0f0499f8d38 .axis .guides:hover text{opacity:1}#chart-fd79b95e-24e2-4f1c-af5e-e0f0499f8d38 .nofill{fill:none}#chart-fd79b95e-24e2-4f1c-af5e-e0f0499f8d38 .subtle-fill{fill-opacity:.2}#chart-fd79b95e-24e2-4f1c-af5e-e0f0499f8d38 .dot{stroke-width:1px;fill-opacity:1}#chart-fd79b95e-24e2-4f1c-af5e-e0f0499f8d38 .dot.active{stroke-width:5px}#chart-fd79b95e-24e2-4f1c-af5e-e0f0499f8d38 .dot.negative{fill:transparent}#chart-fd79b95e-24e2-4f1c-af5e-e0f0499f8d38 text,#chart-fd79b95e-24e2-4f1c-af5e-e0f0499f8d38 tspan{stroke:none !important}#chart-fd79b95e-24e2-4f1c-af5e-e0f0499f8d38 .series text.active{opacity:1}#chart-fd79b95e-24e2-4f1c-af5e-e0f0499f8d38 .tooltip rect{fill-opacity:.95;stroke-width:.5}#chart-fd79b95e-24e2-4f1c-af5e-e0f0499f8d38 .tooltip text{fill-opacity:1}#chart-fd79b95e-24e2-4f1c-af5e-e0f0499f8d38 .showable{visibility:hidden}#chart-fd79b95e-24e2-4f1c-af5e-e0f0499f8d38 .showable.shown{visibility:visible}#chart-fd79b95e-24e2-4f1c-af5e-e0f0499f8d38 .gauge-background{fill:rgba(229,229,229,1);stroke:none}#chart-fd79b95e-24e2-4f1c-af5e-e0f0499f8d38 .bg-lines{stroke:rgba(249,249,249,1);stroke-width:2px}</style><script type="text/javascript">window.pygal = window.pygal || {};window.pygal.config = window.pygal.config || {};window.pygal.config['fd79b95e-24e2-4f1c-af5e-e0f0499f8d38'] = {"no_data_text": "No data", "no_prefix": false, "xrange": null, "print_values_position": "center", "truncate_label": null, "x_labels": ["2549", "2550", "2551", "2552", "2553", "2554", "2555", "2556", "2557", "2558"], "title": null, "force_uri_protocol": "https", "defs": [], "formatter": null, "classes": ["pygal-chart"], "y_labels": null, "rounded_bars": null, "explicit_size": false, "x_labels_major_every": null, "legend_at_bottom_columns": null, "stroke_style": null, "half_pie": false, "spacing": 10, "tooltip_fancy_mode": true, "inverse_y_axis": false, "width": 800, "inner_radius": 0, "interpolation_parameters": {}, "tooltip_border_radius": 0, "style": {"no_data_font_family": "Consolas, \"Liberation Mono\", Menlo, Courier, monospace", "tooltip_font_size": 14, "tooltip_font_family": "Consolas, \"Liberation Mono\", Menlo, Courier, monospace", "stroke_opacity_hover": ".9", "legend_font_family": "Consolas, \"Liberation Mono\", Menlo, Courier, monospace", "font_family": "Consolas, \"Liberation Mono\", Menlo, Courier, monospace", "title_font_family": "Consolas, \"Liberation Mono\", Menlo, Courier, monospace", "background": "rgba(249, 249, 249, 1)", "stroke_opacity": ".8", "foreground": "rgba(0, 0, 0, .87)", "value_background": "rgba(229, 229, 229, 1)", "guide_stroke_dasharray": "4,4", "foreground_subtle": "rgba(0, 0, 0, .54)", "opacity_hover": ".8", "value_font_family": "Consolas, \"Liberation Mono\", Menlo, Courier, monospace", "value_label_font_size": 10, "plot_background": "rgba(255, 255, 255, 1)", "ci_colors": [], "label_font_size": 10, "major_label_font_size": 10, "title_font_size": 16, "no_data_font_size": 64, "value_font_size": 16, "value_colors": [], "label_font_family": "Consolas, \"Liberation Mono\", Menlo, Courier, monospace", "major_guide_stroke_dasharray": "6,6", "transition": "150ms", "foreground_strong": "rgba(0, 0, 0, 1)", "colors": ["#e86fa0", "#e88f6f", "#e8df6f", "#a0e86f", "#6fe88f", "#6fe8df", "#6fa0e8", "#8f6fe8", "#df6fe8", "#e86fa0"], "opacity": ".7", "legend_font_size": 14, "value_label_font_family": "Consolas, \"Liberation Mono\", Menlo, Courier, monospace", "major_label_font_family": "Consolas, \"Liberation Mono\", Menlo, Courier, monospace"}, "x_labels_major_count": null, "interpolation_precision": 250, "missing_value_fill_truncation": "x", "stack_from_top": false, "truncate_legend": null, "show_minor_x_labels": true, "print_zeroes": true, "css": ["file://style.css", "file://graph.css"], "y_label_rotation": 0, "legend_at_bottom": false, "print_values": false, "margin_top": null, "max_scale": 16, "allow_interruptions": false, "show_x_labels": true, "strict": false, "show_x_guides": false, "stroke": true, "margin_left": null, "dynamic_print_values": false, "print_labels": false, "show_y_labels": true, "x_labels_major": null, "range": null, "x_label_rotation": 0, "margin": 20, "zero": 0, "include_x_axis": false, "height": 600, "show_minor_y_labels": true, "show_dots": true, "interpolate": "cubic", "show_y_guides": true, "y_labels_major": null, "box_mode": "extremes", "margin_bottom": null, "order_min": null, "legend_box_size": 12, "fill": true, "show_only_major_dots": false, "js": ["//kozea.github.io/pygal.js/2.0.x/pygal-tooltips.min.js"], "x_title": null, "y_labels_major_every": null, "y_labels_major_count": null, "disable_xml_declaration": false, "y_title": null, "logarithmic": false, "pretty_print": false, "min_scale": 4, "dots_size": 2.5, "margin_right": null, "legends": [null], "secondary_range": null, "show_legend": false}</script><script type="text/javascript" xlink:href="https://kozea.github.io/pygal.js/2.0.x/pygal-tooltips.min.js" /></defs><title>Pygal</title><g class="graph stackedline-graph vertical"><rect class="background" height="600" width="800" x="0" y="0" /><g class="plot" transform="translate(60, 20)"><rect class="background" height="540" width="720.0" x="0" y="0" /><g class="axis y"><path class="line" d="M0.000000 540.000000 h720.000000" /><g class="guides"><path class="guide line" d="M0.000000 475.558899 h720.000000" /><text class="" x="-5" y="479.0588988928828">800M</text><title>800M</title></g><g class="guides"><path class="guide line" d="M0.000000 380.620035 h720.000000" /><text class="" x="-5" y="384.120035307153">900M</text><title>900M</title></g><g class="guides"><path class="major guide line" d="M0.000000 285.681172 h720.000000" /><text class="major" x="-5" y="289.1811717214231">1000M</text><title>1000M</title></g><g class="guides"><path class="guide line" d="M0.000000 190.742308 h720.000000" /><text class="" x="-5" y="194.2423081356933">1100M</text><title>1100M</title></g><g class="guides"><path class="guide line" d="M0.000000 95.803445 h720.000000" /><text class="" x="-5" y="99.30344454996344">1200M</text><title>1200M</title></g></g><g class="axis x"><g class="guides"><path class="line" d="M13.846154 0.000000 v540.000000" /><text class="" x="13.846153846153847" y="555.0">2549</text></g><g class="guides"><path class="guide line" d="M90.769231 0.000000 v540.000000" /><text class="" x="90.76923076923076" y="555.0">2550</text></g><g class="guides"><path class="guide line" d="M167.692308 0.000000 v540.000000" /><text class="" x="167.69230769230765" y="555.0">2551</text></g><g class="guides"><path class="guide line" d="M244.615385 0.000000 v540.000000" /><text class="" x="244.6153846153846" y="555.0">2552</text></g><g class="guides"><path class="guide line" d="M321.538462 0.000000 v540.000000" /><text class="" x="321.5384615384615" y="555.0">2553</text></g><g class="guides"><path class="guide line" d="M398.461538 0.000000 v540.000000" /><text class="" x="398.46153846153845" y="555.0">2554</text></g><g class="guides"><path class="guide line" d="M475.384615 0.000000 v540.000000" /><text class="" x="475.38461538461536" y="555.0">2555</text></g><g class="guides"><path class="guide line" d="M552.307692 0.000000 v540.000000" /><text class="" x="552.3076923076923" y="555.0">2556</text></g><g class="guides"><path class="guide line" d="M629.230769 0.000000 v540.000000" /><text class="" x="629.2307692307692" y="555.0">2557</text></g><g class="guides"><path class="guide line" d="M706.153846 0.000000 v540.000000" /><text class="" x="706.1538461538461" y="555.0">2558</text></g></g><g class="series serie-0 color-0"><path class="line reactive" d="M13.846154 540.000000 L13.846154 529.615385 14.153846 529.440031 14.461538 529.264681 14.769231 529.089338 15.076923 528.914006 15.384615 528.738687 15.692308 528.563387 16.000000 528.388107 16.307692 528.212852 16.615385 528.037625 16.923077 527.862429 17.230769 527.687269 17.538462 527.512147 17.846154 527.337067 18.153846 527.162033 18.461538 526.987048 18.769231 526.812116 19.076923 526.637240 19.384615 526.462423 19.692308 526.287670 20.000000 526.112983 20.307692 525.938367 20.615385 525.763824 20.923077 525.589359 21.230769 525.414974 21.538462 525.240674 21.846154 525.066461 22.153846 524.892339 22.461538 524.718313 22.769231 524.544384 23.076923 524.370557 23.384615 524.196836 23.692308 524.023223 24.000000 523.849723 24.307692 523.676339 24.615385 523.503074 24.923077 523.329931 25.230769 523.156915 25.538462 522.984029 25.846154 522.811277 26.153846 522.638661 26.461538 522.466186 26.769231 522.293854 27.076923 522.121670 27.384615 521.949637 27.692308 521.777758 28.000000 521.606037 28.307692 521.434478 28.615385 521.263084 28.923077 521.091858 29.230769 520.920804 29.538462 520.749926 29.846154 520.579226 30.153846 520.408709 30.461538 520.238379 30.769231 520.068237 31.076923 519.898289 31.384615 519.728537 31.692308 519.558985 32.000000 519.389637 32.307692 519.220496 32.615385 519.051566 32.923077 518.882850 33.230769 518.714351 33.538462 518.546073 33.846154 518.378020 34.153846 518.210196 34.461538 518.042602 34.769231 517.875244 35.076923 517.708125 35.384615 517.541248 35.692308 517.374616 36.000000 517.208234 36.307692 517.042105 36.615385 516.876231 36.923077 516.710618 37.230769 516.545267 37.538462 516.380184 37.846154 516.215370 38.153846 516.050831 38.461538 515.886568 38.769231 515.722587 39.076923 515.558890 39.384615 515.395480 39.692308 515.232362 40.000000 515.069539 40.307692 514.907014 40.615385 514.744791 40.923077 514.582873 41.230769 514.421264 41.538462 514.259968 41.846154 514.098987 42.153846 513.938326 42.461538 513.777988 42.769231 513.617976 43.076923 513.458294 43.384615 513.298945 43.692308 513.139934 44.000000 512.981263 44.307692 512.822935 44.615385 512.664956 44.923077 512.507327 45.230769 512.350053 45.538462 512.193137 45.846154 512.036582 46.153846 511.880392 46.461538 511.724571 46.769231 511.569122 47.076923 511.414049 47.384615 511.259354 47.692308 511.105042 48.000000 510.951117 48.307692 510.797580 48.615385 510.644437 48.923077 510.491691 49.230769 510.339344 49.538462 510.187402 49.846154 510.035866 50.153846 509.884741 50.461538 509.734031 50.769231 509.583737 51.076923 509.433866 51.384615 509.284418 51.692308 509.135399 52.000000 508.986812 52.307692 508.838660 52.615385 508.690947 52.923077 508.543676 53.230769 508.396850 53.538462 508.250474 53.846154 508.104551 54.153846 507.959084 54.461538 507.814077 54.769231 507.669533 55.076923 507.525456 55.384615 507.381849 55.692308 507.238716 56.000000 507.096060 56.307692 506.953885 56.615385 506.812195 56.923077 506.670992 57.230769 506.530281 57.538462 506.390065 57.846154 506.250347 58.153846 506.111131 58.461538 505.972421 58.769231 505.834219 59.076923 505.696530 59.384615 505.559357 59.692308 505.422703 60.000000 505.286572 60.307692 505.150968 60.615385 505.015893 60.923077 504.881352 61.230769 504.747349 61.538462 504.613885 61.846154 504.480966 62.153846 504.348594 62.461538 504.216774 62.769231 504.085507 63.076923 503.954799 63.384615 503.824653 63.692308 503.695071 64.000000 503.566059 64.307692 503.437618 64.615385 503.309753 64.923077 503.182467 65.230769 503.055764 65.538462 502.929646 65.846154 502.804119 66.153846 502.679184 66.461538 502.554847 66.769231 502.431109 67.076923 502.307976 67.384615 502.185449 67.692308 502.063533 68.000000 501.942231 68.307692 501.821547 68.615385 501.701485 68.923077 501.582047 69.230769 501.463237 69.538462 501.345059 69.846154 501.227517 70.153846 501.110613 70.461538 500.994351 70.769231 500.878736 71.076923 500.763769 71.384615 500.649456 71.692308 500.535799 72.000000 500.422801 72.307692 500.310467 72.615385 500.198800 72.923077 500.087804 73.230769 499.977481 73.538462 499.867835 73.846154 499.758871 74.153846 499.650591 74.461538 499.542999 74.769231 499.436098 75.076923 499.329892 75.384615 499.224385 75.692308 499.119580 76.000000 499.015480 76.307692 498.912089 76.615385 498.809411 76.923077 498.707448 77.230769 498.606205 77.538462 498.505686 77.846154 498.405892 78.153846 498.306829 78.461538 498.208500 78.769231 498.110907 79.076923 498.014055 79.384615 497.917947 79.692308 497.822587 80.000000 497.727978 80.307692 497.634123 80.615385 497.541027 80.923077 497.448692 81.230769 497.357122 81.538462 497.266321 81.846154 497.176292 82.153846 497.087039 82.461538 496.998565 82.769231 496.910874 83.076923 496.823969 83.384615 496.737854 83.692308 496.652532 84.000000 496.568006 84.307692 496.484281 84.615385 496.401360 84.923077 496.319246 85.230769 496.237942 85.538462 496.157453 85.846154 496.077782 86.153846 495.998932 86.461538 495.920907 86.769231 495.843710 87.076923 495.767345 87.384615 495.691816 87.692308 495.617125 88.000000 495.543277 88.307692 495.470274 88.615385 495.398121 88.923077 495.326821 89.230769 495.256377 89.538462 495.186793 89.846154 495.118073 90.153846 495.050219 90.461538 494.983236 90.769231 494.917127 91.076923 494.851893 91.384615 494.787526 91.692308 494.724015 92.000000 494.661350 92.307692 494.599521 92.615385 494.538516 92.923077 494.478326 93.230769 494.418939 93.538462 494.360346 93.846154 494.302535 94.153846 494.245496 94.461538 494.189220 94.769231 494.133694 95.076923 494.078908 95.384615 494.024853 95.692308 493.971517 96.000000 493.918891 96.307692 493.866962 96.615385 493.815722 96.923077 493.765159 97.230769 493.715263 97.538462 493.666023 97.846154 493.617429 98.153846 493.569470 98.461538 493.522136 98.769231 493.475416 99.076923 493.429299 99.384615 493.383776 99.692308 493.338836 100.000000 493.294467 100.307692 493.250660 100.615385 493.207404 100.923077 493.164689 101.230769 493.122504 101.538462 493.080837 101.846154 493.039680 102.153846 492.999021 102.461538 492.958850 102.769231 492.919157 103.076923 492.879930 103.384615 492.841159 103.692308 492.802834 104.000000 492.764944 104.307692 492.727479 104.615385 492.690428 104.923077 492.653780 105.230769 492.617526 105.538462 492.581654 105.846154 492.546154 106.153846 492.511015 106.461538 492.476227 106.769231 492.441780 107.076923 492.407663 107.384615 492.373865 107.692308 492.340376 108.000000 492.307185 108.307692 492.274281 108.615385 492.241655 108.923077 492.209296 109.230769 492.177193 109.538462 492.145335 109.846154 492.113712 110.153846 492.082315 110.461538 492.051131 110.769231 492.020150 111.076923 491.989363 111.384615 491.958757 111.692308 491.928324 112.000000 491.898052 112.307692 491.867931 112.615385 491.837951 112.923077 491.808100 113.230769 491.778368 113.538462 491.748745 113.846154 491.719220 114.153846 491.689783 114.461538 491.660423 114.769231 491.631130 115.076923 491.601893 115.384615 491.572701 115.692308 491.543544 116.000000 491.514411 116.307692 491.485293 116.615385 491.456178 116.923077 491.427056 117.230769 491.397916 117.538462 491.368748 117.846154 491.339541 118.153846 491.310285 118.461538 491.280970 118.769231 491.251583 119.076923 491.222116 119.384615 491.192558 119.692308 491.162898 120.000000 491.133125 120.307692 491.103230 120.615385 491.073201 120.923077 491.043027 121.230769 491.012700 121.538462 490.982207 121.846154 490.951539 122.153846 490.920684 122.461538 490.889633 122.769231 490.858374 123.076923 490.826898 123.384615 490.795194 123.692308 490.763250 124.000000 490.731058 124.307692 490.698605 124.615385 490.665882 124.923077 490.632879 125.230769 490.599583 125.538462 490.565986 125.846154 490.532076 126.153846 490.497843 126.461538 490.463277 126.769231 490.428366 127.076923 490.393101 127.384615 490.357471 127.692308 490.321465 128.000000 490.285072 128.307692 490.248283 128.615385 490.211087 128.923077 490.173473 129.230769 490.135430 129.538462 490.096949 129.846154 490.058018 130.153846 490.018627 130.461538 489.978765 130.769231 489.938423 131.076923 489.897589 131.384615 489.856253 131.692308 489.814405 132.000000 489.772033 132.307692 489.729127 132.615385 489.685678 132.923077 489.641674 133.230769 489.597104 133.538462 489.551959 133.846154 489.506227 134.153846 489.459898 134.461538 489.412962 134.769231 489.365408 135.076923 489.317226 135.384615 489.268405 135.692308 489.218934 136.000000 489.168803 136.307692 489.118002 136.615385 489.066519 136.923077 489.014345 137.230769 488.961469 137.538462 488.907880 137.846154 488.853567 138.153846 488.798521 138.461538 488.742731 138.769231 488.686186 139.076923 488.628875 139.384615 488.570789 139.692308 488.511916 140.000000 488.452247 140.307692 488.391769 140.615385 488.330474 140.923077 488.268350 141.230769 488.205388 141.538462 488.141575 141.846154 488.076903 142.153846 488.011360 142.461538 487.944935 142.769231 487.877619 143.076923 487.809401 143.384615 487.740270 143.692308 487.670215 144.000000 487.599227 144.307692 487.527294 144.615385 487.454407 144.923077 487.380554 145.230769 487.305725 145.538462 487.229909 145.846154 487.153097 146.153846 487.075277 146.461538 486.996439 146.769231 486.916572 147.076923 486.835666 147.384615 486.753711 147.692308 486.670695 148.000000 486.586608 148.307692 486.501440 148.615385 486.415181 148.923077 486.327819 149.230769 486.239344 149.538462 486.149746 149.846154 486.059014 150.153846 485.967137 150.461538 485.874105 150.769231 485.779908 151.076923 485.684535 151.384615 485.587975 151.692308 485.490218 152.000000 485.391254 152.307692 485.291071 152.615385 485.189660 152.923077 485.087009 153.230769 484.983109 153.538462 484.877948 153.846154 484.771516 154.153846 484.663803 154.461538 484.554799 154.769231 484.444491 155.076923 484.332871 155.384615 484.219928 155.692308 484.105650 156.000000 483.990028 156.307692 483.873050 156.615385 483.754707 156.923077 483.634988 157.230769 483.513883 157.538462 483.391380 157.846154 483.267469 158.153846 483.142140 158.461538 483.015382 158.769231 482.887185 159.076923 482.757538 159.384615 482.626431 159.692308 482.493853 160.000000 482.359793 160.307692 482.224242 160.615385 482.087187 160.923077 481.948620 161.230769 481.808529 161.538462 481.666905 161.846154 481.523735 162.153846 481.379010 162.461538 481.232720 162.769231 481.084853 163.076923 480.935400 163.384615 480.784350 163.692308 480.631691 164.000000 480.477414 164.307692 480.321509 164.615385 480.163964 164.923077 480.004768 165.230769 479.843913 165.538462 479.681386 165.846154 479.517178 166.153846 479.351278 166.461538 479.183676 166.769231 479.014360 167.076923 478.843320 167.384615 478.670547 167.692308 478.496028 168.000000 478.319758 168.307692 478.141739 168.615385 477.961980 168.923077 477.780488 169.230769 477.597270 169.538462 477.412333 169.846154 477.225686 170.153846 477.037335 170.461538 476.847287 170.769231 476.655551 171.076923 476.462133 171.384615 476.267040 171.692308 476.070281 172.000000 475.871863 172.307692 475.671792 172.615385 475.470077 172.923077 475.266724 173.230769 475.061741 173.538462 474.855135 173.846154 474.646914 174.153846 474.437086 174.461538 474.225656 174.769231 474.012634 175.076923 473.798026 175.384615 473.581839 175.692308 473.364081 176.000000 473.144759 176.307692 472.923881 176.615385 472.701454 176.923077 472.477486 177.230769 472.251983 177.538462 472.024953 177.846154 471.796404 178.153846 471.566342 178.461538 471.334776 178.769231 471.101713 179.076923 470.867159 179.384615 470.631122 179.692308 470.393611 180.000000 470.154631 180.307692 469.914191 180.615385 469.672297 180.923077 469.428958 181.230769 469.184180 181.538462 468.937971 181.846154 468.690338 182.153846 468.441289 182.461538 468.190830 182.769231 467.938970 183.076923 467.685716 183.384615 467.431075 183.692308 467.175054 184.000000 466.917661 184.307692 466.658904 184.615385 466.398788 184.923077 466.137323 185.230769 465.874515 185.538462 465.610372 185.846154 465.344900 186.153846 465.078108 186.461538 464.810003 186.769231 464.540592 187.076923 464.269882 187.384615 463.997881 187.692308 463.724596 188.000000 463.450035 188.307692 463.174205 188.615385 462.897113 188.923077 462.618766 189.230769 462.339173 189.538462 462.058340 189.846154 461.776275 190.153846 461.492985 190.461538 461.208477 190.769231 460.922760 191.076923 460.635839 191.384615 460.347723 191.692308 460.058419 192.000000 459.767935 192.307692 459.476277 192.615385 459.183453 192.923077 458.889470 193.230769 458.594337 193.538462 458.298059 193.846154 458.000645 194.153846 457.702102 194.461538 457.402437 194.769231 457.101658 195.076923 456.799772 195.384615 456.496786 195.692308 456.192708 196.000000 455.887545 196.307692 455.581304 196.615385 455.273993 196.923077 454.965620 197.230769 454.656191 197.538462 454.345714 197.846154 454.034196 198.153846 453.721645 198.461538 453.408067 198.769231 453.093471 199.076923 452.777864 199.384615 452.461253 199.692308 452.143646 200.000000 451.825049 200.307692 451.505471 200.615385 451.184918 200.923077 450.863398 201.230769 450.540919 201.538462 450.217487 201.846154 449.893110 202.153846 449.567795 202.461538 449.241551 202.769231 448.914383 203.076923 448.586300 203.384615 448.257309 203.692308 447.927417 204.000000 447.596632 204.307692 447.264960 204.615385 446.932410 204.923077 446.598989 205.230769 446.264704 205.538462 445.929562 205.846154 445.593571 206.153846 445.256738 206.461538 444.919071 206.769231 444.580577 207.076923 444.241263 207.384615 443.901136 207.692308 443.560205 208.000000 443.218476 208.307692 442.875956 208.615385 442.532654 208.923077 442.188576 209.230769 441.843731 209.538462 441.498124 209.846154 441.151764 210.153846 440.804657 210.461538 440.456813 210.769231 440.108236 211.076923 439.758936 211.384615 439.408919 211.692308 439.058193 212.000000 438.706765 212.307692 438.354643 212.615385 438.001833 212.923077 437.648344 213.230769 437.294182 213.538462 436.939356 213.846154 436.583871 214.153846 436.227737 214.461538 435.870959 214.769231 435.513546 215.076923 435.155504 215.384615 434.796842 215.692308 434.437566 216.000000 434.077684 216.307692 433.717204 216.615385 433.356132 216.923077 432.994476 217.230769 432.632243 217.538462 432.269441 217.846154 431.906078 218.153846 431.542159 218.461538 431.177694 218.769231 430.812689 219.076923 430.447151 219.384615 430.081088 219.692308 429.714507 220.000000 429.347417 220.307692 428.979823 220.615385 428.611733 220.923077 428.243156 221.230769 427.874097 221.538462 427.504565 221.846154 427.134567 222.153846 426.764110 222.461538 426.393201 222.769231 426.021849 223.076923 425.650060 223.384615 425.277841 223.692308 424.905201 224.000000 424.532146 224.307692 424.158684 224.615385 423.784822 224.923077 423.410567 225.230769 423.035927 225.538462 422.660910 225.846154 422.285522 226.153846 421.909771 226.461538 421.533665 226.769231 421.157210 227.076923 420.780415 227.384615 420.403285 227.692308 420.025830 228.000000 419.648056 228.307692 419.269970 228.615385 418.891580 228.923077 418.512894 229.230769 418.133918 229.538462 417.754660 229.846154 417.375128 230.153846 416.995328 230.461538 416.615269 230.769231 416.234957 231.076923 415.854399 231.384615 415.473604 231.692308 415.092579 232.000000 414.711330 232.307692 414.329866 232.615385 413.948194 232.923077 413.566320 233.230769 413.184253 233.538462 412.802000 233.846154 412.419568 234.153846 412.036964 234.461538 411.654196 234.769231 411.271272 235.076923 410.888198 235.384615 410.504982 235.692308 410.121631 236.000000 409.738153 236.307692 409.354555 236.615385 408.970845 236.923077 408.587029 237.230769 408.203116 237.538462 407.819112 237.846154 407.435025 238.153846 407.050862 238.461538 406.666631 238.769231 406.282339 239.076923 405.897994 239.384615 405.513602 239.692308 405.129171 240.000000 404.744708 240.307692 404.360222 240.615385 403.975718 240.923077 403.591206 241.230769 403.206691 241.538462 402.822181 241.846154 402.437684 242.153846 402.053207 242.461538 401.668758 242.769231 401.284343 243.076923 400.899971 243.384615 400.515648 243.692308 400.131381 244.000000 399.747179 244.307692 399.363049 244.615385 398.978998 244.923077 398.595033 245.230769 398.211163 245.538462 397.827397 245.846154 397.443743 246.153846 397.060210 246.461538 396.676807 246.769231 396.293542 247.076923 395.910424 247.384615 395.527462 247.692308 395.144664 248.000000 394.762039 248.307692 394.379596 248.615385 393.997343 248.923077 393.615289 249.230769 393.233443 249.538462 392.851814 249.846154 392.470409 250.153846 392.089238 250.461538 391.708309 250.769231 391.327631 251.076923 390.947214 251.384615 390.567064 251.692308 390.187191 252.000000 389.807605 252.307692 389.428312 252.615385 389.049323 252.923077 388.670645 253.230769 388.292288 253.538462 387.914259 253.846154 387.536569 254.153846 387.159224 254.461538 386.782235 254.769231 386.405610 255.076923 386.029357 255.384615 385.653485 255.692308 385.278002 256.000000 384.902918 256.307692 384.528242 256.615385 384.153980 256.923077 383.780144 257.230769 383.406740 257.538462 383.033778 257.846154 382.661267 258.153846 382.289214 258.461538 381.917629 258.769231 381.546521 259.076923 381.175898 259.384615 380.805768 259.692308 380.436141 260.000000 380.067025 260.307692 379.698429 260.615385 379.330361 260.923077 378.962830 261.230769 378.595845 261.538462 378.229415 261.846154 377.863547 262.153846 377.498251 262.461538 377.133536 262.769231 376.769410 263.076923 376.405881 263.384615 376.042959 263.692308 375.680652 264.000000 375.318969 264.307692 374.957918 264.615385 374.597508 264.923077 374.237749 265.230769 373.878647 265.538462 373.520213 265.846154 373.162454 266.153846 372.805380 266.461538 372.448999 266.769231 372.093320 267.076923 371.738351 267.384615 371.384101 267.692308 371.030579 268.000000 370.677794 268.307692 370.325754 268.615385 369.974467 268.923077 369.623943 269.230769 369.274190 269.538462 368.925217 269.846154 368.577033 270.153846 368.229645 270.461538 367.883063 270.769231 367.537296 271.076923 367.192352 271.384615 366.848240 271.692308 366.504968 272.000000 366.162545 272.307692 365.820980 272.615385 365.480282 272.923077 365.140459 273.230769 364.801519 273.538462 364.463472 273.846154 364.126326 274.153846 363.790090 274.461538 363.454773 274.769231 363.120383 275.076923 362.786928 275.384615 362.454418 275.692308 362.122861 276.000000 361.792266 276.307692 361.462642 276.615385 361.133996 276.923077 360.806339 277.230769 360.479678 277.538462 360.154022 277.846154 359.829380 278.153846 359.505761 278.461538 359.183172 278.769231 358.861624 279.076923 358.541124 279.384615 358.221681 279.692308 357.903304 280.000000 357.586002 280.307692 357.269783 280.615385 356.954655 280.923077 356.640629 281.230769 356.327711 281.538462 356.015911 281.846154 355.705238 282.153846 355.395700 282.461538 355.087306 282.769231 354.780064 283.076923 354.473984 283.384615 354.169073 283.692308 353.865341 284.000000 353.562796 284.307692 353.261447 284.615385 352.961303 284.923077 352.662372 285.230769 352.364663 285.538462 352.068184 285.846154 351.772944 286.153846 351.478953 286.461538 351.186218 286.769231 350.894748 287.076923 350.604552 287.384615 350.315638 287.692308 350.028016 288.000000 349.741694 288.307692 349.456680 288.615385 349.172984 288.923077 348.890613 289.230769 348.609577 289.538462 348.329884 289.846154 348.051544 290.153846 347.774563 290.461538 347.498952 290.769231 347.224719 291.076923 346.951873 291.384615 346.680421 291.692308 346.410374 292.000000 346.141739 292.307692 345.874526 292.615385 345.608742 292.923077 345.344397 293.230769 345.081499 293.538462 344.820057 293.846154 344.560080 294.153846 344.301576 294.461538 344.044554 294.769231 343.789023 295.076923 343.534990 295.384615 343.282466 295.692308 343.031459 296.000000 342.781976 296.307692 342.534028 296.615385 342.287622 296.923077 342.042767 297.230769 341.799473 297.538462 341.557747 297.846154 341.317598 298.153846 341.079036 298.461538 340.842067 298.769231 340.606703 299.076923 340.372950 299.384615 340.140817 299.692308 339.910315 300.000000 339.681450 300.307692 339.454231 300.615385 339.228668 300.923077 339.004769 301.230769 338.782543 301.538462 338.561997 301.846154 338.343142 302.153846 338.125986 302.461538 337.910537 302.769231 337.696803 303.076923 337.484795 303.384615 337.274519 303.692308 337.065986 304.000000 336.859203 304.307692 336.654180 304.615385 336.450925 304.923077 336.249446 305.230769 336.049753 305.538462 335.851853 305.846154 335.655757 306.153846 335.461471 306.461538 335.269006 306.769231 335.078369 307.076923 334.889570 307.384615 334.702616 307.692308 334.517518 308.000000 334.334282 308.307692 334.152919 308.615385 333.973436 308.923077 333.795843 309.230769 333.620147 309.538462 333.446359 309.846154 333.274486 310.153846 333.104536 310.461538 332.936520 310.769231 332.770444 311.076923 332.606319 311.384615 332.444153 311.692308 332.283953 312.000000 332.125730 312.307692 331.969492 312.615385 331.815247 312.923077 331.663004 313.230769 331.512771 313.538462 331.364558 313.846154 331.218373 314.153846 331.074225 314.461538 330.932122 314.769231 330.792074 315.076923 330.654087 315.384615 330.518173 315.692308 330.384338 316.000000 330.252592 316.307692 330.122943 316.615385 329.995401 316.923077 329.869973 317.230769 329.746669 317.538462 329.625496 317.846154 329.506465 318.153846 329.389582 318.461538 329.274858 318.769231 329.162301 319.076923 329.051919 319.384615 328.943721 319.692308 328.837716 320.000000 328.733912 320.307692 328.632318 320.615385 328.532943 320.923077 328.435795 321.230769 328.340884 321.538462 328.248217 321.846154 328.157798 322.153846 328.069608 322.461538 327.983622 322.769231 327.899816 323.076923 327.818164 323.384615 327.738643 323.692308 327.661228 324.000000 327.585894 324.307692 327.512617 324.615385 327.441371 324.923077 327.372133 325.230769 327.304878 325.538462 327.239580 325.846154 327.176217 326.153846 327.114762 326.461538 327.055191 326.769231 326.997480 327.076923 326.941605 327.384615 326.887539 327.692308 326.835260 328.000000 326.784742 328.307692 326.735960 328.615385 326.688891 328.923077 326.643509 329.230769 326.599790 329.538462 326.557709 329.846154 326.517242 330.153846 326.478364 330.461538 326.441050 330.769231 326.405276 331.076923 326.371017 331.384615 326.338249 331.692308 326.306947 332.000000 326.277086 332.307692 326.248642 332.615385 326.221591 332.923077 326.195906 333.230769 326.171565 333.538462 326.148542 333.846154 326.126813 334.153846 326.106353 334.461538 326.087137 334.769231 326.069142 335.076923 326.052341 335.384615 326.036712 335.692308 326.022228 336.000000 326.008866 336.307692 325.996601 336.615385 325.985408 336.923077 325.975263 337.230769 325.966141 337.538462 325.958017 337.846154 325.950867 338.153846 325.944667 338.461538 325.939391 338.769231 325.935015 339.076923 325.931514 339.384615 325.928865 339.692308 325.927041 340.000000 325.926020 340.307692 325.925775 340.615385 325.926282 340.923077 325.927518 341.230769 325.929456 341.538462 325.932073 341.846154 325.935344 342.153846 325.939244 342.461538 325.943750 342.769231 325.948835 343.076923 325.954476 343.384615 325.960647 343.692308 325.967325 344.000000 325.974485 344.307692 325.982102 344.615385 325.990151 344.923077 325.998608 345.230769 326.007449 345.538462 326.016648 345.846154 326.026181 346.153846 326.036024 346.461538 326.046152 346.769231 326.056540 347.076923 326.067163 347.384615 326.077997 347.692308 326.089018 348.000000 326.100201 348.307692 326.111521 348.615385 326.122954 348.923077 326.134474 349.230769 326.146058 349.538462 326.157681 349.846154 326.169318 350.153846 326.180944 350.461538 326.192536 350.769231 326.204068 351.076923 326.215515 351.384615 326.226854 351.692308 326.238059 352.000000 326.249106 352.307692 326.259971 352.615385 326.270628 352.923077 326.281053 353.230769 326.291222 353.538462 326.301110 353.846154 326.310692 354.153846 326.319943 354.461538 326.328840 354.769231 326.337357 355.076923 326.345470 355.384615 326.353155 355.692308 326.360386 356.000000 326.367139 356.307692 326.373389 356.615385 326.379112 356.923077 326.384284 357.230769 326.388879 357.538462 326.392873 357.846154 326.396241 358.153846 326.398960 358.461538 326.401003 358.769231 326.402347 359.076923 326.402967 359.384615 326.402839 359.692308 326.401937 360.000000 326.400237 360.307692 326.397715 360.615385 326.394345 360.923077 326.390105 361.230769 326.384967 361.538462 326.378909 361.846154 326.371906 362.153846 326.363932 362.461538 326.354963 362.769231 326.344976 363.076923 326.333944 363.384615 326.321844 363.692308 326.308651 364.000000 326.294339 364.307692 326.278886 364.615385 326.262266 364.923077 326.244454 365.230769 326.225426 365.538462 326.205157 365.846154 326.183622 366.153846 326.160798 366.461538 326.136659 366.769231 326.111181 367.076923 326.084339 367.384615 326.056109 367.692308 326.026466 368.000000 325.995385 368.307692 325.962841 368.615385 325.928811 368.923077 325.893270 369.230769 325.856192 369.538462 325.817554 369.846154 325.777331 370.153846 325.735497 370.461538 325.692029 370.769231 325.646902 371.076923 325.600091 371.384615 325.551572 371.692308 325.501320 372.000000 325.449311 372.307692 325.395519 372.615385 325.339921 372.923077 325.282491 373.230769 325.223206 373.538462 325.162040 373.846154 325.098968 374.153846 325.033967 374.461538 324.967011 374.769231 324.898077 375.076923 324.827139 375.384615 324.754173 375.692308 324.679153 376.000000 324.602057 376.307692 324.522858 376.615385 324.441533 376.923077 324.358057 377.230769 324.272404 377.538462 324.184552 377.846154 324.094474 378.153846 324.002146 378.461538 323.907545 378.769231 323.810644 379.076923 323.711420 379.384615 323.609848 379.692308 323.505903 380.000000 323.399561 380.307692 323.290797 380.615385 323.179586 380.923077 323.065904 381.230769 322.949727 381.538462 322.831029 381.846154 322.709786 382.153846 322.585974 382.461538 322.459567 382.769231 322.330542 383.076923 322.198873 383.384615 322.064537 383.692308 321.927507 384.000000 321.787761 384.307692 321.645273 384.615385 321.500018 384.923077 321.351972 385.230769 321.201111 385.538462 321.047409 385.846154 320.890843 386.153846 320.731387 386.461538 320.569017 386.769231 320.403709 387.076923 320.235437 387.384615 320.064177 387.692308 319.889905 388.000000 319.712596 388.307692 319.532225 388.615385 319.348768 388.923077 319.162199 389.230769 318.972496 389.538462 318.779632 389.846154 318.583583 390.153846 318.384326 390.461538 318.181834 390.769231 317.976083 391.076923 317.767050 391.384615 317.554708 391.692308 317.339035 392.000000 317.120004 392.307692 316.897592 392.615385 316.671773 392.923077 316.442524 393.230769 316.209820 393.538462 315.973635 393.846154 315.733946 394.153846 315.490727 394.461538 315.243955 394.769231 314.993604 395.076923 314.739650 395.384615 314.482068 395.692308 314.220835 396.000000 313.955924 396.307692 313.687312 396.615385 313.414974 396.923077 313.138885 397.230769 312.859021 397.538462 312.575356 397.846154 312.287868 398.153846 311.996530 398.461538 311.701319 398.769231 311.402217 399.076923 311.099245 399.384615 310.792430 399.692308 310.481799 400.000000 310.167379 400.307692 309.849198 400.615385 309.527284 400.923077 309.201664 401.230769 308.872365 401.538462 308.539415 401.846154 308.202841 402.153846 307.862672 402.461538 307.518933 402.769231 307.171654 403.076923 306.820860 403.384615 306.466581 403.692308 306.108842 404.000000 305.747673 404.307692 305.383099 404.615385 305.015149 404.923077 304.643850 405.230769 304.269230 405.538462 303.891315 405.846154 303.510135 406.153846 303.125715 406.461538 302.738083 406.769231 302.347268 407.076923 301.953296 407.384615 301.556195 407.692308 301.155992 408.000000 300.752715 408.307692 300.346391 408.615385 299.937048 408.923077 299.524713 409.230769 299.109414 409.538462 298.691178 409.846154 298.270032 410.153846 297.846005 410.461538 297.419123 410.769231 296.989414 411.076923 296.556906 411.384615 296.121626 411.692308 295.683601 412.000000 295.242859 412.307692 294.799428 412.615385 294.353334 412.923077 293.904606 413.230769 293.453270 413.538462 292.999355 413.846154 292.542888 414.153846 292.083896 414.461538 291.622406 414.769231 291.158447 415.076923 290.692045 415.384615 290.223229 415.692308 289.752025 416.000000 289.278461 416.307692 288.802564 416.615385 288.324363 416.923077 287.843884 417.230769 287.361155 417.538462 286.876203 417.846154 286.389056 418.153846 285.899742 418.461538 285.408287 418.769231 284.914720 419.076923 284.419067 419.384615 283.921357 419.692308 283.421616 420.000000 282.919873 420.307692 282.416154 420.615385 281.910487 420.923077 281.402900 421.230769 280.893420 421.538462 280.382074 421.846154 279.868891 422.153846 279.353897 422.461538 278.837119 422.769231 278.318587 423.076923 277.798326 423.384615 277.276364 423.692308 276.752730 424.000000 276.227449 424.307692 275.700551 424.615385 275.172061 424.923077 274.642009 425.230769 274.110420 425.538462 273.577323 425.846154 273.042746 426.153846 272.506714 426.461538 271.969257 426.769231 271.430402 427.076923 270.890175 427.384615 270.348605 427.692308 269.805719 428.000000 269.261545 428.307692 268.716109 428.615385 268.169440 428.923077 267.621564 429.230769 267.072510 429.538462 266.522304 429.846154 265.970975 430.153846 265.418550 430.461538 264.865055 430.769231 264.310520 431.076923 263.754970 431.384615 263.198434 431.692308 262.640939 432.000000 262.082513 432.307692 261.523183 432.615385 260.962976 432.923077 260.401920 433.230769 259.840043 433.538462 259.277371 433.846154 258.713933 434.153846 258.149756 434.461538 257.584867 434.769231 257.019293 435.076923 256.453064 435.384615 255.886204 435.692308 255.318743 436.000000 254.750708 436.307692 254.182126 436.615385 253.613024 436.923077 253.043431 437.230769 252.473373 437.538462 251.902878 437.846154 251.331973 438.153846 250.760687 438.461538 250.189046 438.769231 249.617078 439.076923 249.044810 439.384615 248.472270 439.692308 247.899486 440.000000 247.326484 440.307692 246.753292 440.615385 246.179939 440.923077 245.606450 441.230769 245.032854 441.538462 244.459179 441.846154 243.885450 442.153846 243.311697 442.461538 242.737947 442.769231 242.164227 443.076923 241.590564 443.384615 241.016986 443.692308 240.443520 444.000000 239.870195 444.307692 239.297037 444.615385 238.724073 444.923077 238.151332 445.230769 237.578841 445.538462 237.006627 445.846154 236.434718 446.153846 235.863141 446.461538 235.291924 446.769231 234.721094 447.076923 234.150678 447.384615 233.580705 447.692308 233.011201 448.000000 232.442195 448.307692 231.873712 448.615385 231.305782 448.923077 230.738431 449.230769 230.171687 449.538462 229.605578 449.846154 229.040130 450.153846 228.475372 450.461538 227.911331 450.769231 227.348034 451.076923 226.785508 451.384615 226.223782 451.692308 225.662883 452.000000 225.102837 452.307692 224.543674 452.615385 223.985419 452.923077 223.428101 453.230769 222.871747 453.538462 222.316385 453.846154 221.762041 454.153846 221.208744 454.461538 220.656521 454.769231 220.105400 455.076923 219.555407 455.384615 219.006571 455.692308 218.458918 456.000000 217.912477 456.307692 217.367275 456.615385 216.823338 456.923077 216.280696 457.230769 215.739374 457.538462 215.199402 457.846154 214.660805 458.153846 214.123612 458.461538 213.587850 458.769231 213.053547 459.076923 212.520729 459.384615 211.989425 459.692308 211.459662 460.000000 210.931468 460.307692 210.404869 460.615385 209.879894 460.923077 209.356569 461.230769 208.834923 461.538462 208.314983 461.846154 207.796776 462.153846 207.280329 462.461538 206.765671 462.769231 206.252828 463.076923 205.741829 463.384615 205.232700 463.692308 204.725469 464.000000 204.220164 464.307692 203.716812 464.615385 203.215440 464.923077 202.716076 465.230769 202.218748 465.538462 201.723482 465.846154 201.230307 466.153846 200.739250 466.461538 200.250338 466.769231 199.763598 467.076923 199.279059 467.384615 198.796748 467.692308 198.316692 468.000000 197.838919 468.307692 197.363456 468.615385 196.890330 468.923077 196.419569 469.230769 195.951201 469.538462 195.485253 469.846154 195.021753 470.153846 194.560728 470.461538 194.102204 470.769231 193.646211 471.076923 193.192775 471.384615 192.741925 471.692308 192.293686 472.000000 191.848087 472.307692 191.405155 472.615385 190.964919 472.923077 190.527404 473.230769 190.092639 473.538462 189.660651 473.846154 189.231468 474.153846 188.805117 474.461538 188.381625 474.769231 187.961021 475.076923 187.543331 475.384615 187.128583 475.692308 186.716797 476.000000 186.307965 476.307692 185.902071 476.615385 185.499100 476.923077 185.099036 477.230769 184.701863 477.538462 184.307566 477.846154 183.916130 478.153846 183.527538 478.461538 183.141774 478.769231 182.758824 479.076923 182.378672 479.384615 182.001302 479.692308 181.626699 480.000000 181.254846 480.307692 180.885729 480.615385 180.519331 480.923077 180.155638 481.230769 179.794633 481.538462 179.436301 481.846154 179.080626 482.153846 178.727592 482.461538 178.377185 482.769231 178.029388 483.076923 177.684186 483.384615 177.341563 483.692308 177.001504 484.000000 176.663993 484.307692 176.329014 484.615385 175.996552 484.923077 175.666591 485.230769 175.339115 485.538462 175.014110 485.846154 174.691559 486.153846 174.371446 486.461538 174.053757 486.769231 173.738475 487.076923 173.425585 487.384615 173.115072 487.692308 172.806919 488.000000 172.501111 488.307692 172.197632 488.615385 171.896467 488.923077 171.597601 489.230769 171.301017 489.538462 171.006700 489.846154 170.714635 490.153846 170.424805 490.461538 170.137196 490.769231 169.851791 491.076923 169.568575 491.384615 169.287532 491.692308 169.008648 492.000000 168.731905 492.307692 168.457289 492.615385 168.184783 492.923077 167.914374 493.230769 167.646043 493.538462 167.379777 493.846154 167.115559 494.153846 166.853375 494.461538 166.593207 494.769231 166.335041 495.076923 166.078861 495.384615 165.824652 495.692308 165.572397 496.000000 165.322081 496.307692 165.073690 496.615385 164.827206 496.923077 164.582614 497.230769 164.339899 497.538462 164.099046 497.846154 163.860038 498.153846 163.622860 498.461538 163.387496 498.769231 163.153931 499.076923 162.922149 499.384615 162.692135 499.692308 162.463872 500.000000 162.237346 500.307692 162.012540 500.615385 161.789440 500.923077 161.568029 501.230769 161.348291 501.538462 161.130212 501.846154 160.913776 502.153846 160.698967 502.461538 160.485769 502.769231 160.274166 503.076923 160.064144 503.384615 159.855687 503.692308 159.648779 504.000000 159.443403 504.307692 159.239546 504.615385 159.037191 504.923077 158.836322 505.230769 158.636924 505.538462 158.438982 505.846154 158.242479 506.153846 158.047400 506.461538 157.853730 506.769231 157.661453 507.076923 157.470553 507.384615 157.281014 507.692308 157.092822 508.000000 156.905960 508.307692 156.720413 508.615385 156.536165 508.923077 156.353200 509.230769 156.171504 509.538462 155.991060 509.846154 155.811853 510.153846 155.633867 510.461538 155.457086 510.769231 155.281496 511.076923 155.107080 511.384615 154.933822 511.692308 154.761708 512.000000 154.590721 512.307692 154.420846 512.615385 154.252067 512.923077 154.084369 513.230769 153.917736 513.538462 153.752153 513.846154 153.587603 514.153846 153.424072 514.461538 153.261543 514.769231 153.100001 515.076923 152.939431 515.384615 152.779816 515.692308 152.621142 516.000000 152.463392 516.307692 152.306551 516.615385 152.150604 516.923077 151.995534 517.230769 151.841326 517.538462 151.687965 517.846154 151.535435 518.153846 151.383720 518.461538 151.232805 518.769231 151.082674 519.076923 150.933311 519.384615 150.784702 519.692308 150.636829 520.000000 150.489678 520.307692 150.343234 520.615385 150.197479 520.923077 150.052400 521.230769 149.907980 521.538462 149.764203 521.846154 149.621054 522.153846 149.478518 522.461538 149.336578 522.769231 149.195220 523.076923 149.054427 523.384615 148.914184 523.692308 148.774476 524.000000 148.635286 524.307692 148.496599 524.615385 148.358400 524.923077 148.220673 525.230769 148.083402 525.538462 147.946572 525.846154 147.810167 526.153846 147.674171 526.461538 147.538569 526.769231 147.403345 527.076923 147.268484 527.384615 147.133970 527.692308 146.999787 528.000000 146.865921 528.307692 146.732354 528.615385 146.599072 528.923077 146.466059 529.230769 146.333299 529.538462 146.200777 529.846154 146.068477 530.153846 145.936384 530.461538 145.804482 530.769231 145.672755 531.076923 145.541187 531.384615 145.409764 531.692308 145.278469 532.000000 145.147287 532.307692 145.016203 532.615385 144.885200 532.923077 144.754263 533.230769 144.623376 533.538462 144.492525 533.846154 144.361692 534.153846 144.230863 534.461538 144.100022 534.769231 143.969154 535.076923 143.838242 535.384615 143.707272 535.692308 143.576227 536.000000 143.445092 536.307692 143.313851 536.615385 143.182489 536.923077 143.050990 537.230769 142.919339 537.538462 142.787520 537.846154 142.655516 538.153846 142.523314 538.461538 142.390897 538.769231 142.258249 539.076923 142.125355 539.384615 141.992199 539.692308 141.858766 540.000000 141.725040 540.307692 141.591005 540.615385 141.456646 540.923077 141.321947 541.230769 141.186893 541.538462 141.051468 541.846154 140.915656 542.153846 140.779442 542.461538 140.642810 542.769231 140.505745 543.076923 140.368230 543.384615 140.230251 543.692308 140.091792 544.000000 139.952837 544.307692 139.813370 544.615385 139.673376 544.923077 139.532839 545.230769 139.391744 545.538462 139.250075 545.846154 139.107817 546.153846 138.964953 546.461538 138.821468 546.769231 138.677347 547.076923 138.532575 547.384615 138.387134 547.692308 138.241010 548.000000 138.094188 548.307692 137.946651 548.615385 137.798384 548.923077 137.649371 549.230769 137.499597 549.538462 137.349047 549.846154 137.197703 550.153846 137.045552 550.461538 136.892577 550.769231 136.738762 551.076923 136.584093 551.384615 136.428553 551.692308 136.272127 552.000000 136.114799 552.307692 135.956554 552.615385 135.797379 552.923077 135.637275 553.230769 135.476246 553.538462 135.314296 553.846154 135.151428 554.153846 134.987647 554.461538 134.822955 554.769231 134.657359 555.076923 134.490860 555.384615 134.323463 555.692308 134.155172 556.000000 133.985991 556.307692 133.815923 556.615385 133.644973 556.923077 133.473144 557.230769 133.300441 557.538462 133.126867 557.846154 132.952426 558.153846 132.777121 558.461538 132.600958 558.769231 132.423939 559.076923 132.246069 559.384615 132.067352 559.692308 131.887790 560.000000 131.707389 560.307692 131.526152 560.615385 131.344084 560.923077 131.161187 561.230769 130.977465 561.538462 130.792924 561.846154 130.607566 562.153846 130.421395 562.461538 130.234416 562.769231 130.046632 563.076923 129.858047 563.384615 129.668665 563.692308 129.478490 564.000000 129.287525 564.307692 129.095775 564.615385 128.903244 564.923077 128.709935 565.230769 128.515852 565.538462 128.321000 565.846154 128.125381 566.153846 127.929001 566.461538 127.731862 566.769231 127.533969 567.076923 127.335325 567.384615 127.135935 567.692308 126.935802 568.000000 126.734931 568.307692 126.533324 568.615385 126.330987 568.923077 126.127922 569.230769 125.924134 569.538462 125.719627 569.846154 125.514405 570.153846 125.308470 570.461538 125.101828 570.769231 124.894483 571.076923 124.686437 571.384615 124.477695 571.692308 124.268261 572.000000 124.058139 572.307692 123.847333 572.615385 123.635845 572.923077 123.423682 573.230769 123.210845 573.538462 122.997340 573.846154 122.783169 574.153846 122.568338 574.461538 122.352849 574.769231 122.136707 575.076923 121.919916 575.384615 121.702479 575.692308 121.484400 576.000000 121.265683 576.307692 121.046333 576.615385 120.826352 576.923077 120.605746 577.230769 120.384517 577.538462 120.162670 577.846154 119.940208 578.153846 119.717135 578.461538 119.493456 578.769231 119.269174 579.076923 119.044294 579.384615 118.818818 579.692308 118.592750 580.000000 118.366096 580.307692 118.138858 580.615385 117.911041 580.923077 117.682648 581.230769 117.453683 581.538462 117.224150 581.846154 116.994053 582.153846 116.763396 582.461538 116.532183 582.769231 116.300418 583.076923 116.068104 583.384615 115.835245 583.692308 115.601846 584.000000 115.367910 584.307692 115.133441 584.615385 114.898443 584.923077 114.662920 585.230769 114.426876 585.538462 114.190314 585.846154 113.953238 586.153846 113.715654 586.461538 113.477563 586.769231 113.238970 587.076923 112.999880 587.384615 112.760295 587.692308 112.520220 588.000000 112.279659 588.307692 112.038615 588.615385 111.797093 588.923077 111.555096 589.230769 111.312628 589.538462 111.069694 589.846154 110.826296 590.153846 110.582440 590.461538 110.338128 590.769231 110.093364 591.076923 109.848153 591.384615 109.602499 591.692308 109.356405 592.000000 109.109875 592.307692 108.862913 592.615385 108.615523 592.923077 108.367709 593.230769 108.119474 593.538462 107.870823 593.846154 107.621760 594.153846 107.372288 594.461538 107.122411 594.769231 106.872133 595.076923 106.621458 595.384615 106.370390 595.692308 106.118933 596.000000 105.867091 596.307692 105.614867 596.615385 105.362265 596.923077 105.109290 597.230769 104.855945 597.538462 104.602234 597.846154 104.348161 598.153846 104.093730 598.461538 103.838945 598.769231 103.583809 599.076923 103.328327 599.384615 103.072502 599.692308 102.816338 600.000000 102.559840 600.307692 102.303011 600.615385 102.045854 600.923077 101.788374 601.230769 101.530575 601.538462 101.272461 601.846154 101.014035 602.153846 100.755301 602.461538 100.496263 602.769231 100.236926 603.076923 99.977293 603.384615 99.717367 603.692308 99.457153 604.000000 99.196655 604.307692 98.935876 604.615385 98.674821 604.923077 98.413493 605.230769 98.151896 605.538462 97.890035 605.846154 97.627912 606.153846 97.365532 606.461538 97.102899 606.769231 96.840016 607.076923 96.576888 607.384615 96.313518 607.692308 96.049910 608.000000 95.786069 608.307692 95.521998 608.615385 95.257700 608.923077 94.993180 609.230769 94.728442 609.538462 94.463490 609.846154 94.198326 610.153846 93.932957 610.461538 93.667384 610.769231 93.401612 611.076923 93.135646 611.384615 92.869488 611.692308 92.603143 612.000000 92.336615 612.307692 92.069907 612.615385 91.803023 612.923077 91.535968 613.230769 91.268745 613.538462 91.001358 613.846154 90.733811 614.153846 90.466107 614.461538 90.198252 614.769231 89.930248 615.076923 89.662099 615.384615 89.393810 615.692308 89.125384 616.000000 88.856825 616.307692 88.588137 616.615385 88.319324 616.923077 88.050390 617.230769 87.781338 617.538462 87.512173 617.846154 87.242898 618.153846 86.973518 618.461538 86.704035 618.769231 86.434455 619.076923 86.164781 619.384615 85.895017 619.692308 85.625166 620.000000 85.355233 620.307692 85.085221 620.615385 84.815135 620.923077 84.544978 621.230769 84.274754 621.538462 84.004467 621.846154 83.734121 622.153846 83.463720 622.461538 83.193268 622.769231 82.922768 623.076923 82.652224 623.384615 82.381641 623.692308 82.111022 624.000000 81.840371 624.307692 81.569692 624.615385 81.298989 624.923077 81.028266 625.230769 80.757526 625.538462 80.486774 625.846154 80.216013 626.153846 79.945247 626.461538 79.674481 626.769231 79.403718 627.076923 79.132961 627.384615 78.862216 627.692308 78.591485 628.000000 78.320773 628.307692 78.050083 628.615385 77.779419 628.923077 77.508786 629.230769 77.238187 629.538462 76.967625 629.846154 76.697101 630.153846 76.426615 630.461538 76.156166 630.769231 75.885755 631.076923 75.615380 631.384615 75.345043 631.692308 75.074743 632.000000 74.804480 632.307692 74.534253 632.615385 74.264063 632.923077 73.993909 633.230769 73.723791 633.538462 73.453710 633.846154 73.183664 634.153846 72.913654 634.461538 72.643679 634.769231 72.373740 635.076923 72.103836 635.384615 71.833968 635.692308 71.564134 636.000000 71.294335 636.307692 71.024571 636.615385 70.754841 636.923077 70.485145 637.230769 70.215484 637.538462 69.945857 637.846154 69.676263 638.153846 69.406704 638.461538 69.137178 638.769231 68.867685 639.076923 68.598226 639.384615 68.328800 639.692308 68.059407 640.000000 67.790046 640.307692 67.520719 640.615385 67.251424 640.923077 66.982161 641.230769 66.712930 641.538462 66.443732 641.846154 66.174565 642.153846 65.905431 642.461538 65.636327 642.769231 65.367256 643.076923 65.098215 643.384615 64.829206 643.692308 64.560228 644.000000 64.291280 644.307692 64.022364 644.615385 63.753478 644.923077 63.484622 645.230769 63.215797 645.538462 62.947001 645.846154 62.678236 646.153846 62.409500 646.461538 62.140794 646.769231 61.872118 647.076923 61.603470 647.384615 61.334852 647.692308 61.066263 648.000000 60.797703 648.307692 60.529172 648.615385 60.260669 648.923077 59.992195 649.230769 59.723749 649.538462 59.455331 649.846154 59.186941 650.153846 58.918579 650.461538 58.650244 650.769231 58.381937 651.076923 58.113657 651.384615 57.845405 651.692308 57.577180 652.000000 57.308981 652.307692 57.040809 652.615385 56.772664 652.923077 56.504545 653.230769 56.236453 653.538462 55.968387 653.846154 55.700347 654.153846 55.432332 654.461538 55.164343 654.769231 54.896380 655.076923 54.628442 655.384615 54.360530 655.692308 54.092642 656.000000 53.824780 656.307692 53.556942 656.615385 53.289129 656.923077 53.021340 657.230769 52.753576 657.538462 52.485835 657.846154 52.218119 658.153846 51.950427 658.461538 51.682758 658.769231 51.415113 659.076923 51.147491 659.384615 50.879893 659.692308 50.612318 660.000000 50.344765 660.307692 50.077236 660.615385 49.809729 660.923077 49.542244 661.230769 49.274782 661.538462 49.007342 661.846154 48.739924 662.153846 48.472528 662.461538 48.205154 662.769231 47.937802 663.076923 47.670470 663.384615 47.403160 663.692308 47.135872 664.000000 46.868604 664.307692 46.601357 664.615385 46.334130 664.923077 46.066925 665.230769 45.799739 665.538462 45.532574 665.846154 45.265429 666.153846 44.998303 666.461538 44.731198 666.769231 44.464112 667.076923 44.197045 667.384615 43.929998 667.692308 43.662970 668.000000 43.395961 668.307692 43.128971 668.615385 42.862000 668.923077 42.595047 669.230769 42.328112 669.538462 42.061196 669.846154 41.794298 670.153846 41.527418 670.461538 41.260555 670.769231 40.993710 671.076923 40.726883 671.384615 40.460073 671.692308 40.193280 672.000000 39.926504 672.307692 39.659745 672.615385 39.393003 672.923077 39.126277 673.230769 38.859568 673.538462 38.592875 673.846154 38.326198 674.153846 38.059537 674.461538 37.792892 674.769231 37.526263 675.076923 37.259649 675.384615 36.993050 675.692308 36.726467 676.000000 36.459898 676.307692 36.193345 676.615385 35.926806 676.923077 35.660282 677.230769 35.393772 677.538462 35.127277 677.846154 34.860795 678.153846 34.594328 678.461538 34.327875 678.769231 34.061435 679.076923 33.795009 679.384615 33.528596 679.692308 33.262196 680.000000 32.995810 680.307692 32.729436 680.615385 32.463075 680.923077 32.196727 681.230769 31.930391 681.538462 31.664067 681.846154 31.397756 682.153846 31.131457 682.461538 30.865169 682.769231 30.598893 683.076923 30.332629 683.384615 30.066376 683.692308 29.800135 684.000000 29.533904 684.307692 29.267685 684.615385 29.001476 684.923077 28.735278 685.230769 28.469090 685.538462 28.202913 685.846154 27.936746 686.153846 27.670589 686.461538 27.404442 686.769231 27.138304 687.076923 26.872176 687.384615 26.606058 687.692308 26.339949 688.000000 26.073849 688.307692 25.807757 688.615385 25.541675 688.923077 25.275601 689.230769 25.009536 689.538462 24.743480 689.846154 24.477431 690.153846 24.211391 690.461538 23.945358 690.769231 23.679333 691.076923 23.413316 691.384615 23.147306 691.692308 22.881304 692.000000 22.615308 692.307692 22.349320 692.615385 22.083338 692.923077 21.817364 693.230769 21.551395 693.538462 21.285433 693.846154 21.019478 694.153846 20.753528 694.461538 20.487584 694.769231 20.221646 695.076923 19.955714 695.384615 19.689787 695.692308 19.423866 696.000000 19.157950 696.307692 18.892038 696.615385 18.626132 696.923077 18.360230 697.230769 18.094333 697.538462 17.828440 697.846154 17.562552 698.153846 17.296667 698.461538 17.030787 698.769231 16.764910 699.076923 16.499037 699.384615 16.233168 699.692308 15.967301 700.000000 15.701439 700.307692 15.435579 700.615385 15.169722 700.923077 14.903867 701.230769 14.638016 701.538462 14.372166 701.846154 14.106319 702.153846 13.840474 702.461538 13.574631 702.769231 13.308790 703.076923 13.042951 703.384615 12.777113 703.692308 12.511277 704.000000 12.245441 704.307692 11.979607 704.615385 11.713774 704.923077 11.447941 705.230769 11.182109 705.538462 10.916278 705.846154 10.650446 706.153846 10.384615 706.153846 540.000000" /></g></g><g class="titles" /><g class="plot overlay" transform="translate(60, 20)"><g class="series serie-0 color-0"><g class="dots"><circle class="dot reactive tooltip-trigger" cx="13.846153846153847" cy="529.6153846153846" r="2.5" /><desc class="value">743,061,794(kWh)</desc><desc class="x top">13.846153846153847</desc><desc class="y top">529.6153846153846</desc><desc class="x_label">2549</desc></g><g class="dots"><circle class="dot reactive tooltip-trigger" cx="90.76923076923076" cy="494.9171268532948" r="2.5" /><desc class="value">779,609,796(kWh)</desc><desc class="x top">90.76923076923076</desc><desc class="y top">494.9171268532948</desc><desc class="x_label">2550</desc></g><g class="dots"><circle class="dot reactive tooltip-trigger" cx="167.69230769230765" cy="478.49602821196635" r="2.5" /><desc class="value">796,906,294(kWh)</desc><desc class="x top">167.69230769230765</desc><desc class="y top">478.49602821196635</desc><desc class="x_label">2551</desc></g><g class="dots"><circle class="dot reactive tooltip-trigger" cx="244.6153846153846" cy="398.97899755033427" r="2.5" /><desc class="value">880,662,332(kWh)</desc><desc class="x top">244.6153846153846</desc><desc class="y top">398.97899755033427</desc><desc class="x_label">2552</desc></g><g class="dots"><circle class="dot reactive tooltip-trigger" cx="321.5384615384615" cy="328.24821693365266" r="2.5" /><desc class="value">955,163,730(kWh)</desc><desc class="x top">321.5384615384615</desc><desc class="y top">328.24821693365266</desc><desc class="x_label">2553</desc></g><g class="dots"><circle class="dot reactive tooltip-trigger" cx="398.46153846153845" cy="311.70131860174126" r="2.5" /><desc class="value">972,592,734(kWh)</desc><desc class="x left top">398.46153846153845</desc><desc class="y left top">311.70131860174126</desc><desc class="x_label">2554</desc></g><g class="dots"><circle class="dot reactive tooltip-trigger" cx="475.38461538461536" cy="187.1285827644365" r="2.5" /><desc class="value">1,103,806,371(kWh)</desc><desc class="x left">475.38461538461536</desc><desc class="y left">187.1285827644365</desc><desc class="x_label">2555</desc></g><g class="dots"><circle class="dot reactive tooltip-trigger" cx="552.3076923076923" cy="135.95655427950084" r="2.5" /><desc class="value">1,157,706,351(kWh)</desc><desc class="x left">552.3076923076923</desc><desc class="y left">135.95655427950084</desc><desc class="x_label">2556</desc></g><g class="dots"><circle class="dot reactive tooltip-trigger" cx="629.2307692307692" cy="77.2381868019308" r="2.5" /><desc class="value">1,219,554,961(kWh)</desc><desc class="x left">629.2307692307692</desc><desc class="y left">77.2381868019308</desc><desc class="x_label">2557</desc></g><g class="dots"><circle class="dot reactive tooltip-trigger" cx="706.1538461538461" cy="10.384615384615358" r="2.5" /><desc class="value">1,289,972,458(kWh)</desc><desc class="x left">706.1538461538461</desc><desc class="y left">10.384615384615358</desc><desc class="x_label">2558</desc></g></g></g><g class="plot text-overlay" transform="translate(60, 20)"><g class="series serie-0 color-0" /></g><g class="plot tooltip-overlay" transform="translate(60, 20)"><g class="tooltip" style="opacity: 0" transform="translate(0 0)"><rect class="tooltip-box" height="0" rx="0" ry="0" width="0" /><g class="text" /></g></g></g></svg>