<?xml version='1.0' encoding='utf-8'?>
<svg xmlns:xlink="http://www.w3.org/1999/xlink" class="pygal-chart" id="chart-6390a2e8-5282-464d-a888-e6fd700202ff" viewBox="0 0 800 600" xmlns="http://www.w3.org/2000/svg"><!--Generated with pygal 2.3.0 (etree) ©Kozea 2012-2016 on 2016-12-08--><!--http://pygal.org--><!--http://github.com/Kozea/pygal--><defs><style type="text/css">#chart-6390a2e8-5282-464d-a888-e6fd700202ff{-webkit-user-select:none;-webkit-font-smoothing:antialiased;font-family:Consolas,"Liberation Mono",Menlo,Courier,monospace}#chart-6390a2e8-5282-464d-a888-e6fd700202ff .title{font-family:Consolas,"Liberation Mono",Menlo,Courier,monospace;font-size:16px}#chart-6390a2e8-5282-464d-a888-e6fd700202ff .legends .legend text{font-family:Consolas,"Liberation Mono",Menlo,Courier,monospace;font-size:14px}#chart-6390a2e8-5282-464d-a888-e6fd700202ff .axis text{font-family:Consolas,"Liberation Mono",Menlo,Courier,monospace;font-size:10px}#chart-6390a2e8-5282-464d-a888-e6fd700202ff .axis text.major{font-family:Consolas,"Liberation Mono",Menlo,Courier,monospace;font-size:10px}#chart-6390a2e8-5282-464d-a888-e6fd700202ff .text-overlay text.value{font-family:Consolas,"Liberation Mono",Menlo,Courier,monospace;font-size:16px}#chart-6390a2e8-5282-464d-a888-e6fd700202ff .text-overlay text.label{font-family:Consolas,"Liberation Mono",Menlo,Courier,monospace;font-size:10px}#chart-6390a2e8-5282-464d-a888-e6fd700202ff .tooltip{font-family:Consolas,"Liberation Mono",Menlo,Courier,monospace;font-size:14px}#chart-6390a2e8-5282-464d-a888-e6fd700202ff text.no_data{font-family:Consolas,"Liberation Mono",Menlo,Courier,monospace;font-size:64px}
#chart-6390a2e8-5282-464d-a888-e6fd700202ff{background-color:rgba(249,249,249,1)}#chart-6390a2e8-5282-464d-a888-e6fd700202ff path,#chart-6390a2e8-5282-464d-a888-e6fd700202ff line,#chart-6390a2e8-5282-464d-a888-e6fd700202ff rect,#chart-6390a2e8-5282-464d-a888-e6fd700202ff circle{-webkit-transition:150ms;-moz-transition:150ms;transition:150ms}#chart-6390a2e8-5282-464d-a888-e6fd700202ff .graph &gt; .background{fill:rgba(249,249,249,1)}#chart-6390a2e8-5282-464d-a888-e6fd700202ff .plot &gt; .background{fill:rgba(255,255,255,1)}#chart-6390a2e8-5282-464d-a888-e6fd700202ff .graph{fill:rgba(0,0,0,.87)}#chart-6390a2e8-5282-464d-a888-e6fd700202ff text.no_data{fill:rgba(0,0,0,1)}#chart-6390a2e8-5282-464d-a888-e6fd700202ff .title{fill:rgba(0,0,0,1)}#chart-6390a2e8-5282-464d-a888-e6fd700202ff .legends .legend text{fill:rgba(0,0,0,.87)}#chart-6390a2e8-5282-464d-a888-e6fd700202ff .legends .legend:hover text{fill:rgba(0,0,0,1)}#chart-6390a2e8-5282-464d-a888-e6fd700202ff .axis .line{stroke:rgba(0,0,0,1)}#chart-6390a2e8-5282-464d-a888-e6fd700202ff .axis .guide.line{stroke:rgba(0,0,0,.54)}#chart-6390a2e8-5282-464d-a888-e6fd700202ff .axis .major.line{stroke:rgba(0,0,0,.87)}#chart-6390a2e8-5282-464d-a888-e6fd700202ff .axis text.major{fill:rgba(0,0,0,1)}#chart-6390a2e8-5282-464d-a888-e6fd700202ff .axis.y .guides:hover .guide.line,#chart-6390a2e8-5282-464d-a888-e6fd700202ff .line-graph .axis.x .guides:hover .guide.line,#chart-6390a2e8-5282-464d-a888-e6fd700202ff .stackedline-graph .axis.x .guides:hover .guide.line,#chart-6390a2e8-5282-464d-a888-e6fd700202ff .xy-graph .axis.x .guides:hover .guide.line{stroke:rgba(0,0,0,1)}#chart-6390a2e8-5282-464d-a888-e6fd700202ff .axis .guides:hover text{fill:rgba(0,0,0,1)}#chart-6390a2e8-5282-464d-a888-e6fd700202ff .reactive{fill-opacity:.7;stroke-opacity:.8}#chart-6390a2e8-5282-464d-a888-e6fd700202ff .ci{stroke:rgba(0,0,0,.87)}#chart-6390a2e8-5282-464d-a888-e6fd700202ff .reactive.active,#chart-6390a2e8-5282-464d-a888-e6fd700202ff .active .reactive{fill-opacity:.8;stroke-opacity:.9;stroke-width:4}#chart-6390a2e8-5282-464d-a888-e6fd700202ff .ci .reactive.active{stroke-width:1.5}#chart-6390a2e8-5282-464d-a888-e6fd700202ff .series text{fill:rgba(0,0,0,1)}#chart-6390a2e8-5282-464d-a888-e6fd700202ff .tooltip rect{fill:rgba(255,255,255,1);stroke:rgba(0,0,0,1);-webkit-transition:opacity 150ms;-moz-transition:opacity 150ms;transition:opacity 150ms}#chart-6390a2e8-5282-464d-a888-e6fd700202ff .tooltip .label{fill:rgba(0,0,0,.87)}#chart-6390a2e8-5282-464d-a888-e6fd700202ff .tooltip .label{fill:rgba(0,0,0,.87)}#chart-6390a2e8-5282-464d-a888-e6fd700202ff .tooltip .legend{font-size:.8em;fill:rgba(0,0,0,.54)}#chart-6390a2e8-5282-464d-a888-e6fd700202ff .tooltip .x_label{font-size:.6em;fill:rgba(0,0,0,1)}#chart-6390a2e8-5282-464d-a888-e6fd700202ff .tooltip .xlink{font-size:.5em;text-decoration:underline}#chart-6390a2e8-5282-464d-a888-e6fd700202ff .tooltip .value{font-size:1.5em}#chart-6390a2e8-5282-464d-a888-e6fd700202ff .bound{font-size:.5em}#chart-6390a2e8-5282-464d-a888-e6fd700202ff .max-value{font-size:.75em;fill:rgba(0,0,0,.54)}#chart-6390a2e8-5282-464d-a888-e6fd700202ff .map-element{fill:rgba(255,255,255,1);stroke:rgba(0,0,0,.54) !important}#chart-6390a2e8-5282-464d-a888-e6fd700202ff .map-element .reactive{fill-opacity:inherit;stroke-opacity:inherit}#chart-6390a2e8-5282-464d-a888-e6fd700202ff .color-0,#chart-6390a2e8-5282-464d-a888-e6fd700202ff .color-0 a:visited{stroke:#e86fa0;fill:#e86fa0}#chart-6390a2e8-5282-464d-a888-e6fd700202ff .text-overlay .color-0 text{fill:black}
#chart-6390a2e8-5282-464d-a888-e6fd700202ff text.no_data{text-anchor:middle}#chart-6390a2e8-5282-464d-a888-e6fd700202ff .guide.line{fill:none}#chart-6390a2e8-5282-464d-a888-e6fd700202ff .centered{text-anchor:middle}#chart-6390a2e8-5282-464d-a888-e6fd700202ff .title{text-anchor:middle}#chart-6390a2e8-5282-464d-a888-e6fd700202ff .legends .legend text{fill-opacity:1}#chart-6390a2e8-5282-464d-a888-e6fd700202ff .axis.x text{text-anchor:middle}#chart-6390a2e8-5282-464d-a888-e6fd700202ff .axis.x:not(.web) text[transform]{text-anchor:start}#chart-6390a2e8-5282-464d-a888-e6fd700202ff .axis.x:not(.web) text[transform].backwards{text-anchor:end}#chart-6390a2e8-5282-464d-a888-e6fd700202ff .axis.y text{text-anchor:end}#chart-6390a2e8-5282-464d-a888-e6fd700202ff .axis.y text[transform].backwards{text-anchor:start}#chart-6390a2e8-5282-464d-a888-e6fd700202ff .axis.y2 text{text-anchor:start}#chart-6390a2e8-5282-464d-a888-e6fd700202ff .axis.y2 text[transform].backwards{text-anchor:end}#chart-6390a2e8-5282-464d-a888-e6fd700202ff .axis .guide.line{stroke-dasharray:4,4}#chart-6390a2e8-5282-464d-a888-e6fd700202ff .axis .major.guide.line{stroke-dasharray:6,6}#chart-6390a2e8-5282-464d-a888-e6fd700202ff .horizontal .axis.y .guide.line,#chart-6390a2e8-5282-464d-a888-e6fd700202ff .horizontal .axis.y2 .guide.line,#chart-6390a2e8-5282-464d-a888-e6fd700202ff .vertical .axis.x .guide.line{opacity:0}#chart-6390a2e8-5282-464d-a888-e6fd700202ff .horizontal .axis.always_show .guide.line,#chart-6390a2e8-5282-464d-a888-e6fd700202ff .vertical .axis.always_show .guide.line{opacity:1 !important}#chart-6390a2e8-5282-464d-a888-e6fd700202ff .axis.y .guides:hover .guide.line,#chart-6390a2e8-5282-464d-a888-e6fd700202ff .axis.y2 .guides:hover .guide.line,#chart-6390a2e8-5282-464d-a888-e6fd700202ff .axis.x .guides:hover .guide.line{opacity:1}#chart-6390a2e8-5282-464d-a888-e6fd700202ff .axis .guides:hover text{opacity:1}#chart-6390a2e8-5282-464d-a888-e6fd700202ff .nofill{fill:none}#chart-6390a2e8-5282-464d-a888-e6fd700202ff .subtle-fill{fill-opacity:.2}#chart-6390a2e8-5282-464d-a888-e6fd700202ff .dot{stroke-width:1px;fill-opacity:1}#chart-6390a2e8-5282-464d-a888-e6fd700202ff .dot.active{stroke-width:5px}#chart-6390a2e8-5282-464d-a888-e6fd700202ff .dot.negative{fill:transparent}#chart-6390a2e8-5282-464d-a888-e6fd700202ff text,#chart-6390a2e8-5282-464d-a888-e6fd700202ff tspan{stroke:none !important}#chart-6390a2e8-5282-464d-a888-e6fd700202ff .series text.active{opacity:1}#chart-6390a2e8-5282-464d-a888-e6fd700202ff .tooltip rect{fill-opacity:.95;stroke-width:.5}#chart-6390a2e8-5282-464d-a888-e6fd700202ff .tooltip text{fill-opacity:1}#chart-6390a2e8-5282-464d-a888-e6fd700202ff .showable{visibility:hidden}#chart-6390a2e8-5282-464d-a888-e6fd700202ff .showable.shown{visibility:visible}#chart-6390a2e8-5282-464d-a888-e6fd700202ff .gauge-background{fill:rgba(229,229,229,1);stroke:none}#chart-6390a2e8-5282-464d-a888-e6fd700202ff .bg-lines{stroke:rgba(249,249,249,1);stroke-width:2px}</style><script type="text/javascript">window.pygal = window.pygal || {};window.pygal.config = window.pygal.config || {};window.pygal.config['6390a2e8-5282-464d-a888-e6fd700202ff'] = {"no_data_text": "No data", "no_prefix": false, "xrange": null, "print_values_position": "center", "truncate_label": null, "x_labels": ["2549", "2550", "2551", "2552", "2553", "2554", "2555", "2556", "2557", "2558"], "title": null, "force_uri_protocol": "https", "defs": [], "formatter": null, "classes": ["pygal-chart"], "y_labels": null, "rounded_bars": null, "explicit_size": false, "x_labels_major_every": null, "legend_at_bottom_columns": null, "stroke_style": null, "half_pie": false, "spacing": 10, "tooltip_fancy_mode": true, "inverse_y_axis": false, "width": 800, "inner_radius": 0, "interpolation_parameters": {}, "tooltip_border_radius": 0, "style": {"no_data_font_family": "Consolas, \"Liberation Mono\", Menlo, Courier, monospace", "tooltip_font_size": 14, "tooltip_font_family": "Consolas, \"Liberation Mono\", Menlo, Courier, monospace", "stroke_opacity_hover": ".9", "legend_font_family": "Consolas, \"Liberation Mono\", Menlo, Courier, monospace", "font_family": "Consolas, \"Liberation Mono\", Menlo, Courier, monospace", "title_font_family": "Consolas, \"Liberation Mono\", Menlo, Courier, monospace", "background": "rgba(249, 249, 249, 1)", "stroke_opacity": ".8", "foreground": "rgba(0, 0, 0, .87)", "value_background": "rgba(229, 229, 229, 1)", "guide_stroke_dasharray": "4,4", "foreground_subtle": "rgba(0, 0, 0, .54)", "opacity_hover": ".8", "value_font_family": "Consolas, \"Liberation Mono\", Menlo, Courier, monospace", "value_label_font_size": 10, "plot_background": "rgba(255, 255, 255, 1)", "ci_colors": [], "label_font_size": 10, "major_label_font_size": 10, "title_font_size": 16, "no_data_font_size": 64, "value_font_size": 16, "value_colors": [], "label_font_family": "Consolas, \"Liberation Mono\", Menlo, Courier, monospace", "major_guide_stroke_dasharray": "6,6", "transition": "150ms", "foreground_strong": "rgba(0, 0, 0, 1)", "colors": ["#e86fa0", "#e88f6f", "#e8df6f", "#a0e86f", "#6fe88f", "#6fe8df", "#6fa0e8", "#8f6fe8", "#df6fe8", "#e86fa0"], "opacity": ".7", "legend_font_size": 14, "value_label_font_family": "Consolas, \"Liberation Mono\", Menlo, Courier, monospace", "major_label_font_family": "Consolas, \"Liberation Mono\", Menlo, Courier, monospace"}, "x_labels_major_count": null, "interpolation_precision": 250, "missing_value_fill_truncation": "x", "stack_from_top": false, "truncate_legend": null, "show_minor_x_labels": true, "print_zeroes": true, "css": ["file://style.css", "file://graph.css"], "y_label_rotation": 0, "legend_at_bottom": false, "print_values": false, "margin_top": null, "max_scale": 16, "allow_interruptions": false, "show_x_labels": true, "strict": false, "show_x_guides": false, "stroke": true, "margin_left": null, "dynamic_print_values": false, "print_labels": false, "show_y_labels": true, "x_labels_major": null, "range": null, "x_label_rotation": 0, "margin": 20, "zero": 0, "include_x_axis": false, "height": 600, "show_minor_y_labels": true, "show_dots": true, "interpolate": "cubic", "show_y_guides": true, "y_labels_major": null, "box_mode": "extremes", "margin_bottom": null, "order_min": null, "legend_box_size": 12, "fill": true, "show_only_major_dots": false, "js": ["//kozea.github.io/pygal.js/2.0.x/pygal-tooltips.min.js"], "x_title": null, "y_labels_major_every": null, "y_labels_major_count": null, "disable_xml_declaration": false, "y_title": null, "logarithmic": false, "pretty_print": false, "min_scale": 4, "dots_size": 2.5, "margin_right": null, "legends": [null], "secondary_range": null, "show_legend": false}</script><script type="text/javascript" xlink:href="https://kozea.github.io/pygal.js/2.0.x/pygal-tooltips.min.js" /></defs><title>Pygal</title><g class="graph stackedline-graph vertical"><rect class="background" height="600" width="800" x="0" y="0" /><g class="plot" transform="translate(54, 20)"><rect class="background" height="540" width="726.0" x="0" y="0" /><g class="axis y"><path class="line" d="M0.000000 540.000000 h726.000000" /><g class="guides"><path class="guide line" d="M0.000000 485.230902 h726.000000" /><text class="" x="-5" y="488.7309022603108">190M</text><title>190M</title></g><g class="guides"><path class="major guide line" d="M0.000000 419.901260 h726.000000" /><text class="major" x="-5" y="423.4012595439941">200M</text><title>200M</title></g><g class="guides"><path class="guide line" d="M0.000000 354.571617 h726.000000" /><text class="" x="-5" y="358.0716168276775">210M</text><title>210M</title></g><g class="guides"><path class="guide line" d="M0.000000 289.241974 h726.000000" /><text class="" x="-5" y="292.74197411136083">220M</text><title>220M</title></g><g class="guides"><path class="guide line" d="M0.000000 223.912331 h726.000000" /><text class="" x="-5" y="227.41233139504413">230M</text><title>230M</title></g><g class="guides"><path class="guide line" d="M0.000000 158.582689 h726.000000" /><text class="" x="-5" y="162.08268867872744">240M</text><title>240M</title></g><g class="guides"><path class="major guide line" d="M0.000000 93.253046 h726.000000" /><text class="major" x="-5" y="96.7530459624108">250M</text><title>250M</title></g><g class="guides"><path class="guide line" d="M0.000000 27.923403 h726.000000" /><text class="" x="-5" y="31.423403246094153">260M</text><title>260M</title></g></g><g class="axis x"><g class="guides"><path class="line" d="M13.961538 0.000000 v540.000000" /><text class="" x="13.96153846153846" y="555.0">2549</text></g><g class="guides"><path class="guide line" d="M91.525641 0.000000 v540.000000" /><text class="" x="91.52564102564101" y="555.0">2550</text></g><g class="guides"><path class="guide line" d="M169.089744 0.000000 v540.000000" /><text class="" x="169.08974358974356" y="555.0">2551</text></g><g class="guides"><path class="guide line" d="M246.653846 0.000000 v540.000000" /><text class="" x="246.65384615384613" y="555.0">2552</text></g><g class="guides"><path class="guide line" d="M324.217949 0.000000 v540.000000" /><text class="" x="324.21794871794873" y="555.0">2553</text></g><g class="guides"><path class="guide line" d="M401.782051 0.000000 v540.000000" /><text class="" x="401.78205128205127" y="555.0">2554</text></g><g class="guides"><path class="guide line" d="M479.346154 0.000000 v540.000000" /><text class="" x="479.3461538461538" y="555.0">2555</text></g><g class="guides"><path class="guide line" d="M556.910256 0.000000 v540.000000" /><text class="" x="556.9102564102565" y="555.0">2556</text></g><g class="guides"><path class="guide line" d="M634.474359 0.000000 v540.000000" /><text class="" x="634.474358974359" y="555.0">2557</text></g><g class="guides"><path class="guide line" d="M712.038462 0.000000 v540.000000" /><text class="" x="712.0384615384615" y="555.0">2558</text></g></g><g class="series serie-0 color-0"><path class="line reactive" d="M13.961538 540.000000 L13.961538 529.615385 14.271795 529.258941 14.582051 528.902504 14.892308 528.546080 15.202564 528.189676 15.512821 527.833298 15.823077 527.476953 16.133333 527.120647 16.443590 526.764388 16.753846 526.408180 17.064103 526.052032 17.374359 525.695950 17.684615 525.339940 17.994872 524.984008 18.305128 524.628162 18.615385 524.272408 18.925641 523.916753 19.235897 523.561202 19.546154 523.205763 19.856410 522.850443 20.166667 522.495247 20.476923 522.140182 20.787179 521.785256 21.097436 521.430473 21.407692 521.075842 21.717949 520.721369 22.028205 520.367059 22.338462 520.012921 22.648718 519.658959 22.958974 519.305182 23.269231 518.951595 23.579487 518.598205 23.889744 518.245019 24.200000 517.892042 24.510256 517.539283 24.820513 517.186746 25.130769 516.834440 25.441026 516.482370 25.751282 516.130543 26.061538 515.778965 26.371795 515.427644 26.682051 515.076585 26.992308 514.725795 27.302564 514.375282 27.612821 514.025050 27.923077 513.675108 28.233333 513.325461 28.543590 512.976116 28.853846 512.627080 29.164103 512.278359 29.474359 511.929960 29.784615 511.581889 30.094872 511.234153 30.405128 510.886758 30.715385 510.539712 31.025641 510.193020 31.335897 509.846689 31.646154 509.500727 31.956410 509.155138 32.266667 508.809930 32.576923 508.465110 32.887179 508.120684 33.197436 507.776658 33.507692 507.433039 33.817949 507.089835 34.128205 506.747050 34.438462 506.404692 34.748718 506.062768 35.058974 505.721284 35.369231 505.380246 35.679487 505.039661 35.989744 504.699536 36.300000 504.359877 36.610256 504.020692 36.920513 503.681985 37.230769 503.343764 37.541026 503.006036 37.851282 502.668807 38.161538 502.332084 38.471795 501.995873 38.782051 501.660180 39.092308 501.325013 39.402564 500.990378 39.712821 500.656282 40.023077 500.322730 40.333333 499.989730 40.643590 499.657288 40.953846 499.325411 41.264103 498.994105 41.574359 498.663378 41.884615 498.333234 42.194872 498.003682 42.505128 497.674727 42.815385 497.346376 43.125641 497.018636 43.435897 496.691514 43.746154 496.365015 44.056410 496.039147 44.366667 495.713915 44.676923 495.389327 44.987179 495.065390 45.297436 494.742108 45.607692 494.419491 45.917949 494.097543 46.228205 493.776271 46.538462 493.455682 46.848718 493.135783 47.158974 492.816580 47.469231 492.498080 47.779487 492.180289 48.089744 491.863213 48.400000 491.546860 48.710256 491.231236 49.020513 490.916347 49.330769 490.602201 49.641026 490.288803 49.951282 489.976160 50.261538 489.664279 50.571795 489.353166 50.882051 489.042829 51.192308 488.733272 51.502564 488.424504 51.812821 488.116530 52.123077 487.809358 52.433333 487.502993 52.743590 487.197442 53.053846 486.892712 53.364103 486.588810 53.674359 486.285742 53.984615 485.983514 54.294872 485.682133 54.605128 485.381606 54.915385 485.081940 55.225641 484.783140 55.535897 484.485213 55.846154 484.188167 56.156410 483.892007 56.466667 483.596740 56.776923 483.302372 57.087179 483.008911 57.397436 482.716363 57.707692 482.424734 58.017949 482.134031 58.328205 481.844261 58.638462 481.555429 58.948718 481.267544 59.258974 480.980610 59.569231 480.694635 59.879487 480.409626 60.189744 480.125588 60.500000 479.842529 60.810256 479.560455 61.120513 479.279372 61.430769 478.999288 61.741026 478.720208 62.051282 478.442140 62.361538 478.165089 62.671795 477.889063 62.982051 477.614068 63.292308 477.340110 63.602564 477.067197 63.912821 476.795334 64.223077 476.524529 64.533333 476.254787 64.843590 475.986116 65.153846 475.718522 65.464103 475.452011 65.774359 475.186590 66.084615 474.922266 66.394872 474.659046 66.705128 474.396935 67.015385 474.135940 67.325641 473.876068 67.635897 473.617326 67.946154 473.359720 68.256410 473.103257 68.566667 472.847942 68.876923 472.593784 69.187179 472.340788 69.497436 472.088960 69.807692 471.838309 70.117949 471.588839 70.428205 471.340558 70.738462 471.093471 71.048718 470.847587 71.358974 470.602911 71.669231 470.359450 71.979487 470.117210 72.289744 469.876199 72.600000 469.636421 72.910256 469.397885 73.220513 469.160597 73.530769 468.924563 73.841026 468.689790 74.151282 468.456284 74.461538 468.224052 74.771795 467.993101 75.082051 467.763437 75.392308 467.535066 75.702564 467.307996 76.012821 467.082232 76.323077 466.857782 76.633333 466.634652 76.943590 466.412848 77.253846 466.192378 77.564103 465.973247 77.874359 465.755462 78.184615 465.539030 78.494872 465.323957 78.805128 465.110250 79.115385 464.897916 79.425641 464.686961 79.735897 464.477391 80.046154 464.269213 80.356410 464.062435 80.666667 463.857061 80.976923 463.653100 81.287179 463.450556 81.597436 463.249438 81.907692 463.049752 82.217949 462.851503 82.528205 462.654699 82.838462 462.459347 83.148718 462.265452 83.458974 462.073022 83.769231 461.882063 84.079487 461.692581 84.389744 461.504583 84.700000 461.318076 85.010256 461.133067 85.320513 460.949561 85.630769 460.767565 85.941026 460.587087 86.251282 460.408132 86.561538 460.230707 86.871795 460.054818 87.182051 459.880473 87.492308 459.707678 87.802564 459.536439 88.112821 459.366762 88.423077 459.198656 88.733333 459.032125 89.043590 458.867177 89.353846 458.703818 89.664103 458.542055 89.974359 458.381894 90.284615 458.223342 90.594872 458.066406 90.905128 457.911091 91.215385 457.757406 91.525641 457.605355 91.835897 457.454943 92.146154 457.306160 92.456410 457.158995 92.766667 457.013435 93.076923 456.869469 93.387179 456.727084 93.697436 456.586267 94.007692 456.447008 94.317949 456.309294 94.628205 456.173112 94.938462 456.038451 95.248718 455.905299 95.558974 455.773642 95.869231 455.643471 96.179487 455.514771 96.489744 455.387531 96.800000 455.261740 97.110256 455.137384 97.420513 455.014452 97.730769 454.892932 98.041026 454.772811 98.351282 454.654077 98.661538 454.536719 98.971795 454.420725 99.282051 454.306081 99.592308 454.192776 99.902564 454.080798 100.212821 453.970135 100.523077 453.860774 100.833333 453.752705 101.143590 453.645913 101.453846 453.540388 101.764103 453.436117 102.074359 453.333088 102.384615 453.231290 102.694872 453.130709 103.005128 453.031334 103.315385 452.933152 103.625641 452.836152 103.935897 452.740322 104.246154 452.645649 104.556410 452.552121 104.866667 452.459727 105.176923 452.368453 105.487179 452.278288 105.797436 452.189221 106.107692 452.101238 106.417949 452.014327 106.728205 451.928477 107.038462 451.843675 107.348718 451.759910 107.658974 451.677169 107.969231 451.595440 108.279487 451.514710 108.589744 451.434969 108.900000 451.356203 109.210256 451.278401 109.520513 451.201551 109.830769 451.125639 110.141026 451.050656 110.451282 450.976587 110.761538 450.903421 111.071795 450.831147 111.382051 450.759751 111.692308 450.689222 112.002564 450.619547 112.312821 450.550716 112.623077 450.482714 112.933333 450.415531 113.243590 450.349154 113.553846 450.283571 113.864103 450.218770 114.174359 450.154739 114.484615 450.091466 114.794872 450.028939 115.105128 449.967145 115.415385 449.906072 115.725641 449.845709 116.035897 449.786043 116.346154 449.727062 116.656410 449.668754 116.966667 449.611107 117.276923 449.554109 117.587179 449.497747 117.897436 449.442010 118.207692 449.386886 118.517949 449.332362 118.828205 449.278426 119.138462 449.225066 119.448718 449.172271 119.758974 449.120027 120.069231 449.068323 120.379487 449.017146 120.689744 448.966486 121.000000 448.916329 121.310256 448.866663 121.620513 448.817476 121.930769 448.768757 122.241026 448.720492 122.551282 448.672671 122.861538 448.625280 123.171795 448.578308 123.482051 448.531743 123.792308 448.485572 124.102564 448.439784 124.412821 448.394366 124.723077 448.349306 125.033333 448.304592 125.343590 448.260212 125.653846 448.216154 125.964103 448.172406 126.274359 448.128956 126.584615 448.085790 126.894872 448.042899 127.205128 448.000268 127.515385 447.957887 127.825641 447.915743 128.135897 447.873824 128.446154 447.832118 128.756410 447.790612 129.066667 447.749295 129.376923 447.708155 129.687179 447.667179 129.997436 447.626356 130.307692 447.585672 130.617949 447.545117 130.928205 447.504678 131.238462 447.464343 131.548718 447.424099 131.858974 447.383935 132.169231 447.343839 132.479487 447.303798 132.789744 447.263801 133.100000 447.223835 133.410256 447.183888 133.720513 447.143947 134.030769 447.104002 134.341026 447.064040 134.651282 447.024048 134.961538 446.984015 135.271795 446.943929 135.582051 446.903777 135.892308 446.863547 136.202564 446.823227 136.512821 446.782805 136.823077 446.742269 137.133333 446.701607 137.443590 446.660807 137.753846 446.619856 138.064103 446.578743 138.374359 446.537455 138.684615 446.495981 138.994872 446.454308 139.305128 446.412423 139.615385 446.370316 139.925641 446.327974 140.235897 446.285384 140.546154 446.242535 140.856410 446.199414 141.166667 446.156010 141.476923 446.112310 141.787179 446.068303 142.097436 446.023975 142.407692 445.979315 142.717949 445.934312 143.028205 445.888952 143.338462 445.843223 143.648718 445.797115 143.958974 445.750613 144.269231 445.703707 144.579487 445.656385 144.889744 445.608633 145.200000 445.560440 145.510256 445.511794 145.820513 445.462683 146.130769 445.413095 146.441026 445.363017 146.751282 445.312438 147.061538 445.261345 147.371795 445.209726 147.682051 445.157570 147.992308 445.104863 148.302564 445.051594 148.612821 444.997751 148.923077 444.943322 149.233333 444.888295 149.543590 444.832656 149.853846 444.776396 150.164103 444.719500 150.474359 444.661958 150.784615 444.603756 151.094872 444.544884 151.405128 444.485328 151.715385 444.425078 152.025641 444.364119 152.335897 444.302442 152.646154 444.240032 152.956410 444.176879 153.266667 444.112970 153.576923 444.048293 153.887179 443.982836 154.197436 443.916587 154.507692 443.849534 154.817949 443.781664 155.128205 443.712966 155.438462 443.643427 155.748718 443.573036 156.058974 443.501779 156.369231 443.429646 156.679487 443.356624 156.989744 443.282701 157.300000 443.207864 157.610256 443.132102 157.920513 443.055403 158.230769 442.977754 158.541026 442.899143 158.851282 442.819558 159.161538 442.738988 159.471795 442.657420 159.782051 442.574841 160.092308 442.491240 160.402564 442.406605 160.712821 442.320924 161.023077 442.234184 161.333333 442.146373 161.643590 442.057480 161.953846 441.967491 162.264103 441.876396 162.574359 441.784181 162.884615 441.690836 163.194872 441.596347 163.505128 441.500702 163.815385 441.403891 164.125641 441.305899 164.435897 441.206716 164.746154 441.106329 165.056410 441.004725 165.366667 440.901894 165.676923 440.797823 165.987179 440.692499 166.297436 440.585911 166.607692 440.478047 166.917949 440.368893 167.228205 440.258440 167.538462 440.146673 167.848718 440.033581 168.158974 439.919152 168.469231 439.803375 168.779487 439.686235 169.089744 439.567723 169.400000 439.447827 169.710256 439.326545 170.020513 439.203877 170.330769 439.079822 170.641026 438.954380 170.951282 438.827551 171.261538 438.699334 171.571795 438.569729 171.882051 438.438735 172.192308 438.306352 172.502564 438.172580 172.812821 438.037419 173.123077 437.900867 173.433333 437.762925 173.743590 437.623592 174.053846 437.482868 174.364103 437.340752 174.674359 437.197245 174.984615 437.052345 175.294872 436.906052 175.605128 436.758366 175.915385 436.609287 176.225641 436.458813 176.535897 436.306946 176.846154 436.153684 177.156410 435.999027 177.466667 435.842974 177.776923 435.685526 178.087179 435.526682 178.397436 435.366441 178.707692 435.204803 179.017949 435.041768 179.328205 434.877335 179.638462 434.711504 179.948718 434.544275 180.258974 434.375646 180.569231 434.205619 180.879487 434.034192 181.189744 433.861365 181.500000 433.687138 181.810256 433.511510 182.120513 433.334481 182.430769 433.156050 182.741026 432.976218 183.051282 432.794983 183.361538 432.612346 183.671795 432.428305 183.982051 432.242862 184.292308 432.056014 184.602564 431.867763 184.912821 431.678106 185.223077 431.487045 185.533333 431.294579 185.843590 431.100707 186.153846 430.905428 186.464103 430.708744 186.774359 430.510652 187.084615 430.311154 187.394872 430.110248 187.705128 429.907933 188.015385 429.704211 188.325641 429.499080 188.635897 429.292539 188.946154 429.084589 189.256410 428.875230 189.566667 428.664460 189.876923 428.452279 190.187179 428.238687 190.497436 428.023684 190.807692 427.807270 191.117949 427.589443 191.428205 427.370203 191.738462 427.149551 192.048718 426.927485 192.358974 426.704006 192.669231 426.479112 192.979487 426.252804 193.289744 426.025082 193.600000 425.795944 193.910256 425.565390 194.220513 425.333421 194.530769 425.100035 194.841026 424.865232 195.151282 424.629013 195.461538 424.391376 195.771795 424.152321 196.082051 423.911847 196.392308 423.669956 196.702564 423.426645 197.012821 423.181914 197.323077 422.935764 197.633333 422.688194 197.943590 422.439203 198.253846 422.188792 198.564103 421.936959 198.874359 421.683704 199.184615 421.429027 199.494872 421.172928 199.805128 420.915406 200.115385 420.656461 200.425641 420.396092 200.735897 420.134299 201.046154 419.871082 201.356410 419.606440 201.666667 419.340373 201.976923 419.072881 202.287179 418.803963 202.597436 418.533618 202.907692 418.261847 203.217949 417.988649 203.528205 417.714023 203.838462 417.437970 204.148718 417.160488 204.458974 416.881578 204.769231 416.601239 205.079487 416.319471 205.389744 416.036273 205.700000 415.751645 206.010256 415.465586 206.320513 415.178097 206.630769 414.889177 206.941026 414.598824 207.251282 414.307040 207.561538 414.013824 207.871795 413.719175 208.182051 413.423093 208.492308 413.125577 208.802564 412.826627 209.112821 412.526243 209.423077 412.224425 209.733333 411.921171 210.043590 411.616482 210.353846 411.310358 210.664103 411.002797 210.974359 410.693800 211.284615 410.383365 211.594872 410.071494 211.905128 409.758184 212.215385 409.443437 212.525641 409.127251 212.835897 408.809627 213.146154 408.490563 213.456410 408.170059 213.766667 407.848116 214.076923 407.524732 214.387179 407.199908 214.697436 406.873642 215.007692 406.545935 215.317949 406.216786 215.628205 405.886195 215.938462 405.554161 216.248718 405.220685 216.558974 404.885764 216.869231 404.549400 217.179487 404.211592 217.489744 403.872339 217.800000 403.531642 218.110256 403.189499 218.420513 402.845910 218.730769 402.500876 219.041026 402.154394 219.351282 401.806467 219.661538 401.457091 219.971795 401.106269 220.282051 400.753998 220.592308 400.400279 220.902564 400.045111 221.212821 399.688494 221.523077 399.330428 221.833333 398.970912 222.143590 398.609945 222.453846 398.247528 222.764103 397.883660 223.074359 397.518340 223.384615 397.151569 223.694872 396.783345 224.005128 396.413669 224.315385 396.042540 224.625641 395.669958 224.935897 395.295922 225.246154 394.920432 225.556410 394.543488 225.866667 394.165089 226.176923 393.785234 226.487179 393.403924 226.797436 393.021158 227.107692 392.636936 227.417949 392.251256 227.728205 391.864120 228.038462 391.475526 228.348718 391.085475 228.658974 390.693965 228.969231 390.300997 229.279487 389.906569 229.589744 389.510682 229.900000 389.113335 230.210256 388.714529 230.520513 388.314261 230.830769 387.912533 231.141026 387.509343 231.451282 387.104692 231.761538 386.698579 232.071795 386.291003 232.382051 385.881964 232.692308 385.471462 233.002564 385.059497 233.312821 384.646068 233.623077 384.231174 233.933333 383.814815 234.243590 383.396992 234.553846 382.977703 234.864103 382.556948 235.174359 382.134727 235.484615 381.711039 235.794872 381.285884 236.105128 380.859262 236.415385 380.431172 236.725641 380.001614 237.035897 379.570587 237.346154 379.138091 237.656410 378.704126 237.966667 378.268692 238.276923 377.831787 238.587179 377.393412 238.897436 376.953566 239.207692 376.512248 239.517949 376.069460 239.828205 375.625199 240.138462 375.179466 240.448718 374.732260 240.758974 374.283581 241.069231 373.833429 241.379487 373.381802 241.689744 372.928702 242.000000 372.474127 242.310256 372.018076 242.620513 371.560551 242.930769 371.101549 243.241026 370.641072 243.551282 370.179118 243.861538 369.715687 244.171795 369.250778 244.482051 368.784392 244.792308 368.316528 245.102564 367.847186 245.412821 367.376364 245.723077 366.904064 246.033333 366.430284 246.343590 365.955024 246.653846 365.478283 246.964103 365.000066 247.274359 364.520396 247.584615 364.039298 247.894872 363.556801 248.205128 363.072930 248.515385 362.587713 248.825641 362.101177 249.135897 361.613348 249.446154 361.124253 249.756410 360.633920 250.066667 360.142374 250.376923 359.649644 250.687179 359.155756 250.997436 358.660736 251.307692 358.164612 251.617949 357.667411 251.928205 357.169159 252.238462 356.669883 252.548718 356.169611 252.858974 355.668368 253.169231 355.166183 253.479487 354.663081 253.789744 354.159091 254.100000 353.654237 254.410256 353.148549 254.720513 352.642052 255.030769 352.134773 255.341026 351.626739 255.651282 351.117977 255.961538 350.608514 256.271795 350.098378 256.582051 349.587593 256.892308 349.076189 257.202564 348.564191 257.512821 348.051626 257.823077 347.538521 258.133333 347.024904 258.443590 346.510801 258.753846 345.996238 259.064103 345.481243 259.374359 344.965843 259.684615 344.450065 259.994872 343.933935 260.305128 343.417481 260.615385 342.900728 260.925641 342.383705 261.235897 341.866438 261.546154 341.348953 261.856410 340.831279 262.166667 340.313441 262.476923 339.795466 262.787179 339.277382 263.097436 338.759215 263.407692 338.240993 263.717949 337.722741 264.028205 337.204488 264.338462 336.686259 264.648718 336.168082 264.958974 335.649984 265.269231 335.131991 265.579487 334.614131 265.889744 334.096430 266.200000 333.578915 266.510256 333.061613 266.820513 332.544551 267.130769 332.027756 267.441026 331.511254 267.751282 330.995073 268.061538 330.479240 268.371795 329.963781 268.682051 329.448723 268.992308 328.934093 269.302564 328.419919 269.612821 327.906226 269.923077 327.393042 270.233333 326.880394 270.543590 326.368308 270.853846 325.856812 271.164103 325.345932 271.474359 324.835695 271.784615 324.326128 272.094872 323.817258 272.405128 323.309113 272.715385 322.801717 273.025641 322.295100 273.335897 321.789287 273.646154 321.284306 273.956410 320.780182 274.266667 320.276944 274.576923 319.774618 274.887179 319.273231 275.197436 318.772810 275.507692 318.273382 275.817949 317.774973 276.128205 317.277610 276.438462 316.781321 276.748718 316.286133 277.058974 315.792071 277.369231 315.299163 277.679487 314.807437 277.989744 314.316918 278.300000 313.827634 278.610256 313.339611 278.920513 312.852877 279.230769 312.367458 279.541026 311.883382 279.851282 311.400674 280.161538 310.919363 280.471795 310.439474 280.782051 309.961035 281.092308 309.484073 281.402564 309.008615 281.712821 308.534687 282.023077 308.062316 282.333333 307.591529 282.643590 307.122354 282.953846 306.654816 283.264103 306.188943 283.574359 305.724762 283.884615 305.262300 284.194872 304.801583 284.505128 304.342639 284.815385 303.885493 285.125641 303.430174 285.435897 302.976708 285.746154 302.525122 286.056410 302.075443 286.366667 301.627698 286.676923 301.181913 286.987179 300.738115 287.297436 300.296332 287.607692 299.856590 287.917949 299.418917 288.228205 298.983338 288.538462 298.549881 288.848718 298.118573 289.158974 297.689441 289.469231 297.262511 289.779487 296.837811 290.089744 296.415367 290.400000 295.995206 290.710256 295.577356 291.020513 295.161842 291.330769 294.748692 291.641026 294.337933 291.951282 293.929592 292.261538 293.523695 292.571795 293.120270 292.882051 292.719343 293.192308 292.320941 293.502564 291.925091 293.812821 291.531820 294.123077 291.141155 294.433333 290.753123 294.743590 290.367750 295.053846 289.985064 295.364103 289.605091 295.674359 289.227858 295.984615 288.853393 296.294872 288.481721 296.605128 288.112871 296.915385 287.746868 297.225641 287.383740 297.535897 287.023514 297.846154 286.666216 298.156410 286.311874 298.466667 285.960513 298.776923 285.612162 299.087179 285.266847 299.397436 284.924595 299.707692 284.585432 300.017949 284.249386 300.328205 283.916484 300.638462 283.586752 300.948718 283.260218 301.258974 282.936907 301.569231 282.616848 301.879487 282.300067 302.189744 281.986590 302.500000 281.676446 302.810256 281.369659 303.120513 281.066259 303.430769 280.766271 303.741026 280.469722 304.051282 280.176639 304.361538 279.887050 304.671795 279.600980 304.982051 279.318457 305.292308 279.039508 305.602564 278.764160 305.912821 278.492439 306.223077 278.224372 306.533333 277.959987 306.843590 277.699309 307.153846 277.442367 307.464103 277.189187 307.774359 276.939795 308.084615 276.694219 308.394872 276.452486 308.705128 276.214622 309.015385 275.980655 309.325641 275.750611 309.635897 275.524516 309.946154 275.302399 310.256410 275.084286 310.566667 274.870203 310.876923 274.660179 311.187179 274.454238 311.497436 274.252409 311.807692 274.054719 312.117949 273.861193 312.428205 273.671860 312.738462 273.486746 313.048718 273.305877 313.358974 273.129281 313.669231 272.956985 313.979487 272.789016 314.289744 272.625399 314.600000 272.466163 314.910256 272.311334 315.220513 272.160940 315.530769 272.015006 315.841026 271.873560 316.151282 271.736628 316.461538 271.604239 316.771795 271.476417 317.082051 271.353192 317.392308 271.234588 317.702564 271.120633 318.012821 271.011355 318.323077 270.906779 318.633333 270.806933 318.943590 270.711844 319.253846 270.621539 319.564103 270.536043 319.874359 270.455385 320.184615 270.379592 320.494872 270.308689 320.805128 270.242705 321.115385 270.181665 321.425641 270.125597 321.735897 270.074528 322.046154 270.028484 322.356410 269.987493 322.666667 269.951581 322.976923 269.920775 323.287179 269.895102 323.597436 269.874589 323.907692 269.859263 324.217949 269.849151 324.528205 269.844266 324.838462 269.844575 325.148718 269.850029 325.458974 269.860580 325.769231 269.876180 326.079487 269.896783 326.389744 269.922339 326.700000 269.952802 327.010256 269.988122 327.320513 270.028254 327.630769 270.073149 327.941026 270.122758 328.251282 270.177035 328.561538 270.235932 328.871795 270.299400 329.182051 270.367393 329.492308 270.439861 329.802564 270.516759 330.112821 270.598037 330.423077 270.683647 330.733333 270.773544 331.043590 270.867677 331.353846 270.966000 331.664103 271.068465 331.974359 271.175025 332.284615 271.285630 332.594872 271.400234 332.905128 271.518789 333.215385 271.641247 333.525641 271.767560 333.835897 271.897681 334.146154 272.031561 334.456410 272.169153 334.766667 272.310410 335.076923 272.455283 335.387179 272.603724 335.697436 272.755686 336.007692 272.911122 336.317949 273.069983 336.628205 273.232221 336.938462 273.397789 337.248718 273.566639 337.558974 273.738723 337.869231 273.913994 338.179487 274.092404 338.489744 274.273904 338.800000 274.458448 339.110256 274.645986 339.420513 274.836473 339.730769 275.029859 340.041026 275.226098 340.351282 275.425141 340.661538 275.626940 340.971795 275.831448 341.282051 276.038617 341.592308 276.248399 341.902564 276.460747 342.212821 276.675612 342.523077 276.892947 342.833333 277.112705 343.143590 277.334836 343.453846 277.559295 343.764103 277.786032 344.074359 278.015000 344.384615 278.246152 344.694872 278.479439 345.005128 278.714813 345.315385 278.952228 345.625641 279.191635 345.935897 279.432986 346.246154 279.676234 346.556410 279.921331 346.866667 280.168229 347.176923 280.416880 347.487179 280.667237 347.797436 280.919252 348.107692 281.172876 348.417949 281.428063 348.728205 281.684765 349.038462 281.942933 349.348718 282.202520 349.658974 282.463478 349.969231 282.725760 350.279487 282.989317 350.589744 283.254102 350.900000 283.520068 351.210256 283.787165 351.520513 284.055347 351.830769 284.324566 352.141026 284.594774 352.451282 284.865923 352.761538 285.137966 353.071795 285.410854 353.382051 285.684540 353.692308 285.958977 354.002564 286.234116 354.312821 286.509909 354.623077 286.786309 354.933333 287.063268 355.243590 287.340739 355.553846 287.618673 355.864103 287.897023 356.174359 288.175741 356.484615 288.454779 356.794872 288.734090 357.105128 289.013625 357.415385 289.293337 357.725641 289.573178 358.035897 289.853101 358.346154 290.133057 358.656410 290.412999 358.966667 290.692879 359.276923 290.972650 359.587179 291.252263 359.897436 291.531670 360.207692 291.810825 360.517949 292.089679 360.828205 292.368184 361.138462 292.646293 361.448718 292.923957 361.758974 293.201130 362.069231 293.477764 362.379487 293.753809 362.689744 294.029220 363.000000 294.303948 363.310256 294.577945 363.620513 294.851163 363.930769 295.123555 364.241026 295.395073 364.551282 295.665669 364.861538 295.935296 365.171795 296.203905 365.482051 296.471449 365.792308 296.737881 366.102564 297.003151 366.412821 297.267213 366.723077 297.530019 367.033333 297.791521 367.343590 298.051671 367.653846 298.310422 367.964103 298.567725 368.274359 298.823533 368.584615 299.077799 368.894872 299.330474 369.205128 299.581510 369.515385 299.830860 369.825641 300.078477 370.135897 300.324311 370.446154 300.568316 370.756410 300.810444 371.066667 301.050647 371.376923 301.288877 371.687179 301.525087 371.997436 301.759228 372.307692 301.991254 372.617949 302.221115 372.928205 302.448765 373.238462 302.674155 373.548718 302.897238 373.858974 303.117966 374.169231 303.336292 374.479487 303.552167 374.789744 303.765543 375.100000 303.976374 375.410256 304.184611 375.720513 304.390206 376.030769 304.593112 376.341026 304.793281 376.651282 304.990665 376.961538 305.185216 377.271795 305.376887 377.582051 305.565630 377.892308 305.751397 378.202564 305.934140 378.512821 306.113811 378.823077 306.290363 379.133333 306.463749 379.443590 306.633919 379.753846 306.800827 380.064103 306.964424 380.374359 307.124664 380.684615 307.281497 380.994872 307.434877 381.305128 307.584755 381.615385 307.731084 381.925641 307.873816 382.235897 308.012903 382.546154 308.148298 382.856410 308.279953 383.166667 308.407819 383.476923 308.531850 383.787179 308.651997 384.097436 308.768212 384.407692 308.880449 384.717949 308.988658 385.028205 309.092793 385.338462 309.192805 385.648718 309.288648 385.958974 309.380272 386.269231 309.467630 386.579487 309.550675 386.889744 309.629358 387.200000 309.703633 387.510256 309.773450 387.820513 309.838763 388.130769 309.899524 388.441026 309.955684 388.751282 310.007196 389.061538 310.054013 389.371795 310.096086 389.682051 310.133368 389.992308 310.165811 390.302564 310.193367 390.612821 310.215989 390.923077 310.233628 391.233333 310.246237 391.543590 310.253769 391.853846 310.256174 392.164103 310.253406 392.474359 310.245417 392.784615 310.232159 393.094872 310.213585 393.405128 310.189646 393.715385 310.160294 394.025641 310.125483 394.335897 310.085163 394.646154 310.039288 394.956410 309.987810 395.266667 309.930681 395.576923 309.867852 395.887179 309.799277 396.197436 309.724908 396.507692 309.644696 396.817949 309.558595 397.128205 309.466555 397.438462 309.368530 397.748718 309.264472 398.058974 309.154333 398.369231 309.038065 398.679487 308.915620 398.989744 308.786951 399.300000 308.652010 399.610256 308.510749 399.920513 308.363120 400.230769 308.209076 400.541026 308.048568 400.851282 307.881550 401.161538 307.707973 401.471795 307.527789 401.782051 307.340951 402.092308 307.147425 402.402564 306.947238 402.712821 306.740429 403.023077 306.527039 403.333333 306.307108 403.643590 306.080676 403.953846 305.847784 404.264103 305.608472 404.574359 305.362779 404.884615 305.110748 405.194872 304.852417 405.505128 304.587827 405.815385 304.317018 406.125641 304.040031 406.435897 303.756906 406.746154 303.467683 407.056410 303.172402 407.366667 302.871104 407.676923 302.563829 407.987179 302.250617 408.297436 301.931509 408.607692 301.606544 408.917949 301.275764 409.228205 300.939208 409.538462 300.596917 409.848718 300.248930 410.158974 299.895289 410.469231 299.536033 410.779487 299.171204 411.089744 298.800840 411.400000 298.424982 411.710256 298.043671 412.020513 297.656947 412.330769 297.264850 412.641026 296.867421 412.951282 296.464699 413.261538 296.056726 413.571795 295.643540 413.882051 295.225184 414.192308 294.801696 414.502564 294.373117 414.812821 293.939488 415.123077 293.500848 415.433333 293.057239 415.743590 292.608699 416.053846 292.155270 416.364103 291.696992 416.674359 291.233906 416.984615 290.766050 417.294872 290.293466 417.605128 289.816194 417.915385 289.334275 418.225641 288.847748 418.535897 288.356653 418.846154 287.861032 419.156410 287.360924 419.466667 286.856370 419.776923 286.347410 420.087179 285.834083 420.397436 285.316432 420.707692 284.794495 421.017949 284.268313 421.328205 283.737926 421.638462 283.203375 421.948718 282.664700 422.258974 282.121941 422.569231 281.575139 422.879487 281.024333 423.189744 280.469565 423.500000 279.910873 423.810256 279.348299 424.120513 278.781883 424.430769 278.211665 424.741026 277.637686 425.051282 277.059985 425.361538 276.478603 425.671795 275.893580 425.982051 275.304957 426.292308 274.712774 426.602564 274.117071 426.912821 273.517888 427.223077 272.915266 427.533333 272.309245 427.843590 271.699865 428.153846 271.087166 428.464103 270.471189 428.774359 269.851975 429.084615 269.229562 429.394872 268.603993 429.705128 267.975306 430.015385 267.343542 430.325641 266.708742 430.635897 266.070945 430.946154 265.430193 431.256410 264.786525 431.566667 264.139981 431.876923 263.490603 432.187179 262.838429 432.497436 262.183501 432.807692 261.525858 433.117949 260.865542 433.428205 260.202592 433.738462 259.537048 434.048718 258.868951 434.358974 258.198342 434.669231 257.525259 434.979487 256.849745 435.289744 256.171838 435.600000 255.491580 435.910256 254.809010 436.220513 254.124169 436.530769 253.437096 436.841026 252.747834 437.151282 252.056421 437.461538 251.362898 437.771795 250.667305 438.082051 249.969682 438.392308 249.270070 438.702564 248.568510 439.012821 247.865040 439.323077 247.159702 439.633333 246.452537 439.943590 245.743583 440.253846 245.032881 440.564103 244.320473 440.874359 243.606397 441.184615 242.890695 441.494872 242.173406 441.805128 241.454571 442.115385 240.734231 442.425641 240.012424 442.735897 239.289193 443.046154 238.564576 443.356410 237.838614 443.666667 237.111349 443.976923 236.382818 444.287179 235.653064 444.597436 234.922127 444.907692 234.190046 445.217949 233.456862 445.528205 232.722615 445.838462 231.987346 446.148718 231.251094 446.458974 230.513900 446.769231 229.775805 447.079487 229.036849 447.389744 228.297071 447.700000 227.556512 448.010256 226.815213 448.320513 226.073214 448.630769 225.330555 448.941026 224.587276 449.251282 223.843417 449.561538 223.099020 449.871795 222.354124 450.182051 221.608769 450.492308 220.862995 450.802564 220.116844 451.112821 219.370355 451.423077 218.623568 451.733333 217.876525 452.043590 217.129264 452.353846 216.381827 452.664103 215.634254 452.974359 214.886584 453.284615 214.138859 453.594872 213.391118 453.905128 212.643402 454.215385 211.895751 454.525641 211.148206 454.835897 210.400806 455.146154 209.653592 455.456410 208.906604 455.766667 208.159882 456.076923 207.413468 456.387179 206.667400 456.697436 205.921720 457.007692 205.176467 457.317949 204.431683 457.628205 203.687406 457.938462 202.943678 458.248718 202.200539 458.558974 201.458028 458.869231 200.716187 459.179487 199.975055 459.489744 199.234674 459.800000 198.495082 460.110256 197.756321 460.420513 197.018430 460.730769 196.281451 461.041026 195.545422 461.351282 194.810386 461.661538 194.076381 461.971795 193.343448 462.282051 192.611627 462.592308 191.880959 462.902564 191.151485 463.212821 190.423243 463.523077 189.696275 463.833333 188.970620 464.143590 188.246320 464.453846 187.523414 464.764103 186.801942 465.074359 186.081946 465.384615 185.363464 465.694872 184.646538 466.005128 183.931208 466.315385 183.217514 466.625641 182.505496 466.935897 181.795195 467.246154 181.086651 467.556410 180.379903 467.866667 179.674994 468.176923 178.971961 468.487179 178.270847 468.797436 177.571691 469.107692 176.874534 469.417949 176.179416 469.728205 175.486376 470.038462 174.795456 470.348718 174.106696 470.658974 173.420135 470.969231 172.735815 471.279487 172.053776 471.589744 171.374057 471.900000 170.696699 472.210256 170.021742 472.520513 169.349228 472.830769 168.679195 473.141026 168.011684 473.451282 167.346736 473.761538 166.684390 474.071795 166.024688 474.382051 165.367669 474.692308 164.713373 475.002564 164.061842 475.312821 163.413114 475.623077 162.767231 475.933333 162.124233 476.243590 161.484160 476.553846 160.847052 476.864103 160.212949 477.174359 159.581893 477.484615 158.953922 477.794872 158.329078 478.105128 157.707401 478.415385 157.088930 478.725641 156.473707 479.035897 155.861771 479.346154 155.253163 479.656410 154.647916 479.966667 154.046027 480.276923 153.447489 480.587179 152.852293 480.897436 152.260430 481.207692 151.671891 481.517949 151.086668 481.828205 150.504752 482.138462 149.926134 482.448718 149.350805 482.758974 148.778757 483.069231 148.209981 483.379487 147.644468 483.689744 147.082209 484.000000 146.523196 484.310256 145.967420 484.620513 145.414872 484.930769 144.865544 485.241026 144.319426 485.551282 143.776510 485.861538 143.236787 486.171795 142.700249 486.482051 142.166886 486.792308 141.636691 487.102564 141.109653 487.412821 140.585765 487.723077 140.065018 488.033333 139.547402 488.343590 139.032910 488.653846 138.521532 488.964103 138.013260 489.274359 137.508085 489.584615 137.005998 489.894872 136.506991 490.205128 136.011054 490.515385 135.518179 490.825641 135.028358 491.135897 134.541581 491.446154 134.057840 491.756410 133.577126 492.066667 133.099430 492.376923 132.624743 492.687179 132.153058 492.997436 131.684364 493.307692 131.218654 493.617949 130.755918 493.928205 130.296148 494.238462 129.839335 494.548718 129.385470 494.858974 128.934545 495.169231 128.486551 495.479487 128.041478 495.789744 127.599319 496.100000 127.160065 496.410256 126.723706 496.720513 126.290235 497.030769 125.859641 497.341026 125.431918 497.651282 125.007055 497.961538 124.585044 498.271795 124.165877 498.582051 123.749544 498.892308 123.336037 499.202564 122.925347 499.512821 122.517465 499.823077 122.112384 500.133333 121.710092 500.443590 121.310584 500.753846 120.913848 501.064103 120.519877 501.374359 120.128662 501.684615 119.740194 501.994872 119.354465 502.305128 118.971465 502.615385 118.591186 502.925641 118.213619 503.235897 117.838756 503.546154 117.466587 503.856410 117.097104 504.166667 116.730298 504.476923 116.366161 504.787179 116.004684 505.097436 115.645857 505.407692 115.289672 505.717949 114.936121 506.028205 114.585195 506.338462 114.236885 506.648718 113.891182 506.958974 113.548077 507.269231 113.207562 507.579487 112.869628 507.889744 112.534266 508.200000 112.201468 508.510256 111.871224 508.820513 111.543526 509.130769 111.218366 509.441026 110.895734 509.751282 110.575622 510.061538 110.258021 510.371795 109.942922 510.682051 109.630317 510.992308 109.320196 511.302564 109.012551 511.612821 108.707374 511.923077 108.404655 512.233333 108.104386 512.543590 107.806558 512.853846 107.511162 513.164103 107.218190 513.474359 106.927633 513.784615 106.639481 514.094872 106.353727 514.405128 106.070362 514.715385 105.789376 515.025641 105.510761 515.335897 105.234509 515.646154 104.960610 515.956410 104.689057 516.266667 104.419839 516.576923 104.152948 516.887179 103.888376 517.197436 103.626114 517.507692 103.366153 517.817949 103.108485 518.128205 102.853100 518.438462 102.599990 518.748718 102.349146 519.058974 102.100559 519.369231 101.854221 519.679487 101.610123 519.989744 101.368256 520.300000 101.128611 520.610256 100.891180 520.920513 100.655954 521.230769 100.422924 521.541026 100.192082 521.851282 99.963418 522.161538 99.736924 522.471795 99.512591 522.782051 99.290411 523.092308 99.070374 523.402564 98.852472 523.712821 98.636696 524.023077 98.423038 524.333333 98.211489 524.643590 98.002039 524.953846 97.794681 525.264103 97.589405 525.574359 97.386203 525.884615 97.185066 526.194872 96.985985 526.505128 96.788951 526.815385 96.593956 527.125641 96.400991 527.435897 96.210048 527.746154 96.021117 528.056410 95.834189 528.366667 95.649257 528.676923 95.466311 528.987179 95.285342 529.297436 95.106342 529.607692 94.929303 529.917949 94.754214 530.228205 94.581068 530.538462 94.409856 530.848718 94.240568 531.158974 94.073197 531.469231 93.907734 531.779487 93.744169 532.089744 93.582495 532.400000 93.422701 532.710256 93.264780 533.020513 93.108724 533.330769 92.954522 533.641026 92.802166 533.951282 92.651648 534.261538 92.502959 534.571795 92.356090 534.882051 92.211032 535.192308 92.067777 535.502564 91.926315 535.812821 91.786639 536.123077 91.648739 536.433333 91.512607 536.743590 91.378233 537.053846 91.245610 537.364103 91.114728 537.674359 90.985579 537.984615 90.858153 538.294872 90.732443 538.605128 90.608439 538.915385 90.486133 539.225641 90.365515 539.535897 90.246578 539.846154 90.129312 540.156410 90.013709 540.466667 89.899759 540.776923 89.787455 541.087179 89.676787 541.397436 89.567747 541.707692 89.460326 542.017949 89.354515 542.328205 89.250306 542.638462 89.147689 542.948718 89.046656 543.258974 88.947198 543.569231 88.849307 543.879487 88.752973 544.189744 88.658189 544.500000 88.564944 544.810256 88.473231 545.120513 88.383041 545.430769 88.294365 545.741026 88.207194 546.051282 88.121519 546.361538 88.037332 546.671795 87.954624 546.982051 87.873387 547.292308 87.793611 547.602564 87.715287 547.912821 87.638408 548.223077 87.562964 548.533333 87.488947 548.843590 87.416347 549.153846 87.345156 549.464103 87.275366 549.774359 87.206967 550.084615 87.139950 550.394872 87.074308 550.705128 87.010031 551.015385 86.947111 551.325641 86.885539 551.635897 86.825305 551.946154 86.766402 552.256410 86.708821 552.566667 86.652552 552.876923 86.597587 553.187179 86.543918 553.497436 86.491535 553.807692 86.440430 554.117949 86.390595 554.428205 86.342019 554.738462 86.294695 555.048718 86.248614 555.358974 86.203767 555.669231 86.160146 555.979487 86.117741 556.289744 86.076544 556.600000 86.036546 556.910256 85.997738 557.220513 85.960112 557.530769 85.923655 557.841026 85.888355 558.151282 85.854199 558.461538 85.821177 558.771795 85.789274 559.082051 85.758479 559.392308 85.728780 559.702564 85.700165 560.012821 85.672620 560.323077 85.646135 560.633333 85.620695 560.943590 85.596291 561.253846 85.572908 561.564103 85.550534 561.874359 85.529159 562.184615 85.508768 562.494872 85.489350 562.805128 85.470893 563.115385 85.453384 563.425641 85.436811 563.735897 85.421161 564.046154 85.406424 564.356410 85.392585 564.666667 85.379633 564.976923 85.367556 565.287179 85.356341 565.597436 85.345976 565.907692 85.336449 566.217949 85.327747 566.528205 85.319859 566.838462 85.312771 567.148718 85.306472 567.458974 85.300949 567.769231 85.296191 568.079487 85.292184 568.389744 85.288917 568.700000 85.286376 569.010256 85.284551 569.320513 85.283429 569.630769 85.282997 569.941026 85.283242 570.251282 85.284154 570.561538 85.285719 570.871795 85.287926 571.182051 85.290761 571.492308 85.294213 571.802564 85.298270 572.112821 85.302919 572.423077 85.308147 572.733333 85.313943 573.043590 85.320294 573.353846 85.327188 573.664103 85.334613 573.974359 85.342557 574.284615 85.351006 574.594872 85.359950 574.905128 85.369375 575.215385 85.379269 575.525641 85.389620 575.835897 85.400416 576.146154 85.411645 576.456410 85.423293 576.766667 85.435350 577.076923 85.447802 577.387179 85.460637 577.697436 85.473844 578.007692 85.487409 578.317949 85.501321 578.628205 85.515567 578.938462 85.530134 579.248718 85.545012 579.558974 85.560187 579.869231 85.575647 580.179487 85.591379 580.489744 85.607373 580.800000 85.623614 581.110256 85.640091 581.420513 85.656792 581.730769 85.673705 582.041026 85.690816 582.351282 85.708115 582.661538 85.725587 582.971795 85.743223 583.282051 85.761008 583.592308 85.778930 583.902564 85.796979 584.212821 85.815140 584.523077 85.833402 584.833333 85.851753 585.143590 85.870180 585.453846 85.888671 585.764103 85.907214 586.074359 85.925796 586.384615 85.944405 586.694872 85.963029 587.005128 85.981656 587.315385 86.000273 587.625641 86.018868 587.935897 86.037429 588.246154 86.055944 588.556410 86.074399 588.866667 86.092784 589.176923 86.111085 589.487179 86.129290 589.797436 86.147388 590.107692 86.165365 590.417949 86.183210 590.728205 86.200910 591.038462 86.218453 591.348718 86.235826 591.658974 86.253018 591.969231 86.270016 592.279487 86.286808 592.589744 86.303381 592.900000 86.319724 593.210256 86.335823 593.520513 86.351667 593.830769 86.367244 594.141026 86.382541 594.451282 86.397545 594.761538 86.412245 595.071795 86.426629 595.382051 86.440683 595.692308 86.454396 596.002564 86.467756 596.312821 86.480749 596.623077 86.493365 596.933333 86.505590 597.243590 86.517412 597.553846 86.528820 597.864103 86.539800 598.174359 86.550340 598.484615 86.560429 598.794872 86.570054 599.105128 86.579202 599.415385 86.587862 599.725641 86.596020 600.035897 86.603666 600.346154 86.610786 600.656410 86.617368 600.966667 86.623400 601.276923 86.628869 601.587179 86.633764 601.897436 86.638072 602.207692 86.641781 602.517949 86.644878 602.828205 86.647352 603.138462 86.649190 603.448718 86.650379 603.758974 86.650907 604.069231 86.650763 604.379487 86.649934 604.689744 86.648407 605.000000 86.646170 605.310256 86.643211 605.620513 86.639518 605.930769 86.635079 606.241026 86.629880 606.551282 86.623911 606.861538 86.617158 607.171795 86.609609 607.482051 86.601252 607.792308 86.592075 608.102564 86.582065 608.412821 86.571211 608.723077 86.559499 609.033333 86.546918 609.343590 86.533456 609.653846 86.519099 609.964103 86.503836 610.274359 86.487655 610.584615 86.470543 610.894872 86.452487 611.205128 86.433477 611.515385 86.413498 611.825641 86.392540 612.135897 86.370590 612.446154 86.347635 612.756410 86.323663 613.066667 86.298662 613.376923 86.272620 613.687179 86.245524 613.997436 86.217362 614.307692 86.188122 614.617949 86.157792 614.928205 86.126359 615.238462 86.093810 615.548718 86.060135 615.858974 86.025320 616.169231 85.989353 616.479487 85.952222 616.789744 85.913914 617.100000 85.874418 617.410256 85.833720 617.720513 85.791810 618.030769 85.748674 618.341026 85.704299 618.651282 85.658675 618.961538 85.611789 619.271795 85.563627 619.582051 85.514179 619.892308 85.463432 620.202564 85.411372 620.512821 85.357990 620.823077 85.303270 621.133333 85.247203 621.443590 85.189775 621.753846 85.130974 622.064103 85.070788 622.374359 85.009204 622.684615 84.946210 622.994872 84.881795 623.305128 84.815945 623.615385 84.748648 623.925641 84.679892 624.235897 84.609666 624.546154 84.537955 624.856410 84.464749 625.166667 84.390035 625.476923 84.313801 625.787179 84.236034 626.097436 84.156722 626.407692 84.075853 626.717949 83.993414 627.028205 83.909394 627.338462 83.823779 627.648718 83.736559 627.958974 83.647720 628.269231 83.557250 628.579487 83.465136 628.889744 83.371368 629.200000 83.275931 629.510256 83.178815 629.820513 83.080006 630.130769 82.979493 630.441026 82.877263 630.751282 82.773304 631.061538 82.667603 631.371795 82.560149 631.682051 82.450929 631.992308 82.339930 632.302564 82.227141 632.612821 82.112550 632.923077 81.996143 633.233333 81.877908 633.543590 81.757835 633.853846 81.635909 634.164103 81.512119 634.474359 81.386452 634.784615 81.258900 635.094872 81.129467 635.405128 80.998160 635.715385 80.864987 636.025641 80.729955 636.335897 80.593073 636.646154 80.454346 636.956410 80.313785 637.266667 80.171394 637.576923 80.027183 637.887179 79.881159 638.197436 79.733329 638.507692 79.583701 638.817949 79.432282 639.128205 79.279080 639.438462 79.124103 639.748718 78.967358 640.058974 78.808853 640.369231 78.648595 640.679487 78.486591 640.989744 78.322850 641.300000 78.157379 641.610256 77.990185 641.920513 77.821276 642.230769 77.650660 642.541026 77.478344 642.851282 77.304335 643.161538 77.128642 643.471795 76.951272 643.782051 76.772231 644.092308 76.591529 644.402564 76.409172 644.712821 76.225168 645.023077 76.039525 645.333333 75.852249 645.643590 75.663350 645.953846 75.472833 646.264103 75.280708 646.574359 75.086980 646.884615 74.891659 647.194872 74.694751 647.505128 74.496264 647.815385 74.296205 648.125641 74.094582 648.435897 73.891404 648.746154 73.686676 649.056410 73.480407 649.366667 73.272605 649.676923 73.063276 649.987179 72.852429 650.297436 72.640070 650.607692 72.426208 650.917949 72.210851 651.228205 71.994005 651.538462 71.775678 651.848718 71.555878 652.158974 71.334612 652.469231 71.111888 652.779487 70.887713 653.089744 70.662096 653.400000 70.435043 653.710256 70.206562 654.020513 69.976661 654.330769 69.745346 654.641026 69.512627 654.951282 69.278510 655.261538 69.043003 655.571795 68.806113 655.882051 68.567848 656.192308 68.328216 656.502564 68.087223 656.812821 67.844879 657.123077 67.601189 657.433333 67.356163 657.743590 67.109806 658.053846 66.862128 658.364103 66.613135 658.674359 66.362835 658.984615 66.111235 659.294872 65.858343 659.605128 65.604167 659.915385 65.348715 660.225641 65.091993 660.535897 64.834009 660.846154 64.574771 661.156410 64.314287 661.466667 64.052563 661.776923 63.789608 662.087179 63.525429 662.397436 63.260034 662.707692 62.993430 663.017949 62.725624 663.328205 62.456625 663.638462 62.186440 663.948718 61.915076 664.258974 61.642541 664.569231 61.368843 664.879487 61.093989 665.189744 60.817986 665.500000 60.540842 665.810256 60.262566 666.120513 59.983163 666.430769 59.702643 666.741026 59.421011 667.051282 59.138277 667.361538 58.854447 667.671795 58.569529 667.982051 58.283531 668.292308 57.996460 668.602564 57.708324 668.912821 57.419130 669.223077 57.128886 669.533333 56.837599 669.843590 56.545278 670.153846 56.251928 670.464103 55.957559 670.774359 55.662178 671.084615 55.365791 671.394872 55.068407 671.705128 54.770034 672.015385 54.470678 672.325641 54.170348 672.635897 53.869051 672.946154 53.566794 673.256410 53.263586 673.566667 52.959432 673.876923 52.654343 674.187179 52.348323 674.497436 52.041382 674.807692 51.733527 675.117949 51.424766 675.428205 51.115105 675.738462 50.804553 676.048718 50.493116 676.358974 50.180804 676.669231 49.867622 676.979487 49.553579 677.289744 49.238683 677.600000 48.922940 677.910256 48.606359 678.220513 48.288947 678.530769 47.970711 678.841026 47.651659 679.151282 47.331799 679.461538 47.011138 679.771795 46.689684 680.082051 46.367444 680.392308 46.044425 680.702564 45.720636 681.012821 45.396084 681.323077 45.070777 681.633333 44.744722 681.943590 44.417926 682.253846 44.090397 682.564103 43.762143 682.874359 43.433172 683.184615 43.103490 683.494872 42.773105 683.805128 42.442026 684.115385 42.110259 684.425641 41.777812 684.735897 41.444692 685.046154 41.110908 685.356410 40.776466 685.666667 40.441375 685.976923 40.105641 686.287179 39.769273 686.597436 39.432278 686.907692 39.094663 687.217949 38.756437 687.528205 38.417606 687.838462 38.078178 688.148718 37.738160 688.458974 37.397561 688.769231 37.056388 689.079487 36.714648 689.389744 36.372349 689.700000 36.029499 690.010256 35.686105 690.320513 35.342174 690.630769 34.997714 690.941026 34.652733 691.251282 34.307238 691.561538 33.961237 691.871795 33.614738 692.182051 33.267747 692.492308 32.920273 692.802564 32.572323 693.112821 32.223904 693.423077 31.875025 693.733333 31.525692 694.043590 31.175914 694.353846 30.825697 694.664103 30.475050 694.974359 30.123979 695.284615 29.772493 695.594872 29.420599 695.905128 29.068305 696.215385 28.715618 696.525641 28.362545 696.835897 28.009095 697.146154 27.655274 697.456410 27.301091 697.766667 26.946553 698.076923 26.591667 698.387179 26.236442 698.697436 25.880884 699.007692 25.525000 699.317949 25.168800 699.628205 24.812290 699.938462 24.455478 700.248718 24.098371 700.558974 23.740977 700.869231 23.383303 701.179487 23.025358 701.489744 22.667148 701.800000 22.308681 702.110256 21.949964 702.420513 21.591006 702.730769 21.231814 703.041026 20.872395 703.351282 20.512758 703.661538 20.152908 703.971795 19.792855 704.282051 19.432605 704.592308 19.072166 704.902564 18.711546 705.212821 18.350752 705.523077 17.989792 705.833333 17.628673 706.143590 17.267403 706.453846 16.905990 706.764103 16.544441 707.074359 16.182763 707.384615 15.820964 707.694872 15.459052 708.005128 15.097034 708.315385 14.734918 708.625641 14.372712 708.935897 14.010422 709.246154 13.648057 709.556410 13.285623 709.866667 12.923129 710.176923 12.560583 710.487179 12.197991 710.797436 11.835361 711.107692 11.472701 711.417949 11.110018 711.728205 10.747321 712.038462 10.384615 712.038462 540.000000" /></g></g><g class="titles" /><g class="plot overlay" transform="translate(54, 20)"><g class="series serie-0 color-0"><g class="dots"><circle class="dot reactive tooltip-trigger" cx="13.96153846153846" cy="529.6153846153845" r="2.5" /><desc class="value">183,206,073(kWh)</desc><desc class="x top">13.96153846153846</desc><desc class="y top">529.6153846153845</desc><desc class="x_label">2549</desc></g><g class="dots"><circle class="dot reactive tooltip-trigger" cx="91.52564102564101" cy="457.6053547556826" r="2.5" /><desc class="value">194,228,639(kWh)</desc><desc class="x top">91.52564102564101</desc><desc class="y top">457.6053547556826</desc><desc class="x_label">2550</desc></g><g class="dots"><circle class="dot reactive tooltip-trigger" cx="169.08974358974356" cy="439.56772280835065" r="2.5" /><desc class="value">196,989,657(kWh)</desc><desc class="x top">169.08974358974356</desc><desc class="y top">439.56772280835065</desc><desc class="x_label">2551</desc></g><g class="dots"><circle class="dot reactive tooltip-trigger" cx="246.65384615384613" cy="365.47828308580966" r="2.5" /><desc class="value">208,330,518(kWh)</desc><desc class="x top">246.65384615384613</desc><desc class="y top">365.47828308580966</desc><desc class="x_label">2552</desc></g><g class="dots"><circle class="dot reactive tooltip-trigger" cx="324.21794871794873" cy="269.8491505884859" r="2.5" /><desc class="value">222,968,457(kWh)</desc><desc class="x ">324.21794871794873</desc><desc class="y ">269.8491505884859</desc><desc class="x_label">2553</desc></g><g class="dots"><circle class="dot reactive tooltip-trigger" cx="401.78205128205127" cy="307.3409505932034" r="2.5" /><desc class="value">217,229,592(kWh)</desc><desc class="x left top">401.78205128205127</desc><desc class="y left top">307.3409505932034</desc><desc class="x_label">2554</desc></g><g class="dots"><circle class="dot reactive tooltip-trigger" cx="479.3461538461538" cy="155.25316343769038" r="2.5" /><desc class="value">240,509,650(kWh)</desc><desc class="x left">479.3461538461538</desc><desc class="y left">155.25316343769038</desc><desc class="x_label">2555</desc></g><g class="dots"><circle class="dot reactive tooltip-trigger" cx="556.9102564102565" cy="85.99773836422906" r="2.5" /><desc class="value">251,110,569(kWh)</desc><desc class="x left">556.9102564102565</desc><desc class="y left">85.99773836422906</desc><desc class="x_label">2556</desc></g><g class="dots"><circle class="dot reactive tooltip-trigger" cx="634.474358974359" cy="81.38645206606213" r="2.5" /><desc class="value">251,816,418(kWh)</desc><desc class="x left">634.474358974359</desc><desc class="y left">81.38645206606213</desc><desc class="x_label">2557</desc></g><g class="dots"><circle class="dot reactive tooltip-trigger" cx="712.0384615384615" cy="10.384615384615472" r="2.5" /><desc class="value">262,684,660(kWh)</desc><desc class="x left">712.0384615384615</desc><desc class="y left">10.384615384615472</desc><desc class="x_label">2558</desc></g></g></g><g class="plot text-overlay" transform="translate(54, 20)"><g class="series serie-0 color-0" /></g><g class="plot tooltip-overlay" transform="translate(54, 20)"><g class="tooltip" style="opacity: 0" transform="translate(0 0)"><rect class="tooltip-box" height="0" rx="0" ry="0" width="0" /><g class="text" /></g></g></g></svg>