<?xml version='1.0' encoding='utf-8'?>
<svg xmlns:xlink="http://www.w3.org/1999/xlink" class="pygal-chart" id="chart-80d6e5e1-6037-40a3-8d91-c611addc2b61" viewBox="0 0 800 600" xmlns="http://www.w3.org/2000/svg"><!--Generated with pygal 2.3.0 (etree) ©Kozea 2012-2016 on 2016-12-08--><!--http://pygal.org--><!--http://github.com/Kozea/pygal--><defs><style type="text/css">#chart-80d6e5e1-6037-40a3-8d91-c611addc2b61{-webkit-user-select:none;-webkit-font-smoothing:antialiased;font-family:Consolas,"Liberation Mono",Menlo,Courier,monospace}#chart-80d6e5e1-6037-40a3-8d91-c611addc2b61 .title{font-family:Consolas,"Liberation Mono",Menlo,Courier,monospace;font-size:16px}#chart-80d6e5e1-6037-40a3-8d91-c611addc2b61 .legends .legend text{font-family:Consolas,"Liberation Mono",Menlo,Courier,monospace;font-size:14px}#chart-80d6e5e1-6037-40a3-8d91-c611addc2b61 .axis text{font-family:Consolas,"Liberation Mono",Menlo,Courier,monospace;font-size:10px}#chart-80d6e5e1-6037-40a3-8d91-c611addc2b61 .axis text.major{font-family:Consolas,"Liberation Mono",Menlo,Courier,monospace;font-size:10px}#chart-80d6e5e1-6037-40a3-8d91-c611addc2b61 .text-overlay text.value{font-family:Consolas,"Liberation Mono",Menlo,Courier,monospace;font-size:16px}#chart-80d6e5e1-6037-40a3-8d91-c611addc2b61 .text-overlay text.label{font-family:Consolas,"Liberation Mono",Menlo,Courier,monospace;font-size:10px}#chart-80d6e5e1-6037-40a3-8d91-c611addc2b61 .tooltip{font-family:Consolas,"Liberation Mono",Menlo,Courier,monospace;font-size:14px}#chart-80d6e5e1-6037-40a3-8d91-c611addc2b61 text.no_data{font-family:Consolas,"Liberation Mono",Menlo,Courier,monospace;font-size:64px}
#chart-80d6e5e1-6037-40a3-8d91-c611addc2b61{background-color:rgba(249,249,249,1)}#chart-80d6e5e1-6037-40a3-8d91-c611addc2b61 path,#chart-80d6e5e1-6037-40a3-8d91-c611addc2b61 line,#chart-80d6e5e1-6037-40a3-8d91-c611addc2b61 rect,#chart-80d6e5e1-6037-40a3-8d91-c611addc2b61 circle{-webkit-transition:150ms;-moz-transition:150ms;transition:150ms}#chart-80d6e5e1-6037-40a3-8d91-c611addc2b61 .graph &gt; .background{fill:rgba(249,249,249,1)}#chart-80d6e5e1-6037-40a3-8d91-c611addc2b61 .plot &gt; .background{fill:rgba(255,255,255,1)}#chart-80d6e5e1-6037-40a3-8d91-c611addc2b61 .graph{fill:rgba(0,0,0,.87)}#chart-80d6e5e1-6037-40a3-8d91-c611addc2b61 text.no_data{fill:rgba(0,0,0,1)}#chart-80d6e5e1-6037-40a3-8d91-c611addc2b61 .title{fill:rgba(0,0,0,1)}#chart-80d6e5e1-6037-40a3-8d91-c611addc2b61 .legends .legend text{fill:rgba(0,0,0,.87)}#chart-80d6e5e1-6037-40a3-8d91-c611addc2b61 .legends .legend:hover text{fill:rgba(0,0,0,1)}#chart-80d6e5e1-6037-40a3-8d91-c611addc2b61 .axis .line{stroke:rgba(0,0,0,1)}#chart-80d6e5e1-6037-40a3-8d91-c611addc2b61 .axis .guide.line{stroke:rgba(0,0,0,.54)}#chart-80d6e5e1-6037-40a3-8d91-c611addc2b61 .axis .major.line{stroke:rgba(0,0,0,.87)}#chart-80d6e5e1-6037-40a3-8d91-c611addc2b61 .axis text.major{fill:rgba(0,0,0,1)}#chart-80d6e5e1-6037-40a3-8d91-c611addc2b61 .axis.y .guides:hover .guide.line,#chart-80d6e5e1-6037-40a3-8d91-c611addc2b61 .line-graph .axis.x .guides:hover .guide.line,#chart-80d6e5e1-6037-40a3-8d91-c611addc2b61 .stackedline-graph .axis.x .guides:hover .guide.line,#chart-80d6e5e1-6037-40a3-8d91-c611addc2b61 .xy-graph .axis.x .guides:hover .guide.line{stroke:rgba(0,0,0,1)}#chart-80d6e5e1-6037-40a3-8d91-c611addc2b61 .axis .guides:hover text{fill:rgba(0,0,0,1)}#chart-80d6e5e1-6037-40a3-8d91-c611addc2b61 .reactive{fill-opacity:.7;stroke-opacity:.8}#chart-80d6e5e1-6037-40a3-8d91-c611addc2b61 .ci{stroke:rgba(0,0,0,.87)}#chart-80d6e5e1-6037-40a3-8d91-c611addc2b61 .reactive.active,#chart-80d6e5e1-6037-40a3-8d91-c611addc2b61 .active .reactive{fill-opacity:.8;stroke-opacity:.9;stroke-width:4}#chart-80d6e5e1-6037-40a3-8d91-c611addc2b61 .ci .reactive.active{stroke-width:1.5}#chart-80d6e5e1-6037-40a3-8d91-c611addc2b61 .series text{fill:rgba(0,0,0,1)}#chart-80d6e5e1-6037-40a3-8d91-c611addc2b61 .tooltip rect{fill:rgba(255,255,255,1);stroke:rgba(0,0,0,1);-webkit-transition:opacity 150ms;-moz-transition:opacity 150ms;transition:opacity 150ms}#chart-80d6e5e1-6037-40a3-8d91-c611addc2b61 .tooltip .label{fill:rgba(0,0,0,.87)}#chart-80d6e5e1-6037-40a3-8d91-c611addc2b61 .tooltip .label{fill:rgba(0,0,0,.87)}#chart-80d6e5e1-6037-40a3-8d91-c611addc2b61 .tooltip .legend{font-size:.8em;fill:rgba(0,0,0,.54)}#chart-80d6e5e1-6037-40a3-8d91-c611addc2b61 .tooltip .x_label{font-size:.6em;fill:rgba(0,0,0,1)}#chart-80d6e5e1-6037-40a3-8d91-c611addc2b61 .tooltip .xlink{font-size:.5em;text-decoration:underline}#chart-80d6e5e1-6037-40a3-8d91-c611addc2b61 .tooltip .value{font-size:1.5em}#chart-80d6e5e1-6037-40a3-8d91-c611addc2b61 .bound{font-size:.5em}#chart-80d6e5e1-6037-40a3-8d91-c611addc2b61 .max-value{font-size:.75em;fill:rgba(0,0,0,.54)}#chart-80d6e5e1-6037-40a3-8d91-c611addc2b61 .map-element{fill:rgba(255,255,255,1);stroke:rgba(0,0,0,.54) !important}#chart-80d6e5e1-6037-40a3-8d91-c611addc2b61 .map-element .reactive{fill-opacity:inherit;stroke-opacity:inherit}#chart-80d6e5e1-6037-40a3-8d91-c611addc2b61 .color-0,#chart-80d6e5e1-6037-40a3-8d91-c611addc2b61 .color-0 a:visited{stroke:#e86fa0;fill:#e86fa0}#chart-80d6e5e1-6037-40a3-8d91-c611addc2b61 .text-overlay .color-0 text{fill:black}
#chart-80d6e5e1-6037-40a3-8d91-c611addc2b61 text.no_data{text-anchor:middle}#chart-80d6e5e1-6037-40a3-8d91-c611addc2b61 .guide.line{fill:none}#chart-80d6e5e1-6037-40a3-8d91-c611addc2b61 .centered{text-anchor:middle}#chart-80d6e5e1-6037-40a3-8d91-c611addc2b61 .title{text-anchor:middle}#chart-80d6e5e1-6037-40a3-8d91-c611addc2b61 .legends .legend text{fill-opacity:1}#chart-80d6e5e1-6037-40a3-8d91-c611addc2b61 .axis.x text{text-anchor:middle}#chart-80d6e5e1-6037-40a3-8d91-c611addc2b61 .axis.x:not(.web) text[transform]{text-anchor:start}#chart-80d6e5e1-6037-40a3-8d91-c611addc2b61 .axis.x:not(.web) text[transform].backwards{text-anchor:end}#chart-80d6e5e1-6037-40a3-8d91-c611addc2b61 .axis.y text{text-anchor:end}#chart-80d6e5e1-6037-40a3-8d91-c611addc2b61 .axis.y text[transform].backwards{text-anchor:start}#chart-80d6e5e1-6037-40a3-8d91-c611addc2b61 .axis.y2 text{text-anchor:start}#chart-80d6e5e1-6037-40a3-8d91-c611addc2b61 .axis.y2 text[transform].backwards{text-anchor:end}#chart-80d6e5e1-6037-40a3-8d91-c611addc2b61 .axis .guide.line{stroke-dasharray:4,4}#chart-80d6e5e1-6037-40a3-8d91-c611addc2b61 .axis .major.guide.line{stroke-dasharray:6,6}#chart-80d6e5e1-6037-40a3-8d91-c611addc2b61 .horizontal .axis.y .guide.line,#chart-80d6e5e1-6037-40a3-8d91-c611addc2b61 .horizontal .axis.y2 .guide.line,#chart-80d6e5e1-6037-40a3-8d91-c611addc2b61 .vertical .axis.x .guide.line{opacity:0}#chart-80d6e5e1-6037-40a3-8d91-c611addc2b61 .horizontal .axis.always_show .guide.line,#chart-80d6e5e1-6037-40a3-8d91-c611addc2b61 .vertical .axis.always_show .guide.line{opacity:1 !important}#chart-80d6e5e1-6037-40a3-8d91-c611addc2b61 .axis.y .guides:hover .guide.line,#chart-80d6e5e1-6037-40a3-8d91-c611addc2b61 .axis.y2 .guides:hover .guide.line,#chart-80d6e5e1-6037-40a3-8d91-c611addc2b61 .axis.x .guides:hover .guide.line{opacity:1}#chart-80d6e5e1-6037-40a3-8d91-c611addc2b61 .axis .guides:hover text{opacity:1}#chart-80d6e5e1-6037-40a3-8d91-c611addc2b61 .nofill{fill:none}#chart-80d6e5e1-6037-40a3-8d91-c611addc2b61 .subtle-fill{fill-opacity:.2}#chart-80d6e5e1-6037-40a3-8d91-c611addc2b61 .dot{stroke-width:1px;fill-opacity:1}#chart-80d6e5e1-6037-40a3-8d91-c611addc2b61 .dot.active{stroke-width:5px}#chart-80d6e5e1-6037-40a3-8d91-c611addc2b61 .dot.negative{fill:transparent}#chart-80d6e5e1-6037-40a3-8d91-c611addc2b61 text,#chart-80d6e5e1-6037-40a3-8d91-c611addc2b61 tspan{stroke:none !important}#chart-80d6e5e1-6037-40a3-8d91-c611addc2b61 .series text.active{opacity:1}#chart-80d6e5e1-6037-40a3-8d91-c611addc2b61 .tooltip rect{fill-opacity:.95;stroke-width:.5}#chart-80d6e5e1-6037-40a3-8d91-c611addc2b61 .tooltip text{fill-opacity:1}#chart-80d6e5e1-6037-40a3-8d91-c611addc2b61 .showable{visibility:hidden}#chart-80d6e5e1-6037-40a3-8d91-c611addc2b61 .showable.shown{visibility:visible}#chart-80d6e5e1-6037-40a3-8d91-c611addc2b61 .gauge-background{fill:rgba(229,229,229,1);stroke:none}#chart-80d6e5e1-6037-40a3-8d91-c611addc2b61 .bg-lines{stroke:rgba(249,249,249,1);stroke-width:2px}</style><script type="text/javascript">window.pygal = window.pygal || {};window.pygal.config = window.pygal.config || {};window.pygal.config['80d6e5e1-6037-40a3-8d91-c611addc2b61'] = {"no_data_text": "No data", "no_prefix": false, "xrange": null, "print_values_position": "center", "truncate_label": null, "x_labels": ["2549", "2550", "2551", "2552", "2553", "2554", "2555", "2556", "2557", "2558"], "title": null, "force_uri_protocol": "https", "defs": [], "formatter": null, "classes": ["pygal-chart"], "y_labels": null, "rounded_bars": null, "explicit_size": false, "x_labels_major_every": null, "legend_at_bottom_columns": null, "stroke_style": null, "half_pie": false, "spacing": 10, "tooltip_fancy_mode": true, "inverse_y_axis": false, "width": 800, "inner_radius": 0, "interpolation_parameters": {}, "tooltip_border_radius": 0, "style": {"no_data_font_family": "Consolas, \"Liberation Mono\", Menlo, Courier, monospace", "tooltip_font_size": 14, "tooltip_font_family": "Consolas, \"Liberation Mono\", Menlo, Courier, monospace", "stroke_opacity_hover": ".9", "legend_font_family": "Consolas, \"Liberation Mono\", Menlo, Courier, monospace", "font_family": "Consolas, \"Liberation Mono\", Menlo, Courier, monospace", "title_font_family": "Consolas, \"Liberation Mono\", Menlo, Courier, monospace", "background": "rgba(249, 249, 249, 1)", "stroke_opacity": ".8", "foreground": "rgba(0, 0, 0, .87)", "value_background": "rgba(229, 229, 229, 1)", "guide_stroke_dasharray": "4,4", "foreground_subtle": "rgba(0, 0, 0, .54)", "opacity_hover": ".8", "value_font_family": "Consolas, \"Liberation Mono\", Menlo, Courier, monospace", "value_label_font_size": 10, "plot_background": "rgba(255, 255, 255, 1)", "ci_colors": [], "label_font_size": 10, "major_label_font_size": 10, "title_font_size": 16, "no_data_font_size": 64, "value_font_size": 16, "value_colors": [], "label_font_family": "Consolas, \"Liberation Mono\", Menlo, Courier, monospace", "major_guide_stroke_dasharray": "6,6", "transition": "150ms", "foreground_strong": "rgba(0, 0, 0, 1)", "colors": ["#e86fa0", "#e88f6f", "#e8df6f", "#a0e86f", "#6fe88f", "#6fe8df", "#6fa0e8", "#8f6fe8", "#df6fe8", "#e86fa0"], "opacity": ".7", "legend_font_size": 14, "value_label_font_family": "Consolas, \"Liberation Mono\", Menlo, Courier, monospace", "major_label_font_family": "Consolas, \"Liberation Mono\", Menlo, Courier, monospace"}, "x_labels_major_count": null, "interpolation_precision": 250, "missing_value_fill_truncation": "x", "stack_from_top": false, "truncate_legend": null, "show_minor_x_labels": true, "print_zeroes": true, "css": ["file://style.css", "file://graph.css"], "y_label_rotation": 0, "legend_at_bottom": false, "print_values": false, "margin_top": null, "max_scale": 16, "allow_interruptions": false, "show_x_labels": true, "strict": false, "show_x_guides": false, "stroke": true, "margin_left": null, "dynamic_print_values": false, "print_labels": false, "show_y_labels": true, "x_labels_major": null, "range": null, "x_label_rotation": 0, "margin": 20, "zero": 0, "include_x_axis": false, "height": 600, "show_minor_y_labels": true, "show_dots": true, "interpolate": "cubic", "show_y_guides": true, "y_labels_major": null, "box_mode": "extremes", "margin_bottom": null, "order_min": null, "legend_box_size": 12, "fill": true, "show_only_major_dots": false, "js": ["//kozea.github.io/pygal.js/2.0.x/pygal-tooltips.min.js"], "x_title": null, "y_labels_major_every": null, "y_labels_major_count": null, "disable_xml_declaration": false, "y_title": null, "logarithmic": false, "pretty_print": false, "min_scale": 4, "dots_size": 2.5, "margin_right": null, "legends": [null], "secondary_range": null, "show_legend": false}</script><script type="text/javascript" xlink:href="https://kozea.github.io/pygal.js/2.0.x/pygal-tooltips.min.js" /></defs><title>Pygal</title><g class="graph stackedline-graph vertical"><rect class="background" height="600" width="800" x="0" y="0" /><g class="plot" transform="translate(54, 20)"><rect class="background" height="540" width="726.0" x="0" y="0" /><g class="axis y"><path class="line" d="M0.000000 540.000000 h726.000000" /><g class="guides"><path class="major guide line" d="M0.000000 505.931974 h726.000000" /><text class="major" x="-5" y="509.4319738280243">300M</text><title>300M</title></g><g class="guides"><path class="guide line" d="M0.000000 447.792137 h726.000000" /><text class="" x="-5" y="451.2921370027477">320M</text><title>320M</title></g><g class="guides"><path class="guide line" d="M0.000000 389.652300 h726.000000" /><text class="" x="-5" y="393.1523001774711">340M</text><title>340M</title></g><g class="guides"><path class="guide line" d="M0.000000 331.512463 h726.000000" /><text class="" x="-5" y="335.01246335219446">360M</text><title>360M</title></g><g class="guides"><path class="guide line" d="M0.000000 273.372627 h726.000000" /><text class="" x="-5" y="276.8726265269179">380M</text><title>380M</title></g><g class="guides"><path class="major guide line" d="M0.000000 215.232790 h726.000000" /><text class="major" x="-5" y="218.73278970164125">400M</text><title>400M</title></g><g class="guides"><path class="guide line" d="M0.000000 157.092953 h726.000000" /><text class="" x="-5" y="160.59295287636462">420M</text><title>420M</title></g><g class="guides"><path class="guide line" d="M0.000000 98.953116 h726.000000" /><text class="" x="-5" y="102.45311605108805">440M</text><title>440M</title></g><g class="guides"><path class="guide line" d="M0.000000 40.813279 h726.000000" /><text class="" x="-5" y="44.313279225811414">460M</text><title>460M</title></g></g><g class="axis x"><g class="guides"><path class="line" d="M13.961538 0.000000 v540.000000" /><text class="" x="13.96153846153846" y="555.0">2549</text></g><g class="guides"><path class="guide line" d="M91.525641 0.000000 v540.000000" /><text class="" x="91.52564102564101" y="555.0">2550</text></g><g class="guides"><path class="guide line" d="M169.089744 0.000000 v540.000000" /><text class="" x="169.08974358974356" y="555.0">2551</text></g><g class="guides"><path class="guide line" d="M246.653846 0.000000 v540.000000" /><text class="" x="246.65384615384613" y="555.0">2552</text></g><g class="guides"><path class="guide line" d="M324.217949 0.000000 v540.000000" /><text class="" x="324.21794871794873" y="555.0">2553</text></g><g class="guides"><path class="guide line" d="M401.782051 0.000000 v540.000000" /><text class="" x="401.78205128205127" y="555.0">2554</text></g><g class="guides"><path class="guide line" d="M479.346154 0.000000 v540.000000" /><text class="" x="479.3461538461538" y="555.0">2555</text></g><g class="guides"><path class="guide line" d="M556.910256 0.000000 v540.000000" /><text class="" x="556.9102564102565" y="555.0">2556</text></g><g class="guides"><path class="guide line" d="M634.474359 0.000000 v540.000000" /><text class="" x="634.474358974359" y="555.0">2557</text></g><g class="guides"><path class="guide line" d="M712.038462 0.000000 v540.000000" /><text class="" x="712.0384615384615" y="555.0">2558</text></g></g><g class="series serie-0 color-0"><path class="line reactive" d="M13.961538 540.000000 L13.961538 529.615385 14.271795 529.317441 14.582051 529.019500 14.892308 528.721564 15.202564 528.423636 15.512821 528.125719 15.823077 527.827815 16.133333 527.529927 16.443590 527.232057 16.753846 526.934209 17.064103 526.636384 17.374359 526.338586 17.684615 526.040817 17.994872 525.743080 18.305128 525.445377 18.615385 525.147711 18.925641 524.850085 19.235897 524.552502 19.546154 524.254963 19.856410 523.957472 20.166667 523.660032 20.476923 523.362644 20.787179 523.065312 21.097436 522.768038 21.407692 522.470826 21.717949 522.173676 22.028205 521.876593 22.338462 521.579579 22.648718 521.282637 22.958974 520.985768 23.269231 520.688976 23.579487 520.392264 23.889744 520.095634 24.200000 519.799088 24.510256 519.502630 24.820513 519.206263 25.130769 518.909987 25.441026 518.613807 25.751282 518.317725 26.061538 518.021744 26.371795 517.725866 26.682051 517.430094 26.992308 517.134431 27.302564 516.838878 27.612821 516.543440 27.923077 516.248118 28.233333 515.952915 28.543590 515.657835 28.853846 515.362878 29.164103 515.068049 29.474359 514.773350 29.784615 514.478783 30.094872 514.184351 30.405128 513.890056 30.715385 513.595902 31.025641 513.301892 31.335897 513.008026 31.646154 512.714309 31.956410 512.420743 32.266667 512.127331 32.576923 511.834075 32.887179 511.540978 33.197436 511.248042 33.507692 510.955271 33.817949 510.662666 34.128205 510.370231 34.438462 510.077968 34.748718 509.785880 35.058974 509.493970 35.369231 509.202239 35.679487 508.910691 35.989744 508.619329 36.300000 508.328154 36.610256 508.037170 36.920513 507.746380 37.230769 507.455786 37.541026 507.165390 37.851282 506.875195 38.161538 506.585205 38.471795 506.295421 38.782051 506.005846 39.092308 505.716483 39.402564 505.427335 39.712821 505.138403 40.023077 504.849692 40.333333 504.561203 40.643590 504.272939 40.953846 503.984903 41.264103 503.697098 41.574359 503.409525 41.884615 503.122188 42.194872 502.835090 42.505128 502.548232 42.815385 502.261618 43.125641 501.975251 43.435897 501.689132 43.746154 501.403265 44.056410 501.117652 44.366667 500.832296 44.676923 500.547200 44.987179 500.262366 45.297436 499.977797 45.607692 499.693495 45.917949 499.409463 46.228205 499.125704 46.538462 498.842221 46.848718 498.559015 47.158974 498.276091 47.469231 497.993450 47.779487 497.711094 48.089744 497.429028 48.400000 497.147253 48.710256 496.865771 49.020513 496.584587 49.330769 496.303701 49.641026 496.023118 49.951282 495.742839 50.261538 495.462868 50.571795 495.183206 50.882051 494.903856 51.192308 494.624822 51.502564 494.346106 51.812821 494.067710 52.123077 493.789637 52.433333 493.511890 52.743590 493.234472 53.053846 492.957384 53.364103 492.680631 53.674359 492.404213 53.984615 492.128135 54.294872 491.852398 54.605128 491.577005 54.915385 491.301960 55.225641 491.027264 55.535897 490.752920 55.846154 490.478931 56.156410 490.205300 56.466667 489.932028 56.776923 489.659120 57.087179 489.386577 57.397436 489.114403 57.707692 488.842599 58.017949 488.571168 58.328205 488.300114 58.638462 488.029438 58.948718 487.759144 59.258974 487.489233 59.569231 487.219710 59.879487 486.950575 60.189744 486.681833 60.500000 486.413485 60.810256 486.145535 61.120513 485.877984 61.430769 485.610836 61.741026 485.344093 62.051282 485.077758 62.361538 484.811834 62.671795 484.546322 62.982051 484.281227 63.292308 484.016550 63.602564 483.752294 63.912821 483.488461 64.223077 483.225056 64.533333 482.962079 64.843590 482.699534 65.153846 482.437423 65.464103 482.175749 65.774359 481.914515 66.084615 481.653723 66.394872 481.393376 66.705128 481.133477 67.015385 480.874028 67.325641 480.615032 67.635897 480.356491 67.946154 480.098408 68.256410 479.840787 68.566667 479.583628 68.876923 479.326936 69.187179 479.070713 69.497436 478.814961 69.807692 478.559683 70.117949 478.304882 70.428205 478.050560 70.738462 477.796720 71.048718 477.543365 71.358974 477.290498 71.669231 477.038120 71.979487 476.786234 72.289744 476.534844 72.600000 476.283952 72.910256 476.033561 73.220513 475.783672 73.530769 475.534290 73.841026 475.285416 74.151282 475.037053 74.461538 474.789204 74.771795 474.541871 75.082051 474.295058 75.392308 474.048766 75.702564 473.802999 76.012821 473.557758 76.323077 473.313048 76.633333 473.068869 76.943590 472.825226 77.253846 472.582120 77.564103 472.339555 77.874359 472.097532 78.184615 471.856055 78.494872 471.615126 78.805128 471.374748 79.115385 471.134924 79.425641 470.895656 79.735897 470.656946 80.046154 470.418798 80.356410 470.181215 80.666667 469.944198 80.976923 469.707750 81.287179 469.471874 81.597436 469.236573 81.907692 469.001850 82.217949 468.767706 82.528205 468.534145 82.838462 468.301170 83.148718 468.068782 83.458974 467.836985 83.769231 467.605781 84.079487 467.375173 84.389744 467.145164 84.700000 466.915756 85.010256 466.686951 85.320513 466.458754 85.630769 466.231165 85.941026 466.004188 86.251282 465.777825 86.561538 465.552080 86.871795 465.326954 87.182051 465.102451 87.492308 464.878573 87.802564 464.655322 88.112821 464.432702 88.423077 464.210714 88.733333 463.989363 89.043590 463.768649 89.353846 463.548577 89.664103 463.329148 89.974359 463.110365 90.284615 462.892231 90.594872 462.674749 90.905128 462.457920 91.215385 462.241749 91.525641 462.026237 91.835897 461.811386 92.146154 461.597194 92.456410 461.383657 92.766667 461.170773 93.076923 460.958537 93.387179 460.746946 93.697436 460.535998 94.007692 460.325688 94.317949 460.116013 94.628205 459.906970 94.938462 459.698556 95.248718 459.490767 95.558974 459.283600 95.869231 459.077051 96.179487 458.871118 96.489744 458.665797 96.800000 458.461084 97.110256 458.256976 97.420513 458.053470 97.730769 457.850562 98.041026 457.648249 98.351282 457.446528 98.661538 457.245396 98.971795 457.044848 99.282051 456.844883 99.592308 456.645495 99.902564 456.446682 100.212821 456.248442 100.523077 456.050769 100.833333 455.853661 101.143590 455.657115 101.453846 455.461127 101.764103 455.265694 102.074359 455.070812 102.384615 454.876479 102.694872 454.682690 103.005128 454.489443 103.315385 454.296734 103.625641 454.104559 103.935897 453.912916 104.246154 453.721801 104.556410 453.531211 104.866667 453.341142 105.176923 453.151591 105.487179 452.962555 105.797436 452.774030 106.107692 452.586013 106.417949 452.398501 106.728205 452.211489 107.038462 452.024976 107.348718 451.838957 107.658974 451.653430 107.969231 451.468390 108.279487 451.283835 108.589744 451.099760 108.900000 450.916164 109.210256 450.733042 109.520513 450.550391 109.830769 450.368208 110.141026 450.186489 110.451282 450.005231 110.761538 449.824431 111.071795 449.644085 111.382051 449.464190 111.692308 449.284743 112.002564 449.105740 112.312821 448.927178 112.623077 448.749053 112.933333 448.571363 113.243590 448.394103 113.553846 448.217271 113.864103 448.040864 114.174359 447.864877 114.484615 447.689307 114.794872 447.514152 115.105128 447.339407 115.415385 447.165069 115.725641 446.991136 116.035897 446.817604 116.346154 446.644468 116.656410 446.471727 116.966667 446.299376 117.276923 446.127413 117.587179 445.955834 117.897436 445.784635 118.207692 445.613813 118.517949 445.443365 118.828205 445.273288 119.138462 445.103578 119.448718 444.934232 119.758974 444.765246 120.069231 444.596617 120.379487 444.428343 120.689744 444.260418 121.000000 444.092841 121.310256 443.925607 121.620513 443.758714 121.930769 443.592158 122.241026 443.425935 122.551282 443.260043 122.861538 443.094477 123.171795 442.929236 123.482051 442.764314 123.792308 442.599710 124.102564 442.435419 124.412821 442.271438 124.723077 442.107764 125.033333 441.944394 125.343590 441.781323 125.653846 441.618550 125.964103 441.456070 126.274359 441.293880 126.584615 441.131976 126.894872 440.970357 127.205128 440.809017 127.515385 440.647954 127.825641 440.487164 128.135897 440.326644 128.446154 440.166391 128.756410 440.006401 129.066667 439.846671 129.376923 439.687198 129.687179 439.527978 129.997436 439.369007 130.307692 439.210284 130.617949 439.051803 130.928205 438.893562 131.238462 438.735558 131.548718 438.577787 131.858974 438.420246 132.169231 438.262931 132.479487 438.105839 132.789744 437.948967 133.100000 437.792311 133.410256 437.635868 133.720513 437.479635 134.030769 437.323608 134.341026 437.167784 134.651282 437.012160 134.961538 436.856732 135.271795 436.701497 135.582051 436.546451 135.892308 436.391592 136.202564 436.236915 136.512821 436.082418 136.823077 435.928097 137.133333 435.773949 137.443590 435.619971 137.753846 435.466158 138.064103 435.312508 138.374359 435.159018 138.684615 435.005683 138.994872 434.852502 139.305128 434.699469 139.615385 434.546583 139.925641 434.393839 140.235897 434.241235 140.546154 434.088766 140.856410 433.936430 141.166667 433.784223 141.476923 433.632142 141.787179 433.480184 142.097436 433.328345 142.407692 433.176621 142.717949 433.025011 143.028205 432.873509 143.338462 432.722113 143.648718 432.570819 143.958974 432.419625 144.269231 432.268526 144.579487 432.117519 144.889744 431.966602 145.200000 431.815770 145.510256 431.665021 145.820513 431.514350 146.130769 431.363755 146.441026 431.213232 146.751282 431.062779 147.061538 430.912390 147.371795 430.762064 147.682051 430.611797 147.992308 430.461585 148.302564 430.311426 148.612821 430.161315 148.923077 430.011250 149.233333 429.861226 149.543590 429.711242 149.853846 429.561293 150.164103 429.411375 150.474359 429.261487 150.784615 429.111624 151.094872 428.961783 151.405128 428.811960 151.715385 428.662153 152.025641 428.512358 152.335897 428.362571 152.646154 428.212790 152.956410 428.063010 153.266667 427.913229 153.576923 427.763443 153.887179 427.613649 154.197436 427.463843 154.507692 427.314023 154.817949 427.164184 155.128205 427.014324 155.438462 426.864438 155.748718 426.714525 156.058974 426.564579 156.369231 426.414599 156.679487 426.264581 156.989744 426.114520 157.300000 425.964415 157.610256 425.814261 157.920513 425.664056 158.230769 425.513795 158.541026 425.363476 158.851282 425.213095 159.161538 425.062649 159.471795 424.912135 159.782051 424.761548 160.092308 424.610887 160.402564 424.460146 160.712821 424.309324 161.023077 424.158417 161.333333 424.007421 161.643590 423.856333 161.953846 423.705150 162.264103 423.553868 162.574359 423.402484 162.884615 423.250995 163.194872 423.099397 163.505128 422.947686 163.815385 422.795861 164.125641 422.643917 164.435897 422.491850 164.746154 422.339658 165.056410 422.187337 165.366667 422.034884 165.676923 421.882296 165.987179 421.729568 166.297436 421.576699 166.607692 421.423684 166.917949 421.270519 167.228205 421.117203 167.538462 420.963731 167.848718 420.810100 168.158974 420.656306 168.469231 420.502347 168.779487 420.348219 169.089744 420.193918 169.400000 420.039441 169.710256 419.884781 170.020513 419.729932 170.330769 419.574886 170.641026 419.419636 170.951282 419.264175 171.261538 419.108497 171.571795 418.952594 171.882051 418.796460 172.192308 418.640086 172.502564 418.483468 172.812821 418.326596 173.123077 418.169465 173.433333 418.012068 173.743590 417.854397 174.053846 417.696445 174.364103 417.538206 174.674359 417.379672 174.984615 417.220837 175.294872 417.061694 175.605128 416.902234 175.915385 416.742453 176.225641 416.582342 176.535897 416.421894 176.846154 416.261104 177.156410 416.099962 177.466667 415.938464 177.776923 415.776601 178.087179 415.614366 178.397436 415.451754 178.707692 415.288756 179.017949 415.125365 179.328205 414.961576 179.638462 414.797380 179.948718 414.632771 180.258974 414.467741 180.569231 414.302285 180.879487 414.136394 181.189744 413.970061 181.500000 413.803281 181.810256 413.636046 182.120513 413.468348 182.430769 413.300181 182.741026 413.131538 183.051282 412.962412 183.361538 412.792796 183.671795 412.622683 183.982051 412.452065 184.292308 412.280937 184.602564 412.109290 184.912821 411.937119 185.223077 411.764415 185.533333 411.591172 185.843590 411.417384 186.153846 411.243042 186.464103 411.068141 186.774359 410.892672 187.084615 410.716630 187.394872 410.540006 187.705128 410.362795 188.015385 410.184989 188.325641 410.006581 188.635897 409.827564 188.946154 409.647931 189.256410 409.467676 189.566667 409.286790 189.876923 409.105268 190.187179 408.923102 190.497436 408.740285 190.807692 408.556810 191.117949 408.372671 191.428205 408.187860 191.738462 408.002370 192.048718 407.816194 192.358974 407.629326 192.669231 407.441758 192.979487 407.253483 193.289744 407.064495 193.600000 406.874786 193.910256 406.684350 194.220513 406.493179 194.530769 406.301266 194.841026 406.108605 195.151282 405.915188 195.461538 405.721008 195.771795 405.526059 196.082051 405.330334 196.392308 405.133825 196.702564 404.936525 197.012821 404.738428 197.323077 404.539527 197.633333 404.339814 197.943590 404.139282 198.253846 403.937925 198.564103 403.735736 198.874359 403.532708 199.184615 403.328833 199.494872 403.124104 199.805128 402.918515 200.115385 402.712059 200.425641 402.504729 200.735897 402.296517 201.046154 402.087417 201.356410 401.877422 201.666667 401.666524 201.976923 401.454718 202.287179 401.241995 202.597436 401.028348 202.907692 400.813772 203.217949 400.598258 203.528205 400.381800 203.838462 400.164391 204.148718 399.946024 204.458974 399.726692 204.769231 399.506387 205.079487 399.285104 205.389744 399.062834 205.700000 398.839571 206.010256 398.615308 206.320513 398.390038 206.630769 398.163754 206.941026 397.936449 207.251282 397.708116 207.561538 397.478748 207.871795 397.248339 208.182051 397.016880 208.492308 396.784365 208.802564 396.550787 209.112821 396.316139 209.423077 396.080415 209.733333 395.843606 210.043590 395.605707 210.353846 395.366709 210.664103 395.126607 210.974359 394.885393 211.284615 394.643060 211.594872 394.399602 211.905128 394.155010 212.215385 393.909279 212.525641 393.662401 212.835897 393.414369 213.146154 393.165177 213.456410 392.914816 213.766667 392.663281 214.076923 392.410565 214.387179 392.156659 214.697436 391.901559 215.007692 391.645255 215.317949 391.387742 215.628205 391.129012 215.938462 390.869058 216.248718 390.607874 216.558974 390.345452 216.869231 390.081786 217.179487 389.816868 217.489744 389.550692 217.800000 389.283250 218.110256 389.014536 218.420513 388.744542 218.730769 388.473261 219.041026 388.200687 219.351282 387.926813 219.661538 387.651631 219.971795 387.375135 220.282051 387.097318 220.592308 386.818172 220.902564 386.537690 221.212821 386.255866 221.523077 385.972693 221.833333 385.688164 222.143590 385.402271 222.453846 385.115008 222.764103 384.826368 223.074359 384.536343 223.384615 384.244927 223.694872 383.952113 224.005128 383.657893 224.315385 383.362262 224.625641 383.065211 224.935897 382.766734 225.246154 382.466824 225.556410 382.165473 225.866667 381.862676 226.176923 381.558424 226.487179 381.252711 226.797436 380.945530 227.107692 380.636874 227.417949 380.326736 227.728205 380.015109 228.038462 379.701985 228.348718 379.387359 228.658974 379.071223 228.969231 378.753569 229.279487 378.434392 229.589744 378.113684 229.900000 377.791438 230.210256 377.467646 230.520513 377.142303 230.830769 376.815401 231.141026 376.486933 231.451282 376.156892 231.761538 375.825271 232.071795 375.492064 232.382051 375.157262 232.692308 374.820860 233.002564 374.482849 233.312821 374.143224 233.623077 373.801978 233.933333 373.459102 234.243590 373.114591 234.553846 372.768437 234.864103 372.420633 235.174359 372.071172 235.484615 371.720048 235.794872 371.367253 236.105128 371.012780 236.415385 370.656623 236.725641 370.298774 237.035897 369.939226 237.346154 369.577973 237.656410 369.215007 237.966667 368.850321 238.276923 368.483909 238.587179 368.115764 238.897436 367.745878 239.207692 367.374244 239.517949 367.000856 239.828205 366.625706 240.138462 366.248788 240.448718 365.870094 240.758974 365.489618 241.069231 365.107352 241.379487 364.723290 241.689744 364.337424 242.000000 363.949748 242.310256 363.560255 242.620513 363.168937 242.930769 362.775788 243.241026 362.380801 243.551282 361.983968 243.861538 361.585283 244.171795 361.184738 244.482051 360.782327 244.792308 360.378043 245.102564 359.971879 245.412821 359.563828 245.723077 359.153882 246.033333 358.742035 246.343590 358.328280 246.653846 357.912609 246.964103 357.495022 247.274359 357.075541 247.584615 356.654193 247.894872 356.231005 248.205128 355.806006 248.515385 355.379223 248.825641 354.950683 249.135897 354.520415 249.446154 354.088445 249.756410 353.654802 250.066667 353.219514 250.376923 352.782607 250.687179 352.344109 250.997436 351.904049 251.307692 351.462453 251.617949 351.019350 251.928205 350.574767 252.238462 350.128731 252.548718 349.681270 252.858974 349.232413 253.169231 348.782186 253.479487 348.330617 253.789744 347.877734 254.100000 347.423564 254.410256 346.968135 254.720513 346.511476 255.030769 346.053612 255.341026 345.594572 255.651282 345.134384 255.961538 344.673076 256.271795 344.210674 256.582051 343.747207 256.892308 343.282701 257.202564 342.817186 257.512821 342.350688 257.823077 341.883235 258.133333 341.414855 258.443590 340.945575 258.753846 340.475423 259.064103 340.004427 259.374359 339.532614 259.684615 339.060012 259.994872 338.586648 260.305128 338.112550 260.615385 337.637747 260.925641 337.162264 261.235897 336.686131 261.546154 336.209374 261.856410 335.732022 262.166667 335.254102 262.476923 334.775641 262.787179 334.296667 263.097436 333.817209 263.407692 333.337293 263.717949 332.856946 264.028205 332.376198 264.338462 331.895075 264.648718 331.413606 264.958974 330.931816 265.269231 330.449736 265.579487 329.967391 265.889744 329.484809 266.200000 329.002019 266.510256 328.519048 266.820513 328.035923 267.130769 327.552673 267.441026 327.069324 267.751282 326.585904 268.061538 326.102442 268.371795 325.618964 268.682051 325.135499 268.992308 324.652073 269.302564 324.168715 269.612821 323.685452 269.923077 323.202313 270.233333 322.719323 270.543590 322.236512 270.853846 321.753906 271.164103 321.271534 271.474359 320.789423 271.784615 320.307600 272.094872 319.826094 272.405128 319.344932 272.715385 318.864141 273.025641 318.383750 273.335897 317.903785 273.646154 317.424275 273.956410 316.945247 274.266667 316.466728 274.576923 315.988747 274.887179 315.511331 275.197436 315.034508 275.507692 314.558305 275.817949 314.082750 276.128205 313.607870 276.438462 313.133694 276.748718 312.660248 277.058974 312.187561 277.369231 311.715660 277.679487 311.244573 277.989744 310.774327 278.300000 310.304950 278.610256 309.836470 278.920513 309.368914 279.230769 308.902310 279.541026 308.436685 279.851282 307.972068 280.161538 307.508485 280.471795 307.045965 280.782051 306.584535 281.092308 306.124223 281.402564 305.665056 281.712821 305.207062 282.023077 304.750269 282.333333 304.294704 282.643590 303.840394 282.953846 303.387369 283.264103 302.935654 283.574359 302.485279 283.884615 302.036269 284.194872 301.588654 284.505128 301.142461 284.815385 300.697717 285.125641 300.254450 285.435897 299.812687 285.746154 299.372457 286.056410 298.933787 286.366667 298.496704 286.676923 298.061236 286.987179 297.627412 287.297436 297.195257 287.607692 296.764801 287.917949 296.336070 288.228205 295.909093 288.538462 295.483897 288.848718 295.060509 289.158974 294.638957 289.469231 294.219270 289.779487 293.801474 290.089744 293.385597 290.400000 292.971667 290.710256 292.559711 291.020513 292.149757 291.330769 291.741833 291.641026 291.335967 291.951282 290.932185 292.261538 290.530516 292.571795 290.130987 292.882051 289.733626 293.192308 289.338461 293.502564 288.945518 293.812821 288.554827 294.123077 288.166414 294.433333 287.780307 294.743590 287.396533 295.053846 287.015121 295.364103 286.636098 295.674359 286.259492 295.984615 285.885329 296.294872 285.513639 296.605128 285.144448 296.915385 284.777784 297.225641 284.413675 297.535897 284.052148 297.846154 283.693232 298.156410 283.336953 298.466667 282.983339 298.776923 282.632419 299.087179 282.284218 299.397436 281.938767 299.707692 281.596091 300.017949 281.256218 300.328205 280.919177 300.638462 280.584994 300.948718 280.253698 301.258974 279.925315 301.569231 279.599875 301.879487 279.277404 302.189744 278.957929 302.500000 278.641480 302.810256 278.328082 303.120513 278.017764 303.430769 277.710554 303.741026 277.406479 304.051282 277.105567 304.361538 276.807845 304.671795 276.513341 304.982051 276.222082 305.292308 275.934097 305.602564 275.649413 305.912821 275.368058 306.223077 275.090058 306.533333 274.815443 306.843590 274.544239 307.153846 274.276474 307.464103 274.012176 307.774359 273.751372 308.084615 273.494090 308.394872 273.240358 308.705128 272.990203 309.015385 272.743653 309.325641 272.500736 309.635897 272.261478 309.946154 272.025909 310.256410 271.794055 310.566667 271.565944 310.876923 271.341604 311.187179 271.121062 311.497436 270.904347 311.807692 270.691485 312.117949 270.482504 312.428205 270.277432 312.738462 270.076296 313.048718 269.879125 313.358974 269.685946 313.669231 269.496786 313.979487 269.311673 314.289744 269.130635 314.600000 268.953699 314.910256 268.780893 315.220513 268.612245 315.530769 268.447782 315.841026 268.287532 316.151282 268.131523 316.461538 267.979781 316.771795 267.832336 317.082051 267.689214 317.392308 267.550443 317.702564 267.416051 318.012821 267.286065 318.323077 267.160513 318.633333 267.039422 318.943590 266.922821 319.253846 266.810737 319.564103 266.703197 319.874359 266.600230 320.184615 266.501862 320.494872 266.408122 320.805128 266.319037 321.115385 266.234634 321.425641 266.154942 321.735897 266.079988 322.046154 266.009799 322.356410 265.944404 322.666667 265.883830 322.976923 265.828104 323.287179 265.777254 323.597436 265.731308 323.907692 265.690293 324.217949 265.654238 324.528205 265.623157 324.838462 265.597018 325.148718 265.575776 325.458974 265.559386 325.769231 265.547805 326.079487 265.540986 326.389744 265.538885 326.700000 265.541457 327.010256 265.548658 327.320513 265.560443 327.630769 265.576767 327.941026 265.597585 328.251282 265.622852 328.561538 265.652524 328.871795 265.686557 329.182051 265.724904 329.492308 265.767522 329.802564 265.814365 330.112821 265.865389 330.423077 265.920549 330.733333 265.979801 331.043590 266.043099 331.353846 266.110399 331.664103 266.181656 331.974359 266.256826 332.284615 266.335863 332.594872 266.418722 332.905128 266.505360 333.215385 266.595730 333.525641 266.689789 333.835897 266.787492 334.146154 266.888794 334.456410 266.993650 334.766667 267.102015 335.076923 267.213844 335.387179 267.329094 335.697436 267.447719 336.007692 267.569673 336.317949 267.694914 336.628205 267.823395 336.938462 267.955072 337.248718 268.089900 337.558974 268.227835 337.869231 268.368831 338.179487 268.512845 338.489744 268.659830 338.800000 268.809743 339.110256 268.962538 339.420513 269.118171 339.730769 269.276598 340.041026 269.437772 340.351282 269.601651 340.661538 269.768187 340.971795 269.937338 341.282051 270.109058 341.592308 270.283303 341.902564 270.460027 342.212821 270.639186 342.523077 270.820736 342.833333 271.004630 343.143590 271.190826 343.453846 271.379277 343.764103 271.569939 344.074359 271.762768 344.384615 271.957718 344.694872 272.154745 345.005128 272.353804 345.315385 272.554850 345.625641 272.757838 345.935897 272.962725 346.246154 273.169464 346.556410 273.378011 346.866667 273.588322 347.176923 273.800352 347.487179 274.014055 347.797436 274.229387 348.107692 274.446304 348.417949 274.664760 348.728205 274.884712 349.038462 275.106113 349.348718 275.328919 349.658974 275.553086 349.969231 275.778569 350.279487 276.005322 350.589744 276.233302 350.900000 276.462463 351.210256 276.692761 351.520513 276.924151 351.830769 277.156588 352.141026 277.390027 352.451282 277.624423 352.761538 277.859733 353.071795 278.095911 353.382051 278.332911 353.692308 278.570691 354.002564 278.809204 354.312821 279.048406 354.623077 279.288252 354.933333 279.528698 355.243590 279.769699 355.553846 280.011209 355.864103 280.253184 356.174359 280.495580 356.484615 280.738352 356.794872 280.981454 357.105128 281.224842 357.415385 281.468472 357.725641 281.712298 358.035897 281.956276 358.346154 282.200361 358.656410 282.444508 358.966667 282.688672 359.276923 282.932809 359.587179 283.176875 359.897436 283.420823 360.207692 283.664609 360.517949 283.908190 360.828205 284.151519 361.138462 284.394552 361.448718 284.637245 361.758974 284.879552 362.069231 285.121429 362.379487 285.362830 362.689744 285.603712 363.000000 285.844030 363.310256 286.083738 363.620513 286.322792 363.930769 286.561148 364.241026 286.798760 364.551282 287.035583 364.861538 287.271573 365.171795 287.506685 365.482051 287.740875 365.792308 287.974097 366.102564 288.206307 366.412821 288.437460 366.723077 288.667512 367.033333 288.896417 367.343590 289.124130 367.653846 289.350607 367.964103 289.575804 368.274359 289.799675 368.584615 290.022176 368.894872 290.243261 369.205128 290.462887 369.515385 290.681008 369.825641 290.897580 370.135897 291.112557 370.446154 291.325896 370.756410 291.537550 371.066667 291.747477 371.376923 291.955630 371.687179 292.161965 371.997436 292.366437 372.307692 292.569001 372.617949 292.769614 372.928205 292.968229 373.238462 293.164802 373.548718 293.359289 373.858974 293.551644 374.169231 293.741823 374.479487 293.929781 374.789744 294.115473 375.100000 294.298855 375.410256 294.479882 375.720513 294.658509 376.030769 294.834691 376.341026 295.008383 376.651282 295.179541 376.961538 295.348120 377.271795 295.514075 377.582051 295.677361 377.892308 295.837934 378.202564 295.995749 378.512821 296.150761 378.823077 296.302926 379.133333 296.452197 379.443590 296.598532 379.753846 296.741885 380.064103 296.882210 380.374359 297.019465 380.684615 297.153603 380.994872 297.284580 381.305128 297.412351 381.615385 297.536871 381.925641 297.658096 382.235897 297.775981 382.546154 297.890481 382.856410 298.001552 383.166667 298.109148 383.476923 298.213224 383.787179 298.313737 384.097436 298.410641 384.407692 298.503892 384.717949 298.593444 385.028205 298.679253 385.338462 298.761274 385.648718 298.839463 385.958974 298.913774 386.269231 298.984164 386.579487 299.050586 386.889744 299.112997 387.200000 299.171351 387.510256 299.225604 387.820513 299.275711 388.130769 299.321628 388.441026 299.363309 388.751282 299.400709 389.061538 299.433785 389.371795 299.462491 389.682051 299.486782 389.992308 299.506614 390.302564 299.521942 390.612821 299.532721 390.923077 299.538906 391.233333 299.540453 391.543590 299.537316 391.853846 299.529452 392.164103 299.516815 392.474359 299.499361 392.784615 299.477044 393.094872 299.449820 393.405128 299.417645 393.715385 299.380473 394.025641 299.338259 394.335897 299.290960 394.646154 299.238529 394.956410 299.180923 395.266667 299.118097 395.576923 299.050006 395.887179 298.976604 396.197436 298.897848 396.507692 298.813692 396.817949 298.724093 397.128205 298.629004 397.438462 298.528381 397.748718 298.422180 398.058974 298.310356 398.369231 298.192863 398.679487 298.069658 398.989744 297.940695 399.300000 297.805929 399.610256 297.665317 399.920513 297.518813 400.230769 297.366371 400.541026 297.207949 400.851282 297.043500 401.161538 296.872980 401.471795 296.696345 401.782051 296.513549 402.092308 296.324562 402.402564 296.129411 402.712821 295.928137 403.023077 295.720781 403.333333 295.507384 403.643590 295.287988 403.953846 295.062634 404.264103 294.831362 404.574359 294.594215 404.884615 294.351232 405.194872 294.102456 405.505128 293.847927 405.815385 293.587687 406.125641 293.321776 406.435897 293.050236 406.746154 292.773109 407.056410 292.490434 407.366667 292.202254 407.676923 291.908609 407.987179 291.609541 408.297436 291.305091 408.607692 290.995300 408.917949 290.680209 409.228205 290.359859 409.538462 290.034292 409.848718 289.703548 410.158974 289.367669 410.469231 289.026696 410.779487 288.680670 411.089744 288.329632 411.400000 287.973623 411.710256 287.612685 412.020513 287.246859 412.330769 286.876186 412.641026 286.500706 412.951282 286.120462 413.261538 285.735494 413.571795 285.345843 413.882051 284.951551 414.192308 284.552659 414.502564 284.149207 414.812821 283.741238 415.123077 283.328792 415.433333 282.911910 415.743590 282.490634 416.053846 282.065004 416.364103 281.635063 416.674359 281.200850 416.984615 280.762407 417.294872 280.319776 417.605128 279.872997 417.915385 279.422112 418.225641 278.967162 418.535897 278.508187 418.846154 278.045230 419.156410 277.578331 419.466667 277.107531 419.776923 276.632872 420.087179 276.154394 420.397436 275.672140 420.707692 275.186149 421.017949 274.696464 421.328205 274.203125 421.638462 273.706173 421.948718 273.205650 422.258974 272.701597 422.569231 272.194054 422.879487 271.683064 423.189744 271.168667 423.500000 270.650904 423.810256 270.129817 424.120513 269.605447 424.430769 269.077835 424.741026 268.547021 425.051282 268.013048 425.361538 267.475956 425.671795 266.935787 425.982051 266.392581 426.292308 265.846380 426.602564 265.297225 426.912821 264.745157 427.223077 264.190217 427.533333 263.632447 427.843590 263.071887 428.153846 262.508579 428.464103 261.942564 428.774359 261.373883 429.084615 260.802577 429.394872 260.228688 429.705128 259.652256 430.015385 259.073323 430.325641 258.491929 430.635897 257.908117 430.946154 257.321926 431.256410 256.733399 431.566667 256.142576 431.876923 255.549499 432.187179 254.954209 432.497436 254.356746 432.807692 253.757153 433.117949 253.155470 433.428205 252.551738 433.738462 251.945999 434.048718 251.338293 434.358974 250.728662 434.669231 250.117147 434.979487 249.503789 435.289744 248.888630 435.600000 248.271710 435.910256 247.653071 436.220513 247.032753 436.530769 246.410798 436.841026 245.787248 437.151282 245.162142 437.461538 244.535523 437.771795 243.907432 438.082051 243.277909 438.392308 242.646996 438.702564 242.014734 439.012821 241.381164 439.323077 240.746327 439.633333 240.110265 439.943590 239.473019 440.253846 238.834629 440.564103 238.195137 440.874359 237.554585 441.184615 236.913012 441.494872 236.270461 441.805128 235.626973 442.115385 234.982588 442.425641 234.337348 442.735897 233.691294 443.046154 233.044467 443.356410 232.396908 443.666667 231.748659 443.976923 231.099761 444.287179 230.450255 444.597436 229.800181 444.907692 229.149581 445.217949 228.498497 445.528205 227.846969 445.838462 227.195039 446.148718 226.542747 446.458974 225.890135 446.769231 225.237245 447.079487 224.584116 447.389744 223.930791 447.700000 223.277310 448.010256 222.623715 448.320513 221.970047 448.630769 221.316346 448.941026 220.662655 449.251282 220.009014 449.561538 219.355465 449.871795 218.702048 450.182051 218.048804 450.492308 217.395776 450.802564 216.743004 451.112821 216.090529 451.423077 215.438392 451.733333 214.786635 452.043590 214.135298 452.353846 213.484423 452.664103 212.834051 452.974359 212.184224 453.284615 211.534981 453.594872 210.886365 453.905128 210.238417 454.215385 209.591177 454.525641 208.944687 454.835897 208.298989 455.146154 207.654122 455.456410 207.010129 455.766667 206.367050 456.076923 205.724927 456.387179 205.083801 456.697436 204.443713 457.007692 203.804704 457.317949 203.166815 457.628205 202.530088 457.938462 201.894563 458.248718 201.260282 458.558974 200.627286 458.869231 199.995616 459.179487 199.365314 459.489744 198.736419 459.800000 198.108974 460.110256 197.483020 460.420513 196.858598 460.730769 196.235749 461.041026 195.614514 461.351282 194.994934 461.661538 194.377050 461.971795 193.760905 462.282051 193.146538 462.592308 192.533991 462.902564 191.923305 463.212821 191.314521 463.523077 190.707681 463.833333 190.102825 464.143590 189.499995 464.453846 188.899231 464.764103 188.300576 465.074359 187.704070 465.384615 187.109754 465.694872 186.517670 466.005128 185.927858 466.315385 185.340361 466.625641 184.755218 466.935897 184.172471 467.246154 183.592161 467.556410 183.014330 467.866667 182.439018 468.176923 181.866268 468.487179 181.296118 468.797436 180.728612 469.107692 180.163791 469.417949 179.601694 469.728205 179.042364 470.038462 178.485842 470.348718 177.932168 470.658974 177.381385 470.969231 176.833532 471.279487 176.288652 471.589744 175.746785 471.900000 175.207973 472.210256 174.672256 472.520513 174.139677 472.830769 173.610275 473.141026 173.084093 473.451282 172.561171 473.761538 172.041550 474.071795 171.525272 474.382051 171.012378 474.692308 170.502909 475.002564 169.996906 475.312821 169.494411 475.623077 168.995463 475.933333 168.500106 476.243590 168.008379 476.553846 167.520324 476.864103 167.035982 477.174359 166.555394 477.484615 166.078601 477.794872 165.605646 478.105128 165.136567 478.415385 164.671408 478.725641 164.210209 479.035897 163.753010 479.346154 163.299854 479.656410 162.850772 479.966667 162.405754 480.276923 161.964784 480.587179 161.527842 480.897436 161.094909 481.207692 160.665969 481.517949 160.241002 481.828205 159.819989 482.138462 159.402913 482.448718 158.989756 482.758974 158.580498 483.069231 158.175122 483.379487 157.773609 483.689744 157.375941 484.000000 156.982099 484.310256 156.592066 484.620513 156.205822 484.930769 155.823349 485.241026 155.444629 485.551282 155.069645 485.861538 154.698376 486.171795 154.330805 486.482051 153.966914 486.792308 153.606684 487.102564 153.250097 487.412821 152.897135 487.723077 152.547778 488.033333 152.202010 488.343590 151.859811 488.653846 151.521162 488.964103 151.186047 489.274359 150.854446 489.584615 150.526341 489.894872 150.201714 490.205128 149.880546 490.515385 149.562818 490.825641 149.248514 491.135897 148.937613 491.446154 148.630099 491.756410 148.325952 492.066667 148.025154 492.376923 147.727687 492.687179 147.433532 492.997436 147.142672 493.307692 146.855087 493.617949 146.570759 493.928205 146.289671 494.238462 146.011803 494.548718 145.737137 494.858974 145.465655 495.169231 145.197339 495.479487 144.932170 495.789744 144.670130 496.100000 144.411200 496.410256 144.155363 496.720513 143.902599 497.030769 143.652891 497.341026 143.406219 497.651282 143.162567 497.961538 142.921914 498.271795 142.684244 498.582051 142.449537 498.892308 142.217776 499.202564 141.988942 499.512821 141.763016 499.823077 141.539980 500.133333 141.319816 500.443590 141.102506 500.753846 140.888030 501.064103 140.676372 501.374359 140.467512 501.684615 140.261432 501.994872 140.058113 502.305128 139.857538 502.615385 139.659688 502.925641 139.464545 503.235897 139.272090 503.546154 139.082304 503.856410 138.895171 504.166667 138.710670 504.476923 138.528784 504.787179 138.349495 505.097436 138.172784 505.407692 137.998632 505.717949 137.827022 506.028205 137.657936 506.338462 137.491353 506.648718 137.327257 506.958974 137.165629 507.269231 137.006451 507.579487 136.849704 507.889744 136.695370 508.200000 136.543430 508.510256 136.393866 508.820513 136.246661 509.130769 136.101794 509.441026 135.959249 509.751282 135.819007 510.061538 135.681049 510.371795 135.545357 510.682051 135.411913 510.992308 135.280698 511.302564 135.151694 511.612821 135.024882 511.923077 134.900245 512.233333 134.777764 512.543590 134.657420 512.853846 134.539195 513.164103 134.423072 513.474359 134.309030 513.784615 134.197053 514.094872 134.087121 514.405128 133.979217 514.715385 133.873322 515.025641 133.769418 515.335897 133.667486 515.646154 133.567507 515.956410 133.469465 516.266667 133.373340 516.576923 133.279113 516.887179 133.186767 517.197436 133.096283 517.507692 133.007643 517.817949 132.920829 518.128205 132.835821 518.438462 132.752603 518.748718 132.671154 519.058974 132.591458 519.369231 132.513495 519.679487 132.437248 519.989744 132.362697 520.300000 132.289825 520.610256 132.218614 520.920513 132.149044 521.230769 132.081098 521.541026 132.014757 521.851282 131.950002 522.161538 131.886816 522.471795 131.825181 522.782051 131.765077 523.092308 131.706486 523.402564 131.649390 523.712821 131.593771 524.023077 131.539610 524.333333 131.486889 524.643590 131.435590 524.953846 131.385694 525.264103 131.337183 525.574359 131.290038 525.884615 131.244242 526.194872 131.199775 526.505128 131.156620 526.815385 131.114757 527.125641 131.074170 527.435897 131.034839 527.746154 130.996745 528.056410 130.959872 528.366667 130.924200 528.676923 130.889710 528.987179 130.856385 529.297436 130.824207 529.607692 130.793156 529.917949 130.763215 530.228205 130.734365 530.538462 130.706588 530.848718 130.679865 531.158974 130.654178 531.469231 130.629509 531.779487 130.605839 532.089744 130.583150 532.400000 130.561424 532.710256 130.540642 533.020513 130.520786 533.330769 130.501838 533.641026 130.483778 533.951282 130.466590 534.261538 130.450254 534.571795 130.434752 534.882051 130.420066 535.192308 130.406178 535.502564 130.393068 535.812821 130.380719 536.123077 130.369113 536.433333 130.358230 536.743590 130.348054 537.053846 130.338564 537.364103 130.329743 537.674359 130.321573 537.984615 130.314035 538.294872 130.307111 538.605128 130.300782 538.915385 130.295031 539.225641 130.289838 539.535897 130.285186 539.846154 130.281055 540.156410 130.277429 540.466667 130.274287 540.776923 130.271613 541.087179 130.269387 541.397436 130.267592 541.707692 130.266208 542.017949 130.265218 542.328205 130.264603 542.638462 130.264345 542.948718 130.264426 543.258974 130.264826 543.569231 130.265528 543.879487 130.266514 544.189744 130.267765 544.500000 130.269262 544.810256 130.270988 545.120513 130.272924 545.430769 130.275051 545.741026 130.277352 546.051282 130.279807 546.361538 130.282399 546.671795 130.285109 546.982051 130.287919 547.292308 130.290811 547.602564 130.293765 547.912821 130.296764 548.223077 130.299790 548.533333 130.302824 548.843590 130.305847 549.153846 130.308842 549.464103 130.311789 549.774359 130.314672 550.084615 130.317470 550.394872 130.320166 550.705128 130.322742 551.015385 130.325179 551.325641 130.327459 551.635897 130.329563 551.946154 130.331474 552.256410 130.333172 552.566667 130.334639 552.876923 130.335858 553.187179 130.336809 553.497436 130.337475 553.807692 130.337836 554.117949 130.337875 554.428205 130.337573 554.738462 130.336912 555.048718 130.335874 555.358974 130.334440 555.669231 130.332592 555.979487 130.330311 556.289744 130.327579 556.600000 130.324378 556.910256 130.320689 557.220513 130.316497 557.530769 130.311794 557.841026 130.306579 558.151282 130.300845 558.461538 130.294590 558.771795 130.287811 559.082051 130.280502 559.392308 130.272660 559.702564 130.264282 560.012821 130.255363 560.323077 130.245899 560.633333 130.235888 560.943590 130.225324 561.253846 130.214204 561.564103 130.202525 561.874359 130.190282 562.184615 130.177472 562.494872 130.164090 562.805128 130.150134 563.115385 130.135598 563.425641 130.120480 563.735897 130.104775 564.046154 130.088479 564.356410 130.071590 564.666667 130.054102 564.976923 130.036012 565.287179 130.017316 565.597436 129.998011 565.907692 129.978092 566.217949 129.957556 566.528205 129.936399 566.838462 129.914617 567.148718 129.892206 567.458974 129.869162 567.769231 129.845482 568.079487 129.821161 568.389744 129.796196 568.700000 129.770583 569.010256 129.744318 569.320513 129.717398 569.630769 129.689818 569.941026 129.661574 570.251282 129.632663 570.561538 129.603082 570.871795 129.572825 571.182051 129.541889 571.492308 129.510271 571.802564 129.477967 572.112821 129.444972 572.423077 129.411283 572.733333 129.376896 573.043590 129.341808 573.353846 129.306013 573.664103 129.269510 573.974359 129.232293 574.284615 129.194358 574.594872 129.155703 574.905128 129.116323 575.215385 129.076215 575.525641 129.035373 575.835897 128.993796 576.146154 128.951478 576.456410 128.908416 576.766667 128.864607 577.076923 128.820045 577.387179 128.774729 577.697436 128.728652 578.007692 128.681813 578.317949 128.634206 578.628205 128.585829 578.938462 128.536677 579.248718 128.486746 579.558974 128.436033 579.869231 128.384534 580.179487 128.332244 580.489744 128.279161 580.800000 128.225279 581.110256 128.170597 581.420513 128.115108 581.730769 128.058811 582.041026 128.001700 582.351282 127.943772 582.661538 127.885024 582.971795 127.825451 583.282051 127.765049 583.592308 127.703815 583.902564 127.641745 584.212821 127.578835 584.523077 127.515081 584.833333 127.450479 585.143590 127.385026 585.453846 127.318718 585.764103 127.251550 586.074359 127.183519 586.384615 127.114622 586.694872 127.044853 587.005128 126.974210 587.315385 126.902689 587.625641 126.830285 587.935897 126.756996 588.246154 126.682816 588.556410 126.607743 588.866667 126.531772 589.176923 126.454899 589.487179 126.377122 589.797436 126.298435 590.107692 126.218835 590.417949 126.138319 590.728205 126.056882 591.038462 125.974520 591.348718 125.891230 591.658974 125.807008 591.969231 125.721850 592.279487 125.635752 592.589744 125.548711 592.900000 125.460722 593.210256 125.371781 593.520513 125.281886 593.830769 125.191031 594.141026 125.099214 594.451282 125.006429 594.761538 124.912675 595.071795 124.817946 595.382051 124.722238 595.692308 124.625549 596.002564 124.527874 596.312821 124.429209 596.623077 124.329550 596.933333 124.228894 597.243590 124.127237 597.553846 124.024574 597.864103 123.920903 598.174359 123.816219 598.484615 123.710518 598.794872 123.603797 599.105128 123.496052 599.415385 123.387278 599.725641 123.277473 600.035897 123.166631 600.346154 123.054750 600.656410 122.941826 600.966667 122.827854 601.276923 122.712831 601.587179 122.596753 601.897436 122.479616 602.207692 122.361417 602.517949 122.242151 602.828205 122.121814 603.138462 122.000404 603.448718 121.877915 603.758974 121.754345 604.069231 121.629688 604.379487 121.503942 604.689744 121.377103 605.000000 121.249167 605.310256 121.120129 605.620513 120.989987 605.930769 120.858736 606.241026 120.726372 606.551282 120.592892 606.861538 120.458291 607.171795 120.322566 607.482051 120.185714 607.792308 120.047730 608.102564 119.908610 608.412821 119.768350 608.723077 119.626947 609.033333 119.484397 609.343590 119.340696 609.653846 119.195841 609.964103 119.049826 610.274359 118.902649 610.584615 118.754306 610.894872 118.604793 611.205128 118.454105 611.515385 118.302240 611.825641 118.149193 612.135897 117.994960 612.446154 117.839538 612.756410 117.682923 613.066667 117.525111 613.376923 117.366098 613.687179 117.205880 613.997436 117.044453 614.307692 116.881814 614.617949 116.717959 614.928205 116.552884 615.238462 116.386585 615.548718 116.219058 615.858974 116.050299 616.169231 115.880305 616.479487 115.709072 616.789744 115.536596 617.100000 115.362872 617.410256 115.187898 617.720513 115.011669 618.030769 114.834182 618.341026 114.655432 618.651282 114.475416 618.961538 114.294130 619.271795 114.111571 619.582051 113.927733 619.892308 113.742614 620.202564 113.556210 620.512821 113.368516 620.823077 113.179530 621.133333 112.989246 621.443590 112.797662 621.753846 112.604774 622.064103 112.410577 622.374359 112.215067 622.684615 112.018242 622.994872 111.820096 623.305128 111.620627 623.615385 111.419831 623.925641 111.217703 624.235897 111.014239 624.546154 110.809437 624.856410 110.603291 625.166667 110.395799 625.476923 110.186956 625.787179 109.976759 626.097436 109.765203 626.407692 109.552285 626.717949 109.338001 627.028205 109.122348 627.338462 108.905321 627.648718 108.686916 627.958974 108.467130 628.269231 108.245958 628.579487 108.023398 628.889744 107.799445 629.200000 107.574095 629.510256 107.347344 629.820513 107.119189 630.130769 106.889626 630.441026 106.658651 630.751282 106.426260 631.061538 106.192449 631.371795 105.957215 631.682051 105.720553 631.992308 105.482460 632.302564 105.242932 632.612821 105.001965 632.923077 104.759555 633.233333 104.515699 633.543590 104.270392 633.853846 104.023631 634.164103 103.775411 634.474359 103.525730 634.784615 103.274584 635.094872 103.021979 635.405128 102.767919 635.715385 102.512412 636.025641 102.255462 636.335897 101.997075 636.646154 101.737258 636.956410 101.476016 637.266667 101.213355 637.576923 100.949281 637.887179 100.683800 638.197436 100.416917 638.507692 100.148639 638.817949 99.878972 639.128205 99.607921 639.438462 99.335492 639.748718 99.061691 640.058974 98.786523 640.369231 98.509996 640.679487 98.232114 640.989744 97.952884 641.300000 97.672311 641.610256 97.390401 641.920513 97.107160 642.230769 96.822594 642.541026 96.536709 642.851282 96.249510 643.161538 95.961004 643.471795 95.671196 643.782051 95.380093 644.092308 95.087699 644.402564 94.794022 644.712821 94.499066 645.023077 94.202838 645.333333 93.905344 645.643590 93.606589 645.953846 93.306579 646.264103 93.005320 646.574359 92.702819 646.884615 92.399080 647.194872 92.094110 647.505128 91.787914 647.815385 91.480499 648.125641 91.171871 648.435897 90.862034 648.746154 90.550995 649.056410 90.238761 649.366667 89.925336 649.676923 89.610727 649.987179 89.294939 650.297436 88.977979 650.607692 88.659851 650.917949 88.340563 651.228205 88.020120 651.538462 87.698528 651.848718 87.375792 652.158974 87.051919 652.469231 86.726914 652.779487 86.400784 653.089744 86.073533 653.400000 85.745169 653.710256 85.415696 654.020513 85.085122 654.330769 84.753450 654.641026 84.420688 654.951282 84.086842 655.261538 83.751916 655.571795 83.415918 655.882051 83.078853 656.192308 82.740726 656.502564 82.401544 656.812821 82.061312 657.123077 81.720037 657.433333 81.377724 657.743590 81.034379 658.053846 80.690008 658.364103 80.344617 658.674359 79.998211 658.984615 79.650797 659.294872 79.302380 659.605128 78.952967 659.915385 78.602563 660.225641 78.251173 660.535897 77.898805 660.846154 77.545463 661.156410 77.191154 661.466667 76.835883 661.776923 76.479656 662.087179 76.122480 662.397436 75.764359 662.707692 75.405301 663.017949 75.045310 663.328205 74.684393 663.638462 74.322555 663.948718 73.959803 664.258974 73.596142 664.569231 73.231578 664.879487 72.866117 665.189744 72.499764 665.500000 72.132527 665.810256 71.764410 666.120513 71.395419 666.430769 71.025560 666.741026 70.654840 667.051282 70.283263 667.361538 69.910837 667.671795 69.537566 667.982051 69.163456 668.292308 68.788514 668.602564 68.412745 668.912821 68.036156 669.223077 67.658751 669.533333 67.280538 669.843590 66.901521 670.153846 66.521706 670.464103 66.141100 670.774359 65.759709 671.084615 65.377537 671.394872 64.994592 671.705128 64.610879 672.015385 64.226403 672.325641 63.841171 672.635897 63.455189 672.946154 63.068461 673.256410 62.680996 673.566667 62.292797 673.876923 61.903871 674.187179 61.514224 674.497436 61.123862 674.807692 60.732790 675.117949 60.341014 675.428205 59.948541 675.738462 59.555376 676.048718 59.161525 676.358974 58.766994 676.669231 58.371789 676.979487 57.975915 677.289744 57.579379 677.600000 57.182186 677.910256 56.784342 678.220513 56.385853 678.530769 55.986725 678.841026 55.586964 679.151282 55.186576 679.461538 54.785566 679.771795 54.383940 680.082051 53.981705 680.392308 53.578865 680.702564 53.175428 681.012821 52.771399 681.323077 52.366783 681.633333 51.961586 681.943590 51.555815 682.253846 51.149476 682.564103 50.742573 682.874359 50.335114 683.184615 49.927103 683.494872 49.518547 683.805128 49.109452 684.115385 48.699823 684.425641 48.289666 684.735897 47.878988 685.046154 47.467793 685.356410 47.056089 685.666667 46.643880 685.976923 46.231173 686.287179 45.817973 686.597436 45.404287 686.907692 44.990120 687.217949 44.575478 687.528205 44.160366 687.838462 43.744792 688.148718 43.328761 688.458974 42.912278 688.769231 42.495349 689.079487 42.077980 689.389744 41.660178 689.700000 41.241948 690.010256 40.823295 690.320513 40.404227 690.630769 39.984747 690.941026 39.564864 691.251282 39.144581 691.561538 38.723906 691.871795 38.302844 692.182051 37.881400 692.492308 37.459582 692.802564 37.037394 693.112821 36.614842 693.423077 36.191933 693.733333 35.768672 694.043590 35.345065 694.353846 34.921118 694.664103 34.496837 694.974359 34.072227 695.284615 33.647295 695.594872 33.222047 695.905128 32.796487 696.215385 32.370623 696.525641 31.944460 696.835897 31.518003 697.146154 31.091259 697.456410 30.664234 697.766667 30.236933 698.076923 29.809363 698.387179 29.381529 698.697436 28.953436 699.007692 28.525092 699.317949 28.096501 699.628205 27.667670 699.938462 27.238605 700.248718 26.809310 700.558974 26.379793 700.869231 25.950059 701.179487 25.520114 701.489744 25.089964 701.800000 24.659614 702.110256 24.229071 702.420513 23.798340 702.730769 23.367428 703.041026 22.936339 703.351282 22.505081 703.661538 22.073658 703.971795 21.642077 704.282051 21.210344 704.592308 20.778464 704.902564 20.346443 705.212821 19.914288 705.523077 19.482003 705.833333 19.049596 706.143590 18.617071 706.453846 18.184435 706.764103 17.751693 707.074359 17.318851 707.384615 16.885916 707.694872 16.452893 708.005128 16.019787 708.315385 15.586606 708.625641 15.153354 708.935897 14.720037 709.246154 14.286662 709.556410 13.853234 709.866667 13.419760 710.176923 12.986244 710.487179 12.552693 710.797436 12.119112 711.107692 11.685509 711.417949 11.251887 711.728205 10.818254 712.038462 10.384615 712.038462 540.000000" /></g></g><g class="titles" /><g class="plot overlay" transform="translate(54, 20)"><g class="series serie-0 color-0"><g class="dots"><circle class="dot reactive tooltip-trigger" cx="13.96153846153846" cy="529.6153846153846" r="2.5" /><desc class="value">291,852,949(kWh)</desc><desc class="x top">13.96153846153846</desc><desc class="y top">529.6153846153846</desc><desc class="x_label">2549</desc></g><g class="dots"><circle class="dot reactive tooltip-trigger" cx="91.52564102564101" cy="462.0262370884553" r="2.5" /><desc class="value">315,103,495(kWh)</desc><desc class="x top">91.52564102564101</desc><desc class="y top">462.0262370884553</desc><desc class="x_label">2550</desc></g><g class="dots"><circle class="dot reactive tooltip-trigger" cx="169.08974358974356" cy="420.1939180936513" r="2.5" /><desc class="value">329,493,738(kWh)</desc><desc class="x top">169.08974358974356</desc><desc class="y top">420.1939180936513</desc><desc class="x_label">2551</desc></g><g class="dots"><circle class="dot reactive tooltip-trigger" cx="246.65384615384613" cy="357.9126091787916" r="2.5" /><desc class="value">350,918,397(kWh)</desc><desc class="x top">246.65384615384613</desc><desc class="y top">357.9126091787916</desc><desc class="x_label">2552</desc></g><g class="dots"><circle class="dot reactive tooltip-trigger" cx="324.21794871794873" cy="265.6542376052762" r="2.5" /><desc class="value">382,655,112(kWh)</desc><desc class="x ">324.21794871794873</desc><desc class="y ">265.6542376052762</desc><desc class="x_label">2553</desc></g><g class="dots"><circle class="dot reactive tooltip-trigger" cx="401.78205128205127" cy="296.51354903182073" r="2.5" /><desc class="value">372,039,564(kWh)</desc><desc class="x left top">401.78205128205127</desc><desc class="y left top">296.51354903182073</desc><desc class="x_label">2554</desc></g><g class="dots"><circle class="dot reactive tooltip-trigger" cx="479.3461538461538" cy="163.29985429713304" r="2.5" /><desc class="value">417,864,837(kWh)</desc><desc class="x left">479.3461538461538</desc><desc class="y left">163.29985429713304</desc><desc class="x_label">2555</desc></g><g class="dots"><circle class="dot reactive tooltip-trigger" cx="556.9102564102565" cy="130.320688838151" r="2.5" /><desc class="value">429,209,611(kWh)</desc><desc class="x left">556.9102564102565</desc><desc class="y left">130.320688838151</desc><desc class="x_label">2556</desc></g><g class="dots"><circle class="dot reactive tooltip-trigger" cx="634.474358974359" cy="103.52572991463262" r="2.5" /><desc class="value">438,427,029(kWh)</desc><desc class="x left">634.474358974359</desc><desc class="y left">103.52572991463262</desc><desc class="x_label">2557</desc></g><g class="dots"><circle class="dot reactive tooltip-trigger" cx="712.0384615384615" cy="10.384615384615358" r="2.5" /><desc class="value">470,467,406(kWh)</desc><desc class="x left">712.0384615384615</desc><desc class="y left">10.384615384615358</desc><desc class="x_label">2558</desc></g></g></g><g class="plot text-overlay" transform="translate(54, 20)"><g class="series serie-0 color-0" /></g><g class="plot tooltip-overlay" transform="translate(54, 20)"><g class="tooltip" style="opacity: 0" transform="translate(0 0)"><rect class="tooltip-box" height="0" rx="0" ry="0" width="0" /><g class="text" /></g></g></g></svg>