<?xml version='1.0' encoding='utf-8'?>
<svg xmlns:xlink="http://www.w3.org/1999/xlink" class="pygal-chart" id="chart-7300c391-c985-49dc-a856-59c2d6b452e1" viewBox="0 0 800 600" xmlns="http://www.w3.org/2000/svg"><!--Generated with pygal 2.3.0 (etree) ©Kozea 2012-2016 on 2016-12-08--><!--http://pygal.org--><!--http://github.com/Kozea/pygal--><defs><style type="text/css">#chart-7300c391-c985-49dc-a856-59c2d6b452e1{-webkit-user-select:none;-webkit-font-smoothing:antialiased;font-family:Consolas,"Liberation Mono",Menlo,Courier,monospace}#chart-7300c391-c985-49dc-a856-59c2d6b452e1 .title{font-family:Consolas,"Liberation Mono",Menlo,Courier,monospace;font-size:16px}#chart-7300c391-c985-49dc-a856-59c2d6b452e1 .legends .legend text{font-family:Consolas,"Liberation Mono",Menlo,Courier,monospace;font-size:14px}#chart-7300c391-c985-49dc-a856-59c2d6b452e1 .axis text{font-family:Consolas,"Liberation Mono",Menlo,Courier,monospace;font-size:10px}#chart-7300c391-c985-49dc-a856-59c2d6b452e1 .axis text.major{font-family:Consolas,"Liberation Mono",Menlo,Courier,monospace;font-size:10px}#chart-7300c391-c985-49dc-a856-59c2d6b452e1 .text-overlay text.value{font-family:Consolas,"Liberation Mono",Menlo,Courier,monospace;font-size:16px}#chart-7300c391-c985-49dc-a856-59c2d6b452e1 .text-overlay text.label{font-family:Consolas,"Liberation Mono",Menlo,Courier,monospace;font-size:10px}#chart-7300c391-c985-49dc-a856-59c2d6b452e1 .tooltip{font-family:Consolas,"Liberation Mono",Menlo,Courier,monospace;font-size:14px}#chart-7300c391-c985-49dc-a856-59c2d6b452e1 text.no_data{font-family:Consolas,"Liberation Mono",Menlo,Courier,monospace;font-size:64px}
#chart-7300c391-c985-49dc-a856-59c2d6b452e1{background-color:rgba(249,249,249,1)}#chart-7300c391-c985-49dc-a856-59c2d6b452e1 path,#chart-7300c391-c985-49dc-a856-59c2d6b452e1 line,#chart-7300c391-c985-49dc-a856-59c2d6b452e1 rect,#chart-7300c391-c985-49dc-a856-59c2d6b452e1 circle{-webkit-transition:150ms;-moz-transition:150ms;transition:150ms}#chart-7300c391-c985-49dc-a856-59c2d6b452e1 .graph &gt; .background{fill:rgba(249,249,249,1)}#chart-7300c391-c985-49dc-a856-59c2d6b452e1 .plot &gt; .background{fill:rgba(255,255,255,1)}#chart-7300c391-c985-49dc-a856-59c2d6b452e1 .graph{fill:rgba(0,0,0,.87)}#chart-7300c391-c985-49dc-a856-59c2d6b452e1 text.no_data{fill:rgba(0,0,0,1)}#chart-7300c391-c985-49dc-a856-59c2d6b452e1 .title{fill:rgba(0,0,0,1)}#chart-7300c391-c985-49dc-a856-59c2d6b452e1 .legends .legend text{fill:rgba(0,0,0,.87)}#chart-7300c391-c985-49dc-a856-59c2d6b452e1 .legends .legend:hover text{fill:rgba(0,0,0,1)}#chart-7300c391-c985-49dc-a856-59c2d6b452e1 .axis .line{stroke:rgba(0,0,0,1)}#chart-7300c391-c985-49dc-a856-59c2d6b452e1 .axis .guide.line{stroke:rgba(0,0,0,.54)}#chart-7300c391-c985-49dc-a856-59c2d6b452e1 .axis .major.line{stroke:rgba(0,0,0,.87)}#chart-7300c391-c985-49dc-a856-59c2d6b452e1 .axis text.major{fill:rgba(0,0,0,1)}#chart-7300c391-c985-49dc-a856-59c2d6b452e1 .axis.y .guides:hover .guide.line,#chart-7300c391-c985-49dc-a856-59c2d6b452e1 .line-graph .axis.x .guides:hover .guide.line,#chart-7300c391-c985-49dc-a856-59c2d6b452e1 .stackedline-graph .axis.x .guides:hover .guide.line,#chart-7300c391-c985-49dc-a856-59c2d6b452e1 .xy-graph .axis.x .guides:hover .guide.line{stroke:rgba(0,0,0,1)}#chart-7300c391-c985-49dc-a856-59c2d6b452e1 .axis .guides:hover text{fill:rgba(0,0,0,1)}#chart-7300c391-c985-49dc-a856-59c2d6b452e1 .reactive{fill-opacity:.7;stroke-opacity:.8}#chart-7300c391-c985-49dc-a856-59c2d6b452e1 .ci{stroke:rgba(0,0,0,.87)}#chart-7300c391-c985-49dc-a856-59c2d6b452e1 .reactive.active,#chart-7300c391-c985-49dc-a856-59c2d6b452e1 .active .reactive{fill-opacity:.8;stroke-opacity:.9;stroke-width:4}#chart-7300c391-c985-49dc-a856-59c2d6b452e1 .ci .reactive.active{stroke-width:1.5}#chart-7300c391-c985-49dc-a856-59c2d6b452e1 .series text{fill:rgba(0,0,0,1)}#chart-7300c391-c985-49dc-a856-59c2d6b452e1 .tooltip rect{fill:rgba(255,255,255,1);stroke:rgba(0,0,0,1);-webkit-transition:opacity 150ms;-moz-transition:opacity 150ms;transition:opacity 150ms}#chart-7300c391-c985-49dc-a856-59c2d6b452e1 .tooltip .label{fill:rgba(0,0,0,.87)}#chart-7300c391-c985-49dc-a856-59c2d6b452e1 .tooltip .label{fill:rgba(0,0,0,.87)}#chart-7300c391-c985-49dc-a856-59c2d6b452e1 .tooltip .legend{font-size:.8em;fill:rgba(0,0,0,.54)}#chart-7300c391-c985-49dc-a856-59c2d6b452e1 .tooltip .x_label{font-size:.6em;fill:rgba(0,0,0,1)}#chart-7300c391-c985-49dc-a856-59c2d6b452e1 .tooltip .xlink{font-size:.5em;text-decoration:underline}#chart-7300c391-c985-49dc-a856-59c2d6b452e1 .tooltip .value{font-size:1.5em}#chart-7300c391-c985-49dc-a856-59c2d6b452e1 .bound{font-size:.5em}#chart-7300c391-c985-49dc-a856-59c2d6b452e1 .max-value{font-size:.75em;fill:rgba(0,0,0,.54)}#chart-7300c391-c985-49dc-a856-59c2d6b452e1 .map-element{fill:rgba(255,255,255,1);stroke:rgba(0,0,0,.54) !important}#chart-7300c391-c985-49dc-a856-59c2d6b452e1 .map-element .reactive{fill-opacity:inherit;stroke-opacity:inherit}#chart-7300c391-c985-49dc-a856-59c2d6b452e1 .color-0,#chart-7300c391-c985-49dc-a856-59c2d6b452e1 .color-0 a:visited{stroke:#e86fa0;fill:#e86fa0}#chart-7300c391-c985-49dc-a856-59c2d6b452e1 .text-overlay .color-0 text{fill:black}
#chart-7300c391-c985-49dc-a856-59c2d6b452e1 text.no_data{text-anchor:middle}#chart-7300c391-c985-49dc-a856-59c2d6b452e1 .guide.line{fill:none}#chart-7300c391-c985-49dc-a856-59c2d6b452e1 .centered{text-anchor:middle}#chart-7300c391-c985-49dc-a856-59c2d6b452e1 .title{text-anchor:middle}#chart-7300c391-c985-49dc-a856-59c2d6b452e1 .legends .legend text{fill-opacity:1}#chart-7300c391-c985-49dc-a856-59c2d6b452e1 .axis.x text{text-anchor:middle}#chart-7300c391-c985-49dc-a856-59c2d6b452e1 .axis.x:not(.web) text[transform]{text-anchor:start}#chart-7300c391-c985-49dc-a856-59c2d6b452e1 .axis.x:not(.web) text[transform].backwards{text-anchor:end}#chart-7300c391-c985-49dc-a856-59c2d6b452e1 .axis.y text{text-anchor:end}#chart-7300c391-c985-49dc-a856-59c2d6b452e1 .axis.y text[transform].backwards{text-anchor:start}#chart-7300c391-c985-49dc-a856-59c2d6b452e1 .axis.y2 text{text-anchor:start}#chart-7300c391-c985-49dc-a856-59c2d6b452e1 .axis.y2 text[transform].backwards{text-anchor:end}#chart-7300c391-c985-49dc-a856-59c2d6b452e1 .axis .guide.line{stroke-dasharray:4,4}#chart-7300c391-c985-49dc-a856-59c2d6b452e1 .axis .major.guide.line{stroke-dasharray:6,6}#chart-7300c391-c985-49dc-a856-59c2d6b452e1 .horizontal .axis.y .guide.line,#chart-7300c391-c985-49dc-a856-59c2d6b452e1 .horizontal .axis.y2 .guide.line,#chart-7300c391-c985-49dc-a856-59c2d6b452e1 .vertical .axis.x .guide.line{opacity:0}#chart-7300c391-c985-49dc-a856-59c2d6b452e1 .horizontal .axis.always_show .guide.line,#chart-7300c391-c985-49dc-a856-59c2d6b452e1 .vertical .axis.always_show .guide.line{opacity:1 !important}#chart-7300c391-c985-49dc-a856-59c2d6b452e1 .axis.y .guides:hover .guide.line,#chart-7300c391-c985-49dc-a856-59c2d6b452e1 .axis.y2 .guides:hover .guide.line,#chart-7300c391-c985-49dc-a856-59c2d6b452e1 .axis.x .guides:hover .guide.line{opacity:1}#chart-7300c391-c985-49dc-a856-59c2d6b452e1 .axis .guides:hover text{opacity:1}#chart-7300c391-c985-49dc-a856-59c2d6b452e1 .nofill{fill:none}#chart-7300c391-c985-49dc-a856-59c2d6b452e1 .subtle-fill{fill-opacity:.2}#chart-7300c391-c985-49dc-a856-59c2d6b452e1 .dot{stroke-width:1px;fill-opacity:1}#chart-7300c391-c985-49dc-a856-59c2d6b452e1 .dot.active{stroke-width:5px}#chart-7300c391-c985-49dc-a856-59c2d6b452e1 .dot.negative{fill:transparent}#chart-7300c391-c985-49dc-a856-59c2d6b452e1 text,#chart-7300c391-c985-49dc-a856-59c2d6b452e1 tspan{stroke:none !important}#chart-7300c391-c985-49dc-a856-59c2d6b452e1 .series text.active{opacity:1}#chart-7300c391-c985-49dc-a856-59c2d6b452e1 .tooltip rect{fill-opacity:.95;stroke-width:.5}#chart-7300c391-c985-49dc-a856-59c2d6b452e1 .tooltip text{fill-opacity:1}#chart-7300c391-c985-49dc-a856-59c2d6b452e1 .showable{visibility:hidden}#chart-7300c391-c985-49dc-a856-59c2d6b452e1 .showable.shown{visibility:visible}#chart-7300c391-c985-49dc-a856-59c2d6b452e1 .gauge-background{fill:rgba(229,229,229,1);stroke:none}#chart-7300c391-c985-49dc-a856-59c2d6b452e1 .bg-lines{stroke:rgba(249,249,249,1);stroke-width:2px}</style><script type="text/javascript">window.pygal = window.pygal || {};window.pygal.config = window.pygal.config || {};window.pygal.config['7300c391-c985-49dc-a856-59c2d6b452e1'] = {"no_data_text": "No data", "no_prefix": false, "xrange": null, "print_values_position": "center", "truncate_label": null, "x_labels": ["2549", "2550", "2551", "2552", "2553", "2554", "2555", "2556", "2557", "2558"], "title": null, "force_uri_protocol": "https", "defs": [], "formatter": null, "classes": ["pygal-chart"], "y_labels": null, "rounded_bars": null, "explicit_size": false, "x_labels_major_every": null, "legend_at_bottom_columns": null, "stroke_style": null, "half_pie": false, "spacing": 10, "tooltip_fancy_mode": true, "inverse_y_axis": false, "width": 800, "inner_radius": 0, "interpolation_parameters": {}, "tooltip_border_radius": 0, "style": {"no_data_font_family": "Consolas, \"Liberation Mono\", Menlo, Courier, monospace", "tooltip_font_size": 14, "tooltip_font_family": "Consolas, \"Liberation Mono\", Menlo, Courier, monospace", "stroke_opacity_hover": ".9", "legend_font_family": "Consolas, \"Liberation Mono\", Menlo, Courier, monospace", "font_family": "Consolas, \"Liberation Mono\", Menlo, Courier, monospace", "title_font_family": "Consolas, \"Liberation Mono\", Menlo, Courier, monospace", "background": "rgba(249, 249, 249, 1)", "stroke_opacity": ".8", "foreground": "rgba(0, 0, 0, .87)", "value_background": "rgba(229, 229, 229, 1)", "guide_stroke_dasharray": "4,4", "foreground_subtle": "rgba(0, 0, 0, .54)", "opacity_hover": ".8", "value_font_family": "Consolas, \"Liberation Mono\", Menlo, Courier, monospace", "value_label_font_size": 10, "plot_background": "rgba(255, 255, 255, 1)", "ci_colors": [], "label_font_size": 10, "major_label_font_size": 10, "title_font_size": 16, "no_data_font_size": 64, "value_font_size": 16, "value_colors": [], "label_font_family": "Consolas, \"Liberation Mono\", Menlo, Courier, monospace", "major_guide_stroke_dasharray": "6,6", "transition": "150ms", "foreground_strong": "rgba(0, 0, 0, 1)", "colors": ["#e86fa0", "#e88f6f", "#e8df6f", "#a0e86f", "#6fe88f", "#6fe8df", "#6fa0e8", "#8f6fe8", "#df6fe8", "#e86fa0"], "opacity": ".7", "legend_font_size": 14, "value_label_font_family": "Consolas, \"Liberation Mono\", Menlo, Courier, monospace", "major_label_font_family": "Consolas, \"Liberation Mono\", Menlo, Courier, monospace"}, "x_labels_major_count": null, "interpolation_precision": 250, "missing_value_fill_truncation": "x", "stack_from_top": false, "truncate_legend": null, "show_minor_x_labels": true, "print_zeroes": true, "css": ["file://style.css", "file://graph.css"], "y_label_rotation": 0, "legend_at_bottom": false, "print_values": false, "margin_top": null, "max_scale": 16, "allow_interruptions": false, "show_x_labels": true, "strict": false, "show_x_guides": false, "stroke": true, "margin_left": null, "dynamic_print_values": false, "print_labels": false, "show_y_labels": true, "x_labels_major": null, "range": null, "x_label_rotation": 0, "margin": 20, "zero": 0, "include_x_axis": false, "height": 600, "show_minor_y_labels": true, "show_dots": true, "interpolate": "cubic", "show_y_guides": true, "y_labels_major": null, "box_mode": "extremes", "margin_bottom": null, "order_min": null, "legend_box_size": 12, "fill": true, "show_only_major_dots": false, "js": ["//kozea.github.io/pygal.js/2.0.x/pygal-tooltips.min.js"], "x_title": null, "y_labels_major_every": null, "y_labels_major_count": null, "disable_xml_declaration": false, "y_title": null, "logarithmic": false, "pretty_print": false, "min_scale": 4, "dots_size": 2.5, "margin_right": null, "legends": [null], "secondary_range": null, "show_legend": false}</script><script type="text/javascript" xlink:href="https://kozea.github.io/pygal.js/2.0.x/pygal-tooltips.min.js" /></defs><title>Pygal</title><g class="graph stackedline-graph vertical"><rect class="background" height="600" width="800" x="0" y="0" /><g class="plot" transform="translate(54, 20)"><rect class="background" height="540" width="726.0" x="0" y="0" /><g class="axis y"><path class="line" d="M0.000000 540.000000 h726.000000" /><g class="guides"><path class="guide line" d="M0.000000 495.928795 h726.000000" /><text class="" x="-5" y="499.42879464407747">280M</text><title>280M</title></g><g class="guides"><path class="major guide line" d="M0.000000 448.498141 h726.000000" /><text class="major" x="-5" y="451.99814122905616">300M</text><title>300M</title></g><g class="guides"><path class="guide line" d="M0.000000 401.067488 h726.000000" /><text class="" x="-5" y="404.56748781403485">320M</text><title>320M</title></g><g class="guides"><path class="guide line" d="M0.000000 353.636834 h726.000000" /><text class="" x="-5" y="357.1368343990135">340M</text><title>340M</title></g><g class="guides"><path class="guide line" d="M0.000000 306.206181 h726.000000" /><text class="" x="-5" y="309.70618098399217">360M</text><title>360M</title></g><g class="guides"><path class="guide line" d="M0.000000 258.775528 h726.000000" /><text class="" x="-5" y="262.27552756897086">380M</text><title>380M</title></g><g class="guides"><path class="major guide line" d="M0.000000 211.344874 h726.000000" /><text class="major" x="-5" y="214.8448741539495">400M</text><title>400M</title></g><g class="guides"><path class="guide line" d="M0.000000 163.914221 h726.000000" /><text class="" x="-5" y="167.41422073892812">420M</text><title>420M</title></g><g class="guides"><path class="guide line" d="M0.000000 116.483567 h726.000000" /><text class="" x="-5" y="119.98356732390681">440M</text><title>440M</title></g><g class="guides"><path class="guide line" d="M0.000000 69.052914 h726.000000" /><text class="" x="-5" y="72.5529139088855">460M</text><title>460M</title></g><g class="guides"><path class="guide line" d="M0.000000 21.622260 h726.000000" /><text class="" x="-5" y="25.122260493864133">480M</text><title>480M</title></g></g><g class="axis x"><g class="guides"><path class="line" d="M13.961538 0.000000 v540.000000" /><text class="" x="13.96153846153846" y="555.0">2549</text></g><g class="guides"><path class="guide line" d="M91.525641 0.000000 v540.000000" /><text class="" x="91.52564102564101" y="555.0">2550</text></g><g class="guides"><path class="guide line" d="M169.089744 0.000000 v540.000000" /><text class="" x="169.08974358974356" y="555.0">2551</text></g><g class="guides"><path class="guide line" d="M246.653846 0.000000 v540.000000" /><text class="" x="246.65384615384613" y="555.0">2552</text></g><g class="guides"><path class="guide line" d="M324.217949 0.000000 v540.000000" /><text class="" x="324.21794871794873" y="555.0">2553</text></g><g class="guides"><path class="guide line" d="M401.782051 0.000000 v540.000000" /><text class="" x="401.78205128205127" y="555.0">2554</text></g><g class="guides"><path class="guide line" d="M479.346154 0.000000 v540.000000" /><text class="" x="479.3461538461538" y="555.0">2555</text></g><g class="guides"><path class="guide line" d="M556.910256 0.000000 v540.000000" /><text class="" x="556.9102564102565" y="555.0">2556</text></g><g class="guides"><path class="guide line" d="M634.474359 0.000000 v540.000000" /><text class="" x="634.474358974359" y="555.0">2557</text></g><g class="guides"><path class="guide line" d="M712.038462 0.000000 v540.000000" /><text class="" x="712.0384615384615" y="555.0">2558</text></g></g><g class="series serie-0 color-0"><path class="line reactive" d="M13.961538 540.000000 L13.961538 529.615385 14.271795 529.171451 14.582051 528.727528 14.892308 528.283626 15.202564 527.839756 15.512821 527.395928 15.823077 526.952154 16.133333 526.508442 16.443590 526.064805 16.753846 525.621253 17.064103 525.177796 17.374359 524.734446 17.684615 524.291211 17.994872 523.848104 18.305128 523.405135 18.615385 522.962314 18.925641 522.519652 19.235897 522.077159 19.546154 521.634847 19.856410 521.192725 20.166667 520.750805 20.476923 520.309097 20.787179 519.867611 21.097436 519.426358 21.407692 518.985349 21.717949 518.544594 22.028205 518.104104 22.338462 517.663890 22.648718 517.223962 22.958974 516.784331 23.269231 516.345006 23.579487 515.906000 23.889744 515.467322 24.200000 515.028984 24.510256 514.590995 24.820513 514.153366 25.130769 513.716108 25.441026 513.279232 25.751282 512.842747 26.061538 512.406666 26.371795 511.970997 26.682051 511.535753 26.992308 511.100943 27.302564 510.666578 27.612821 510.232669 27.923077 509.799226 28.233333 509.366259 28.543590 508.933780 28.853846 508.501800 29.164103 508.070328 29.474359 507.639375 29.784615 507.208952 30.094872 506.779069 30.405128 506.349737 30.715385 505.920967 31.025641 505.492770 31.335897 505.065155 31.646154 504.638133 31.956410 504.211715 32.266667 503.785912 32.576923 503.360735 32.887179 502.936193 33.197436 502.512297 33.507692 502.089058 33.817949 501.666487 34.128205 501.244594 34.438462 500.823390 34.748718 500.402886 35.058974 499.983091 35.369231 499.564017 35.679487 499.145674 35.989744 498.728072 36.300000 498.311224 36.610256 497.895138 36.920513 497.479825 37.230769 497.065297 37.541026 496.651563 37.851282 496.238635 38.161538 495.826523 38.471795 495.415237 38.782051 495.004789 39.092308 494.595188 39.402564 494.186445 39.712821 493.778571 40.023077 493.371577 40.333333 492.965473 40.643590 492.560270 40.953846 492.155978 41.264103 491.752608 41.574359 491.350170 41.884615 490.948676 42.194872 490.548135 42.505128 490.148558 42.815385 489.749957 43.125641 489.352340 43.435897 488.955720 43.746154 488.560107 44.056410 488.165511 44.366667 487.771942 44.676923 487.379412 44.987179 486.987932 45.297436 486.597511 45.607692 486.208160 45.917949 485.819890 46.228205 485.432711 46.538462 485.046634 46.848718 484.661670 47.158974 484.277830 47.469231 483.895123 47.779487 483.513560 48.089744 483.133153 48.400000 482.753911 48.710256 482.375846 49.020513 481.998967 49.330769 481.623285 49.641026 481.248812 49.951282 480.875557 50.261538 480.503532 50.571795 480.132746 50.882051 479.763211 51.192308 479.394936 51.502564 479.027933 51.812821 478.662213 52.123077 478.297785 52.433333 477.934660 52.743590 477.572850 53.053846 477.212364 53.364103 476.853213 53.674359 476.495408 53.984615 476.138960 54.294872 475.783878 54.605128 475.430174 54.915385 475.077858 55.225641 474.726940 55.535897 474.377432 55.846154 474.029344 56.156410 473.682687 56.466667 473.337471 56.776923 472.993706 57.087179 472.651404 57.397436 472.310574 57.707692 471.971229 58.017949 471.633377 58.328205 471.297030 58.638462 470.962198 58.948718 470.628892 59.258974 470.297123 59.569231 469.966901 59.879487 469.638236 60.189744 469.311140 60.500000 468.985622 60.810256 468.661695 61.120513 468.339367 61.430769 468.018650 61.741026 467.699554 62.051282 467.382090 62.361538 467.066268 62.671795 466.752100 62.982051 466.439595 63.292308 466.128764 63.602564 465.819619 63.912821 465.512168 64.223077 465.206424 64.533333 464.902396 64.843590 464.600096 65.153846 464.299534 65.464103 464.000719 65.774359 463.703664 66.084615 463.408379 66.394872 463.114874 66.705128 462.823159 67.015385 462.533246 67.325641 462.245145 67.635897 461.958867 67.946154 461.674422 68.256410 461.391820 68.566667 461.111073 68.876923 460.832191 69.187179 460.555185 69.497436 460.280064 69.807692 460.006841 70.117949 459.735525 70.428205 459.466127 70.738462 459.198657 71.048718 458.933127 71.358974 458.669546 71.669231 458.407926 71.979487 458.148277 72.289744 457.890609 72.600000 457.634933 72.910256 457.381260 73.220513 457.129601 73.530769 456.879965 73.841026 456.632364 74.151282 456.386808 74.461538 456.143308 74.771795 455.901874 75.082051 455.662517 75.392308 455.425248 75.702564 455.190077 76.012821 454.957014 76.323077 454.726071 76.633333 454.497257 76.943590 454.270584 77.253846 454.046063 77.564103 453.823702 77.874359 453.603515 78.184615 453.385510 78.494872 453.169698 78.805128 452.956091 79.115385 452.744698 79.425641 452.535531 79.735897 452.328599 80.046154 452.123914 80.356410 451.921486 80.666667 451.721326 80.976923 451.523444 81.287179 451.327850 81.597436 451.134557 81.907692 450.943573 82.217949 450.754910 82.528205 450.568578 82.838462 450.384588 83.148718 450.202950 83.458974 450.023676 83.769231 449.846775 84.079487 449.672258 84.389744 449.500136 84.700000 449.330419 85.010256 449.163119 85.320513 448.998245 85.630769 448.835808 85.941026 448.675819 86.251282 448.518289 86.561538 448.363227 86.871795 448.210645 87.182051 448.060554 87.492308 447.912963 87.802564 447.767883 88.112821 447.625326 88.423077 447.485301 88.733333 447.347819 89.043590 447.212891 89.353846 447.080527 89.664103 446.950738 89.974359 446.823535 90.284615 446.698928 90.594872 446.576928 90.905128 446.457545 91.215385 446.340790 91.525641 446.226673 91.835897 446.115200 92.146154 446.006353 92.456410 445.900109 92.766667 445.796444 93.076923 445.695335 93.387179 445.596759 93.697436 445.500693 94.007692 445.407114 94.317949 445.315998 94.628205 445.227322 94.938462 445.141063 95.248718 445.057198 95.558974 444.975703 95.869231 444.896555 96.179487 444.819732 96.489744 444.745209 96.800000 444.672963 97.110256 444.602972 97.420513 444.535212 97.730769 444.469660 98.041026 444.406293 98.351282 444.345087 98.661538 444.286019 98.971795 444.229066 99.282051 444.174205 99.592308 444.121413 99.902564 444.070666 100.212821 444.021941 100.523077 443.975214 100.833333 443.930464 101.143590 443.887666 101.453846 443.846797 101.764103 443.807834 102.074359 443.770753 102.384615 443.735532 102.694872 443.702148 103.005128 443.670577 103.315385 443.640795 103.625641 443.612780 103.935897 443.586508 104.246154 443.561957 104.556410 443.539102 104.866667 443.517922 105.176923 443.498391 105.487179 443.480488 105.797436 443.464190 106.107692 443.449471 106.417949 443.436311 106.728205 443.424685 107.038462 443.414570 107.348718 443.405943 107.658974 443.398780 107.969231 443.393060 108.279487 443.388757 108.589744 443.385849 108.900000 443.384314 109.210256 443.384126 109.520513 443.385265 109.830769 443.387705 110.141026 443.391424 110.451282 443.396399 110.761538 443.402606 111.071795 443.410023 111.382051 443.418626 111.692308 443.428391 112.002564 443.439296 112.312821 443.451317 112.623077 443.464432 112.933333 443.478616 113.243590 443.493847 113.553846 443.510102 113.864103 443.527356 114.174359 443.545588 114.484615 443.564773 114.794872 443.584889 115.105128 443.605913 115.415385 443.627820 115.725641 443.650589 116.035897 443.674194 116.346154 443.698615 116.656410 443.723826 116.966667 443.749806 117.276923 443.776530 117.587179 443.803976 117.897436 443.832120 118.207692 443.860940 118.517949 443.890411 118.828205 443.920511 119.138462 443.951216 119.448718 443.982503 119.758974 444.014349 120.069231 444.046731 120.379487 444.079626 120.689744 444.113010 121.000000 444.146860 121.310256 444.181153 121.620513 444.215865 121.930769 444.250974 122.241026 444.286456 122.551282 444.322288 122.861538 444.358446 123.171795 444.394908 123.482051 444.431651 123.792308 444.468650 124.102564 444.505884 124.412821 444.543327 124.723077 444.580959 125.033333 444.618754 125.343590 444.656691 125.653846 444.694745 125.964103 444.732893 126.274359 444.771113 126.584615 444.809381 126.894872 444.847673 127.205128 444.885968 127.515385 444.924240 127.825641 444.962468 128.135897 445.000628 128.446154 445.038696 128.756410 445.076650 129.066667 445.114466 129.376923 445.152121 129.687179 445.189592 129.997436 445.226855 130.307692 445.263888 130.617949 445.300667 130.928205 445.337168 131.238462 445.373370 131.548718 445.409248 131.858974 445.444779 132.169231 445.479940 132.479487 445.514708 132.789744 445.549059 133.100000 445.582971 133.410256 445.616420 133.720513 445.649383 134.030769 445.681836 134.341026 445.713757 134.651282 445.745122 134.961538 445.775908 135.271795 445.806092 135.582051 445.835650 135.892308 445.864560 136.202564 445.892797 136.512821 445.920340 136.823077 445.947164 137.133333 445.973247 137.443590 445.998565 137.753846 446.023095 138.064103 446.046813 138.374359 446.069697 138.684615 446.091723 138.994872 446.112869 139.305128 446.133110 139.615385 446.152424 139.925641 446.170787 140.235897 446.188177 140.546154 446.204569 140.856410 446.219941 141.166667 446.234270 141.476923 446.247532 141.787179 446.259704 142.097436 446.270762 142.407692 446.280685 142.717949 446.289448 143.028205 446.297028 143.338462 446.303401 143.648718 446.308546 143.958974 446.312438 144.269231 446.315054 144.579487 446.316372 144.889744 446.316367 145.200000 446.315017 145.510256 446.312298 145.820513 446.308187 146.130769 446.302661 146.441026 446.295697 146.751282 446.287271 147.061538 446.277361 147.371795 446.265942 147.682051 446.252993 147.992308 446.238489 148.302564 446.222407 148.612821 446.204724 148.923077 446.185418 149.233333 446.164464 149.543590 446.141839 149.853846 446.117521 150.164103 446.091485 150.474359 446.063710 150.784615 446.034171 151.094872 446.002845 151.405128 445.969709 151.715385 445.934741 152.025641 445.897916 152.335897 445.859211 152.646154 445.818604 152.956410 445.776070 153.266667 445.731588 153.576923 445.685132 153.887179 445.636682 154.197436 445.586212 154.507692 445.533700 154.817949 445.479123 155.128205 445.422457 155.438462 445.363679 155.748718 445.302767 156.058974 445.239696 156.369231 445.174444 156.679487 445.106986 156.989744 445.037301 157.300000 444.965365 157.610256 444.891155 157.920513 444.814647 158.230769 444.735818 158.541026 444.654645 158.851282 444.571104 159.161538 444.485174 159.471795 444.396829 159.782051 444.306048 160.092308 444.212806 160.402564 444.117081 160.712821 444.018849 161.023077 443.918088 161.333333 443.814773 161.643590 443.708882 161.953846 443.600392 162.264103 443.489279 162.574359 443.375520 162.884615 443.259092 163.194872 443.139971 163.505128 443.018135 163.815385 442.893560 164.125641 442.766222 164.435897 442.636100 164.746154 442.503169 165.056410 442.367406 165.366667 442.228788 165.676923 442.087292 165.987179 441.942895 166.297436 441.795573 166.607692 441.645303 166.917949 441.492062 167.228205 441.335826 167.538462 441.176573 167.848718 441.014280 168.158974 440.848922 168.469231 440.680477 168.779487 440.508922 169.089744 440.334232 169.400000 440.156394 169.710256 439.975420 170.020513 439.791330 170.330769 439.604147 170.641026 439.413891 170.951282 439.220584 171.261538 439.024246 171.571795 438.824898 171.882051 438.622561 172.192308 438.417257 172.502564 438.209006 172.812821 437.997830 173.123077 437.783749 173.433333 437.566785 173.743590 437.346958 174.053846 437.124290 174.364103 436.898801 174.674359 436.670514 174.984615 436.439447 175.294872 436.205624 175.605128 435.969064 175.915385 435.729789 176.225641 435.487820 176.535897 435.243178 176.846154 434.995883 177.156410 434.745958 177.466667 434.493422 177.776923 434.238297 178.087179 433.980605 178.397436 433.720365 178.707692 433.457599 179.017949 433.192329 179.328205 432.924574 179.638462 432.654357 179.948718 432.381698 180.258974 432.106618 180.569231 431.829139 180.879487 431.549281 181.189744 431.267065 181.500000 430.982512 181.810256 430.695644 182.120513 430.406481 182.430769 430.115044 182.741026 429.821356 183.051282 429.525435 183.361538 429.227304 183.671795 428.926984 183.982051 428.624495 184.292308 428.319859 184.602564 428.013097 184.912821 427.704229 185.223077 427.393277 185.533333 427.080262 185.843590 426.765204 186.153846 426.448126 186.464103 426.129047 186.774359 425.807989 187.084615 425.484973 187.394872 425.160020 187.705128 424.833151 188.015385 424.504387 188.325641 424.173749 188.635897 423.841258 188.946154 423.506935 189.256410 423.170801 189.566667 422.832878 189.876923 422.493186 190.187179 422.151745 190.497436 421.808579 190.807692 421.463706 191.117949 421.117149 191.428205 420.768928 191.738462 420.419065 192.048718 420.067580 192.358974 419.714494 192.669231 419.359829 192.979487 419.003606 193.289744 418.645845 193.600000 418.286567 193.910256 417.925794 194.220513 417.563547 194.530769 417.199847 194.841026 416.834714 195.151282 416.468170 195.461538 416.100236 195.771795 415.730932 196.082051 415.360281 196.392308 414.988302 196.702564 414.615017 197.012821 414.240447 197.323077 413.864613 197.633333 413.487536 197.943590 413.109238 198.253846 412.729738 198.564103 412.349058 198.874359 411.967219 199.184615 411.584243 199.494872 411.200150 199.805128 410.814961 200.115385 410.428697 200.425641 410.041379 200.735897 409.653029 201.046154 409.263667 201.356410 408.873315 201.666667 408.481992 201.976923 408.089722 202.287179 407.696524 202.597436 407.302419 202.907692 406.907429 203.217949 406.511574 203.528205 406.114876 203.838462 405.717356 204.148718 405.319034 204.458974 404.919932 204.769231 404.520071 205.079487 404.119472 205.389744 403.718155 205.700000 403.316142 206.010256 402.913454 206.320513 402.510112 206.630769 402.106137 206.941026 401.701549 207.251282 401.296371 207.561538 400.890623 207.871795 400.484325 208.182051 400.077500 208.492308 399.670168 208.802564 399.262350 209.112821 398.854067 209.423077 398.445341 209.733333 398.036192 210.043590 397.626641 210.353846 397.216709 210.664103 396.806417 210.974359 396.395787 211.284615 395.984840 211.594872 395.573595 211.905128 395.162076 212.215385 394.750301 212.525641 394.338294 212.835897 393.926073 213.146154 393.513662 213.456410 393.101080 213.766667 392.688348 214.076923 392.275489 214.387179 391.862522 214.697436 391.449468 215.007692 391.036350 215.317949 390.623187 215.628205 390.210001 215.938462 389.796813 216.248718 389.383644 216.558974 388.970515 216.869231 388.557447 217.179487 388.144461 217.489744 387.731578 217.800000 387.318819 218.110256 386.906205 218.420513 386.493757 218.730769 386.081496 219.041026 385.669444 219.351282 385.257620 219.661538 384.846047 219.971795 384.434745 220.282051 384.023736 220.592308 383.613040 220.902564 383.202678 221.212821 382.792672 221.523077 382.383042 221.833333 381.973809 222.143590 381.564996 222.453846 381.156621 222.764103 380.748707 223.074359 380.341275 223.384615 379.934346 223.694872 379.527940 224.005128 379.122079 224.315385 378.716783 224.625641 378.312074 224.935897 377.907973 225.246154 377.504501 225.556410 377.101679 225.866667 376.699528 226.176923 376.298068 226.487179 375.897322 226.797436 375.497309 227.107692 375.098052 227.417949 374.699570 227.728205 374.301886 228.038462 373.905019 228.348718 373.508992 228.658974 373.113825 228.969231 372.719539 229.279487 372.326156 229.589744 371.933696 229.900000 371.542180 230.210256 371.151629 230.520513 370.762065 230.830769 370.373508 231.141026 369.985979 231.451282 369.599500 231.761538 369.214092 232.071795 368.829775 232.382051 368.446570 232.692308 368.064500 233.002564 367.683583 233.312821 367.303843 233.623077 366.925299 233.933333 366.547973 234.243590 366.171885 234.553846 365.797057 234.864103 365.423510 235.174359 365.051265 235.484615 364.680343 235.794872 364.310765 236.105128 363.942552 236.415385 363.575724 236.725641 363.210304 237.035897 362.846311 237.346154 362.483768 237.656410 362.122695 237.966667 361.763113 238.276923 361.405043 238.587179 361.048506 238.897436 360.693524 239.207692 360.340116 239.517949 359.988305 239.828205 359.638112 240.138462 359.289556 240.448718 358.942660 240.758974 358.597445 241.069231 358.253931 241.379487 357.912139 241.689744 357.572091 242.000000 357.233807 242.310256 356.897309 242.620513 356.562618 242.930769 356.229754 243.241026 355.898739 243.551282 355.569594 243.861538 355.242339 244.171795 354.916996 244.482051 354.593586 244.792308 354.272129 245.102564 353.952648 245.412821 353.635162 245.723077 353.319694 246.033333 353.006263 246.343590 352.694891 246.653846 352.385600 246.964103 352.078405 247.274359 351.773309 247.584615 351.470310 247.894872 351.169406 248.205128 350.870593 248.515385 350.573871 248.825641 350.279237 249.135897 349.986688 249.446154 349.696223 249.756410 349.407839 250.066667 349.121534 250.376923 348.837306 250.687179 348.555153 250.997436 348.275073 251.307692 347.997062 251.617949 347.721120 251.928205 347.447244 252.238462 347.175432 252.548718 346.905681 252.858974 346.637989 253.169231 346.372355 253.479487 346.108776 253.789744 345.847249 254.100000 345.587773 254.410256 345.330346 254.720513 345.074964 255.030769 344.821627 255.341026 344.570331 255.651282 344.321076 255.961538 344.073857 256.271795 343.828674 256.582051 343.585524 256.892308 343.344404 257.202564 343.105314 257.512821 342.868249 257.823077 342.633210 258.133333 342.400192 258.443590 342.169194 258.753846 341.940213 259.064103 341.713249 259.374359 341.488297 259.684615 341.265357 259.994872 341.044425 260.305128 340.825501 260.615385 340.608580 260.925641 340.393662 261.235897 340.180745 261.546154 339.969825 261.856410 339.760901 262.166667 339.553970 262.476923 339.349031 262.787179 339.146081 263.097436 338.945118 263.407692 338.746140 263.717949 338.549145 264.028205 338.354130 264.338462 338.161093 264.648718 337.970032 264.958974 337.780945 265.269231 337.593829 265.579487 337.408683 265.889744 337.225504 266.200000 337.044290 266.510256 336.865039 266.820513 336.687749 267.130769 336.512417 267.441026 336.339042 267.751282 336.167620 268.061538 335.998151 268.371795 335.830631 268.682051 335.665058 268.992308 335.501431 269.302564 335.339747 269.612821 335.180004 269.923077 335.022200 270.233333 334.866332 270.543590 334.712399 270.853846 334.560397 271.164103 334.410326 271.474359 334.262182 271.784615 334.115964 272.094872 333.971670 272.405128 333.829296 272.715385 333.688841 273.025641 333.550304 273.335897 333.413681 273.646154 333.278970 273.956410 333.146169 274.266667 333.015277 274.576923 332.886290 274.887179 332.759207 275.197436 332.634025 275.507692 332.510743 275.817949 332.389357 276.128205 332.269867 276.438462 332.152269 276.748718 332.036562 277.058974 331.922742 277.369231 331.810809 277.679487 331.700760 277.989744 331.592593 278.300000 331.486305 278.610256 331.381894 278.920513 331.279358 279.230769 331.178696 279.541026 331.079904 279.851282 330.982980 280.161538 330.887923 280.471795 330.794730 280.782051 330.703400 281.092308 330.613928 281.402564 330.526315 281.712821 330.440556 282.023077 330.356651 282.333333 330.274597 282.643590 330.194392 282.953846 330.116033 283.264103 330.039519 283.574359 329.964846 283.884615 329.892014 284.194872 329.821020 284.505128 329.751861 284.815385 329.684536 285.125641 329.619042 285.435897 329.555377 285.746154 329.493539 286.056410 329.433526 286.366667 329.375335 286.676923 329.318964 286.987179 329.264411 287.297436 329.211674 287.607692 329.160751 287.917949 329.111640 288.228205 329.064338 288.538462 329.018842 288.848718 328.975152 289.158974 328.933265 289.469231 328.893178 289.779487 328.854889 290.089744 328.818396 290.400000 328.783698 290.710256 328.750791 291.020513 328.719674 291.330769 328.690344 291.641026 328.662799 291.951282 328.637038 292.261538 328.613057 292.571795 328.590854 292.882051 328.570428 293.192308 328.551777 293.502564 328.534897 293.812821 328.519787 294.123077 328.506445 294.433333 328.494868 294.743590 328.485054 295.053846 328.477002 295.364103 328.470708 295.674359 328.466171 295.984615 328.463389 296.294872 328.462358 296.605128 328.463078 296.915385 328.465546 297.225641 328.469759 297.535897 328.475716 297.846154 328.483414 298.156410 328.492851 298.466667 328.504026 298.776923 328.516935 299.087179 328.531576 299.397436 328.547948 299.707692 328.566048 300.017949 328.585874 300.328205 328.607423 300.638462 328.630694 300.948718 328.655685 301.258974 328.682393 301.569231 328.710815 301.879487 328.740951 302.189744 328.772797 302.500000 328.806352 302.810256 328.841612 303.120513 328.878577 303.430769 328.917244 303.741026 328.957610 304.051282 328.999673 304.361538 329.043432 304.671795 329.088884 304.982051 329.136027 305.292308 329.184858 305.602564 329.235376 305.912821 329.287578 306.223077 329.341462 306.533333 329.397027 306.843590 329.454268 307.153846 329.513186 307.464103 329.573776 307.774359 329.636038 308.084615 329.699969 308.394872 329.765566 308.705128 329.832828 309.015385 329.901752 309.325641 329.972337 309.635897 330.044579 309.946154 330.118477 310.256410 330.194029 310.566667 330.271232 310.876923 330.350084 311.187179 330.430583 311.497436 330.512727 311.807692 330.596513 312.117949 330.681940 312.428205 330.769006 312.738462 330.857707 313.048718 330.948042 313.358974 331.040008 313.669231 331.133604 313.979487 331.228828 314.289744 331.325676 314.600000 331.424147 314.910256 331.524239 315.220513 331.625949 315.530769 331.729276 315.841026 331.834217 316.151282 331.940769 316.461538 332.048932 316.771795 332.158701 317.082051 332.270076 317.392308 332.383055 317.702564 332.497634 318.012821 332.613811 318.323077 332.731586 318.633333 332.850954 318.943590 332.971915 319.253846 333.094466 319.564103 333.218605 319.874359 333.344329 320.184615 333.471636 320.494872 333.600525 320.805128 333.730992 321.115385 333.863037 321.425641 333.996656 321.735897 334.131847 322.046154 334.268609 322.356410 334.406938 322.666667 334.546834 322.976923 334.688293 323.287179 334.831314 323.597436 334.975893 323.907692 335.122030 324.217949 335.269722 324.528205 335.418961 324.838462 335.569717 325.148718 335.721957 325.458974 335.875644 325.769231 336.030745 326.079487 336.187224 326.389744 336.345046 326.700000 336.504176 327.010256 336.664581 327.320513 336.826223 327.630769 336.989070 327.941026 337.153085 328.251282 337.318235 328.561538 337.484483 328.871795 337.651796 329.182051 337.820138 329.492308 337.989474 329.802564 338.159770 330.112821 338.330990 330.423077 338.503101 330.733333 338.676066 331.043590 338.849851 331.353846 339.024421 331.664103 339.199741 331.974359 339.375777 332.284615 339.552493 332.594872 339.729854 332.905128 339.907827 333.215385 340.086374 333.525641 340.265463 333.835897 340.445058 334.146154 340.625124 334.456410 340.805625 334.766667 340.986529 335.076923 341.167798 335.387179 341.349399 335.697436 341.531297 336.007692 341.713456 336.317949 341.895843 336.628205 342.078421 336.938462 342.261156 337.248718 342.444013 337.558974 342.626958 337.869231 342.809955 338.179487 342.992970 338.489744 343.175967 338.800000 343.358912 339.110256 343.541769 339.420513 343.724505 339.730769 343.907083 340.041026 344.089470 340.351282 344.271630 340.661538 344.453528 340.971795 344.635130 341.282051 344.816401 341.592308 344.997305 341.902564 345.177808 342.212821 345.357875 342.523077 345.537470 342.833333 345.716560 343.143590 345.895110 343.453846 346.073083 343.764103 346.250446 344.074359 346.427164 344.384615 346.603201 344.694872 346.778523 345.005128 346.953095 345.315385 347.126882 345.625641 347.299849 345.935897 347.471961 346.246154 347.643184 346.556410 347.813482 346.866667 347.982821 347.176923 348.151165 347.487179 348.318480 347.797436 348.484731 348.107692 348.649883 348.417949 348.813901 348.728205 348.976751 349.038462 349.138396 349.348718 349.298803 349.658974 349.457937 349.969231 349.615762 350.279487 349.772244 350.589744 349.927348 350.900000 350.081039 351.210256 350.233282 351.520513 350.384042 351.830769 350.533285 352.141026 350.680975 352.451282 350.827077 352.761538 350.971557 353.071795 351.114380 353.382051 351.255511 353.692308 351.394915 354.002564 351.532556 354.312821 351.668401 354.623077 351.802415 354.933333 351.934561 355.243590 352.064807 355.553846 352.193115 355.864103 352.319453 356.174359 352.443784 356.484615 352.566075 356.794872 352.686289 357.105128 352.804393 357.415385 352.920351 357.725641 353.034128 358.035897 353.145690 358.346154 353.255001 358.656410 353.362027 358.966667 353.466733 359.276923 353.569084 359.587179 353.669045 359.897436 353.766581 360.207692 353.861658 360.517949 353.954240 360.828205 354.044292 361.138462 354.131780 361.448718 354.216668 361.758974 354.298923 362.069231 354.378508 362.379487 354.455390 362.689744 354.529532 363.000000 354.600901 363.310256 354.669461 363.620513 354.735178 363.930769 354.798016 364.241026 354.857941 364.551282 354.914918 364.861538 354.968912 365.171795 355.019887 365.482051 355.067810 365.792308 355.112645 366.102564 355.154358 366.412821 355.192913 366.723077 355.228275 367.033333 355.260410 367.343590 355.289283 367.653846 355.314859 367.964103 355.337103 368.274359 355.355980 368.584615 355.371456 368.894872 355.383494 369.205128 355.392061 369.515385 355.397122 369.825641 355.398641 370.135897 355.396584 370.446154 355.390916 370.756410 355.381602 371.066667 355.368607 371.376923 355.351897 371.687179 355.331436 371.997436 355.307189 372.307692 355.279121 372.617949 355.247199 372.928205 355.211386 373.238462 355.171648 373.548718 355.127950 373.858974 355.080257 374.169231 355.028534 374.479487 354.972747 374.789744 354.912860 375.100000 354.848838 375.410256 354.780648 375.720513 354.708253 376.030769 354.631618 376.341026 354.550710 376.651282 354.465493 376.961538 354.375932 377.271795 354.281993 377.582051 354.183640 377.892308 354.080838 378.202564 353.973553 378.512821 353.861750 378.823077 353.745393 379.133333 353.624449 379.443590 353.498882 379.753846 353.368656 380.064103 353.233738 380.374359 353.094093 380.684615 352.949685 380.994872 352.800480 381.305128 352.646442 381.615385 352.487537 381.925641 352.323731 382.235897 352.154987 382.546154 351.981271 382.856410 351.802549 383.166667 351.618785 383.476923 351.429945 383.787179 351.235993 384.097436 351.036895 384.407692 350.832616 384.717949 350.623120 385.028205 350.408374 385.338462 350.188342 385.648718 349.962989 385.958974 349.732281 386.269231 349.496182 386.579487 349.254657 386.889744 349.007673 387.200000 348.755193 387.510256 348.497183 387.820513 348.233608 388.130769 347.964433 388.441026 347.689624 388.751282 347.409145 389.061538 347.122961 389.371795 346.831038 389.682051 346.533341 389.992308 346.229834 390.302564 345.920484 390.612821 345.605254 390.923077 345.284111 391.233333 344.957018 391.543590 344.623943 391.853846 344.284848 392.164103 343.939700 392.474359 343.588464 392.784615 343.231105 393.094872 342.867587 393.405128 342.497877 393.715385 342.121939 394.025641 341.739738 394.335897 341.351239 394.646154 340.956407 394.956410 340.555209 395.266667 340.147608 395.576923 339.733569 395.887179 339.313059 396.197436 338.886042 396.507692 338.452482 396.817949 338.012346 397.128205 337.565598 397.438462 337.112204 397.748718 336.652128 398.058974 336.185336 398.369231 335.711793 398.679487 335.231463 398.989744 334.744313 399.300000 334.250306 399.610256 333.749409 399.920513 333.241586 400.230769 332.726803 400.541026 332.205024 400.851282 331.676215 401.161538 331.140340 401.471795 330.597366 401.782051 330.047256 402.092308 329.489993 402.402564 328.925625 402.712821 328.354218 403.023077 327.775836 403.333333 327.190546 403.643590 326.598411 403.953846 325.999497 404.264103 325.393869 404.574359 324.781594 404.884615 324.162734 405.194872 323.537357 405.505128 322.905526 405.815385 322.267308 406.125641 321.622767 406.435897 320.971969 406.746154 320.314978 407.056410 319.651861 407.366667 318.982681 407.676923 318.307505 407.987179 317.626397 408.297436 316.939422 408.607692 316.246647 408.917949 315.548135 409.228205 314.843953 409.538462 314.134165 409.848718 313.418836 410.158974 312.698032 410.469231 311.971818 410.779487 311.240258 411.089744 310.503419 411.400000 309.761366 411.710256 309.014163 412.020513 308.261875 412.330769 307.504569 412.641026 306.742308 412.951282 305.975159 413.261538 305.203186 413.571795 304.426455 413.882051 303.645030 414.192308 302.858978 414.502564 302.068362 414.812821 301.273249 415.123077 300.473704 415.433333 299.669791 415.743590 298.861575 416.053846 298.049123 416.364103 297.232499 416.674359 296.411769 416.984615 295.586996 417.294872 294.758248 417.605128 293.925588 417.915385 293.089083 418.225641 292.248797 418.535897 291.404795 418.846154 290.557142 419.156410 289.705905 419.466667 288.851147 419.776923 287.992935 420.087179 287.131333 420.397436 286.266406 420.707692 285.398220 421.017949 284.526839 421.328205 283.652330 421.638462 282.774757 421.948718 281.894185 422.258974 281.010680 422.569231 280.124306 422.879487 279.235129 423.189744 278.343215 423.500000 277.448627 423.810256 276.551432 424.120513 275.651694 424.430769 274.749480 424.741026 273.844853 425.051282 272.937879 425.361538 272.028624 425.671795 271.117152 425.982051 270.203528 426.292308 269.287818 426.602564 268.370088 426.912821 267.450401 427.223077 266.528824 427.533333 265.605422 427.843590 264.680259 428.153846 263.753400 428.464103 262.824912 428.774359 261.894859 429.084615 260.963307 429.394872 260.030320 429.705128 259.095964 430.015385 258.160304 430.325641 257.223404 430.635897 256.285331 430.946154 255.346150 431.256410 254.405925 431.566667 253.464722 431.876923 252.522606 432.187179 251.579642 432.497436 250.635895 432.807692 249.691431 433.117949 248.746315 433.428205 247.800611 433.738462 246.854385 434.048718 245.907703 434.358974 244.960629 434.669231 244.013228 434.979487 243.065567 435.289744 242.117709 435.600000 241.169720 435.910256 240.221665 436.220513 239.273610 436.530769 238.325620 436.841026 237.377759 437.151282 236.430093 437.461538 235.482688 437.771795 234.535607 438.082051 233.588917 438.392308 232.642683 438.702564 231.696970 439.012821 230.751843 439.323077 229.807366 439.633333 228.863607 439.943590 227.920628 440.253846 226.978497 440.564103 226.037277 440.874359 225.097035 441.184615 224.157834 441.494872 223.219741 441.805128 222.282821 442.115385 221.347139 442.425641 220.412759 442.735897 219.479747 443.046154 218.548169 443.356410 217.618090 443.666667 216.689574 443.976923 215.762686 444.287179 214.837493 444.597436 213.914059 444.907692 212.992449 445.217949 212.072729 445.528205 211.154964 445.838462 210.239218 446.148718 209.325558 446.458974 208.414047 446.769231 207.504753 447.079487 206.597738 447.389744 205.693070 447.700000 204.790812 448.010256 203.891031 448.320513 202.993791 448.630769 202.099157 448.941026 201.207195 449.251282 200.317969 449.561538 199.431546 449.871795 198.547990 450.182051 197.667366 450.492308 196.789740 450.802564 195.915177 451.112821 195.043741 451.423077 194.175498 451.733333 193.310514 452.043590 192.448853 452.353846 191.590580 452.664103 190.735762 452.974359 189.884462 453.284615 189.036746 453.594872 188.192680 453.905128 187.352328 454.215385 186.515756 454.525641 185.683028 454.835897 184.854211 455.146154 184.029369 455.456410 183.208567 455.766667 182.391870 456.076923 181.579344 456.387179 180.771054 456.697436 179.967065 457.007692 179.167443 457.317949 178.372251 457.628205 177.581557 457.938462 176.795424 458.248718 176.013918 458.558974 175.237104 458.869231 174.465047 459.179487 173.697813 459.489744 172.935466 459.800000 172.178072 460.110256 171.425696 460.420513 170.678404 460.730769 169.936259 461.041026 169.199328 461.351282 168.467676 461.661538 167.741368 461.971795 167.020468 462.282051 166.305043 462.592308 165.595157 462.902564 164.890876 463.212821 164.192265 463.523077 163.499388 463.833333 162.812312 464.143590 162.131100 464.453846 161.455820 464.764103 160.786534 465.074359 160.123310 465.384615 159.466212 465.694872 158.815304 466.005128 158.170653 466.315385 157.532324 466.625641 156.900381 466.935897 156.274890 467.246154 155.655916 467.556410 155.043524 467.866667 154.437780 468.176923 153.838748 468.487179 153.246494 468.797436 152.661083 469.107692 152.082579 469.417949 151.511050 469.728205 150.946558 470.038462 150.389170 470.348718 149.838951 470.658974 149.295966 470.969231 148.760280 471.279487 148.231958 471.589744 147.711066 471.900000 147.197668 472.210256 146.691830 472.520513 146.193618 472.830769 145.703095 473.141026 145.220328 473.451282 144.745381 473.761538 144.278320 474.071795 143.819210 474.382051 143.368116 474.692308 142.925103 475.002564 142.490237 475.312821 142.063582 475.623077 141.645204 475.933333 141.235168 476.243590 140.833539 476.553846 140.440383 476.864103 140.055763 477.174359 139.679747 477.484615 139.312398 477.794872 138.953782 478.105128 138.603965 478.415385 138.263011 478.725641 137.930985 479.035897 137.607953 479.346154 137.293980 479.656410 136.989109 479.966667 136.693299 480.276923 136.406483 480.587179 136.128599 480.897436 135.859582 481.207692 135.599368 481.517949 135.347893 481.828205 135.105091 482.138462 134.870900 482.448718 134.645254 482.758974 134.428090 483.069231 134.219344 483.379487 134.018950 483.689744 133.826845 484.000000 133.642964 484.310256 133.467244 484.620513 133.299620 484.930769 133.140027 485.241026 132.988402 485.551282 132.844680 485.861538 132.708798 486.171795 132.580690 486.482051 132.460292 486.792308 132.347541 487.102564 132.242371 487.412821 132.144719 487.723077 132.054521 488.033333 131.971712 488.343590 131.896228 488.653846 131.828005 488.964103 131.766978 489.274359 131.713083 489.584615 131.666256 489.894872 131.626433 490.205128 131.593549 490.515385 131.567541 490.825641 131.548343 491.135897 131.535892 491.446154 131.530124 491.756410 131.530973 492.066667 131.538377 492.376923 131.552270 492.687179 131.572589 492.997436 131.599268 493.307692 131.632245 493.617949 131.671454 493.928205 131.716832 494.238462 131.768314 494.548718 131.825835 494.858974 131.889333 495.169231 131.958741 495.479487 132.033997 495.789744 132.115036 496.100000 132.201793 496.410256 132.294205 496.720513 132.392206 497.030769 132.495734 497.341026 132.604723 497.651282 132.719110 497.961538 132.838829 498.271795 132.963818 498.582051 133.094011 498.892308 133.229344 499.202564 133.369754 499.512821 133.515175 499.823077 133.665544 500.133333 133.820796 500.443590 133.980867 500.753846 134.145693 501.064103 134.315210 501.374359 134.489352 501.684615 134.668057 501.994872 134.851260 502.305128 135.038896 502.615385 135.230902 502.925641 135.427212 503.235897 135.627764 503.546154 135.832492 503.856410 136.041332 504.166667 136.254220 504.476923 136.471092 504.787179 136.691883 505.097436 136.916530 505.407692 137.144967 505.717949 137.377132 506.028205 137.612959 506.338462 137.852384 506.648718 138.095343 506.958974 138.341772 507.269231 138.591606 507.579487 138.844782 507.889744 139.101235 508.200000 139.360900 508.510256 139.623714 508.820513 139.889612 509.130769 140.158529 509.441026 140.430403 509.751282 140.705168 510.061538 140.982760 510.371795 141.263116 510.682051 141.546170 510.992308 141.831858 511.302564 142.120116 511.612821 142.410881 511.923077 142.704087 512.233333 142.999671 512.543590 143.297567 512.853846 143.597713 513.164103 143.900043 513.474359 144.204494 513.784615 144.511001 514.094872 144.819500 514.405128 145.129926 514.715385 145.442216 515.025641 145.756305 515.335897 146.072129 515.646154 146.389623 515.956410 146.708724 516.266667 147.029367 516.576923 147.351488 516.887179 147.675023 517.197436 147.999906 517.507692 148.326075 517.817949 148.653465 518.128205 148.982012 518.438462 149.311650 518.748718 149.642317 519.058974 149.973948 519.369231 150.306478 519.679487 150.639844 519.989744 150.973981 520.300000 151.308824 520.610256 151.644310 520.920513 151.980375 521.230769 152.316953 521.541026 152.653982 521.851282 152.991395 522.161538 153.329131 522.471795 153.667123 522.782051 154.005308 523.092308 154.343622 523.402564 154.681999 523.712821 155.020377 524.023077 155.358691 524.333333 155.696876 524.643590 156.034869 524.953846 156.372604 525.264103 156.710019 525.574359 157.047048 525.884615 157.383627 526.194872 157.719692 526.505128 158.055179 526.815385 158.390023 527.125641 158.724161 527.435897 159.057527 527.746154 159.390059 528.056410 159.721691 528.366667 160.052359 528.676923 160.381999 528.987179 160.710547 529.297436 161.037938 529.607692 161.364108 529.917949 161.688994 530.228205 162.012530 530.538462 162.334653 530.848718 162.655297 531.158974 162.974400 531.469231 163.291897 531.779487 163.607723 532.089744 163.921814 532.400000 164.234106 532.710256 164.544535 533.020513 164.853036 533.330769 165.159545 533.641026 165.463998 533.951282 165.766331 534.261538 166.066480 534.571795 166.364379 534.882051 166.659966 535.192308 166.953175 535.502564 167.243942 535.812821 167.532204 536.123077 167.817895 536.433333 168.100953 536.743590 168.381311 537.053846 168.658907 537.364103 168.933676 537.674359 169.205553 537.984615 169.474474 538.294872 169.740376 538.605128 170.003194 538.915385 170.262863 539.225641 170.519319 539.535897 170.772499 539.846154 171.022337 540.156410 171.268771 540.466667 171.511734 540.776923 171.751163 541.087179 171.986995 541.397436 172.219164 541.707692 172.447606 542.017949 172.672257 542.328205 172.893054 542.638462 173.109930 542.948718 173.322823 543.258974 173.531669 543.569231 173.736401 543.879487 173.936958 544.189744 174.133274 544.500000 174.325285 544.810256 174.512926 545.120513 174.696134 545.430769 174.874845 545.741026 175.048993 546.051282 175.218515 546.361538 175.383347 546.671795 175.543424 546.982051 175.698682 547.292308 175.849057 547.602564 175.994485 547.912821 176.134900 548.223077 176.270240 548.533333 176.400439 548.843590 176.525434 549.153846 176.645160 549.464103 176.759553 549.774359 176.868549 550.084615 176.972083 550.394872 177.070092 550.705128 177.162510 551.015385 177.249275 551.325641 177.330320 551.635897 177.405583 551.946154 177.474999 552.256410 177.538504 552.566667 177.596033 552.876923 177.647522 553.187179 177.692907 553.497436 177.732124 553.807692 177.765108 554.117949 177.791796 554.428205 177.812122 554.738462 177.826023 555.048718 177.833435 555.358974 177.834292 555.669231 177.828532 555.979487 177.816089 556.289744 177.796900 556.600000 177.770900 556.910256 177.738025 557.220513 177.698228 557.530769 177.651533 557.841026 177.597981 558.151282 177.537614 558.461538 177.470473 558.771795 177.396599 559.082051 177.316034 559.392308 177.228819 559.702564 177.134996 560.012821 177.034605 560.323077 176.927688 560.633333 176.814287 560.943590 176.694442 561.253846 176.568195 561.564103 176.435588 561.874359 176.296662 562.184615 176.151458 562.494872 176.000017 562.805128 175.842381 563.115385 175.678591 563.425641 175.508688 563.735897 175.332714 564.046154 175.150711 564.356410 174.962719 564.666667 174.768780 564.976923 174.568934 565.287179 174.363225 565.597436 174.151692 565.907692 173.934378 566.217949 173.711323 566.528205 173.482568 566.838462 173.248157 567.148718 173.008128 567.458974 172.762525 567.769231 172.511387 568.079487 172.254758 568.389744 171.992677 568.700000 171.725186 569.010256 171.452327 569.320513 171.174141 569.630769 170.890670 569.941026 170.601954 570.251282 170.308034 570.561538 170.008954 570.871795 169.704752 571.182051 169.395472 571.492308 169.081154 571.802564 168.761840 572.112821 168.437571 572.423077 168.108388 572.733333 167.774332 573.043590 167.435446 573.353846 167.091770 573.664103 166.743346 573.974359 166.390215 574.284615 166.032418 574.594872 165.669997 574.905128 165.302993 575.215385 164.931448 575.525641 164.555402 575.835897 164.174897 576.146154 163.789975 576.456410 163.400677 576.766667 163.007043 577.076923 162.609116 577.387179 162.206937 577.697436 161.800547 578.007692 161.389988 578.317949 160.975300 578.628205 160.556525 578.938462 160.133705 579.248718 159.706881 579.558974 159.276094 579.869231 158.841385 580.179487 158.402797 580.489744 157.960369 580.800000 157.514144 581.110256 157.064163 581.420513 156.610467 581.730769 156.153098 582.041026 155.692096 582.351282 155.227504 582.661538 154.759363 582.971795 154.287713 583.282051 153.812597 583.592308 153.334055 583.902564 152.852129 584.212821 152.366861 584.523077 151.878291 584.833333 151.386461 585.143590 150.891412 585.453846 150.393186 585.764103 149.891824 586.074359 149.387367 586.384615 148.879857 586.694872 148.369335 587.005128 147.855843 587.315385 147.339421 587.625641 146.820111 587.935897 146.297954 588.246154 145.772992 588.556410 145.245266 588.866667 144.714818 589.176923 144.181688 589.487179 143.645919 589.797436 143.107551 590.107692 142.566625 590.417949 142.023184 590.728205 141.477268 591.038462 140.928919 591.348718 140.378178 591.658974 139.825086 591.969231 139.269686 592.279487 138.712017 592.589744 138.152122 592.900000 137.590042 593.210256 137.025818 593.520513 136.459491 593.830769 135.891103 594.141026 135.320696 594.451282 134.748310 594.761538 134.173987 595.071795 133.597768 595.382051 133.019694 595.692308 132.439808 596.002564 131.858150 596.312821 131.274761 596.623077 130.689683 596.933333 130.102957 597.243590 129.514626 597.553846 128.924728 597.864103 128.333308 598.174359 127.740405 598.484615 127.146060 598.794872 126.550317 599.105128 125.953214 599.415385 125.354795 599.725641 124.755100 600.035897 124.154171 600.346154 123.552049 600.656410 122.948775 600.966667 122.344390 601.276923 121.738937 601.587179 121.132456 601.897436 120.524989 602.207692 119.916577 602.517949 119.307261 602.828205 118.697083 603.138462 118.086084 603.448718 117.474306 603.758974 116.861789 604.069231 116.248575 604.379487 115.634706 604.689744 115.020222 605.000000 114.405166 605.310256 113.789578 605.620513 113.173500 605.930769 112.556973 606.241026 111.940038 606.551282 111.322737 606.861538 110.705112 607.171795 110.087202 607.482051 109.469051 607.792308 108.850699 608.102564 108.232188 608.412821 107.613558 608.723077 106.994851 609.033333 106.376109 609.343590 105.757373 609.653846 105.138684 609.964103 104.520084 610.274359 103.901613 610.584615 103.283314 610.894872 102.665228 611.205128 102.047395 611.515385 101.429857 611.825641 100.812657 612.135897 100.195834 612.446154 99.579430 612.756410 98.963487 613.066667 98.348046 613.376923 97.733148 613.687179 97.118835 613.997436 96.505148 614.307692 95.892129 614.617949 95.279818 614.928205 94.668257 615.238462 94.057487 615.548718 93.447550 615.858974 92.838487 616.169231 92.230339 616.479487 91.623148 616.789744 91.016955 617.100000 90.411802 617.410256 89.807729 617.720513 89.204779 618.030769 88.602991 618.341026 88.002409 618.651282 87.403073 618.961538 86.805024 619.271795 86.208304 619.582051 85.612954 619.892308 85.019015 620.202564 84.426529 620.512821 83.835538 620.823077 83.246081 621.133333 82.658202 621.443590 82.071941 621.753846 81.487339 622.064103 80.904439 622.374359 80.323280 622.684615 79.743905 622.994872 79.166355 623.305128 78.590671 623.615385 78.016894 623.925641 77.445067 624.235897 76.875229 624.546154 76.307423 624.856410 75.741691 625.166667 75.178072 625.476923 74.616609 625.787179 74.057343 626.097436 73.500315 626.407692 72.945567 626.717949 72.393140 627.028205 71.843075 627.338462 71.295413 627.648718 70.750197 627.958974 70.207467 628.269231 69.667265 628.579487 69.129631 628.889744 68.594608 629.200000 68.062237 629.510256 67.532559 629.820513 67.005615 630.130769 66.481446 630.441026 65.960095 630.751282 65.441602 631.061538 64.926009 631.371795 64.413357 631.682051 63.903688 631.992308 63.397042 632.302564 62.893461 632.612821 62.392987 632.923077 61.895660 633.233333 61.401522 633.543590 60.910615 633.853846 60.422980 634.164103 59.938658 634.474359 59.457690 634.784615 58.980109 635.094872 58.505911 635.405128 58.035080 635.715385 57.567605 636.025641 57.103472 636.335897 56.642666 636.646154 56.185175 636.956410 55.730984 637.266667 55.280081 637.576923 54.832451 637.887179 54.388081 638.197436 53.946957 638.507692 53.509066 638.817949 53.074395 639.128205 52.642929 639.438462 52.214655 639.748718 51.789560 640.058974 51.367630 640.369231 50.948850 640.679487 50.533209 640.989744 50.120692 641.300000 49.711285 641.610256 49.304975 641.920513 48.901749 642.230769 48.501593 642.541026 48.104492 642.851282 47.710435 643.161538 47.319406 643.471795 46.931393 643.782051 46.546382 644.092308 46.164359 644.402564 45.785311 644.712821 45.409224 645.023077 45.036085 645.333333 44.665879 645.643590 44.298594 645.953846 43.934216 646.264103 43.572731 646.574359 43.214126 646.884615 42.858386 647.194872 42.505500 647.505128 42.155452 647.815385 41.808229 648.125641 41.463818 648.435897 41.122206 648.746154 40.783378 649.056410 40.447321 649.366667 40.114021 649.676923 39.783465 649.987179 39.455639 650.297436 39.130530 650.607692 38.808124 650.917949 38.488408 651.228205 38.171367 651.538462 37.856989 651.848718 37.545259 652.158974 37.236165 652.469231 36.929692 652.779487 36.625827 653.089744 36.324557 653.400000 36.025867 653.710256 35.729745 654.020513 35.436176 654.330769 35.145147 654.641026 34.856645 654.951282 34.570656 655.261538 34.287166 655.571795 34.006162 655.882051 33.727630 656.192308 33.451556 656.502564 33.177928 656.812821 32.906731 657.123077 32.637951 657.433333 32.371576 657.743590 32.107592 658.053846 31.845984 658.364103 31.586741 658.674359 31.329847 658.984615 31.075289 659.294872 30.823054 659.605128 30.573128 659.915385 30.325498 660.225641 30.080150 660.535897 29.837070 660.846154 29.596245 661.156410 29.357661 661.466667 29.121305 661.776923 28.887163 662.087179 28.655222 662.397436 28.425467 662.707692 28.197886 663.017949 27.972464 663.328205 27.749189 663.638462 27.528046 663.948718 27.309022 664.258974 27.092104 664.569231 26.877277 664.879487 26.664529 665.189744 26.453845 665.500000 26.245212 665.810256 26.038617 666.120513 25.834046 666.430769 25.631485 666.741026 25.430920 667.051282 25.232339 667.361538 25.035728 667.671795 24.841072 667.982051 24.648359 668.292308 24.457575 668.602564 24.268706 668.912821 24.081738 669.223077 23.896659 669.533333 23.713454 669.843590 23.532110 670.153846 23.352614 670.464103 23.174951 670.774359 22.999108 671.084615 22.825072 671.394872 22.652829 671.705128 22.482365 672.015385 22.313667 672.325641 22.146721 672.635897 21.981514 672.946154 21.818032 673.256410 21.656262 673.566667 21.496189 673.876923 21.337801 674.187179 21.181084 674.497436 21.026023 674.807692 20.872607 675.117949 20.720820 675.428205 20.570649 675.738462 20.422082 676.048718 20.275104 676.358974 20.129701 676.669231 19.985860 676.979487 19.843568 677.289744 19.702811 677.600000 19.563575 677.910256 19.425847 678.220513 19.289613 678.530769 19.154860 678.841026 19.021573 679.151282 18.889740 679.461538 18.759347 679.771795 18.630380 680.082051 18.502826 680.392308 18.376671 680.702564 18.251901 681.012821 18.128503 681.323077 18.006464 681.633333 17.885769 681.943590 17.766405 682.253846 17.648359 682.564103 17.531617 682.874359 17.416166 683.184615 17.301991 683.494872 17.189079 683.805128 17.077418 684.115385 16.966992 684.425641 16.857789 684.735897 16.749794 685.046154 16.642995 685.356410 16.537378 685.666667 16.432929 685.976923 16.329634 686.287179 16.227480 686.597436 16.126454 686.907692 16.026542 687.217949 15.927730 687.528205 15.830004 687.838462 15.733352 688.148718 15.637759 688.458974 15.543212 688.769231 15.449697 689.079487 15.357201 689.389744 15.265711 689.700000 15.175212 690.010256 15.085690 690.320513 14.997134 690.630769 14.909528 690.941026 14.822859 691.251282 14.737114 691.561538 14.652279 691.871795 14.568340 692.182051 14.485285 692.492308 14.403099 692.802564 14.321768 693.112821 14.241280 693.423077 14.161620 693.733333 14.082775 694.043590 14.004732 694.353846 13.927477 694.664103 13.850995 694.974359 13.775275 695.284615 13.700301 695.594872 13.626061 695.905128 13.552541 696.215385 13.479727 696.525641 13.407606 696.835897 13.336164 697.146154 13.265388 697.456410 13.195264 697.766667 13.125778 698.076923 13.056917 698.387179 12.988667 698.697436 12.921015 699.007692 12.853947 699.317949 12.787449 699.628205 12.721509 699.938462 12.656111 700.248718 12.591244 700.558974 12.526892 700.869231 12.463043 701.179487 12.399684 701.489744 12.336799 701.800000 12.274377 702.110256 12.212402 702.420513 12.150863 702.730769 12.089744 703.041026 12.029033 703.351282 11.968716 703.661538 11.908779 703.971795 11.849209 704.282051 11.789992 704.592308 11.731114 704.902564 11.672563 705.212821 11.614324 705.523077 11.556384 705.833333 11.498729 706.143590 11.441346 706.453846 11.384221 706.764103 11.327340 707.074359 11.270690 707.384615 11.214258 707.694872 11.158029 708.005128 11.101991 708.315385 11.046129 708.625641 10.990430 708.935897 10.934881 709.246154 10.879467 709.556410 10.824176 709.866667 10.768993 710.176923 10.713905 710.487179 10.658899 710.797436 10.603961 711.107692 10.549077 711.417949 10.494234 711.728205 10.439418 712.038462 10.384615 712.038462 540.000000" /></g></g><g class="titles" /><g class="plot overlay" transform="translate(54, 20)"><g class="series serie-0 color-0"><g class="dots"><circle class="dot reactive tooltip-trigger" cx="13.96153846153846" cy="529.6153846153846" r="2.5" /><desc class="value">265,795,435(kWh)</desc><desc class="x top">13.96153846153846</desc><desc class="y top">529.6153846153846</desc><desc class="x_label">2549</desc></g><g class="dots"><circle class="dot reactive tooltip-trigger" cx="91.52564102564101" cy="446.2266730078147" r="2.5" /><desc class="value">300,957,806(kWh)</desc><desc class="x top">91.52564102564101</desc><desc class="y top">446.2266730078147</desc><desc class="x_label">2550</desc></g><g class="dots"><circle class="dot reactive tooltip-trigger" cx="169.08974358974356" cy="440.33423249976977" r="2.5" /><desc class="value">303,442,461(kWh)</desc><desc class="x top">169.08974358974356</desc><desc class="y top">440.33423249976977</desc><desc class="x_label">2551</desc></g><g class="dots"><circle class="dot reactive tooltip-trigger" cx="246.65384615384613" cy="352.3855995327292" r="2.5" /><desc class="value">340,527,606(kWh)</desc><desc class="x top">246.65384615384613</desc><desc class="y top">352.3855995327292</desc><desc class="x_label">2552</desc></g><g class="dots"><circle class="dot reactive tooltip-trigger" cx="324.21794871794873" cy="335.2697217676658" r="2.5" /><desc class="value">347,744,828(kWh)</desc><desc class="x top">324.21794871794873</desc><desc class="y top">335.2697217676658</desc><desc class="x_label">2553</desc></g><g class="dots"><circle class="dot reactive tooltip-trigger" cx="401.78205128205127" cy="330.04725583983674" r="2.5" /><desc class="value">349,946,976(kWh)</desc><desc class="x left top">401.78205128205127</desc><desc class="y left top">330.04725583983674</desc><desc class="x_label">2554</desc></g><g class="dots"><circle class="dot reactive tooltip-trigger" cx="479.3461538461538" cy="137.29397994768777" r="2.5" /><desc class="value">431,224,910(kWh)</desc><desc class="x left">479.3461538461538</desc><desc class="y left">137.29397994768777</desc><desc class="x_label">2555</desc></g><g class="dots"><circle class="dot reactive tooltip-trigger" cx="556.9102564102565" cy="177.7380245971637" r="2.5" /><desc class="value">414,170,941(kWh)</desc><desc class="x left">556.9102564102565</desc><desc class="y left">177.7380245971637</desc><desc class="x_label">2556</desc></g><g class="dots"><circle class="dot reactive tooltip-trigger" cx="634.474358974359" cy="59.457690351493966" r="2.5" /><desc class="value">464,046,001(kWh)</desc><desc class="x left">634.474358974359</desc><desc class="y left">59.457690351493966</desc><desc class="x_label">2557</desc></g><g class="dots"><circle class="dot reactive tooltip-trigger" cx="712.0384615384615" cy="10.384615384615358" r="2.5" /><desc class="value">484,738,558(kWh)</desc><desc class="x left">712.0384615384615</desc><desc class="y left">10.384615384615358</desc><desc class="x_label">2558</desc></g></g></g><g class="plot text-overlay" transform="translate(54, 20)"><g class="series serie-0 color-0" /></g><g class="plot tooltip-overlay" transform="translate(54, 20)"><g class="tooltip" style="opacity: 0" transform="translate(0 0)"><rect class="tooltip-box" height="0" rx="0" ry="0" width="0" /><g class="text" /></g></g></g></svg>