<?xml version='1.0' encoding='utf-8'?>
<svg xmlns:xlink="http://www.w3.org/1999/xlink" class="pygal-chart" id="chart-45844416-617e-47ae-8e4b-8c095b0d4737" viewBox="0 0 800 600" xmlns="http://www.w3.org/2000/svg"><!--Generated with pygal 2.3.0 (etree) ©Kozea 2012-2016 on 2016-12-08--><!--http://pygal.org--><!--http://github.com/Kozea/pygal--><defs><style type="text/css">#chart-45844416-617e-47ae-8e4b-8c095b0d4737{-webkit-user-select:none;-webkit-font-smoothing:antialiased;font-family:Consolas,"Liberation Mono",Menlo,Courier,monospace}#chart-45844416-617e-47ae-8e4b-8c095b0d4737 .title{font-family:Consolas,"Liberation Mono",Menlo,Courier,monospace;font-size:16px}#chart-45844416-617e-47ae-8e4b-8c095b0d4737 .legends .legend text{font-family:Consolas,"Liberation Mono",Menlo,Courier,monospace;font-size:14px}#chart-45844416-617e-47ae-8e4b-8c095b0d4737 .axis text{font-family:Consolas,"Liberation Mono",Menlo,Courier,monospace;font-size:10px}#chart-45844416-617e-47ae-8e4b-8c095b0d4737 .axis text.major{font-family:Consolas,"Liberation Mono",Menlo,Courier,monospace;font-size:10px}#chart-45844416-617e-47ae-8e4b-8c095b0d4737 .text-overlay text.value{font-family:Consolas,"Liberation Mono",Menlo,Courier,monospace;font-size:16px}#chart-45844416-617e-47ae-8e4b-8c095b0d4737 .text-overlay text.label{font-family:Consolas,"Liberation Mono",Menlo,Courier,monospace;font-size:10px}#chart-45844416-617e-47ae-8e4b-8c095b0d4737 .tooltip{font-family:Consolas,"Liberation Mono",Menlo,Courier,monospace;font-size:14px}#chart-45844416-617e-47ae-8e4b-8c095b0d4737 text.no_data{font-family:Consolas,"Liberation Mono",Menlo,Courier,monospace;font-size:64px}
#chart-45844416-617e-47ae-8e4b-8c095b0d4737{background-color:rgba(249,249,249,1)}#chart-45844416-617e-47ae-8e4b-8c095b0d4737 path,#chart-45844416-617e-47ae-8e4b-8c095b0d4737 line,#chart-45844416-617e-47ae-8e4b-8c095b0d4737 rect,#chart-45844416-617e-47ae-8e4b-8c095b0d4737 circle{-webkit-transition:150ms;-moz-transition:150ms;transition:150ms}#chart-45844416-617e-47ae-8e4b-8c095b0d4737 .graph &gt; .background{fill:rgba(249,249,249,1)}#chart-45844416-617e-47ae-8e4b-8c095b0d4737 .plot &gt; .background{fill:rgba(255,255,255,1)}#chart-45844416-617e-47ae-8e4b-8c095b0d4737 .graph{fill:rgba(0,0,0,.87)}#chart-45844416-617e-47ae-8e4b-8c095b0d4737 text.no_data{fill:rgba(0,0,0,1)}#chart-45844416-617e-47ae-8e4b-8c095b0d4737 .title{fill:rgba(0,0,0,1)}#chart-45844416-617e-47ae-8e4b-8c095b0d4737 .legends .legend text{fill:rgba(0,0,0,.87)}#chart-45844416-617e-47ae-8e4b-8c095b0d4737 .legends .legend:hover text{fill:rgba(0,0,0,1)}#chart-45844416-617e-47ae-8e4b-8c095b0d4737 .axis .line{stroke:rgba(0,0,0,1)}#chart-45844416-617e-47ae-8e4b-8c095b0d4737 .axis .guide.line{stroke:rgba(0,0,0,.54)}#chart-45844416-617e-47ae-8e4b-8c095b0d4737 .axis .major.line{stroke:rgba(0,0,0,.87)}#chart-45844416-617e-47ae-8e4b-8c095b0d4737 .axis text.major{fill:rgba(0,0,0,1)}#chart-45844416-617e-47ae-8e4b-8c095b0d4737 .axis.y .guides:hover .guide.line,#chart-45844416-617e-47ae-8e4b-8c095b0d4737 .line-graph .axis.x .guides:hover .guide.line,#chart-45844416-617e-47ae-8e4b-8c095b0d4737 .stackedline-graph .axis.x .guides:hover .guide.line,#chart-45844416-617e-47ae-8e4b-8c095b0d4737 .xy-graph .axis.x .guides:hover .guide.line{stroke:rgba(0,0,0,1)}#chart-45844416-617e-47ae-8e4b-8c095b0d4737 .axis .guides:hover text{fill:rgba(0,0,0,1)}#chart-45844416-617e-47ae-8e4b-8c095b0d4737 .reactive{fill-opacity:.7;stroke-opacity:.8}#chart-45844416-617e-47ae-8e4b-8c095b0d4737 .ci{stroke:rgba(0,0,0,.87)}#chart-45844416-617e-47ae-8e4b-8c095b0d4737 .reactive.active,#chart-45844416-617e-47ae-8e4b-8c095b0d4737 .active .reactive{fill-opacity:.8;stroke-opacity:.9;stroke-width:4}#chart-45844416-617e-47ae-8e4b-8c095b0d4737 .ci .reactive.active{stroke-width:1.5}#chart-45844416-617e-47ae-8e4b-8c095b0d4737 .series text{fill:rgba(0,0,0,1)}#chart-45844416-617e-47ae-8e4b-8c095b0d4737 .tooltip rect{fill:rgba(255,255,255,1);stroke:rgba(0,0,0,1);-webkit-transition:opacity 150ms;-moz-transition:opacity 150ms;transition:opacity 150ms}#chart-45844416-617e-47ae-8e4b-8c095b0d4737 .tooltip .label{fill:rgba(0,0,0,.87)}#chart-45844416-617e-47ae-8e4b-8c095b0d4737 .tooltip .label{fill:rgba(0,0,0,.87)}#chart-45844416-617e-47ae-8e4b-8c095b0d4737 .tooltip .legend{font-size:.8em;fill:rgba(0,0,0,.54)}#chart-45844416-617e-47ae-8e4b-8c095b0d4737 .tooltip .x_label{font-size:.6em;fill:rgba(0,0,0,1)}#chart-45844416-617e-47ae-8e4b-8c095b0d4737 .tooltip .xlink{font-size:.5em;text-decoration:underline}#chart-45844416-617e-47ae-8e4b-8c095b0d4737 .tooltip .value{font-size:1.5em}#chart-45844416-617e-47ae-8e4b-8c095b0d4737 .bound{font-size:.5em}#chart-45844416-617e-47ae-8e4b-8c095b0d4737 .max-value{font-size:.75em;fill:rgba(0,0,0,.54)}#chart-45844416-617e-47ae-8e4b-8c095b0d4737 .map-element{fill:rgba(255,255,255,1);stroke:rgba(0,0,0,.54) !important}#chart-45844416-617e-47ae-8e4b-8c095b0d4737 .map-element .reactive{fill-opacity:inherit;stroke-opacity:inherit}#chart-45844416-617e-47ae-8e4b-8c095b0d4737 .color-0,#chart-45844416-617e-47ae-8e4b-8c095b0d4737 .color-0 a:visited{stroke:#e86fa0;fill:#e86fa0}#chart-45844416-617e-47ae-8e4b-8c095b0d4737 .text-overlay .color-0 text{fill:black}
#chart-45844416-617e-47ae-8e4b-8c095b0d4737 text.no_data{text-anchor:middle}#chart-45844416-617e-47ae-8e4b-8c095b0d4737 .guide.line{fill:none}#chart-45844416-617e-47ae-8e4b-8c095b0d4737 .centered{text-anchor:middle}#chart-45844416-617e-47ae-8e4b-8c095b0d4737 .title{text-anchor:middle}#chart-45844416-617e-47ae-8e4b-8c095b0d4737 .legends .legend text{fill-opacity:1}#chart-45844416-617e-47ae-8e4b-8c095b0d4737 .axis.x text{text-anchor:middle}#chart-45844416-617e-47ae-8e4b-8c095b0d4737 .axis.x:not(.web) text[transform]{text-anchor:start}#chart-45844416-617e-47ae-8e4b-8c095b0d4737 .axis.x:not(.web) text[transform].backwards{text-anchor:end}#chart-45844416-617e-47ae-8e4b-8c095b0d4737 .axis.y text{text-anchor:end}#chart-45844416-617e-47ae-8e4b-8c095b0d4737 .axis.y text[transform].backwards{text-anchor:start}#chart-45844416-617e-47ae-8e4b-8c095b0d4737 .axis.y2 text{text-anchor:start}#chart-45844416-617e-47ae-8e4b-8c095b0d4737 .axis.y2 text[transform].backwards{text-anchor:end}#chart-45844416-617e-47ae-8e4b-8c095b0d4737 .axis .guide.line{stroke-dasharray:4,4}#chart-45844416-617e-47ae-8e4b-8c095b0d4737 .axis .major.guide.line{stroke-dasharray:6,6}#chart-45844416-617e-47ae-8e4b-8c095b0d4737 .horizontal .axis.y .guide.line,#chart-45844416-617e-47ae-8e4b-8c095b0d4737 .horizontal .axis.y2 .guide.line,#chart-45844416-617e-47ae-8e4b-8c095b0d4737 .vertical .axis.x .guide.line{opacity:0}#chart-45844416-617e-47ae-8e4b-8c095b0d4737 .horizontal .axis.always_show .guide.line,#chart-45844416-617e-47ae-8e4b-8c095b0d4737 .vertical .axis.always_show .guide.line{opacity:1 !important}#chart-45844416-617e-47ae-8e4b-8c095b0d4737 .axis.y .guides:hover .guide.line,#chart-45844416-617e-47ae-8e4b-8c095b0d4737 .axis.y2 .guides:hover .guide.line,#chart-45844416-617e-47ae-8e4b-8c095b0d4737 .axis.x .guides:hover .guide.line{opacity:1}#chart-45844416-617e-47ae-8e4b-8c095b0d4737 .axis .guides:hover text{opacity:1}#chart-45844416-617e-47ae-8e4b-8c095b0d4737 .nofill{fill:none}#chart-45844416-617e-47ae-8e4b-8c095b0d4737 .subtle-fill{fill-opacity:.2}#chart-45844416-617e-47ae-8e4b-8c095b0d4737 .dot{stroke-width:1px;fill-opacity:1}#chart-45844416-617e-47ae-8e4b-8c095b0d4737 .dot.active{stroke-width:5px}#chart-45844416-617e-47ae-8e4b-8c095b0d4737 .dot.negative{fill:transparent}#chart-45844416-617e-47ae-8e4b-8c095b0d4737 text,#chart-45844416-617e-47ae-8e4b-8c095b0d4737 tspan{stroke:none !important}#chart-45844416-617e-47ae-8e4b-8c095b0d4737 .series text.active{opacity:1}#chart-45844416-617e-47ae-8e4b-8c095b0d4737 .tooltip rect{fill-opacity:.95;stroke-width:.5}#chart-45844416-617e-47ae-8e4b-8c095b0d4737 .tooltip text{fill-opacity:1}#chart-45844416-617e-47ae-8e4b-8c095b0d4737 .showable{visibility:hidden}#chart-45844416-617e-47ae-8e4b-8c095b0d4737 .showable.shown{visibility:visible}#chart-45844416-617e-47ae-8e4b-8c095b0d4737 .gauge-background{fill:rgba(229,229,229,1);stroke:none}#chart-45844416-617e-47ae-8e4b-8c095b0d4737 .bg-lines{stroke:rgba(249,249,249,1);stroke-width:2px}</style><script type="text/javascript">window.pygal = window.pygal || {};window.pygal.config = window.pygal.config || {};window.pygal.config['45844416-617e-47ae-8e4b-8c095b0d4737'] = {"no_data_text": "No data", "no_prefix": false, "xrange": null, "print_values_position": "center", "truncate_label": null, "x_labels": ["2549", "2550", "2551", "2552", "2553", "2554", "2555", "2556", "2557", "2558"], "title": null, "force_uri_protocol": "https", "defs": [], "formatter": null, "classes": ["pygal-chart"], "y_labels": null, "rounded_bars": null, "explicit_size": false, "x_labels_major_every": null, "legend_at_bottom_columns": null, "stroke_style": null, "half_pie": false, "spacing": 10, "tooltip_fancy_mode": true, "inverse_y_axis": false, "width": 800, "inner_radius": 0, "interpolation_parameters": {}, "tooltip_border_radius": 0, "style": {"no_data_font_family": "Consolas, \"Liberation Mono\", Menlo, Courier, monospace", "tooltip_font_size": 14, "tooltip_font_family": "Consolas, \"Liberation Mono\", Menlo, Courier, monospace", "stroke_opacity_hover": ".9", "legend_font_family": "Consolas, \"Liberation Mono\", Menlo, Courier, monospace", "font_family": "Consolas, \"Liberation Mono\", Menlo, Courier, monospace", "title_font_family": "Consolas, \"Liberation Mono\", Menlo, Courier, monospace", "background": "rgba(249, 249, 249, 1)", "stroke_opacity": ".8", "foreground": "rgba(0, 0, 0, .87)", "value_background": "rgba(229, 229, 229, 1)", "guide_stroke_dasharray": "4,4", "foreground_subtle": "rgba(0, 0, 0, .54)", "opacity_hover": ".8", "value_font_family": "Consolas, \"Liberation Mono\", Menlo, Courier, monospace", "value_label_font_size": 10, "plot_background": "rgba(255, 255, 255, 1)", "ci_colors": [], "label_font_size": 10, "major_label_font_size": 10, "title_font_size": 16, "no_data_font_size": 64, "value_font_size": 16, "value_colors": [], "label_font_family": "Consolas, \"Liberation Mono\", Menlo, Courier, monospace", "major_guide_stroke_dasharray": "6,6", "transition": "150ms", "foreground_strong": "rgba(0, 0, 0, 1)", "colors": ["#e86fa0", "#e88f6f", "#e8df6f", "#a0e86f", "#6fe88f", "#6fe8df", "#6fa0e8", "#8f6fe8", "#df6fe8", "#e86fa0"], "opacity": ".7", "legend_font_size": 14, "value_label_font_family": "Consolas, \"Liberation Mono\", Menlo, Courier, monospace", "major_label_font_family": "Consolas, \"Liberation Mono\", Menlo, Courier, monospace"}, "x_labels_major_count": null, "interpolation_precision": 250, "missing_value_fill_truncation": "x", "stack_from_top": false, "truncate_legend": null, "show_minor_x_labels": true, "print_zeroes": true, "css": ["file://style.css", "file://graph.css"], "y_label_rotation": 0, "legend_at_bottom": false, "print_values": false, "margin_top": null, "max_scale": 16, "allow_interruptions": false, "show_x_labels": true, "strict": false, "show_x_guides": false, "stroke": true, "margin_left": null, "dynamic_print_values": false, "print_labels": false, "show_y_labels": true, "x_labels_major": null, "range": null, "x_label_rotation": 0, "margin": 20, "zero": 0, "include_x_axis": false, "height": 600, "show_minor_y_labels": true, "show_dots": true, "interpolate": "cubic", "show_y_guides": true, "y_labels_major": null, "box_mode": "extremes", "margin_bottom": null, "order_min": null, "legend_box_size": 12, "fill": true, "show_only_major_dots": false, "js": ["//kozea.github.io/pygal.js/2.0.x/pygal-tooltips.min.js"], "x_title": null, "y_labels_major_every": null, "y_labels_major_count": null, "disable_xml_declaration": false, "y_title": null, "logarithmic": false, "pretty_print": false, "min_scale": 4, "dots_size": 2.5, "margin_right": null, "legends": [null], "secondary_range": null, "show_legend": false}</script><script type="text/javascript" xlink:href="https://kozea.github.io/pygal.js/2.0.x/pygal-tooltips.min.js" /></defs><title>Pygal</title><g class="graph stackedline-graph vertical"><rect class="background" height="600" width="800" x="0" y="0" /><g class="plot" transform="translate(60, 20)"><rect class="background" height="540" width="720.0" x="0" y="0" /><g class="axis y"><path class="line" d="M0.000000 540.000000 h720.000000" /><g class="guides"><path class="guide line" d="M0.000000 464.030959 h720.000000" /><text class="" x="-5" y="467.5309594997658">800M</text><title>800M</title></g><g class="guides"><path class="guide line" d="M0.000000 392.035801 h720.000000" /><text class="" x="-5" y="395.5358010992933">900M</text><title>900M</title></g><g class="guides"><path class="major guide line" d="M0.000000 320.040643 h720.000000" /><text class="major" x="-5" y="323.54064269882076">1000M</text><title>1000M</title></g><g class="guides"><path class="guide line" d="M0.000000 248.045484 h720.000000" /><text class="" x="-5" y="251.54548429834819">1100M</text><title>1100M</title></g><g class="guides"><path class="guide line" d="M0.000000 176.050326 h720.000000" /><text class="" x="-5" y="179.55032589787567">1200M</text><title>1200M</title></g><g class="guides"><path class="guide line" d="M0.000000 104.055167 h720.000000" /><text class="" x="-5" y="107.55516749740309">1300M</text><title>1300M</title></g><g class="guides"><path class="guide line" d="M0.000000 32.060009 h720.000000" /><text class="" x="-5" y="35.56000909693057">1400M</text><title>1400M</title></g></g><g class="axis x"><g class="guides"><path class="line" d="M13.846154 0.000000 v540.000000" /><text class="" x="13.846153846153847" y="555.0">2549</text></g><g class="guides"><path class="guide line" d="M90.769231 0.000000 v540.000000" /><text class="" x="90.76923076923076" y="555.0">2550</text></g><g class="guides"><path class="guide line" d="M167.692308 0.000000 v540.000000" /><text class="" x="167.69230769230765" y="555.0">2551</text></g><g class="guides"><path class="guide line" d="M244.615385 0.000000 v540.000000" /><text class="" x="244.6153846153846" y="555.0">2552</text></g><g class="guides"><path class="guide line" d="M321.538462 0.000000 v540.000000" /><text class="" x="321.5384615384615" y="555.0">2553</text></g><g class="guides"><path class="guide line" d="M398.461538 0.000000 v540.000000" /><text class="" x="398.46153846153845" y="555.0">2554</text></g><g class="guides"><path class="guide line" d="M475.384615 0.000000 v540.000000" /><text class="" x="475.38461538461536" y="555.0">2555</text></g><g class="guides"><path class="guide line" d="M552.307692 0.000000 v540.000000" /><text class="" x="552.3076923076923" y="555.0">2556</text></g><g class="guides"><path class="guide line" d="M629.230769 0.000000 v540.000000" /><text class="" x="629.2307692307692" y="555.0">2557</text></g><g class="guides"><path class="guide line" d="M706.153846 0.000000 v540.000000" /><text class="" x="706.1538461538461" y="555.0">2558</text></g></g><g class="series serie-0 color-0"><path class="line reactive" d="M13.846154 540.000000 L13.846154 529.615385 14.153846 529.435812 14.461538 529.256242 14.769231 529.076678 15.076923 528.897121 15.384615 528.717574 15.692308 528.538040 16.000000 528.358521 16.307692 528.179020 16.615385 527.999540 16.923077 527.820082 17.230769 527.640650 17.538462 527.461246 17.846154 527.281873 18.153846 527.102533 18.461538 526.923229 18.769231 526.743963 19.076923 526.564738 19.384615 526.385556 19.692308 526.206420 20.000000 526.027333 20.307692 525.848297 20.615385 525.669314 20.923077 525.490388 21.230769 525.311520 21.538462 525.132713 21.846154 524.953971 22.153846 524.775295 22.461538 524.596687 22.769231 524.418151 23.076923 524.239690 23.384615 524.061304 23.692308 523.882998 24.000000 523.704774 24.307692 523.526634 24.615385 523.348581 24.923077 523.170617 25.230769 522.992745 25.538462 522.814967 25.846154 522.637287 26.153846 522.459706 26.461538 522.282227 26.769231 522.104853 27.076923 521.927586 27.384615 521.750429 27.692308 521.573384 28.000000 521.396454 28.307692 521.219642 28.615385 521.042949 28.923077 520.866379 29.230769 520.689935 29.538462 520.513618 29.846154 520.337431 30.153846 520.161376 30.461538 519.985458 30.769231 519.809677 31.076923 519.634036 31.384615 519.458538 31.692308 519.283186 32.000000 519.107982 32.307692 518.932929 32.615385 518.758029 32.923077 518.583284 33.230769 518.408698 33.538462 518.234273 33.846154 518.060011 34.153846 517.885915 34.461538 517.711988 34.769231 517.538232 35.076923 517.364649 35.384615 517.191242 35.692308 517.018014 36.000000 516.844968 36.307692 516.672105 36.615385 516.499429 36.923077 516.326941 37.230769 516.154645 37.538462 515.982543 37.846154 515.810638 38.153846 515.638932 38.461538 515.467427 38.769231 515.296127 39.076923 515.125033 39.384615 514.954149 39.692308 514.783477 40.000000 514.613019 40.307692 514.442779 40.615385 514.272758 40.923077 514.102959 41.230769 513.933384 41.538462 513.764037 41.846154 513.594920 42.153846 513.426035 42.461538 513.257385 42.769231 513.088972 43.076923 512.920799 43.384615 512.752869 43.692308 512.585184 44.000000 512.417747 44.307692 512.250560 44.615385 512.083625 44.923077 511.916946 45.230769 511.750525 45.538462 511.584364 45.846154 511.418466 46.153846 511.252834 46.461538 511.087470 46.769231 510.922376 47.076923 510.757556 47.384615 510.593011 47.692308 510.428745 48.000000 510.264759 48.307692 510.101057 48.615385 509.937641 48.923077 509.774513 49.230769 509.611676 49.538462 509.449133 49.846154 509.286887 50.153846 509.124938 50.461538 508.963291 50.769231 508.801948 51.076923 508.640912 51.384615 508.480184 51.692308 508.319768 52.000000 508.159665 52.307692 507.999880 52.615385 507.840413 52.923077 507.681268 53.230769 507.522448 53.538462 507.363954 53.846154 507.205790 54.153846 507.047957 54.461538 506.890459 54.769231 506.733298 55.076923 506.576477 55.384615 506.419997 55.692308 506.263863 56.000000 506.108075 56.307692 505.952637 56.615385 505.797552 56.923077 505.642822 57.230769 505.488449 57.538462 505.334435 57.846154 505.180785 58.153846 505.027500 58.461538 504.874582 58.769231 504.722034 59.076923 504.569859 59.384615 504.418060 59.692308 504.266638 60.000000 504.115597 60.307692 503.964939 60.615385 503.814666 60.923077 503.664782 61.230769 503.515288 61.538462 503.366187 61.846154 503.217482 62.153846 503.069175 62.461538 502.921269 62.769231 502.773766 63.076923 502.626670 63.384615 502.479981 63.692308 502.333704 64.000000 502.187841 64.307692 502.042394 64.615385 501.897365 64.923077 501.752758 65.230769 501.608574 65.538462 501.464817 65.846154 501.321489 66.153846 501.178592 66.461538 501.036129 66.769231 500.894103 67.076923 500.752516 67.384615 500.611371 67.692308 500.470670 68.000000 500.330416 68.307692 500.190611 68.615385 500.051258 68.923077 499.912359 69.230769 499.773918 69.538462 499.635936 69.846154 499.498416 70.153846 499.361361 70.461538 499.224773 70.769231 499.088655 71.076923 498.953009 71.384615 498.817838 71.692308 498.683144 72.000000 498.548931 72.307692 498.415200 72.615385 498.281954 72.923077 498.149195 73.230769 498.016927 73.538462 497.885152 73.846154 497.753872 74.153846 497.623090 74.461538 497.492808 74.769231 497.363029 75.076923 497.233756 75.384615 497.104991 75.692308 496.976736 76.000000 496.848995 76.307692 496.721769 76.615385 496.595062 76.923077 496.468875 77.230769 496.343212 77.538462 496.218075 77.846154 496.093466 78.153846 495.969388 78.461538 495.845844 78.769231 495.722837 79.076923 495.600367 79.384615 495.478439 79.692308 495.357055 80.000000 495.236218 80.307692 495.115929 80.615385 494.996191 80.923077 494.877008 81.230769 494.758381 81.538462 494.640314 81.846154 494.522808 82.153846 494.405866 82.461538 494.289491 82.769231 494.173686 83.076923 494.058452 83.384615 493.943793 83.692308 493.829711 84.000000 493.716208 84.307692 493.603288 84.615385 493.490952 84.923077 493.379203 85.230769 493.268044 85.538462 493.157478 85.846154 493.047506 86.153846 492.938132 86.461538 492.829358 86.769231 492.721186 87.076923 492.613619 87.384615 492.506661 87.692308 492.400312 88.000000 492.294576 88.307692 492.189455 88.615385 492.084952 88.923077 491.981070 89.230769 491.877810 89.538462 491.775176 89.846154 491.673170 90.153846 491.571795 90.461538 491.471053 90.769231 491.370947 91.076923 491.271477 91.384615 491.172640 91.692308 491.074429 92.000000 490.976839 92.307692 490.879863 92.615385 490.783495 92.923077 490.687730 93.230769 490.592561 93.538462 490.497983 93.846154 490.403989 94.153846 490.310574 94.461538 490.217732 94.769231 490.125456 95.076923 490.033741 95.384615 489.942581 95.692308 489.851969 96.000000 489.761900 96.307692 489.672368 96.615385 489.583367 96.923077 489.494891 97.230769 489.406933 97.538462 489.319489 97.846154 489.232551 98.153846 489.146115 98.461538 489.060173 98.769231 488.974721 99.076923 488.889751 99.384615 488.805259 99.692308 488.721238 100.000000 488.637682 100.307692 488.554585 100.615385 488.471941 100.923077 488.389745 101.230769 488.307990 101.538462 488.226670 101.846154 488.145780 102.153846 488.065313 102.461538 487.985264 102.769231 487.905626 103.076923 487.826393 103.384615 487.747560 103.692308 487.669120 104.000000 487.591069 104.307692 487.513398 104.615385 487.436103 104.923077 487.359178 105.230769 487.282617 105.538462 487.206413 105.846154 487.130561 106.153846 487.055055 106.461538 486.979889 106.769231 486.905057 107.076923 486.830552 107.384615 486.756369 107.692308 486.682503 108.000000 486.608946 108.307692 486.535693 108.615385 486.462739 108.923077 486.390076 109.230769 486.317699 109.538462 486.245603 109.846154 486.173781 110.153846 486.102227 110.461538 486.030935 110.769231 485.959899 111.076923 485.889114 111.384615 485.818573 111.692308 485.748270 112.000000 485.678200 112.307692 485.608356 112.615385 485.538732 112.923077 485.469323 113.230769 485.400123 113.538462 485.331125 113.846154 485.262323 114.153846 485.193712 114.461538 485.125286 114.769231 485.057038 115.076923 484.988963 115.384615 484.921055 115.692308 484.853308 116.000000 484.785715 116.307692 484.718271 116.615385 484.650970 116.923077 484.583806 117.230769 484.516772 117.538462 484.449864 117.846154 484.383074 118.153846 484.316398 118.461538 484.249828 118.769231 484.183360 119.076923 484.116987 119.384615 484.050702 119.692308 483.984501 120.000000 483.918377 120.307692 483.852325 120.615385 483.786337 120.923077 483.720409 121.230769 483.654534 121.538462 483.588706 121.846154 483.522920 122.153846 483.457169 122.461538 483.391448 122.769231 483.325750 123.076923 483.260069 123.384615 483.194400 123.692308 483.128737 124.000000 483.063073 124.307692 482.997402 124.615385 482.931719 124.923077 482.866018 125.230769 482.800293 125.538462 482.734537 125.846154 482.668745 126.153846 482.602911 126.461538 482.537029 126.769231 482.471093 127.076923 482.405096 127.384615 482.339033 127.692308 482.272899 128.000000 482.206686 128.307692 482.140389 128.615385 482.074002 128.923077 482.007520 129.230769 481.940935 129.538462 481.874243 129.846154 481.807436 130.153846 481.740510 130.461538 481.673458 130.769231 481.606274 131.076923 481.538953 131.384615 481.471488 131.692308 481.403873 132.000000 481.336103 132.307692 481.268171 132.615385 481.200071 132.923077 481.131798 133.230769 481.063345 133.538462 480.994707 133.846154 480.925878 134.153846 480.856851 134.461538 480.787620 134.769231 480.718181 135.076923 480.648525 135.384615 480.578649 135.692308 480.508546 136.000000 480.438209 136.307692 480.367633 136.615385 480.296811 136.923077 480.225739 137.230769 480.154410 137.538462 480.082817 137.846154 480.010955 138.153846 479.938819 138.461538 479.866401 138.769231 479.793696 139.076923 479.720699 139.384615 479.647403 139.692308 479.573801 140.000000 479.499889 140.307692 479.425660 140.615385 479.351109 140.923077 479.276228 141.230769 479.201013 141.538462 479.125457 141.846154 479.049555 142.153846 478.973300 142.461538 478.896686 142.769231 478.819708 143.076923 478.742359 143.384615 478.664634 143.692308 478.586526 144.000000 478.508030 144.307692 478.429139 144.615385 478.349848 144.923077 478.270151 145.230769 478.190041 145.538462 478.109513 145.846154 478.028561 146.153846 477.947179 146.461538 477.865360 146.769231 477.783100 147.076923 477.700391 147.384615 477.617228 147.692308 477.533605 148.000000 477.449516 148.307692 477.364955 148.615385 477.279916 148.923077 477.194393 149.230769 477.108380 149.538462 477.021871 149.846154 476.934861 150.153846 476.847342 150.461538 476.759310 150.769231 476.670758 151.076923 476.581680 151.384615 476.492071 151.692308 476.401924 152.000000 476.311233 152.307692 476.219993 152.615385 476.128197 152.923077 476.035839 153.230769 475.942914 153.538462 475.849416 153.846154 475.755338 154.153846 475.660675 154.461538 475.565420 154.769231 475.469568 155.076923 475.373113 155.384615 475.276048 155.692308 475.178368 156.000000 475.080067 156.307692 474.981138 156.615385 474.881577 156.923077 474.781376 157.230769 474.680530 157.538462 474.579033 157.846154 474.476879 158.153846 474.374062 158.461538 474.270576 158.769231 474.166415 159.076923 474.061573 159.384615 473.956044 159.692308 473.849823 160.000000 473.742902 160.307692 473.635277 160.615385 473.526941 160.923077 473.417888 161.230769 473.308112 161.538462 473.197608 161.846154 473.086369 162.153846 472.974390 162.461538 472.861664 162.769231 472.748185 163.076923 472.633948 163.384615 472.518946 163.692308 472.403174 164.000000 472.286625 164.307692 472.169294 164.615385 472.051175 164.923077 471.932261 165.230769 471.812547 165.538462 471.692027 165.846154 471.570694 166.153846 471.448543 166.461538 471.325568 166.769231 471.201763 167.076923 471.077122 167.384615 470.951638 167.692308 470.825307 168.000000 470.698122 168.307692 470.570084 168.615385 470.441192 168.923077 470.311446 169.230769 470.180847 169.538462 470.049395 169.846154 469.917090 170.153846 469.783932 170.461538 469.649921 170.769231 469.515058 171.076923 469.379343 171.384615 469.242775 171.692308 469.105355 172.000000 468.967084 172.307692 468.827961 172.615385 468.687986 172.923077 468.547161 173.230769 468.405484 173.538462 468.262956 173.846154 468.119577 174.153846 467.975348 174.461538 467.830268 174.769231 467.684338 175.076923 467.537558 175.384615 467.389928 175.692308 467.241448 176.000000 467.092119 176.307692 466.941940 176.615385 466.790912 176.923077 466.639035 177.230769 466.486309 177.538462 466.332735 177.846154 466.178312 178.153846 466.023040 178.461538 465.866920 178.769231 465.709952 179.076923 465.552137 179.384615 465.393473 179.692308 465.233963 180.000000 465.073604 180.307692 464.912399 180.615385 464.750347 180.923077 464.587447 181.230769 464.423701 181.538462 464.259109 181.846154 464.093670 182.153846 463.927385 182.461538 463.760255 182.769231 463.592278 183.076923 463.423456 183.384615 463.253788 183.692308 463.083275 184.000000 462.911917 184.307692 462.739714 184.615385 462.566666 184.923077 462.392773 185.230769 462.218037 185.538462 462.042455 185.846154 461.866030 186.153846 461.688761 186.461538 461.510648 186.769231 461.331692 187.076923 461.151892 187.384615 460.971249 187.692308 460.789763 188.000000 460.607434 188.307692 460.424262 188.615385 460.240248 188.923077 460.055391 189.230769 459.869692 189.538462 459.683151 189.846154 459.495768 190.153846 459.307544 190.461538 459.118478 190.769231 458.928571 191.076923 458.737822 191.384615 458.546233 191.692308 458.353803 192.000000 458.160532 192.307692 457.966420 192.615385 457.771469 192.923077 457.575677 193.230769 457.379045 193.538462 457.181573 193.846154 456.983262 194.153846 456.784111 194.461538 456.584121 194.769231 456.383292 195.076923 456.181624 195.384615 455.979117 195.692308 455.775772 196.000000 455.571588 196.307692 455.366566 196.615385 455.160706 196.923077 454.954008 197.230769 454.746472 197.538462 454.538098 197.846154 454.328888 198.153846 454.118840 198.461538 453.907955 198.769231 453.696233 199.076923 453.483674 199.384615 453.270279 199.692308 453.056047 200.000000 452.840980 200.307692 452.625076 200.615385 452.408336 200.923077 452.190761 201.230769 451.972350 201.538462 451.753104 201.846154 451.533023 202.153846 451.312106 202.461538 451.090355 202.769231 450.867770 203.076923 450.644349 203.384615 450.420095 203.692308 450.195006 204.000000 449.969084 204.307692 449.742327 204.615385 449.514737 204.923077 449.286314 205.230769 449.057057 205.538462 448.826967 205.846154 448.596044 206.153846 448.364289 206.461538 448.131700 206.769231 447.898280 207.076923 447.664027 207.384615 447.428942 207.692308 447.193025 208.000000 446.956277 208.307692 446.718697 208.615385 446.480285 208.923077 446.241042 209.230769 446.000969 209.538462 445.760064 209.846154 445.518329 210.153846 445.275763 210.461538 445.032367 210.769231 444.788140 211.076923 444.543084 211.384615 444.297198 211.692308 444.050482 212.000000 443.802936 212.307692 443.554562 212.615385 443.305358 212.923077 443.055325 213.230769 442.804463 213.538462 442.552773 213.846154 442.300254 214.153846 442.046907 214.461538 441.792731 214.769231 441.537728 215.076923 441.281897 215.384615 441.025239 215.692308 440.767752 216.000000 440.509439 216.307692 440.250299 216.615385 439.990331 216.923077 439.729537 217.230769 439.467917 217.538462 439.205469 217.846154 438.942196 218.153846 438.678097 218.461538 438.413171 218.769231 438.147420 219.076923 437.880844 219.384615 437.613442 219.692308 437.345215 220.000000 437.076162 220.307692 436.806285 220.615385 436.535583 220.923077 436.264057 221.230769 435.991706 221.538462 435.718532 221.846154 435.444533 222.153846 435.169710 222.461538 434.894064 222.769231 434.617594 223.076923 434.340301 223.384615 434.062184 223.692308 433.783245 224.000000 433.503483 224.307692 433.222898 224.615385 432.941491 224.923077 432.659261 225.230769 432.376210 225.538462 432.092336 225.846154 431.807641 226.153846 431.522124 226.461538 431.235785 226.769231 430.948626 227.076923 430.660645 227.384615 430.371843 227.692308 430.082221 228.000000 429.791778 228.307692 429.500514 228.615385 429.208431 228.923077 428.915527 229.230769 428.621803 229.538462 428.327260 229.846154 428.031897 230.153846 427.735715 230.461538 427.438713 230.769231 427.140893 231.076923 426.842253 231.384615 426.542795 231.692308 426.242519 232.000000 425.941424 232.307692 425.639511 232.615385 425.336780 232.923077 425.033231 233.230769 424.728864 233.538462 424.423680 233.846154 424.117679 234.153846 423.810860 234.461538 423.503225 234.769231 423.194772 235.076923 422.885503 235.384615 422.575418 235.692308 422.264516 236.000000 421.952799 236.307692 421.640265 236.615385 421.326915 236.923077 421.012750 237.230769 420.697770 237.538462 420.381974 237.846154 420.065363 238.153846 419.747937 238.461538 419.429696 238.769231 419.110641 239.076923 418.790772 239.384615 418.470088 239.692308 418.148590 240.000000 417.826278 240.307692 417.503153 240.615385 417.179214 240.923077 416.854462 241.230769 416.528896 241.538462 416.202518 241.846154 415.875326 242.153846 415.547322 242.461538 415.218506 242.769231 414.888877 243.076923 414.558435 243.384615 414.227182 243.692308 413.895117 244.000000 413.562241 244.307692 413.228553 244.615385 412.894053 244.923077 412.558745 245.230769 412.222638 245.538462 411.885744 245.846154 411.548077 246.153846 411.209649 246.461538 410.870471 246.769231 410.530558 247.076923 410.189920 247.384615 409.848571 247.692308 409.506523 248.000000 409.163788 248.307692 408.820380 248.615385 408.476309 248.923077 408.131590 249.230769 407.786234 249.538462 407.440253 249.846154 407.093661 250.153846 406.746469 250.461538 406.398691 250.769231 406.050338 251.076923 405.701423 251.384615 405.351959 251.692308 405.001958 252.000000 404.651432 252.307692 404.300394 252.615385 403.948856 252.923077 403.596831 253.230769 403.244332 253.538462 402.891370 253.846154 402.537958 254.153846 402.184109 254.461538 401.829835 254.769231 401.475148 255.076923 401.120062 255.384615 400.764588 255.692308 400.408739 256.000000 400.052528 256.307692 399.695966 256.615385 399.339066 256.923077 398.981842 257.230769 398.624304 257.538462 398.266467 257.846154 397.908341 258.153846 397.549940 258.461538 397.191276 258.769231 396.832362 259.076923 396.473210 259.384615 396.113832 259.692308 395.754241 260.000000 395.394449 260.307692 395.034469 260.615385 394.674314 260.923077 394.313995 261.230769 393.953526 261.538462 393.592918 261.846154 393.232184 262.153846 392.871337 262.461538 392.510389 262.769231 392.149352 263.076923 391.788239 263.384615 391.427063 263.692308 391.065836 264.000000 390.704570 264.307692 390.343278 264.615385 389.981972 264.923077 389.620664 265.230769 389.259368 265.538462 388.898096 265.846154 388.536860 266.153846 388.175672 266.461538 387.814545 266.769231 387.453492 267.076923 387.092525 267.384615 386.731656 267.692308 386.370898 268.000000 386.010263 268.307692 385.649764 268.615385 385.289413 268.923077 384.929223 269.230769 384.569206 269.538462 384.209375 269.846154 383.849741 270.153846 383.490319 270.461538 383.131119 270.769231 382.772155 271.076923 382.413438 271.384615 382.054982 271.692308 381.696799 272.000000 381.338901 272.307692 380.981301 272.615385 380.624011 272.923077 380.267044 273.230769 379.910411 273.538462 379.554127 273.846154 379.198202 274.153846 378.842650 274.461538 378.487483 274.769231 378.132713 275.076923 377.778353 275.384615 377.424416 275.692308 377.070913 276.000000 376.717858 276.307692 376.365262 276.615385 376.013139 276.923077 375.661500 277.230769 375.310358 277.538462 374.959726 277.846154 374.609615 278.153846 374.260040 278.461538 373.911011 278.769231 373.562541 279.076923 373.214644 279.384615 372.867330 279.692308 372.520614 280.000000 372.174507 280.307692 371.829021 280.615385 371.484169 280.923077 371.139965 281.230769 370.796419 281.538462 370.453545 281.846154 370.111354 282.153846 369.769860 282.461538 369.429075 282.769231 369.089012 283.076923 368.749682 283.384615 368.411099 283.692308 368.073274 284.000000 367.736220 284.307692 367.399950 284.615385 367.064477 284.923077 366.729812 285.230769 366.395967 285.538462 366.062957 285.846154 365.730792 286.153846 365.399486 286.461538 365.069050 286.769231 364.739498 287.076923 364.410842 287.384615 364.083094 287.692308 363.756267 288.000000 363.430372 288.307692 363.105424 288.615385 362.781433 288.923077 362.458414 289.230769 362.136377 289.538462 361.815335 289.846154 361.495302 290.153846 361.176289 290.461538 360.858308 290.769231 360.541373 291.076923 360.225496 291.384615 359.910689 291.692308 359.596965 292.000000 359.284336 292.307692 358.972814 292.615385 358.662413 292.923077 358.353144 293.230769 358.045020 293.538462 357.738053 293.846154 357.432257 294.153846 357.127643 294.461538 356.824223 294.769231 356.522011 295.076923 356.221018 295.384615 355.921258 295.692308 355.622743 296.000000 355.325484 296.307692 355.029495 296.615385 354.734788 296.923077 354.441376 297.230769 354.149271 297.538462 353.858485 297.846154 353.569030 298.153846 353.280921 298.461538 352.994168 298.769231 352.708784 299.076923 352.424782 299.384615 352.142174 299.692308 351.860973 300.000000 351.581190 300.307692 351.302840 300.615385 351.025933 300.923077 350.750483 301.230769 350.476502 301.538462 350.204002 301.846154 349.932996 302.153846 349.663496 302.461538 349.395515 302.769231 349.129065 303.076923 348.864159 303.384615 348.600809 303.692308 348.339028 304.000000 348.078828 304.307692 347.820221 304.615385 347.563220 304.923077 347.307838 305.230769 347.054086 305.538462 346.801978 305.846154 346.551526 306.153846 346.302742 306.461538 346.055639 306.769231 345.810228 307.076923 345.566524 307.384615 345.324538 307.692308 345.084282 308.000000 344.845769 308.307692 344.609012 308.615385 344.374023 308.923077 344.140814 309.230769 343.909398 309.538462 343.679787 309.846154 343.451994 310.153846 343.226031 310.461538 343.001912 310.769231 342.779647 311.076923 342.559250 311.384615 342.340732 311.692308 342.124108 312.000000 341.909388 312.307692 341.696586 312.615385 341.485714 312.923077 341.276784 313.230769 341.069809 313.538462 340.864802 313.846154 340.661774 314.153846 340.460738 314.461538 340.261707 314.769231 340.064693 315.076923 339.869709 315.384615 339.676767 315.692308 339.485879 316.000000 339.297058 316.307692 339.110317 316.615385 338.925668 316.923077 338.743123 317.230769 338.562694 317.538462 338.384395 317.846154 338.208238 318.153846 338.034235 318.461538 337.862399 318.769231 337.692741 319.076923 337.525275 319.384615 337.360014 319.692308 337.196969 320.000000 337.036152 320.307692 336.877577 320.615385 336.721256 320.923077 336.567202 321.230769 336.415426 321.538462 336.265941 321.846154 336.118755 322.153846 335.973852 322.461538 335.831215 322.769231 335.690822 323.076923 335.552654 323.384615 335.416691 323.692308 335.282915 324.000000 335.151304 324.307692 335.021841 324.615385 334.894504 324.923077 334.769275 325.230769 334.646133 325.538462 334.525059 325.846154 334.406034 326.153846 334.289038 326.461538 334.174050 326.769231 334.061052 327.076923 333.950025 327.384615 333.840947 327.692308 333.733800 328.000000 333.628563 328.307692 333.525219 328.615385 333.423745 328.923077 333.324124 329.230769 333.226336 329.538462 333.130360 329.846154 333.036177 330.153846 332.943767 330.461538 332.853112 330.769231 332.764190 331.076923 332.676984 331.384615 332.591472 331.692308 332.507635 332.000000 332.425455 332.307692 332.344910 332.615385 332.265981 332.923077 332.188650 333.230769 332.112895 333.538462 332.038698 333.846154 331.966039 334.153846 331.894898 334.461538 331.825256 334.769231 331.757092 335.076923 331.690388 335.384615 331.625123 335.692308 331.561279 336.000000 331.498835 336.307692 331.437771 336.615385 331.378069 336.923077 331.319708 337.230769 331.262669 337.538462 331.206932 337.846154 331.152478 338.153846 331.099286 338.461538 331.047338 338.769231 330.996614 339.076923 330.947093 339.384615 330.898757 339.692308 330.851586 340.000000 330.805560 340.307692 330.760659 340.615385 330.716864 340.923077 330.674155 341.230769 330.632513 341.538462 330.591917 341.846154 330.552349 342.153846 330.513789 342.461538 330.476216 342.769231 330.439612 343.076923 330.403957 343.384615 330.369230 343.692308 330.335414 344.000000 330.302487 344.307692 330.270430 344.615385 330.239223 344.923077 330.208848 345.230769 330.179284 345.538462 330.150511 345.846154 330.122510 346.153846 330.095262 346.461538 330.068746 346.769231 330.042944 347.076923 330.017835 347.384615 329.993400 347.692308 329.969618 348.000000 329.946472 348.307692 329.923940 348.615385 329.902004 348.923077 329.880643 349.230769 329.859838 349.538462 329.839569 349.846154 329.819817 350.153846 329.800563 350.461538 329.781785 350.769231 329.763466 351.076923 329.745584 351.384615 329.728121 351.692308 329.711057 352.000000 329.694372 352.307692 329.678047 352.615385 329.662061 352.923077 329.646396 353.230769 329.631032 353.538462 329.615949 353.846154 329.601127 354.153846 329.586547 354.461538 329.572189 354.769231 329.558033 355.076923 329.544061 355.384615 329.530251 355.692308 329.516586 356.000000 329.503044 356.307692 329.489606 356.615385 329.476253 356.923077 329.462966 357.230769 329.449723 357.538462 329.436506 357.846154 329.423296 358.153846 329.410072 358.461538 329.396814 358.769231 329.383504 359.076923 329.370122 359.384615 329.356647 359.692308 329.343061 360.000000 329.329344 360.307692 329.315475 360.615385 329.301436 360.923077 329.287207 361.230769 329.272767 361.538462 329.258098 361.846154 329.243180 362.153846 329.227994 362.461538 329.212518 362.769231 329.196735 363.076923 329.180624 363.384615 329.164166 363.692308 329.147340 364.000000 329.130128 364.307692 329.112510 364.615385 329.094466 364.923077 329.075976 365.230769 329.057021 365.538462 329.037581 365.846154 329.017637 366.153846 328.997169 366.461538 328.976157 366.769231 328.954582 367.076923 328.932423 367.384615 328.909662 367.692308 328.886279 368.000000 328.862254 368.307692 328.837567 368.615385 328.812199 368.923077 328.786130 369.230769 328.759341 369.538462 328.731812 369.846154 328.703523 370.153846 328.674454 370.461538 328.644587 370.769231 328.613901 371.076923 328.582377 371.384615 328.549994 371.692308 328.516734 372.000000 328.482577 372.307692 328.447503 372.615385 328.411493 372.923077 328.374526 373.230769 328.336584 373.538462 328.297647 373.846154 328.257694 374.153846 328.216707 374.461538 328.174665 374.769231 328.131549 375.076923 328.087340 375.384615 328.042018 375.692308 327.995563 376.000000 327.947955 376.307692 327.899175 376.615385 327.849204 376.923077 327.798021 377.230769 327.745607 377.538462 327.691942 377.846154 327.637007 378.153846 327.580782 378.461538 327.523248 378.769231 327.464384 379.076923 327.404171 379.384615 327.342590 379.692308 327.279621 380.000000 327.215244 380.307692 327.149439 380.615385 327.082188 380.923077 327.013470 381.230769 326.943265 381.538462 326.871555 381.846154 326.798319 382.153846 326.723537 382.461538 326.647191 382.769231 326.569261 383.076923 326.489726 383.384615 326.408567 383.692308 326.325765 384.000000 326.241300 384.307692 326.155152 384.615385 326.067302 384.923077 325.977730 385.230769 325.886416 385.538462 325.793341 385.846154 325.698485 386.153846 325.601829 386.461538 325.503353 386.769231 325.403036 387.076923 325.300860 387.384615 325.196806 387.692308 325.090852 388.000000 324.982980 388.307692 324.873170 388.615385 324.761403 388.923077 324.647658 389.230769 324.531916 389.538462 324.414158 389.846154 324.294364 390.153846 324.172514 390.461538 324.048588 390.769231 323.922567 391.076923 323.794432 391.384615 323.664162 391.692308 323.531738 392.000000 323.397141 392.307692 323.260350 392.615385 323.121347 392.923077 322.980111 393.230769 322.836622 393.538462 322.690862 393.846154 322.542811 394.153846 322.392448 394.461538 322.239754 394.769231 322.084711 395.076923 321.927297 395.384615 321.767493 395.692308 321.605281 396.000000 321.440639 396.307692 321.273549 396.615385 321.103990 396.923077 320.931944 397.230769 320.757390 397.538462 320.580310 397.846154 320.400682 398.153846 320.218488 398.461538 320.033708 398.769231 319.846328 399.076923 319.656357 399.384615 319.463809 399.692308 319.268699 400.000000 319.071040 400.307692 318.870849 400.615385 318.668138 400.923077 318.462922 401.230769 318.255217 401.538462 318.045035 401.846154 317.832392 402.153846 317.617302 402.461538 317.399780 402.769231 317.179840 403.076923 316.957496 403.384615 316.732762 403.692308 316.505654 404.000000 316.276186 404.307692 316.044372 404.615385 315.810226 404.923077 315.573763 405.230769 315.334998 405.538462 315.093944 405.846154 314.850616 406.153846 314.605030 406.461538 314.357198 406.769231 314.107136 407.076923 313.854857 407.384615 313.600378 407.692308 313.343710 408.000000 313.084871 408.307692 312.823872 408.615385 312.560730 408.923077 312.295459 409.230769 312.028072 409.538462 311.758585 409.846154 311.487012 410.153846 311.213366 410.461538 310.937664 410.769231 310.659918 411.076923 310.380145 411.384615 310.098357 411.692308 309.814569 412.000000 309.528796 412.307692 309.241053 412.615385 308.951353 412.923077 308.659712 413.230769 308.366142 413.538462 308.070660 413.846154 307.773280 414.153846 307.474015 414.461538 307.172880 414.769231 306.869890 415.076923 306.565059 415.384615 306.258402 415.692308 305.949932 416.000000 305.639666 416.307692 305.327615 416.615385 305.013797 416.923077 304.698223 417.230769 304.380910 417.538462 304.061872 417.846154 303.741123 418.153846 303.418676 418.461538 303.094548 418.769231 302.768752 419.076923 302.441303 419.384615 302.112215 419.692308 301.781502 420.000000 301.449180 420.307692 301.115262 420.615385 300.779763 420.923077 300.442697 421.230769 300.104078 421.538462 299.763922 421.846154 299.422243 422.153846 299.079054 422.461538 298.734371 422.769231 298.388208 423.076923 298.040579 423.384615 297.691498 423.692308 297.340981 424.000000 296.989042 424.307692 296.635694 424.615385 296.280953 424.923077 295.924833 425.230769 295.567348 425.538462 295.208513 425.846154 294.848342 426.153846 294.486849 426.461538 294.124050 426.769231 293.759958 427.076923 293.394588 427.384615 293.027954 427.692308 292.660071 428.000000 292.290953 428.307692 291.920615 428.615385 291.549070 428.923077 291.176334 429.230769 290.802422 429.538462 290.427346 429.846154 290.051122 430.153846 289.673764 430.461538 289.295287 430.769231 288.915705 431.076923 288.535032 431.384615 288.153284 431.692308 287.770473 432.000000 287.386616 432.307692 287.001725 432.615385 286.615816 432.923077 286.228903 433.230769 285.841001 433.538462 285.452124 433.846154 285.062286 434.153846 284.671501 434.461538 284.279785 434.769231 283.887151 435.076923 283.493615 435.384615 283.099190 435.692308 282.703891 436.000000 282.307732 436.307692 281.910728 436.615385 281.512893 436.923077 281.114242 437.230769 280.714789 437.538462 280.314548 437.846154 279.913534 438.153846 279.511762 438.461538 279.109245 438.769231 278.705999 439.076923 278.302037 439.384615 277.897374 439.692308 277.492025 440.000000 277.086004 440.307692 276.679325 440.615385 276.272003 440.923077 275.864052 441.230769 275.455487 441.538462 275.046321 441.846154 274.636571 442.153846 274.226249 442.461538 273.815370 442.769231 273.403950 443.076923 272.992001 443.384615 272.579540 443.692308 272.166579 444.000000 271.753134 444.307692 271.339218 444.615385 270.924848 444.923077 270.510035 445.230769 270.094797 445.538462 269.679145 445.846154 269.263096 446.153846 268.846664 446.461538 268.429862 446.769231 268.012706 447.076923 267.595209 447.384615 267.177387 447.692308 266.759254 448.000000 266.340823 448.307692 265.922110 448.615385 265.503129 448.923077 265.083895 449.230769 264.664421 449.538462 264.244722 449.846154 263.824814 450.153846 263.404709 450.461538 262.984423 450.769231 262.563969 451.076923 262.143363 451.384615 261.722619 451.692308 261.301752 452.000000 260.880775 452.307692 260.459703 452.615385 260.038550 452.923077 259.617332 453.230769 259.196062 453.538462 258.774754 453.846154 258.353424 454.153846 257.932086 454.461538 257.510754 454.769231 257.089442 455.076923 256.668166 455.384615 256.246938 455.692308 255.825775 456.000000 255.404690 456.307692 254.983697 456.615385 254.562812 456.923077 254.142048 457.230769 253.721421 457.538462 253.300943 457.846154 252.880631 458.153846 252.460498 458.461538 252.040558 458.769231 251.620827 459.076923 251.201318 459.384615 250.782046 459.692308 250.363026 460.000000 249.944271 460.307692 249.525797 460.615385 249.107617 460.923077 248.689747 461.230769 248.272200 461.538462 247.854991 461.846154 247.438135 462.153846 247.021646 462.461538 246.605537 462.769231 246.189825 463.076923 245.774523 463.384615 245.359645 463.692308 244.945206 464.000000 244.531221 464.307692 244.117703 464.615385 243.704668 464.923077 243.292130 465.230769 242.880102 465.538462 242.468601 465.846154 242.057639 466.153846 241.647232 466.461538 241.237394 466.769231 240.828139 467.076923 240.419481 467.384615 240.011436 467.692308 239.604018 468.000000 239.197240 468.307692 238.791118 468.615385 238.385666 468.923077 237.980898 469.230769 237.576829 469.538462 237.173473 469.846154 236.770845 470.153846 236.368959 470.461538 235.967829 470.769231 235.567470 471.076923 235.167896 471.384615 234.769123 471.692308 234.371163 472.000000 233.974032 472.307692 233.577744 472.615385 233.182314 472.923077 232.787755 473.230769 232.394083 473.538462 232.001311 473.846154 231.609455 474.153846 231.218528 474.461538 230.828545 474.769231 230.439521 475.076923 230.051470 475.384615 229.664406 475.692308 229.278341 476.000000 228.893277 476.307692 228.509210 476.615385 228.126140 476.923077 227.744065 477.230769 227.362983 477.538462 226.982893 477.846154 226.603792 478.153846 226.225679 478.461538 225.848552 478.769231 225.472409 479.076923 225.097250 479.384615 224.723071 479.692308 224.349872 480.000000 223.977650 480.307692 223.606404 480.615385 223.236132 480.923077 222.866832 481.230769 222.498503 481.538462 222.131143 481.846154 221.764750 482.153846 221.399323 482.461538 221.034859 482.769231 220.671357 483.076923 220.308815 483.384615 219.947232 483.692308 219.586606 484.000000 219.226934 484.307692 218.868216 484.615385 218.510450 484.923077 218.153633 485.230769 217.797764 485.538462 217.442842 485.846154 217.088865 486.153846 216.735830 486.461538 216.383736 486.769231 216.032582 487.076923 215.682366 487.384615 215.333086 487.692308 214.984740 488.000000 214.637326 488.307692 214.290843 488.615385 213.945290 488.923077 213.600663 489.230769 213.256963 489.538462 212.914186 489.846154 212.572331 490.153846 212.231397 490.461538 211.891381 490.769231 211.552282 491.076923 211.214099 491.384615 210.876829 491.692308 210.540471 492.000000 210.205022 492.307692 209.870482 492.615385 209.536849 492.923077 209.204120 493.230769 208.872295 493.538462 208.541371 493.846154 208.211346 494.153846 207.882220 494.461538 207.553989 494.769231 207.226653 495.076923 206.900210 495.384615 206.574658 495.692308 206.249995 496.000000 205.926219 496.307692 205.603330 496.615385 205.281324 496.923077 204.960201 497.230769 204.639958 497.538462 204.320594 497.846154 204.002107 498.153846 203.684496 498.461538 203.367758 498.769231 203.051893 499.076923 202.736897 499.384615 202.422770 499.692308 202.109510 500.000000 201.797114 500.307692 201.485582 500.615385 201.174912 500.923077 200.865101 501.230769 200.556149 501.538462 200.248053 501.846154 199.940811 502.153846 199.634422 502.461538 199.328885 502.769231 199.024197 503.076923 198.720356 503.384615 198.417362 503.692308 198.115212 504.000000 197.813904 504.307692 197.513437 504.615385 197.213809 504.923077 196.915019 505.230769 196.617064 505.538462 196.319943 505.846154 196.023654 506.153846 195.728195 506.461538 195.433565 506.769231 195.139762 507.076923 194.846785 507.384615 194.554630 507.692308 194.263298 508.000000 193.972785 508.307692 193.683091 508.615385 193.394213 508.923077 193.106150 509.230769 192.818900 509.538462 192.532462 509.846154 192.246833 510.153846 191.962012 510.461538 191.677997 510.769231 191.394786 511.076923 191.112379 511.384615 190.830772 511.692308 190.549964 512.000000 190.269954 512.307692 189.990740 512.615385 189.712320 512.923077 189.434692 513.230769 189.157854 513.538462 188.881806 513.846154 188.606544 514.153846 188.332068 514.461538 188.058376 514.769231 187.785465 515.076923 187.513335 515.384615 187.241983 515.692308 186.971408 516.000000 186.701608 516.307692 186.432581 516.615385 186.164326 516.923077 185.896840 517.230769 185.630123 517.538462 185.364172 517.846154 185.098985 518.153846 184.834562 518.461538 184.570899 518.769231 184.307996 519.076923 184.045851 519.384615 183.784462 519.692308 183.523826 520.000000 183.263944 520.307692 183.004812 520.615385 182.746429 520.923077 182.488793 521.230769 182.231903 521.538462 181.975757 521.846154 181.720353 522.153846 181.465689 522.461538 181.211764 522.769231 180.958576 523.076923 180.706123 523.384615 180.454403 523.692308 180.203416 524.000000 179.953158 524.307692 179.703628 524.615385 179.454825 524.923077 179.206747 525.230769 178.959392 525.538462 178.712758 525.846154 178.466843 526.153846 178.221647 526.461538 177.977167 526.769231 177.733401 527.076923 177.490348 527.384615 177.248005 527.692308 177.006372 528.000000 176.765447 528.307692 176.525227 528.615385 176.285711 528.923077 176.046898 529.230769 175.808785 529.538462 175.571371 529.846154 175.334654 530.153846 175.098632 530.461538 174.863304 530.769231 174.628668 531.076923 174.394722 531.384615 174.161465 531.692308 173.928894 532.000000 173.697008 532.307692 173.465806 532.615385 173.235284 532.923077 173.005443 533.230769 172.776280 533.538462 172.547793 533.846154 172.319981 534.153846 172.092841 534.461538 171.866373 534.769231 171.640574 535.076923 171.415443 535.384615 171.190978 535.692308 170.967177 536.000000 170.744038 536.307692 170.521560 536.615385 170.299741 536.923077 170.078580 537.230769 169.858074 537.538462 169.638221 537.846154 169.419021 538.153846 169.200471 538.461538 168.982570 538.769231 168.765316 539.076923 168.548707 539.384615 168.332741 539.692308 168.117417 540.000000 167.902733 540.307692 167.688688 540.615385 167.475278 540.923077 167.262504 541.230769 167.050362 541.538462 166.838852 541.846154 166.627972 542.153846 166.417719 542.461538 166.208093 542.769231 165.999090 543.076923 165.790711 543.384615 165.582952 543.692308 165.375813 544.000000 165.169291 544.307692 164.963385 544.615385 164.758093 544.923077 164.553413 545.230769 164.349343 545.538462 164.145883 545.846154 163.943029 546.153846 163.740781 546.461538 163.539137 546.769231 163.338094 547.076923 163.137651 547.384615 162.937807 547.692308 162.738560 548.000000 162.539908 548.307692 162.341848 548.615385 162.144381 548.923077 161.947503 549.230769 161.751213 549.538462 161.555509 549.846154 161.360390 550.153846 161.165854 550.461538 160.971899 550.769231 160.778523 551.076923 160.585725 551.384615 160.393503 551.692308 160.201855 552.000000 160.010780 552.307692 159.820275 552.615385 159.630338 552.923077 159.440963 553.230769 159.252141 553.538462 159.063866 553.846154 158.876129 554.153846 158.688922 554.461538 158.502239 554.769231 158.316071 555.076923 158.130411 555.384615 157.945251 555.692308 157.760583 556.000000 157.576400 556.307692 157.392695 556.615385 157.209459 556.923077 157.026685 557.230769 156.844365 557.538462 156.662492 557.846154 156.481058 558.153846 156.300055 558.461538 156.119476 558.769231 155.939313 559.076923 155.759558 559.384615 155.580203 559.692308 155.401242 560.000000 155.222667 560.307692 155.044469 560.615385 154.866641 560.923077 154.689175 561.230769 154.512065 561.538462 154.335301 561.846154 154.158878 562.153846 153.982786 562.461538 153.807018 562.769231 153.631566 563.076923 153.456424 563.384615 153.281583 563.692308 153.107035 564.000000 152.932774 564.307692 152.758791 564.615385 152.585078 564.923077 152.411629 565.230769 152.238435 565.538462 152.065488 565.846154 151.892782 566.153846 151.720308 566.461538 151.548059 566.769231 151.376026 567.076923 151.204204 567.384615 151.032583 567.692308 150.861156 568.000000 150.689916 568.307692 150.518855 568.615385 150.347965 568.923077 150.177239 569.230769 150.006668 569.538462 149.836246 569.846154 149.665964 570.153846 149.495816 570.461538 149.325792 570.769231 149.155887 571.076923 148.986091 571.384615 148.816398 571.692308 148.646799 572.000000 148.477288 572.307692 148.307856 572.615385 148.138496 572.923077 147.969200 573.230769 147.799960 573.538462 147.630769 573.846154 147.461620 574.153846 147.292504 574.461538 147.123413 574.769231 146.954341 575.076923 146.785280 575.384615 146.616222 575.692308 146.447158 576.000000 146.278083 576.307692 146.108987 576.615385 145.939864 576.923077 145.770706 577.230769 145.601504 577.538462 145.432252 577.846154 145.262942 578.153846 145.093566 578.461538 144.924116 578.769231 144.754585 579.076923 144.584965 579.384615 144.415248 579.692308 144.245428 580.000000 144.075495 580.307692 143.905444 580.615385 143.735265 580.923077 143.564951 581.230769 143.394495 581.538462 143.223889 581.846154 143.053125 582.153846 142.882196 582.461538 142.711093 582.769231 142.539811 583.076923 142.368339 583.384615 142.196672 583.692308 142.024801 584.000000 141.852719 584.307692 141.680419 584.615385 141.507891 584.923077 141.335130 585.230769 141.162126 585.538462 140.988873 585.846154 140.815363 586.153846 140.641588 586.461538 140.467541 586.769231 140.293213 587.076923 140.118598 587.384615 139.943687 587.692308 139.768474 588.000000 139.592949 588.307692 139.417107 588.615385 139.240938 588.923077 139.064436 589.230769 138.887592 589.538462 138.710399 589.846154 138.532850 590.153846 138.354937 590.461538 138.176651 590.769231 137.997987 591.076923 137.818935 591.384615 137.639488 591.692308 137.459638 592.000000 137.279379 592.307692 137.098702 592.615385 136.917599 592.923077 136.736063 593.230769 136.554087 593.538462 136.371662 593.846154 136.188781 594.153846 136.005436 594.461538 135.821620 594.769231 135.637325 595.076923 135.452544 595.384615 135.267268 595.692308 135.081490 596.000000 134.895202 596.307692 134.708398 596.615385 134.521068 596.923077 134.333206 597.230769 134.144804 597.538462 133.955854 597.846154 133.766349 598.153846 133.576280 598.461538 133.385641 598.769231 133.194423 599.076923 133.002619 599.384615 132.810221 599.692308 132.617222 600.000000 132.423614 600.307692 132.229389 600.615385 132.034540 600.923077 131.839059 601.230769 131.642939 601.538462 131.446171 601.846154 131.248748 602.153846 131.050663 602.461538 130.851907 602.769231 130.652474 603.076923 130.452355 603.384615 130.251542 603.692308 130.050029 604.000000 129.847808 604.307692 129.644870 604.615385 129.441209 604.923077 129.236816 605.230769 129.031685 605.538462 128.825806 605.846154 128.619173 606.153846 128.411778 606.461538 128.203614 606.769231 127.994672 607.076923 127.784945 607.384615 127.574426 607.692308 127.363106 608.000000 127.150978 608.307692 126.938035 608.615385 126.724269 608.923077 126.509671 609.230769 126.294236 609.538462 126.077954 609.846154 125.860818 610.153846 125.642821 610.461538 125.423955 610.769231 125.204212 611.076923 124.983584 611.384615 124.762065 611.692308 124.539645 612.000000 124.316319 612.307692 124.092077 612.615385 123.866913 612.923077 123.640819 613.230769 123.413786 613.538462 123.185808 613.846154 122.956877 614.153846 122.726985 614.461538 122.496124 614.769231 122.264287 615.076923 122.031466 615.384615 121.797654 615.692308 121.562842 616.000000 121.327024 616.307692 121.090191 616.615385 120.852337 616.923077 120.613452 617.230769 120.373530 617.538462 120.132563 617.846154 119.890544 618.153846 119.647464 618.461538 119.403316 618.769231 119.158092 619.076923 118.911785 619.384615 118.664387 619.692308 118.415891 620.000000 118.166288 620.307692 117.915571 620.615385 117.663733 620.923077 117.410766 621.230769 117.156662 621.538462 116.901413 621.846154 116.645013 622.153846 116.387452 622.461538 116.128724 622.769231 115.868821 623.076923 115.607735 623.384615 115.345459 623.692308 115.081985 624.000000 114.817305 624.307692 114.551412 624.615385 114.284297 624.923077 114.015955 625.230769 113.746375 625.538462 113.475552 625.846154 113.203478 626.153846 112.930144 626.461538 112.655543 626.769231 112.379668 627.076923 112.102510 627.384615 111.824063 627.692308 111.544318 628.000000 111.263268 628.307692 110.980906 628.615385 110.697223 628.923077 110.412212 629.230769 110.125865 629.538462 109.838177 629.846154 109.549151 630.153846 109.258792 630.461538 108.967106 630.769231 108.674098 631.076923 108.379774 631.384615 108.084138 631.692308 107.787197 632.000000 107.488956 632.307692 107.189419 632.615385 106.888593 632.923077 106.586482 633.230769 106.283093 633.538462 105.978430 633.846154 105.672499 634.153846 105.365305 634.461538 105.056854 634.769231 104.747150 635.076923 104.436201 635.384615 104.124009 635.692308 103.810582 636.000000 103.495925 636.307692 103.180042 636.615385 102.862939 636.923077 102.544622 637.230769 102.225096 637.538462 101.904367 637.846154 101.582439 638.153846 101.259318 638.461538 100.935009 638.769231 100.609519 639.076923 100.282851 639.384615 99.955013 639.692308 99.626008 640.000000 99.295842 640.307692 98.964522 640.615385 98.632051 640.923077 98.298436 641.230769 97.963681 641.538462 97.627793 641.846154 97.290776 642.153846 96.952636 642.461538 96.613379 642.769231 96.273009 643.076923 95.931532 643.384615 95.588954 643.692308 95.245280 644.000000 94.900514 644.307692 94.554664 644.615385 94.207733 644.923077 93.859727 645.230769 93.510652 645.538462 93.160514 645.846154 92.809316 646.153846 92.457066 646.461538 92.103767 646.769231 91.749427 647.076923 91.394049 647.384615 91.037639 647.692308 90.680203 648.000000 90.321746 648.307692 89.962274 648.615385 89.601791 648.923077 89.240303 649.230769 88.877816 649.538462 88.514335 649.846154 88.149865 650.153846 87.784412 650.461538 87.417981 650.769231 87.050577 651.076923 86.682206 651.384615 86.312873 651.692308 85.942584 652.000000 85.571343 652.307692 85.199157 652.615385 84.826030 652.923077 84.451969 653.230769 84.076978 653.538462 83.701062 653.846154 83.324228 654.153846 82.946480 654.461538 82.567824 654.769231 82.188266 655.076923 81.807810 655.384615 81.426462 655.692308 81.044227 656.000000 80.661111 656.307692 80.277119 656.615385 79.892257 656.923077 79.506530 657.230769 79.119942 657.538462 78.732501 657.846154 78.344210 658.153846 77.955076 658.461538 77.565104 658.769231 77.174298 659.076923 76.782666 659.384615 76.390210 659.692308 75.996939 660.000000 75.602856 660.307692 75.207966 660.615385 74.812276 660.923077 74.415791 661.230769 74.018516 661.538462 73.620457 661.846154 73.221618 662.153846 72.822006 662.461538 72.421625 662.769231 72.020481 663.076923 71.618579 663.384615 71.215925 663.692308 70.812524 664.000000 70.408382 664.307692 70.003503 664.615385 69.597894 664.923077 69.191559 665.230769 68.784505 665.538462 68.376735 665.846154 67.968256 666.153846 67.559074 666.461538 67.149192 666.769231 66.738618 667.076923 66.327356 667.384615 65.915411 667.692308 65.502789 668.000000 65.089496 668.307692 64.675536 668.615385 64.260916 668.923077 63.845639 669.230769 63.429713 669.538462 63.013142 669.846154 62.595931 670.153846 62.178086 670.461538 61.759613 670.769231 61.340516 671.076923 60.920801 671.384615 60.500474 671.692308 60.079539 672.000000 59.658003 672.307692 59.235870 672.615385 58.813146 672.923077 58.389837 673.230769 57.965947 673.538462 57.541482 673.846154 57.116448 674.153846 56.690849 674.461538 56.264691 674.769231 55.837980 675.076923 55.410721 675.384615 54.982919 675.692308 54.554580 676.000000 54.125709 676.307692 53.696311 676.615385 53.266392 676.923077 52.835957 677.230769 52.405012 677.538462 51.973562 677.846154 51.541611 678.153846 51.109167 678.461538 50.676233 678.769231 50.242816 679.076923 49.808921 679.384615 49.374553 679.692308 48.939717 680.000000 48.504419 680.307692 48.068664 680.615385 47.632459 680.923077 47.195807 681.230769 46.758714 681.538462 46.321186 681.846154 45.883228 682.153846 45.444846 682.461538 45.006045 682.769231 44.566830 683.076923 44.127206 683.384615 43.687180 683.692308 43.246755 684.000000 42.805939 684.307692 42.364736 684.615385 41.923151 684.923077 41.481190 685.230769 41.038858 685.538462 40.596161 685.846154 40.153104 686.153846 39.709692 686.461538 39.265931 686.769231 38.821826 687.076923 38.377382 687.384615 37.932606 687.692308 37.487501 688.000000 37.042074 688.307692 36.596330 688.615385 36.150275 688.923077 35.703913 689.230769 35.257250 689.538462 34.810292 689.846154 34.363043 690.153846 33.915510 690.461538 33.467697 690.769231 33.019611 691.076923 32.571255 691.384615 32.122636 691.692308 31.673760 692.000000 31.224630 692.307692 30.775254 692.615385 30.325636 692.923077 29.875781 693.230769 29.425696 693.538462 28.975384 693.846154 28.524852 694.153846 28.074106 694.461538 27.623150 694.769231 27.171989 695.076923 26.720630 695.384615 26.269077 695.692308 25.817337 696.000000 25.365413 696.307692 24.913312 696.615385 24.461040 696.923077 24.008600 697.230769 23.556000 697.538462 23.103244 697.846154 22.650337 698.153846 22.197285 698.461538 21.744093 698.769231 21.290767 699.076923 20.837313 699.384615 20.383734 699.692308 19.930037 700.000000 19.476228 700.307692 19.022311 700.615385 18.568292 700.923077 18.114176 701.230769 17.659969 701.538462 17.205676 701.846154 16.751302 702.153846 16.296853 702.461538 15.842334 702.769231 15.387751 703.076923 14.933108 703.384615 14.478412 703.692308 14.023668 704.000000 13.568880 704.307692 13.114055 704.615385 12.659198 704.923077 12.204313 705.230769 11.749408 705.538462 11.294486 705.846154 10.839553 706.153846 10.384615 706.153846 540.000000" /></g></g><g class="titles" /><g class="plot overlay" transform="translate(60, 20)"><g class="series serie-0 color-0"><g class="dots"><circle class="dot reactive tooltip-trigger" cx="13.846153846153847" cy="529.6153846153846" r="2.5" /><desc class="value">708,904,395(kWh)</desc><desc class="x top">13.846153846153847</desc><desc class="y top">529.6153846153846</desc><desc class="x_label">2549</desc></g><g class="dots"><circle class="dot reactive tooltip-trigger" cx="90.76923076923076" cy="491.37094667406194" r="2.5" /><desc class="value">762,025,242(kWh)</desc><desc class="x top">90.76923076923076</desc><desc class="y top">491.37094667406194</desc><desc class="x_label">2550</desc></g><g class="dots"><circle class="dot reactive tooltip-trigger" cx="167.69230769230765" cy="470.82530674697955" r="2.5" /><desc class="value">790,562,772(kWh)</desc><desc class="x top">167.69230769230765</desc><desc class="y top">470.82530674697955</desc><desc class="x_label">2551</desc></g><g class="dots"><circle class="dot reactive tooltip-trigger" cx="244.6153846153846" cy="412.8940533635211" r="2.5" /><desc class="value">871,028,257(kWh)</desc><desc class="x top">244.6153846153846</desc><desc class="y top">412.8940533635211</desc><desc class="x_label">2552</desc></g><g class="dots"><circle class="dot reactive tooltip-trigger" cx="321.5384615384615" cy="336.265941004384" r="2.5" /><desc class="value">977,463,348(kWh)</desc><desc class="x top">321.5384615384615</desc><desc class="y top">336.265941004384</desc><desc class="x_label">2553</desc></g><g class="dots"><circle class="dot reactive tooltip-trigger" cx="398.46153846153845" cy="320.0337081251636" r="2.5" /><desc class="value">1,000,009,632(kWh)</desc><desc class="x left top">398.46153846153845</desc><desc class="y left top">320.0337081251636</desc><desc class="x_label">2554</desc></g><g class="dots"><circle class="dot reactive tooltip-trigger" cx="475.38461538461536" cy="229.66440616673623" r="2.5" /><desc class="value">1,125,530,992(kWh)</desc><desc class="x left">475.38461538461536</desc><desc class="y left">229.66440616673623</desc><desc class="x_label">2555</desc></g><g class="dots"><circle class="dot reactive tooltip-trigger" cx="552.3076923076923" cy="159.82027519190638" r="2.5" /><desc class="value">1,222,543,253(kWh)</desc><desc class="x left">552.3076923076923</desc><desc class="y left">159.82027519190638</desc><desc class="x_label">2556</desc></g><g class="dots"><circle class="dot reactive tooltip-trigger" cx="629.2307692307692" cy="110.12586476932506" r="2.5" /><desc class="value">1,291,567,909(kWh)</desc><desc class="x left">629.2307692307692</desc><desc class="y left">110.12586476932506</desc><desc class="x_label">2557</desc></g><g class="dots"><circle class="dot reactive tooltip-trigger" cx="706.1538461538461" cy="10.384615384615245" r="2.5" /><desc class="value">1,430,106,738(kWh)</desc><desc class="x left">706.1538461538461</desc><desc class="y left">10.384615384615245</desc><desc class="x_label">2558</desc></g></g></g><g class="plot text-overlay" transform="translate(60, 20)"><g class="series serie-0 color-0" /></g><g class="plot tooltip-overlay" transform="translate(60, 20)"><g class="tooltip" style="opacity: 0" transform="translate(0 0)"><rect class="tooltip-box" height="0" rx="0" ry="0" width="0" /><g class="text" /></g></g></g></svg>