<?xml version='1.0' encoding='utf-8'?>
<svg xmlns:xlink="http://www.w3.org/1999/xlink" class="pygal-chart" id="chart-b72c1abd-255e-4950-9586-9dcd8d40cf0c" viewBox="0 0 800 600" xmlns="http://www.w3.org/2000/svg"><!--Generated with pygal 2.3.0 (etree) ©Kozea 2012-2016 on 2016-12-08--><!--http://pygal.org--><!--http://github.com/Kozea/pygal--><defs><style type="text/css">#chart-b72c1abd-255e-4950-9586-9dcd8d40cf0c{-webkit-user-select:none;-webkit-font-smoothing:antialiased;font-family:Consolas,"Liberation Mono",Menlo,Courier,monospace}#chart-b72c1abd-255e-4950-9586-9dcd8d40cf0c .title{font-family:Consolas,"Liberation Mono",Menlo,Courier,monospace;font-size:16px}#chart-b72c1abd-255e-4950-9586-9dcd8d40cf0c .legends .legend text{font-family:Consolas,"Liberation Mono",Menlo,Courier,monospace;font-size:14px}#chart-b72c1abd-255e-4950-9586-9dcd8d40cf0c .axis text{font-family:Consolas,"Liberation Mono",Menlo,Courier,monospace;font-size:10px}#chart-b72c1abd-255e-4950-9586-9dcd8d40cf0c .axis text.major{font-family:Consolas,"Liberation Mono",Menlo,Courier,monospace;font-size:10px}#chart-b72c1abd-255e-4950-9586-9dcd8d40cf0c .text-overlay text.value{font-family:Consolas,"Liberation Mono",Menlo,Courier,monospace;font-size:16px}#chart-b72c1abd-255e-4950-9586-9dcd8d40cf0c .text-overlay text.label{font-family:Consolas,"Liberation Mono",Menlo,Courier,monospace;font-size:10px}#chart-b72c1abd-255e-4950-9586-9dcd8d40cf0c .tooltip{font-family:Consolas,"Liberation Mono",Menlo,Courier,monospace;font-size:14px}#chart-b72c1abd-255e-4950-9586-9dcd8d40cf0c text.no_data{font-family:Consolas,"Liberation Mono",Menlo,Courier,monospace;font-size:64px}
#chart-b72c1abd-255e-4950-9586-9dcd8d40cf0c{background-color:rgba(249,249,249,1)}#chart-b72c1abd-255e-4950-9586-9dcd8d40cf0c path,#chart-b72c1abd-255e-4950-9586-9dcd8d40cf0c line,#chart-b72c1abd-255e-4950-9586-9dcd8d40cf0c rect,#chart-b72c1abd-255e-4950-9586-9dcd8d40cf0c circle{-webkit-transition:150ms;-moz-transition:150ms;transition:150ms}#chart-b72c1abd-255e-4950-9586-9dcd8d40cf0c .graph &gt; .background{fill:rgba(249,249,249,1)}#chart-b72c1abd-255e-4950-9586-9dcd8d40cf0c .plot &gt; .background{fill:rgba(255,255,255,1)}#chart-b72c1abd-255e-4950-9586-9dcd8d40cf0c .graph{fill:rgba(0,0,0,.87)}#chart-b72c1abd-255e-4950-9586-9dcd8d40cf0c text.no_data{fill:rgba(0,0,0,1)}#chart-b72c1abd-255e-4950-9586-9dcd8d40cf0c .title{fill:rgba(0,0,0,1)}#chart-b72c1abd-255e-4950-9586-9dcd8d40cf0c .legends .legend text{fill:rgba(0,0,0,.87)}#chart-b72c1abd-255e-4950-9586-9dcd8d40cf0c .legends .legend:hover text{fill:rgba(0,0,0,1)}#chart-b72c1abd-255e-4950-9586-9dcd8d40cf0c .axis .line{stroke:rgba(0,0,0,1)}#chart-b72c1abd-255e-4950-9586-9dcd8d40cf0c .axis .guide.line{stroke:rgba(0,0,0,.54)}#chart-b72c1abd-255e-4950-9586-9dcd8d40cf0c .axis .major.line{stroke:rgba(0,0,0,.87)}#chart-b72c1abd-255e-4950-9586-9dcd8d40cf0c .axis text.major{fill:rgba(0,0,0,1)}#chart-b72c1abd-255e-4950-9586-9dcd8d40cf0c .axis.y .guides:hover .guide.line,#chart-b72c1abd-255e-4950-9586-9dcd8d40cf0c .line-graph .axis.x .guides:hover .guide.line,#chart-b72c1abd-255e-4950-9586-9dcd8d40cf0c .stackedline-graph .axis.x .guides:hover .guide.line,#chart-b72c1abd-255e-4950-9586-9dcd8d40cf0c .xy-graph .axis.x .guides:hover .guide.line{stroke:rgba(0,0,0,1)}#chart-b72c1abd-255e-4950-9586-9dcd8d40cf0c .axis .guides:hover text{fill:rgba(0,0,0,1)}#chart-b72c1abd-255e-4950-9586-9dcd8d40cf0c .reactive{fill-opacity:.7;stroke-opacity:.8}#chart-b72c1abd-255e-4950-9586-9dcd8d40cf0c .ci{stroke:rgba(0,0,0,.87)}#chart-b72c1abd-255e-4950-9586-9dcd8d40cf0c .reactive.active,#chart-b72c1abd-255e-4950-9586-9dcd8d40cf0c .active .reactive{fill-opacity:.8;stroke-opacity:.9;stroke-width:4}#chart-b72c1abd-255e-4950-9586-9dcd8d40cf0c .ci .reactive.active{stroke-width:1.5}#chart-b72c1abd-255e-4950-9586-9dcd8d40cf0c .series text{fill:rgba(0,0,0,1)}#chart-b72c1abd-255e-4950-9586-9dcd8d40cf0c .tooltip rect{fill:rgba(255,255,255,1);stroke:rgba(0,0,0,1);-webkit-transition:opacity 150ms;-moz-transition:opacity 150ms;transition:opacity 150ms}#chart-b72c1abd-255e-4950-9586-9dcd8d40cf0c .tooltip .label{fill:rgba(0,0,0,.87)}#chart-b72c1abd-255e-4950-9586-9dcd8d40cf0c .tooltip .label{fill:rgba(0,0,0,.87)}#chart-b72c1abd-255e-4950-9586-9dcd8d40cf0c .tooltip .legend{font-size:.8em;fill:rgba(0,0,0,.54)}#chart-b72c1abd-255e-4950-9586-9dcd8d40cf0c .tooltip .x_label{font-size:.6em;fill:rgba(0,0,0,1)}#chart-b72c1abd-255e-4950-9586-9dcd8d40cf0c .tooltip .xlink{font-size:.5em;text-decoration:underline}#chart-b72c1abd-255e-4950-9586-9dcd8d40cf0c .tooltip .value{font-size:1.5em}#chart-b72c1abd-255e-4950-9586-9dcd8d40cf0c .bound{font-size:.5em}#chart-b72c1abd-255e-4950-9586-9dcd8d40cf0c .max-value{font-size:.75em;fill:rgba(0,0,0,.54)}#chart-b72c1abd-255e-4950-9586-9dcd8d40cf0c .map-element{fill:rgba(255,255,255,1);stroke:rgba(0,0,0,.54) !important}#chart-b72c1abd-255e-4950-9586-9dcd8d40cf0c .map-element .reactive{fill-opacity:inherit;stroke-opacity:inherit}#chart-b72c1abd-255e-4950-9586-9dcd8d40cf0c .color-0,#chart-b72c1abd-255e-4950-9586-9dcd8d40cf0c .color-0 a:visited{stroke:#e86fa0;fill:#e86fa0}#chart-b72c1abd-255e-4950-9586-9dcd8d40cf0c .text-overlay .color-0 text{fill:black}
#chart-b72c1abd-255e-4950-9586-9dcd8d40cf0c text.no_data{text-anchor:middle}#chart-b72c1abd-255e-4950-9586-9dcd8d40cf0c .guide.line{fill:none}#chart-b72c1abd-255e-4950-9586-9dcd8d40cf0c .centered{text-anchor:middle}#chart-b72c1abd-255e-4950-9586-9dcd8d40cf0c .title{text-anchor:middle}#chart-b72c1abd-255e-4950-9586-9dcd8d40cf0c .legends .legend text{fill-opacity:1}#chart-b72c1abd-255e-4950-9586-9dcd8d40cf0c .axis.x text{text-anchor:middle}#chart-b72c1abd-255e-4950-9586-9dcd8d40cf0c .axis.x:not(.web) text[transform]{text-anchor:start}#chart-b72c1abd-255e-4950-9586-9dcd8d40cf0c .axis.x:not(.web) text[transform].backwards{text-anchor:end}#chart-b72c1abd-255e-4950-9586-9dcd8d40cf0c .axis.y text{text-anchor:end}#chart-b72c1abd-255e-4950-9586-9dcd8d40cf0c .axis.y text[transform].backwards{text-anchor:start}#chart-b72c1abd-255e-4950-9586-9dcd8d40cf0c .axis.y2 text{text-anchor:start}#chart-b72c1abd-255e-4950-9586-9dcd8d40cf0c .axis.y2 text[transform].backwards{text-anchor:end}#chart-b72c1abd-255e-4950-9586-9dcd8d40cf0c .axis .guide.line{stroke-dasharray:4,4}#chart-b72c1abd-255e-4950-9586-9dcd8d40cf0c .axis .major.guide.line{stroke-dasharray:6,6}#chart-b72c1abd-255e-4950-9586-9dcd8d40cf0c .horizontal .axis.y .guide.line,#chart-b72c1abd-255e-4950-9586-9dcd8d40cf0c .horizontal .axis.y2 .guide.line,#chart-b72c1abd-255e-4950-9586-9dcd8d40cf0c .vertical .axis.x .guide.line{opacity:0}#chart-b72c1abd-255e-4950-9586-9dcd8d40cf0c .horizontal .axis.always_show .guide.line,#chart-b72c1abd-255e-4950-9586-9dcd8d40cf0c .vertical .axis.always_show .guide.line{opacity:1 !important}#chart-b72c1abd-255e-4950-9586-9dcd8d40cf0c .axis.y .guides:hover .guide.line,#chart-b72c1abd-255e-4950-9586-9dcd8d40cf0c .axis.y2 .guides:hover .guide.line,#chart-b72c1abd-255e-4950-9586-9dcd8d40cf0c .axis.x .guides:hover .guide.line{opacity:1}#chart-b72c1abd-255e-4950-9586-9dcd8d40cf0c .axis .guides:hover text{opacity:1}#chart-b72c1abd-255e-4950-9586-9dcd8d40cf0c .nofill{fill:none}#chart-b72c1abd-255e-4950-9586-9dcd8d40cf0c .subtle-fill{fill-opacity:.2}#chart-b72c1abd-255e-4950-9586-9dcd8d40cf0c .dot{stroke-width:1px;fill-opacity:1}#chart-b72c1abd-255e-4950-9586-9dcd8d40cf0c .dot.active{stroke-width:5px}#chart-b72c1abd-255e-4950-9586-9dcd8d40cf0c .dot.negative{fill:transparent}#chart-b72c1abd-255e-4950-9586-9dcd8d40cf0c text,#chart-b72c1abd-255e-4950-9586-9dcd8d40cf0c tspan{stroke:none !important}#chart-b72c1abd-255e-4950-9586-9dcd8d40cf0c .series text.active{opacity:1}#chart-b72c1abd-255e-4950-9586-9dcd8d40cf0c .tooltip rect{fill-opacity:.95;stroke-width:.5}#chart-b72c1abd-255e-4950-9586-9dcd8d40cf0c .tooltip text{fill-opacity:1}#chart-b72c1abd-255e-4950-9586-9dcd8d40cf0c .showable{visibility:hidden}#chart-b72c1abd-255e-4950-9586-9dcd8d40cf0c .showable.shown{visibility:visible}#chart-b72c1abd-255e-4950-9586-9dcd8d40cf0c .gauge-background{fill:rgba(229,229,229,1);stroke:none}#chart-b72c1abd-255e-4950-9586-9dcd8d40cf0c .bg-lines{stroke:rgba(249,249,249,1);stroke-width:2px}</style><script type="text/javascript">window.pygal = window.pygal || {};window.pygal.config = window.pygal.config || {};window.pygal.config['b72c1abd-255e-4950-9586-9dcd8d40cf0c'] = {"no_data_text": "No data", "no_prefix": false, "xrange": null, "print_values_position": "center", "truncate_label": null, "x_labels": ["2549", "2550", "2551", "2552", "2553", "2554", "2555", "2556", "2557", "2558"], "title": null, "force_uri_protocol": "https", "defs": [], "formatter": null, "classes": ["pygal-chart"], "y_labels": null, "rounded_bars": null, "explicit_size": false, "x_labels_major_every": null, "legend_at_bottom_columns": null, "stroke_style": null, "half_pie": false, "spacing": 10, "tooltip_fancy_mode": true, "inverse_y_axis": false, "width": 800, "inner_radius": 0, "interpolation_parameters": {}, "tooltip_border_radius": 0, "style": {"no_data_font_family": "Consolas, \"Liberation Mono\", Menlo, Courier, monospace", "tooltip_font_size": 14, "tooltip_font_family": "Consolas, \"Liberation Mono\", Menlo, Courier, monospace", "stroke_opacity_hover": ".9", "legend_font_family": "Consolas, \"Liberation Mono\", Menlo, Courier, monospace", "font_family": "Consolas, \"Liberation Mono\", Menlo, Courier, monospace", "title_font_family": "Consolas, \"Liberation Mono\", Menlo, Courier, monospace", "background": "rgba(249, 249, 249, 1)", "stroke_opacity": ".8", "foreground": "rgba(0, 0, 0, .87)", "value_background": "rgba(229, 229, 229, 1)", "guide_stroke_dasharray": "4,4", "foreground_subtle": "rgba(0, 0, 0, .54)", "opacity_hover": ".8", "value_font_family": "Consolas, \"Liberation Mono\", Menlo, Courier, monospace", "value_label_font_size": 10, "plot_background": "rgba(255, 255, 255, 1)", "ci_colors": [], "label_font_size": 10, "major_label_font_size": 10, "title_font_size": 16, "no_data_font_size": 64, "value_font_size": 16, "value_colors": [], "label_font_family": "Consolas, \"Liberation Mono\", Menlo, Courier, monospace", "major_guide_stroke_dasharray": "6,6", "transition": "150ms", "foreground_strong": "rgba(0, 0, 0, 1)", "colors": ["#e86fa0", "#e88f6f", "#e8df6f", "#a0e86f", "#6fe88f", "#6fe8df", "#6fa0e8", "#8f6fe8", "#df6fe8", "#e86fa0"], "opacity": ".7", "legend_font_size": 14, "value_label_font_family": "Consolas, \"Liberation Mono\", Menlo, Courier, monospace", "major_label_font_family": "Consolas, \"Liberation Mono\", Menlo, Courier, monospace"}, "x_labels_major_count": null, "interpolation_precision": 250, "missing_value_fill_truncation": "x", "stack_from_top": false, "truncate_legend": null, "show_minor_x_labels": true, "print_zeroes": true, "css": ["file://style.css", "file://graph.css"], "y_label_rotation": 0, "legend_at_bottom": false, "print_values": false, "margin_top": null, "max_scale": 16, "allow_interruptions": false, "show_x_labels": true, "strict": false, "show_x_guides": false, "stroke": true, "margin_left": null, "dynamic_print_values": false, "print_labels": false, "show_y_labels": true, "x_labels_major": null, "range": null, "x_label_rotation": 0, "margin": 20, "zero": 0, "include_x_axis": false, "height": 600, "show_minor_y_labels": true, "show_dots": true, "interpolate": "cubic", "show_y_guides": true, "y_labels_major": null, "box_mode": "extremes", "margin_bottom": null, "order_min": null, "legend_box_size": 12, "fill": true, "show_only_major_dots": false, "js": ["//kozea.github.io/pygal.js/2.0.x/pygal-tooltips.min.js"], "x_title": null, "y_labels_major_every": null, "y_labels_major_count": null, "disable_xml_declaration": false, "y_title": null, "logarithmic": false, "pretty_print": false, "min_scale": 4, "dots_size": 2.5, "margin_right": null, "legends": [null], "secondary_range": null, "show_legend": false}</script><script type="text/javascript" xlink:href="https://kozea.github.io/pygal.js/2.0.x/pygal-tooltips.min.js" /></defs><title>Pygal</title><g class="graph stackedline-graph vertical"><rect class="background" height="600" width="800" x="0" y="0" /><g class="plot" transform="translate(54, 20)"><rect class="background" height="540" width="726.0" x="0" y="0" /><g class="axis y"><path class="line" d="M0.000000 540.000000 h726.000000" /><g class="guides"><path class="guide line" d="M0.000000 482.656643 h726.000000" /><text class="" x="-5" y="486.15664310820335">110M</text><title>110M</title></g><g class="guides"><path class="guide line" d="M0.000000 420.322251 h726.000000" /><text class="" x="-5" y="423.82225114076624">120M</text><title>120M</title></g><g class="guides"><path class="guide line" d="M0.000000 357.987859 h726.000000" /><text class="" x="-5" y="361.4878591733291">130M</text><title>130M</title></g><g class="guides"><path class="guide line" d="M0.000000 295.653467 h726.000000" /><text class="" x="-5" y="299.153467205892">140M</text><title>140M</title></g><g class="guides"><path class="major guide line" d="M0.000000 233.319075 h726.000000" /><text class="major" x="-5" y="236.8190752384549">150M</text><title>150M</title></g><g class="guides"><path class="guide line" d="M0.000000 170.984683 h726.000000" /><text class="" x="-5" y="174.4846832710178">160M</text><title>160M</title></g><g class="guides"><path class="guide line" d="M0.000000 108.650291 h726.000000" /><text class="" x="-5" y="112.15029130358062">170M</text><title>170M</title></g><g class="guides"><path class="guide line" d="M0.000000 46.315899 h726.000000" /><text class="" x="-5" y="49.8158993361435">180M</text><title>180M</title></g></g><g class="axis x"><g class="guides"><path class="line" d="M13.961538 0.000000 v540.000000" /><text class="" x="13.96153846153846" y="555.0">2549</text></g><g class="guides"><path class="guide line" d="M91.525641 0.000000 v540.000000" /><text class="" x="91.52564102564101" y="555.0">2550</text></g><g class="guides"><path class="guide line" d="M169.089744 0.000000 v540.000000" /><text class="" x="169.08974358974356" y="555.0">2551</text></g><g class="guides"><path class="guide line" d="M246.653846 0.000000 v540.000000" /><text class="" x="246.65384615384613" y="555.0">2552</text></g><g class="guides"><path class="guide line" d="M324.217949 0.000000 v540.000000" /><text class="" x="324.21794871794873" y="555.0">2553</text></g><g class="guides"><path class="guide line" d="M401.782051 0.000000 v540.000000" /><text class="" x="401.78205128205127" y="555.0">2554</text></g><g class="guides"><path class="guide line" d="M479.346154 0.000000 v540.000000" /><text class="" x="479.3461538461538" y="555.0">2555</text></g><g class="guides"><path class="guide line" d="M556.910256 0.000000 v540.000000" /><text class="" x="556.9102564102565" y="555.0">2556</text></g><g class="guides"><path class="guide line" d="M634.474359 0.000000 v540.000000" /><text class="" x="634.474358974359" y="555.0">2557</text></g><g class="guides"><path class="guide line" d="M712.038462 0.000000 v540.000000" /><text class="" x="712.0384615384615" y="555.0">2558</text></g></g><g class="series serie-0 color-0"><path class="line reactive" d="M13.961538 540.000000 L13.961538 529.615385 14.271795 529.345890 14.582051 529.076402 14.892308 528.806924 15.202564 528.537464 15.512821 528.268025 15.823077 527.998615 16.133333 527.729239 16.443590 527.459902 16.753846 527.190609 17.064103 526.921368 17.374359 526.652182 17.684615 526.383058 17.994872 526.114001 18.305128 525.845017 18.615385 525.576112 18.925641 525.307291 19.235897 525.038560 19.546154 524.769924 19.856410 524.501389 20.166667 524.232961 20.476923 523.964645 20.787179 523.696446 21.097436 523.428372 21.407692 523.160426 21.717949 522.892615 22.028205 522.624944 22.338462 522.357419 22.648718 522.090045 22.958974 521.822829 23.269231 521.555775 23.579487 521.288889 23.889744 521.022178 24.200000 520.755646 24.510256 520.489299 24.820513 520.223143 25.130769 519.957183 25.441026 519.691425 25.751282 519.425875 26.061538 519.160538 26.371795 518.895420 26.682051 518.630526 26.992308 518.365862 27.302564 518.101434 27.612821 517.837247 27.923077 517.573307 28.233333 517.309620 28.543590 517.046190 28.853846 516.783024 29.164103 516.520128 29.474359 516.257506 29.784615 515.995165 30.094872 515.733110 30.405128 515.471347 30.715385 515.209881 31.025641 514.948718 31.335897 514.687864 31.646154 514.427324 31.956410 514.167103 32.266667 513.907208 32.576923 513.647644 32.887179 513.388417 33.197436 513.129532 33.507692 512.870994 33.817949 512.612811 34.128205 512.354986 34.438462 512.097526 34.748718 511.840436 35.058974 511.583722 35.369231 511.327390 35.679487 511.071444 35.989744 510.815892 36.300000 510.560737 36.610256 510.305987 36.920513 510.051646 37.230769 509.797721 37.541026 509.544216 37.851282 509.291138 38.161538 509.038491 38.471795 508.786282 38.782051 508.534517 39.092308 508.283200 39.402564 508.032338 39.712821 507.781935 40.023077 507.531999 40.333333 507.282533 40.643590 507.033545 40.953846 506.785039 41.264103 506.537021 41.574359 506.289497 41.884615 506.042472 42.194872 505.795952 42.505128 505.549943 42.815385 505.304449 43.125641 505.059478 43.435897 504.815034 43.746154 504.571123 44.056410 504.327750 44.366667 504.084922 44.676923 503.842643 44.987179 503.600920 45.297436 503.359758 45.607692 503.119163 45.917949 502.879140 46.228205 502.639694 46.538462 502.400833 46.848718 502.162560 47.158974 501.924882 47.469231 501.687804 47.779487 501.451332 48.089744 501.215472 48.400000 500.980229 48.710256 500.745609 49.020513 500.511616 49.330769 500.278258 49.641026 500.045540 49.951282 499.813467 50.261538 499.582044 50.571795 499.351278 50.882051 499.121174 51.192308 498.891738 51.502564 498.662974 51.812821 498.434890 52.123077 498.207490 52.433333 497.980780 52.743590 497.754766 53.053846 497.529453 53.364103 497.304847 53.674359 497.080954 53.984615 496.857779 54.294872 496.635327 54.605128 496.413605 54.915385 496.192618 55.225641 495.972371 55.535897 495.752870 55.846154 495.534122 56.156410 495.316130 56.466667 495.098902 56.776923 494.882442 57.087179 494.666757 57.397436 494.451851 57.707692 494.237731 58.017949 494.024402 58.328205 493.811869 58.638462 493.600139 58.948718 493.389217 59.258974 493.179108 59.569231 492.969818 59.879487 492.761353 60.189744 492.553719 60.500000 492.346920 60.810256 492.140963 61.120513 491.935853 61.430769 491.731596 61.741026 491.528197 62.051282 491.325662 62.361538 491.123997 62.671795 490.923207 62.982051 490.723297 63.292308 490.524275 63.602564 490.326144 63.912821 490.128911 64.223077 489.932581 64.533333 489.737160 64.843590 489.542654 65.153846 489.349067 65.464103 489.156407 65.774359 488.964677 66.084615 488.773885 66.394872 488.584035 66.705128 488.395133 67.015385 488.207185 67.325641 488.020197 67.635897 487.834173 67.946154 487.649120 68.256410 487.465043 68.566667 487.281948 68.876923 487.099841 69.187179 486.918726 69.497436 486.738610 69.807692 486.559499 70.117949 486.381397 70.428205 486.204310 70.738462 486.028245 71.048718 485.853207 71.358974 485.679200 71.669231 485.506232 71.979487 485.334307 72.289744 485.163431 72.600000 484.993610 72.910256 484.824850 73.220513 484.657155 73.530769 484.490532 73.841026 484.324986 74.151282 484.160523 74.461538 483.997149 74.771795 483.834868 75.082051 483.673687 75.392308 483.513611 75.702564 483.354646 76.012821 483.196798 76.323077 483.040071 76.633333 482.884473 76.943590 482.730007 77.253846 482.576681 77.564103 482.424499 77.874359 482.273467 78.184615 482.123590 78.494872 481.974876 78.805128 481.827328 79.115385 481.680952 79.425641 481.535755 79.735897 481.391742 80.046154 481.248918 80.356410 481.107289 80.666667 480.966861 80.976923 480.827638 81.287179 480.689628 81.597436 480.552835 81.907692 480.417265 82.217949 480.282924 82.528205 480.149817 82.838462 480.017950 83.148718 479.887329 83.458974 479.757959 83.769231 479.629845 84.079487 479.502994 84.389744 479.377410 84.700000 479.253100 85.010256 479.130070 85.320513 479.008324 85.630769 478.887868 85.941026 478.768709 86.251282 478.650851 86.561538 478.534300 86.871795 478.419062 87.182051 478.305142 87.492308 478.192547 87.802564 478.081281 88.112821 477.971351 88.423077 477.862761 88.733333 477.755518 89.043590 477.649627 89.353846 477.545093 89.664103 477.441923 89.974359 477.340122 90.284615 477.239695 90.594872 477.140649 90.905128 477.042988 91.215385 476.946719 91.525641 476.851846 91.835897 476.758373 92.146154 476.666289 92.456410 476.575578 92.766667 476.486228 93.076923 476.398224 93.387179 476.311551 93.697436 476.226196 94.007692 476.142145 94.317949 476.059383 94.628205 475.977896 94.938462 475.897670 95.248718 475.818691 95.558974 475.740944 95.869231 475.664417 96.179487 475.589093 96.489744 475.514960 96.800000 475.442003 97.110256 475.370208 97.420513 475.299560 97.730769 475.230046 98.041026 475.161652 98.351282 475.094363 98.661538 475.028165 98.971795 474.963044 99.282051 474.898985 99.592308 474.835976 99.902564 474.774001 100.212821 474.713046 100.523077 474.653097 100.833333 474.594141 101.143590 474.536162 101.453846 474.479147 101.764103 474.423082 102.074359 474.367952 102.384615 474.313743 102.694872 474.260441 103.005128 474.208033 103.315385 474.156503 103.625641 474.105837 103.935897 474.056022 104.246154 474.007043 104.556410 473.958887 104.866667 473.911538 105.176923 473.864984 105.487179 473.819209 105.797436 473.774199 106.107692 473.729941 106.417949 473.686420 106.728205 473.643622 107.038462 473.601533 107.348718 473.560138 107.658974 473.519424 107.969231 473.479377 108.279487 473.439982 108.589744 473.401225 108.900000 473.363092 109.210256 473.325568 109.520513 473.288641 109.830769 473.252294 110.141026 473.216515 110.451282 473.181289 110.761538 473.146603 111.071795 473.112441 111.382051 473.078789 111.692308 473.045634 112.002564 473.012962 112.312821 472.980758 112.623077 472.949008 112.933333 472.917697 113.243590 472.886813 113.553846 472.856340 113.864103 472.826264 114.174359 472.796572 114.484615 472.767248 114.794872 472.738280 115.105128 472.709653 115.415385 472.681352 115.725641 472.653363 116.035897 472.625673 116.346154 472.598267 116.656410 472.571131 116.966667 472.544251 117.276923 472.517613 117.587179 472.491202 117.897436 472.465005 118.207692 472.439006 118.517949 472.413193 118.828205 472.387551 119.138462 472.362065 119.448718 472.336722 119.758974 472.311508 120.069231 472.286408 120.379487 472.261407 120.689744 472.236493 121.000000 472.211651 121.310256 472.186866 121.620513 472.162125 121.930769 472.137413 122.241026 472.112716 122.551282 472.088020 122.861538 472.063311 123.171795 472.038575 123.482051 472.013797 123.792308 471.988964 124.102564 471.964061 124.412821 471.939074 124.723077 471.913989 125.033333 471.888791 125.343590 471.863468 125.653846 471.838003 125.964103 471.812384 126.274359 471.786597 126.584615 471.760626 126.894872 471.734458 127.205128 471.708078 127.515385 471.681473 127.825641 471.654628 128.135897 471.627530 128.446154 471.600164 128.756410 471.572515 129.066667 471.544570 129.376923 471.516315 129.687179 471.487735 129.997436 471.458816 130.307692 471.429545 130.617949 471.399906 130.928205 471.369886 131.238462 471.339471 131.548718 471.308646 131.858974 471.277398 132.169231 471.245711 132.479487 471.213573 132.789744 471.180968 133.100000 471.147883 133.410256 471.114304 133.720513 471.080216 134.030769 471.045605 134.341026 471.010457 134.651282 470.974758 134.961538 470.938494 135.271795 470.901650 135.582051 470.864213 135.892308 470.826168 136.202564 470.787501 136.512821 470.748198 136.823077 470.708245 137.133333 470.667627 137.443590 470.626331 137.753846 470.584342 138.064103 470.541646 138.374359 470.498230 138.684615 470.454078 138.994872 470.409176 139.305128 470.363512 139.615385 470.317069 139.925641 470.269835 140.235897 470.221795 140.546154 470.172935 140.856410 470.123241 141.166667 470.072698 141.476923 470.021292 141.787179 469.969010 142.097436 469.915837 142.407692 469.861759 142.717949 469.806762 143.028205 469.750831 143.338462 469.693953 143.648718 469.636113 143.958974 469.577297 144.269231 469.517491 144.579487 469.456681 144.889744 469.394853 145.200000 469.331992 145.510256 469.268085 145.820513 469.203117 146.130769 469.137074 146.441026 469.069942 146.751282 469.001706 147.061538 468.932353 147.371795 468.861869 147.682051 468.790239 147.992308 468.717449 148.302564 468.643485 148.612821 468.568332 148.923077 468.491978 149.233333 468.414407 149.543590 468.335605 149.853846 468.255558 150.164103 468.174253 150.474359 468.091674 150.784615 468.007808 151.094872 467.922640 151.405128 467.836157 151.715385 467.748344 152.025641 467.659187 152.335897 467.568672 152.646154 467.476785 152.956410 467.383512 153.266667 467.288837 153.576923 467.192749 153.887179 467.095231 154.197436 466.996270 154.507692 466.895852 154.817949 466.793963 155.128205 466.690588 155.438462 466.585714 155.748718 466.479325 156.058974 466.371409 156.369231 466.261951 156.679487 466.150936 156.989744 466.038351 157.300000 465.924181 157.610256 465.808413 157.920513 465.691031 158.230769 465.572023 158.541026 465.451373 158.851282 465.329068 159.161538 465.205093 159.471795 465.079435 159.782051 464.952079 160.092308 464.823010 160.402564 464.692216 160.712821 464.559681 161.023077 464.425392 161.333333 464.289334 161.643590 464.151493 161.953846 464.011855 162.264103 463.870407 162.574359 463.727133 162.884615 463.582019 163.194872 463.435052 163.505128 463.286217 163.815385 463.135500 164.125641 462.982887 164.435897 462.828364 164.746154 462.671917 165.056410 462.513531 165.366667 462.353192 165.676923 462.190887 165.987179 462.026600 166.297436 461.860319 166.607692 461.692028 166.917949 461.521713 167.228205 461.349361 167.538462 461.174957 167.848718 460.998487 168.158974 460.819937 168.469231 460.639293 168.779487 460.456540 169.089744 460.271665 169.400000 460.084657 169.710256 459.895521 170.020513 459.704265 170.330769 459.510900 170.641026 459.315433 170.951282 459.117873 171.261538 458.918230 171.571795 458.716511 171.882051 458.512727 172.192308 458.306885 172.502564 458.098994 172.812821 457.889064 173.123077 457.677103 173.433333 457.463120 173.743590 457.247123 174.053846 457.029123 174.364103 456.809126 174.674359 456.587143 174.984615 456.363181 175.294872 456.137251 175.605128 455.909360 175.915385 455.679518 176.225641 455.447733 176.535897 455.214014 176.846154 454.978370 177.156410 454.740809 177.466667 454.501342 177.776923 454.259975 178.087179 454.016719 178.397436 453.771582 178.707692 453.524573 179.017949 453.275701 179.328205 453.024974 179.638462 452.772401 179.948718 452.517991 180.258974 452.261754 180.569231 452.003697 180.879487 451.743830 181.189744 451.482161 181.500000 451.218699 181.810256 450.953454 182.120513 450.686433 182.430769 450.417646 182.741026 450.147101 183.051282 449.874808 183.361538 449.600775 183.671795 449.325011 183.982051 449.047525 184.292308 448.768325 184.602564 448.487421 184.912821 448.204821 185.223077 447.920534 185.533333 447.634569 185.843590 447.346935 186.153846 447.057640 186.464103 446.766694 186.774359 446.474104 187.084615 446.179881 187.394872 445.884033 187.705128 445.586568 188.015385 445.287495 188.325641 444.986824 188.635897 444.684563 188.946154 444.380721 189.256410 444.075307 189.566667 443.768329 189.876923 443.459796 190.187179 443.149718 190.497436 442.838102 190.807692 442.524959 191.117949 442.210296 191.428205 441.894123 191.738462 441.576448 192.048718 441.257280 192.358974 440.936627 192.669231 440.614500 192.979487 440.290906 193.289744 439.965855 193.600000 439.639355 193.910256 439.311415 194.220513 438.982043 194.530769 438.651250 194.841026 438.319042 195.151282 437.985430 195.461538 437.650423 195.771795 437.314028 196.082051 436.976255 196.392308 436.637112 196.702564 436.296609 197.012821 435.954754 197.323077 435.611556 197.633333 435.267024 197.943590 434.921167 198.253846 434.573993 198.564103 434.225512 198.874359 433.875731 199.184615 433.524661 199.494872 433.172309 199.805128 432.818685 200.115385 432.463798 200.425641 432.107655 200.735897 431.750267 201.046154 431.391642 201.356410 431.031788 201.666667 430.670715 201.976923 430.308431 202.287179 429.944945 202.597436 429.580266 202.907692 429.214403 203.217949 428.847365 203.528205 428.479160 203.838462 428.109797 204.148718 427.739286 204.458974 427.367634 204.769231 426.994851 205.079487 426.620946 205.389744 426.245926 205.700000 425.869803 206.010256 425.492583 206.320513 425.114275 206.630769 424.734890 206.941026 424.354435 207.251282 423.972919 207.561538 423.590351 207.871795 423.206741 208.182051 422.822096 208.492308 422.436425 208.802564 422.049738 209.112821 421.662043 209.423077 421.273349 209.733333 420.883665 210.043590 420.493000 210.353846 420.101362 210.664103 419.708760 210.974359 419.315203 211.284615 418.920701 211.594872 418.525261 211.905128 418.128892 212.215385 417.731604 212.525641 417.333406 212.835897 416.934305 213.146154 416.534311 213.456410 416.133433 213.766667 415.731679 214.076923 415.329059 214.387179 414.925580 214.697436 414.521253 215.007692 414.116085 215.317949 413.710086 215.628205 413.303265 215.938462 412.895629 216.248718 412.487189 216.558974 412.077952 216.869231 411.667929 217.179487 411.257126 217.489744 410.845554 217.800000 410.433222 218.110256 410.020137 218.420513 409.606309 218.730769 409.191746 219.041026 408.776458 219.351282 408.360453 219.661538 407.943740 219.971795 407.526329 220.282051 407.108226 220.592308 406.689443 220.902564 406.269986 221.212821 405.849866 221.523077 405.429091 221.833333 405.007670 222.143590 404.585611 222.453846 404.162924 222.764103 403.739616 223.074359 403.315699 223.384615 402.891178 223.694872 402.466065 224.005128 402.040367 224.315385 401.614094 224.625641 401.187253 224.935897 400.759855 225.246154 400.331908 225.556410 399.903420 225.866667 399.474400 226.176923 399.044858 226.487179 398.614802 226.797436 398.184241 227.107692 397.753184 227.417949 397.321639 227.728205 396.889615 228.038462 396.457122 228.348718 396.024168 228.658974 395.590762 228.969231 395.156912 229.279487 394.722628 229.589744 394.287918 229.900000 393.852791 230.210256 393.417256 230.520513 392.981322 230.830769 392.544997 231.141026 392.108291 231.451282 391.671212 231.761538 391.233769 232.071795 390.795971 232.382051 390.357826 232.692308 389.919344 233.002564 389.480533 233.312821 389.041403 233.623077 388.601961 233.933333 388.162218 234.243590 387.722180 234.553846 387.281858 234.864103 386.841261 235.174359 386.400396 235.484615 385.959274 235.794872 385.517902 236.105128 385.076289 236.415385 384.634445 236.725641 384.192378 237.035897 383.750097 237.346154 383.307611 237.656410 382.864928 237.966667 382.422058 238.276923 381.979009 238.587179 381.535790 238.897436 381.092410 239.207692 380.648878 239.517949 380.205202 239.828205 379.761392 240.138462 379.317455 240.448718 378.873402 240.758974 378.429240 241.069231 377.984980 241.379487 377.540628 241.689744 377.096195 242.000000 376.651689 242.310256 376.207119 242.620513 375.762493 242.930769 375.317821 243.241026 374.873112 243.551282 374.428374 243.861538 373.983615 244.171795 373.538846 244.482051 373.094074 244.792308 372.649308 245.102564 372.204558 245.412821 371.759832 245.723077 371.315139 246.033333 370.870488 246.343590 370.425887 246.653846 369.981345 246.964103 369.536873 247.274359 369.092483 247.584615 368.648189 247.894872 368.204007 248.205128 367.759949 248.515385 367.316030 248.825641 366.872264 249.135897 366.428666 249.446154 365.985249 249.756410 365.542028 250.066667 365.099016 250.376923 364.656229 250.687179 364.213680 250.997436 363.771383 251.307692 363.329352 251.617949 362.887603 251.928205 362.446148 252.238462 362.005002 252.548718 361.564179 252.858974 361.123694 253.169231 360.683560 253.479487 360.243791 253.789744 359.804403 254.100000 359.365408 254.410256 358.926822 254.720513 358.488658 255.030769 358.050930 255.341026 357.613653 255.651282 357.176841 255.961538 356.740507 256.271795 356.304667 256.582051 355.869334 256.892308 355.434523 257.202564 355.000247 257.512821 354.566521 257.823077 354.133359 258.133333 353.700774 258.443590 353.268783 258.753846 352.837397 259.064103 352.406632 259.374359 351.976502 259.684615 351.547021 259.994872 351.118203 260.305128 350.690062 260.615385 350.262613 260.925641 349.835869 261.235897 349.409845 261.546154 348.984555 261.856410 348.560013 262.166667 348.136233 262.476923 347.713229 262.787179 347.291016 263.097436 346.869608 263.407692 346.449019 263.717949 346.029262 264.028205 345.610353 264.338462 345.192306 264.648718 344.775133 264.958974 344.358851 265.269231 343.943472 265.579487 343.529012 265.889744 343.115483 266.200000 342.702901 266.510256 342.291280 266.820513 341.880633 267.130769 341.470975 267.441026 341.062320 267.751282 340.654682 268.061538 340.248076 268.371795 339.842515 268.682051 339.438013 268.992308 339.034586 269.302564 338.632246 269.612821 338.231009 269.923077 337.830888 270.233333 337.431898 270.543590 337.034052 270.853846 336.637365 271.164103 336.241851 271.474359 335.847524 271.784615 335.454398 272.094872 335.062488 272.405128 334.671808 272.715385 334.282371 273.025641 333.894192 273.335897 333.507286 273.646154 333.121665 273.956410 332.737345 274.266667 332.354340 274.576923 331.972664 274.887179 331.592330 275.197436 331.213354 275.507692 330.835749 275.817949 330.459529 276.128205 330.084709 276.438462 329.711302 276.748718 329.339324 277.058974 328.968788 277.369231 328.599708 277.679487 328.232098 277.989744 327.865973 278.300000 327.501347 278.610256 327.138233 278.920513 326.776647 279.230769 326.416602 279.541026 326.058112 279.851282 325.701192 280.161538 325.345856 280.471795 324.992117 280.782051 324.639991 281.092308 324.289490 281.402564 323.940631 281.712821 323.593425 282.023077 323.247889 282.333333 322.904035 282.643590 322.561878 282.953846 322.221433 283.264103 321.882713 283.574359 321.545732 283.884615 321.210505 284.194872 320.877046 284.505128 320.545369 284.815385 320.215489 285.125641 319.887418 285.435897 319.561172 285.746154 319.236765 286.056410 318.914211 286.366667 318.593523 286.676923 318.274717 286.987179 317.957806 287.297436 317.642805 287.607692 317.329727 287.917949 317.018587 288.228205 316.709399 288.538462 316.402177 288.848718 316.096936 289.158974 315.793689 289.469231 315.492451 289.779487 315.193235 290.089744 314.896057 290.400000 314.600929 290.710256 314.307867 291.020513 314.016884 291.330769 313.727995 291.641026 313.441214 291.951282 313.156555 292.261538 312.874032 292.571795 312.593659 292.882051 312.315451 293.192308 312.039421 293.502564 311.765584 293.812821 311.493954 294.123077 311.224545 294.433333 310.957371 294.743590 310.692447 295.053846 310.429786 295.364103 310.169403 295.674359 309.911312 295.984615 309.655527 296.294872 309.402063 296.605128 309.150932 296.915385 308.902151 297.225641 308.655732 297.535897 308.411690 297.846154 308.170039 298.156410 307.930793 298.466667 307.693967 298.776923 307.459574 299.087179 307.227629 299.397436 306.998146 299.707692 306.771138 300.017949 306.546622 300.328205 306.324609 300.638462 306.105115 300.948718 305.888154 301.258974 305.673739 301.569231 305.461886 301.879487 305.252608 302.189744 305.045919 302.500000 304.841834 302.810256 304.640366 303.120513 304.441530 303.430769 304.245341 303.741026 304.051811 304.051282 303.860956 304.361538 303.672789 304.671795 303.487325 304.982051 303.304578 305.292308 303.124562 305.602564 302.947291 305.912821 302.772779 306.223077 302.601041 306.533333 302.432091 306.843590 302.265942 307.153846 302.102609 307.464103 301.942107 307.774359 301.784448 308.084615 301.629649 308.394872 301.477721 308.705128 301.328681 309.015385 301.182542 309.325641 301.039317 309.635897 300.899023 309.946154 300.761671 310.256410 300.627277 310.566667 300.495855 310.876923 300.367419 311.187179 300.241983 311.497436 300.119561 311.807692 300.000168 312.117949 299.883817 312.428205 299.770523 312.738462 299.660300 313.048718 299.553162 313.358974 299.449124 313.669231 299.348199 313.979487 299.250401 314.289744 299.155745 314.600000 299.064245 314.910256 298.975915 315.220513 298.890770 315.530769 298.808822 315.841026 298.730088 316.151282 298.654580 316.461538 298.582313 316.771795 298.513301 317.082051 298.447558 317.392308 298.385099 317.702564 298.325937 318.012821 298.270087 318.323077 298.217563 318.633333 298.168379 318.943590 298.122549 319.253846 298.080087 319.564103 298.041008 319.874359 298.005326 320.184615 297.973054 320.494872 297.944208 320.805128 297.918801 321.115385 297.896847 321.425641 297.878360 321.735897 297.863356 322.046154 297.851847 322.356410 297.843848 322.666667 297.839373 322.976923 297.838437 323.287179 297.841053 323.597436 297.847236 323.907692 297.857000 324.217949 297.870359 324.528205 297.887315 324.838462 297.907825 325.148718 297.931834 325.458974 297.959287 325.769231 297.990128 326.079487 298.024302 326.389744 298.061753 326.700000 298.102428 327.010256 298.146270 327.320513 298.193224 327.630769 298.243235 327.941026 298.296248 328.251282 298.352208 328.561538 298.411059 328.871795 298.472747 329.182051 298.537215 329.492308 298.604409 329.802564 298.674274 330.112821 298.746754 330.423077 298.821794 330.733333 298.899340 331.043590 298.979334 331.353846 299.061724 331.664103 299.146453 331.974359 299.233465 332.284615 299.322707 332.594872 299.414122 332.905128 299.507656 333.215385 299.603253 333.525641 299.700859 333.835897 299.800417 334.146154 299.901872 334.456410 300.005170 334.766667 300.110255 335.076923 300.217073 335.387179 300.325566 335.697436 300.435682 336.007692 300.547364 336.317949 300.660557 336.628205 300.775206 336.938462 300.891255 337.248718 301.008651 337.558974 301.127336 337.869231 301.247257 338.179487 301.368357 338.489744 301.490582 338.800000 301.613877 339.110256 301.738186 339.420513 301.863453 339.730769 301.989625 340.041026 302.116645 340.351282 302.244459 340.661538 302.373011 340.971795 302.502246 341.282051 302.632108 341.592308 302.762543 341.902564 302.893496 342.212821 303.024911 342.523077 303.156732 342.833333 303.288905 343.143590 303.421375 343.453846 303.554086 343.764103 303.686983 344.074359 303.820011 344.384615 303.953115 344.694872 304.086239 345.005128 304.219329 345.315385 304.352328 345.625641 304.485182 345.935897 304.617836 346.246154 304.750234 346.556410 304.882321 346.866667 305.014043 347.176923 305.145343 347.487179 305.276166 347.797436 305.406458 348.107692 305.536164 348.417949 305.665227 348.728205 305.793592 349.038462 305.921205 349.348718 306.048011 349.658974 306.173954 349.969231 306.298978 350.279487 306.423029 350.589744 306.546052 350.900000 306.667990 351.210256 306.788790 351.520513 306.908396 351.830769 307.026752 352.141026 307.143803 352.451282 307.259495 352.761538 307.373772 353.071795 307.486578 353.382051 307.597859 353.692308 307.707559 354.002564 307.815624 354.312821 307.921997 354.623077 308.026624 354.933333 308.129449 355.243590 308.230418 355.553846 308.329475 355.864103 308.426565 356.174359 308.521632 356.484615 308.614622 356.794872 308.705479 357.105128 308.794148 357.415385 308.880574 357.725641 308.964701 358.035897 309.046475 358.346154 309.125839 358.656410 309.202740 358.966667 309.277122 359.276923 309.348929 359.587179 309.418106 359.897436 309.484599 360.207692 309.548351 360.517949 309.609309 360.828205 309.667415 361.138462 309.722616 361.448718 309.774856 361.758974 309.824080 362.069231 309.870232 362.379487 309.913258 362.689744 309.953102 363.000000 309.989709 363.310256 310.023024 363.620513 310.052991 363.930769 310.079556 364.241026 310.102663 364.551282 310.122257 364.861538 310.138282 365.171795 310.150685 365.482051 310.159408 365.792308 310.164398 366.102564 310.165598 366.412821 310.162954 366.723077 310.156411 367.033333 310.145912 367.343590 310.131404 367.653846 310.112831 367.964103 310.090137 368.274359 310.063268 368.584615 310.032168 368.894872 309.996782 369.205128 309.957055 369.515385 309.912931 369.825641 309.864356 370.135897 309.811273 370.446154 309.753629 370.756410 309.691368 371.066667 309.624434 371.376923 309.552772 371.687179 309.476327 371.997436 309.395045 372.307692 309.308868 372.617949 309.217744 372.928205 309.121615 373.238462 309.020428 373.548718 308.914127 373.858974 308.802656 374.169231 308.685960 374.479487 308.563985 374.789744 308.436675 375.100000 308.303974 375.410256 308.165828 375.720513 308.022181 376.030769 307.872979 376.341026 307.718165 376.651282 307.557686 376.961538 307.391484 377.271795 307.219506 377.582051 307.041696 377.892308 306.857999 378.202564 306.668360 378.512821 306.472723 378.823077 306.271033 379.133333 306.063235 379.443590 305.849274 379.753846 305.629095 380.064103 305.402642 380.374359 305.169860 380.684615 304.930695 380.994872 304.685090 381.305128 304.432990 381.615385 304.174341 381.925641 303.909087 382.235897 303.637173 382.546154 303.358544 382.856410 303.073144 383.166667 302.780919 383.476923 302.481812 383.787179 302.175770 384.097436 301.862736 384.407692 301.542655 384.717949 301.215473 385.028205 300.881134 385.338462 300.539582 385.648718 300.190764 385.958974 299.834622 386.269231 299.471103 386.579487 299.100151 386.889744 298.721710 387.200000 298.335726 387.510256 297.942143 387.820513 297.540907 388.130769 297.131961 388.441026 296.715251 388.751282 296.290722 389.061538 295.858318 389.371795 295.417984 389.682051 294.969664 389.992308 294.513305 390.302564 294.048850 390.612821 293.576244 390.923077 293.095432 391.233333 292.606359 391.543590 292.108969 391.853846 291.603208 392.164103 291.089020 392.474359 290.566350 392.784615 290.035143 393.094872 289.495343 393.405128 288.946896 393.715385 288.389745 394.025641 287.823837 394.335897 287.249115 394.646154 286.665525 394.956410 286.073011 395.266667 285.471518 395.576923 284.860991 395.887179 284.241375 396.197436 283.612614 396.507692 282.974653 396.817949 282.327437 397.128205 281.670911 397.438462 281.005020 397.748718 280.329708 398.058974 279.644920 398.369231 278.950601 398.679487 278.246696 398.989744 277.533149 399.300000 276.809906 399.610256 276.076911 399.920513 275.334108 400.230769 274.581444 400.541026 273.818862 400.851282 273.046307 401.161538 272.263724 401.471795 271.471058 401.782051 270.668253 402.092308 269.855281 402.402564 269.032216 402.712821 268.199159 403.023077 267.356209 403.333333 266.503468 403.643590 265.641037 403.953846 264.769015 404.264103 263.887503 404.574359 262.996602 404.884615 262.096412 405.194872 261.187034 405.505128 260.268568 405.815385 259.341116 406.125641 258.404776 406.435897 257.459651 406.746154 256.505841 407.056410 255.543445 407.366667 254.572565 407.676923 253.593302 407.987179 252.605755 408.297436 251.610025 408.607692 250.606214 408.917949 249.594420 409.228205 248.574746 409.538462 247.547291 409.848718 246.512156 410.158974 245.469441 410.469231 244.419248 410.779487 243.361676 411.089744 242.296826 411.400000 241.224799 411.710256 240.145695 412.020513 239.059616 412.330769 237.966660 412.641026 236.866929 412.951282 235.760524 413.261538 234.647545 413.571795 233.528092 413.882051 232.402266 414.192308 231.270168 414.502564 230.131898 414.812821 228.987557 415.123077 227.837245 415.433333 226.681063 415.743590 225.519111 416.053846 224.351490 416.364103 223.178300 416.674359 221.999642 416.984615 220.815617 417.294872 219.626324 417.605128 218.431866 417.915385 217.232341 418.225641 216.027851 418.535897 214.818497 418.846154 213.604378 419.156410 212.385595 419.466667 211.162249 419.776923 209.934440 420.087179 208.702270 420.397436 207.465838 420.707692 206.225245 421.017949 204.980591 421.328205 203.731978 421.638462 202.479505 421.948718 201.223273 422.258974 199.963383 422.569231 198.699935 422.879487 197.433031 423.189744 196.162769 423.500000 194.889251 423.810256 193.612578 424.120513 192.332850 424.430769 191.050167 424.741026 189.764630 425.051282 188.476340 425.361538 187.185398 425.671795 185.891902 425.982051 184.595955 426.292308 183.297657 426.602564 181.997108 426.912821 180.694409 427.223077 179.389661 427.533333 178.082963 427.843590 176.774417 428.153846 175.464123 428.464103 174.152181 428.774359 172.838693 429.084615 171.523758 429.394872 170.207477 429.705128 168.889951 430.015385 167.571281 430.325641 166.251566 430.635897 164.930908 430.946154 163.609406 431.256410 162.287163 431.566667 160.964277 431.876923 159.640849 432.187179 158.316981 432.497436 156.992772 432.807692 155.668324 433.117949 154.343736 433.428205 153.019110 433.738462 151.694545 434.048718 150.370143 434.358974 149.046004 434.669231 147.722228 434.979487 146.398916 435.289744 145.076168 435.600000 143.754086 435.910256 142.432769 436.220513 141.112319 436.530769 139.792835 436.841026 138.474418 437.151282 137.157169 437.461538 135.841189 437.771795 134.526577 438.082051 133.213435 438.392308 131.901862 438.702564 130.591961 439.012821 129.283830 439.323077 127.977571 439.633333 126.673284 439.943590 125.371069 440.253846 124.071028 440.564103 122.773261 440.874359 121.477868 441.184615 120.184949 441.494872 118.894606 441.805128 117.606940 442.115385 116.322049 442.425641 115.040036 442.735897 113.761000 443.046154 112.485042 443.356410 111.212263 443.666667 109.942763 443.976923 108.676643 444.287179 107.414003 444.597436 106.154944 444.907692 104.899566 445.217949 103.647970 445.528205 102.400257 445.838462 101.156526 446.148718 99.916879 446.458974 98.681417 446.769231 97.450238 447.079487 96.223445 447.389744 95.001138 447.700000 93.783417 448.010256 92.570383 448.320513 91.362136 448.630769 90.158777 448.941026 88.960406 449.251282 87.767124 449.561538 86.579032 449.871795 85.396230 450.182051 84.218819 450.492308 83.046898 450.802564 81.880570 451.112821 80.719933 451.423077 79.565089 451.733333 78.416139 452.043590 77.273182 452.353846 76.136320 452.664103 75.005653 452.974359 73.881281 453.284615 72.763306 453.594872 71.651826 453.905128 70.546944 454.215385 69.448760 454.525641 68.357374 454.835897 67.272886 455.146154 66.195398 455.456410 65.125010 455.766667 64.061822 456.076923 63.005935 456.387179 61.957449 456.697436 60.916466 457.007692 59.883085 457.317949 58.857407 457.628205 57.839532 457.938462 56.829562 458.248718 55.827597 458.558974 54.833736 458.869231 53.848082 459.179487 52.870734 459.489744 51.901793 459.800000 50.941359 460.110256 49.989533 460.420513 49.046416 460.730769 48.112108 461.041026 47.186709 461.351282 46.270321 461.661538 45.363043 461.971795 44.464976 462.282051 43.576222 462.592308 42.696879 462.902564 41.827050 463.212821 40.966833 463.523077 40.116331 463.833333 39.275643 464.143590 38.444871 464.453846 37.624114 464.764103 36.813472 465.074359 36.013048 465.384615 35.222941 465.694872 34.443252 466.005128 33.674080 466.315385 32.915528 466.625641 32.167695 466.935897 31.430682 467.246154 30.704590 467.556410 29.989518 467.866667 29.285568 468.176923 28.592840 468.487179 27.911435 468.797436 27.241453 469.107692 26.582995 469.417949 25.936160 469.728205 25.301051 470.038462 24.677767 470.348718 24.066409 470.658974 23.467078 470.969231 22.879873 471.279487 22.304896 471.589744 21.742247 471.900000 21.192026 472.210256 20.654335 472.520513 20.129274 472.830769 19.616942 473.141026 19.117442 473.451282 18.630872 473.761538 18.157335 474.071795 17.696930 474.382051 17.249758 474.692308 16.815919 475.002564 16.395515 475.312821 15.988645 475.623077 15.595410 475.933333 15.215911 476.243590 14.850248 476.553846 14.498522 476.864103 14.160833 477.174359 13.837282 477.484615 13.527970 477.794872 13.232996 478.105128 12.952462 478.415385 12.686468 478.725641 12.435114 479.035897 12.198501 479.346154 11.976731 479.656410 11.769868 479.966667 11.577843 480.276923 11.400554 480.587179 11.237895 480.897436 11.089763 481.207692 10.956055 481.517949 10.836667 481.828205 10.731494 482.138462 10.640434 482.448718 10.563382 482.758974 10.500234 483.069231 10.450887 483.379487 10.415238 483.689744 10.393182 484.000000 10.384615 484.310256 10.389435 484.620513 10.407536 484.930769 10.438816 485.241026 10.483170 485.551282 10.540496 485.861538 10.610688 486.171795 10.693643 486.482051 10.789259 486.792308 10.897430 487.102564 11.018053 487.412821 11.151024 487.723077 11.296240 488.033333 11.453597 488.343590 11.622990 488.653846 11.804317 488.964103 11.997474 489.274359 12.202356 489.584615 12.418860 489.894872 12.646883 490.205128 12.886320 490.515385 13.137068 490.825641 13.399022 491.135897 13.672080 491.446154 13.956138 491.756410 14.251091 492.066667 14.556836 492.376923 14.873269 492.687179 15.200287 492.997436 15.537786 493.307692 15.885661 493.617949 16.243810 493.928205 16.612128 494.238462 16.990512 494.548718 17.378857 494.858974 17.777061 495.169231 18.185020 495.479487 18.602628 495.789744 19.029784 496.100000 19.466383 496.410256 19.912322 496.720513 20.367496 497.030769 20.831802 497.341026 21.305136 497.651282 21.787394 497.961538 22.278473 498.271795 22.778269 498.582051 23.286678 498.892308 23.803596 499.202564 24.328920 499.512821 24.862545 499.823077 25.404369 500.133333 25.954287 500.443590 26.512196 500.753846 27.077992 501.064103 27.651570 501.374359 28.232828 501.684615 28.821661 501.994872 29.417967 502.305128 30.021640 502.615385 30.632577 502.925641 31.250675 503.235897 31.875830 503.546154 32.507938 503.856410 33.146895 504.166667 33.792598 504.476923 34.444942 504.787179 35.103824 505.097436 35.769141 505.407692 36.440788 505.717949 37.118662 506.028205 37.802658 506.338462 38.492674 506.648718 39.188606 506.958974 39.890349 507.269231 40.597800 507.579487 41.310855 507.889744 42.029411 508.200000 42.753363 508.510256 43.482608 508.820513 44.217043 509.130769 44.956563 509.441026 45.701064 509.751282 46.450444 510.061538 47.204597 510.371795 47.963421 510.682051 48.726812 510.992308 49.494665 511.302564 50.266878 511.612821 51.043346 511.923077 51.823966 512.233333 52.608633 512.543590 53.397245 512.853846 54.189697 513.164103 54.985885 513.474359 55.785707 513.784615 56.589057 514.094872 57.395833 514.405128 58.205930 514.715385 59.019245 515.025641 59.835675 515.335897 60.655114 515.646154 61.477460 515.956410 62.302609 516.266667 63.130457 516.576923 63.960900 516.887179 64.793835 517.197436 65.629157 517.507692 66.466764 517.817949 67.306551 518.128205 68.148414 518.438462 68.992250 518.748718 69.837955 519.058974 70.685425 519.369231 71.534557 519.679487 72.385247 519.989744 73.237390 520.300000 74.090884 520.610256 74.945624 520.920513 75.801507 521.230769 76.658429 521.541026 77.516286 521.851282 78.374974 522.161538 79.234390 522.471795 80.094430 522.782051 80.954991 523.092308 81.815967 523.402564 82.677257 523.712821 83.538755 524.023077 84.400358 524.333333 85.261963 524.643590 86.123465 524.953846 86.984762 525.264103 87.845748 525.574359 88.706321 525.884615 89.566376 526.194872 90.425811 526.505128 91.284520 526.815385 92.142401 527.125641 92.999349 527.435897 93.855261 527.746154 94.710034 528.056410 95.563562 528.366667 96.415744 528.676923 97.266474 528.987179 98.115649 529.297436 98.963165 529.607692 99.808919 529.917949 100.652807 530.228205 101.494725 530.538462 102.334569 530.848718 103.172235 531.158974 104.007621 531.469231 104.840621 531.779487 105.671133 532.089744 106.499052 532.400000 107.324275 532.710256 108.146698 533.020513 108.966217 533.330769 109.782729 533.641026 110.596129 533.951282 111.406314 534.261538 112.213181 534.571795 113.016625 534.882051 113.816543 535.192308 114.612831 535.502564 115.405385 535.812821 116.194101 536.123077 116.978876 536.433333 117.759606 536.743590 118.536187 537.053846 119.308516 537.364103 120.076488 537.674359 120.840000 537.984615 121.598949 538.294872 122.353229 538.605128 123.102739 538.915385 123.847373 539.225641 124.587028 539.535897 125.321601 539.846154 126.050988 540.156410 126.775084 540.466667 127.493786 540.776923 128.206991 541.087179 128.914594 541.397436 129.616493 541.707692 130.312582 542.017949 131.002759 542.328205 131.686919 542.638462 132.364959 542.948718 133.036775 543.258974 133.702263 543.569231 134.361320 543.879487 135.013842 544.189744 135.659725 544.500000 136.298865 544.810256 136.931159 545.120513 137.556502 545.430769 138.174792 545.741026 138.785923 546.051282 139.389794 546.361538 139.986299 546.671795 140.575335 546.982051 141.156798 547.292308 141.730585 547.602564 142.296591 547.912821 142.854714 548.223077 143.404848 548.533333 143.946891 548.843590 144.480739 549.153846 145.006288 549.464103 145.523434 549.774359 146.032074 550.084615 146.532103 550.394872 147.023418 550.705128 147.505915 551.015385 147.979491 551.325641 148.444041 551.635897 148.899463 551.946154 149.345651 552.256410 149.782503 552.566667 150.209915 552.876923 150.627782 553.187179 151.036002 553.497436 151.434470 553.807692 151.823082 554.117949 152.201736 554.428205 152.570326 554.738462 152.928750 555.048718 153.276904 555.358974 153.614683 555.669231 153.941984 555.979487 154.258704 556.289744 154.564739 556.600000 154.859984 556.910256 155.144336 557.220513 155.417722 557.530769 155.680188 557.841026 155.931811 558.151282 156.172667 558.461538 156.402835 558.771795 156.622390 559.082051 156.831410 559.392308 157.029971 559.702564 157.218150 560.012821 157.396024 560.323077 157.563670 560.633333 157.721165 560.943590 157.868585 561.253846 158.006008 561.564103 158.133510 561.874359 158.251169 562.184615 158.359060 562.494872 158.457261 562.805128 158.545849 563.115385 158.624901 563.425641 158.694493 563.735897 158.754702 564.046154 158.805606 564.356410 158.847281 564.666667 158.879803 564.976923 158.903250 565.287179 158.917699 565.597436 158.923226 565.907692 158.919909 566.217949 158.907824 566.528205 158.887048 566.838462 158.857658 567.148718 158.819730 567.458974 158.773342 567.769231 158.718571 568.079487 158.655493 568.389744 158.584185 568.700000 158.504724 569.010256 158.417187 569.320513 158.321650 569.630769 158.218192 569.941026 158.106888 570.251282 157.987815 570.561538 157.861050 570.871795 157.726670 571.182051 157.584753 571.492308 157.435374 571.802564 157.278610 572.112821 157.114539 572.423077 156.943238 572.733333 156.764782 573.043590 156.579250 573.353846 156.386717 573.664103 156.187261 573.974359 155.980959 574.284615 155.767888 574.594872 155.548123 574.905128 155.321743 575.215385 155.088824 575.525641 154.849443 575.835897 154.603676 576.146154 154.351601 576.456410 154.093295 576.766667 153.828834 577.076923 153.558295 577.387179 153.281755 577.697436 152.999291 578.007692 152.710980 578.317949 152.416898 578.628205 152.117123 578.938462 151.811731 579.248718 151.500799 579.558974 151.184405 579.869231 150.862624 580.179487 150.535534 580.489744 150.203212 580.800000 149.865734 581.110256 149.523177 581.420513 149.175619 581.730769 148.823136 582.041026 148.465804 582.351282 148.103701 582.661538 147.736904 582.971795 147.365490 583.282051 146.989534 583.592308 146.609115 583.902564 146.224309 584.212821 145.835193 584.523077 145.441844 584.833333 145.044338 585.143590 144.642752 585.453846 144.237164 585.764103 143.827651 586.074359 143.414288 586.384615 142.997153 586.694872 142.576323 587.005128 142.151874 587.315385 141.723884 587.625641 141.292429 587.935897 140.857587 588.246154 140.419433 588.556410 139.978046 588.866667 139.533501 589.176923 139.085876 589.487179 138.635247 589.797436 138.181691 590.107692 137.725286 590.417949 137.266108 590.728205 136.804234 591.038462 136.339740 591.348718 135.872704 591.658974 135.403203 591.969231 134.931313 592.279487 134.457111 592.589744 133.980674 592.900000 133.502079 593.210256 133.021402 593.520513 132.538722 593.830769 132.054114 594.141026 131.567655 594.451282 131.079422 594.761538 130.589492 595.071795 130.097943 595.382051 129.604850 595.692308 129.110290 596.002564 128.614342 596.312821 128.117080 596.623077 127.618583 596.933333 127.118926 597.243590 126.618188 597.553846 126.116444 597.864103 125.613772 598.174359 125.110249 598.484615 124.605950 598.794872 124.100954 599.105128 123.595337 599.415385 123.089176 599.725641 122.582548 600.035897 122.075529 600.346154 121.568197 600.656410 121.060628 600.966667 120.552899 601.276923 120.045087 601.587179 119.537270 601.897436 119.029523 602.207692 118.521923 602.517949 118.014548 602.828205 117.507475 603.138462 117.000779 603.448718 116.494539 603.758974 115.988830 604.069231 115.483731 604.379487 114.979317 604.689744 114.475665 605.000000 113.972853 605.310256 113.470957 605.620513 112.970054 605.930769 112.470220 606.241026 111.971534 606.551282 111.474071 606.861538 110.977909 607.171795 110.483124 607.482051 109.989793 607.792308 109.497993 608.102564 109.007802 608.412821 108.519295 608.723077 108.032549 609.033333 107.547642 609.343590 107.064651 609.653846 106.583651 609.964103 106.104721 610.274359 105.627936 610.584615 105.153374 610.894872 104.681112 611.205128 104.211227 611.515385 103.743794 611.825641 103.278892 612.135897 102.816597 612.446154 102.356986 612.756410 101.900136 613.066667 101.446123 613.376923 100.995025 613.687179 100.546918 613.997436 100.101879 614.307692 99.659985 614.617949 99.221313 614.928205 98.785940 615.238462 98.353943 615.548718 97.925398 615.858974 97.500382 616.169231 97.078973 616.479487 96.661247 616.789744 96.247280 617.100000 95.837150 617.410256 95.430934 617.720513 95.028709 618.030769 94.630550 618.341026 94.236536 618.651282 93.846743 618.961538 93.461248 619.271795 93.080128 619.582051 92.703459 619.892308 92.331319 620.202564 91.963784 620.512821 91.600931 620.823077 91.242838 621.133333 90.889580 621.443590 90.541235 621.753846 90.197880 622.064103 89.859591 622.374359 89.526445 622.684615 89.198520 622.994872 88.875891 623.305128 88.558637 623.615385 88.246833 623.925641 87.940557 624.235897 87.639886 624.546154 87.344896 624.856410 87.055664 625.166667 86.772267 625.476923 86.494782 625.787179 86.223285 626.097436 85.957855 626.407692 85.698567 626.717949 85.445498 627.028205 85.198725 627.338462 84.958326 627.648718 84.724376 627.958974 84.496953 628.269231 84.276134 628.579487 84.061995 628.889744 83.854614 629.200000 83.654066 629.510256 83.460430 629.820513 83.273782 630.130769 83.094198 630.441026 82.921756 630.751282 82.756533 631.061538 82.598605 631.371795 82.448049 631.682051 82.304942 631.992308 82.169361 632.302564 82.041383 632.612821 81.921085 632.923077 81.808543 633.233333 81.703834 633.543590 81.607036 633.853846 81.518224 634.164103 81.437477 634.474359 81.364870 634.784615 81.300462 635.094872 81.244240 635.405128 81.196169 635.715385 81.156217 636.025641 81.124352 636.335897 81.100539 636.646154 81.084747 636.956410 81.076943 637.266667 81.077093 637.576923 81.085165 637.887179 81.101126 638.197436 81.124943 638.507692 81.156583 638.817949 81.196014 639.128205 81.243202 639.438462 81.298114 639.748718 81.360719 640.058974 81.430982 640.369231 81.508871 640.679487 81.594353 640.989744 81.687395 641.300000 81.787965 641.610256 81.896029 641.920513 82.011555 642.230769 82.134509 642.541026 82.264860 642.851282 82.402573 643.161538 82.547616 643.471795 82.699957 643.782051 82.859562 644.092308 83.026399 644.402564 83.200434 644.712821 83.381635 645.023077 83.569969 645.333333 83.765403 645.643590 83.967904 645.953846 84.177439 646.264103 84.393976 646.574359 84.617482 646.884615 84.847923 647.194872 85.085266 647.505128 85.329480 647.815385 85.580531 648.125641 85.838386 648.435897 86.103012 648.746154 86.374377 649.056410 86.652448 649.366667 86.937191 649.676923 87.228574 649.987179 87.526564 650.297436 87.831128 650.607692 88.142233 650.917949 88.459847 651.228205 88.783936 651.538462 89.114467 651.848718 89.451409 652.158974 89.794727 652.469231 90.144390 652.779487 90.500363 653.089744 90.862615 653.400000 91.231112 653.710256 91.605822 654.020513 91.986711 654.330769 92.373747 654.641026 92.766897 654.951282 93.166128 655.261538 93.571408 655.571795 93.982702 655.882051 94.399979 656.192308 94.823206 656.502564 95.252349 656.812821 95.687376 657.123077 96.128254 657.433333 96.574950 657.743590 97.027431 658.053846 97.485665 658.364103 97.949618 658.674359 98.419258 658.984615 98.894551 659.294872 99.375466 659.605128 99.861968 659.915385 100.354025 660.225641 100.851605 660.535897 101.354674 660.846154 101.863200 661.156410 102.377149 661.466667 102.896489 661.776923 103.421186 662.087179 103.951209 662.397436 104.486524 662.707692 105.027098 663.017949 105.572899 663.328205 106.123893 663.638462 106.680048 663.948718 107.241331 664.258974 107.807709 664.569231 108.379148 664.879487 108.955617 665.189744 109.537082 665.500000 110.123511 665.810256 110.714870 666.120513 111.311127 666.430769 111.912249 666.741026 112.518202 667.051282 113.128955 667.361538 113.744474 667.671795 114.364727 667.982051 114.989680 668.292308 115.619300 668.602564 116.253555 668.912821 116.892412 669.223077 117.535838 669.533333 118.183801 669.843590 118.836266 670.153846 119.493202 670.464103 120.154575 670.774359 120.820353 671.084615 121.490503 671.394872 122.164992 671.705128 122.843787 672.015385 123.526855 672.325641 124.214163 672.635897 124.905678 672.946154 125.601369 673.256410 126.301200 673.566667 127.005141 673.876923 127.713158 674.187179 128.425217 674.497436 129.141287 674.807692 129.861335 675.117949 130.585326 675.428205 131.313230 675.738462 132.045012 676.048718 132.780639 676.358974 133.520080 676.669231 134.263301 676.979487 135.010269 677.289744 135.760952 677.600000 136.515316 677.910256 137.273329 678.220513 138.034957 678.530769 138.800168 678.841026 139.568930 679.151282 140.341208 679.461538 141.116971 679.771795 141.896185 680.082051 142.678818 680.392308 143.464836 680.702564 144.254207 681.012821 145.046898 681.323077 145.842876 681.633333 146.642109 681.943590 147.444562 682.253846 148.250204 682.564103 149.059002 682.874359 149.870922 683.184615 150.685932 683.494872 151.504000 683.805128 152.325091 684.115385 153.149173 684.425641 153.976214 684.735897 154.806180 685.046154 155.639039 685.356410 156.474757 685.666667 157.313303 685.976923 158.154642 686.287179 158.998743 686.597436 159.845572 686.907692 160.695096 687.217949 161.547282 687.528205 162.402099 687.838462 163.259512 688.148718 164.119489 688.458974 164.981997 688.769231 165.847003 689.079487 166.714474 689.389744 167.584378 689.700000 168.456682 690.010256 169.331352 690.320513 170.208356 690.630769 171.087661 690.941026 171.969234 691.251282 172.853042 691.561538 173.739052 691.871795 174.627232 692.182051 175.517548 692.492308 176.409969 692.802564 177.304460 693.112821 178.200989 693.423077 179.099523 693.733333 180.000029 694.043590 180.902475 694.353846 181.806827 694.664103 182.713053 694.974359 183.621119 695.284615 184.530994 695.594872 185.442643 695.905128 186.356035 696.215385 187.271135 696.525641 188.187913 696.835897 189.106333 697.146154 190.026365 697.456410 190.947974 697.766667 191.871128 698.076923 192.795794 698.387179 193.721939 698.697436 194.649531 699.007692 195.578536 699.317949 196.508922 699.628205 197.440655 699.938462 198.373703 700.248718 199.308033 700.558974 200.243612 700.869231 201.180408 701.179487 202.118386 701.489744 203.057516 701.800000 203.997762 702.110256 204.939094 702.420513 205.881477 702.730769 206.824880 703.041026 207.769268 703.351282 208.714610 703.661538 209.660872 703.971795 210.608021 704.282051 211.556026 704.592308 212.504852 704.902564 213.454466 705.212821 214.404837 705.523077 215.355931 705.833333 216.307716 706.143590 217.260157 706.453846 218.213224 706.764103 219.166882 707.074359 220.121098 707.384615 221.075841 707.694872 222.031077 708.005128 222.986773 708.315385 223.942896 708.625641 224.899413 708.935897 225.856293 709.246154 226.813501 709.556410 227.771004 709.866667 228.728771 710.176923 229.686768 710.487179 230.644962 710.797436 231.603320 711.107692 232.561810 711.417949 233.520399 711.728205 234.479053 712.038462 235.437740 712.038462 540.000000" /></g></g><g class="titles" /><g class="plot overlay" transform="translate(54, 20)"><g class="series serie-0 color-0"><g class="dots"><circle class="dot reactive tooltip-trigger" cx="13.96153846153846" cy="529.6153846153845" r="2.5" /><desc class="value">102,466,640(kWh)</desc><desc class="x top">13.96153846153846</desc><desc class="y top">529.6153846153845</desc><desc class="x_label">2549</desc></g><g class="dots"><circle class="dot reactive tooltip-trigger" cx="91.52564102564101" cy="476.8518463578238" r="2.5" /><desc class="value">110,931,235(kWh)</desc><desc class="x top">91.52564102564101</desc><desc class="y top">476.8518463578238</desc><desc class="x_label">2550</desc></g><g class="dots"><circle class="dot reactive tooltip-trigger" cx="169.08974358974356" cy="460.2716648075067" r="2.5" /><desc class="value">113,591,112(kWh)</desc><desc class="x top">169.08974358974356</desc><desc class="y top">460.2716648075067</desc><desc class="x_label">2551</desc></g><g class="dots"><circle class="dot reactive tooltip-trigger" cx="246.65384615384613" cy="369.9813452604591" r="2.5" /><desc class="value">128,075,944(kWh)</desc><desc class="x top">246.65384615384613</desc><desc class="y top">369.9813452604591</desc><desc class="x_label">2552</desc></g><g class="dots"><circle class="dot reactive tooltip-trigger" cx="324.21794871794873" cy="297.87035868901796" r="2.5" /><desc class="value">139,644,355(kWh)</desc><desc class="x top">324.21794871794873</desc><desc class="y top">297.87035868901796</desc><desc class="x_label">2553</desc></g><g class="dots"><circle class="dot reactive tooltip-trigger" cx="401.78205128205127" cy="270.668253378348" r="2.5" /><desc class="value">144,008,255(kWh)</desc><desc class="x left top">401.78205128205127</desc><desc class="y left top">270.668253378348</desc><desc class="x_label">2554</desc></g><g class="dots"><circle class="dot reactive tooltip-trigger" cx="479.3461538461538" cy="11.976730549013155" r="2.5" /><desc class="value">185,508,864(kWh)</desc><desc class="x left">479.3461538461538</desc><desc class="y left">11.976730549013155</desc><desc class="x_label">2555</desc></g><g class="dots"><circle class="dot reactive tooltip-trigger" cx="556.9102564102565" cy="155.14433615208384" r="2.5" /><desc class="value">162,541,189(kWh)</desc><desc class="x left">556.9102564102565</desc><desc class="y left">155.14433615208384</desc><desc class="x_label">2556</desc></g><g class="dots"><circle class="dot reactive tooltip-trigger" cx="634.474358974359" cy="81.36486984460703" r="2.5" /><desc class="value">174,377,266(kWh)</desc><desc class="x left">634.474358974359</desc><desc class="y left">81.36486984460703</desc><desc class="x_label">2557</desc></g><g class="dots"><circle class="dot reactive tooltip-trigger" cx="712.0384615384615" cy="235.43774018671854" r="2.5" /><desc class="value">149,660,113(kWh)</desc><desc class="x left">712.0384615384615</desc><desc class="y left">235.43774018671854</desc><desc class="x_label">2558</desc></g></g></g><g class="plot text-overlay" transform="translate(54, 20)"><g class="series serie-0 color-0" /></g><g class="plot tooltip-overlay" transform="translate(54, 20)"><g class="tooltip" style="opacity: 0" transform="translate(0 0)"><rect class="tooltip-box" height="0" rx="0" ry="0" width="0" /><g class="text" /></g></g></g></svg>