<?xml version='1.0' encoding='utf-8'?>
<svg xmlns:xlink="http://www.w3.org/1999/xlink" class="pygal-chart" id="chart-cfbab9ee-7540-4a04-af0a-a6e0556582f5" viewBox="0 0 800 600" xmlns="http://www.w3.org/2000/svg"><!--Generated with pygal 2.3.0 (etree) ©Kozea 2012-2016 on 2016-12-08--><!--http://pygal.org--><!--http://github.com/Kozea/pygal--><defs><style type="text/css">#chart-cfbab9ee-7540-4a04-af0a-a6e0556582f5{-webkit-user-select:none;-webkit-font-smoothing:antialiased;font-family:Consolas,"Liberation Mono",Menlo,Courier,monospace}#chart-cfbab9ee-7540-4a04-af0a-a6e0556582f5 .title{font-family:Consolas,"Liberation Mono",Menlo,Courier,monospace;font-size:16px}#chart-cfbab9ee-7540-4a04-af0a-a6e0556582f5 .legends .legend text{font-family:Consolas,"Liberation Mono",Menlo,Courier,monospace;font-size:14px}#chart-cfbab9ee-7540-4a04-af0a-a6e0556582f5 .axis text{font-family:Consolas,"Liberation Mono",Menlo,Courier,monospace;font-size:10px}#chart-cfbab9ee-7540-4a04-af0a-a6e0556582f5 .axis text.major{font-family:Consolas,"Liberation Mono",Menlo,Courier,monospace;font-size:10px}#chart-cfbab9ee-7540-4a04-af0a-a6e0556582f5 .text-overlay text.value{font-family:Consolas,"Liberation Mono",Menlo,Courier,monospace;font-size:16px}#chart-cfbab9ee-7540-4a04-af0a-a6e0556582f5 .text-overlay text.label{font-family:Consolas,"Liberation Mono",Menlo,Courier,monospace;font-size:10px}#chart-cfbab9ee-7540-4a04-af0a-a6e0556582f5 .tooltip{font-family:Consolas,"Liberation Mono",Menlo,Courier,monospace;font-size:14px}#chart-cfbab9ee-7540-4a04-af0a-a6e0556582f5 text.no_data{font-family:Consolas,"Liberation Mono",Menlo,Courier,monospace;font-size:64px}
#chart-cfbab9ee-7540-4a04-af0a-a6e0556582f5{background-color:rgba(249,249,249,1)}#chart-cfbab9ee-7540-4a04-af0a-a6e0556582f5 path,#chart-cfbab9ee-7540-4a04-af0a-a6e0556582f5 line,#chart-cfbab9ee-7540-4a04-af0a-a6e0556582f5 rect,#chart-cfbab9ee-7540-4a04-af0a-a6e0556582f5 circle{-webkit-transition:150ms;-moz-transition:150ms;transition:150ms}#chart-cfbab9ee-7540-4a04-af0a-a6e0556582f5 .graph &gt; .background{fill:rgba(249,249,249,1)}#chart-cfbab9ee-7540-4a04-af0a-a6e0556582f5 .plot &gt; .background{fill:rgba(255,255,255,1)}#chart-cfbab9ee-7540-4a04-af0a-a6e0556582f5 .graph{fill:rgba(0,0,0,.87)}#chart-cfbab9ee-7540-4a04-af0a-a6e0556582f5 text.no_data{fill:rgba(0,0,0,1)}#chart-cfbab9ee-7540-4a04-af0a-a6e0556582f5 .title{fill:rgba(0,0,0,1)}#chart-cfbab9ee-7540-4a04-af0a-a6e0556582f5 .legends .legend text{fill:rgba(0,0,0,.87)}#chart-cfbab9ee-7540-4a04-af0a-a6e0556582f5 .legends .legend:hover text{fill:rgba(0,0,0,1)}#chart-cfbab9ee-7540-4a04-af0a-a6e0556582f5 .axis .line{stroke:rgba(0,0,0,1)}#chart-cfbab9ee-7540-4a04-af0a-a6e0556582f5 .axis .guide.line{stroke:rgba(0,0,0,.54)}#chart-cfbab9ee-7540-4a04-af0a-a6e0556582f5 .axis .major.line{stroke:rgba(0,0,0,.87)}#chart-cfbab9ee-7540-4a04-af0a-a6e0556582f5 .axis text.major{fill:rgba(0,0,0,1)}#chart-cfbab9ee-7540-4a04-af0a-a6e0556582f5 .axis.y .guides:hover .guide.line,#chart-cfbab9ee-7540-4a04-af0a-a6e0556582f5 .line-graph .axis.x .guides:hover .guide.line,#chart-cfbab9ee-7540-4a04-af0a-a6e0556582f5 .stackedline-graph .axis.x .guides:hover .guide.line,#chart-cfbab9ee-7540-4a04-af0a-a6e0556582f5 .xy-graph .axis.x .guides:hover .guide.line{stroke:rgba(0,0,0,1)}#chart-cfbab9ee-7540-4a04-af0a-a6e0556582f5 .axis .guides:hover text{fill:rgba(0,0,0,1)}#chart-cfbab9ee-7540-4a04-af0a-a6e0556582f5 .reactive{fill-opacity:.7;stroke-opacity:.8}#chart-cfbab9ee-7540-4a04-af0a-a6e0556582f5 .ci{stroke:rgba(0,0,0,.87)}#chart-cfbab9ee-7540-4a04-af0a-a6e0556582f5 .reactive.active,#chart-cfbab9ee-7540-4a04-af0a-a6e0556582f5 .active .reactive{fill-opacity:.8;stroke-opacity:.9;stroke-width:4}#chart-cfbab9ee-7540-4a04-af0a-a6e0556582f5 .ci .reactive.active{stroke-width:1.5}#chart-cfbab9ee-7540-4a04-af0a-a6e0556582f5 .series text{fill:rgba(0,0,0,1)}#chart-cfbab9ee-7540-4a04-af0a-a6e0556582f5 .tooltip rect{fill:rgba(255,255,255,1);stroke:rgba(0,0,0,1);-webkit-transition:opacity 150ms;-moz-transition:opacity 150ms;transition:opacity 150ms}#chart-cfbab9ee-7540-4a04-af0a-a6e0556582f5 .tooltip .label{fill:rgba(0,0,0,.87)}#chart-cfbab9ee-7540-4a04-af0a-a6e0556582f5 .tooltip .label{fill:rgba(0,0,0,.87)}#chart-cfbab9ee-7540-4a04-af0a-a6e0556582f5 .tooltip .legend{font-size:.8em;fill:rgba(0,0,0,.54)}#chart-cfbab9ee-7540-4a04-af0a-a6e0556582f5 .tooltip .x_label{font-size:.6em;fill:rgba(0,0,0,1)}#chart-cfbab9ee-7540-4a04-af0a-a6e0556582f5 .tooltip .xlink{font-size:.5em;text-decoration:underline}#chart-cfbab9ee-7540-4a04-af0a-a6e0556582f5 .tooltip .value{font-size:1.5em}#chart-cfbab9ee-7540-4a04-af0a-a6e0556582f5 .bound{font-size:.5em}#chart-cfbab9ee-7540-4a04-af0a-a6e0556582f5 .max-value{font-size:.75em;fill:rgba(0,0,0,.54)}#chart-cfbab9ee-7540-4a04-af0a-a6e0556582f5 .map-element{fill:rgba(255,255,255,1);stroke:rgba(0,0,0,.54) !important}#chart-cfbab9ee-7540-4a04-af0a-a6e0556582f5 .map-element .reactive{fill-opacity:inherit;stroke-opacity:inherit}#chart-cfbab9ee-7540-4a04-af0a-a6e0556582f5 .color-0,#chart-cfbab9ee-7540-4a04-af0a-a6e0556582f5 .color-0 a:visited{stroke:#e86fa0;fill:#e86fa0}#chart-cfbab9ee-7540-4a04-af0a-a6e0556582f5 .text-overlay .color-0 text{fill:black}
#chart-cfbab9ee-7540-4a04-af0a-a6e0556582f5 text.no_data{text-anchor:middle}#chart-cfbab9ee-7540-4a04-af0a-a6e0556582f5 .guide.line{fill:none}#chart-cfbab9ee-7540-4a04-af0a-a6e0556582f5 .centered{text-anchor:middle}#chart-cfbab9ee-7540-4a04-af0a-a6e0556582f5 .title{text-anchor:middle}#chart-cfbab9ee-7540-4a04-af0a-a6e0556582f5 .legends .legend text{fill-opacity:1}#chart-cfbab9ee-7540-4a04-af0a-a6e0556582f5 .axis.x text{text-anchor:middle}#chart-cfbab9ee-7540-4a04-af0a-a6e0556582f5 .axis.x:not(.web) text[transform]{text-anchor:start}#chart-cfbab9ee-7540-4a04-af0a-a6e0556582f5 .axis.x:not(.web) text[transform].backwards{text-anchor:end}#chart-cfbab9ee-7540-4a04-af0a-a6e0556582f5 .axis.y text{text-anchor:end}#chart-cfbab9ee-7540-4a04-af0a-a6e0556582f5 .axis.y text[transform].backwards{text-anchor:start}#chart-cfbab9ee-7540-4a04-af0a-a6e0556582f5 .axis.y2 text{text-anchor:start}#chart-cfbab9ee-7540-4a04-af0a-a6e0556582f5 .axis.y2 text[transform].backwards{text-anchor:end}#chart-cfbab9ee-7540-4a04-af0a-a6e0556582f5 .axis .guide.line{stroke-dasharray:4,4}#chart-cfbab9ee-7540-4a04-af0a-a6e0556582f5 .axis .major.guide.line{stroke-dasharray:6,6}#chart-cfbab9ee-7540-4a04-af0a-a6e0556582f5 .horizontal .axis.y .guide.line,#chart-cfbab9ee-7540-4a04-af0a-a6e0556582f5 .horizontal .axis.y2 .guide.line,#chart-cfbab9ee-7540-4a04-af0a-a6e0556582f5 .vertical .axis.x .guide.line{opacity:0}#chart-cfbab9ee-7540-4a04-af0a-a6e0556582f5 .horizontal .axis.always_show .guide.line,#chart-cfbab9ee-7540-4a04-af0a-a6e0556582f5 .vertical .axis.always_show .guide.line{opacity:1 !important}#chart-cfbab9ee-7540-4a04-af0a-a6e0556582f5 .axis.y .guides:hover .guide.line,#chart-cfbab9ee-7540-4a04-af0a-a6e0556582f5 .axis.y2 .guides:hover .guide.line,#chart-cfbab9ee-7540-4a04-af0a-a6e0556582f5 .axis.x .guides:hover .guide.line{opacity:1}#chart-cfbab9ee-7540-4a04-af0a-a6e0556582f5 .axis .guides:hover text{opacity:1}#chart-cfbab9ee-7540-4a04-af0a-a6e0556582f5 .nofill{fill:none}#chart-cfbab9ee-7540-4a04-af0a-a6e0556582f5 .subtle-fill{fill-opacity:.2}#chart-cfbab9ee-7540-4a04-af0a-a6e0556582f5 .dot{stroke-width:1px;fill-opacity:1}#chart-cfbab9ee-7540-4a04-af0a-a6e0556582f5 .dot.active{stroke-width:5px}#chart-cfbab9ee-7540-4a04-af0a-a6e0556582f5 .dot.negative{fill:transparent}#chart-cfbab9ee-7540-4a04-af0a-a6e0556582f5 text,#chart-cfbab9ee-7540-4a04-af0a-a6e0556582f5 tspan{stroke:none !important}#chart-cfbab9ee-7540-4a04-af0a-a6e0556582f5 .series text.active{opacity:1}#chart-cfbab9ee-7540-4a04-af0a-a6e0556582f5 .tooltip rect{fill-opacity:.95;stroke-width:.5}#chart-cfbab9ee-7540-4a04-af0a-a6e0556582f5 .tooltip text{fill-opacity:1}#chart-cfbab9ee-7540-4a04-af0a-a6e0556582f5 .showable{visibility:hidden}#chart-cfbab9ee-7540-4a04-af0a-a6e0556582f5 .showable.shown{visibility:visible}#chart-cfbab9ee-7540-4a04-af0a-a6e0556582f5 .gauge-background{fill:rgba(229,229,229,1);stroke:none}#chart-cfbab9ee-7540-4a04-af0a-a6e0556582f5 .bg-lines{stroke:rgba(249,249,249,1);stroke-width:2px}</style><script type="text/javascript">window.pygal = window.pygal || {};window.pygal.config = window.pygal.config || {};window.pygal.config['cfbab9ee-7540-4a04-af0a-a6e0556582f5'] = {"no_data_text": "No data", "no_prefix": false, "xrange": null, "print_values_position": "center", "truncate_label": null, "x_labels": ["2549", "2550", "2551", "2552", "2553", "2554", "2555", "2556", "2557", "2558"], "title": null, "force_uri_protocol": "https", "defs": [], "formatter": null, "classes": ["pygal-chart"], "y_labels": null, "rounded_bars": null, "explicit_size": false, "x_labels_major_every": null, "legend_at_bottom_columns": null, "stroke_style": null, "half_pie": false, "spacing": 10, "tooltip_fancy_mode": true, "inverse_y_axis": false, "width": 800, "inner_radius": 0, "interpolation_parameters": {}, "tooltip_border_radius": 0, "style": {"no_data_font_family": "Consolas, \"Liberation Mono\", Menlo, Courier, monospace", "tooltip_font_size": 14, "tooltip_font_family": "Consolas, \"Liberation Mono\", Menlo, Courier, monospace", "stroke_opacity_hover": ".9", "legend_font_family": "Consolas, \"Liberation Mono\", Menlo, Courier, monospace", "font_family": "Consolas, \"Liberation Mono\", Menlo, Courier, monospace", "title_font_family": "Consolas, \"Liberation Mono\", Menlo, Courier, monospace", "background": "rgba(249, 249, 249, 1)", "stroke_opacity": ".8", "foreground": "rgba(0, 0, 0, .87)", "value_background": "rgba(229, 229, 229, 1)", "guide_stroke_dasharray": "4,4", "foreground_subtle": "rgba(0, 0, 0, .54)", "opacity_hover": ".8", "value_font_family": "Consolas, \"Liberation Mono\", Menlo, Courier, monospace", "value_label_font_size": 10, "plot_background": "rgba(255, 255, 255, 1)", "ci_colors": [], "label_font_size": 10, "major_label_font_size": 10, "title_font_size": 16, "no_data_font_size": 64, "value_font_size": 16, "value_colors": [], "label_font_family": "Consolas, \"Liberation Mono\", Menlo, Courier, monospace", "major_guide_stroke_dasharray": "6,6", "transition": "150ms", "foreground_strong": "rgba(0, 0, 0, 1)", "colors": ["#e86fa0", "#e88f6f", "#e8df6f", "#a0e86f", "#6fe88f", "#6fe8df", "#6fa0e8", "#8f6fe8", "#df6fe8", "#e86fa0"], "opacity": ".7", "legend_font_size": 14, "value_label_font_family": "Consolas, \"Liberation Mono\", Menlo, Courier, monospace", "major_label_font_family": "Consolas, \"Liberation Mono\", Menlo, Courier, monospace"}, "x_labels_major_count": null, "interpolation_precision": 250, "missing_value_fill_truncation": "x", "stack_from_top": false, "truncate_legend": null, "show_minor_x_labels": true, "print_zeroes": true, "css": ["file://style.css", "file://graph.css"], "y_label_rotation": 0, "legend_at_bottom": false, "print_values": false, "margin_top": null, "max_scale": 16, "allow_interruptions": false, "show_x_labels": true, "strict": false, "show_x_guides": false, "stroke": true, "margin_left": null, "dynamic_print_values": false, "print_labels": false, "show_y_labels": true, "x_labels_major": null, "range": null, "x_label_rotation": 0, "margin": 20, "zero": 0, "include_x_axis": false, "height": 600, "show_minor_y_labels": true, "show_dots": true, "interpolate": "cubic", "show_y_guides": true, "y_labels_major": null, "box_mode": "extremes", "margin_bottom": null, "order_min": null, "legend_box_size": 12, "fill": true, "show_only_major_dots": false, "js": ["//kozea.github.io/pygal.js/2.0.x/pygal-tooltips.min.js"], "x_title": null, "y_labels_major_every": null, "y_labels_major_count": null, "disable_xml_declaration": false, "y_title": null, "logarithmic": false, "pretty_print": false, "min_scale": 4, "dots_size": 2.5, "margin_right": null, "legends": [null], "secondary_range": null, "show_legend": false}</script><script type="text/javascript" xlink:href="https://kozea.github.io/pygal.js/2.0.x/pygal-tooltips.min.js" /></defs><title>Pygal</title><g class="graph stackedline-graph vertical"><rect class="background" height="600" width="800" x="0" y="0" /><g class="plot" transform="translate(60, 20)"><rect class="background" height="540" width="720.0" x="0" y="0" /><g class="axis y"><path class="line" d="M0.000000 540.000000 h720.000000" /><g class="guides"><path class="guide line" d="M0.000000 503.027334 h720.000000" /><text class="" x="-5" y="506.52733360593515">1800M</text><title>1800M</title></g><g class="guides"><path class="guide line" d="M0.000000 460.043708 h720.000000" /><text class="" x="-5" y="463.5437075756821">1900M</text><title>1900M</title></g><g class="guides"><path class="major guide line" d="M0.000000 417.060082 h720.000000" /><text class="major" x="-5" y="420.56008154542906">2000M</text><title>2000M</title></g><g class="guides"><path class="guide line" d="M0.000000 374.076456 h720.000000" /><text class="" x="-5" y="377.57645551517595">2100M</text><title>2100M</title></g><g class="guides"><path class="guide line" d="M0.000000 331.092829 h720.000000" /><text class="" x="-5" y="334.5928294849229">2200M</text><title>2200M</title></g><g class="guides"><path class="guide line" d="M0.000000 288.109203 h720.000000" /><text class="" x="-5" y="291.6092034546698">2300M</text><title>2300M</title></g><g class="guides"><path class="guide line" d="M0.000000 245.125577 h720.000000" /><text class="" x="-5" y="248.62557742441675">2400M</text><title>2400M</title></g><g class="guides"><path class="major guide line" d="M0.000000 202.141951 h720.000000" /><text class="major" x="-5" y="205.6419513941637">2500M</text><title>2500M</title></g><g class="guides"><path class="guide line" d="M0.000000 159.158325 h720.000000" /><text class="" x="-5" y="162.65832536391065">2600M</text><title>2600M</title></g><g class="guides"><path class="guide line" d="M0.000000 116.174699 h720.000000" /><text class="" x="-5" y="119.67469933365754">2700M</text><title>2700M</title></g><g class="guides"><path class="guide line" d="M0.000000 73.191073 h720.000000" /><text class="" x="-5" y="76.69107330340444">2800M</text><title>2800M</title></g><g class="guides"><path class="guide line" d="M0.000000 30.207447 h720.000000" /><text class="" x="-5" y="33.70744727315139">2900M</text><title>2900M</title></g></g><g class="axis x"><g class="guides"><path class="line" d="M13.846154 0.000000 v540.000000" /><text class="" x="13.846153846153847" y="555.0">2549</text></g><g class="guides"><path class="guide line" d="M90.769231 0.000000 v540.000000" /><text class="" x="90.76923076923076" y="555.0">2550</text></g><g class="guides"><path class="guide line" d="M167.692308 0.000000 v540.000000" /><text class="" x="167.69230769230765" y="555.0">2551</text></g><g class="guides"><path class="guide line" d="M244.615385 0.000000 v540.000000" /><text class="" x="244.6153846153846" y="555.0">2552</text></g><g class="guides"><path class="guide line" d="M321.538462 0.000000 v540.000000" /><text class="" x="321.5384615384615" y="555.0">2553</text></g><g class="guides"><path class="guide line" d="M398.461538 0.000000 v540.000000" /><text class="" x="398.46153846153845" y="555.0">2554</text></g><g class="guides"><path class="guide line" d="M475.384615 0.000000 v540.000000" /><text class="" x="475.38461538461536" y="555.0">2555</text></g><g class="guides"><path class="guide line" d="M552.307692 0.000000 v540.000000" /><text class="" x="552.3076923076923" y="555.0">2556</text></g><g class="guides"><path class="guide line" d="M629.230769 0.000000 v540.000000" /><text class="" x="629.2307692307692" y="555.0">2557</text></g><g class="guides"><path class="guide line" d="M706.153846 0.000000 v540.000000" /><text class="" x="706.1538461538461" y="555.0">2558</text></g></g><g class="series serie-0 color-0"><path class="line reactive" d="M13.846154 540.000000 L13.846154 529.615385 14.153846 529.309145 14.461538 529.002908 14.769231 528.696676 15.076923 528.390450 15.384615 528.084235 15.692308 527.778031 16.000000 527.471841 16.307692 527.165668 16.615385 526.859513 16.923077 526.553380 17.230769 526.247271 17.538462 525.941187 17.846154 525.635132 18.153846 525.329108 18.461538 525.023116 18.769231 524.717160 19.076923 524.411242 19.384615 524.105364 19.692308 523.799529 20.000000 523.493738 20.307692 523.187995 20.615385 522.882302 20.923077 522.576660 21.230769 522.271073 21.538462 521.965542 21.846154 521.660071 22.153846 521.354660 22.461538 521.049314 22.769231 520.744034 23.076923 520.438822 23.384615 520.133682 23.692308 519.828614 24.000000 519.523622 24.307692 519.218709 24.615385 518.913875 24.923077 518.609124 25.230769 518.304459 25.538462 517.999880 25.846154 517.695392 26.153846 517.390995 26.461538 517.086693 26.769231 516.782488 27.076923 516.478383 27.384615 516.174379 27.692308 515.870478 28.000000 515.566684 28.307692 515.262999 28.615385 514.959425 28.923077 514.655965 29.230769 514.352620 29.538462 514.049393 29.846154 513.746287 30.153846 513.443303 30.461538 513.140445 30.769231 512.837715 31.076923 512.535114 31.384615 512.232646 31.692308 511.930312 32.000000 511.628116 32.307692 511.326058 32.615385 511.024143 32.923077 510.722372 33.230769 510.420747 33.538462 510.119271 33.846154 509.817947 34.153846 509.516776 34.461538 509.215761 34.769231 508.914904 35.076923 508.614208 35.384615 508.313675 35.692308 508.013307 36.000000 507.713107 36.307692 507.413077 36.615385 507.113220 36.923077 506.813538 37.230769 506.514032 37.538462 506.214707 37.846154 505.915563 38.153846 505.616604 38.461538 505.317831 38.769231 505.019247 39.076923 504.720855 39.384615 504.422657 39.692308 504.124654 40.000000 503.826850 40.307692 503.529247 40.615385 503.231847 40.923077 502.934653 41.230769 502.637667 41.538462 502.340891 41.846154 502.044327 42.153846 501.747979 42.461538 501.451848 42.769231 501.155937 43.076923 500.860248 43.384615 500.564783 43.692308 500.269545 44.000000 499.974536 44.307692 499.679759 44.615385 499.385216 44.923077 499.090909 45.230769 498.796841 45.538462 498.503014 45.846154 498.209430 46.153846 497.916092 46.461538 497.623002 46.769231 497.330163 47.076923 497.037576 47.384615 496.745245 47.692308 496.453171 48.000000 496.161357 48.307692 495.869805 48.615385 495.578518 48.923077 495.287498 49.230769 494.996747 49.538462 494.706268 49.846154 494.416064 50.153846 494.126135 50.461538 493.836486 50.769231 493.547117 51.076923 493.258032 51.384615 492.969233 51.692308 492.680723 52.000000 492.392503 52.307692 492.104576 52.615385 491.816944 52.923077 491.529610 53.230769 491.242576 53.538462 490.955845 53.846154 490.669418 54.153846 490.383299 54.461538 490.097489 54.769231 489.811991 55.076923 489.526807 55.384615 489.241940 55.692308 488.957392 56.000000 488.673166 56.307692 488.389262 56.615385 488.105686 56.923077 487.822437 57.230769 487.539519 57.538462 487.256935 57.846154 486.974686 58.153846 486.692775 58.461538 486.411204 58.769231 486.129976 59.076923 485.849092 59.384615 485.568557 59.692308 485.288370 60.000000 485.008536 60.307692 484.729057 60.615385 484.449934 60.923077 484.171170 61.230769 483.892768 61.538462 483.614729 61.846154 483.337057 62.153846 483.059754 62.461538 482.782821 62.769231 482.506262 63.076923 482.230079 63.384615 481.954274 63.692308 481.678849 64.000000 481.403806 64.307692 481.129149 64.615385 480.854880 64.923077 480.581000 65.230769 480.307513 65.538462 480.034420 65.846154 479.761724 66.153846 479.489428 66.461538 479.217533 66.769231 478.946042 67.076923 478.674958 67.384615 478.404282 67.692308 478.134018 68.000000 477.864167 68.307692 477.594732 68.615385 477.325715 68.923077 477.057119 69.230769 476.788946 69.538462 476.521198 69.846154 476.253878 70.153846 475.986988 70.461538 475.720530 70.769231 475.454507 71.076923 475.188921 71.384615 474.923775 71.692308 474.659070 72.000000 474.394810 72.307692 474.130996 72.615385 473.867631 72.923077 473.604718 73.230769 473.342258 73.538462 473.080254 73.846154 472.818709 74.153846 472.557625 74.461538 472.297003 74.769231 472.036847 75.076923 471.777159 75.384615 471.517941 75.692308 471.259196 76.000000 471.000926 76.307692 470.743133 76.615385 470.485819 76.923077 470.228988 77.230769 469.972641 77.538462 469.716781 77.846154 469.461410 78.153846 469.206530 78.461538 468.952144 78.769231 468.698255 79.076923 468.444864 79.384615 468.191974 79.692308 467.939587 80.000000 467.687706 80.307692 467.436333 80.615385 467.185470 80.923077 466.935120 81.230769 466.685285 81.538462 466.435968 81.846154 466.187170 82.153846 465.938895 82.461538 465.691144 82.769231 465.443921 83.076923 465.197226 83.384615 464.951063 83.692308 464.705434 84.000000 464.460342 84.307692 464.215788 84.615385 463.971775 84.923077 463.728306 85.230769 463.485383 85.538462 463.243008 85.846154 463.001183 86.153846 462.759911 86.461538 462.519195 86.769231 462.279036 87.076923 462.039437 87.384615 461.800401 87.692308 461.561929 88.000000 461.324025 88.307692 461.086690 88.615385 460.849926 88.923077 460.613737 89.230769 460.378125 89.538462 460.143091 89.846154 459.908639 90.153846 459.674770 90.461538 459.441487 90.769231 459.208793 91.076923 458.976689 91.384615 458.745174 91.692308 458.514247 92.000000 458.283908 92.307692 458.054155 92.615385 457.824987 92.923077 457.596402 93.230769 457.368400 93.538462 457.140979 93.846154 456.914138 94.153846 456.687877 94.461538 456.462193 94.769231 456.237085 95.076923 456.012553 95.384615 455.788596 95.692308 455.565211 96.000000 455.342398 96.307692 455.120156 96.615385 454.898483 96.923077 454.677379 97.230769 454.456842 97.538462 454.236871 97.846154 454.017465 98.153846 453.798622 98.461538 453.580342 98.769231 453.362623 99.076923 453.145465 99.384615 452.928865 99.692308 452.712823 100.000000 452.497338 100.307692 452.282408 100.615385 452.068032 100.923077 451.854209 101.230769 451.640938 101.538462 451.428218 101.846154 451.216047 102.153846 451.004425 102.461538 450.793350 102.769231 450.582821 103.076923 450.372836 103.384615 450.163396 103.692308 449.954497 104.000000 449.746140 104.307692 449.538323 104.615385 449.331045 104.923077 449.124305 105.230769 448.918102 105.538462 448.712433 105.846154 448.507299 106.153846 448.302698 106.461538 448.098629 106.769231 447.895091 107.076923 447.692082 107.384615 447.489601 107.692308 447.287647 108.000000 447.086220 108.307692 446.885317 108.615385 446.684938 108.923077 446.485081 109.230769 446.285746 109.538462 446.086930 109.846154 445.888634 110.153846 445.690855 110.461538 445.493593 110.769231 445.296846 111.076923 445.100614 111.384615 444.904894 111.692308 444.709686 112.000000 444.514989 112.307692 444.320802 112.615385 444.127122 112.923077 443.933950 113.230769 443.741284 113.538462 443.549123 113.846154 443.357465 114.153846 443.166310 114.461538 442.975655 114.769231 442.785501 115.076923 442.595846 115.384615 442.406689 115.692308 442.218028 116.000000 442.029862 116.307692 441.842191 116.615385 441.655013 116.923077 441.468326 117.230769 441.282130 117.538462 441.096424 117.846154 440.911206 118.153846 440.726475 118.461538 440.542230 118.769231 440.358469 119.076923 440.175193 119.384615 439.992398 119.692308 439.810085 120.000000 439.628252 120.307692 439.446898 120.615385 439.266022 120.923077 439.085622 121.230769 438.905697 121.538462 438.726247 121.846154 438.547270 122.153846 438.368764 122.461538 438.190729 122.769231 438.013164 123.076923 437.836067 123.384615 437.659436 123.692308 437.483272 124.000000 437.307573 124.307692 437.132337 124.615385 436.957564 124.923077 436.783251 125.230769 436.609399 125.538462 436.436006 125.846154 436.263070 126.153846 436.090591 126.461538 435.918567 126.769231 435.746998 127.076923 435.575881 127.384615 435.405216 127.692308 435.235002 128.000000 435.065237 128.307692 434.895921 128.615385 434.727051 128.923077 434.558628 129.230769 434.390649 129.538462 434.223114 129.846154 434.056021 130.153846 433.889369 130.461538 433.723158 130.769231 433.557385 131.076923 433.392050 131.384615 433.227151 131.692308 433.062688 132.000000 432.898659 132.307692 432.735062 132.615385 432.571898 132.923077 432.409164 133.230769 432.246860 133.538462 432.084984 133.846154 431.923535 134.153846 431.762512 134.461538 431.601913 134.769231 431.441738 135.076923 431.281986 135.384615 431.122655 135.692308 430.963743 136.000000 430.805251 136.307692 430.647176 136.615385 430.489518 136.923077 430.332275 137.230769 430.175446 137.538462 430.019030 137.846154 429.863026 138.153846 429.707432 138.461538 429.552248 138.769231 429.397472 139.076923 429.243103 139.384615 429.089140 139.692308 428.935582 140.000000 428.782427 140.307692 428.629675 140.615385 428.477324 140.923077 428.325372 141.230769 428.173820 141.538462 428.022665 141.846154 427.871907 142.153846 427.721544 142.461538 427.571575 142.769231 427.421999 143.076923 427.272815 143.384615 427.124021 143.692308 426.975617 144.000000 426.827601 144.307692 426.679972 144.615385 426.532729 144.923077 426.385871 145.230769 426.239396 145.538462 426.093303 145.846154 425.947592 146.153846 425.802261 146.461538 425.657308 146.769231 425.512733 147.076923 425.368534 147.384615 425.224711 147.692308 425.081262 148.000000 424.938186 148.307692 424.795481 148.615385 424.653148 148.923077 424.511183 149.230769 424.369587 149.538462 424.228357 149.846154 424.087494 150.153846 423.946995 150.461538 423.806860 150.769231 423.667087 151.076923 423.527675 151.384615 423.388624 151.692308 423.249931 152.000000 423.111595 152.307692 422.973616 152.615385 422.835993 152.923077 422.698723 153.230769 422.561806 153.538462 422.425241 153.846154 422.289027 154.153846 422.153162 154.461538 422.017645 154.769231 421.882475 155.076923 421.747651 155.384615 421.613172 155.692308 421.479036 156.000000 421.345242 156.307692 421.211790 156.615385 421.078678 156.923077 420.945904 157.230769 420.813468 157.538462 420.681368 157.846154 420.549604 158.153846 420.418173 158.461538 420.287076 158.769231 420.156310 159.076923 420.025875 159.384615 419.895769 159.692308 419.765991 160.000000 419.636541 160.307692 419.507416 160.615385 419.378616 160.923077 419.250139 161.230769 419.121985 161.538462 418.994151 161.846154 418.866638 162.153846 418.739443 162.461538 418.612566 162.769231 418.486006 163.076923 418.359760 163.384615 418.233829 163.692308 418.108211 164.000000 417.982904 164.307692 417.857908 164.615385 417.733221 164.923077 417.608842 165.230769 417.484770 165.538462 417.361005 165.846154 417.237543 166.153846 417.114385 166.461538 416.991530 166.769231 416.868975 167.076923 416.746721 167.384615 416.624765 167.692308 416.503107 168.000000 416.381744 168.307692 416.260669 168.615385 416.139872 168.923077 416.019346 169.230769 415.899081 169.538462 415.779069 169.846154 415.659301 170.153846 415.539769 170.461538 415.420463 170.769231 415.301375 171.076923 415.182496 171.384615 415.063817 171.692308 414.945330 172.000000 414.827026 172.307692 414.708897 172.615385 414.590933 172.923077 414.473125 173.230769 414.355466 173.538462 414.237946 173.846154 414.120557 174.153846 414.003289 174.461538 413.886135 174.769231 413.769085 175.076923 413.652131 175.384615 413.535264 175.692308 413.418475 176.000000 413.301756 176.307692 413.185098 176.615385 413.068491 176.923077 412.951928 177.230769 412.835400 177.538462 412.718898 177.846154 412.602413 178.153846 412.485936 178.461538 412.369459 178.769231 412.252973 179.076923 412.136469 179.384615 412.019939 179.692308 411.903374 180.000000 411.786765 180.307692 411.670103 180.615385 411.553380 180.923077 411.436587 181.230769 411.319715 181.538462 411.202756 181.846154 411.085700 182.153846 410.968540 182.461538 410.851266 182.769231 410.733869 183.076923 410.616341 183.384615 410.498674 183.692308 410.380857 184.000000 410.262884 184.307692 410.144744 184.615385 410.026430 184.923077 409.907932 185.230769 409.789243 185.538462 409.670352 185.846154 409.551251 186.153846 409.431932 186.461538 409.312386 186.769231 409.192605 187.076923 409.072578 187.384615 408.952299 187.692308 408.831757 188.000000 408.710945 188.307692 408.589853 188.615385 408.468473 188.923077 408.346796 189.230769 408.224814 189.538462 408.102517 189.846154 407.979897 190.153846 407.856945 190.461538 407.733653 190.769231 407.610012 191.076923 407.486012 191.384615 407.361646 191.692308 407.236904 192.000000 407.111779 192.307692 406.986260 192.615385 406.860340 192.923077 406.734009 193.230769 406.607260 193.538462 406.480083 193.846154 406.352469 194.153846 406.224410 194.461538 406.095897 194.769231 405.966921 195.076923 405.837474 195.384615 405.707547 195.692308 405.577131 196.000000 405.446217 196.307692 405.314797 196.615385 405.182862 196.923077 405.050404 197.230769 404.917413 197.538462 404.783880 197.846154 404.649798 198.153846 404.515157 198.461538 404.379949 198.769231 404.244165 199.076923 404.107795 199.384615 403.970833 199.692308 403.833268 200.000000 403.695092 200.307692 403.556296 200.615385 403.416872 200.923077 403.276811 201.230769 403.136103 201.538462 402.994742 201.846154 402.852716 202.153846 402.710019 202.461538 402.566641 202.769231 402.422574 203.076923 402.277808 203.384615 402.132335 203.692308 401.986147 204.000000 401.839234 204.307692 401.691588 204.615385 401.543200 204.923077 401.394061 205.230769 401.244163 205.538462 401.093498 205.846154 400.942055 206.153846 400.789827 206.461538 400.636805 206.769231 400.482979 207.076923 400.328342 207.384615 400.172885 207.692308 400.016599 208.000000 399.859474 208.307692 399.701504 208.615385 399.542677 208.923077 399.382987 209.230769 399.222424 209.538462 399.060980 209.846154 398.898646 210.153846 398.735412 210.461538 398.571271 210.769231 398.406214 211.076923 398.240231 211.384615 398.073315 211.692308 397.905456 212.000000 397.736646 212.307692 397.566875 212.615385 397.396137 212.923077 397.224420 213.230769 397.051718 213.538462 396.878020 213.846154 396.703319 214.153846 396.527606 214.461538 396.350872 214.769231 396.173107 215.076923 395.994305 215.384615 395.814455 215.692308 395.633549 216.000000 395.451578 216.307692 395.268534 216.615385 395.084408 216.923077 394.899191 217.230769 394.712875 217.538462 394.525450 217.846154 394.336908 218.153846 394.147240 218.461538 393.956438 218.769231 393.764492 219.076923 393.571395 219.384615 393.377137 219.692308 393.181710 220.000000 392.985104 220.307692 392.787312 220.615385 392.588324 220.923077 392.388132 221.230769 392.186727 221.538462 391.984100 221.846154 391.780242 222.153846 391.575146 222.461538 391.368801 222.769231 391.161200 223.076923 390.952334 223.384615 390.742193 223.692308 390.530770 224.000000 390.318055 224.307692 390.104040 224.615385 389.888715 224.923077 389.672073 225.230769 389.454105 225.538462 389.234802 225.846154 389.014154 226.153846 388.792154 226.461538 388.568793 226.769231 388.344062 227.076923 388.117952 227.384615 387.890454 227.692308 387.661560 228.000000 387.431261 228.307692 387.199549 228.615385 386.966414 228.923077 386.731848 229.230769 386.495842 229.538462 386.258387 229.846154 386.019475 230.153846 385.779097 230.461538 385.537245 230.769231 385.293909 231.076923 385.049080 231.384615 384.802751 231.692308 384.554912 232.000000 384.305555 232.307692 384.054671 232.615385 383.802250 232.923077 383.548286 233.230769 383.292768 233.538462 383.035687 233.846154 382.777037 234.153846 382.516806 234.461538 382.254988 234.769231 381.991573 235.076923 381.726552 235.384615 381.459916 235.692308 381.191658 236.000000 380.921768 236.307692 380.650237 236.615385 380.377057 236.923077 380.102219 237.230769 379.825714 237.538462 379.547534 237.846154 379.267670 238.153846 378.986113 238.461538 378.702854 238.769231 378.417885 239.076923 378.131197 239.384615 377.842781 239.692308 377.552628 240.000000 377.260731 240.307692 376.967079 240.615385 376.671665 240.923077 376.374479 241.230769 376.075513 241.538462 375.774758 241.846154 375.472206 242.153846 375.167848 242.461538 374.861674 242.769231 374.553677 243.076923 374.243847 243.384615 373.932176 243.692308 373.618655 244.000000 373.303275 244.307692 372.986028 244.615385 372.666905 244.923077 372.345902 245.230769 372.023035 245.538462 371.698325 245.846154 371.371793 246.153846 371.043459 246.461538 370.713344 246.769231 370.381470 247.076923 370.047857 247.384615 369.712525 247.692308 369.375497 248.000000 369.036792 248.307692 368.696432 248.615385 368.354437 248.923077 368.010828 249.230769 367.665626 249.538462 367.318851 249.846154 366.970526 250.153846 366.620670 250.461538 366.269304 250.769231 365.916450 251.076923 365.562127 251.384615 365.206358 251.692308 364.849162 252.000000 364.490561 252.307692 364.130575 252.615385 363.769225 252.923077 363.406533 253.230769 363.042518 253.538462 362.677203 253.846154 362.310607 254.153846 361.942751 254.461538 361.573657 254.769231 361.203345 255.076923 360.831836 255.384615 360.459151 255.692308 360.085310 256.000000 359.710335 256.307692 359.334246 256.615385 358.957065 256.923077 358.578812 257.230769 358.199507 257.538462 357.819173 257.846154 357.437829 258.153846 357.055496 258.461538 356.672196 258.769231 356.287949 259.076923 355.902775 259.384615 355.516697 259.692308 355.129734 260.000000 354.741908 260.307692 354.353239 260.615385 353.963749 260.923077 353.573457 261.230769 353.182385 261.538462 352.790554 261.846154 352.397985 262.153846 352.004698 262.461538 351.610714 262.769231 351.216054 263.076923 350.820740 263.384615 350.424791 263.692308 350.028228 264.000000 349.631073 264.307692 349.233347 264.615385 348.835070 264.923077 348.436262 265.230769 348.036946 265.538462 347.637141 265.846154 347.236869 266.153846 346.836150 266.461538 346.435005 266.769231 346.033455 267.076923 345.631522 267.384615 345.229225 267.692308 344.826585 268.000000 344.423624 268.307692 344.020363 268.615385 343.616821 268.923077 343.213021 269.230769 342.808982 269.538462 342.404726 269.846154 342.000273 270.153846 341.595645 270.461538 341.190862 270.769231 340.785945 271.076923 340.380915 271.384615 339.975792 271.692308 339.570599 272.000000 339.165354 272.307692 338.760080 272.615385 338.354797 272.923077 337.949526 273.230769 337.544287 273.538462 337.139102 273.846154 336.733992 274.153846 336.328977 274.461538 335.924078 274.769231 335.519317 275.076923 335.114713 275.384615 334.710287 275.692308 334.306061 276.000000 333.902056 276.307692 333.498292 276.615385 333.094790 276.923077 332.691570 277.230769 332.288655 277.538462 331.886064 277.846154 331.483819 278.153846 331.081939 278.461538 330.680447 278.769231 330.279363 279.076923 329.878708 279.384615 329.478502 279.692308 329.078767 280.000000 328.679523 280.307692 328.280792 280.615385 327.882593 280.923077 327.484948 281.230769 327.087878 281.538462 326.691404 281.846154 326.295546 282.153846 325.900325 282.461538 325.505762 282.769231 325.111879 283.076923 324.718695 283.384615 324.326231 283.692308 323.934509 284.000000 323.543550 284.307692 323.153373 284.615385 322.764001 284.923077 322.375453 285.230769 321.987751 285.538462 321.600916 285.846154 321.214967 286.153846 320.829928 286.461538 320.445817 286.769231 320.062656 287.076923 319.680466 287.384615 319.299267 287.692308 318.919081 288.000000 318.539928 288.307692 318.161829 288.615385 317.784805 288.923077 317.408877 289.230769 317.034066 289.538462 316.660392 289.846154 316.287876 290.153846 315.916540 290.461538 315.546404 290.769231 315.177488 291.076923 314.809814 291.384615 314.443403 291.692308 314.078275 292.000000 313.714452 292.307692 313.351953 292.615385 312.990801 292.923077 312.631015 293.230769 312.272616 293.538462 311.915627 293.846154 311.560066 294.153846 311.205956 294.461538 310.853317 294.769231 310.502169 295.076923 310.152534 295.384615 309.804433 295.692308 309.457886 296.000000 309.112914 296.307692 308.769538 296.615385 308.427780 296.923077 308.087659 297.230769 307.749196 297.538462 307.412413 297.846154 307.077330 298.153846 306.743968 298.461538 306.412349 298.769231 306.082492 299.076923 305.754418 299.384615 305.428150 299.692308 305.103706 300.000000 304.781109 300.307692 304.460378 300.615385 304.141536 300.923077 303.824602 301.230769 303.509598 301.538462 303.196544 301.846154 302.885461 302.153846 302.576371 302.461538 302.269293 302.769231 301.964249 303.076923 301.661260 303.384615 301.360346 303.692308 301.061529 304.000000 300.764829 304.307692 300.470266 304.615385 300.177863 304.923077 299.887639 305.230769 299.599615 305.538462 299.313813 305.846154 299.030254 306.153846 298.748957 306.461538 298.469944 306.769231 298.193236 307.076923 297.918853 307.384615 297.646817 307.692308 297.377148 308.000000 297.109867 308.307692 296.844995 308.615385 296.582553 308.923077 296.322562 309.230769 296.065042 309.538462 295.810014 309.846154 295.557500 310.153846 295.307519 310.461538 295.060094 310.769231 294.815244 311.076923 294.572990 311.384615 294.333354 311.692308 294.096357 312.000000 293.862018 312.307692 293.630359 312.615385 293.401401 312.923077 293.175165 313.230769 292.951671 313.538462 292.730940 313.846154 292.512993 314.153846 292.297852 314.461538 292.085536 314.769231 291.876067 315.076923 291.669465 315.384615 291.465752 315.692308 291.264948 316.000000 291.067074 316.307692 290.872151 316.615385 290.680199 316.923077 290.491240 317.230769 290.305295 317.538462 290.122384 317.846154 289.942528 318.153846 289.765747 318.461538 289.592064 318.769231 289.421498 319.076923 289.254071 319.384615 289.089803 319.692308 288.928715 320.000000 288.770828 320.307692 288.616163 320.615385 288.464741 320.923077 288.316582 321.230769 288.171708 321.538462 288.030139 321.846154 287.891888 322.153846 287.756936 322.461538 287.625258 322.769231 287.496825 323.076923 287.371613 323.384615 287.249593 323.692308 287.130740 324.000000 287.015027 324.307692 286.902427 324.615385 286.792913 324.923077 286.686460 325.230769 286.583041 325.538462 286.482628 325.846154 286.385195 326.153846 286.290716 326.461538 286.199165 326.769231 286.110514 327.076923 286.024736 327.384615 285.941806 327.692308 285.861697 328.000000 285.784382 328.307692 285.709834 328.615385 285.638028 328.923077 285.568935 329.230769 285.502531 329.538462 285.438787 329.846154 285.377678 330.153846 285.319177 330.461538 285.263258 330.769231 285.209893 331.076923 285.159056 331.384615 285.110721 331.692308 285.064860 332.000000 285.021449 332.307692 284.980458 332.615385 284.941863 332.923077 284.905637 333.230769 284.871753 333.538462 284.840183 333.846154 284.810903 334.153846 284.783885 334.461538 284.759102 334.769231 284.736529 335.076923 284.716138 335.384615 284.697902 335.692308 284.681796 336.000000 284.667792 336.307692 284.655865 336.615385 284.645987 336.923077 284.638131 337.230769 284.632272 337.538462 284.628382 337.846154 284.626436 338.153846 284.626406 338.461538 284.628265 338.769231 284.631988 339.076923 284.637547 339.384615 284.644917 339.692308 284.654070 340.000000 284.664980 340.307692 284.677620 340.615385 284.691963 340.923077 284.707984 341.230769 284.725655 341.538462 284.744950 341.846154 284.765842 342.153846 284.788305 342.461538 284.812312 342.769231 284.837836 343.076923 284.864851 343.384615 284.893331 343.692308 284.923248 344.000000 284.954576 344.307692 284.987288 344.615385 285.021359 344.923077 285.056761 345.230769 285.093467 345.538462 285.131452 345.846154 285.170688 346.153846 285.211149 346.461538 285.252808 346.769231 285.295639 347.076923 285.339615 347.384615 285.384709 347.692308 285.430896 348.000000 285.478147 348.307692 285.526438 348.615385 285.575740 348.923077 285.626028 349.230769 285.677275 349.538462 285.729454 349.846154 285.782539 350.153846 285.836503 350.461538 285.891320 350.769231 285.946962 351.076923 286.003404 351.384615 286.060619 351.692308 286.118580 352.000000 286.177260 352.307692 286.236633 352.615385 286.296673 352.923077 286.357352 353.230769 286.418644 353.538462 286.480523 353.846154 286.542962 354.153846 286.605935 354.461538 286.669414 354.769231 286.733373 355.076923 286.797786 355.384615 286.862625 355.692308 286.927865 356.000000 286.993479 356.307692 287.059440 356.615385 287.125722 356.923077 287.192298 357.230769 287.259141 357.538462 287.326225 357.846154 287.393523 358.153846 287.461008 358.461538 287.528655 358.769231 287.596436 359.076923 287.664325 359.384615 287.732295 359.692308 287.800319 360.000000 287.868372 360.307692 287.936426 360.615385 288.004455 360.923077 288.072432 361.230769 288.140331 361.538462 288.208124 361.846154 288.275787 362.153846 288.343291 362.461538 288.410610 362.769231 288.477718 363.076923 288.544588 363.384615 288.611193 363.692308 288.677507 364.000000 288.743504 364.307692 288.809156 364.615385 288.874437 364.923077 288.939320 365.230769 289.003780 365.538462 289.067789 365.846154 289.131320 366.153846 289.194347 366.461538 289.256844 366.769231 289.318784 367.076923 289.380140 367.384615 289.440886 367.692308 289.500995 368.000000 289.560440 368.307692 289.619195 368.615385 289.677234 368.923077 289.734529 369.230769 289.791054 369.538462 289.846783 369.846154 289.901689 370.153846 289.955745 370.461538 290.008924 370.769231 290.061201 371.076923 290.112548 371.384615 290.162940 371.692308 290.212348 372.000000 290.260747 372.307692 290.308111 372.615385 290.354412 372.923077 290.399623 373.230769 290.443720 373.538462 290.486674 373.846154 290.528459 374.153846 290.569048 374.461538 290.608416 374.769231 290.646535 375.076923 290.683378 375.384615 290.718920 375.692308 290.753133 376.000000 290.785992 376.307692 290.817468 376.615385 290.847537 376.923077 290.876170 377.230769 290.903342 377.538462 290.929026 377.846154 290.953196 378.153846 290.975824 378.461538 290.996885 378.769231 291.016351 379.076923 291.034196 379.384615 291.050393 379.692308 291.064916 380.000000 291.077739 380.307692 291.088833 380.615385 291.098174 380.923077 291.105735 381.230769 291.111488 381.538462 291.115407 381.846154 291.117466 382.153846 291.117638 382.461538 291.115897 382.769231 291.112215 383.076923 291.106566 383.384615 291.098925 383.692308 291.089263 384.000000 291.077554 384.307692 291.063773 384.615385 291.047891 384.923077 291.029883 385.230769 291.009723 385.538462 290.987382 385.846154 290.962836 386.153846 290.936057 386.461538 290.907018 386.769231 290.875694 387.076923 290.842057 387.384615 290.806081 387.692308 290.767739 388.000000 290.727005 388.307692 290.683851 388.615385 290.638253 388.923077 290.590182 389.230769 290.539612 389.538462 290.486518 389.846154 290.430871 390.153846 290.372646 390.461538 290.311815 390.769231 290.248353 391.076923 290.182233 391.384615 290.113427 391.692308 290.041911 392.000000 289.967656 392.307692 289.890636 392.615385 289.810825 392.923077 289.728196 393.230769 289.642723 393.538462 289.554379 393.846154 289.463137 394.153846 289.368971 394.461538 289.271853 394.769231 289.171759 395.076923 289.068660 395.384615 288.962531 395.692308 288.853344 396.000000 288.741073 396.307692 288.625692 396.615385 288.507174 396.923077 288.385493 397.230769 288.260621 397.538462 288.132532 397.846154 288.001200 398.153846 287.866598 398.461538 287.728699 398.769231 287.587484 399.076923 287.442967 399.384615 287.295165 399.692308 287.144101 400.000000 286.989792 400.307692 286.832260 400.615385 286.671523 400.923077 286.507603 401.230769 286.340519 401.538462 286.170290 401.846154 285.996937 402.153846 285.820479 402.461538 285.640937 402.769231 285.458330 403.076923 285.272678 403.384615 285.084001 403.692308 284.892319 404.000000 284.697652 404.307692 284.500019 404.615385 284.299441 404.923077 284.095937 405.230769 283.889528 405.538462 283.680233 405.846154 283.468072 406.153846 283.253065 406.461538 283.035232 406.769231 282.814592 407.076923 282.591166 407.384615 282.364974 407.692308 282.136035 408.000000 281.904369 408.307692 281.669997 408.615385 281.432937 408.923077 281.193211 409.230769 280.950837 409.538462 280.705836 409.846154 280.458227 410.153846 280.208031 410.461538 279.955267 410.769231 279.699956 411.076923 279.442116 411.384615 279.181769 411.692308 278.918933 412.000000 278.653629 412.307692 278.385877 412.615385 278.115696 412.923077 277.843107 413.230769 277.568129 413.538462 277.290782 413.846154 277.011086 414.153846 276.729061 414.461538 276.444727 414.769231 276.158104 415.076923 275.869211 415.384615 275.578068 415.692308 275.284696 416.000000 274.989115 416.307692 274.691343 416.615385 274.391401 416.923077 274.089309 417.230769 273.785087 417.538462 273.478755 417.846154 273.170332 418.153846 272.859839 418.461538 272.547295 418.769231 272.232720 419.076923 271.916134 419.384615 271.597557 419.692308 271.277009 420.000000 270.954509 420.307692 270.630079 420.615385 270.303736 420.923077 269.975502 421.230769 269.645397 421.538462 269.313439 421.846154 268.979649 422.153846 268.644048 422.461538 268.306654 422.769231 267.967488 423.076923 267.626569 423.384615 267.283918 423.692308 266.939554 424.000000 266.593497 424.307692 266.245768 424.615385 265.896385 424.923077 265.545369 425.230769 265.192740 425.538462 264.838517 425.846154 264.482721 426.153846 264.125372 426.461538 263.766489 426.769231 263.406091 427.076923 263.044200 427.384615 262.680835 427.692308 262.316016 428.000000 261.949762 428.307692 261.582094 428.615385 261.213031 428.923077 260.842593 429.230769 260.470801 429.538462 260.097674 429.846154 259.723232 430.153846 259.347495 430.461538 258.970482 430.769231 258.592214 431.076923 258.212711 431.384615 257.831992 431.692308 257.450077 432.000000 257.066987 432.307692 256.682740 432.615385 256.297358 432.923077 255.910859 433.230769 255.523264 433.538462 255.134593 433.846154 254.744865 434.153846 254.354100 434.461538 253.962319 434.769231 253.569540 435.076923 253.175785 435.384615 252.781073 435.692308 252.385423 436.000000 251.988856 436.307692 251.591392 436.615385 251.193050 436.923077 250.793850 437.230769 250.393812 437.538462 249.992957 437.846154 249.591303 438.153846 249.188871 438.461538 248.785681 438.769231 248.381753 439.076923 247.977106 439.384615 247.571761 439.692308 247.165736 440.000000 246.759053 440.307692 246.351731 440.615385 245.943790 440.923077 245.535249 441.230769 245.126129 441.538462 244.716450 441.846154 244.306231 442.153846 243.895493 442.461538 243.484254 442.769231 243.072536 443.076923 242.660358 443.384615 242.247739 443.692308 241.834701 444.000000 241.421262 444.307692 241.007442 444.615385 240.593262 444.923077 240.178741 445.230769 239.763899 445.538462 239.348756 445.846154 238.933332 446.153846 238.517647 446.461538 238.101721 446.769231 237.685573 447.076923 237.269224 447.384615 236.852693 447.692308 236.436000 448.000000 236.019165 448.307692 235.602209 448.615385 235.185150 448.923077 234.768009 449.230769 234.350805 449.538462 233.933559 449.846154 233.516291 450.153846 233.099019 450.461538 232.681765 450.769231 232.264548 451.076923 231.847388 451.384615 231.430305 451.692308 231.013318 452.000000 230.596448 452.307692 230.179715 452.615385 229.763137 452.923077 229.346736 453.230769 228.930531 453.538462 228.514543 453.846154 228.098790 454.153846 227.683292 454.461538 227.268071 454.769231 226.853145 455.076923 226.438534 455.384615 226.024259 455.692308 225.610339 456.000000 225.196793 456.307692 224.783643 456.615385 224.370908 456.923077 223.958607 457.230769 223.546761 457.538462 223.135390 457.846154 222.724513 458.153846 222.314150 458.461538 221.904321 458.769231 221.495046 459.076923 221.086345 459.384615 220.678238 459.692308 220.270745 460.000000 219.863885 460.307692 219.457679 460.615385 219.052146 460.923077 218.647306 461.230769 218.243179 461.538462 217.839785 461.846154 217.437144 462.153846 217.035276 462.461538 216.634200 462.769231 216.233937 463.076923 215.834506 463.384615 215.435928 463.692308 215.038221 464.000000 214.641407 464.307692 214.245504 464.615385 213.850534 464.923077 213.456515 465.230769 213.063467 465.538462 212.671412 465.846154 212.280367 466.153846 211.890354 466.461538 211.501391 466.769231 211.113500 467.076923 210.726699 467.384615 210.341010 467.692308 209.956451 468.000000 209.573042 468.307692 209.190804 468.615385 208.809756 468.923077 208.429919 469.230769 208.051311 469.538462 207.673953 469.846154 207.297865 470.153846 206.923067 470.461538 206.549578 470.769231 206.177419 471.076923 205.806609 471.384615 205.437169 471.692308 205.069117 472.000000 204.702475 472.307692 204.337261 472.615385 203.973497 472.923077 203.611200 473.230769 203.250393 473.538462 202.891094 473.846154 202.533323 474.153846 202.177100 474.461538 201.822445 474.769231 201.469379 475.076923 201.117920 475.384615 200.768089 475.692308 200.419900 476.000000 200.073353 476.307692 199.728438 476.615385 199.385149 476.923077 199.043479 477.230769 198.703420 477.538462 198.364965 477.846154 198.028107 478.153846 197.692838 478.461538 197.359151 478.769231 197.027040 479.076923 196.696496 479.384615 196.367513 479.692308 196.040083 480.000000 195.714198 480.307692 195.389853 480.615385 195.067039 480.923077 194.745749 481.230769 194.425976 481.538462 194.107712 481.846154 193.790951 482.153846 193.475685 482.461538 193.161907 482.769231 192.849609 483.076923 192.538785 483.384615 192.229427 483.692308 191.921528 484.000000 191.615080 484.307692 191.310076 484.615385 191.006509 484.923077 190.704373 485.230769 190.403658 485.538462 190.104359 485.846154 189.806468 486.153846 189.509977 486.461538 189.214880 486.769231 188.921169 487.076923 188.628837 487.384615 188.337877 487.692308 188.048281 488.000000 187.760042 488.307692 187.473153 488.615385 187.187607 488.923077 186.903396 489.230769 186.620513 489.538462 186.338951 489.846154 186.058702 490.153846 185.779760 490.461538 185.502117 490.769231 185.225766 491.076923 184.950699 491.384615 184.676909 491.692308 184.404389 492.000000 184.133132 492.307692 183.863131 492.615385 183.594377 492.923077 183.326865 493.230769 183.060586 493.538462 182.795534 493.846154 182.531701 494.153846 182.269080 494.461538 182.007663 494.769231 181.747444 495.076923 181.488414 495.384615 181.230568 495.692308 180.973897 496.000000 180.718395 496.307692 180.464054 496.615385 180.210866 496.923077 179.958825 497.230769 179.707923 497.538462 179.458154 497.846154 179.209509 498.153846 178.961981 498.461538 178.715564 498.769231 178.470249 499.076923 178.226031 499.384615 177.982901 499.692308 177.740852 500.000000 177.499877 500.307692 177.259968 500.615385 177.021119 500.923077 176.783322 501.230769 176.546570 501.538462 176.310856 501.846154 176.076172 502.153846 175.842511 502.461538 175.609866 502.769231 175.378229 503.076923 175.147594 503.384615 174.917952 503.692308 174.689298 504.000000 174.461623 504.307692 174.234920 504.615385 174.009182 504.923077 173.784402 505.230769 173.560573 505.538462 173.337686 505.846154 173.115736 506.153846 172.894714 506.461538 172.674614 506.769231 172.455428 507.076923 172.237149 507.384615 172.019769 507.692308 171.803282 508.000000 171.587680 508.307692 171.372955 508.615385 171.159102 508.923077 170.946111 509.230769 170.733977 509.538462 170.522691 509.846154 170.312247 510.153846 170.102638 510.461538 169.893855 510.769231 169.685892 511.076923 169.478741 511.384615 169.272396 511.692308 169.066849 512.000000 168.862092 512.307692 168.658119 512.615385 168.454922 512.923077 168.252494 513.230769 168.050828 513.538462 167.849916 513.846154 167.649751 514.153846 167.450326 514.461538 167.251634 514.769231 167.053667 515.076923 166.856418 515.384615 166.659880 515.692308 166.464046 516.000000 166.268907 516.307692 166.074458 516.615385 165.880691 516.923077 165.687598 517.230769 165.495172 517.538462 165.303407 517.846154 165.112294 518.153846 164.921827 518.461538 164.731997 518.769231 164.542799 519.076923 164.354224 519.384615 164.166266 519.692308 163.978917 520.000000 163.792170 520.307692 163.606018 520.615385 163.420453 520.923077 163.235468 521.230769 163.051056 521.538462 162.867209 521.846154 162.683921 522.153846 162.501184 522.461538 162.318991 522.769231 162.137334 523.076923 161.956206 523.384615 161.775601 523.692308 161.595510 524.000000 161.415927 524.307692 161.236844 524.615385 161.058254 524.923077 160.880149 525.230769 160.702524 525.538462 160.525369 525.846154 160.348678 526.153846 160.172444 526.461538 159.996659 526.769231 159.821317 527.076923 159.646409 527.384615 159.471929 527.692308 159.297869 528.000000 159.124223 528.307692 158.950982 528.615385 158.778140 528.923077 158.605689 529.230769 158.433622 529.538462 158.261932 529.846154 158.090611 530.153846 157.919653 530.461538 157.749050 530.769231 157.578794 531.076923 157.408879 531.384615 157.239297 531.692308 157.070041 532.000000 156.901104 532.307692 156.732478 532.615385 156.564157 532.923077 156.396132 533.230769 156.228397 533.538462 156.060944 533.846154 155.893767 534.153846 155.726857 534.461538 155.560208 534.769231 155.393812 535.076923 155.227662 535.384615 155.061751 535.692308 154.896072 536.000000 154.730617 536.307692 154.565379 536.615385 154.400350 536.923077 154.235524 537.230769 154.070894 537.538462 153.906451 537.846154 153.742189 538.153846 153.578101 538.461538 153.414179 538.769231 153.250415 539.076923 153.086804 539.384615 152.923336 539.692308 152.760006 540.000000 152.596806 540.307692 152.433728 540.615385 152.270766 540.923077 152.107912 541.230769 151.945159 541.538462 151.782499 541.846154 151.619926 542.153846 151.457431 542.461538 151.295009 542.769231 151.132651 543.076923 150.970350 543.384615 150.808099 543.692308 150.645891 544.000000 150.483718 544.307692 150.321574 544.615385 150.159450 544.923077 149.997341 545.230769 149.835237 545.538462 149.673133 545.846154 149.511021 546.153846 149.348894 546.461538 149.186743 546.769231 149.024563 547.076923 148.862346 547.384615 148.700084 547.692308 148.537771 548.000000 148.375399 548.307692 148.212961 548.615385 148.050449 548.923077 147.887856 549.230769 147.725176 549.538462 147.562400 549.846154 147.399522 550.153846 147.236534 550.461538 147.073429 550.769231 146.910199 551.076923 146.746839 551.384615 146.583339 551.692308 146.419693 552.000000 146.255894 552.307692 146.091934 552.615385 145.927808 552.923077 145.763511 553.230769 145.599042 553.538462 145.434399 553.846154 145.269579 554.153846 145.104580 554.461538 144.939400 554.769231 144.774036 555.076923 144.608487 555.384615 144.442751 555.692308 144.276824 556.000000 144.110706 556.307692 143.944393 556.615385 143.777884 556.923077 143.611175 557.230769 143.444266 557.538462 143.277154 557.846154 143.109837 558.153846 142.942312 558.461538 142.774577 558.769231 142.606630 559.076923 142.438469 559.384615 142.270092 559.692308 142.101496 560.000000 141.932680 560.307692 141.763640 560.615385 141.594375 560.923077 141.424883 561.230769 141.255161 561.538462 141.085208 561.846154 140.915020 562.153846 140.744596 562.461538 140.573934 562.769231 140.403032 563.076923 140.231886 563.384615 140.060495 563.692308 139.888857 564.000000 139.716970 564.307692 139.544831 564.615385 139.372438 564.923077 139.199790 565.230769 139.026882 565.538462 138.853715 565.846154 138.680285 566.153846 138.506590 566.461538 138.332627 566.769231 138.158396 567.076923 137.983893 567.384615 137.809116 567.692308 137.634064 568.000000 137.458733 568.307692 137.283122 568.615385 137.107229 568.923077 136.931051 569.230769 136.754586 569.538462 136.577831 569.846154 136.400786 570.153846 136.223447 570.461538 136.045812 570.769231 135.867879 571.076923 135.689646 571.384615 135.511111 571.692308 135.332271 572.000000 135.153124 572.307692 134.973669 572.615385 134.793902 572.923077 134.613822 573.230769 134.433426 573.538462 134.252713 573.846154 134.071679 574.153846 133.890323 574.461538 133.708643 574.769231 133.526636 575.076923 133.344301 575.384615 133.161634 575.692308 132.978634 576.000000 132.795299 576.307692 132.611626 576.615385 132.427614 576.923077 132.243259 577.230769 132.058560 577.538462 131.873514 577.846154 131.688120 578.153846 131.502375 578.461538 131.316277 578.769231 131.129824 579.076923 130.943013 579.384615 130.755842 579.692308 130.568310 580.000000 130.380413 580.307692 130.192151 580.615385 130.003519 580.923077 129.814517 581.230769 129.625142 581.538462 129.435392 581.846154 129.245265 582.153846 129.054758 582.461538 128.863869 582.769231 128.672597 583.076923 128.480938 583.384615 128.288891 583.692308 128.096453 584.000000 127.903623 584.307692 127.710397 584.615385 127.516775 584.923077 127.322753 585.230769 127.128329 585.538462 126.933502 585.846154 126.738268 586.153846 126.542627 586.461538 126.346575 586.769231 126.150111 587.076923 125.953231 587.384615 125.755935 587.692308 125.558219 588.000000 125.360082 588.307692 125.161522 588.615385 124.962535 588.923077 124.763121 589.230769 124.563276 589.538462 124.362999 589.846154 124.162287 590.153846 123.961138 590.461538 123.759550 590.769231 123.557521 591.076923 123.355049 591.384615 123.152131 591.692308 122.948764 592.000000 122.744948 592.307692 122.540680 592.615385 122.335957 592.923077 122.130777 593.230769 121.925138 593.538462 121.719039 593.846154 121.512476 594.153846 121.305447 594.461538 121.097951 594.769231 120.889985 595.076923 120.681546 595.384615 120.472633 595.692308 120.263244 596.000000 120.053376 596.307692 119.843027 596.615385 119.632195 596.923077 119.420877 597.230769 119.209072 597.538462 118.996777 597.846154 118.783990 598.153846 118.570709 598.461538 118.356932 598.769231 118.142656 599.076923 117.927879 599.384615 117.712599 599.692308 117.496814 600.000000 117.280521 600.307692 117.063719 600.615385 116.846405 600.923077 116.628577 601.230769 116.410233 601.538462 116.191370 601.846154 115.971987 602.153846 115.752081 602.461538 115.531649 602.769231 115.310691 603.076923 115.089203 603.384615 114.867183 603.692308 114.644629 604.000000 114.421540 604.307692 114.197912 604.615385 113.973743 604.923077 113.749032 605.230769 113.523776 605.538462 113.297973 605.846154 113.071620 606.153846 112.844716 606.461538 112.617259 606.769231 112.389245 607.076923 112.160673 607.384615 111.931541 607.692308 111.701846 608.000000 111.471587 608.307692 111.240760 608.615385 111.009365 608.923077 110.777398 609.230769 110.544857 609.538462 110.311741 609.846154 110.078047 610.153846 109.843772 610.461538 109.608916 610.769231 109.373474 611.076923 109.137446 611.384615 108.900829 611.692308 108.663620 612.000000 108.425818 612.307692 108.187421 612.615385 107.948425 612.923077 107.708830 613.230769 107.468632 613.538462 107.227830 613.846154 106.986422 614.153846 106.744404 614.461538 106.501776 614.769231 106.258534 615.076923 106.014676 615.384615 105.770201 615.692308 105.525107 616.000000 105.279390 616.307692 105.033048 616.615385 104.786081 616.923077 104.538484 617.230769 104.290257 617.538462 104.041396 617.846154 103.791901 618.153846 103.541767 618.461538 103.290995 618.769231 103.039580 619.076923 102.787521 619.384615 102.534815 619.692308 102.281461 620.000000 102.027457 620.307692 101.772799 620.615385 101.517486 620.923077 101.261516 621.230769 101.004886 621.538462 100.747595 621.846154 100.489639 622.153846 100.231018 622.461538 99.971728 622.769231 99.711767 623.076923 99.451134 623.384615 99.189825 623.692308 98.927840 624.000000 98.665175 624.307692 98.401828 624.615385 98.137798 624.923077 97.873081 625.230769 97.607676 625.538462 97.341581 625.846154 97.074794 626.153846 96.807311 626.461538 96.539131 626.769231 96.270252 627.076923 96.000672 627.384615 95.730388 627.692308 95.459398 628.000000 95.187700 628.307692 94.915291 628.615385 94.642171 628.923077 94.368335 629.230769 94.093783 629.538462 93.818512 629.846154 93.542525 630.153846 93.265825 630.461538 92.988414 630.769231 92.710296 631.076923 92.431473 631.384615 92.151948 631.692308 91.871725 632.000000 91.590805 632.307692 91.309192 632.615385 91.026888 632.923077 90.743897 633.230769 90.460222 633.538462 90.175865 633.846154 89.890828 634.153846 89.605116 634.461538 89.318731 634.769231 89.031676 635.076923 88.743954 635.384615 88.455567 635.692308 88.166518 636.000000 87.876811 636.307692 87.586447 636.615385 87.295431 636.923077 87.003765 637.230769 86.711452 637.538462 86.418494 637.846154 86.124895 638.153846 85.830658 638.461538 85.535784 638.769231 85.240278 639.076923 84.944142 639.384615 84.647379 639.692308 84.349992 640.000000 84.051983 640.307692 83.753356 640.615385 83.454113 640.923077 83.154258 641.230769 82.853793 641.538462 82.552721 641.846154 82.251045 642.153846 81.948768 642.461538 81.645892 642.769231 81.342421 643.076923 81.038358 643.384615 80.733705 643.692308 80.428465 644.000000 80.122641 644.307692 79.816236 644.615385 79.509253 644.923077 79.201695 645.230769 78.893564 645.538462 78.584864 645.846154 78.275597 646.153846 77.965767 646.461538 77.655375 646.769231 77.344425 647.076923 77.032921 647.384615 76.720864 647.692308 76.408257 648.000000 76.095104 648.307692 75.781408 648.615385 75.467171 648.923077 75.152395 649.230769 74.837085 649.538462 74.521243 649.846154 74.204871 650.153846 73.887973 650.461538 73.570552 650.769231 73.252610 651.076923 72.934150 651.384615 72.615175 651.692308 72.295688 652.000000 71.975693 652.307692 71.655191 652.615385 71.334185 652.923077 71.012679 653.230769 70.690675 653.538462 70.368177 653.846154 70.045187 654.153846 69.721708 654.461538 69.397742 654.769231 69.073294 655.076923 68.748365 655.384615 68.422959 655.692308 68.097078 656.000000 67.770725 656.307692 67.443903 656.615385 67.116616 656.923077 66.788865 657.230769 66.460654 657.538462 66.131986 657.846154 65.802863 658.153846 65.473289 658.461538 65.143266 658.769231 64.812797 659.076923 64.481885 659.384615 64.150534 659.692308 63.818744 660.000000 63.486521 660.307692 63.153866 660.615385 62.820783 660.923077 62.487273 661.230769 62.153341 661.538462 61.818989 661.846154 61.484220 662.153846 61.149037 662.461538 60.813442 662.769231 60.477439 663.076923 60.141031 663.384615 59.804219 663.692308 59.467008 664.000000 59.129400 664.307692 58.791398 664.615385 58.453005 664.923077 58.114223 665.230769 57.775056 665.538462 57.435506 665.846154 57.095577 666.153846 56.755271 666.461538 56.414591 666.769231 56.073540 667.076923 55.732120 667.384615 55.390336 667.692308 55.048189 668.000000 54.705682 668.307692 54.362819 668.615385 54.019602 668.923077 53.676034 669.230769 53.332118 669.538462 52.987856 669.846154 52.643253 670.153846 52.298310 670.461538 51.953030 670.769231 51.607417 671.076923 51.261473 671.384615 50.915202 671.692308 50.568605 672.000000 50.221686 672.307692 49.874447 672.615385 49.526893 672.923077 49.179025 673.230769 48.830846 673.538462 48.482359 673.846154 48.133567 674.153846 47.784474 674.461538 47.435081 674.769231 47.085392 675.076923 46.735410 675.384615 46.385137 675.692308 46.034576 676.000000 45.683731 676.307692 45.332604 676.615385 44.981198 676.923077 44.629515 677.230769 44.277560 677.538462 43.925334 677.846154 43.572840 678.153846 43.220082 678.461538 42.867062 678.769231 42.513784 679.076923 42.160249 679.384615 41.806461 679.692308 41.452423 680.000000 41.098137 680.307692 40.743607 680.615385 40.388836 680.923077 40.033825 681.230769 39.678579 681.538462 39.323100 681.846154 38.967391 682.153846 38.611454 682.461538 38.255293 682.769231 37.898911 683.076923 37.542310 683.384615 37.185493 683.692308 36.828464 684.000000 36.471224 684.307692 36.113777 684.615385 35.756127 684.923077 35.398274 685.230769 35.040224 685.538462 34.681977 685.846154 34.323538 686.153846 33.964909 686.461538 33.606094 686.769231 33.247094 687.076923 32.887913 687.384615 32.528553 687.692308 32.169018 688.000000 31.809311 688.307692 31.449433 688.615385 31.089389 688.923077 30.729181 689.230769 30.368812 689.538462 30.008285 689.846154 29.647602 690.153846 29.286767 690.461538 28.925783 690.769231 28.564651 691.076923 28.203376 691.384615 27.841960 691.692308 27.480406 692.000000 27.118717 692.307692 26.756895 692.615385 26.394944 692.923077 26.032866 693.230769 25.670665 693.538462 25.308343 693.846154 24.945903 694.153846 24.583348 694.461538 24.220680 694.769231 23.857904 695.076923 23.495021 695.384615 23.132034 695.692308 22.768947 696.000000 22.405762 696.307692 22.042482 696.615385 21.679109 696.923077 21.315648 697.230769 20.952101 697.538462 20.588470 697.846154 20.224758 698.153846 19.860969 698.461538 19.497105 698.769231 19.133170 699.076923 18.769165 699.384615 18.405094 699.692308 18.040959 700.000000 17.676765 700.307692 17.312512 700.615385 16.948206 700.923077 16.583847 701.230769 16.219439 701.538462 15.854986 701.846154 15.490489 702.153846 15.125952 702.461538 14.761378 702.769231 14.396769 703.076923 14.032128 703.384615 13.667459 703.692308 13.302764 704.000000 12.938046 704.307692 12.573307 704.615385 12.208552 704.923077 11.843782 705.230769 11.479000 705.538462 11.114210 705.846154 10.749414 706.153846 10.384615 706.153846 540.000000" /></g></g><g class="titles" /><g class="plot overlay" transform="translate(60, 20)"><g class="series serie-0 color-0"><g class="dots"><circle class="dot reactive tooltip-trigger" cx="13.846153846153847" cy="529.6153846153846" r="2.5" /><desc class="value">1,738,143,769(kWh)</desc><desc class="x top">13.846153846153847</desc><desc class="y top">529.6153846153846</desc><desc class="x_label">2549</desc></g><g class="dots"><circle class="dot reactive tooltip-trigger" cx="90.76923076923076" cy="459.20879276399796" r="2.5" /><desc class="value">1,901,942,402(kWh)</desc><desc class="x top">90.76923076923076</desc><desc class="y top">459.20879276399796</desc><desc class="x_label">2550</desc></g><g class="dots"><circle class="dot reactive tooltip-trigger" cx="167.69230769230765" cy="416.5031070265454" r="2.5" /><desc class="value">2,001,295,783(kWh)</desc><desc class="x top">167.69230769230765</desc><desc class="y top">416.5031070265454</desc><desc class="x_label">2551</desc></g><g class="dots"><circle class="dot reactive tooltip-trigger" cx="244.6153846153846" cy="372.6669050723449" r="2.5" /><desc class="value">2,103,279,273(kWh)</desc><desc class="x top">244.6153846153846</desc><desc class="y top">372.6669050723449</desc><desc class="x_label">2552</desc></g><g class="dots"><circle class="dot reactive tooltip-trigger" cx="321.5384615384615" cy="288.0301389431135" r="2.5" /><desc class="value">2,300,183,941(kWh)</desc><desc class="x top">321.5384615384615</desc><desc class="y top">288.0301389431135</desc><desc class="x_label">2553</desc></g><g class="dots"><circle class="dot reactive tooltip-trigger" cx="398.46153846153845" cy="287.7286986422897" r="2.5" /><desc class="value">2,300,885,232(kWh)</desc><desc class="x left top">398.46153846153845</desc><desc class="y left top">287.7286986422897</desc><desc class="x_label">2554</desc></g><g class="dots"><circle class="dot reactive tooltip-trigger" cx="475.38461538461536" cy="200.76808853668052" r="2.5" /><desc class="value">2,503,196,247(kWh)</desc><desc class="x left">475.38461538461536</desc><desc class="y left">200.76808853668052</desc><desc class="x_label">2555</desc></g><g class="dots"><circle class="dot reactive tooltip-trigger" cx="552.3076923076923" cy="146.0919344801801" r="2.5" /><desc class="value">2,630,398,531(kWh)</desc><desc class="x left">552.3076923076923</desc><desc class="y left">146.0919344801801</desc><desc class="x_label">2556</desc></g><g class="dots"><circle class="dot reactive tooltip-trigger" cx="629.2307692307692" cy="94.09378282869858" r="2.5" /><desc class="value">2,751,370,530(kWh)</desc><desc class="x left">629.2307692307692</desc><desc class="y left">94.09378282869858</desc><desc class="x_label">2557</desc></g><g class="dots"><circle class="dot reactive tooltip-trigger" cx="706.1538461538461" cy="10.384615384615358" r="2.5" /><desc class="value">2,946,117,170(kWh)</desc><desc class="x left">706.1538461538461</desc><desc class="y left">10.384615384615358</desc><desc class="x_label">2558</desc></g></g></g><g class="plot text-overlay" transform="translate(60, 20)"><g class="series serie-0 color-0" /></g><g class="plot tooltip-overlay" transform="translate(60, 20)"><g class="tooltip" style="opacity: 0" transform="translate(0 0)"><rect class="tooltip-box" height="0" rx="0" ry="0" width="0" /><g class="text" /></g></g></g></svg>