<?xml version='1.0' encoding='utf-8'?>
<svg xmlns:xlink="http://www.w3.org/1999/xlink" class="pygal-chart" id="chart-0e24011a-bc5f-4719-9fea-8ab13567de2c" viewBox="0 0 800 600" xmlns="http://www.w3.org/2000/svg"><!--Generated with pygal 2.3.0 (etree) ©Kozea 2012-2016 on 2016-12-08--><!--http://pygal.org--><!--http://github.com/Kozea/pygal--><defs><style type="text/css">#chart-0e24011a-bc5f-4719-9fea-8ab13567de2c{-webkit-user-select:none;-webkit-font-smoothing:antialiased;font-family:Consolas,"Liberation Mono",Menlo,Courier,monospace}#chart-0e24011a-bc5f-4719-9fea-8ab13567de2c .title{font-family:Consolas,"Liberation Mono",Menlo,Courier,monospace;font-size:16px}#chart-0e24011a-bc5f-4719-9fea-8ab13567de2c .legends .legend text{font-family:Consolas,"Liberation Mono",Menlo,Courier,monospace;font-size:14px}#chart-0e24011a-bc5f-4719-9fea-8ab13567de2c .axis text{font-family:Consolas,"Liberation Mono",Menlo,Courier,monospace;font-size:10px}#chart-0e24011a-bc5f-4719-9fea-8ab13567de2c .axis text.major{font-family:Consolas,"Liberation Mono",Menlo,Courier,monospace;font-size:10px}#chart-0e24011a-bc5f-4719-9fea-8ab13567de2c .text-overlay text.value{font-family:Consolas,"Liberation Mono",Menlo,Courier,monospace;font-size:16px}#chart-0e24011a-bc5f-4719-9fea-8ab13567de2c .text-overlay text.label{font-family:Consolas,"Liberation Mono",Menlo,Courier,monospace;font-size:10px}#chart-0e24011a-bc5f-4719-9fea-8ab13567de2c .tooltip{font-family:Consolas,"Liberation Mono",Menlo,Courier,monospace;font-size:14px}#chart-0e24011a-bc5f-4719-9fea-8ab13567de2c text.no_data{font-family:Consolas,"Liberation Mono",Menlo,Courier,monospace;font-size:64px}
#chart-0e24011a-bc5f-4719-9fea-8ab13567de2c{background-color:rgba(249,249,249,1)}#chart-0e24011a-bc5f-4719-9fea-8ab13567de2c path,#chart-0e24011a-bc5f-4719-9fea-8ab13567de2c line,#chart-0e24011a-bc5f-4719-9fea-8ab13567de2c rect,#chart-0e24011a-bc5f-4719-9fea-8ab13567de2c circle{-webkit-transition:150ms;-moz-transition:150ms;transition:150ms}#chart-0e24011a-bc5f-4719-9fea-8ab13567de2c .graph &gt; .background{fill:rgba(249,249,249,1)}#chart-0e24011a-bc5f-4719-9fea-8ab13567de2c .plot &gt; .background{fill:rgba(255,255,255,1)}#chart-0e24011a-bc5f-4719-9fea-8ab13567de2c .graph{fill:rgba(0,0,0,.87)}#chart-0e24011a-bc5f-4719-9fea-8ab13567de2c text.no_data{fill:rgba(0,0,0,1)}#chart-0e24011a-bc5f-4719-9fea-8ab13567de2c .title{fill:rgba(0,0,0,1)}#chart-0e24011a-bc5f-4719-9fea-8ab13567de2c .legends .legend text{fill:rgba(0,0,0,.87)}#chart-0e24011a-bc5f-4719-9fea-8ab13567de2c .legends .legend:hover text{fill:rgba(0,0,0,1)}#chart-0e24011a-bc5f-4719-9fea-8ab13567de2c .axis .line{stroke:rgba(0,0,0,1)}#chart-0e24011a-bc5f-4719-9fea-8ab13567de2c .axis .guide.line{stroke:rgba(0,0,0,.54)}#chart-0e24011a-bc5f-4719-9fea-8ab13567de2c .axis .major.line{stroke:rgba(0,0,0,.87)}#chart-0e24011a-bc5f-4719-9fea-8ab13567de2c .axis text.major{fill:rgba(0,0,0,1)}#chart-0e24011a-bc5f-4719-9fea-8ab13567de2c .axis.y .guides:hover .guide.line,#chart-0e24011a-bc5f-4719-9fea-8ab13567de2c .line-graph .axis.x .guides:hover .guide.line,#chart-0e24011a-bc5f-4719-9fea-8ab13567de2c .stackedline-graph .axis.x .guides:hover .guide.line,#chart-0e24011a-bc5f-4719-9fea-8ab13567de2c .xy-graph .axis.x .guides:hover .guide.line{stroke:rgba(0,0,0,1)}#chart-0e24011a-bc5f-4719-9fea-8ab13567de2c .axis .guides:hover text{fill:rgba(0,0,0,1)}#chart-0e24011a-bc5f-4719-9fea-8ab13567de2c .reactive{fill-opacity:.7;stroke-opacity:.8}#chart-0e24011a-bc5f-4719-9fea-8ab13567de2c .ci{stroke:rgba(0,0,0,.87)}#chart-0e24011a-bc5f-4719-9fea-8ab13567de2c .reactive.active,#chart-0e24011a-bc5f-4719-9fea-8ab13567de2c .active .reactive{fill-opacity:.8;stroke-opacity:.9;stroke-width:4}#chart-0e24011a-bc5f-4719-9fea-8ab13567de2c .ci .reactive.active{stroke-width:1.5}#chart-0e24011a-bc5f-4719-9fea-8ab13567de2c .series text{fill:rgba(0,0,0,1)}#chart-0e24011a-bc5f-4719-9fea-8ab13567de2c .tooltip rect{fill:rgba(255,255,255,1);stroke:rgba(0,0,0,1);-webkit-transition:opacity 150ms;-moz-transition:opacity 150ms;transition:opacity 150ms}#chart-0e24011a-bc5f-4719-9fea-8ab13567de2c .tooltip .label{fill:rgba(0,0,0,.87)}#chart-0e24011a-bc5f-4719-9fea-8ab13567de2c .tooltip .label{fill:rgba(0,0,0,.87)}#chart-0e24011a-bc5f-4719-9fea-8ab13567de2c .tooltip .legend{font-size:.8em;fill:rgba(0,0,0,.54)}#chart-0e24011a-bc5f-4719-9fea-8ab13567de2c .tooltip .x_label{font-size:.6em;fill:rgba(0,0,0,1)}#chart-0e24011a-bc5f-4719-9fea-8ab13567de2c .tooltip .xlink{font-size:.5em;text-decoration:underline}#chart-0e24011a-bc5f-4719-9fea-8ab13567de2c .tooltip .value{font-size:1.5em}#chart-0e24011a-bc5f-4719-9fea-8ab13567de2c .bound{font-size:.5em}#chart-0e24011a-bc5f-4719-9fea-8ab13567de2c .max-value{font-size:.75em;fill:rgba(0,0,0,.54)}#chart-0e24011a-bc5f-4719-9fea-8ab13567de2c .map-element{fill:rgba(255,255,255,1);stroke:rgba(0,0,0,.54) !important}#chart-0e24011a-bc5f-4719-9fea-8ab13567de2c .map-element .reactive{fill-opacity:inherit;stroke-opacity:inherit}#chart-0e24011a-bc5f-4719-9fea-8ab13567de2c .color-0,#chart-0e24011a-bc5f-4719-9fea-8ab13567de2c .color-0 a:visited{stroke:#e86fa0;fill:#e86fa0}#chart-0e24011a-bc5f-4719-9fea-8ab13567de2c .text-overlay .color-0 text{fill:black}
#chart-0e24011a-bc5f-4719-9fea-8ab13567de2c text.no_data{text-anchor:middle}#chart-0e24011a-bc5f-4719-9fea-8ab13567de2c .guide.line{fill:none}#chart-0e24011a-bc5f-4719-9fea-8ab13567de2c .centered{text-anchor:middle}#chart-0e24011a-bc5f-4719-9fea-8ab13567de2c .title{text-anchor:middle}#chart-0e24011a-bc5f-4719-9fea-8ab13567de2c .legends .legend text{fill-opacity:1}#chart-0e24011a-bc5f-4719-9fea-8ab13567de2c .axis.x text{text-anchor:middle}#chart-0e24011a-bc5f-4719-9fea-8ab13567de2c .axis.x:not(.web) text[transform]{text-anchor:start}#chart-0e24011a-bc5f-4719-9fea-8ab13567de2c .axis.x:not(.web) text[transform].backwards{text-anchor:end}#chart-0e24011a-bc5f-4719-9fea-8ab13567de2c .axis.y text{text-anchor:end}#chart-0e24011a-bc5f-4719-9fea-8ab13567de2c .axis.y text[transform].backwards{text-anchor:start}#chart-0e24011a-bc5f-4719-9fea-8ab13567de2c .axis.y2 text{text-anchor:start}#chart-0e24011a-bc5f-4719-9fea-8ab13567de2c .axis.y2 text[transform].backwards{text-anchor:end}#chart-0e24011a-bc5f-4719-9fea-8ab13567de2c .axis .guide.line{stroke-dasharray:4,4}#chart-0e24011a-bc5f-4719-9fea-8ab13567de2c .axis .major.guide.line{stroke-dasharray:6,6}#chart-0e24011a-bc5f-4719-9fea-8ab13567de2c .horizontal .axis.y .guide.line,#chart-0e24011a-bc5f-4719-9fea-8ab13567de2c .horizontal .axis.y2 .guide.line,#chart-0e24011a-bc5f-4719-9fea-8ab13567de2c .vertical .axis.x .guide.line{opacity:0}#chart-0e24011a-bc5f-4719-9fea-8ab13567de2c .horizontal .axis.always_show .guide.line,#chart-0e24011a-bc5f-4719-9fea-8ab13567de2c .vertical .axis.always_show .guide.line{opacity:1 !important}#chart-0e24011a-bc5f-4719-9fea-8ab13567de2c .axis.y .guides:hover .guide.line,#chart-0e24011a-bc5f-4719-9fea-8ab13567de2c .axis.y2 .guides:hover .guide.line,#chart-0e24011a-bc5f-4719-9fea-8ab13567de2c .axis.x .guides:hover .guide.line{opacity:1}#chart-0e24011a-bc5f-4719-9fea-8ab13567de2c .axis .guides:hover text{opacity:1}#chart-0e24011a-bc5f-4719-9fea-8ab13567de2c .nofill{fill:none}#chart-0e24011a-bc5f-4719-9fea-8ab13567de2c .subtle-fill{fill-opacity:.2}#chart-0e24011a-bc5f-4719-9fea-8ab13567de2c .dot{stroke-width:1px;fill-opacity:1}#chart-0e24011a-bc5f-4719-9fea-8ab13567de2c .dot.active{stroke-width:5px}#chart-0e24011a-bc5f-4719-9fea-8ab13567de2c .dot.negative{fill:transparent}#chart-0e24011a-bc5f-4719-9fea-8ab13567de2c text,#chart-0e24011a-bc5f-4719-9fea-8ab13567de2c tspan{stroke:none !important}#chart-0e24011a-bc5f-4719-9fea-8ab13567de2c .series text.active{opacity:1}#chart-0e24011a-bc5f-4719-9fea-8ab13567de2c .tooltip rect{fill-opacity:.95;stroke-width:.5}#chart-0e24011a-bc5f-4719-9fea-8ab13567de2c .tooltip text{fill-opacity:1}#chart-0e24011a-bc5f-4719-9fea-8ab13567de2c .showable{visibility:hidden}#chart-0e24011a-bc5f-4719-9fea-8ab13567de2c .showable.shown{visibility:visible}#chart-0e24011a-bc5f-4719-9fea-8ab13567de2c .gauge-background{fill:rgba(229,229,229,1);stroke:none}#chart-0e24011a-bc5f-4719-9fea-8ab13567de2c .bg-lines{stroke:rgba(249,249,249,1);stroke-width:2px}</style><script type="text/javascript">window.pygal = window.pygal || {};window.pygal.config = window.pygal.config || {};window.pygal.config['0e24011a-bc5f-4719-9fea-8ab13567de2c'] = {"no_data_text": "No data", "no_prefix": false, "xrange": null, "print_values_position": "center", "truncate_label": null, "x_labels": ["2549", "2550", "2551", "2552", "2553", "2554", "2555", "2556", "2557", "2558"], "title": null, "force_uri_protocol": "https", "defs": [], "formatter": null, "classes": ["pygal-chart"], "y_labels": null, "rounded_bars": null, "explicit_size": false, "x_labels_major_every": null, "legend_at_bottom_columns": null, "stroke_style": null, "half_pie": false, "spacing": 10, "tooltip_fancy_mode": true, "inverse_y_axis": false, "width": 800, "inner_radius": 0, "interpolation_parameters": {}, "tooltip_border_radius": 0, "style": {"no_data_font_family": "Consolas, \"Liberation Mono\", Menlo, Courier, monospace", "tooltip_font_size": 14, "tooltip_font_family": "Consolas, \"Liberation Mono\", Menlo, Courier, monospace", "stroke_opacity_hover": ".9", "legend_font_family": "Consolas, \"Liberation Mono\", Menlo, Courier, monospace", "font_family": "Consolas, \"Liberation Mono\", Menlo, Courier, monospace", "title_font_family": "Consolas, \"Liberation Mono\", Menlo, Courier, monospace", "background": "rgba(249, 249, 249, 1)", "stroke_opacity": ".8", "foreground": "rgba(0, 0, 0, .87)", "value_background": "rgba(229, 229, 229, 1)", "guide_stroke_dasharray": "4,4", "foreground_subtle": "rgba(0, 0, 0, .54)", "opacity_hover": ".8", "value_font_family": "Consolas, \"Liberation Mono\", Menlo, Courier, monospace", "value_label_font_size": 10, "plot_background": "rgba(255, 255, 255, 1)", "ci_colors": [], "label_font_size": 10, "major_label_font_size": 10, "title_font_size": 16, "no_data_font_size": 64, "value_font_size": 16, "value_colors": [], "label_font_family": "Consolas, \"Liberation Mono\", Menlo, Courier, monospace", "major_guide_stroke_dasharray": "6,6", "transition": "150ms", "foreground_strong": "rgba(0, 0, 0, 1)", "colors": ["#e86fa0", "#e88f6f", "#e8df6f", "#a0e86f", "#6fe88f", "#6fe8df", "#6fa0e8", "#8f6fe8", "#df6fe8", "#e86fa0"], "opacity": ".7", "legend_font_size": 14, "value_label_font_family": "Consolas, \"Liberation Mono\", Menlo, Courier, monospace", "major_label_font_family": "Consolas, \"Liberation Mono\", Menlo, Courier, monospace"}, "x_labels_major_count": null, "interpolation_precision": 250, "missing_value_fill_truncation": "x", "stack_from_top": false, "truncate_legend": null, "show_minor_x_labels": true, "print_zeroes": true, "css": ["file://style.css", "file://graph.css"], "y_label_rotation": 0, "legend_at_bottom": false, "print_values": false, "margin_top": null, "max_scale": 16, "allow_interruptions": false, "show_x_labels": true, "strict": false, "show_x_guides": false, "stroke": true, "margin_left": null, "dynamic_print_values": false, "print_labels": false, "show_y_labels": true, "x_labels_major": null, "range": null, "x_label_rotation": 0, "margin": 20, "zero": 0, "include_x_axis": false, "height": 600, "show_minor_y_labels": true, "show_dots": true, "interpolate": "cubic", "show_y_guides": true, "y_labels_major": null, "box_mode": "extremes", "margin_bottom": null, "order_min": null, "legend_box_size": 12, "fill": true, "show_only_major_dots": false, "js": ["//kozea.github.io/pygal.js/2.0.x/pygal-tooltips.min.js"], "x_title": null, "y_labels_major_every": null, "y_labels_major_count": null, "disable_xml_declaration": false, "y_title": null, "logarithmic": false, "pretty_print": false, "min_scale": 4, "dots_size": 2.5, "margin_right": null, "legends": [null], "secondary_range": null, "show_legend": false}</script><script type="text/javascript" xlink:href="https://kozea.github.io/pygal.js/2.0.x/pygal-tooltips.min.js" /></defs><title>Pygal</title><g class="graph stackedline-graph vertical"><rect class="background" height="600" width="800" x="0" y="0" /><g class="plot" transform="translate(60, 20)"><rect class="background" height="540" width="720.0" x="0" y="0" /><g class="axis y"><path class="line" d="M0.000000 540.000000 h720.000000" /><g class="guides"><path class="guide line" d="M0.000000 523.981927 h720.000000" /><text class="" x="-5" y="527.481926778214">900M</text><title>900M</title></g><g class="guides"><path class="major guide line" d="M0.000000 401.194095 h720.000000" /><text class="major" x="-5" y="404.6940949468043">1000M</text><title>1000M</title></g><g class="guides"><path class="guide line" d="M0.000000 278.406263 h720.000000" /><text class="" x="-5" y="281.9062631153947">1100M</text><title>1100M</title></g><g class="guides"><path class="guide line" d="M0.000000 155.618431 h720.000000" /><text class="" x="-5" y="159.11843128398505">1200M</text><title>1200M</title></g><g class="guides"><path class="guide line" d="M0.000000 32.830599 h720.000000" /><text class="" x="-5" y="36.330599452575484">1300M</text><title>1300M</title></g></g><g class="axis x"><g class="guides"><path class="line" d="M13.846154 0.000000 v540.000000" /><text class="" x="13.846153846153847" y="555.0">2549</text></g><g class="guides"><path class="guide line" d="M90.769231 0.000000 v540.000000" /><text class="" x="90.76923076923076" y="555.0">2550</text></g><g class="guides"><path class="guide line" d="M167.692308 0.000000 v540.000000" /><text class="" x="167.69230769230765" y="555.0">2551</text></g><g class="guides"><path class="guide line" d="M244.615385 0.000000 v540.000000" /><text class="" x="244.6153846153846" y="555.0">2552</text></g><g class="guides"><path class="guide line" d="M321.538462 0.000000 v540.000000" /><text class="" x="321.5384615384615" y="555.0">2553</text></g><g class="guides"><path class="guide line" d="M398.461538 0.000000 v540.000000" /><text class="" x="398.46153846153845" y="555.0">2554</text></g><g class="guides"><path class="guide line" d="M475.384615 0.000000 v540.000000" /><text class="" x="475.38461538461536" y="555.0">2555</text></g><g class="guides"><path class="guide line" d="M552.307692 0.000000 v540.000000" /><text class="" x="552.3076923076923" y="555.0">2556</text></g><g class="guides"><path class="guide line" d="M629.230769 0.000000 v540.000000" /><text class="" x="629.2307692307692" y="555.0">2557</text></g><g class="guides"><path class="guide line" d="M706.153846 0.000000 v540.000000" /><text class="" x="706.1538461538461" y="555.0">2558</text></g></g><g class="series serie-0 color-0"><path class="line reactive" d="M13.846154 540.000000 L13.846154 529.615385 14.153846 529.170732 14.461538 528.726081 14.769231 528.281436 15.076923 527.836799 15.384615 527.392172 15.692308 526.947558 16.000000 526.502959 16.307692 526.058379 16.615385 525.613819 16.923077 525.169282 17.230769 524.724772 17.538462 524.280290 17.846154 523.835839 18.153846 523.391421 18.461538 522.947040 18.769231 522.502698 19.076923 522.058397 19.384615 521.614140 19.692308 521.169930 20.000000 520.725769 20.307692 520.281659 20.615385 519.837604 20.923077 519.393606 21.230769 518.949668 21.538462 518.505791 21.846154 518.061979 22.153846 517.618235 22.461538 517.174560 22.769231 516.730958 23.076923 516.287431 23.384615 515.843982 23.692308 515.400613 24.000000 514.957327 24.307692 514.514126 24.615385 514.071013 24.923077 513.627990 25.230769 513.185061 25.538462 512.742228 25.846154 512.299493 26.153846 511.856859 26.461538 511.414328 26.769231 510.971904 27.076923 510.529588 27.384615 510.087384 27.692308 509.645293 28.000000 509.203319 28.307692 508.761464 28.615385 508.319731 28.923077 507.878122 29.230769 507.436640 29.538462 506.995287 29.846154 506.554066 30.153846 506.112980 30.461538 505.672030 30.769231 505.231221 31.076923 504.790554 31.384615 504.350032 31.692308 503.909658 32.000000 503.469433 32.307692 503.029362 32.615385 502.589445 32.923077 502.149687 33.230769 501.710089 33.538462 501.270654 33.846154 500.831385 34.153846 500.392283 34.461538 499.953353 34.769231 499.514596 35.076923 499.076016 35.384615 498.637613 35.692308 498.199392 36.000000 497.761355 36.307692 497.323504 36.615385 496.885842 36.923077 496.448372 37.230769 496.011095 37.538462 495.574016 37.846154 495.137135 38.153846 494.700457 38.461538 494.263983 38.769231 493.827716 39.076923 493.391659 39.384615 492.955814 39.692308 492.520184 40.000000 492.084771 40.307692 491.649578 40.615385 491.214608 40.923077 490.779863 41.230769 490.345346 41.538462 489.911059 41.846154 489.477005 42.153846 489.043187 42.461538 488.609606 42.769231 488.176267 43.076923 487.743171 43.384615 487.310320 43.692308 486.877718 44.000000 486.445367 44.307692 486.013270 44.615385 485.581429 44.923077 485.149847 45.230769 484.718526 45.538462 484.287470 45.846154 483.856680 46.153846 483.426159 46.461538 482.995910 46.769231 482.565935 47.076923 482.136237 47.384615 481.706819 47.692308 481.277682 48.000000 480.848831 48.307692 480.420267 48.615385 479.991992 48.923077 479.564011 49.230769 479.136324 49.538462 478.708935 49.846154 478.281846 50.153846 477.855060 50.461538 477.428579 50.769231 477.002407 51.076923 476.576545 51.384615 476.150996 51.692308 475.725763 52.000000 475.300848 52.307692 474.876254 52.615385 474.451984 52.923077 474.028040 53.230769 473.604425 53.538462 473.181140 53.846154 472.758190 54.153846 472.335577 54.461538 471.913302 54.769231 471.491369 55.076923 471.069780 55.384615 470.648538 55.692308 470.227646 56.000000 469.807105 56.307692 469.386919 56.615385 468.967090 56.923077 468.547621 57.230769 468.128515 57.538462 467.709773 57.846154 467.291399 58.153846 466.873395 58.461538 466.455764 58.769231 466.038508 59.076923 465.621630 59.384615 465.205132 59.692308 464.789017 60.000000 464.373288 60.307692 463.957948 60.615385 463.542998 60.923077 463.128442 61.230769 462.714281 61.538462 462.300519 61.846154 461.887159 62.153846 461.474202 62.461538 461.061651 62.769231 460.649510 63.076923 460.237780 63.384615 459.826464 63.692308 459.415565 64.000000 459.005085 64.307692 458.595027 64.615385 458.185393 64.923077 457.776187 65.230769 457.367410 65.538462 456.959065 65.846154 456.551156 66.153846 456.143683 66.461538 455.736651 66.769231 455.330061 67.076923 454.923917 67.384615 454.518220 67.692308 454.112974 68.000000 453.708180 68.307692 453.303842 68.615385 452.899963 68.923077 452.496544 69.230769 452.093588 69.538462 451.691098 69.846154 451.289076 70.153846 450.887526 70.461538 450.486449 70.769231 450.085849 71.076923 449.685727 71.384615 449.286087 71.692308 448.886931 72.000000 448.488262 72.307692 448.090081 72.615385 447.692393 72.923077 447.295198 73.230769 446.898501 73.538462 446.502303 73.846154 446.106608 74.153846 445.711417 74.461538 445.316733 74.769231 444.922559 75.076923 444.528898 75.384615 444.135752 75.692308 443.743123 76.000000 443.351015 76.307692 442.959430 76.615385 442.568370 76.923077 442.177837 77.230769 441.787836 77.538462 441.398368 77.846154 441.009435 78.153846 440.621041 78.461538 440.233188 78.769231 439.845878 79.076923 439.459115 79.384615 439.072900 79.692308 438.687237 80.000000 438.302127 80.307692 437.917574 80.615385 437.533580 80.923077 437.150148 81.230769 436.767279 81.538462 436.384978 81.846154 436.003246 82.153846 435.622086 82.461538 435.241501 82.769231 434.861493 83.076923 434.482065 83.384615 434.103219 83.692308 433.724958 84.000000 433.347284 84.307692 432.970201 84.615385 432.593710 84.923077 432.217815 85.230769 431.842518 85.538462 431.467821 85.846154 431.093727 86.153846 430.720239 86.461538 430.347359 86.769231 429.975089 87.076923 429.603434 87.384615 429.232394 87.692308 428.861973 88.000000 428.492173 88.307692 428.122997 88.615385 427.754447 88.923077 427.386526 89.230769 427.019237 89.538462 426.652582 89.846154 426.286563 90.153846 425.921184 90.461538 425.556447 90.769231 425.192354 91.076923 424.828909 91.384615 424.466118 91.692308 424.103987 92.000000 423.742523 92.307692 423.381732 92.615385 423.021622 92.923077 422.662199 93.230769 422.303469 93.538462 421.945439 93.846154 421.588116 94.153846 421.231506 94.461538 420.875617 94.769231 420.520454 95.076923 420.166024 95.384615 419.812334 95.692308 419.459390 96.000000 419.107200 96.307692 418.755770 96.615385 418.405106 96.923077 418.055215 97.230769 417.706103 97.538462 417.357778 97.846154 417.010246 98.153846 416.663514 98.461538 416.317587 98.769231 415.972474 99.076923 415.628180 99.384615 415.284712 99.692308 414.942076 100.000000 414.600280 100.307692 414.259330 100.615385 413.919233 100.923077 413.579995 101.230769 413.241623 101.538462 412.904123 101.846154 412.567502 102.153846 412.231767 102.461538 411.896925 102.769231 411.562981 103.076923 411.229943 103.384615 410.897818 103.692308 410.566611 104.000000 410.236330 104.307692 409.906981 104.615385 409.578570 104.923077 409.251105 105.230769 408.924593 105.538462 408.599039 105.846154 408.274450 106.153846 407.950833 106.461538 407.628195 106.769231 407.306542 107.076923 406.985880 107.384615 406.666217 107.692308 406.347560 108.000000 406.029914 108.307692 405.713286 108.615385 405.397683 108.923077 405.083112 109.230769 404.769580 109.538462 404.457092 109.846154 404.145655 110.153846 403.835277 110.461538 403.525963 110.769231 403.217721 111.076923 402.910557 111.384615 402.604478 111.692308 402.299489 112.000000 401.995599 112.307692 401.692813 112.615385 401.391139 112.923077 401.090582 113.230769 400.791150 113.538462 400.492848 113.846154 400.195685 114.153846 399.899665 114.461538 399.604797 114.769231 399.311086 115.076923 399.018540 115.384615 398.727164 115.692308 398.436966 116.000000 398.147952 116.307692 397.860128 116.615385 397.573502 116.923077 397.288080 117.230769 397.003869 117.538462 396.720875 117.846154 396.439104 118.153846 396.158564 118.461538 395.879262 118.769231 395.601203 119.076923 395.324394 119.384615 395.048843 119.692308 394.774555 120.000000 394.501538 120.307692 394.229797 120.615385 393.959340 120.923077 393.690173 121.230769 393.422303 121.538462 393.155737 121.846154 392.890480 122.153846 392.626540 122.461538 392.363924 122.769231 392.102637 123.076923 391.842687 123.384615 391.584081 123.692308 391.326824 124.000000 391.070923 124.307692 390.816386 124.615385 390.563219 124.923077 390.311427 125.230769 390.061019 125.538462 389.812001 125.846154 389.564378 126.153846 389.318159 126.461538 389.073349 126.769231 388.829955 127.076923 388.587985 127.384615 388.347443 127.692308 388.108337 128.000000 387.870675 128.307692 387.634461 128.615385 387.399704 128.923077 387.166409 129.230769 386.934583 129.538462 386.704233 129.846154 386.475365 130.153846 386.247987 130.461538 386.022104 130.769231 385.797724 131.076923 385.574852 131.384615 385.353496 131.692308 385.133663 132.000000 384.915358 132.307692 384.698589 132.615385 384.483361 132.923077 384.269683 133.230769 384.057560 133.538462 383.846999 133.846154 383.638007 134.153846 383.430590 134.461538 383.224754 134.769231 383.020508 135.076923 382.817856 135.384615 382.616806 135.692308 382.417365 136.000000 382.219539 136.307692 382.023334 136.615385 381.828758 136.923077 381.635817 137.230769 381.444517 137.538462 381.254866 137.846154 381.066869 138.153846 380.880534 138.461538 380.695867 138.769231 380.512874 139.076923 380.331563 139.384615 380.151940 139.692308 379.974011 140.000000 379.797784 140.307692 379.623265 140.615385 379.450460 140.923077 379.279376 141.230769 379.110020 141.538462 378.942399 141.846154 378.776518 142.153846 378.612385 142.461538 378.450007 142.769231 378.289389 143.076923 378.130539 143.384615 377.973463 143.692308 377.818167 144.000000 377.664660 144.307692 377.512946 144.615385 377.363033 144.923077 377.214927 145.230769 377.068635 145.538462 376.924164 145.846154 376.781520 146.153846 376.640710 146.461538 376.501741 146.769231 376.364618 147.076923 376.229349 147.384615 376.095941 147.692308 375.964399 148.000000 375.834731 148.307692 375.706944 148.615385 375.581043 148.923077 375.457036 149.230769 375.334929 149.538462 375.214729 149.846154 375.096442 150.153846 374.980075 150.461538 374.865635 150.769231 374.753128 151.076923 374.642561 151.384615 374.533940 151.692308 374.427273 152.000000 374.322566 152.307692 374.219825 152.615385 374.119057 152.923077 374.020269 153.230769 373.923467 153.538462 373.828658 153.846154 373.735849 154.153846 373.645045 154.461538 373.556255 154.769231 373.469484 155.076923 373.384740 155.384615 373.302028 155.692308 373.221355 156.000000 373.142729 156.307692 373.066155 156.615385 372.991640 156.923077 372.919191 157.230769 372.848815 157.538462 372.780518 157.846154 372.714307 158.153846 372.650188 158.461538 372.588168 158.769231 372.528254 159.076923 372.470452 159.384615 372.414769 159.692308 372.361212 160.000000 372.309787 160.307692 372.260500 160.615385 372.213359 160.923077 372.168370 161.230769 372.125540 161.538462 372.084876 161.846154 372.046383 162.153846 372.010068 162.461538 371.975940 162.769231 371.944002 163.076923 371.914264 163.384615 371.886730 163.692308 371.861409 164.000000 371.838305 164.307692 371.817427 164.615385 371.798780 164.923077 371.782372 165.230769 371.768208 165.538462 371.756296 165.846154 371.746642 166.153846 371.739253 166.461538 371.734136 166.769231 371.731296 167.076923 371.730741 167.384615 371.732478 167.692308 371.736512 168.000000 371.742845 168.307692 371.751456 168.615385 371.762318 168.923077 371.775403 169.230769 371.790685 169.538462 371.808138 169.846154 371.827733 170.153846 371.849443 170.461538 371.873243 170.769231 371.899106 171.076923 371.927003 171.384615 371.956908 171.692308 371.988795 172.000000 372.022636 172.307692 372.058404 172.615385 372.096073 172.923077 372.135615 173.230769 372.177004 173.538462 372.220213 173.846154 372.265214 174.153846 372.311981 174.461538 372.360486 174.769231 372.410704 175.076923 372.462606 175.384615 372.516167 175.692308 372.571358 176.000000 372.628153 176.307692 372.686526 176.615385 372.746449 176.923077 372.807895 177.230769 372.870837 177.538462 372.935248 177.846154 373.001103 178.153846 373.068372 178.461538 373.137030 178.769231 373.207050 179.076923 373.278404 179.384615 373.351066 179.692308 373.425009 180.000000 373.500205 180.307692 373.576629 180.615385 373.654252 180.923077 373.733048 181.230769 373.812991 181.538462 373.894052 181.846154 373.976206 182.153846 374.059425 182.461538 374.143682 182.769231 374.228950 183.076923 374.315203 183.384615 374.402413 183.692308 374.490554 184.000000 374.579598 184.307692 374.669519 184.615385 374.760290 184.923077 374.851884 185.230769 374.944273 185.538462 375.037431 185.846154 375.131331 186.153846 375.225946 186.461538 375.321249 186.769231 375.417213 187.076923 375.513811 187.384615 375.611016 187.692308 375.708802 188.000000 375.807141 188.307692 375.906006 188.615385 376.005371 188.923077 376.105208 189.230769 376.205491 189.538462 376.306192 189.846154 376.407285 190.153846 376.508743 190.461538 376.610539 190.769231 376.712645 191.076923 376.815035 191.384615 376.917682 191.692308 377.020559 192.000000 377.123640 192.307692 377.226896 192.615385 377.330302 192.923077 377.433829 193.230769 377.537452 193.538462 377.641144 193.846154 377.744877 194.153846 377.848624 194.461538 377.952359 194.769231 378.056054 195.076923 378.159683 195.384615 378.263219 195.692308 378.366634 196.000000 378.469902 196.307692 378.572997 196.615385 378.675890 196.923077 378.778555 197.230769 378.880965 197.538462 378.983093 197.846154 379.084912 198.153846 379.186396 198.461538 379.287516 198.769231 379.388248 199.076923 379.488562 199.384615 379.588433 199.692308 379.687833 200.000000 379.786736 200.307692 379.885115 200.615385 379.982942 200.923077 380.080191 201.230769 380.176835 201.538462 380.272847 201.846154 380.368199 202.153846 380.462866 202.461538 380.556819 202.769231 380.650033 203.076923 380.742479 203.384615 380.834132 203.692308 380.924965 204.000000 381.014949 204.307692 381.104059 204.615385 381.192267 204.923077 381.279547 205.230769 381.365871 205.538462 381.451213 205.846154 381.535545 206.153846 381.618841 206.461538 381.701074 206.769231 381.782217 207.076923 381.862243 207.384615 381.941124 207.692308 382.018835 208.000000 382.095348 208.307692 382.170635 208.615385 382.244671 208.923077 382.317428 209.230769 382.388880 209.538462 382.458999 209.846154 382.527758 210.153846 382.595130 210.461538 382.661090 210.769231 382.725608 211.076923 382.788660 211.384615 382.850217 211.692308 382.910252 212.000000 382.968740 212.307692 383.025652 212.615385 383.080963 212.923077 383.134644 213.230769 383.186669 213.538462 383.237012 213.846154 383.285644 214.153846 383.332540 214.461538 383.377672 214.769231 383.421013 215.076923 383.462537 215.384615 383.502216 215.692308 383.540024 216.000000 383.575933 216.307692 383.609917 216.615385 383.641948 216.923077 383.672000 217.230769 383.700046 217.538462 383.726059 217.846154 383.750012 218.153846 383.771877 218.461538 383.791629 218.769231 383.809240 219.076923 383.824682 219.384615 383.837930 219.692308 383.848957 220.000000 383.857734 220.307692 383.864236 220.615385 383.868435 220.923077 383.870305 221.230769 383.869818 221.538462 383.866948 221.846154 383.861668 222.153846 383.853950 222.461538 383.843768 222.769231 383.831095 223.076923 383.815903 223.384615 383.798167 223.692308 383.777859 224.000000 383.754951 224.307692 383.729418 224.615385 383.701232 224.923077 383.670366 225.230769 383.636793 225.538462 383.600487 225.846154 383.561420 226.153846 383.519565 226.461538 383.474896 226.769231 383.427386 227.076923 383.377007 227.384615 383.323733 227.692308 383.267537 228.000000 383.208391 228.307692 383.146269 228.615385 383.081145 228.923077 383.012990 229.230769 382.941778 229.538462 382.867482 229.846154 382.790075 230.153846 382.709531 230.461538 382.625822 230.769231 382.538921 231.076923 382.448801 231.384615 382.355436 231.692308 382.258799 232.000000 382.158862 232.307692 382.055598 232.615385 381.948981 232.923077 381.838984 233.230769 381.725580 233.538462 381.608742 233.846154 381.488442 234.153846 381.364654 234.461538 381.237352 234.769231 381.106507 235.076923 380.972093 235.384615 380.834084 235.692308 380.692452 236.000000 380.547170 236.307692 380.398212 236.615385 380.245550 236.923077 380.089157 237.230769 379.929007 237.538462 379.765072 237.846154 379.597327 238.153846 379.425742 238.461538 379.250293 238.769231 379.070951 239.076923 378.887691 239.384615 378.700484 239.692308 378.509304 240.000000 378.314124 240.307692 378.114917 240.615385 377.911657 240.923077 377.704315 241.230769 377.492866 241.538462 377.277282 241.846154 377.057537 242.153846 376.833603 242.461538 376.605453 242.769231 376.373061 243.076923 376.136400 243.384615 375.895442 243.692308 375.650162 244.000000 375.400530 244.307692 375.146522 244.615385 374.888110 244.923077 374.625276 245.230769 374.358045 245.538462 374.086450 245.846154 373.810523 246.153846 373.530299 246.461538 373.245811 246.769231 372.957092 247.076923 372.664175 247.384615 372.367094 247.692308 372.065882 248.000000 371.760572 248.307692 371.451199 248.615385 371.137795 248.923077 370.820393 249.230769 370.499027 249.538462 370.173730 249.846154 369.844536 250.153846 369.511478 250.461538 369.174589 250.769231 368.833903 251.076923 368.489453 251.384615 368.141272 251.692308 367.789394 252.000000 367.433852 252.307692 367.074679 252.615385 366.711910 252.923077 366.345576 253.230769 365.975712 253.538462 365.602351 253.846154 365.225525 254.153846 364.845270 254.461538 364.461617 254.769231 364.074601 255.076923 363.684254 255.384615 363.290610 255.692308 362.893703 256.000000 362.493565 256.307692 362.090230 256.615385 361.683732 256.923077 361.274103 257.230769 360.861377 257.538462 360.445588 257.846154 360.026768 258.153846 359.604952 258.461538 359.180172 258.769231 358.752462 259.076923 358.321856 259.384615 357.888385 259.692308 357.452085 260.000000 357.012988 260.307692 356.571128 260.615385 356.126537 260.923077 355.679250 261.230769 355.229299 261.538462 354.776719 261.846154 354.321542 262.153846 353.863801 262.461538 353.403531 262.769231 352.940764 263.076923 352.475534 263.384615 352.007874 263.692308 351.537818 264.000000 351.065398 264.307692 350.590649 264.615385 350.113603 264.923077 349.634294 265.230769 349.152755 265.538462 348.669020 265.846154 348.183122 266.153846 347.695094 266.461538 347.204970 266.769231 346.712783 267.076923 346.218566 267.384615 345.722353 267.692308 345.224177 268.000000 344.724072 268.307692 344.222070 268.615385 343.718205 268.923077 343.212511 269.230769 342.705021 269.538462 342.195768 269.846154 341.684786 270.153846 341.172107 270.461538 340.657766 270.769231 340.141795 271.076923 339.624228 271.384615 339.105099 271.692308 338.584440 272.000000 338.062285 272.307692 337.538668 272.615385 337.013621 272.923077 336.487179 273.230769 335.959374 273.538462 335.430240 273.846154 334.899809 274.153846 334.368117 274.461538 333.835195 274.769231 333.301077 275.076923 332.765797 275.384615 332.229388 275.692308 331.691883 276.000000 331.153316 276.307692 330.613720 276.615385 330.073128 276.923077 329.531574 277.230769 328.989090 277.538462 328.445711 277.846154 327.901470 278.153846 327.356400 278.461538 326.810535 278.769231 326.263907 279.076923 325.716550 279.384615 325.168498 279.692308 324.619783 280.000000 324.070440 280.307692 323.520502 280.615385 322.970001 280.923077 322.418972 281.230769 321.867447 281.538462 321.315460 281.846154 320.763045 282.153846 320.210234 282.461538 319.657061 282.769231 319.103560 283.076923 318.549763 283.384615 317.995704 283.692308 317.441417 284.000000 316.886935 284.307692 316.332291 284.615385 315.777518 284.923077 315.222650 285.230769 314.667720 285.538462 314.112762 285.846154 313.557809 286.153846 313.002894 286.461538 312.448051 286.769231 311.893313 287.076923 311.338713 287.384615 310.784284 287.692308 310.230061 288.000000 309.676076 288.307692 309.122363 288.615385 308.568955 288.923077 308.015885 289.230769 307.463187 289.538462 306.910895 289.846154 306.359041 290.153846 305.807658 290.461538 305.256781 290.769231 304.706443 291.076923 304.156676 291.384615 303.607514 291.692308 303.058992 292.000000 302.511141 292.307692 301.963995 292.615385 301.417589 292.923077 300.871954 293.230769 300.327125 293.538462 299.783134 293.846154 299.240015 294.153846 298.697802 294.461538 298.156528 294.769231 297.616226 295.076923 297.076929 295.384615 296.538672 295.692308 296.001486 296.000000 295.465406 296.307692 294.930465 296.615385 294.396696 296.923077 293.864133 297.230769 293.332809 297.538462 292.802757 297.846154 292.274011 298.153846 291.746603 298.461538 291.220569 298.769231 290.695940 299.076923 290.172750 299.384615 289.651032 299.692308 289.130820 300.000000 288.612148 300.307692 288.095048 300.615385 287.579554 300.923077 287.065699 301.230769 286.553516 301.538462 286.043040 301.846154 285.534303 302.153846 285.027338 302.461538 284.522179 302.769231 284.018860 303.076923 283.517414 303.384615 283.017873 303.692308 282.520272 304.000000 282.024643 304.307692 281.531021 304.615385 281.039438 304.923077 280.549928 305.230769 280.062524 305.538462 279.577260 305.846154 279.094168 306.153846 278.613283 306.461538 278.134637 306.769231 277.658264 307.076923 277.184198 307.384615 276.712471 307.692308 276.243117 308.000000 275.776169 308.307692 275.311661 308.615385 274.849626 308.923077 274.390098 309.230769 273.933109 309.538462 273.478693 309.846154 273.026884 310.153846 272.577715 310.461538 272.131218 310.769231 271.687429 311.076923 271.246379 311.384615 270.808102 311.692308 270.372632 312.000000 269.940002 312.307692 269.510245 312.615385 269.083394 312.923077 268.659484 313.230769 268.238547 313.538462 267.820617 313.846154 267.405727 314.153846 266.993910 314.461538 266.585200 314.769231 266.179630 315.076923 265.777233 315.384615 265.378043 315.692308 264.982094 316.000000 264.589418 316.307692 264.200049 316.615385 263.814020 316.923077 263.431364 317.230769 263.052116 317.538462 262.676307 317.846154 262.303973 318.153846 261.935145 318.461538 261.569858 318.769231 261.208144 319.076923 260.850038 319.384615 260.495572 319.692308 260.144779 320.000000 259.797694 320.307692 259.454349 320.615385 259.114778 320.923077 258.779014 321.230769 258.447091 321.538462 258.119041 321.846154 257.794889 322.153846 257.474615 322.461538 257.158191 322.769231 256.845588 323.076923 256.536778 323.384615 256.231732 323.692308 255.930421 324.000000 255.632817 324.307692 255.338892 324.615385 255.048616 324.923077 254.761960 325.230769 254.478897 325.538462 254.199398 325.846154 253.923433 326.153846 253.650975 326.461538 253.381995 326.769231 253.116463 327.076923 252.854352 327.384615 252.595633 327.692308 252.340277 328.000000 252.088255 328.307692 251.839540 328.615385 251.594101 328.923077 251.351911 329.230769 251.112942 329.538462 250.877163 329.846154 250.644547 330.153846 250.415066 330.461538 250.188689 330.769231 249.965390 331.076923 249.745139 331.384615 249.527907 331.692308 249.313666 332.000000 249.102387 332.307692 248.894043 332.615385 248.688603 332.923077 248.486039 333.230769 248.286323 333.538462 248.089426 333.846154 247.895320 334.153846 247.703975 334.461538 247.515364 334.769231 247.329457 335.076923 247.146226 335.384615 246.965643 335.692308 246.787678 336.000000 246.612303 336.307692 246.439489 336.615385 246.269209 336.923077 246.101432 337.230769 245.936131 337.538462 245.773276 337.846154 245.612840 338.153846 245.454793 338.461538 245.299108 338.769231 245.145754 339.076923 244.994705 339.384615 244.845930 339.692308 244.699401 340.000000 244.555091 340.307692 244.412969 340.615385 244.273008 340.923077 244.135179 341.230769 243.999453 341.538462 243.865802 341.846154 243.734197 342.153846 243.604608 342.461538 243.477009 342.769231 243.351370 343.076923 243.227662 343.384615 243.105856 343.692308 242.985925 344.000000 242.867840 344.307692 242.751571 344.615385 242.637091 344.923077 242.524370 345.230769 242.413380 345.538462 242.304092 345.846154 242.196478 346.153846 242.090509 346.461538 241.986157 346.769231 241.883392 347.076923 241.782187 347.384615 241.682512 347.692308 241.584338 348.000000 241.487639 348.307692 241.392383 348.615385 241.298544 348.923077 241.206092 349.230769 241.114999 349.538462 241.025236 349.846154 240.936774 350.153846 240.849585 350.461538 240.763640 350.769231 240.678911 351.076923 240.595368 351.384615 240.512984 351.692308 240.431730 352.000000 240.351576 352.307692 240.272495 352.615385 240.194458 352.923077 240.117435 353.230769 240.041399 353.538462 239.966321 353.846154 239.892172 354.153846 239.818924 354.461538 239.746547 354.769231 239.675014 355.076923 239.604296 355.384615 239.534363 355.692308 239.465188 356.000000 239.396741 356.307692 239.328995 356.615385 239.261920 356.923077 239.195488 357.230769 239.129670 357.538462 239.064438 357.846154 238.999763 358.153846 238.935615 358.461538 238.871968 358.769231 238.808792 359.076923 238.746057 359.384615 238.683737 359.692308 238.621802 360.000000 238.560223 360.307692 238.498972 360.615385 238.438021 360.923077 238.377340 361.230769 238.316900 361.538462 238.256675 361.846154 238.196633 362.153846 238.136748 362.461538 238.076990 362.769231 238.017331 363.076923 237.957743 363.384615 237.898195 363.692308 237.838661 364.000000 237.779110 364.307692 237.719516 364.615385 237.659848 364.923077 237.600078 365.230769 237.540179 365.538462 237.480120 365.846154 237.419874 366.153846 237.359411 366.461538 237.298704 366.769231 237.237723 367.076923 237.176440 367.384615 237.114826 367.692308 237.052853 368.000000 236.990492 368.307692 236.927714 368.615385 236.864491 368.923077 236.800794 369.230769 236.736594 369.538462 236.671863 369.846154 236.606572 370.153846 236.540693 370.461538 236.474197 370.769231 236.407055 371.076923 236.339238 371.384615 236.270719 371.692308 236.201468 372.000000 236.131456 372.307692 236.060656 372.615385 235.989038 372.923077 235.916574 373.230769 235.843235 373.538462 235.768992 373.846154 235.693818 374.153846 235.617683 374.461538 235.540558 374.769231 235.462416 375.076923 235.383226 375.384615 235.302962 375.692308 235.221593 376.000000 235.139092 376.307692 235.055430 376.615385 234.970578 376.923077 234.884508 377.230769 234.797191 377.538462 234.708597 377.846154 234.618700 378.153846 234.527469 378.461538 234.434877 378.769231 234.340895 379.076923 234.245493 379.384615 234.148644 379.692308 234.050319 380.000000 233.950490 380.307692 233.849126 380.615385 233.746201 380.923077 233.641685 381.230769 233.535550 381.538462 233.427766 381.846154 233.318306 382.153846 233.207141 382.461538 233.094242 382.769231 232.979581 383.076923 232.863128 383.384615 232.744855 383.692308 232.624734 384.000000 232.502736 384.307692 232.378833 384.615385 232.252995 384.923077 232.125194 385.230769 231.995401 385.538462 231.863588 385.846154 231.729727 386.153846 231.593788 386.461538 231.455742 386.769231 231.315562 387.076923 231.173219 387.384615 231.028683 387.692308 230.881927 388.000000 230.732922 388.307692 230.581638 388.615385 230.428048 388.923077 230.272123 389.230769 230.113834 389.538462 229.953152 389.846154 229.790050 390.153846 229.624497 390.461538 229.456467 390.769231 229.285929 391.076923 229.112855 391.384615 228.937217 391.692308 228.758987 392.000000 228.578134 392.307692 228.394632 392.615385 228.208451 392.923077 228.019562 393.230769 227.827937 393.538462 227.633547 393.846154 227.436364 394.153846 227.236359 394.461538 227.033504 394.769231 226.827769 395.076923 226.619126 395.384615 226.407546 395.692308 226.193002 396.000000 225.975463 396.307692 225.754902 396.615385 225.531290 396.923077 225.304599 397.230769 225.074799 397.538462 224.841862 397.846154 224.605759 398.153846 224.366462 398.461538 224.123942 398.769231 223.878179 399.076923 223.629188 399.384615 223.376992 399.692308 223.121613 400.000000 222.863076 400.307692 222.601403 400.615385 222.336617 400.923077 222.068742 401.230769 221.797800 401.538462 221.523815 401.846154 221.246810 402.153846 220.966809 402.461538 220.683833 402.769231 220.397907 403.076923 220.109053 403.384615 219.817296 403.692308 219.522657 404.000000 219.225160 404.307692 218.924828 404.615385 218.621684 404.923077 218.315752 405.230769 218.007055 405.538462 217.695615 405.846154 217.381456 406.153846 217.064602 406.461538 216.745074 406.769231 216.422897 407.076923 216.098093 407.384615 215.770686 407.692308 215.440699 408.000000 215.108155 408.307692 214.773076 408.615385 214.435487 408.923077 214.095411 409.230769 213.752870 409.538462 213.407888 409.846154 213.060487 410.153846 212.710692 410.461538 212.358524 410.769231 212.004008 411.076923 211.647167 411.384615 211.288023 411.692308 210.926600 412.000000 210.562920 412.307692 210.197008 412.615385 209.828886 412.923077 209.458577 413.230769 209.086105 413.538462 208.711492 413.846154 208.334762 414.153846 207.955938 414.461538 207.575044 414.769231 207.192101 415.076923 206.807134 415.384615 206.420165 415.692308 206.031218 416.000000 205.640316 416.307692 205.247482 416.615385 204.852739 416.923077 204.456110 417.230769 204.057619 417.538462 203.657288 417.846154 203.255141 418.153846 202.851201 418.461538 202.445491 418.769231 202.038034 419.076923 201.628854 419.384615 201.217973 419.692308 200.805414 420.000000 200.391202 420.307692 199.975358 420.615385 199.557906 420.923077 199.138870 421.230769 198.718272 421.538462 198.296135 421.846154 197.872484 422.153846 197.447340 422.461538 197.020727 422.769231 196.592668 423.076923 196.163186 423.384615 195.732305 423.692308 195.300047 424.000000 194.866436 424.307692 194.431495 424.615385 193.995247 424.923077 193.557716 425.230769 193.118923 425.538462 192.678893 425.846154 192.237649 426.153846 191.795213 426.461538 191.351609 426.769231 190.906861 427.076923 190.460990 427.384615 190.014021 427.692308 189.565977 428.000000 189.116880 428.307692 188.666754 428.615385 188.215622 428.923077 187.763507 429.230769 187.310432 429.538462 186.856421 429.846154 186.401496 430.153846 185.945681 430.461538 185.488999 430.769231 185.031472 431.076923 184.573125 431.384615 184.113981 431.692308 183.654062 432.000000 183.193391 432.307692 182.731992 432.615385 182.269888 432.923077 181.807102 433.230769 181.343658 433.538462 180.879577 433.846154 180.414885 434.153846 179.949602 434.461538 179.483754 434.769231 179.017363 435.076923 178.550452 435.384615 178.083044 435.692308 177.615162 436.000000 177.146830 436.307692 176.678071 436.615385 176.208907 436.923077 175.739363 437.230769 175.269460 437.538462 174.799223 437.846154 174.328675 438.153846 173.857838 438.461538 173.386735 438.769231 172.915391 439.076923 172.443828 439.384615 171.972069 439.692308 171.500137 440.000000 171.028056 440.307692 170.555848 440.615385 170.083537 440.923077 169.611146 441.230769 169.138699 441.538462 168.666217 441.846154 168.193725 442.153846 167.721246 442.461538 167.248802 442.769231 166.776417 443.076923 166.304114 443.384615 165.831916 443.692308 165.359846 444.000000 164.887928 444.307692 164.416184 444.615385 163.944639 444.923077 163.473314 445.230769 163.002233 445.538462 162.531419 445.846154 162.060896 446.153846 161.590686 446.461538 161.120812 446.769231 160.651299 447.076923 160.182168 447.384615 159.713444 447.692308 159.245149 448.000000 158.777306 448.307692 158.309939 448.615385 157.843070 448.923077 157.376723 449.230769 156.910922 449.538462 156.445688 449.846154 155.981046 450.153846 155.517018 450.461538 155.053627 450.769231 154.590898 451.076923 154.128852 451.384615 153.667513 451.692308 153.206905 452.000000 152.747049 452.307692 152.287971 452.615385 151.829692 452.923077 151.372235 453.230769 150.915625 453.538462 150.459884 453.846154 150.005034 454.153846 149.551101 454.461538 149.098106 454.769231 148.646072 455.076923 148.195023 455.384615 147.744983 455.692308 147.295973 456.000000 146.848018 456.307692 146.401140 456.615385 145.955362 456.923077 145.510709 457.230769 145.067202 457.538462 144.624865 457.846154 144.183722 458.153846 143.743795 458.461538 143.305107 458.769231 142.867682 459.076923 142.431542 459.384615 141.996712 459.692308 141.563213 460.000000 141.131070 460.307692 140.700305 460.615385 140.270942 460.923077 139.843003 461.230769 139.416513 461.538462 138.991493 461.846154 138.567967 462.153846 138.145958 462.461538 137.725490 462.769231 137.306586 463.076923 136.889268 463.384615 136.473560 463.692308 136.059485 464.000000 135.647066 464.307692 135.236327 464.615385 134.827290 464.923077 134.419978 465.230769 134.014416 465.538462 133.610625 465.846154 133.208629 466.153846 132.808452 466.461538 132.410116 466.769231 132.013644 467.076923 131.619060 467.384615 131.226387 467.692308 130.835648 468.000000 130.446866 468.307692 130.060064 468.615385 129.675265 468.923077 129.292493 469.230769 128.911771 469.538462 128.533122 469.846154 128.156569 470.153846 127.782134 470.461538 127.409842 470.769231 127.039716 471.076923 126.671778 471.384615 126.306052 471.692308 125.942561 472.000000 125.581328 472.307692 125.222376 472.615385 124.865728 472.923077 124.511408 473.230769 124.159438 473.538462 123.809843 473.846154 123.462644 474.153846 123.117865 474.461538 122.775530 474.769231 122.435661 475.076923 122.098281 475.384615 121.763414 475.692308 121.431077 476.000000 121.101260 476.307692 120.773949 476.615385 120.449128 476.923077 120.126782 477.230769 119.806896 477.538462 119.489455 477.846154 119.174443 478.153846 118.861845 478.461538 118.551646 478.769231 118.243832 479.076923 117.938385 479.384615 117.635293 479.692308 117.334538 480.000000 117.036107 480.307692 116.739984 480.615385 116.446153 480.923077 116.154600 481.230769 115.865309 481.538462 115.578265 481.846154 115.293453 482.153846 115.010858 482.461538 114.730464 482.769231 114.452257 483.076923 114.176221 483.384615 113.902340 483.692308 113.630601 484.000000 113.360987 484.307692 113.093483 484.615385 112.828074 484.923077 112.564745 485.230769 112.303481 485.538462 112.044267 485.846154 111.787087 486.153846 111.531926 486.461538 111.278769 486.769231 111.027600 487.076923 110.778405 487.384615 110.531169 487.692308 110.285876 488.000000 110.042511 488.307692 109.801058 488.615385 109.561503 488.923077 109.323830 489.230769 109.088025 489.538462 108.854072 489.846154 108.621955 490.153846 108.391660 490.461538 108.163171 490.769231 107.936474 491.076923 107.711552 491.384615 107.488391 491.692308 107.266976 492.000000 107.047292 492.307692 106.829322 492.615385 106.613052 492.923077 106.398468 493.230769 106.185553 493.538462 105.974292 493.846154 105.764670 494.153846 105.556673 494.461538 105.350284 494.769231 105.145489 495.076923 104.942273 495.384615 104.740619 495.692308 104.540514 496.000000 104.341942 496.307692 104.144887 496.615385 103.949334 496.923077 103.755269 497.230769 103.562676 497.538462 103.371540 497.846154 103.181845 498.153846 102.993577 498.461538 102.806720 498.769231 102.621259 499.076923 102.437179 499.384615 102.254465 499.692308 102.073101 500.000000 101.893073 500.307692 101.714364 500.615385 101.536961 500.923077 101.360847 501.230769 101.186008 501.538462 101.012427 501.846154 100.840091 502.153846 100.668984 502.461538 100.499091 502.769231 100.330396 503.076923 100.162884 503.384615 99.996541 503.692308 99.831350 504.000000 99.667297 504.307692 99.504367 504.615385 99.342544 504.923077 99.181813 505.230769 99.022159 505.538462 98.863567 505.846154 98.706021 506.153846 98.549507 506.461538 98.394009 506.769231 98.239511 507.076923 98.086000 507.384615 97.933459 507.692308 97.781873 508.000000 97.631228 508.307692 97.481507 508.615385 97.332696 508.923077 97.184780 509.230769 97.037743 509.538462 96.891571 509.846154 96.746247 510.153846 96.601757 510.461538 96.458086 510.769231 96.315218 511.076923 96.173138 511.384615 96.031831 511.692308 95.891282 512.000000 95.751476 512.307692 95.612397 512.615385 95.474030 512.923077 95.336360 513.230769 95.199372 513.538462 95.063051 513.846154 94.927381 514.153846 94.792347 514.461538 94.657934 514.769231 94.524127 515.076923 94.390911 515.384615 94.258270 515.692308 94.126189 516.000000 93.994653 516.307692 93.863648 516.615385 93.733157 516.923077 93.603165 517.230769 93.473657 517.538462 93.344619 517.846154 93.216034 518.153846 93.087888 518.461538 92.960166 518.769231 92.832852 519.076923 92.705930 519.384615 92.579387 519.692308 92.453207 520.000000 92.327373 520.307692 92.201873 520.615385 92.076689 520.923077 91.951807 521.230769 91.827212 521.538462 91.702888 521.846154 91.578820 522.153846 91.454994 522.461538 91.331393 522.769231 91.208004 523.076923 91.084809 523.384615 90.961795 523.692308 90.838947 524.000000 90.716248 524.307692 90.593683 524.615385 90.471239 524.923077 90.348898 525.230769 90.226647 525.538462 90.104469 525.846154 89.982351 526.153846 89.860276 526.461538 89.738229 526.769231 89.616195 527.076923 89.494160 527.384615 89.372107 527.692308 89.250021 528.000000 89.127888 528.307692 89.005692 528.615385 88.883418 528.923077 88.761051 529.230769 88.638575 529.538462 88.515976 529.846154 88.393238 530.153846 88.270346 530.461538 88.147284 530.769231 88.024039 531.076923 87.900593 531.384615 87.776933 531.692308 87.653043 532.000000 87.528907 532.307692 87.404511 532.615385 87.279840 532.923077 87.154878 533.230769 87.029609 533.538462 86.904020 533.846154 86.778094 534.153846 86.651816 534.461538 86.525172 534.769231 86.398146 535.076923 86.270722 535.384615 86.142887 535.692308 86.014623 536.000000 85.885917 536.307692 85.756753 536.615385 85.627116 536.923077 85.496990 537.230769 85.366361 537.538462 85.235213 537.846154 85.103531 538.153846 84.971300 538.461538 84.838504 538.769231 84.705129 539.076923 84.571159 539.384615 84.436580 539.692308 84.301375 540.000000 84.165530 540.307692 84.029029 540.615385 83.891858 540.923077 83.754000 541.230769 83.615442 541.538462 83.476167 541.846154 83.336161 542.153846 83.195408 542.461538 83.053893 542.769231 82.911601 543.076923 82.768516 543.384615 82.624625 543.692308 82.479910 544.000000 82.334358 544.307692 82.187952 544.615385 82.040678 544.923077 81.892521 545.230769 81.743465 545.538462 81.593495 545.846154 81.442596 546.153846 81.290753 546.461538 81.137950 546.769231 80.984173 547.076923 80.829405 547.384615 80.673633 547.692308 80.516841 548.000000 80.359013 548.307692 80.200134 548.615385 80.040189 548.923077 79.879164 549.230769 79.717042 549.538462 79.553809 549.846154 79.389449 550.153846 79.223947 550.461538 79.057288 550.769231 78.889457 551.076923 78.720439 551.384615 78.550218 551.692308 78.378779 552.000000 78.206107 552.307692 78.032187 552.615385 77.857008 552.923077 77.680576 553.230769 77.502901 553.538462 77.323995 553.846154 77.143868 554.153846 76.962530 554.461538 76.779991 554.769231 76.596264 555.076923 76.411357 555.384615 76.225282 555.692308 76.038049 556.000000 75.849668 556.307692 75.660151 556.615385 75.469508 556.923077 75.277749 557.230769 75.084884 557.538462 74.890926 557.846154 74.695883 558.153846 74.499766 558.461538 74.302587 558.769231 74.104355 559.076923 73.905082 559.384615 73.704777 559.692308 73.503451 560.000000 73.301116 560.307692 73.097780 560.615385 72.893456 560.923077 72.688153 561.230769 72.481882 561.538462 72.274654 561.846154 72.066478 562.153846 71.857367 562.461538 71.647330 562.769231 71.436377 563.076923 71.224520 563.384615 71.011769 563.692308 70.798134 564.000000 70.583626 564.307692 70.368256 564.615385 70.152033 564.923077 69.934970 565.230769 69.717075 565.538462 69.498361 565.846154 69.278836 566.153846 69.058513 566.461538 68.837401 566.769231 68.615510 567.076923 68.392853 567.384615 68.169438 567.692308 67.945277 568.000000 67.720380 568.307692 67.494758 568.615385 67.268421 568.923077 67.041380 569.230769 66.813645 569.538462 66.585228 569.846154 66.356137 570.153846 66.126385 570.461538 65.895981 570.769231 65.664937 571.076923 65.433262 571.384615 65.200967 571.692308 64.968063 572.000000 64.734560 572.307692 64.500469 572.615385 64.265801 572.923077 64.030566 573.230769 63.794774 573.538462 63.558436 573.846154 63.321563 574.153846 63.084165 574.461538 62.846253 574.769231 62.607837 575.076923 62.368928 575.384615 62.129536 575.692308 61.889673 576.000000 61.649347 576.307692 61.408571 576.615385 61.167355 576.923077 60.925708 577.230769 60.683642 577.538462 60.441168 577.846154 60.198295 578.153846 59.955035 578.461538 59.711397 578.769231 59.467393 579.076923 59.223033 579.384615 58.978328 579.692308 58.733288 580.000000 58.487923 580.307692 58.242244 580.615385 57.996263 580.923077 57.749988 581.230769 57.503432 581.538462 57.256604 581.846154 57.009515 582.153846 56.762175 582.461538 56.514595 582.769231 56.266787 583.076923 56.018759 583.384615 55.770523 583.692308 55.522089 584.000000 55.273468 584.307692 55.024671 584.615385 54.775707 584.923077 54.526588 585.230769 54.277324 585.538462 54.027925 585.846154 53.778403 586.153846 53.528767 586.461538 53.279029 586.769231 53.029198 587.076923 52.779286 587.384615 52.529303 587.692308 52.279259 588.000000 52.029165 588.307692 51.779031 588.615385 51.528869 588.923077 51.278688 589.230769 51.028500 589.538462 50.778314 589.846154 50.528142 590.153846 50.277993 590.461538 50.027879 590.769231 49.777810 591.076923 49.527796 591.384615 49.277849 591.692308 49.027978 592.000000 48.778194 592.307692 48.528508 592.615385 48.278930 592.923077 48.029471 593.230769 47.780141 593.538462 47.530952 593.846154 47.281912 594.153846 47.033034 594.461538 46.784327 594.769231 46.535803 595.076923 46.287471 595.384615 46.039342 595.692308 45.791428 596.000000 45.543737 596.307692 45.296281 596.615385 45.049071 596.923077 44.802117 597.230769 44.555429 597.538462 44.309019 597.846154 44.062896 598.153846 43.817071 598.461538 43.571555 598.769231 43.326358 599.076923 43.081492 599.384615 42.836965 599.692308 42.592790 600.000000 42.348976 600.307692 42.105534 600.615385 41.862474 600.923077 41.619808 601.230769 41.377546 601.538462 41.135697 601.846154 40.894274 602.153846 40.653286 602.461538 40.412744 602.769231 40.172658 603.076923 39.933039 603.384615 39.693898 603.692308 39.455245 604.000000 39.217091 604.307692 38.979446 604.615385 38.742321 604.923077 38.505725 605.230769 38.269671 605.538462 38.034169 605.846154 37.799228 606.153846 37.564860 606.461538 37.331075 606.769231 37.097883 607.076923 36.865296 607.384615 36.633323 607.692308 36.401976 608.000000 36.171264 608.307692 35.941199 608.615385 35.711791 608.923077 35.483051 609.230769 35.254988 609.538462 35.027614 609.846154 34.800939 610.153846 34.574974 610.461538 34.349729 610.769231 34.125215 611.076923 33.901442 611.384615 33.678421 611.692308 33.456163 612.000000 33.234678 612.307692 33.013976 612.615385 32.794068 612.923077 32.574965 613.230769 32.356677 613.538462 32.139215 613.846154 31.922589 614.153846 31.706810 614.461538 31.491889 614.769231 31.277835 615.076923 31.064660 615.384615 30.852374 615.692308 30.640988 616.000000 30.430512 616.307692 30.220956 616.615385 30.012332 616.923077 29.804650 617.230769 29.597920 617.538462 29.392153 617.846154 29.187359 618.153846 28.983550 618.461538 28.780735 618.769231 28.578925 619.076923 28.378131 619.384615 28.178363 619.692308 27.979632 620.000000 27.781948 620.307692 27.585322 620.615385 27.389765 620.923077 27.195286 621.230769 27.001897 621.538462 26.809609 621.846154 26.618431 622.153846 26.428374 622.461538 26.239448 622.769231 26.051666 623.076923 25.865036 623.384615 25.679569 623.692308 25.495276 624.000000 25.312168 624.307692 25.130255 624.615385 24.949548 624.923077 24.770056 625.230769 24.591792 625.538462 24.414764 625.846154 24.238985 626.153846 24.064464 626.461538 23.891211 626.769231 23.719239 627.076923 23.548556 627.384615 23.379174 627.692308 23.211103 628.000000 23.044353 628.307692 22.878936 628.615385 22.714862 628.923077 22.552141 629.230769 22.390784 629.538462 22.230798 629.846154 22.072182 630.153846 21.914929 630.461538 21.759034 630.769231 21.604491 631.076923 21.451296 631.384615 21.299441 631.692308 21.148923 632.000000 20.999735 632.307692 20.851872 632.615385 20.705329 632.923077 20.560100 633.230769 20.416179 633.538462 20.273561 633.846154 20.132240 634.153846 19.992211 634.461538 19.853469 634.769231 19.716008 635.076923 19.579822 635.384615 19.444907 635.692308 19.311255 636.000000 19.178863 636.307692 19.047724 636.615385 18.917834 636.923077 18.789185 637.230769 18.661774 637.538462 18.535594 637.846154 18.410640 638.153846 18.286907 638.461538 18.164389 638.769231 18.043080 639.076923 17.922975 639.384615 17.804069 639.692308 17.686356 640.000000 17.569830 640.307692 17.454486 640.615385 17.340319 640.923077 17.227323 641.230769 17.115492 641.538462 17.004821 641.846154 16.895305 642.153846 16.786938 642.461538 16.679714 642.769231 16.573629 643.076923 16.468676 643.384615 16.364849 643.692308 16.262145 644.000000 16.160557 644.307692 16.060079 644.615385 15.960706 644.923077 15.862432 645.230769 15.765253 645.538462 15.669163 645.846154 15.574155 646.153846 15.480225 646.461538 15.387367 646.769231 15.295575 647.076923 15.204845 647.384615 15.115170 647.692308 15.026545 648.000000 14.938965 648.307692 14.852424 648.615385 14.766916 648.923077 14.682437 649.230769 14.598980 649.538462 14.516540 649.846154 14.435112 650.153846 14.354690 650.461538 14.275268 650.769231 14.196841 651.076923 14.119405 651.384615 14.042952 651.692308 13.967478 652.000000 13.892976 652.307692 13.819443 652.615385 13.746872 652.923077 13.675257 653.230769 13.604593 653.538462 13.534875 653.846154 13.466097 654.153846 13.398254 654.461538 13.331339 654.769231 13.265349 655.076923 13.200276 655.384615 13.136116 655.692308 13.072864 656.000000 13.010513 656.307692 12.949058 656.615385 12.888493 656.923077 12.828814 657.230769 12.770014 657.538462 12.712089 657.846154 12.655032 658.153846 12.598839 658.461538 12.543503 658.769231 12.489019 659.076923 12.435382 659.384615 12.382585 659.692308 12.330625 660.000000 12.279495 660.307692 12.229189 660.615385 12.179703 660.923077 12.131030 661.230769 12.083165 661.538462 12.036104 661.846154 11.989839 662.153846 11.944366 662.461538 11.899679 662.769231 11.855773 663.076923 11.812642 663.384615 11.770280 663.692308 11.728683 664.000000 11.687845 664.307692 11.647759 664.615385 11.608422 664.923077 11.569826 665.230769 11.531968 665.538462 11.494840 665.846154 11.458438 666.153846 11.422757 666.461538 11.387790 666.769231 11.353532 667.076923 11.319978 667.384615 11.287122 667.692308 11.254959 668.000000 11.223483 668.307692 11.192689 668.615385 11.162571 668.923077 11.133124 669.230769 11.104342 669.538462 11.076220 669.846154 11.048752 670.153846 11.021933 670.461538 10.995757 670.769231 10.970218 671.076923 10.945312 671.384615 10.921033 671.692308 10.897375 672.000000 10.874333 672.307692 10.851901 672.615385 10.830073 672.923077 10.808845 673.230769 10.788211 673.538462 10.768165 673.846154 10.748702 674.153846 10.729816 674.461538 10.711501 674.769231 10.693753 675.076923 10.676566 675.384615 10.659934 675.692308 10.643852 676.000000 10.628314 676.307692 10.613315 676.615385 10.598849 676.923077 10.584911 677.230769 10.571495 677.538462 10.558596 677.846154 10.546209 678.153846 10.534327 678.461538 10.522945 678.769231 10.512058 679.076923 10.501661 679.384615 10.491747 679.692308 10.482312 680.000000 10.473349 680.307692 10.464854 680.615385 10.456820 680.923077 10.449243 681.230769 10.442117 681.538462 10.435435 681.846154 10.429194 682.153846 10.423387 682.461538 10.418009 682.769231 10.413054 683.076923 10.408517 683.384615 10.404393 683.692308 10.400675 684.000000 10.397359 684.307692 10.394438 684.615385 10.391908 684.923077 10.389762 685.230769 10.387996 685.538462 10.386604 685.846154 10.385580 686.153846 10.384919 686.461538 10.384615 686.769231 10.384664 687.076923 10.385058 687.384615 10.385793 687.692308 10.386864 688.000000 10.388265 688.307692 10.389990 688.615385 10.392034 688.923077 10.394391 689.230769 10.397056 689.538462 10.400023 689.846154 10.403288 690.153846 10.406843 690.461538 10.410685 690.769231 10.414807 691.076923 10.419204 691.384615 10.423870 691.692308 10.428800 692.000000 10.433989 692.307692 10.439430 692.615385 10.445119 692.923077 10.451050 693.230769 10.457217 693.538462 10.463615 693.846154 10.470239 694.153846 10.477082 694.461538 10.484140 694.769231 10.491406 695.076923 10.498877 695.384615 10.506545 695.692308 10.514405 696.000000 10.522452 696.307692 10.530681 696.615385 10.539086 696.923077 10.547661 697.230769 10.556401 697.538462 10.565301 697.846154 10.574354 698.153846 10.583556 698.461538 10.592901 698.769231 10.602383 699.076923 10.611997 699.384615 10.621738 699.692308 10.631600 700.000000 10.641577 700.307692 10.651664 700.615385 10.661855 700.923077 10.672146 701.230769 10.682530 701.538462 10.693001 701.846154 10.703556 702.153846 10.714187 702.461538 10.724890 702.769231 10.735659 703.076923 10.746488 703.384615 10.757372 703.692308 10.768306 704.000000 10.779283 704.307692 10.790300 704.615385 10.801349 704.923077 10.812425 705.230769 10.823524 705.538462 10.834639 705.846154 10.845765 706.153846 10.856897 706.153846 540.000000" /></g></g><g class="titles" /><g class="plot overlay" transform="translate(60, 20)"><g class="series serie-0 color-0"><g class="dots"><circle class="dot reactive tooltip-trigger" cx="13.846153846153847" cy="529.6153846153845" r="2.5" /><desc class="value">895,412,039(kWh)</desc><desc class="x top">13.846153846153847</desc><desc class="y top">529.6153846153845</desc><desc class="x_label">2549</desc></g><g class="dots"><circle class="dot reactive tooltip-trigger" cx="90.76923076923076" cy="425.1923541439459" r="2.5" /><desc class="value">980,455,507(kWh)</desc><desc class="x top">90.76923076923076</desc><desc class="y top">425.1923541439459</desc><desc class="x_label">2550</desc></g><g class="dots"><circle class="dot reactive tooltip-trigger" cx="167.69230769230765" cy="371.7365119319604" r="2.5" /><desc class="value">1,023,990,637(kWh)</desc><desc class="x top">167.69230769230765</desc><desc class="y top">371.7365119319604</desc><desc class="x_label">2551</desc></g><g class="dots"><circle class="dot reactive tooltip-trigger" cx="244.6153846153846" cy="374.8881096673338" r="2.5" /><desc class="value">1,021,423,935(kWh)</desc><desc class="x top">244.6153846153846</desc><desc class="y top">374.8881096673338</desc><desc class="x_label">2552</desc></g><g class="dots"><circle class="dot reactive tooltip-trigger" cx="321.5384615384615" cy="258.11904143362517" r="2.5" /><desc class="value">1,116,522,176(kWh)</desc><desc class="x ">321.5384615384615</desc><desc class="y ">258.11904143362517</desc><desc class="x_label">2553</desc></g><g class="dots"><circle class="dot reactive tooltip-trigger" cx="398.46153846153845" cy="224.1239421467435" r="2.5" /><desc class="value">1,144,208,225(kWh)</desc><desc class="x left">398.46153846153845</desc><desc class="y left">224.1239421467435</desc><desc class="x_label">2554</desc></g><g class="dots"><circle class="dot reactive tooltip-trigger" cx="475.38461538461536" cy="121.76341449504827" r="2.5" /><desc class="value">1,227,571,964(kWh)</desc><desc class="x left">475.38461538461536</desc><desc class="y left">121.76341449504827</desc><desc class="x_label">2555</desc></g><g class="dots"><circle class="dot reactive tooltip-trigger" cx="552.3076923076923" cy="78.03218683811923" r="2.5" /><desc class="value">1,263,187,242(kWh)</desc><desc class="x left">552.3076923076923</desc><desc class="y left">78.03218683811923</desc><desc class="x_label">2556</desc></g><g class="dots"><circle class="dot reactive tooltip-trigger" cx="629.2307692307692" cy="22.390783841328812" r="2.5" /><desc class="value">1,308,502,321(kWh)</desc><desc class="x left">629.2307692307692</desc><desc class="y left">22.390783841328812</desc><desc class="x_label">2557</desc></g><g class="dots"><circle class="dot reactive tooltip-trigger" cx="706.1538461538461" cy="10.856896723628097" r="2.5" /><desc class="value">1,317,895,668(kWh)</desc><desc class="x left">706.1538461538461</desc><desc class="y left">10.856896723628097</desc><desc class="x_label">2558</desc></g></g></g><g class="plot text-overlay" transform="translate(60, 20)"><g class="series serie-0 color-0" /></g><g class="plot tooltip-overlay" transform="translate(60, 20)"><g class="tooltip" style="opacity: 0" transform="translate(0 0)"><rect class="tooltip-box" height="0" rx="0" ry="0" width="0" /><g class="text" /></g></g></g></svg>