<?xml version='1.0' encoding='utf-8'?>
<svg xmlns:xlink="http://www.w3.org/1999/xlink" class="pygal-chart" id="chart-32a127e6-67b9-402e-b923-aeaed7864143" viewBox="0 0 800 600" xmlns="http://www.w3.org/2000/svg"><!--Generated with pygal 2.3.0 (etree) ©Kozea 2012-2016 on 2016-12-08--><!--http://pygal.org--><!--http://github.com/Kozea/pygal--><defs><style type="text/css">#chart-32a127e6-67b9-402e-b923-aeaed7864143{-webkit-user-select:none;-webkit-font-smoothing:antialiased;font-family:Consolas,"Liberation Mono",Menlo,Courier,monospace}#chart-32a127e6-67b9-402e-b923-aeaed7864143 .title{font-family:Consolas,"Liberation Mono",Menlo,Courier,monospace;font-size:16px}#chart-32a127e6-67b9-402e-b923-aeaed7864143 .legends .legend text{font-family:Consolas,"Liberation Mono",Menlo,Courier,monospace;font-size:14px}#chart-32a127e6-67b9-402e-b923-aeaed7864143 .axis text{font-family:Consolas,"Liberation Mono",Menlo,Courier,monospace;font-size:10px}#chart-32a127e6-67b9-402e-b923-aeaed7864143 .axis text.major{font-family:Consolas,"Liberation Mono",Menlo,Courier,monospace;font-size:10px}#chart-32a127e6-67b9-402e-b923-aeaed7864143 .text-overlay text.value{font-family:Consolas,"Liberation Mono",Menlo,Courier,monospace;font-size:16px}#chart-32a127e6-67b9-402e-b923-aeaed7864143 .text-overlay text.label{font-family:Consolas,"Liberation Mono",Menlo,Courier,monospace;font-size:10px}#chart-32a127e6-67b9-402e-b923-aeaed7864143 .tooltip{font-family:Consolas,"Liberation Mono",Menlo,Courier,monospace;font-size:14px}#chart-32a127e6-67b9-402e-b923-aeaed7864143 text.no_data{font-family:Consolas,"Liberation Mono",Menlo,Courier,monospace;font-size:64px}
#chart-32a127e6-67b9-402e-b923-aeaed7864143{background-color:rgba(249,249,249,1)}#chart-32a127e6-67b9-402e-b923-aeaed7864143 path,#chart-32a127e6-67b9-402e-b923-aeaed7864143 line,#chart-32a127e6-67b9-402e-b923-aeaed7864143 rect,#chart-32a127e6-67b9-402e-b923-aeaed7864143 circle{-webkit-transition:150ms;-moz-transition:150ms;transition:150ms}#chart-32a127e6-67b9-402e-b923-aeaed7864143 .graph &gt; .background{fill:rgba(249,249,249,1)}#chart-32a127e6-67b9-402e-b923-aeaed7864143 .plot &gt; .background{fill:rgba(255,255,255,1)}#chart-32a127e6-67b9-402e-b923-aeaed7864143 .graph{fill:rgba(0,0,0,.87)}#chart-32a127e6-67b9-402e-b923-aeaed7864143 text.no_data{fill:rgba(0,0,0,1)}#chart-32a127e6-67b9-402e-b923-aeaed7864143 .title{fill:rgba(0,0,0,1)}#chart-32a127e6-67b9-402e-b923-aeaed7864143 .legends .legend text{fill:rgba(0,0,0,.87)}#chart-32a127e6-67b9-402e-b923-aeaed7864143 .legends .legend:hover text{fill:rgba(0,0,0,1)}#chart-32a127e6-67b9-402e-b923-aeaed7864143 .axis .line{stroke:rgba(0,0,0,1)}#chart-32a127e6-67b9-402e-b923-aeaed7864143 .axis .guide.line{stroke:rgba(0,0,0,.54)}#chart-32a127e6-67b9-402e-b923-aeaed7864143 .axis .major.line{stroke:rgba(0,0,0,.87)}#chart-32a127e6-67b9-402e-b923-aeaed7864143 .axis text.major{fill:rgba(0,0,0,1)}#chart-32a127e6-67b9-402e-b923-aeaed7864143 .axis.y .guides:hover .guide.line,#chart-32a127e6-67b9-402e-b923-aeaed7864143 .line-graph .axis.x .guides:hover .guide.line,#chart-32a127e6-67b9-402e-b923-aeaed7864143 .stackedline-graph .axis.x .guides:hover .guide.line,#chart-32a127e6-67b9-402e-b923-aeaed7864143 .xy-graph .axis.x .guides:hover .guide.line{stroke:rgba(0,0,0,1)}#chart-32a127e6-67b9-402e-b923-aeaed7864143 .axis .guides:hover text{fill:rgba(0,0,0,1)}#chart-32a127e6-67b9-402e-b923-aeaed7864143 .reactive{fill-opacity:.7;stroke-opacity:.8}#chart-32a127e6-67b9-402e-b923-aeaed7864143 .ci{stroke:rgba(0,0,0,.87)}#chart-32a127e6-67b9-402e-b923-aeaed7864143 .reactive.active,#chart-32a127e6-67b9-402e-b923-aeaed7864143 .active .reactive{fill-opacity:.8;stroke-opacity:.9;stroke-width:4}#chart-32a127e6-67b9-402e-b923-aeaed7864143 .ci .reactive.active{stroke-width:1.5}#chart-32a127e6-67b9-402e-b923-aeaed7864143 .series text{fill:rgba(0,0,0,1)}#chart-32a127e6-67b9-402e-b923-aeaed7864143 .tooltip rect{fill:rgba(255,255,255,1);stroke:rgba(0,0,0,1);-webkit-transition:opacity 150ms;-moz-transition:opacity 150ms;transition:opacity 150ms}#chart-32a127e6-67b9-402e-b923-aeaed7864143 .tooltip .label{fill:rgba(0,0,0,.87)}#chart-32a127e6-67b9-402e-b923-aeaed7864143 .tooltip .label{fill:rgba(0,0,0,.87)}#chart-32a127e6-67b9-402e-b923-aeaed7864143 .tooltip .legend{font-size:.8em;fill:rgba(0,0,0,.54)}#chart-32a127e6-67b9-402e-b923-aeaed7864143 .tooltip .x_label{font-size:.6em;fill:rgba(0,0,0,1)}#chart-32a127e6-67b9-402e-b923-aeaed7864143 .tooltip .xlink{font-size:.5em;text-decoration:underline}#chart-32a127e6-67b9-402e-b923-aeaed7864143 .tooltip .value{font-size:1.5em}#chart-32a127e6-67b9-402e-b923-aeaed7864143 .bound{font-size:.5em}#chart-32a127e6-67b9-402e-b923-aeaed7864143 .max-value{font-size:.75em;fill:rgba(0,0,0,.54)}#chart-32a127e6-67b9-402e-b923-aeaed7864143 .map-element{fill:rgba(255,255,255,1);stroke:rgba(0,0,0,.54) !important}#chart-32a127e6-67b9-402e-b923-aeaed7864143 .map-element .reactive{fill-opacity:inherit;stroke-opacity:inherit}#chart-32a127e6-67b9-402e-b923-aeaed7864143 .color-0,#chart-32a127e6-67b9-402e-b923-aeaed7864143 .color-0 a:visited{stroke:#e86fa0;fill:#e86fa0}#chart-32a127e6-67b9-402e-b923-aeaed7864143 .text-overlay .color-0 text{fill:black}
#chart-32a127e6-67b9-402e-b923-aeaed7864143 text.no_data{text-anchor:middle}#chart-32a127e6-67b9-402e-b923-aeaed7864143 .guide.line{fill:none}#chart-32a127e6-67b9-402e-b923-aeaed7864143 .centered{text-anchor:middle}#chart-32a127e6-67b9-402e-b923-aeaed7864143 .title{text-anchor:middle}#chart-32a127e6-67b9-402e-b923-aeaed7864143 .legends .legend text{fill-opacity:1}#chart-32a127e6-67b9-402e-b923-aeaed7864143 .axis.x text{text-anchor:middle}#chart-32a127e6-67b9-402e-b923-aeaed7864143 .axis.x:not(.web) text[transform]{text-anchor:start}#chart-32a127e6-67b9-402e-b923-aeaed7864143 .axis.x:not(.web) text[transform].backwards{text-anchor:end}#chart-32a127e6-67b9-402e-b923-aeaed7864143 .axis.y text{text-anchor:end}#chart-32a127e6-67b9-402e-b923-aeaed7864143 .axis.y text[transform].backwards{text-anchor:start}#chart-32a127e6-67b9-402e-b923-aeaed7864143 .axis.y2 text{text-anchor:start}#chart-32a127e6-67b9-402e-b923-aeaed7864143 .axis.y2 text[transform].backwards{text-anchor:end}#chart-32a127e6-67b9-402e-b923-aeaed7864143 .axis .guide.line{stroke-dasharray:4,4}#chart-32a127e6-67b9-402e-b923-aeaed7864143 .axis .major.guide.line{stroke-dasharray:6,6}#chart-32a127e6-67b9-402e-b923-aeaed7864143 .horizontal .axis.y .guide.line,#chart-32a127e6-67b9-402e-b923-aeaed7864143 .horizontal .axis.y2 .guide.line,#chart-32a127e6-67b9-402e-b923-aeaed7864143 .vertical .axis.x .guide.line{opacity:0}#chart-32a127e6-67b9-402e-b923-aeaed7864143 .horizontal .axis.always_show .guide.line,#chart-32a127e6-67b9-402e-b923-aeaed7864143 .vertical .axis.always_show .guide.line{opacity:1 !important}#chart-32a127e6-67b9-402e-b923-aeaed7864143 .axis.y .guides:hover .guide.line,#chart-32a127e6-67b9-402e-b923-aeaed7864143 .axis.y2 .guides:hover .guide.line,#chart-32a127e6-67b9-402e-b923-aeaed7864143 .axis.x .guides:hover .guide.line{opacity:1}#chart-32a127e6-67b9-402e-b923-aeaed7864143 .axis .guides:hover text{opacity:1}#chart-32a127e6-67b9-402e-b923-aeaed7864143 .nofill{fill:none}#chart-32a127e6-67b9-402e-b923-aeaed7864143 .subtle-fill{fill-opacity:.2}#chart-32a127e6-67b9-402e-b923-aeaed7864143 .dot{stroke-width:1px;fill-opacity:1}#chart-32a127e6-67b9-402e-b923-aeaed7864143 .dot.active{stroke-width:5px}#chart-32a127e6-67b9-402e-b923-aeaed7864143 .dot.negative{fill:transparent}#chart-32a127e6-67b9-402e-b923-aeaed7864143 text,#chart-32a127e6-67b9-402e-b923-aeaed7864143 tspan{stroke:none !important}#chart-32a127e6-67b9-402e-b923-aeaed7864143 .series text.active{opacity:1}#chart-32a127e6-67b9-402e-b923-aeaed7864143 .tooltip rect{fill-opacity:.95;stroke-width:.5}#chart-32a127e6-67b9-402e-b923-aeaed7864143 .tooltip text{fill-opacity:1}#chart-32a127e6-67b9-402e-b923-aeaed7864143 .showable{visibility:hidden}#chart-32a127e6-67b9-402e-b923-aeaed7864143 .showable.shown{visibility:visible}#chart-32a127e6-67b9-402e-b923-aeaed7864143 .gauge-background{fill:rgba(229,229,229,1);stroke:none}#chart-32a127e6-67b9-402e-b923-aeaed7864143 .bg-lines{stroke:rgba(249,249,249,1);stroke-width:2px}</style><script type="text/javascript">window.pygal = window.pygal || {};window.pygal.config = window.pygal.config || {};window.pygal.config['32a127e6-67b9-402e-b923-aeaed7864143'] = {"no_data_text": "No data", "no_prefix": false, "xrange": null, "print_values_position": "center", "truncate_label": null, "x_labels": ["2549", "2550", "2551", "2552", "2553", "2554", "2555", "2556", "2557", "2558"], "title": null, "force_uri_protocol": "https", "defs": [], "formatter": null, "classes": ["pygal-chart"], "y_labels": null, "rounded_bars": null, "explicit_size": false, "x_labels_major_every": null, "legend_at_bottom_columns": null, "stroke_style": null, "half_pie": false, "spacing": 10, "tooltip_fancy_mode": true, "inverse_y_axis": false, "width": 800, "inner_radius": 0, "interpolation_parameters": {}, "tooltip_border_radius": 0, "style": {"no_data_font_family": "Consolas, \"Liberation Mono\", Menlo, Courier, monospace", "tooltip_font_size": 14, "tooltip_font_family": "Consolas, \"Liberation Mono\", Menlo, Courier, monospace", "stroke_opacity_hover": ".9", "legend_font_family": "Consolas, \"Liberation Mono\", Menlo, Courier, monospace", "font_family": "Consolas, \"Liberation Mono\", Menlo, Courier, monospace", "title_font_family": "Consolas, \"Liberation Mono\", Menlo, Courier, monospace", "background": "rgba(249, 249, 249, 1)", "stroke_opacity": ".8", "foreground": "rgba(0, 0, 0, .87)", "value_background": "rgba(229, 229, 229, 1)", "guide_stroke_dasharray": "4,4", "foreground_subtle": "rgba(0, 0, 0, .54)", "opacity_hover": ".8", "value_font_family": "Consolas, \"Liberation Mono\", Menlo, Courier, monospace", "value_label_font_size": 10, "plot_background": "rgba(255, 255, 255, 1)", "ci_colors": [], "label_font_size": 10, "major_label_font_size": 10, "title_font_size": 16, "no_data_font_size": 64, "value_font_size": 16, "value_colors": [], "label_font_family": "Consolas, \"Liberation Mono\", Menlo, Courier, monospace", "major_guide_stroke_dasharray": "6,6", "transition": "150ms", "foreground_strong": "rgba(0, 0, 0, 1)", "colors": ["#e86fa0", "#e88f6f", "#e8df6f", "#a0e86f", "#6fe88f", "#6fe8df", "#6fa0e8", "#8f6fe8", "#df6fe8", "#e86fa0"], "opacity": ".7", "legend_font_size": 14, "value_label_font_family": "Consolas, \"Liberation Mono\", Menlo, Courier, monospace", "major_label_font_family": "Consolas, \"Liberation Mono\", Menlo, Courier, monospace"}, "x_labels_major_count": null, "interpolation_precision": 250, "missing_value_fill_truncation": "x", "stack_from_top": false, "truncate_legend": null, "show_minor_x_labels": true, "print_zeroes": true, "css": ["file://style.css", "file://graph.css"], "y_label_rotation": 0, "legend_at_bottom": false, "print_values": false, "margin_top": null, "max_scale": 16, "allow_interruptions": false, "show_x_labels": true, "strict": false, "show_x_guides": false, "stroke": true, "margin_left": null, "dynamic_print_values": false, "print_labels": false, "show_y_labels": true, "x_labels_major": null, "range": null, "x_label_rotation": 0, "margin": 20, "zero": 0, "include_x_axis": false, "height": 600, "show_minor_y_labels": true, "show_dots": true, "interpolate": "cubic", "show_y_guides": true, "y_labels_major": null, "box_mode": "extremes", "margin_bottom": null, "order_min": null, "legend_box_size": 12, "fill": true, "show_only_major_dots": false, "js": ["//kozea.github.io/pygal.js/2.0.x/pygal-tooltips.min.js"], "x_title": null, "y_labels_major_every": null, "y_labels_major_count": null, "disable_xml_declaration": false, "y_title": null, "logarithmic": false, "pretty_print": false, "min_scale": 4, "dots_size": 2.5, "margin_right": null, "legends": [null], "secondary_range": null, "show_legend": false}</script><script type="text/javascript" xlink:href="https://kozea.github.io/pygal.js/2.0.x/pygal-tooltips.min.js" /></defs><title>Pygal</title><g class="graph stackedline-graph vertical"><rect class="background" height="600" width="800" x="0" y="0" /><g class="plot" transform="translate(54, 20)"><rect class="background" height="540" width="726.0" x="0" y="0" /><g class="axis y"><path class="line" d="M0.000000 540.000000 h726.000000" /><g class="guides"><path class="guide line" d="M0.000000 493.344861 h726.000000" /><text class="" x="-5" y="496.8448610504125">520M</text><title>520M</title></g><g class="guides"><path class="guide line" d="M0.000000 438.195576 h726.000000" /><text class="" x="-5" y="441.69557648691506">560M</text><title>560M</title></g><g class="guides"><path class="guide line" d="M0.000000 383.046292 h726.000000" /><text class="" x="-5" y="386.54629192341764">600M</text><title>600M</title></g><g class="guides"><path class="guide line" d="M0.000000 327.897007 h726.000000" /><text class="" x="-5" y="331.3970073599202">640M</text><title>640M</title></g><g class="guides"><path class="guide line" d="M0.000000 272.747723 h726.000000" /><text class="" x="-5" y="276.2477227964228">680M</text><title>680M</title></g><g class="guides"><path class="guide line" d="M0.000000 217.598438 h726.000000" /><text class="" x="-5" y="221.0984382329254">720M</text><title>720M</title></g><g class="guides"><path class="guide line" d="M0.000000 162.449154 h726.000000" /><text class="" x="-5" y="165.94915366942797">760M</text><title>760M</title></g><g class="guides"><path class="guide line" d="M0.000000 107.299869 h726.000000" /><text class="" x="-5" y="110.79986910593061">800M</text><title>800M</title></g><g class="guides"><path class="guide line" d="M0.000000 52.150585 h726.000000" /><text class="" x="-5" y="55.650584542433194">840M</text><title>840M</title></g></g><g class="axis x"><g class="guides"><path class="line" d="M13.961538 0.000000 v540.000000" /><text class="" x="13.96153846153846" y="555.0">2549</text></g><g class="guides"><path class="guide line" d="M91.525641 0.000000 v540.000000" /><text class="" x="91.52564102564101" y="555.0">2550</text></g><g class="guides"><path class="guide line" d="M169.089744 0.000000 v540.000000" /><text class="" x="169.08974358974356" y="555.0">2551</text></g><g class="guides"><path class="guide line" d="M246.653846 0.000000 v540.000000" /><text class="" x="246.65384615384613" y="555.0">2552</text></g><g class="guides"><path class="guide line" d="M324.217949 0.000000 v540.000000" /><text class="" x="324.21794871794873" y="555.0">2553</text></g><g class="guides"><path class="guide line" d="M401.782051 0.000000 v540.000000" /><text class="" x="401.78205128205127" y="555.0">2554</text></g><g class="guides"><path class="guide line" d="M479.346154 0.000000 v540.000000" /><text class="" x="479.3461538461538" y="555.0">2555</text></g><g class="guides"><path class="guide line" d="M556.910256 0.000000 v540.000000" /><text class="" x="556.9102564102565" y="555.0">2556</text></g><g class="guides"><path class="guide line" d="M634.474359 0.000000 v540.000000" /><text class="" x="634.474358974359" y="555.0">2557</text></g><g class="guides"><path class="guide line" d="M712.038462 0.000000 v540.000000" /><text class="" x="712.0384615384615" y="555.0">2558</text></g></g><g class="series serie-0 color-0"><path class="line reactive" d="M13.961538 540.000000 L13.961538 529.615385 14.271795 529.508262 14.582051 529.401138 14.892308 529.294010 15.202564 529.186876 15.512821 529.079735 15.823077 528.972584 16.133333 528.865422 16.443590 528.758246 16.753846 528.651055 17.064103 528.543848 17.374359 528.436621 17.684615 528.329373 17.994872 528.222103 18.305128 528.114808 18.615385 528.007487 18.925641 527.900137 19.235897 527.792756 19.546154 527.685344 19.856410 527.577897 20.166667 527.470414 20.476923 527.362893 20.787179 527.255333 21.097436 527.147731 21.407692 527.040085 21.717949 526.932393 22.028205 526.824655 22.338462 526.716866 22.648718 526.609027 22.958974 526.501135 23.269231 526.393187 23.579487 526.285183 23.889744 526.177120 24.200000 526.068996 24.510256 525.960810 24.820513 525.852559 25.130769 525.744241 25.441026 525.635856 25.751282 525.527400 26.061538 525.418872 26.371795 525.310270 26.682051 525.201593 26.992308 525.092837 27.302564 524.984002 27.612821 524.875086 27.923077 524.766086 28.233333 524.657000 28.543590 524.547827 28.853846 524.438566 29.164103 524.329213 29.474359 524.219767 29.784615 524.110226 30.094872 524.000589 30.405128 523.890853 30.715385 523.781016 31.025641 523.671078 31.335897 523.561034 31.646154 523.450885 31.956410 523.340627 32.266667 523.230260 32.576923 523.119780 32.887179 523.009187 33.197436 522.898478 33.507692 522.787651 33.817949 522.676705 34.128205 522.565638 34.438462 522.454447 34.748718 522.343131 35.058974 522.231688 35.369231 522.120116 35.679487 522.008414 35.989744 521.896578 36.300000 521.784608 36.610256 521.672501 36.920513 521.560256 37.230769 521.447870 37.541026 521.335342 37.851282 521.222670 38.161538 521.109852 38.471795 520.996886 38.782051 520.883770 39.092308 520.770503 39.402564 520.657081 39.712821 520.543505 40.023077 520.429771 40.333333 520.315877 40.643590 520.201822 40.953846 520.087605 41.264103 519.973222 41.574359 519.858672 41.884615 519.743954 42.194872 519.629064 42.505128 519.514003 42.815385 519.398766 43.125641 519.283354 43.435897 519.167763 43.746154 519.051992 44.056410 518.936038 44.366667 518.819901 44.676923 518.703578 44.987179 518.587067 45.297436 518.470367 45.607692 518.353475 45.917949 518.236389 46.228205 518.119108 46.538462 518.001630 46.848718 517.883953 47.158974 517.766074 47.469231 517.647993 47.779487 517.529707 48.089744 517.411214 48.400000 517.292513 48.710256 517.173601 49.020513 517.054476 49.330769 516.935137 49.641026 516.815583 49.951282 516.695809 50.261538 516.575816 50.571795 516.455601 50.882051 516.335162 51.192308 516.214498 51.502564 516.093606 51.812821 515.972484 52.123077 515.851131 52.433333 515.729545 52.743590 515.607723 53.053846 515.485665 53.364103 515.363367 53.674359 515.240829 53.984615 515.118048 54.294872 514.995022 54.605128 514.871749 54.915385 514.748228 55.225641 514.624457 55.535897 514.500434 55.846154 514.376156 56.156410 514.251622 56.466667 514.126831 56.776923 514.001779 57.087179 513.876466 57.397436 513.750889 57.707692 513.625047 58.017949 513.498937 58.328205 513.372558 58.638462 513.245907 58.948718 513.118984 59.258974 512.991785 59.569231 512.864310 59.879487 512.736556 60.189744 512.608521 60.500000 512.480203 60.810256 512.351601 61.120513 512.222713 61.430769 512.093536 61.741026 511.964069 62.051282 511.834310 62.361538 511.704257 62.671795 511.573908 62.982051 511.443262 63.292308 511.312315 63.602564 511.181068 63.912821 511.049516 64.223077 510.917660 64.533333 510.785496 64.843590 510.653022 65.153846 510.520238 65.464103 510.387141 65.774359 510.253729 66.084615 510.120001 66.394872 509.985953 66.705128 509.851585 67.015385 509.716895 67.325641 509.581880 67.635897 509.446540 67.946154 509.310871 68.256410 509.174872 68.566667 509.038541 68.876923 508.901876 69.187179 508.764876 69.497436 508.627538 69.807692 508.489860 70.117949 508.351841 70.428205 508.213479 70.738462 508.074771 71.048718 507.935717 71.358974 507.796313 71.669231 507.656559 71.979487 507.516452 72.289744 507.375990 72.600000 507.235172 72.910256 507.093995 73.220513 506.952458 73.530769 506.810558 73.841026 506.668294 74.151282 506.525665 74.461538 506.382667 74.771795 506.239300 75.082051 506.095560 75.392308 505.951447 75.702564 505.806959 76.012821 505.662093 76.323077 505.516848 76.633333 505.371221 76.943590 505.225212 77.253846 505.078817 77.564103 504.932036 77.874359 504.784866 78.184615 504.637305 78.494872 504.489351 78.805128 504.341003 79.115385 504.192258 79.425641 504.043115 79.735897 503.893572 80.046154 503.743627 80.356410 503.593278 80.666667 503.442523 80.976923 503.291360 81.287179 503.139788 81.597436 502.987804 81.907692 502.835407 82.217949 502.682594 82.528205 502.529364 82.838462 502.375714 83.148718 502.221644 83.458974 502.067151 83.769231 501.912232 84.079487 501.756888 84.389744 501.601114 84.700000 501.444910 85.010256 501.288273 85.320513 501.131203 85.630769 500.973696 85.941026 500.815750 86.251282 500.657365 86.561538 500.498538 86.871795 500.339267 87.182051 500.179550 87.492308 500.019386 87.802564 499.858772 88.112821 499.697707 88.423077 499.536188 88.733333 499.374215 89.043590 499.211784 89.353846 499.048894 89.664103 498.885543 89.974359 498.721730 90.284615 498.557452 90.594872 498.392707 90.905128 498.227494 91.215385 498.061810 91.525641 497.895655 91.835897 497.729025 92.146154 497.561925 92.456410 497.394356 92.766667 497.226321 93.076923 497.057823 93.387179 496.888866 93.697436 496.719451 94.007692 496.549582 94.317949 496.379261 94.628205 496.208492 94.938462 496.037277 95.248718 495.865619 95.558974 495.693520 95.869231 495.520984 96.179487 495.348014 96.489744 495.174612 96.800000 495.000781 97.110256 494.826524 97.420513 494.651844 97.730769 494.476744 98.041026 494.301225 98.351282 494.125293 98.661538 493.948948 98.971795 493.772194 99.282051 493.595034 99.592308 493.417471 99.902564 493.239507 100.212821 493.061145 100.523077 492.882388 100.833333 492.703240 101.143590 492.523702 101.453846 492.343777 101.764103 492.163469 102.074359 491.982780 102.384615 491.801714 102.694872 491.620272 103.005128 491.438458 103.315385 491.256274 103.625641 491.073724 103.935897 490.890810 104.246154 490.707536 104.556410 490.523903 104.866667 490.339914 105.176923 490.155574 105.487179 489.970883 105.797436 489.785846 106.107692 489.600465 106.417949 489.414743 106.728205 489.228682 107.038462 489.042286 107.348718 488.855558 107.658974 488.668499 107.969231 488.481114 108.279487 488.293404 108.589744 488.105374 108.900000 487.917024 109.210256 487.728359 109.520513 487.539381 109.830769 487.350093 110.141026 487.160498 110.451282 486.970599 110.761538 486.780398 111.071795 486.589898 111.382051 486.399103 111.692308 486.208015 112.002564 486.016636 112.312821 485.824970 112.623077 485.633020 112.933333 485.440787 113.243590 485.248276 113.553846 485.055489 113.864103 484.862429 114.174359 484.669098 114.484615 484.475500 114.794872 484.281637 115.105128 484.087512 115.415385 483.893128 115.725641 483.698488 116.035897 483.503595 116.346154 483.308451 116.656410 483.113059 116.966667 482.917422 117.276923 482.721544 117.587179 482.525426 117.897436 482.329071 118.207692 482.132483 118.517949 481.935665 118.828205 481.738618 119.138462 481.541346 119.448718 481.343852 119.758974 481.146139 120.069231 480.948209 120.379487 480.750065 120.689744 480.551711 121.000000 480.353148 121.310256 480.154380 121.620513 479.955409 121.930769 479.756239 122.241026 479.556872 122.551282 479.357311 122.861538 479.157559 123.171795 478.957619 123.482051 478.757494 123.792308 478.557185 124.102564 478.356697 124.412821 478.156032 124.723077 477.955193 125.033333 477.754182 125.343590 477.553003 125.653846 477.351658 125.964103 477.150151 126.274359 476.948483 126.584615 476.746659 126.894872 476.544680 127.205128 476.342549 127.515385 476.140270 127.825641 475.937845 128.135897 475.735277 128.446154 475.532569 128.756410 475.329723 129.066667 475.126743 129.376923 474.923632 129.687179 474.720391 129.997436 474.517025 130.307692 474.313535 130.617949 474.109925 130.928205 473.906197 131.238462 473.702355 131.548718 473.498401 131.858974 473.294337 132.169231 473.090168 132.479487 472.885895 132.789744 472.681522 133.100000 472.477051 133.410256 472.272485 133.720513 472.067827 134.030769 471.863079 134.341026 471.658246 134.651282 471.453328 134.961538 471.248330 135.271795 471.043255 135.582051 470.838104 135.892308 470.632880 136.202564 470.427588 136.512821 470.222229 136.823077 470.016806 137.133333 469.811322 137.443590 469.605780 137.753846 469.400183 138.064103 469.194533 138.374359 468.988834 138.684615 468.783088 138.994872 468.577298 139.305128 468.371467 139.615385 468.165597 139.925641 467.959693 140.235897 467.753755 140.546154 467.547788 140.856410 467.341794 141.166667 467.135776 141.476923 466.929736 141.787179 466.723678 142.097436 466.517604 142.407692 466.311518 142.717949 466.105421 143.028205 465.899318 143.338462 465.693210 143.648718 465.487100 143.958974 465.280992 144.269231 465.074889 144.579487 464.868792 144.889744 464.662705 145.200000 464.456630 145.510256 464.250572 145.820513 464.044531 146.130769 463.838512 146.441026 463.632516 146.751282 463.426548 147.061538 463.220609 147.371795 463.014702 147.682051 462.808831 147.992308 462.602998 148.302564 462.397206 148.612821 462.191458 148.923077 461.985757 149.233333 461.780105 149.543590 461.574505 149.853846 461.368960 150.164103 461.163474 150.474359 460.958048 150.784615 460.752685 151.094872 460.547389 151.405128 460.342163 151.715385 460.137008 152.025641 459.931929 152.335897 459.726927 152.646154 459.522006 152.956410 459.317168 153.266667 459.112417 153.576923 458.907754 153.887179 458.703184 154.197436 458.498708 154.507692 458.294330 154.817949 458.090053 155.128205 457.885878 155.438462 457.681810 155.748718 457.477850 156.058974 457.274002 156.369231 457.070269 156.679487 456.866653 156.989744 456.663158 157.300000 456.459785 157.610256 456.256539 157.920513 456.053421 158.230769 455.850435 158.541026 455.647583 158.851282 455.444868 159.161538 455.242293 159.471795 455.039861 159.782051 454.837575 160.092308 454.635437 160.402564 454.433451 160.712821 454.231619 161.023077 454.029944 161.333333 453.828429 161.643590 453.627076 161.953846 453.425889 162.264103 453.224871 162.574359 453.024023 162.884615 452.823350 163.194872 452.622853 163.505128 452.422536 163.815385 452.222402 164.125641 452.022452 164.435897 451.822691 164.746154 451.623121 165.056410 451.423745 165.366667 451.224566 165.676923 451.025585 165.987179 450.826808 166.297436 450.628235 166.607692 450.429870 166.917949 450.231716 167.228205 450.033776 167.538462 449.836052 167.848718 449.638548 168.158974 449.441266 168.469231 449.244208 168.779487 449.047379 169.089744 448.850779 169.400000 448.654412 169.710256 448.458271 170.020513 448.262347 170.330769 448.066634 170.641026 447.871124 170.951282 447.675809 171.261538 447.480681 171.571795 447.285734 171.882051 447.090958 172.192308 446.896347 172.502564 446.701893 172.812821 446.507588 173.123077 446.313424 173.433333 446.119394 173.743590 445.925491 174.053846 445.731706 174.364103 445.538032 174.674359 445.344461 174.984615 445.150985 175.294872 444.957598 175.605128 444.764291 175.915385 444.571056 176.225641 444.377886 176.535897 444.184773 176.846154 443.991710 177.156410 443.798689 177.466667 443.605702 177.776923 443.412742 178.087179 443.219801 178.397436 443.026871 178.707692 442.833944 179.017949 442.641014 179.328205 442.448072 179.638462 442.255110 179.948718 442.062121 180.258974 441.869098 180.569231 441.676033 180.879487 441.482917 181.189744 441.289744 181.500000 441.096505 181.810256 440.903193 182.120513 440.709801 182.430769 440.516320 182.741026 440.322744 183.051282 440.129063 183.361538 439.935272 183.671795 439.741361 183.982051 439.547324 184.292308 439.353152 184.602564 439.158839 184.912821 438.964376 185.223077 438.769756 185.533333 438.574970 185.843590 438.380013 186.153846 438.184875 186.464103 437.989549 186.774359 437.794027 187.084615 437.598302 187.394872 437.402366 187.705128 437.206212 188.015385 437.009832 188.325641 436.813217 188.635897 436.616361 188.946154 436.419256 189.256410 436.221894 189.566667 436.024268 189.876923 435.826369 190.187179 435.628191 190.497436 435.429725 190.807692 435.230963 191.117949 435.031899 191.428205 434.832525 191.738462 434.632832 192.048718 434.432814 192.358974 434.232462 192.669231 434.031769 192.979487 433.830727 193.289744 433.629328 193.600000 433.427566 193.910256 433.225431 194.220513 433.022918 194.530769 432.820017 194.841026 432.616721 195.151282 432.413023 195.461538 432.208915 195.771795 432.004389 196.082051 431.799438 196.392308 431.594054 196.702564 431.388229 197.012821 431.181955 197.323077 430.975226 197.633333 430.768033 197.943590 430.560368 198.253846 430.352225 198.564103 430.143594 198.874359 429.934470 199.184615 429.724843 199.494872 429.514707 199.805128 429.304053 200.115385 429.092874 200.425641 428.881163 200.735897 428.668911 201.046154 428.456112 201.356410 428.242756 201.666667 428.028838 201.976923 427.814348 202.287179 427.599280 202.597436 427.383625 202.907692 427.167377 203.217949 426.950527 203.528205 426.733067 203.838462 426.514991 204.148718 426.296290 204.458974 426.076957 204.769231 425.856984 205.079487 425.636364 205.389744 425.415088 205.700000 425.193149 206.010256 424.970540 206.320513 424.747252 206.630769 424.523279 206.941026 424.298612 207.251282 424.073244 207.561538 423.847167 207.871795 423.620373 208.182051 423.392855 208.492308 423.164606 208.802564 422.935616 209.112821 422.705880 209.423077 422.475389 209.733333 422.244135 210.043590 422.012112 210.353846 421.779310 210.664103 421.545723 210.974359 421.311343 211.284615 421.076162 211.594872 420.840172 211.905128 420.603367 212.215385 420.365737 212.525641 420.127277 212.835897 419.887977 213.146154 419.647830 213.456410 419.406829 213.766667 419.164966 214.076923 418.922233 214.387179 418.678623 214.697436 418.434127 215.007692 418.188739 215.317949 417.942450 215.628205 417.695254 215.938462 417.447142 216.248718 417.198106 216.558974 416.948139 216.869231 416.697234 217.179487 416.445382 217.489744 416.192576 217.800000 415.938809 218.110256 415.684072 218.420513 415.428358 218.730769 415.171660 219.041026 414.913969 219.351282 414.655278 219.661538 414.395580 219.971795 414.134866 220.282051 413.873129 220.592308 413.610362 220.902564 413.346556 221.212821 413.081704 221.523077 412.815799 221.833333 412.548833 222.143590 412.280797 222.453846 412.011685 222.764103 411.741489 223.074359 411.470201 223.384615 411.197813 223.694872 410.924318 224.005128 410.649708 224.315385 410.373976 224.625641 410.097113 224.935897 409.819112 225.246154 409.539966 225.556410 409.259667 225.866667 408.978207 226.176923 408.695578 226.487179 408.411773 226.797436 408.126784 227.107692 407.840604 227.417949 407.553224 227.728205 407.264638 228.038462 406.974837 228.348718 406.683814 228.658974 406.391562 228.969231 406.098071 229.279487 405.803336 229.589744 405.507348 229.900000 405.210099 230.210256 404.911582 230.520513 404.611790 230.830769 404.310714 231.141026 404.008347 231.451282 403.704681 231.761538 403.399708 232.071795 403.093422 232.382051 402.785814 232.692308 402.476876 233.002564 402.166602 233.312821 401.854982 233.623077 401.542011 233.933333 401.227679 234.243590 400.911979 234.553846 400.594904 234.864103 400.276446 235.174359 399.956598 235.484615 399.635351 235.794872 399.312698 236.105128 398.988631 236.415385 398.663143 236.725641 398.336226 237.035897 398.007872 237.346154 397.678074 237.656410 397.346824 237.966667 397.014114 238.276923 396.679937 238.587179 396.344285 238.897436 396.007151 239.207692 395.668526 239.517949 395.328403 239.828205 394.986774 240.138462 394.643633 240.448718 394.298970 240.758974 393.952779 241.069231 393.605051 241.379487 393.255780 241.689744 392.904957 242.000000 392.552574 242.310256 392.198625 242.620513 391.843101 242.930769 391.485995 243.241026 391.127299 243.551282 390.767006 243.861538 390.405107 244.171795 390.041596 244.482051 389.676464 244.792308 389.309704 245.102564 388.941307 245.412821 388.571268 245.723077 388.199577 246.033333 387.826228 246.343590 387.451211 246.653846 387.074521 246.964103 386.696153 247.274359 386.316118 247.584615 385.934431 247.894872 385.551107 248.205128 385.166161 248.515385 384.779609 248.825641 384.391465 249.135897 384.001744 249.446154 383.610461 249.756410 383.217631 250.066667 382.823270 250.376923 382.427392 250.687179 382.030012 250.997436 381.631145 251.307692 381.230807 251.617949 380.829011 251.928205 380.425774 252.238462 380.021110 252.548718 379.615034 252.858974 379.207562 253.169231 378.798708 253.479487 378.388487 253.789744 377.976914 254.100000 377.564004 254.410256 377.149773 254.720513 376.734235 255.030769 376.317405 255.341026 375.899298 255.651282 375.479930 255.961538 375.059314 256.271795 374.637467 256.582051 374.214404 256.892308 373.790138 257.202564 373.364686 257.512821 372.938062 257.823077 372.510281 258.133333 372.081359 258.443590 371.651310 258.753846 371.220149 259.064103 370.787891 259.374359 370.354552 259.684615 369.920146 259.994872 369.484688 260.305128 369.048193 260.615385 368.610677 260.925641 368.172154 261.235897 367.732639 261.546154 367.292147 261.856410 366.850694 262.166667 366.408294 262.476923 365.964962 262.787179 365.520714 263.097436 365.075564 263.407692 364.629527 263.717949 364.182618 264.028205 363.734853 264.338462 363.286246 264.648718 362.836812 264.958974 362.386567 265.269231 361.935525 265.579487 361.483701 265.889744 361.031111 266.200000 360.577769 266.510256 360.123690 266.820513 359.668889 267.130769 359.213382 267.441026 358.757183 267.751282 358.300308 268.061538 357.842770 268.371795 357.384586 268.682051 356.925771 268.992308 356.466339 269.302564 356.006305 269.612821 355.545684 269.923077 355.084492 270.233333 354.622743 270.543590 354.160452 270.853846 353.697635 271.164103 353.234306 271.474359 352.770480 271.784615 352.306173 272.094872 351.841399 272.405128 351.376173 272.715385 350.910511 273.025641 350.444427 273.335897 349.977937 273.646154 349.511055 273.956410 349.043796 274.266667 348.576175 274.576923 348.108208 274.887179 347.639909 275.197436 347.171294 275.507692 346.702377 275.817949 346.233174 276.128205 345.763698 276.438462 345.293966 276.748718 344.823993 277.058974 344.353793 277.369231 343.883381 277.679487 343.412773 277.989744 342.941983 278.300000 342.471026 278.610256 341.999918 278.920513 341.528673 279.230769 341.057307 279.541026 340.585834 279.851282 340.114269 280.161538 339.642628 280.471795 339.170925 280.782051 338.699176 281.092308 338.227395 281.402564 337.755597 281.712821 337.283798 282.023077 336.812012 282.333333 336.340255 282.643590 335.868541 282.953846 335.396885 283.264103 334.925303 283.574359 334.453809 283.884615 333.982419 284.194872 333.511147 284.505128 333.040009 284.815385 332.569019 285.125641 332.098192 285.435897 331.627544 285.746154 331.157089 286.056410 330.686843 286.366667 330.216820 286.676923 329.747036 286.987179 329.277505 287.297436 328.808242 287.607692 328.339263 287.917949 327.870583 288.228205 327.402216 288.538462 326.934177 288.848718 326.466482 289.158974 325.999145 289.469231 325.532182 289.779487 325.065607 290.089744 324.599435 290.400000 324.133683 290.710256 323.668363 291.020513 323.203492 291.330769 322.739085 291.641026 322.275156 291.951282 321.811720 292.261538 321.348793 292.571795 320.886389 292.882051 320.424524 293.192308 319.963213 293.502564 319.502469 293.812821 319.042310 294.123077 318.582749 294.433333 318.123801 294.743590 317.665482 295.053846 317.207806 295.364103 316.750789 295.674359 316.294445 295.984615 315.838790 296.294872 315.383838 296.605128 314.929605 296.915385 314.476106 297.225641 314.023354 297.535897 313.571367 297.846154 313.120158 298.156410 312.669742 298.466667 312.220135 298.776923 311.771351 299.087179 311.323406 299.397436 310.876315 299.707692 310.430092 300.017949 309.984752 300.328205 309.540312 300.638462 309.096784 300.948718 308.654185 301.258974 308.212530 301.569231 307.771833 301.879487 307.332110 302.189744 306.893375 302.500000 306.455644 302.810256 306.018932 303.120513 305.583253 303.430769 305.148622 303.741026 304.715055 304.051282 304.282567 304.361538 303.851172 304.671795 303.420886 304.982051 302.991723 305.292308 302.563699 305.602564 302.136828 305.912821 301.711126 306.223077 301.286608 306.533333 300.863288 306.843590 300.441182 307.153846 300.020304 307.464103 299.600670 307.774359 299.182294 308.084615 298.765192 308.394872 298.349379 308.705128 297.934869 309.015385 297.521678 309.325641 297.109820 309.635897 296.699311 309.946154 296.290166 310.256410 295.882399 310.566667 295.476026 310.876923 295.071061 311.187179 294.667520 311.497436 294.265418 311.807692 293.864769 312.117949 293.465589 312.428205 293.067892 312.738462 292.671694 313.048718 292.277010 313.358974 291.883854 313.669231 291.492242 313.979487 291.102188 314.289744 290.713708 314.600000 290.326817 314.910256 289.941530 315.220513 289.557861 315.530769 289.175825 315.841026 288.795438 316.151282 288.416715 316.461538 288.039671 316.771795 287.664320 317.082051 287.290678 317.392308 286.918759 317.702564 286.548579 318.012821 286.180153 318.323077 285.813496 318.633333 285.448622 318.943590 285.085546 319.253846 284.724285 319.564103 284.364852 319.874359 284.007262 320.184615 283.651532 320.494872 283.297675 320.805128 282.945707 321.115385 282.595642 321.425641 282.247496 321.735897 281.901284 322.046154 281.557020 322.356410 281.214720 322.666667 280.874399 322.976923 280.536071 323.287179 280.199752 323.597436 279.865457 323.907692 279.533200 324.217949 279.202998 324.528205 278.874857 324.838462 278.548761 325.148718 278.224686 325.458974 277.902609 325.769231 277.582505 326.079487 277.264351 326.389744 276.948122 326.700000 276.633795 327.010256 276.321347 327.320513 276.010753 327.630769 275.701989 327.941026 275.395032 328.251282 275.089858 328.561538 274.786443 328.871795 274.484763 329.182051 274.184795 329.492308 273.886514 329.802564 273.589897 330.112821 273.294920 330.423077 273.001560 330.733333 272.709791 331.043590 272.419592 331.353846 272.130936 331.664103 271.843802 331.974359 271.558165 332.284615 271.274001 332.594872 270.991287 332.905128 270.709998 333.215385 270.430111 333.525641 270.151602 333.835897 269.874447 334.146154 269.598623 334.456410 269.324105 334.766667 269.050870 335.076923 268.778894 335.387179 268.508153 335.697436 268.238623 336.007692 267.970281 336.317949 267.703102 336.628205 267.437063 336.938462 267.172140 337.248718 266.908310 337.558974 266.645547 337.869231 266.383830 338.179487 266.123133 338.489744 265.863433 338.800000 265.604706 339.110256 265.346928 339.420513 265.090076 339.730769 264.834126 340.041026 264.579053 340.351282 264.324834 340.661538 264.071446 340.971795 263.818864 341.282051 263.567065 341.592308 263.316024 341.902564 263.065718 342.212821 262.816124 342.523077 262.567216 342.833333 262.318973 343.143590 262.071369 343.453846 261.824380 343.764103 261.577984 344.074359 261.332156 344.384615 261.086873 344.694872 260.842110 345.005128 260.597844 345.315385 260.354050 345.625641 260.110706 345.935897 259.867788 346.246154 259.625270 346.556410 259.383131 346.866667 259.141345 347.176923 258.899890 347.487179 258.658740 347.797436 258.417873 348.107692 258.177265 348.417949 257.936891 348.728205 257.696729 349.038462 257.456753 349.348718 257.216941 349.658974 256.977269 349.969231 256.737712 350.279487 256.498247 350.589744 256.258850 350.900000 256.019497 351.210256 255.780165 351.520513 255.540830 351.830769 255.301467 352.141026 255.062053 352.451282 254.822564 352.761538 254.582977 353.071795 254.343268 353.382051 254.103412 353.692308 253.863385 354.002564 253.623165 354.312821 253.382728 354.623077 253.142048 354.933333 252.901104 355.243590 252.659870 355.553846 252.418323 355.864103 252.176439 356.174359 251.934195 356.484615 251.691566 356.794872 251.448530 357.105128 251.205060 357.415385 250.961135 357.725641 250.716731 358.035897 250.471823 358.346154 250.226387 358.656410 249.980400 358.966667 249.733839 359.276923 249.486678 359.587179 249.238895 359.897436 248.990465 360.207692 248.741366 360.517949 248.491572 360.828205 248.241060 361.138462 247.989806 361.448718 247.737787 361.758974 247.484979 362.069231 247.231358 362.379487 246.976899 362.689744 246.721580 363.000000 246.465376 363.310256 246.208264 363.620513 245.950219 363.930769 245.691219 364.241026 245.431238 364.551282 245.170254 364.861538 244.908243 365.171795 244.645180 365.482051 244.381042 365.792308 244.115805 366.102564 243.849445 366.412821 243.581938 366.723077 243.313262 367.033333 243.043391 367.343590 242.772302 367.653846 242.499971 367.964103 242.226374 368.274359 241.951488 368.584615 241.675289 368.894872 241.397752 369.205128 241.118855 369.515385 240.838572 369.825641 240.556882 370.135897 240.273759 370.446154 239.989179 370.756410 239.703120 371.066667 239.415556 371.376923 239.126466 371.687179 238.835823 371.997436 238.543606 372.307692 238.249789 372.617949 237.954349 372.928205 237.657263 373.238462 237.358506 373.548718 237.058054 373.858974 236.755885 374.169231 236.451973 374.479487 236.146296 374.789744 235.838828 375.100000 235.529548 375.410256 235.218430 375.720513 234.905451 376.030769 234.590587 376.341026 234.273815 376.651282 233.955110 376.961538 233.634448 377.271795 233.311807 377.582051 232.987161 377.892308 232.660488 378.202564 232.331762 378.512821 232.000962 378.823077 231.668062 379.133333 231.333039 379.443590 230.995870 379.753846 230.656529 380.064103 230.314994 380.374359 229.971241 380.684615 229.625245 380.994872 229.276984 381.305128 228.926432 381.615385 228.573567 381.925641 228.218365 382.235897 227.860801 382.546154 227.500853 382.856410 227.138495 383.166667 226.773705 383.476923 226.406458 383.787179 226.036731 384.097436 225.664500 384.407692 225.289740 384.717949 224.912429 385.028205 224.532543 385.338462 224.150057 385.648718 223.764947 385.958974 223.377191 386.269231 222.986764 386.579487 222.593642 386.889744 222.197802 387.200000 221.799219 387.510256 221.397870 387.820513 220.993731 388.130769 220.586779 388.441026 220.176989 388.751282 219.764337 389.061538 219.348800 389.371795 218.930354 389.682051 218.508976 389.992308 218.084640 390.302564 217.657324 390.612821 217.227004 390.923077 216.793656 391.233333 216.357256 391.543590 215.917780 391.853846 215.475204 392.164103 215.029505 392.474359 214.580659 392.784615 214.128642 393.094872 213.673430 393.405128 213.214999 393.715385 212.753326 394.025641 212.288387 394.335897 211.820157 394.646154 211.348614 394.956410 210.873733 395.266667 210.395490 395.576923 209.913862 395.887179 209.428824 396.197436 208.940354 396.507692 208.448427 396.817949 207.953019 397.128205 207.454107 397.438462 206.951666 397.748718 206.445673 398.058974 205.936105 398.369231 205.422937 398.679487 204.906145 398.989744 204.385706 399.300000 203.861595 399.610256 203.333790 399.920513 202.802266 400.230769 202.266999 400.541026 201.727966 400.851282 201.185142 401.161538 200.638504 401.471795 200.088029 401.782051 199.533692 402.092308 198.975481 402.402564 198.413432 402.712821 197.847593 403.023077 197.278012 403.333333 196.704736 403.643590 196.127812 403.953846 195.547289 404.264103 194.963215 404.574359 194.375636 404.884615 193.784600 405.194872 193.190156 405.505128 192.592351 405.815385 191.991232 406.125641 191.386847 406.435897 190.779245 406.746154 190.168472 407.056410 189.554576 407.366667 188.937605 407.676923 188.317606 407.987179 187.694628 408.297436 187.068718 408.607692 186.439923 408.917949 185.808291 409.228205 185.173871 409.538462 184.536709 409.848718 183.896853 410.158974 183.254351 410.469231 182.609251 410.779487 181.961600 411.089744 181.311446 411.400000 180.658837 411.710256 180.003820 412.020513 179.346443 412.330769 178.686754 412.641026 178.024800 412.951282 177.360629 413.261538 176.694288 413.571795 176.025826 413.882051 175.355290 414.192308 174.682728 414.502564 174.008187 414.812821 173.331715 415.123077 172.653359 415.433333 171.973169 415.743590 171.291190 416.053846 170.607470 416.364103 169.922059 416.674359 169.235002 416.984615 168.546348 417.294872 167.856144 417.605128 167.164439 417.915385 166.471279 418.225641 165.776712 418.535897 165.080787 418.846154 164.383551 419.156410 163.685050 419.466667 162.985334 419.776923 162.284450 420.087179 161.582445 420.397436 160.879368 420.707692 160.175265 421.017949 159.470184 421.328205 158.764174 421.638462 158.057281 421.948718 157.349554 422.258974 156.641041 422.569231 155.931788 422.879487 155.221843 423.189744 154.511255 423.500000 153.800070 423.810256 153.088337 424.120513 152.376103 424.430769 151.663416 424.741026 150.950324 425.051282 150.236873 425.361538 149.523113 425.671795 148.809090 425.982051 148.094852 426.292308 147.380448 426.602564 146.665923 426.912821 145.951327 427.223077 145.236707 427.533333 144.522111 427.843590 143.807586 428.153846 143.093179 428.464103 142.378940 428.774359 141.664914 429.084615 140.951151 429.394872 140.237697 429.705128 139.524600 430.015385 138.811908 430.325641 138.099669 430.635897 137.387930 430.946154 136.676739 431.256410 135.966144 431.566667 135.256192 431.876923 134.546932 432.187179 133.838409 432.497436 133.130673 432.807692 132.423771 433.117949 131.717751 433.428205 131.012660 433.738462 130.308546 434.048718 129.605457 434.358974 128.903440 434.669231 128.202544 434.979487 127.502814 435.289744 126.804301 435.600000 126.107050 435.910256 125.411110 436.220513 124.716528 436.530769 124.023353 436.841026 123.331631 437.151282 122.641411 437.461538 121.952739 437.771795 121.265665 438.082051 120.580235 438.392308 119.896497 438.702564 119.214499 439.012821 118.534288 439.323077 117.855912 439.633333 117.179419 439.943590 116.504857 440.253846 115.832272 440.564103 115.161714 440.874359 114.493229 441.184615 113.826865 441.494872 113.162670 441.805128 112.500691 442.115385 111.840977 442.425641 111.183574 442.735897 110.528531 443.046154 109.875895 443.356410 109.225714 443.666667 108.578035 443.976923 107.932907 444.287179 107.290376 444.597436 106.650491 444.907692 106.013299 445.217949 105.378848 445.528205 104.747186 445.838462 104.118360 446.148718 103.492418 446.458974 102.869407 446.769231 102.249376 447.079487 101.632371 447.389744 101.018441 447.700000 100.407633 448.010256 99.799996 448.320513 99.195575 448.630769 98.594421 448.941026 97.996579 449.251282 97.402097 449.561538 96.811024 449.871795 96.223407 450.182051 95.639294 450.492308 95.058732 450.802564 94.481768 451.112821 93.908452 451.423077 93.338830 451.733333 92.772949 452.043590 92.210859 452.353846 91.652606 452.664103 91.098238 452.974359 90.547802 453.284615 90.001347 453.594872 89.458920 453.905128 88.920568 454.215385 88.386340 454.525641 87.856283 454.835897 87.330445 455.146154 86.808873 455.456410 86.291615 455.766667 85.778719 456.076923 85.270232 456.387179 84.766202 456.697436 84.266677 457.007692 83.771705 457.317949 83.281332 457.628205 82.795608 457.938462 82.314578 458.248718 81.838292 458.558974 81.366797 458.869231 80.900140 459.179487 80.438369 459.489744 79.981532 459.800000 79.529677 460.110256 79.082850 460.420513 78.641101 460.730769 78.204475 461.041026 77.773022 461.351282 77.346789 461.661538 76.925824 461.971795 76.510173 462.282051 76.099886 462.592308 75.695008 462.902564 75.295589 463.212821 74.901676 463.523077 74.513317 463.833333 74.130558 464.143590 73.753449 464.453846 73.382036 464.764103 73.016367 465.074359 72.656490 465.384615 72.302453 465.694872 71.954303 466.005128 71.612088 466.315385 71.275855 466.625641 70.945653 466.935897 70.621529 467.246154 70.303530 467.556410 69.991704 467.866667 69.686100 468.176923 69.386764 468.487179 69.093744 468.797436 68.807088 469.107692 68.526844 469.417949 68.253059 469.728205 67.985781 470.038462 67.725058 470.348718 67.470937 470.658974 67.223466 470.969231 66.982693 471.279487 66.748665 471.589744 66.521430 471.900000 66.301036 472.210256 66.087530 472.520513 65.880960 472.830769 65.681374 473.141026 65.488819 473.451282 65.303343 473.761538 65.124994 474.071795 64.953819 474.382051 64.789867 474.692308 64.633184 475.002564 64.483818 475.312821 64.341818 475.623077 64.207230 475.933333 64.080102 476.243590 63.960483 476.553846 63.848420 476.864103 63.743959 477.174359 63.647150 477.484615 63.558040 477.794872 63.476676 478.105128 63.403107 478.415385 63.337379 478.725641 63.279540 479.035897 63.229639 479.346154 63.187723 479.656410 63.153822 479.966667 63.127902 480.276923 63.109912 480.587179 63.099801 480.897436 63.097515 481.207692 63.103005 481.517949 63.116219 481.828205 63.137105 482.138462 63.165611 482.448718 63.201687 482.758974 63.245281 483.069231 63.296342 483.379487 63.354817 483.689744 63.420656 484.000000 63.493807 484.310256 63.574218 484.620513 63.661839 484.930769 63.756617 485.241026 63.858502 485.551282 63.967441 485.861538 64.083384 486.171795 64.206278 486.482051 64.336073 486.792308 64.472717 487.102564 64.616158 487.412821 64.766345 487.723077 64.923227 488.033333 65.086752 488.343590 65.256868 488.653846 65.433525 488.964103 65.616670 489.274359 65.806253 489.584615 66.002221 489.894872 66.204524 490.205128 66.413109 490.515385 66.627926 490.825641 66.848923 491.135897 67.076049 491.446154 67.309251 491.756410 67.548480 492.066667 67.793682 492.376923 68.044807 492.687179 68.301803 492.997436 68.564619 493.307692 68.833203 493.617949 69.107504 493.928205 69.387470 494.238462 69.673051 494.548718 69.964193 494.858974 70.260847 495.169231 70.562960 495.479487 70.870482 495.789744 71.183360 496.100000 71.501543 496.410256 71.824980 496.720513 72.153619 497.030769 72.487409 497.341026 72.826298 497.651282 73.170235 497.961538 73.519169 498.271795 73.873047 498.582051 74.231819 498.892308 74.595433 499.202564 74.963838 499.512821 75.336981 499.823077 75.714813 500.133333 76.097280 500.443590 76.484332 500.753846 76.875918 501.064103 77.271985 501.374359 77.672483 501.684615 78.077360 501.994872 78.486564 502.305128 78.900044 502.615385 79.317749 502.925641 79.739626 503.235897 80.165626 503.546154 80.595695 503.856410 81.029783 504.166667 81.467839 504.476923 81.909810 504.787179 82.355646 505.097436 82.805294 505.407692 83.258704 505.717949 83.715823 506.028205 84.176602 506.338462 84.640987 506.648718 85.108928 506.958974 85.580373 507.269231 86.055270 507.579487 86.533569 507.889744 87.015217 508.200000 87.500164 508.510256 87.988358 508.820513 88.479747 509.130769 88.974280 509.441026 89.471905 509.751282 89.972571 510.061538 90.476227 510.371795 90.982821 510.682051 91.492301 510.992308 92.004617 511.302564 92.519716 511.612821 93.037548 511.923077 93.558060 512.233333 94.081202 512.543590 94.606921 512.853846 95.135167 513.164103 95.665888 513.474359 96.199032 513.784615 96.734548 514.094872 97.272385 514.405128 97.812491 514.715385 98.354815 515.025641 98.899305 515.335897 99.445909 515.646154 99.994577 515.956410 100.545257 516.266667 101.097897 516.576923 101.652445 516.887179 102.208852 517.197436 102.767064 517.507692 103.327031 517.817949 103.888700 518.128205 104.452022 518.438462 105.016943 518.748718 105.583414 519.058974 106.151381 519.369231 106.720794 519.679487 107.291602 519.989744 107.863752 520.300000 108.437194 520.610256 109.011876 520.920513 109.587746 521.230769 110.164753 521.541026 110.742846 521.851282 111.321973 522.161538 111.902082 522.471795 112.483123 522.782051 113.065043 523.092308 113.647792 523.402564 114.231317 523.712821 114.815568 524.023077 115.400492 524.333333 115.986039 524.643590 116.572157 524.953846 117.158795 525.264103 117.745900 525.574359 118.333423 525.884615 118.921310 526.194872 119.509511 526.505128 120.097974 526.815385 120.686648 527.125641 121.275481 527.435897 121.864422 527.746154 122.453420 528.056410 123.042422 528.366667 123.631378 528.676923 124.220236 528.987179 124.808944 529.297436 125.397452 529.607692 125.985707 529.917949 126.573658 530.228205 127.161254 530.538462 127.748443 530.848718 128.335174 531.158974 128.921396 531.469231 129.507056 531.779487 130.092103 532.089744 130.676487 532.400000 131.260155 532.710256 131.843056 533.020513 132.425139 533.330769 133.006352 533.641026 133.586643 533.951282 134.165962 534.261538 134.744257 534.571795 135.321475 534.882051 135.897567 535.192308 136.472480 535.502564 137.046163 535.812821 137.618564 536.123077 138.189632 536.433333 138.759316 536.743590 139.327564 537.053846 139.894325 537.364103 140.459546 537.674359 141.023178 537.984615 141.585167 538.294872 142.145464 538.605128 142.704016 538.915385 143.260771 539.225641 143.815679 539.535897 144.368688 539.846154 144.919747 540.156410 145.468803 540.466667 146.015806 540.776923 146.560704 541.087179 147.103446 541.397436 147.643980 541.707692 148.182255 542.017949 148.718219 542.328205 149.251821 542.638462 149.783009 542.948718 150.311732 543.258974 150.837939 543.569231 151.361578 543.879487 151.882597 544.189744 152.400945 544.500000 152.916571 544.810256 153.429423 545.120513 153.939449 545.430769 154.446599 545.741026 154.950821 546.051282 155.452063 546.361538 155.950274 546.671795 156.445402 546.982051 156.937396 547.292308 157.426205 547.602564 157.911776 547.912821 158.394060 548.223077 158.873003 548.533333 159.348555 548.843590 159.820664 549.153846 160.289279 549.464103 160.754348 549.774359 161.215820 550.084615 161.673644 550.394872 162.127767 550.705128 162.578139 551.015385 163.024707 551.325641 163.467421 551.635897 163.906230 551.946154 164.341081 552.256410 164.771923 552.566667 165.198704 552.876923 165.621374 553.187179 166.039881 553.497436 166.454173 553.807692 166.864199 554.117949 167.269907 554.428205 167.671246 554.738462 168.068165 555.048718 168.460611 555.358974 168.848535 555.669231 169.231883 555.979487 169.610605 556.289744 169.984649 556.600000 170.353964 556.910256 170.718498 557.220513 171.078211 557.530769 171.433105 557.841026 171.783194 558.151282 172.128492 558.461538 172.469012 558.771795 172.804767 559.082051 173.135772 559.392308 173.462040 559.702564 173.783584 560.012821 174.100419 560.323077 174.412557 560.633333 174.720012 560.943590 175.022798 561.253846 175.320929 561.564103 175.614418 561.874359 175.903278 562.184615 176.187523 562.494872 176.467168 562.805128 176.742224 563.115385 177.012707 563.425641 177.278629 563.735897 177.540004 564.046154 177.796846 564.356410 178.049168 564.666667 178.296984 564.976923 178.540308 565.287179 178.779152 565.597436 179.013532 565.907692 179.243459 566.217949 179.468948 566.528205 179.690013 566.838462 179.906667 567.148718 180.118923 567.458974 180.326796 567.769231 180.530298 568.079487 180.729443 568.389744 180.924246 568.700000 181.114719 569.010256 181.300876 569.320513 181.482731 569.630769 181.660297 569.941026 181.833588 570.251282 182.002617 570.561538 182.167399 570.871795 182.327946 571.182051 182.484272 571.492308 182.636391 571.802564 182.784316 572.112821 182.928062 572.423077 183.067640 572.733333 183.203066 573.043590 183.334353 573.353846 183.461514 573.664103 183.584563 573.974359 183.703514 574.284615 183.818379 574.594872 183.929173 574.905128 184.035910 575.215385 184.138602 575.525641 184.237264 575.835897 184.331909 576.146154 184.422550 576.456410 184.509201 576.766667 184.591877 577.076923 184.670589 577.387179 184.745353 577.697436 184.816181 578.007692 184.883087 578.317949 184.946085 578.628205 185.005188 578.938462 185.060410 579.248718 185.111765 579.558974 185.159265 579.869231 185.202925 580.179487 185.242759 580.489744 185.278779 580.800000 185.310999 581.110256 185.339434 581.420513 185.364096 581.730769 185.384999 582.041026 185.402157 582.351282 185.415584 582.661538 185.425292 582.971795 185.431296 583.282051 185.433609 583.592308 185.432244 583.902564 185.427216 584.212821 185.418538 584.523077 185.406223 584.833333 185.390285 585.143590 185.370737 585.453846 185.347594 585.764103 185.320869 586.074359 185.290575 586.384615 185.256726 586.694872 185.219335 587.005128 185.178417 587.315385 185.133984 587.625641 185.086051 587.935897 185.034631 588.246154 184.979737 588.556410 184.921383 588.866667 184.859582 589.176923 184.794349 589.487179 184.725697 589.797436 184.653639 590.107692 184.578189 590.417949 184.499361 590.728205 184.417168 591.038462 184.331624 591.348718 184.242742 591.658974 184.150536 591.969231 184.055019 592.279487 183.956206 592.589744 183.854109 592.900000 183.748742 593.210256 183.640120 593.520513 183.528254 593.830769 183.413160 594.141026 183.294851 594.451282 183.173339 594.761538 183.048640 595.071795 182.920766 595.382051 182.789731 595.692308 182.655548 596.002564 182.518231 596.312821 182.377795 596.623077 182.234251 596.933333 182.087615 597.243590 181.937899 597.553846 181.785117 597.864103 181.629282 598.174359 181.470409 598.484615 181.308511 598.794872 181.143601 599.105128 180.975693 599.415385 180.804801 599.725641 180.630938 600.035897 180.454118 600.346154 180.274354 600.656410 180.091660 600.966667 179.906049 601.276923 179.717536 601.587179 179.526133 601.897436 179.331855 602.207692 179.134714 602.517949 178.934725 602.828205 178.731901 603.138462 178.526256 603.448718 178.317803 603.758974 178.106555 604.069231 177.892527 604.379487 177.675732 604.689744 177.456184 605.000000 177.233896 605.310256 177.008881 605.620513 176.781154 605.930769 176.550728 606.241026 176.317616 606.551282 176.081832 606.861538 175.843390 607.171795 175.602303 607.482051 175.358586 607.792308 175.112250 608.102564 174.863311 608.412821 174.611781 608.723077 174.357674 609.033333 174.101004 609.343590 173.841785 609.653846 173.580029 609.964103 173.315751 610.274359 173.048964 610.584615 172.779682 610.894872 172.507918 611.205128 172.233686 611.515385 171.957000 611.825641 171.677872 612.135897 171.396318 612.446154 171.112349 612.756410 170.825980 613.066667 170.537225 613.376923 170.246097 613.687179 169.952609 613.997436 169.656775 614.307692 169.358609 614.617949 169.058125 614.928205 168.755335 615.238462 168.450254 615.548718 168.142895 615.858974 167.833272 616.169231 167.521398 616.479487 167.207287 616.789744 166.890952 617.100000 166.572407 617.410256 166.251666 617.720513 165.928743 618.030769 165.603649 618.341026 165.276401 618.651282 164.947010 618.961538 164.615491 619.271795 164.281857 619.582051 163.946122 619.892308 163.608299 620.202564 163.268402 620.512821 162.926444 620.823077 162.582440 621.133333 162.236402 621.443590 161.888344 621.753846 161.538280 622.064103 161.186224 622.374359 160.832189 622.684615 160.476188 622.994872 160.118235 623.305128 159.758345 623.615385 159.396529 623.925641 159.032803 624.235897 158.667179 624.546154 158.299671 624.856410 157.930293 625.166667 157.559058 625.476923 157.185980 625.787179 156.811072 626.097436 156.434349 626.407692 156.055823 626.717949 155.675508 627.028205 155.293418 627.338462 154.909567 627.648718 154.523967 627.958974 154.136634 628.269231 153.747579 628.579487 153.356817 628.889744 152.964361 629.200000 152.570225 629.510256 152.174423 629.820513 151.776968 630.130769 151.377873 630.441026 150.977153 630.751282 150.574821 631.061538 150.170890 631.371795 149.765374 631.682051 149.358287 631.992308 148.949642 632.302564 148.539452 632.612821 148.127732 632.923077 147.714495 633.233333 147.299755 633.543590 146.883524 633.853846 146.465818 634.164103 146.046648 634.474359 145.626030 634.784615 145.203975 635.094872 144.780489 635.405128 144.355580 635.715385 143.929253 636.025641 143.501513 636.335897 143.072366 636.646154 142.641818 636.956410 142.209875 637.266667 141.776542 637.576923 141.341826 637.887179 140.905731 638.197436 140.468264 638.507692 140.029430 638.817949 139.589236 639.128205 139.147686 639.438462 138.704787 639.748718 138.260544 640.058974 137.814963 640.369231 137.368050 640.679487 136.919811 640.989744 136.470251 641.300000 136.019376 641.610256 135.567192 641.920513 135.113704 642.230769 134.658919 642.541026 134.202842 642.851282 133.745478 643.161538 133.286834 643.471795 132.826916 643.782051 132.365728 644.092308 131.903277 644.402564 131.439568 644.712821 130.974608 645.023077 130.508402 645.333333 130.040955 645.643590 129.572274 645.953846 129.102364 646.264103 128.631231 646.574359 128.158881 646.884615 127.685319 647.194872 127.210551 647.505128 126.734583 647.815385 126.257421 648.125641 125.779070 648.435897 125.299536 648.746154 124.818825 649.056410 124.336943 649.366667 123.853895 649.676923 123.369687 649.987179 122.884325 650.297436 122.397815 650.607692 121.910162 650.917949 121.421372 651.228205 120.931450 651.538462 120.440404 651.848718 119.948237 652.158974 119.454957 652.469231 118.960568 652.779487 118.465077 653.089744 117.968489 653.400000 117.470811 653.710256 116.972047 654.020513 116.472203 654.330769 115.971286 654.641026 115.469300 654.951282 114.966253 655.261538 114.462148 655.571795 113.956993 655.882051 113.450793 656.192308 112.943554 656.502564 112.435281 656.812821 111.925980 657.123077 111.415657 657.433333 110.904318 657.743590 110.391968 658.053846 109.878613 658.364103 109.364259 658.674359 108.848912 658.984615 108.332577 659.294872 107.815260 659.605128 107.296967 659.915385 106.777704 660.225641 106.257476 660.535897 105.736289 660.846154 105.214149 661.156410 104.691061 661.466667 104.167032 661.776923 103.642067 662.087179 103.116171 662.397436 102.589351 662.707692 102.061612 663.017949 101.532961 663.328205 101.003402 663.638462 100.472941 663.948718 99.941585 664.258974 99.409339 664.569231 98.876208 664.879487 98.342199 665.189744 97.807317 665.500000 97.271568 665.810256 96.734958 666.120513 96.197492 666.430769 95.659176 666.741026 95.120017 667.051282 94.580019 667.361538 94.039188 667.671795 93.497530 667.982051 92.955052 668.292308 92.411758 668.602564 91.867654 668.912821 91.322746 669.223077 90.777040 669.533333 90.230542 669.843590 89.683257 670.153846 89.135192 670.464103 88.586351 670.774359 88.036740 671.084615 87.486366 671.394872 86.935234 671.705128 86.383350 672.015385 85.830719 672.325641 85.277348 672.635897 84.723241 672.946154 84.168405 673.256410 83.612846 673.566667 83.056569 673.876923 82.499580 674.187179 81.941885 674.497436 81.383489 674.807692 80.824399 675.117949 80.264619 675.428205 79.704156 675.738462 79.143015 676.048718 78.581203 676.358974 78.018725 676.669231 77.455586 676.979487 76.891792 677.289744 76.327350 677.600000 75.762265 677.910256 75.196542 678.220513 74.630188 678.530769 74.063207 678.841026 73.495607 679.151282 72.927392 679.461538 72.358569 679.771795 71.789142 680.082051 71.219119 680.392308 70.648504 680.702564 70.077303 681.012821 69.505522 681.323077 68.933167 681.633333 68.360244 681.943590 67.786758 682.253846 67.212715 682.564103 66.638121 682.874359 66.062981 683.184615 65.487301 683.494872 64.911088 683.805128 64.334346 684.115385 63.757082 684.425641 63.179300 684.735897 62.601008 685.046154 62.022211 685.356410 61.442914 685.666667 60.863123 685.976923 60.282844 686.287179 59.702082 686.597436 59.120845 686.907692 58.539136 687.217949 57.956962 687.528205 57.374329 687.838462 56.791242 688.148718 56.207707 688.458974 55.623730 688.769231 55.039317 689.079487 54.454473 689.389744 53.869204 689.700000 53.283516 690.010256 52.697415 690.320513 52.110905 690.630769 51.523994 690.941026 50.936687 691.251282 50.348989 691.561538 49.760907 691.871795 49.172445 692.182051 48.583611 692.492308 47.994408 692.802564 47.404844 693.112821 46.814924 693.423077 46.224654 693.733333 45.634039 694.043590 45.043086 694.353846 44.451799 694.664103 43.860185 694.974359 43.268250 695.284615 42.675999 695.594872 42.083437 695.905128 41.490572 696.215385 40.897407 696.525641 40.303950 696.835897 39.710206 697.146154 39.116181 697.456410 38.521879 697.766667 37.927308 698.076923 37.332473 698.387179 36.737380 698.697436 36.142033 699.007692 35.546440 699.317949 34.950606 699.628205 34.354536 699.938462 33.758237 700.248718 33.161713 700.558974 32.564972 700.869231 31.968018 701.179487 31.370857 701.489744 30.773495 701.800000 30.175938 702.110256 29.578192 702.420513 28.980261 702.730769 28.382153 703.041026 27.783873 703.351282 27.185426 703.661538 26.586818 703.971795 25.988055 704.282051 25.389143 704.592308 24.790087 704.902564 24.190894 705.212821 23.591568 705.523077 22.992117 705.833333 22.392544 706.143590 21.792857 706.453846 21.193060 706.764103 20.593161 707.074359 19.993163 707.384615 19.393074 707.694872 18.792899 708.005128 18.192643 708.315385 17.592313 708.625641 16.991913 708.935897 16.391451 709.246154 15.790931 709.556410 15.190359 709.866667 14.589742 710.176923 13.989084 710.487179 13.388392 710.797436 12.787671 711.107692 12.186927 711.417949 11.586166 711.728205 10.985394 712.038462 10.384615 712.038462 540.000000" /></g></g><g class="titles" /><g class="plot overlay" transform="translate(54, 20)"><g class="series serie-0 color-0"><g class="dots"><circle class="dot reactive tooltip-trigger" cx="13.96153846153846" cy="529.6153846153846" r="2.5" /><desc class="value">493,692,842(kWh)</desc><desc class="x top">13.96153846153846</desc><desc class="y top">529.6153846153846</desc><desc class="x_label">2549</desc></g><g class="dots"><circle class="dot reactive tooltip-trigger" cx="91.52564102564101" cy="497.89565454796985" r="2.5" /><desc class="value">516,699,291(kWh)</desc><desc class="x top">91.52564102564101</desc><desc class="y top">497.89565454796985</desc><desc class="x_label">2550</desc></g><g class="dots"><circle class="dot reactive tooltip-trigger" cx="169.08974358974356" cy="448.85077949239667" r="2.5" /><desc class="value">552,271,738(kWh)</desc><desc class="x top">169.08974358974356</desc><desc class="y top">448.85077949239667</desc><desc class="x_label">2551</desc></g><g class="dots"><circle class="dot reactive tooltip-trigger" cx="246.65384615384613" cy="387.07452113255783" r="2.5" /><desc class="value">597,078,309(kWh)</desc><desc class="x top">246.65384615384613</desc><desc class="y top">387.07452113255783</desc><desc class="x_label">2552</desc></g><g class="dots"><circle class="dot reactive tooltip-trigger" cx="324.21794871794873" cy="279.2029975676684" r="2.5" /><desc class="value">675,317,963(kWh)</desc><desc class="x top">324.21794871794873</desc><desc class="y top">279.2029975676684</desc><desc class="x_label">2553</desc></g><g class="dots"><circle class="dot reactive tooltip-trigger" cx="401.78205128205127" cy="199.5336917044143" r="2.5" /><desc class="value">733,102,434(kWh)</desc><desc class="x left">401.78205128205127</desc><desc class="y left">199.5336917044143</desc><desc class="x_label">2554</desc></g><g class="dots"><circle class="dot reactive tooltip-trigger" cx="479.3461538461538" cy="63.18772253942717" r="2.5" /><desc class="value">831,994,719(kWh)</desc><desc class="x left">479.3461538461538</desc><desc class="y left">63.18772253942717</desc><desc class="x_label">2555</desc></g><g class="dots"><circle class="dot reactive tooltip-trigger" cx="556.9102564102565" cy="170.71849797724838" r="2.5" /><desc class="value">754,002,211(kWh)</desc><desc class="x left">556.9102564102565</desc><desc class="y left">170.71849797724838</desc><desc class="x_label">2556</desc></g><g class="dots"><circle class="dot reactive tooltip-trigger" cx="634.474358974359" cy="145.6260298611868" r="2.5" /><desc class="value">772,201,880(kWh)</desc><desc class="x left">634.474358974359</desc><desc class="y left">145.6260298611868</desc><desc class="x_label">2557</desc></g><g class="dots"><circle class="dot reactive tooltip-trigger" cx="712.0384615384615" cy="10.384615384615472" r="2.5" /><desc class="value">870,293,027(kWh)</desc><desc class="x left">712.0384615384615</desc><desc class="y left">10.384615384615472</desc><desc class="x_label">2558</desc></g></g></g><g class="plot text-overlay" transform="translate(54, 20)"><g class="series serie-0 color-0" /></g><g class="plot tooltip-overlay" transform="translate(54, 20)"><g class="tooltip" style="opacity: 0" transform="translate(0 0)"><rect class="tooltip-box" height="0" rx="0" ry="0" width="0" /><g class="text" /></g></g></g></svg>