<?xml version='1.0' encoding='utf-8'?>
<svg xmlns:xlink="http://www.w3.org/1999/xlink" class="pygal-chart" id="chart-9a63155c-2f6a-4051-bc31-ea13651b35d3" viewBox="0 0 800 600" xmlns="http://www.w3.org/2000/svg"><!--Generated with pygal 2.3.0 (etree) ©Kozea 2012-2016 on 2016-12-08--><!--http://pygal.org--><!--http://github.com/Kozea/pygal--><defs><style type="text/css">#chart-9a63155c-2f6a-4051-bc31-ea13651b35d3{-webkit-user-select:none;-webkit-font-smoothing:antialiased;font-family:Consolas,"Liberation Mono",Menlo,Courier,monospace}#chart-9a63155c-2f6a-4051-bc31-ea13651b35d3 .title{font-family:Consolas,"Liberation Mono",Menlo,Courier,monospace;font-size:16px}#chart-9a63155c-2f6a-4051-bc31-ea13651b35d3 .legends .legend text{font-family:Consolas,"Liberation Mono",Menlo,Courier,monospace;font-size:14px}#chart-9a63155c-2f6a-4051-bc31-ea13651b35d3 .axis text{font-family:Consolas,"Liberation Mono",Menlo,Courier,monospace;font-size:10px}#chart-9a63155c-2f6a-4051-bc31-ea13651b35d3 .axis text.major{font-family:Consolas,"Liberation Mono",Menlo,Courier,monospace;font-size:10px}#chart-9a63155c-2f6a-4051-bc31-ea13651b35d3 .text-overlay text.value{font-family:Consolas,"Liberation Mono",Menlo,Courier,monospace;font-size:16px}#chart-9a63155c-2f6a-4051-bc31-ea13651b35d3 .text-overlay text.label{font-family:Consolas,"Liberation Mono",Menlo,Courier,monospace;font-size:10px}#chart-9a63155c-2f6a-4051-bc31-ea13651b35d3 .tooltip{font-family:Consolas,"Liberation Mono",Menlo,Courier,monospace;font-size:14px}#chart-9a63155c-2f6a-4051-bc31-ea13651b35d3 text.no_data{font-family:Consolas,"Liberation Mono",Menlo,Courier,monospace;font-size:64px}
#chart-9a63155c-2f6a-4051-bc31-ea13651b35d3{background-color:rgba(249,249,249,1)}#chart-9a63155c-2f6a-4051-bc31-ea13651b35d3 path,#chart-9a63155c-2f6a-4051-bc31-ea13651b35d3 line,#chart-9a63155c-2f6a-4051-bc31-ea13651b35d3 rect,#chart-9a63155c-2f6a-4051-bc31-ea13651b35d3 circle{-webkit-transition:150ms;-moz-transition:150ms;transition:150ms}#chart-9a63155c-2f6a-4051-bc31-ea13651b35d3 .graph &gt; .background{fill:rgba(249,249,249,1)}#chart-9a63155c-2f6a-4051-bc31-ea13651b35d3 .plot &gt; .background{fill:rgba(255,255,255,1)}#chart-9a63155c-2f6a-4051-bc31-ea13651b35d3 .graph{fill:rgba(0,0,0,.87)}#chart-9a63155c-2f6a-4051-bc31-ea13651b35d3 text.no_data{fill:rgba(0,0,0,1)}#chart-9a63155c-2f6a-4051-bc31-ea13651b35d3 .title{fill:rgba(0,0,0,1)}#chart-9a63155c-2f6a-4051-bc31-ea13651b35d3 .legends .legend text{fill:rgba(0,0,0,.87)}#chart-9a63155c-2f6a-4051-bc31-ea13651b35d3 .legends .legend:hover text{fill:rgba(0,0,0,1)}#chart-9a63155c-2f6a-4051-bc31-ea13651b35d3 .axis .line{stroke:rgba(0,0,0,1)}#chart-9a63155c-2f6a-4051-bc31-ea13651b35d3 .axis .guide.line{stroke:rgba(0,0,0,.54)}#chart-9a63155c-2f6a-4051-bc31-ea13651b35d3 .axis .major.line{stroke:rgba(0,0,0,.87)}#chart-9a63155c-2f6a-4051-bc31-ea13651b35d3 .axis text.major{fill:rgba(0,0,0,1)}#chart-9a63155c-2f6a-4051-bc31-ea13651b35d3 .axis.y .guides:hover .guide.line,#chart-9a63155c-2f6a-4051-bc31-ea13651b35d3 .line-graph .axis.x .guides:hover .guide.line,#chart-9a63155c-2f6a-4051-bc31-ea13651b35d3 .stackedline-graph .axis.x .guides:hover .guide.line,#chart-9a63155c-2f6a-4051-bc31-ea13651b35d3 .xy-graph .axis.x .guides:hover .guide.line{stroke:rgba(0,0,0,1)}#chart-9a63155c-2f6a-4051-bc31-ea13651b35d3 .axis .guides:hover text{fill:rgba(0,0,0,1)}#chart-9a63155c-2f6a-4051-bc31-ea13651b35d3 .reactive{fill-opacity:.7;stroke-opacity:.8}#chart-9a63155c-2f6a-4051-bc31-ea13651b35d3 .ci{stroke:rgba(0,0,0,.87)}#chart-9a63155c-2f6a-4051-bc31-ea13651b35d3 .reactive.active,#chart-9a63155c-2f6a-4051-bc31-ea13651b35d3 .active .reactive{fill-opacity:.8;stroke-opacity:.9;stroke-width:4}#chart-9a63155c-2f6a-4051-bc31-ea13651b35d3 .ci .reactive.active{stroke-width:1.5}#chart-9a63155c-2f6a-4051-bc31-ea13651b35d3 .series text{fill:rgba(0,0,0,1)}#chart-9a63155c-2f6a-4051-bc31-ea13651b35d3 .tooltip rect{fill:rgba(255,255,255,1);stroke:rgba(0,0,0,1);-webkit-transition:opacity 150ms;-moz-transition:opacity 150ms;transition:opacity 150ms}#chart-9a63155c-2f6a-4051-bc31-ea13651b35d3 .tooltip .label{fill:rgba(0,0,0,.87)}#chart-9a63155c-2f6a-4051-bc31-ea13651b35d3 .tooltip .label{fill:rgba(0,0,0,.87)}#chart-9a63155c-2f6a-4051-bc31-ea13651b35d3 .tooltip .legend{font-size:.8em;fill:rgba(0,0,0,.54)}#chart-9a63155c-2f6a-4051-bc31-ea13651b35d3 .tooltip .x_label{font-size:.6em;fill:rgba(0,0,0,1)}#chart-9a63155c-2f6a-4051-bc31-ea13651b35d3 .tooltip .xlink{font-size:.5em;text-decoration:underline}#chart-9a63155c-2f6a-4051-bc31-ea13651b35d3 .tooltip .value{font-size:1.5em}#chart-9a63155c-2f6a-4051-bc31-ea13651b35d3 .bound{font-size:.5em}#chart-9a63155c-2f6a-4051-bc31-ea13651b35d3 .max-value{font-size:.75em;fill:rgba(0,0,0,.54)}#chart-9a63155c-2f6a-4051-bc31-ea13651b35d3 .map-element{fill:rgba(255,255,255,1);stroke:rgba(0,0,0,.54) !important}#chart-9a63155c-2f6a-4051-bc31-ea13651b35d3 .map-element .reactive{fill-opacity:inherit;stroke-opacity:inherit}#chart-9a63155c-2f6a-4051-bc31-ea13651b35d3 .color-0,#chart-9a63155c-2f6a-4051-bc31-ea13651b35d3 .color-0 a:visited{stroke:#e86fa0;fill:#e86fa0}#chart-9a63155c-2f6a-4051-bc31-ea13651b35d3 .text-overlay .color-0 text{fill:black}
#chart-9a63155c-2f6a-4051-bc31-ea13651b35d3 text.no_data{text-anchor:middle}#chart-9a63155c-2f6a-4051-bc31-ea13651b35d3 .guide.line{fill:none}#chart-9a63155c-2f6a-4051-bc31-ea13651b35d3 .centered{text-anchor:middle}#chart-9a63155c-2f6a-4051-bc31-ea13651b35d3 .title{text-anchor:middle}#chart-9a63155c-2f6a-4051-bc31-ea13651b35d3 .legends .legend text{fill-opacity:1}#chart-9a63155c-2f6a-4051-bc31-ea13651b35d3 .axis.x text{text-anchor:middle}#chart-9a63155c-2f6a-4051-bc31-ea13651b35d3 .axis.x:not(.web) text[transform]{text-anchor:start}#chart-9a63155c-2f6a-4051-bc31-ea13651b35d3 .axis.x:not(.web) text[transform].backwards{text-anchor:end}#chart-9a63155c-2f6a-4051-bc31-ea13651b35d3 .axis.y text{text-anchor:end}#chart-9a63155c-2f6a-4051-bc31-ea13651b35d3 .axis.y text[transform].backwards{text-anchor:start}#chart-9a63155c-2f6a-4051-bc31-ea13651b35d3 .axis.y2 text{text-anchor:start}#chart-9a63155c-2f6a-4051-bc31-ea13651b35d3 .axis.y2 text[transform].backwards{text-anchor:end}#chart-9a63155c-2f6a-4051-bc31-ea13651b35d3 .axis .guide.line{stroke-dasharray:4,4}#chart-9a63155c-2f6a-4051-bc31-ea13651b35d3 .axis .major.guide.line{stroke-dasharray:6,6}#chart-9a63155c-2f6a-4051-bc31-ea13651b35d3 .horizontal .axis.y .guide.line,#chart-9a63155c-2f6a-4051-bc31-ea13651b35d3 .horizontal .axis.y2 .guide.line,#chart-9a63155c-2f6a-4051-bc31-ea13651b35d3 .vertical .axis.x .guide.line{opacity:0}#chart-9a63155c-2f6a-4051-bc31-ea13651b35d3 .horizontal .axis.always_show .guide.line,#chart-9a63155c-2f6a-4051-bc31-ea13651b35d3 .vertical .axis.always_show .guide.line{opacity:1 !important}#chart-9a63155c-2f6a-4051-bc31-ea13651b35d3 .axis.y .guides:hover .guide.line,#chart-9a63155c-2f6a-4051-bc31-ea13651b35d3 .axis.y2 .guides:hover .guide.line,#chart-9a63155c-2f6a-4051-bc31-ea13651b35d3 .axis.x .guides:hover .guide.line{opacity:1}#chart-9a63155c-2f6a-4051-bc31-ea13651b35d3 .axis .guides:hover text{opacity:1}#chart-9a63155c-2f6a-4051-bc31-ea13651b35d3 .nofill{fill:none}#chart-9a63155c-2f6a-4051-bc31-ea13651b35d3 .subtle-fill{fill-opacity:.2}#chart-9a63155c-2f6a-4051-bc31-ea13651b35d3 .dot{stroke-width:1px;fill-opacity:1}#chart-9a63155c-2f6a-4051-bc31-ea13651b35d3 .dot.active{stroke-width:5px}#chart-9a63155c-2f6a-4051-bc31-ea13651b35d3 .dot.negative{fill:transparent}#chart-9a63155c-2f6a-4051-bc31-ea13651b35d3 text,#chart-9a63155c-2f6a-4051-bc31-ea13651b35d3 tspan{stroke:none !important}#chart-9a63155c-2f6a-4051-bc31-ea13651b35d3 .series text.active{opacity:1}#chart-9a63155c-2f6a-4051-bc31-ea13651b35d3 .tooltip rect{fill-opacity:.95;stroke-width:.5}#chart-9a63155c-2f6a-4051-bc31-ea13651b35d3 .tooltip text{fill-opacity:1}#chart-9a63155c-2f6a-4051-bc31-ea13651b35d3 .showable{visibility:hidden}#chart-9a63155c-2f6a-4051-bc31-ea13651b35d3 .showable.shown{visibility:visible}#chart-9a63155c-2f6a-4051-bc31-ea13651b35d3 .gauge-background{fill:rgba(229,229,229,1);stroke:none}#chart-9a63155c-2f6a-4051-bc31-ea13651b35d3 .bg-lines{stroke:rgba(249,249,249,1);stroke-width:2px}</style><script type="text/javascript">window.pygal = window.pygal || {};window.pygal.config = window.pygal.config || {};window.pygal.config['9a63155c-2f6a-4051-bc31-ea13651b35d3'] = {"no_data_text": "No data", "no_prefix": false, "xrange": null, "print_values_position": "center", "truncate_label": null, "x_labels": ["2549", "2550", "2551", "2552", "2553", "2554", "2555", "2556", "2557", "2558"], "title": null, "force_uri_protocol": "https", "defs": [], "formatter": null, "classes": ["pygal-chart"], "y_labels": null, "rounded_bars": null, "explicit_size": false, "x_labels_major_every": null, "legend_at_bottom_columns": null, "stroke_style": null, "half_pie": false, "spacing": 10, "tooltip_fancy_mode": true, "inverse_y_axis": false, "width": 800, "inner_radius": 0, "interpolation_parameters": {}, "tooltip_border_radius": 0, "style": {"no_data_font_family": "Consolas, \"Liberation Mono\", Menlo, Courier, monospace", "tooltip_font_size": 14, "tooltip_font_family": "Consolas, \"Liberation Mono\", Menlo, Courier, monospace", "stroke_opacity_hover": ".9", "legend_font_family": "Consolas, \"Liberation Mono\", Menlo, Courier, monospace", "font_family": "Consolas, \"Liberation Mono\", Menlo, Courier, monospace", "title_font_family": "Consolas, \"Liberation Mono\", Menlo, Courier, monospace", "background": "rgba(249, 249, 249, 1)", "stroke_opacity": ".8", "foreground": "rgba(0, 0, 0, .87)", "value_background": "rgba(229, 229, 229, 1)", "guide_stroke_dasharray": "4,4", "foreground_subtle": "rgba(0, 0, 0, .54)", "opacity_hover": ".8", "value_font_family": "Consolas, \"Liberation Mono\", Menlo, Courier, monospace", "value_label_font_size": 10, "plot_background": "rgba(255, 255, 255, 1)", "ci_colors": [], "label_font_size": 10, "major_label_font_size": 10, "title_font_size": 16, "no_data_font_size": 64, "value_font_size": 16, "value_colors": [], "label_font_family": "Consolas, \"Liberation Mono\", Menlo, Courier, monospace", "major_guide_stroke_dasharray": "6,6", "transition": "150ms", "foreground_strong": "rgba(0, 0, 0, 1)", "colors": ["#e86fa0", "#e88f6f", "#e8df6f", "#a0e86f", "#6fe88f", "#6fe8df", "#6fa0e8", "#8f6fe8", "#df6fe8", "#e86fa0"], "opacity": ".7", "legend_font_size": 14, "value_label_font_family": "Consolas, \"Liberation Mono\", Menlo, Courier, monospace", "major_label_font_family": "Consolas, \"Liberation Mono\", Menlo, Courier, monospace"}, "x_labels_major_count": null, "interpolation_precision": 250, "missing_value_fill_truncation": "x", "stack_from_top": false, "truncate_legend": null, "show_minor_x_labels": true, "print_zeroes": true, "css": ["file://style.css", "file://graph.css"], "y_label_rotation": 0, "legend_at_bottom": false, "print_values": false, "margin_top": null, "max_scale": 16, "allow_interruptions": false, "show_x_labels": true, "strict": false, "show_x_guides": false, "stroke": true, "margin_left": null, "dynamic_print_values": false, "print_labels": false, "show_y_labels": true, "x_labels_major": null, "range": null, "x_label_rotation": 0, "margin": 20, "zero": 0, "include_x_axis": false, "height": 600, "show_minor_y_labels": true, "show_dots": true, "interpolate": "cubic", "show_y_guides": true, "y_labels_major": null, "box_mode": "extremes", "margin_bottom": null, "order_min": null, "legend_box_size": 12, "fill": true, "show_only_major_dots": false, "js": ["//kozea.github.io/pygal.js/2.0.x/pygal-tooltips.min.js"], "x_title": null, "y_labels_major_every": null, "y_labels_major_count": null, "disable_xml_declaration": false, "y_title": null, "logarithmic": false, "pretty_print": false, "min_scale": 4, "dots_size": 2.5, "margin_right": null, "legends": [null], "secondary_range": null, "show_legend": false}</script><script type="text/javascript" xlink:href="https://kozea.github.io/pygal.js/2.0.x/pygal-tooltips.min.js" /></defs><title>Pygal</title><g class="graph stackedline-graph vertical"><rect class="background" height="600" width="800" x="0" y="0" /><g class="plot" transform="translate(54, 20)"><rect class="background" height="540" width="726.0" x="0" y="0" /><g class="axis y"><path class="line" d="M0.000000 540.000000 h726.000000" /><g class="guides"><path class="guide line" d="M0.000000 500.631276 h726.000000" /><text class="" x="-5" y="504.1312758043578">240M</text><title>240M</title></g><g class="guides"><path class="guide line" d="M0.000000 453.719210 h726.000000" /><text class="" x="-5" y="457.21920952200884">260M</text><title>260M</title></g><g class="guides"><path class="guide line" d="M0.000000 406.807143 h726.000000" /><text class="" x="-5" y="410.3071432396599">280M</text><title>280M</title></g><g class="guides"><path class="major guide line" d="M0.000000 359.895077 h726.000000" /><text class="major" x="-5" y="363.39507695731095">300M</text><title>300M</title></g><g class="guides"><path class="guide line" d="M0.000000 312.983011 h726.000000" /><text class="" x="-5" y="316.483010674962">320M</text><title>320M</title></g><g class="guides"><path class="guide line" d="M0.000000 266.070944 h726.000000" /><text class="" x="-5" y="269.570944392613">340M</text><title>340M</title></g><g class="guides"><path class="guide line" d="M0.000000 219.158878 h726.000000" /><text class="" x="-5" y="222.65887811026403">360M</text><title>360M</title></g><g class="guides"><path class="guide line" d="M0.000000 172.246812 h726.000000" /><text class="" x="-5" y="175.7468118279151">380M</text><title>380M</title></g><g class="guides"><path class="major guide line" d="M0.000000 125.334746 h726.000000" /><text class="major" x="-5" y="128.83474554556614">400M</text><title>400M</title></g><g class="guides"><path class="guide line" d="M0.000000 78.422679 h726.000000" /><text class="" x="-5" y="81.92267926321716">420M</text><title>420M</title></g><g class="guides"><path class="guide line" d="M0.000000 31.510613 h726.000000" /><text class="" x="-5" y="35.01061298086819">440M</text><title>440M</title></g></g><g class="axis x"><g class="guides"><path class="line" d="M13.961538 0.000000 v540.000000" /><text class="" x="13.96153846153846" y="555.0">2549</text></g><g class="guides"><path class="guide line" d="M91.525641 0.000000 v540.000000" /><text class="" x="91.52564102564101" y="555.0">2550</text></g><g class="guides"><path class="guide line" d="M169.089744 0.000000 v540.000000" /><text class="" x="169.08974358974356" y="555.0">2551</text></g><g class="guides"><path class="guide line" d="M246.653846 0.000000 v540.000000" /><text class="" x="246.65384615384613" y="555.0">2552</text></g><g class="guides"><path class="guide line" d="M324.217949 0.000000 v540.000000" /><text class="" x="324.21794871794873" y="555.0">2553</text></g><g class="guides"><path class="guide line" d="M401.782051 0.000000 v540.000000" /><text class="" x="401.78205128205127" y="555.0">2554</text></g><g class="guides"><path class="guide line" d="M479.346154 0.000000 v540.000000" /><text class="" x="479.3461538461538" y="555.0">2555</text></g><g class="guides"><path class="guide line" d="M556.910256 0.000000 v540.000000" /><text class="" x="556.9102564102565" y="555.0">2556</text></g><g class="guides"><path class="guide line" d="M634.474359 0.000000 v540.000000" /><text class="" x="634.474358974359" y="555.0">2557</text></g><g class="guides"><path class="guide line" d="M712.038462 0.000000 v540.000000" /><text class="" x="712.0384615384615" y="555.0">2558</text></g></g><g class="series serie-0 color-0"><path class="line reactive" d="M13.961538 540.000000 L13.961538 529.615385 14.271795 529.250347 14.582051 528.885312 14.892308 528.520285 15.202564 528.155270 15.512821 527.790269 15.823077 527.425286 16.133333 527.060326 16.443590 526.695391 16.753846 526.330487 17.064103 525.965615 17.374359 525.600780 17.684615 525.235986 17.994872 524.871237 18.305128 524.506535 18.615385 524.141885 18.925641 523.777291 19.235897 523.412756 19.546154 523.048284 19.856410 522.683878 20.166667 522.319543 20.476923 521.955281 20.787179 521.591097 21.097436 521.226995 21.407692 520.862977 21.717949 520.499048 22.028205 520.135212 22.338462 519.771472 22.648718 519.407831 22.958974 519.044294 23.269231 518.680865 23.579487 518.317546 23.889744 517.954342 24.200000 517.591256 24.510256 517.228292 24.820513 516.865454 25.130769 516.502745 25.441026 516.140170 25.751282 515.777731 26.061538 515.415433 26.371795 515.053279 26.682051 514.691273 26.992308 514.329418 27.302564 513.967719 27.612821 513.606178 27.923077 513.244801 28.233333 512.883589 28.543590 512.522548 28.853846 512.161681 29.164103 511.800991 29.474359 511.440482 29.784615 511.080158 30.094872 510.720023 30.405128 510.360079 30.715385 510.000332 31.025641 509.640785 31.335897 509.281441 31.646154 508.922303 31.956410 508.563377 32.266667 508.204665 32.576923 507.846171 32.887179 507.487899 33.197436 507.129853 33.507692 506.772036 33.817949 506.414452 34.128205 506.057104 34.438462 505.699997 34.748718 505.343133 35.058974 504.986518 35.369231 504.630154 35.679487 504.274045 35.989744 503.918194 36.300000 503.562607 36.610256 503.207285 36.920513 502.852234 37.230769 502.497455 37.541026 502.142955 37.851282 501.788735 38.161538 501.434800 38.471795 501.081153 38.782051 500.727799 39.092308 500.374740 39.402564 500.021981 39.712821 499.669525 40.023077 499.317375 40.333333 498.965537 40.643590 498.614012 40.953846 498.262806 41.264103 497.911921 41.574359 497.561362 41.884615 497.211131 42.194872 496.861234 42.505128 496.511672 42.815385 496.162451 43.125641 495.813574 43.435897 495.465045 43.746154 495.116866 44.056410 494.769043 44.366667 494.421578 44.676923 494.074476 44.987179 493.727739 45.297436 493.381372 45.607692 493.035379 45.917949 492.689763 46.228205 492.344528 46.538462 491.999677 46.848718 491.655214 47.158974 491.311144 47.469231 490.967469 47.779487 490.624193 48.089744 490.281320 48.400000 489.938854 48.710256 489.596798 49.020513 489.255157 49.330769 488.913933 49.641026 488.573131 49.951282 488.232753 50.261538 487.892805 50.571795 487.553290 50.882051 487.214210 51.192308 486.875571 51.502564 486.537375 51.812821 486.199627 52.123077 485.862330 52.433333 485.525487 52.743590 485.189103 53.053846 484.853181 53.364103 484.517725 53.674359 484.182739 53.984615 483.848225 54.294872 483.514189 54.605128 483.180633 54.915385 482.847562 55.225641 482.514979 55.535897 482.182887 55.846154 481.851291 56.156410 481.520194 56.466667 481.189600 56.776923 480.859513 57.087179 480.529935 57.397436 480.200872 57.707692 479.872326 58.017949 479.544302 58.328205 479.216802 58.638462 478.889831 58.948718 478.563393 59.258974 478.237491 59.569231 477.912128 59.879487 477.587309 60.189744 477.263038 60.500000 476.939317 60.810256 476.616151 61.120513 476.293543 61.430769 475.971497 61.741026 475.650016 62.051282 475.329105 62.361538 475.008768 62.671795 474.689006 62.982051 474.369826 63.292308 474.051229 63.602564 473.733221 63.912821 473.415804 64.223077 473.098982 64.533333 472.782759 64.843590 472.467139 65.153846 472.152125 65.464103 471.837722 65.774359 471.523932 66.084615 471.210759 66.394872 470.898208 66.705128 470.586281 67.015385 470.274983 67.325641 469.964318 67.635897 469.654288 67.946154 469.344898 68.256410 469.036151 68.566667 468.728051 68.876923 468.420602 69.187179 468.113807 69.497436 467.807671 69.807692 467.502196 70.117949 467.197386 70.428205 466.893246 70.738462 466.589779 71.048718 466.286989 71.358974 465.984878 71.669231 465.683452 71.979487 465.382714 72.289744 465.082666 72.600000 464.783314 72.910256 464.484661 73.220513 464.186710 73.530769 463.889466 73.841026 463.592931 74.151282 463.297110 74.461538 463.002006 74.771795 462.707623 75.082051 462.413965 75.392308 462.121035 75.702564 461.828837 76.012821 461.537375 76.323077 461.246652 76.633333 460.956673 76.943590 460.667440 77.253846 460.378958 77.564103 460.091230 77.874359 459.804260 78.184615 459.518052 78.494872 459.232609 78.805128 458.947935 79.115385 458.664034 79.425641 458.380909 79.735897 458.098565 80.046154 457.817004 80.356410 457.536231 80.666667 457.256249 80.976923 456.977062 81.287179 456.698673 81.597436 456.421087 81.907692 456.144307 82.217949 455.868336 82.528205 455.593179 82.838462 455.318839 83.148718 455.045320 83.458974 454.772626 83.769231 454.500759 84.079487 454.229724 84.389744 453.959525 84.700000 453.690166 85.010256 453.421649 85.320513 453.153979 85.630769 452.887159 85.941026 452.621194 86.251282 452.356086 86.561538 452.091839 86.871795 451.828458 87.182051 451.565946 87.492308 451.304306 87.802564 451.043542 88.112821 450.783659 88.423077 450.524659 88.733333 450.266546 89.043590 450.009325 89.353846 449.752998 89.664103 449.497569 89.974359 449.243043 90.284615 448.989423 90.594872 448.736712 90.905128 448.484914 91.215385 448.234033 91.525641 447.984073 91.835897 447.735036 92.146154 447.486919 92.456410 447.239716 92.766667 446.993424 93.076923 446.748037 93.387179 446.503552 93.697436 446.259962 94.007692 446.017264 94.317949 445.775454 94.628205 445.534525 94.938462 445.294474 95.248718 445.055296 95.558974 444.816986 95.869231 444.579540 96.179487 444.342953 96.489744 444.107220 96.800000 443.872336 97.110256 443.638298 97.420513 443.405100 97.730769 443.172737 98.041026 442.941205 98.351282 442.710499 98.661538 442.480615 98.971795 442.251548 99.282051 442.023292 99.592308 441.795845 99.902564 441.569200 100.212821 441.343353 100.523077 441.118300 100.833333 440.894036 101.143590 440.670556 101.453846 440.447855 101.764103 440.225929 102.074359 440.004774 102.384615 439.784383 102.694872 439.564754 103.005128 439.345881 103.315385 439.127759 103.625641 438.910384 103.935897 438.693751 104.246154 438.477855 104.556410 438.262692 104.866667 438.048258 105.176923 437.834546 105.487179 437.621554 105.797436 437.409275 106.107692 437.197706 106.417949 436.986842 106.728205 436.776677 107.038462 436.567209 107.348718 436.358430 107.658974 436.150338 107.969231 435.942927 108.279487 435.736193 108.589744 435.530131 108.900000 435.324736 109.210256 435.120004 109.520513 434.915930 109.830769 434.712510 110.141026 434.509738 110.451282 434.307609 110.761538 434.106121 111.071795 433.905267 111.382051 433.705042 111.692308 433.505444 112.002564 433.306465 112.312821 433.108103 112.623077 432.910352 112.933333 432.713208 113.243590 432.516665 113.553846 432.320720 113.864103 432.125368 114.174359 431.930603 114.484615 431.736422 114.794872 431.542819 115.105128 431.349790 115.415385 431.157330 115.725641 430.965435 116.035897 430.774100 116.346154 430.583320 116.656410 430.393091 116.966667 430.203407 117.276923 430.014265 117.587179 429.825659 117.897436 429.637585 118.207692 429.450038 118.517949 429.263014 118.828205 429.076507 119.138462 428.890514 119.448718 428.705029 119.758974 428.520048 120.069231 428.335566 120.379487 428.151579 120.689744 427.968081 121.000000 427.785069 121.310256 427.602537 121.620513 427.420481 121.930769 427.238896 122.241026 427.057777 122.551282 426.877120 122.861538 426.696921 123.171795 426.517173 123.482051 426.337874 123.792308 426.159017 124.102564 425.980599 124.412821 425.802615 124.723077 425.625060 125.033333 425.447929 125.343590 425.271218 125.653846 425.094922 125.964103 424.919036 126.274359 424.743556 126.584615 424.568477 126.894872 424.393795 127.205128 424.219504 127.515385 424.045600 127.825641 423.872078 128.135897 423.698935 128.446154 423.526164 128.756410 423.353761 129.066667 423.181722 129.376923 423.010042 129.687179 422.838717 129.997436 422.667741 130.307692 422.497110 130.617949 422.326819 130.928205 422.156864 131.238462 421.987240 131.548718 421.817942 131.858974 421.648966 132.169231 421.480307 132.479487 421.311960 132.789744 421.143921 133.100000 420.976184 133.410256 420.808746 133.720513 420.641601 134.030769 420.474745 134.341026 420.308174 134.651282 420.141882 134.961538 419.975865 135.271795 419.810118 135.582051 419.644637 135.892308 419.479416 136.202564 419.314452 136.512821 419.149739 136.823077 418.985273 137.133333 418.821050 137.443590 418.657063 137.753846 418.493310 138.064103 418.329785 138.374359 418.166483 138.684615 418.003400 138.994872 417.840531 139.305128 417.677872 139.615385 417.515418 139.925641 417.353163 140.235897 417.191105 140.546154 417.029236 140.856410 416.867554 141.166667 416.706054 141.476923 416.544730 141.787179 416.383578 142.097436 416.222594 142.407692 416.061773 142.717949 415.901109 143.028205 415.740599 143.338462 415.580238 143.648718 415.420021 143.958974 415.259943 144.269231 415.100000 144.579487 414.940187 144.889744 414.780499 145.200000 414.620932 145.510256 414.461481 145.820513 414.302142 146.130769 414.142909 146.441026 413.983778 146.751282 413.824744 147.061538 413.665804 147.371795 413.506951 147.682051 413.348181 147.992308 413.189490 148.302564 413.030873 148.612821 412.872326 148.923077 412.713843 149.233333 412.555420 149.543590 412.397052 149.853846 412.238735 150.164103 412.080464 150.474359 411.922234 150.784615 411.764041 151.094872 411.605880 151.405128 411.447745 151.715385 411.289634 152.025641 411.131540 152.335897 410.973460 152.646154 410.815388 152.956410 410.657321 153.266667 410.499252 153.576923 410.341178 153.887179 410.183094 154.197436 410.024995 154.507692 409.866876 154.817949 409.708734 155.128205 409.550562 155.438462 409.392357 155.748718 409.234114 156.058974 409.075829 156.369231 408.917495 156.679487 408.759110 156.989744 408.600667 157.300000 408.442164 157.610256 408.283594 157.920513 408.124953 158.230769 407.966236 158.541026 407.807440 158.851282 407.648558 159.161538 407.489587 159.471795 407.330522 159.782051 407.171358 160.092308 407.012090 160.402564 406.852714 160.712821 406.693225 161.023077 406.533619 161.333333 406.373890 161.643590 406.214034 161.953846 406.054047 162.264103 405.893924 162.574359 405.733659 162.884615 405.573249 163.194872 405.412689 163.505128 405.251974 163.815385 405.091099 164.125641 404.930060 164.435897 404.768852 164.746154 404.607470 165.056410 404.445910 165.366667 404.284167 165.676923 404.122236 165.987179 403.960113 166.297436 403.797793 166.607692 403.635271 166.917949 403.472543 167.228205 403.309604 167.538462 403.146449 167.848718 402.983073 168.158974 402.819473 168.469231 402.655643 168.779487 402.491579 169.089744 402.327275 169.400000 402.162729 169.710256 401.997935 170.020513 401.832891 170.330769 401.667593 170.641026 401.502039 170.951282 401.336226 171.261538 401.170149 171.571795 401.003806 171.882051 400.837193 172.192308 400.670308 172.502564 400.503147 172.812821 400.335707 173.123077 400.167984 173.433333 399.999976 173.743590 399.831680 174.053846 399.663091 174.364103 399.494207 174.674359 399.325025 174.984615 399.155541 175.294872 398.985752 175.605128 398.815655 175.915385 398.645247 176.225641 398.474524 176.535897 398.303484 176.846154 398.132123 177.156410 397.960438 177.466667 397.788425 177.776923 397.616082 178.087179 397.443405 178.397436 397.270391 178.707692 397.097037 179.017949 396.923339 179.328205 396.749295 179.638462 396.574901 179.948718 396.400154 180.258974 396.225050 180.569231 396.049587 180.879487 395.873761 181.189744 395.697570 181.500000 395.521009 181.810256 395.344076 182.120513 395.166767 182.430769 394.989080 182.741026 394.811010 183.051282 394.632555 183.361538 394.453712 183.671795 394.274477 183.982051 394.094847 184.292308 393.914819 184.602564 393.734390 184.912821 393.553556 185.223077 393.372315 185.533333 393.190663 185.843590 393.008596 186.153846 392.826112 186.464103 392.643207 186.774359 392.459879 187.084615 392.276123 187.394872 392.091938 187.705128 391.907318 188.015385 391.722263 188.325641 391.536767 188.635897 391.350828 188.946154 391.164443 189.256410 390.977608 189.566667 390.790320 189.876923 390.602576 190.187179 390.414374 190.497436 390.225708 190.807692 390.036578 191.117949 389.846978 191.428205 389.656906 191.738462 389.466359 192.048718 389.275334 192.358974 389.083826 192.669231 388.891834 192.979487 388.699354 193.289744 388.506382 193.600000 388.312916 193.910256 388.118952 194.220513 387.924487 194.530769 387.729517 194.841026 387.534041 195.151282 387.338053 195.461538 387.141552 195.771795 386.944534 196.082051 386.746995 196.392308 386.548933 196.702564 386.350344 197.012821 386.151225 197.323077 385.951573 197.633333 385.751384 197.943590 385.550656 198.253846 385.349385 198.564103 385.147569 198.874359 384.945202 199.184615 384.742284 199.494872 384.538809 199.805128 384.334776 200.115385 384.130181 200.425641 383.925020 200.735897 383.719291 201.046154 383.512990 201.356410 383.306114 201.666667 383.098660 201.976923 382.890624 202.287179 382.682004 202.597436 382.472796 202.907692 382.262997 203.217949 382.052604 203.528205 381.841613 203.838462 381.630021 204.148718 381.417826 204.458974 381.205023 204.769231 380.991610 205.079487 380.777584 205.389744 380.562940 205.700000 380.347677 206.010256 380.131790 206.320513 379.915277 206.630769 379.698135 206.941026 379.480359 207.251282 379.261948 207.561538 379.042897 207.871795 378.823203 208.182051 378.602864 208.492308 378.381876 208.802564 378.160236 209.112821 377.937940 209.423077 377.714986 209.733333 377.491370 210.043590 377.267089 210.353846 377.042139 210.664103 376.816519 210.974359 376.590223 211.284615 376.363250 211.594872 376.135595 211.905128 375.907257 212.215385 375.678230 212.525641 375.448513 212.835897 375.218102 213.146154 374.986994 213.456410 374.755185 213.766667 374.522673 214.076923 374.289454 214.387179 374.055525 214.697436 373.820882 215.007692 373.585523 215.317949 373.349445 215.628205 373.112643 215.938462 372.875115 216.248718 372.636858 216.558974 372.397869 216.869231 372.158143 217.179487 371.917679 217.489744 371.676472 217.800000 371.434520 218.110256 371.191820 218.420513 370.948367 218.730769 370.704160 219.041026 370.459194 219.351282 370.213466 219.661538 369.966974 219.971795 369.719714 220.282051 369.471683 220.592308 369.222877 220.902564 368.973294 221.212821 368.722930 221.523077 368.471782 221.833333 368.219847 222.143590 367.967121 222.453846 367.713602 222.764103 367.459285 223.074359 367.204169 223.384615 366.948249 223.694872 366.691523 224.005128 366.433987 224.315385 366.175638 224.625641 365.916473 224.935897 365.656489 225.246154 365.395681 225.556410 365.134049 225.866667 364.871586 226.176923 364.608292 226.487179 364.344162 226.797436 364.079194 227.107692 363.813384 227.417949 363.546728 227.728205 363.279224 228.038462 363.010869 228.348718 362.741659 228.658974 362.471591 228.969231 362.200661 229.279487 361.928868 229.589744 361.656206 229.900000 361.382674 230.210256 361.108267 230.520513 360.832984 230.830769 360.556820 231.141026 360.279772 231.451282 360.001837 231.761538 359.723012 232.071795 359.443294 232.382051 359.162679 232.692308 358.881164 233.002564 358.598747 233.312821 358.315423 233.623077 358.031189 233.933333 357.746043 234.243590 357.459981 234.553846 357.173000 234.864103 356.885097 235.174359 356.596268 235.484615 356.306510 235.794872 356.015821 236.105128 355.724196 236.415385 355.431633 236.725641 355.138128 237.035897 354.843679 237.346154 354.548281 237.656410 354.251932 237.966667 353.954629 238.276923 353.656368 238.587179 353.357146 238.897436 353.056960 239.207692 352.755806 239.517949 352.453683 239.828205 352.150585 240.138462 351.846510 240.448718 351.541455 240.758974 351.235417 241.069231 350.928392 241.379487 350.620377 241.689744 350.311369 242.000000 350.001365 242.310256 349.690362 242.620513 349.378355 242.930769 349.065343 243.241026 348.751322 243.551282 348.436288 243.861538 348.120239 244.171795 347.803170 244.482051 347.485080 244.792308 347.165965 245.102564 346.845821 245.412821 346.524646 245.723077 346.202435 246.033333 345.879187 246.343590 345.554897 246.653846 345.229563 246.964103 344.903184 247.274359 344.575769 247.584615 344.247333 247.894872 343.917888 248.205128 343.587447 248.515385 343.256023 248.825641 342.923629 249.135897 342.590278 249.446154 342.255982 249.756410 341.920754 250.066667 341.584609 250.376923 341.247557 250.687179 340.909614 250.997436 340.570790 251.307692 340.231100 251.617949 339.890555 251.928205 339.549170 252.238462 339.206957 252.548718 338.863929 252.858974 338.520099 253.169231 338.175479 253.479487 337.830083 253.789744 337.483924 254.100000 337.137015 254.410256 336.789368 254.720513 336.440996 255.030769 336.091913 255.341026 335.742131 255.651282 335.391663 255.961538 335.040522 256.271795 334.688721 256.582051 334.336274 256.892308 333.983192 257.202564 333.629489 257.512821 333.275178 257.823077 332.920271 258.133333 332.564782 258.443590 332.208724 258.753846 331.852109 259.064103 331.494951 259.374359 331.137261 259.684615 330.779054 259.994872 330.420343 260.305128 330.061139 260.615385 329.701456 260.925641 329.341308 261.235897 328.980706 261.546154 328.619664 261.856410 328.258195 262.166667 327.896311 262.476923 327.534026 262.787179 327.171352 263.097436 326.808303 263.407692 326.444891 263.717949 326.081130 264.028205 325.717032 264.338462 325.352609 264.648718 324.987876 264.958974 324.622845 265.269231 324.257529 265.579487 323.891941 265.889744 323.526093 266.200000 323.159999 266.510256 322.793672 266.820513 322.427124 267.130769 322.060369 267.441026 321.693419 267.751282 321.326288 268.061538 320.958988 268.371795 320.591532 268.682051 320.223933 268.992308 319.856204 269.302564 319.488358 269.612821 319.120408 269.923077 318.752367 270.233333 318.384247 270.543590 318.016062 270.853846 317.647825 271.164103 317.279548 271.474359 316.911245 271.784615 316.542928 272.094872 316.174610 272.405128 315.806305 272.715385 315.438025 273.025641 315.069783 273.335897 314.701591 273.646154 314.333464 273.956410 313.965414 274.266667 313.597453 274.576923 313.229595 274.887179 312.861853 275.197436 312.494239 275.507692 312.126767 275.817949 311.759449 276.128205 311.392299 276.438462 311.025328 276.748718 310.658551 277.058974 310.291981 277.369231 309.925629 277.679487 309.559509 277.989744 309.193634 278.300000 308.828017 278.610256 308.462670 278.920513 308.097607 279.230769 307.732841 279.541026 307.368385 279.851282 307.004251 280.161538 306.640452 280.471795 306.277001 280.782051 305.913912 281.092308 305.551197 281.402564 305.188869 281.712821 304.826941 282.023077 304.465426 282.333333 304.104337 282.643590 303.743686 282.953846 303.383488 283.264103 303.023754 283.574359 302.664497 283.884615 302.305731 284.194872 301.947469 284.505128 301.589723 284.815385 301.232506 285.125641 300.875831 285.435897 300.519712 285.746154 300.164160 286.056410 299.809189 286.366667 299.454813 286.676923 299.101043 286.987179 298.747893 287.297436 298.395376 287.607692 298.043504 287.917949 297.692291 288.228205 297.341749 288.538462 296.991892 288.848718 296.642732 289.158974 296.294282 289.469231 295.946555 289.779487 295.599565 290.089744 295.253323 290.400000 294.907844 290.710256 294.563139 291.020513 294.219222 291.330769 293.876106 291.641026 293.533804 291.951282 293.192328 292.261538 292.851692 292.571795 292.511908 292.882051 292.172989 293.192308 291.834949 293.502564 291.497800 293.812821 291.161555 294.123077 290.826227 294.433333 290.491829 294.743590 290.158374 295.053846 289.825875 295.364103 289.494345 295.674359 289.163796 295.984615 288.834242 296.294872 288.505696 296.605128 288.178170 296.915385 287.851677 297.225641 287.526231 297.535897 287.201844 297.846154 286.878529 298.156410 286.556299 298.466667 286.235168 298.776923 285.915147 299.087179 285.596250 299.397436 285.278490 299.707692 284.961880 300.017949 284.646432 300.328205 284.332160 300.638462 284.019077 300.948718 283.707195 301.258974 283.396527 301.569231 283.087087 301.879487 282.778887 302.189744 282.471940 302.500000 282.166259 302.810256 281.861857 303.120513 281.558747 303.430769 281.256942 303.741026 280.956454 304.051282 280.657298 304.361538 280.359485 304.671795 280.063028 304.982051 279.767941 305.292308 279.474237 305.602564 279.181928 305.912821 278.891027 306.223077 278.601547 306.533333 278.313501 306.843590 278.026903 307.153846 277.741764 307.464103 277.458099 307.774359 277.175919 308.084615 276.895238 308.394872 276.616068 308.705128 276.338423 309.015385 276.062316 309.325641 275.787759 309.635897 275.514766 309.946154 275.243349 310.256410 274.973521 310.566667 274.705295 310.876923 274.438684 311.187179 274.173702 311.497436 273.910360 311.807692 273.648672 312.117949 273.388651 312.428205 273.130310 312.738462 272.873661 313.048718 272.618718 313.358974 272.365494 313.669231 272.114000 313.979487 271.864252 314.289744 271.616260 314.600000 271.370039 314.910256 271.125600 315.220513 270.882958 315.530769 270.642125 315.841026 270.403114 316.151282 270.165937 316.461538 269.930609 316.771795 269.697141 317.082051 269.465546 317.392308 269.235839 317.702564 269.008030 318.012821 268.782134 318.323077 268.558164 318.633333 268.336131 318.943590 268.116050 319.253846 267.897933 319.564103 267.681793 319.874359 267.467643 320.184615 267.255496 320.494872 267.045364 320.805128 266.837261 321.115385 266.631200 321.425641 266.427194 321.735897 266.225255 322.046154 266.025396 322.356410 265.827631 322.666667 265.631972 322.976923 265.438433 323.287179 265.247025 323.597436 265.057763 323.907692 264.870658 324.217949 264.685725 324.528205 264.502969 324.838462 264.322376 325.148718 264.143923 325.458974 263.967588 325.769231 263.793350 326.079487 263.621188 326.389744 263.451078 326.700000 263.282999 327.010256 263.116931 327.320513 262.952850 327.630769 262.790735 327.941026 262.630564 328.251282 262.472316 328.561538 262.315969 328.871795 262.161500 329.182051 262.008889 329.492308 261.858113 329.802564 261.709150 330.112821 261.561980 330.423077 261.416579 330.733333 261.272926 331.043590 261.131001 331.353846 260.990779 331.664103 260.852241 331.974359 260.715364 332.284615 260.580126 332.594872 260.446506 332.905128 260.314481 333.215385 260.184030 333.525641 260.055132 333.835897 259.927764 334.146154 259.801905 334.456410 259.677533 334.766667 259.554625 335.076923 259.433161 335.387179 259.313119 335.697436 259.194476 336.007692 259.077212 336.317949 258.961303 336.628205 258.846729 336.938462 258.733468 337.248718 258.621497 337.558974 258.510796 337.869231 258.401341 338.179487 258.293113 338.489744 258.186088 338.800000 258.080245 339.110256 257.975562 339.420513 257.872017 339.730769 257.769589 340.041026 257.668256 340.351282 257.567996 340.661538 257.468788 340.971795 257.370608 341.282051 257.273437 341.592308 257.177251 341.902564 257.082030 342.212821 256.987751 342.523077 256.894392 342.833333 256.801933 343.143590 256.710350 343.453846 256.619623 343.764103 256.529729 344.074359 256.440646 344.384615 256.352354 344.694872 256.264830 345.005128 256.178052 345.315385 256.091999 345.625641 256.006648 345.935897 255.921978 346.246154 255.837968 346.556410 255.754595 346.866667 255.671838 347.176923 255.589675 347.487179 255.508084 347.797436 255.427043 348.107692 255.346530 348.417949 255.266525 348.728205 255.187004 349.038462 255.107947 349.348718 255.029331 349.658974 254.951134 349.969231 254.873336 350.279487 254.795913 350.589744 254.718845 350.900000 254.642110 351.210256 254.565685 351.520513 254.489549 351.830769 254.413680 352.141026 254.338057 352.451282 254.262657 352.761538 254.187459 353.071795 254.112441 353.382051 254.037582 353.692308 253.962859 354.002564 253.888250 354.312821 253.813735 354.623077 253.739290 354.933333 253.664896 355.243590 253.590528 355.553846 253.516167 355.864103 253.441789 356.174359 253.367374 356.484615 253.292899 356.794872 253.218343 357.105128 253.143684 357.415385 253.068900 357.725641 252.993969 358.035897 252.918870 358.346154 252.843581 358.656410 252.768080 358.966667 252.692345 359.276923 252.616354 359.587179 252.540086 359.897436 252.463519 360.207692 252.386631 360.517949 252.309400 360.828205 252.231805 361.138462 252.153824 361.448718 252.075435 361.758974 251.996616 362.069231 251.917345 362.379487 251.837601 362.689744 251.757362 363.000000 251.676605 363.310256 251.595311 363.620513 251.513455 363.930769 251.431018 364.241026 251.347976 364.551282 251.264309 364.861538 251.179994 365.171795 251.095009 365.482051 251.009334 365.792308 250.922945 366.102564 250.835822 366.412821 250.747942 366.723077 250.659284 367.033333 250.569826 367.343590 250.479546 367.653846 250.388423 367.964103 250.296434 368.274359 250.203558 368.584615 250.109773 368.894872 250.015057 369.205128 249.919389 369.515385 249.822746 369.825641 249.725107 370.135897 249.626451 370.446154 249.526755 370.756410 249.425997 371.066667 249.324156 371.376923 249.221210 371.687179 249.117138 371.997436 249.011916 372.307692 248.905525 372.617949 248.797941 372.928205 248.689144 373.238462 248.579111 373.548718 248.467820 373.858974 248.355250 374.169231 248.241379 374.479487 248.126186 374.789744 248.009648 375.100000 247.891743 375.410256 247.772450 375.720513 247.651748 376.030769 247.529614 376.341026 247.406026 376.651282 247.280963 376.961538 247.154403 377.271795 247.026324 377.582051 246.896704 377.892308 246.765523 378.202564 246.632757 378.512821 246.498385 378.823077 246.362385 379.133333 246.224736 379.443590 246.085416 379.753846 245.944402 380.064103 245.801674 380.374359 245.657209 380.684615 245.510986 380.994872 245.362982 381.305128 245.213177 381.615385 245.061548 381.925641 244.908073 382.235897 244.752731 382.546154 244.595500 382.856410 244.436358 383.166667 244.275283 383.476923 244.112254 383.787179 243.947249 384.097436 243.780246 384.407692 243.611223 384.717949 243.440159 385.028205 243.267031 385.338462 243.091818 385.648718 242.914498 385.958974 242.735050 386.269231 242.553451 386.579487 242.369680 386.889744 242.183714 387.200000 241.995534 387.510256 241.805115 387.820513 241.612437 388.130769 241.417478 388.441026 241.220217 388.751282 241.020630 389.061538 240.818697 389.371795 240.614396 389.682051 240.407704 389.992308 240.198601 390.302564 239.987065 390.612821 239.773073 390.923077 239.556604 391.233333 239.337635 391.543590 239.116147 391.853846 238.892115 392.164103 238.665520 392.474359 238.436338 392.784615 238.204549 393.094872 237.970129 393.405128 237.733059 393.715385 237.493315 394.025641 237.250877 394.335897 237.005721 394.646154 236.757828 394.956410 236.507173 395.266667 236.253737 395.576923 235.997497 395.887179 235.738432 396.197436 235.476518 396.507692 235.211736 396.817949 234.944063 397.128205 234.673477 397.438462 234.399956 397.748718 234.123479 398.058974 233.844024 398.369231 233.561569 398.679487 233.276093 398.989744 232.987573 399.300000 232.695988 399.610256 232.401316 399.920513 232.103535 400.230769 231.802623 400.541026 231.498559 400.851282 231.191321 401.161538 230.880887 401.471795 230.567236 401.782051 230.250345 402.092308 229.930200 402.402564 229.606820 402.712821 229.280229 403.023077 228.950452 403.333333 228.617516 403.643590 228.281444 403.953846 227.942263 404.264103 227.599997 404.574359 227.254672 404.884615 226.906313 405.194872 226.554946 405.505128 226.200595 405.815385 225.843286 406.125641 225.483044 406.435897 225.119895 406.746154 224.753863 407.056410 224.384975 407.366667 224.013254 407.676923 223.638727 407.987179 223.261419 408.297436 222.881355 408.607692 222.498560 408.917949 222.113060 409.228205 221.724879 409.538462 221.334043 409.848718 220.940578 410.158974 220.544508 410.469231 220.145860 410.779487 219.744657 411.089744 219.340926 411.400000 218.934691 411.710256 218.525978 412.020513 218.114812 412.330769 217.701219 412.641026 217.285223 412.951282 216.866850 413.261538 216.446126 413.571795 216.023075 413.882051 215.597723 414.192308 215.170094 414.502564 214.740215 414.812821 214.308110 415.123077 213.873806 415.433333 213.437326 415.743590 212.998696 416.053846 212.557942 416.364103 212.115089 416.674359 211.670162 416.984615 211.223186 417.294872 210.774187 417.605128 210.323190 417.915385 209.870220 418.225641 209.415302 418.535897 208.958462 418.846154 208.499725 419.156410 208.039116 419.466667 207.576661 419.776923 207.112384 420.087179 206.646311 420.397436 206.178467 420.707692 205.708878 421.017949 205.237569 421.328205 204.764564 421.638462 204.289890 421.948718 203.813572 422.258974 203.335634 422.569231 202.856102 422.879487 202.375002 423.189744 201.892358 423.500000 201.408196 423.810256 200.922541 424.120513 200.435419 424.430769 199.946854 424.741026 199.456872 425.051282 198.965498 425.361538 198.472758 425.671795 197.978676 425.982051 197.483278 426.292308 196.986590 426.602564 196.488636 426.912821 195.989442 427.223077 195.489032 427.533333 194.987433 427.843590 194.484670 428.153846 193.980767 428.464103 193.475750 428.774359 192.969645 429.084615 192.462476 429.394872 191.954269 429.705128 191.445049 430.015385 190.934841 430.325641 190.423671 430.635897 189.911564 430.946154 189.398545 431.256410 188.884640 431.566667 188.369873 431.876923 187.854270 432.187179 187.337856 432.497436 186.820657 432.807692 186.302697 433.117949 185.784003 433.428205 185.264598 433.738462 184.744509 434.048718 184.223761 434.358974 183.702379 434.669231 183.180388 434.979487 182.657814 435.289744 182.134682 435.600000 181.611016 435.910256 181.086843 436.220513 180.562188 436.530769 180.037075 436.841026 179.511531 437.151282 178.985580 437.461538 178.459247 437.771795 177.932559 438.082051 177.405539 438.392308 176.878214 438.702564 176.350609 439.012821 175.822749 439.323077 175.294659 439.633333 174.766364 439.943590 174.237890 440.253846 173.709263 440.564103 173.180506 440.874359 172.651646 441.184615 172.122708 441.494872 171.593717 441.805128 171.064698 442.115385 170.535676 442.425641 170.006678 442.735897 169.477728 443.046154 168.948851 443.356410 168.420072 443.666667 167.891418 443.976923 167.362912 444.287179 166.834582 444.597436 166.306450 444.907692 165.778544 445.217949 165.250888 445.528205 164.723507 445.838462 164.196428 446.148718 163.669674 446.458974 163.143271 446.769231 162.617245 447.079487 162.091620 447.389744 161.566423 447.700000 161.041678 448.010256 160.517411 448.320513 159.993646 448.630769 159.470409 448.941026 158.947726 449.251282 158.425621 449.561538 157.904121 449.871795 157.383249 450.182051 156.863032 450.492308 156.343494 450.802564 155.824662 451.112821 155.306559 451.423077 154.789212 451.733333 154.272646 452.043590 153.756886 452.353846 153.241956 452.664103 152.727884 452.974359 152.214693 453.284615 151.702409 453.594872 151.191058 453.905128 150.680664 454.215385 150.171252 454.525641 149.662849 454.835897 149.155479 455.146154 148.649168 455.456410 148.143941 455.766667 147.639822 456.076923 147.136838 456.387179 146.635014 456.697436 146.134375 457.007692 145.634946 457.317949 145.136752 457.628205 144.639819 457.938462 144.144172 458.248718 143.649836 458.558974 143.156836 458.869231 142.665199 459.179487 142.174948 459.489744 141.686109 459.800000 141.198708 460.110256 140.712770 460.420513 140.228320 460.730769 139.745383 461.041026 139.263985 461.351282 138.784151 461.661538 138.305905 461.971795 137.829275 462.282051 137.354283 462.592308 136.880957 462.902564 136.409320 463.212821 135.939400 463.523077 135.471219 463.833333 135.004805 464.143590 134.540182 464.453846 134.077375 464.764103 133.616410 465.074359 133.157313 465.384615 132.700107 465.694872 132.244819 466.005128 131.791473 466.315385 131.340096 466.625641 130.890712 466.935897 130.443346 467.246154 129.998024 467.556410 129.554772 467.866667 129.113613 468.176923 128.674575 468.487179 128.237681 468.797436 127.802957 469.107692 127.370429 469.417949 126.940121 469.728205 126.512059 470.038462 126.086269 470.348718 125.662774 470.658974 125.241602 470.969231 124.822776 471.279487 124.406323 471.589744 123.992267 471.900000 123.580634 472.210256 123.171449 472.520513 122.764737 472.830769 122.360524 473.141026 121.958835 473.451282 121.559694 473.761538 121.163128 474.071795 120.769162 474.382051 120.377820 474.692308 119.989128 475.002564 119.603112 475.312821 119.219797 475.623077 118.839207 475.933333 118.461369 476.243590 118.086307 476.553846 117.714046 476.864103 117.344613 477.174359 116.978031 477.484615 116.614328 477.794872 116.253527 478.105128 115.895654 478.415385 115.540734 478.725641 115.188792 479.035897 114.839855 479.346154 114.493946 479.656410 114.151086 479.966667 113.811264 480.276923 113.474468 480.587179 113.140682 480.897436 112.809892 481.207692 112.482083 481.517949 112.157240 481.828205 111.835350 482.138462 111.516396 482.448718 111.200364 482.758974 110.887241 483.069231 110.577010 483.379487 110.269658 483.689744 109.965170 484.000000 109.663531 484.310256 109.364727 484.620513 109.068742 484.930769 108.775563 485.241026 108.485174 485.551282 108.197562 485.861538 107.912710 486.171795 107.630605 486.482051 107.351233 486.792308 107.074577 487.102564 106.800624 487.412821 106.529360 487.723077 106.260768 488.033333 105.994836 488.343590 105.731547 488.653846 105.470888 488.964103 105.212844 489.274359 104.957400 489.584615 104.704541 489.894872 104.454253 490.205128 104.206521 490.515385 103.961331 490.825641 103.718668 491.135897 103.478517 491.446154 103.240863 491.756410 103.005693 492.066667 102.772991 492.376923 102.542742 492.687179 102.314932 492.997436 102.089547 493.307692 101.866571 493.617949 101.645991 493.928205 101.427790 494.238462 101.211956 494.548718 100.998472 494.858974 100.787325 495.169231 100.578500 495.479487 100.371982 495.789744 100.167756 496.100000 99.965808 496.410256 99.766124 496.720513 99.568688 497.030769 99.373485 497.341026 99.180502 497.651282 98.989724 497.961538 98.801135 498.271795 98.614722 498.582051 98.430469 498.892308 98.248362 499.202564 98.068387 499.512821 97.890528 499.823077 97.714771 500.133333 97.541102 500.443590 97.369505 500.753846 97.199967 501.064103 97.032471 501.374359 96.867005 501.684615 96.703553 501.994872 96.542100 502.305128 96.382632 502.615385 96.225134 502.925641 96.069591 503.235897 95.915990 503.546154 95.764314 503.856410 95.614550 504.166667 95.466684 504.476923 95.320699 504.787179 95.176582 505.097436 95.034318 505.407692 94.893892 505.717949 94.755290 506.028205 94.618497 506.338462 94.483498 506.648718 94.350279 506.958974 94.218825 507.269231 94.089121 507.579487 93.961153 507.889744 93.834907 508.200000 93.710366 508.510256 93.587518 508.820513 93.466346 509.130769 93.346837 509.441026 93.228976 509.751282 93.112748 510.061538 92.998139 510.371795 92.885134 510.682051 92.773717 510.992308 92.663876 511.302564 92.555594 511.612821 92.448858 511.923077 92.343652 512.233333 92.239962 512.543590 92.137774 512.853846 92.037072 513.164103 91.937842 513.474359 91.840070 513.784615 91.743741 514.094872 91.648839 514.405128 91.555351 514.715385 91.463262 515.025641 91.372557 515.335897 91.283221 515.646154 91.195240 515.956410 91.108600 516.266667 91.023285 516.576923 90.939280 516.887179 90.856572 517.197436 90.775146 517.507692 90.694987 517.817949 90.616079 518.128205 90.538410 518.438462 90.461963 518.748718 90.386725 519.058974 90.312680 519.369231 90.239815 519.679487 90.168114 519.989744 90.097562 520.300000 90.028146 520.610256 89.959850 520.920513 89.892660 521.230769 89.826561 521.541026 89.761538 521.851282 89.697577 522.161538 89.634664 522.471795 89.572782 522.782051 89.511919 523.092308 89.452059 523.402564 89.393188 523.712821 89.335290 524.023077 89.278352 524.333333 89.222358 524.643590 89.167295 524.953846 89.113146 525.264103 89.059899 525.574359 89.007537 525.884615 88.956047 526.194872 88.905413 526.505128 88.855621 526.815385 88.806657 527.125641 88.758506 527.435897 88.711153 527.746154 88.664583 528.056410 88.618782 528.366667 88.573735 528.676923 88.529428 528.987179 88.485845 529.297436 88.442973 529.607692 88.400796 529.917949 88.359300 530.228205 88.318471 530.538462 88.278293 530.848718 88.238752 531.158974 88.199833 531.469231 88.161522 531.779487 88.123804 532.089744 88.086664 532.400000 88.050089 532.710256 88.014062 533.020513 87.978569 533.330769 87.943596 533.641026 87.909129 533.951282 87.875151 534.261538 87.841650 534.571795 87.808610 534.882051 87.776016 535.192308 87.743854 535.502564 87.712109 535.812821 87.680767 536.123077 87.649812 536.433333 87.619231 536.743590 87.589009 537.053846 87.559130 537.364103 87.529581 537.674359 87.500346 537.984615 87.471412 538.294872 87.442762 538.605128 87.414384 538.915385 87.386261 539.225641 87.358380 539.535897 87.330726 539.846154 87.303283 540.156410 87.276038 540.466667 87.248976 540.776923 87.222082 541.087179 87.195342 541.397436 87.168740 541.707692 87.142262 542.017949 87.115894 542.328205 87.089621 542.638462 87.063429 542.948718 87.037301 543.258974 87.011225 543.569231 86.985185 543.879487 86.959166 544.189744 86.933155 544.500000 86.907136 544.810256 86.881094 545.120513 86.855016 545.430769 86.828886 545.741026 86.802689 546.051282 86.776412 546.361538 86.750039 546.671795 86.723556 546.982051 86.696948 547.292308 86.670201 547.602564 86.643299 547.912821 86.616229 548.223077 86.588975 548.533333 86.561523 548.843590 86.533858 549.153846 86.505965 549.464103 86.477831 549.774359 86.449440 550.084615 86.420777 550.394872 86.391829 550.705128 86.362580 551.015385 86.333015 551.325641 86.303120 551.635897 86.272881 551.946154 86.242283 552.256410 86.211310 552.566667 86.179949 552.876923 86.148185 553.187179 86.116003 553.497436 86.083388 553.807692 86.050326 554.117949 86.016803 554.428205 85.982803 554.738462 85.948311 555.048718 85.913314 555.358974 85.877797 555.669231 85.841744 555.979487 85.805141 556.289744 85.767975 556.600000 85.730229 556.910256 85.691889 557.220513 85.652944 557.530769 85.613391 557.841026 85.573232 558.151282 85.532467 558.461538 85.491097 558.771795 85.449123 559.082051 85.406546 559.392308 85.363367 559.702564 85.319586 560.012821 85.275205 560.323077 85.230225 560.633333 85.184646 560.943590 85.138469 561.253846 85.091695 561.564103 85.044325 561.874359 84.996360 562.184615 84.947800 562.494872 84.898647 562.805128 84.848902 563.115385 84.798565 563.425641 84.747637 563.735897 84.696119 564.046154 84.644012 564.356410 84.591317 564.666667 84.538035 564.976923 84.484167 565.287179 84.429712 565.597436 84.374674 565.907692 84.319051 566.217949 84.262846 566.528205 84.206058 566.838462 84.148690 567.148718 84.090741 567.458974 84.032213 567.769231 83.973106 568.079487 83.913422 568.389744 83.853161 568.700000 83.792324 569.010256 83.730912 569.320513 83.668926 569.630769 83.606367 569.941026 83.543235 570.251282 83.479532 570.561538 83.415259 570.871795 83.350415 571.182051 83.285003 571.492308 83.219023 571.802564 83.152476 572.112821 83.085363 572.423077 83.017684 572.733333 82.949441 573.043590 82.880634 573.353846 82.811265 573.664103 82.741333 573.974359 82.670841 574.284615 82.599789 574.594872 82.528178 574.905128 82.456008 575.215385 82.383281 575.525641 82.309997 575.835897 82.236158 576.146154 82.161764 576.456410 82.086816 576.766667 82.011315 577.076923 81.935262 577.387179 81.858657 577.697436 81.781502 578.007692 81.703798 578.317949 81.625545 578.628205 81.546744 578.938462 81.467397 579.248718 81.387503 579.558974 81.307064 579.869231 81.226081 580.179487 81.144555 580.489744 81.062486 580.800000 80.979876 581.110256 80.896724 581.420513 80.813033 581.730769 80.728803 582.041026 80.644035 582.351282 80.558730 582.661538 80.472888 582.971795 80.386511 583.282051 80.299599 583.592308 80.212154 583.902564 80.124175 584.212821 80.035665 584.523077 79.946624 584.833333 79.857052 585.143590 79.766951 585.453846 79.676322 585.764103 79.585165 586.074359 79.493481 586.384615 79.401272 586.694872 79.308538 587.005128 79.215279 587.315385 79.121498 587.625641 79.027194 587.935897 78.932369 588.246154 78.837023 588.556410 78.741157 588.866667 78.644773 589.176923 78.547871 589.487179 78.450452 589.797436 78.352516 590.107692 78.254066 590.417949 78.155101 590.728205 78.055622 591.038462 77.955631 591.348718 77.855128 591.658974 77.754114 591.969231 77.652591 592.279487 77.550558 592.589744 77.448017 592.900000 77.344968 593.210256 77.241413 593.520513 77.137352 593.830769 77.032787 594.141026 76.927718 594.451282 76.822145 594.761538 76.716071 595.071795 76.609496 595.382051 76.502420 595.692308 76.394844 596.002564 76.286770 596.312821 76.178199 596.623077 76.069130 596.933333 75.959566 597.243590 75.849506 597.553846 75.738953 597.864103 75.627906 598.174359 75.516366 598.484615 75.404335 598.794872 75.291813 599.105128 75.178802 599.415385 75.065301 599.725641 74.951313 600.035897 74.836837 600.346154 74.721875 600.656410 74.606428 600.966667 74.490496 601.276923 74.374080 601.587179 74.257182 601.897436 74.139802 602.207692 74.021940 602.517949 73.903599 602.828205 73.784778 603.138462 73.665479 603.448718 73.545702 603.758974 73.425449 604.069231 73.304720 604.379487 73.183516 604.689744 73.061838 605.000000 72.939687 605.310256 72.817064 605.620513 72.693969 605.930769 72.570404 606.241026 72.446369 606.551282 72.321866 606.861538 72.196894 607.171795 72.071456 607.482051 71.945552 607.792308 71.819182 608.102564 71.692348 608.412821 71.565050 608.723077 71.437290 609.033333 71.309069 609.343590 71.180386 609.653846 71.051243 609.964103 70.921642 610.274359 70.791582 610.584615 70.661065 610.894872 70.530091 611.205128 70.398662 611.515385 70.266778 611.825641 70.134441 612.135897 70.001650 612.446154 69.868407 612.756410 69.734714 613.066667 69.600570 613.376923 69.465976 613.687179 69.330934 613.997436 69.195444 614.307692 69.059508 614.617949 68.923125 614.928205 68.786298 615.238462 68.649026 615.548718 68.511312 615.858974 68.373154 616.169231 68.234556 616.479487 68.095516 616.789744 67.956037 617.100000 67.816119 617.410256 67.675763 617.720513 67.534970 618.030769 67.393741 618.341026 67.252076 618.651282 67.109977 618.961538 66.967444 619.271795 66.824478 619.582051 66.681081 619.892308 66.537252 620.202564 66.392994 620.512821 66.248306 620.823077 66.103190 621.133333 65.957646 621.443590 65.811676 621.753846 65.665280 622.064103 65.518460 622.374359 65.371215 622.684615 65.223547 622.994872 65.075457 623.305128 64.926946 623.615385 64.778015 623.925641 64.628663 624.235897 64.478893 624.546154 64.328706 624.856410 64.178101 625.166667 64.027080 625.476923 63.875645 625.787179 63.723794 626.097436 63.571531 626.407692 63.418855 626.717949 63.265767 627.028205 63.112268 627.338462 62.958360 627.648718 62.804042 627.958974 62.649317 628.269231 62.494184 628.579487 62.338645 628.889744 62.182700 629.200000 62.026350 629.510256 61.869597 629.820513 61.712441 630.130769 61.554883 630.441026 61.396924 630.751282 61.238564 631.061538 61.079806 631.371795 60.920648 631.682051 60.761093 631.992308 60.601142 632.302564 60.440794 632.612821 60.280052 632.923077 60.118915 633.233333 59.957385 633.543590 59.795463 633.853846 59.633150 634.164103 59.470445 634.474359 59.307352 634.784615 59.143869 635.094872 58.979999 635.405128 58.815743 635.715385 58.651104 636.025641 58.486081 636.335897 58.320678 636.646154 58.154895 636.956410 57.988734 637.266667 57.822197 637.576923 57.655285 637.887179 57.487999 638.197436 57.320342 638.507692 57.152315 638.817949 56.983919 639.128205 56.815156 639.438462 56.646028 639.748718 56.476536 640.058974 56.306681 640.369231 56.136465 640.679487 55.965890 640.989744 55.794958 641.300000 55.623669 641.610256 55.452026 641.920513 55.280029 642.230769 55.107681 642.541026 54.934983 642.851282 54.761937 643.161538 54.588544 643.471795 54.414806 643.782051 54.240724 644.092308 54.066299 644.402564 53.891534 644.712821 53.716430 645.023077 53.540989 645.333333 53.365211 645.643590 53.189100 645.953846 53.012655 646.264103 52.835879 646.574359 52.658773 646.884615 52.481340 647.194872 52.303579 647.505128 52.125494 647.815385 51.947085 648.125641 51.768354 648.435897 51.589302 648.746154 51.409932 649.056410 51.230245 649.366667 51.050241 649.676923 50.869924 649.987179 50.689294 650.297436 50.508353 650.607692 50.327102 650.917949 50.145544 651.228205 49.963679 651.538462 49.781509 651.848718 49.599036 652.158974 49.416261 652.469231 49.233186 652.779487 49.049813 653.089744 48.866142 653.400000 48.682176 653.710256 48.497916 654.020513 48.313363 654.330769 48.128520 654.641026 47.943387 654.951282 47.757967 655.261538 47.572260 655.571795 47.386269 655.882051 47.199995 656.192308 47.013439 656.502564 46.826603 656.812821 46.639489 657.123077 46.452098 657.433333 46.264432 657.743590 46.076492 658.053846 45.888280 658.364103 45.699797 658.674359 45.511045 658.984615 45.322026 659.294872 45.132740 659.605128 44.943191 659.915385 44.753378 660.225641 44.563304 660.535897 44.372970 660.846154 44.182379 661.156410 43.991530 661.466667 43.800427 661.776923 43.609070 662.087179 43.417460 662.397436 43.225601 662.707692 43.033493 663.017949 42.841137 663.328205 42.648536 663.638462 42.455690 663.948718 42.262602 664.258974 42.069273 664.569231 41.875704 664.879487 41.681898 665.189744 41.487855 665.500000 41.293577 665.810256 41.099066 666.120513 40.904323 666.430769 40.709349 666.741026 40.514148 667.051282 40.318719 667.361538 40.123064 667.671795 39.927186 667.982051 39.731085 668.292308 39.534764 668.602564 39.338223 668.912821 39.141464 669.223077 38.944489 669.533333 38.747300 669.843590 38.549897 670.153846 38.352283 670.464103 38.154459 670.774359 37.956426 671.084615 37.758187 671.394872 37.559742 671.705128 37.361094 672.015385 37.162243 672.325641 36.963192 672.635897 36.763942 672.946154 36.564494 673.256410 36.364850 673.566667 36.165012 673.876923 35.964981 674.187179 35.764759 674.497436 35.564347 674.807692 35.363746 675.117949 35.162959 675.428205 34.961987 675.738462 34.760832 676.048718 34.559494 676.358974 34.357976 676.669231 34.156279 676.979487 33.954405 677.289744 33.752355 677.600000 33.550131 677.910256 33.347735 678.220513 33.145167 678.530769 32.942430 678.841026 32.739524 679.151282 32.536453 679.461538 32.333216 679.771795 32.129816 680.082051 31.926254 680.392308 31.722533 680.702564 31.518652 681.012821 31.314615 681.323077 31.110421 681.633333 30.906074 681.943590 30.701575 682.253846 30.496925 682.564103 30.292125 682.874359 30.087177 683.184615 29.882084 683.494872 29.676846 683.805128 29.471464 684.115385 29.265941 684.425641 29.060278 684.735897 28.854477 685.046154 28.648539 685.356410 28.442465 685.666667 28.236258 685.976923 28.029919 686.287179 27.823449 686.597436 27.616849 686.907692 27.410123 687.217949 27.203270 687.528205 26.996293 687.838462 26.789193 688.148718 26.581972 688.458974 26.374631 688.769231 26.167171 689.079487 25.959595 689.389744 25.751904 689.700000 25.544100 690.010256 25.336183 690.320513 25.128156 690.630769 24.920020 690.941026 24.711777 691.251282 24.503428 691.561538 24.294975 691.871795 24.086420 692.182051 23.877763 692.492308 23.669006 692.802564 23.460152 693.112821 23.251201 693.423077 23.042155 693.733333 22.833016 694.043590 22.623786 694.353846 22.414465 694.664103 22.205055 694.974359 21.995558 695.284615 21.785976 695.594872 21.576310 695.905128 21.366561 696.215385 21.156731 696.525641 20.946822 696.835897 20.736836 697.146154 20.526773 697.456410 20.316635 697.766667 20.106425 698.076923 19.896143 698.387179 19.685790 698.697436 19.475370 699.007692 19.264882 699.317949 19.054330 699.628205 18.843713 699.938462 18.633034 700.248718 18.422295 700.558974 18.211496 700.869231 18.000640 701.179487 17.789728 701.489744 17.578762 701.800000 17.367742 702.110256 17.156671 702.420513 16.945551 702.730769 16.734382 703.041026 16.523167 703.351282 16.311906 703.661538 16.100602 703.971795 15.889256 704.282051 15.677870 704.592308 15.466445 704.902564 15.254982 705.212821 15.043483 705.523077 14.831951 705.833333 14.620385 706.143590 14.408789 706.453846 14.197163 706.764103 13.985509 707.074359 13.773829 707.384615 13.562123 707.694872 13.350395 708.005128 13.138644 708.315385 12.926874 708.625641 12.715084 708.935897 12.503278 709.246154 12.291456 709.556410 12.079620 709.866667 11.867772 710.176923 11.655913 710.487179 11.444044 710.797436 11.232168 711.107692 11.020285 711.417949 10.808398 711.728205 10.596507 712.038462 10.384615 712.038462 540.000000" /></g></g><g class="titles" /><g class="plot overlay" transform="translate(54, 20)"><g class="series serie-0 color-0"><g class="dots"><circle class="dot reactive tooltip-trigger" cx="13.96153846153846" cy="529.6153846153846" r="2.5" /><desc class="value">227,643,218(kWh)</desc><desc class="x top">13.96153846153846</desc><desc class="y top">529.6153846153846</desc><desc class="x_label">2549</desc></g><g class="dots"><circle class="dot reactive tooltip-trigger" cx="91.52564102564101" cy="447.9840733739995" r="2.5" /><desc class="value">262,445,058(kWh)</desc><desc class="x top">91.52564102564101</desc><desc class="y top">447.9840733739995</desc><desc class="x_label">2550</desc></g><g class="dots"><circle class="dot reactive tooltip-trigger" cx="169.08974358974356" cy="402.32727547002696" r="2.5" /><desc class="value">281,909,900(kWh)</desc><desc class="x top">169.08974358974356</desc><desc class="y top">402.32727547002696</desc><desc class="x_label">2551</desc></g><g class="dots"><circle class="dot reactive tooltip-trigger" cx="246.65384615384613" cy="345.22956284111524" r="2.5" /><desc class="value">306,252,342(kWh)</desc><desc class="x top">246.65384615384613</desc><desc class="y top">345.22956284111524</desc><desc class="x_label">2552</desc></g><g class="dots"><circle class="dot reactive tooltip-trigger" cx="324.21794871794873" cy="264.6857248994278" r="2.5" /><desc class="value">340,590,560(kWh)</desc><desc class="x ">324.21794871794873</desc><desc class="y ">264.6857248994278</desc><desc class="x_label">2553</desc></g><g class="dots"><circle class="dot reactive tooltip-trigger" cx="401.78205128205127" cy="230.25034485346612" r="2.5" /><desc class="value">355,271,380(kWh)</desc><desc class="x left">401.78205128205127</desc><desc class="y left">230.25034485346612</desc><desc class="x_label">2554</desc></g><g class="dots"><circle class="dot reactive tooltip-trigger" cx="479.3461538461538" cy="114.49394639173386" r="2.5" /><desc class="value">404,621,753(kWh)</desc><desc class="x left">479.3461538461538</desc><desc class="y left">114.49394639173386</desc><desc class="x_label">2555</desc></g><g class="dots"><circle class="dot reactive tooltip-trigger" cx="556.9102564102565" cy="85.69188923632896" r="2.5" /><desc class="value">416,900,921(kWh)</desc><desc class="x left">556.9102564102565</desc><desc class="y left">85.69188923632896</desc><desc class="x_label">2556</desc></g><g class="dots"><circle class="dot reactive tooltip-trigger" cx="634.474358974359" cy="59.30735159265231" r="2.5" /><desc class="value">428,149,429(kWh)</desc><desc class="x left">634.474358974359</desc><desc class="y left">59.30735159265231</desc><desc class="x_label">2557</desc></g><g class="dots"><circle class="dot reactive tooltip-trigger" cx="712.0384615384615" cy="10.384615384615358" r="2.5" /><desc class="value">449,006,637(kWh)</desc><desc class="x left">712.0384615384615</desc><desc class="y left">10.384615384615358</desc><desc class="x_label">2558</desc></g></g></g><g class="plot text-overlay" transform="translate(54, 20)"><g class="series serie-0 color-0" /></g><g class="plot tooltip-overlay" transform="translate(54, 20)"><g class="tooltip" style="opacity: 0" transform="translate(0 0)"><rect class="tooltip-box" height="0" rx="0" ry="0" width="0" /><g class="text" /></g></g></g></svg>