<?xml version='1.0' encoding='utf-8'?>
<svg xmlns:xlink="http://www.w3.org/1999/xlink" class="pygal-chart" id="chart-d3ac54d4-71d7-4497-8e66-62f6a3160b5b" viewBox="0 0 800 600" xmlns="http://www.w3.org/2000/svg"><!--Generated with pygal 2.3.0 (etree) ©Kozea 2012-2016 on 2016-12-08--><!--http://pygal.org--><!--http://github.com/Kozea/pygal--><defs><style type="text/css">#chart-d3ac54d4-71d7-4497-8e66-62f6a3160b5b{-webkit-user-select:none;-webkit-font-smoothing:antialiased;font-family:Consolas,"Liberation Mono",Menlo,Courier,monospace}#chart-d3ac54d4-71d7-4497-8e66-62f6a3160b5b .title{font-family:Consolas,"Liberation Mono",Menlo,Courier,monospace;font-size:16px}#chart-d3ac54d4-71d7-4497-8e66-62f6a3160b5b .legends .legend text{font-family:Consolas,"Liberation Mono",Menlo,Courier,monospace;font-size:14px}#chart-d3ac54d4-71d7-4497-8e66-62f6a3160b5b .axis text{font-family:Consolas,"Liberation Mono",Menlo,Courier,monospace;font-size:10px}#chart-d3ac54d4-71d7-4497-8e66-62f6a3160b5b .axis text.major{font-family:Consolas,"Liberation Mono",Menlo,Courier,monospace;font-size:10px}#chart-d3ac54d4-71d7-4497-8e66-62f6a3160b5b .text-overlay text.value{font-family:Consolas,"Liberation Mono",Menlo,Courier,monospace;font-size:16px}#chart-d3ac54d4-71d7-4497-8e66-62f6a3160b5b .text-overlay text.label{font-family:Consolas,"Liberation Mono",Menlo,Courier,monospace;font-size:10px}#chart-d3ac54d4-71d7-4497-8e66-62f6a3160b5b .tooltip{font-family:Consolas,"Liberation Mono",Menlo,Courier,monospace;font-size:14px}#chart-d3ac54d4-71d7-4497-8e66-62f6a3160b5b text.no_data{font-family:Consolas,"Liberation Mono",Menlo,Courier,monospace;font-size:64px}
#chart-d3ac54d4-71d7-4497-8e66-62f6a3160b5b{background-color:rgba(249,249,249,1)}#chart-d3ac54d4-71d7-4497-8e66-62f6a3160b5b path,#chart-d3ac54d4-71d7-4497-8e66-62f6a3160b5b line,#chart-d3ac54d4-71d7-4497-8e66-62f6a3160b5b rect,#chart-d3ac54d4-71d7-4497-8e66-62f6a3160b5b circle{-webkit-transition:150ms;-moz-transition:150ms;transition:150ms}#chart-d3ac54d4-71d7-4497-8e66-62f6a3160b5b .graph &gt; .background{fill:rgba(249,249,249,1)}#chart-d3ac54d4-71d7-4497-8e66-62f6a3160b5b .plot &gt; .background{fill:rgba(255,255,255,1)}#chart-d3ac54d4-71d7-4497-8e66-62f6a3160b5b .graph{fill:rgba(0,0,0,.87)}#chart-d3ac54d4-71d7-4497-8e66-62f6a3160b5b text.no_data{fill:rgba(0,0,0,1)}#chart-d3ac54d4-71d7-4497-8e66-62f6a3160b5b .title{fill:rgba(0,0,0,1)}#chart-d3ac54d4-71d7-4497-8e66-62f6a3160b5b .legends .legend text{fill:rgba(0,0,0,.87)}#chart-d3ac54d4-71d7-4497-8e66-62f6a3160b5b .legends .legend:hover text{fill:rgba(0,0,0,1)}#chart-d3ac54d4-71d7-4497-8e66-62f6a3160b5b .axis .line{stroke:rgba(0,0,0,1)}#chart-d3ac54d4-71d7-4497-8e66-62f6a3160b5b .axis .guide.line{stroke:rgba(0,0,0,.54)}#chart-d3ac54d4-71d7-4497-8e66-62f6a3160b5b .axis .major.line{stroke:rgba(0,0,0,.87)}#chart-d3ac54d4-71d7-4497-8e66-62f6a3160b5b .axis text.major{fill:rgba(0,0,0,1)}#chart-d3ac54d4-71d7-4497-8e66-62f6a3160b5b .axis.y .guides:hover .guide.line,#chart-d3ac54d4-71d7-4497-8e66-62f6a3160b5b .line-graph .axis.x .guides:hover .guide.line,#chart-d3ac54d4-71d7-4497-8e66-62f6a3160b5b .stackedline-graph .axis.x .guides:hover .guide.line,#chart-d3ac54d4-71d7-4497-8e66-62f6a3160b5b .xy-graph .axis.x .guides:hover .guide.line{stroke:rgba(0,0,0,1)}#chart-d3ac54d4-71d7-4497-8e66-62f6a3160b5b .axis .guides:hover text{fill:rgba(0,0,0,1)}#chart-d3ac54d4-71d7-4497-8e66-62f6a3160b5b .reactive{fill-opacity:.7;stroke-opacity:.8}#chart-d3ac54d4-71d7-4497-8e66-62f6a3160b5b .ci{stroke:rgba(0,0,0,.87)}#chart-d3ac54d4-71d7-4497-8e66-62f6a3160b5b .reactive.active,#chart-d3ac54d4-71d7-4497-8e66-62f6a3160b5b .active .reactive{fill-opacity:.8;stroke-opacity:.9;stroke-width:4}#chart-d3ac54d4-71d7-4497-8e66-62f6a3160b5b .ci .reactive.active{stroke-width:1.5}#chart-d3ac54d4-71d7-4497-8e66-62f6a3160b5b .series text{fill:rgba(0,0,0,1)}#chart-d3ac54d4-71d7-4497-8e66-62f6a3160b5b .tooltip rect{fill:rgba(255,255,255,1);stroke:rgba(0,0,0,1);-webkit-transition:opacity 150ms;-moz-transition:opacity 150ms;transition:opacity 150ms}#chart-d3ac54d4-71d7-4497-8e66-62f6a3160b5b .tooltip .label{fill:rgba(0,0,0,.87)}#chart-d3ac54d4-71d7-4497-8e66-62f6a3160b5b .tooltip .label{fill:rgba(0,0,0,.87)}#chart-d3ac54d4-71d7-4497-8e66-62f6a3160b5b .tooltip .legend{font-size:.8em;fill:rgba(0,0,0,.54)}#chart-d3ac54d4-71d7-4497-8e66-62f6a3160b5b .tooltip .x_label{font-size:.6em;fill:rgba(0,0,0,1)}#chart-d3ac54d4-71d7-4497-8e66-62f6a3160b5b .tooltip .xlink{font-size:.5em;text-decoration:underline}#chart-d3ac54d4-71d7-4497-8e66-62f6a3160b5b .tooltip .value{font-size:1.5em}#chart-d3ac54d4-71d7-4497-8e66-62f6a3160b5b .bound{font-size:.5em}#chart-d3ac54d4-71d7-4497-8e66-62f6a3160b5b .max-value{font-size:.75em;fill:rgba(0,0,0,.54)}#chart-d3ac54d4-71d7-4497-8e66-62f6a3160b5b .map-element{fill:rgba(255,255,255,1);stroke:rgba(0,0,0,.54) !important}#chart-d3ac54d4-71d7-4497-8e66-62f6a3160b5b .map-element .reactive{fill-opacity:inherit;stroke-opacity:inherit}#chart-d3ac54d4-71d7-4497-8e66-62f6a3160b5b .color-0,#chart-d3ac54d4-71d7-4497-8e66-62f6a3160b5b .color-0 a:visited{stroke:#e86fa0;fill:#e86fa0}#chart-d3ac54d4-71d7-4497-8e66-62f6a3160b5b .text-overlay .color-0 text{fill:black}
#chart-d3ac54d4-71d7-4497-8e66-62f6a3160b5b text.no_data{text-anchor:middle}#chart-d3ac54d4-71d7-4497-8e66-62f6a3160b5b .guide.line{fill:none}#chart-d3ac54d4-71d7-4497-8e66-62f6a3160b5b .centered{text-anchor:middle}#chart-d3ac54d4-71d7-4497-8e66-62f6a3160b5b .title{text-anchor:middle}#chart-d3ac54d4-71d7-4497-8e66-62f6a3160b5b .legends .legend text{fill-opacity:1}#chart-d3ac54d4-71d7-4497-8e66-62f6a3160b5b .axis.x text{text-anchor:middle}#chart-d3ac54d4-71d7-4497-8e66-62f6a3160b5b .axis.x:not(.web) text[transform]{text-anchor:start}#chart-d3ac54d4-71d7-4497-8e66-62f6a3160b5b .axis.x:not(.web) text[transform].backwards{text-anchor:end}#chart-d3ac54d4-71d7-4497-8e66-62f6a3160b5b .axis.y text{text-anchor:end}#chart-d3ac54d4-71d7-4497-8e66-62f6a3160b5b .axis.y text[transform].backwards{text-anchor:start}#chart-d3ac54d4-71d7-4497-8e66-62f6a3160b5b .axis.y2 text{text-anchor:start}#chart-d3ac54d4-71d7-4497-8e66-62f6a3160b5b .axis.y2 text[transform].backwards{text-anchor:end}#chart-d3ac54d4-71d7-4497-8e66-62f6a3160b5b .axis .guide.line{stroke-dasharray:4,4}#chart-d3ac54d4-71d7-4497-8e66-62f6a3160b5b .axis .major.guide.line{stroke-dasharray:6,6}#chart-d3ac54d4-71d7-4497-8e66-62f6a3160b5b .horizontal .axis.y .guide.line,#chart-d3ac54d4-71d7-4497-8e66-62f6a3160b5b .horizontal .axis.y2 .guide.line,#chart-d3ac54d4-71d7-4497-8e66-62f6a3160b5b .vertical .axis.x .guide.line{opacity:0}#chart-d3ac54d4-71d7-4497-8e66-62f6a3160b5b .horizontal .axis.always_show .guide.line,#chart-d3ac54d4-71d7-4497-8e66-62f6a3160b5b .vertical .axis.always_show .guide.line{opacity:1 !important}#chart-d3ac54d4-71d7-4497-8e66-62f6a3160b5b .axis.y .guides:hover .guide.line,#chart-d3ac54d4-71d7-4497-8e66-62f6a3160b5b .axis.y2 .guides:hover .guide.line,#chart-d3ac54d4-71d7-4497-8e66-62f6a3160b5b .axis.x .guides:hover .guide.line{opacity:1}#chart-d3ac54d4-71d7-4497-8e66-62f6a3160b5b .axis .guides:hover text{opacity:1}#chart-d3ac54d4-71d7-4497-8e66-62f6a3160b5b .nofill{fill:none}#chart-d3ac54d4-71d7-4497-8e66-62f6a3160b5b .subtle-fill{fill-opacity:.2}#chart-d3ac54d4-71d7-4497-8e66-62f6a3160b5b .dot{stroke-width:1px;fill-opacity:1}#chart-d3ac54d4-71d7-4497-8e66-62f6a3160b5b .dot.active{stroke-width:5px}#chart-d3ac54d4-71d7-4497-8e66-62f6a3160b5b .dot.negative{fill:transparent}#chart-d3ac54d4-71d7-4497-8e66-62f6a3160b5b text,#chart-d3ac54d4-71d7-4497-8e66-62f6a3160b5b tspan{stroke:none !important}#chart-d3ac54d4-71d7-4497-8e66-62f6a3160b5b .series text.active{opacity:1}#chart-d3ac54d4-71d7-4497-8e66-62f6a3160b5b .tooltip rect{fill-opacity:.95;stroke-width:.5}#chart-d3ac54d4-71d7-4497-8e66-62f6a3160b5b .tooltip text{fill-opacity:1}#chart-d3ac54d4-71d7-4497-8e66-62f6a3160b5b .showable{visibility:hidden}#chart-d3ac54d4-71d7-4497-8e66-62f6a3160b5b .showable.shown{visibility:visible}#chart-d3ac54d4-71d7-4497-8e66-62f6a3160b5b .gauge-background{fill:rgba(229,229,229,1);stroke:none}#chart-d3ac54d4-71d7-4497-8e66-62f6a3160b5b .bg-lines{stroke:rgba(249,249,249,1);stroke-width:2px}</style><script type="text/javascript">window.pygal = window.pygal || {};window.pygal.config = window.pygal.config || {};window.pygal.config['d3ac54d4-71d7-4497-8e66-62f6a3160b5b'] = {"no_data_text": "No data", "no_prefix": false, "xrange": null, "print_values_position": "center", "truncate_label": null, "x_labels": ["2549", "2550", "2551", "2552", "2553", "2554", "2555", "2556", "2557", "2558"], "title": null, "force_uri_protocol": "https", "defs": [], "formatter": null, "classes": ["pygal-chart"], "y_labels": null, "rounded_bars": null, "explicit_size": false, "x_labels_major_every": null, "legend_at_bottom_columns": null, "stroke_style": null, "half_pie": false, "spacing": 10, "tooltip_fancy_mode": true, "inverse_y_axis": false, "width": 800, "inner_radius": 0, "interpolation_parameters": {}, "tooltip_border_radius": 0, "style": {"no_data_font_family": "Consolas, \"Liberation Mono\", Menlo, Courier, monospace", "tooltip_font_size": 14, "tooltip_font_family": "Consolas, \"Liberation Mono\", Menlo, Courier, monospace", "stroke_opacity_hover": ".9", "legend_font_family": "Consolas, \"Liberation Mono\", Menlo, Courier, monospace", "font_family": "Consolas, \"Liberation Mono\", Menlo, Courier, monospace", "title_font_family": "Consolas, \"Liberation Mono\", Menlo, Courier, monospace", "background": "rgba(249, 249, 249, 1)", "stroke_opacity": ".8", "foreground": "rgba(0, 0, 0, .87)", "value_background": "rgba(229, 229, 229, 1)", "guide_stroke_dasharray": "4,4", "foreground_subtle": "rgba(0, 0, 0, .54)", "opacity_hover": ".8", "value_font_family": "Consolas, \"Liberation Mono\", Menlo, Courier, monospace", "value_label_font_size": 10, "plot_background": "rgba(255, 255, 255, 1)", "ci_colors": [], "label_font_size": 10, "major_label_font_size": 10, "title_font_size": 16, "no_data_font_size": 64, "value_font_size": 16, "value_colors": [], "label_font_family": "Consolas, \"Liberation Mono\", Menlo, Courier, monospace", "major_guide_stroke_dasharray": "6,6", "transition": "150ms", "foreground_strong": "rgba(0, 0, 0, 1)", "colors": ["#e86fa0", "#e88f6f", "#e8df6f", "#a0e86f", "#6fe88f", "#6fe8df", "#6fa0e8", "#8f6fe8", "#df6fe8", "#e86fa0"], "opacity": ".7", "legend_font_size": 14, "value_label_font_family": "Consolas, \"Liberation Mono\", Menlo, Courier, monospace", "major_label_font_family": "Consolas, \"Liberation Mono\", Menlo, Courier, monospace"}, "x_labels_major_count": null, "interpolation_precision": 250, "missing_value_fill_truncation": "x", "stack_from_top": false, "truncate_legend": null, "show_minor_x_labels": true, "print_zeroes": true, "css": ["file://style.css", "file://graph.css"], "y_label_rotation": 0, "legend_at_bottom": false, "print_values": false, "margin_top": null, "max_scale": 16, "allow_interruptions": false, "show_x_labels": true, "strict": false, "show_x_guides": false, "stroke": true, "margin_left": null, "dynamic_print_values": false, "print_labels": false, "show_y_labels": true, "x_labels_major": null, "range": null, "x_label_rotation": 0, "margin": 20, "zero": 0, "include_x_axis": false, "height": 600, "show_minor_y_labels": true, "show_dots": true, "interpolate": "cubic", "show_y_guides": true, "y_labels_major": null, "box_mode": "extremes", "margin_bottom": null, "order_min": null, "legend_box_size": 12, "fill": true, "show_only_major_dots": false, "js": ["//kozea.github.io/pygal.js/2.0.x/pygal-tooltips.min.js"], "x_title": null, "y_labels_major_every": null, "y_labels_major_count": null, "disable_xml_declaration": false, "y_title": null, "logarithmic": false, "pretty_print": false, "min_scale": 4, "dots_size": 2.5, "margin_right": null, "legends": [null], "secondary_range": null, "show_legend": false}</script><script type="text/javascript" xlink:href="https://kozea.github.io/pygal.js/2.0.x/pygal-tooltips.min.js" /></defs><title>Pygal</title><g class="graph stackedline-graph vertical"><rect class="background" height="600" width="800" x="0" y="0" /><g class="plot" transform="translate(60, 20)"><rect class="background" height="540" width="720.0" x="0" y="0" /><g class="axis y"><path class="line" d="M0.000000 540.000000 h720.000000" /><g class="guides"><path class="guide line" d="M0.000000 522.844452 h720.000000" /><text class="" x="-5" y="526.3444522761596">600M</text><title>600M</title></g><g class="guides"><path class="guide line" d="M0.000000 433.237538 h720.000000" /><text class="" x="-5" y="436.7375377026022">700M</text><title>700M</title></g><g class="guides"><path class="guide line" d="M0.000000 343.630623 h720.000000" /><text class="" x="-5" y="347.1306231290448">800M</text><title>800M</title></g><g class="guides"><path class="guide line" d="M0.000000 254.023709 h720.000000" /><text class="" x="-5" y="257.5237085554873">900M</text><title>900M</title></g><g class="guides"><path class="major guide line" d="M0.000000 164.416794 h720.000000" /><text class="major" x="-5" y="167.91679398192986">1000M</text><title>1000M</title></g><g class="guides"><path class="guide line" d="M0.000000 74.809879 h720.000000" /><text class="" x="-5" y="78.30987940837252">1100M</text><title>1100M</title></g></g><g class="axis x"><g class="guides"><path class="line" d="M13.846154 0.000000 v540.000000" /><text class="" x="13.846153846153847" y="555.0">2549</text></g><g class="guides"><path class="guide line" d="M90.769231 0.000000 v540.000000" /><text class="" x="90.76923076923076" y="555.0">2550</text></g><g class="guides"><path class="guide line" d="M167.692308 0.000000 v540.000000" /><text class="" x="167.69230769230765" y="555.0">2551</text></g><g class="guides"><path class="guide line" d="M244.615385 0.000000 v540.000000" /><text class="" x="244.6153846153846" y="555.0">2552</text></g><g class="guides"><path class="guide line" d="M321.538462 0.000000 v540.000000" /><text class="" x="321.5384615384615" y="555.0">2553</text></g><g class="guides"><path class="guide line" d="M398.461538 0.000000 v540.000000" /><text class="" x="398.46153846153845" y="555.0">2554</text></g><g class="guides"><path class="guide line" d="M475.384615 0.000000 v540.000000" /><text class="" x="475.38461538461536" y="555.0">2555</text></g><g class="guides"><path class="guide line" d="M552.307692 0.000000 v540.000000" /><text class="" x="552.3076923076923" y="555.0">2556</text></g><g class="guides"><path class="guide line" d="M629.230769 0.000000 v540.000000" /><text class="" x="629.2307692307692" y="555.0">2557</text></g><g class="guides"><path class="guide line" d="M706.153846 0.000000 v540.000000" /><text class="" x="706.1538461538461" y="555.0">2558</text></g></g><g class="series serie-0 color-0"><path class="line reactive" d="M13.846154 540.000000 L13.846154 529.615385 14.153846 529.439138 14.461538 529.262892 14.769231 529.086648 15.076923 528.910407 15.384615 528.734170 15.692308 528.557938 16.000000 528.381711 16.307692 528.205491 16.615385 528.029279 16.923077 527.853075 17.230769 527.676880 17.538462 527.500696 17.846154 527.324524 18.153846 527.148364 18.461538 526.972217 18.769231 526.796084 19.076923 526.619967 19.384615 526.443866 19.692308 526.267782 20.000000 526.091716 20.307692 525.915669 20.615385 525.739642 20.923077 525.563636 21.230769 525.387652 21.538462 525.211690 21.846154 525.035753 22.153846 524.859840 22.461538 524.683953 22.769231 524.508092 23.076923 524.332259 23.384615 524.156455 23.692308 523.980680 24.000000 523.804935 24.307692 523.629222 24.615385 523.453541 24.923077 523.277894 25.230769 523.102280 25.538462 522.926702 25.846154 522.751160 26.153846 522.575655 26.461538 522.400188 26.769231 522.224761 27.076923 522.049373 27.384615 521.874026 27.692308 521.698720 28.000000 521.523458 28.307692 521.348239 28.615385 521.173066 28.923077 520.997937 29.230769 520.822856 29.538462 520.647821 29.846154 520.472836 30.153846 520.297900 30.461538 520.123014 30.769231 519.948179 31.076923 519.773397 31.384615 519.598668 31.692308 519.423994 32.000000 519.249374 32.307692 519.074811 32.615385 518.900305 32.923077 518.725856 33.230769 518.551467 33.538462 518.377137 33.846154 518.202869 34.153846 518.028662 34.461538 517.854518 34.769231 517.680438 35.076923 517.506422 35.384615 517.332472 35.692308 517.158589 36.000000 516.984773 36.307692 516.811026 36.615385 516.637348 36.923077 516.463740 37.230769 516.290204 37.538462 516.116740 37.846154 515.943349 38.153846 515.770032 38.461538 515.596791 38.769231 515.423625 39.076923 515.250537 39.384615 515.077527 39.692308 514.904595 40.000000 514.731744 40.307692 514.558973 40.615385 514.386284 40.923077 514.213678 41.230769 514.041155 41.538462 513.868717 41.846154 513.696365 42.153846 513.524099 42.461538 513.351921 42.769231 513.179831 43.076923 513.007831 43.384615 512.835921 43.692308 512.664102 44.000000 512.492376 44.307692 512.320742 44.615385 512.149203 44.923077 511.977759 45.230769 511.806411 45.538462 511.635160 45.846154 511.464007 46.153846 511.292953 46.461538 511.121999 46.769231 510.951145 47.076923 510.780393 47.384615 510.609744 47.692308 510.439199 48.000000 510.268758 48.307692 510.098423 48.615385 509.928194 48.923077 509.758073 49.230769 509.588060 49.538462 509.418157 49.846154 509.248364 50.153846 509.078682 50.461538 508.909112 50.769231 508.739656 51.076923 508.570314 51.384615 508.401086 51.692308 508.231975 52.000000 508.062981 52.307692 507.894105 52.615385 507.725347 52.923077 507.556710 53.230769 507.388193 53.538462 507.219798 53.846154 507.051525 54.153846 506.883376 54.461538 506.715352 54.769231 506.547454 55.076923 506.379681 55.384615 506.212037 55.692308 506.044520 56.000000 505.877133 56.307692 505.709876 56.615385 505.542751 56.923077 505.375758 57.230769 505.208897 57.538462 505.042171 57.846154 504.875580 58.153846 504.709125 58.461538 504.542807 58.769231 504.376627 59.076923 504.210586 59.384615 504.044684 59.692308 503.878923 60.000000 503.713304 60.307692 503.547828 60.615385 503.382495 60.923077 503.217306 61.230769 503.052264 61.538462 502.887367 61.846154 502.722618 62.153846 502.558018 62.461538 502.393567 62.769231 502.229266 63.076923 502.065116 63.384615 501.901118 63.692308 501.737274 64.000000 501.573583 64.307692 501.410048 64.615385 501.246668 64.923077 501.083446 65.230769 500.920381 65.538462 500.757475 65.846154 500.594729 66.153846 500.432144 66.461538 500.269720 66.769231 500.107459 67.076923 499.945361 67.384615 499.783429 67.692308 499.621661 68.000000 499.460060 68.307692 499.298626 68.615385 499.137361 68.923077 498.976265 69.230769 498.815339 69.538462 498.654584 69.846154 498.494002 70.153846 498.333592 70.461538 498.173357 70.769231 498.013296 71.076923 497.853412 71.384615 497.693704 71.692308 497.534175 72.000000 497.374824 72.307692 497.215652 72.615385 497.056662 72.923077 496.897853 73.230769 496.739227 73.538462 496.580784 73.846154 496.422526 74.153846 496.264453 74.461538 496.106566 74.769231 495.948867 75.076923 495.791357 75.384615 495.634035 75.692308 495.476904 76.000000 495.319964 76.307692 495.163215 76.615385 495.006660 76.923077 494.850300 77.230769 494.694133 77.538462 494.538163 77.846154 494.382390 78.153846 494.226815 78.461538 494.071438 78.769231 493.916261 79.076923 493.761285 79.384615 493.606510 79.692308 493.451938 80.000000 493.297569 80.307692 493.143405 80.615385 492.989446 80.923077 492.835694 81.230769 492.682149 81.538462 492.528812 81.846154 492.375685 82.153846 492.222767 82.461538 492.070061 82.769231 491.917567 83.076923 491.765286 83.384615 491.613219 83.692308 491.461366 84.000000 491.309730 84.307692 491.158310 84.615385 491.007109 84.923077 490.856126 85.230769 490.705362 85.538462 490.554820 85.846154 490.404499 86.153846 490.254400 86.461538 490.104525 86.769231 489.954874 87.076923 489.805449 87.384615 489.656250 87.692308 489.507278 88.000000 489.358535 88.307692 489.210021 88.615385 489.061737 88.923077 488.913684 89.230769 488.765863 89.538462 488.618275 89.846154 488.470921 90.153846 488.323802 90.461538 488.176919 90.769231 488.030273 91.076923 487.883863 91.384615 487.737687 91.692308 487.591740 92.000000 487.446018 92.307692 487.300517 92.615385 487.155232 92.923077 487.010159 93.230769 486.865294 93.538462 486.720633 93.846154 486.576170 94.153846 486.431903 94.461538 486.287827 94.769231 486.143936 95.076923 486.000228 95.384615 485.856698 95.692308 485.713342 96.000000 485.570154 96.307692 485.427132 96.615385 485.284271 96.923077 485.141565 97.230769 484.999013 97.538462 484.856608 97.846154 484.714346 98.153846 484.572224 98.461538 484.430237 98.769231 484.288381 99.076923 484.146652 99.384615 484.005044 99.692308 483.863555 100.000000 483.722179 100.307692 483.580913 100.615385 483.439752 100.923077 483.298691 101.230769 483.157728 101.538462 483.016856 101.846154 482.876073 102.153846 482.735373 102.461538 482.594753 102.769231 482.454208 103.076923 482.313734 103.384615 482.173326 103.692308 482.032981 104.000000 481.892694 104.307692 481.752460 104.615385 481.612277 104.923077 481.472138 105.230769 481.332040 105.538462 481.191979 105.846154 481.051951 106.153846 480.911950 106.461538 480.771974 106.769231 480.632017 107.076923 480.492075 107.384615 480.352144 107.692308 480.212220 108.000000 480.072298 108.307692 479.932375 108.615385 479.792445 108.923077 479.652505 109.230769 479.512551 109.538462 479.372577 109.846154 479.232581 110.153846 479.092556 110.461538 478.952500 110.769231 478.812408 111.076923 478.672276 111.384615 478.532099 111.692308 478.391873 112.000000 478.251594 112.307692 478.111257 112.615385 477.970859 112.923077 477.830395 113.230769 477.689860 113.538462 477.549251 113.846154 477.408563 114.153846 477.267792 114.461538 477.126934 114.769231 476.985984 115.076923 476.844938 115.384615 476.703791 115.692308 476.562540 116.000000 476.421181 116.307692 476.279708 116.615385 476.138118 116.923077 475.996407 117.230769 475.854569 117.538462 475.712601 117.846154 475.570499 118.153846 475.428258 118.461538 475.285875 118.769231 475.143343 119.076923 475.000661 119.384615 474.857822 119.692308 474.714823 120.000000 474.571660 120.307692 474.428328 120.615385 474.284824 120.923077 474.141142 121.230769 473.997278 121.538462 473.853229 121.846154 473.708989 122.153846 473.564556 122.461538 473.419923 122.769231 473.275088 123.076923 473.130045 123.384615 472.984792 123.692308 472.839322 124.000000 472.693632 124.307692 472.547718 124.615385 472.401576 124.923077 472.255200 125.230769 472.108588 125.538462 471.961734 125.846154 471.814634 126.153846 471.667284 126.461538 471.519681 126.769231 471.371818 127.076923 471.223693 127.384615 471.075301 127.692308 470.926637 128.000000 470.777698 128.307692 470.628479 128.615385 470.478975 128.923077 470.329183 129.230769 470.179099 129.538462 470.028717 129.846154 469.878034 130.153846 469.727046 130.461538 469.575747 130.769231 469.424135 131.076923 469.272204 131.384615 469.119950 131.692308 468.967369 132.000000 468.814457 132.307692 468.661210 132.615385 468.507623 132.923077 468.353691 133.230769 468.199412 133.538462 468.044779 133.846154 467.889790 134.153846 467.734440 134.461538 467.578724 134.769231 467.422638 135.076923 467.266178 135.384615 467.109340 135.692308 466.952120 136.000000 466.794512 136.307692 466.636513 136.615385 466.478119 136.923077 466.319325 137.230769 466.160128 137.538462 466.000522 137.846154 465.840503 138.153846 465.680067 138.461538 465.519211 138.769231 465.357929 139.076923 465.196217 139.384615 465.034072 139.692308 464.871488 140.000000 464.708462 140.307692 464.544989 140.615385 464.381065 140.923077 464.216686 141.230769 464.051847 141.538462 463.886544 141.846154 463.720773 142.153846 463.554530 142.461538 463.387809 142.769231 463.220608 143.076923 463.052922 143.384615 462.884746 143.692308 462.716076 144.000000 462.546908 144.307692 462.377238 144.615385 462.207061 144.923077 462.036373 145.230769 461.865170 145.538462 461.693447 145.846154 461.521201 146.153846 461.348427 146.461538 461.175120 146.769231 461.001277 147.076923 460.826892 147.384615 460.651963 147.692308 460.476484 148.000000 460.300451 148.307692 460.123861 148.615385 459.946708 148.923077 459.768988 149.230769 459.590698 149.538462 459.411833 149.846154 459.232388 150.153846 459.052359 150.461538 458.871743 150.769231 458.690534 151.076923 458.508729 151.384615 458.326323 151.692308 458.143312 152.000000 457.959692 152.307692 457.775458 152.615385 457.590606 152.923077 457.405132 153.230769 457.219031 153.538462 457.032300 153.846154 456.844934 154.153846 456.656928 154.461538 456.468279 154.769231 456.278982 155.076923 456.089033 155.384615 455.898428 155.692308 455.707162 156.000000 455.515231 156.307692 455.322630 156.615385 455.129356 156.923077 454.935405 157.230769 454.740771 157.538462 454.545451 157.846154 454.349440 158.153846 454.152734 158.461538 453.955330 158.769231 453.757221 159.076923 453.558405 159.384615 453.358877 159.692308 453.158633 160.000000 452.957668 160.307692 452.755978 160.615385 452.553559 160.923077 452.350407 161.230769 452.146517 161.538462 451.941885 161.846154 451.736507 162.153846 451.530378 162.461538 451.323494 162.769231 451.115852 163.076923 450.907446 163.384615 450.698272 163.692308 450.488327 164.000000 450.277605 164.307692 450.066103 164.615385 449.853816 164.923077 449.640740 165.230769 449.426870 165.538462 449.212204 165.846154 448.996735 166.153846 448.780460 166.461538 448.563375 166.769231 448.345475 167.076923 448.126756 167.384615 447.907213 167.692308 447.686844 168.000000 447.465643 168.307692 447.243615 168.615385 447.020762 168.923077 446.797089 169.230769 446.572599 169.538462 446.347296 169.846154 446.121184 170.153846 445.894265 170.461538 445.666546 170.769231 445.438028 171.076923 445.208715 171.384615 444.978612 171.692308 444.747723 172.000000 444.516050 172.307692 444.283597 172.615385 444.050369 172.923077 443.816370 173.230769 443.581602 173.538462 443.346070 173.846154 443.109777 174.153846 442.872727 174.461538 442.634924 174.769231 442.396372 175.076923 442.157074 175.384615 441.917034 175.692308 441.676256 176.000000 441.434743 176.307692 441.192500 176.615385 440.949530 176.923077 440.705837 177.230769 440.461424 177.538462 440.216296 177.846154 439.970455 178.153846 439.723907 178.461538 439.476654 178.769231 439.228700 179.076923 438.980050 179.384615 438.730706 179.692308 438.480673 180.000000 438.229954 180.307692 437.978553 180.615385 437.726474 180.923077 437.473720 181.230769 437.220296 181.538462 436.966205 181.846154 436.711450 182.153846 436.456036 182.461538 436.199966 182.769231 435.943245 183.076923 435.685874 183.384615 435.427860 183.692308 435.169205 184.000000 434.909912 184.307692 434.649987 184.615385 434.389432 184.923077 434.128251 185.230769 433.866448 185.538462 433.604027 185.846154 433.340991 186.153846 433.077344 186.461538 432.813091 186.769231 432.548234 187.076923 432.282778 187.384615 432.016725 187.692308 431.750081 188.000000 431.482849 188.307692 431.215031 188.615385 430.946633 188.923077 430.677658 189.230769 430.408110 189.538462 430.137992 189.846154 429.867308 190.153846 429.596062 190.461538 429.324258 190.769231 429.051899 191.076923 428.778990 191.384615 428.505533 191.692308 428.231533 192.000000 427.956993 192.307692 427.681917 192.615385 427.406309 192.923077 427.130173 193.230769 426.853512 193.538462 426.576331 193.846154 426.298632 194.153846 426.020420 194.461538 425.741698 194.769231 425.462470 195.076923 425.182740 195.384615 424.902512 195.692308 424.621789 196.000000 424.340575 196.307692 424.058874 196.615385 423.776690 196.923077 423.494026 197.230769 423.210886 197.538462 422.927273 197.846154 422.643193 198.153846 422.358647 198.461538 422.073641 198.769231 421.788177 199.076923 421.502261 199.384615 421.215894 199.692308 420.929081 200.000000 420.641826 200.307692 420.354133 200.615385 420.066005 200.923077 419.777446 201.230769 419.488460 201.538462 419.199050 201.846154 418.909220 202.153846 418.618975 202.461538 418.328317 202.769231 418.037251 203.076923 417.745780 203.384615 417.453908 203.692308 417.161639 204.000000 416.868976 204.307692 416.575923 204.615385 416.282485 204.923077 415.988664 205.230769 415.694465 205.538462 415.399891 205.846154 415.104945 206.153846 414.809633 206.461538 414.513957 206.769231 414.217921 207.076923 413.921529 207.384615 413.624785 207.692308 413.327692 208.000000 413.030255 208.307692 412.732476 208.615385 412.434360 208.923077 412.135910 209.230769 411.837131 209.538462 411.538026 209.846154 411.238598 210.153846 410.938851 210.461538 410.638790 210.769231 410.338418 211.076923 410.037738 211.384615 409.736755 211.692308 409.435472 212.000000 409.133892 212.307692 408.832021 212.615385 408.529860 212.923077 408.227415 213.230769 407.924689 213.538462 407.621685 213.846154 407.318408 214.153846 407.014861 214.461538 406.711047 214.769231 406.406972 215.076923 406.102637 215.384615 405.798048 215.692308 405.493208 216.000000 405.188120 216.307692 404.882788 216.615385 404.577217 216.923077 404.271409 217.230769 403.965369 217.538462 403.659100 217.846154 403.352606 218.153846 403.045891 218.461538 402.738959 218.769231 402.431813 219.076923 402.124457 219.384615 401.816895 219.692308 401.509130 220.000000 401.201166 220.307692 400.893008 220.615385 400.584658 220.923077 400.276121 221.230769 399.967400 221.538462 399.658500 221.846154 399.349422 222.153846 399.040173 222.461538 398.730755 222.769231 398.421171 223.076923 398.111427 223.384615 397.801525 223.692308 397.491469 224.000000 397.181263 224.307692 396.870911 224.615385 396.560416 224.923077 396.249783 225.230769 395.939014 225.538462 395.628114 225.846154 395.317087 226.153846 395.005936 226.461538 394.694665 226.769231 394.383277 227.076923 394.071777 227.384615 393.760169 227.692308 393.448455 228.000000 393.136640 228.307692 392.824727 228.615385 392.512720 228.923077 392.200624 229.230769 391.888441 229.538462 391.576175 229.846154 391.263830 230.153846 390.951411 230.461538 390.638920 230.769231 390.326362 231.076923 390.013739 231.384615 389.701057 231.692308 389.388318 232.000000 389.075527 232.307692 388.762686 232.615385 388.449801 232.923077 388.136874 233.230769 387.823909 233.538462 387.510911 233.846154 387.197883 234.153846 386.884828 234.461538 386.571750 234.769231 386.258654 235.076923 385.945542 235.384615 385.632419 235.692308 385.319289 236.000000 385.006154 236.307692 384.693019 236.615385 384.379888 236.923077 384.066764 237.230769 383.753651 237.538462 383.440553 237.846154 383.127474 238.153846 382.814417 238.461538 382.501386 238.769231 382.188384 239.076923 381.875417 239.384615 381.562486 239.692308 381.249597 240.000000 380.936752 240.307692 380.623956 240.615385 380.311212 240.923077 379.998524 241.230769 379.685896 241.538462 379.373332 241.846154 379.060834 242.153846 378.748408 242.461538 378.436057 242.769231 378.123783 243.076923 377.811593 243.384615 377.499488 243.692308 377.187473 244.000000 376.875551 244.307692 376.563727 244.615385 376.252003 244.923077 375.940384 245.230769 375.628873 245.538462 375.317471 245.846154 375.006182 246.153846 374.695008 246.461538 374.383951 246.769231 374.073015 247.076923 373.762202 247.384615 373.451514 247.692308 373.140954 248.000000 372.830524 248.307692 372.520228 248.615385 372.210068 248.923077 371.900046 249.230769 371.590164 249.538462 371.280427 249.846154 370.970835 250.153846 370.661392 250.461538 370.352101 250.769231 370.042963 251.076923 369.733982 251.384615 369.425160 251.692308 369.116499 252.000000 368.808003 252.307692 368.499674 252.615385 368.191514 252.923077 367.883526 253.230769 367.575712 253.538462 367.268076 253.846154 366.960619 254.153846 366.653345 254.461538 366.346256 254.769231 366.039354 255.076923 365.732642 255.384615 365.426123 255.692308 365.119799 256.000000 364.813673 256.307692 364.507748 256.615385 364.202026 256.923077 363.896509 257.230769 363.591200 257.538462 363.286103 257.846154 362.981218 258.153846 362.676550 258.461538 362.372100 258.769231 362.067871 259.076923 361.763866 259.384615 361.460088 259.692308 361.156538 260.000000 360.853220 260.307692 360.550135 260.615385 360.247288 260.923077 359.944680 261.230769 359.642313 261.538462 359.340191 261.846154 359.038316 262.153846 358.736691 262.461538 358.435318 262.769231 358.134200 263.076923 357.833339 263.384615 357.532738 263.692308 357.232399 264.000000 356.932326 264.307692 356.632520 264.615385 356.332985 264.923077 356.033723 265.230769 355.734736 265.538462 355.436027 265.846154 355.137599 266.153846 354.839454 266.461538 354.541594 266.769231 354.244024 267.076923 353.946744 267.384615 353.649758 267.692308 353.353068 268.000000 353.056677 268.307692 352.760587 268.615385 352.464801 268.923077 352.169322 269.230769 351.874151 269.538462 351.579293 269.846154 351.284749 270.153846 350.990521 270.461538 350.696613 270.769231 350.403027 271.076923 350.109766 271.384615 349.816832 271.692308 349.524228 272.000000 349.231956 272.307692 348.940019 272.615385 348.648420 272.923077 348.357161 273.230769 348.066245 273.538462 347.775674 273.846154 347.485451 274.153846 347.195578 274.461538 346.906059 274.769231 346.616895 275.076923 346.328090 275.384615 346.039645 275.692308 345.751564 276.000000 345.463849 276.307692 345.176502 276.615385 344.889527 276.923077 344.602926 277.230769 344.316701 277.538462 344.030854 277.846154 343.745390 278.153846 343.460310 278.461538 343.175616 278.769231 342.891311 279.076923 342.607399 279.384615 342.323881 279.692308 342.040760 280.000000 341.758039 280.307692 341.475720 280.615385 341.193806 280.923077 340.912299 281.230769 340.631203 281.538462 340.350519 281.846154 340.070250 282.153846 339.790399 282.461538 339.510968 282.769231 339.231960 283.076923 338.953378 283.384615 338.675224 283.692308 338.397501 284.000000 338.120211 284.307692 337.843357 284.615385 337.566941 284.923077 337.290967 285.230769 337.015436 285.538462 336.740351 285.846154 336.465715 286.153846 336.191531 286.461538 335.917800 286.769231 335.644527 287.076923 335.371712 287.384615 335.099359 287.692308 334.827471 288.000000 334.556049 288.307692 334.285097 288.615385 334.014617 288.923077 333.744612 289.230769 333.475084 289.538462 333.206036 289.846154 332.937470 290.153846 332.669390 290.461538 332.401797 290.769231 332.134694 291.076923 331.868084 291.384615 331.601970 291.692308 331.336353 292.000000 331.071237 292.307692 330.806625 292.615385 330.542518 292.923077 330.278919 293.230769 330.015831 293.538462 329.753257 293.846154 329.491199 294.153846 329.229660 294.461538 328.968642 294.769231 328.708147 295.076923 328.448179 295.384615 328.188741 295.692308 327.929834 296.000000 327.671461 296.307692 327.413624 296.615385 327.156328 296.923077 326.899573 297.230769 326.643363 297.538462 326.387700 297.846154 326.132586 298.153846 325.878025 298.461538 325.624019 298.769231 325.370571 299.076923 325.117682 299.384615 324.865356 299.692308 324.613596 300.000000 324.362403 300.307692 324.111781 300.615385 323.861731 300.923077 323.612258 301.230769 323.363362 301.538462 323.115047 301.846154 322.867316 302.153846 322.620171 302.461538 322.373614 302.769231 322.127648 303.076923 321.882276 303.384615 321.637501 303.692308 321.393324 304.000000 321.149749 304.307692 320.906777 304.615385 320.664413 304.923077 320.422657 305.230769 320.181514 305.538462 319.940985 305.846154 319.701073 306.153846 319.461780 306.461538 319.223110 306.769231 318.985065 307.076923 318.747646 307.384615 318.510858 307.692308 318.274702 308.000000 318.039182 308.307692 317.804299 308.615385 317.570056 308.923077 317.336457 309.230769 317.103503 309.538462 316.871196 309.846154 316.639541 310.153846 316.408538 310.461538 316.178192 310.769231 315.948504 311.076923 315.719477 311.384615 315.491113 311.692308 315.263416 312.000000 315.036387 312.307692 314.810030 312.615385 314.584347 312.923077 314.359340 313.230769 314.135012 313.538462 313.911366 313.846154 313.688404 314.153846 313.466129 314.461538 313.244544 314.769231 313.023651 315.076923 312.803452 315.384615 312.583950 315.692308 312.365149 316.000000 312.147049 316.307692 311.929655 316.615385 311.712968 316.923077 311.496991 317.230769 311.281727 317.538462 311.067179 317.846154 310.853348 318.153846 310.640238 318.461538 310.427851 318.769231 310.216189 319.076923 310.005256 319.384615 309.795053 319.692308 309.585585 320.000000 309.376852 320.307692 309.168857 320.615385 308.961604 320.923077 308.755095 321.230769 308.549332 321.538462 308.344318 321.846154 308.140054 322.153846 307.936533 322.461538 307.733749 322.769231 307.531693 323.076923 307.330357 323.384615 307.129733 323.692308 306.929815 324.000000 306.730593 324.307692 306.532060 324.615385 306.334209 324.923077 306.137032 325.230769 305.940520 325.538462 305.744666 325.846154 305.549462 326.153846 305.354901 326.461538 305.160974 326.769231 304.967674 327.076923 304.774993 327.384615 304.582924 327.692308 304.391457 328.000000 304.200586 328.307692 304.010303 328.615385 303.820600 328.923077 303.631469 329.230769 303.442903 329.538462 303.254893 329.846154 303.067432 330.153846 302.880512 330.461538 302.694125 330.769231 302.508264 331.076923 302.322920 331.384615 302.138086 331.692308 301.953754 332.000000 301.769916 332.307692 301.586565 332.615385 301.403692 332.923077 301.221290 333.230769 301.039351 333.538462 300.857867 333.846154 300.676831 334.153846 300.496234 334.461538 300.316070 334.769231 300.136329 335.076923 299.957004 335.384615 299.778088 335.692308 299.599573 336.000000 299.421450 336.307692 299.243712 336.615385 299.066352 336.923077 298.889361 337.230769 298.712732 337.538462 298.536457 337.846154 298.360527 338.153846 298.184936 338.461538 298.009675 338.769231 297.834737 339.076923 297.660114 339.384615 297.485798 339.692308 297.311781 340.000000 297.138056 340.307692 296.964614 340.615385 296.791449 340.923077 296.618551 341.230769 296.445913 341.538462 296.273528 341.846154 296.101388 342.153846 295.929485 342.461538 295.757810 342.769231 295.586357 343.076923 295.415118 343.384615 295.244084 343.692308 295.073248 344.000000 294.902602 344.307692 294.732138 344.615385 294.561849 344.923077 294.391727 345.230769 294.221763 345.538462 294.051951 345.846154 293.882282 346.153846 293.712748 346.461538 293.543342 346.769231 293.374056 347.076923 293.204883 347.384615 293.035813 347.692308 292.866840 348.000000 292.697956 348.307692 292.529152 348.615385 292.360422 348.923077 292.191757 349.230769 292.023150 349.538462 291.854592 349.846154 291.686076 350.153846 291.517595 350.461538 291.349139 350.769231 291.180703 351.076923 291.012277 351.384615 290.843854 351.692308 290.675426 352.000000 290.506985 352.307692 290.338524 352.615385 290.170035 352.923077 290.001509 353.230769 289.832940 353.538462 289.664320 353.846154 289.495639 354.153846 289.326892 354.461538 289.158069 354.769231 288.989164 355.076923 288.820168 355.384615 288.651073 355.692308 288.481873 356.000000 288.312558 356.307692 288.143122 356.615385 287.973555 356.923077 287.803852 357.230769 287.634003 357.538462 287.464001 357.846154 287.293839 358.153846 287.123507 358.461538 286.953000 358.769231 286.782308 359.076923 286.611424 359.384615 286.440340 359.692308 286.269049 360.000000 286.097542 360.307692 285.925812 360.615385 285.753852 360.923077 285.581652 361.230769 285.409206 361.538462 285.236505 361.846154 285.063542 362.153846 284.890309 362.461538 284.716799 362.769231 284.543003 363.076923 284.368913 363.384615 284.194522 363.692308 284.019822 364.000000 283.844806 364.307692 283.669465 364.615385 283.493791 364.923077 283.317778 365.230769 283.141416 365.538462 282.964699 365.846154 282.787618 366.153846 282.610166 366.461538 282.432334 366.769231 282.254116 367.076923 282.075503 367.384615 281.896487 367.692308 281.717061 368.000000 281.537217 368.307692 281.356947 368.615385 281.176243 368.923077 280.995097 369.230769 280.813502 369.538462 280.631451 369.846154 280.448934 370.153846 280.265944 370.461538 280.082474 370.769231 279.898515 371.076923 279.714061 371.384615 279.529102 371.692308 279.343632 372.000000 279.157642 372.307692 278.971125 372.615385 278.784073 372.923077 278.596478 373.230769 278.408332 373.538462 278.219628 373.846154 278.030357 374.153846 277.840513 374.461538 277.650086 374.769231 277.459069 375.076923 277.267456 375.384615 277.075236 375.692308 276.882404 376.000000 276.688951 376.307692 276.494869 376.615385 276.300151 376.923077 276.104788 377.230769 275.908773 377.538462 275.712099 377.846154 275.514757 378.153846 275.316739 378.461538 275.118038 378.769231 274.918646 379.076923 274.718555 379.384615 274.517757 379.692308 274.316245 380.000000 274.114010 380.307692 273.911046 380.615385 273.707344 380.923077 273.502896 381.230769 273.297694 381.538462 273.091731 381.846154 272.885000 382.153846 272.677491 382.461538 272.469198 382.769231 272.260112 383.076923 272.050226 383.384615 271.839532 383.692308 271.628022 384.000000 271.415688 384.307692 271.202523 384.615385 270.988519 384.923077 270.773668 385.230769 270.557962 385.538462 270.341393 385.846154 270.123954 386.153846 269.905637 386.461538 269.686433 386.769231 269.466336 387.076923 269.245337 387.384615 269.023429 387.692308 268.800603 388.000000 268.576853 388.307692 268.352170 388.615385 268.126546 388.923077 267.899973 389.230769 267.672445 389.538462 267.443952 389.846154 267.214488 390.153846 266.984044 390.461538 266.752612 390.769231 266.520186 391.076923 266.286756 391.384615 266.052316 391.692308 265.816857 392.000000 265.580372 392.307692 265.342852 392.615385 265.104291 392.923077 264.864679 393.230769 264.624010 393.538462 264.382276 393.846154 264.139469 394.153846 263.895580 394.461538 263.650603 394.769231 263.404529 395.076923 263.157351 395.384615 262.909061 395.692308 262.659651 396.000000 262.409113 396.307692 262.157439 396.615385 261.904622 396.923077 261.650654 397.230769 261.395527 397.538462 261.139233 397.846154 260.881765 398.153846 260.623114 398.461538 260.363273 398.769231 260.102237 399.076923 259.840012 399.384615 259.576607 399.692308 259.312030 400.000000 259.046290 400.307692 258.779397 400.615385 258.511359 400.923077 258.242184 401.230769 257.971883 401.538462 257.700462 401.846154 257.427933 402.153846 257.154302 402.461538 256.879579 402.769231 256.603774 403.076923 256.326894 403.384615 256.048948 403.692308 255.769946 404.000000 255.489896 404.307692 255.208807 404.615385 254.926688 404.923077 254.643547 405.230769 254.359394 405.538462 254.074237 405.846154 253.788086 406.153846 253.500948 406.461538 253.212834 406.769231 252.923751 407.076923 252.633708 407.384615 252.342715 407.692308 252.050780 408.000000 251.757911 408.307692 251.464119 408.615385 251.169411 408.923077 250.873797 409.230769 250.577285 409.538462 250.279884 409.846154 249.981603 410.153846 249.682451 410.461538 249.382437 410.769231 249.081569 411.076923 248.779856 411.384615 248.477307 411.692308 248.173932 412.000000 247.869738 412.307692 247.564734 412.615385 247.258930 412.923077 246.952335 413.230769 246.644956 413.538462 246.336804 413.846154 246.027886 414.153846 245.718212 414.461538 245.407790 414.769231 245.096629 415.076923 244.784739 415.384615 244.472127 415.692308 244.158803 416.000000 243.844776 416.307692 243.530054 416.615385 243.214646 416.923077 242.898561 417.230769 242.581809 417.538462 242.264397 417.846154 241.946334 418.153846 241.627630 418.461538 241.308293 418.769231 240.988332 419.076923 240.667757 419.384615 240.346574 419.692308 240.024795 420.000000 239.702426 420.307692 239.379478 420.615385 239.055959 420.923077 238.731878 421.230769 238.407243 421.538462 238.082064 421.846154 237.756349 422.153846 237.430108 422.461538 237.103348 422.769231 236.776080 423.076923 236.448311 423.384615 236.120050 423.692308 235.791307 424.000000 235.462090 424.307692 235.132408 424.615385 234.802270 424.923077 234.471684 425.230769 234.140660 425.538462 233.809207 425.846154 233.477332 426.153846 233.145046 426.461538 232.812356 426.769231 232.479272 427.076923 232.145802 427.384615 231.811956 427.692308 231.477741 428.000000 231.143168 428.307692 230.808245 428.615385 230.472980 428.923077 230.137382 429.230769 229.801461 429.538462 229.465225 429.846154 229.128683 430.153846 228.791844 430.461538 228.454716 430.769231 228.117309 431.076923 227.779631 431.384615 227.441691 431.692308 227.103498 432.000000 226.765061 432.307692 226.426389 432.615385 226.087489 432.923077 225.748373 433.230769 225.409047 433.538462 225.069521 433.846154 224.729804 434.153846 224.389904 434.461538 224.049831 434.769231 223.709593 435.076923 223.369199 435.384615 223.028658 435.692308 222.687979 436.000000 222.347170 436.307692 222.006241 436.615385 221.665200 436.923077 221.324056 437.230769 220.982818 437.538462 220.641494 437.846154 220.300094 438.153846 219.958627 438.461538 219.617100 438.769231 219.275524 439.076923 218.933907 439.384615 218.592257 439.692308 218.250584 440.000000 217.908896 440.307692 217.567202 440.615385 217.225512 440.923077 216.883833 441.230769 216.542175 441.538462 216.200546 441.846154 215.858956 442.153846 215.517413 442.461538 215.175926 442.769231 214.834503 443.076923 214.493155 443.384615 214.151889 443.692308 213.810714 444.000000 213.469639 444.307692 213.128673 444.615385 212.787826 444.923077 212.447104 445.230769 212.106519 445.538462 211.766077 445.846154 211.425789 446.153846 211.085663 446.461538 210.745707 446.769231 210.405931 447.076923 210.066344 447.384615 209.726954 447.692308 209.387770 448.000000 209.048801 448.307692 208.710056 448.615385 208.371543 448.923077 208.033272 449.230769 207.695251 449.538462 207.357489 449.846154 207.019995 450.153846 206.682778 450.461538 206.345846 450.769231 206.009209 451.076923 205.672876 451.384615 205.336854 451.692308 205.001153 452.000000 204.665782 452.307692 204.330749 452.615385 203.996064 452.923077 203.661735 453.230769 203.327772 453.538462 202.994182 453.846154 202.660975 454.153846 202.328159 454.461538 201.995744 454.769231 201.663738 455.076923 201.332150 455.384615 201.000989 455.692308 200.670264 456.000000 200.339983 456.307692 200.010156 456.615385 199.680790 456.923077 199.351896 457.230769 199.023482 457.538462 198.695557 457.846154 198.368129 458.153846 198.041207 458.461538 197.714800 458.769231 197.388918 459.076923 197.063568 459.384615 196.738761 459.692308 196.414503 460.000000 196.090805 460.307692 195.767675 460.615385 195.445122 460.923077 195.123155 461.230769 194.801783 461.538462 194.481014 461.846154 194.160858 462.153846 193.841322 462.461538 193.522417 462.769231 193.204150 463.076923 192.886532 463.384615 192.569569 463.692308 192.253272 464.000000 191.937649 464.307692 191.622709 464.615385 191.308461 464.923077 190.994913 465.230769 190.682075 465.538462 190.369956 465.846154 190.058563 466.153846 189.747906 466.461538 189.437994 466.769231 189.128836 467.076923 188.820440 467.384615 188.512816 467.692308 188.205971 468.000000 187.899916 468.307692 187.594658 468.615385 187.290207 468.923077 186.986571 469.230769 186.683760 469.538462 186.381781 469.846154 186.080645 470.153846 185.780359 470.461538 185.480933 470.769231 185.182376 471.076923 184.884695 471.384615 184.587901 471.692308 184.292001 472.000000 183.997006 472.307692 183.702923 472.615385 183.409761 472.923077 183.117530 473.230769 182.826237 473.538462 182.535893 473.846154 182.246505 474.153846 181.958083 474.461538 181.670635 474.769231 181.384170 475.076923 181.098698 475.384615 180.814226 475.692308 180.530762 476.000000 180.248303 476.307692 179.966846 476.615385 179.686386 476.923077 179.406920 477.230769 179.128443 477.538462 178.850951 477.846154 178.574440 478.153846 178.298906 478.461538 178.024345 478.769231 177.750753 479.076923 177.478125 479.384615 177.206458 479.692308 176.935748 480.000000 176.665989 480.307692 176.397179 480.615385 176.129314 480.923077 175.862388 481.230769 175.596398 481.538462 175.331340 481.846154 175.067210 482.153846 174.804004 482.461538 174.541718 482.769231 174.280346 483.076923 174.019887 483.384615 173.760334 483.692308 173.501685 484.000000 173.243935 484.307692 172.987080 484.615385 172.731116 484.923077 172.476039 485.230769 172.221844 485.538462 171.968529 485.846154 171.716088 486.153846 171.464517 486.461538 171.213813 486.769231 170.963970 487.076923 170.714987 487.384615 170.466857 487.692308 170.219577 488.000000 169.973143 488.307692 169.727551 488.615385 169.482797 488.923077 169.238876 489.230769 168.995785 489.538462 168.753519 489.846154 168.512075 490.153846 168.271448 490.461538 168.031633 490.769231 167.792628 491.076923 167.554428 491.384615 167.317029 491.692308 167.080427 492.000000 166.844617 492.307692 166.609596 492.615385 166.375359 492.923077 166.141903 493.230769 165.909223 493.538462 165.677315 493.846154 165.446175 494.153846 165.215799 494.461538 164.986183 494.769231 164.757323 495.076923 164.529215 495.384615 164.301854 495.692308 164.075237 496.000000 163.849359 496.307692 163.624217 496.615385 163.399806 496.923077 163.176122 497.230769 162.953161 497.538462 162.730919 497.846154 162.509392 498.153846 162.288575 498.461538 162.068465 498.769231 161.849058 499.076923 161.630350 499.384615 161.412335 499.692308 161.195011 500.000000 160.978373 500.307692 160.762418 500.615385 160.547140 500.923077 160.332536 501.230769 160.118602 501.538462 159.905334 501.846154 159.692727 502.153846 159.480778 502.461538 159.269483 502.769231 159.058836 503.076923 158.848835 503.384615 158.639475 503.692308 158.430752 504.000000 158.222662 504.307692 158.015201 504.615385 157.808365 504.923077 157.602149 505.230769 157.396550 505.538462 157.191564 505.846154 156.987185 506.153846 156.783412 506.461538 156.580238 506.769231 156.377660 507.076923 156.175675 507.384615 155.974277 507.692308 155.773463 508.000000 155.573229 508.307692 155.373571 508.615385 155.174484 508.923077 154.975964 509.230769 154.778008 509.538462 154.580611 509.846154 154.383769 510.153846 154.187478 510.461538 153.991735 510.769231 153.796534 511.076923 153.601872 511.384615 153.407744 511.692308 153.214147 512.000000 153.021077 512.307692 152.828529 512.615385 152.636499 512.923077 152.444984 513.230769 152.253978 513.538462 152.063479 513.846154 151.873481 514.153846 151.683982 514.461538 151.494976 514.769231 151.306459 515.076923 151.118429 515.384615 150.930879 515.692308 150.743807 516.000000 150.557208 516.307692 150.371079 516.615385 150.185414 516.923077 150.000211 517.230769 149.815464 517.538462 149.631170 517.846154 149.447325 518.153846 149.263924 518.461538 149.080964 518.769231 148.898440 519.076923 148.716349 519.384615 148.534686 519.692308 148.353446 520.000000 148.172627 520.307692 147.992224 520.615385 147.812233 520.923077 147.632649 521.230769 147.453469 521.538462 147.274688 521.846154 147.096303 522.153846 146.918310 522.461538 146.740703 522.769231 146.563480 523.076923 146.386636 523.384615 146.210166 523.692308 146.034068 524.000000 145.858336 524.307692 145.682967 524.615385 145.507957 524.923077 145.333301 525.230769 145.158996 525.538462 144.985036 525.846154 144.811419 526.153846 144.638141 526.461538 144.465196 526.769231 144.292581 527.076923 144.120292 527.384615 143.948324 527.692308 143.776675 528.000000 143.605339 528.307692 143.434312 528.615385 143.263590 528.923077 143.093170 529.230769 142.923047 529.538462 142.753217 529.846154 142.583676 530.153846 142.414420 530.461538 142.245445 530.769231 142.076747 531.076923 141.908320 531.384615 141.740163 531.692308 141.572270 532.000000 141.404637 532.307692 141.237260 532.615385 141.070136 532.923077 140.903260 533.230769 140.736627 533.538462 140.570234 533.846154 140.404077 534.153846 140.238152 534.461538 140.072454 534.769231 139.906980 535.076923 139.741725 535.384615 139.576685 535.692308 139.411857 536.000000 139.247235 536.307692 139.082817 536.615385 138.918597 536.923077 138.754572 537.230769 138.590738 537.538462 138.427090 537.846154 138.263625 538.153846 138.100338 538.461538 137.937226 538.769231 137.774284 539.076923 137.611508 539.384615 137.448894 539.692308 137.286438 540.000000 137.124135 540.307692 136.961983 540.615385 136.799976 540.923077 136.638111 541.230769 136.476383 541.538462 136.314788 541.846154 136.153323 542.153846 135.991983 542.461538 135.830764 542.769231 135.669662 543.076923 135.508673 543.384615 135.347792 543.692308 135.187017 544.000000 135.026341 544.307692 134.865763 544.615385 134.705277 544.923077 134.544879 545.230769 134.384565 545.538462 134.224332 545.846154 134.064174 546.153846 133.904088 546.461538 133.744071 546.769231 133.584117 547.076923 133.424222 547.384615 133.264383 547.692308 133.104596 548.000000 132.944856 548.307692 132.785159 548.615385 132.625502 548.923077 132.465879 549.230769 132.306288 549.538462 132.146723 549.846154 131.987181 550.153846 131.827658 550.461538 131.668150 550.769231 131.508651 551.076923 131.349160 551.384615 131.189671 551.692308 131.030179 552.000000 130.870682 552.307692 130.711175 552.615385 130.551655 552.923077 130.392117 553.230769 130.232561 553.538462 130.072983 553.846154 129.913381 554.153846 129.753753 554.461538 129.594095 554.769231 129.434406 555.076923 129.274683 555.384615 129.114923 555.692308 128.955125 556.000000 128.795285 556.307692 128.635401 556.615385 128.475470 556.923077 128.315491 557.230769 128.155460 557.538462 127.995375 557.846154 127.835234 558.153846 127.675033 558.461538 127.514771 558.769231 127.354446 559.076923 127.194054 559.384615 127.033593 559.692308 126.873060 560.000000 126.712454 560.307692 126.551771 560.615385 126.391009 560.923077 126.230166 561.230769 126.069239 561.538462 125.908226 561.846154 125.747124 562.153846 125.585930 562.461538 125.424643 562.769231 125.263259 563.076923 125.101777 563.384615 124.940193 563.692308 124.778505 564.000000 124.616711 564.307692 124.454808 564.615385 124.292794 564.923077 124.130666 565.230769 123.968422 565.538462 123.806059 565.846154 123.643575 566.153846 123.480967 566.461538 123.318232 566.769231 123.155369 567.076923 122.992375 567.384615 122.829247 567.692308 122.665982 568.000000 122.502579 568.307692 122.339035 568.615385 122.175347 568.923077 122.011513 569.230769 121.847530 569.538462 121.683396 569.846154 121.519108 570.153846 121.354664 570.461538 121.190061 570.769231 121.025297 571.076923 120.860370 571.384615 120.695276 571.692308 120.530014 572.000000 120.364580 572.307692 120.198973 572.615385 120.033190 572.923077 119.867228 573.230769 119.701085 573.538462 119.534758 573.846154 119.368245 574.153846 119.201544 574.461538 119.034652 574.769231 118.867566 575.076923 118.700284 575.384615 118.532803 575.692308 118.365121 576.000000 118.197236 576.307692 118.029145 576.615385 117.860845 576.923077 117.692334 577.230769 117.523609 577.538462 117.354669 577.846154 117.185510 578.153846 117.016130 578.461538 116.846526 578.769231 116.676697 579.076923 116.506639 579.384615 116.336350 579.692308 116.165827 580.000000 115.995069 580.307692 115.824072 580.615385 115.652834 580.923077 115.481353 581.230769 115.309626 581.538462 115.137650 581.846154 114.965423 582.153846 114.792943 582.461538 114.620207 582.769231 114.447213 583.076923 114.273958 583.384615 114.100439 583.692308 113.926654 584.000000 113.752601 584.307692 113.578277 584.615385 113.403680 584.923077 113.228807 585.230769 113.053656 585.538462 112.878223 585.846154 112.702508 586.153846 112.526506 586.461538 112.350216 586.769231 112.173636 587.076923 111.996762 587.384615 111.819592 587.692308 111.642124 588.000000 111.464355 588.307692 111.286283 588.615385 111.107905 588.923077 110.929219 589.230769 110.750222 589.538462 110.570912 589.846154 110.391286 590.153846 110.211341 590.461538 110.031076 590.769231 109.850488 591.076923 109.669574 591.384615 109.488332 591.692308 109.306759 592.000000 109.124853 592.307692 108.942611 592.615385 108.760031 592.923077 108.577110 593.230769 108.393846 593.538462 108.210237 593.846154 108.026279 594.153846 107.841970 594.461538 107.657309 594.769231 107.472292 595.076923 107.286916 595.384615 107.101180 595.692308 106.915081 596.000000 106.728616 596.307692 106.541783 596.615385 106.354580 596.923077 106.167003 597.230769 105.979051 597.538462 105.790721 597.846154 105.602010 598.153846 105.412916 598.461538 105.223436 598.769231 105.033569 599.076923 104.843311 599.384615 104.652659 599.692308 104.461613 600.000000 104.270168 600.307692 104.078323 600.615385 103.886074 600.923077 103.693420 601.230769 103.500358 601.538462 103.306886 601.846154 103.113001 602.153846 102.918700 602.461538 102.723981 602.769231 102.528842 603.076923 102.333279 603.384615 102.137292 603.692308 101.940876 604.000000 101.744030 604.307692 101.546751 604.615385 101.349036 604.923077 101.150884 605.230769 100.952291 605.538462 100.753255 605.846154 100.553774 606.153846 100.353844 606.461538 100.153465 606.769231 99.952633 607.076923 99.751345 607.384615 99.549599 607.692308 99.347393 608.000000 99.144724 608.307692 98.941590 608.615385 98.737988 608.923077 98.533915 609.230769 98.329370 609.538462 98.124349 609.846154 97.918851 610.153846 97.712872 610.461538 97.506410 610.769231 97.299463 611.076923 97.092029 611.384615 96.884104 611.692308 96.675686 612.000000 96.466773 612.307692 96.257362 612.615385 96.047451 612.923077 95.837037 613.230769 95.626118 613.538462 95.414691 613.846154 95.202754 614.153846 94.990304 614.461538 94.777339 614.769231 94.563857 615.076923 94.349854 615.384615 94.135328 615.692308 93.920277 616.000000 93.704699 616.307692 93.488590 616.615385 93.271949 616.923077 93.054772 617.230769 92.837058 617.538462 92.618803 617.846154 92.400006 618.153846 92.180664 618.461538 91.960774 618.769231 91.740334 619.076923 91.519342 619.384615 91.297794 619.692308 91.075689 620.000000 90.853023 620.307692 90.629795 620.615385 90.406002 620.923077 90.181642 621.230769 89.956711 621.538462 89.731208 621.846154 89.505129 622.153846 89.278473 622.461538 89.051237 622.769231 88.823419 623.076923 88.595015 623.384615 88.366024 623.692308 88.136443 624.000000 87.906269 624.307692 87.675501 624.615385 87.444135 624.923077 87.212168 625.230769 86.979600 625.538462 86.746426 625.846154 86.512645 626.153846 86.278254 626.461538 86.043250 626.769231 85.807632 627.076923 85.571396 627.384615 85.334540 627.692308 85.097062 628.000000 84.858959 628.307692 84.620228 628.615385 84.380867 628.923077 84.140874 629.230769 83.900246 629.538462 83.658982 629.846154 83.417083 630.153846 83.174551 630.461538 82.931390 630.769231 82.687601 631.076923 82.443188 631.384615 82.198153 631.692308 81.952498 632.000000 81.706226 632.307692 81.459340 632.615385 81.211842 632.923077 80.963734 633.230769 80.715020 633.538462 80.465701 633.846154 80.215781 634.153846 79.965261 634.461538 79.714145 634.769231 79.462435 635.076923 79.210134 635.384615 78.957243 635.692308 78.703766 636.000000 78.449705 636.307692 78.195063 636.615385 77.939842 636.923077 77.684045 637.230769 77.427674 637.538462 77.170733 637.846154 76.913222 638.153846 76.655146 638.461538 76.396506 638.769231 76.137305 639.076923 75.877546 639.384615 75.617231 639.692308 75.356363 640.000000 75.094944 640.307692 74.832977 640.615385 74.570464 640.923077 74.307408 641.230769 74.043812 641.538462 73.779678 641.846154 73.515008 642.153846 73.249806 642.461538 72.984073 642.769231 72.717812 643.076923 72.451027 643.384615 72.183718 643.692308 71.915890 644.000000 71.647543 644.307692 71.378682 644.615385 71.109309 644.923077 70.839425 645.230769 70.569034 645.538462 70.298138 645.846154 70.026740 646.153846 69.754843 646.461538 69.482448 646.769231 69.209558 647.076923 68.936177 647.384615 68.662306 647.692308 68.387948 648.000000 68.113105 648.307692 67.837781 648.615385 67.561977 648.923077 67.285697 649.230769 67.008942 649.538462 66.731716 649.846154 66.454020 650.153846 66.175858 650.461538 65.897232 650.769231 65.618145 651.076923 65.338598 651.384615 65.058595 651.692308 64.778139 652.000000 64.497231 652.307692 64.215874 652.615385 63.934071 652.923077 63.651825 653.230769 63.369137 653.538462 63.086011 653.846154 62.802449 654.153846 62.518454 654.461538 62.234027 654.769231 61.949172 655.076923 61.663892 655.384615 61.378188 655.692308 61.092064 656.000000 60.805521 656.307692 60.518563 656.615385 60.231192 656.923077 59.943410 657.230769 59.655221 657.538462 59.366626 657.846154 59.077628 658.153846 58.788230 658.461538 58.498434 658.769231 58.208243 659.076923 57.917660 659.384615 57.626686 659.692308 57.335325 660.000000 57.043579 660.307692 56.751450 660.615385 56.458941 660.923077 56.166055 661.230769 55.872795 661.538462 55.579162 661.846154 55.285159 662.153846 54.990790 662.461538 54.696055 662.769231 54.400959 663.076923 54.105503 663.384615 53.809690 663.692308 53.513523 664.000000 53.217004 664.307692 52.920136 664.615385 52.622920 664.923077 52.325361 665.230769 52.027460 665.538462 51.729220 665.846154 51.430644 666.153846 51.131733 666.461538 50.832491 666.769231 50.532920 667.076923 50.233023 667.384615 49.932802 667.692308 49.632260 668.000000 49.331399 668.307692 49.030221 668.615385 48.728731 668.923077 48.426929 669.230769 48.124819 669.538462 47.822402 669.846154 47.519683 670.153846 47.216662 670.461538 46.913344 670.769231 46.609729 671.076923 46.305821 671.384615 46.001623 671.692308 45.697136 672.000000 45.392364 672.307692 45.087309 672.615385 44.781974 672.923077 44.476360 673.230769 44.170472 673.538462 43.864310 673.846154 43.557878 674.153846 43.251179 674.461538 42.944214 674.769231 42.636987 675.076923 42.329499 675.384615 42.021754 675.692308 41.713754 676.000000 41.405502 676.307692 41.097000 676.615385 40.788251 676.923077 40.479257 677.230769 40.170020 677.538462 39.860544 677.846154 39.550831 678.153846 39.240883 678.461538 38.930704 678.769231 38.620294 679.076923 38.309658 679.384615 37.998798 679.692308 37.687716 680.000000 37.376414 680.307692 37.064896 680.615385 36.753163 680.923077 36.441219 681.230769 36.129066 681.538462 35.816707 681.846154 35.504143 682.153846 35.191378 682.461538 34.878414 682.769231 34.565254 683.076923 34.251900 683.384615 33.938355 683.692308 33.624621 684.000000 33.310701 684.307692 32.996597 684.615385 32.682313 684.923077 32.367850 685.230769 32.053211 685.538462 31.738399 685.846154 31.423415 686.153846 31.108264 686.461538 30.792947 686.769231 30.477467 687.076923 30.161826 687.384615 29.846027 687.692308 29.530072 688.000000 29.213965 688.307692 28.897707 688.615385 28.581301 688.923077 28.264750 689.230769 27.948056 689.538462 27.631222 689.846154 27.314250 690.153846 26.997143 690.461538 26.679903 690.769231 26.362534 691.076923 26.045037 691.384615 25.727415 691.692308 25.409671 692.000000 25.091806 692.307692 24.773825 692.615385 24.455729 692.923077 24.137520 693.230769 23.819202 693.538462 23.500777 693.846154 23.182248 694.153846 22.863616 694.461538 22.544885 694.769231 22.226057 695.076923 21.907135 695.384615 21.588121 695.692308 21.269018 696.000000 20.949828 696.307692 20.630554 696.615385 20.311198 696.923077 19.991763 697.230769 19.672252 697.538462 19.352667 697.846154 19.033010 698.153846 18.713285 698.461538 18.393493 698.769231 18.073638 699.076923 17.753721 699.384615 17.433746 699.692308 17.113715 700.000000 16.793630 700.307692 16.473494 700.615385 16.153310 700.923077 15.833080 701.230769 15.512806 701.538462 15.192492 701.846154 14.872139 702.153846 14.551751 702.461538 14.231329 702.769231 13.910877 703.076923 13.590397 703.384615 13.269892 703.692308 12.949363 704.000000 12.628815 704.307692 12.308248 704.615385 11.987666 704.923077 11.667071 705.230769 11.346466 705.538462 11.025853 705.846154 10.705236 706.153846 10.384615 706.153846 540.000000" /></g></g><g class="titles" /><g class="plot overlay" transform="translate(60, 20)"><g class="series serie-0 color-0"><g class="dots"><circle class="dot reactive tooltip-trigger" cx="13.846153846153847" cy="529.6153846153846" r="2.5" /><desc class="value">592,443,739(kWh)</desc><desc class="x top">13.846153846153847</desc><desc class="y top">529.6153846153846</desc><desc class="x_label">2549</desc></g><g class="dots"><circle class="dot reactive tooltip-trigger" cx="90.76923076923076" cy="488.0302725702276" r="2.5" /><desc class="value">638,852,113(kWh)</desc><desc class="x top">90.76923076923076</desc><desc class="y top">488.0302725702276</desc><desc class="x_label">2550</desc></g><g class="dots"><circle class="dot reactive tooltip-trigger" cx="167.69230769230765" cy="447.6868435403164" r="2.5" /><desc class="value">683,874,787(kWh)</desc><desc class="x top">167.69230769230765</desc><desc class="y top">447.6868435403164</desc><desc class="x_label">2551</desc></g><g class="dots"><circle class="dot reactive tooltip-trigger" cx="244.6153846153846" cy="376.2520033542346" r="2.5" /><desc class="value">763,595,019(kWh)</desc><desc class="x top">244.6153846153846</desc><desc class="y top">376.2520033542346</desc><desc class="x_label">2552</desc></g><g class="dots"><circle class="dot reactive tooltip-trigger" cx="321.5384615384615" cy="308.3443180312619" r="2.5" /><desc class="value">839,378,998(kWh)</desc><desc class="x top">321.5384615384615</desc><desc class="y top">308.3443180312619</desc><desc class="x_label">2553</desc></g><g class="dots"><circle class="dot reactive tooltip-trigger" cx="398.46153846153845" cy="260.3632732079552" r="2.5" /><desc class="value">892,925,139(kWh)</desc><desc class="x left">398.46153846153845</desc><desc class="y left">260.3632732079552</desc><desc class="x_label">2554</desc></g><g class="dots"><circle class="dot reactive tooltip-trigger" cx="475.38461538461536" cy="180.81422582800485" r="2.5" /><desc class="value">981,700,707(kWh)</desc><desc class="x left">475.38461538461536</desc><desc class="y left">180.81422582800485</desc><desc class="x_label">2555</desc></g><g class="dots"><circle class="dot reactive tooltip-trigger" cx="552.3076923076923" cy="130.7111754668149" r="2.5" /><desc class="value">1,037,614,975(kWh)</desc><desc class="x left">552.3076923076923</desc><desc class="y left">130.7111754668149</desc><desc class="x_label">2556</desc></g><g class="dots"><circle class="dot reactive tooltip-trigger" cx="629.2307692307692" cy="83.90024640822247" r="2.5" /><desc class="value">1,089,855,284(kWh)</desc><desc class="x left">629.2307692307692</desc><desc class="y left">83.90024640822247</desc><desc class="x_label">2557</desc></g><g class="dots"><circle class="dot reactive tooltip-trigger" cx="706.1538461538461" cy="10.384615384615472" r="2.5" /><desc class="value">1,171,897,648(kWh)</desc><desc class="x left">706.1538461538461</desc><desc class="y left">10.384615384615472</desc><desc class="x_label">2558</desc></g></g></g><g class="plot text-overlay" transform="translate(60, 20)"><g class="series serie-0 color-0" /></g><g class="plot tooltip-overlay" transform="translate(60, 20)"><g class="tooltip" style="opacity: 0" transform="translate(0 0)"><rect class="tooltip-box" height="0" rx="0" ry="0" width="0" /><g class="text" /></g></g></g></svg>