<?xml version='1.0' encoding='utf-8'?>
<svg xmlns:xlink="http://www.w3.org/1999/xlink" class="pygal-chart" id="chart-07f8ad34-3e46-402e-90eb-497e5ce6913e" viewBox="0 0 800 600" xmlns="http://www.w3.org/2000/svg"><!--Generated with pygal 2.3.0 (etree) ©Kozea 2012-2016 on 2016-12-08--><!--http://pygal.org--><!--http://github.com/Kozea/pygal--><defs><style type="text/css">#chart-07f8ad34-3e46-402e-90eb-497e5ce6913e{-webkit-user-select:none;-webkit-font-smoothing:antialiased;font-family:Consolas,"Liberation Mono",Menlo,Courier,monospace}#chart-07f8ad34-3e46-402e-90eb-497e5ce6913e .title{font-family:Consolas,"Liberation Mono",Menlo,Courier,monospace;font-size:16px}#chart-07f8ad34-3e46-402e-90eb-497e5ce6913e .legends .legend text{font-family:Consolas,"Liberation Mono",Menlo,Courier,monospace;font-size:14px}#chart-07f8ad34-3e46-402e-90eb-497e5ce6913e .axis text{font-family:Consolas,"Liberation Mono",Menlo,Courier,monospace;font-size:10px}#chart-07f8ad34-3e46-402e-90eb-497e5ce6913e .axis text.major{font-family:Consolas,"Liberation Mono",Menlo,Courier,monospace;font-size:10px}#chart-07f8ad34-3e46-402e-90eb-497e5ce6913e .text-overlay text.value{font-family:Consolas,"Liberation Mono",Menlo,Courier,monospace;font-size:16px}#chart-07f8ad34-3e46-402e-90eb-497e5ce6913e .text-overlay text.label{font-family:Consolas,"Liberation Mono",Menlo,Courier,monospace;font-size:10px}#chart-07f8ad34-3e46-402e-90eb-497e5ce6913e .tooltip{font-family:Consolas,"Liberation Mono",Menlo,Courier,monospace;font-size:14px}#chart-07f8ad34-3e46-402e-90eb-497e5ce6913e text.no_data{font-family:Consolas,"Liberation Mono",Menlo,Courier,monospace;font-size:64px}
#chart-07f8ad34-3e46-402e-90eb-497e5ce6913e{background-color:rgba(249,249,249,1)}#chart-07f8ad34-3e46-402e-90eb-497e5ce6913e path,#chart-07f8ad34-3e46-402e-90eb-497e5ce6913e line,#chart-07f8ad34-3e46-402e-90eb-497e5ce6913e rect,#chart-07f8ad34-3e46-402e-90eb-497e5ce6913e circle{-webkit-transition:150ms;-moz-transition:150ms;transition:150ms}#chart-07f8ad34-3e46-402e-90eb-497e5ce6913e .graph &gt; .background{fill:rgba(249,249,249,1)}#chart-07f8ad34-3e46-402e-90eb-497e5ce6913e .plot &gt; .background{fill:rgba(255,255,255,1)}#chart-07f8ad34-3e46-402e-90eb-497e5ce6913e .graph{fill:rgba(0,0,0,.87)}#chart-07f8ad34-3e46-402e-90eb-497e5ce6913e text.no_data{fill:rgba(0,0,0,1)}#chart-07f8ad34-3e46-402e-90eb-497e5ce6913e .title{fill:rgba(0,0,0,1)}#chart-07f8ad34-3e46-402e-90eb-497e5ce6913e .legends .legend text{fill:rgba(0,0,0,.87)}#chart-07f8ad34-3e46-402e-90eb-497e5ce6913e .legends .legend:hover text{fill:rgba(0,0,0,1)}#chart-07f8ad34-3e46-402e-90eb-497e5ce6913e .axis .line{stroke:rgba(0,0,0,1)}#chart-07f8ad34-3e46-402e-90eb-497e5ce6913e .axis .guide.line{stroke:rgba(0,0,0,.54)}#chart-07f8ad34-3e46-402e-90eb-497e5ce6913e .axis .major.line{stroke:rgba(0,0,0,.87)}#chart-07f8ad34-3e46-402e-90eb-497e5ce6913e .axis text.major{fill:rgba(0,0,0,1)}#chart-07f8ad34-3e46-402e-90eb-497e5ce6913e .axis.y .guides:hover .guide.line,#chart-07f8ad34-3e46-402e-90eb-497e5ce6913e .line-graph .axis.x .guides:hover .guide.line,#chart-07f8ad34-3e46-402e-90eb-497e5ce6913e .stackedline-graph .axis.x .guides:hover .guide.line,#chart-07f8ad34-3e46-402e-90eb-497e5ce6913e .xy-graph .axis.x .guides:hover .guide.line{stroke:rgba(0,0,0,1)}#chart-07f8ad34-3e46-402e-90eb-497e5ce6913e .axis .guides:hover text{fill:rgba(0,0,0,1)}#chart-07f8ad34-3e46-402e-90eb-497e5ce6913e .reactive{fill-opacity:.7;stroke-opacity:.8}#chart-07f8ad34-3e46-402e-90eb-497e5ce6913e .ci{stroke:rgba(0,0,0,.87)}#chart-07f8ad34-3e46-402e-90eb-497e5ce6913e .reactive.active,#chart-07f8ad34-3e46-402e-90eb-497e5ce6913e .active .reactive{fill-opacity:.8;stroke-opacity:.9;stroke-width:4}#chart-07f8ad34-3e46-402e-90eb-497e5ce6913e .ci .reactive.active{stroke-width:1.5}#chart-07f8ad34-3e46-402e-90eb-497e5ce6913e .series text{fill:rgba(0,0,0,1)}#chart-07f8ad34-3e46-402e-90eb-497e5ce6913e .tooltip rect{fill:rgba(255,255,255,1);stroke:rgba(0,0,0,1);-webkit-transition:opacity 150ms;-moz-transition:opacity 150ms;transition:opacity 150ms}#chart-07f8ad34-3e46-402e-90eb-497e5ce6913e .tooltip .label{fill:rgba(0,0,0,.87)}#chart-07f8ad34-3e46-402e-90eb-497e5ce6913e .tooltip .label{fill:rgba(0,0,0,.87)}#chart-07f8ad34-3e46-402e-90eb-497e5ce6913e .tooltip .legend{font-size:.8em;fill:rgba(0,0,0,.54)}#chart-07f8ad34-3e46-402e-90eb-497e5ce6913e .tooltip .x_label{font-size:.6em;fill:rgba(0,0,0,1)}#chart-07f8ad34-3e46-402e-90eb-497e5ce6913e .tooltip .xlink{font-size:.5em;text-decoration:underline}#chart-07f8ad34-3e46-402e-90eb-497e5ce6913e .tooltip .value{font-size:1.5em}#chart-07f8ad34-3e46-402e-90eb-497e5ce6913e .bound{font-size:.5em}#chart-07f8ad34-3e46-402e-90eb-497e5ce6913e .max-value{font-size:.75em;fill:rgba(0,0,0,.54)}#chart-07f8ad34-3e46-402e-90eb-497e5ce6913e .map-element{fill:rgba(255,255,255,1);stroke:rgba(0,0,0,.54) !important}#chart-07f8ad34-3e46-402e-90eb-497e5ce6913e .map-element .reactive{fill-opacity:inherit;stroke-opacity:inherit}#chart-07f8ad34-3e46-402e-90eb-497e5ce6913e .color-0,#chart-07f8ad34-3e46-402e-90eb-497e5ce6913e .color-0 a:visited{stroke:#e86fa0;fill:#e86fa0}#chart-07f8ad34-3e46-402e-90eb-497e5ce6913e .text-overlay .color-0 text{fill:black}
#chart-07f8ad34-3e46-402e-90eb-497e5ce6913e text.no_data{text-anchor:middle}#chart-07f8ad34-3e46-402e-90eb-497e5ce6913e .guide.line{fill:none}#chart-07f8ad34-3e46-402e-90eb-497e5ce6913e .centered{text-anchor:middle}#chart-07f8ad34-3e46-402e-90eb-497e5ce6913e .title{text-anchor:middle}#chart-07f8ad34-3e46-402e-90eb-497e5ce6913e .legends .legend text{fill-opacity:1}#chart-07f8ad34-3e46-402e-90eb-497e5ce6913e .axis.x text{text-anchor:middle}#chart-07f8ad34-3e46-402e-90eb-497e5ce6913e .axis.x:not(.web) text[transform]{text-anchor:start}#chart-07f8ad34-3e46-402e-90eb-497e5ce6913e .axis.x:not(.web) text[transform].backwards{text-anchor:end}#chart-07f8ad34-3e46-402e-90eb-497e5ce6913e .axis.y text{text-anchor:end}#chart-07f8ad34-3e46-402e-90eb-497e5ce6913e .axis.y text[transform].backwards{text-anchor:start}#chart-07f8ad34-3e46-402e-90eb-497e5ce6913e .axis.y2 text{text-anchor:start}#chart-07f8ad34-3e46-402e-90eb-497e5ce6913e .axis.y2 text[transform].backwards{text-anchor:end}#chart-07f8ad34-3e46-402e-90eb-497e5ce6913e .axis .guide.line{stroke-dasharray:4,4}#chart-07f8ad34-3e46-402e-90eb-497e5ce6913e .axis .major.guide.line{stroke-dasharray:6,6}#chart-07f8ad34-3e46-402e-90eb-497e5ce6913e .horizontal .axis.y .guide.line,#chart-07f8ad34-3e46-402e-90eb-497e5ce6913e .horizontal .axis.y2 .guide.line,#chart-07f8ad34-3e46-402e-90eb-497e5ce6913e .vertical .axis.x .guide.line{opacity:0}#chart-07f8ad34-3e46-402e-90eb-497e5ce6913e .horizontal .axis.always_show .guide.line,#chart-07f8ad34-3e46-402e-90eb-497e5ce6913e .vertical .axis.always_show .guide.line{opacity:1 !important}#chart-07f8ad34-3e46-402e-90eb-497e5ce6913e .axis.y .guides:hover .guide.line,#chart-07f8ad34-3e46-402e-90eb-497e5ce6913e .axis.y2 .guides:hover .guide.line,#chart-07f8ad34-3e46-402e-90eb-497e5ce6913e .axis.x .guides:hover .guide.line{opacity:1}#chart-07f8ad34-3e46-402e-90eb-497e5ce6913e .axis .guides:hover text{opacity:1}#chart-07f8ad34-3e46-402e-90eb-497e5ce6913e .nofill{fill:none}#chart-07f8ad34-3e46-402e-90eb-497e5ce6913e .subtle-fill{fill-opacity:.2}#chart-07f8ad34-3e46-402e-90eb-497e5ce6913e .dot{stroke-width:1px;fill-opacity:1}#chart-07f8ad34-3e46-402e-90eb-497e5ce6913e .dot.active{stroke-width:5px}#chart-07f8ad34-3e46-402e-90eb-497e5ce6913e .dot.negative{fill:transparent}#chart-07f8ad34-3e46-402e-90eb-497e5ce6913e text,#chart-07f8ad34-3e46-402e-90eb-497e5ce6913e tspan{stroke:none !important}#chart-07f8ad34-3e46-402e-90eb-497e5ce6913e .series text.active{opacity:1}#chart-07f8ad34-3e46-402e-90eb-497e5ce6913e .tooltip rect{fill-opacity:.95;stroke-width:.5}#chart-07f8ad34-3e46-402e-90eb-497e5ce6913e .tooltip text{fill-opacity:1}#chart-07f8ad34-3e46-402e-90eb-497e5ce6913e .showable{visibility:hidden}#chart-07f8ad34-3e46-402e-90eb-497e5ce6913e .showable.shown{visibility:visible}#chart-07f8ad34-3e46-402e-90eb-497e5ce6913e .gauge-background{fill:rgba(229,229,229,1);stroke:none}#chart-07f8ad34-3e46-402e-90eb-497e5ce6913e .bg-lines{stroke:rgba(249,249,249,1);stroke-width:2px}</style><script type="text/javascript">window.pygal = window.pygal || {};window.pygal.config = window.pygal.config || {};window.pygal.config['07f8ad34-3e46-402e-90eb-497e5ce6913e'] = {"no_data_text": "No data", "no_prefix": false, "xrange": null, "print_values_position": "center", "truncate_label": null, "x_labels": ["2549", "2550", "2551", "2552", "2553", "2554", "2555", "2556", "2557", "2558"], "title": null, "force_uri_protocol": "https", "defs": [], "formatter": null, "classes": ["pygal-chart"], "y_labels": null, "rounded_bars": null, "explicit_size": false, "x_labels_major_every": null, "legend_at_bottom_columns": null, "stroke_style": null, "half_pie": false, "spacing": 10, "tooltip_fancy_mode": true, "inverse_y_axis": false, "width": 800, "inner_radius": 0, "interpolation_parameters": {}, "tooltip_border_radius": 0, "style": {"no_data_font_family": "Consolas, \"Liberation Mono\", Menlo, Courier, monospace", "tooltip_font_size": 14, "tooltip_font_family": "Consolas, \"Liberation Mono\", Menlo, Courier, monospace", "stroke_opacity_hover": ".9", "legend_font_family": "Consolas, \"Liberation Mono\", Menlo, Courier, monospace", "font_family": "Consolas, \"Liberation Mono\", Menlo, Courier, monospace", "title_font_family": "Consolas, \"Liberation Mono\", Menlo, Courier, monospace", "background": "rgba(249, 249, 249, 1)", "stroke_opacity": ".8", "foreground": "rgba(0, 0, 0, .87)", "value_background": "rgba(229, 229, 229, 1)", "guide_stroke_dasharray": "4,4", "foreground_subtle": "rgba(0, 0, 0, .54)", "opacity_hover": ".8", "value_font_family": "Consolas, \"Liberation Mono\", Menlo, Courier, monospace", "value_label_font_size": 10, "plot_background": "rgba(255, 255, 255, 1)", "ci_colors": [], "label_font_size": 10, "major_label_font_size": 10, "title_font_size": 16, "no_data_font_size": 64, "value_font_size": 16, "value_colors": [], "label_font_family": "Consolas, \"Liberation Mono\", Menlo, Courier, monospace", "major_guide_stroke_dasharray": "6,6", "transition": "150ms", "foreground_strong": "rgba(0, 0, 0, 1)", "colors": ["#e86fa0", "#e88f6f", "#e8df6f", "#a0e86f", "#6fe88f", "#6fe8df", "#6fa0e8", "#8f6fe8", "#df6fe8", "#e86fa0"], "opacity": ".7", "legend_font_size": 14, "value_label_font_family": "Consolas, \"Liberation Mono\", Menlo, Courier, monospace", "major_label_font_family": "Consolas, \"Liberation Mono\", Menlo, Courier, monospace"}, "x_labels_major_count": null, "interpolation_precision": 250, "missing_value_fill_truncation": "x", "stack_from_top": false, "truncate_legend": null, "show_minor_x_labels": true, "print_zeroes": true, "css": ["file://style.css", "file://graph.css"], "y_label_rotation": 0, "legend_at_bottom": false, "print_values": false, "margin_top": null, "max_scale": 16, "allow_interruptions": false, "show_x_labels": true, "strict": false, "show_x_guides": false, "stroke": true, "margin_left": null, "dynamic_print_values": false, "print_labels": false, "show_y_labels": true, "x_labels_major": null, "range": null, "x_label_rotation": 0, "margin": 20, "zero": 0, "include_x_axis": false, "height": 600, "show_minor_y_labels": true, "show_dots": true, "interpolate": "cubic", "show_y_guides": true, "y_labels_major": null, "box_mode": "extremes", "margin_bottom": null, "order_min": null, "legend_box_size": 12, "fill": true, "show_only_major_dots": false, "js": ["//kozea.github.io/pygal.js/2.0.x/pygal-tooltips.min.js"], "x_title": null, "y_labels_major_every": null, "y_labels_major_count": null, "disable_xml_declaration": false, "y_title": null, "logarithmic": false, "pretty_print": false, "min_scale": 4, "dots_size": 2.5, "margin_right": null, "legends": [null], "secondary_range": null, "show_legend": false}</script><script type="text/javascript" xlink:href="https://kozea.github.io/pygal.js/2.0.x/pygal-tooltips.min.js" /></defs><title>Pygal</title><g class="graph stackedline-graph vertical"><rect class="background" height="600" width="800" x="0" y="0" /><g class="plot" transform="translate(54, 20)"><rect class="background" height="540" width="726.0" x="0" y="0" /><g class="axis y"><path class="line" d="M0.000000 540.000000 h726.000000" /><g class="guides"><path class="guide line" d="M0.000000 435.764181 h726.000000" /><text class="" x="-5" y="439.26418133941576">70M</text><title>70M</title></g><g class="guides"><path class="guide line" d="M0.000000 332.299483 h726.000000" /><text class="" x="-5" y="335.79948321161345">80M</text><title>80M</title></g><g class="guides"><path class="guide line" d="M0.000000 228.834785 h726.000000" /><text class="" x="-5" y="232.33478508381114">90M</text><title>90M</title></g><g class="guides"><path class="major guide line" d="M0.000000 125.370087 h726.000000" /><text class="major" x="-5" y="128.87008695600883">100M</text><title>100M</title></g><g class="guides"><path class="guide line" d="M0.000000 21.905389 h726.000000" /><text class="" x="-5" y="25.40538882820647">110M</text><title>110M</title></g></g><g class="axis x"><g class="guides"><path class="line" d="M13.961538 0.000000 v540.000000" /><text class="" x="13.96153846153846" y="555.0">2549</text></g><g class="guides"><path class="guide line" d="M91.525641 0.000000 v540.000000" /><text class="" x="91.52564102564101" y="555.0">2550</text></g><g class="guides"><path class="guide line" d="M169.089744 0.000000 v540.000000" /><text class="" x="169.08974358974356" y="555.0">2551</text></g><g class="guides"><path class="guide line" d="M246.653846 0.000000 v540.000000" /><text class="" x="246.65384615384613" y="555.0">2552</text></g><g class="guides"><path class="guide line" d="M324.217949 0.000000 v540.000000" /><text class="" x="324.21794871794873" y="555.0">2553</text></g><g class="guides"><path class="guide line" d="M401.782051 0.000000 v540.000000" /><text class="" x="401.78205128205127" y="555.0">2554</text></g><g class="guides"><path class="guide line" d="M479.346154 0.000000 v540.000000" /><text class="" x="479.3461538461538" y="555.0">2555</text></g><g class="guides"><path class="guide line" d="M556.910256 0.000000 v540.000000" /><text class="" x="556.9102564102565" y="555.0">2556</text></g><g class="guides"><path class="guide line" d="M634.474359 0.000000 v540.000000" /><text class="" x="634.474358974359" y="555.0">2557</text></g><g class="guides"><path class="guide line" d="M712.038462 0.000000 v540.000000" /><text class="" x="712.0384615384615" y="555.0">2558</text></g></g><g class="series serie-0 color-0"><path class="line reactive" d="M13.961538 540.000000 L13.961538 529.615385 14.271795 529.313691 14.582051 529.012000 14.892308 528.710316 15.202564 528.408643 15.512821 528.106983 15.823077 527.805340 16.133333 527.503717 16.443590 527.202118 16.753846 526.900547 17.064103 526.599005 17.374359 526.297498 17.684615 525.996028 17.994872 525.694599 18.305128 525.393214 18.615385 525.091876 18.925641 524.790590 19.235897 524.489357 19.546154 524.188183 19.856410 523.887069 20.166667 523.586020 20.476923 523.285039 20.787179 522.984129 21.097436 522.683294 21.407692 522.382536 21.717949 522.081860 22.028205 521.781270 22.338462 521.480767 22.648718 521.180356 22.958974 520.880040 23.269231 520.579822 23.579487 520.279706 23.889744 519.979695 24.200000 519.679793 24.510256 519.380003 24.820513 519.080329 25.130769 518.780773 25.441026 518.481339 25.751282 518.182031 26.061538 517.882852 26.371795 517.583805 26.682051 517.284894 26.992308 516.986122 27.302564 516.687493 27.612821 516.389009 27.923077 516.090675 28.233333 515.792493 28.543590 515.494468 28.853846 515.196602 29.164103 514.898899 29.474359 514.601363 29.784615 514.303996 30.094872 514.006802 30.405128 513.709784 30.715385 513.412947 31.025641 513.116293 31.335897 512.819825 31.646154 512.523547 31.956410 512.227463 32.266667 511.931576 32.576923 511.635889 32.887179 511.340405 33.197436 511.045129 33.507692 510.750063 33.817949 510.455211 34.128205 510.160576 34.438462 509.866161 34.748718 509.571971 35.058974 509.278008 35.369231 508.984275 35.679487 508.690777 35.989744 508.397516 36.300000 508.104497 36.610256 507.811722 36.920513 507.519194 37.230769 507.226918 37.541026 506.934896 37.851282 506.643132 38.161538 506.351629 38.471795 506.060391 38.782051 505.769421 39.092308 505.478723 39.402564 505.188299 39.712821 504.898154 40.023077 504.608291 40.333333 504.318712 40.643590 504.029422 40.953846 503.740424 41.264103 503.451721 41.574359 503.163317 41.884615 502.875215 42.194872 502.587418 42.505128 502.299930 42.815385 502.012754 43.125641 501.725894 43.435897 501.439353 43.746154 501.153134 44.056410 500.867241 44.366667 500.581678 44.676923 500.296447 44.987179 500.011551 45.297436 499.726996 45.607692 499.442783 45.917949 499.158916 46.228205 498.875398 46.538462 498.592234 46.848718 498.309426 47.158974 498.026978 47.469231 497.744892 47.779487 497.463174 48.089744 497.181825 48.400000 496.900850 48.710256 496.620251 49.020513 496.340032 49.330769 496.060197 49.641026 495.780749 49.951282 495.501691 50.261538 495.223026 50.571795 494.944759 50.882051 494.666892 51.192308 494.389429 51.502564 494.112373 51.812821 493.835728 52.123077 493.559497 52.433333 493.283683 52.743590 493.008291 53.053846 492.733322 53.364103 492.458781 53.674359 492.184671 53.984615 491.910995 54.294872 491.637757 54.605128 491.364961 54.915385 491.092609 55.225641 490.820704 55.535897 490.549252 55.846154 490.278254 56.156410 490.007714 56.466667 489.737635 56.776923 489.468022 57.087179 489.198877 57.397436 488.930204 57.707692 488.662005 58.017949 488.394286 58.328205 488.127048 58.638462 487.860295 58.948718 487.594032 59.258974 487.328260 59.569231 487.062983 59.879487 486.798206 60.189744 486.533931 60.500000 486.270161 60.810256 486.006901 61.120513 485.744153 61.430769 485.481921 61.741026 485.220208 62.051282 484.959018 62.361538 484.698354 62.671795 484.438219 62.982051 484.178617 63.292308 483.919551 63.602564 483.661025 63.912821 483.403041 64.223077 483.145604 64.533333 482.888717 64.843590 482.632383 65.153846 482.376606 65.464103 482.121389 65.774359 481.866735 66.084615 481.612647 66.394872 481.359130 66.705128 481.106187 67.015385 480.853820 67.325641 480.602034 67.635897 480.350831 67.946154 480.100215 68.256410 479.850190 68.566667 479.600759 68.876923 479.351925 69.187179 479.103692 69.497436 478.856063 69.807692 478.609041 70.117949 478.362631 70.428205 478.116834 70.738462 477.871655 71.048718 477.627097 71.358974 477.383164 71.669231 477.139858 71.979487 476.897184 72.289744 476.655144 72.600000 476.413743 72.910256 476.172982 73.220513 475.932867 73.530769 475.693400 73.841026 475.454584 74.151282 475.216423 74.461538 474.978921 74.771795 474.742080 75.082051 474.505905 75.392308 474.270398 75.702564 474.035563 76.012821 473.801404 76.323077 473.567923 76.633333 473.335124 76.943590 473.103011 77.253846 472.871587 77.564103 472.640855 77.874359 472.410818 78.184615 472.181481 78.494872 471.952847 78.805128 471.724918 79.115385 471.497698 79.425641 471.271192 79.735897 471.045401 80.046154 470.820330 80.356410 470.595981 80.666667 470.372359 80.976923 470.149466 81.287179 469.927307 81.597436 469.705884 81.907692 469.485201 82.217949 469.265261 82.528205 469.046067 82.838462 468.827624 83.148718 468.609934 83.458974 468.393000 83.769231 468.176827 84.079487 467.961418 84.389744 467.746775 84.700000 467.532903 85.010256 467.319805 85.320513 467.107484 85.630769 466.895943 85.941026 466.685186 86.251282 466.475217 86.561538 466.266038 86.871795 466.057654 87.182051 465.850067 87.492308 465.643281 87.802564 465.437299 88.112821 465.232125 88.423077 465.027762 88.733333 464.824213 89.043590 464.621483 89.353846 464.419573 89.664103 464.218489 89.974359 464.018232 90.284615 463.818807 90.594872 463.620216 90.905128 463.422464 91.215385 463.225554 91.525641 463.029488 91.835897 462.834270 92.146154 462.639893 92.456410 462.446351 92.766667 462.253637 93.076923 462.061745 93.387179 461.870668 93.697436 461.680399 94.007692 461.490932 94.317949 461.302259 94.628205 461.114375 94.938462 460.927272 95.248718 460.740943 95.558974 460.555383 95.869231 460.370584 96.179487 460.186540 96.489744 460.003244 96.800000 459.820688 97.110256 459.638868 97.420513 459.457775 97.730769 459.277403 98.041026 459.097746 98.351282 458.918797 98.661538 458.740548 98.971795 458.562994 99.282051 458.386127 99.592308 458.209942 99.902564 458.034430 100.212821 457.859586 100.523077 457.685403 100.833333 457.511875 101.143590 457.338993 101.453846 457.166752 101.764103 456.995146 102.074359 456.824166 102.384615 456.653807 102.694872 456.484063 103.005128 456.314925 103.315385 456.146388 103.625641 455.978445 103.935897 455.811088 104.246154 455.644313 104.556410 455.478111 104.866667 455.312476 105.176923 455.147401 105.487179 454.982880 105.797436 454.818906 106.107692 454.655472 106.417949 454.492572 106.728205 454.330199 107.038462 454.168345 107.348718 454.007005 107.658974 453.846172 107.969231 453.685839 108.279487 453.525999 108.589744 453.366646 108.900000 453.207773 109.210256 453.049373 109.520513 452.891439 109.830769 452.733966 110.141026 452.576945 110.451282 452.420371 110.761538 452.264237 111.071795 452.108535 111.382051 451.953260 111.692308 451.798405 112.002564 451.643963 112.312821 451.489927 112.623077 451.336290 112.933333 451.183046 113.243590 451.030188 113.553846 450.877710 113.864103 450.725605 114.174359 450.573865 114.484615 450.422485 114.794872 450.271458 115.105128 450.120776 115.415385 449.970434 115.725641 449.820424 116.035897 449.670740 116.346154 449.521375 116.656410 449.372323 116.966667 449.223576 117.276923 449.075128 117.587179 448.926973 117.897436 448.779104 118.207692 448.631513 118.517949 448.484194 118.828205 448.337141 119.138462 448.190347 119.448718 448.043805 119.758974 447.897509 120.069231 447.751451 120.379487 447.605625 120.689744 447.460025 121.000000 447.314643 121.310256 447.169474 121.620513 447.024509 121.930769 446.879743 122.241026 446.735169 122.551282 446.590780 122.861538 446.446569 123.171795 446.302530 123.482051 446.158656 123.792308 446.014941 124.102564 445.871377 124.412821 445.727958 124.723077 445.584677 125.033333 445.441528 125.343590 445.298504 125.653846 445.155598 125.964103 445.012803 126.274359 444.870113 126.584615 444.727521 126.894872 444.585021 127.205128 444.442605 127.515385 444.300267 127.825641 444.158000 128.135897 444.015798 128.446154 443.873654 128.756410 443.731561 129.066667 443.589512 129.376923 443.447501 129.687179 443.305521 129.997436 443.163565 130.307692 443.021627 130.617949 442.879700 130.928205 442.737777 131.238462 442.595852 131.548718 442.453918 131.858974 442.311968 132.169231 442.169995 132.479487 442.027993 132.789744 441.885955 133.100000 441.743874 133.410256 441.601744 133.720513 441.459558 134.030769 441.317309 134.341026 441.174991 134.651282 441.032596 134.961538 440.890119 135.271795 440.747552 135.582051 440.604889 135.892308 440.462123 136.202564 440.319248 136.512821 440.176255 136.823077 440.033140 137.133333 439.889896 137.443590 439.746514 137.753846 439.602990 138.064103 439.459316 138.374359 439.315485 138.684615 439.171491 138.994872 439.027327 139.305128 438.882986 139.615385 438.738462 139.925641 438.593748 140.235897 438.448837 140.546154 438.303723 140.856410 438.158398 141.166667 438.012857 141.476923 437.867092 141.787179 437.721097 142.097436 437.574865 142.407692 437.428389 142.717949 437.281663 143.028205 437.134680 143.338462 436.987434 143.648718 436.839916 143.958974 436.692122 144.269231 436.544044 144.579487 436.395675 144.889744 436.247009 145.200000 436.098039 145.510256 435.948758 145.820513 435.799160 146.130769 435.649238 146.441026 435.498986 146.751282 435.348395 147.061538 435.197461 147.371795 435.046176 147.682051 434.894533 147.992308 434.742526 148.302564 434.590148 148.612821 434.437393 148.923077 434.284253 149.233333 434.130722 149.543590 433.976793 149.853846 433.822460 150.164103 433.667716 150.474359 433.512554 150.784615 433.356967 151.094872 433.200949 151.405128 433.044493 151.715385 432.887593 152.025641 432.730241 152.335897 432.572431 152.646154 432.414156 152.956410 432.255410 153.266667 432.096186 153.576923 431.936477 153.887179 431.776276 154.197436 431.615578 154.507692 431.454374 154.817949 431.292659 155.128205 431.130425 155.438462 430.967666 155.748718 430.804375 156.058974 430.640547 156.369231 430.476172 156.679487 430.311247 156.989744 430.145762 157.300000 429.979712 157.610256 429.813091 157.920513 429.645890 158.230769 429.478105 158.541026 429.309727 158.851282 429.140751 159.161538 428.971169 159.471795 428.800975 159.782051 428.630162 160.092308 428.458724 160.402564 428.286653 160.712821 428.113944 161.023077 427.940589 161.333333 427.766581 161.643590 427.591915 161.953846 427.416582 162.264103 427.240578 162.574359 427.063894 162.884615 426.886524 163.194872 426.708462 163.505128 426.529701 163.815385 426.350233 164.125641 426.170053 164.435897 425.989154 164.746154 425.807529 165.056410 425.625170 165.366667 425.442073 165.676923 425.258229 165.987179 425.073633 166.297436 424.888277 166.607692 424.702155 166.917949 424.515259 167.228205 424.327585 167.538462 424.139123 167.848718 423.949869 168.158974 423.759815 168.469231 423.568955 168.779487 423.377281 169.089744 423.184788 169.400000 422.991469 169.710256 422.797324 170.020513 422.602351 170.330769 422.406550 170.641026 422.209921 170.951282 422.012463 171.261538 421.814177 171.571795 421.615061 171.882051 421.415115 172.192308 421.214339 172.502564 421.012732 172.812821 420.810295 173.123077 420.607026 173.433333 420.402925 173.743590 420.197991 174.053846 419.992226 174.364103 419.785627 174.674359 419.578194 174.984615 419.369928 175.294872 419.160827 175.605128 418.950892 175.915385 418.740122 176.225641 418.528516 176.535897 418.316074 176.846154 418.102795 177.156410 417.888680 177.466667 417.673728 177.776923 417.457938 178.087179 417.241311 178.397436 417.023844 178.707692 416.805539 179.017949 416.586395 179.328205 416.366411 179.638462 416.145587 179.948718 415.923923 180.258974 415.701418 180.569231 415.478072 180.879487 415.253883 181.189744 415.028853 181.500000 414.802981 181.810256 414.576265 182.120513 414.348706 182.430769 414.120304 182.741026 413.891057 183.051282 413.660966 183.361538 413.430029 183.671795 413.198248 183.982051 412.965621 184.292308 412.732147 184.602564 412.497827 184.912821 412.262660 185.223077 412.026645 185.533333 411.789783 185.843590 411.552073 186.153846 411.313514 186.464103 411.074105 186.774359 410.833848 187.084615 410.592740 187.394872 410.350783 187.705128 410.107974 188.015385 409.864315 188.325641 409.619804 188.635897 409.374441 188.946154 409.128226 189.256410 408.881158 189.566667 408.633237 189.876923 408.384462 190.187179 408.134834 190.497436 407.884351 190.807692 407.633013 191.117949 407.380820 191.428205 407.127772 191.738462 406.873868 192.048718 406.619107 192.358974 406.363489 192.669231 406.107014 192.979487 405.849682 193.289744 405.591491 193.600000 405.332442 193.910256 405.072535 194.220513 404.811767 194.530769 404.550141 194.841026 404.287654 195.151282 404.024307 195.461538 403.760098 195.771795 403.495029 196.082051 403.229097 196.392308 402.962304 196.702564 402.694648 197.012821 402.426129 197.323077 402.156747 197.633333 401.886501 197.943590 401.615391 198.253846 401.343416 198.564103 401.070576 198.874359 400.796871 199.184615 400.522300 199.494872 400.246863 199.805128 399.970559 200.115385 399.693388 200.425641 399.415349 200.735897 399.136443 201.046154 398.856669 201.356410 398.576026 201.666667 398.294513 201.976923 398.012132 202.287179 397.728880 202.597436 397.444758 202.907692 397.159765 203.217949 396.873901 203.528205 396.587166 203.838462 396.299559 204.148718 396.011079 204.458974 395.721726 204.769231 395.431501 205.079487 395.140401 205.389744 394.848428 205.700000 394.555581 206.010256 394.261858 206.320513 393.967260 206.630769 393.671787 206.941026 393.375438 207.251282 393.078212 207.561538 392.780109 207.871795 392.481129 208.182051 392.181271 208.492308 391.880536 208.802564 391.578921 209.112821 391.276428 209.423077 390.973056 209.733333 390.668804 210.043590 390.363671 210.353846 390.057658 210.664103 389.750765 210.974359 389.442989 211.284615 389.134332 211.594872 388.824793 211.905128 388.514371 212.215385 388.203067 212.525641 387.890878 212.835897 387.577806 213.146154 387.263850 213.456410 386.949009 213.766667 386.633283 214.076923 386.316672 214.387179 385.999175 214.697436 385.680791 215.007692 385.361521 215.317949 385.041364 215.628205 384.720319 215.938462 384.398386 216.248718 384.075565 216.558974 383.751856 216.869231 383.427257 217.179487 383.101768 217.489744 382.775390 217.800000 382.448121 218.110256 382.119961 218.420513 381.790911 218.730769 381.460968 219.041026 381.130134 219.351282 380.798407 219.661538 380.465788 219.971795 380.132275 220.282051 379.797868 220.592308 379.462568 220.902564 379.126373 221.212821 378.789283 221.523077 378.451298 221.833333 378.112417 222.143590 377.772640 222.453846 377.431967 222.764103 377.090397 223.074359 376.747929 223.384615 376.404564 223.694872 376.060300 224.005128 375.715138 224.315385 375.369077 224.625641 375.022117 224.935897 374.674256 225.246154 374.325496 225.556410 373.975835 225.866667 373.625273 226.176923 373.273810 226.487179 372.921444 226.797436 372.568177 227.107692 372.214007 227.417949 371.858934 227.728205 371.502957 228.038462 371.146077 228.348718 370.788292 228.658974 370.429602 228.969231 370.070008 229.279487 369.709508 229.589744 369.348102 229.900000 368.985789 230.210256 368.622570 230.520513 368.258444 230.830769 367.893410 231.141026 367.527469 231.451282 367.160619 231.761538 366.792860 232.071795 366.424192 232.382051 366.054614 232.692308 365.684126 233.002564 365.312728 233.312821 364.940419 233.623077 364.567199 233.933333 364.193067 234.243590 363.818024 234.553846 363.442067 234.864103 363.065198 235.174359 362.687416 235.484615 362.308719 235.794872 361.929109 236.105128 361.548584 236.415385 361.167145 236.725641 360.784790 237.035897 360.401519 237.346154 360.017332 237.656410 359.632228 237.966667 359.246208 238.276923 358.859270 238.587179 358.471414 238.897436 358.082641 239.207692 357.692948 239.517949 357.302337 239.828205 356.910806 240.138462 356.518355 240.448718 356.124984 240.758974 355.730693 241.069231 355.335480 241.379487 354.939346 241.689744 354.542290 242.000000 354.144312 242.310256 353.745411 242.620513 353.345587 242.930769 352.944839 243.241026 352.543168 243.551282 352.140572 243.861538 351.737051 244.171795 351.332606 244.482051 350.927234 244.792308 350.520937 245.102564 350.113714 245.412821 349.705563 245.723077 349.296485 246.033333 348.886480 246.343590 348.475547 246.653846 348.063685 246.964103 347.650897 247.274359 347.237193 247.584615 346.822586 247.894872 346.407089 248.205128 345.990715 248.515385 345.573477 248.825641 345.155388 249.135897 344.736461 249.446154 344.316709 249.756410 343.896144 250.066667 343.474781 250.376923 343.052631 250.687179 342.629708 250.997436 342.206025 251.307692 341.781594 251.617949 341.356429 251.928205 340.930543 252.238462 340.503948 252.548718 340.076658 252.858974 339.648685 253.169231 339.220043 253.479487 338.790744 253.789744 338.360801 254.100000 337.930228 254.410256 337.499037 254.720513 337.067242 255.030769 336.634855 255.341026 336.201888 255.651282 335.768357 255.961538 335.334272 256.271795 334.899647 256.582051 334.464496 256.892308 334.028830 257.202564 333.592664 257.512821 333.156009 257.823077 332.718880 258.133333 332.281288 258.443590 331.843247 258.753846 331.404770 259.064103 330.965870 259.374359 330.526560 259.684615 330.086852 259.994872 329.646760 260.305128 329.206297 260.615385 328.765475 260.925641 328.324308 261.235897 327.882809 261.546154 327.440990 261.856410 326.998864 262.166667 326.556445 262.476923 326.113745 262.787179 325.670778 263.097436 325.227556 263.407692 324.784092 263.717949 324.340400 264.028205 323.896492 264.338462 323.452381 264.648718 323.008080 264.958974 322.563602 265.269231 322.118961 265.579487 321.674168 265.889744 321.229238 266.200000 320.784182 266.510256 320.339015 266.820513 319.893748 267.130769 319.448396 267.441026 319.002970 267.751282 318.557484 268.061538 318.111950 268.371795 317.666383 268.682051 317.220794 268.992308 316.775197 269.302564 316.329604 269.612821 315.884029 269.923077 315.438485 270.233333 314.992984 270.543590 314.547540 270.853846 314.102165 271.164103 313.656873 271.474359 313.211676 271.784615 312.766587 272.094872 312.321620 272.405128 311.876787 272.715385 311.432101 273.025641 310.987576 273.335897 310.543223 273.646154 310.099057 273.956410 309.655090 274.266667 309.211335 274.576923 308.767805 274.887179 308.324513 275.197436 307.881472 275.507692 307.438695 275.817949 306.996195 276.128205 306.553984 276.438462 306.112077 276.748718 305.670485 277.058974 305.229222 277.369231 304.788301 277.679487 304.347735 277.989744 303.907536 278.300000 303.467718 278.610256 303.028293 278.920513 302.589275 279.230769 302.150677 279.541026 301.712511 279.851282 301.274790 280.161538 300.837528 280.471795 300.400737 280.782051 299.964431 281.092308 299.528621 281.402564 299.093323 281.712821 298.658547 282.023077 298.224307 282.333333 297.790617 282.643590 297.357489 282.953846 296.924936 283.264103 296.492971 283.574359 296.061607 283.884615 295.630857 284.194872 295.200734 284.505128 294.771251 284.815385 294.342421 285.125641 293.914256 285.435897 293.486771 285.746154 293.059977 286.056410 292.633888 286.366667 292.208517 286.676923 291.783876 286.987179 291.359979 287.297436 290.936839 287.607692 290.514468 287.917949 290.092880 288.228205 289.672087 288.538462 289.252103 288.848718 288.832940 289.158974 288.414611 289.469231 287.997130 289.779487 287.580509 290.089744 287.164762 290.400000 286.749901 290.710256 286.335939 291.020513 285.922889 291.330769 285.510764 291.641026 285.099578 291.951282 284.689342 292.261538 284.280071 292.571795 283.871776 292.882051 283.464472 293.192308 283.058170 293.502564 282.652885 293.812821 282.248628 294.123077 281.845413 294.433333 281.443253 294.743590 281.042160 295.053846 280.642149 295.364103 280.243231 295.674359 279.845420 295.984615 279.448728 296.294872 279.053169 296.605128 278.658755 296.915385 278.265500 297.225641 277.873417 297.535897 277.482518 297.846154 277.092816 298.156410 276.704325 298.466667 276.317057 298.776923 275.931025 299.087179 275.546243 299.397436 275.162723 299.707692 274.780478 300.017949 274.399521 300.328205 274.019866 300.638462 273.641524 300.948718 273.264510 301.258974 272.888835 301.569231 272.514514 301.879487 272.141558 302.189744 271.769982 302.500000 271.399797 302.810256 271.031017 303.120513 270.663655 303.430769 270.297724 303.741026 269.933237 304.051282 269.570206 304.361538 269.208645 304.671795 268.848566 304.982051 268.489984 305.292308 268.132909 305.602564 267.777357 305.912821 267.423338 306.223077 267.070868 306.533333 266.719957 306.843590 266.370620 307.153846 266.022870 307.464103 265.676719 307.774359 265.332180 308.084615 264.989266 308.394872 264.647990 308.705128 264.308366 309.015385 263.970406 309.325641 263.634123 309.635897 263.299530 309.946154 262.966640 310.256410 262.635466 310.566667 262.306021 310.876923 261.978318 311.187179 261.652370 311.497436 261.328190 311.807692 261.005791 312.117949 260.685185 312.428205 260.366386 312.738462 260.049407 313.048718 259.734261 313.358974 259.420960 313.669231 259.109518 313.979487 258.799948 314.289744 258.492262 314.600000 258.186473 314.910256 257.882595 315.220513 257.580641 315.530769 257.280623 315.841026 256.982554 316.151282 256.686448 316.461538 256.392317 316.771795 256.100174 317.082051 255.810032 317.392308 255.521905 317.702564 255.235805 318.012821 254.951745 318.323077 254.669738 318.633333 254.389797 318.943590 254.111935 319.253846 253.836165 319.564103 253.562500 319.874359 253.290953 320.184615 253.021537 320.494872 252.754265 320.805128 252.489150 321.115385 252.226204 321.425641 251.965441 321.735897 251.706874 322.046154 251.450515 322.356410 251.196378 322.666667 250.944476 322.976923 250.694822 323.287179 250.447427 323.597436 250.202307 323.907692 249.959473 324.217949 249.718938 324.528205 249.480711 324.838462 249.244784 325.148718 249.011143 325.458974 248.779775 325.769231 248.550667 326.079487 248.323806 326.389744 248.099179 326.700000 247.876773 327.010256 247.656575 327.320513 247.438571 327.630769 247.222750 327.941026 247.009096 328.251282 246.797599 328.561538 246.588243 328.871795 246.381017 329.182051 246.175908 329.492308 245.972901 329.802564 245.771985 330.112821 245.573145 330.423077 245.376370 330.733333 245.181646 331.043590 244.988959 331.353846 244.798297 331.664103 244.609647 331.974359 244.422996 332.284615 244.238330 332.594872 244.055636 332.905128 243.874902 333.215385 243.696114 333.525641 243.519259 333.835897 243.344325 334.146154 243.171297 334.456410 243.000164 334.766667 242.830912 335.076923 242.663527 335.387179 242.497997 335.697436 242.334309 336.007692 242.172450 336.317949 242.012406 336.628205 241.854164 336.938462 241.697712 337.248718 241.543037 337.558974 241.390124 337.869231 241.238962 338.179487 241.089537 338.489744 240.941836 338.800000 240.795846 339.110256 240.651554 339.420513 240.508947 339.730769 240.368011 340.041026 240.228734 340.351282 240.091103 340.661538 239.955104 340.971795 239.820724 341.282051 239.687951 341.592308 239.556772 341.902564 239.427172 342.212821 239.299140 342.523077 239.172661 342.833333 239.047724 343.143590 238.924315 343.453846 238.802420 343.764103 238.682028 344.074359 238.563123 344.384615 238.445695 344.694872 238.329729 345.005128 238.215213 345.315385 238.102133 345.625641 237.990476 345.935897 237.880230 346.246154 237.771380 346.556410 237.663915 346.866667 237.557821 347.176923 237.453085 347.487179 237.349694 347.797436 237.247634 348.107692 237.146893 348.417949 237.047458 348.728205 236.949316 349.038462 236.852453 349.348718 236.756856 349.658974 236.662513 349.969231 236.569410 350.279487 236.477534 350.589744 236.386872 350.900000 236.297412 351.210256 236.209139 351.520513 236.122042 351.830769 236.036106 352.141026 235.951319 352.451282 235.867667 352.761538 235.785139 353.071795 235.703719 353.382051 235.623397 353.692308 235.544157 354.002564 235.465988 354.312821 235.388876 354.623077 235.312809 354.933333 235.237772 355.243590 235.163753 355.553846 235.090740 355.864103 235.018718 356.174359 234.947675 356.484615 234.877598 356.794872 234.808473 357.105128 234.740288 357.415385 234.673029 357.725641 234.606684 358.035897 234.541239 358.346154 234.476682 358.656410 234.412998 358.966667 234.350176 359.276923 234.288202 359.587179 234.227063 359.897436 234.166745 360.207692 234.107237 360.517949 234.048524 360.828205 233.990594 361.138462 233.933434 361.448718 233.877030 361.758974 233.821369 362.069231 233.766439 362.379487 233.712226 362.689744 233.658718 363.000000 233.605900 363.310256 233.553761 363.620513 233.502286 363.930769 233.451464 364.241026 233.401280 364.551282 233.351722 364.861538 233.302777 365.171795 233.254432 365.482051 233.206673 365.792308 233.159487 366.102564 233.112862 366.412821 233.066784 366.723077 233.021241 367.033333 232.976218 367.343590 232.931704 367.653846 232.887685 367.964103 232.844148 368.274359 232.801079 368.584615 232.758467 368.894872 232.716297 369.205128 232.674557 369.515385 232.633233 369.825641 232.592313 370.135897 232.551784 370.446154 232.511631 370.756410 232.471843 371.066667 232.432407 371.376923 232.393308 371.687179 232.354534 371.997436 232.316073 372.307692 232.277910 372.617949 232.240033 372.928205 232.202429 373.238462 232.165085 373.548718 232.127987 373.858974 232.091123 374.169231 232.054479 374.479487 232.018043 374.789744 231.981801 375.100000 231.945740 375.410256 231.909847 375.720513 231.874110 376.030769 231.838514 376.341026 231.803047 376.651282 231.767697 376.961538 231.732449 377.271795 231.697291 377.582051 231.662209 377.892308 231.627191 378.202564 231.592223 378.512821 231.557293 378.823077 231.522388 379.133333 231.487493 379.443590 231.452597 379.753846 231.417686 380.064103 231.382747 380.374359 231.347766 380.684615 231.312732 380.994872 231.277631 381.305128 231.242449 381.615385 231.207174 381.925641 231.171793 382.235897 231.136292 382.546154 231.100659 382.856410 231.064879 383.166667 231.028942 383.476923 230.992832 383.787179 230.956538 384.097436 230.920046 384.407692 230.883342 384.717949 230.846415 385.028205 230.809251 385.338462 230.771836 385.648718 230.734158 385.958974 230.696203 386.269231 230.657960 386.579487 230.619413 386.889744 230.580551 387.200000 230.541361 387.510256 230.501828 387.820513 230.461941 388.130769 230.421686 388.441026 230.381050 388.751282 230.340020 389.061538 230.298583 389.371795 230.256726 389.682051 230.214435 389.992308 230.171698 390.302564 230.128502 390.612821 230.084833 390.923077 230.040678 391.233333 229.996025 391.543590 229.950861 391.853846 229.905171 392.164103 229.858944 392.474359 229.812165 392.784615 229.764823 393.094872 229.716904 393.405128 229.668394 393.715385 229.619281 394.025641 229.569552 394.335897 229.519193 394.646154 229.468193 394.956410 229.416536 395.266667 229.364211 395.576923 229.311204 395.887179 229.257503 396.197436 229.203093 396.507692 229.147963 396.817949 229.092099 397.128205 229.035487 397.438462 228.978116 397.748718 228.919971 398.058974 228.861040 398.369231 228.801310 398.679487 228.740767 398.989744 228.679399 399.300000 228.617192 399.610256 228.554134 399.920513 228.490211 400.230769 228.425410 400.541026 228.359718 400.851282 228.293122 401.161538 228.225609 401.471795 228.157166 401.782051 228.087780 402.092308 228.017441 402.402564 227.946147 402.712821 227.873902 403.023077 227.800709 403.333333 227.726569 403.643590 227.651486 403.953846 227.575461 404.264103 227.498498 404.574359 227.420598 404.884615 227.341764 405.194872 227.262000 405.505128 227.181306 405.815385 227.099687 406.125641 227.017143 406.435897 226.933678 406.746154 226.849295 407.056410 226.763995 407.366667 226.677782 407.676923 226.590657 407.987179 226.502624 408.297436 226.413684 408.607692 226.323841 408.917949 226.233096 409.228205 226.141453 409.538462 226.048913 409.848718 225.955479 410.158974 225.861155 410.469231 225.765941 410.779487 225.669842 411.089744 225.572858 411.400000 225.474994 411.710256 225.376250 412.020513 225.276630 412.330769 225.176137 412.641026 225.074772 412.951282 224.972539 413.261538 224.869439 413.571795 224.765476 413.882051 224.660651 414.192308 224.554968 414.502564 224.448428 414.812821 224.341034 415.123077 224.232790 415.433333 224.123696 415.743590 224.013757 416.053846 223.902973 416.364103 223.791348 416.674359 223.678885 416.984615 223.565585 417.294872 223.451452 417.605128 223.336487 417.915385 223.220694 418.225641 223.104074 418.535897 222.986631 418.846154 222.868366 419.156410 222.749282 419.466667 222.629383 419.776923 222.508669 420.087179 222.387144 420.397436 222.264811 420.707692 222.141671 421.017949 222.017728 421.328205 221.892983 421.638462 221.767439 421.948718 221.641100 422.258974 221.513966 422.569231 221.386041 422.879487 221.257328 423.189744 221.127828 423.500000 220.997545 423.810256 220.866480 424.120513 220.734636 424.430769 220.602017 424.741026 220.468623 425.051282 220.334458 425.361538 220.199525 425.671795 220.063825 425.982051 219.927361 426.292308 219.790137 426.602564 219.652153 426.912821 219.513413 427.223077 219.373920 427.533333 219.233675 427.843590 219.092681 428.153846 218.950941 428.464103 218.808458 428.774359 218.665233 429.084615 218.521269 429.394872 218.376569 429.705128 218.231136 430.015385 218.084971 430.325641 217.938077 430.635897 217.790457 430.946154 217.642114 431.256410 217.493049 431.566667 217.343265 431.876923 217.192765 432.187179 217.041551 432.497436 216.889626 432.807692 216.736993 433.117949 216.583653 433.428205 216.429609 433.738462 216.274864 434.048718 216.119420 434.358974 215.963280 434.669231 215.806447 434.979487 215.648922 435.289744 215.490708 435.600000 215.331808 435.910256 215.172224 436.220513 215.011959 436.530769 214.851015 436.841026 214.689395 437.151282 214.527101 437.461538 214.364136 437.771795 214.200502 438.082051 214.036202 438.392308 213.871238 438.702564 213.705613 439.012821 213.539329 439.323077 213.372389 439.633333 213.204795 439.943590 213.036550 440.253846 212.867656 440.564103 212.698116 440.874359 212.527932 441.184615 212.357107 441.494872 212.185643 441.805128 212.013543 442.115385 211.840809 442.425641 211.667444 442.735897 211.493450 443.046154 211.318829 443.356410 211.143585 443.666667 210.967720 443.976923 210.791236 444.287179 210.614136 444.597436 210.436422 444.907692 210.258096 445.217949 210.079162 445.528205 209.899622 445.838462 209.719478 446.148718 209.538732 446.458974 209.357388 446.769231 209.175448 447.079487 208.992914 447.389744 208.809788 447.700000 208.626074 448.010256 208.441774 448.320513 208.256889 448.630769 208.071424 448.941026 207.885380 449.251282 207.698759 449.561538 207.511565 449.871795 207.323799 450.182051 207.135465 450.492308 206.946564 450.802564 206.757100 451.112821 206.567074 451.423077 206.376490 451.733333 206.185349 452.043590 205.993655 452.353846 205.801409 452.664103 205.608615 452.974359 205.415274 453.284615 205.221390 453.594872 205.026964 453.905128 204.832000 454.215385 204.636499 454.525641 204.440464 454.835897 204.243899 455.146154 204.046804 455.456410 203.849183 455.766667 203.651039 456.076923 203.452373 456.387179 203.253188 456.697436 203.053487 457.007692 202.853273 457.317949 202.652547 457.628205 202.451312 457.938462 202.249571 458.248718 202.047327 458.558974 201.844581 458.869231 201.641336 459.179487 201.437595 459.489744 201.233360 459.800000 201.028634 460.110256 200.823419 460.420513 200.617718 460.730769 200.411533 461.041026 200.204867 461.351282 199.997722 461.661538 199.790101 461.971795 199.582006 462.282051 199.373440 462.592308 199.164405 462.902564 198.954904 463.212821 198.744939 463.523077 198.534513 463.833333 198.323628 464.143590 198.112287 464.453846 197.900492 464.764103 197.688245 465.074359 197.475550 465.384615 197.262409 465.694872 197.048824 466.005128 196.834797 466.315385 196.620332 466.625641 196.405431 466.935897 196.190095 467.246154 195.974329 467.556410 195.758134 467.866667 195.541512 468.176923 195.324467 468.487179 195.107000 468.797436 194.889115 469.107692 194.670813 469.417949 194.452098 469.728205 194.232971 470.038462 194.013436 470.348718 193.793494 470.658974 193.573149 470.969231 193.352402 471.279487 193.131257 471.589744 192.909715 471.900000 192.687779 472.210256 192.465453 472.520513 192.242737 472.830769 192.019635 473.141026 191.796150 473.451282 191.572283 473.761538 191.348037 474.071795 191.123415 474.382051 190.898419 474.692308 190.673052 475.002564 190.447317 475.312821 190.221215 475.623077 189.994749 475.933333 189.767922 476.243590 189.540736 476.553846 189.313194 476.864103 189.085298 477.174359 188.857051 477.484615 188.628455 477.794872 188.399513 478.105128 188.170227 478.415385 187.940599 478.725641 187.710633 479.035897 187.480331 479.346154 187.249695 479.656410 187.018728 479.966667 186.787433 480.276923 186.555813 480.587179 186.323873 480.897436 186.091616 481.207692 185.859044 481.517949 185.626163 481.828205 185.392974 482.138462 185.159482 482.448718 184.925690 482.758974 184.691601 483.069231 184.457220 483.379487 184.222548 483.689744 183.987591 484.000000 183.752352 484.310256 183.516833 484.620513 183.281038 484.930769 183.044972 485.241026 182.808637 485.551282 182.572036 485.861538 182.335174 486.171795 182.098054 486.482051 181.860679 486.792308 181.623053 487.102564 181.385179 487.412821 181.147060 487.723077 180.908701 488.033333 180.670105 488.343590 180.431274 488.653846 180.192214 488.964103 179.952926 489.274359 179.713415 489.584615 179.473684 489.894872 179.233737 490.205128 178.993576 490.515385 178.753206 490.825641 178.512630 491.135897 178.271852 491.446154 178.030874 491.756410 177.789701 492.066667 177.548336 492.376923 177.306782 492.687179 177.065043 492.997436 176.823122 493.307692 176.581023 493.617949 176.338750 493.928205 176.096305 494.238462 175.853692 494.548718 175.610915 494.858974 175.367978 495.169231 175.124883 495.479487 174.881634 495.789744 174.638235 496.100000 174.394689 496.410256 174.150999 496.720513 173.907170 497.030769 173.663204 497.341026 173.419105 497.651282 173.174877 497.961538 172.930523 498.271795 172.686046 498.582051 172.441450 498.892308 172.196739 499.202564 171.951915 499.512821 171.706983 499.823077 171.461946 500.133333 171.216807 500.443590 170.971570 500.753846 170.726238 501.064103 170.480815 501.374359 170.235304 501.684615 169.989709 501.994872 169.744033 502.305128 169.498280 502.615385 169.252454 502.925641 169.006556 503.235897 168.760592 503.546154 168.514565 503.856410 168.268478 504.166667 168.022334 504.476923 167.776137 504.787179 167.529891 505.097436 167.283599 505.407692 167.037264 505.717949 166.790890 506.028205 166.544481 506.338462 166.298040 506.648718 166.051570 506.958974 165.805075 507.269231 165.558558 507.579487 165.312024 507.889744 165.065474 508.200000 164.818913 508.510256 164.572345 508.820513 164.325772 509.130769 164.079199 509.441026 163.832628 509.751282 163.586064 510.061538 163.339509 510.371795 163.092968 510.682051 162.846443 510.992308 162.599938 511.302564 162.353457 511.612821 162.107003 511.923077 161.860579 512.233333 161.614189 512.543590 161.367837 512.853846 161.121526 513.164103 160.875260 513.474359 160.629041 513.784615 160.382874 514.094872 160.136762 514.405128 159.890708 514.715385 159.644716 515.025641 159.398789 515.335897 159.152931 515.646154 158.907146 515.956410 158.661436 516.266667 158.415805 516.576923 158.170258 516.887179 157.924796 517.197436 157.679424 517.507692 157.434146 517.817949 157.188964 518.128205 156.943882 518.438462 156.698904 518.748718 156.454032 519.058974 156.209272 519.369231 155.964625 519.679487 155.720096 519.989744 155.475688 520.300000 155.231405 520.610256 154.987249 520.920513 154.743225 521.230769 154.499336 521.541026 154.255586 521.851282 154.011977 522.161538 153.768513 522.471795 153.525199 522.782051 153.282036 523.092308 153.039030 523.402564 152.796183 523.712821 152.553498 524.023077 152.310980 524.333333 152.068632 524.643590 151.826457 524.953846 151.584458 525.264103 151.342640 525.574359 151.101005 525.884615 150.859557 526.194872 150.618300 526.505128 150.377237 526.815385 150.136372 527.125641 149.895707 527.435897 149.655247 527.746154 149.414996 528.056410 149.174955 528.366667 148.935130 528.676923 148.695523 528.987179 148.456138 529.297436 148.216978 529.607692 147.978047 529.917949 147.739348 530.228205 147.500886 530.538462 147.262662 530.848718 147.024682 531.158974 146.786947 531.469231 146.549463 531.779487 146.312231 532.089744 146.075257 532.400000 145.838542 532.710256 145.602091 533.020513 145.365908 533.330769 145.129995 533.641026 144.894356 533.951282 144.658994 534.261538 144.423914 534.571795 144.189118 534.882051 143.954610 535.192308 143.720394 535.502564 143.486472 535.812821 143.252850 536.123077 143.019529 536.433333 142.786513 536.743590 142.553806 537.053846 142.321412 537.364103 142.089334 537.674359 141.857574 537.984615 141.626138 538.294872 141.395028 538.605128 141.164248 538.915385 140.933801 539.225641 140.703690 539.535897 140.473920 539.846154 140.244494 540.156410 140.015414 540.466667 139.786686 540.776923 139.558311 541.087179 139.330294 541.397436 139.102638 541.707692 138.875347 542.017949 138.648424 542.328205 138.421872 542.638462 138.195695 542.948718 137.969897 543.258974 137.744481 543.569231 137.519450 543.879487 137.294808 544.189744 137.070558 544.500000 136.846704 544.810256 136.623250 545.120513 136.400198 545.430769 136.177553 545.741026 135.955317 546.051282 135.733495 546.361538 135.512090 546.671795 135.291104 546.982051 135.070543 547.292308 134.850408 547.602564 134.630705 547.912821 134.411435 548.223077 134.192603 548.533333 133.974212 548.843590 133.756266 549.153846 133.538767 549.464103 133.321721 549.774359 133.105129 550.084615 132.888996 550.394872 132.673324 550.705128 132.458118 551.015385 132.243382 551.325641 132.029117 551.635897 131.815328 551.946154 131.602019 552.256410 131.389193 552.566667 131.176853 552.876923 130.965002 553.187179 130.753645 553.497436 130.542785 553.807692 130.332425 554.117949 130.122569 554.428205 129.913220 554.738462 129.704381 555.048718 129.496057 555.358974 129.288251 555.669231 129.080965 555.979487 128.874204 556.289744 128.667971 556.600000 128.462270 556.910256 128.257104 557.220513 128.052475 557.530769 127.848379 557.841026 127.644812 558.151282 127.441769 558.461538 127.239245 558.771795 127.037234 559.082051 126.835732 559.392308 126.634734 559.702564 126.434236 560.012821 126.234231 560.323077 126.034715 560.633333 125.835684 560.943590 125.637132 561.253846 125.439054 561.564103 125.241446 561.874359 125.044302 562.184615 124.847618 562.494872 124.651388 562.805128 124.455608 563.115385 124.260273 563.425641 124.065377 563.735897 123.870917 564.046154 123.676886 564.356410 123.483280 564.666667 123.290094 564.976923 123.097324 565.287179 122.904963 565.597436 122.713008 565.907692 122.521453 566.217949 122.330294 566.528205 122.139524 566.838462 121.949141 567.148718 121.759138 567.458974 121.569510 567.769231 121.380253 568.079487 121.191362 568.389744 121.002832 568.700000 120.814658 569.010256 120.626834 569.320513 120.439357 569.630769 120.252220 569.941026 120.065420 570.251282 119.878951 570.561538 119.692808 570.871795 119.506987 571.182051 119.321482 571.492308 119.136288 571.802564 118.951401 572.112821 118.766815 572.423077 118.582526 572.733333 118.398529 573.043590 118.214818 573.353846 118.031390 573.664103 117.848238 573.974359 117.665358 574.284615 117.482745 574.594872 117.300395 574.905128 117.118301 575.215385 116.936460 575.525641 116.754866 575.835897 116.573514 576.146154 116.392400 576.456410 116.211518 576.766667 116.030863 577.076923 115.850432 577.387179 115.670218 577.697436 115.490216 578.007692 115.310423 578.317949 115.130832 578.628205 114.951439 578.938462 114.772239 579.248718 114.593227 579.558974 114.414399 579.869231 114.235748 580.179487 114.057271 580.489744 113.878962 580.800000 113.700816 581.110256 113.522829 581.420513 113.344995 581.730769 113.167310 582.041026 112.989769 582.351282 112.812366 582.661538 112.635097 582.971795 112.457956 583.282051 112.280940 583.592308 112.104042 583.902564 111.927259 584.212821 111.750584 584.523077 111.574014 584.833333 111.397543 585.143590 111.221166 585.453846 111.044878 585.764103 110.868675 586.074359 110.692551 586.384615 110.516502 586.694872 110.340522 587.005128 110.164607 587.315385 109.988752 587.625641 109.812951 587.935897 109.637201 588.246154 109.461495 588.556410 109.285829 588.866667 109.110198 589.176923 108.934597 589.487179 108.759022 589.797436 108.583466 590.107692 108.407926 590.417949 108.232396 590.728205 108.056872 591.038462 107.881348 591.348718 107.705819 591.658974 107.530281 591.969231 107.354729 592.279487 107.179158 592.589744 107.003562 592.900000 106.827937 593.210256 106.652278 593.520513 106.476580 593.830769 106.300838 594.141026 106.125048 594.451282 105.949203 594.761538 105.773300 595.071795 105.597333 595.382051 105.421297 595.692308 105.245187 596.002564 105.069000 596.312821 104.892728 596.623077 104.716369 596.933333 104.539916 597.243590 104.363364 597.553846 104.186710 597.864103 104.009947 598.174359 103.833072 598.484615 103.656078 598.794872 103.478961 599.105128 103.301717 599.415385 103.124340 599.725641 102.946825 600.035897 102.769167 600.346154 102.591362 600.656410 102.413404 600.966667 102.235288 601.276923 102.057010 601.587179 101.878565 601.897436 101.699948 602.207692 101.521153 602.517949 101.342176 602.828205 101.163012 603.138462 100.983656 603.448718 100.804103 603.758974 100.624348 604.069231 100.444386 604.379487 100.264213 604.689744 100.083822 605.000000 99.903210 605.310256 99.722372 605.620513 99.541302 605.930769 99.359995 606.241026 99.178447 606.551282 98.996653 606.861538 98.814607 607.171795 98.632305 607.482051 98.449742 607.792308 98.266913 608.102564 98.083813 608.412821 97.900437 608.723077 97.716780 609.033333 97.532837 609.343590 97.348604 609.653846 97.164074 609.964103 96.979244 610.274359 96.794109 610.584615 96.608663 610.894872 96.422901 611.205128 96.236820 611.515385 96.050412 611.825641 95.863675 612.135897 95.676602 612.446154 95.489189 612.756410 95.301432 613.066667 95.113324 613.376923 94.924861 613.687179 94.736038 613.997436 94.546851 614.307692 94.357294 614.617949 94.167362 614.928205 93.977050 615.238462 93.786354 615.548718 93.595269 615.858974 93.403789 616.169231 93.211909 616.479487 93.019625 616.789744 92.826933 617.100000 92.633825 617.410256 92.440299 617.720513 92.246349 618.030769 92.051970 618.341026 91.857157 618.651282 91.661905 618.961538 91.466209 619.271795 91.270064 619.582051 91.073466 619.892308 90.876409 620.202564 90.678889 620.512821 90.480900 620.823077 90.282438 621.133333 90.083497 621.443590 89.884074 621.753846 89.684161 622.064103 89.483756 622.374359 89.282853 622.684615 89.081447 622.994872 88.879532 623.305128 88.677105 623.615385 88.474160 623.925641 88.270692 624.235897 88.066697 624.546154 87.862169 624.856410 87.657103 625.166667 87.451495 625.476923 87.245339 625.787179 87.038631 626.097436 86.831365 626.407692 86.623538 626.717949 86.415143 627.028205 86.206176 627.338462 85.996632 627.648718 85.786506 627.958974 85.575793 628.269231 85.364488 628.579487 85.152586 628.889744 84.940083 629.200000 84.726972 629.510256 84.513251 629.820513 84.298912 630.130769 84.083953 630.441026 83.868366 630.751282 83.652149 631.061538 83.435295 631.371795 83.217800 631.682051 82.999658 631.992308 82.780866 632.302564 82.561417 632.612821 82.341308 632.923077 82.120532 633.233333 81.899086 633.543590 81.676964 633.853846 81.454161 634.164103 81.230673 634.474359 81.006494 634.784615 80.781620 635.094872 80.556054 635.405128 80.329798 635.715385 80.102855 636.025641 79.875227 636.335897 79.646918 636.646154 79.417930 636.956410 79.188266 637.266667 78.957928 637.576923 78.726920 637.887179 78.495245 638.197436 78.262904 638.507692 78.029901 638.817949 77.796239 639.128205 77.561921 639.438462 77.326948 639.748718 77.091324 640.058974 76.855053 640.369231 76.618135 640.679487 76.380575 640.989744 76.142376 641.300000 75.903539 641.610256 75.664067 641.920513 75.423965 642.230769 75.183233 642.541026 74.941876 642.851282 74.699895 643.161538 74.457294 643.471795 74.214075 643.782051 73.970241 644.092308 73.725795 644.402564 73.480740 644.712821 73.235079 645.023077 72.988813 645.333333 72.741947 645.643590 72.494483 645.953846 72.246423 646.264103 71.997771 646.574359 71.748528 646.884615 71.498699 647.194872 71.248286 647.505128 70.997291 647.815385 70.745717 648.125641 70.493568 648.435897 70.240845 648.746154 69.987552 649.056410 69.733691 649.366667 69.479266 649.676923 69.224279 649.987179 68.968732 650.297436 68.712629 650.607692 68.455973 650.917949 68.198765 651.228205 67.941010 651.538462 67.682709 651.848718 67.423865 652.158974 67.164482 652.469231 66.904562 652.779487 66.644108 653.089744 66.383122 653.400000 66.121608 653.710256 65.859568 654.020513 65.597005 654.330769 65.333921 654.641026 65.070321 654.951282 64.806205 655.261538 64.541577 655.571795 64.276441 655.882051 64.010798 656.192308 63.744651 656.502564 63.478004 656.812821 63.210859 657.123077 62.943218 657.433333 62.675085 657.743590 62.406462 658.053846 62.137353 658.364103 61.867759 658.674359 61.597684 658.984615 61.327131 659.294872 61.056102 659.605128 60.784599 659.915385 60.512627 660.225641 60.240187 660.535897 59.967283 660.846154 59.693917 661.156410 59.420091 661.466667 59.145810 661.776923 58.871075 662.087179 58.595889 662.397436 58.320255 662.707692 58.044177 663.017949 57.767655 663.328205 57.490695 663.638462 57.213297 663.948718 56.935465 664.258974 56.657203 664.569231 56.378511 664.879487 56.099394 665.189744 55.819855 665.500000 55.539895 665.810256 55.259517 666.120513 54.978726 666.430769 54.697522 666.741026 54.415910 667.051282 54.133891 667.361538 53.851469 667.671795 53.568646 667.982051 53.285425 668.292308 53.001810 668.602564 52.717802 668.912821 52.433404 669.223077 52.148620 669.533333 51.863452 669.843590 51.577903 670.153846 51.291975 670.464103 51.005672 670.774359 50.718996 671.084615 50.431950 671.394872 50.144536 671.705128 49.856759 672.015385 49.568619 672.325641 49.280121 672.635897 48.991266 672.946154 48.702059 673.256410 48.412500 673.566667 48.122594 673.876923 47.832343 674.187179 47.541750 674.497436 47.250817 674.807692 46.959548 675.117949 46.667944 675.428205 46.376010 675.738462 46.083747 676.048718 45.791159 676.358974 45.498248 676.669231 45.205018 676.979487 44.911470 677.289744 44.617607 677.600000 44.323433 677.910256 44.028951 678.220513 43.734162 678.530769 43.439070 678.841026 43.143677 679.151282 42.847987 679.461538 42.552002 679.771795 42.255725 680.082051 41.959158 680.392308 41.662305 680.702564 41.365168 681.012821 41.067750 681.323077 40.770054 681.633333 40.472082 681.943590 40.173838 682.253846 39.875324 682.564103 39.576543 682.874359 39.277497 683.184615 38.978190 683.494872 38.678624 683.805128 38.378803 684.115385 38.078728 684.425641 37.778403 684.735897 37.477830 685.046154 37.177012 685.356410 36.875952 685.666667 36.574653 685.976923 36.273118 686.287179 35.971348 686.597436 35.669348 686.907692 35.367120 687.217949 35.064666 687.528205 34.761990 687.838462 34.459094 688.148718 34.155981 688.458974 33.852654 688.769231 33.549115 689.079487 33.245368 689.389744 32.941415 689.700000 32.637258 690.010256 32.332902 690.320513 32.028348 690.630769 31.723599 690.941026 31.418658 691.251282 31.113528 691.561538 30.808211 691.871795 30.502711 692.182051 30.197030 692.492308 29.891171 692.802564 29.585137 693.112821 29.278930 693.423077 28.972554 693.733333 28.666011 694.043590 28.359303 694.353846 28.052434 694.664103 27.745407 694.974359 27.438223 695.284615 27.130887 695.594872 26.823400 695.905128 26.515766 696.215385 26.207988 696.525641 25.900067 696.835897 25.592008 697.146154 25.283812 697.456410 24.975482 697.766667 24.667022 698.076923 24.358433 698.387179 24.049720 698.697436 23.740884 699.007692 23.431929 699.317949 23.122856 699.628205 22.813670 699.938462 22.504372 700.248718 22.194966 700.558974 21.885454 700.869231 21.575839 701.179487 21.266124 701.489744 20.956311 701.800000 20.646404 702.110256 20.336406 702.420513 20.026318 702.730769 19.716144 703.041026 19.405886 703.351282 19.095548 703.661538 18.785132 703.971795 18.474640 704.282051 18.164077 704.592308 17.853444 704.902564 17.542744 705.212821 17.231980 705.523077 16.921155 705.833333 16.610271 706.143590 16.299332 706.453846 15.988340 706.764103 15.677298 707.074359 15.366208 707.384615 15.055074 707.694872 14.743899 708.005128 14.432684 708.315385 14.121433 708.625641 13.810149 708.935897 13.498834 709.246154 13.187492 709.556410 12.876124 709.866667 12.564734 710.176923 12.253325 710.487179 11.941899 710.797436 11.630459 711.107692 11.319008 711.417949 11.007548 711.728205 10.696083 712.038462 10.384615 712.038462 540.000000" /></g></g><g class="titles" /><g class="plot overlay" transform="translate(54, 20)"><g class="series serie-0 color-0"><g class="dots"><circle class="dot reactive tooltip-trigger" cx="13.96153846153846" cy="529.6153846153846" r="2.5" /><desc class="value">60,929,157(kWh)</desc><desc class="x top">13.96153846153846</desc><desc class="y top">529.6153846153846</desc><desc class="x_label">2549</desc></g><g class="dots"><circle class="dot reactive tooltip-trigger" cx="91.52564102564101" cy="463.02948829120896" r="2.5" /><desc class="value">67,364,772(kWh)</desc><desc class="x top">91.52564102564101</desc><desc class="y top">463.02948829120896</desc><desc class="x_label">2550</desc></g><g class="dots"><circle class="dot reactive tooltip-trigger" cx="169.08974358974356" cy="423.1847881439903" r="2.5" /><desc class="value">71,215,815(kWh)</desc><desc class="x top">169.08974358974356</desc><desc class="y top">423.1847881439903</desc><desc class="x_label">2551</desc></g><g class="dots"><circle class="dot reactive tooltip-trigger" cx="246.65384615384613" cy="348.0636853589296" r="2.5" /><desc class="value">78,476,369(kWh)</desc><desc class="x top">246.65384615384613</desc><desc class="y top">348.0636853589296</desc><desc class="x_label">2552</desc></g><g class="dots"><circle class="dot reactive tooltip-trigger" cx="324.21794871794873" cy="249.71893781798155" r="2.5" /><desc class="value">87,981,519(kWh)</desc><desc class="x ">324.21794871794873</desc><desc class="y ">249.71893781798155</desc><desc class="x_label">2553</desc></g><g class="dots"><circle class="dot reactive tooltip-trigger" cx="401.78205128205127" cy="228.08778030979818" r="2.5" /><desc class="value">90,072,199(kWh)</desc><desc class="x left">401.78205128205127</desc><desc class="y left">228.08778030979818</desc><desc class="x_label">2554</desc></g><g class="dots"><circle class="dot reactive tooltip-trigger" cx="479.3461538461538" cy="187.24969490291494" r="2.5" /><desc class="value">94,019,254(kWh)</desc><desc class="x left">479.3461538461538</desc><desc class="y left">187.24969490291494</desc><desc class="x_label">2555</desc></g><g class="dots"><circle class="dot reactive tooltip-trigger" cx="556.9102564102565" cy="128.25710381374813" r="2.5" /><desc class="value">99,720,966(kWh)</desc><desc class="x left">556.9102564102565</desc><desc class="y left">128.25710381374813</desc><desc class="x_label">2556</desc></g><g class="dots"><circle class="dot reactive tooltip-trigger" cx="634.474358974359" cy="81.00649369276971" r="2.5" /><desc class="value">104,287,800(kWh)</desc><desc class="x left">634.474358974359</desc><desc class="y left">81.00649369276971</desc><desc class="x_label">2557</desc></g><g class="dots"><circle class="dot reactive tooltip-trigger" cx="712.0384615384615" cy="10.384615384615358" r="2.5" /><desc class="value">111,113,498(kWh)</desc><desc class="x left">712.0384615384615</desc><desc class="y left">10.384615384615358</desc><desc class="x_label">2558</desc></g></g></g><g class="plot text-overlay" transform="translate(54, 20)"><g class="series serie-0 color-0" /></g><g class="plot tooltip-overlay" transform="translate(54, 20)"><g class="tooltip" style="opacity: 0" transform="translate(0 0)"><rect class="tooltip-box" height="0" rx="0" ry="0" width="0" /><g class="text" /></g></g></g></svg>